<svg xmlns="http://www.w3.org/2000/svg" viewBox="0 0 133.35 76.83"><defs><style>.cls-1{fill:#2aa9cc;}</style></defs><title>JustTitle</title><g id="Layer_2" data-name="Layer 2"><g id="Layer_1-2" data-name="Layer 1"><path class="cls-1" d="M50.22,64.66,57.52,45a3.34,3.34,0,0,0-1.64-1v-.48h6.66l8.58,30.7a4.32,4.32,0,0,0,2.47,2.18v.48H64.67v0l-2.77,0v-.48a4,4,0,0,0,2.26-1.85l-2-9.61,1.07-2.61s.29-1-.47-.46a53.25,53.25,0,0,0-4.22,4.77c-.55.69-1.11,1.43-1.65,2.19-1.91,2.7-3.59,5.69-3.75,8.05H44.31v-.48a4,4,0,0,0,2.28-1.88l2-5.38Zm3.32,1.93s3.5-5.35,6.89-7L59.21,52Z"/><path class="cls-1" d="M78.28,76.79H75.21v-.48C77,75.9,78,73.51,78,73.51V46.71s-1-2.39-2.82-2.8v-.48H91.72c4.37.13,7.88,5.12,7.88,11.25,0,11.86-10.42,12.7-13.56,12.69,0,0-3.18-.28-4.21.5-.1.07,0,.5,0,.5s2.24-.09,3.33.86v4.27s1,2.39,2.82,2.8v.48Zm7.13-10.88.52,0c4.37,0,7.91-4.74,7.91-10.59S90.3,44.76,85.93,44.76l-.52,0Z"/><path class="cls-1" d="M117.19,54.43c.26.25-1,1.58-1.27.77-.81-2.56-.12-6.27-1.22-8.08-2.84-4.68-6-1.59-6.58,0-2.07,6.08,13.5,17.07,9.44,24.41h0l-.47.86c-1.54,2.6-5.06,4.42-9.15,4.42-5.52,0-10-3.3-10-7.37C98,68.21,97.7,66,99.08,66s.85,1.16.85,1.16-.36.5-.47.67c-2.95,4.58,5.7,12.66,11.1,4.29,4-4.83-20.27-28.71-1.81-28.71,3.43,0,13.71.18,13.71.18S113.48,51,117.19,54.43Z"/><path class="cls-1" d="M42.41,43.91v-.48H32.47L26.7,54.92,20.81,43.43H10.89v.48c1.81.41,2.81,2.8,2.81,2.8v26.8s-1,2.39-2.81,2.8v.48h2.23v0h1v0h6.38v-.48c-1.82-.41-2.82-2.8-2.82-2.8V50.1c1.66,2.91,8.15,14.82,4.91,16.44-.32.16.54,1.8,1,1.09,1.1-1.65,3.55-5.85,4.76-8h0c.42-.75.7-1.25.71-1.29s0,0,0,0l3.42-6.47V73.51s-1,2.39-2.82,2.8v.48H42.41v-.48c-1.81-.41-2.81-2.8-2.81-2.8V46.71S40.6,44.32,42.41,43.91Z"/><path class="cls-1" d="M39.85,22.13q0,4.39-5.28,10.42t-9.14,6H23.94a9.6,9.6,0,0,1-4.23-1.41c-1.73-.94-3.42-1.87-5.05-2.79A10.85,10.85,0,0,0,10,32.86H8.36A2.61,2.61,0,0,0,5.77,35c-.45,1.43-1,2-1.48,2.15A1,1,0,0,1,3.36,37C3.1,36.76,3,36.22,3,35.37c0-1.7,1.25-3.25,3.77-4.65s3.77-2.54,3.77-3.42c.12-2.88,0-9.82,0-9.92a1.62,1.62,0,0,0-.18-.62,1.89,1.89,0,0,0-1.47-1,2.87,2.87,0,0,1-1.15-.47.88.88,0,0,1-.32-.71v-.71a9.87,9.87,0,0,0,5-1.51c1.7-1,3.41-2.05,5.14-3.13H18v1.24a3.92,3.92,0,0,0-.85,1.16,4,4,0,0,0-.6,1.89V23.9a2.73,2.73,0,0,0,.74,1.66,1.4,1.4,0,0,1,.39.85c0,.29-.39.61-1.17,1a5.85,5.85,0,0,0-1.59,1h2.44A10.26,10.26,0,0,1,21.54,30c2.05,1.19,5.15,4,7.16,3.63,2.26-.41,2.53-.82,3.85-2.31a8.29,8.29,0,0,0,2.37-5.45c0-1.64-1.26-3.37-3.79-5.17q-3.54-2.5-5.88-2.51c-2.07,0-3.36.81-3.86,2.41S20.22,23,19.37,23a1,1,0,0,1-.83-.45,1.37,1.37,0,0,1-.33-.79c0-.93.81-2.21,2.44-3.86a54.94,54.94,0,0,1,8.89-6.87,10.22,10.22,0,0,0-2.43-4,4.46,4.46,0,0,0-3-1.53h-2.3c-.88,0-2.52.66-4.92,2q-3.33,1.88-6.63,3.77a21.37,21.37,0,0,1-5.35,2s-2.52.69-4-1A3,3,0,0,1,0,10.51a1.13,1.13,0,0,1,.44-.87,1.64,1.64,0,0,1,1.05-.37c.61,0,1,.39,1.17,1.16a1.34,1.34,0,0,0,1.45,1.16q1.84,0,5.88-3Q16.54,3.73,17.6,3c3.17-2,5.88-3,8.15-3a7.84,7.84,0,0,1,5.38,2A19.64,19.64,0,0,1,34,5.65c.87,1.34,1.6,2,2.19,2C36.28,8,37.58,9.2,35,10.32a19,19,0,0,0-3.79,2.35l6.3,4.17A7.26,7.26,0,0,1,39.85,22.13Z"/><path class="cls-1" d="M66.33,34.16a.64.64,0,0,1,.07,1.1c-.81.55-1.45,1-1.91,1.27a19.3,19.3,0,0,1-3.09,1.85,3.08,3.08,0,0,1-2.11-1.27L57.1,34.33c-.08,0-1.19.71-3.33,2.12a18.22,18.22,0,0,1-3.6,2.13q-2.81,0-5.79-2.85a10.94,10.94,0,0,1-3.56-8.22q0-4.4,4.66-9.33,4.94-5.25,10.13-5.25a7.17,7.17,0,0,1,3.25,1.45A7.16,7.16,0,0,0,62,15.84c.83,0,2-.61,3.52-1.82a.65.65,0,0,1,.74,0c.74.56-1.75,3-2.43,4.06A7.13,7.13,0,0,0,62.69,22v8.3a3.26,3.26,0,0,0,2.25,3.3C65.51,33.8,66,34,66.33,34.16ZM58.78,20.43a2.35,2.35,0,0,0-.63.08,3.66,3.66,0,0,1-1.09.2c-1-.15-1.65-.66-3-1.89S51.7,17,50.92,17a3.81,3.81,0,0,0-3.15,1.84,9.18,9.18,0,0,0-1.7,5.72q0,2.51,2.73,6a6,6,0,0,0,4.74,2.66,6.21,6.21,0,0,0,2.15-.43c.39-.15.79-.32,1.21-.5V25.22a1,1,0,0,1,.19-.56c.23-.32.43-.6.59-.87.58-.9,2.37-2.84,2-3.13A3.4,3.4,0,0,0,58.78,20.43Z"/><path class="cls-1" d="M111,.73a9.94,9.94,0,0,0-1,1.2,4.38,4.38,0,0,0-1.06,2.35V32.6c0,2,.33,3.35,1,4.09a1.77,1.77,0,0,1,.51,1.16.64.64,0,0,1-.25.6,1.49,1.49,0,0,1-.69.13,8.5,8.5,0,0,1-1.52-.56,5.83,5.83,0,0,0-1.88-.57,6.38,6.38,0,0,0-2,.37l-2.19.76a.85.85,0,0,1-.74,0c-.92-.44,0-1.31,0-1.31a5.73,5.73,0,0,0,1-2,7.55,7.55,0,0,0,.49-2V7.64a2.47,2.47,0,0,0-1.14-1.93,1.17,1.17,0,0,1-.55-.85q2.55-1.62,3.91-2.43Q109,0,110,0a.85.85,0,0,1,.62.23A1.26,1.26,0,0,1,111,.73Z"/><path class="cls-1" d="M133.35,18.3c0,.3-1,1.11-3,2.42-1.57,1-3.48,2.2-5.75,3.51q-3.16,1.82-3.84,2.16c-2.37,1.23-3.56,2-3.56,2.23a12.64,12.64,0,0,0,1.88,2,8.75,8.75,0,0,0,5.6,2,6.88,6.88,0,0,0,4.3-1.39l3-3.05c.4-.43.55.11.65.33a2.54,2.54,0,0,1,.13.94q0,2.94-3.22,6c-2.16,2-4.14,3.07-6,3.07H121q-2.58,0-5.79-3.58c-2.14-2.39-4.22-7.28-3.46-11.61a12,12,0,0,1,3.13-6.94c2.27-2.52,4.33-4.13,8.94-3.5,1.15.16,2.66.81,5.41,2.43S133.35,18,133.35,18.3Zm-7.12,2.4a14.17,14.17,0,0,1-4.3-4,2.57,2.57,0,0,0-2.07-1c-1,0-1.58.18-2.66,1.39-.84.93-3.22,4.2-1.43,7.78a4.3,4.3,0,0,0,.92,1.52,24.78,24.78,0,0,1,3.2-2Q123.07,22.56,126.23,20.7Z"/><path class="cls-1" d="M83.07,33.28a4.15,4.15,0,0,1-.59.06c-.23,0-.47,0-.7,0a5.72,5.72,0,0,1-3.17-.81,4.28,4.28,0,0,1-1.76-3.86V2.29a.41.41,0,0,0-.6-.38,45.74,45.74,0,0,0-4.72,2.54c-.39.49-.59,2-.59,4.52v4.32a1.29,1.29,0,0,1-.43.81,12.08,12.08,0,0,0-2.19,3.39.58.58,0,0,0,0,.18v1.61c0,.61.9-.15,1.2-.45a1.17,1.17,0,0,1,1.07-.33V32.6c0,1.13,1,2.46,2.93,4,1.73,1.34,2.85,2,3.37,2a17.52,17.52,0,0,0,4-2.14,21.08,21.08,0,0,0,3.44-2.34.7.7,0,0,0-.27-.64A1.73,1.73,0,0,0,83.07,33.28Z"/><path class="cls-1" d="M99.32,12.59q0,3.71-4.07,5.37a18.39,18.39,0,0,1-4.06.93v9.8A4.26,4.26,0,0,0,93,32.55a5.7,5.7,0,0,0,3.16.81c.24,0,.47,0,.71,0a4,4,0,0,0,.58-.06,1.69,1.69,0,0,1,.9.18.68.68,0,0,1,.28.64,21.08,21.08,0,0,1-3.44,2.34,17.75,17.75,0,0,1-4,2.14c-.53,0-1.65-.67-3.37-2-1.95-1.51-2.93-2.84-2.93-4V18.5L85.28,9c0-2.53.19-4,.59-4.52a47.57,47.57,0,0,1,4.76-2.57.39.39,0,0,1,.56.35V12.94H95a4.41,4.41,0,0,0,2.23-.46l1.37-1c.19-.17.28.11.47.32A1.27,1.27,0,0,1,99.32,12.59Z"/><polygon class="cls-1" points="94.05 12.94 75.68 12.94 76.28 18.82 90.95 18.82 94.05 12.94"/></g></g></svg>