<svg xmlns="http://www.w3.org/2000/svg" viewBox="0 0 1000 1000"><defs><style>.cls-1{isolation:isolate;}.cls-2{fill:#a7c44f;}.cls-3{fill:#824239;}.cls-4{fill:#662f28;}.cls-5{fill:#bf705e;}.cls-6{fill:#a16052;}.cls-7{fill:#cf8574;}.cls-8{fill:#854a3d;}.cls-9{fill:#a04f44;}.cls-10{fill:#decbb8;}.cls-10,.cls-11{mix-blend-mode:multiply;}.cls-11{fill:#e8cfca;}.cls-12{fill:#cf9074;}.cls-13{fill:#7ed7df;}.cls-14{fill:#8c9937;}.cls-15{fill:#c4eef2;}.cls-16{fill:#c8e07e;}.cls-17{fill:#ffeaa1;}</style></defs><g class="cls-1"><g id="_Layer_" data-name="&lt;Layer&gt;"><polygon class="cls-2" points="134.38 464.73 145.18 451 207.99 419.23 207.5 408.75 213.4 405.73 243.81 384.67 279.11 355.49 375.26 312.97 414.21 282.23 472.06 244.1 513.18 242.38 579.56 284.07 640.58 309.34 765.54 390.55 807.56 409.63 817.76 432.91 817.96 441.76 859.64 448.24 865.62 465.69 709.71 544.03 596.36 603.08 517.36 658.53 481.47 664.9 424.26 623.66 336.55 586.63 238.33 518.42 134.38 464.73"/><polygon class="cls-3" points="596.36 603.08 517.36 658.53 481.47 664.9 487.62 760.51 497.31 813.03 489.93 884.06 521.35 882.75 565.53 853.63 595.28 830.14 607.19 739.1 638.3 685.37 661.41 569.19 596.36 603.08"/><polygon class="cls-4" points="779.29 714.22 809.18 575.89 839.88 529.84 852 487.83 865.62 465.69 709.71 544.03 661.41 569.19 638.3 685.37 607.19 739.1 595.28 830.14 668.73 797.66 718.92 759.29 760.67 737.89 779.29 714.22"/><polygon class="cls-5" points="265.06 756.31 257.27 738.52 225.28 726.82 220.71 713.48 210.49 613.87 191.91 569.19 185.45 536.3 134.38 476.52 134.38 464.73 238.33 518.42 246.85 569.19 265.06 616.29 275.94 676.89 265.06 756.31"/><polygon class="cls-6" points="265.06 756.31 297.16 770.88 392.62 832.91 362.39 718.09 361.34 642.43 336.55 586.63 238.33 518.42 246.85 569.19 265.06 616.29 275.94 676.89 265.06 756.31"/><polygon class="cls-5" points="392.62 832.91 439.23 852.22 489.93 884.06 497.31 813.03 487.62 760.51 481.47 664.9 424.26 623.66 336.55 586.63 361.34 642.43 362.39 718.09 392.62 832.91"/><polygon class="cls-7" points="361.34 642.43 323.61 638.91 311.49 647.92 343 694.66 416.93 714.86 440.76 702.74 423.79 664.9 376.12 660.73 361.34 642.43"/><polygon class="cls-8" points="416.93 714.86 343 694.66 311.49 647.92 331.28 763.74 347.44 796.46 359.56 835.65 385.01 855.85 404 851.81 421.12 844.72 440.76 702.74 416.93 714.86"/><polygon class="cls-6" points="343 694.66 353.5 758.89 376.12 789.6 378.95 825.55 385.01 855.85 404 851.81 414.5 799.29 409.65 763.34 416.93 714.86 343 694.66"/><polygon class="cls-9" points="690.21 604.78 739.9 592.4 752.62 580.24 782.92 563.78 782.92 590.41 759.89 618.31 704.75 615.77 690.21 604.78"/><polygon class="cls-3" points="704.75 615.77 690.21 604.78 679.91 720.11 685.06 743.14 679.91 789.12 695.06 795.25 712.02 785.56 736.57 726.63 765.35 675.67 782.92 590.41 759.89 618.31 704.75 615.77"/><polygon class="cls-4" points="710.21 735.35 695.06 795.25 712.02 785.56 736.57 726.63 765.35 675.67 782.92 590.41 759.89 618.31 704.75 615.77 720.51 643.76 710.21 701.33 710.21 735.35"/><polygon class="cls-7" points="170.17 518.42 154.75 533.07 158.38 554.89 196.52 580.27 234.73 583.57 190.02 559.55 185.45 536.3 170.17 518.42"/><polygon class="cls-8" points="208.88 594.07 234.73 583.57 196.52 580.27 158.38 554.89 175.35 605.38 200.8 636.49 211.71 684.56 218.94 696.16 210.49 613.87 208.88 594.07"/><polygon class="cls-10" points="596.36 603.08 530.47 664.9 537.41 714.86 554.07 742.78 549.21 800.39 521.35 882.75 534.63 814.96 530.47 784.42 534.63 735.35 516.59 689.34 517.36 658.53 596.36 603.08"/><polygon class="cls-11" points="652.4 614.48 643.6 688.88 624.16 737.46 624.16 797.15 649.15 800.85 675.06 786.97 682 742.92 679.91 720.11 685.06 743.14 679.91 789.12 668.73 797.66 595.28 830.14 607.19 739.1 638.3 685.37 652.4 614.48"/><polygon class="cls-11" points="775.53 626.27 769.22 676.89 751.87 717.8 757.07 728.55 765.75 726.63 779.29 714.22 760.67 737.89 724.06 756.66 736.57 726.63 765.35 675.67 775.53 626.27"/><polygon class="cls-11" points="685.06 556.87 785.18 518.42 834.46 518.42 839.88 529.84 852 487.83 865.62 465.69 685.06 556.87"/><polygon class="cls-10" points="759.89 618.31 754.64 675.67 730.45 722.31 712.02 785.56 736.57 726.63 765.35 675.67 782.92 590.41 759.89 618.31"/><polygon class="cls-10" points="416.93 714.86 409.65 763.34 414.5 799.29 404 851.81 421.12 844.72 439.23 852.22 437.7 795.25 443.71 746.72 440.76 702.74 416.93 714.86"/><polygon class="cls-10" points="265.06 616.29 270.2 676.89 249.85 722.31 225.28 726.82 257.27 738.52 265.06 756.31 275.94 676.89 265.06 616.29"/><polygon class="cls-10" points="196.52 580.27 194.74 610.52 205.16 635.9 211.71 684.56 218.94 696.16 216.3 616.29 234.73 583.57 196.52 580.27"/><polygon class="cls-10" points="424.26 623.66 336.55 586.63 275.94 544.54 344.76 605.11 421.5 626.27 481.46 664.9 424.26 623.66"/><polygon class="cls-10" points="599.87 742.92 588.77 826.41 568.64 844.46 578.82 818.2 599.87 742.92"/><polygon class="cls-10" points="320.5 700.66 331.28 763.74 347.44 796.46 350.19 805.34 311.49 780.19 327.12 777.48 328.5 761.06 320.5 700.66"/><polygon class="cls-6" points="392.62 328.4 326.12 360.76 330.84 403.92 468.03 442.93 613.27 405.58 695.06 402.26 712.02 361.6 690.21 307.65 631.53 242.38 611.61 137.52 584.26 115.94 556.47 120.92 508.7 205.57 440.76 238.77 416.93 287.73 392.62 328.4"/><polygon class="cls-12" points="440.76 238.77 482.56 252.46 551.44 245.61 572.19 232.96 547.29 235.45 523.64 221.75 508.7 205.57 440.76 238.77"/><polygon class="cls-12" points="690.21 307.65 638.58 328.81 556 332.55 506.47 325.49 560.57 340.02 634.43 340.02 665.97 349.56 690.21 339.19 690.21 307.65"/><polygon class="cls-12" points="556.47 120.92 585.33 140.56 612.49 142.16 611.61 137.52 584.26 115.94 556.47 120.92"/><polygon class="cls-11" points="625.72 244.99 676.38 292.26 676.38 292.26 631.53 242.38 612.49 142.16 585.33 140.56 598.34 191.05 619.91 215.53 625.72 244.99"/><polygon class="cls-11" points="482.56 252.46 495.7 286.63 495.7 306.54 506.47 325.49 556 332.55 543.28 301.56 552.13 264.77 551.44 245.61 482.56 252.46"/><polygon class="cls-11" points="665.97 349.56 668.6 373.49 665.97 392.3 613.27 405.58 695.06 402.26 712.02 361.6 690.21 307.65 690.21 339.19 665.97 349.56"/><polygon class="cls-12" points="326.12 360.76 392.62 328.4 430.69 353.71 474.26 351.64 466.79 377.36 372.87 376.81 326.12 360.76"/><polygon class="cls-11" points="372.87 376.81 377.02 397 414.09 415.54 382.55 408.35 383.38 418.86 468.03 442.93 462.78 405.58 446.45 398.39 464.16 396.45 466.79 377.36 372.87 376.81"/><polygon class="cls-10" points="468.03 442.93 567.62 431.31 676.38 431.31 724.06 420.24 772.65 418.94 817.76 432.91 807.56 409.63 765.54 390.55 708.83 353.7 712.02 361.6 695.06 402.26 613.27 405.58 468.03 442.93"/><path class="cls-13" d="M703.18,473.91c-86.31,11.07-206.38-18.81-239-11.62s7.19,34.86-68.05,14.39S207.5,408.75,207.5,408.75h0l.49,10.48L145.18,451h0C219,462.94,328.61,537.54,396.66,569.19s63.63-30.55,100.65-45.48,99.64,10,190.38,2.21,171.95-77.68,171.95-77.68L818,441.76l-.2-8.85S789.49,462.85,703.18,473.91Z"/><path class="cls-14" d="M396.11,485.26c75.24,20.47,35.41-7.2,68.05-14.39s152.71,22.69,239,11.62C761.35,475,799.34,454.42,818,441.76l-.2-8.85s-28.27,29.94-114.58,41-206.38-18.81-239-11.62,7.19,34.86-68.05,14.39S207.5,408.75,207.5,408.75l.49,10.48C252.11,436.44,341.18,470.31,396.11,485.26Z"/><path class="cls-15" d="M474.26,508.08s4.56-22,48.55-17.85,41.62,9.44,72.47,8.66,3.05,15-36.78,9.19-54.78-12-67.64-6.23S472.18,520.53,474.26,508.08Z"/><path class="cls-15" d="M662.44,506.42s-7.4,2.69-22.27,3.11-24.2-1.89-17.36,1.75,36.94,5.7,49.8,0S676.58,503.8,662.44,506.42Z"/><path class="cls-15" d="M346.86,518.42s23.24,9.71,43.44,23.82,31.81,8.75,39.28,2.3,3-8.94-9.13-7.55-25.68,2.76-41.75-7.75S320.58,506.78,346.86,518.42Z"/><path class="cls-15" d="M272.17,464.73a171.33,171.33,0,0,0-25.45-9.08c-14.38-3.87,7,11.35,29.22,18S289.32,473.24,272.17,464.73Z"/><polygon class="cls-5" points="474.26 351.64 463.88 316.36 474.26 286.49 474.26 258.68 482.56 252.46 440.76 238.77 392.62 328.4 430.69 353.71 474.26 351.64"/><polygon class="cls-5" points="572.19 232.96 572.19 271.13 564.72 289.08 574.26 307.65 598.34 322.17 638.58 328.81 556 332.55 543.28 301.56 552.13 264.77 551.44 245.61 572.19 232.96"/><polygon class="cls-5" points="547.29 235.45 543.28 201.42 561.4 163.24 561.4 145.4 585.33 140.56 556.47 120.92 508.7 205.57 523.64 221.75 547.29 235.45"/><polygon class="cls-16" points="709.71 544.03 596.36 603.08 517.36 658.53 481.47 664.9 424.26 623.66 336.55 586.63 238.33 518.42 134.38 464.73 134.38 471.37 238.33 525.06 336.55 593.27 424.26 630.3 481.47 671.54 517.36 665.17 596.36 609.72 709.71 550.67 859.71 475.3 865.62 465.69 709.71 544.03"/><path class="cls-17" d="M687.69,525.92c-90.74,7.75-153.35-17.15-190.38-2.21s-32.6,77.14-100.65,45.48C370,556.77,336.84,537.74,302,518.47c1.47,1.06,73,52.65,118.44,71.94,45.92,19.48,92.28-53,209.69-35.52,59.28,8.8,169.57-66.18,169.57-66.18h0C769,505.69,729.35,522.36,687.69,525.92Z"/><polygon class="cls-14" points="596.36 609.72 709.71 550.67 859.71 475.3 865.62 465.69 709.71 544.03 596.36 603.08 517.36 658.53 481.47 664.9 481.47 671.54 517.36 665.17 596.36 609.72"/></g></g></svg>
