<svg xmlns="http://www.w3.org/2000/svg" viewBox="0 0 107.6 10.21"><defs><style>.cls-1{fill:#620f13;}</style></defs><title>Subtitle</title><g id="Layer_2" data-name="Layer 2"><g id="Layer_1-2" data-name="Layer 1"><path class="cls-1" d="M4.77,2.39V9.88a.33.33,0,0,1-.33.33H3.78a.32.32,0,0,1-.33-.33V5.78H1.32v4.1a.32.32,0,0,1-.33.33H.33A.32.32,0,0,1,0,9.88V2.39a2.39,2.39,0,0,1,4.77,0Zm-1.32,0a1.07,1.07,0,0,0-2.13,0V4.46H3.45Z"/><path class="cls-1" d="M17.66,2.37V9.88a.34.34,0,0,1-.33.33h-.66a.34.34,0,0,1-.34-.33V2.37a1.06,1.06,0,0,0-2.12,0V9.88a.33.33,0,0,1-.33.33h-.66a.33.33,0,0,1-.33-.33V2.37a1.06,1.06,0,0,0-2.12,0V9.88a.34.34,0,0,1-.33.33H9.78a.35.35,0,0,1-.33-.33V2.37A2.38,2.38,0,0,1,13.55.74a2.38,2.38,0,0,1,4.11,1.63Z"/><path class="cls-1" d="M24.13,2.39V9.88a.32.32,0,0,1-.33.33h-.66a.32.32,0,0,1-.33-.33V5.78H20.69v4.1a.33.33,0,0,1-.33.33H19.7a.32.32,0,0,1-.33-.33V2.39a2.38,2.38,0,0,1,4.76,0Zm-1.32,0a1.06,1.06,0,0,0-2.12,0V4.46h2.12Z"/><path class="cls-1" d="M30.61,2.37v1a2.4,2.4,0,0,1-2.38,2.4H27.16V9.88a.33.33,0,0,1-.33.33h-.66a.35.35,0,0,1-.33-.33V.33A.34.34,0,0,1,26.17,0h2.06A2.39,2.39,0,0,1,30.61,2.37Zm-1.32,0a1.06,1.06,0,0,0-1.06-1H27.16V4.44h1.07a1.07,1.07,0,0,0,1.06-1.08Z"/><path class="cls-1" d="M38.28,3.09v-.7a1.06,1.06,0,0,0-2.11,0V7.86a1.06,1.06,0,0,0,2.11,0V5.74h-.72a.32.32,0,0,1-.33-.31V4.77a.32.32,0,0,1,.33-.33h1.71a.33.33,0,0,1,.33.33V7.86a2.38,2.38,0,0,1-4.75,0V2.39a2.38,2.38,0,0,1,4.75,0v.7a.33.33,0,0,1-.33.33h-.66A.32.32,0,0,1,38.28,3.09Z"/><path class="cls-1" d="M42.63,1.32V4.44h1.79a.32.32,0,0,1,.33.33v.66a.33.33,0,0,1-.33.33H42.63V8.89h1.79a.33.33,0,0,1,.33.33v.66a.32.32,0,0,1-.33.33H42a.67.67,0,0,1-.66-.66V.66A.65.65,0,0,1,42,0h2.45a.32.32,0,0,1,.33.33V1a.32.32,0,0,1-.33.33Z"/><path class="cls-1" d="M51.23,2.37V9.88a.33.33,0,0,1-.33.33h-.66a.33.33,0,0,1-.33-.33V2.37a1.06,1.06,0,0,0-2.12,0V9.88a.34.34,0,0,1-.33.33h-.67a.34.34,0,0,1-.33-.33V2.37a2.39,2.39,0,0,1,4.77,0Z"/><path class="cls-1" d="M54.26,1.32V4.44h1.79a.32.32,0,0,1,.33.33v.66a.33.33,0,0,1-.33.33H54.26V8.89h1.79a.33.33,0,0,1,.33.33v.66a.32.32,0,0,1-.33.33H53.6a.67.67,0,0,1-.66-.66V.66A.65.65,0,0,1,53.6,0h2.45a.32.32,0,0,1,.33.33V1a.32.32,0,0,1-.33.33Z"/><path class="cls-1" d="M62.74,3.36A2.42,2.42,0,0,1,62,5.1a2.34,2.34,0,0,1,.72,1.71V9.88a.34.34,0,0,1-.33.33h-.66a.33.33,0,0,1-.33-.33V6.81a1.06,1.06,0,0,0-1.05-1H59.31V9.88a.35.35,0,0,1-.33.33h-.66A.34.34,0,0,1,58,9.88V.66A.65.65,0,0,1,58.65,0h1.72a2.37,2.37,0,0,1,2.37,2.37Zm-1.32-1a1.06,1.06,0,0,0-1.05-1H59.31V4.44h1.06a1.07,1.07,0,0,0,1.05-1.08Z"/><path class="cls-1" d="M69.21,2.39V9.88a.32.32,0,0,1-.33.33h-.66a.33.33,0,0,1-.33-.33V5.78H65.77v4.1a.32.32,0,0,1-.33.33h-.66a.32.32,0,0,1-.33-.33V2.39a2.38,2.38,0,0,1,4.76,0Zm-1.32,0a1.06,1.06,0,0,0-2.12,0V4.46h2.12Z"/><path class="cls-1" d="M73.94.33V1a.33.33,0,0,1-.33.33h-.93V9.88a.34.34,0,0,1-.33.33h-.66a.33.33,0,0,1-.33-.33V1.32h-.93A.32.32,0,0,1,70.1,1V.33A.32.32,0,0,1,70.43,0h3.18A.33.33,0,0,1,73.94.33Z"/><path class="cls-1" d="M79.59,2.37V7.82a2.39,2.39,0,1,1-4.77,0V2.37a2.39,2.39,0,0,1,4.77,0Zm-1.32,0a1.07,1.07,0,0,0-2.13,0V7.82a1.07,1.07,0,1,0,2.13,0Z"/><path class="cls-1" d="M85.63,3.36a2.42,2.42,0,0,1-.72,1.74,2.34,2.34,0,0,1,.72,1.71V9.88a.33.33,0,0,1-.33.33h-.66a.34.34,0,0,1-.33-.33V6.81a1,1,0,0,0-1-1H82.21V9.88a.35.35,0,0,1-.33.33h-.66a.33.33,0,0,1-.33-.33V.66A.65.65,0,0,1,81.55,0h1.71a2.37,2.37,0,0,1,2.37,2.37Zm-1.32-1a1,1,0,0,0-1-1H82.21V4.44h1.05a1.06,1.06,0,0,0,1-1.08Z"/><path class="cls-1" d="M95.08,2.39V9.88a.33.33,0,0,1-.33.33h-.66a.32.32,0,0,1-.33-.33V5.78H91.63v4.1a.32.32,0,0,1-.33.33h-.66a.33.33,0,0,1-.33-.33V2.39a2.39,2.39,0,0,1,4.77,0Zm-1.32,0a1.07,1.07,0,0,0-2.13,0V4.46h2.13Z"/><path class="cls-1" d="M101.55,2.37v1a2.39,2.39,0,0,1-2.37,2.4H98.11V9.88a.34.34,0,0,1-.33.33h-.66a.35.35,0,0,1-.33-.33V.33A.33.33,0,0,1,97.12,0h2.06A2.38,2.38,0,0,1,101.55,2.37Zm-1.32,0a1,1,0,0,0-1-1H98.11V4.44h1.07a1.06,1.06,0,0,0,1-1.08Z"/><path class="cls-1" d="M107.6,2.37v1a2.4,2.4,0,0,1-2.38,2.4h-1.07V9.88a.33.33,0,0,1-.33.33h-.66a.35.35,0,0,1-.33-.33V.33a.34.34,0,0,1,.33-.33h2.06A2.39,2.39,0,0,1,107.6,2.37Zm-1.32,0a1.06,1.06,0,0,0-1.06-1h-1.07V4.44h1.07a1.07,1.07,0,0,0,1.06-1.08Z"/></g></g></svg>