<svg xmlns="http://www.w3.org/2000/svg" viewBox="0 0 1000 1000"><defs><style>.cls-1{isolation:isolate;}.cls-2{fill:#ffeaa1;}.cls-3{fill:#7ed7df;}.cls-4{fill:#fad591;}.cls-5{fill:#e6c17c;}.cls-6{fill:#c4eef2;}.cls-7{fill:#decbb8;}.cls-17,.cls-7{mix-blend-mode:multiply;}.cls-8{fill:#8c9937;}.cls-9{fill:#a7c44f;}.cls-10{fill:#824239;}.cls-11{fill:#662f28;}.cls-12{fill:#bf705e;}.cls-13{fill:#a16052;}.cls-14{fill:#cf8574;}.cls-15{fill:#854a3d;}.cls-16{fill:#a04f44;}.cls-17{fill:#e8cfca;}</style></defs><g class="cls-1"><g id="_Layer_" data-name="&lt;Layer&gt;"><polygon class="cls-2" points="134.38 488.59 145.18 474.86 207.99 443.09 207.5 432.61 213.4 429.59 243.81 408.53 279.11 379.35 375.26 336.83 414.21 306.09 472.06 267.96 513.18 266.24 579.56 307.93 640.58 333.2 765.54 414.41 807.56 433.49 817.76 456.77 817.96 465.62 859.64 472.1 865.62 489.55 709.71 567.89 596.36 626.94 517.36 682.39 481.47 688.76 424.26 647.52 336.55 610.49 238.33 542.28 134.38 488.59"/><path class="cls-3" d="M213.4,429.59l-5.9,3,.49,10.48-62.81,31.77-10.8,13.73,85.5,44.16c73.72-12.94,163.19-24.42,180.69-7.87,30.71,29,6.64,70.55,96.74,82.55s172.23-18.61,172.23-18.61l40.17-20.93,155.91-78.34-6-17.45L818,465.62l-.2-8.85-10.2-23.28-42-19.08-70.48-45.8h0S541.66,429.44,500,411.18s9.29-48.13-76.14-52.28-144.75,20.45-144.75,20.45l-35.3,29.18Z"/><path class="cls-4" d="M497.31,607.43c-90.1-12-66-53.5-96.74-82.55-10.58-10-47.48-9.76-91.29-5.14,5.31-.51,69.88-6.23,83.34,12.33,14,19.37,25.1,74.06,53.32,96.51,15.5,12.33,62.68,24.14,102.09,32.28l48.33-33.92,73.18-38.12S587.42,619.44,497.31,607.43Z"/><path class="cls-5" d="M423.86,540.37c-18.77-29.87-56.54-23.55-56.54-23.55h0c16,.61,27.95,3,33.25,8,30.71,29,6.64,70.55,96.74,82.55s172.23-18.61,172.23-18.61l40.17-20.93,73.21-36.79h0C501.89,624.19,442.62,570.25,423.86,540.37Z"/><path class="cls-6" d="M535.93,416l8.84-3.26c-14.37,2-27.12,2.58-36.73.8-12.69,4.73-26.23,9.53-40.59,13.83-11.82,3.47-24.27,6.68-36.63,7.57-6.05.33-12.42.13-16.91-2.14-4.48-1.7-6.9-7.09-7.15-11.74-.26-4.36,3.44-8.22,8.78-11.53l4.18-2.54a27.51,27.51,0,0,0,4.93-3.52,7.42,7.42,0,0,0,2.45-6,7.06,7.06,0,0,0-1.42-3.38,7.37,7.37,0,0,0-1.68-1.69,23,23,0,0,0-5.45-3c-13-5.12-26.14-7.41-38.91-8.68a361.7,361.7,0,0,0-36.55-1.48c-11.58.08-22.52.43-32.58,1-13.62.73-25.62,1.68-35.6,2.59l-9.17,7.58c11.4-1,26.83-2.1,45.1-2.77,10-.4,20.8-.57,32.22-.47a354.54,354.54,0,0,1,35.68,2c12.13,1.37,24.74,3.9,36.22,8.62.33.14.63.31,1,.46-1.59,1-3.59,2.06-5.39,3.18a35.63,35.63,0,0,0-8.91,7.27A18.91,18.91,0,0,0,397,420.93a20.66,20.66,0,0,0,.88,6.33,24.3,24.3,0,0,0,2.36,5.82,20.44,20.44,0,0,0,1.42,2.28c.77,1,1.59,1.91,2.44,2.82a24.14,24.14,0,0,0,5.31,3.62c7.55,3.74,15,3.69,22,3.53,14-.8,26.85-4,39.13-7.36C495,431.06,517,422.84,535.93,416Z"/><path class="cls-6" d="M739.14,446.11a62,62,0,0,1,6.32-1.17c2.16-.21,4.35-.55,6.42-.66a130,130,0,0,1,23.66,1.18c13.81,1.83,26.78,3.29,37.89,1.44l-3.73-8.54c-9.06,2.13-20.43,1.95-33.64,1.14-7.67-.39-15.86-.8-24.76.25-2.17.24-4.25.68-6.43,1s-4.47,1-6.66,1.59c-4.4,1.17-8.78,2.57-13.26,4-35.64,11.8-76.54,27.25-121.58,40-11.29,3.07-22.8,6.06-34.51,8.65s-23.7,4.92-35.53,5.39a44.12,44.12,0,0,1-8.53-.36l-2-.32a8.34,8.34,0,0,0-1.22-.41c-.22-.07-.38,0-.67-.18l-1-.65-.73-.5-.08-.1-.3-.38c-1.68-1.95-3.21-4-3.37-5.88-.37-2,.18-3.72.9-7.84a11.54,11.54,0,0,0-.26-4.08,8.64,8.64,0,0,0-2.59-4,9.94,9.94,0,0,0-3.09-2.06c-.93-.4-1.93-.87-2.83-1.17a71.1,71.1,0,0,0-10-2.11c-6.43-.88-12.75-1.33-19.09-1.75-25-2-50.84-.41-75.3,2.56-24.55,2.74-48.62,7.25-71.11,8A66.47,66.47,0,0,1,316.45,478a23,23,0,0,1-6.14-2.22,12.49,12.49,0,0,1-3.3-3.05l-.89-1.84c0-.14-.16-.65-.21-.78a2.11,2.11,0,0,1-.18-1c0-.28-.11-.58,0-.78a4.7,4.7,0,0,1,1.75-2.91c2.62-2.39,7.3-4.45,12-6.07L326.9,457a58.31,58.31,0,0,0,8.46-3.16l1.38-.78a15,15,0,0,0,1.86-1.48,9.19,9.19,0,0,0,2.23-3.43,8.75,8.75,0,0,0-.14-5.75,12.88,12.88,0,0,0-2-3c-.53-.49-1-.85-1.52-1.25a15.84,15.84,0,0,0-2.56-1.57,58.84,58.84,0,0,0-8.12-3.25c-10.16-3.24-19.53-5.59-28.9-7.65a341.26,341.26,0,0,0-66.35-8.4l-17.8,12.33-2.4,1.23a348.45,348.45,0,0,1,83.54,8.34c7.85,1.68,16.17,3.79,24.24,6.2l-3.8,1.26c-5.32,2-11,4-16.7,9A18.21,18.21,0,0,0,292.35,467a12.41,12.41,0,0,0,0,3.39,11.24,11.24,0,0,0,.56,3.14l.43,1.48.23.73s.26.62.35.82l.12.24.92,1.89c4.76,8.18,12.26,10.85,18.68,12.25a78.54,78.54,0,0,0,18.91,1.24c24.36-1.24,47.94-6.11,72.21-9.14a396.25,396.25,0,0,1,73.4-3.73c6.13.22,12.28.52,18.25,1.12l4.39.52,4,.8a12.07,12.07,0,0,1,2.33.93c.1,0,.06,0,.06,0a1,1,0,0,1,0,.27c-.17,2-1.37,6.48-.28,10.59.94,4.32,3.67,7.26,6.12,9.78l.47.49.24.24c1.13.92.45.34.77.59l1,.59a9,9,0,0,0,2.5,1.18,31.58,31.58,0,0,0,3.22.95l2.61.28a50.87,50.87,0,0,0,9.91-.18c12.71-1.33,24.55-4.56,36.26-7.71s23-6.89,34.16-10.59l64.11-21.27c20.39-6.69,39.64-13.17,57.62-18.27C730.42,448.33,734.83,447.09,739.14,446.11Z"/><path class="cls-6" d="M712.38,515.15c20.1-11.71,38.73-23.5,56.24-33.21a142.53,142.53,0,0,1,25.87-11.47A203.12,203.12,0,0,1,817.94,465l-.18-8.19-.62-1.41a206.63,206.63,0,0,0-25.39,7A152.14,152.14,0,0,0,765,475.48c-17.61,10.54-35.86,22.59-55.58,34.78-9.87,6-20.09,12.1-30.82,17.65s-22.11,10.8-34.18,12.48c-3,.62-6,.23-8.94.09l-4.61-1c-1.51-.39-2.9-.91-4.37-1.35-2.75-1.19-5.68-2.43-7.57-4.56a7.21,7.21,0,0,1-1.88-7.48A16.13,16.13,0,0,1,622.3,519c2.43-2.12,5-3.28,8.24-4.9a10.22,10.22,0,0,0,2.29-1.73,3.87,3.87,0,0,0,1-1.58,2.61,2.61,0,0,0-.4-2.31c-1.91-2-3.69-1.89-5.42-2.27a52,52,0,0,0-10.2-.09c-13.43,1.07-26.56,4.19-39.58,7.71a342.24,342.24,0,0,0-38.37,13.12c-12.57,4.91-24.83,10.88-37.89,13.74-13,3.18-26.76.86-38.72-4.65-24.08-11.45-49.54-18.6-74.31-23.85-24.89-4.94-49.35-7.85-72.68-8a250,250,0,0,0-34,2.25,212.66,212.66,0,0,0-31,7.38c-15.54,4.77-29.75,9.72-42.9,13l8.4,4.34c11.4-3.88,23.22-8.6,35.92-13a209.6,209.6,0,0,1,30.15-8.34,214,214,0,0,1,33.42-3.13c11.55-.16,23.44.35,35.56,1.4s24.41,3.06,36.83,5.43c24.76,5,50.14,12,74.09,23.61,12.06,5.64,26.19,8.09,39.5,4.89,13.32-2.87,25.61-8.81,38.17-13.65a314.52,314.52,0,0,1,38.31-12.65c13-3.34,26.11-6.27,39.23-7.15a50.15,50.15,0,0,1,9.67.2c1.45.17,3.27.73,3.62,1.24a4.55,4.55,0,0,1-2,1.71c-5.78,2.5-12.45,6.5-15,13.51a10.36,10.36,0,0,0,2.35,10.52c2.44,2.81,5.64,4.2,8.7,5.62a68.62,68.62,0,0,0,9.53,2.76c3.38.31,6.81.77,10,.19,13.16-1.53,24.82-6.83,35.9-12C691.83,526.85,702.29,521,712.38,515.15Z"/><path class="cls-5" d="M414.48,364.92c91,5.59,36.29,36.73,80.43,56.76,29.59,13.42,143.84-19.55,216-42.76l-15.87-10.31h0S541.66,429.44,500,411.18s9.29-48.13-76.14-52.28C357,355.65,306.28,370,287.33,376.38A418.08,418.08,0,0,1,414.48,364.92Z"/><path class="cls-5" d="M511.15,364.13s-2.41-.6-12.79,4.07,4.15,16.25,25.11,15.6,46.89.18,70.33-3.53,29.05-10.23,42.75-16.14,14.52-13.46-8.1-18.61-38.38-2.9-66.81-12.23-53.32,9.33-53.32,9.33Z"/><path class="cls-4" d="M377.89,530.41s-24.76-6.08-43.3-3.73-37.21,10.85-31,17.88-14.53,6.69-9.27,18.68,17.84,29,59.89,28.17,55.61-3.18,50.49-13.83-11.9-16.18-10.79-25.45S383.64,531.65,377.89,530.41Z"/><path class="cls-7" d="M545.58,513.06c-14.37-10.62-37.88-14.95-53.22-10-7,2.24-11,6.07-12.23,10.49a74.08,74.08,0,0,0-11.75.06c-12.47-5.67-26.73-7.55-36.48-4.18-6.47,2.23-9.77,6.36-10,11.23a12.28,12.28,0,0,0-4.28.43c-6,2-4.38,9.23,3.5,16.29a43.27,43.27,0,0,0,17.59,9.49,17.6,17.6,0,0,1-2,2.24,21.78,21.78,0,0,1-2.41,1.86c-2.43,1-4.79,2-7,3.12-6.6,3.3-12.71,6.62-19.06,8.89a68.18,68.18,0,0,1-9.41,2.71,57.37,57.37,0,0,1-9.08,1.11c-5.74.26-11-.34-15.05-.3-1,0-1.85,0-2.66.1s-1.63.18-2,.25l-1.25.24c-1.73.33,2.75,5.16,4.5,4.84l.18,0,1.21-.28c.41-.1.69-.09,1.14-.18s1.13-.1,1.89-.13c3-.17,8.68.32,15.15-.17a61.06,61.06,0,0,0,10-1.58,68.48,68.48,0,0,0,9.72-3.27c6.53-2.71,12.33-6.35,18.46-9.85a84.06,84.06,0,0,1,13.44-6.18,28.07,28.07,0,0,0,6,7.2c7.67,6.84,19.06,11.7,29.44,13.12,16.59,7.23,35.86,10.71,50.94,7.91,18.25-3.38,24.8-14.83,18-28.29a45,45,0,0,0,9.11-.94c10.7-2.37,15.24-8.32,12.2-14.53.29-.06.59-.09.87-.15,12.28-2.93,16.41-10.36,8.87-16.45C572.47,512.18,557.16,510.05,545.58,513.06ZM439.76,548.91a18.2,18.2,0,0,0,1.3-1.58,21.14,21.14,0,0,0,2.17.18c0,.09.06.18.1.28C442.11,548.14,440.93,548.52,439.76,548.91Z"/><path class="cls-7" d="M695.06,368.61s-111.13,44.05-169.89,45.9l-.12,0s10.79,9.52,0,9.88c0,0,38-.45,65.16-7.16s92.45-26.9,135-29Z"/><path class="cls-7" d="M640.58,333.2l-61-25.27-31.14-19.56s-14,25.71,15.85,37.54c0,0,1.51,14.11,9.88,19.09,0,0-21.7,6.84-26.48,9.54S516,356.41,516,356.41v11.17a63.29,63.29,0,0,0,36.23-6.19c18-9.34,80.71-13.07,80.71-13.07s17.51,16.66,46.1,9.88Z"/><path class="cls-8" d="M577.76,164.76c4.72-5.78,7.47-12.48,7.47-19.64,0-16.49-14.35-30.59-34.68-36.44-4.91-9.68-17.38-16.6-32.11-16.6-19,0-34.43,11.47-34.43,25.62a19,19,0,0,0,.6,4.39c-6.63,6.48-10.59,14.42-10.59,23a28.53,28.53,0,0,0,.9,6.85c-17.4,9.55-28.7,24.68-28.7,41.77,0,28.89,32.14,52.31,71.78,52.31s71.79-23.42,71.79-52.31C589.79,183,585.35,173.06,577.76,164.76Z"/><path class="cls-9" d="M578.32,188.56c-27,0-49,15.62-49,34.89a25.9,25.9,0,0,0,.21,2.93C524.3,230.92,521,237.11,521,244c0,13.91,13.41,25.19,30,25.19,10.21,0,19.21-4.32,24.62-10.89.9,0,1.8.1,2.72.1,27,0,49-15.62,49-34.9S605.36,188.56,578.32,188.56Z"/><path class="cls-10" d="M509,364.93s0-.94-.08-2.72c0-.92-.19-1.42-.27-2.37s-.41-2.23-.8-3.63c-1.35-5.6-5.65-14.63-8.16-26.55a94.39,94.39,0,0,1-2-19.35,138.45,138.45,0,0,1,1.81-21.11c2.24-14.59,6.75-29.24,10.66-43.75s6.48-29.18,5.85-43.17c-.15-7-1.14-13.73-1.78-20.25s-1.11-12.68-1.42-18.38c-1.4-22.78.14-38,.14-38a.44.44,0,0,1,.49-.39.43.43,0,0,1,.39.48h0s-.38,3.75-.39,10.36.43,16.07,1.59,27.34c.63,5.63,1.44,11.73,2.43,18.12s2.38,13.19,2.94,20.43c1.47,14.42-.37,30.06-3.52,45s-6.74,29.6-8.06,43.24a127.26,127.26,0,0,0-.6,19.74,82.75,82.75,0,0,0,2.71,17c2.72,10.26,7.15,18.29,9.45,25.44.59,1.76,1,3.39,1.37,4.94s.61,3.24.67,4.1c.14,1.77.22,2.71.22,2.71.32,3.77-13.31,4.91-13.63,1.15C509,365.2,509,365.05,509,364.93Z"/><path class="cls-10" d="M502.16,288.39s2.46-6.7,9.56-13.89a52.48,52.48,0,0,1,13.82-9.92c1.37-.73,2.86-1.27,4.31-1.93a26.71,26.71,0,0,0,3.87-2.16c2.15-1.53,3.55-4.34,4.25-7.24,1.19-6,.46-12.62,1.09-18.72a36.63,36.63,0,0,1,1.78-8.67,28.43,28.43,0,0,1,3.64-7.06c1.63-1.85,3-3.66,4.66-4.78a22.85,22.85,0,0,1,4.16-3l3.87-2.21a.16.16,0,0,1,.22.07c.05.07,0,.18-.07.23l-3.75,2.34a21.86,21.86,0,0,0-4,3.08,27.16,27.16,0,0,0-4.34,4.81,27.52,27.52,0,0,0-3.21,6.89,34.47,34.47,0,0,0-1.37,8.4c-.41,5.94.63,12.35-.39,19.07-.7,3.31-2,6.74-5.07,9.08a28.28,28.28,0,0,1-4.24,2.57c-1.35.68-2.74,1.24-4,2a49.13,49.13,0,0,0-12.53,9.75,45.48,45.48,0,0,0-6.46,9.08,26.72,26.72,0,0,0-1.68,3.72,2.21,2.21,0,0,1-4.21-1.34l0-.09Z"/><path class="cls-9" d="M522.66,184.47c0-7.88-4.94-14.81-12.48-19.26v-.1c0-17.87-18.78-32.37-41.94-32.37s-41.94,14.5-41.94,32.37a27.11,27.11,0,0,0,6.46,17.21c-9.51,5.9-15.59,14.86-15.59,24.91,0,17.76,19,32.16,42.41,32.16S502,225,502,207.23h0C514,203.78,522.66,194.94,522.66,184.47Z"/><path class="cls-10" d="M511.59,245.3a141.16,141.16,0,0,0-2.36-19,78.5,78.5,0,0,0-5.71-18.55,24.87,24.87,0,0,0-6.39-8.38c-3-2.39-6.12-4.59-9.16-7.17a17.59,17.59,0,0,1-6.3-10.07,44.09,44.09,0,0,1-.4-11.36,25.79,25.79,0,0,0-.62-10.23,19,19,0,0,0-4.61-7.9A32.66,32.66,0,0,0,464.48,145a34.69,34.69,0,0,0-5.05-1.7,35.77,35.77,0,0,1,5.1,1.56,33.08,33.08,0,0,1,11.89,7.44,19.46,19.46,0,0,1,5,8,26.53,26.53,0,0,1,1,10.52,41,41,0,0,0,.77,11,15.85,15.85,0,0,0,6.1,8.92c3,2.33,6.28,4.47,9.36,6.73a27.5,27.5,0,0,1,7.48,9,81.36,81.36,0,0,1,6.73,19.1A143.62,143.62,0,0,1,516,245v.08a2.21,2.21,0,1,1-4.41.33Z"/><path class="cls-8" d="M409,377.35a18.76,18.76,0,0,0,1.57-7.28c0-9.35-7-17.23-16.69-20.21,0-.24.08-.46.08-.7,0-10.21-8.73-18.48-19.5-18.48-10.57,0-19.13,8-19.44,17.94-20.41.94-36.58,13.5-36.58,28.89,0,7.26,3.72,13.82,9.66,18.9a32.42,32.42,0,0,0-7.35,20.07c0,15.62,12.32,29.24,30.65,36.72,6.29,7.84,18.48,13.23,32.68,13.23,14.56,0,27-5.66,33.16-13.82,17.55-7.59,29.23-20.92,29.23-36.13C446.43,399,431,384,409,377.35Z"/><path class="cls-10" d="M375,570.09s0-.67.07-2c0-.66.16-1,.22-1.69a24.94,24.94,0,0,1,.68-2.6c1.14-4,4.77-10.46,6.89-19A57.33,57.33,0,0,0,384.49,531,84.24,84.24,0,0,0,383,515.91c-1.9-10.44-5.7-20.92-9-31.29s-5.47-20.88-4.94-30.89c.13-5,1-9.82,1.5-14.49s.94-9.07,1.21-13.15a157.14,157.14,0,0,0-.12-27.17.37.37,0,0,0-.41-.28.34.34,0,0,0-.34.35h0a67.41,67.41,0,0,1,.33,7.42A172.82,172.82,0,0,1,369.85,426c-.53,4-1.21,8.38-2.06,13s-2,9.43-2.48,14.61c-1.24,10.32.32,21.51,3,32.2s5.69,21.18,6.8,30.94a77.77,77.77,0,0,1,.51,14.12A51.4,51.4,0,0,1,373.32,543c-2.3,7.33-6.05,13.08-8,18.2a34.4,34.4,0,0,0-1.16,3.53c-.24,1.14-.51,2.32-.56,2.93-.12,1.27-.19,1.94-.19,1.94-.27,2.7,11.25,3.52,11.51.82A2.46,2.46,0,0,0,375,570.09Z"/><path class="cls-9" d="M384.49,433c0-10.54-7.81-19.81-19.61-25.18-2.41-7.43-10.5-12.92-20.22-12.92-8.41,0-15.6,4.12-19,10-16.24,4.34-27.79,15.26-27.79,28.08,0,8.2,4.73,15.63,12.38,21.06a8.42,8.42,0,0,0-1.59,4.58c0,8,12.76,14.52,28.5,14.52s28.49-6.5,28.49-14.52c0-.25-.12-.49-.14-.74C377,452.47,384.49,443.35,384.49,433Z"/><path class="cls-10" d="M371.62,482.44s-.6-5.34-4.78-12.57a53.58,53.58,0,0,0-9-11.32c-.94-1-2-1.82-3-2.75a27.93,27.93,0,0,1-2.65-2.76,10.06,10.06,0,0,1-1.91-6.3c.28-4.47,2.2-8.66,2.93-13a23,23,0,0,0,.34-6.45,21.76,21.76,0,0,0-1.46-6,26.67,26.67,0,0,0-2.74-4.79,23.18,23.18,0,0,0-2.71-3.4L344,410.37a.15.15,0,0,0-.19,0,.14.14,0,0,0,0,.19s.92,1,2.51,2.83a21.88,21.88,0,0,1,2.53,3.41,24.29,24.29,0,0,1,2.47,4.69,20.55,20.55,0,0,1,1.16,5.72,21.73,21.73,0,0,1-.61,6.12c-.88,4.14-3,8.12-3.55,13a11.58,11.58,0,0,0,2.19,7.83,29.5,29.5,0,0,0,2.85,3.15c.94.91,1.93,1.76,2.79,2.68a48.83,48.83,0,0,1,8,10.78,38,38,0,0,1,3.3,8.29,20.11,20.11,0,0,1,.58,3.07,2.24,2.24,0,0,0,1.92,1.9,1.37,1.37,0,0,0,1.71-1.39s0-.05,0-.07Z"/><polygon class="cls-10" points="596.36 626.94 517.36 682.39 481.47 688.76 487.62 784.37 497.31 836.89 489.93 907.92 521.35 906.61 565.53 877.49 595.28 854 607.19 762.96 638.3 709.23 661.41 593.05 596.36 626.94"/><polygon class="cls-11" points="779.29 738.08 809.18 599.75 839.88 553.7 852 511.69 865.62 489.55 709.71 567.89 661.41 593.05 638.3 709.23 607.19 762.96 595.28 854 668.73 821.52 718.92 783.15 760.67 761.75 779.29 738.08"/><polygon class="cls-12" points="265.06 780.17 257.27 762.38 225.28 750.67 220.71 737.34 210.49 637.73 191.91 593.05 185.45 560.17 134.38 500.38 134.38 488.59 238.33 542.28 246.85 593.05 265.06 640.15 275.94 700.75 265.06 780.17"/><polygon class="cls-13" points="265.06 780.17 297.16 794.74 392.62 856.78 362.39 741.95 361.34 666.29 336.55 610.49 238.33 542.28 246.85 593.05 265.06 640.15 275.94 700.75 265.06 780.17"/><polygon class="cls-12" points="392.62 856.78 439.23 876.08 489.93 907.92 497.31 836.89 487.62 784.37 481.47 688.76 424.26 647.52 336.55 610.49 361.34 666.29 362.39 741.95 392.62 856.78"/><polygon class="cls-14" points="361.34 666.29 323.61 662.77 311.49 671.78 343 718.52 416.93 738.72 440.76 726.6 423.79 688.76 376.12 684.59 361.34 666.29"/><polygon class="cls-15" points="416.93 738.72 343 718.52 311.49 671.78 331.28 787.6 347.44 820.32 359.56 859.51 385.01 879.71 404 875.67 421.12 868.58 440.76 726.6 416.93 738.72"/><polygon class="cls-13" points="343 718.52 353.5 782.75 376.12 813.46 378.95 849.41 385.01 879.71 404 875.67 414.5 823.15 409.65 787.2 416.93 738.72 343 718.52"/><polygon class="cls-16" points="690.21 628.64 739.9 616.26 752.62 604.1 782.92 587.64 782.92 614.27 759.9 642.17 704.75 639.64 690.21 628.64"/><polygon class="cls-10" points="704.75 639.64 690.21 628.64 679.91 743.97 685.06 767 679.91 812.98 695.06 819.11 712.02 809.42 736.57 750.49 765.35 699.53 782.92 614.27 759.9 642.17 704.75 639.64"/><polygon class="cls-11" points="710.21 759.21 695.06 819.11 712.02 809.42 736.57 750.49 765.35 699.53 782.92 614.27 759.9 642.17 704.75 639.64 720.51 667.62 710.21 725.19 710.21 759.21"/><polygon class="cls-14" points="170.18 542.28 154.75 556.93 158.38 578.75 196.52 604.13 234.73 607.43 190.02 583.41 185.45 560.17 170.18 542.28"/><polygon class="cls-15" points="208.88 617.93 234.73 607.43 196.52 604.13 158.38 578.75 175.35 629.25 200.8 660.35 211.71 708.42 218.94 720.02 210.5 637.73 208.88 617.93"/><polygon class="cls-7" points="596.36 626.94 530.47 688.76 537.41 738.72 554.07 766.64 549.21 824.25 521.35 906.61 534.63 838.82 530.47 808.28 534.63 759.21 516.59 713.2 517.36 682.39 596.36 626.94"/><polygon class="cls-17" points="652.4 638.34 643.6 712.74 624.16 761.32 624.16 821.01 649.15 824.71 675.06 810.83 682 766.78 679.91 743.97 685.06 767 679.91 812.98 668.73 821.52 595.28 854 607.19 762.96 638.3 709.23 652.4 638.34"/><polygon class="cls-17" points="775.53 650.13 769.22 700.75 751.87 741.66 757.07 752.41 765.75 750.49 779.29 738.08 760.67 761.75 724.06 780.52 736.57 750.49 765.35 699.53 775.53 650.13"/><polygon class="cls-17" points="685.06 580.73 785.18 542.28 834.46 542.28 839.88 553.7 852 511.69 865.62 489.55 685.06 580.73"/><polygon class="cls-7" points="759.9 642.17 754.64 699.53 730.45 746.17 712.02 809.42 736.57 750.49 765.35 699.53 782.92 614.27 759.9 642.17"/><polygon class="cls-7" points="416.93 738.72 409.65 787.2 414.5 823.15 404 875.67 421.12 868.58 439.23 876.08 437.7 819.11 443.71 770.58 440.76 726.6 416.93 738.72"/><polygon class="cls-7" points="265.06 640.15 270.21 700.75 249.85 746.17 225.28 750.67 257.27 762.38 265.06 780.17 275.94 700.75 265.06 640.15"/><polygon class="cls-7" points="196.52 604.13 194.74 634.38 205.16 659.76 211.71 708.42 218.94 720.02 216.3 640.15 234.73 607.43 196.52 604.13"/><polygon class="cls-7" points="424.26 647.52 336.55 610.49 275.94 568.4 344.76 628.97 421.5 650.13 481.46 688.76 424.26 647.52"/><polygon class="cls-7" points="599.87 766.78 588.77 850.27 568.64 868.32 578.82 842.06 599.87 766.78"/><polygon class="cls-7" points="320.5 724.52 331.28 787.6 347.44 820.32 350.19 829.2 311.49 804.05 327.12 801.34 328.5 784.92 320.5 724.52"/><polygon class="cls-4" points="709.71 567.89 596.36 626.94 517.36 682.39 481.47 688.76 424.26 647.52 336.55 610.49 238.33 542.28 134.38 488.59 134.38 495.23 238.33 548.92 336.55 617.13 424.26 654.16 481.47 695.4 517.36 689.03 596.36 633.58 709.71 574.53 859.71 499.16 865.62 489.55 709.71 567.89"/><polygon class="cls-5" points="596.36 633.58 709.71 574.53 859.71 499.16 865.62 489.55 709.71 567.89 596.36 626.94 517.36 682.39 481.47 688.76 481.47 695.4 517.36 689.03 596.36 633.58"/></g></g></svg>