<svg xmlns="http://www.w3.org/2000/svg" viewBox="0 0 1000 1000"><defs><style>.cls-1{isolation:isolate;}.cls-2{fill:#824239;}.cls-3{fill:#662f28;}.cls-4{fill:#bf705e;}.cls-5{fill:#a16052;}.cls-6{fill:#cf8574;}.cls-7{fill:#854a3d;}.cls-8{fill:#a04f44;}.cls-9{fill:#decbb8;}.cls-10,.cls-16,.cls-17,.cls-18,.cls-30,.cls-9{mix-blend-mode:multiply;}.cls-10{fill:#e8cfca;}.cls-11{fill:#8f6f6b;}.cls-12{fill:#5c656b;}.cls-13{fill:#464d52;}.cls-14{fill:#4e565c;}.cls-15{fill:#76828a;}.cls-16{fill:#e6e7e8;}.cls-17{fill:#debcb8;}.cls-18{fill:#d4d9db;}.cls-19{fill:#ff815e;}.cls-20{fill:#fad591;}.cls-21{fill:#e6b57c;}.cls-22{fill:#de5252;}.cls-23{fill:#c8d6d9;}.cls-24{fill:#9bbbc2;}.cls-25{fill:#ffeaa1;}.cls-26{fill:#a7c44f;}.cls-27{fill:#8c9937;}.cls-28{fill:#6e4944;}.cls-29{fill:#6b4a46;}.cls-30{fill:#ab918e;}</style></defs><g class="cls-1"><g id="_Layer_" data-name="&lt;Layer&gt;"><polygon class="cls-2" points="596.36 559.31 517.36 614.76 481.47 621.13 487.62 716.74 497.31 769.25 489.93 840.29 521.35 838.98 565.53 809.86 595.28 786.37 607.19 695.33 638.3 641.6 661.41 525.42 596.36 559.31"/><polygon class="cls-3" points="779.29 670.45 809.18 532.12 839.88 486.07 852 444.06 865.62 421.92 709.71 500.26 661.41 525.42 638.3 641.6 607.19 695.33 595.28 786.37 668.73 753.89 718.92 715.52 760.67 694.12 779.29 670.45"/><polygon class="cls-4" points="265.06 712.54 257.27 694.75 225.28 683.04 220.71 669.71 210.49 570.1 191.91 525.42 185.45 492.53 134.38 432.75 134.38 420.95 238.33 474.65 246.85 525.42 265.06 572.52 275.94 633.12 265.06 712.54"/><polygon class="cls-5" points="265.06 712.54 297.16 727.11 392.62 789.14 362.39 674.32 361.34 598.65 336.55 542.86 238.33 474.65 246.85 525.42 265.06 572.52 275.94 633.12 265.06 712.54"/><polygon class="cls-4" points="392.62 789.14 439.23 808.45 489.93 840.29 497.31 769.25 487.62 716.74 481.47 621.13 424.26 579.89 336.55 542.86 361.34 598.65 362.39 674.32 392.62 789.14"/><polygon class="cls-6" points="361.34 598.65 323.61 595.14 311.49 604.14 343 650.89 416.93 671.09 440.76 658.97 423.79 621.13 376.12 616.96 361.34 598.65"/><polygon class="cls-7" points="416.93 671.09 343 650.89 311.49 604.14 331.28 719.97 347.44 752.69 359.56 791.88 385.01 812.08 404 808.04 421.12 800.95 440.76 658.97 416.93 671.09"/><polygon class="cls-5" points="343 650.89 353.5 715.12 376.12 745.83 378.95 781.78 385.01 812.08 404 808.04 414.5 755.52 409.65 719.57 416.93 671.09 343 650.89"/><polygon class="cls-8" points="690.21 561.01 739.9 548.63 752.62 536.47 782.92 520 782.92 546.64 759.89 574.54 704.75 572 690.21 561.01"/><polygon class="cls-2" points="704.75 572 690.21 561.01 679.91 676.34 685.06 699.37 679.91 745.35 695.06 751.48 712.02 741.78 736.57 682.86 765.35 631.9 782.92 546.64 759.89 574.54 704.75 572"/><polygon class="cls-3" points="710.21 691.58 695.06 751.48 712.02 741.78 736.57 682.86 765.35 631.9 782.92 546.64 759.89 574.54 704.75 572 720.51 599.99 710.21 657.56 710.21 691.58"/><polygon class="cls-6" points="170.17 474.65 154.75 489.3 158.38 511.12 196.52 536.5 234.73 539.8 190.02 515.78 185.45 492.53 170.17 474.65"/><polygon class="cls-7" points="208.88 550.3 234.73 539.8 196.52 536.5 158.38 511.12 175.35 561.61 200.8 592.72 211.71 640.79 218.94 652.39 210.49 570.1 208.88 550.3"/><polygon class="cls-9" points="596.36 559.31 530.47 621.13 537.41 671.09 554.07 699.01 549.21 756.62 521.35 838.98 534.63 771.19 530.47 740.65 534.63 691.58 516.59 645.57 517.36 614.76 596.36 559.31"/><polygon class="cls-10" points="652.4 570.71 643.6 645.11 624.16 693.69 624.16 753.38 649.15 757.08 675.06 743.2 682 699.15 679.91 676.34 685.06 699.37 679.91 745.35 668.73 753.89 595.28 786.37 607.19 695.33 638.3 641.6 652.4 570.71"/><polygon class="cls-10" points="775.53 582.5 769.22 633.12 751.87 674.03 757.07 684.78 765.75 682.86 779.29 670.45 760.67 694.12 724.06 712.89 736.57 682.86 765.35 631.9 775.53 582.5"/><polygon class="cls-10" points="685.06 513.1 785.18 474.65 834.46 474.65 839.88 486.07 852 444.06 865.62 421.92 685.06 513.1"/><polygon class="cls-9" points="759.89 574.54 754.64 631.9 730.45 678.54 712.02 741.78 736.57 682.86 765.35 631.9 782.92 546.64 759.89 574.54"/><polygon class="cls-9" points="416.93 671.09 409.65 719.57 414.5 755.52 404 808.04 421.12 800.95 439.23 808.45 437.7 751.48 443.71 702.94 440.76 658.97 416.93 671.09"/><polygon class="cls-9" points="265.06 572.52 270.2 633.12 249.85 678.54 225.28 683.04 257.27 694.75 265.06 712.54 275.94 633.12 265.06 572.52"/><polygon class="cls-9" points="196.52 536.5 194.74 566.75 205.16 592.13 211.71 640.79 218.94 652.39 216.3 572.52 234.73 539.8 196.52 536.5"/><polygon class="cls-9" points="424.26 579.89 336.55 542.86 275.94 500.77 344.76 561.33 421.5 582.5 481.46 621.13 424.26 579.89"/><polygon class="cls-9" points="599.87 699.15 588.77 782.64 568.64 800.69 578.82 774.43 599.87 699.15"/><polygon class="cls-9" points="320.5 656.89 331.28 719.97 347.44 752.69 350.19 761.57 311.49 736.42 327.12 733.71 328.5 717.29 320.5 656.89"/><polygon class="cls-11" points="134.38 420.95 145.18 407.23 207.99 375.46 207.5 364.98 213.4 361.96 243.81 340.9 279.11 311.72 375.26 269.2 414.21 238.46 472.06 200.32 513.18 198.61 579.56 240.3 640.58 265.57 765.54 346.78 807.56 365.86 817.76 389.14 817.96 397.99 859.64 404.47 865.62 421.92 709.71 500.26 596.36 559.31 517.36 614.76 481.47 621.13 424.26 579.89 336.55 542.86 238.33 474.65 134.38 420.95"/><polygon class="cls-12" points="272.13 353.95 345.99 295.67 412.58 221.48 419.39 184.82 548.78 180.08 574.36 239.57 653.98 299.65 686.79 348.87 722.5 374.93 696.45 400.02 675.21 400.02 659.77 415.46 557.47 457.93 472.19 438.63 441.66 446.35 389.54 438.63 322.95 436.69 281.45 399.06 276.62 372.03 272.13 353.95"/><polygon class="cls-13" points="696.45 400.02 722.5 374.93 686.79 348.87 653.98 299.65 574.36 239.57 548.78 180.08 468.02 213.92 480.74 260.56 497.31 283.24 491.84 268.77 497.31 253.32 529 297.72 532.38 356.59 522.24 352.73 507.77 356.59 479.78 395.68 472.19 438.63 557.47 457.93 659.77 415.46 675.21 400.02 650.6 340.67 642.4 304.96 658.32 342.11 696.45 400.02"/><polygon class="cls-14" points="522.91 164.6 479.34 159.71 438.45 167.7 419.39 184.82 431.06 203.08 468.02 213.92 512.95 212.27 544.85 198.91 548.78 180.08 522.91 164.6"/><polygon class="cls-12" points="457.82 183.11 465.06 180.08 504.51 180.08 527.31 174.49 548.78 180.08 522.91 164.6 479.34 159.71 438.45 167.7 419.39 184.82 431.06 203.08 450.94 181.66 457.82 183.11"/><polygon class="cls-15" points="412.58 221.48 393.4 256.22 346.35 306.16 368.79 294.58 328.26 330.05 287 356.11 295.22 385.06 372.41 365.52 401.36 343.8 419.39 299.65 431.06 203.08 419.39 184.82 412.58 221.48"/><polygon class="cls-16" points="427.18 302.06 410.29 345.98 381.34 370.1 402.57 370.1 411.74 420.29 440.69 430.9 440.69 361.9 443.1 260.56 435.75 265.63 431.06 234.14 427.18 302.06"/><polygon class="cls-17" points="696.45 400.02 722.5 374.93 686.79 348.87 653.98 299.65 574.36 239.57 548.78 180.08 544.85 198.91 512.96 212.27 540.34 223.65 532.74 234.14 537.44 247.9 554.82 288.43 548.78 299.29 555.54 356.47 548.78 397.37 555.54 417.27 550.47 434.28 539.98 449.12 515.48 448.42 557.47 457.93 659.77 415.46 675.21 400.02 650.6 340.67 642.4 304.96 658.32 342.11 696.45 400.02"/><polygon class="cls-18" points="438.45 167.7 419.39 184.82 431.06 203.08 468.02 213.92 481.7 213.42 481.7 213.42 477.61 203.08 479.34 191.32 468.92 180.08 468.02 172.25 479.34 159.71 438.45 167.7"/><polygon class="cls-19" points="512.95 212.27 523.35 207.92 509.11 201.07 494.11 202.99 468.02 202.99 453.97 209.8 453.97 209.8 468.02 213.92 512.95 212.27"/><polygon class="cls-17" points="817.76 389.14 807.56 365.86 765.54 346.78 640.58 265.57 579.56 240.3 572.87 236.09 574.36 239.57 653.98 299.65 686.79 348.87 704.65 361.9 722.5 374.93 709.72 387.24 696.45 400.02 675.21 400.02 659.77 415.46 557.47 457.93 633.19 436.35 736.57 428.05 758.51 409.87 817.96 397.99 817.76 389.14"/><polygon class="cls-20" points="287 455.15 266.42 443.27 266.42 423.43 287 435.31 287 455.15"/><polygon class="cls-21" points="287 455.15 307.58 443.27 307.58 419.62 287 431.5 287 455.15"/><polygon class="cls-19" points="260.64 425.37 273.82 414.96 287 440.59 260.64 425.37"/><polygon class="cls-22" points="273.82 414.96 300.18 399.74 313.36 425.37 287 440.59 273.82 414.96"/><polygon class="cls-23" points="317.63 494.71 297.05 482.83 297.05 462.99 317.63 474.87 317.63 494.71"/><polygon class="cls-24" points="317.63 494.71 338.21 482.83 338.21 459.17 317.63 471.05 317.63 494.71"/><polygon class="cls-25" points="291.27 464.92 304.45 454.51 317.63 480.14 291.27 464.92"/><polygon class="cls-20" points="304.45 454.51 330.81 439.29 343.99 464.92 317.63 480.14 304.45 454.51"/><polygon class="cls-17" points="317.63 494.71 317.63 481.82 305.91 473.38 317.63 480.14 304.45 454.51 330.81 439.29 343.99 464.92 338.21 468.26 338.21 470.46 351.46 470.46 363.6 485.76 346.58 494.71 317.63 494.71"/><polygon class="cls-20" points="395.37 468.3 374.79 456.41 374.79 436.57 395.37 448.46 395.37 468.3"/><polygon class="cls-21" points="395.37 468.3 415.95 456.41 415.95 432.76 395.37 444.64 395.37 468.3"/><polygon class="cls-6" points="369.01 438.51 382.19 428.1 395.37 453.73 369.01 438.51"/><polygon class="cls-7" points="382.19 428.1 408.55 412.88 421.73 438.51 395.37 453.73 382.19 428.1"/><polygon class="cls-17" points="395.37 468.3 395.37 455.4 383.65 446.96 395.37 453.73 382.19 428.1 408.55 412.88 421.73 438.51 415.95 441.85 415.95 444.05 429.2 444.05 441.33 459.35 424.32 468.3 395.37 468.3"/><polygon class="cls-19" points="571.76 502.36 551.18 490.48 551.18 470.64 571.76 482.52 571.76 502.36"/><polygon class="cls-22" points="571.76 502.36 592.34 490.48 592.34 466.83 571.76 478.71 571.76 502.36"/><polygon class="cls-26" points="545.4 472.58 558.58 462.16 571.76 487.8 545.4 472.58"/><polygon class="cls-27" points="558.58 462.16 584.94 446.95 598.12 472.58 571.76 487.8 558.58 462.16"/><polygon class="cls-17" points="571.76 502.36 571.76 489.47 560.04 481.03 571.76 487.8 558.58 462.16 584.94 446.95 598.12 472.58 592.34 475.91 592.34 478.11 605.59 478.11 617.73 493.41 600.72 502.36 571.76 502.36"/><polygon class="cls-6" points="551.67 541.91 531.09 530.03 531.09 510.19 551.67 522.08 551.67 541.91"/><polygon class="cls-28" points="551.67 541.91 572.25 530.03 572.25 506.38 551.67 518.26 551.67 541.91"/><polygon class="cls-23" points="525.31 512.13 538.49 501.72 551.67 527.35 525.31 512.13"/><polygon class="cls-24" points="538.49 501.72 564.85 486.5 578.03 512.13 551.67 527.35 538.49 501.72"/><polygon class="cls-17" points="551.67 541.91 551.67 529.02 539.95 520.58 551.67 527.35 538.49 501.72 564.85 486.5 578.03 512.13 572.25 515.47 572.25 517.66 585.5 517.66 597.64 532.97 580.62 541.91 551.67 541.91"/><polygon class="cls-20" points="677.91 485.63 657.33 473.75 657.33 453.91 677.91 465.79 677.91 485.63"/><polygon class="cls-21" points="677.91 485.63 698.49 473.75 698.49 450.1 677.91 461.98 677.91 485.63"/><polygon class="cls-6" points="651.55 455.85 664.73 445.44 677.91 471.07 651.55 455.85"/><polygon class="cls-7" points="664.73 445.44 691.09 430.22 704.27 455.85 677.91 471.07 664.73 445.44"/><polygon class="cls-17" points="677.91 485.63 677.91 472.74 666.19 464.3 677.91 471.07 664.73 445.44 691.09 430.22 704.27 455.85 698.49 459.19 698.49 461.38 711.74 461.38 723.88 476.68 706.86 485.63 677.91 485.63"/><polygon class="cls-23" points="726.76 461.01 706.18 449.13 706.18 429.29 726.76 441.17 726.76 461.01"/><polygon class="cls-24" points="726.76 461.01 747.34 449.13 747.34 425.48 726.76 437.36 726.76 461.01"/><polygon class="cls-12" points="700.4 431.23 713.58 420.82 726.76 446.45 700.4 431.23"/><polygon class="cls-13" points="713.58 420.82 739.94 405.6 753.12 431.23 726.76 446.45 713.58 420.82"/><polygon class="cls-17" points="726.76 461.01 726.76 448.12 715.04 439.68 726.76 446.45 713.58 420.82 739.94 405.6 753.12 431.23 747.34 434.57 747.34 436.76 760.59 436.76 772.73 452.06 755.71 461.01 726.76 461.01"/><polygon class="cls-26" points="421.96 510.48 436.89 424.72 436.89 516.56 421.96 510.48"/><polygon class="cls-27" points="451.83 510.48 436.89 424.72 436.89 516.56 451.83 510.48"/><polygon class="cls-17" points="436.89 516.56 514.08 511.67 450.67 503.82 436.89 424.72 436.89 516.56"/><polygon class="cls-26" points="179.22 427.55 194.16 341.79 194.16 433.63 179.22 427.55"/><polygon class="cls-27" points="209.1 427.55 194.16 341.79 194.16 433.63 209.1 427.55"/><polygon class="cls-17" points="194.16 433.63 271.34 428.73 207.94 420.89 194.16 341.79 194.16 433.63"/><polygon class="cls-26" points="442.86 577.57 457.8 529.25 457.8 583.65 442.86 577.57"/><polygon class="cls-27" points="472.74 577.57 457.8 529.25 457.8 583.65 472.74 577.57"/><polygon class="cls-17" points="457.8 583.65 503.17 579.79 469.77 567.95 457.8 529.25 457.8 583.65"/><polygon class="cls-26" points="765.7 426.72 780.64 378.39 780.64 432.8 765.7 426.72"/><polygon class="cls-27" points="795.58 426.72 780.64 378.39 780.64 432.8 795.58 426.72"/><polygon class="cls-17" points="780.64 432.8 826.01 428.94 792.61 417.1 780.64 378.39 780.64 432.8"/><polygon class="cls-26" points="497.11 560.71 515.24 502.06 515.24 568.09 497.11 560.71"/><polygon class="cls-27" points="533.37 560.71 515.24 502.06 515.24 568.09 533.37 560.71"/><polygon class="cls-17" points="515.24 568.09 571.44 559.31 530.59 551.73 515.24 502.06 515.24 568.09"/><polygon class="cls-29" points="709.71 500.26 596.36 559.31 517.36 614.76 481.47 621.13 424.26 579.89 336.55 542.86 238.33 474.65 134.38 420.95 134.38 427.59 238.33 481.29 336.55 549.5 424.26 586.53 481.47 627.77 517.36 621.4 596.36 565.95 709.71 506.9 859.71 431.53 865.62 421.92 709.71 500.26"/><polygon class="cls-30" points="596.36 565.95 709.71 506.9 859.71 431.53 865.62 421.92 709.71 500.26 596.36 559.31 517.36 614.76 481.47 621.13 481.47 627.77 517.36 621.4 596.36 565.95"/><polygon class="cls-17" points="303.64 455.15 304.45 454.51 328.53 440.61 320.83 430.9 307.58 430.9 307.58 428.71 313.36 425.37 300.18 399.74 273.82 414.96 287 440.59 275.28 433.82 287 442.26 287 455.15 303.64 455.15"/></g></g></svg>