<svg xmlns="http://www.w3.org/2000/svg" viewBox="0 0 1000 1000"><defs><style>.cls-1{isolation:isolate;}.cls-2{fill:#c4eef2;}.cls-3{fill:#7e97a9;}.cls-4{fill:#94a8b6;}.cls-5{fill:#c8d6d9;}.cls-6{fill:#b4cacf;}.cls-7{fill:#d6e5e8;}.cls-8{fill:#9bbbc2;}.cls-9{fill:#b4c4cf;}.cls-10{fill:#a7b5c0;}.cls-11{fill:#b8d0db;mix-blend-mode:multiply;}.cls-12{fill:#498046;}.cls-13{fill:#315730;}.cls-14{fill:#68a865;}.cls-15{fill:#3d6b3b;}.cls-16{fill:#437540;}.cls-17{fill:#40703d;}.cls-18{fill:#70c26d;}.cls-19{fill:#274526;}.cls-20{fill:#7ed7df;}.cls-21{fill:#6fc4d9;}.cls-22{fill:#e3ffff;}.cls-23{fill:#cbf5f5;}</style></defs><g class="cls-1"><g id="_Layer_" data-name="&lt;Layer&gt;"><polygon class="cls-2" points="134.38 444.12 158.75 413.14 213.4 385.13 243.81 364.07 279.11 334.89 375.26 292.37 414.21 261.63 472.06 223.49 513.18 221.78 579.56 263.47 640.58 288.74 765.54 369.95 807.56 389.03 817.76 412.31 859.64 427.64 865.62 445.09 709.71 523.43 596.36 582.48 517.36 637.93 481.47 644.3 424.26 603.06 336.55 566.03 238.33 497.82 134.38 444.12"/><polygon class="cls-3" points="596.36 582.48 517.36 637.93 481.47 644.3 487.62 739.91 497.31 792.42 489.93 863.46 521.35 862.15 565.53 833.02 595.28 809.54 607.19 718.5 638.3 664.77 661.41 548.59 596.36 582.48"/><polygon class="cls-4" points="779.29 693.62 809.18 555.29 839.88 509.24 852 467.23 865.62 445.09 709.71 523.43 661.41 548.59 638.3 664.77 607.19 718.5 595.28 809.54 668.73 777.06 718.92 738.69 760.67 717.29 779.29 693.62"/><polygon class="cls-5" points="265.06 735.71 257.27 717.92 225.28 706.21 220.71 692.88 210.49 593.27 191.91 548.59 185.45 515.7 134.38 455.92 134.38 444.12 238.33 497.82 246.85 548.59 265.06 595.69 275.94 656.29 265.06 735.71"/><polygon class="cls-6" points="265.06 735.71 297.16 750.28 392.62 812.31 362.39 697.49 361.34 621.83 336.55 566.03 238.33 497.82 246.85 548.59 265.06 595.69 275.94 656.29 265.06 735.71"/><polygon class="cls-5" points="392.62 812.31 439.23 831.62 489.93 863.46 497.31 792.42 487.62 739.91 481.47 644.3 424.26 603.06 336.55 566.03 361.34 621.83 362.39 697.49 392.62 812.31"/><polygon class="cls-7" points="361.34 621.83 323.61 618.31 311.49 627.31 343 674.06 416.93 694.26 440.76 682.14 423.79 644.3 376.12 640.13 361.34 621.83"/><polygon class="cls-8" points="416.93 694.26 343 674.06 311.49 627.31 331.28 743.14 347.44 775.86 359.56 815.05 385.01 835.25 404 831.21 421.12 824.12 440.76 682.14 416.93 694.26"/><polygon class="cls-5" points="343 674.06 353.5 738.29 376.12 768.99 378.95 804.95 385.01 835.25 404 831.21 414.5 778.69 409.65 742.74 416.93 694.26 343 674.06"/><polygon class="cls-9" points="690.21 584.18 739.9 571.8 752.62 559.64 782.92 543.17 782.92 569.81 759.9 597.71 704.75 595.17 690.21 584.18"/><polygon class="cls-10" points="704.75 595.17 690.21 584.18 679.91 699.51 685.06 722.54 679.91 768.51 695.06 774.65 712.02 764.96 736.57 706.02 765.35 655.07 782.92 569.81 759.9 597.71 704.75 595.17"/><polygon class="cls-3" points="710.21 714.74 695.06 774.65 712.02 764.96 736.57 706.02 765.35 655.07 782.92 569.81 759.9 597.71 704.75 595.17 720.51 623.16 710.21 680.73 710.21 714.74"/><polygon class="cls-7" points="170.17 497.82 154.75 512.47 158.38 534.29 196.52 559.67 234.73 562.97 190.02 538.95 185.45 515.7 170.17 497.82"/><polygon class="cls-8" points="208.88 573.47 234.73 562.97 196.52 559.67 158.38 534.29 175.35 584.78 200.8 615.89 211.71 663.96 218.94 675.56 210.49 593.27 208.88 573.47"/><polygon class="cls-11" points="596.36 582.48 530.47 644.3 537.41 694.26 554.07 722.18 549.21 779.79 521.35 862.15 534.63 794.36 530.47 763.82 534.63 714.75 516.59 668.74 517.36 637.93 596.36 582.48"/><polygon class="cls-11" points="652.4 593.88 643.6 668.28 624.16 716.86 624.16 776.55 649.15 780.25 675.06 766.37 682 722.32 679.91 699.51 685.06 722.54 679.91 768.51 668.73 777.06 595.28 809.54 607.19 718.5 638.3 664.77 652.4 593.88"/><polygon class="cls-11" points="775.53 605.67 769.22 656.29 751.87 697.2 757.07 707.95 765.75 706.02 779.29 693.62 760.67 717.29 724.06 736.05 736.57 706.02 765.35 655.07 775.53 605.67"/><polygon class="cls-11" points="685.06 536.27 785.18 497.82 834.46 497.82 839.88 509.24 852 467.23 865.62 445.09 685.06 536.27"/><polygon class="cls-11" points="759.9 597.71 754.64 655.07 730.45 701.71 712.02 764.96 736.57 706.02 765.35 655.07 782.92 569.81 759.9 597.71"/><polygon class="cls-11" points="416.93 694.26 409.65 742.74 414.5 778.69 404 831.21 421.12 824.12 439.23 831.62 437.7 774.65 443.71 726.11 440.76 682.14 416.93 694.26"/><polygon class="cls-11" points="265.06 595.69 270.2 656.29 249.85 701.71 225.28 706.21 257.27 717.92 265.06 735.71 275.94 656.29 265.06 595.69"/><polygon class="cls-11" points="196.52 559.67 194.74 589.91 205.16 615.3 211.71 663.96 218.94 675.56 216.3 595.69 234.73 562.97 196.52 559.67"/><polygon class="cls-11" points="424.26 603.06 336.55 566.03 275.94 523.94 344.76 584.5 421.5 605.67 481.46 644.29 424.26 603.06"/><polygon class="cls-11" points="599.87 722.32 588.77 805.81 568.64 823.86 578.82 797.6 599.87 722.32"/><polygon class="cls-11" points="320.5 680.06 331.28 743.14 347.44 775.86 350.19 784.74 311.49 759.59 327.12 756.88 328.5 740.46 320.5 680.06"/><polygon class="cls-12" points="404.71 232.29 307.71 353.98 422.56 387.76 404.71 232.29"/><polygon class="cls-13" points="513.71 335.14 404.71 232.29 422.56 387.76 513.71 335.14"/><polygon class="cls-14" points="327.87 280.47 404.71 232.29 307.71 353.98 327.87 280.47"/><polygon class="cls-15" points="409.47 198.57 486.42 295.09 395.31 321.89 409.47 198.57"/><polygon class="cls-16" points="323.01 280.15 409.47 198.57 395.31 321.89 323.01 280.15"/><polygon class="cls-14" points="369.43 227.55 409.47 198.57 323.01 280.15 369.43 227.55"/><polygon class="cls-13" points="470.42 236.79 409.47 198.57 486.42 295.09 470.42 236.79"/><polygon class="cls-12" points="405.22 136.54 343.07 240.65 411.8 272.25 405.22 136.54"/><polygon class="cls-17" points="468.52 228.16 405.22 136.54 411.8 272.25 468.52 228.16"/><polygon class="cls-13" points="447.18 190.88 405.22 136.54 468.52 228.16 447.18 190.88"/><polygon class="cls-14" points="358.48 196.37 405.22 136.54 343.07 240.65 358.48 196.37"/><polygon class="cls-13" points="599.91 237.19 674.78 331.11 586.13 357.18 599.91 237.19"/><polygon class="cls-12" points="515.78 316.57 599.91 237.19 586.13 357.18 515.78 316.57"/><polygon class="cls-18" points="560.95 265.38 599.91 237.19 515.78 316.57 560.95 265.38"/><polygon class="cls-19" points="659.22 274.37 599.91 237.19 674.78 331.11 659.22 274.37"/><polygon class="cls-16" points="596.24 211.16 536.85 285.66 607.16 306.34 596.24 211.16"/><polygon class="cls-15" points="662.97 274.12 596.24 211.16 607.16 306.34 662.97 274.12"/><polygon class="cls-19" points="627.14 233.53 596.24 211.16 662.97 274.12 627.14 233.53"/><polygon class="cls-14" points="549.19 240.65 596.24 211.16 536.85 285.66 549.19 240.65"/><polygon class="cls-17" points="599.52 163.28 647.49 243.64 594.44 268.03 599.52 163.28"/><polygon class="cls-12" points="550.66 234 599.52 163.28 594.44 268.03 550.66 234"/><polygon class="cls-14" points="567.13 205.22 599.52 163.28 550.66 234 567.13 205.22"/><polygon class="cls-13" points="635.6 209.46 599.52 163.28 647.49 243.64 635.6 209.46"/><polygon class="cls-13" points="335.46 398.95 410.34 492.87 321.69 518.95 335.46 398.95"/><polygon class="cls-12" points="251.34 478.33 335.46 398.95 321.69 518.95 251.34 478.33"/><polygon class="cls-18" points="296.5 427.15 335.46 398.95 251.34 478.33 296.5 427.15"/><polygon class="cls-19" points="394.77 436.13 335.46 398.95 410.34 492.87 394.77 436.13"/><polygon class="cls-16" points="331.79 372.92 272.4 447.42 342.72 468.1 331.79 372.92"/><polygon class="cls-15" points="398.52 435.89 331.79 372.92 342.72 468.1 398.52 435.89"/><polygon class="cls-19" points="362.69 395.29 331.79 372.92 398.52 435.89 362.69 395.29"/><polygon class="cls-14" points="284.75 402.42 331.79 372.92 272.4 447.42 284.75 402.42"/><polygon class="cls-17" points="335.07 325.04 383.04 405.4 329.99 429.79 335.07 325.04"/><polygon class="cls-12" points="286.21 395.76 335.07 325.04 329.99 429.79 286.21 395.76"/><polygon class="cls-14" points="302.68 366.99 335.07 325.04 286.21 395.76 302.68 366.99"/><polygon class="cls-13" points="371.15 371.22 335.07 325.04 383.04 405.4 371.15 371.22"/><polygon class="cls-12" points="501.24 306.33 436.27 387.82 513.19 410.44 501.24 306.33"/><polygon class="cls-13" points="574.23 375.2 501.24 306.33 513.19 410.44 574.23 375.2"/><polygon class="cls-19" points="535.04 330.8 501.24 306.33 574.23 375.2 535.04 330.8"/><polygon class="cls-14" points="449.78 338.59 501.24 306.33 436.27 387.82 449.78 338.59"/><polygon class="cls-15" points="504.42 283.75 555.95 348.39 494.94 366.33 504.42 283.75"/><polygon class="cls-16" points="446.53 338.38 504.42 283.75 494.94 366.33 446.53 338.38"/><polygon class="cls-14" points="477.61 303.16 504.42 283.75 446.53 338.38 477.61 303.16"/><polygon class="cls-13" points="545.24 309.34 504.42 283.75 555.95 348.39 545.24 309.34"/><polygon class="cls-12" points="501.58 242.21 459.96 311.93 505.99 333.09 501.58 242.21"/><polygon class="cls-17" points="543.97 303.57 501.58 242.21 505.99 333.09 543.97 303.57"/><polygon class="cls-13" points="529.68 278.6 501.58 242.21 543.97 303.57 529.68 278.6"/><polygon class="cls-14" points="470.27 282.28 501.58 242.21 459.96 311.93 470.27 282.28"/><path class="cls-20" d="M600,384s-21.68,24.49-79.38,39.7-116.37,36.4-69.13,65.67,147.35,10.48,186.77,10S750.71,492,773.41,467.06s45.48-50.49,4.38-60.14S727,393.23,695.1,370.38,619.69,368.82,600,384Z"/><path class="cls-21" d="M521,425.24C579.17,411.83,601.61,388,601.61,388c20.14-14.54,64.3-34.46,95.46-10.63s40.74,28.17,81.52,39.1c12.51,3.35,18.95,8,21.2,13.56,2.68-10.16-2.22-18.5-22-23.14-41.1-9.66-50.79-13.69-82.69-36.54S619.69,368.82,600,384c0,0-21.68,24.49-79.38,39.7-17.21,4.54-34.49,9.62-49.05,15.28C486.29,433.76,503.7,429.23,521,425.24Z"/><polygon class="cls-22" points="299.06 540 434.25 516.38 515.78 528.19 599.91 523.94 712.02 522.65 633.62 563.07 563.79 566.03 497.31 570.44 429.89 559.67 359.83 575.86 336.55 566.03 299.06 540"/><path class="cls-2" d="M603.18,429.24c-9.42,0-17,3.55-17,7.93s7.63,7.92,17,7.92,17-3.55,17-7.92S612.59,429.24,603.18,429.24Z"/><path class="cls-2" d="M637.35,443.52c-6.3,0-11.41,2.37-11.41,5.3s5.11,5.3,11.41,5.3,11.4-2.37,11.4-5.3S643.64,443.52,637.35,443.52Z"/><path class="cls-2" d="M522.77,467.25c-6.3,0-11.4,2.38-11.4,5.3s5.1,5.31,11.4,5.31,11.41-2.38,11.41-5.31S529.07,467.25,522.77,467.25Z"/><path class="cls-2" d="M706.46,459c-6.3,0-11.4,2.37-11.4,5.3s5.1,5.3,11.4,5.3,11.41-2.37,11.41-5.3S712.76,459,706.46,459Z"/><path class="cls-2" d="M628,418.9c-3.76,0-6.81,1.41-6.81,3.16s3,3.17,6.81,3.17,6.81-1.42,6.81-3.17S631.77,418.9,628,418.9Z"/><path class="cls-2" d="M730.45,433c-3.76,0-6.81,1.42-6.81,3.17s3.05,3.16,6.81,3.16,6.81-1.42,6.81-3.16S734.21,433,730.45,433Z"/><path class="cls-2" d="M541,477.86c-3.76,0-6.81,1.41-6.81,3.16s3.05,3.17,6.81,3.17,6.81-1.42,6.81-3.17S544.71,477.86,541,477.86Z"/><path class="cls-23" d="M449.81,528.83s-9.4-1.1-11.62,0-4.94,10.7-1.91,14.34,22.66-.87,27.64,0,3.6-6.87,1.94-10.19S449.81,528.83,449.81,528.83Z"/><path class="cls-23" d="M618.33,543s7.67-.78,9.47,0,4,7.61,1.56,10.2-18.48-.62-22.54,0-2.93-4.89-1.58-7.25S618.33,543,618.33,543Z"/><path class="cls-23" d="M377.22,548.82s7.67-.79,9.47,0,4,7.61,1.57,10.2-18.48-.62-22.54,0-2.94-4.89-1.58-7.25S377.22,548.82,377.22,548.82Z"/><path class="cls-23" d="M532.87,542.7s-5.15-.86-6.36,0-2.7,8.25-1,11,12.41-.67,15.13,0,2-5.3,1.06-7.85S532.87,542.7,532.87,542.7Z"/><path class="cls-23" d="M469.4,547.23s5.07-.6,6.27,0,2.66,5.77,1,7.74-12.23-.48-14.91,0-1.94-3.71-1.05-5.5S469.4,547.23,469.4,547.23Z"/><path class="cls-23" d="M548.62,532.06s3.56-.08,4.34.42,1.47,4.18.21,5.43-8.45-1.14-10.34-1-1.1-2.69-.36-3.88S548.62,532.06,548.62,532.06Z"/><polygon class="cls-11" points="321.69 518.95 411.8 514.45 440.86 497.82 467.38 497.82 500 484.19 522.77 481.02 481.47 469.61 429.2 447.42 397.87 447.42 395.23 437.79 398.52 435.89 374.92 409.14 383.04 405.4 371.15 371.22 335.07 325.04 354.42 418.56 329.99 429.79 338.45 430.9 342.72 468.1 359.06 462.85 371.05 504.43 321.69 518.95"/><polygon class="cls-11" points="422.56 387.76 436.27 387.82 459.21 345.7 453.13 338.38 473.08 317.96 464.95 303.57 501.58 242.21 479.62 270.32 470.42 236.79 463.21 232.29 468.52 228.16 447.18 190.88 405.22 136.54 429.89 210.14 411.8 272.25 424.78 268.03 426.02 307.94 414.36 316.29 422.56 387.76"/><polygon class="cls-11" points="501.58 242.21 517.8 320.04 505.99 333.09 524.44 331.11 527.96 353.98 494.94 366.33 508.13 366.33 513.19 410.44 580.04 392.03 597.26 374.19 619.88 366.33 642.49 347.07 616.04 348.39 586.13 357.18 577.76 316.07 550.66 303.57 539.89 289.24 537.39 292.08 529.68 278.6 501.58 242.21"/><polygon class="cls-11" points="632.35 343.59 689.66 340.77 711.97 335.14 668.06 306.6 659.67 276.03 662.97 274.12 639.36 247.37 647.49 243.64 635.6 209.46 599.52 163.28 614.41 228.54 614.69 254.96 594.44 268.03 602.77 268.03 607.16 306.34 619.67 307.66 632.35 343.59"/><polygon class="cls-20" points="709.71 523.43 596.36 582.48 517.36 637.93 481.47 644.3 424.26 603.06 336.55 566.03 238.33 497.82 134.38 444.12 134.38 450.76 238.33 504.46 336.55 572.67 424.26 609.7 481.47 650.94 517.36 644.57 596.36 589.12 709.71 530.07 859.71 454.7 865.62 445.09 709.71 523.43"/><polygon class="cls-21" points="596.36 589.12 709.71 530.07 859.71 454.7 865.62 445.09 709.71 523.43 596.36 582.48 517.36 637.93 481.47 644.3 481.47 650.94 517.36 644.57 596.36 589.12"/></g></g></svg>