<svg xmlns="http://www.w3.org/2000/svg" viewBox="0 0 1000 1000"><defs><style>.cls-1{isolation:isolate;}.cls-2{fill:#7f2c2b;}.cls-3{fill:#631d1d;}.cls-4{fill:#bc5249;}.cls-5{fill:#9e4741;}.cls-6{fill:#cc665e;}.cls-7{fill:#82342f;}.cls-8{fill:#9d3433;}.cls-9{fill:#dbb79f;}.cls-10,.cls-13,.cls-15,.cls-21,.cls-9{mix-blend-mode:multiply;}.cls-10{fill:#e5b3b0;}.cls-11{fill:#ff815e;}.cls-12{fill:#f99a52;}.cls-14{fill:#debcb8;}.cls-15{fill:#eda79f;}.cls-16{fill:#ffb254;}.cls-17{fill:#decbb8;}.cls-18{fill:#315730;}.cls-19{fill:#498046;}.cls-20{fill:#de5252;}.cls-21{fill:#b59783;}</style></defs><g class="cls-1"><g id="_Layer_" data-name="&lt;Layer&gt;"><polygon class="cls-2" points="596.36 543.11 517.36 598.56 481.47 604.93 487.62 700.54 497.31 753.05 489.93 824.09 521.35 822.78 565.53 793.65 595.28 770.17 607.19 679.13 638.3 625.4 661.41 509.22 596.36 543.11"/><polygon class="cls-3" points="779.29 654.25 809.18 515.92 839.88 469.87 852 427.86 865.62 405.72 709.71 484.06 661.41 509.22 638.3 625.4 607.19 679.13 595.28 770.17 668.73 737.69 718.92 699.32 760.67 677.92 779.29 654.25"/><polygon class="cls-4" points="265.06 696.34 257.27 678.55 225.28 666.84 220.71 653.51 210.49 553.9 191.91 509.22 185.45 476.33 134.38 416.55 134.38 404.75 238.33 458.45 246.85 509.22 265.06 556.32 275.94 616.92 265.06 696.34"/><polygon class="cls-5" points="265.06 696.34 297.16 710.91 392.62 772.94 362.39 658.12 361.34 582.45 336.55 526.66 238.33 458.45 246.85 509.22 265.06 556.32 275.94 616.92 265.06 696.34"/><polygon class="cls-4" points="392.62 772.94 439.23 792.25 489.93 824.09 497.31 753.05 487.62 700.54 481.47 604.93 424.26 563.69 336.55 526.66 361.34 582.45 362.39 658.12 392.62 772.94"/><polygon class="cls-6" points="361.34 582.45 323.61 578.94 311.49 587.94 343 634.69 416.93 654.89 440.76 642.77 423.79 604.93 376.12 600.76 361.34 582.45"/><polygon class="cls-7" points="416.93 654.89 343 634.69 311.49 587.94 331.28 703.77 347.44 736.49 359.56 775.68 385.01 795.88 404 791.84 421.12 784.75 440.76 642.77 416.93 654.89"/><polygon class="cls-5" points="343 634.69 353.5 698.92 376.12 729.62 378.95 765.58 385.01 795.88 404 791.84 414.5 739.32 409.65 703.37 416.93 654.89 343 634.69"/><polygon class="cls-8" points="690.21 544.81 739.9 532.43 752.62 520.27 782.92 503.8 782.92 530.44 759.9 558.34 704.75 555.8 690.21 544.81"/><polygon class="cls-2" points="704.75 555.8 690.21 544.81 679.91 660.14 685.06 683.17 679.91 729.14 695.06 735.28 712.02 725.59 736.57 666.65 765.35 615.7 782.92 530.44 759.9 558.34 704.75 555.8"/><polygon class="cls-3" points="710.21 675.38 695.06 735.28 712.02 725.59 736.57 666.65 765.35 615.7 782.92 530.44 759.9 558.34 704.75 555.8 720.51 583.79 710.21 641.36 710.21 675.38"/><polygon class="cls-6" points="170.18 458.45 154.75 473.1 158.38 494.92 196.52 520.3 234.73 523.6 190.02 499.58 185.45 476.33 170.18 458.45"/><polygon class="cls-7" points="208.88 534.1 234.73 523.6 196.52 520.3 158.38 494.92 175.35 545.41 200.8 576.52 211.71 624.59 218.94 636.19 210.5 553.9 208.88 534.1"/><polygon class="cls-9" points="596.36 543.11 530.47 604.93 537.41 654.89 554.07 682.81 549.21 740.42 521.35 822.78 534.63 754.99 530.47 724.45 534.63 675.38 516.59 629.37 517.36 598.56 596.36 543.11"/><polygon class="cls-10" points="652.4 554.51 643.6 628.91 624.16 677.49 624.16 737.18 649.15 740.88 675.06 727 682 682.95 679.91 660.14 685.06 683.17 679.91 729.14 668.73 737.69 595.28 770.17 607.19 679.13 638.3 625.4 652.4 554.51"/><polygon class="cls-10" points="775.53 566.3 769.22 616.92 751.87 657.83 757.07 668.58 765.75 666.65 779.29 654.25 760.67 677.92 724.06 696.68 736.57 666.65 765.35 615.7 775.53 566.3"/><polygon class="cls-10" points="685.06 496.9 785.18 458.45 834.46 458.45 839.88 469.87 852 427.86 865.62 405.72 685.06 496.9"/><polygon class="cls-9" points="759.9 558.34 754.64 615.7 730.45 662.34 712.02 725.59 736.57 666.65 765.35 615.7 782.92 530.44 759.9 558.34"/><polygon class="cls-9" points="416.93 654.89 409.65 703.37 414.5 739.32 404 791.84 421.12 784.75 439.23 792.25 437.7 735.28 443.71 686.74 440.76 642.77 416.93 654.89"/><polygon class="cls-9" points="265.06 556.32 270.21 616.92 249.85 662.34 225.28 666.84 257.27 678.55 265.06 696.34 275.94 616.92 265.06 556.32"/><polygon class="cls-9" points="196.52 520.3 194.74 550.54 205.16 575.93 211.71 624.59 218.94 636.19 216.3 556.32 234.73 523.6 196.52 520.3"/><polygon class="cls-9" points="424.26 563.69 336.55 526.66 275.94 484.57 344.76 545.13 421.5 566.3 481.46 604.92 424.26 563.69"/><polygon class="cls-9" points="599.87 682.95 588.77 766.44 568.64 784.49 578.82 758.23 599.87 682.95"/><polygon class="cls-9" points="320.5 640.69 331.28 703.77 347.44 736.49 350.19 745.37 311.49 720.22 327.12 717.51 328.5 701.09 320.5 640.69"/><polygon class="cls-11" points="134.38 404.75 145.18 391.03 207.99 359.26 310.7 279.02 376.06 241.88 414.21 222.25 472.06 184.12 513.18 182.41 579.56 224.1 640.58 249.37 765.54 330.58 807.56 349.66 817.76 372.94 817.96 381.79 859.64 388.27 865.62 405.72 709.71 484.06 596.36 543.11 517.36 598.56 481.47 604.93 424.26 563.69 336.55 526.66 238.33 458.45 134.38 404.75"/><path class="cls-12" d="M384.56,216.82c28.22-25.73,62.25-12.45,136.11,22.41s97.92,34.58,119.5,36.79S726.76,333.41,763,339.65s44.55,10,44.55,10l10.2,23.28s-10.65,22.31-93.7,27.29-123.72-8.11-184.3,30S422.87,468.28,350.19,455,246,436.93,230.2,430.2s30.31-28.31,100.64-21.67,91.9-7.31,81.94-14.86-27.14,4.23-76.23,0S208,359.26,208,359.26,356.34,242.55,384.56,216.82Z"/><g class="cls-13"><path class="cls-14" d="M859.64,388.27,818,381.79l-.2-8.85s-10.65,22.31-93.7,27.29-123.72-8.11-184.3,30S422.87,468.28,350.19,455c-7.21-1.32-13.9-2.53-20.33-3.69.54.12,83.55,19.2,107.26,24.71s64.18,5.89,127.81-24.72,179.82-6.26,198.63-6.26c4.51,0,13,.09,23.31.24l78.75-39.57Z"/></g><path class="cls-15" d="M763,339.65c-36.25-6.24-101.25-61.42-122.84-63.63s-45.64-1.94-119.5-36.79c-14.49-6.84-27.4-12.81-39.08-17.86,2.53,1.38,67.66,37,86.11,51.61,18.81,14.93,21.58,33.19,55.88,42.6s50.69,36,56.33,50.35-49.3,8.85-84.63,23.79c-35.15,14.86-66.25,47.59-98,61.37a218.9,218.9,0,0,0,42.53-20.89c60.58-38.08,101.25-25,184.3-30s93.7-27.29,93.7-27.29l-10.2-23.28S799.25,345.88,763,339.65Z"/><path class="cls-16" d="M400.61,342.69c28.21-8.3-13.84-12.17-40.39-21.58s-34.31-22.13-1.66-22.68,31.19-12.18,21.4-19.37-19.19-29.32,7.37-29.88,19.92-23.79,19.36-32.09c-.52-7.88,9.08-13.07,10.06-13.58-12.28.42-22.59,4.56-32.19,13.31C356.34,242.55,208,359.26,208,359.26s37.89-16,67.95-16.57S372.39,351,400.61,342.69Z"/><path class="cls-16" d="M446.39,410.6c2.91-24.06-29.12-23.07-53.77-18.59h0c9.69-1.22,15.69-1.75,20.18,1.65,10,7.55-11.62,21.5-81.94,14.86-40.36-3.81-72.65,1.68-89.93,8.31.77,0,45.37-2.84,99.67,6.21C395.35,432.18,443.49,434.67,446.39,410.6Z"/><g class="cls-13"><path class="cls-14" d="M521.13,595.92c-76.54-14.87-114.88-58.66-154.83-75.62A172.44,172.44,0,0,0,308,506.84l28.54,19.82,87.71,37,57.21,41.24,35.89-6.37Z"/><path class="cls-14" d="M563.83,504.71c-37.35,3.23-94.62,20-183.87-9.79-54.47-18.19-87.34-15.61-104.74-10.85l28.61,19.87a203.8,203.8,0,0,1,46.36.77c40.31,5.72,130.64,44.08,172.14,51.61,14.86,2.7,34.18,2.72,52.88,1.64l21.15-14.85,66.16-34.47C622.82,505.62,581.15,503.21,563.83,504.71Z"/></g><g class="cls-13"><path class="cls-17" d="M688.14,389.64a8.79,8.79,0,0,0-7.93.08s-11.09,6.63-22.47,13c-2.81,1.59-5.74,3.26-8.28,4.6A5.42,5.42,0,0,1,647,408a13.79,13.79,0,0,1-3.16-.31,22.62,22.62,0,0,1-2.53-.67L656.5,399l.35-.2c2.3-1.43,2.14-3.67-.35-5a9.54,9.54,0,0,0-8.66.2l-24.57,15.37a11.46,11.46,0,0,1-1.9-1.62,6.08,6.08,0,0,1,0-8.6,12,12,0,0,1,2.43-2l3.32-2.18,6.23-4.08,6.08-4,.43-.31c2.26-1.82,1.54-4.34-1.6-5.65s-7.52-.88-9.78.93l-5.36,4.31-5.5,4.43-3.28,2.63a17.68,17.68,0,0,0-3.13,3.4,9.54,9.54,0,0,0-1.61,7.62,11.77,11.77,0,0,0,3.94,6.21,18,18,0,0,0,3.85,2.6l-21.34,13.35a1.29,1.29,0,0,0,0,2.4,4.78,4.78,0,0,0,4.33.1l34.75-18.51a38.91,38.91,0,0,0,6,1.78,26.91,26.91,0,0,0,6.3.61,18.64,18.64,0,0,0,7.26-1.68c3.15-1.47,6-2.94,9.11-4.47l24.11-12.13.37-.21C690.43,392.94,690.37,390.89,688.14,389.64Z"/><path class="cls-17" d="M343.54,456.84a6.6,6.6,0,0,0-5.93-.25s-7.51,4.52-15.26,8.87c-1.92,1.08-3.91,2.21-5.65,3.12a3.61,3.61,0,0,1-1.78.4,10.67,10.67,0,0,1-2.41-.36,20.41,20.41,0,0,1-3.41-1.16l34.65-18.16.29-.17c1.9-1.21,1.43-3.27-1-4.6s-6-1.44-7.91-.24l-20.27,12.9a15.54,15.54,0,0,1-2-1.58c-2.21-2.08-3.24-5.43-1.21-7.88a8.22,8.22,0,0,1,1.93-1.76l2.73-1.82,5.11-3.45,5-3.36.35-.26c1.8-1.55.77-3.9-2.29-5.25s-7-1.18-8.82.38l-4.29,3.69-4.4,3.78-2.61,2.26a11.59,11.59,0,0,0-2.38,3,8,8,0,0,0-.37,6.9,14.41,14.41,0,0,0,4.51,5.89,23.05,23.05,0,0,0,3.91,2.56l-17.61,11.2c-.88.56-.75,1.52.35,2.2a4.48,4.48,0,0,0,4,.3l8.23-4.31.31.14a39.9,39.9,0,0,0,5.77,2,21.2,21.2,0,0,0,4.78.71,12.39,12.39,0,0,0,5.24-1c2.18-1,4.17-2,6.28-3l16.6-8.13a2,2,0,0,0,.25-.14C345.64,459.4,345.35,457.86,343.54,456.84Z"/><path class="cls-17" d="M559.27,518.74a4.65,4.65,0,0,0-4.22-.18s-5.33,3.21-10.85,6.3c-1.35.77-2.77,1.57-4,2.22a2.53,2.53,0,0,1-1.27.28,7.36,7.36,0,0,1-1.7-.25,14.24,14.24,0,0,1-2.43-.83l24.63-12.91a1.32,1.32,0,0,0,.2-.12c1.35-.85,1-2.32-.74-3.27a6.21,6.21,0,0,0-5.62-.16l-30.35,19.3c-.62.4-.53,1.08.25,1.56a3.17,3.17,0,0,0,2.83.21l5.85-3.06.22.1a28.86,28.86,0,0,0,4.1,1.43,15.51,15.51,0,0,0,3.4.5,8.86,8.86,0,0,0,3.72-.69c1.55-.7,3-1.4,4.47-2.12l11.79-5.78a1,1,0,0,0,.18-.1C560.76,520.55,560.56,519.46,559.27,518.74Z"/><path class="cls-17" d="M587.56,227.41a4.58,4.58,0,0,1-1.16.23,10.18,10.18,0,0,1-2.32-.23,16.51,16.51,0,0,1-1.85-.49l1.81-1-4.48-1.85L577.87,223,569,228.58a8.73,8.73,0,0,1-1.39-1.19,4.47,4.47,0,0,1,0-6.31,8.94,8.94,0,0,1,1.78-1.5l1.44-.93-6-3.8-2.32,1.87a12.71,12.71,0,0,0-2.3,2.49A7,7,0,0,0,559,224.8a8.61,8.61,0,0,0,2.89,4.56,14,14,0,0,0,2.82,1.9l-15.65,9.79a1,1,0,0,0,0,1.76,3.52,3.52,0,0,0,3.18.07l25.48-13.57a28.31,28.31,0,0,0,4.37,1.31,19.63,19.63,0,0,0,4.61.44,13.66,13.66,0,0,0,5.33-1.23l.61-.3Z"/></g><path class="cls-18" d="M307.94,382.48a4.56,4.56,0,0,0-4.48,4.63s.23,13,.07,25.91c0,3.19,0,6.54-.18,9.33a3.15,3.15,0,0,1-.76,2.1,6.71,6.71,0,0,1-2.13,1.51,12.31,12.31,0,0,1-2.11.78l.67-16.81a2.67,2.67,0,0,0,0-.4,5,5,0,1,0-10,.4l1.18,29.42a13.73,13.73,0,0,1-2.7-.53,13.38,13.38,0,0,1-8.54-8.59,14,14,0,0,1-.64-3.42c-.09-1.39-.17-2.75-.25-4.08-.18-2.79-.35-5.41-.49-7.64-.29-4.48-.48-7.47-.48-7.47a5.62,5.62,0,0,0-.06-.56,5.69,5.69,0,0,0-11.23,1.85s.48,2.95,1.21,7.38c.36,2.21.78,4.79,1.24,7.56.24,1.46.49,3,.74,4.51a24.36,24.36,0,0,0,1.58,5.18,21.5,21.5,0,0,0,6.66,8.5,20.71,20.71,0,0,0,8.45,3.93,17.86,17.86,0,0,0,4.8.37l1,25.55a2.51,2.51,0,0,0,2.39,2.39,2.48,2.48,0,0,0,2.59-2.39l1.54-38.39a22.89,22.89,0,0,0,5.21-1.66,12.87,12.87,0,0,0,4.22-3A10.24,10.24,0,0,0,310,423c.35-3.26.55-6.39.79-9.68.89-13,1.77-25.93,1.77-25.93s0-.29,0-.42A4.56,4.56,0,0,0,307.94,382.48Z"/><path class="cls-19" d="M560.27,175.91a3.35,3.35,0,0,0-3.29,3.4s.17,9.51.06,19c0,2.34,0,4.8-.13,6.85a2.39,2.39,0,0,1-.56,1.54,4.89,4.89,0,0,1-1.56,1.1,9.28,9.28,0,0,1-1.56.58l.5-12.33v-.3a3.65,3.65,0,0,0-7.3.3l.86,21.57a10.1,10.1,0,0,1-2-.39,9.79,9.79,0,0,1-6.26-6.29,10.59,10.59,0,0,1-.47-2.52c-.06-1-.12-2-.18-3-.13-2.05-.26-4-.36-5.61l-.35-5.47c0-.14,0-.28-.05-.41a4.17,4.17,0,0,0-8.23,1.35s.35,2.17.88,5.41c.27,1.62.58,3.52.91,5.55.18,1.07.36,2.18.55,3.3a17.66,17.66,0,0,0,1.16,3.8,15.76,15.76,0,0,0,4.88,6.24,15.16,15.16,0,0,0,6.19,2.88,12.85,12.85,0,0,0,3.52.26l.75,18.74a1.83,1.83,0,0,0,3.65,0L553,213.32a17,17,0,0,0,3.82-1.21,9.79,9.79,0,0,0,3.1-2.21,7.56,7.56,0,0,0,1.83-4.29c.25-2.39.4-4.69.58-7.1l1.3-19c0-.09,0-.21,0-.31A3.35,3.35,0,0,0,560.27,175.91Z"/><path class="cls-18" d="M609.63,383.37c-2.06,0-3.7,1.44-3.66,3.16,0,0,.18,8.81.06,17.6,0,2.17,0,4.45-.15,6.35a1.93,1.93,0,0,1-.62,1.42,5.45,5.45,0,0,1-1.74,1,13.46,13.46,0,0,1-3.12.81l1.84-38v-.34c-.11-2.28-2.43-4.07-5.18-4s-4.89,2-4.78,4.31l1.18,24.48a16.45,16.45,0,0,1-2.71-.44c-3.34-.79-7.26-3.54-8.54-7.14a10.38,10.38,0,0,1-.63-2.85c-.09-1.16-.17-2.29-.25-3.39-.18-2.33-.35-4.51-.49-6.37-.29-3.73-.48-6.21-.48-6.21a3.62,3.62,0,0,0-.06-.46c-.51-2.59-3.44-4.34-6.54-3.91s-5.21,2.86-4.7,5.44c0,0,.49,2.46,1.21,6.14.37,1.84.79,4,1.25,6.3.24,1.21.48,2.47.74,3.75a17.89,17.89,0,0,0,1.58,4.31,18.93,18.93,0,0,0,6.66,7.08,22.79,22.79,0,0,0,8.45,3.27,21.34,21.34,0,0,0,4.79.3l1,21.27a2.33,2.33,0,0,0,2.39,2,2.37,2.37,0,0,0,2.59-2l.43-9,.32,0a25.53,25.53,0,0,0,5.32-1.32,11,11,0,0,0,3.45-2.05,6.47,6.47,0,0,0,2-4c.28-2.22.44-4.35.64-6.58.73-8.82,1.45-17.63,1.45-17.63a2.72,2.72,0,0,0,0-.28C613.38,384.71,611.68,383.34,609.63,383.37Z"/><path class="cls-19" d="M533.05,498.43a2.44,2.44,0,0,0-2.6,2.24s.13,6.27,0,12.52c0,1.54,0,3.16-.1,4.5a1.39,1.39,0,0,1-.44,1,4,4,0,0,1-1.24.73,9.49,9.49,0,0,1-2.21.57l1.3-27v-.23a3.34,3.34,0,0,0-3.68-2.83c-2,.07-3.48,1.44-3.4,3.06l1.77,36.66a1.65,1.65,0,0,0,1.7,1.41,1.67,1.67,0,0,0,1.84-1.41l.31-6.41.23,0a18.71,18.71,0,0,0,3.78-.94,7.69,7.69,0,0,0,2.45-1.46,4.56,4.56,0,0,0,1.45-2.82c.2-1.58.32-3.09.46-4.68.51-6.26,1-12.52,1-12.52a1.47,1.47,0,0,0,0-.21A2.47,2.47,0,0,0,533.05,498.43Z"/><polygon class="cls-20" points="709.71 484.06 596.36 543.11 517.36 598.56 481.47 604.93 424.26 563.69 336.55 526.66 238.33 458.45 134.38 404.75 134.38 411.39 238.33 465.09 336.55 533.3 424.26 570.33 481.47 611.57 517.36 605.2 596.36 549.75 709.71 490.7 859.71 415.33 865.62 405.72 709.71 484.06"/><polygon class="cls-21" points="596.36 549.75 709.71 490.7 859.71 415.33 865.62 405.72 709.71 484.06 596.36 543.11 517.36 598.56 481.47 604.93 481.47 611.57 517.36 605.2 596.36 549.75"/></g></g></svg>