<svg xmlns="http://www.w3.org/2000/svg" viewBox="0 0 1000 1000"><defs><style>.cls-1{isolation:isolate;}.cls-2{fill:#6e4944;}.cls-3{fill:#52322f;}.cls-4{fill:#ab7d72;}.cls-5{fill:#8d6861;}.cls-6{fill:#bb938a;}.cls-7{fill:#714f48;}.cls-8{fill:#8c5b54;}.cls-9{fill:#f99a52;}.cls-10{fill:#a16052;}.cls-11,.cls-16{fill:#decbb8;}.cls-11{mix-blend-mode:multiply;}.cls-12{fill:#ffb254;}.cls-13{fill:#fa8e5c;}.cls-14{fill:#85635b;}.cls-15{fill:#b09189;}.cls-17{fill:#c8d6d9;}.cls-18{fill:#9bbbc2;}.cls-19{fill:#b4cacf;}.cls-20{fill:#e38154;}.cls-21{fill:#b05741;}</style></defs><g class="cls-1"><g id="_Layer_" data-name="&lt;Layer&gt;"><polygon class="cls-2" points="596.36 557.64 517.36 613.1 481.47 619.46 487.62 715.07 497.31 767.59 489.93 838.62 521.35 837.32 565.53 808.19 595.28 784.7 607.19 693.66 638.3 639.93 661.41 523.75 596.36 557.64"/><polygon class="cls-3" points="779.29 668.78 809.18 530.46 839.88 484.4 852 442.39 865.62 420.25 709.71 498.59 661.41 523.75 638.3 639.93 607.19 693.66 595.28 784.7 668.73 752.22 718.92 713.85 760.67 692.45 779.29 668.78"/><polygon class="cls-4" points="265.06 710.87 257.27 693.08 225.28 681.38 220.71 668.04 210.49 568.43 191.91 523.75 185.45 490.87 134.38 431.08 134.38 419.29 238.33 472.99 246.85 523.75 265.06 570.85 275.94 631.45 265.06 710.87"/><polygon class="cls-5" points="265.06 710.87 297.16 725.44 392.62 787.48 362.39 672.65 361.34 596.99 336.55 541.19 238.33 472.99 246.85 523.75 265.06 570.85 275.94 631.45 265.06 710.87"/><polygon class="cls-4" points="392.62 787.48 439.23 806.78 489.93 838.62 497.31 767.59 487.62 715.07 481.47 619.46 424.26 578.22 336.55 541.19 361.34 596.99 362.39 672.65 392.62 787.48"/><polygon class="cls-6" points="361.34 596.99 323.61 593.48 311.49 602.48 343 649.23 416.93 669.42 440.76 657.3 423.79 619.46 376.12 615.29 361.34 596.99"/><polygon class="cls-7" points="416.93 669.42 343 649.23 311.49 602.48 331.28 718.3 347.44 751.02 359.56 790.21 385.01 810.41 404 806.37 421.12 799.28 440.76 657.3 416.93 669.42"/><polygon class="cls-5" points="343 649.23 353.5 713.46 376.12 744.16 378.95 780.11 385.01 810.41 404 806.37 414.5 753.85 409.65 717.9 416.93 669.42 343 649.23"/><polygon class="cls-8" points="690.21 559.35 739.9 546.97 752.62 534.8 782.92 518.34 782.92 544.97 759.89 572.87 704.75 570.34 690.21 559.35"/><polygon class="cls-2" points="704.75 570.34 690.21 559.35 679.91 674.67 685.06 697.7 679.91 743.68 695.06 749.81 712.02 740.12 736.57 681.19 765.35 630.23 782.92 544.97 759.89 572.87 704.75 570.34"/><polygon class="cls-3" points="710.21 689.91 695.06 749.81 712.02 740.12 736.57 681.19 765.35 630.23 782.92 544.97 759.89 572.87 704.75 570.34 720.51 598.32 710.21 655.89 710.21 689.91"/><polygon class="cls-6" points="170.17 472.99 154.75 487.64 158.38 509.45 196.52 534.83 234.73 538.13 190.02 514.11 185.45 490.87 170.17 472.99"/><polygon class="cls-7" points="208.88 548.63 234.73 538.13 196.52 534.83 158.38 509.45 175.35 559.95 200.8 591.05 211.71 639.13 218.94 650.72 210.49 568.43 208.88 548.63"/><polygon class="cls-9" points="134.38 419.29 145.18 405.56 207.99 373.79 207.5 363.31 213.4 360.29 243.81 339.23 279.11 310.06 375.26 267.54 414.21 236.79 472.06 198.66 513.18 196.94 579.56 238.63 640.58 263.9 765.54 345.11 807.56 364.19 817.76 387.47 817.96 396.32 859.64 402.8 865.62 420.25 709.71 498.59 596.36 557.64 517.36 613.1 481.47 619.46 424.26 578.22 336.55 541.19 238.33 472.99 134.38 419.29"/><polygon class="cls-10" points="631.11 334.42 607.04 329.44 579.66 334.42 605.38 331.93 634.02 339.81 651.03 336.9 674.27 343.13 658.91 336.28 669.7 329.44 690.21 327.36 665.14 327.36 642.32 335.25 631.11 334.42"/><polygon class="cls-11" points="596.36 557.64 530.47 619.46 537.41 669.42 554.07 697.34 549.21 754.95 521.35 837.32 534.63 769.52 530.47 738.99 534.63 689.91 516.59 643.9 517.36 613.1 596.36 557.64"/><polygon class="cls-11" points="652.4 569.04 643.6 643.44 624.16 692.02 624.16 751.71 649.15 755.41 675.06 741.53 682 697.48 679.91 674.67 685.06 697.7 679.91 743.68 668.73 752.22 595.28 784.7 607.19 693.66 638.3 639.93 652.4 569.04"/><polygon class="cls-11" points="775.53 580.83 769.22 631.45 751.87 672.36 757.07 683.12 765.75 681.19 779.29 668.78 760.67 692.45 724.06 711.22 736.57 681.19 765.35 630.23 775.53 580.83"/><polygon class="cls-11" points="685.06 511.43 785.18 472.99 834.46 472.99 839.88 484.4 852 442.39 865.62 420.25 685.06 511.43"/><polygon class="cls-11" points="759.89 572.87 754.64 630.23 730.45 676.87 712.02 740.12 736.57 681.19 765.35 630.23 782.92 544.97 759.89 572.87"/><polygon class="cls-11" points="416.93 669.42 409.65 717.9 414.5 753.85 404 806.37 421.12 799.28 439.23 806.78 437.7 749.81 443.71 701.28 440.76 657.3 416.93 669.42"/><polygon class="cls-11" points="265.06 570.85 270.2 631.45 249.85 676.87 225.28 681.38 257.27 693.08 265.06 710.87 275.94 631.45 265.06 570.85"/><polygon class="cls-11" points="196.52 534.83 194.74 565.08 205.16 590.46 211.71 639.13 218.94 650.72 216.3 570.85 234.73 538.13 196.52 534.83"/><polygon class="cls-11" points="424.26 578.22 336.55 541.19 275.94 499.1 344.76 559.67 421.5 580.83 481.46 619.46 424.26 578.22"/><polygon class="cls-11" points="599.87 697.48 588.77 780.98 568.64 799.02 578.82 772.76 599.87 697.48"/><polygon class="cls-11" points="320.5 655.22 331.28 718.3 347.44 751.02 350.19 759.9 311.49 734.75 327.12 732.04 328.5 715.62 320.5 655.22"/><path class="cls-12" d="M513.26,226.53a285,285,0,0,1,46.65-.24l-36.53-22.94a217,217,0,0,1-77.31,12.44l-15.85,10.45A480.38,480.38,0,0,0,513.26,226.53Z"/><path class="cls-13" d="M556.47,509.45a681.74,681.74,0,0,0,113.07,10.07l40.17-20.93,75.79-38.08C728.25,464.73,685.06,465,685.06,465c35.72-14.33,97.2-57.14,130.92-81.58l-8.42-19.22L802,361.67c-49.26,30.61-168.16,101-222.35,102.55-69.3,2-151.63-24.93-273.46.77a333.55,333.55,0,0,1-70,6.88l2.15,1.12,47.34,32.87C409.14,475.09,431.88,487.21,556.47,509.45Z"/><path class="cls-12" d="M321.14,381.72c113.63,18.41,152.7-5,230.72-60.58,35.8-25.53,85.81-31.62,129.45-30.77l-40.69-26.44c-32.5,3.57-68.8,10.12-96.23,22.14-63.91,28-116.19,21.79-201.39,6.43-6.6-1.18-12.75-1.91-18.68-2.44l-45.21,20-35.3,29.17L213.4,360.29l-5.9,3,.49,10.48L152.25,402C201.43,386.09,264.58,372.56,321.14,381.72Z"/><polygon class="cls-11" points="360.77 341.51 403.3 316.61 423.22 290.88 413.26 281.51 398.32 281.51 393.27 289.64 397.9 279.64 411.6 276.94 416.78 273.21 416.78 279.64 426.54 286.07 434.42 297.52 430.22 307.36 461.09 297.52 489.2 292.13 504.55 276.53 516.17 273.21 506.21 279.64 491.27 296.69 471.77 298.77 468.86 302.09 476.06 307.36 469.28 307.36 445.94 310.07 424.88 321.69 414.92 318.37 395.42 332.96 426.95 336.35 436.5 349.01 423.22 357.69 393.89 361.67 360.77 354.33 360.77 341.51"/><path class="cls-11" d="M743.15,350.12l7.47,6.74,10,1.66-6.64-4.19,3.32-4.21s7.72-.79,15.82-1.58l-4.53-2.06-23.74-.41-36.51,5.81L661.41,349l-13.7-10.45,2.78-11.2h3.45l7.47,1.29,12-7-13.69,3.84-1.34-8.09,13-16.18,9.95-10.89L679.16,289l-10.29,9-22.4,24.79L635,346.9l-28.59,20.34,44.07,2.49,37.12-11.21h19.44l7.06-4.19Z"/><polygon class="cls-10" points="265.53 414.09 350.19 401.64 383.38 414.09 427.37 414.09 474.67 408.2 433.18 420.25 413.26 420.25 416.93 433.18 436.5 443.96 416.93 438.15 404 422.8 385.04 420.25 355.16 408.2 299.56 412.43 287.39 425.98 275.94 428.47 284.34 425.15 291.54 414.09 265.53 416.02 251.98 410.77 265.53 414.09"/><polygon class="cls-10" points="524.3 421.14 590.75 428.33 625.05 421.14 635.01 409.52 628.93 423.66 614.27 430.8 625.05 436.08 608.46 433.31 587.79 433.87 548.14 427.23 532.52 430.8 539.85 426.12 524.3 421.14"/><polygon class="cls-10" points="440.76 286.07 466.9 277.36 481.42 279.85 468.56 273.21 443.66 275.28 451.13 276.94 440.76 286.07"/><polygon class="cls-10" points="447.56 523.75 481.46 523.75 504.55 518.34 481.47 529.72 463.05 526.96 447.56 523.75"/><polygon class="cls-10" points="825.17 427.01 791.27 427.01 768.19 430.82 791.26 422.8 809.68 424.75 825.17 427.01"/><polygon class="cls-14" points="348.53 349.49 354.89 294.62 363.32 282.96 357.93 254.19 325.84 228.19 283.24 224.87 264.98 242.57 264.98 250.32 263.04 242.5 267.61 235.24 261.38 227.15 262.42 215.77 263.25 226.32 269.89 233.16 280.26 222.38 301.43 222.17 306.41 217.19 304.54 208.47 295 203.35 306.61 207.65 308.27 212.42 311.18 210.76 309.52 214.91 309.52 217.6 307.24 221.55 326.53 223.62 352.67 236.48 356.82 236.07 368.65 249.35 377.36 257.86 383.17 251.42 383.17 226.73 368.44 198.31 371.14 182.54 368.86 172.58 372.18 180.67 379.23 168.85 391.06 161.38 380.27 170.09 373.84 182.95 372.18 196.94 385.25 215.77 392.72 220.3 396.66 215.77 396.66 200.38 398.32 212.21 398.32 218.85 401.43 219.06 398.11 220.72 391.47 225.69 390.64 242.09 389.61 256.61 381.93 266.57 379.44 274.66 371.14 288.56 370.1 303.92 375.29 325.08 373.84 348.94 360.77 354.33 354.54 354.33 348.53 349.49"/><polygon class="cls-14" points="587.54 391.4 583.12 364.85 592.52 343.13 596.36 318.37 592.52 298.45 596.36 291.26 599.71 291.26 604.14 286.07 612.99 286.07 620.19 279.64 654.49 253.64 695.06 249.21 719.78 257.86 695.06 252.53 666.66 257.86 670.53 263.93 683.26 263.93 670.53 267.47 662.24 259.17 653.94 259.72 621.85 284.9 613.55 295.69 612.44 308.41 621.85 322.8 615.76 347.69 624.61 378.68 610.23 394.17 587.54 391.4"/><polygon class="cls-15" points="596.36 318.37 579.66 298.31 555.53 281.65 546.88 245.2 559.91 203.35 559.91 184.2 561.82 203.35 558.08 215.77 564.3 215.77 557.25 218.36 550.89 244.37 555.31 258.89 563.2 256.13 572.74 239.67 574.13 227.22 573.99 240.22 567.35 253.5 569.7 253.5 566.1 255.3 564.17 258.89 555.73 263.93 561.4 278.95 583.12 292.09 592.52 298.45 596.36 318.37"/><path class="cls-11" d="M615.76,347.69l6.09-24.89-9.41-14.39,1.11-12.72,8.3-10.79,32.09-25.18,8.3-.55,8.29,8.3,12.73-3.54H670.53l-3.87-6.08,28.4-5.32,24.72,5.32-23.93-6.57-35.27,3.05L658.49,256l-7,2.7-32.79,25.72-5.18,6.43-8.3.21-.42,3.53-5-3.32L605,313l6.43,12-5,25.73-13.07,18.88,1.93,6s-2.14,2.91-1.93,3.74,3.94,11,3.94,11l12.94,3.74,14.38-15.49Z"/><polygon class="cls-11" points="581.53 296.03 594.76 310.07 592.52 298.45 583.12 292.09 561.4 278.95 555.73 263.93 564.17 258.89 566.1 255.3 569.7 253.5 567.35 253.5 573.99 240.22 574.13 227.22 572.74 239.66 563.2 256.13 555.31 258.89 550.89 244.37 555.18 266.15 559.91 279.64 567 284.83 564.51 284.83 581.53 296.03"/><polygon class="cls-11" points="375.29 325.08 370.1 303.92 371.14 288.56 379.44 274.66 381.93 266.57 389.61 256.61 390.64 242.09 391.47 225.69 398.11 220.72 401.43 219.06 398.32 218.85 398.32 212.21 396.66 200.38 396.66 215.77 392.72 220.3 385.25 215.77 372.18 196.94 373.84 182.95 370.93 196.94 382.97 216.98 382.97 220.3 387.53 224.45 386.08 251.42 375.7 265.95 370.93 270.72 369.69 281.3 362.84 298.31 362.84 320.1 365.54 328.4 360.97 338.98 360.97 343.96 360.77 354.33 373.84 348.94 375.29 325.08"/><polygon class="cls-11" points="356.82 236.07 352.67 236.48 326.53 223.62 307.24 221.55 326.25 225.28 351.57 240.77 355.16 240.77 365.12 252.39 377.36 257.86 368.65 249.35 356.82 236.07"/><polygon class="cls-11" points="383.38 414.09 350.19 401.64 350.19 408.58 355.16 408.2 385.04 420.25 385.04 414.09 383.38 414.09"/><polygon class="cls-11" points="416.93 438.15 436.5 443.96 416.93 433.18 413.26 420.25 413.26 433.8 416.93 438.15"/><polygon class="cls-11" points="275.94 428.47 287.39 425.98 291.54 421.36 291.54 414.09 284.34 425.15 275.94 428.47"/><polygon class="cls-11" points="463.05 526.96 481.46 529.72 481.46 523.75 447.56 523.75 463.05 526.96"/><polygon class="cls-16" points="587.79 428.01 587.79 433.87 608.46 433.31 614.27 434.28 614.27 430.8 625.05 425.54 625.05 421.14 590.75 428.33 587.79 428.01"/><polygon class="cls-16" points="539.85 426.12 532.52 430.8 539.85 429.12 539.85 426.12"/><polygon class="cls-11" points="791.26 427.01 791.26 422.8 768.19 430.82 791.26 427.01"/><polygon class="cls-16" points="451.13 276.94 440.76 286.07 451.13 282.61 451.13 276.94"/><polygon class="cls-16" points="481.42 279.85 468.56 273.21 466.9 277.36 481.42 279.85"/><polygon class="cls-11" points="528.21 534.77 558.91 532.39 566.38 526.74 584.26 522.11 609.53 507.49 624.06 503.14 625.05 494.21 608.91 488.4 571.44 488.4 537.13 518.34 528.21 534.77"/><polygon class="cls-17" points="393.89 336.35 373.15 338.29 363.32 351.57 367.61 355.44 393.89 361.67 407.45 357.1 418.79 356.27 423.22 349.01 405.51 338.56 393.89 336.35"/><polygon class="cls-18" points="407.45 357.1 418.79 356.27 423.22 349.01 405.51 338.56 408.28 346.86 408.9 351.74 400.29 352.47 391.27 358.38 367.61 355.44 393.89 361.67 407.45 357.1"/><polygon class="cls-19" points="520.79 507.43 523.74 486.13 549.86 469.56 556.86 456.18 570.88 459.58 577.18 477.42 575.34 489.95 584.26 499.93 580.75 512.56 560.37 524.03 524.37 516.7 520.79 507.43"/><polygon class="cls-18" points="584.26 499.93 575.34 489.95 577.18 477.42 570.88 459.58 556.86 456.18 567.3 462.87 564.57 477.42 553.68 487.72 550.81 503.33 540.3 515.11 560.37 524.03 580.75 512.56 584.26 499.93"/><polygon class="cls-17" points="528.21 509.45 517.09 511.39 511.83 524.66 514.13 528.54 528.21 534.77 535.47 530.2 541.55 529.37 543.92 522.11 534.43 511.66 528.21 509.45"/><polygon class="cls-18" points="535.47 530.2 541.55 529.37 543.92 522.11 534.43 511.66 535.92 519.96 536.25 524.84 531.64 525.56 526.8 531.48 514.13 528.54 528.21 534.77 535.47 530.2"/><polygon class="cls-17" points="602.78 396.49 618.61 365.7 675.47 354.33 698.21 384.11 687.41 403.8 687.41 408.34 644.19 411.75 618.61 403.8 602.78 403.8 602.78 396.49"/><polygon class="cls-18" points="687.41 408.34 687.41 403.8 698.21 384.11 675.47 354.33 650.5 359.33 672.2 357.32 680.16 372.24 650.5 388.94 651.98 399.28 645.34 389.16 623.3 392.42 618.61 403.8 644.19 411.75 687.41 408.34"/><polygon class="cls-11" points="644.19 411.75 696.17 411.75 710.99 402.54 724.31 398.56 731.03 387.72 720.6 379.76 692.08 376.08 682.25 363.21 688.95 378.48 667.81 394.98 657.2 407.3 644.19 411.75"/><polygon class="cls-20" points="709.71 498.67 596.36 557.72 517.36 613.17 481.47 619.54 424.26 578.29 336.55 541.27 238.33 473.06 134.38 419.36 134.38 426 238.33 479.7 336.55 547.91 424.26 584.93 481.47 626.17 517.36 619.81 596.36 564.36 709.71 505.31 859.71 429.94 865.62 420.33 709.71 498.67"/><polygon class="cls-21" points="596.36 564.36 709.71 505.31 859.71 429.94 865.62 420.33 709.71 498.67 596.36 557.72 517.36 613.17 481.47 619.54 481.47 626.17 517.36 619.81 596.36 564.36"/></g></g></svg>