<svg xmlns="http://www.w3.org/2000/svg" viewBox="0 0 500 500"><defs><style>.cls-5{fill:#bab2a8}</style></defs><g style="isolation:isolate"><g id="_Layer_" data-name="&lt;Layer&gt;"><path d="M205 315c-55-55-21-127 18-180 34-46 100-103 163-96l2-1c-23-7-50-6-74 0-57 16-112 51-157 96l-13 10c-37 34-79 76-93 126-33 117 129 167 213 185 18 3 42 14 60 4 20-12 34-47 46-67 20-34 40-68 55-105-63 62-153 93-220 28z" fill="#776e62"/><path d="M388 38l-2 1c-63-7-129 50-163 96-39 53-73 125-17 180 67 65 156 34 219-28a435 435 0 0017-51c13-48 22-111-2-156a85 85 0 00-52-42z" fill="#91887b"/><path class="cls-5" d="M329 30c-20 4-67 23-76 28-26 16-63 46-63 46s74-46 105-42c-21 18-48 42-65 64-15 19-38 47-49 70-7 14-14 37-5 53 39-87 92-137 162-164 42-16 83-2 99 41 22 55-9 151-8 149 15-32 28-71 30-97 4-55-7-97-24-120-16-21-55-36-106-28z"/><path d="M317 399c-41 8-111-16-131-27-28-16-65-52-39-135 0-1-2-58-40-43 13-19 42-52 58-68-30 17-117 87-121 163-2 28 2 67 44 97 19 13 74 47 145 64 32 7 65 33 96 15 23-14 62-85 71-128-11 13-28 51-83 62z" fill="#897d6f"/><path class="cls-5" d="M198 307c12 39 66 72 108 63 14-4 26-10 37-18 12-6 63-68 66-77-26 10-72 65-98 74-38 13-75-29-113-42z"/><path d="M302 464c-6-1-27-5-35-13 0-4 8-22-1-43-4 15-11 32-27 36a35 35 0 01-14 0l-23-8-11-5c-29-11-73-27-96-47-8-8-21-35-22-41l-8-32c-4-12-9-24-10-36-2-19 12-38 14-56-12 14-29 52-28 73-3 22 1 38 10 57 7 14 34 41 57 53 41 22 73 33 99 42 23 8 47 18 71 24 20 5 45 9 61-12-17 6-26 10-37 8z" fill="#635a52"/></g></g></svg>