<svg width="100" height="100" xmlns="http://www.w3.org/2000/svg" viewBox="0 0 500 500"><defs><style>.cls-3{fill:#897d6f}.cls-4{fill:#635a52}.cls-6{fill:#91887b}</style></defs><g style="isolation:isolate"><g id="_Layer_" data-name="&lt;Layer&gt;"><path class="cls-3" d="M377 117a159 159 0 00-17-7c-21-7-62-31-85-31-7 0-27 5-42 40-9 19-7 41-6 61 3 38 36 169 43 186 8 21 16 45 32 61l21-2-3-6c-15-31-37-136 14-149a145 145 0 0122-10c18-7 36-13 53-23l3-2h1l3-2c-3-14-8-27-16-38-14-18-36-14-57-15-13-1-25 3-30 9-6 6-7-1-6-5 4-8 11-7 17-13 5-5 5-14 12-19 6-3 13 0 25-5 17-8 41 14 56 23a102 102 0 0110 6 328 328 0 00-50-59z"/><path class="cls-4" d="M416 233l-3 2zM412 235l-3 2 3-2z"/><path d="M193 66c-27 14-50 34-74 52-23 18-49 34-70 54l-4 5c35-17 55-16 93-33 4-1 38-21 42-23-16 52-6 143 15 187 3-12 7-28 1-68-4-26-9-66-5-82 7-27 30-54 48-76 22-28 45-11 54-7a413 413 0 0060 22l-15-11c-43-30-96-45-145-20z" fill="#bab2a8"/><path class="cls-6" d="M293 75c-9-4-32-21-54 7-18 22-41 49-48 76-4 16 1 56 5 82 6 40 2 56-1 68-21-44-31-135-15-187-4 2-38 22-42 23-37 17-58 16-93 33-16 20-19 44-20 69-1 39-4 115 12 135a56 56 0 006 7c-4-12 3-26 11-43a230 230 0 0162-83l19-35a1 1 0 011 1c-2 28-23 58-37 82l-23 42c-9 18-13 31-9 51a168 168 0 0017 6c-1-19 13-36 30-45 11-7 25-10 37-15 9-4 17-8 27-8 28 1 33 15 49 33 7 8 18-4 22-14 3-7 9-10 15-14-12-42-34-135-37-166-1-20-2-42 6-61 15-35 35-40 42-40 23 0 64 24 85 31a159 159 0 0117 7l-23-20a413 413 0 01-61-22z"/><path class="cls-4" d="M142 176c-14 5-30 6-41 16-8 7-9 15-13 24-6 11-17 19-24 28-15 20-16 49-19 72-2 15-11 43 8 51a2 2 0 002-1c10-31 27-56 47-80 12-15 31-38 34-58 1-3 7-34 18-50 5-8-7-4-12-2z"/><path class="cls-3" d="M135 227l-19 35c-29 22-45 51-62 83-8 17-15 31-11 43 7 7 15 12 24 15-4-20 0-33 9-51l23-42c14-24 35-54 37-82a1 1 0 00-1-1z"/><path class="cls-4" d="M264 346c-6 4-12 7-15 14-4 10-15 22-22 14-16-18-21-32-49-33-10 0-18 4-27 8-12 5-26 8-37 15-17 9-31 26-30 45l3 2a1 1 0 010-1c18-27 52-27 81-25 15 1 28 4 39 14 10 10 26 15 35 11 12-6 21 6 30 18l30-1c-16-16-25-40-32-61-2-3-4-10-6-20zM427 176a102 102 0 00-10-6c-15-9-39-31-56-23-12 5-19 2-25 5-7 5-7 14-12 19-6 6-13 5-17 13-1 4 0 11 6 5 5-6 17-10 30-9 21 1 43-3 57 15 8 11 13 24 16 38l-3 2h-1l-3 2c-17 10-35 16-53 23a145 145 0 00-22 10c-51 13-29 118-14 149l3 6 23-3c10-2 24-7 39-13 35-52 38-172 38-172 3-6 13-11 19-13 1-1 3 0 3 2l1 4c12 31 26 93 24 133 7-5 12-9 14-13 0 0 1-25-7-63-9-40-40-96-50-111z"/><path d="M446 230l-1-4c0-2-2-3-3-2-6 2-16 7-19 13 0 0-3 120-38 172 25-8 53-2 67-10 17-9 27-19 25-26 2-40-19-112-31-143z" fill="#4f463f"/><path class="cls-3" d="M242 410c-9 4-25-1-35-11a61 61 0 00-39-14c-29-2-63-2-81 25a1 1 0 000 1h1c27 8 56 11 84 13 33 2 67 4 101 4-10-12-19-24-31-18z"/><path class="cls-6" d="M425 219c-4 1-13-4-18-2-10 3-21 13-50 15-19 2-38 1-54 12-6 5-7 9-10 16-7 15-17 15-19 22-3 10 6 26 4 34 0 3 3 3 4 1 9-16 19-36 34-46 11-8 21-14 49-16 21-2 32-11 48-13 22-4 18-15 32-17-5-3-10-7-20-6z"/></g></g></svg>