<svg width="100" height="100" xmlns="http://www.w3.org/2000/svg" viewBox="0 0 500 500" version="1.1" id="svg21"><defs id="defs4"><style id="style2">.cls-5{fill:#bab2a8}</style></defs><g style="isolation:isolate" id="g19"><g id="_Layer_" data-name="&lt;Layer&gt;"><path d="M205 315c-55-55-21-127 18-180 34-46 100-103 163-96l2-1c-23-7-50-6-74 0-57 16-112 51-157 96l-13 10c-37 34-79 76-93 126-33 117 129 167 213 185 18 3 42 14 60 4 20-12 34-47 46-67 20-34 40-68 55-105-63 62-153 93-220 28z" fill="#776e62" id="path6" style="fill:#77a145;fill-opacity:1;stroke:#79a445;stroke-opacity:1"/><path d="M388 38l-2 1c-63-7-129 50-163 96-39 53-73 125-17 180 67 65 156 34 219-28a435 435 0 0017-51c13-48 22-111-2-156a85 85 0 00-52-42z" fill="#91887b" id="path8"/><path class="cls-5" d="M329 30c-20 4-67 23-76 28-26 16-63 46-63 46s74-46 105-42c-21 18-48 42-65 64-15 19-38 47-49 70-7 14-14 37-5 53 39-87 92-137 162-164 42-16 83-2 99 41 22 55-9 151-8 149 15-32 28-71 30-97 4-55-7-97-24-120-16-21-55-36-106-28z" id="path10"/><path d="M317 399c-41 8-111-16-131-27-28-16-65-52-39-135 0-1-2-58-40-43 13-19 42-52 58-68-30 17-117 87-121 163-2 28 2 67 44 97 19 13 74 47 145 64 32 7 65 33 96 15 23-14 62-85 71-128-11 13-28 51-83 62z" fill="#897d6f" id="path12" style="fill:#79a445;fill-opacity:1;stroke:#79a445;stroke-opacity:1"/><path class="cls-5" d="M198 307c12 39 66 72 108 63 14-4 26-10 37-18 12-6 79-56 82-65-26 10-88 53-114 62-38 13-75-29-113-42z" id="path14" style="fill:#87b345;fill-opacity:1;stroke:#87b345;stroke-opacity:1"/><path d="M302 464c-6-1-27-5-35-13 0-4 8-22-1-43-4 15-11 32-27 36a35 35 0 01-14 0l-23-8-11-5c-29-11-73-27-96-47-8-8-21-35-22-41l-8-32c-4-12-9-24-10-36-2-19 12-38 14-56-12 14-29 52-28 73-3 22 1 38 10 57 7 14 34 41 57 53 41 22 73 33 99 42 23 8 47 18 71 24 20 5 45 9 61-12-17 6-26 10-37 8z" fill="#635a52" id="path16" style="fill:#6c933e;fill-opacity:1;stroke:#6c933e;stroke-opacity:1"/></g></g><path d="M292.97753 350.4996c-6.73552-.27424-9.38546-.63248-13.20225-1.78477-10.69179-3.22786-19.7375-7.82927-43.53932-22.14774-17.11626-10.29663-25.20632-14.67041-32.96332-17.82117-3.56192-1.44679-4.69646-2.23731-6.52489-4.54636-11.99564-15.14894-19.27243-34.28495-19.4353-51.10967l-.0653-6.74158 6.29216-12.64044c27.31336-54.87037 60.23712-94.06757 102.17473-121.64353 17.20506-11.31314 42.38009-23.833557 57.48802-28.590779 18.7978-5.919098 36.29511-6.099223 51.88367-.534113 25.6787 9.16729 42.37453 32.622902 47.93399 67.341452 1.23597 7.71856 1.71575 33.63814.82437 44.53615-1.74756 21.36589-6.8194 49.79509-12.70123 71.19419-1.10408 4.01685-2.11367 8.11674-2.24352 9.11086-.12986.99412-1.15682 4.10786-2.28212 6.91942-2.01528 5.03514-2.14341 5.20085-8.53077 11.03329-7.5698 6.91216-16.58679 14.34982-23.38431 19.28855-2.64799 1.9239-4.81454 3.72133-4.81454 3.99429 0 .27295-.19391.43308-.43091.35583-.63589-.20726-6.31066 3.53784-6.31066 4.16476 0 .29501-.2546.37904-.56577.18672-.31117-.19231-.70126.003-.86687.43501-.16561.43157-.60624.78669-.97918.78914-.80974.006-7.24245 4.03769-7.83239 4.90976-.22701.33556-.41662.41402-.42135.17434-.0109-.55217-2.99223.97158-4.13304 2.11239-.47305.47305-.97955.66683-1.12554.43061-.14599-.23622 2.89771-4.09349 6.76378-8.57172 49.38111-70.25076 33.41796-13.6179-1.08385 5.85438C367.93083 330.04793 307.94169 350 305.31152 350c-1.0674 0-1.94073.19863-1.94073.44141 0 .50812.57825.50489-10.39326.0582z" id="path2434" style="mix-blend-mode:normal;fill:#87b345;fill-opacity:1;stroke:#87b345;stroke-width:.561798;stroke-opacity:1"/><path style="fill:#89b745;fill-opacity:1;stroke-width:.561798;opacity:1;stroke:#87b345;stroke-opacity:1" d="M430.89888 269.53851c0-.17143 1.12462-4.82733 2.49916-10.34645 4.63706-18.61889 7.85953-36.17731 10.2448-55.82127 1.45569-11.98847 1.44241-43.05556-.0225-52.52809-3.41079-22.05567-11.06848-39.3726-22.8178-51.599751-5.96597-6.208595-10.6002-9.723477-17.43178-13.22132-14.9275-7.643032-31.88245-9.554904-50.41486-5.684873-17.39377 3.632255-45.29689 16.6308-68.12447 31.735484-38.17501 25.25986-68.7424 59.96103-94.55193 107.33866-4.36549 8.01357-12.83313 25.28521-13.57842 27.69621-.56637 1.83218-1.10575 1.06076-2.8874-4.12958-1.38878-4.04583-1.54131-5.25132-1.52825-12.07865.0432-22.61027 11.30284-45.00131 43.36484-86.23596 9.20794-11.84225 19.97157-25.25274 23.87466-29.74562 5.71024-6.57311 23.47398-24.174266 33.22785-32.923725 6.83916-6.134895 21.15632-18.715345 22.1442-19.458038 1.73811-1.306738-8.6928-1.034536-15.90454.415038-12.10101 2.432327-31.71109 10.032108-51.70273 20.037114-8.34613 4.176901-28.04625 14.911693-29.41006 16.025845-.3937.321629-.84763.452977-1.00873.291876-.63288-.632882 32.41667-25.258162 46.91767-34.958422 9.51807-6.366996 15.08761-9.18018 30.41942-15.364889 30.10185-12.142794 49.2619-18.200973 62.87061-19.878927 9.0277-1.113116 31.30227-.92831 39.60674.328606 23.43444 3.546899 43.63823 12.732239 54.81382 24.920253 10.77737 11.753716 19.94821 33.873497 24.406 58.866529 4.20287 23.56374 4.76409 55.95817 1.32223 76.31979-3.26529 19.31699-11.84186 46.68568-22.64097 72.24954-2.97775 7.04899-3.68759 8.54095-3.68759 7.75062z" id="path2436"/></svg>