<svg xmlns="http://www.w3.org/2000/svg" viewBox="0 0 500 500"><defs><style>.cls-3{fill:#91887b}.cls-4{fill:#776e62}.cls-5{fill:#897d6f}.cls-6{fill:#635a52}.cls-7{fill:#bab2a8}</style></defs><g style="isolation:isolate"><g id="_Layer_" data-name="&lt;Layer&gt;"><path class="cls-3" d="M448 159c-25-5-50-7-75-3-29 4-31 47-27 80 9 3 16 11 23 18 45 42 81-32 105-67-7-11-16-20-26-28zM155 149a66 66 0 00-54-11c-28 24-61 70-79 103a44 44 0 00-5 21c43 22 87 40 134 52 20 5 41 9 61 9a226 226 0 00-10-103c-9-27-24-55-47-71z"/><path class="cls-4" d="M120 124c-6 3-12 8-19 14 18-4 36-2 54 11 23 16 38 44 47 71a226 226 0 0110 103 117 117 0 0018-2c32-6 45-25 61-52 9-15 22-31 41-34a29 29 0 0114 1c-4-33-2-76 27-80 25-4 50-2 75 3-30-21-73-30-108-36-73-14-148-19-220 1z"/><path class="cls-5" d="M252 313a73 73 0 01-22 8c-27 5-54-1-79-7-47-12-91-30-134-52 0 16 7 33 15 47 10 19 20 37 35 53 35 38 84 32 132 27a719 719 0 0075-12l-11-32c-3-10-5-23-11-32z"/><path class="cls-4" d="M296 298l-5-30v1c-11 19-22 35-39 44 6 9 8 22 11 32l11 32 39-9-1-1c-9-21-12-46-16-69z"/><path class="cls-6" d="M384 264l-2 20-5 60c23-11 45-25 61-42s46-47 45-76a6 6 0 001-2 80 80 0 00-10-37c-22 31-52 93-90 77z"/><path class="cls-5" d="M329 280c-4-14-10-18-20-25-3 2-6 0-6-3a105 105 0 00-12 16l5 30c4 23 7 48 16 69l1 1 30-10c-5-14-7-33-9-47-2-10-2-21-5-31zM332 235a43 43 0 00-22 10c24-12 44-7 60 18a145 145 0 0112 23v-2l2-20a49 49 0 01-15-10c-11-11-20-21-37-19z"/><path class="cls-5" d="M310 245a65 65 0 00-7 7c0 3 3 5 6 3 10 7 16 11 20 25 3 10 3 21 5 31 2 14 4 33 9 47l34-14 5-58a145 145 0 00-12-23c-16-25-36-30-60-18z"/><path class="cls-7" d="M430 234l-18 19c-9 10-21 16-31 4-4-4-14-22-28-28-7-3-16 0-23 3-14 5-25 16-35 27-5 6-21 30-40 41s-40 13-49 14c-18 2-44-5-65-11-23-6-41-16-47-18-12-2-47-8-65-19-10-6-9-21-9-21-8 13-6 24 12 34 19 11 42 14 55 21 8 4 19 15 31 17 10 1 25-3 32-3a11 11 0 007 1c5 1 12 3 14 6l21 34 3 5c3 4-5-26-7-31a37 37 0 008 1c18 1 35-6 50-16l22 44c-2-19-4-34-8-42 5-12 17-23 23-30 11-14 22-34 48-39 16-2 35 10 42 24 7 17 5 40 6 53 9-14 23-40 33-54 12-18 41-39 50-65 2-5-26 21-32 29z"/><path class="cls-6" d="M202 378c-6-1-9-8-15-9-10-1-19 1-29 2-9 1-10-5-13-9-8-7-17-16-26-14-3 1-3 5-1 7 6 4 17 18 10 20-3 0-13-5-17-5-9-1-25 1-47-19-6-5-13-20-22-23 9 15 15 25 23 33a27 27 0 008 8 96 96 0 0030 17c24 8 37 8 43 8 13 1 78-7 92-10-5-7-25-4-36-6z"/><path class="cls-7" d="M204 106a262 262 0 00-60 11c-18 5-43 11-54 25l-26 37c18-11 22-19 33-27 7-1 12-10 18-11 13-2 27 11 38 18 26 17 44 45 54 75 3-17-4-38-11-54-5-11-12-24-4-35 3-5 14-10 20-13 36-16 111 0 128-9-41-14-93-19-136-17z"/></g></g></svg>