<svg xmlns="http://www.w3.org/2000/svg" viewBox="0 0 500 500"><defs><style>.cls-3{mix-blend-mode:multiply}.cls-4{fill:#ddc02c}</style></defs><g style="isolation:isolate"><g id="_Layer_" data-name="&lt;Layer&gt;"><path d="M19 31c6-12 29-10 63-9 52 1 43-4 87-2 37 2 36 5 73 7 42 3 57 0 136 0 22 0 44 5 66 0 4-1 15-4 22 1 7 6 7 17 7 21 0 47 9 94 5 140-3 29-9 101-2 166 4 33-5 66 1 98 0 4 2 14-3 20-9 11-33 5-46 2-23-5-59-5-132-4-57 1-56 7-94 4-46-5-48-14-81-12-49 2-74 26-90 13-9-8-9-21-9-37l4-133c4-57-3-44 1-123 2-40 6-75-1-98-3-9-4-20-7-41V31z" fill="#ffe161"/><g class="cls-3"><path class="cls-4" d="M247 475c-1 1-5 0-6-4v-2a587 587 0 01-2-20 9 9 0 01-1-3l-1-16 4 4a21 21 0 00-2-6c0 1 2 2 5 2a7 7 0 003-2h-10a10 10 0 010-2l2-9v-3a9 9 0 010-1c0-4-1-7 2-9a97 97 0 00-3-11v-1l-2-1 1-1a5 5 0 013-4l-2-11-1-8v-1a11 11 0 014-9 15 15 0 010-2l-5-21-2-12-5-19 11 11-1-5v-2-3l-1-1a12 12 0 010-2h-1v-1-17l-1-1v-1c0-4 0-6 3-7l1-1v-3-3a7 7 0 010-2 184 184 0 01-2-23 3 3 0 01-1-4 6 6 0 013-2l-1-2-2-8v-2a4 4 0 011-5l-2-6v-4-2a4 4 0 012-4v-10a5 5 0 01-2-4 32 32 0 00-4-14h-1l8-3-1-1a6 6 0 00-2 1v-1l2-1c-4-8-4-14-1-17-1-4-1-9 2-12a72 72 0 01-3-9h-1v-4l-1-8v-9c0-2 0-6 2-8l-1-2-18 10 16-18 1-9v-1l-1 1v-9a65 65 0 012-13h-1v-3a90 90 0 000-14l-1-17 1-1a51 51 0 00-4-10l11-4a59 59 0 015 16c1 8 0 9-1 10v5a86 86 0 011 12c2 1 1 3 1 4a43 43 0 00-2 11l1 1v2a43 43 0 000 9c0 4 0 8-2 11a43 43 0 014 8l2 11-1 3h-3a324 324 0 001 8l1 1-1 2 4 14 4 9-7-2a21 21 0 001 3h3l-1 4-5 4 6 13-4 1 1 14a92 92 0 010 18 43 43 0 000 7h-1c1 8 3 14 2 17v1l1 2 2 11-4 1 2 19a7 7 0 011 1v1a6 6 0 01-1 3v1c1 8 1 13-2 15v15l2 5c1 1 2 4 0 6a245 245 0 011 11c0 2 0 5-3 6a8 8 0 01-2 1l1 4c1 6 2 15 4 19a6 6 0 012 4l2 12-4-3a7 7 0 01-3 2l1 7c1 11 2 16 0 19l2 6c2 10 2 11 0 12l-1 2a16 16 0 011 3c0 2 1 5-2 7l-1 2c1 1 3 4 4 12l1 16h-3a937 937 0 011 14h1v4c0 4-3 5-5 5zm-1-114l-3 2a6 6 0 003 0 5 5 0 002 0 4 4 0 00-2-1zm-8 2h3a7 7 0 01-1-2 7 7 0 00-2 2zm9-235zm-13-54a2 2 0 000 1 4 4 0 010-1z"/></g><g class="cls-3"><path class="cls-4" d="M208 478a70 70 0 010-7 6 6 0 013-6v-3c-1-6-2-10 0-12-4-11-5-18-3-24v-13-6l-1-3v-9l1-8c-3-2-5-5-4-7a6 6 0 015-4c-1-6-1-14-3-17l-3-5h3a24 24 0 010-8 9 9 0 01-1-3 23 23 0 010-4 4 4 0 011-2l1-13v-2l-1-4a7 7 0 010-4l-1-21h2v-1l2-6-1-8a10 10 0 01-2-2l-2-1v-1c1-3 1-6 5-8a10 10 0 011 0v-3c-7-16-7-27-6-33-2-6-1-10 1-12-2-3-2-9-3-16l-1-11a4 4 0 010-1v-2h1a23 23 0 010-3c-4-14-3-21 0-25a6 6 0 010-2 7 7 0 012-2v-3l-1-10v-1c-3-5-3-11-3-16a12 12 0 01-1-2v-2a7 7 0 011-2v-3-2a5 5 0 011-1 145 145 0 010-17c-2-3 0-6 3-7-3-8-3-13-4-26l-1-4 1-1a6 6 0 014-3l-3-18h-1l-1-3c-3-2-2-4 1-6l8-8 2 8c5 18 6 28 6 37l-1 20 3 6 13 27-17-16v2-2l-2-2a93 93 0 000 12v1l1 5h-1v3a12 12 0 01-1 4l2 12c2 2 2 6 2 14v6a19 19 0 011 6l1 22-4-7v3c2 1 2 4 2 6l-2 1 1 11 1 9v3a5 5 0 003 4h1v1a4 4 0 01-1 5 7 7 0 01-2 1v5l1 2v8l-2 3a57 57 0 005 16h1l2 33-2-4a21 21 0 010 6l-3 12 1-1-1 20-1 20h2a12 12 0 01-1 2 19 19 0 00-1 9 8 8 0 010 3c2 5 3 13 3 20l1 6 1 2 1 2-2 2a7 7 0 01-2 1v7a69 69 0 010 16c0 6 0 11 4 17l15 21-18-12 6 18-4 1 3 15-5 1v3zm0-185h2v-1a7 7 0 00-2 1zm6-1h-2a8 8 0 002 0zm-12-104h1v-1a5 5 0 00-1 1z"/></g><g class="cls-3"><path class="cls-4" d="M184 472a7 7 0 01-3-1l-2 1a1 1 0 01-1 0l-2-4c-1-2 0-4 2-5a1 1 0 000-1l-1-9 1-7-5-21 1-1a1 1 0 001 0 4 4 0 010-2 1 1 0 000-1 535 535 0 00-2-15 4 4 0 010-2 1 1 0 000-1l3-15v-2a91 91 0 000-13 4 4 0 010-4l1-2v-10a1 1 0 00-1-1l-2 1a1 1 0 01-1-1l4-6a1 1 0 000-1l-3-20a5 5 0 01-1-3l-1-3-1-3v-1l-2-16a1 1 0 012-1l1 2a1 1 0 001 0v-9c-3-2-2-5-1-7v-1c0-4 0-14-4-20a1 1 0 011-1l4-2 1-2a39 39 0 01-2-5c-1-7 0-8 2-10a7 7 0 011 0 1 1 0 000-1l-2-14c-2-1-2-3-3-5a57 57 0 010-6l1-5a1 1 0 001-1l-1-4a6 6 0 012-5 1 1 0 000-1l-2-9 1-9a1 1 0 000-1l-1-3h-1c-2-4-2-6-1-8a11 11 0 010-4c1-1 2-2 1-8-2-3-1-6 0-9s2-7 1-13l-1-7a41 41 0 000-6l2-1a1 1 0 001-1c-2-4-2-8 1-11a1 1 0 000-1v-1c-2-7-4-20-9-30l-15-27a1 1 0 011-1l15 15a5 5 0 010-2c-1-3 0-5 2-6a1 1 0 000-1 83 83 0 010-27l1-24a1 1 0 011 0l3 7a1 1 0 001 0 9 9 0 011 0c1 0 6-1 7 3v11c0 3 0 6-2 8a1 1 0 00-1 0v20a1 1 0 001 0l3 6a39 39 0 012 10l1 27a1 1 0 01-2 1l-1-4 2 12 1 4 5 12a1 1 0 01-1 1l-6-4 1 1a15 15 0 012 5 1 1 0 010 1l-3 1a6 6 0 01-2 4v3a27 27 0 01-1 16v4a1 1 0 011 1v1l-1 12a7 7 0 00-1 3l2 4 2 7 6 22a1 1 0 01-1 1l-3-3a1 1 0 00-1 0l2 8a1 1 0 010 1h-3a1 1 0 000 1l-1 9c5 12 4 18 4 24a57 57 0 00-1 6 1 1 0 010 1h-1a1 1 0 00-1 1 48 48 0 004 8 7 7 0 010 1 1 1 0 010 1l-6 1a1 1 0 000 1 57 57 0 012 9v3a5 5 0 010 3l1-1v7l-1 22-1 2a1 1 0 001 1l1 7v1a107 107 0 012 11c2 10 2 14 1 16v2a214 214 0 011 15c1 2 1 3-1 5a94 94 0 010 12 9 9 0 012 3l1 2-2 2a14 14 0 01-3 2l-1 12v5c2 13 3 15 2 16l-1 3 5 20a1 1 0 010 1h-2a1 1 0 00-1 1 128 128 0 002 13l1 1-1 5a1 1 0 01-1 1zM167 67h2a1 1 0 000-1 1 1 0 00-1-1 5 5 0 00-1 2zm9-44v1h1a7 7 0 004-2z"/></g><g class="cls-3"><path class="cls-4" d="M150 469c-5 0-7-3-9-5a1 1 0 011-1l4-2a10 10 0 012-4v-3a48 48 0 01-1-9 66 66 0 01-5-14v-12a1 1 0 000-1 6 6 0 012-4 1 1 0 000-1c-1-6-2-14 0-18l-2-9v-1a4 4 0 011-4v-9l1-5a1 1 0 000-1 63 63 0 01-3-14v-1l-2-6-3-10a1 1 0 012-1l1 1-1-3-2-4a1 1 0 011-1l7-1-1-9a1 1 0 000-1 6 6 0 01-2-3c-2-7 0-10 2-12a15 15 0 011-8 1 1 0 000-1v-4c-1-6-2-10 1-12a1 1 0 000-1l-1-8-1 3-3-16a1 1 0 000-1c-2-1-2-4-3-6l-3-17a1 1 0 012-1l5 7a1 1 0 001 0h1a1 1 0 001-1l-2-7c-4-12-4-12-2-14h1l-2-10c-2-10-2-14 0-17a1 1 0 000-1l-1-3-3-6-1-1a1 1 0 010-1l1-1a1 1 0 001-1l-2-6v-1l3-1a1 1 0 000-1 24 24 0 000-7 1 1 0 011-1l6-2a1 1 0 00-1-1l-4 1v-1a5 5 0 00-1 0 1 1 0 01-1 0v-2l-1-4a5 5 0 011-3 1 1 0 001-1l-1-6-1-3a4 4 0 011-4 1 1 0 001-1v-1l-1-8c0-2 0-6 2-7a1 1 0 000-1l1-1a13 13 0 010-2v-3a80 80 0 00-1-19l-2-6c0-2-2-5 1-7a1 1 0 001 0 25 25 0 010-4 13 13 0 000-8c-2-3-3-5-1-7a6 6 0 011-1 1 1 0 000-1c-2-4-2-9-3-14l-1-4a9 9 0 01-1-3 49 49 0 01-3-7l-3-10a1 1 0 012-1l11 7a9 9 0 013 2h3a1 1 0 011 1 40 40 0 010 4 14 14 0 01-1 4 1 1 0 000 1l1 5c0 5 1 12 3 14l1 1a1 1 0 011 1l-1 1a6 6 0 01-2 3v1a18 18 0 011 12c-1 3-2 5 1 9a1 1 0 010 1l-2 1a1 1 0 000 1v1h1v1a85 85 0 011 20v4a14 14 0 010 2h-1l-1 4a1 1 0 000 1h1a1 1 0 010 1l-1 1a6 6 0 01-1 2v6a91 91 0 011 12l-1 5 1 8a1 1 0 010 1 1 1 0 00-1 1v3c0 4 0 10-2 13a1 1 0 000 1v2l1 5 2 6 2 10-2 3h-1l1 6c2 7 3 13 2 18v2a1 1 0 000 1l5 14 3 4a1 1 0 01-1 2h-7v1a1 1 0 00-1 0v4a1 1 0 000 1c3 6 5 17 6 27v2l2 12a1 1 0 01-1 0h-1a1 1 0 00-1 0 31 31 0 010 6 1 1 0 01-1 0 1 1 0 00-1 1 18 18 0 002 7 1 1 0 000 1l1 2a1 1 0 01-1 1l-2 1a1 1 0 00-1 1 6 6 0 011 2v3a116 116 0 004 17l6 20a1 1 0 01-2 0l-8-8 1 2c2 9 1 10-1 12a42 42 0 003 10 1 1 0 010 2h-2a1 1 0 00-1 1l1 9v13l1 1v1a1 1 0 010 1h-1a1 1 0 000 1c-1 3 0 14 2 18l1 1a1 1 0 01-1 1l-1 1v1a7 7 0 01-2 5 1 1 0 00-1 1 63 63 0 005 17 11 11 0 012 4h-1a1 1 0 00-1 1 128 128 0 003 14v1a1 1 0 010 1l-4 1a1 1 0 00-1 0 8 8 0 01-6 4zm1-21a8 8 0 002 0 7 7 0 004-1zm-5-151a7 7 0 003 1 8 8 0 004-1zm1-185a6 6 0 011 0 1 1 0 001 0 7 7 0 001-1z"/></g><g class="cls-3"><path class="cls-4" d="M115 461l-7 2a9 9 0 014-10 52 52 0 010-7c0-3 0-6-2-10l11-3-6-2-4 3a12 12 0 000-4l-4 1 1-6v-2c0-10 1-15 4-18a45 45 0 01-1-7v-3a118 118 0 01-4-27l2-1a16 16 0 000-3c0 1 2 3 5 2l5-3h-11a34 34 0 000-9c-1-3-1-6 2-7l-4-13v-1c-2-3 0-5 1-6v-3a37 37 0 01-4-9l9-3a69 69 0 00-4-15 5 5 0 01-2-2v-3a123 123 0 01-2-9 5 5 0 012-4l-1-13 1 2a19 19 0 011-5 5 5 0 001-4 4 4 0 01-2-2v-2c0-9 0-14 2-17l-1-1v-11c0-7 0-13-2-18a63 63 0 01-4-7l7-2a30 30 0 01-1-6 66 66 0 00-2-18 3 3 0 01-1 0l-2 1 1-8 1-4c0-3 0-6 2-8a48 48 0 01-1-6 42 42 0 011-12v-1c0-3 0-5 2-7l-1-15a4 4 0 01-1-1l-7-17 6 4V90l2-5-1-6-2-8a11 11 0 012-5 104 104 0 01-1-17v-3l-2-10a150 150 0 01-1-17v-1h3a20 20 0 000-3l11-2c2 6 1 10-2 12l1 11 1 1 1 11v10-1 6c1 1 2 3 0 6v3l2 8h-1l3 14-5 1 1 12 1 3a8 8 0 010 2l1 10c1 9 0 12-1 13v5a5 5 0 01-1 4 52 52 0 000 10 12 12 0 012 1l2 2-1 2a7 7 0 01-5 4v3c2 2 2 4 1 7a72 72 0 013 19v1l2 4c1 1 2 12-2 15l-1 1 1 22a9 9 0 000 1l1 2-1 2-1 14c2 5 2 8 1 10s-2 4-1 10c3 5 2 10-1 14v1l1 2c3 5 4 13 5 16 1 8 1 11-1 13a8 8 0 01-3 5 8 8 0 01-2 5l4 12c3 11 2 12 1 13l-2 2a35 35 0 010 4 14 14 0 011 4 41 41 0 010 7 5 5 0 01-1 4l2 13a3 3 0 011 2v6a30 30 0 002 9l7 18-12-10v9a7 7 0 011 2s3 6 1 11a25 25 0 011 9 39 39 0 001 11l5 22zm-3-208a7 7 0 00-4 1l7-1a8 8 0 00-3 0zm-1-235a7 7 0 00-1 0z"/></g><g class="cls-3"><path class="cls-4" d="M91 456h-1a1 1 0 000 1 8 8 0 01-1 2 1 1 0 000 1c2 6 4 13-1 17a9 9 0 01-7 1 7 7 0 01-5-5 1 1 0 010-1h3a1 1 0 000-1c0-2 0-6-3-12l-14-31a1 1 0 011-1l13 16a1 1 0 002 0 6 6 0 012-5l-1-7a44 44 0 00-5-14 4 4 0 01-1-2l6-1a1 1 0 000-1l-1-2c-3 0-4 2-5 3l1-2 1-7a1 1 0 00-1-1l-12 4a1 1 0 01-1-2l18-12h1l2-9 1-1a113 113 0 00-5-15 8 8 0 01-1-2 36 36 0 01-2-5 1 1 0 011 0l2-1a1 1 0 001-1l-1-2a10 10 0 010-2 36 36 0 000-11l-1-7v-1l-2-7v-1c-1-7 0-13 3-16a1 1 0 001-1 1245 1245 0 01-2-15v-2a18 18 0 01-1-4l-1-9v-6a4 4 0 01-2-3s-1-5 2-9v-7a5 5 0 011 0 1 1 0 000-1l-1-7c-2-6-2-8 0-10l-1-10v-1h-1l1-5a1 1 0 000-1l-1-7 1-6c-1-3 0-5 2-7a1 1 0 000-1 429 429 0 01-1-21 1 1 0 011-1 1 1 0 001-1l-2-10a4 4 0 01-1-2v-1a349 349 0 01-3-14 1 1 0 010-1l4-1a1 1 0 001-1 1 1 0 00-1-1 5 5 0 00-3 3v-1a8 8 0 013-5c-1-4 0-8 1-10a1 1 0 000-1l-4-10a1 1 0 000-1l-7-7a1 1 0 011-1l7 1a1 1 0 001-1 122 122 0 00-2-18 4 4 0 01-1-5v-2a1 1 0 011-1h1a1 1 0 001-1l-4-18-1-2c0-2 1-4 3-5a16 16 0 012-8 7 7 0 001-6l-2-6-2-9-1-4a1 1 0 011-1 7 7 0 005 1 7 7 0 004-3 1 1 0 000-1H70a1 1 0 010-1c1-2 3-3 5-3 5-1 6 3 7 5v5l1 5 3 8c2 5 1 8-1 11-1 2-2 5 0 12a1 1 0 010 1l-3 1v1l3 14c2 11 3 14 0 16a1 1 0 00-1 1l1 2c1 11 0 15-1 17a1 1 0 000 1 49 49 0 013 7c2 9 1 10 0 11a5 5 0 01-1 1 1 1 0 000 1 14 14 0 001 4 1 1 0 01-1 0l-4 3h-1 1v1a4 4 0 002-1 9 9 0 000 1 8 8 0 01-1 2 1 1 0 000 1l1 7h1a105 105 0 013 15c1 9 1 11-1 12a1 1 0 000 1v2l1-1v16a5 5 0 01-2 4 1 1 0 00-1 1l1 1 7 25a1 1 0 01-1 0l-4-6a1 1 0 00-2 1 1 1 0 000 1 759 759 0 001 16l-1 1a158 158 0 005 16 1 1 0 010 1l-7 2 1 1a2 2 0 000-1 3 3 0 000 1l1 2 1 11v10a1 1 0 001 0 5 5 0 010 2v2l2 16v1a3 3 0 010 1v1c1 3-2 4-3 5a1 1 0 00-1 0 21 21 0 000 8 82 82 0 012 8 4 4 0 010 1 4 4 0 010 1l1 6a40 40 0 010 12 7 7 0 011 1 51 51 0 010 6 14 14 0 01-1 5l4 11c2 8 2 9 0 11a27 27 0 01-3 7l-3 11-2 7a48 48 0 015 15 72 72 0 004 13l12 30a1 1 0 01-2 1l-12-16a1 1 0 00-1-1zm-8 14a7 7 0 00-3 2l6-1a7 7 0 00-3-1zm-4-112a6 6 0 005 1 7 7 0 004-2z"/></g><g class="cls-3"><path class="cls-4" d="M56 455c-6 1-6-3-7-5l-1-7a1 1 0 011-1 1 1 0 001-1l-4-15-1-7a10 10 0 01-1-2 1 1 0 011-1h1a1 1 0 000-1 1 1 0 000-1 10 10 0 01-2-1l-1-1a1 1 0 010-1l2-2a9 9 0 012-2 1 1 0 001-1 40 40 0 00-6-17l-1-1 11-4a6 6 0 00-3 0 6 6 0 00-4 1 20 20 0 002-3l1-1a1 1 0 000-1c-4-7-4-9-2-10a1 1 0 000-1 33 33 0 000-8 43 43 0 010-7 1 1 0 011-1 1 1 0 001-1v-7a8 8 0 01-1-3l-2-6-4-17v-1-1l3-1v-1a3 3 0 00-1 1l1-1-2-9-2-13a1 1 0 000-1l-1-3-6-15a1 1 0 012-1l8 7a1 1 0 001-1l-3-17-1-11a1 1 0 000-1l-7-7a1 1 0 011-1l7 1a1 1 0 001 0l1-1a7 7 0 012-4v-1a13 13 0 010-3 1 1 0 000-1c-1-4-1-8 2-11a1 1 0 000-1 294 294 0 01-5-17 6 6 0 010-4 1 1 0 000-1c-2-7-2-10 0-12a1 1 0 001-1 45 45 0 01-1-8 54 54 0 00-3-17l-9-24a1 1 0 011-1l9 10a1 1 0 002 0 12 12 0 010-2 4 4 0 011-1 1 1 0 000-1 74 74 0 00-2-10l-3-6-3-9a1 1 0 012-1l5 3a1 1 0 001-1v-4c-1-5-1-11-5-22a1 1 0 010-1l3-1 1-1-1-5a95 95 0 01-1-13l1-11-1-8 1-9a1 1 0 000-1 26 26 0 01-2-12 18 18 0 000-5v-1a2 2 0 010-1c-1-8-2-13 4-14a8 8 0 019 2 3 3 0 011 2v6l-1 1a4 4 0 01-1 2v1a4 4 0 010 1 28 28 0 010 6c0 3 0 7 2 12l11 20a1 1 0 01-1 1l-9-7a1 1 0 00-2 0 34 34 0 010 7l-1 6 1 7c1 2 2 3 1 5a251 251 0 002 15c0 1 0 4-2 5a1 1 0 000 1 61 61 0 011 10 26 26 0 002 8v2a1 1 0 010 1l-2 1-1 2-1 2a1 1 0 000 1 58 58 0 012 7c1 7 2 12 1 13a6 6 0 01-3 2l2 1a5 5 0 010 1l-1 4-1 6a1 1 0 000 1 60 60 0 012 13c0 5 0 8 3 13a1 1 0 01-1 1l-3 1a1 1 0 00-1 1 57 57 0 003 8 1 1 0 01-1 1 1 1 0 000 1l6 20 7 16a1 1 0 01-2 1l-6-5v1a1 1 0 010 1l-2 1a1 1 0 00-1 1 16 16 0 010 2c0 3 0 8-3 11a26 26 0 012 8 5 5 0 01-1 3 1 1 0 00-1 1 234 234 0 005 22 4 4 0 01-2 5 1 1 0 000 1c-1 2-1 4-3 5a1 1 0 000 1l1 6 1 7a1 1 0 000 1c2 1 2 4 2 8a1 1 0 01-1 1h-1a1 1 0 00-1 1l4 16a1 1 0 001 1 1 1 0 011 1v9c0 4-1 8-3 9v1a37 37 0 010 13 36 36 0 003 6l1 2a1 1 0 010 1l-2 1a1 1 0 00-1 1v1a22 22 0 01-3 4 1 1 0 000 1 47 47 0 014 12c1 6 0 9-1 12a20 20 0 01-1 5 7 7 0 010 1 1 1 0 000 1l1 4a2044 2044 0 014 20 4 4 0 010 2 1 1 0 000 1v2c0 2 0 5-6 6zm-8-39a6 6 0 00-1 0h2a5 5 0 01-1 0zm4-43l1 1a1 1 0 001 0 5 5 0 001-1zm-5 2a1 1 0 001 0l1-1a1 1 0 00-1-1h-1a1 1 0 000 2zm5-22l2-1a10 10 0 00-1 0h-1v1zm0-14h4a8 8 0 00-3 0 8 8 0 00-1 0zm-5-134a8 8 0 002-1 8 8 0 002-1zm2-58a7 7 0 00-4 1h1a8 8 0 002 0 8 8 0 004-1 7 7 0 00-3 0zM42 22a5 5 0 00-2 2l4-1zm8-5h1a5 5 0 00-1 0z"/></g><g class="cls-3"><path class="cls-4" d="M441 483a70 70 0 010-7 6 6 0 013-6l-1-3c-1-6-1-10 1-12-4-11-5-18-3-24v-13-6a3 3 0 01-1-3v-9l1-8c-3-2-5-5-4-7a6 6 0 014-4c0-6-1-14-3-17l-2-5h2a24 24 0 011-8 9 9 0 01-1-3 23 23 0 010-4 4 4 0 011-2v-13l1-2-1-4a7 7 0 010-4l-1-21h2v-1c0-2 0-5 2-6l-1-8a10 10 0 01-2-2l-2-1v-1c0-3 1-6 4-8a10 10 0 012 0v-3c-8-16-7-27-6-33-2-6-1-10 1-12-2-3-2-9-3-16l-1-11a4 4 0 010-1v-2a23 23 0 011-3c-4-14-3-21 0-25a6 6 0 010-2 7 7 0 011-2l1-3-1-10v-1c-3-4-3-11-3-16a12 12 0 01-1-2l-1-1 1-1a6 6 0 011-2v-3-2a7 7 0 010-1 145 145 0 011-17c-2-3 0-6 3-7-3-8-4-13-4-26l-1-4 1-1a6 6 0 014-3l-4-18-1-3c-3-2-2-4 1-6l8-8 2 8c5 18 6 28 6 37l-1 20 3 7 13 26-17-16v2-2l-2-2a93 93 0 000 12 77 77 0 001 6h-1v3a12 12 0 01-1 4c0 3 0 9 2 12 2 2 2 6 2 14v6a19 19 0 011 6l1 22-4-7v3c2 1 2 4 2 6l-2 1a309 309 0 012 20v3a5 5 0 002 4h1l1 1a4 4 0 01-1 5 7 7 0 01-2 1v7l1 2v6l-2 3a56 56 0 005 16h1l2 33-2-4a21 21 0 010 6l-3 12 1-1-1 13v8l-1 19h2a11 11 0 01-1 2 19 19 0 00-1 9 8 8 0 010 3c2 5 3 13 3 20l1 6 1 2 1 2-2 2a7 7 0 01-2 1v7a69 69 0 010 16c0 6 0 11 4 17l14 21-17-12 6 18-4 1 3 15-5 1v3zm0-185h2l-1-1a8 8 0 00-1 1zm6-1h-2a7 7 0 002 0zm-12-104h1v-1a6 6 0 00-1 1z"/></g><g class="cls-3"><path class="cls-4" d="M412 473a7 7 0 01-4-1l-3 1a45 45 0 01-2-4c-1-3 0-4 2-6l-1-9 1-7-5-21 2-1a4 4 0 010-3l-1-8a308 308 0 01-1-7 4 4 0 010-3l3-16v-1a89 89 0 001-13 4 4 0 010-4v-2-11l-5 1 5-8-3-20a5 5 0 01-1-3l-1-3v-4l-3-19 4 5v-10c-3-2-2-5-1-7v-2c0-4 0-14-4-20l5-2 1-2a40 40 0 01-2-5c-1-7 0-9 2-10a7 7 0 011-1c0-3 0-8-2-14-2-1-2-4-3-5v-6c0-2 0-4 2-6l-1-4c0-1 0-4 2-5l-2-10 1-10-1-3h-1c-2-4-2-6-1-8a11 11 0 011-4v-8c-2-3-1-6 0-9s3-7 1-13l-1-7a33 33 0 00-1-7h4c-2-5-2-10 1-13v-1c-1-7-4-20-9-30l-17-31 18 17a5 5 0 010-1c-1-3 1-5 2-6-2-9-1-18 0-24v-5l1-26 4 10a10 10 0 012-1c1 0 6 0 7 4v11c0 3 1 6-3 8 0 5-1 13 1 20l3 5a39 39 0 012 11l1 31-3-7 2 12 1 4 6 14-8-5 1 1 3 6-4 1a6 6 0 01-2 4v2a27 27 0 01-1 17v3l1 1v1l-1 12a7 7 0 00-1 4l2 3a77 77 0 012 8l7 25-6-8 2 11-3 1-1 10c5 12 4 17 4 23a54 54 0 00-1 8h-2a47 47 0 004 9 8 8 0 011 1l-7 2a57 57 0 012 9v4a5 5 0 010 2h1v7l-1 22-1 2c2 2 2 5 2 8v1a106 106 0 012 11c2 10 2 14 1 16v1a260 260 0 010 21 97 97 0 010 12 9 9 0 012 3l1 2-2 2a14 14 0 01-3 2l-1 11v2l1 4c2 12 2 14 1 16l-1 3 5 20-2 1a121 121 0 001 14h1l-1 6zM394 68l2-1v-1a6 6 0 00-2 2zm9-44v1h1a7 7 0 004-2z"/></g><g class="cls-3"><path class="cls-4" d="M377 483c-5 1-8-3-9-5l5-2v-1a10 10 0 012-3v-3l-1-9a65 65 0 01-5-14c-1-7 0-11 1-13a6 6 0 011-4v-19l-2-9v-1a4 4 0 012-4l-1-9 1-6a62 62 0 01-3-14v-1l-2-6-3-12 3 2-1-3-2-5 8-1-1-10a6 6 0 01-2-4c-2-7 0-10 2-11l1-9v-4c-1-6-2-10 1-12l-1-9-1 3-3-16c-2-2-2-4-3-7l-3-21 8 10a10 10 0 012-1l-2-7c-4-12-4-12-2-14h1l-2-10c-2-10-2-15 0-17l-1-4-3-6-1-2 2-1-2-7v-1l3-1v-8l7-3-1-1-4 1v-1a4 4 0 00-2 2v-4l-1-4a5 5 0 012-4l-1-6-1-3a4 4 0 012-4v-2l-1-9c0-3 0-5 2-7l1-1a11 11 0 010-2v-4a80 80 0 00-1-18l-2-6c0-1-3-5 1-7a23 23 0 011-4 13 13 0 000-8c-2-3-3-5-1-7a6 6 0 011-2c-2-4-2-9-3-14l-1-4a8 8 0 01-1-3 49 49 0 01-3-7l-3-13 13 9a9 9 0 013 2h4a31 31 0 010 5 14 14 0 01-1 4l1 6c0 5 1 11 3 14l2 1-1 2a6 6 0 01-2 3v1a18 18 0 011 12c-1 3-2 5 2 9l-3 2v1l1 1a85 85 0 011 21v3a13 13 0 010 3h-1l-1 4 1 1-1 1a6 6 0 01-1 3v6a92 92 0 011 11v6l1 9h-2v4c0 4 1 11-2 14a109 109 0 011 7l2 6 2 10-2 3 1 6c1 6 2 13 1 18v2l5 15 4 5-8 1-2 1v4a124 124 0 017 30l2 14-4-4a34 34 0 010 8h-1a18 18 0 001 8l1 3-4 2a5 5 0 011 2v3a116 116 0 004 18l7 23-11-11 1 2c2 9 1 10-1 11v1a42 42 0 004 11l-4 1 1 10 1 13v2l-1 1c-1 3 0 14 2 19l1 2-2 1v1a6 6 0 01-3 5 62 62 0 005 18 10 10 0 012 4h-2a123 123 0 003 15l1 2-5 1a8 8 0 01-7 4zm1-20a8 8 0 003 0 7 7 0 003-2zm-5-151a7 7 0 003 0 8 8 0 004-1zm1-186a6 6 0 011 1 7 7 0 002-1z"/></g><g class="cls-3"><path class="cls-4" d="M343 474l-7 2a9 9 0 014-9 50 50 0 01-1-8c1-3 1-6-1-9l11-4c-1-1-3-2-6-1-3 0-4 2-4 3a12 12 0 000-4h-4l1-5v-3c0-9 1-15 4-18a45 45 0 01-1-7 366 366 0 01-2-11l-2-19h2a17 17 0 000-3c0 1 2 2 5 2s5-2 5-4h-11a34 34 0 000-9c-1-3-1-5 2-7l-4-13v-1c-2-3 0-5 1-6v-3a37 37 0 01-4-8l9-3a70 70 0 00-4-15 5 5 0 01-2-3v-2l-2-7v-3a5 5 0 012-4l-1-13 1 3a19 19 0 011-5 5 5 0 001-4 4 4 0 01-2-3v-2c0-9 0-14 2-16l-1-1v-11c0-8 0-13-2-18a66 66 0 01-4-8l7-2a30 30 0 01-1-6 66 66 0 00-2-17 3 3 0 010-1l-3 1 1-7 1-5c0-3 0-6 2-8a48 48 0 01-1-6 42 42 0 011-11v-1c0-3 0-6 2-7l-1-16a4 4 0 01-1-1l-7-17 6 5v-11l2-5a220 220 0 01-3-15 11 11 0 012-4 105 105 0 01-1-18v-3l-2-9a151 151 0 01-1-18h3a20 20 0 000-3l11-3c2 6 1 10-2 12l1 11 1 2 1 11v15c1 1 2 3 0 5v4l2 8h-1l3 13-5 2a132 132 0 002 15v1l1 11c1 9 0 11-1 13v5a5 5 0 01-1 3 52 52 0 000 10 12 12 0 012 2l2 1-1 2a7 7 0 01-5 4v3c2 2 2 5 1 7v1a72 72 0 013 18v2l2 4c1 1 2 11-2 15h-1l1 22a9 9 0 000 2l1 2-1 1-1 14a1 1 0 000 1c2 5 2 7 1 10-1 2-2 4-1 9 3 5 2 11-1 14v1l1 2c3 6 4 14 5 17 1 8 1 11-1 13a8 8 0 01-3 4 8 8 0 01-2 5l4 12c3 11 2 12 1 14l-2 2a32 32 0 010 3 14 14 0 011 5 41 41 0 010 6 5 5 0 01-1 4l2 13a3 3 0 011 3v6a30 30 0 002 9l7 17-12-9v8a7 7 0 011 3s3 6 1 10a25 25 0 011 10 38 38 0 001 10l5 23zm-3-208a8 8 0 00-4 2l7-2a8 8 0 00-3 0zm-1-235a7 7 0 00-1 0z"/></g><g class="cls-3"><path class="cls-4" d="M318 447h-2a8 8 0 01-1 3c2 6 4 14-1 17a9 9 0 01-6 2 7 7 0 01-6-6l4-1c0-1 0-5-3-12l-17-36 18 21c0-2 1-5 3-6l-2-8a44 44 0 00-5-14 4 4 0 010-1l6-2-1-3c-3 1-5 3-5 4v-2c0-4 0-7 2-9l-19 6 23-16 3-9a115 115 0 00-5-16 7 7 0 010-1 40 40 0 01-2-6h3v-3h-1a10 10 0 011-3 36 36 0 00-1-11l-1-7-1-7h-1v-1c-1-8 0-14 4-17l-1-8-1-7v-2a18 18 0 01-1-5v-8-6a4 4 0 01-2-3s-1-5 2-9v-7a5 5 0 011-1l-2-7c-1-7-1-9 1-10l-2-11v-1c0-2-1-4 1-5l-2-7 1-6c0-4 0-6 3-7a602 602 0 01-1-23h1l-2-11a4 4 0 01-1-2 44 44 0 01-1-6l-2-10 6-2a11 11 0 01-1-1 5 5 0 00-3 2 8 8 0 012-5l1-11c0-4-2-9-3-11l-9-8 10 1-2-19a4 4 0 01-1-5v-3h4l-5-19v-2c-1-3 1-4 3-5a16 16 0 012-9 7 7 0 000-6l-2-5-2-9-1-7c1 1 3 3 6 3 3-1 5-3 5-4h-11c0-3 3-4 6-4 5-1 6 3 6 5l1 5 1 5 2 8c2 5 1 8 0 11-2 2-3 5 0 13l-3 1a5 5 0 01-1 0l4 15c2 11 3 14-1 16v3c1 11 1 15-1 17a48 48 0 013 8c2 9 1 10 1 11a5 5 0 01-1 1l1 5-6 2a4 4 0 001 1 2 2 0 00-1-1l-1 1h1l1 1a4 4 0 002-1 8 8 0 00-1 1 7 7 0 01-1 2l2 8a105 105 0 013 15c1 9 1 11-1 12l1 3 1-2v17a5 5 0 01-3 4v2l9 28-8-10a5 5 0 01-1 2l1 3v15a159 159 0 005 17l-7 2v1a2 2 0 001-1 3 3 0 00-1 1l1 2 1 11 1 10a5 5 0 011 2v1l2 17v1a3 3 0 010 1v1c0 3-2 4-4 5a21 21 0 000 8 76 76 0 012 8 4 4 0 010 1l1 7a40 40 0 010 12 7 7 0 010 1 53 53 0 011 6 13 13 0 01-1 5l4 11c2 8 2 9-1 11a27 27 0 01-2 7l-3 10-2 8a48 48 0 014 14 72 72 0 005 14l13 34zm-8 14a7 7 0 00-3 1l5-1a7 7 0 00-2 0zm-5-112a6 6 0 005 1 7 7 0 005-2z"/></g><g class="cls-3"><path class="cls-4" d="M283 470c-5 1-6-3-7-5l-1-8 2-1-4-15-1-7a13 13 0 01-1-3h2l1-1a10 10 0 01-2-2l-2-2 2-2a9 9 0 013-3 40 40 0 00-6-17l-1-1 11-4a6 6 0 00-7 1 18 18 0 002-3l1-2c-4-7-4-9-2-11a32 32 0 000-9 42 42 0 010-7h2l1-8a8 8 0 01-2-3l-2-6-4-17v-1a10 10 0 010-2h3v-1a3 3 0 00-1 1l1-1-2-9-2-14-1-3-7-18 13 10-4-19-1-12-9-9 11 2 1-1a7 7 0 012-4v-1a12 12 0 011-4c-2-4-2-9 2-12a231 231 0 01-6-18 6 6 0 010-4c-2-7-2-11 1-13a43 43 0 01-1-8 54 54 0 00-3-17l-11-29 14 16a15 15 0 010-4 4 4 0 011-2 73 73 0 00-2-10l-3-6-3-11 9 5a40 40 0 01-1-7c-1-4-1-10-6-22l5-1v-6h-1a96 96 0 01-1-13l1-11-1-8 1-10a25 25 0 01-1-12 17 17 0 00-1-5v-1-1c-1-8-2-13 4-15a8 8 0 019 3 3 3 0 011 1v7l-1 1a4 4 0 01-1 2v1a4 4 0 010 1 26 26 0 010 6c0 3 0 7 2 12l14 24-15-12a40 40 0 010 9l-1 6 1 7c1 2 2 3 1 5l1 7 1 7c0 2 0 5-2 6a61 61 0 011 11 27 27 0 002 8v2l-2 2-1 2a23 23 0 01-1 2 56 56 0 012 8c1 7 2 12 1 13a6 6 0 01-3 2l2 1-1 5-1 6a60 60 0 012 14c0 5 0 8 3 14l-5 1a55 55 0 003 10h-1a205 205 0 007 21l7 19-9-7 1 2-4 1a17 17 0 010 3c0 2 1 7-3 11a26 26 0 012 8 5 5 0 01-2 3l5 21v2a4 4 0 01-2 5c-1 2-1 5-3 6l1 7 1 7c2 2 2 5 2 10h-3l4 18 2-1v11l-2 9v1a37 37 0 01-1 13 34 34 0 003 6l2 3-3 1-1 2a19 19 0 01-3 5 47 47 0 014 12c1 6 1 9-1 11a19 19 0 01-1 6 5 5 0 010 1l1 4a2195 2195 0 014 21 4 4 0 010 2v3c0 1 0 5-6 6zm-8-40a8 8 0 00-1 1h2a6 6 0 01-1-1zm4-42l2 1a6 6 0 001-1zm-7 0a4 4 0 003 2l2-2zm7-21h2a10 10 0 00-1 0h-1zm0-13h4a7 7 0 00-3 0 8 8 0 00-1 0zm-5-135a8 8 0 002 0 8 8 0 002-1zm3-57a7 7 0 00-5 1h1a8 8 0 002 0 8 8 0 004-1 7 7 0 00-2 0zm-8-126a5 5 0 00-2 2l4-1zm8-4h1a4 4 0 00-1 0z"/></g></g></g></svg>