<svg width="100" height="100" xmlns="http://www.w3.org/2000/svg" viewBox="0 0 500 500"><defs><style>.cls-3{fill:#7ebb15}.cls-4{fill:#94d31a}.cls-5{fill:#78a015}</style></defs><g style="isolation:isolate"><g id="_Layer_" data-name="&lt;Layer&gt;"><path class="cls-3" d="M180 86c2-16 11-32 25-39s34-6 45 6c10-14 24-24 41-26s34 6 41 21c24 4 40 33 31 56l-4 11-1 10c-2 10-7 18-14 26-15 17-35 29-56 37-23 8-48 11-71 1-18-7-33-26-34-46-1-7 2-14 1-21 0-12-6-23-4-36z"/><path class="cls-4" d="M201 161c-1-13-6-24-4-37 2-16 11-31 25-39s34-5 45 6c10-13 24-24 40-26s35 6 42 21a38 38 0 0116 8c3-21-12-44-33-48-7-16-25-24-41-22s-31 13-41 26c-11-11-30-13-45-5s-23 23-25 39c-2 13 4 23 4 36 1 7-2 14-1 21 0 13 7 25 17 35l1-15z"/><path class="cls-3" d="M426 411c21-2 38-22 35-43a36 36 0 0018-62c10-6 12-20 8-31s-14-18-25-23a95 95 0 00-95 9l-8 5-12 4c-15 4-24 22-25 38s7 32 14 47c8 19 25 18 40 29 17 12 26 30 50 27z"/><path class="cls-5" d="M479 305c10-6 12-20 8-30s-14-18-25-23a90 90 0 00-30-8c8 4 16 11 19 20 5 10 2 24-7 30a36 36 0 01-18 63c2 19-13 38-32 42 8 8 18 13 32 12 21-2 38-22 35-43a36 36 0 0018-63z"/><path class="cls-3" d="M41 292a41 41 0 004 44 69 69 0 00-22 48c-1 15 5 32 18 39 13 6 29 2 43-2-4 9-2 20 4 28s15 12 24 15c14 4 28 4 41-2s22-18 23-32c12 5 27 2 38-6s17-20 21-33c6-16 7-33 2-49s-17-30-33-34c2-10 4-20 0-28s-13-12-21-16c-18-7-36-13-55-13-22 0-30 10-47 19-15 7-30 3-40 22z"/><path class="cls-5" d="M204 286h2a23 23 0 00-1-5l-1 5zM235 369c-4 12-11 25-21 33s-26 11-38 6c-1 13-11 26-23 32s-27 6-41 2c-9-3-18-7-24-15s-8-19-4-28c-14 4-30 8-43 2-9-5-15-15-17-26a66 66 0 00-1 9c-1 15 5 32 18 39 13 6 29 2 43-2-4 9-2 20 4 28s15 12 24 15c14 4 28 4 41-2s22-19 23-32c12 5 27 2 38-6s17-21 21-33c4-13 6-26 4-39a95 95 0 01-4 17zM45 314a39 39 0 01-7-14 42 42 0 000 22 66 66 0 017-8z"/><path class="cls-3" d="M58 108c-4 4-8 9-9 14s2 12 8 12a63 63 0 00-38 47c-1 11 0 22 2 33s9 25 20 24h7c5 1 7 8 8 13a46 46 0 0033 34 46 46 0 0045-16c2-2 3-4 6-5s7 1 10 3a59 59 0 0089-32 58 58 0 00-10-102c8-7 9-19 6-29s-13-17-22-21a62 62 0 00-36-5l-11 1c-4 0-8-2-11-3-17-6-37-2-52 8-8 6-10 10-19 12-11 2-18 3-26 12z"/><path class="cls-5" d="M265 181a60 60 0 00-22-40 56 56 0 013 12 60 60 0 01-26 55 59 59 0 01-89 32c-3-2-7-5-11-3-2 0-4 3-5 5a46 46 0 01-45 15 43 43 0 01-14-6 46 46 0 0033 34 46 46 0 0045-16c2-2 3-4 6-5s7 1 10 3a59 59 0 0089-32 60 60 0 0026-54z"/><path class="cls-4" d="M71 158c-14 1-26 18-23 32s19 25 33 24c5 0 11-2 14-6 2-3 2-7 2-11a94 94 0 00-1-20 24 24 0 0024-15c2-7 2-17 10-20 4-1 8 1 13 1 5-1 10-6 12-11s5-11 3-16c-4-7-13-8-21-8h-36c-17 0-17 7-22 20-5 10-16 18-8 30z"/><path class="cls-3" d="M262 270c-5 1-11 2-15 5s-6 11-2 15a63 63 0 00-58 12c-9 8-15 17-20 27s-9 24 0 31l6 4c3 5 0 11-3 15a45 45 0 0050 64h7c4 1 5 5 6 9a59 59 0 0089 32 58 58 0 0058-86c10 0 19-9 22-19s1-20-4-30a62 62 0 00-24-26l-9-7-7-9a60 60 0 00-45-26c-11-1-14 0-22-4-10-5-16-8-29-7z"/><path class="cls-5" d="M376 458a60 60 0 009-45 56 56 0 01-6 12 60 60 0 01-54 25 59 59 0 01-90-32c-1-3-2-8-6-9-2-1-5 0-7 1a46 46 0 01-45-17 44 44 0 01-7-14 45 45 0 0050 64h7c4 1 5 5 6 9a59 59 0 0089 32 60 60 0 0054-26z"/><path class="cls-4" d="M246 336c-12-9-31-4-38 9s-2 31 11 40c4 3 9 5 14 4 3-1 6-4 9-7a93 93 0 0011-16 24 24 0 0028 3c7-4 13-11 20-8 4 1 6 6 10 8 5 3 11 2 17 0s10-6 12-11c2-8-5-15-11-20l-28-22c-14-11-17-6-30 1-9 5-23 4-25 19z"/><path class="cls-3" d="M331 93c-5 0-11 1-15 5s-6 10-2 14a63 63 0 00-59 13c-8 7-14 16-19 26-6 10-9 25 0 31l5 5c4 4 0 10-2 15a45 45 0 0049 64c3-1 5-2 8-1s5 6 6 10a59 59 0 0089 31 58 58 0 0057-85c11-1 19-9 23-19s1-21-4-30a62 62 0 00-24-27l-9-6-7-10a60 60 0 00-46-26c-10 0-13 1-21-3-10-5-17-9-29-7z"/><path class="cls-5" d="M445 281a60 60 0 009-46 56 56 0 01-6 12 60 60 0 01-55 25 59 59 0 01-89-31c-1-4-2-8-6-9h-7a46 46 0 01-45-16 43 43 0 01-7-14 45 45 0 0049 64c3-1 5-2 8-1s5 6 6 9a59 59 0 0089 32 60 60 0 0054-25z"/><path class="cls-4" d="M310 140c-12-9-31-3-38 10s-2 31 10 40c4 3 10 5 14 3 4-1 7-3 10-6a94 94 0 0011-16 24 24 0 0028 3c7-4 13-12 20-9 4 2 6 6 10 9 5 3 11 2 16-1s11-5 13-11c2-7-5-14-11-19l-28-23c-14-11-18-5-30 1-10 5-24 4-25 19z"/><path class="cls-3" d="M125 227c-6 4-12 9-16 15-8 13-4 30 1 45-18 6-23 32-12 48s35 19 53 13a62 62 0 0094-10c2-3 5-6 8-7 3-2 6-1 9-1 10 1 20-5 27-14s9-18 9-29c1-5 0-10 2-15l4-10c6-14 3-30-6-42s-23-18-37-19a49 49 0 00-40-26c-24-2-32 13-46 28-12 12-35 15-50 24z"/><path class="cls-4" d="M137 312c-5-15-9-32-1-45 4-7 10-11 16-15 15-10 38-12 50-25 14-15 22-29 47-28a49 49 0 0139 26 56 56 0 0118 5 45 45 0 00-7-15c-9-12-23-19-38-20a49 49 0 00-39-26c-24-1-33 13-47 28-11 13-35 15-50 25-6 4-12 8-16 15-8 13-4 30 2 45-19 6-24 33-13 48a39 39 0 0021 14c-1-14 6-28 18-32z"/><path class="cls-5" d="M298 221a46 46 0 00-5-6 39 39 0 01-2 18l-5 10-2 15c0 11-3 21-9 29s-16 15-27 14h-9l-7 8a62 62 0 01-95 9c-15 6-32 4-45-5a33 33 0 006 22c12 16 35 19 53 13a62 62 0 0094-9c3-3 5-7 8-8h9c11 0 20-6 27-14s9-19 9-29c1-5 0-11 2-16l4-10c6-13 3-30-6-41z"/><path class="cls-3" d="M245 205c-14 6-27 15-32 29s-1 32 12 39c-1 10-1 20 5 28 5 6 14 8 23 9 13 2 29-1 34-13a38 38 0 0062-17l4-13 4-7a26 26 0 00-21-38 29 29 0 00-16-24c-11-6-20-1-32 0-15 2-28 1-43 7z"/><path class="cls-5" d="M357 235a26 26 0 00-12-11 25 25 0 01-2 6l-5 8-4 13a38 38 0 01-61 17c-6 12-22 14-35 13a50 50 0 01-13-3c-1 8 0 17 5 23s14 9 23 9c13 2 29-1 34-13a38 38 0 0062-17l4-12 4-8a26 26 0 000-25z"/></g></g></svg>