<svg xmlns="http://www.w3.org/2000/svg" viewBox="0 0 500 500"><defs><style>.cls-4{fill:#78ad37}.cls-5{fill:#689134}.cls-6{fill:#94c25b}.cls-7{fill:#96bf61}.cls-8{fill:#acdb6c}</style></defs><g style="isolation:isolate"><g id="_Layer_" data-name="&lt;Layer&gt;"><path d="M88 315h1l-1 1v-1zm294-4a6 6 0 00-1-1l2 1h2a4 4 0 00-2 1l-1-1zm-51-93h1v1h-1a14 14 0 000-1zm-231 4a30 30 0 003 4 5 5 0 00-3-1v-2a7 7 0 000-1zm188 29a21 21 0 001 6h-1a3 3 0 00-2-2 3 3 0 00-2 0 4 4 0 00-2-1l3-2 3-1zm-43 32a4 4 0 00-1-2 3 3 0 00-1-1l-1-1a29 29 0 008-2l1 4a16 16 0 00-6 2zm89-15a6 6 0 010-1v-1a31 31 0 003 3 8 8 0 00-3-1zm-167 5h-3l-2 1a27 27 0 004-6 5 5 0 001 1l2-1v1l-2 3a1 1 0 000 1zm-52 0a7 7 0 001 0h-1a5 5 0 000 2 4 4 0 000-2zm25-20h2c-2 4-3 7-2 8a24 24 0 00-3 0c2-1 3-4 3-8zm15 5v2a30 30 0 00-6 6l-3-3a30 30 0 009-5zm-72 1h-2 2zm135-7l-2 2-1 2v-1a6 6 0 001-3 13 13 0 012 0zm85 2v-2l1 1zm20 40a24 24 0 00-4-5l1-1a28 28 0 005-2c-2 2-3 4-2 6l1 1-1 1zm-29 18v0zM75 292a3 3 0 00-1-1h2a6 6 0 01-1 1zm-8-13a20 20 0 00-3-3 22 22 0 008-7 30 30 0 007 5 30 30 0 0011 2 33 33 0 005 2h-1l-2 1c-2-3-9-5-18-3a33 33 0 00-7 3zm2-35a30 30 0 00-4-4 8 8 0 001 0 45 45 0 006 4 8 8 0 011 1l-3 1a14 14 0 00-1-2zm147-7a26 26 0 004-4 24 24 0 003 5h-2l-5-1zm53 61l-3 5a3 3 0 00-1 1 60 60 0 00-5-6l-1-1a30 30 0 009 0v1h1zm-17 13a27 27 0 00-5-2 14 14 0 001-2 43 43 0 004 4zM80 231a6 6 0 002-2v3a3 3 0 000 1 3 3 0 00-1-1 11 11 0 00-1-1zm83-16zm47 7a24 24 0 003 2 27 27 0 00-7 3 7 7 0 00-2 0l1-3a33 33 0 005-2zm16 1l1-1-1 1zm85-9a29 29 0 003 2h1a20 20 0 00-5 3 23 23 0 00-3 0 8 8 0 000-2 33 33 0 004-3zm65-8a5 5 0 010 1v-1zm2 5a5 5 0 01-1 0 9 9 0 000-1l1 1zm10 20v4a38 38 0 00-5-1v-3a14 14 0 005 0zm10 63a27 27 0 00-4 6l-5-3a10 10 0 00-1 0 25 25 0 008-4l2 1zm-68 19a36 36 0 00-3 3l-1-2 2-6a18 18 0 006-1 14 14 0 00-1 4l-3 2zm-154 8h1-1zm-24-104v1l-10 3a15 15 0 00-2-1 43 43 0 000-5c4 2 7 3 9 1a3 3 0 002 1 3 3 0 001 0zm93-8a35 35 0 00-3 5 6 6 0 000 1 35 35 0 00-2-3 7 7 0 011-1 28 28 0 002-5 34 34 0 002 3zm48 14l-1 3a20 20 0 00-5-2c-4-3-7-5-10-3l-1 1-3 1a4 4 0 000-3l-1-1a33 33 0 005-2c2 2 4 3 6 2a4 4 0 001 2 4 4 0 002 0l7 2zm94 89a5 5 0 00-1 0h1zm-170 13a8 8 0 00-1-1 22 22 0 001-3l1 3a40 40 0 002 4l-1 3a24 24 0 00-2-6z" style="mix-blend-mode:multiply" fill="#bcbec0"/><path class="cls-4" d="M129 275c0 4 7 7 15 7a9 9 0 01-1 1c-9 7-13 16-11 19s13-1 21-8l1-1c-1 8 2 14 6 15 4 0 8-6 10-15s-1-16-5-17a4 4 0 00-1-2 3 3 0 00-2-1c0-4-8-7-17-6-9 0-16 4-16 8z"/><path class="cls-5" d="M364 191c-3-2-9 2-13 9v-1c-3-11-9-19-13-18s-5 10-2 21a9 9 0 010 1c-7-4-14-5-16-2-3 3 1 10 8 16s15 6 18 3a3 3 0 002 1 3 3 0 002-2c4 2 10-3 14-11s4-16 0-17z"/><path class="cls-5" d="M395 187c-3-2-10 0-15 6a9 9 0 000-1c0-12-3-21-7-21s-8 9-9 20v1c-5-6-11-9-14-6-4 2-2 10 3 17s13 10 16 8a3 3 0 002 1 3 3 0 002-1c3 3 11 0 17-7s9-14 5-17zM60 255c-2 3 3 9 11 12a13 13 0 00-2 1c-11 2-20 8-19 12 2 4 12 5 23 2a8 8 0 011 0c-4 6-5 13-2 15 3 3 10-1 16-9 5-7 7-14 3-17a3 3 0 001-1 4 4 0 00-2-2c2-4-3-10-12-14-8-3-16-3-18 1zM450 229c1-4-5-8-14-10l2-1c10-5 17-12 15-16s-12-2-22 3a10 10 0 00-1 1c2-8 2-14-2-16-4-1-10 4-14 12-3 8-3 16 1 18a3 3 0 000 2 4 4 0 002 1c-1 4 6 9 15 10s17 0 18-4z"/><path class="cls-5" d="M438 215c-4-2-10 3-14 10a4 4 0 000-2c-3-11-9-19-13-18s-5 11-2 22v1c-6-4-13-5-16-2-2 3 2 10 9 15 8 5 15 7 18 4a3 3 0 002 0 3 3 0 002-1c4 1 10-4 14-12s3-16 0-17zM95 182c-4 0-7 6-6 14l-1-1c-8-8-17-12-21-10-3 3 1 12 9 20l1 1c-8 0-15 2-15 6-1 4 6 8 15 9s17-1 18-5a3 3 0 001-1 4 4 0 001-1c5-1 8-8 7-17s-4-16-9-15zM335 186c-2-4-10-3-17 0a7 7 0 000-1c4-11 5-20 0-22s-10 6-14 17v1c-4-7-9-12-12-11-4 2-5 10-2 18s8 14 12 13a4 4 0 002 1 4 4 0 002 0c2 3 10 3 18-2s13-11 11-14zM293 201c-3-3-10-3-17 1a10 10 0 000-1c4-11 4-21 0-22s-10 6-14 17a10 10 0 010 1c-4-8-9-12-12-11-4 1-5 9-2 17 3 9 8 14 12 13a2 2 0 002 1 3 3 0 002 0c2 4 10 3 18-1s13-11 11-15z"/><path class="cls-5" d="M303 248c2-3 0-9-7-15h2c12 1 21-2 22-6s-10-8-21-9h-1c6-5 9-11 6-14-2-3-10-1-18 4-7 5-11 12-8 16a4 4 0 00-1 1 4 4 0 001 2c-3 3 0 10 7 16s15 8 18 5zM171 205c-2-3-9-2-16 3v-2c3-11 2-20-2-21s-10 7-13 18v1c-4-7-10-11-13-9-4 1-4 9 0 17s10 13 14 11a4 4 0 002 1 5 5 0 002 0c3 3 10 2 18-4s11-12 8-15zM342 310c3 3 10 2 17-3l-1 1c-2 11 0 21 4 22s9-8 11-19l1-1c4 6 10 10 13 8 4-2 3-10-1-18s-11-12-15-10a3 3 0 00-1-1 3 3 0 00-2 1c-3-4-11-1-18 4s-11 13-8 16z"/><path class="cls-4" d="M378 314c2 3 9 1 16-4a10 10 0 010 1c-2 12-1 21 4 22s9-8 11-19a4 4 0 010-1c4 7 10 10 14 9 3-2 3-10-2-18s-11-12-14-11a3 3 0 00-2 0 4 4 0 00-2 0c-3-3-11-1-18 5s-10 13-7 16zM66 267c-1 4 4 9 11 13a14 14 0 00-1 0c-11 3-19 9-18 13s11 5 22 1h1c-4 7-4 13-1 15 4 3 10-1 16-9 4-7 6-15 2-17a3 3 0 000-2 3 3 0 00-1-2c2-3-4-9-12-13s-17-2-19 1z"/><path class="cls-6" d="M69 289c0 4 7 8 15 8a11 11 0 00-1 1c-10 7-15 15-13 18s13 1 22-6l1-1c-2 8 0 15 4 16s9-6 11-14 1-16-3-17a3 3 0 00-1-2 3 3 0 00-1-1c0-4-8-8-17-8-9-1-16 2-17 6z"/><path class="cls-7" d="M105 198c-4 1-5 8-3 16l-2-1c-9-6-19-9-21-5s3 11 13 18c-8 1-14 5-13 8 0 5 8 7 17 7 9-1 16-5 16-9a4 4 0 002-1 3 3 0 000-2c4-1 6-9 3-17s-8-15-12-14z"/><path class="cls-5" d="M126 172c-4-2-10 1-15 8a7 7 0 000-2c-1-11-6-20-10-19s-7 10-5 21v1c-6-5-13-7-16-4s1 10 7 16c7 6 14 9 17 6a3 3 0 002 1 3 3 0 002-1c4 2 11-3 16-10s5-15 2-17z"/><path class="cls-4" d="M393 201c0-4-6-7-15-8l2-1c9-7 14-15 11-18-2-3-12 0-21 7a9 9 0 01-1 0c1-7-1-14-4-15-4-1-9 6-11 14-2 9-1 16 3 17a3 3 0 001 2 4 4 0 002 1c0 4 7 8 16 8s17-3 17-7zM241 321c4 2 9-3 13-10l1 2c2 11 8 19 12 18s6-11 3-22a10 10 0 01-1-1c7 5 14 6 17 3 2-3-2-10-9-16-7-5-15-7-18-4a3 3 0 00-2 0 3 3 0 00-1 1c-4-1-11 3-15 11s-4 16 0 18z"/><path class="cls-5" d="M288 279c3 3 10 1 16-4v1c-2 11 1 21 5 21s9-8 10-19v-1c5 6 11 10 14 8 4-3 3-10-2-18-5-7-12-11-15-9a3 3 0 00-2-1 3 3 0 00-2 0c-3-3-11 0-17 6s-10 13-7 16z"/><path class="cls-4" d="M184 269c0 4 6 7 15 7l-1 1c-9 8-14 16-11 19 2 3 12 0 21-8h1c-1 7 1 14 5 15 4 0 9-6 10-15 2-9 0-16-4-17a3 3 0 00-1-2 4 4 0 00-2-1c0-4-8-7-17-7-9 1-16 4-16 8z"/><path class="cls-5" d="M118 313c2 3 9 0 16-5l-1 1c-1 12 2 21 6 22s9-9 10-20v-1c5 6 11 9 14 7 4-2 2-10-3-17s-12-12-15-10a3 3 0 00-2 0 3 3 0 00-2 0c-3-3-11 0-17 6-7 7-10 14-6 17z"/><path class="cls-4" d="M359 231c-1 4 5 8 13 10h-1c-10 6-17 13-15 17 2 3 12 2 23-4a8 8 0 011 0c-3 7-2 14 2 15 4 2 9-4 13-12 3-8 3-16-1-18a3 3 0 00-1-1 3 3 0 00-1-2c1-4-6-8-15-10s-17 1-18 5zM424 178c-4-1-9 4-11 12l-1-2c-4-10-11-17-15-16s-4 12 1 22a8 8 0 010 1c-7-3-14-3-16 0-2 4 3 10 11 14s16 5 18 1a3 3 0 002 0 3 3 0 001-1h1c4 1 9-5 12-13s1-17-3-18z"/><path class="cls-5" d="M72 217c-3 2-1 9 3 16l-1-1c-12-2-22-1-22 3-1 5 7 10 19 12a4 4 0 001 0c-7 4-11 10-9 13 2 4 10 3 18-1s13-10 11-13a4 4 0 001-2 3 3 0 000-2c3-3 1-10-4-17s-13-11-17-8zM441 275c1-3-4-8-12-11l1-1c11-4 19-10 17-14s-12-4-23 1a5 5 0 01-1 0c4-7 4-14 1-16-4-2-11 3-15 11-4 7-5 15-1 17a3 3 0 000 2 3 3 0 001 2c-1 3 5 9 13 12s17 1 19-3z"/><path class="cls-4" d="M401 307c3-1 3-9 0-16l1 1c11 4 21 5 23 2s-6-11-16-16h-1c8-3 13-7 12-11s-9-5-18-3-15 7-14 11a4 4 0 00-2 2 3 3 0 000 2c-4 1-4 9 0 17s11 13 15 11z"/><path class="cls-5" d="M277 329c4 2 10-3 14-10v2c3 11 8 19 13 18s5-11 2-22a6 6 0 000-1c7 5 14 6 16 3 3-3-1-10-8-16s-16-7-18-4a5 5 0 00-2 0 3 3 0 00-2 1c-4-2-10 3-14 11s-4 16-1 18z"/><path class="cls-4" d="M240 206c-3-3-10-2-16 3a12 12 0 000-1c2-11 0-21-4-22s-9 8-11 19v1c-5-6-11-10-14-8-4 2-3 10 1 17 5 8 11 13 15 11a3 3 0 001 1 3 3 0 003-1c2 3 10 1 17-4 7-6 11-13 8-16z"/><path class="cls-4" d="M167 202c-2 4 2 9 10 13l-2 1c-12 2-20 7-19 11s11 6 22 3h1c-4 6-6 13-3 15 4 3 11-1 17-7s7-15 4-17a3 3 0 001-2 4 4 0 00-2-2c2-4-3-10-11-14s-16-4-18-1z"/><path class="cls-5" d="M364 165c-4-1-9 4-11 12l-1-1c-5-11-12-18-16-16s-3 12 2 22v1c-7-3-14-3-16 0-2 4 4 10 12 14s16 4 18 1a3 3 0 002-1 4 4 0 001-1c5 1 10-5 12-14s1-16-3-17zM106 282c2 4 9 4 17 1l-1 1c-5 10-7 20-3 22s11-5 17-15v-1c2 8 7 13 11 12s6-8 4-17-7-15-11-14a3 3 0 00-1-1 3 3 0 00-2-1c-2-3-10-4-19 0s-14 9-12 13z"/><path class="cls-5" d="M92 295c2 3 9 3 17 1l-1 1c-6 10-7 20-3 22s11-5 17-15v-1c2 7 7 13 11 12s6-9 4-17-7-15-11-15a3 3 0 00-1-1 4 4 0 00-3 0c-1-4-9-4-18-1s-14 10-12 14z"/><path class="cls-7" d="M153 304c2 4 9 4 17 1a7 7 0 01-1 2c-5 10-7 19-3 21s11-4 17-15c2 7 7 12 11 11 4 0 6-8 4-17-2-8-7-14-11-14a2 2 0 00-1-1 3 3 0 00-3 0c-1-4-10-4-18-1-8 4-14 10-12 13z"/><path class="cls-4" d="M141 273c1 3 8 5 16 4l-1 1c-7 9-11 18-8 21s13-2 20-11a2 2 0 001-1c0 8 3 14 7 14 5 0 8-7 8-16s-3-16-7-16a3 3 0 00-1-1 3 3 0 00-2-1c-1-4-9-6-18-5s-15 7-15 11z"/><path class="cls-5" d="M175 192c-3 1-5 8-3 16l-1-1c-10-7-20-9-22-6s3 11 13 18v1c-8 1-14 4-13 8 0 4 8 7 17 6 9 0 16-4 16-8a3 3 0 002-3c4-1 5-9 3-17s-7-15-12-14z"/><path class="cls-7" d="M89 202c2 3 9 2 16-2a8 8 0 010 1c-3 11-2 21 2 22s10-8 13-19a2 2 0 000-1c4 7 10 11 13 10 4-2 4-10 0-18s-10-13-14-11a3 3 0 00-2-1 3 3 0 00-2 0c-2-3-10-2-18 4s-11 12-8 15z"/><path class="cls-5" d="M96 227c2 3 9 1 16-3v1c-3 11-2 21 2 22s10-7 13-18a6 6 0 000-1c4 7 10 11 13 9 4-2 4-10 0-18s-10-12-14-11a3 3 0 00-1-1 4 4 0 00-3 0c-2-3-10-1-18 4s-11 12-8 16z"/><path class="cls-7" d="M157 292c2 4 9 2 16-2a6 6 0 010 1c-3 11-2 21 2 22s10-7 13-18v-1c4 6 10 11 13 9 4-2 4-10 0-18s-10-13-14-11a3 3 0 00-2-1 3 3 0 00-2 0c-2-3-10-1-18 4s-11 12-8 15z"/><path class="cls-5" d="M250 317c4-1 5-8 2-16l1 1c11 5 21 7 23 3s-5-11-15-16l-1-1c8-2 13-6 13-9-1-5-9-6-18-5s-16 6-15 10a4 4 0 00-2 1 3 3 0 000 2c-4 2-4 10-1 18s9 14 13 12z"/><path class="cls-7" d="M296 317c4-1 5-8 2-16l1 1c10 6 21 7 23 3s-5-11-15-16h-1c8-2 13-6 12-10 0-4-8-6-17-5s-16 6-15 10a4 4 0 00-2 2 3 3 0 000 2c-4 1-5 9-1 17s9 14 13 12z"/><path class="cls-5" d="M176 183c-1 3 5 8 13 10a14 14 0 00-1 1c-11 5-18 12-16 15s12 3 23-2c-2 7-2 14 2 15 3 2 10-3 13-11s4-16 0-18a3 3 0 00-1-3c1-4-6-9-15-11s-17 0-18 4zM192 313c3 3 10 2 17-2a12 12 0 00-1 1c-3 11-2 21 3 22s9-7 12-18a2 2 0 001-1c4 7 9 11 13 9 3-2 3-10 0-18s-10-12-14-11a4 4 0 00-2-1 4 4 0 00-2 0c-3-3-11-1-18 4s-11 12-9 15z"/><path class="cls-5" d="M242 188c-2-4-9-3-16 0a7 7 0 010-1c4-11 4-20 0-22s-10 6-14 17a5 5 0 01-1 1c-3-7-8-12-11-11-4 2-5 10-2 18s8 14 12 13a3 3 0 002 1 3 3 0 002 0c2 3 10 2 18-2s13-11 10-14z"/><path class="cls-5" d="M261 175c-4-2-9 2-14 9v-1c-2-11-8-19-12-18s-6 10-3 21a10 10 0 010 1c-6-4-13-5-16-2-2 3 2 10 9 15s15 7 17 4a4 4 0 002 1 3 3 0 002-2c4 2 10-3 14-11s5-15 1-17z"/><path class="cls-6" d="M239 203c-3 3-2 10 3 16h-1c-12-2-22-1-23 3s8 9 20 11a10 10 0 001 1c-7 4-11 9-9 13 2 3 10 3 18-1s13-10 11-14a3 3 0 001-4c3-2 1-10-5-17s-13-10-16-8z"/><path class="cls-5" d="M400 207c4 2 4 9 0 16a11 11 0 012 0c10-5 21-5 22-2s-5 11-16 15l-1 1c8 2 13 7 12 11s-10 5-18 3c-9-3-15-8-14-12a4 4 0 01-2-1 3 3 0 010-2c-4-2-3-10 1-18s10-12 14-11z"/><path class="cls-4" d="M356 285c0 4-7 6-16 5a9 9 0 012 1c7 8 11 17 8 20s-12-2-20-10a6 6 0 01-1-1c0 8-3 14-7 14s-8-7-8-16c-1-8 2-16 7-16a4 4 0 011-2 3 3 0 012 0c0-4 8-7 17-5s16 6 15 10z"/><path class="cls-5" d="M119 188c1-4 8-4 16-2v-1c-6-10-8-20-4-22s11 5 17 14v1c2-7 6-13 10-12 5 1 7 8 5 17-1 9-6 15-10 15a3 3 0 01-1 1 3 3 0 01-2 0c-2 4-10 5-19 2s-14-9-12-13zM354 312c-2 3-9 3-16-2v2c4 11 4 20-1 22s-10-7-13-18a3 3 0 01-1-1c-3 8-8 12-12 11-4-2-5-10-1-18 3-8 9-13 13-12a3 3 0 011-1 4 4 0 012 0c3-4 11-3 19 2s12 12 9 15zM245 308c-4 0-8-6-9-14a12 12 0 01-1 2c-7 9-15 15-19 12s0-11 6-21a4 4 0 011-1c-8 2-15 1-16-3s5-9 14-11c8-3 16-2 18 2a3 3 0 012 1 3 3 0 011 1c4 0 8 7 9 16s-2 16-6 16zM426 272c4 2 4 9 1 16h1c11-5 21-7 23-3s-5 11-16 16h-1c8 3 13 7 12 11 0 4-9 5-18 3-8-2-15-6-14-10a4 4 0 01-1-2 3 3 0 01-1-2c-3-1-4-9 0-17s10-14 14-12z"/><path class="cls-7" d="M284 252c-4 0-6-7-5-15a8 8 0 01-1 1c-9 8-18 11-21 8s2-11 11-19a3 3 0 011-1c-9 0-15-3-15-6 0-4 7-8 16-9 9 0 17 3 17 7a3 3 0 012 1 3 3 0 010 2c5 0 7 8 6 17s-6 15-11 14z"/><path class="cls-5" d="M260 296c-4-1-7-8-6-16l-1 1c-9 8-18 12-21 8s2-11 11-19a4 4 0 011 0c-8-1-15-3-15-7s7-8 16-8 17 2 17 6a3 3 0 012 1 2 2 0 011 2c4 1 6 8 5 17s-6 15-10 15zM264 168c4-1 9 4 12 11a6 6 0 011-1c4-11 10-18 14-17s4 11 0 22v1c7-4 14-4 16-1 2 4-2 10-10 15s-16 5-18 2a3 3 0 01-2 0l-2-2c-4 2-9-4-13-12-3-8-2-16 2-18zM149 171c3-2 10 1 15 8v-2c1-11 5-20 9-20s7 10 6 21a2 2 0 010 2c6-6 13-8 16-5 3 2 0 10-6 16-6 7-14 9-17 7a3 3 0 01-2 0 3 3 0 01-2-1c-3 3-10-1-16-8s-6-15-3-18z"/><path class="cls-6" d="M295 274c-1 3-8 5-16 4l1 1c7 9 10 18 7 21s-12-3-19-12a8 8 0 00-1-1c0 8-4 14-8 14s-7-7-7-16 3-16 8-16a3 3 0 011-2 3 3 0 012 0c1-4 9-6 18-4s15 6 14 11z"/><path class="cls-7" d="M243 296c-4 0-8-6-10-14v2c-6 10-14 16-18 14-4-3-2-12 4-22a4 4 0 011-1c-8 2-15 2-16-2-2-4 4-9 13-12s17-3 18 1a3 3 0 012 0 4 4 0 011 2c5-1 9 6 10 15s-1 16-5 17z"/><path class="cls-4" d="M301 262c3 3 10 0 16-5a7 7 0 010 1c-1 12 1 21 6 22s8-9 10-20a7 7 0 010-1c4 6 11 9 14 7s2-10-3-17-12-12-15-10a3 3 0 00-2 0 4 4 0 00-2 0c-3-3-11 0-17 6-7 6-10 14-7 17z"/><path class="cls-4" d="M262 251c1 4 7 6 16 6l-1 1c-9 8-13 17-10 20s12-1 21-10c0 8 3 14 6 14 5 1 9-6 10-15s-2-16-6-17a4 4 0 00-1-1 4 4 0 00-2-1c0-4-8-7-17-6s-16 5-16 9zM329 267c2 4 10 3 17 0a9 9 0 00-1 1c-4 11-4 20 0 22 4 1 11-6 15-16a5 5 0 000-1c3 7 8 12 12 10 4-1 5-9 2-17s-8-14-12-13a3 3 0 00-1-1 4 4 0 00-3 0c-2-4-10-3-18 1s-13 11-11 14z"/><path class="cls-8" d="M127 221c-4-1-9 5-11 13v-2c-6-10-14-16-17-14s-3 11 3 21l1 1c-8-2-15-2-17 2-1 4 5 9 13 13 8 3 17 3 18-1a4 4 0 002 0 4 4 0 001-2h1c4 1 8-5 10-14s0-16-4-17z"/><path class="cls-6" d="M108 270c0 4 7 6 15 6l-1 1c-8 8-13 17-10 20s13-1 21-9l1-1c-1 8 2 14 6 15 4 0 8-6 9-15s-1-16-5-17a3 3 0 00-1-2 4 4 0 00-2 0v-1c0-4-8-6-17-6s-16 5-16 9z"/><path class="cls-8" d="M79 268c1 4 8 6 17 4l-1 1c-7 9-10 19-7 21s12-3 19-12a6 6 0 001-1c1 8 4 14 8 14s7-8 7-16c0-9-4-16-8-16a3 3 0 00-1-2 4 4 0 00-2 0c-1-4-9-6-18-4s-16 7-15 11z"/><path class="cls-7" d="M218 271c2 3 9 2 17-1a13 13 0 00-1 1c-4 11-4 20 0 22s11-6 15-17v-1c3 7 8 12 12 10 4-1 5-9 2-17s-9-14-13-13a4 4 0 00-2-1 4 4 0 00-2 0c-2-3-10-3-18 2s-12 11-10 15z"/><path class="cls-4" d="M179 236c0 4 8 6 16 5l-1 1c-8 9-11 18-8 20s12-2 20-11a6 6 0 011-1c0 8 3 14 7 14 5 0 8-7 8-16s-4-16-8-16a3 3 0 00-1-2 4 4 0 00-2 0c-1-4-9-6-18-4s-15 6-14 10z"/><path class="cls-7" d="M349 241c2-3-2-9-9-13l1-1c12-2 21-6 20-10s-11-6-23-4c4-6 6-13 3-15-3-3-11 0-17 7s-8 14-5 17a3 3 0 000 2 4 4 0 001 1c-2 4 3 10 11 15s16 5 18 1z"/><path class="cls-8" d="M147 286c4-2 4-9 2-16l1 1c10 5 20 6 22 3s-4-11-15-17a8 8 0 00-1 0c8-2 14-6 13-10s-9-6-18-4-15 6-15 10a3 3 0 00-1 1 4 4 0 00-1 2c-3 2-4 10 0 18s9 14 13 12z"/><path class="cls-6" d="M200 284c4-1 4-8 1-16l1 1c11 5 21 6 23 2s-5-11-16-16a8 8 0 01-1 0c8-2 13-7 12-10-1-4-9-6-18-4s-15 7-14 11a2 2 0 00-1 1 3 3 0 00-1 2c-4 2-4 10 0 18s10 13 14 11z"/><path class="cls-4" d="M385 252c-3 0-7 7-7 15l-1-1c-8-9-16-14-20-12s0 12 8 21l1 1c-8-1-15 1-16 4-1 4 6 9 15 11 9 1 17 0 18-4a4 4 0 001-1 3 3 0 001-2c5 0 8-7 8-16s-3-16-8-16zM310 273c4 0 7-6 8-14l1 1c7 9 16 14 19 12s0-12-7-21l-1-1c8 1 15 0 16-4s-6-9-15-11c-8-2-16 0-17 4a3 3 0 00-2 0 4 4 0 00-1 2c-5 0-8 7-8 16s3 16 7 16zM204 302c-4 2-10-2-14-9v1c-2 11-8 20-12 19s-6-10-4-21a5 5 0 001-1c-7 4-14 6-16 3-3-3 1-11 8-16s14-8 17-5a3 3 0 012 0 3 3 0 012 1c4-2 10 3 15 10s5 16 1 18z"/><path class="cls-4" d="M401 269c-3 3-10 1-17-4a10 10 0 001 2c2 11 1 21-4 21s-9-7-12-18v-1c-4 7-10 11-13 9-4-2-4-10 1-18 4-7 10-12 14-11a3 3 0 012-1 3 3 0 012 1c2-4 10-2 17 4s11 12 9 16zM185 239c3 2 2 9-3 16h1c12-3 22-2 23 2s-8 10-19 12h-1c7 4 11 10 9 13-2 4-10 3-18-1s-13-10-12-13a3 3 0 01-1-2 3 3 0 011-2c-4-2-2-10 4-17s13-11 16-8z"/><path class="cls-7" d="M242 226c3-1 8 4 11 12a8 8 0 010-2c5-10 12-17 16-15s3 11-2 22a8 8 0 000 1c7-3 14-3 16 0 2 4-3 10-12 14-8 4-16 4-18 0a3 3 0 01-2 0 4 4 0 01-1-1c-4 1-10-6-12-14s-1-16 4-17z"/><path class="cls-4" d="M374 262c-3-3-2-10 3-16h-2c-11 3-21 2-22-2s7-9 18-12l1-1c-7-3-11-9-10-12 2-4 10-4 19 0 8 3 13 9 12 13a4 4 0 011 1 3 3 0 010 2c3 3 2 11-4 18s-12 11-16 9z"/><path class="cls-8" d="M187 250c-4-1-6-8-5-16l-1 1c-9 8-19 11-22 8s3-11 11-19h1c-8-1-14-4-14-7 0-5 7-8 16-8 9-1 17 2 17 6a4 4 0 012 1 3 3 0 010 2c5 1 7 9 5 17s-6 16-10 15z"/><path class="cls-7" d="M298 249c-3 3-10 1-17-4l1 2c2 11 0 20-4 21s-10-8-12-19v-1c-4 7-10 10-13 9-4-2-3-10 1-18s11-12 15-10a3 3 0 012-1 3 3 0 012 0c2-3 10-1 17 5s11 13 8 16z"/><path class="cls-4" d="M385 219c-1 4-9 5-17 2l1 1c6 10 8 20 4 22s-12-5-17-14a4 4 0 00-1-1c-2 7-6 13-10 12s-6-8-5-17 7-15 11-15a3 3 0 011-1 4 4 0 012 0c2-4 10-5 18-1s15 9 13 12z"/><path class="cls-8" d="M121 289c-4-2-3-9 0-17l-1 1c-11 5-21 5-23 1s6-10 16-15a5 5 0 001 0c-7-3-12-7-11-11s9-5 18-3 15 8 14 12a3 3 0 011 1 3 3 0 010 2c4 2 4 10 0 18-5 8-11 12-15 11zM198 245c0-3 6-7 14-9l-2-1c-10-5-16-13-14-17s12-1 22 5h1c-2-7-1-14 3-15 4-2 9 4 13 12 3 8 2 16-2 18a3 3 0 010 1 3 3 0 01-2 2c1 4-6 8-15 9s-17 0-18-5z"/><path class="cls-7" d="M314 269c-4 1-9-4-11-12a11 11 0 010 1c-6 10-13 17-17 15s-3-12 3-22a4 4 0 000-1c-7 3-14 2-16-1-1-4 4-10 13-13 8-3 16-3 18 0a4 4 0 012 1 4 4 0 011 1c4-1 9 6 11 14s0 17-4 17zM165 298c-4 0-8-6-9-14l-1 2c-6 9-14 15-18 13s-1-12 5-21a4 4 0 000-1c-8 2-14 1-16-2-1-4 5-10 13-13s17-2 19 2a3 3 0 011 0 4 4 0 012 2c4-1 8 6 10 15s-1 16-6 17z"/><path class="cls-4" d="M199 291c-3 1-9-4-12-11v1c-4 11-11 19-15 17s-4-11 0-22a9 9 0 000-1c-7 4-14 5-16 2-2-4 2-11 10-15s16-6 18-3a3 3 0 012 0 4 4 0 012 2c4-2 9 4 13 12s3 16-2 18z"/><path class="cls-7" d="M174 288c-4 0-7-7-6-15a14 14 0 01-1 1c-9 8-18 13-21 10s1-12 10-20v-1c-8 0-14-2-15-6 0-4 7-8 16-9s17 2 17 6a4 4 0 012 1 3 3 0 011 1c4 1 7 8 6 17s-5 16-9 15z"/><path class="cls-4" d="M221 231c4-1 9 4 11 12a9 9 0 011-2c5-10 11-17 15-15s4 11-1 21a3 3 0 000 1c7-3 14-3 16 1 2 3-3 10-12 14s-16 4-18 0a4 4 0 01-2 0 3 3 0 01-1-1c-4 1-10-5-12-14s-1-16 3-17z"/><path class="cls-6" d="M121 248c0-3 6-7 14-9h-1c-10-6-16-14-14-18 2-3 12-1 22 5a4 4 0 011 1c-2-8-1-14 3-16 4-1 9 5 12 13 3 9 2 16-2 18a4 4 0 010 1 4 4 0 01-2 2c1 4-6 8-15 9s-17-1-18-6z"/><path class="cls-4" d="M313 245c-4 0-6-7-5-15a9 9 0 01-1 1c-9 8-18 12-21 8s2-11 10-19a4 4 0 011-1c-8 0-14-2-14-6-1-4 7-8 16-8 9-1 16 2 17 6a3 3 0 011 1 3 3 0 011 2c4 0 7 8 5 17-1 8-5 15-10 14z"/><path class="cls-7" d="M240 244c-1 4-8 6-17 4l1 1c7 9 10 19 7 21s-12-3-19-12l-1-1c-1 8-4 13-8 13-5 0-8-7-7-16s4-16 9-16a3 3 0 011-1 3 3 0 012-1c1-4 9-5 18-3s15 7 14 11z"/><path class="cls-6" d="M367 256c-3 2-9-2-13-9a11 11 0 010 1c-3 11-8 20-13 19s-5-11-3-22l1-1c-7 4-14 6-16 3-3-3 1-11 8-16s15-7 18-4a4 4 0 012 0 3 3 0 011 1h1c3-2 10 3 14 11s4 16 0 17z"/><path class="cls-8" d="M342 273c2 4 9 4 17 2l-1 1c-6 10-7 20-4 22s12-5 18-15c2 7 6 13 10 12s6-8 5-17-6-15-10-15a3 3 0 00-2-1 3 3 0 00-2 0c-1-4-9-5-18-2-9 4-14 9-13 13z"/><path class="cls-8" d="M300 286c3 3 10 1 17-3v1c-3 11-2 21 2 22s10-7 13-18a5 5 0 010-1c4 6 10 10 13 9 4-2 4-10 0-18s-11-13-15-11a3 3 0 00-1-1 3 3 0 00-2 0c-3-3-11-1-18 4s-11 13-9 16z"/><path class="cls-6" d="M128 198c-3 2-1 9 4 15h-2c-11-2-21 0-22 4s8 9 19 11a8 8 0 012 0c-7 4-11 10-9 13 2 4 10 3 18-1 8-5 13-11 11-14a3 3 0 001-2 3 3 0 00-1-2h1c3-3 1-10-5-17s-14-10-17-7z"/><path class="cls-8" d="M392 304c4-2 4-9 1-17a7 7 0 001 1c11 5 21 5 23 2s-6-11-17-16a9 9 0 00-1 0c8-2 13-7 12-11s-9-5-18-3c-8 3-15 8-14 11a3 3 0 00-1 2 3 3 0 000 2c-4 2-4 9 0 17s10 13 14 12z"/><path class="cls-4" d="M407 198c-1-4-8-6-16-5a15 15 0 001-1c8-9 11-18 8-21s-12 2-20 11a9 9 0 010 1c-1-8-4-14-8-14s-8 7-8 16 3 16 8 16a3 3 0 000 2 4 4 0 002 0c1 4 9 6 18 5s16-6 15-10z"/><path class="cls-7" d="M415 272c2-4-2-9-9-14h1c12-2 21-7 20-11s-11-6-22-4a8 8 0 00-1 1c4-7 6-13 3-16-3-2-11 1-17 8-5 6-8 14-5 17a2 2 0 000 1 3 3 0 001 2c-2 4 3 10 11 14s16 5 18 2zM221 219c0-4-6-8-15-9h2c9-7 15-15 13-18s-12-1-22 5l-1 1c2-8 1-14-3-15-4-2-10 4-12 13-3 8-2 16 2 17a4 4 0 001 2 4 4 0 002 1c-1 4 6 8 15 9s17-2 18-6z"/><path class="cls-8" d="M206 302c3 2 10-2 14-8a10 10 0 000 1c2 11 7 20 11 19s6-10 5-21v-1c6 5 13 7 15 4 3-3 0-10-7-16s-14-9-17-6a4 4 0 00-2 0 3 3 0 00-2 1c-3-2-10 2-15 10s-6 15-2 17zM399 244c3-3 0-10-6-15h2c11 0 21-3 21-7s-9-8-21-8h-1c6-5 9-11 7-14-3-3-11-2-18 4s-11 12-9 15a3 3 0 000 2 3 3 0 000 2c-3 3 1 10 8 16s14 8 17 5z"/><path class="cls-6" d="M247 202c3-2 10 2 14 8a6 6 0 011-1c1-11 5-20 10-20s6 10 5 21a7 7 0 010 1c6-5 13-7 15-4 3 3 1 10-6 17s-14 8-17 6a3 3 0 01-2 0 4 4 0 01-2-1c-4 2-10-2-16-9-4-8-6-15-2-18z"/><path class="cls-8" d="M336 198c3-3 9 1 15 7v-1c0-12 4-21 9-20s7 9 6 21a3 3 0 010 1c6-6 13-8 15-6 4 3 1 11-5 17s-14 10-17 7a5 5 0 01-2 0 3 3 0 01-2 0c-3 2-10-2-16-9s-7-15-3-17z"/><path class="cls-8" d="M297 202c3-2 9 2 14 8a5 5 0 010-1c2-11 7-20 11-19s6 10 5 21a5 5 0 01-1 1c7-5 14-7 16-4 3 3 0 10-7 16s-14 9-17 6a4 4 0 01-2 0 4 4 0 01-2-1c-3 2-10-2-15-10s-6-15-2-17zM129 194c4-2 10 2 15 9v-2c2-11 6-20 10-19s7 10 5 21a2 2 0 010 1c6-5 13-7 16-4s0 10-7 16-14 9-17 6a4 4 0 01-2 0 4 4 0 01-2-1c-4 3-11-2-15-9s-6-16-3-18zM250 199c4-1 9 4 11 12a13 13 0 011-2c5-10 12-17 15-16s4 12-1 22v1c7-3 14-3 16 0 2 4-3 10-11 14s-16 5-18 1a4 4 0 01-2 0 3 3 0 01-2-1c-4 1-9-5-12-13s-1-17 3-18z"/></g></g></svg>