<svg xmlns="http://www.w3.org/2000/svg" viewBox="0 0 500 500"><defs><style>.cls-4{fill:#416c00}.cls-5{fill:#598400}.cls-6{fill:#719d00}.cls-7{fill:#a1cd00}.cls-8{fill:#b9e500}</style></defs><g style="isolation:isolate"><g id="_Layer_" data-name="&lt;Layer&gt;"><path d="M478 226a8 8 0 00-2 1v-1c1-1 2-3 0-3h-3a3 3 0 000-3 2 2 0 00-2-1 13 13 0 001-1 3 3 0 000-1h5c2-1 1-2-1-3l3-2c0-2-1-3-2-3l4-3c1-2 3-5 1-7-1-2-3-1-6-1 2-2 4-4 1-6a2 2 0 00-2 0 7 7 0 001-5 2 2 0 00-1-1c2-3 3-6 2-9-1-2-4 0-5 1a11 11 0 00-2 2 9 9 0 00-1 1l-1-4-4 3c0-2 0-4-2-4s-2 1-3 2c0-2 0-4-2-5s-4 1-4 3a7 7 0 00-1 2 4 4 0 00-4 1l-1-4-3 1a8 8 0 00-1 1l-2-4c-3-1-4 3-3 7-2-3-3-5-5-5s-2 2-2 3a17 17 0 001 2 11 11 0 00-3 0l-4 3v-4c-2-2-4 0-4 1a6 6 0 00-1 3 7 7 0 00-1-2c-1-2-3-4-5-3a4 4 0 00-2 3l-6 3a2 2 0 00-1-3 3 3 0 00-3 0c1-2 1-3-1-3l-4 3a3 3 0 00-1-1c-1-2-3-1-4 0a5 5 0 00-2 3c-2-3-4-6-6-3a3 3 0 00-1 2 9 9 0 00-1-1h-4a6 6 0 00-1 3 4 4 0 00-1 1c0-2 0-5-2-5-1-1-2 0-3 1 0-2-1-4-3-4-3 0-4 3-3 6a2 2 0 00-1 0c-2 0-3 1-5 3 1-2 2-5 0-5-1-1-3 0-4 1v-5c-2-2-3 3-4 5l-2-5h-3l-1 5a3 3 0 00-1-1 7 7 0 00-3 1l-1-2c-1-1-3 1-4 2l1-2s1-2-1-3c-1-1-3 1-4 3 0-3 0-8-3-7-2 1-3 4-3 6-1-2-2-5-4-3a5 5 0 00-1 4c-2-2-4-4-7-3l-1 4a9 9 0 00-5 1l2-2v-4a1 1 0 00-1 0 14 14 0 00-5 3c1-3 1-5-1-5-3 0-4 4-6 6 0-2 1-5-2-5-2 1-3 3-3 6-1-3-3-7-5-6-2 0-2 2-2 4a11 11 0 00-4 1 3 3 0 000-2h-1l-3 1a8 8 0 002-5 1 1 0 00-1-1l-8 5c1-3 2-7-1-7l-4 5a13 13 0 00-1-5 1 1 0 00-1 0c-2 1-2 4-2 6-1 2-1 0-2 0a15 15 0 00-1-2l-4-2c-1-1-1 1-1 2a5 5 0 000 1 3 3 0 00-2 0 5 5 0 00-2 2c0-2-1-3-3-3a4 4 0 00-2 1 3 3 0 000-2c-1-2-4 0-5 2 0-2 1-5-2-6-1-1-2 0-3 1a20 20 0 00-1 3 9 9 0 00-1-3l-4-2c-3 1-2 4-1 7l-2 1c0-1 0-3-2-3a5 5 0 00-3 3 2 2 0 00-2-3l-4 2c1-1 0-3-1-3a3 3 0 00-2 1c0-1 0-3-2-3s-2 1-3 2l-3-2a3 3 0 00-2 3 13 13 0 000 3 2 2 0 00-1 0l-2 1c0-3 0-5-2-5l-2 2-2-3c-2-1-3 2-2 5-2-2-5-5-6-3a9 9 0 001 4 5 5 0 00-2 0 5 5 0 00-3 2c0-2 0-4-2-4-1-1-3 0-4 2v-5l-4 2a9 9 0 00-3 3c0-3 0-6-2-6-4-1-5 4-6 7-1-3-4-8-6-6-3 2-1 6 1 9a9 9 0 00-5-2 3 3 0 000-2c-1-2-3-1-4 0v-5l-4 3c0-2 0-4-2-4-3 0-3 2-4 4-1-3-2-6-5-5l-2 4a9 9 0 000 1 4 4 0 00-1 0 4 4 0 00-3 2c0-3 0-6-3-5a8 8 0 00-2 2 3 3 0 00-1-1c-1-2-3 0-5 3 0-3 0-8-2-7a6 6 0 00-2 3c-3 0-3 1-4 3-1-2-2-4-3-3a6 6 0 00-1 4c-1-2-3-4-5-4-2 1-3 3-2 5a4 4 0 00-3-1 7 7 0 00-3 1v-4c-2-2-3-1-4 1 0-3-1-6-4-5s-3 4-3 6c-1-2-2-6-4-6-4 0-4 3-3 6a3 3 0 00-4 1 9 9 0 00-2 2c1-2 1-4-1-5-1-1-3 0-4 1a4 4 0 000-2 2 2 0 00-3-1l-1 1a7 7 0 00-2 1 4 4 0 00-2-4c-1 0-4 1-3 3a6 6 0 010 3 16 16 0 00-6-7 2 2 0 00-3 1 9 9 0 001 4 1 1 0 00-2 2h1a15 15 0 01-3-3 2 2 0 00-3 0 13 13 0 001 5l-3-2a2 2 0 00-3 1c-1 2 1 4 2 5a4 4 0 00-2 0 2 2 0 00-2 2v1l1 2a33 33 0 00-5 0 2 2 0 00-1 4l6 3a9 9 0 00-3 1c-1-1-3 0-3 2-1 2 1 5 3 7a2 2 0 00-2 3l1 2a2 2 0 00-1 1c-1 3 1 5 3 6-2 1-5 3-5 5a2 2 0 00-1 1c-1 3 4 4 7 5a8 8 0 00-1 3 30 30 0 01-3-2 2 2 0 00-3 2c0 2 2 4 4 5-1 0-3 0-2 1-1-1-2 0-2 1a10 10 0 002 4 2 2 0 00-1 1c0 3 3 5 6 6h1a8 8 0 00-1 2 5 5 0 01-1 0c-1-2-4 0-3 2a10 10 0 002 4 9 9 0 00-2-1c-2 0-3 3-2 4l3 3a5 5 0 00-1 0 2 2 0 00-1 3 11 11 0 013 4l-1-1c-1-1-3 1-3 2a25 25 0 003 7 19 19 0 00-2 0c-2 1-3 2-1 3a19 19 0 002 4 34 34 0 003 3 15 15 0 01-3-1 1 1 0 00-1 2l5 3a30 30 0 00-3 1v2h-4a2 2 0 00-1 2 16 16 0 008 4 7 7 0 01-4 0c-1-1-3 0-3 1 0 3 2 4 4 4l-1 1a13 13 0 01-1 0l-1 1a1 1 0 00-1 1 1 1 0 001 1l-2 1c-2 1-1 4 1 4a17 17 0 004 0l-3 2a2 2 0 000 4 2 2 0 001 0 11 11 0 006-2l-6 3a2 2 0 001 4c4 0 7-1 11-3h1a7 7 0 00-1 2 2 2 0 004 1l3-1a30 30 0 003-2 16 16 0 002-1 6 6 0 01-1 1 2 2 0 000 3c3 1 5-2 7-3l1-1c1 3 3 7 8 7s6-4 8-8c0 2 0 4 2 5 1 1 3-1 4-1l5-4c-1 3-3 5-1 7 3 2 6-1 9-4-1 2-2 5 0 5 5 0 7-5 9-8 0 3 0 8 4 6 3-1 3-4 4-7a7 7 0 001 5c2 1 3 1 5-1v4c3 0 5-3 7-6 0 3 0 6 2 7 3 1 4-3 4-7 0 3 1 5 4 5a3 3 0 002-1 6 6 0 001 2 2 2 0 003 1c2-1 3-3 3-6 1 2 1 4 3 4 2 1 3-1 4-3l2 2c3 0 5-2 7-4-1 2-2 4-1 6s3 0 4 0a15 15 0 006-5c0 2 0 4 2 4 2 1 3-2 4-4 0 2 1 3 3 3s2-2 3-4a2 2 0 001 1c1 1 2 0 3-1h1a4 4 0 000 2c1 2 4 1 6 1a14 14 0 004-3c-1 2-1 5 1 5l7-5c-2 2-3 5-1 5 2 1 3 0 5-1l1 2c2 1 4-1 6-4 0 3 0 6 2 7 3 1 4-2 5-5a2 2 0 002 1c2 0 2-2 1-4l3 1a5 5 0 002-4l4 2a5 5 0 001 0c-2 2-3 5-1 6s5 0 7-2a4 4 0 001 3c1 1 3 0 3-1l4-5c0 2 0 3 2 4s3-1 3-3a4 4 0 001 1c1 1 3 2 4 1a5 5 0 002-4 5 5 0 003 2c2 1 3-1 3-2a4 4 0 002 2c2 1 4 0 6-1a2 2 0 000 2h3l4-1c-2 2-3 5 0 5l8-5a6 6 0 000 2l3 2c3-1 4-5 5-7a12 12 0 002 5c1 1 3 3 4 2 2-1 3-4 3-6a14 14 0 002 4l3 2 2-4c1 2 2 5 5 4 1 0 2-1 2-3 1 2 1 3 3 3 1 1 3 0 4-2l1-2a2 2 0 001 2c1 1 3 0 4-1l3-3a2 2 0 001 3c1 1 4-1 5-2a27 27 0 004-2 3 3 0 000 2c0 2 2 1 3 0a15 15 0 004-2c-1 2-2 4-1 6s3 0 4-1a11 11 0 002-4 8 8 0 001 4c1 1 2 4 4 3 3 0 4-4 5-7l3 2a3 3 0 002-1 4 4 0 003 2l3-2a13 13 0 00-1 2l1 3 4-1a13 13 0 004-4c-1 2-1 5 1 6 3 0 5-3 7-5 0 2 1 4 3 5 3 1 4-4 5-7a22 22 0 003 4l4 2c2 0 2-4 2-6 2 2 4 5 7 5s3-3 3-5c1 1 2 3 4 3l1 4c3 3 7-3 10-6 0 3 0 6 3 6 3-1 4-4 5-6 0 2 1 6 4 7 2 0 3-3 3-6 1 3 2 6 5 7l2-3c1 2 3 3 5 3 2-1 3-4 3-6 1 1 3 3 5 1 2-1 1-3 0-5 2 0 4 0 5-2a2 2 0 000-2 8 8 0 002 0 2 2 0 001-3 3 3 0 00-1-1 2 2 0 001-2c0-2-1-3-2-3 2-1 5-3 4-5a2 2 0 00-1 0c2-1 4-3 3-5a2 2 0 00-1-1c1-2-1-3-3-4 2 0 4-1 4-3s-2-2-4-2c3-2 7-3 5-6l-3-1c2-2 4-5 2-7-1-1-3 0-4 1a3 3 0 00-1-2 3 3 0 001-4 1 1 0 00-1-1l3-2c1-1 2-2 1-4a3 3 0 00-3-1h-2a2 2 0 000-1c2-1 4-2 3-5l-3-2c2-1 5-4 4-6a2 2 0 00-1-1 5 5 0 003-1c1-1-1-2-2-2a11 11 0 00-4 0 47 47 0 005-3c1-1 2-2 1-4a2 2 0 00-1 0 10 10 0 005-6c0-2-1-3-3-3zm-7 19a18 18 0 01-4 0 6 6 0 014 0zm-93-60l2 1v1a3 3 0 01-2-2zm35-1a7 7 0 012 3 11 11 0 01-2-3z" fill="#295400"/><path class="cls-4" d="M466 228c2-1 4-2 3-3 0-2-3-2-5-3 2-1 5-1 5-3s-3-3-6-4c2-1 6-2 6-5a2 2 0 00-1-2c2-2 4-4 3-5-1-2-2-1-4-1a2 2 0 000-1 2 2 0 00-2 0 7 7 0 002-3l-2-2a5 5 0 00-1 0c1-2 2-4 1-5l-3 1v-4c-3-1-4 2-5 4 0-3-2-7-4-5v6c-1-3-4-6-6-4s1 4 2 5c-2 1 1 3 3 4a17 17 0 01-3 1 3 3 0 000-1l-3-1c0-1 1-2-1-3-1-1-3 0-4 1v-3c-2-1-3 0-4 1 0-3 0-6-2-7s-3 3-3 5c-1-2-2-4-4-4a2 2 0 00-2 2 21 21 0 000 4 6 6 0 00-4-1c-2 0-2 3-2 5a3 3 0 00-2 0l-2 1-1-3a4 4 0 00-4 1 1 1 0 00-1-2c-3 0-4 3-5 5-1-3 0-7-3-7-2 0-3 2-4 5a8 8 0 00-3-5c-1-1-4-2-5-1v5h-3c-2 3 1 6 3 7l-3 1a2 2 0 00-1 1 8 8 0 00-3 0l2-5a1 1 0 00-1 0 5 5 0 00-1 0 3 3 0 00-2-2 3 3 0 00-3 1c0-1 0-2-2-2a6 6 0 00-4 2c0-2 0-3-2-4a4 4 0 00-2 0 4 4 0 000-2c0-2-2-2-4-1a1 1 0 000-1c-2-2-5 0-7 2l-1-2c-2 0-2 1-3 2-1-2-1-6-3-5s-3 4-3 7a5 5 0 00-4-2c-2 1-1 3 0 5a5 5 0 00-4 0 1 1 0 000 1 6 6 0 00-4 1l2-3c1-1 2-2 1-3-2-1-4 1-6 3 1-3 2-8-1-9l-3 3c0-2-1-4-4-3-2 1-2 4-2 6a2 2 0 00-2 0 3 3 0 00-1 1 2 2 0 00-2-1 3 3 0 00-2 0v-4c-1-1-4 1-6 2 1-1 2-4 0-4-3 0-4 4-6 6v-5a1 1 0 00-1 0l-4 5c0-2 0-5-2-6-1-1-1 0-2 1a10 10 0 000 8c-2-2-5-3-6-1a5 5 0 000 1 3 3 0 00-3 0 2 2 0 000-1c-1-2-4 0-6 1l2-5v-2a1 1 0 00-1-1 6 6 0 000-5c-1-2-3 0-5 2a2 2 0 00-3-1 7 7 0 00-2 4 3 3 0 00-1-1c-3-1-3 2-4 4l-3-4a2 2 0 00-1-1l-3 1a2 2 0 00-1-1 2 2 0 00-2 0v-4l-5 3a4 4 0 000-3 1 1 0 00-1 0c-2 0-3 2-4 5a11 11 0 00-1-4c-1-2-2-4-4-3-3 2-2 7 0 10a9 9 0 00-1 1l-2-2c-2 0-3 1-3 2l-3-2a1 1 0 00-1 1v3h-2l-1-1a12 12 0 01-1 3q-1 2-3 0a12 12 0 011-2 1 1 0 00-1-1c-2 1-3 3-5 3l4-5v-1h-1c1-1 2-3 1-4s-3 0-4 1l-1-2c-2-1-4 0-6 2l-1-2c-2-1-3 1-5 2v-4c-2-1-4 4-4 1 0-1-1-3-2-2-2 1-2 3-3 5-1-3-2-8-5-7s-2 5 0 8a5 5 0 00-2 0c-1-1-3 1-4 2a2 2 0 00-1-2c-2-1-3 0-5 2l-1-3-5 3c1-3 1-6-2-7l-3 4c0-3-1-7-3-6a6 6 0 00-3 5l-4 2a2 2 0 00-1-2 3 3 0 00-3 1 2 2 0 000-1c-2-2-4 0-5 1l-1-3c-3-1-4 2-6 4 0-3 0-8-3-7l-1 4c-1-2-2-5-5-4v5a4 4 0 00-1 0 4 4 0 00-2 1 7 7 0 000-4h-3a5 5 0 00-1 2c-1-2-2-5-4-5-2 1-2 2-1 4a3 3 0 00-3-1c-2 1-1 3 0 5a6 6 0 00-2 2 2 2 0 00-1-2 2 2 0 00-1-2 1 1 0 00-1 0v-2c1-2 1-4-1-5-1-1-3 1-4 2l-1 2a2 2 0 00-1-1c-1-2-3 0-5 2 0-2 1-4-1-4-1-1-3 0-5 1 1-1 1-3-1-4-2 0-3 2-4 3-1-2-1-6-5-6-2 0-3 1-3 3a2 2 0 00-2 0c-2 2-2 4-1 5h-1a3 3 0 00-1 0l-1-2-6 3c0-1 0-2-2-3l-3 1a5 5 0 00-1 3c-1-3-1-6-3-6-3-1-3 2-4 4-1-2-2-4-4-3l-1 3c-1-1-5-2-5 1-1 2 3 4 5 6a8 8 0 00-4 1c-2 0-4 2-4 4s4 2 6 2c-2 2-5 5-4 8s4 2 6 1l-2 5c0 3 3 2 5 2a6 6 0 00-1 3 6 6 0 000 4 2 2 0 00-1 1 4 4 0 00-1 4c-3-4-6-7-9-6-4 3 2 7 4 9-3 1-7 1-8 5-1 3 3 4 6 4l-4 4c-1 2 2 3 4 4-3-1-7-2-7 3 0 2 3 3 6 3-2 1-3 3-2 5a13 13 0 003 0c-2 2-5 4-5 7a1 1 0 001 1 27 27 0 004-1 44 44 0 00-4 4c-2 2-4 4-4 6 1 4 5 1 8-2a10 10 0 000 2l3 1a3 3 0 00-1 1v3h11v6a2 2 0 001 1c-2 0-3 1-4 3a5 5 0 00-3-2c-2-1-3 0-3 1-2-2-5-4-7-2s2 4 4 5c-1 1-3 2-3 4s2 2 3 1c-2 2-3 4-3 7 4 1 5-4 8-6l-2 7 2 3c2 0 3-3 4-5 0 3 2 6 5 6a1 1 0 001 0v-5a5 5 0 002 0c3 0 3-3 4-5a2 2 0 002 1 6 6 0 004-3 5 5 0 000 4 1 1 0 002 0l2-3 1-3c0 3-2 6 1 9a4 4 0 001 0l-5 2v3h5c-3 2-5 5-2 7 3 1 7-5 8-8v5c1 2 2 3 4 3s3-3 3-5c1 2 3 4 5 4s2-1 2-3c2 2 4 3 5 2 4-2 2-6 0-8l3-1a5 5 0 001-3l-4-2a9 9 0 011-2v1c5 4 9 0 14-1-1 2-3 4-3 8a1 1 0 001 1c2 0 4-3 6-4 0 2 2 5 4 5 3 0 3-5 3-8a1 1 0 002 0v-5c2 1 4 2 6 1a2 2 0 001-2 7 7 0 003-1c-1 1-2 3-1 4a3 3 0 001 1c-2 2-4 4-2 5 2 2 5-1 7-3 0 2-1 5 1 5l4-2a5 5 0 001-3 2 2 0 002-1v-5a4 4 0 003-2 6 6 0 003 2 5 5 0 003 1 11 11 0 002 1c-4 0-7 1-7 5s2 3 5 2a15 15 0 00-4 5 1 1 0 001 1 17 17 0 006-2l-1 4c3 3 8-1 10-4 0 2 0 3 2 4 2 0 3-3 3-5h-1c-3-1-5-5-1-7v-1c-3-2-3-3-1-3a6 6 0 012 1 21 21 0 002 1 1 1 0 001 0 9 9 0 000-1 8 8 0 011-1c1-1 2 0 2 1l1 4a1 1 0 001 0l3-5a4 4 0 012-1c1-1 1 1 1 1a8 8 0 01-2 5 1 1 0 001 1l5-5a4 4 0 013-2v4a11 11 0 01-2 2l-2 3c-1 1 0 1 1 1l2-2 1-2c1-1 5-3 3 0l-3 6a1 1 0 00-1 1v1l4-2a9 9 0 012 0c3 0-1 4-1 4v1a8 8 0 00-2 4 1 1 0 001 0c4 2 8-4 11-7 0 2-1 6 2 7 3 0 3-2 5-3 1 1 2 3 4 3 1 1 2 0 2-1a2 2 0 002 1 3 3 0 003-1h3c2 0 3-2 4-4a3 3 0 003 2c3 1 4-3 5-7 0 1 1 2 2 0a5 5 0 001-3 19 19 0 003 2h1a19 19 0 01-4-3 4 4 0 010-1 6 6 0 00-1-1l1-2 2 1a17 17 0 015 4 1 1 0 002 0 10 10 0 011-4c1-1 2-1 2 1a12 12 0 010 1v3l1 1a6 6 0 014-2c3 0 0 3-1 5h-1v1a7 7 0 00-4 4 1 1 0 001 1l9-2 1 2a6 6 0 005-4l1 5c0 1 1 2 3 2s5-3 6-6a4 4 0 003 4c2 1 4-2 5-4 1 3 2 5 5 6 3 0 4-4 5-7a6 6 0 006 3 4 4 0 003-2 4 4 0 002 3 3 3 0 003-1 4 4 0 001-1 7 7 0 014-4 15 15 0 01-1 5h1c1-1 3-3 5-3s0 3-1 4l1 1c1-2 6-6 7-3a1 1 0 001 0l2-1a3 3 0 013-1 9 9 0 010 3 1 1 0 002 0c1-2 7-7 7-1a1 1 0 001 0c0-1 1-3 3-2a1 1 0 001-1c-1-2-3-3-3-5-2-4 3-5 4-1h1a14 14 0 010-2 6 6 0 011-1c0-2 1-1 2 0l1 4a1 1 0 001 1l3-4c2-3 1 2 1 3a14 14 0 01-1 2 1 1 0 001 1 16 16 0 013-2s3-2 3 0l-3 4h1l2-1c1 0 5-2 5 1l-2 4v1l9-5-3 6 3 1a7 7 0 002-2l4-4c0 2-1 4 1 5 3 1 4-1 5-3 2 1 3 3 6 3l2-4c1 2 3 2 4 1s1-4 0-5c2 0 5 0 4-2l4 1a5 5 0 000 4h4c-2 2-3 3-3 5 3 2 5 0 7-1l1 4 6-3 1 2a2 2 0 003 1l1-4c2 2 4 6 6 5 3-2 3-4 1-6l2-2a10 10 0 00-5-4 3 3 0 003-2 3 3 0 000-1 15 15 0 002 1c1 0 4 1 5-1 1-1 0-2-1-3a3 3 0 002-1c1-1 0-2-1-3a5 5 0 005-1c1-1-1-2-3-3l7-3a15 15 0 005-6c1-1 0-3-1-3a4 4 0 00-3 0c2-1 3-4 1-5h-3c1-1 2-2 1-3a6 6 0 00-4-2 15 15 0 005-5l-1-3a3 3 0 00-2 0 5 5 0 001-5 4 4 0 00-2-2 4 4 0 003-1c1-2 1-3-1-5a2 2 0 002-1v-6c2 1 4 2 5 0s0-4-2-6l4-2c0-1-2-3-4-3zm-127-27a3 3 0 010 1 7 7 0 010 1h-1l1-2zm-225-14a2 2 0 01-1 1 5 5 0 00-2 1 4 4 0 001-2h2zm67 117a12 12 0 01-1 1h-2v-2a4 4 0 003 1zm-43-13a2 2 0 01-1-1 4 4 0 010-3 23 23 0 011 3 3 3 0 010 1zm150-90a7 7 0 001-1 8 8 0 001 0 5 5 0 00-2 1z"/><path class="cls-5" d="M88 280a5 5 0 00-5 1c3-6-3-9-7-5-2-6-11 3-6 9-3-1-8-5-11-2-3 4 3 7 6 7a13 13 0 00-3 3c0-3-4-1-6-1-3 2 4 3 6 2-2 4 6 2 7 0 1 0 3-2 2-4a2 2 0 002-1 3 3 0 003-1c0 6 11 8 5-1 3 1 13-5 7-7zm-24 6h-1 1zM40 304c0-1-12 9-4 7 3 0 5-2 6-5s-1-5-2-2z"/><path class="cls-5" d="M45 306c-3-3-3 2-3 4 1 6 7 1 3-4zM40 301c-6-4-6 6-2 3 1 0 3-2 2-3s1 0 0 0zM52 310c0-1-2-3-2-1-1 4 3 2 2 1zM141 283c3-3-6-3-6-2 2-6-6-2-7 0 0-2-3-9-5-4-1 1 1 7-1 7l-2-6c-3-3-9-1-5 3-8 1-5 9 3 5-3 3-8 1-11 5-5 8 13 1 7-1 2-1 3 4 6 1 0 3 6 8 8 5 3-2 3-8 1-11 2 1 1 3 4 4 4 1 7-2 3-5a6 6 0 005-1zm-14 1a2 2 0 01-1 2l1-2c0 1 0 0 0 0z"/><path class="cls-5" d="M108 286c-3-2-14 1-10 4 3 2 12-2 10-4-1 0 1 1 0 0zM106 280c-2 0-8-2-7 2 0 2 6 3 5 1 1 0 4-2 2-3zM56 250c-4-2-17 3-11 6 4 2 13-4 11-6-3-1 1 1 0 0zM39 259c-2 1-11 7-7 8 5 2 10-8 7-8z"/><path class="cls-5" d="M41 263c-1 1-4 2-3 4 0 2 3 1 3 0v-4c-1 1 0-1 0 0zM40 256c-2-1-5-3-6-1a2 2 0 000 3c1 1 8-1 6-2zM48 205l-3-1c0-2-4-4-6-4s-6 2-3 4c2 2 5 0 6 1-3 1-6 1-8 4-4 4 5 2 6 2-1 6 10 1 8-6 0 0 1 4 0 0zM42 196c-4-6-10-1-6 1 1 0 7 0 6-1zM42 185c-1-1-4-4-6-3-7 5 10 6 6 3zM101 292l-6-3c1-2 0-3-1-2-1-4-4-1-5 2-1-1-5-2-4 1 0 2 4 4 4 1a5 5 0 001 1c-6 1-10 9-3 6-3 6 2 8 5 2 2 7 9 0 4-6 1 0 6 1 5-2-1-1 0 1 0 0zM153 282c-1 1-8 6-4 7 5 2 6-10 4-7zM247 297c-2-2-11-4-8 1 2 4 11 1 8-1-1-1 1 0 0 0zM237 303c-1-2 0-5-4-4-2 0 0 5 1 5 1 2 4 1 3-1zM243 303c-2-3-6-2-3 1 1 3 5 1 3-1 0-1 0 0 0 0z"/><path class="cls-5" d="M247 263h-1c1-2 1-6-3-5a8 8 0 00-4 2c-2 3-1 5-4 2 2-1 10-6 5-9a5 5 0 00-4 0c-1-3-3-3-5-2 7-8-5-4-8 0 1-2 3-6 0-8-3-3-6 3-8 5-1-6-7-12-7-3-2-2-8-2-6 3 2 3 5 7 9 7a5 5 0 01-1 3c-3-6-13-8-8 0-3 0-6-2-9-1-4 1 0 4 2 4 3 1 13-2 13 3-2-1-6-3-8-2-7 1-1 6 2 7-1 0-10-1-8 4s10 1 13 0c-2 1-7 4-5 7 3 4 9-3 11-5-1 9 8-2 9-3a7 7 0 004 4c-3 2-2 5-2 7-4-2-12 1-6 5-8-2-8 6 1 5-10 2-6 7 2 6-2 2-5 9 1 6l9-5a6 6 0 003-4 28 28 0 006-2c1 0 6-2 3-3 7-5 3-10-3-3 1-2 3-5 2-8s-4 0-5 1c-1-4-5 2-5 2-1-2-2-7-5-7 3-2 0-6-1-9l3 1a5 5 0 003 4 23 23 0 008 3c3 0 6-1 5-5 3-1 7-5 2-7zm-29-8h-1l2-2a2 2 0 001 2h-2s1 0 0 0zm19 31l1-2a22 22 0 00-2 4c-1 0-1-1 1-2 0-1-1 1 0 0zm6-19a1 1 0 01-1 0l4-1a12 12 0 01-3 1zM236 207c0-3-4-3-6-3 2-2 2-6-2-5-3 0-2 2-5 0h-7c1-6-6-4-9-3 6-8-3-8-8-3 2-8-5-9-7-1-2-5-7 1-7 4-2-1-5-1-6 1-1-3-3-7-7-8-3-1-4 3-3 5-7-2-8 5-2 9a18 18 0 00-9 1c-5 2-2 5 2 6-6 3-6 10 2 7-1 7 9 2 11 0 0 6 5 7 8 3 1 7 8 4 9-1 3 4 8 4 11 0 2 3 4 7 8 7s7-5 6-9a14 14 0 006-1c3-1 4-4 6-4-4 1 3 3 4 4-5 1 0 4 2 2 5-3-3-6-5-6 3 0 9-1 8-5 0-2 1 3 0 0zM350 222c0-3-3-3-6-4 5-4 4-10-3-8 3-5-5-5-8-4 2-6-4-5-8-3 3-6-2-12-8-6-1-6-8-1-9 2-3-9-10 0-10 5a6 6 0 00-6-1c-4 1 0 6-3 7 0-4-5-3-8-1 3-7-3-10-6-4 0-4 0-9-3-11-4-4-6 2-7 5-2-2-6-4-9-4 2-6-5-7-5 0 0 2 2 4 4 3l3 7c-4-1-7 4-5 8-6 1-7 7 0 8-7 6-1 10 7 10a4 4 0 001 4l-5 5c0 4-2 0-5-1-6-3-9 4-2 7-5 5 0 9 5 8-6 6 2 9 7 5 1 7 9 4 12 1-2 4-5 7-5 11 1 7 8-5 8-6 0 2 1 7 3 7 4 1 1-7 1-9 3 1 1-1 2 2 1 2 3 4 5 2s-1-5-1-6l2-6c5 6 13 5 11-4 2 1 2 3 5 4 3 0 4-2 2-4 7-2 9-9 2-14 9-3 2-9-3-4l-1-7c1 0 1 5 4 4 3 0 3-4 5-6 0 5 2 12 7 14-2 0-5 4-3 6s9-4 10-6c5 7 10 2 8-5l5 2c4 0 7-5 4-8 3 0 6-1 6-5s0 4 0 0zm-51 4c2 0 3 1 3 3a24 24 0 01-3-3c1 0 1 0 0 0zm24 11a2 2 0 011-3q2 2 0 3h-1z"/><path class="cls-5" d="M359 264l-1 1c0-2-1-5-3-5 5-8-2-11-7-4 1-11-8-7-11-1-1-4-5-5-8-1-1-4-6-7-7-2s0 10 1 14a15 15 0 00-7-9c-2-1-10-3-8 2-3-1-7-2-8 2-1 3 3 7 5 9-3 0-8-1-9 3 0 4 9 3 11 3l-11 5c-5 5 1 7 5 5-5 6 5 6 8 4-1 3 0 5 2 5 3 1 6-2 7-4 0 1-3 9 2 8 3-1 4-8 4-11 2 1 4-1 6-3 1 4 5 1 6-1 1 3 9 10 9 2 6 5 15 1 8-6h8c5-3-2-6-4-7 3-1 7-2 8-5 1-4-4-4-6-4zM259 235c-1-3-8-6-9-2s10 4 9 2c-1-3 0 0 0 0zM247 224c5-6-7-2-7-1a2 2 0 00-2 3c1 3 7 0 9-1-1 0-9 6-3 6 4 0 6-8 3-7 1-1 1 0 0 0zM251 198c0-2 0-6-3-7-4-1-4 4-3 6-3-3-12-1-5 3-1 1-6 4-2 5 3 1 6 0 8-1 4 0 6-2 5-6 0-1 0 1 0 0zm-6 1l1-1a4 4 0 001 2l-2-1zM104 202l-7-4c5-4 5-11-2-7 1-3-2-7-5-4 0-5-6-6-7-1 0-7-7-11-7-1-5-8-7 2-4 7-3-1-8-1-6 4l-4 2-3-1c-2 0-13-1-12 4s11 2 13 1l-1 3c-1 2-3 6 0 7 2 2 8-5 5-7 3 0 2 4 7 4-2 3 1 5 4 3a39 39 0 008-6c-1 8 6 6 6-1 3 4 9 6 7-1a18 18 0 007 2c2 0 3-3 1-4s2 1 0 0zm-51-2a16 16 0 014-1 19 19 0 01-4 1zm30-1v-1 1zm0-4v-3a7 7 0 001 3h-1c0-1 0 0 0 0z"/><path class="cls-5" d="M156 200c2-8-9-4-12-2 0-4-5-2-6 0-3-10-9-3-6 4-6-5-10-9-15-1 0-2-3-10-6-5 0-4-4-3-5 0-2 4 0 9 3 11-2 1-4 3-3 5-5-3-12 12-13 15a18 18 0 00-1-11c-2-6-8 3-9 5 3-5-8-14-9-3-1-1-3-3-6-2l-2-4c-4-1-1 6-1 7-1-2-9-7-8-1 1 3 6 4 8 3a14 14 0 001 3c-2-1-9-1-9 3-7-7-2 6 0 2a9 9 0 002 3c-3 0-3 1-5-1a16 16 0 00-8-1c-6 0-4 6 1 7-5 5 8 5 5 1l4 4c-6 4 1 9 5 9-3 1-6 3-7 6-3 5 5 2 7 2l-2 3c-2-4-12 4-10 8s7-1 9-2c3-2 5 2 9-2 0 6 4 4 6 1 1 4 7 8 9 3 2 6 7 5 9 0a5 5 0 004 2c-1 2-2 6 2 6 4 1 4-5 4-8 1 1 4 5 6 3a4 4 0 00-1-4 3 3 0 002-4c2 0 5 5 6 6 6 3 3-8 2-10 3 1 3 0 5 2a12 12 0 005 3c6 2-1-9-2-10 5 1 12-4 5-8 4-3 3-8-1-9 6-11-9-4-12-2 3-3 9-7 9-13-1-5-10 0-12 1 0-3-2-9-6-6v-6c3 2 6-2 8-4-1 6 6 10 6 2h6c-2 3-6 6-4 10s9-4 10-5c0 2 1 4 3 4a3 3 0 004-2c1 1 3 3 5 2 2-2 5 0 7-4 2-2-1-5-3-6 2 0 8-3 3-5 2-1 4-3 4-5 1-3 0 1 0 0zm-36 7l4-2a6 6 0 00-4 2s1-1 0 0zm15-6l-1-3 2 7a9 9 0 01-1-4c-1-1 0 1 0 0zm10 11l3 2a4 4 0 01-3-2z"/><path class="cls-5" d="M183 263a9 9 0 00-4 0c4-6-6-2-8 0 0-2 2-8 0-10-3-2-5 4-5 6l-3-7c-4-3-4 3-4 5-1 0-4-1-4 2a44 44 0 00-3-3c3-1 4-5 5-8 2 2 8 2 6-2 4 1 6-1 3-4 3-2 9-8 2-10-4-1-1-5-6-4l-8 6c-3-7-11-7-9 1-6-2-7 5-2 8-2 0-5 2-3 5 2 2 6 1 8 0-1 1-2 4-1 6 2 4 0-2 0 3 1 4 6 3 7 4-1 0-3 2-2 4-9-1-10 6-1 7-1 0-5 2-2 4-1 0-8 2-4 4 3 2 7 0 10-1-3 5 5 4 7 1 0 2 1 4 3 2 2-1 2-6 3-8 0 1 5 10 7 4 1-3-3-2 2-4 2-1 3-3 0-4 2 0 11-5 6-7zm-28-22h-1a1 1 0 000-1l1 1zm12-4h-2 2s-1 0 0 0zm-5-5c-1 2-4 2-5 3a15 15 0 015-3s-2 0 0 0zm-12 1a2 2 0 00-1 0h1s-1-1 0 0zm21 42l1 2-1-2s0 1 0 0z"/><path class="cls-5" d="M181 238c-2 0-7 1-8 3-4 3 4 3 5 3 2 0 4 0 6-2 3-2 0-4-3-4zM181 246c-1 0-13-4-9 2 3 4 11-1 9-2zM179 234c-4-1-5 4-1 3 1 0 4-3 1-3zM202 227c-3-4-5 8-5 9-1 3 3 1 3 0 2-2 4-6 2-9 0 0 1 2 0 0zM193 229c-2 1-5 8-1 6 2 0 4-7 1-6-1 1 1 0 0 0zM208 233l-2-2c-4 0 2 6 2 2 0 0 0 1 0 0zM198 252l-6-3c-4 1-2 4 0 5 2 2 8-1 6-2zM191 277c-2-3-14-5-12 1 2 4 15 2 12-1zM285 278c-4-1-16 5-8 7 3 0 13-6 8-7zM286 286c3-3-6 0-7 2-3 7 12-3 7-2 0 0 1 0 0 0zM291 291c2-3-4-3-5 1-1 3 6 2 5-1 1-1 0 0 0 0zM257 273c-2-1-8-1-8 2 1 5 12 0 8-2-1-1 1 0 0 0zM171 284c-3-4-4 0-3 3 1 6 7 2 3-3zM177 284s-4-1-3 1c1 1 2 4 4 3s0-3-1-4c0-1 1 1 0 0zM305 296c-3 1-10 8-6 10 4 3 10-10 6-10zM300 296c-1-3-7 2-4 3l4-3zM336 293a4 4 0 00-2-2h-1c-1 1-2 1-2-1-2 0-3 1-3 2-1 3-2 5-1 8 3 5 5-2 5-5 3 5 7 3 4-2 0 0 1 1 0 0zM374 211c-1-3-3-3-5-3 3-1 3-3-1-3 1-3 1-7-3-5 0-5-4-5-6 0 1-10-11-9-6 1-2-1-7-2-5 2 1 3 4 3 4 5 1 1-1 4 1 5 3 2 6 0 9 0-1 3 0 10 4 6 2-3-1-5 3-5 2 0 5-1 5-3zm-15-10v1a12 12 0 01-1-1h1zm1 8l-2-1c2 0 2-2 2-4v5c-1 0 0 0 0 0z"/><path class="cls-5" d="M347 204c3-4-9-9-7-3 1 5 9 6 7 3 0-1 0 0 0 0zM421 230c2-2 6-7 3-9-2-2-7-1-9 0 1-2 3-5 2-8-1-4-7 0-9 1 0-5-3-11-9-5-1-3-5-8-7-3a8 8 0 00-1 5c-3-1-4 4-3 6-8-2-8 6-2 8-4 0-6-2-11 0-1 0-2 3 0 3 2 2 5 1 8 1-1 1-7 3-6 6s7 1 9 0c-8 6-1 10 5 6 0 1 1 3 3 3-2 7 6 11 9 4 6 8 22 4 15-6 3 0 9 1 11-3 2-5-4-9-8-9 2-2 5 1 0 0zM371 223c-2-2-8-3-8 1 0 5 9 1 8-1zM362 233c-2-2-5 1-7 2 1-1 0-5-2-4-3 1-9 6-7 10 1 4 7 2 9 0s11-5 7-8c-1-1 1 1 0 0zM365 240c-3-1-14 5-9 7 3 2 14-5 9-7zM342 235c-3 2-3 8 1 6 0-1 2-7-1-6-1 1 2 0 0 0zM366 249c-2-1-10 0-6 2 2 2 8-1 6-2s1 0 0 0z"/><path class="cls-5" d="M467 211c-1 0 6-8-2-6 2-6-3-5-6-2 3-8-2-10-5-2-2-1-2-3-5-2a16 16 0 00-6 3c1-2 4-7 1-9s-7 7-8 9c1-3 3-12-1-14-5-2-5 7-5 9-1-1-3-3-4 0-3-3-6-3-6 1-3-1-7 1-5 5 1 8 12 2 15 5-2 0-7 1-8 3-1 3 4 4 6 4-6 6 0 11 6 5-1 4 3 5 5 2 1 5 7 5 9 1 2 2 4 2 5 0 2 2 5 3 6 0 3 1 6-1 5-4 4 0 7-5 3-8 0 0 2 2 0 0zm-29 6a18 18 0 012-3l-2 3s1-1 0 0zm5-10c1-1 3-4 6-5a47 47 0 01-6 5z"/><path class="cls-5" d="M413 201l-4-2c-3 0-6 3-3 4a8 8 0 006 1c1 0 4-3 1-3zM473 227c-2-2-11-3-11 0-2 6 15 3 11 0-2-2 1 0 0 0z"/><path class="cls-5" d="M468 234c0-3-9-4-7 0 1 3 9 3 7 0 0-1 0 0 0 0zM459 237c0-1-3-5-3-2-1 5 4 3 3 2 0-1 0 0 0 0zM283 188c-3-4-9 5-6 8 3 4 7-5 6-8-1-1 0 1 0 0zM276 186c-2-3-7 6-3 5 2 0 4-3 3-5 0 0 0 1 0 0zM434 266c-1-5-9-3-11-1 1-5-3-10-7-5-2-9-10-5-5 1-2-1-5-1-5 1 0-3-3-6-6-2-1-7-8-5-8 1-1-4-2-8-6-10-6-3-4 5-3 8-4-2-10 3-5 7-3 1-9 5-4 7-5 2-1 6 3 6-7 6 0 7 5 5-2 5 4 8 8 4 0 3 1 6 4 6 4 1 6-4 8-7 0 2 1 9 5 8 3-2 1-9 1-12 2 1 3-1 4-3 3 3 9 5 10 0 2 1 7 3 8 1 3-3-2-8-4-9 3 0 9-2 8-6s0 3 0 0z"/><path class="cls-5" d="M388 292c-3 0-9 6-6 9 4 3 10-9 6-9zM400 296c-1-3-4 2-4 4 0 6 6 1 4-4 0 0 1 2 0 0zM416 291c0-4-6-6-5-3 1 2 0 4 2 6s3-2 3-3 0 1 0 0zM469 265c-1-3-5-3-7-5 3-1 9-6 4-9 2-2 5-7 0-6-3 0-2 2-5 0-2-1-3 1-4 2 0-4-3-7-6-3 0-2 1-7-3-8-6-1-1 8 0 9-3-3-10-4-8 3-2-1-8-5-9-1-1 3 5 4 7 4a4 4 0 00-1 6c-2 0-10 1-8 5 2 2 8 1 10 0-1 5 4 4 7 3-2 6 5 10 7 3 4 5 7 2 6-3 2 0 11 2 10 0 0-1 1 1 0 0zM458 292c7-2 5-17-6-10 1-3-1-6-4-4l-5 6 1-6c-1-3-3-3-5 0a16 16 0 00-1 6l1 6c-2-2-6-6-9-7-6 0-1 7 1 8-3 1-7 1-8 5-1 5 9 2 11 1-3 6 3 7 6 3l2 3c2 2 5 0 5-2 5 3 6-2 10-2 6 0 6-4 1-7 1 0 4 3 0 0zm-26-4c-2-2 2 0 3 1a30 30 0 01-3-1zm22 7h2-2z"/><path class="cls-5" d="M438 271c-3-5-6 5-5 6 0 7 8-1 5-6-1-1 1 2 0 0zM462 273c-3-3-2 3-1 4 4 4 4-2 1-4 0-1 1 1 0 0zM459 309c-1-3-11-6-8-2l3 4c1 1 7 1 5-2zM463 303c-1-1-6-3-5 0 0 4 8 1 5 0zM466 287c-4 1-3 4 0 2 1 0 2-2 0-2zM376 287c-2 0-9 5-6 8 4 3 9-7 6-8zM375 259l-5-2c-2 0-2 3 0 4 1 1 8-1 5-2zM380 243c-1-4-7-1-7 2 0 4 5 0 6 0l1-2c-1 0 0 1 0 0zM466 269c-1-1-6-3-5 0s6 2 5 0c-1-1 0 1 0 0zM474 200c-3 0-6 6-3 6 3 1 6-6 3-6z"/><path class="cls-4" d="M449 276c-1-2-2-2-4-2a7 7 0 001-1 2 2 0 00-2-4l-1 1h-1a11 11 0 00-2 0v-1a10 10 0 001-6 2 2 0 00-1-1 9 9 0 00-6 3 12 12 0 00-1-2c-1-2-3-5-6-4-2 1-1 5-1 6v2a15 15 0 00-1-1c-2-2-6-2-6 2-1 2 2 3 3 4a9 9 0 006 2 1 1 0 002 0 2 2 0 001-1h2l4-6-3 4a2 2 0 003 3 1 1 0 001 1h-1a2 2 0 003 3 2 2 0 001 0h1-1a1 1 0 000 1 2 2 0 010 1 2 2 0 001 0 2 2 0 002 1c2-1 6-2 5-5z"/><path class="cls-4" d="M441 280a1 1 0 000-1v1zM424 274c-3-2-6-3-9-2-2 0-2 2-1 3 2 2 5 1 8 1a1 1 0 001-1l1 1a1 1 0 000-2zM452 279a2 2 0 00-1-2 1 1 0 00-2 2 2 2 0 00-1 1 1 1 0 000 2c1 1 3 0 4-1a2 2 0 000-2zM353 273a2 2 0 00-3 0c-2 1-2 5-2 7l-1-1c-2-2-3-3-6-2-2 1-1 5 0 6a8 8 0 000 1c-2-2-5-4-8-4-3 1-3 4-1 5a6 6 0 006 1 1 1 0 001 0 12 12 0 013 2c0 1 2 0 1-1v-1a14 14 0 004 3 2 2 0 002-2 3 3 0 001 1 2 2 0 003 0l1-6c1-3 1-7-1-9zM365 284h-1a7 7 0 001-3 2 2 0 00-3-2c-2 1-6 2-7 5a7 7 0 00-1 3 2 2 0 002 2 2 2 0 001 1 3 3 0 002 0 2 2 0 002 2c3-1 7-3 7-7 0-1-2-2-3-1z"/><path class="cls-4" d="M346 291c-3-2-7-5-11-4a2 2 0 00-1 3 5 5 0 000 1 8 8 0 00-4-2 3 3 0 00-4 5c2 3 8 3 10 0a2 2 0 000-1 10 10 0 004 0 1 1 0 001-1 16 16 0 013 1 1 1 0 002-2zM328 297l-1-1h-3l-3 2a2 2 0 001 3c1 1 4 0 6-1a1 1 0 001-1 1 1 0 00-1-2zM371 288c-2 0-4 1-4 3a1 1 0 000 1c0 2 1 3 2 2l3-5a2 2 0 00-1-1zM436 299a1 1 0 00-2 0v-1a2 2 0 00-2-1 1 1 0 00-1-1 4 4 0 00-1 0 2 2 0 00-1 0 13 13 0 00-3 0 2 2 0 001 0 1 1 0 000-3c-3 0-5 0-7 2-2 1 0 3 1 3a9 9 0 003-1 6 6 0 00-3 4l1 3a6 6 0 005-1 6 6 0 00-1 1c0 2 2 5 4 4s3-3 3-5l1-2c-1 2-1 4 1 5a2 2 0 003 0c1-3 0-5-2-7zM443 296a1 1 0 00-1 0 5 5 0 00-1-1 4 4 0 00-2 0h-1a2 2 0 00-1 3 4 4 0 005 1 2 2 0 001-3zM280 279a3 3 0 00-2 1 4 4 0 000-3c-1-2-4-2-5 0h-1a5 5 0 00-1-4 2 2 0 00-2 0c-2 2-2 5-1 7a12 12 0 00-2-3c-2-2-5-3-7 0l2 4h-2l-5-1a2 2 0 00-2 3 5 5 0 003 3 4 4 0 00-3 2 2 2 0 003 3 5 5 0 001 0 2 2 0 002 2c3 0 7-2 6-5a1 1 0 000-1 1 1 0 00-1-1 4 4 0 00-3 0 21 21 0 003 0 2 2 0 002 0 1 1 0 001-1 3 3 0 000 1 1 1 0 002-2 2 2 0 001 0 1 1 0 001 0 2 2 0 000 2 1 1 0 00-1 1c-2 1-4 4-2 7a2 2 0 003 0 4 4 0 001-3 3 3 0 000-1l1-1a2 2 0 00-1-3 2 2 0 001 0 3 3 0 001 0 1 1 0 002 0 2 2 0 010-1 2 2 0 002 2c3 0 8-6 3-8zM187 282a2 2 0 00-2 0 8 8 0 00-2 2 4 4 0 00-2-4 20 20 0 001-2c1-3 1-5-1-7a2 2 0 00-1-1c-3 1-4 3-5 6a5 5 0 00-2-2 3 3 0 00-3 1c-2-3-5-9-8-5-2 3 0 6 2 8a15 15 0 001 1 13 13 0 00-3-1c-2-1-5 0-5 2s2 3 4 4a18 18 0 002 0h2a2 2 0 002 0h1c2 1 3-1 1-2a6 6 0 001 0 1 1 0 003 0 8 8 0 000 2 2 2 0 003 1 4 4 0 002 2 2 2 0 003 1 5 5 0 001-2 3 3 0 000 1 2 2 0 001 1 2 2 0 002 0c3-1 4-4 2-6z"/><path class="cls-4" d="M169 286c-3-1-8-3-10 1a2 2 0 001 2c1 2 3 1 5 0a1 1 0 001-1 14 14 0 012 0c2 1 3-1 1-2zM197 280c-1-2-4-1-5 0-3 2-1 7 1 8a1 1 0 002-1 7 7 0 002-3v-4zM205 285h-1a5 5 0 001-3 2 2 0 00-1-1c-4-1-6 3-7 6a1 1 0 002 1 2 2 0 001 1 2 2 0 001 0 2 2 0 003 0 6 6 0 002 0 2 2 0 00-1-4zM115 287c-2-2-6-1-8 1a2 2 0 001 3 11 11 0 006-1 2 2 0 001-1 1 1 0 000-2zM106 291a1 1 0 00-1 0v-1a2 2 0 00-2 0 2 2 0 00-1 3c0 1 3 2 4 1a2 2 0 001-1 2 2 0 00-1-2z"/><path class="cls-4" d="M134 284a2 2 0 00-2-1 5 5 0 00-3 1l1-4a9 9 0 000-5 2 2 0 00-3-1 10 10 0 00-3 5 1 1 0 00-1 1 3 3 0 00-1 1c0-5-2-13-7-11a3 3 0 00-2 3 4 4 0 00-2-1 2 2 0 00-2 3 7 7 0 001 3 8 8 0 00-1 0c-3 1-4 4-2 6s5 2 7 1a6 6 0 001 1 1 1 0 001 1 2 2 0 004-2 3 3 0 00-1-3 3 3 0 000-1v1a2 2 0 001 0 1 1 0 002 1c-1 2 0 4 3 3a2 2 0 001 0 3 3 0 001 0 2 2 0 002 2 2 2 0 003 1 5 5 0 002-2 4 4 0 000-3z"/><path class="cls-4" d="M141 284a2 2 0 00-3-1 5 5 0 00-1 1 8 8 0 00-2 1 4 4 0 00-1 3 1 1 0 003 0v-1a2 2 0 004 0 5 5 0 000-3z"/><path class="cls-6" d="M112 230a35 35 0 00-5 3c4-19-12-1-5 5 2 1 3 4 6 1 2-1 9-12 4-9zM157 234c2-1 7-6 3-8-4-3-5 4-7 5 2-8-7-9-7-1-5-9-15-4-9 1-6-1-9 4-2 5-4 3 1 6 5 4-11 10 3 4 6 5-3 8 5 6 6-2 2 1 2 5 5 6 3 3 2-5 1-7 4-1 2-6-1-8 1 0 3 2 0 0zM287 248v0zM296 222c0-3-4-2-5-2 3-9-6-9-8-1-2-8-6-5-6 2-3-2-2-7-7-9-5-1-3 7-3 9-2-1-5 0-4 4-6-3-9 3-2 6-2 1-4 3-2 4-7 1-7 9 1 7-1 1-17 1-12 7 1 1 15-1 17-2-2 3-4 1-7 5-6 6 2 7 6 3-3 5 3 4 5 1 0 7 7-1 8-4 2 7 9 3 6-3 5 4 4 0 0-3s-4-1-8 0c2-5-3-4-6-3 2-3-1-2 1-5 3-4-4-2-5-2 5-2 8-5 10-8-1 3 2 4 3 1 2 1 7 5 7-2 3 1 0 4 1 5 3 5 11-7 10-10zm-27 27c1 0 0 2 2 2-1 2-2 0-4 1l2-3s0 1 0 0zM358 230c-3 1 2-9-6-3 1-6-3-4-6-2 0-7-6-14-8-4-6-4-3 5-2 7-7-5-16-3-6 5-9 0-10 7-1 6a21 21 0 009-3c1-1 0-6 4-3s4 4 9-1c-5 5 4 3 4 3-1 7 13-6 3-5zM332 260l-2-1c2-5-5-2-6 1-1-5-7-10-7-3-3-5-8-2-6 4-5-1-10 7-3 7-6 3-2 8 3 5-2 3-1 14 4 8 4-6 0-9-2-11 2-1 10-4 11-7l2 5c2 2 11-7 6-8zM68 252c-1 0-10 1-5 3 4 2 8-3 5-3zM122 235c0-5-9 0-8 5 0 1 9-1 8-5 0-1 0 2 0 0z"/><path class="cls-6" d="M109 244c-1-5-15-5-15 0l-2 1c-1-3-6 0-8 1 0-2-5-7-7-8 2-1 3-2 2-4a2 2 0 00-2 0c1-1 7-3 5-5 1 1 11-5 10 0-1 6 8-4 8-5 5-7-3-5-6-2 2-9-5-16-6-4-3-6-6 0-2 5-3-1-12-14-8-1-1-2-8-11-10-6l1 9c-6-3-10 2-4 5-9 0-7 7 1 6-2 3-1 6 3 6-12 9 5 3 5 3-1 2-5 7 0 7-11 4 1 11 5 4 1 8 7 12 11 1 2 9 8 1 7-5 9 9 13 2 3-5 2 0 10 2 9-3-1-3 1 4 0 0zm-32 7c-3 1 3 0 0 0 0 1 1 0 0 0zm2 4c0-2 0-3 0 0 0-1 0-1 0 0z"/><path class="cls-6" d="M101 259c-3-3-3 3-4 3a1 1 0 000-2c-4-2-4 12 1 6 1 9 10-1 3-7-1 0 2 2 0 0zM115 262c0-2-7-9-8-5 0 6 9 11 8 5 0-2 0 2 0 0zM123 253c0-2-15-7-13-3 2 7 11 7 13 3 0-1-1 0 0 0z"/><path class="cls-6" d="M118 247c0-1-2-4-4-2-3 4 7 4 4 2 0 0 1 0 0 0zM76 263c-2-2-9 4-7 6 2 4 9-3 7-6-1 0 0 1 0 0zM63 238c-2-1-14-3-11 3s13-2 11-3c0-1 1 0 0 0zM119 217c-5-5-9 6-10 8-4 4 17-2 10-8zM162 266c0-3 0-8-3-9-3-4-5 2-4 4-5-4-16-2-8 4-6-1-10 5-3 6-12 8 17 6 8 0 2 0 6-2 5-5 1 1 6 4 5 0 0-1 0 1 0 0zm-13-5a13 13 0 013 2c-1 1-2 0-3-2 0 0 0 1 0 0zM169 255c-2-4-5 5-5 6-1 9 11 0 5-6zM177 260c1-3-7 0-6 4 0 6 9 0 6-4 0-1 1 1 0 0z"/><path class="cls-6" d="M142 261c-1 0-11-4-7 2 2 4 9-1 7-2zM161 217c-1-3-6 5-6 5-2 7 10 0 6-5 0 0 0 1 0 0zM147 218l-2-1h1c1 0-2-5-4 0-2 6 9 9 5 1 0 0 0 1 0 0zM145 217c1 0 0 0 0 0zM181 266c-8 0-9 9-3 5 0 0 6-6 3-5zM137 272c0-3-9-2-6 2 2 3 9 0 6-2 0 0 0 1 0 0zM78 278c0-8-6-2-5 3-1-1 1-3-2-4-5-3 0 12 3 6 3 4 4-4 4-5s0 1 0 0zM69 286c-3-1-4-6-7-5s1 5 2 6c4 3 7-1 5-1zM85 278c-4 0-7 8-2 7 3 0 6-8 2-7zM86 286c-6-1-7 4-3 4 1 0 5-3 3-4-2 0 0 0 0 0zM95 292c-2-2-5 3-5 4 1 5 8-1 5-4 0-1 1 1 0 0zM214 249c3-9-8-13-5-3-2-2-8-2-7 2 0 3 7 4 7 0 2 4 4 4 5 1 0-1 0 0 0 0zM202 254c0-4-7-3-7 0 1 5 10 2 7 0 0-4 1 0 0 0zM205 271c0-2-3-1-4-1-3 2 4 6 4 1zM275 204c-3-4-4 6-4 5-6-8-7 7 1 4 4 4 4-6 3-9-1-1 1 2 0 0zM320 205c-2-2-4-1-6-2-3-2 3-4-1-7-2-2-6-5-8 0-1-5-6-7-7-1-3-5-10-3-7 3-5-1-11 3-4 5-3 2-9 6 0 5 5-1-2-4 7-4-3 1-6 6-1 7 3 1 8-1 11-2a18 18 0 001 6c4 7 2-2 1 8 0 4 4-1 5-2a45 45 0 001-8c5 8 10 1 5-5 2 0 5-1 3-3-2-1 1 1 0 0zm-25-9s-1-1 0 0zm16 11v-1 1zm4 5c-3-3 1 2 0 0z"/><path class="cls-6" d="M307 217c-1-3-11-8-12-3-1 7 13 6 12 3 0-1 0 0 0 0zm-8-2l2 1zM339 205c7-7 0-12-5-4 0 0 3-13-1-9-3 2-6 13 0 11l-5 3c-8 3-3 15 2 6 3 6 9 3 6-3 5 2 9-2 3-4z"/><path class="cls-6" d="M328 201c-2-6-8 2-4 2 0 0 3-3 4-2-1-1 0 2 0 0zM324 217c-5 3 0 9 1 6 2-3 0-9-1-6-1 1 0-1 0 0zM318 225c-2-1 1-4-1-5-3 0-3 5-2 6 2 2 5 0 3-1zM308 240c-1-1-14 0-10 4 5 6 15-2 10-4-2-1 1 0 0 0zM302 249c-2-1-8-2-5 2 2 4 7 0 5-2zM185 191c-5-12-11-1-6 7-3 0-8-4-11-2-2 1-1 4 1 4-4 3-4 7 0 8-7 1-9 9-1 7 5-2 3-6 9-9-6 6 0 11 4 5 1-1 4-11 0-8 1-2 3-1 2-4 5 4 2-7 2-8-1-2 1 2 0 0z"/><path class="cls-6" d="M208 200l-12-1c11-19-14-8-7 2-10 5-3 20 2 9 2 2 6 5 9 3 1-2-3-6-3-7h7c3 0 9-5 4-6zM225 205c-2-8-9 5-9 7-1 9 11 0 9-7 0-1 1 4 0 0z"/><path class="cls-6" d="M214 203c-8-5-5 18-1 11 1-2 5-8 1-11zM219 190c-3-4-14 5-8 9 4 2 10-6 8-9-1-2 1 1 0 0zM230 194c-3-1-11 1-10 5 1 5 16-2 10-5-3-1 1 1 0 0zM234 202c-2-1-7-2-8 0-1 6 12 3 8 0-2-1 1 1 0 0zM233 209c-4-5-9 2-4 2 1 1 8 2 4-2zM149 203c8-1 2-5-2-6 5-3 4-8-3-5 1-1 3-6-1-5-7 1-5 8-4 12 1 6-1 8 6 11 9 3 4-4 0-7a11 11 0 014 0zM134 210c-7-5-4 14 0 7 1-2 2-6 0-7-1-1 1 0 0 0zM110 209c-2 2-5 4-4 7 3 8 10-12 4-7zM131 197c-5-9-21-2-9 0a14 14 0 00-6 5c-1 2 1 4 3 3s15-4 12-8z"/><path class="cls-6" d="M130 201c-3 2-9 4-9 9 0 3 4 3 5 1l5-4c2-2 4-8-1-6zM139 183c0-4-5 0-4 3 0 5 5 0 4-3 0-2 1 0 0 0zM108 182c-2 1-2 8 1 6 1-2 2-8-1-6zM104 184c0-5-2 7-2 5 0 4 2-3 2-5 0-1 0 2 0 0zM91 183c0-2-2-4-3-2-2 2-3 6-3 8-7-7-10-3-4 4 2 4 4 0 6 1 5 4 3-10 4-11 0-2-1 2 0 0zM66 196l-2 1c-1-2 2-8 1-11-2-5-5-5-4 0-6-8-7-2-5 4-10 0-8 6 1 7 0 0-16 3-11 4 6 2 9-1 14-1-3 3-9 12 0 7-3 5 4 2 6 1s5-12 0-12zM81 203c-1 0-10 6-6 7 4 2 12-8 6-7-1 0 2-1 0 0zM97 203c-1-10-9 15 0 3a7 7 0 000-3c0-1 1 0 0 0zM108 201c-2-1-9 4-6 7 3 2 11-5 6-7zM164 202c-3-4-11 2-6 4 2 1 10 0 6-4-1-1 1 1 0 0zM165 194c-1-1-8-3-6 1 3 4 10 0 6-1zM200 244c-3-8-11 1-6 2 1 1 7 2 6-2-1-1 0 2 0 0zM225 237c-6 4-2 14 0 10 0 0 5-13 0-10-3 2 2-1 0 0zM239 253c-3 0-4 1-6 3 1-6-4-3-5-1 1-6-5-4-7-1-2-7-5 2-8 0-9-4-2 4-2 5-2 0-9-2-9 2 0 3 7 3 9 3-4 3-1 7 3 5-3 5 5 6 7-1 1-1 2-4-1-4 2-2 5-2 6-4 5 15 15-8 13-7zM246 224c-1 0-8 8-3 6 6-1 6-9 3-6zM266 211c-3-6-5-2-2-10 2-6-3-8-6-2 0-11-7-6-7 1-7-6-14-2-5 3-18-3 5 16 8 7 1 5-1 3-6 6-9 6 2 4 6 3 1 8 5 7 6-1 2 1 7-5 6-7 0-1 1 2 0 0zm-16-7c2-1 1-1 2 1l-2-1c1 0 1 1 0 0zm4 4c-1-2 0-1 0 0z"/><path class="cls-6" d="M269 202c-1-6-9 3-4 4 2 0 5-3 4-4zM233 284c1-5-4 0-5 1-4-8-9 5-3 7 6 3 8-3 8-8 1-2 0 3 0 0zM220 293c0-1-8-7-8-2 0 4 11 7 8 2-1-2 1 2 0 0zM242 282c-2-2-8 4-4 7 2 1 7-4 4-7-1-1 1 1 0 0zM201 283v3c3 0 2-5 0-3zM274 274c-5-1-7 6-2 6 1 0 6-4 2-6zM285 281c-1-2-8 2-8 4 1 5 10-1 8-4zM309 284c0-1-1-3-2-2-6 2-2 9 0 5l2-3zM316 284c-6-4-5 11 0 5v-5zM338 253c-2 2-6 13 1 11 4-2 3-15-1-11-1 1 2-1 0 0zM348 254c-2 2-9 11-3 12 5 0 7-14 3-12-3 2 2-1 0 0z"/><path class="cls-6" d="M358 267c-1-2-3-1-4-1 1-1 3-3 0-4-4-2-8 5-3 5-6 5 10 6 7 0zM372 203a17 17 0 00-3 3c0-2 0-14-5-9v8c-2-5-11-12-7-3-1-1-10-2-7 2l5 4c-13-4 5 14 9 0 0 2 3 2 4 1 1 11 11-14 4-6-1 0 1-2 0 0zM385 203c0-3-3 0-4 1-2 5 5 5 4-1 0-1 0 1 0 0zM418 225l-4 1c6-15-8-9-6-1a2 2 0 00-3-1 59 59 0 00-2-6c-1-4 3-5-2-9-10-8-4 5-3 10-7-4-8 0-4 6-7 0-11 6-2 5-3 1-6 7 1 6-5 4 1 10 3 4 2-2 2-9 4-9-1 3 2 17 6 10l2-15c0 2 2 6 4 6 1-1 12-8 6-7z"/><path class="cls-6" d="M413 242s-2-12-5-7c-5 9 7 10 5 7-1-2 2 2 0 0zM407 202c-3 2-6 14 0 12 6-1 5-16 0-12-3 2 1-1 0 0zM405 194c-2 0-9 4-5 7s10-8 5-7zM397 197c-2-5-7-4-5 0 1 2 6 3 5 0zM381 192l-3-3c-8 0 8 9 3 3zM399 185c-2-2-3 2-2 3 0 3 6 0 2-3-1-1 1 1 0 0zM331 279c-1-2-2-6-5-6-9 3 7 13 5 6-1-1 0 1 0 0zM337 273c-1 0-1-2-3-1-3 2 0 5 3 5s3-3 0-4zM400 275c-1-4-3-1-4-1a2 2 0 00-1-2c10-1-14-24-6-6-2 0-11-2-6 3-7-2-8 5 0 5-7 3-8 7 1 5-6 8 4 5 7 1 0 2 0 12 5 9 3-2 4-12 4-14-1-2 0 2 0 0z"/><path class="cls-6" d="M406 271a1 1 0 00-2 0c2-5-2-17-6-9-1 3 1 16 5 11 1 3-1 8 2 11 8 7 4-10 2-13-1-1 2 3-1 0z"/><path class="cls-6" d="M415 264c-2-4-11 4-5 8 3 2 6-7 5-8zM404 283l-1-2c1-3-5-4-3 2 1 5 6 2 4 0zM380 255c-2-2-11-7-7 0 3 4 10 3 7 0zM401 245c2-3-9 0-4 6 4 3 8-6 4-6 1-1 1 0 0 0zM429 236c-2-3-14-5-10 1 2 4 13 3 10-1zM437 210v-4l-11-5c-12-6-4 9 4 9-5 2-7 10 1 8 1 0 9-7 6-8zM457 230zM466 222a5 5 0 00-6-3c1-2 2-6-2-6 5-3 6-8 0-12 8-8 0-7-5-2 5-11-6-1-9 3 0-2 4-5 2-7-4-4-7 6-7 8 0 3 0 7 2 9 1 2 6 4 5-1h6l5 2c-8 4-9 15 0 17 3 0 0-6 2-8l2 2c1 0 7 1 5-2-2-2 1 1 0 0zm-13-14c-3-1-4-3-3-5 1 2 4 3 3 5-1-1 0-1 0 0z"/><path class="cls-6" d="M440 212c-4 0-3 4-1 4 1 3 5-3 0-4zM454 232c-1-1-1-7-4-4-1-5-13-9-10-2-6-2-7 5-1 5-7 7 5 9 9 1-1 10 11 7 6 0zm-12-3c0-2 0-3 2-1l-2 1s1-1 0 0zM446 257c-1-3-8 0-9 2-2 6 13 1 9-2 0 0 1 1 0 0z"/><path class="cls-6" d="M465 252c5-5-7-3-9-1 1-1 0-12-4-7-2 3-2 7-4 9-8-10-12 1-4 3 2 0 6 4 8 3-1 2 2 10 6 7 3 1 5-2 1-3 4-2 7-6 2-7a12 12 0 004-4c1-1-1 1 0 0z"/><path class="cls-6" d="M452 266c-1-2-3-5-5-1-3 7 6 6 5 1zM449 286c-1 0-10 8-3 8 6-1 6-10 3-8 0 0 2-1 0 0zM457 286c-9 3 0 9 0 5 0-1 5-7 0-5zM441 286c0-1 0-2-2-2-7 0 4 9 2 2zM470 260c-1 0-9 0-5 3 4 4 7-2 5-3-1 0 1 1 0 0zM429 248c-1-2-6-5-6-1-1 6 8 9 6 1zM376 231l-5-2c-10-1 5 11 5 2 0-1 0 1 0 0zM226 224c0-1-6-10-10-3-1 3-5 2-3 7-1 0 0-3-3-2l1-2c1-3-4-4-5-1-9 3-9 15 2 6-1 5 3 11 5 4 2 5 9 5 6 0 4 0 5-3 3-6 1 0 9 0 4-3zm-16 10c-1 1-1-3-1-4l1 4zM236 237c0-2-4-9-7-6-5 5 8 10 7 6zM232 224a2 2 0 000 3 2 2 0 000-3zM243 243c-2-1-10-2-6 2 2 2 9 0 6-2-2-1 0 1 0 0zM235 187c-7-2-2 11 2 6 3 1 0-6-2-6z"/><path class="cls-7" d="M225 216c5-8-4-2-7 0 3-13-6-4-10-2 0-3-1-10-5-5 0-6-7-7-6 0-6-4-7 4-3 6 0 1-4-2-5 2 0 4 4 4 7 4-7 6 3 6 7 0-1 2 2 8 4 5s0-5 1-7c0 1 1 3 3 2-1 2 1 9 4 5 3-2-1-4-1-5a2 2 0 002 0c0 1 7 10 9 8 2-1-1-4-3-5 4 0 10-7 3-8 1-1 2 1 0 0zM188 217l-3-6c-2-5-8 1-5 6-8-6-8 2-8 5 0 2 19 7 16-5zM257 197a5 5 0 00-3 2 5 5 0 00-5-4c-4 1-3 5-1 8-4-1-8 1-3 5 3 2 6 0 9 1 2 1 10-11 3-12zM384 210h-2c2-4 0-7-5-4 0-3 0-8-4-8-5-1-2 7-4 8-2-4-6-1-4 3-5-4-11 0-6 4-7 3 4 5 8 3 2 7 7 4 6-2h6c-6 9 14-5 5-4zM423 228c7-4 0-8-4-8 5-4 1-7-3-5 4-7-4-8-8-3-2-6-6-2-4 3-3-3-11-4-8 1 1 5 6 3 8 5-8 5 0 8 5 4l-1 6c-3-5-2 3 1 7 4 4 6-3 8-4 6 3 12-2 6-6 1-1 2 1 0 0zm-11-5c-1 3 0 1-2 2l2-2c-1 1 0 0 0 0zM460 226a6 6 0 00-2 0c3-4-1-6-4-3 3-6-3-5-6-2 2-8-4-10-5-2-5-7-11-1-5 3-8 2 1 8 6 5 1 1 10-1 11-3-4 7 10 3 5 2zM108 231c-1-6-15 7-10 10 4 2 11-7 10-10 0-1 1 3 0 0z"/><path class="cls-7" d="M96 237c6-5 5-20-3-9 2-11-9-9-8 0l-4-3c-4-7-5 3-4 6-7-3-13 3-5 6-9 5 8 7 9 7-12 8 3 14 6 3-1 6 8 5 6-3 8 7 4-4 1-7-3 4 5-2 2 0 2-1-1 1 0 0zm-10-5c2 1 0 0 0 0 1 0 0 0 0 0zM61 245c-1-1-4-1-4 1-1 5 9-1 4-1zM111 237c-4 0-12 5-6 8 4 2 10-9 6-8zM120 237c-3 0-9 5-5 6 3 1 7-5 5-6zM163 233c-3-1-7 1-9 3 3-7-3-12-5-5-3-3-8-2-7 3-6-3-11 3-2 4-3 4 4 4 6 3-2 2-2 7 1 7 4 0 4-9-1-7 1 0 22-5 17-8zm-20 4c0-2 1-1 0 0 0-1 0 0 0 0z"/><path class="cls-7" d="M156 244c0-6-3-4-3 1 1 3 3 1 3-1 0-1 0 0 0 0zM232 255c-4 0-5 4-7 7 2-8-6-8-5-4-3-1-10-1-5 4-8 1-2 9 3 4 2-1 5-1 7-3-2 9 16-8 7-8zM239 261c-1-4-7 1-7 4-1 4 8 2 7-4 0 0 0 1 0 0zM242 261c6 7 0-6 0 0zM297 236a3 3 0 00-4-1c4-3 0-7-4-5 9-12-9-6-9 4-2-1 0-7-1-10-2-5-7-1-8 3-6-7-10-2-6 5-3 0-2 4 0 4a3 3 0 00-2 6c4 2 7 0 10 1-3 3-1 7 3 5 3-1 4-5 6-5-4 5 4 9 5 4 2-7-5-4 4-10-6 8 9 5 6-1-1-1 2 3 0 0zm-27 2l-4-1c-1-1 6 0 4 1-1-1 0 0 0 0z"/><path class="cls-7" d="M294 243c-2 0-6 1-4 4 3 4 7-3 4-4zM303 231c-4-1-5 5-2 5 2-1 5-4 2-5-1 0 1 1 0 0zM170 239c-1 0-10-1-9 3 3 7 14-1 9-3zM251 211c0-2-10-3-10 1-1 4 11 4 10-1 0 0 0 1 0 0zM243 216a3 3 0 00-2 0c-2 1 0 3 2 3 2-1 2-4 0-3-1-1 1-1 0 0zM264 205a2 2 0 00-2 0c-9 4 9 2 2 0zM389 217c2-3-3-2-4-1-5 3 0 7 3 4l1-3c1-1 0 0 0 0zM353 213c0-1-4-7-6-2-3 6 10 4 6 2zM447 230c-1-4-10-1-8 3 2 3 8 0 8-3 0-1 0 0 0 0zM344 236c7-7-6-19-6-6-3-3-11-3-7 3 2 3 6 1 7 3h-9c-5 2-5 7 1 6-3 6 9 1 10-4a1 1 0 001 0 3 3 0 00-1 4c4 6 4-6 4-6 1-1-1 0 0 0z"/><path class="cls-7" d="M361 237c0-2-2-1-4 0 5-5-1-6-5-3 6-16-15 1-4 4 2 0 14 7 13-1 0-1 0 1 0 0zM349 241z"/><path class="cls-7" d="M349 241a2 2 0 00-3-3c-3 1-1 5 3 3zM400 229c-7 4-2 14 1 6 0 0 2-7-1-6-2 2 2 0 0 0zM397 224c-5-6 0 10 0 3 0-1 2-2 0-3zM454 230c-5-9-4 10 0 2v-2c-1-1 0 0 0 0zM301 272c6-6-6-4-9-3-4 2 5 5 8 4-2 1-8 9-1 5 0 0 6-7 2-6 1-1 1-1 0 0zM330 269c3 1-1-14-5-4 0-2-2-10-5-6-2 2 0 9 0 9 1-10-21-5-8 1-5 3 1 7 5 5-2 3 3 5 4 2l4-9c1 7 5 2 5 2zM339 265c0-3-5-1-6 1-1 4 6 3 6-1 0 0 0 1 0 0zM77 193zM81 195l-4 1c1-3 2-12-3-6 0-4-4-6-6-2-3-6-10 1-5 5-15 0 0 11 3 4a3 3 0 001 1c-7 2-9 10-2 7-1 5 7 2 7-3 2 3 7 2 4-1 1 0 8-6 5-6-1 0 1 0 0 0z"/><path class="cls-7" d="M59 202c1-4-11-2-7 2 2 2 8 1 7-2zM53 189c-2 0-1 4 1 5 3 1 1-2 3-2 4 1-1-3-4-3-1 0 2 0 0 0zM101 194a5 5 0 00-4 0c6-6 3-10-3-3 1-10-7-6-5 2a9 9 0 00-3 0c4-18-13-1-2 2v7c2 4 6-1 8-3 1 8 11-4 9-5zM105 198c-1-2-4-1-4 0-3 4 6 3 4 0 0-1 1 0 0 0zM119 200c-2-4-8 2-3 2 1 1 3 0 3-2 0 1 0 1 0 0zM146 195c-6-5-10 11-2 4l2-4c-2-1 1 0 0 0zM151 197c-2-2-6 1-4 3 2 1 5-1 4-3-1 0 0 1 0 0zM198 192l-5 2c3-13-12 5-2 2l-4 1c4-8-13-9-6-1-1 0-10-1-6 2 4 4 7 0 11 0-8 5 0 10 5 2 8 4 9-8 7-8z"/><path class="cls-7" d="M202 195c-3 0-4 3-2 4 2 0 4-3 2-4zM176 191c-1-1-7-2-6 2 2 5 10-1 6-2zM187 226c-1-2-9 0-9 2-1 6 12 1 9-2 0-1 0 0 0 0z"/><path class="cls-7" d="M191 230c1-3-5-3-6 0 0 4 7 3 6 0 0 0 0 1 0 0zM172 225c-1 0-5-1-6 2 0 7 11-1 6-2 0 0 2 1 0 0zM321 200a7 7 0 01-4 0c4-6-4-3-6-1 3-7-4-10-5-1-2-1-2-6-5-6s-2 3-1 5c-5-3-5 7 3 6-8 4 1 8 4 3 2 4 8 3 5-1h7c1-1 5-7 2-5zm-12 2l-1-1q2-1 1 1z"/><path class="cls-7" d="M297 202c0-2-6-2-7 0-2 4 7 5 7 0 0 0 0 1 0 0zM280 200c-1-1-9-1-4 2 1 1 7-1 4-2zM335 203s0-8-4-1c0-9-7-8-4 2a10 10 0 00-2-1c-4-3 0 10 5 2 1 5 9-1 5-2zM439 197c-1-2-4 0-4 1-1-2 0-5-3-6-5-1-3 5-2 7-4-3-8 0-4 3-5 0-5 6 0 5 1-1 9-1 8-4 2 6 7-2 5-6 0-1 1 1 0 0zm-5 6s-2-2 0-2v2z"/><path class="cls-7" d="M429 207c-1 0-5 0-3 3s5-2 3-3zM444 201c0-4-6 2-6 5 1 3 7-2 6-5 0-1 1 1 0 0zM450 202c-2-2-2 0-3 0-6 7 6 4 3 0-1-1 0 1 0 0zM402 197q-3-2-4 2l-4-4c-3 0-3 4-1 5-1 0-3 0-3 2 2 4 6-1 7-1 2 3 6-1 5-4zM454 205a2 2 0 00-2 2c1 2 4-1 2-2zM142 210c-1-6-5-5-7-9 8-1 6-19-2-7 4-8-5-9-4-2-2-9-12-6-6 1-18 0 7 8 6 0 2 6-7 2-6 7 1 3-4 3-3 6 2 5 9 0 10-1-4 10 0 9 3 0 0 0 10 12 9 5-1-3 0 1 0 0zM52 232c-3-6-11-1-8 0 0 0 9 2 8 0-2-2 0 1 0 0z"/><path class="cls-8" d="M73 191q-3 0-3 3c-2-6-9-2-4 2-6 0-5 5 1 4a4 4 0 00-4 3c0 3 8 0 9-1 0-2-1-2-3-2 2-1 10-6 4-9-1-1 2 1 0 0zM88 194c-3-5-8 1-3 5-6 0-5 6 2 4 3-1 2-7 1-9zM95 193c-2-4-7 8-2 7 0 4 4-3 2-7 0-1 1 2 0 0z"/><path class="cls-8" d="M91 204c0-4-8-1-5 3 1 1 5-1 5-3 0-1 0 0 0 0zM116 194a4 4 0 00-4 1c2-4-2-11-4-4-3-4-5 2-3 5-12-1 2 8 1 2 2 0 5 1 5-1 2 6 8-3 5-3-2-1 1 0 0 0z"/><path class="cls-8" d="M107 201c-1-1-3 0-3 1 0 3 4 1 3-1 0 0 1 1 0 0zM137 193a6 6 0 00-3 3c-3-6-12-6-6 2-8 0-3 9 4 3 7 0 8-9 5-8-1 1 1 0 0 0z"/><path class="cls-8" d="M136 203c1-2-8 0-6 5 1 3 8-3 6-5 1-1 1 0 0 0z"/><path class="cls-8" d="M142 202c-2-1 1-2 0-3-1-3-5 3-5 3-1 5 8 3 5 0 0 0 1 1 0 0zM61 192s-6-8-7-4c-2 6 9 6 7 4zM152 198c-1 0-7 2-7 4 0 7 16-4 7-4zM197 196a4 4 0 00-5 1c3-8-1-8-3 0-4-9-12-2-4 1-1 0-5 2-4 4s6 1 6-1c1 7 9 6 4-1 2 2 9-1 6-4zM174 193c-5-2-6 3-3 4s6-2 3-4z"/><path class="cls-8" d="M210 197c0-3-4-1-5 0 1-5-2-7-3-1-3-4-5 3-1 4 0 4 12 3 6 0a3 3 0 003-3c0-1 0 2 0 0zM259 209c4-11-6-11-4-3-5-5-11 0-4 3h7l-1 3c2 1 4-3 2-3z"/><path class="cls-8" d="M256 211c-2 0-9-2-9 1-1 7 12 0 9-1z"/><path class="cls-8" d="M253 216c-1-2-7-2-6 1s7 0 6-1zM220 202c-1-2-8-3-9-1-4 4 11 5 9 1-1-2 0 0 0 0zM207 212c-2-4-5 6-4 4-1-9-12-10-5 0-6-1-9 5-1 4-4 5 5 1 6-1s5-2 4-7c-1-1 0 2 0 0zm-6 3a10 10 0 01-2-3 9 9 0 012 3zM208 220a2 2 0 01-2-2c-1 0-2 1-1 3 2 3 4-1 3-1zM217 213c-3-3-4 4-3 6-6-5-5 2-2 1 3 2 8-4 5-7z"/><path class="cls-8" d="M223 219c-2 0 1-5-4-2 0 0-5 5-1 4 1 0 8-2 5-2zM182 214c-3 1-2 4-2 6-6-6-7 6 2 3 2 2 5-10 0-9-2 1 3-1 0 0z"/><path class="cls-8" d="M186 224c-6-1-9 6-3 4 0 0 5-4 3-4zM189 225c-3 0-2 5 1 3 0 0 1-4-1-3zM306 202c-1-1-4-10-6-6-3 7 7 7 6 6zM312 197c-1-4-9 6-2 7 2 0 2-6 2-7zM301 204s-8-4-7 1c0 1 8 2 9 0 0-1-1-2-2-1 0 0 1-1 0 0z"/><path class="cls-8" d="M314 200c-7 3 0 6 1 4 0 0 2-5-1-4-1 1 1 0 0 0zM321 204c-1-2-5 2-2 2l2-2c0-1 0 1 0 0zM374 212c3-5-3-11-4-3-8-8-9 5 1 4-1 1 0 3 2 2l1-3c1-2 0 0 0 0z"/><path class="cls-8" d="M364 212c-1 0-6-2-6 1 1 6 9-1 6-1-1 0 1 0 0 0zM380 212h-2c1 0 3-4 1-4s-6 5-5 6c5 5 8-2 6-2zM399 204c-1-3-7-4-5 0 1 1 6 2 5 0zM436 204c0-7-3-6-3-1-8-4-8 5 0 2 0 2 1 3 3 3a3 3 0 000-4c0-2 0 1 0 0z"/><path class="cls-8" d="M441 202c-2 0-7 5-3 5 3 4 8-6 3-5z"/><path class="cls-8" d="M446 205c-1-2-3 0-4 0-1 3 4 2 4 0-1-1 0 0 0 0zM83 232c-3-4-17-7-11 0 2 2 15 5 11 0 0-1 1 1 0 0zM77 236c-3 0-8-2-10 1s0 5 2 5c3 1 11-5 8-6zM93 228c0-7-7-7-7 0s7 10 7 0c0-2 0 2 0 0zM102 232c1-1 0-5-4-2-2 1-4 5-3 8 4 7 8-7 7-6 1-1-1 0 0 0zM149 235c-2-1-6-5-9-4s0 5 2 6c1 0 11 0 7-2-2-2 1 1 0 0zM156 233c0-8-10-6-5 1 1 2 5 3 5-1 0-2 0 2 0 0zM144 239c-1 0-10-3-7 2 4 7 11-1 7-2z"/><path class="cls-8" d="M161 234c-2-3-9 3-5 6 2 1 6-3 5-6 0 0 0 1 0 0zM110 238c-6-1-10 9-4 8 2-1 6-7 4-8-3 0 1 1 0 0zM175 204c-1-3-8 1-9 2-5 5 9 5 9-2 0-2 0 2 0 0z"/><path class="cls-8" d="M171 199c-16-3 0 9 2 3a3 3 0 00-2-3zM155 266c-1 0-4-4-6-2-5 7 12 3 6 2zM273 233c0-5-11-8-9-2 3 5 12 5 9 2 0 0 1 1 0 0zM272 238c-4-2-16 1-9 4 3 1 12-2 9-4zM262 246c-2-1-14 0-7 3 3 1 10-3 7-3-3-1 1 0 0 0zM281 226c-7-3-4 11-4 13 0 5 12-9 4-13-4-2 3 1 0 0zM291 234c1-1-6-3-8 3-1 4 4 4 6 2 2-3-1-3 2-5 0 0-1 1 0 0zM267 209c-2-2-7-3-5 1 0 6 11 4 5-1zM268 200c-4-4-8 3-4 4 2 1 5-3 4-4s1 1 0 0zM340 234c1-3-11-6-10-1 2 6 13 3 10 1 1 0 1 1 0 0z"/><path class="cls-8" d="M355 234a24 24 0 00-6 0c5-17-14 3-4 3l4 1c2 1 10-4 6-4zM340 240c-2-3-11-1-7 2 1 1 9 0 7-2s1 1 0 0zM333 204c-1-9-8 4-1 4 1-1 2-2 1-4 0-1 0 1 0 0zM421 219c-5-3-10 5-14 5 0-2 9-4 5-9s-8 6-8 8c-10-2-11 6-1 7 3 0 1 4 4 3 3 0 3-5 4-6l3 6c4 3 6-5 2-7 2-1 8-4 5-6zM450 222c-3-4-11-3-7 1 1 0 9 2 7-1zM399 231c-1-1-10 4-7 4 2 1 9-4 7-4z"/><path class="cls-8" d="M445 225c-4-5-11 1-6 1 1 0 7 0 6-1zM461 213c-1-4-9 5-6 5s6-3 6-5z"/></g></g></svg>