<svg width="100" height="100" xmlns="http://www.w3.org/2000/svg" viewBox="0 0 500 500"><defs><radialGradient id="radial-gradient" cx="245.7" cy="253.5" r="211.7" gradientUnits="userSpaceOnUse"><stop offset="0" stop-color="#c0a373"/><stop offset="1" stop-color="#fff" stop-opacity="0"/></radialGradient><style>.cls-3,.cls-4{fill:#3f2b0f}.cls-10,.cls-3,.cls-4,.cls-7,.cls-8{stroke:#1d150c;stroke-miterlimit:10}.cls-4{stroke-width:1.14px}.cls-7,.cls-8{fill:#571c10}.cls-10,.cls-7,.cls-8{fill-rule:evenodd}.cls-8{stroke-width:1.04px}.cls-10{fill:#c0a373}</style></defs><g style="isolation:isolate"><g id="_Layer_" data-name="&lt;Layer&gt;"><path class="cls-3" d="M130 38l2-9h28v9h-30z"/><path class="cls-4" d="M231 38l1-12h29v12h-30zM347 38l1-12h28v12h-29z"/><path class="cls-3" d="M458 132l9 1v29h-9v-30z"/><path stroke-width="1.3" stroke="#1d150c" stroke-miterlimit="10" fill="#3f2b0f" d="M457 241l13 2v32h-13v-34z"/><path class="cls-4" d="M458 354l12 2v28h-12v-30z"/><path class="cls-3" d="M36 378l-10-1v-29h10v30z"/><path class="cls-4" d="M35 277l-12-1v-28h12v29zM35 162l-12-2v-28h12v30z"/><path stroke-width="1.4" stroke="#1d150c" stroke-miterlimit="10" fill="#3f2b0f" d="M369 462l-1 15h-32v-15h33z"/><path class="cls-4" d="M261 464l-1 12h-29v-12h30zM153 463l-1 12h-29v-12h30z"/><path class="cls-7" d="M41 456l1 10 3 1 12-1 6 1h7l4-1 6-5-1-20-22-2-16 17z"/><path class="cls-7" d="M78 445v18l1 3 16 1h16l4-2 5-5-3-14-4-6-34 1zM153 444v19l5 3h12l5 2 12-1 5-3 4-3 1-20h-38l-6 3z"/><path class="cls-7" d="M116 445v11l1 9 3 2 12-1h13l4-1 5-4v-20l-31-3-7 7zM269 444l-1 9v7l1 4 6 1h24l1-2 2-1 2-1-3-11 3-7-28-7-7 8z"/><path class="cls-7" d="M224 445v17l3 3 3 2h25l5-1 6-3 2-3v-6l1-12-32-4-13 7z"/><path class="cls-7" d="M193 445l-1 7v10l3 4 7 1h4l9 1h8s2 0 2-1a42 42 0 00-1-6v-16l-13-4zM330 443v17l3 3 2 2h26l5-1 6-3 1-3v-6l2-12-32-4-13 7z"/><path class="cls-7" d="M372 443v17l4 3 3 2h36l6-1 9-3 2-3v-6l2-13-44-3-18 7zM299 443l-2 7v10l3 4 8 1h4l8 1h8s2 0 2-1a44 44 0 000-6v-16l-14-4z"/><path class="cls-8" d="M455 461l-3 1h-6l-8 1h-4l-2-2v-9l-2-7-1-6 6-2z"/><path class="cls-7" d="M81 424v11l1 10 3 2 12-2 6 1h7l4-1 6-5-1-20-31-3-7 7z"/><path class="cls-7" d="M118 424v18l1 3 16 1h16l4-2 5-5-3-14-4-6-34 1zM246 424l-1 9v7l1 4 9 1h33l2-2 3-1 2-1-4-11 3-7-37-7-11 8z"/><path class="cls-7" d="M193 419v23l4 3 2 2h31l6-1 7-3 2-3v-6l1-13-38-3-15 1z"/><path class="cls-7" d="M156 418l-2 13v8l3 4 10 1h4l10 1h10s2 0 2-1a29 29 0 000-5v-20l-17 2zM63 440l3 5h4l6-1 5 1 2-1 2-4v-18l-4-1-18 19zM325 421v12l-1 7 5 3h12l6 2h12l4-4 5-2v-20h-37l-6 2z"/><path class="cls-7" d="M366 422v17l2 3h5l12 1 4-1h7l10 1 4-1 4-3v-23l-35-2-13 8zM287 422v11l1 9 3 2 12-1 6 1h7l4-2 6-4-1-20-31-3-7 7z"/><path class="cls-7" d="M433 439l-3 2h-6l-7 1h-4l-3-3v-7l-1-7-1-6 6-2zM101 402v11l1 9 2 2 12-1h13l5-1 5-5v-19l-32-3-6 7z"/><path class="cls-7" d="M137 401v18l2 4h31l4-1 5-5-2-15-5-6-33 1zM265 401l-1 9v7l1 4 8 1h28l2-2 2-1 2-1-3-11 3-7-33-7-9 8z"/><path class="cls-7" d="M212 402v17l4 3 3 2h30l6-1 7-3 2-3v-6l2-12-39-4-15 7z"/><path class="cls-7" d="M175 401l-2 7v9l4 4 9 1h5l10 1h9s3-1 3-2a30 30 0 00-1-5v-14l-16-4zM389 402l-1 10v7l-3 3-8-1-5 1a20 20 0 00-5 0h-7l-3-2a24 24 0 01-2-3v-17l18-7zM305 417l3 4 11 2h11l12 1h7l5-3 1-4v-17l-26-5-21 3-3 8v11z"/><path class="cls-7" d="M413 416l-2 5-5 2-10-3-5-1-3-6 1-12 5-5 21 18-2 2zM82 417l3 5h15l3-1 1-4v-18l-4-1-18 19zM107 392l1 10 3 2 11-2 6 1h7l5-1 5-5v-19l-22-3-16 17z"/><path class="cls-7" d="M143 381v18l2 4h31l4-2 5-4-2-15-5-6-33 1zM219 380v12l-1 7 5 3h12l6 2h12l4-4 4-2 1-20h-37l-6 2z"/><path class="cls-7" d="M181 381v11l1 10 3 1 12-1 6 1h7l4-1 6-5-1-20-31-3-7 7zM393 398l-5 4h-15l-3-2-2-5-1-9 1-5 3-7 24 23z"/><path class="cls-7" d="M334 380l-1 9v7l1 4 7 1h23l2-2 2-1h1l-2-12 2-7-27-7-8 8z"/><path class="cls-7" d="M290 381v17l3 3 2 2h6l7 1h13l4-2 7-3 1-3v-6l1-12-32-3-12 6z"/><path class="cls-7" d="M258 381l-1 7v10l3 4 8 2h4l8 1h8s2-1 2-2a44 44 0 000-6v-16l-14-4zM185 360v19l5 2 12 1 5 2 12-1 5-3 4-3 1-20h-38l-6 3z"/><path class="cls-7" d="M227 360l-1 10 1 8 1 3h42l5-4v-22l-36-2-12 7z"/><path class="cls-7" d="M272 359v11l1 10 3 1 12-1 6 1h7l4-1 5-5v-20l-31-3-7 7zM148 361v10l1 10 3 2 12-2 6 1h7l4-1 5-5v-19l-31-4-7 8z"/><path class="cls-7" d="M309 359l-1 6v7l1 5 1 3 16 1h15l5-2 5-5-3-14-4-7-34 2z"/><path class="cls-7" d="M371 377l-3 2h-5l-8 1h-4l-2-3v-8l-2-7-1-5 6-2zM125 377l4 5 4 1 7-1 5 1 3-2 2-4v-21l-5-2-20 23z"/><path class="cls-7" d="M148 355l3 4h19l5-4v-19l-6-4-21 23z"/><path class="cls-7" d="M174 337v12l-1 8 4 2 9 1 5 1h9l3-4 3-2 1-20h-29l-4 2z"/><path class="cls-7" d="M205 338l-1 9 1 8 1 4h42l5-4v-23l-36-2-12 8z"/><path class="cls-7" d="M250 337v11l1 9 3 2 12-1 6 1h7l4-2 5-4v-20l-31-3-7 7z"/><path class="cls-7" d="M287 336l-1 6v8l1 5 1 3 16 1h15l5-2 5-5-3-15-4-6-34 1z"/><path class="cls-7" d="M349 355l-3 1h-5l-8 1h-4l-2-2v-8l-2-7-1-6 6-2z"/><path class="cls-7" d="M328 334l-4 4-10-1-6 1-3-2-1-6-2-9 1-4 4-8 23 23z"/><path class="cls-7" d="M270 316l-2 9v7l2 4 6 1h23l2-2 2-1 1-1-2-11 2-7-27-7-7 8z"/><path class="cls-7" d="M225 317v17l3 3 2 2h26l5-1 6-3 1-3v-6l2-13-32-3-13 7z"/><path class="cls-7" d="M194 317l-1 7v10l2 4 8 1h4l8 1h9s1 0 1-1a42 42 0 000-6v-16l-14-4z"/><path class="cls-7" d="M169 334l1 4 8 1h14v-6l1-9 1-7-5-8-20 25zM281 298l-1 10v7l-3 4-8-1-5 1a20 20 0 00-5-1h-7l-3-2a24 24 0 01-2-3v-17l18-7zM211 313l2 4 8 2h8l9 1h5l3-3 1-4v-17l-19-5-15 3-2 8v11z"/><path class="cls-7" d="M189 313l3 4 4 1 6-1 5 1 3-2 1-3v-18l-4-1-18 19zM305 312l-2 5-6 2-9-3h-6l-2-7 1-12 5-5 21 18-2 2zM267 292l-6 6-5 2h-11l-10-2-3-2-3-5v-14s3-6 6-5l33 4z"/><path class="cls-7" d="M230 293l-2 4h-8l-9 1-4-4 22-24 1 10v13zM287 294l-4 6-13-2-3-1-2-3v-18l2-4 20 18v4z"/><path class="cls-7" d="M267 272l-2 5h-14l-4-2v-9l-2-12 14 7 8 11z"/><path class="cls-7" d="M228 274l4 3h14l1-6-1-13-1-5-17 17v4zM454 45l-1-10-3-2-12 2-6-1h-7l-4 1-6 5 1 20 22 2 16-17z"/><path class="cls-7" d="M417 56V38l-1-3-16-1h-16l-4 2-5 5 2 14 5 6 34-1zM342 57V38l-5-3h-12l-5-2-12 1-5 3-4 3-1 20h38l6-3z"/><path class="cls-7" d="M379 56V45l-1-9-3-2-12 1h-13l-4 1-5 4v20l31 3 7-7zM226 57l1-9v-7l-1-4-6-1h-24l-1 2-2 1-2 1 3 11-3 7 28 7 7-8z"/><path class="cls-7" d="M271 56V39l-3-3-3-2h-25l-5 1-6 3-2 3v6l-1 12 32 4 13-7z"/><path class="cls-7" d="M302 56l1-7V39l-3-4-7-1h-4l-9-1h-8s-2 0-2 1a42 42 0 001 6v16l13 4zM165 58V41l-3-3-2-2h-6l-7-1h-13l-5 2-6 3-1 3v6l-2 12 32 3 13-6z"/><path class="cls-7" d="M123 58V41l-4-3-3-2H80l-6 1-9 3-2 3v6l-2 12 44 4 18-7zM196 58l2-7V41l-3-4-8-2h-4l-8-1h-8s-2 1-2 2a44 44 0 000 6v16l14 4z"/><path class="cls-8" d="M40 40l3-1h6l8-1h4l2 2v8l2 8 1 6-6 2z"/><path class="cls-7" d="M414 76V66l-1-10-3-2-12 2-6-1h-7l-4 1-6 5 1 19 31 4 7-8z"/><path class="cls-7" d="M377 77V59l-1-4h-32l-4 2-5 4 3 15 4 6 34-1zM249 77l1-9v-7l-1-4-9-1h-33l-2 2-3 1-2 1 4 11-4 7 38 7 11-8z"/><path class="cls-7" d="M302 82V59l-4-3-2-2h-31l-6 1-7 3-2 3v6l-1 12 38 4 15-1z"/><path class="cls-7" d="M339 83l2-13v-9l-3-4-10-1h-24s-2 0-2 1a29 29 0 000 5v20l17-2zM432 61l-3-5h-4l-6 1-5-1-2 1-2 4v18l4 1 18-19zM170 80V68l1-7-5-3h-12l-6-2h-12l-4 4-5 2v20h37l6-2z"/><path class="cls-7" d="M129 79V62l-2-3h-5l-12-1-4 1h-7l-10-1-4 1-4 3v23l35 2 13-8zM208 79V68l-1-10-3-1-12 1-6-1h-7l-4 1-6 5 1 20 31 3 7-7z"/><path class="cls-7" d="M62 61l3-1h6l7-1h4l3 2v8l1 7 1 6-6 2zM394 99V88l-1-9-2-2-12 1h-13l-5 1-5 5v19l32 3 6-7z"/><path class="cls-7" d="M358 100V82l-2-4h-31l-4 1-5 5 2 15 5 6 33-1zM230 100l1-9v-7l-1-4-8-1h-28l-2 2-3 1-1 1 3 11-3 7 33 7 9-8z"/><path class="cls-7" d="M283 99V82l-4-3-3-2h-30l-6 1-7 3-2 3v6l-2 12 39 4 15-7z"/><path class="cls-7" d="M320 99l2-6v-9l-4-4-9-1h-5l-10-1h-9s-3 0-3 2a30 30 0 001 5v14l16 4zM106 99l1-10v-7l3-4 8 1 5-1a19 19 0 005 1h7l3 2a24 24 0 012 3v17l-18 7zM190 84l-3-4-11-2h-11l-12-1h-7l-5 3-1 4v17l26 5 21-3 3-8V84z"/><path class="cls-7" d="M82 85l2-5 5-2 10 3h5l3 7-1 12-5 5-21-18 2-2zM413 84l-3-5h-15l-3 1-1 4v18l4 1 18-19zM388 109l-1-10-3-2-11 1h-13l-5 1-5 5v19l22 3 16-17z"/><path class="cls-7" d="M352 120v-18l-2-4h-31l-4 1-5 5 2 15 5 6 33-1zM276 121v-12l1-7-5-3h-12l-6-2h-12l-4 4-4 2-1 20h37l6-2z"/><path class="cls-7" d="M314 120v-11l-1-10-3-1-12 1-6-1h-7l-4 1-6 5 1 20 31 3 7-7zM102 103l5-5 9 1 6-1 3 3 2 5 1 9-1 5-3 7-24-23z"/><path class="cls-7" d="M161 121l1-9v-7l-1-4-7-2h-23l-2 3-2 1h-1l2 12-2 7 27 7 8-8z"/><path class="cls-7" d="M205 119v-16l-3-4-2-1h-6l-7-1h-13l-4 1-7 4-1 3v6l-1 12 32 3 12-7z"/><path class="cls-7" d="M237 120l1-7v-10l-3-5-8-1h-4l-8-1h-8s-2 0-2 2a44 44 0 000 6v15l14 5zM310 141v-19l-5-2-12-1-5-2-12 1-5 3-4 3-1 20h38l6-3z"/><path class="cls-7" d="M268 141l1-10-1-8-1-3h-42l-5 4v22l36 2 12-7z"/><path class="cls-7" d="M223 142v-11l-1-10-3-1-12 1-6-1h-7l-4 1-5 5v20l31 3 7-7zM347 140v-10l-1-10-3-2-12 1h-13l-4 1-5 5v19l31 3 7-7z"/><path class="cls-7" d="M186 142l1-6v-7l-1-5-1-3-16-1h-15l-5 2-5 5 3 14 4 6 34-1z"/><path class="cls-7" d="M124 124l3-2h5l8-1h4l2 3v8l2 7 1 5-6 2zM370 124l-4-5-4-1-7 1-5-1-3 2-2 4v21l5 1 20-22z"/><path class="cls-7" d="M347 146l-3-4h-19l-5 4v19l6 4 21-23z"/><path class="cls-7" d="M321 163v-11l1-8-4-2-9-1-5-2-9 1-3 3-3 3-1 20h29l4-3z"/><path class="cls-7" d="M290 163l1-9-1-8-1-4h-42l-5 4v22l36 2 12-7z"/><path class="cls-7" d="M245 164v-11l-1-10-3-1-12 1-6-1h-7l-4 1-5 5v20l31 3 7-7z"/><path class="cls-7" d="M208 164l1-5v-8l-1-5-1-3-16-1h-15l-5 2-5 5 3 14 4 7 34-2z"/><path class="cls-7" d="M146 146l3-1h5l8-2h4l2 3v8l2 7 1 6-6 1z"/><path class="cls-7" d="M167 167l4-4h16l3 2 1 5 2 10-1 4-4 7-23-23z"/><path class="cls-7" d="M225 185l2-9v-7l-2-4-6-1h-23l-2 2-2 1-1 1 2 11-2 7 27 7 7-8z"/><path class="cls-7" d="M270 184v-17l-3-3-2-2h-26l-5 1-6 3-1 3v6l-2 12 32 4 13-7z"/><path class="cls-7" d="M301 184l1-7v-10l-2-4-8-1h-4l-8-1h-9s-1 0-1 1a42 42 0 000 6v16l14 4z"/><path class="cls-7" d="M326 167l-1-4-8-1h-14v6l-1 9-1 7 5 7 20-24zM214 203l1-10v-7l3-4 8 1 5-1a19 19 0 005 1h7l3 1a24 24 0 012 3v17l-18 8zM284 188l-2-4-8-2-8-1h-14l-3 3-1 3v17l19 6 15-3 2-8v-11z"/><path class="cls-7" d="M306 188l-3-4-4-1-6 1-5-1-3 2-1 3v18l4 1 18-19zM190 188l2-4 6-2 9 2 6 1 2 6-1 13-5 5-21-18 2-3zM228 208l6-5 5-2h11l10 2 3 2 3 5v14s-3 6-6 5l-33-4z"/><path class="cls-7" d="M265 208l2-4h8l9-1 4 4-22 24-1-10v-13zM208 207l4-6 13 2 3 1 2 3v18l-2 4-20-18v-4z"/><path class="cls-7" d="M228 229l2-5h14l4 2v8l2 13-14-7-8-11z"/><path class="cls-7" d="M267 227l-4-3h-14l-1 6 1 12 1 6 17-17v-4zM452 458l9-1 2-3-1-12v-13l-1-4-4-5h-20l-2 22 17 16z"/><path class="cls-7" d="M440 421l6 1h8l4-1 4-1v-31l-1-5-5-5-15 3-6 4 1 34zM440 346h11l8 1 2-5 1-13 2-5-1-12-3-5-3-4-20-1v38l3 6z"/><path class="cls-7" d="M440 383h11l10-1 2-3-2-11 1-6v-7l-1-5-5-5h-20l-3 31 7 7zM440 230l8 2h7l5-2 1-6v-23l-3-2v-2l-1-1-12 2-7-2-6 27 8 7z"/><path class="cls-7" d="M441 275h16l4-3 1-2v-7l1-6v-13l-1-5-4-6-3-1h-5l-13-2-3 32 7 13z"/><path class="cls-7" d="M440 306l8 1h9l5-2 1-8v-4l1-8v-9s0-1-2-1a44 44 0 00-5 0h-16l-5 14zM439 170h16l4-4 1-2v-6l1-7v-12l-1-5-4-6-3-2h-5l-13-1-3 32 7 13z"/><path class="cls-7" d="M439 128h16l4-5 1-3v-9l1-9V85l-1-7-4-9-3-1h-6l-12-2-3 44 7 18zM438 201l8 1h9l5-3 1-7v-4l1-9v-8s0-2-2-2a42 42 0 00-5 1h-16l-4 13z"/><path class="cls-8" d="M456 44l2 3v6l1 8v4l-3 3h-8l-7 2h-6l-2-6z"/><path class="cls-7" d="M420 418h11l9-1 2-3-1-12 1-6v-7l-2-4-4-5h-20l-3 31 7 7z"/><path class="cls-7" d="M419 382h14l5-1 3-1 1-15v-16l-2-5-5-5-15 3-6 4 1 34zM419 253l9 2h7l4-2 2-9v-32l-3-3-1-3v-1l-12 3-7-3-7 38 8 10z"/><path class="cls-7" d="M414 307h23l4-4 1-3v-7l1-8v-16l-1-5-4-8-3-1h-6l-12-2-3 38v16z"/><path class="cls-7" d="M414 344l12 1h9l4-3 1-9v-5l1-10v-10s0-2-2-2a30 30 0 00-5 1h-20l2 16zM436 437l4-4 1-4-1-6 1-4-2-3-3-2h-18l-1 5 19 18zM417 175h19l2-5 1-12 2-5-1-12-3-5-3-4-20-1v38l3 6z"/><path class="cls-7" d="M417 133l10 1 8-1 3-1V90l-4-5h-22l-2 36 7 12zM418 212h10l10-1 2-3-1-12v-13l-1-4-5-5h-19l-3 31 7 7z"/><path class="cls-7" d="M435 67l2 3v5l1 8v4l-3 2h-8l-7 2-5 1-2-6zM397 399h11l10-1 1-3-1-12 1-6v-7l-1-4-5-5h-20l-3 31 7 7z"/><path class="cls-7" d="M397 362h18l3-1 1-16v-15l-2-5-5-5-14 3-6 4 1 34zM397 234l8 1h7l5-1 1-8v-28l-2-2-1-2-1-2-11 3-7-2-7 32 8 9z"/><path class="cls-7" d="M398 287h16l4-3 1-3v-8l1-8v-15l-1-5-4-8-3-2h-5l-13-1-3 38 7 15z"/><path class="cls-7" d="M397 325l6 1h9l4-3 1-9v-5l1-10v-10s0-2-1-2a30 30 0 00-5 0h-15l-3 17zM397 111h18l3 3-1 8 1 6a20 20 0 00-1 4v7l-1 3a24 24 0 01-3 3h-17l-8-19zM412 195l4-4 2-10 1-12v-19l-2-4-4-1h-17l-6 26 3 21 9 3h10zM412 86l4 2 2 6-2 9-1 6-6 2h-13l-5-6 18-20 3 1zM413 417l4-3 1-4-1-6 1-5-1-2-4-2h-18l-1 4 19 18zM388 393l10-1 1-3-1-12 1-6v-7l-1-4-5-6-20 1-2 22 17 16z"/><path class="cls-7" d="M377 356h18l3-1 1-16v-15l-2-5-5-5-14 3-7 4 2 34zM376 281h12l7 1 2-6 1-12 2-5-1-12-3-5-3-4-20-1v38l3 6z"/><path class="cls-7" d="M377 318h10l10-1 2-3-1-12v-13l-1-4-5-5h-19l-3 31 7 7zM394 107l4 4-1 9 1 7-2 3-6 1-9 2-4-2-8-3 23-23z"/><path class="cls-7" d="M376 165l9 1h7l4-1 1-6v-24l-2-1-1-2-1-2-11 3-7-2-7 27 8 7z"/><path class="cls-7" d="M377 210h17l3-3 2-3v-25l-1-5-3-6-3-2h-6l-13-1-3 32 7 13z"/><path class="cls-7" d="M377 241l7 1h10l4-3 1-7v-4l1-9v-8s0-2-1-2a44 44 0 00-6 1h-16l-4 14zM355 314h12l7 1 3-5 1-13 1-5v-12l-4-5-2-4-20-1v38l2 6z"/><path class="cls-7" d="M356 272l9 1h8l3-2v-5l1-12-1-4v-7l1-11-1-3-3-4h-23l-2 35 8 12z"/><path class="cls-7" d="M355 227h11l9-1 2-2-1-12v-13l-1-5-4-5h-20l-3 32 7 6zM356 351h11l10-1 1-2-1-12 1-6v-7l-1-5-5-5h-20l-3 32 7 6z"/><path class="cls-7" d="M354 191h18l4-2v-31l-1-4-5-5-15 2-6 5 1 33z"/><path class="cls-7" d="M373 128l1 3v6l1 7v4l-2 3h-8l-7 1-6 1-2-6zM372 375l6-4v-17l-1-3-4-2h-22l-1 5 22 21z"/><path class="cls-7" d="M351 351l4-2v-20l-4-4h-20l-4 5 24 21z"/><path class="cls-7" d="M333 326h19l3-4v-9l2-4-1-9-3-4-3-3-20-1v29l3 5z"/><path class="cls-7" d="M334 294l9 1h8l3-2v-5l1-12-1-4v-7l1-11-1-3-3-4h-23l-2 35 8 12z"/><path class="cls-7" d="M333 249h10l10-1 2-2-2-12 1-6v-7l-1-5-5-5h-19l-4 32 8 6z"/><path class="cls-7" d="M332 213h18l4-2v-31l-2-4-4-5-15 2-6 5 1 33z"/><path class="cls-7" d="M350 150l2 3v6l1 7v4l-3 3h-7l-7 1-6 1-2-6z"/><path class="cls-7" d="M329 171l5 5-1 9 1 6-3 3-5 2-9 1-5-1-7-3 23-24z"/><path class="cls-7" d="M311 230l9 1h7l4-1 2-6v-24l-3-2-1-2v-1l-12 2-7-2-7 27 8 8z"/><path class="cls-7" d="M313 275h16l4-4 1-2v-6l1-7v-13l-1-4-4-7-3-1h-6l-12-1-3 32 7 13z"/><path class="cls-7" d="M312 306l7 1h10l5-3 1-8v-4l1-8v-8s0-2-2-2a44 44 0 00-6 1h-15l-5 13z"/><path class="cls-7" d="M329 330l5-1 1-8v-14h-16l-7-1-7 4 24 20zM293 219l10 1h8l3 2-1 9 1 5a20 20 0 00-1 4v8l-1 3a24 24 0 01-3 2h-17l-8-19zM308 288l5-2 1-8 1-8v-13l-2-3-4-1h-17l-6 18 4 15 8 2h10z"/><path class="cls-7" d="M308 310l5-3v-4l-1-6 1-5-1-2-4-2h-18l-1 4 19 18zM308 194l5 2 1 6-2 9-1 6-6 3-12-1-5-5 17-21 3 1zM288 232l5 6 2 5v11l-1 11-2 3-6 2h-13s-7-3-6-5l4-34z"/><path class="cls-7" d="M288 269l4 2v8l1 9-4 4-24-22h11l12-1zM289 213l6 4-1 13-2 2-3 2h-18l-4-2 19-19h3z"/><path class="cls-7" d="M268 232l5 2v14l-3 4h-8l-13 2 8-14 11-8z"/><path class="cls-7" d="M269 271l4-3v-15l-6-1-13 2h-6l17 17h4zM41 43l-10 2-2 2 2 12-1 6v7l1 4 5 6h19l3-23-17-16z"/><path class="cls-7" d="M52 80H34l-4 2v31l2 4 4 5 15-2 6-5-1-33zM53 155H34l-3 5v12l-2 6 1 11 3 5 2 4 20 1v-38l-2-6z"/><path class="cls-7" d="M52 118H41l-9 1-2 3 1 12-1 6v7l2 4 4 5h20l3-31-7-7zM53 271l-9-1h-7l-4 1-1 6v24l2 2 1 2v1l12-3 7 3 7-27-8-8z"/><path class="cls-7" d="M52 226H35l-3 4-2 2v6l-1 7v12l2 5 3 6 3 2h6l12 1 3-32-6-13z"/><path class="cls-7" d="M52 195l-7-1H35l-4 3-2 7v4l-1 9v8s1 2 2 2a42 42 0 006-1h16l4-13zM53 332H37l-4 3-1 2v6l-1 7v13l1 5 4 6 3 1h6l12 2 3-32-7-13z"/><path class="cls-7" d="M54 374H37l-3 4-2 3v36l1 6 3 9 3 2h6l12 2 4-44-7-18zM54 301l-7-2H37l-5 3-1 8v4l-1 8v8s0 2 2 2a44 44 0 006 0h15l5-14z"/><path class="cls-8" d="M36 457l-1-3v-6c1-1-2-8-2-8v-4l3-2h8l8-2 6-1 2 6z"/><path class="cls-7" d="M72 83H62l-10 2-2 2 1 12v13l1 4 5 6h19l3-32-7-7z"/><path class="cls-7" d="M73 120H55l-4 1v32l1 4 5 5 15-2 6-5-1-33zM73 248l-9-1h-7l-4 1-1 9v33l2 2 1 3 1 2 11-3 7 3 7-38-8-11z"/><path class="cls-7" d="M78 195H55l-3 4-2 2v31l1 6 3 7 3 2h6l12 1 4-38-1-15z"/><path class="cls-7" d="M79 158l-13-2h-9l-4 3-1 10v4l-1 10v10s1 2 2 2a30 30 0 005 0h20l-2-17zM57 65l-5 3v15l1 2 4 2h18l1-4-19-18zM76 327H64l-7-1-3 5-1 12-1 6v12l4 4 2 5h20v-37l-2-6z"/><path class="cls-7" d="M75 368H58l-3 2v5l-1 12 1 4v7l-1 10 1 4 3 4h23l2-35-8-13zM75 289H64l-10 2-1 2 1 12-1 6v7l1 4 5 6h20l3-32-7-7z"/><path class="cls-7" d="M57 435l-1-3v-6l-1-7v-4l2-3h8l7-1 6-1 2 6zM95 103H84l-9 1-2 3 1 11v13l1 5 4 5h20l3-31-7-7z"/><path class="cls-7" d="M96 139H78l-4 2v31l1 4 5 5 15-2 6-5-1-33zM96 267l-9-1h-7l-4 1-1 8v28l2 2 1 3v1l12-3 7 3 7-33-8-9z"/><path class="cls-7" d="M95 214H78l-3 4-2 3v7l-1 8v15l2 6 3 7 3 2h6l12 2 3-39-6-15z"/><path class="cls-7" d="M95 177l-6-2h-9l-4 4-1 9v5l-1 10v9s0 3 2 3a30 30 0 005-1h14l4-16zM95 391l-10-1h-7l-4-3 1-8-1-5a20 20 0 001-5v-7l1-3a24 24 0 013-2h17l8 18zM80 307l-4 3-2 11-1 11v19l3 5 3 1h17l6-26-3-21-8-3H80z"/><path class="cls-7" d="M80 415l-4-2-2-5 2-10 1-5 6-3 13 1 5 5-18 21-3-2zM80 84l-5 3v15l1 3 3 1h19l1-4-19-18zM104 109l-9 1-2 3 1 11v13l1 5 5 5h19l2-22-17-16z"/><path class="cls-7" d="M116 145H98l-4 2v31l1 4 5 5 15-2 6-5-1-33zM117 221h-12l-7-1-3 5-1 12-1 6v12l4 4 2 4 20 1v-37l-2-6z"/><path class="cls-7" d="M116 183h-11l-10 1-1 3 1 12-1 6v7l1 4 5 6 20-1 3-31-7-7zM99 395l-5-5 1-9-1-6 2-3 6-2 9-1 5 1 7 3-23 24z"/><path class="cls-7" d="M116 336l-8-1h-7l-4 1-2 7v23l3 2v2l1 1 12-2 7 2 7-27-9-8z"/><path class="cls-7" d="M115 292H99l-4 3-1 2v6l-1 7v13l1 4 4 7 3 1h6l12 1 3-32-7-12z"/><path class="cls-7" d="M116 260l-7-1H99l-5 3-1 8v4l-1 8v8s0 2 2 2a44 44 0 006 0h15l5-14zM137 187h-19l-3 5v12l-2 5 1 12 3 5 3 4 20 1v-38l-3-6z"/><path class="cls-7" d="M137 229l-10-1-8 1-3 1v5l-1 12 1 5v7l-1 10 1 3 3 5h23l2-36-7-12z"/><path class="cls-7" d="M138 274h-11l-10 1-2 3 2 12-1 6v7l1 4 5 5h20l3-31-7-7zM136 150h-11l-9 1-2 3 1 12v13l1 4 5 5h19l3-31-7-7z"/><path class="cls-7" d="M138 311l-6-1h-7l-5 1-3 1-1 16v15l2 5 5 5 14-3 6-4-1-34z"/><path class="cls-7" d="M120 373l-2-3v-5l-1-8v-4l3-2h8l6-2 6-1 2 6zM120 127l-5 4-1 4 1 7-1 5 2 3 4 2h21l1-5-22-20z"/><path class="cls-7" d="M142 150l-4 3v19l4 5h19l4-6-23-21z"/><path class="cls-7" d="M159 176h-12l-7-1-2 4-1 9-2 5 1 9 3 3 3 3 20 1v-29l-3-4z"/><path class="cls-7" d="M159 207l-9-1-9 1-3 1v42l4 5h22l2-36-7-12z"/><path class="cls-7" d="M160 252h-11l-10 1-1 3 1 12-1 6v7l1 4 5 5h20l3-31-7-7z"/><path class="cls-7" d="M160 289l-6-1h-7l-5 1-3 1-1 16v15l2 5 5 5 14-3 7-4-2-34z"/><path class="cls-7" d="M142 351l-2-3v-5l-1-8v-4l3-2h8l7-2 5-1 2 6z"/><path class="cls-7" d="M163 330l-4-4v-10-6l2-3 5-1 10-2 4 1 7 4-23 23z"/><path class="cls-7" d="M181 272l-9-2h-7l-4 2-1 6v23l2 2 1 2 1 1 11-2 7 2 7-27-8-7z"/><path class="cls-7" d="M180 227h-17l-3 3-2 2v26l1 5 3 6 3 1h6l12 2 4-32-7-13z"/><path class="cls-7" d="M180 196l-7-1h-10l-4 2-1 8v4l-1 8v9s0 1 1 1a42 42 0 006 0h16l4-14z"/><path class="cls-7" d="M163 171l-4 1-1 8v14h6l9 1 7 1 7-5-24-20zM199 283l-10-1h-7l-4-3 1-8-1-5a20 20 0 001-5v-7l1-3a24 24 0 013-2h17l8 18zM184 213l-4 2-2 8-1 8v14l3 3 3 1h17l6-19-3-15-9-2h-10z"/><path class="cls-7" d="M184 191l-4 3-1 4 1 6-1 5 1 3 4 1h18l1-4-19-18zM184 307l-4-2-2-6 2-9 1-6 6-2 13 1 5 5-18 21-3-2zM204 269l-5-6-2-5v-11l2-10 2-3 5-3h13s7 3 6 6l-4 33z"/><path class="cls-7" d="M204 232l-4-2v-8l-1-9 4-4 24 22-10 1h-13zM203 289l-6-4 2-13 1-3 3-2h18l4 2-18 20h-4z"/><path class="cls-7" d="M225 269l-6-2v-14l3-4h8l13-2-8 14-10 8z"/><path class="cls-7" d="M223 230l-4 4v14l6 1 13-1 6-1-17-17h-4z"/><path style="mix-blend-mode:screen" opacity=".1" fill="url(#radial-gradient)" d="M33 43h426v421H33z"/><path class="cls-10" d="M40 461l24-22 25-24 29-27c16-15 16-18 37-39 21-22 18-17 38-37 15-16 24-27 42-44l13-11-5-6-13 12c-19 17-27 27-43 43-19 21-17 16-38 38l-37 38-29 27-24 24-25 23v8zM37 44c4 6 12 14 22 24l24 25 27 29 39 37 37 38 43 42 12 13 6-6-12-12c-17-19-27-27-44-43-20-20-15-17-37-38-21-20-24-21-38-37L89 87 65 63 42 38h-8z"/><path class="cls-10" d="M453 40l-24 22-24 25-30 26-36 39c-22 22-19 17-38 37l-43 44-13 11 6 6 13-12 42-43 38-38 37-38 29-27 25-24 24-23v-8zM460 459l-23-25-24-24-27-29-38-37-38-38-43-42-12-13-5 5 11 13c17 19 27 27 44 43 20 19 15 17 37 38l39 36 26 30 25 24 22 24h9z"/><path class="cls-10" d="M256 260c-6 0-14 2-17-1s-3-14 0-17 12-3 17 0l1 6c1 5-1 12-1 12z"/></g></g></svg>