<svg id="_Layer_" data-name="&lt;Layer&gt;" xmlns="http://www.w3.org/2000/svg" viewBox="0 0 500 500"><defs><linearGradient id="linear-gradient" x1="246" y1="172.4" x2="246" y2="378.8" gradientUnits="userSpaceOnUse"><stop offset="0" stop-color="#a0edf0"/><stop offset="1" stop-color="#45dbe2"/></linearGradient><style>.cls-3{fill:#8ab550}.cls-4{fill:#97c261}.cls-5{fill:#a9d171}.cls-6{fill:#b3db7b}.cls-7{fill:#dcf5f5}.cls-8{fill:#f2ffff}.cls-9{fill:#fff}.cls-10{fill:#fddfb3}.cls-11{fill:#1d150c;stroke:#1d150c;stroke-miterlimit:10}.cls-12{fill:#81a653}</style></defs><path d="M223 135c17-11 41-55 130-5 53 30 23 116 66 105 60-15 104 53 46 108s-83 44-144 14c-21-10-34-18-68-13s-44 51-107 57-162-65-113-105 55-62 41-101 62-91 95-59 39 8 54-1z" fill="#45dbe2"/><path d="M355 333c-25 0-91-15-109-11s-68 16-83 43-118 12-122-24 12 4 38-44c24-44 26-60 26-72-4-2-6-5-7-8-4-9 8-22 26-28s34-2 37 7c1 4 1 7-2 11h2c23 0 84-42 100-33s-42 24-22 38 69-15 83 2-42 15-29 28 51 3 57 13-14 11-5 18 21-4 32 5-50 11-41 24 45 32 19 31zm96-31c-3-11-23-15-43-8s-34 21-30 32 23 15 43 8 34-21 30-32z" fill="url(#linear-gradient)"/><path class="cls-3" d="M312 277c6-12 0-27-13-33-12-6-31 1-33 8 1 3 18 10 17 11s-18-7-19-6c-2 1-5 20 14 31 12 7 28 2 34-11z"/><path class="cls-4" d="M264 258l8 3c9 4 11 4 12 3 1-2-1-3-8-7l-9-5a4 4 0 011 0c3-6 20-12 31-7 12 6 17 20 12 32a23 23 0 01-15 12 23 23 0 01-18-2c-16-10-15-26-14-29z"/><path class="cls-5" d="M265 259l7 3c9 4 11 5 13 3v-1c2-3-1-4-9-8l-7-4c3-5 19-11 29-6 12 6 17 20 11 30a22 22 0 01-13 12 21 21 0 01-17-2c-14-9-15-22-14-27z"/><path class="cls-6" d="M274 251c5-3 15-6 23-2 10 5 15 17 10 26a19 19 0 01-12 10 18 18 0 01-15-2c-10-6-12-14-12-19l2 1c10 4 14 5 17 2v-1h1c2-6-3-9-10-13l-4-2z"/><path class="cls-3" d="M323 203c6-7 5-19-3-25-7-6-21-4-24 0 1 2 11 10 10 11l-12-8c-1 0-6 13 5 23a17 17 0 0024-1z"/><path class="cls-4" d="M294 182l5 3c6 4 7 5 8 4s-1-2-5-6a38 38 0 01-5-4 3 3 0 011-1c3-3 15-5 22 1s8 16 3 23a16 16 0 01-12 6 16 16 0 01-12-4c-9-9-6-20-5-22z"/><path class="cls-5" d="M295 183l4 3c5 4 7 5 8 4 2-2 0-4-4-7l-4-4c3-3 14-5 20 0 7 6 8 16 3 23a15 15 0 01-11 5 15 15 0 01-11-4c-8-8-7-17-5-20z"/><path class="cls-6" d="M302 179c4-1 11-2 16 2 6 5 7 14 2 19a13 13 0 01-9 5 13 13 0 01-10-3c-6-6-6-12-5-16l1 2c6 4 9 6 11 4l1-1c3-3 0-6-5-10l-2-2z"/><path class="cls-3" d="M149 299c10 10 26 10 35 1s8-30 2-34c-3 0-14 13-16 12 0-2 12-14 12-16s-18-11-34 2c-10 8-9 25 1 35z"/><path class="cls-4" d="M181 262a74 74 0 01-5 6c-7 8-7 9-7 10h1c1 2 3 0 8-5l8-6a4 4 0 010 1c5 5 6 23-3 31a24 24 0 01-33-1 26 26 0 01-8-17 20 20 0 017-16c14-12 29-5 32-3z"/><path class="cls-5" d="M179 263l-4 4c-7 8-8 10-7 12h1c2 3 5 1 10-5a79 79 0 016-5c4 5 5 21-3 29a23 23 0 01-32 0 24 24 0 01-7-17 19 19 0 017-15c12-10 25-6 29-3z"/><path class="cls-6" d="M185 274c1 5 1 16-5 22a20 20 0 01-28 0 21 21 0 01-6-15 17 17 0 016-13 23 23 0 0122-5l-1 2c-7 8-10 11-7 15v1h1c4 5 8 1 14-5l4-2z"/><path class="cls-3" d="M178 221a18 18 0 00-12 22c2 9 15 15 20 12 1-1-3-13-2-13l5 12c2 1 14-7 11-21-2-9-12-14-22-12z"/><path class="cls-4" d="M190 253a49 49 0 01-2-5c-2-6-3-7-4-7-2 1-1 2 0 7l1 7c-5 1-16-5-18-12a17 17 0 0111-21 18 18 0 0114 2 14 14 0 017 9c3 13-7 20-9 20z"/><path class="cls-5" d="M190 252l-1-4c-3-6-3-8-5-8-3 1-2 3-1 9a56 56 0 011 5c-4 1-14-4-16-12a16 16 0 0111-19 17 17 0 0112 1 13 13 0 017 10c2 10-5 17-8 18z"/><path class="cls-6" d="M182 252c-4-1-11-5-12-10a14 14 0 019-17 15 15 0 0111 1 12 12 0 016 8 16 16 0 01-5 15v-2c-3-6-4-9-7-9l-1 1c-4 1-3 5-2 10l1 3z"/><path class="cls-7" d="M188 272c-6 0-11-6-11-6s6-4 12-4 10 6 10 6-5 5-11 4zM166 271c-6-1-11-6-11-6s6-5 12-5 10 6 10 6-5 5-11 5z"/><path class="cls-7" d="M172 277c0-6 5-11 5-11s5 5 5 11-6 11-6 11-5-5-4-11zM173 255c1-6 6-11 6-11s5 6 4 12-6 10-6 10-4-5-4-11z"/><path class="cls-7" d="M189 263c-5 4-12 3-12 3s1-7 5-11 12-3 12-3 0 7-5 11zM172 277c-4 4-11 4-11 4s0-7 5-11 11-4 11-4 0 7-5 11z"/><path class="cls-7" d="M181 278c-4-5-4-12-4-12s7 1 11 5 4 12 4 12-7-1-11-5zM166 261c-4-4-3-11-3-11s7 0 11 5 3 11 3 11-7 0-11-5z"/><path class="cls-8" d="M188 268c-5 2-11-2-11-2s3-5 9-7 11 2 11 2-3 5-9 7zM169 274c-5 1-11-2-11-2s3-6 8-7 11 1 11 1-3 6-8 8z"/><path class="cls-8" d="M176 277c-2-5 1-11 1-11s6 3 8 9-2 11-2 11-6-3-7-9zM170 258c-1-6 2-11 2-11s6 3 7 8-2 11-2 11-5-3-7-8z"/><path class="cls-9" d="M186 260c-2 5-9 6-9 6s-2-6 1-11 9-7 9-7 2 7-1 12zM177 277c-3 5-9 7-9 7s-2-6 0-11 9-7 9-7 2 6 0 11z"/><path class="cls-9" d="M184 275c-5-2-7-9-7-9s7-2 11 1 7 9 7 9-6 2-11-1zM166 265c-5-2-6-9-6-9s6-1 11 1 6 9 6 9-6 2-11-1z"/><path class="cls-10" d="M179 265a3 3 0 01-2 1 3 3 0 011-2 3 3 0 011-1 3 3 0 010 2zM177 269a3 3 0 01-2 1 3 3 0 010-2 3 3 0 012-2 3 3 0 010 3z"/><path class="cls-10" d="M179 268a3 3 0 01-2-2 3 3 0 014 2 3 3 0 01-2 0zM175 266a3 3 0 01-1-2 3 3 0 013 2 3 3 0 01-2 0z"/><path class="cls-10" d="M180 267a3 3 0 01-3-1 3 3 0 014-1 3 3 0 01-1 2zM176 268a3 3 0 01-3-1 3 3 0 014-1 3 3 0 01-1 2z"/><path class="cls-10" d="M177 269a3 3 0 010-3 3 3 0 012 4 3 3 0 01-2-1zM176 264a3 3 0 010-2 3 3 0 011 4 3 3 0 01-1-2z"/><path class="cls-11" d="M178 265a2 2 0 01-1 1 2 2 0 012-2 2 2 0 01-1 1zM177 268a2 2 0 01-1 0 2 2 0 010-1 2 2 0 011-1 2 2 0 010 2z"/><path class="cls-11" d="M178 267a2 2 0 01-1-1 2 2 0 012 0 2 2 0 011 1 2 2 0 01-2 0zM176 266a2 2 0 01-1-1 2 2 0 012 1 2 2 0 01-1 0z"/><path class="cls-11" d="M179 266a2 2 0 01-2 0 2 2 0 011-1 2 2 0 012 1 2 2 0 01-1 0zM176 267a2 2 0 01-1 0 2 2 0 011-1 2 2 0 011 0 2 2 0 01-1 1z"/><path class="cls-11" d="M177 268a2 2 0 010-2 2 2 0 011 3 2 2 0 01-1-1zM176 265a2 2 0 011-1 2 2 0 011 1 2 2 0 01-1 1 2 2 0 01-1-1z"/><path class="cls-3" d="M31 366c8-8 25-17 25-17s-8 17-17 25a45 45 0 01-18 12 45 45 0 0110-20z"/><path class="cls-4" d="M28 372c15-19 4 1 4 1s21-12 2 5a28 28 0 01-12 6 35 35 0 016-12z"/><path class="cls-5" d="M28 372c13-16 2 4 2 4s20-13 4 2a24 24 0 01-11 5 30 30 0 015-11z"/><path class="cls-4" d="M32 371l-1 3 3-1a152 152 0 00-12 11l10-13z"/><path class="cls-3" d="M26 354c11-4 29-5 29-5s-14 11-25 16a45 45 0 01-22 2 45 45 0 0118-13z"/><path class="cls-4" d="M20 357c22-11 4 4 4 4s24-3 0 5a28 28 0 01-15 0 35 35 0 0111-9z"/><path class="cls-5" d="M20 358c19-10 1 4 1 4s23-4 2 3a24 24 0 01-12 1 30 30 0 019-8z"/><path class="cls-4" d="M25 359l-3 2h4a152 152 0 00-16 5l15-7z"/><path class="cls-3" d="M45 379c1-12 7-29 7-29s2 18 1 29a63 63 0 01-6 21 63 63 0 01-2-21z"/><path class="cls-4" d="M45 385c1-24 3-2 3-2s7-23 3 2a38 38 0 01-4 14 47 47 0 01-2-14z"/><path class="cls-5" d="M45 385c1-21 3 1 3 1s6-23 3 0a33 33 0 01-4 11 41 41 0 01-2-12z"/><path class="cls-4" d="M48 381v3l1-2-2 16 1-17z"/><path class="cls-3" d="M33 342c7 1 16 8 16 8s-11 4-18 3-11-8-11-8 6-5 13-3z"/><path class="cls-4" d="M29 342c14 0 0 5 0 5s13 8-2 4c-4-1-7-6-7-6s5-3 9-3z"/><path class="cls-5" d="M29 342c12 1-2 4-2 4s13 8 0 5c-3-1-6-6-6-6s4-3 8-3z"/><path class="cls-4" d="M31 345l-2 1 1 2a53 53 0 00-9-3h10z"/><path class="cls-3" d="M51 368c-1-7 1-18 1-18s9 8 10 15-2 14-2 14-7-4-9-11z"/><path class="cls-4" d="M53 371c-6-13 5-2 5-2s2-15 4 0c1 4-2 9-2 9s-5-3-7-7z"/><path class="cls-5" d="M54 371c-5-11 4 0 4 0s2-15 4-2l-2 8s-5-2-6-6z"/><path class="cls-4" d="M56 368l2 2v-2a54 54 0 002 9l-4-9z"/><path class="cls-3" d="M50 334c1 7-1 18-1 18s-6-10-7-16a24 24 0 011-13 24 24 0 017 11z"/><path class="cls-4" d="M48 331c5 13-2 1-2 1s-2 15-4 0a15 15 0 012-9 19 19 0 014 8z"/><path class="cls-5" d="M48 330c4 12-3 0-3 0s-1 15-3 2a13 13 0 012-8 16 16 0 014 6z"/><path class="cls-4" d="M47 333l-2-1v1a75 75 0 00-1-9l3 9z"/><path class="cls-3" d="M35 334c7 6 16 18 16 18s-13-6-21-13a44 44 0 01-11-14 44 44 0 0116 9z"/><path class="cls-4" d="M31 331c16 11-1 3-1 3s12 16-3 2a27 27 0 01-7-10 33 33 0 0111 5z"/><path class="cls-5" d="M30 331c14 10-2 2-2 2s12 15-1 2a23 23 0 01-6-8 29 29 0 019 4z"/><path class="cls-4" d="M32 334h-3s2 1 1 2l-9-9v-1l11 8z"/><path class="cls-12" d="M30 359a21 21 0 0010-1 30 30 0 004-2 28 28 0 00-3 3 23 23 0 00-5 9 22 22 0 009-5 37 37 0 004-6 59 59 0 00-1 8 33 33 0 001 11 33 33 0 003-11v-4a11 11 0 003 4s2-4 1-7l-4-7 1-1-1 1 1-1h-3a29 29 0 000-8 12 12 0 00-3-5 12 12 0 00-1 6 20 20 0 002 5 42 42 0 00-5-6 21 21 0 00-8-4 22 22 0 006 7l1 1-7 2a10 10 0 005 4h-2a22 22 0 00-8 7zm21-7v-1zm0-1z"/><path class="cls-11" d="M58 348c-3 4-8 5-10 3s-1-7 2-10 7-5 10-3 1 7-2 10z"/><path class="cls-11" d="M57 348c-3 4-7 5-9 3s-1-6 2-9 7-5 9-3 1 6-2 9z"/><path class="cls-11" d="M59 344a4 4 0 110-5 4 4 0 010 5z"/><path class="cls-11" d="M58 341l6-9-7 9h1z"/><path class="cls-3" d="M84 403c-7-11-24-24-24-24s6 20 13 31a52 52 0 0019 17 52 52 0 00-8-24z"/><path class="cls-4" d="M87 410c-13-25-5 1-5 1s-21-19-3 5a32 32 0 0013 9s-1-8-5-15z"/><path class="cls-5" d="M87 410c-11-21-3 4-3 4s-20-19-5 2a28 28 0 0012 8 35 35 0 00-4-14z"/><path class="cls-4" d="M82 408l1 4-3-2 11 15h1s-8-11-10-17z"/><path class="cls-3" d="M93 390c-11-7-32-12-32-12s14 16 25 23a52 52 0 0024 7 52 52 0 00-17-18z"/><path class="cls-4" d="M99 395c-23-17-5 3-5 3s-27-8-1 6a32 32 0 0016 3s-4-7-10-12z"/><path class="cls-5" d="M99 396c-20-15-2 4-2 4s-26-9-3 4a28 28 0 0014 3 35 35 0 00-9-11z"/><path class="cls-4" d="M93 396l2 3-3-1 16 9h1s-12-7-16-11z"/><path class="cls-3" d="M66 414c1-13-1-34-1-34s-6 20-7 33a72 72 0 002 25 72 72 0 006-24z"/><path class="cls-4" d="M65 421c4-27-3-2-3-2s-3-28-4 2a43 43 0 002 15 54 54 0 005-15z"/><path class="cls-5" d="M65 422c3-24-4 1-4 1s-1-28-3-2a37 37 0 002 14 47 47 0 005-13z"/><path class="cls-4" d="M63 417l-1 3-1-3-1 18v1l3-19z"/><path class="cls-3" d="M87 375c-7 0-19 7-19 7s12 6 20 6 14-6 14-6-7-7-15-7z"/><path class="cls-4" d="M92 376c-17-2-2 5-2 5s-16 7 2 6c5-1 9-6 9-6s-5-4-9-5z"/><path class="cls-5" d="M92 377c-14-3 1 4 1 4s-16 6-1 5c4 0 8-5 8-5s-4-4-8-4z"/><path class="cls-4" d="M89 380l2 1-2 2 11-2s-7 0-11-1z"/><path class="cls-3" d="M61 401c4-7 3-21 3-21s-11 8-15 15 0 16 0 16 9-3 12-10z"/><path class="cls-4" d="M58 404c10-13-4-3-4-3s1-18-5-1c-2 5 1 10 1 10s6-2 8-6z"/><path class="cls-5" d="M58 404c8-12-5-1-5-1s1-17-4-3c-1 4 1 9 1 9s5-1 8-5z"/><path class="cls-4" d="M56 401l-2 1s1-2-1-3c0 4-3 11-3 11s3-7 6-9z"/><path class="cls-3" d="M70 363c-3 7-3 20-3 20s8-9 11-17a27 27 0 001-15 27 27 0 00-9 12z"/><path class="cls-4" d="M72 359c-8 15 3 3 3 3s-1 17 4 0a17 17 0 000-10 22 22 0 00-7 7z"/><path class="cls-5" d="M72 359c-6 13 4 1 4 1s-2 16 3 2a15 15 0 00-1-9 19 19 0 00-6 6z"/><path class="cls-4" d="M73 362c1 1 2-1 2-1v2a86 86 0 014-10v-1l-6 10z"/><path class="cls-3" d="M87 365c-10 6-23 18-23 18s17-5 27-10a51 51 0 0015-14 50 50 0 00-19 6z"/><path class="cls-4" d="M92 363c-21 10 0 4 0 4s-17 15 4 2a31 31 0 009-9 38 38 0 00-13 3z"/><path class="cls-5" d="M92 363c-18 9 3 3 3 3s-17 14 1 3a26 26 0 008-8 33 33 0 00-12 2z"/><path class="cls-4" d="M90 367l3-1-2 3 13-9-14 7z"/><path class="cls-12" d="M79 386l-2-1a12 12 0 006-3s-3-4-7-4l2-1a25 25 0 007-7 24 24 0 00-9 4 48 48 0 00-7 5 24 24 0 003-5 14 14 0 000-8 14 14 0 00-4 6 32 32 0 00-2 9l-3-1 1 1-1-1v2l-5 7c-2 3 0 8 0 8a13 13 0 004-4v5a37 37 0 001 12 38 38 0 003-12 70 70 0 000-9 43 43 0 003 7 25 25 0 009 8 27 27 0 00-3-12 35 35 0 00-3-3 34 34 0 004 3 24 24 0 0011 3 25 25 0 00-8-9zm-14-3h1zm0-1z"/><path class="cls-11" d="M58 377c2 5 7 7 10 5s3-7 1-11-8-7-11-5-3 7 0 11z"/><path class="cls-11" d="M59 377c2 5 7 7 9 6s3-7 0-11-7-7-10-5-2 6 1 10z"/><path class="cls-11" d="M57 372a4 4 0 101-5 4 4 0 00-1 5z"/><path class="cls-11" d="M60 370l-5-12 6 11-1 1zM56 390c5 1 9-1 9-3s-2-6-7-7-8 1-8 4 2 5 6 6z"/><path class="cls-11" d="M57 390c4 0 8-1 8-3s-2-5-6-6-8 0-9 3 3 5 7 6z"/><path class="cls-11" d="M53 388a3 3 0 10-3-4 3 3 0 003 4z"/><path class="cls-11" d="M53 385l-10-3 10 2v1z"/></svg>