<svg width="100" height="100" xmlns="http://www.w3.org/2000/svg" viewBox="0 0 500 500"><defs><style>.cls-10,.cls-11,.cls-12,.cls-13,.cls-14,.cls-15,.cls-16,.cls-4,.cls-6,.cls-7,.cls-8,.cls-9{fill-rule:evenodd}.cls-4{fill:#544730}.cls-6{fill:#ae9c87}.cls-7{fill:#68543c}.cls-8{fill:#9d8264}.cls-9{fill:#b49871}.cls-10{fill:#8f7e5f}.cls-11{fill:#857c68}.cls-12{fill:#a59b84}.cls-13{fill:#67604f}.cls-14{fill:#bdb29a}.cls-15{fill:#c1b09a}.cls-16{fill:#cdb186}</style></defs><g style="isolation:isolate"><g id="_Layer_" data-name="&lt;Layer&gt;"><path d="M481 287c-2-9-2-18-2-28v-31c0-9 0-19-3-28a35 35 0 00-18-20c-19-9-39-2-58-2a204 204 0 01-31-1l-15-2-16 4h-15l-17-1-29-1a9 9 0 00-3-1l-65-1h-32c-11 0-21 0-31 3a11 11 0 00-2 1 85 85 0 00-16-1 93 93 0 01-17-1 100 100 0 00-20-3l-20 1-21 1c-5 0-10 0-14 3a18 18 0 01-1 4c0 7 0 15-3 21s-11 13-17 10v1a20 20 0 012 7l-1 12c-1 10 4 19 7 28a5 5 0 01-2 6v3a6 6 0 010 4 27 27 0 01-4 11 78 78 0 00-3 10 31 31 0 000 10 50 50 0 005 14 15 15 0 0013 1c9-4 17-5 27-4l30 4c22 3 44 2 66 1h269l34-1c5 0 11-1 15-5s5-9 5-14l1-5v-1a9 9 0 002-9z" fill-rule="evenodd" fill="#5c4328"/><path class="cls-4" d="M127 175c-12 0-23-5-23 10l-2 15c0 8 22 6 27 6s31 2 32-4c0-4 2-22-2-25-7-4-16-1-22-2zm0 0h10c6 0 15-3 22 1 5 3 3 22 3 26-1 7-28 5-33 5-6 0-28 2-27-7l2-15c0-15 10-11 23-10z"/><path d="M127 175c-11 0-24-5-23 10 1 16-14 22 22 22 6 0 35 2 35-5l1-18c-1-7-2-8-9-9h-26z" fill="#877657" fill-rule="evenodd"/><path class="cls-6" d="M127 175c-7 0-15-2-20 1-2 2-2 5-1 7 1 1 0 8 2 11 4 5 1 8 14 8 4 0 21 4 25-1 3-5 8 13 12-4 2-5 0-17-4-22h-28zm22 5c3-1 0 3-2 3-1 0-6 2-6 0l8-3zm5 13s0 3-1 3c-5-4 0-3 1-3zm-47 2c2 4 3 8 8 9 1 3-9 0-9-3 0-2 0-7 1-6z"/><path class="cls-7" d="M252 185c1 4 1 22 3 24 1 1 13 8 14 0 1-5 3-27-1-31-1-3-18-11-16 7zm0 0c-4-16 12-13 17-8 4 4 2 27 1 32-1 8-11 3-15 1-3-2-3-21-3-25z"/><path class="cls-8" d="M252 185l1 17c1 2 0 7 2 8 5 2 7 5 13 2 2-1 2-16 3-19 0-4 0-15-3-17-12-6-18-2-16 9z"/><path class="cls-9" d="M271 186c0-4-1-8-3-10-9-4-14-4-16 1a42 42 0 011 5l2 17c0 9 3 5 6 8 2 2 6 2 7-2l2-10a56 56 0 001-9z"/><path class="cls-7" d="M17 260c0 4-4 22-3 24 1 1 11 11 14 4 2-5 9-25 7-31-1-2-16-15-18 3zm0 0c0-16 14-10 18-4 3 5-4 27-6 32-3 8-11 1-15-2-3-3 3-21 3-26z"/><path class="cls-8" d="M17 260c0 6-3 11-3 17 0 3-1 7 1 8 4 3 5 7 12 6 2-1 5-15 6-18 2-4 4-14 1-17-9-9-16-6-17 4z"/><path class="cls-9" d="M35 266c1-4 1-9-1-10-7-7-12-7-15-3a43 43 0 010 5l-2 17c-3 9 2 6 4 9 1 2 5 3 7-1l4-8a56 56 0 003-9z"/><path class="cls-4" d="M264 288c-20 3-22-2-40-3-10 0 0-41 16-32l10 1c3 0 19 0 21 3 1 3-3 16-3 20-1 5 0 7-4 11zm0 0c3-4 3-6 4-11 0-4 3-16 2-19s-8-3-10-3c-6-1-15 1-20-2-15-7-24 31-16 32 18 0 20 5 40 3z"/><path class="cls-10" d="M264 288c-19 4-25-4-40-3-9 0 1-43 18-31l18 1c12 2 12-3 8 18-1 5 0 11-4 15z"/><path class="cls-6" d="M221 279c-1-12 8-34 21-25l18 1c8 1 11 0 11 4a4 4 0 01-2 1c-11-1-7 6-5 7l5 1-1 5c0 4 0 8-2 12l-6-3c-2-4-5-21-4 1-10 2-7-11-7-13 0-21-4-7-8-1-11 18 1-9 1-10-4-5-8 8-9 9-6 11-10 13-12 11z"/><path class="cls-7" d="M348 290c-8 1-27 6-24-9 2-8 3-4 1-14-1-10 6-7 16-9 5 0 32-8 32 0 1 5 4 24-3 27l-11 3-11 2zm0 0l11-3c2 0 10-1 12-3 4-4 2-23 1-27-1-5-29 2-35 3-20 2-7 4-11 18-6 17 9 13 22 12z"/><path class="cls-8" d="M348 290c-5 0-30 8-22-12 4-11-9-18 11-19 9 0 35-9 36-1 3 35 0 24-21 32a12 12 0 01-4 0z"/><path class="cls-9" d="M344 258l10-2-2 8c-1 2 9 9 13-9h1c4 0 7 0 7 3v6a50 50 0 00-2 10c-2 8-12 14-20 10-3-1-26 9-19-4-4-7-4-9 5-15-3-7 1 2 7-7z"/><path class="cls-7" d="M463 248c-8 2-27 6-24-9 2-8 3-4 2-13-2-10 6-8 15-10 5 0 32-8 33 0 0 6 3 24-4 27l-11 3-11 2zm0 0c7 0 1 0 11-3 3 0 10-1 12-3 4-3 2-23 2-26-1-6-30 1-35 2-20 2-8 4-12 18-6 18 9 13 22 12z"/><path class="cls-8" d="M463 248c-5 0-30 8-22-12 4-11-9-18 12-19 8 0 35-9 35-1 3 35 0 24-21 32a12 12 0 01-4 0z"/><path class="cls-9" d="M459 217l10-2-2 7c-1 2 9 9 14-8v-1c4 0 7 0 7 3l1 6a51 51 0 00-3 10c-1 8-12 14-20 10-2-1-26 9-18-4-4-7-5-9 4-15-3-7 1 2 7-6z"/><path class="cls-4" d="M125 276c9-18 11-22-17-24-19-1-16 4-18 17-1 5-1 5 4 9 5 5 26 2 31-2zm0 0c-5 6-29 6-31 3a3 3 0 01-1 0c-5-5-5-5-4-10 2-14-1-19 19-17 28 1 28 6 17 24z"/><path class="cls-11" d="M125 276c5-9 14-21-6-23-34-3-26 0-30 19 0 2 5 7 5 7 1 3 27 2 31-3z"/><path class="cls-12" d="M131 264c1-6-1-10-12-11-29-3-27 0-29 13a3 3 0 002 1c17 1 7 7 23 4 6-1 4-5 6-3 3 3 8 0 10-4zm-13-7c2 0 4 3 0 3-21-1-16-6 0-3z"/><path class="cls-4" d="M480 281c8-19 10-23-18-25-19-1-16 4-18 17-1 5-1 5 4 9 5 5 26 2 32-1zm0 0c-6 5-30 5-32 2a3 3 0 01-1 0c-5-4-5-5-4-10 2-13-1-19 19-17 28 1 28 6 18 25z"/><path class="cls-11" d="M480 281c4-10 13-22-7-24-33-3-26 1-30 20l6 6c0 3 26 2 31-2z"/><path class="cls-12" d="M485 268c1-6-1-10-12-11-29-3-27 0-29 13a3 3 0 002 1c18 1 7 7 23 4 6-1 5-5 6-3 3 3 8 0 10-4zm-13-7c2 0 5 4 0 3-21-1-16-6 0-3z"/><path class="cls-4" d="M276 267c10 1 32 3 39-1 5-4-5-12-13-12h-10c-18 0-10 1-17 8-2 2-1 3 1 5zm0 0c-2-2-4-3-2-5 7-7-1-8 18-8l10-1c9 0 22 10 12 14-9 3-27 1-38 0z"/><path class="cls-10" d="M276 267c19 3 51 3 39-8-10-8-12-5-23-5-19 0-10 2-18 8-1 2 0 3 2 5z"/><path class="cls-6" d="M317 264c1-1 0-3-2-5-10-8-12-5-23-5-18 0-11 2-17 8 7 1 20-2 20-1 19 12 4-6 17 1l5 2z"/><path class="cls-7" d="M120 219c-8 3-15-5-15 8-1 7-3 7-3 12 0 7 15 6 18 6 10 2 17 4 18-9v-21c-3-3-14 2-18 4zm0 0c4-2 16-8 18-4 2 2 1 20 1 21-1 14-9 13-19 10-4 0-19 1-19-7 0-5 3-5 3-12 0-13 7-5 16-8z"/><path class="cls-9" d="M120 219c-8 4-16-7-16 11 0 3-12 17 14 15 4 0 23 12 21-18-1-10 4-18-15-10l-4 2z"/><path class="cls-8" d="M120 219c-7 3-14-4-15 5a14 14 0 01-1 3v3l-2 7c4 5 25 0 29 6 3 3 5-3 8-8a50 50 0 000-8v-1c-2-1-5-2-9-1-5 1-7-3-8-7l-2 1z"/><path class="cls-4" d="M83 288c-19 3-21-2-38-3-9 0 0-41 15-32l9 1c3 0 18 0 20 3 1 3-2 16-3 20 0 5 0 7-3 11zm0 0c3-4 2-6 3-11 0-4 3-16 2-19 0-3-7-3-9-3-6-1-14 1-19-2-14-7-23 31-15 32 17 0 19 5 38 3z"/><path class="cls-11" d="M83 288c-18 4-24-4-38-3-9 0 1-43 16-31l18 1c11 2 11-3 8 18-1 5-1 11-4 15z"/><path class="cls-12" d="M46 261c3-7 9-12 15-7l18 1c9 2 11-1 9 11a19 19 0 01-5-1c-5-2-13 2-14 5-5 11-5 2-8 8 0 2-12-1-10-7 1-3-4-6-5-10zm41 11a44 44 0 00-9-1c-6 1-2 4-6 10-1 1 1 8 9 3a37 37 0 004-2l1-9z"/><path class="cls-13" d="M408 249c-6 0-32 0-36-3-3-3-7-15-6-20 2-15 28-13 40-13 7 1 32 1 32 11l-1 15c-1 3-14 4-18 6l-11 4zm0 0l11-4c4-1 17-2 19-5v-16c1-14-46-12-54-11-21 2-24 17-12 34l-1-1c1 4 33 4 37 3z"/><path class="cls-11" d="M408 249c-3 1-36 0-36-3 0 0-24-33 20-33 8 0 47-1 46 11-2 19 5 16-15 20l-15 5z"/><path class="cls-12" d="M368 240c-4-8-7-24 16-27l4 2c3 2 7 0 10-2 12 0 35 1 39 8-5 2 10 15-23 20-11 2-6-4-5-7 5-14-6 4-7 5-14 9-13-12-23-3-4 4-8 5-11 4z"/><path class="cls-4" d="M273 286c12 4 37 11 46 6 6-4-4-18-13-19l-13-2c-20-3-12 0-21 8-2 2-1 4 1 7zm0 0c-2-3-4-5-1-7 8-9 0-12 21-8l13 1c10 2 23 18 12 21-12 3-33-3-45-7z"/><path class="cls-10" d="M273 286c22 8 59 14 46-3-9-14-13-10-26-12-21-4-12 1-21 8-2 2-1 4 1 7z"/><path class="cls-6" d="M319 282c-10-12-13-9-26-11l-5-1a4 4 0 01-4 2c-7-1-8 6-7 7 5 9 19-6 31 2-1 8-13 3-16 3-1 6 24 4 25 4 2 2 2-2 2-6z"/><path class="cls-4" d="M445 205c11 3 33 7 35-4 1-8-17-28-24-28l-9 2c-17 1-9 3-8 20 0 4 2 6 6 10zm0 0c-4-4-6-6-6-10-2-17-10-20 7-21l10-2c8 0 29 23 24 31-5 9-24 5-35 2z"/><path class="cls-10" d="M445 205c21 7 50 4 28-19-17-19-16-12-27-12-17 1-7 6-7 21 0 3 2 7 6 10z"/><path class="cls-6" d="M472 184c-16-17-15-10-26-10l-4 1-1 3c-5 2 0 14 1 15 11 14 8-17 22-7 6 14-6 10-8 11 4 9 19-1 20-1 2 1-1-5-4-12z"/><path class="cls-7" d="M285 211c-7-3-3 0-11-5-4-3 0 3 0 5l-2 5c1 1 5-2 7-3h5l5-2h-4zm0 0a3 3 0 002 0c5-1 0 4-5 3l-8 3c-6 2-2-4-1-6-1-2-3-10 2-6 8 6 3 2 10 6zm-3 3z"/><path class="cls-8" d="M285 211c-8-4-2 1-10-6-6-3-1 6-1 6 0 1-5 6-1 6 4-1 1-3 8-3h3c1 0 8-4 3-3a2 2 0 01-2 0z"/><path class="cls-7" d="M284 215h-1l-2 4c-3 7-4 17-11 7-3-3-8-5-2-9s-1 5 9 0l6-2h1zm-1 0a9 9 0 00-4 1c-1 1-9 6-9 1-1 0-6 2-2 6s6 11 10 2l5-10zm1 0a2 2 0 01-1 0z"/><path class="cls-8" d="M284 215c-1 0-3-1-5 1-1 1-9 6-9 1 0-1-8 3-2 6 2 2 7 13 11 2l4-10z"/><path class="cls-7" d="M203 210c2-3 17-1 20-1 11 0-1 7-8 6-1 0-12-2-12-4a1 1 0 010-1zm0 0l1 2c12 2 13 5 22-1a10 10 0 00-3-1c-4 0-17-3-20 0z"/><path class="cls-10" d="M203 210c2-3 15 0 19 0 1 0 4-1 5 1-10 7-12 2-23 1l-1-2z"/><path class="cls-7" d="M38 271c3 2-1 16-2 19-1 11-6-2-4-8 0-1 4-12 6-12a1 1 0 010 1zm0 0h-1c-4 11-7 12-3 22a10 10 0 001-3c1-4 6-16 3-19z"/><path class="cls-10" d="M38 271c3 2-2 14-2 18l-2 5c-5-11-1-13 3-23h1z"/><path class="cls-7" d="M330 251c5 0 7 1 3 6-3 4-11-3-20-4-5 0-13-3 2-2h15zm0 0l-15-1c-17-2-9 4-2 5 8 1 7 2 14 4 9 2 12-11 3-8z"/><path class="cls-10" d="M330 251c2 0 7-2 4 5-3 8-11-2-21-2-6 0-14-6 2-3a49 49 0 0015 0z"/><path class="cls-7" d="M317 268l-8 3c4 4 6 1 12 8a6 6 0 001 1c1-1-3-11-5-12zm0 0c4-1 11 21 2 11-5-6-19-10-2-11z"/><path class="cls-10" d="M317 268l-8 3 5 3c6 3 8 11 9 5 0-1-4-11-6-11z"/><path class="cls-7" d="M478 285l-7 3c3 4 5 1 11 9a5 5 0 001 1c1-2-3-12-5-13zm0 0c4-1 11 22 2 11-5-5-19-9-2-11z"/><path class="cls-10" d="M478 285l-8 3c2 2 1 2 5 3 6 3 8 11 9 5 0-1-4-11-6-11z"/><path class="cls-7" d="M303 299c1 4 2 1 4 8h6c2-1 19-7 13-10-2 0-15-3-19-1l-4 3zm0 0h1c4-6 11-2 18-1 10 1-3 5-7 7s-3 2-8 1c-1-5-1-3-4-7z"/><path class="cls-8" d="M303 299c1 3 4 2 4 8 6 1 5-1 13-3 1-1 12-7 2-7-4 0-15-5-18 2h-1z"/><path class="cls-4" d="M63 247c5 0 19-2 23-1s19 1 18 3c-1 3-37 4-42 2-6-2-6-2 1-4zm0 0c-6 2-7 2-2 4 7 2 41 0 42-2l-13-2-7-1-20 1zm40 2z"/><path class="cls-11" d="M63 247c5 1 21-2 23-1a49 49 0 0011 2c8-1 11 2-5 3-4 1-28 2-31 0 0 0-6-1 0-3l2-1z"/><path class="cls-7" d="M138 253l-7-3c0 6 3 5 3 15a5 5 0 000 1c2 0 6-10 4-13zm0 0c4 2-6 24-6 10 1-8-7-20 6-10z"/><path class="cls-10" d="M138 253l-7-3c-1 3-1 2 1 6 3 6-1 14 4 9 0 0 4-10 2-12z"/><path class="cls-7" d="M129 288l7 3c0-7-3-5-3-18a9 9 0 000-1c-2 0-6 13-4 16zm0 0c-4-2 5-30 6-12 0 9 9 24-6 12z"/><path class="cls-10" d="M129 288c1 0 7 4 8 3 0-4 0-2-2-7-3-7 1-17-4-11 0 0-5 13-2 15z"/><path class="cls-13" d="M109 216c4-3 5-2 9-7 2-2 9-1 13-1 3 0 8 1 3 3-3 1-13 6-16 6 0 1-6 3-9 0a2 2 0 010-1zm0 0c2 4 8 1 9 1l16-8a18 18 0 00-3 0c-4 0-11-1-12 1-4 4-5 3-10 6z"/><path class="cls-11" d="M109 216c1-1 8-4 9-6 2-4 9 0 13-1 0 0 10-1-1 3l-5 2c-3 1-4 3-7 3l-3 1c-2 0-5 0-6-2z"/><path class="cls-4" d="M111 248c3-2 8 1 13 1s4 5-3 4c-2-1 1-1-4-2 0 0-14 0-10-3h3a3 3 0 011 0zm0 0h-3c-5 2 12 2 13 3h5l-2-1c-6 0-10-3-13-2z"/><path class="cls-10" d="M111 248c3-2 8 2 13 2 2 0 6 3-2 2l-5-1-7-1c-5 0-3-4 0-2h1z"/><path class="cls-4" d="M46 288c2-1 8 2 13 2s4 5-3 3c-2-1 1-1-5-1 0 0-13-1-9-4h3a2 2 0 011 0zm0 0h-3c-5 2 12 3 13 3l5 1-2-1c-6-1-10-4-13-3z"/><path class="cls-10" d="M46 288c3-1 8 3 12 2 3 0 6 3-1 3-2-1-1-2-6-2l-6-1c-6 0-3-4 0-1l1-1z"/><path class="cls-7" d="M41 247l1 15c2-2 2-9 10-12 2-2-5-2-7-2-1-1-3-2-4-1zm11 3zm-11-3c1-1 5 1 8 1 4-1 4 2 3 2-7 5-5 7-9 13-4 4-2-16-2-16z"/><path class="cls-8" d="M41 247v10c0 1-1 9 2 5s4-10 9-12c0 0 2-3-3-2-4 0-7-2-8-1z"/><path class="cls-7" d="M204 251c2-3 4-2 7-1 2 0 2 2 5 2l6 1c4 0 1 11-1 11-3-1-2-6-11-10 0 0-9-2-6-3zm0 0c-1 2 8 2 12 5l5 7s4-9 1-9l-6-1c-4-1-3-2-5-3-3-1-5-1-7 1zm17 12z"/><path class="cls-8" d="M204 251c2-3 3-2 7-1 2 0 2 2 5 3l6 1c4 0 0 6 0 8-1 4-5-5-7-6a27 27 0 00-10-3l-1-2z"/><path class="cls-7" d="M209 246c4 2 8 6 11 4l4 2c2-2-3-2-5-4-3-5-1-7-9-3zm0 0l3-2c3-2 4-3 6 1 5 7 6 3 7 6 1 4-4 0-4 0-4 2-9-3-12-5z"/><path class="cls-8" d="M209 246l9 5c4 0 1-2 6 1 1 1 2-2-2-3-4 0-4-9-8-6l-5 3z"/><path class="cls-4" d="M143 211c-3 0-1 5-1 8l5-8a7 7 0 001-1c-2-1-3 2-5 1zm-1 9zm1-9l3-1c7-2 0 3 0 3 0 1-3 8-4 7-1 0-3-11 1-9z"/><path class="cls-10" d="M143 211c-3-1-1 4-2 7 0 6 5-5 5-5 2-2 5-3 0-3l-3 1z"/><path class="cls-4" d="M102 209c-3 0-1 6-1 9 2-1 2-5 6-8a6 6 0 001-1h-6zm-1 9zm1-9c4 0 1 0 3-1 8-1 1 4 1 4-1 0-3 8-5 7-1 0-2-11 1-10z"/><path class="cls-10" d="M102 209c-3 0-1 5-1 8 0 6 4-5 4-5 2-2 6-3 0-3h-3z"/><path class="cls-7" d="M139 243c2 2-5 5 3 8 6 2-2-9-2-9a10 10 0 00-1 1zm1-1zm-1 1a3 3 0 011-2c1-1 5 7 5 7 2 3-1 5-3 4-9-3-3-7-3-9z"/><path class="cls-8" d="M139 243c1 2-6 5 3 9 1 0 4 0 3-3l-5-8-1 2z"/><path class="cls-4" d="M265 253c3-5 5-4 9-10 3-4 3-2 7 1l3 5c-1 2-5 1-7 6-2 3-5 0-7-1 0 0-7 1-5-1zm0 0c0 2 4 1 5 0 1 1 5 4 6 2 3-6 6-5 7-6l-3-4c-3-4-3-5-5-2-5 7-5 5-10 10z"/><path class="cls-10" d="M265 253c3-5 5-3 9-10 3-4 3-1 7 2 0 0-1 1 2 3s-5 2-6 7c-2 4-7-1-7-1s-6 1-5-1z"/><path class="cls-4" d="M217 289c7 4 3 13 8 5 2-3 10-2 6-5-1-2-3 1-9-2-4-2-6 1-5 2zm0 0c-1 0 0-5 5-2s8-1 10 1c5 4-5 4-6 7-6 8-3-1-9-6z"/><path class="cls-10" d="M217 289c6 3 4 14 8 5 2-3 10-1 7-5-2-3-4 1-10-2-4-3-6 1-5 2z"/><path class="cls-4" d="M267 289c0-3 5 0 9 0 13 2 15 6 8 5l-9-1c-7-2-10 1-8-4zm0 0c0 1-1 2 1 2l12 1 7 1-11-3c-5-1-8-4-9-1z"/><path class="cls-10" d="M267 289c0-3 4 1 9 1 0 0 15 2 10 4 0 0-3-2-6-1-4 0-7-2-12-1-2 0-1-2-1-3z"/><path class="cls-7" d="M373 288c2-2 4-2 7-1l5 3 6 1c4 0 1 10-1 10-3 0-2-6-11-9 0 0-9-2-6-4zm0 0c-1 3 8 3 12 6l5 6s4-8 1-8l-6-1c-4-1-3-2-5-3-3-1-5-2-7 0zm17 12z"/><path class="cls-8" d="M373 288c2-3 3-1 7 0 2 0 2 2 5 2 2 1 2 2 6 1s0 7 0 9c-1 4-5-5-7-6a28 28 0 00-10-4s-2-1-1-2z"/><path class="cls-7" d="M438 245c0 3-2 1-1 7 1 1-4 2-7 2-1 0-22 0-16-4 1-1 14-7 18-7l6 2zm0 0h-1c-6-4-12 1-19 4-10 4 5 4 9 4 5 0 5 1 9-1-1-4 1-3 2-7z"/><path class="cls-8" d="M438 245c0 2-3 3-1 7-6 3-6 1-15 1-1 1-15-1-4-4 4-2 13-9 19-4h1z"/><path class="cls-7" d="M414 291c1-2 16-2 20-3 10-1-1 6-7 6l-13-2a1 1 0 010-1zm0 0l1 1c12 1 13 3 22-3a13 13 0 00-3 0c-4 1-17 0-20 2z"/><path class="cls-10" d="M414 291c2-2 15-2 19-2h5c-9 7-12 4-23 4l-1-2z"/><path class="cls-7" d="M423 211c2-3 17-1 20-1 10 0-2 7-8 6l-12-4a1 1 0 010-1zm0 0l1 1c12 3 12 5 22-1a11 11 0 00-3 0c-4 0-17-3-20 0z"/><path class="cls-10" d="M423 211c2-3 15 0 19 0h5c-10 8-13 3-23 1l-1-1z"/><path class="cls-7" d="M488 254c-1 3-16 1-19 1-11 0 1-7 7-6 2 0 12 2 13 4a1 1 0 01-1 1zm0 0v-2c-12-2-13-5-22 1a10 10 0 003 1c4 0 17 2 19 0z"/><path class="cls-10" d="M488 254c-1 3-14 0-18 0-1 0-5 1-5-1 10-7 12-3 23-1v2z"/><path class="cls-4" d="M87 292c10 1 32 2 38-1 5-3-5-9-12-10l-11 1c-17 0-9 1-16 6-2 2-1 2 1 4zm0 0c-2-2-3-2-2-4 7-5-1-6 17-7h11c8 0 21 8 11 11-9 2-26 1-37 0z"/><path class="cls-11" d="M87 292c19 2 50 2 38-6-10-7-12-4-23-4-18-1-9 1-16 6-2 1-1 2 1 4z"/><path class="cls-12" d="M127 289c1-1 0-2-2-3-10-7-12-4-23-4-17-1-10 1-16 6 7 1 19-2 20-1 19 9 4-5 16 1l5 1z"/><path class="cls-13" d="M357 249c4-2 4 0 8-3 3-1 7 3 10 4s6 3 1 3h-13s-6 0-6-3a1 1 0 010-1zm0 0c0 4 5 3 6 3h14a14 14 0 00-2-1c-3-1-7-5-9-4-4 2-5 1-9 2z"/><path class="cls-11" d="M357 249l8-2c3-2 7 3 10 3 0 0 8 3-1 2l-5 1h-6l-3-1c-1 0-4-1-3-3z"/><path class="cls-13" d="M364 237l-3 7c-2 3 2 0 3 0l4 1-2-4-1-4a6 6 0 00-1-3v3zm0 0a2 2 0 000-1c-1-4 2-1 2 2a2 2 0 010 1l2 5c2 4-2 1-4 1-1 0-6 2-4-1l4-7zm2 1z"/><path class="cls-11" d="M364 237l-3 7c-3 4 3 0 3 0 1 0 5 3 4 1l-2-6v-2c0-1-3-5-2-1a2 2 0 010 1z"/><path class="cls-13" d="M358 214l10 2c2 1 7-2 10-3s6-3 1-3h-14s-6 0-7 3a1 1 0 000 1zm0 0c1-4 6-3 8-3h14a16 16 0 01-2 1c-3 1-8 5-10 4-4-2-5-1-10-2z"/><path class="cls-11" d="M358 214l9 2c3 2 8-3 11-3 0 0 8-3-2-2l-5-1h-6a7 7 0 00-3 1c-1 0-4 1-4 3z"/><path class="cls-7" d="M355 253l-8-2c-1 0-10 2-9 3s5 3 8 3c2-1 15-3 9-4zm0 0c6 0-4 3-9 4l-9-3c-1-1 7-2 10-3l8 2z"/><path class="cls-8" d="M355 253l-5-2h-3l-9 2c-2 1 2 2 3 3a10 10 0 006 1c9-2 12-4 8-4z"/><path class="cls-7" d="M380 279l-6 5c5 2 6-1 14 4a6 6 0 001 1c1-2-6-10-9-10zm0 0c4-3 18 16 6 10-7-4-21-3-6-10z"/><path class="cls-10" d="M380 279l-6 5c2 2 1 1 6 2 6 0 11 7 9 1 0-1-7-9-9-8z"/><path class="cls-13" d="M172 212c-17 0-26-2-28 16-1 8-1 24 10 20 10-3 15 2 24 0l11-1c19 1 26-6 24-25-1-10-9-8-19-9-9-1-13-2-22-1zm0 0c9-2 14-1 22 0 10 2 19 0 20 10 2 20-5 27-25 26l-10 1c-9 2-15-3-24 0-13 4-13-13-12-21 3-18 11-17 29-16z"/><path class="cls-11" d="M172 212c-2 0-15-1-21 1-11 5-12 42 4 36 8-4 17 3 27-1 5-2 33 9 32-23-1-7-1-11-12-11-10-1-21-4-30-2z"/><path class="cls-12" d="M172 212a29 29 0 01-4 0c-6 13-8 5-6 0l-11 1a9 9 0 00-4 4c-1 12 1 32 9 26 6-6 22 4 22-4-1-17 4-25 6-28a48 48 0 00-12 1zm41 23c-2 1-6-3-12 8-6 8-15 3-10-3 1-2 10-20 1-7-10 15-13 2-10-2 1-1-2-9 4-19l16 2c11 0 11 4 12 11a37 37 0 01-1 10z"/><path class="cls-14" d="M152 215c1-1 8-4 9-3v5c0 4 1 5 6 3l4-3c0 4-5 6-9 6s-4-6-3-9l-7 1zm8-1z"/><path class="cls-13" d="M57 169c-17 1-25-2-28 17-1 7-1 23 11 20 10-3 15 1 24 0 7-2 3-2 11-1 19 1 25-6 24-25-1-10-10-9-19-10s-13-2-23-1zm0 0c9-1 14 0 23 1 10 1 19-1 20 10 1 19-6 27-25 26-9-1-3-1-11 1-9 1-14-3-23-1-13 4-14-12-12-21 3-18 11-16 28-16z"/><path class="cls-11" d="M57 169c-1 0-14-1-20 2-11 4-13 41 3 35 9-3 17 3 28-1 4-2 33 9 31-23 0-6 0-10-11-11s-21-4-31-2z"/><path class="cls-12" d="M57 169a28 28 0 01-3 0c-6 14-8 5-7 0l-10 2a9 9 0 00-4 3c-1 13 1 33 8 26 6-5 23 4 23-4-1-17 3-24 6-27a48 48 0 00-13 0zm42 23c-2 1-6-2-12 8-6 8-15 3-11-3 2-2 11-20 2-7-10 16-13 2-11-2 1-1-1-9 4-19l17 2c11 1 11 5 11 11a37 37 0 010 10z"/><path class="cls-14" d="M38 172c1 0 8-4 9-2v4c0 4 1 5 5 3l5-3c0 4-5 7-9 7-5-1-4-6-4-9h-6zm8-1z"/><path class="cls-13" d="M243 250c-20-1-25-1-26-18-1-10 0-13 12-18 4-1 21-2 24-1 6 2 13 15 19 20 3 3 0 12-8 15-6 2-15 2-21 2zm0 0l17-1c13-1 17-13 13-16-7-6-13-18-19-21-4-1-22 0-26 1-12 5-13 9-12 19 2 17 6 18 27 18z"/><path class="cls-11" d="M243 250c-12 0-17 1-23-5-3-3-6-23 0-27 15-9 11-4 30-6 9 0 14 15 22 21 2 1 2 5 0 9-4 9-18 8-29 8z"/><path class="cls-12" d="M218 240c-2-7-3-19 2-22 15-9 11-4 30-6a8 8 0 015 2c1 4 0 9 6 9l2-1 9 11c-10 18-16 4-24 8-9 3-11-4-20 0-5 2-8 1-10-1zm13-21c-11 0-7 14-3 6 1-2 5-2 6-2 0-3 0-4-3-4z"/><path class="cls-14" d="M235 215c4-2 12-5 16-2s0 7 4 9c7 3-2-2 5 2-5 0-9 0-10-6 0-5-12-3-15-3z"/><path class="cls-13" d="M457 327c-20 0-25 0-26-17-1-10 0-13 12-18 4-2 21-2 24-1 6 2 13 15 19 20 3 3 0 12-8 15-6 2-16 1-21 1zm0 0h17c13-1 17-13 12-17-6-5-12-17-18-20-4-1-22-1-26 1-12 5-13 8-12 19 2 17 6 18 27 17z"/><path class="cls-11" d="M457 327c-12 0-17 2-23-4-3-3-6-24 0-27 15-9 11-5 30-6 9 0 14 15 22 21 2 1 1 5 0 9-4 9-18 7-29 7z"/><path class="cls-12" d="M432 317c-2-7-3-19 2-21 15-9 11-5 30-6a8 8 0 015 2c1 3 0 9 6 9l2-1 9 11c-10 18-16 4-24 7-9 4-11-3-21 1-4 2-7 1-9-2zm13-20c-11 0-7 14-3 6 1-2 4-2 6-2 0-3 0-4-3-4z"/><path class="cls-14" d="M449 293c4-2 11-5 16-2s0 7 4 9c6 3-2-2 5 2-5 0-9 0-10-6 0-5-12-3-15-3z"/><path class="cls-13" d="M323 213c-16 1-40-7-43 17-1 9 3 19 13 17 14-2 55 5 63 0 4-3 16-35-8-35l-25 1zm0 0l27-1c20 0 13 29 8 35-7 7-52 0-65 1-16 2-16-20-9-29 8-10 27-6 39-6z"/><path class="cls-11" d="M323 213c-1 0-27-2-34 2-15 9-11 36 4 33 12-3 60 6 65-2 5-10 10-34-8-34l-27 1z"/><path class="cls-12" d="M292 226c14-4 31 2 10 1-1 0-17 5-13-1h3zm31-13c-1 0-27-2-34 2s-10 12-9 19c1 4 4 6 9 6 6 0 1-3 15-1 15 2 22-4 33-11 8-5 24 2 17 2-11 0-25-1-25 13 0 3 23 2 30 0 5-10 8-31-9-31l-27 1z"/><path class="cls-14" d="M310 236c10-2 10-2 19-8 5-3 15-7 22-3a14 14 0 003 1h-4c-5-2-12 1-16 3-11 6-11 8-24 7z"/><path class="cls-4" d="M281 177c11-3 17-2 28-3 6-1 39-5 43 2 2 4 0 14 2 20 3 12-7 9-17 10-13 2-21 4-34 3-14 0-29 2-29-17 0-10-2-12 7-15zm0 0c-9 4-7 7-7 18 3 16 16 13 29 13s21-1 34-3c9-1 18 2 16-8-2-7 0-17-2-21-3-5-31-2-36-2-11 1-23 0-34 3z"/><path class="cls-10" d="M281 177c9-3 14-2 24-3 8 0 42-4 46 1 3 4 0 16 2 22 2 4 0 8-5 8-14 0-33 5-45 4-7-1-27 4-29-13v-8c0-6 0-8 7-11z"/><path class="cls-6" d="M281 177c9-3 14-2 24-3 8 0 42-4 46 1 3 4 0 16 2 22a7 7 0 011 4l-18 4-5-1-3-1c-4 0-7-6-3-8l4-3 1-1h9l5-2c3-2 3 0 3-2l-3-1c-3 2-5 2-9 2l-13 2-8 4c-5 3-16 4-21 3s-15 0-19-4v-5c0-6 0-8 7-11z"/><path class="cls-15" d="M275 185c4-7 13-5 20-7 10-3 11-5 23-5 9 0 13 1 21 4l2 1c-4 0-1 0-7-2-13-2-23-1-35 3-10 3-16 0-24 6z"/><path class="cls-4" d="M175 299c1 6 6 25-5 27-13 1-71 3-72-13 0-3-2-15 3-17 7-4 62-2 71 0a22 22 0 013 3zm0 0a14 14 0 00-3-3c-9-2-64-5-72-1-5 2-4 14-3 18 1 17 59 15 74 13 10-1 5-21 4-27z"/><path class="cls-11" d="M175 299c1 6 6 26-4 27-14 1-74 4-74-13 0-21-3-20 35-20l40 3a17 17 0 013 3z"/><path class="cls-12" d="M175 299l1 6a2 2 0 01-3 1c-9-2 0 12-16 2-16 6-16 1-29-4-6-3-14 16 2 8 6-3 4 1 12 1 5 0-5 6-12 7-3 0-4 4-1 6-17-1-32-5-32-13 0-16-2-19 14-20 1 2 0 5 7 1a6 6 0 002-1h12l40 3a17 17 0 013 3zm2 15c-2-4-6-6-9-3-6 7-12 2-12 4 3 14 5 10-4 12l19-1c5-1 6-6 6-12z"/><path class="cls-14" d="M100 300c11-10 8-2 14-3 4-1 4-2 10-2 7-1 23 1 30 2-6 2-25 0-33 1l-8 1c-7 0 0-6-13 1z"/><path class="cls-7" d="M218 325c3-8 5-28-5-34-5-3-8 2-16 1s-12-3-15 6c-7 21 9 34 29 30zm0 0l-7 3c-20 6-37-9-30-31 4-9 8-8 16-6s14-6 20 2c6 9 5 23 1 32z"/><path class="cls-8" d="M218 325c5-8 5-43-15-34-8 4-19-10-23 14-3 21 21 29 38 20z"/><path class="cls-9" d="M220 302c-2-8-7-15-17-11-8 3-18-8-22 9 6-1 9-6 9 12 0 9-7 0-10-3a19 19 0 005 13 11 11 0 0012-6c4-8 20-3 23-14z"/><path class="cls-16" d="M194 315c5-4 9-6 15-7 3 0 6-4 7-6v2c-3 7-6 7-11 8-5 2-6 3-11 3z"/><path class="cls-7" d="M299 323c1-5 8-26-3-26-13 0-24-3-37-3h-20c-11 2-12 0-13 14 0 4-2 14 2 16l18 1c10 0 20 2 29-3 0 0 21 5 24 1zm0 0c-1 4-21 0-24 0-10 4-18 3-29 2-6 0-16 2-19-1s-2-18-2-22c2-9 6-8 13-9h21c13 0 24 3 37 3 12 0 5 22 3 27z"/><path class="cls-8" d="M299 323c2-7 8-27-3-27-11 1-25-3-37-3-11 1-9-2-21 1-5 1-12-3-12 14 0 14-4 19 12 17 8-1 28 3 37-3 2 1 23 4 24 1z"/><path class="cls-9" d="M302 311c1-8 1-15-6-15-11 1-25-3-37-3-11 1-9-2-21 1-5 1-12-3-12 14l-1 7c3 3 6 5 8 3 9-7 33 1 35-2 3-5 6-4 0-8-9-6-6-2-11-9-6-10 22 14 26 10 9-8 14 1 19 2z"/><path class="cls-16" d="M271 300l10 7c3-1 14-5 15 1h-1c-5-4-8 2-14 2-3 0-9-9-10-10z"/><path class="cls-7" d="M393 303c2 3 3 19 6 20 1 1 23 7 26 0 1-4 4-22-2-26-2-2-34-10-30 6zm0 0c-6-14 22-12 31-7 7 3 4 23 2 28-2 6-20 2-27 0-6-1-5-18-6-21z"/><path class="cls-8" d="M393 303c2 4 0 9 2 14 2 2 1 6 4 7 9 2 13 4 24 2 4-1 3-14 4-16 1-4 1-13-5-14-21-6-32-3-29 7z"/><path class="cls-9" d="M425 319l1-9c1-3 0-12-5-13-18-5-28-3-28 3 1 3 3 7 3 13s17 9 19 4c1-1 5-5 4 1-1 3 2 3 6 1z"/><path class="cls-16" d="M402 299c-1-4 9-3 11-2 3 1 8 2 10 5l-7-2c-6-1-10-3-14-1z"/><path class="cls-4" d="M441 255c0 7 3 27-6 28-7 1-7 4-18 4h-20c-6 1-9-3-13-7-16-15-6-27 13-25 15 1 17 3 33 1 4 0 6 0 10-2a10 10 0 001 1zm0 0l-1-1c-4 2-6 2-10 2-16 2-18 0-33-2-20-2-30 11-14 27 4 4 8 8 14 7h20c11 0 11-3 18-4 9-2 7-22 6-29z"/><path class="cls-10" d="M441 255c1 6 3 28-6 28-5 1-6 6-24 4-19-1-15 5-28-7-11-10-10-23 6-25 11-2 21 4 39 2 2-1 11-1 12-3z"/><path class="cls-6" d="M441 255c0 4 1 17-1 24l-3-3c-1-2-14 1-16 2-8 2-17-4-23 3-12 13-18-19-15-21 10-8 11-4 16-5 8 1 16 3 29 2 2-1 11-1 12-3z"/><path class="cls-15" d="M383 262c9-10 7-2 13-3 3-1 3-2 8-2l26 2c-5 2-22 0-29 1l-6 1c-6 0-1-5-12 1z"/><path class="cls-7" d="M207 173c-8 4-7 3-17 2-5-1-19-3-22 3l-3 8c-2 3-1 17 3 20 13 6 20 1 34 1a186 186 0 0129 1c4 0 19 1 20-4l-2-28c-2-5-15-4-20-4l-22 1zm0 0l22-1c5 0 18-2 21 4l2 28c-1 6-17 5-21 5a200 200 0 00-29-1c-14 0-21 5-35-2-4-2-5-17-3-20 3-3 1-5 3-8 4-6 17-4 24-3 9 0 8 2 16-2z"/><path class="cls-8" d="M207 173c-7 3-4 3-12 2l-10-1c-9 0-17-2-19 8 0 6-4 2-2 14 1 9 1 9 8 12 11 4 18-1 30-1l29 1c4 1 13 0 17-1 6-1 2-8 3-12l-1-8c0-14 0-15-16-15l-27 1z"/><path class="cls-9" d="M190 175a40 40 0 00-5-1c-9 0-17-2-19 8v1c2 5 5 11 8 11 10 0 17 4 25 0 2-1 2-6 7-7s11-3 16 0c7 3 19-5 28-5 0-9-2-10-16-10h-15c-8 6-12 9-28 3h-1zm53 33a16 16 0 01-5-2c-16-10-26-2-43-1-4 1-24-2-23-8 11-3 10 5 26 2 13-2 1-8 28-8 5 0 17-4 24-3l1 7c-1 4 3 11-3 12l-5 1z"/><path class="cls-16" d="M247 181c-1-6-2-8-9-6l-21 4-16-1 15-2 17-3c5-1 18-2 14 8z"/><path class="cls-7" d="M56 244c7-4 6-3 16-2 6 1 19 3 22-3l3-8c2-4 2-17-3-19-12-7-20-2-34-1a186 186 0 01-29-1c-4-1-19-2-20 3l2 28c2 5 16 4 20 4l23-1zm0 0c-9 2-14 2-23 2-5 0-18 1-20-5l-3-28c2-6 17-5 21-4a200 200 0 0029 0c14 0 22-5 35 2 5 2 6 17 3 21l-3 8c-4 6-17 3-23 3-10-1-8-2-16 1z"/><path class="cls-8" d="M56 244c7-3 3-2 11-2l11 1c8 0 17 3 18-8 1-5 4-2 2-14-1-9 0-9-7-12-12-4-19 1-31 1-7 0-22 1-29-1-4-1-13 0-16 1-7 1-3 8-3 12v8c0 14 0 15 16 15 4 0 24 1 28-1z"/><path class="cls-9" d="M72 243a39 39 0 006 0c8 0 17 3 18-8v-1c-1-5-5-11-8-11-9 0-17-4-25 0-2 1-2 6-7 7s-11 3-15 1c-7-4-20 4-29 4 0 9 2 10 16 10h15c9-6 12-8 28-3h1zm-53-34a16 16 0 016 2c16 10 25 3 42 1 4 0 24 3 23 9-10 2-10-5-26-3-13 2-1 8-28 8-5 0-17 5-24 3v-7c0-4-4-11 3-12l4-1z"/><path class="cls-16" d="M15 237c1 5 2 7 9 6 9-2 12-4 22-4h15l-15 2-17 3c-5 1-18 2-14-7z"/><path class="cls-4" d="M182 250c-13 4-16 2-28 2s-15 6-17 19c-1 9 0 19 11 19 6-1 0-2 8 0 13 3 16 5 28-2 8-5 29 0 31-4 12-32-12-29-32-34a5 5 0 00-1 0zm0 0a3 3 0 011 0c21 4 44 2 33 34-2 5-24 0-31 5-13 7-16 5-29 2h-8c-11 0-13-10-11-20 1-13 4-19 17-19s15 1 28-2z"/><path class="cls-10" d="M182 250c-23 7-37-5-43 11-3 11-6 33 12 29 3-1 20 8 33-2 6-4 30 1 31-4 12-34-14-30-31-34a11 11 0 00-2 0z"/><path class="cls-6" d="M180 250l-4 1c-1 8-6 17-9 22l-8 8c-1 2 0-4 6-9 2-2 7-14 8-20-18 2-30-5-34 9-9 31 12 37 31 14 6-7 7-18 12-7 3 5 6 13 10 18h9a5 5 0 00-1 0c-6-3 2-21-3-30-2-5-15 0-17-6zm-9 43c1-8 9-20 12-3a24 24 0 01-12 3zm40-37c11 13 3 27-3 22-10-10-8-21-4-24a27 27 0 017 2z"/><path class="cls-15" d="M142 258c-5-5 12-4 13-4a61 61 0 0010-2c2 0 9-3 12-1l-1 1c-8 0-3 0-11 3-6 3-12 1-18 1-4 0-5 0-5 2z"/><path class="cls-10" d="M139 286c8-11 11-14 22-22 7-5 5-8 7-13 0 5-1 9-5 12l-4 7c-5 9 3 8-1 19 2-10-3-10-1-15v-1c-6 7 1 9-3 16h-1c4-7-3-11 4-16l4-8c-12 8-13 11-22 21zm29-35zm0 0z"/><path class="cls-4" d="M389 308c1 3 3 15 1 17-9 5-36 2-46 3-10 2-30 8-31-8-1-11-2-7 11-14 6-4 18-13 24-13 10-1 32-2 39 6 2 3 2 5 2 9zm0 0c0-5 0-7-4-11-8-6-34-7-43-3l-30 18c-2 2 0 10 0 12 5 12 23 7 32 5 10-1 37 2 46-4 3-2 0-14-1-17z"/><path class="cls-10" d="M389 308c0 3 4 15 1 17-5 3-24 3-30 3-13 1-10-1-25 2-9 2-23 1-23-10 0-7-4-7 9-13 7-3 21-15 27-15 12 0 42-3 41 16z"/><path class="cls-6" d="M313 312l8-5c7-3 21-15 27-15 10 0 34-2 40 9 1 9 3 12-17 16-14 2-11-2-25-1-4 1-29-1-31-2l-2-2z"/><path class="cls-15" d="M329 304c9-7 39-16 49-8l1 2-2-1c-12-6-36 3-48 7z"/><path class="cls-4" d="M335 299c2 1 7 12 11 15 8 5 10 22 5 7-2-6-8-7-11-12-5-9-2-8-6 6-4 12 2-11 2-12-1-2-3-3-1-4zM358 207c0-9-2-16-1-24 2-13 12-9 23-9 7 0 49-5 50 0 2 5 1 12 3 19 2 6 2 16-6 16h-36c-2 0-33 2-33-2zm0 0c1 4 30 1 33 1h36c7 0 6-10 5-15-2-6-1-13-3-19-1-3-39 0-45 1-17 0-27-6-27 15 0 7 2 9 1 17z"/><path class="cls-10" d="M358 207c1-7-2-14 0-24s7-9 18-9l32-1c5 0 21-2 22 1 1 5 1 14 3 19 1 4 2 16-6 15a471 471 0 00-48 1c-3 0-21 1-21-2z"/><path class="cls-6" d="M375 174h1l32-1c5 0 21-2 22 1a22 22 0 010 5l-3 6c5 8 6 7 2 14-4 10-11 6-11 2-2-12-11-2-18 3-2 2-32 1-34 0-7-2-7-6-7-12-1-12 5-12 5-13l11-5zm0 11a21 21 0 015-2c4-1 2-3 1-3l-3-1c-1-1-18 8-3 6zm39 13c-2 1-9 0-7 5 0 1 6 3 7-2 1 0 2-3 0-3z"/><path class="cls-15" d="M391 176c0-3 29 1 32 2h-3c-11 2-18-1-29-2z"/><path class="cls-10" d="M358 197l4-4c4-5 12-5 14-4h-2c-1 0-7-1-10 3l-6 6v-1z"/><path class="cls-4" d="M20 329c0-9-3-16-1-25 2-12 12-8 23-9 7 0 48-4 49 0 2 6 2 12 3 19 2 6 3 16-5 16H53c-3 0-34 2-33-1zm0 0c0 3 29 0 33 0h36c7 0 6-9 4-14-1-7-1-14-3-19-1-3-39 0-44 0-18 1-27-6-27 15l1 18z"/><path class="cls-10" d="M20 329c1-8-3-14-1-25s7-8 19-8l31-2c5 0 21-1 22 1 2 5 1 15 3 19 2 5 2 16-5 16a473 473 0 00-49 0c-2 0-21 2-20-1z"/><path class="cls-6" d="M36 296h2l31-2c5 0 21-1 22 1a23 23 0 011 5l-4 6c6 8 6 7 3 15-5 10-11 5-12 1-2-12-11-2-18 3-2 2-32 1-34 0-7-2-6-6-7-12 0-11 6-12 6-13l10-4zm0 10a22 22 0 015-2c5-1 3-3 2-3s-2 1-4-1c0-1-17 9-3 6zm39 14c-2 0-9-1-7 5 0 0 6 2 8-3 0 0 1-3-1-2z"/><path class="cls-15" d="M53 297c-1-3 28 1 32 2l-4 1c-11 1-18-1-28-3z"/><path class="cls-10" d="M19 318c2 0 3-2 5-4 3-5 11-4 13-4h-1c-2 1-8-1-11 3-2 3-5 7-6 6v-1zM335 299c2 1 7 12 11 15 8 5 10 22 5 7-2-6-8-7-11-12-5-9-2-8-6 6-4 12 2-11 2-12s-3-3-2-4h1z"/></g></g></svg>