<svg width="100" height="100" xmlns="http://www.w3.org/2000/svg" viewBox="0 0 500 500"><defs><style>.cls-5{fill:#94d31a}</style></defs><g style="isolation:isolate"><g id="_Layer_" data-name="&lt;Layer&gt;"><path d="M10 282c0 11 7 23 18 25-2 9-5 19-2 28s11 17 20 16c-6 16 5 37 22 41 1 8 3 17 8 23s16 9 22 3c2 14 18 24 31 20 3 6 6 13 11 17s14 4 18-1c0 9 9 17 18 16l10-1c10 1 18 10 28 12 13 2 15-10 27-14 9-3 18 3 27 5s22-4 19-13c9 5 19 9 29 8s20-10 18-20c9 9 27 0 25-12a24 24 0 0038-25c9 6 22 3 28-6s1-22-9-26c8 4 19 0 24-8s3-19-5-24c7-1 14-4 17-10s1-14-6-16c20-3 31-31 19-47 10 2 22-4 24-15s-4-21-14-24a24 24 0 00-11-45c6-12-6-28-19-26a17 17 0 00-16-31c12-13 0-37-18-37 4-7-1-17-9-20s-16-4-24-3c-2-9-4-19-10-25s-19-7-23 1c-6-18-30-28-47-18-6-15-32-15-39 0a42 42 0 00-62 6c-12-14-39-7-43 11-17-11-43 1-47 21-14-8-34 3-35 19-16 6-25 25-21 41-7 4-11 17-12 28a10 10 0 01-5 8c-6 3-14 10-16 26 0 9 5 22 5 24s-22 13-5 37c-4 9-8 20-8 31z" fill="#78a015"/><path d="M431 108c-4-7-11-13-20-13 4-7-1-17-9-20s-16-4-25-3c-1-9-3-19-9-25s-19-7-23 1c-6-18-30-28-47-18-7-15-32-15-39 0a42 42 0 00-62 6c-12-14-39-7-43 11-17-11-43 1-47 21-14-8-34 3-35 19-16 6-25 25-21 41-7 4-11 17-12 28a10 10 0 01-5 8c-6 3-14 10-16 26 0 9 5 22 5 24s-22 13-5 37c-4 9-8 20-8 31s7 23 18 25c-2 9-5 19-2 28s11 17 20 16c-6 16 5 37 22 41 1 8 3 17 8 23s16 9 22 3c2 14 18 24 31 20 3 6 6 13 11 17s14 4 18-1c0 9 9 17 18 16l10-1c10 1 18 10 28 12 13 2 15-10 27-14 9-3 18 3 27 5s22-4 19-13c9 5 18 9 28 8a57 57 0 003-9 11 11 0 000-6c-2-4-6-5-9-7-6-4-10-11-16-15-10-6-21-2-32-2s-24-8-21-18c4-13 24-8 35-16a11 11 0 00-10-9c1-8 10-11 17-14s15-11 10-17-17-1-23-6c-5-6 0-16 8-18s15 0 22-1 16-8 14-15c-3-11-24-9-25-20-1-6 4-11 2-16-2-6-11-6-16-3s-9 8-15 11c-8 3-19-1-22-9s0-18 8-22c6-3 14-2 21-3s13-10 9-16l-16-6a67 67 0 0136-30c-8-4-7-16-1-22s16-7 25-8c21-2 56-4 73-16-19-23 16-37 34-44z" fill="#7ebb15"/><path class="cls-5" d="M121 361c-6-4-10-11-13-17l-24-38c-4-7-4-18 3-17-5-8-7-22 2-23a40 40 0 01-27-28c-2-8-1-16 4-22l8-8a20 20 0 004-20l11-7-4-9c5-4 5-13-1-17 4-2 5-6 6-10 6-18 29-26 46-18 7-9-5-25 4-33 6-7 17-1 26-1 10 1 19-7 28-10 13-4 26-1 39 4 11 5 22 12 29 22s5 27-5 34c-6 5-14 6-22 6l-40 2c-4 1-9 1-12 3-7 4-9 13-6 19s10 11 17 12c-2 9-11 14-19 15s-17 2-25 6-13 14-8 21a20 20 0 0116 5 57 57 0 00-16 29 265 265 0 0053 31l-15 10c-4 3-9 7-10 12s6 11 10 8c-1 1-1 16-3 20-3 7-9 10-15 14-12 9-27 13-41 5z"/><path class="cls-5" d="M374 101l-6-3-11-9-13-5c-4-2-9-5-9-10 1-3 3-6 2-9l-5-4a36 36 0 00-26 0c-4 2-9 4-11 1-2-2-2-5-2-7-2-6-7-10-13-11s-12 0-18 1c-10 1-26 0-27 13v4h4a14 14 0 016 2c7 3 15 8 15 16l1 6c1 3 6 4 9 3s8-2 11-1c7 3 7 13 3 19s-9 13-8 21a64 64 0 0015 5c-2 4-6 6-9 10s-4 8-2 11c4 6 12 3 17-1s9-10 16-10c3 0 5 2 8 3a36 36 0 0018 3l8-2c5-6-2-20 6-23 3-2 7 0 11 1a13 13 0 0010-24zM192 264c-5 3-6 10-2 13l5 2c8 3 13 11 17 19 2 3 4 8 1 11-2 2-5 2-7 2-8 3-11 13-6 19l6 6c3 5 0 11-2 17l-9 18c-2 4-3 7-6 10-4 3-10 4-15 5-11 3-23 5-34 1-4-1-8-3-13-3s-10 1-11 6c-2 5 4 10 9 12s12 0 18 1a10 10 0 015 2c3 3 2 9 2 14a19 19 0 0034 11c3 6 7 12 12 17s13 6 20 4 10-11 7-17c-2-4-7-6-10-10a18 18 0 018-30c4-1 10-1 12-5a10 10 0 000-6 45 45 0 00-5-18c9-4 18-8 23-17s-1-22-11-23c-3 0-8 2-11-1-2-2-1-6 1-9s4-6 5-9c1-10-12-14-16-23-2-4-1-9-3-13-2-10-17-11-24-6zM36 280a6 6 0 000 3c1 3 5 2 7 3 5 1 8 6 9 12s0 11 0 17c-1 7 0 14 3 20s8 11 14 12l3 13c1 4 3 9 7 11s8 1 10-3 0-9-2-12-6-7-8-11l-1-15c-1-7-5-13-8-19s-4-15 0-20a11 11 0 002-3c1-2 0-4-1-6-7-15-30-25-35-2zM81 99a17 17 0 008 3c2 2 0 5-2 7s-5 1-8 2c-3 2-4 6-5 9l-5 15c-1 2-2 5-1 7 2 4 8 3 10 1s4-7 4-11 1-9 3-12c8-8 25-1 31-10 2-4 1-10 1-14s5-11 9-9c7 2 14-3 19-7 4-3 7-7 6-11a7 7 0 00-3-4c-6-4-14-1-20 3s-12 10-19 11c-13 1-26 4-28 20z"/></g></g></svg>