<svg xmlns="http://www.w3.org/2000/svg" viewBox="0 0 1000 1000"><defs><style>.cls-1{isolation:isolate;}.cls-2{fill:#dfeff2;}.cls-3{fill:#bf5f32;}.cls-4{fill:#9e4a23;}.cls-5{fill:#f99a52;}.cls-6{fill:#fa8e5c;}.cls-7{fill:#ffb254;}.cls-8{fill:#eb8657;}.cls-9{fill:#decbb8;}.cls-15,.cls-9{mix-blend-mode:multiply;}.cls-10{fill:#c4dadf;}.cls-11{fill:#d1e4e8;}.cls-12{fill:#7a81f5;}.cls-13{fill:#454994;}.cls-14{fill:#686ee0;}.cls-15{fill:#b9bcc7;}.cls-16{fill:#79959c;}</style></defs><g class="cls-1"><g id="_Layer_" data-name="&lt;Layer&gt;"><polygon class="cls-2" points="134.38 473.77 158.75 442.78 213.4 414.77 243.81 393.71 279.11 364.54 375.26 322.02 414.21 291.27 472.06 253.14 513.18 251.43 579.56 293.11 640.58 318.38 765.54 399.59 807.56 418.67 817.76 441.95 859.64 457.28 865.62 474.74 709.71 553.07 596.36 612.13 517.36 667.58 481.47 673.95 424.26 632.7 336.55 595.67 238.33 527.47 134.38 473.77"/><polygon class="cls-3" points="596.36 612.13 517.36 667.58 481.47 673.95 487.62 769.55 497.31 822.07 489.93 893.11 521.35 891.8 565.53 862.67 595.28 839.18 607.19 748.14 638.3 694.41 661.41 578.24 596.36 612.13"/><polygon class="cls-4" points="779.29 723.26 809.18 584.94 839.88 538.89 852 496.87 865.62 474.74 709.71 553.07 661.41 578.24 638.3 694.41 607.19 748.14 595.28 839.18 668.73 806.7 718.92 768.33 760.67 746.94 779.29 723.26"/><polygon class="cls-5" points="265.06 765.35 257.27 747.57 225.28 735.86 220.71 722.53 210.49 622.91 191.91 578.24 185.45 545.35 134.38 485.56 134.38 473.77 238.33 527.47 246.85 578.24 265.06 625.34 275.94 685.93 265.06 765.35"/><polygon class="cls-6" points="265.06 765.35 297.16 779.93 392.62 841.96 362.39 727.14 361.34 651.47 336.55 595.67 238.33 527.47 246.85 578.24 265.06 625.34 275.94 685.93 265.06 765.35"/><polygon class="cls-5" points="392.62 841.96 439.23 861.26 489.93 893.11 497.31 822.07 487.62 769.55 481.47 673.95 424.26 632.7 336.55 595.67 361.34 651.47 362.39 727.14 392.62 841.96"/><polygon class="cls-7" points="361.34 651.47 323.61 647.96 311.49 656.96 343 703.71 416.93 723.9 440.76 711.79 423.79 673.95 376.12 669.77 361.34 651.47"/><polygon class="cls-8" points="416.93 723.9 343 703.71 311.49 656.96 331.28 772.78 347.44 805.51 359.56 844.69 385.01 864.89 404 860.85 421.12 853.76 440.76 711.78 416.93 723.9"/><polygon class="cls-5" points="343 703.71 353.5 767.94 376.12 798.64 378.95 834.59 385.01 864.89 404 860.85 414.5 808.33 409.65 772.38 416.93 723.9 343 703.71"/><polygon class="cls-5" points="690.21 613.83 739.9 601.45 752.62 589.28 782.92 572.82 782.92 599.45 759.9 627.36 704.75 624.82 690.21 613.83"/><polygon class="cls-3" points="704.75 624.82 690.21 613.83 679.91 729.16 685.06 752.18 679.91 798.16 695.06 804.29 712.02 794.6 736.57 735.67 765.35 684.71 782.92 599.45 759.9 627.36 704.75 624.82"/><polygon class="cls-4" points="710.21 744.39 695.06 804.29 712.02 794.6 736.57 735.67 765.35 684.71 782.92 599.45 759.9 627.36 704.75 624.82 720.51 652.81 710.21 710.37 710.21 744.39"/><polygon class="cls-7" points="170.18 527.47 154.75 542.12 158.38 563.93 196.52 589.31 234.73 592.61 190.02 568.6 185.45 545.35 170.18 527.47"/><polygon class="cls-8" points="208.88 603.12 234.73 592.61 196.52 589.31 158.38 563.93 175.35 614.43 200.8 645.53 211.71 693.61 218.94 705.2 210.5 622.91 208.88 603.12"/><polygon class="cls-9" points="596.36 612.13 530.47 673.95 537.41 723.9 554.07 751.83 549.21 809.43 521.35 891.8 534.63 824.01 530.47 793.47 534.63 744.39 516.59 698.38 517.36 667.58 596.36 612.13"/><polygon class="cls-9" points="652.4 623.52 643.6 697.92 624.16 746.51 624.16 806.19 649.15 809.89 675.06 796.01 682 751.96 679.91 729.16 685.06 752.18 679.91 798.16 668.73 806.7 595.28 839.18 607.19 748.14 638.3 694.41 652.4 623.52"/><polygon class="cls-9" points="775.53 635.31 769.22 685.93 751.87 726.84 757.07 737.6 765.75 735.67 779.29 723.26 760.67 746.94 724.06 765.7 736.57 735.67 765.35 684.71 775.53 635.31"/><polygon class="cls-9" points="685.06 565.91 785.18 527.47 834.46 527.47 839.88 538.89 852 496.87 865.62 474.74 685.06 565.91"/><polygon class="cls-9" points="759.9 627.36 754.64 684.71 730.45 731.35 712.02 794.6 736.57 735.67 765.35 684.71 782.92 599.45 759.9 627.36"/><polygon class="cls-9" points="416.93 723.9 409.65 772.38 414.5 808.33 404 860.85 421.12 853.76 439.23 861.26 437.7 804.29 443.71 755.76 440.76 711.78 416.93 723.9"/><polygon class="cls-9" points="265.06 625.34 270.21 685.93 249.85 731.35 225.28 735.86 257.27 747.57 265.06 765.35 275.94 685.93 265.06 625.34"/><polygon class="cls-9" points="196.52 589.31 194.74 619.56 205.16 644.95 211.71 693.61 218.94 705.2 216.3 625.34 234.73 592.61 196.52 589.31"/><polygon class="cls-9" points="424.26 632.7 336.55 595.67 275.94 553.58 344.76 614.15 421.5 635.31 481.46 673.94 424.26 632.7"/><polygon class="cls-9" points="599.87 751.96 588.77 835.46 568.64 853.5 578.82 827.24 599.87 751.96"/><polygon class="cls-9" points="320.5 709.71 331.28 772.78 347.44 805.51 350.19 814.38 311.49 789.23 327.12 786.52 328.5 770.1 320.5 709.71"/><polygon class="cls-10" points="134.38 473.77 136.85 475.04 139.26 467.57 134.38 473.77"/><polygon class="cls-10" points="426.25 307.25 339.29 347.13 551.96 355.28 672.4 339.07 640.58 318.38 625.03 311.95 550.37 321.99 427.72 325.11 469.12 306.11 414.21 291.27 402.68 300.38 426.25 307.25"/><polygon class="cls-11" points="629.11 595.07 704.22 555.93 541.14 568.6 539 568.77 450.27 599.59 358.95 605.13 424.26 632.7 426.47 634.29 456.49 627.36 543.91 589.31 629.11 595.07"/><polygon class="cls-11" points="185.05 429.3 158.75 442.78 157.4 444.49 397.79 437.12 488.35 464.84 523.35 408.04 520.86 405.49 692.13 426.14 770.96 402.05 765.54 399.59 733.52 378.78 687.21 409.37 454.97 376.4 500.28 422.76 492.85 434.84 402.87 403.75 185.05 429.3"/><polygon class="cls-10" points="592.35 527.47 463.48 503.7 256.46 540.05 295.2 566.96 466.09 536.95 594.17 539.14 724.06 496.23 812.25 501.55 865.62 474.74 862.23 464.84 722.92 474.42 592.35 527.47"/><polygon class="cls-12" points="265.93 480.44 289.65 398.41 277.79 340.6 295.07 265.7 327.59 210.52 345.1 210.52 337.63 249.54 362.91 349.27 418.33 411.06 433.2 480.44 345.1 518.38 265.93 480.44"/><polygon class="cls-13" points="433.2 480.44 418.33 411.06 362.91 349.27 337.63 249.54 345.1 210.52 339.52 210.52 326.51 243.04 329.22 249.54 325.42 275.56 336.26 335.88 336.26 359.03 309.16 367.16 345.1 363.37 356.86 382.88 363.37 420.82 345.1 518.38 433.2 480.44"/><polygon class="cls-14" points="394.08 518.38 406 451.17 428.41 438.17 433.2 423.71 443.95 423.71 453.34 447.56 453.34 476.47 464.18 516.22 418.33 530.31 394.08 518.38"/><polygon class="cls-13" points="464.18 516.22 453.34 476.47 453.34 447.56 443.95 423.71 438.16 439.25 425.43 448.46 424.07 461.47 427.6 463.1 424.07 464.45 416.48 512.15 418.33 516.76 418.33 530.31 464.18 516.22"/><polygon class="cls-11" points="817.76 441.95 728.15 453.08 817.76 456.95 854.95 455.57 817.76 441.95"/><polygon class="cls-11" points="543.36 270.38 478.9 269.11 448.74 274.37 472.26 263.86 517.58 254.19 543.36 270.38"/><polygon class="cls-11" points="475.44 493.88 567.98 513.38 596.36 513.38 660.51 490.98 599.87 505.09 572.4 502.18 500 475.04 486.23 484.75 460.5 494.21 475.44 493.88"/><polygon class="cls-14" points="481.67 443.83 511.75 348.42 538.4 320.06 551.9 283.1 546.13 167.52 516.78 119.79 522.92 106.89 559.88 139.56 570.2 138.7 613.86 219.49 655.29 292.55 667.33 374.21 671.62 443.83 544.41 480.79 481.67 443.83"/><polygon class="cls-13" points="667.33 374.21 655.29 292.55 613.86 219.49 570.2 138.7 559.88 139.56 543.65 125.21 543.65 125.21 576.64 167.52 588.25 225.94 578.79 243.99 588.25 247.43 583.09 310.17 576.64 349.28 605.87 362.61 581.8 355.3 568.05 405.58 544.41 480.79 671.62 443.83 667.33 374.21"/><polygon class="cls-14" points="619.32 483.06 643.26 436.52 729.21 419.33 763.59 464.35 747.26 494.11 747.26 500.99 681.93 506.15 643.26 494.11 619.32 494.11 619.32 483.06"/><polygon class="cls-13" points="747.26 500.99 747.26 494.11 763.59 464.35 729.21 419.33 691.46 426.88 724.27 423.85 736.3 446.41 691.46 471.66 693.7 487.29 683.66 471.98 650.35 476.92 643.26 494.11 681.93 506.15 747.26 500.99"/><polygon class="cls-15" points="424.61 439.94 424.52 439.96 418.33 411.06 362.91 349.27 337.63 249.54 345.1 210.52 339.52 210.52 326.51 243.04 329.22 249.54 325.42 275.56 336.26 335.88 336.26 359.03 309.16 367.16 345.1 363.37 356.86 382.88 363.37 420.82 345.1 518.38 395.12 512.51 409.88 452.39 428.41 438.17 424.61 439.94"/><polygon class="cls-15" points="418.33 530.31 467.69 527.47 496.6 514.35 516.11 507.71 524.68 490.15 527.31 481.43 523.99 481.43 504.9 495.54 460.02 500.95 453.34 476.47 453.34 447.56 447.52 432.79 450.13 447.96 433.8 477.01 428.41 507.71 421.77 513.38 418.33 530.31"/><polygon class="cls-15" points="544.41 480.79 624.1 473.77 649.72 444.92 681.14 428.95 670.83 431.01 667.33 374.21 655.29 292.55 595.28 185.11 631.88 274.37 619.32 288.06 624.41 324.99 612.77 396.37 563.83 444.09 544.41 480.79"/><polygon class="cls-15" points="681.93 506.15 760.52 506.15 782.92 492.22 803.05 486.2 813.22 469.81 797.45 457.78 754.33 452.22 739.47 432.76 749.59 455.84 717.64 480.79 701.59 499.42 681.93 506.15"/><polygon class="cls-10" points="709.71 553.07 596.36 612.13 517.36 667.58 481.47 673.95 424.26 632.7 336.55 595.67 238.33 527.47 134.38 473.77 134.38 480.41 238.33 534.11 336.55 602.31 424.26 639.34 481.47 680.58 517.36 674.22 596.36 618.76 709.71 559.71 859.71 484.35 865.62 474.74 709.71 553.07"/><polygon class="cls-16" points="596.36 618.76 709.71 559.71 859.71 484.35 865.62 474.74 709.71 553.07 596.36 612.13 517.36 667.58 481.47 673.95 481.47 680.58 517.36 674.22 596.36 618.76"/></g></g></svg>