<svg xmlns="http://www.w3.org/2000/svg" viewBox="0 0 1000 1000"><defs><style>.cls-1{isolation:isolate;}.cls-2{fill:#7e97a9;}.cls-3{fill:#94a8b6;}.cls-4{fill:#c8d6d9;}.cls-5{fill:#b4cacf;}.cls-6{fill:#d6e5e8;}.cls-7{fill:#9bbbc2;}.cls-8{fill:#b4c4cf;}.cls-9{fill:#a7b5c0;}.cls-10{fill:#cf9074;}.cls-11{fill:#b8d0db;}.cls-11,.cls-12{mix-blend-mode:multiply;}.cls-12{fill:#decbb8;}.cls-13{fill:#824239;}.cls-14{fill:#bf705e;}.cls-15{fill:#8c473d;}.cls-16{fill:#cf8574;}.cls-17{fill:#d1e4e8;}.cls-18{fill:#a16052;}.cls-19{fill:#437540;}.cls-20{fill:#40703d;}.cls-21{fill:#68a865;}.cls-22{fill:#508c4d;}.cls-23{fill:#dfeff2;}</style></defs><g class="cls-1"><g id="_Layer_" data-name="&lt;Layer&gt;"><polygon class="cls-2" points="596.36 662.56 517.36 718.01 481.47 724.38 487.62 819.99 497.31 872.5 489.93 943.54 521.35 942.23 565.53 913.1 595.28 889.62 607.19 798.58 638.3 744.85 661.41 628.67 596.36 662.56"/><polygon class="cls-3" points="779.29 773.7 809.18 635.37 839.88 589.32 852 547.31 865.62 525.17 709.71 603.51 661.41 628.67 638.3 744.85 607.19 798.58 595.28 889.62 668.73 857.14 718.92 818.77 760.67 797.37 779.29 773.7"/><polygon class="cls-4" points="265.06 815.78 257.27 798 225.28 786.29 220.71 772.96 210.49 673.35 191.91 628.67 185.45 595.78 134.38 536 134.38 524.2 238.33 577.9 246.85 628.67 265.06 675.77 275.94 736.37 265.06 815.78"/><polygon class="cls-5" points="265.06 815.78 297.16 830.36 392.62 892.39 362.39 777.57 361.34 701.9 336.55 646.11 238.33 577.9 246.85 628.67 265.06 675.77 275.94 736.37 265.06 815.78"/><polygon class="cls-4" points="392.62 892.39 439.23 911.7 489.93 943.54 497.31 872.5 487.62 819.99 481.47 724.38 424.26 683.14 336.55 646.11 361.34 701.9 362.39 777.57 392.62 892.39"/><polygon class="cls-6" points="361.34 701.9 323.61 698.39 311.49 707.39 343 754.14 416.93 774.34 440.76 762.22 423.79 724.38 376.12 720.21 361.34 701.9"/><polygon class="cls-7" points="416.93 774.34 343 754.14 311.49 707.39 331.28 823.22 347.44 855.94 359.56 895.13 385.01 915.33 404 911.28 421.12 904.2 440.76 762.22 416.93 774.34"/><polygon class="cls-4" points="343 754.14 353.5 818.37 376.12 849.07 378.95 885.03 385.01 915.33 404 911.28 414.5 858.77 409.65 822.82 416.93 774.34 343 754.14"/><polygon class="cls-8" points="690.21 664.26 739.9 651.88 752.62 639.72 782.92 623.25 782.92 649.89 759.9 677.79 704.75 675.25 690.21 664.26"/><polygon class="cls-9" points="704.75 675.25 690.21 664.26 679.91 779.59 685.06 802.62 679.91 848.59 695.06 854.73 712.02 845.03 736.57 786.1 765.35 735.15 782.92 649.89 759.9 677.79 704.75 675.25"/><polygon class="cls-2" points="710.21 794.82 695.06 854.73 712.02 845.03 736.57 786.1 765.35 735.15 782.92 649.89 759.9 677.79 704.75 675.25 720.51 703.24 710.21 760.81 710.21 794.82"/><polygon class="cls-6" points="170.17 577.9 154.75 592.55 158.38 614.37 196.52 639.75 234.73 643.05 190.02 619.03 185.45 595.78 170.17 577.9"/><polygon class="cls-7" points="208.88 653.55 234.73 643.05 196.52 639.75 158.38 614.37 175.35 664.86 200.8 695.97 211.71 744.04 218.94 755.64 210.49 673.35 208.88 653.55"/><polygon class="cls-10" points="134.38 524.2 145.18 510.48 207.99 478.7 207.5 468.23 213.4 465.2 243.81 444.15 279.11 414.97 375.26 372.45 414.21 341.7 472.06 303.57 513.18 301.86 579.56 343.55 640.58 368.82 765.54 450.03 807.56 469.11 817.76 492.39 817.96 501.24 859.64 507.72 865.62 525.17 709.71 603.51 596.36 662.56 517.36 718.01 481.47 724.38 424.26 683.14 336.55 646.11 238.33 577.9 134.38 524.2"/><polygon class="cls-11" points="596.36 662.56 530.47 724.38 537.41 774.34 554.07 802.26 549.21 859.87 521.35 942.23 534.63 874.44 530.47 843.9 534.63 794.82 516.59 748.82 517.36 718.01 596.36 662.56"/><polygon class="cls-11" points="652.4 673.96 643.6 748.36 624.16 796.94 624.16 856.63 649.15 860.33 675.06 846.45 682 802.4 679.91 779.59 685.06 802.62 679.91 848.59 668.73 857.14 595.28 889.62 607.19 798.58 638.3 744.85 652.4 673.96"/><polygon class="cls-11" points="775.53 685.75 769.22 736.37 751.87 777.27 757.07 788.03 765.75 786.1 779.29 773.7 760.67 797.37 724.06 816.13 736.57 786.1 765.35 735.15 775.53 685.75"/><polygon class="cls-11" points="685.06 616.35 785.18 577.9 834.46 577.9 839.88 589.32 852 547.31 865.62 525.17 685.06 616.35"/><polygon class="cls-11" points="759.9 677.79 754.64 735.15 730.45 781.79 712.02 845.03 736.57 786.1 765.35 735.15 782.92 649.89 759.9 677.79"/><polygon class="cls-11" points="416.93 774.34 409.65 822.82 414.5 858.77 404 911.28 421.12 904.2 439.23 911.7 437.7 854.73 443.71 806.19 440.76 762.22 416.93 774.34"/><polygon class="cls-11" points="265.06 675.77 270.2 736.37 249.85 781.79 225.28 786.29 257.27 798 265.06 815.78 275.94 736.37 265.06 675.77"/><polygon class="cls-11" points="196.52 639.75 194.74 669.99 205.16 695.38 211.71 744.04 218.94 755.64 216.3 675.77 234.73 643.05 196.52 639.75"/><polygon class="cls-12" points="424.26 683.14 336.55 646.11 275.94 604.02 344.76 664.58 421.5 685.75 481.46 724.37 424.26 683.14"/><polygon class="cls-11" points="599.87 802.4 588.77 885.89 568.64 903.94 578.82 877.68 599.87 802.4"/><polygon class="cls-11" points="320.5 760.14 331.28 823.22 347.44 855.94 350.19 864.82 311.49 839.67 327.12 836.96 328.5 820.54 320.5 760.14"/><polygon class="cls-13" points="284.97 469.64 394.08 490.98 472.82 481 500 440.16 561.04 437.87 612.77 459.25 619.32 469.64 671.62 468.13 724.06 440.16 727.01 424.99 706.57 328.68 661.41 277.22 646.82 211.93 559.95 151.07 531.18 105.15 510.16 61.99 478.62 56.46 443.21 89.1 426.61 158.26 371.84 200.31 348.6 265.6 284.97 342.51 252.81 436.71 284.97 469.64"/><polygon class="cls-12" points="724.06 440.16 727.01 424.99 706.57 328.68 661.41 277.22 646.82 211.93 559.95 151.07 531.18 105.15 510.16 61.99 524.82 123.13 533.95 236 556.47 296.58 556.47 338.91 610.3 403.26 619.32 469.64 671.62 468.13 724.06 440.16"/><polygon class="cls-12" points="500 434.35 486.37 385.11 503.12 317.61 486.37 252.32 489.91 177.63 478.62 244.58 442.66 287.73 433.8 341.95 350.81 460.4 284.97 469.64 394.08 490.98 472.82 481 500 440.16 533.42 438.91 500 434.35"/><polygon class="cls-14" points="343 452.88 376.12 390.64 367.96 345.83 336.55 336.97 406.14 326.46 420.52 282.2 376.12 224.1 390.65 211.93 450.96 201.97 474.19 211.93 459.81 180.4 468.66 133.92 503.52 124.51 503.52 65.87 478.62 56.46 443.21 89.1 426.61 158.26 371.84 200.31 348.6 265.6 284.97 342.51 252.81 436.71 277.38 461.87 343 452.88"/><polygon class="cls-15" points="519.42 133.09 527.31 234.34 548.89 298.66 542.66 342.64 503.52 347.21 510.16 319.82 494.11 250.11 505.31 245.13 500 244.3 506.15 201.14 510.16 147.61 519.42 133.09"/><polygon class="cls-15" points="553.45 347.21 604.08 406.55 612.77 459.25 561.04 437.87 565.9 394.1 557.6 371.28 553.45 347.21"/><polygon class="cls-16" points="430.62 163.38 381.66 199.07 422.32 181.23 451.79 181.23 428.96 175.42 430.62 163.38"/><polygon class="cls-16" points="449.71 89.52 478.34 61.99 494.11 67.53 481.47 66.7 449.71 89.52"/><polygon class="cls-16" points="393.97 262 412.78 283.03 400.33 319.82 407.25 289.12 393.97 275.56 398.12 275.28 393.97 262"/><polygon class="cls-16" points="322.59 337.8 294.1 341.68 259.8 434.63 299.36 349.98 352.47 350.53 328.68 343.61 322.59 337.8"/><polygon class="cls-15" points="541.14 351.08 536.71 386.22 545.29 424.67 529.25 386.22 526.75 352.19 536.02 354.68 541.14 351.08"/><polygon class="cls-12" points="638.1 218.99 650.55 277.5 698.27 332.27 707.82 398.25 683.75 343.89 638.1 353.85 672.96 339.32 672.96 323.56 643.91 283.31 638.1 218.99"/><polygon class="cls-12" points="618.59 392.44 625.86 461.87 668.81 461.87 681.26 454.48 669.02 458 638.1 442.03 626.07 405.93 618.59 392.44"/><polygon class="cls-12" points="481.46 276.11 494.11 317.61 477.51 379.58 489.91 438.78 471.91 469.64 449.71 398.25 481.46 319.82 477.51 293.82 481.46 276.11"/><polygon class="cls-17" points="500 440.16 472.82 481 394.08 490.98 342.24 525.17 333.94 561.33 347.22 594.94 533.42 639.75 618.59 614.37 698.27 564.65 755.95 548.88 782.92 527.72 782.92 487.05 761.35 469.64 707.82 459.25 671.62 468.13 619.32 469.64 612.77 459.25 561.04 437.87 500 440.16"/><polygon class="cls-18" points="391.02 498.98 471.23 488.82 498.91 447.22 561.09 444.89 613.79 466.66 620.46 477.25 673.73 475.71 710.6 466.66 765.13 477.25 782.92 491.61 782.92 487.05 761.35 469.64 707.82 459.25 671.62 468.13 619.32 469.64 612.77 459.25 561.04 437.87 500 440.16 472.82 481 394.08 490.98 342.24 525.17 340.62 532.22 391.02 498.98"/><polygon class="cls-19" points="250.11 530.81 265.05 482.49 265.05 536.9 250.11 530.81"/><polygon class="cls-20" points="279.99 530.81 265.05 482.49 265.05 536.9 279.99 530.81"/><polygon class="cls-21" points="697.14 583.9 712.08 535.57 712.08 589.99 697.14 583.9"/><polygon class="cls-22" points="727.01 583.9 712.08 535.57 712.08 589.99 727.01 583.9"/><polygon class="cls-19" points="460.03 642.02 474.97 593.7 474.97 648.11 460.03 642.02"/><polygon class="cls-20" points="489.91 642.02 474.97 593.7 474.97 648.11 489.91 642.02"/><polygon class="cls-21" points="304.36 513.95 322.49 455.31 322.49 521.34 304.36 513.95"/><polygon class="cls-22" points="340.62 513.95 322.49 455.31 322.49 521.34 340.62 513.95"/><polygon class="cls-21" points="273.35 542.24 288.29 456.48 288.29 548.33 273.35 542.24"/><polygon class="cls-22" points="303.23 542.24 288.29 456.48 288.29 548.33 303.23 542.24"/><polygon class="cls-19" points="712.08 453.16 727.01 367.4 727.01 459.25 712.08 453.16"/><polygon class="cls-20" points="741.95 453.16 727.01 367.4 727.01 459.25 741.95 453.16"/><polygon class="cls-21" points="440.76 654.2 455.7 568.44 455.7 660.29 440.76 654.2"/><polygon class="cls-22" points="470.63 654.2 455.7 568.44 455.7 660.29 470.63 654.2"/><polygon class="cls-12" points="472.82 481 471.23 488.82 545.29 480 573.23 463.68 595.28 460.91 599.86 460.91 599.86 453.91 561.04 437.87 500 440.16 472.82 481"/><path class="cls-12" d="M455.7,660.29s82-9.82,80.32-10.4-28.63-3.78-28.63-3.78l9.2-2.2-28-6.07L475,593.7v54.41l-5.81-2.37-13.46-77.3Z"/><polygon class="cls-12" points="265.05 536.9 274.28 536.9 277.02 521.19 265.05 482.49 265.05 536.9"/><polygon class="cls-12" points="288.29 548.33 337.63 545.23 338.72 540.47 365.47 538.81 339.54 536.9 339.11 538.81 302.07 535.59 288.29 456.48 288.29 548.33"/><polygon class="cls-12" points="322.49 521.34 349.96 520.08 349.96 526.06 397.56 524.2 360.03 520.08 360.5 513.12 337.84 504.97 322.49 455.31 322.49 521.34"/><polygon class="cls-12" points="727.01 459.25 775.34 454.48 765.54 450.03 740.11 442.59 727.01 367.4 727.01 459.25"/><polygon class="cls-12" points="712.08 589.99 748.14 584.2 755.98 580.26 724.63 576.19 712.08 535.57 712.08 589.99"/><path class="cls-23" d="M513.45,507.63c-11.13,0-20.16,4.19-20.16,9.37s9,9.37,20.16,9.37,20.16-4.2,20.16-9.37S524.58,507.63,513.45,507.63Z"/><path class="cls-23" d="M553.86,524.5c-7.45,0-13.49,2.81-13.49,6.28s6,6.27,13.49,6.27,13.48-2.81,13.48-6.27S561.3,524.5,553.86,524.5Z"/><path class="cls-23" d="M418.36,552.58c-7.45,0-13.48,2.8-13.48,6.27s6,6.27,13.48,6.27,13.49-2.81,13.49-6.27S425.81,552.58,418.36,552.58Z"/><path class="cls-23" d="M635.59,542.83c-7.45,0-13.48,2.8-13.48,6.27s6,6.27,13.48,6.27,13.49-2.81,13.49-6.27S643,542.83,635.59,542.83Z"/><path class="cls-23" d="M542.82,495.39c-4.45,0-8.05,1.68-8.05,3.75s3.6,3.74,8.05,3.74,8-1.68,8-3.74S547.27,495.39,542.82,495.39Z"/><path class="cls-23" d="M664,512.12c-4.45,0-8.05,1.67-8.05,3.74s3.6,3.75,8.05,3.75,8-1.68,8-3.75S668.41,512.12,664,512.12Z"/><path class="cls-23" d="M439.86,565.12c-4.44,0-8.05,1.67-8.05,3.74s3.61,3.74,8.05,3.74,8.05-1.67,8.05-3.74S444.31,565.12,439.86,565.12Z"/><polygon class="cls-14" points="709.71 603.51 596.36 662.56 517.36 718.01 481.47 724.38 424.26 683.14 336.55 646.11 238.33 577.9 134.38 524.2 134.38 530.84 238.33 584.54 336.55 652.75 424.26 689.78 481.47 731.02 517.36 724.65 596.36 669.2 709.71 610.15 859.71 534.78 865.62 525.17 709.71 603.51"/><polygon class="cls-13" points="596.36 669.2 709.71 610.15 859.71 534.78 865.62 525.17 709.71 603.51 596.36 662.56 517.36 718.01 481.47 724.38 481.47 731.02 517.36 724.65 596.36 669.2"/></g></g></svg>