<svg xmlns="http://www.w3.org/2000/svg" viewBox="0 0 1000 1000"><defs><style>.cls-1{isolation:isolate;}.cls-2{fill:#ffeaa1;}.cls-3{fill:#ca9169;}.cls-4{fill:#bd785b;}.cls-5{fill:#fad591;}.cls-6{fill:#e6b57c;}.cls-7{fill:#facc96;}.cls-8{fill:#e3c88b;}.cls-9{fill:#deb27d;}.cls-10{fill:#debcb8;}.cls-10,.cls-11{mix-blend-mode:multiply;}.cls-11{fill:#decbb8;}.cls-12{fill:#f0c77d;}.cls-13{fill:#ba7b4e;}</style></defs><g class="cls-1"><g id="_Layer_" data-name="&lt;Layer&gt;"><polygon class="cls-2" points="134.38 432.02 145.18 418.29 207.99 386.52 207.5 376.04 213.4 373.02 243.81 351.96 279.11 322.79 375.26 280.27 414.21 249.52 472.06 211.39 513.18 209.68 579.56 251.37 640.58 276.63 765.54 357.84 807.56 376.92 817.76 400.21 817.96 409.06 859.64 415.53 865.62 432.99 709.71 511.32 596.36 570.38 517.36 625.83 481.47 632.2 424.26 590.95 336.55 553.93 238.33 485.72 134.38 432.02"/><polygon class="cls-3" points="596.36 570.38 517.36 625.83 481.47 632.2 487.62 727.8 497.31 780.32 489.93 851.36 521.35 850.05 565.53 820.92 595.28 797.43 607.19 706.39 638.3 652.67 661.41 536.49 596.36 570.38"/><polygon class="cls-4" points="779.29 681.51 809.18 543.19 839.88 497.14 852 455.12 865.62 432.99 709.71 511.32 661.41 536.49 638.3 652.67 607.19 706.39 595.28 797.43 668.73 764.95 718.92 726.58 760.67 705.19 779.29 681.51"/><polygon class="cls-5" points="265.06 723.6 257.27 705.82 225.28 694.11 220.71 680.78 210.49 581.16 191.91 536.49 185.45 503.6 134.38 443.81 134.38 432.02 238.33 485.72 246.85 536.49 265.06 583.59 275.94 644.18 265.06 723.6"/><polygon class="cls-6" points="265.06 723.6 297.16 738.18 392.62 800.21 362.39 685.39 361.34 609.72 336.55 553.93 238.33 485.72 246.85 536.49 265.06 583.59 275.94 644.18 265.06 723.6"/><polygon class="cls-5" points="392.62 800.21 439.23 819.51 489.93 851.36 497.31 780.32 487.62 727.8 481.47 632.2 424.26 590.95 336.55 553.93 361.34 609.72 362.39 685.39 392.62 800.21"/><polygon class="cls-2" points="361.34 609.72 323.61 606.21 311.49 615.21 343 661.96 416.93 682.16 440.76 670.04 423.79 632.2 376.12 628.02 361.34 609.72"/><polygon class="cls-7" points="416.93 682.16 343 661.96 311.49 615.21 331.28 731.04 347.44 763.76 359.56 802.94 385.01 823.14 404 819.1 421.12 812.01 440.76 670.04 416.93 682.16"/><polygon class="cls-5" points="343 661.96 353.5 726.19 376.12 756.89 378.95 792.84 385.01 823.14 404 819.1 414.5 766.59 409.65 730.63 416.93 682.16 343 661.96"/><polygon class="cls-8" points="690.21 572.08 739.9 559.7 752.62 547.53 782.92 531.07 782.92 557.7 759.9 585.61 704.75 583.07 690.21 572.08"/><polygon class="cls-9" points="704.75 583.07 690.21 572.08 679.91 687.41 685.06 710.43 679.91 756.41 695.06 762.55 712.02 752.85 736.57 693.92 765.35 642.96 782.92 557.7 759.9 585.61 704.75 583.07"/><polygon class="cls-3" points="710.21 702.64 695.06 762.55 712.02 752.85 736.57 693.92 765.35 642.96 782.92 557.7 759.9 585.61 704.75 583.07 720.51 611.06 710.21 668.62 710.21 702.64"/><polygon class="cls-2" points="170.17 485.72 154.75 500.37 158.38 522.18 196.52 547.57 234.73 550.87 190.02 526.85 185.45 503.6 170.17 485.72"/><polygon class="cls-6" points="208.88 561.37 234.73 550.87 196.52 547.57 158.38 522.18 175.35 572.68 200.8 603.78 211.71 651.86 218.94 663.45 210.49 581.16 208.88 561.37"/><polygon class="cls-10" points="596.36 570.38 530.47 632.2 537.41 682.16 554.07 710.08 549.21 767.68 521.35 850.05 534.63 782.26 530.47 751.72 534.63 702.64 516.59 656.64 517.36 625.83 596.36 570.38"/><polygon class="cls-10" points="652.4 581.78 643.6 656.17 624.16 704.76 624.16 764.44 649.15 768.14 675.06 754.26 682 710.21 679.91 687.41 685.06 710.43 679.91 756.41 668.73 764.95 595.28 797.43 607.19 706.39 638.3 652.67 652.4 581.78"/><polygon class="cls-10" points="775.53 593.57 769.22 644.18 751.87 685.09 757.07 695.85 765.75 693.92 779.29 681.51 760.67 705.19 724.06 723.95 736.57 693.92 765.35 642.96 775.53 593.57"/><polygon class="cls-10" points="685.06 524.17 785.18 485.72 834.46 485.72 839.88 497.14 852 455.12 865.62 432.99 685.06 524.17"/><polygon class="cls-10" points="759.9 585.61 754.64 642.96 730.45 689.61 712.02 752.85 736.57 693.92 765.35 642.96 782.92 557.7 759.9 585.61"/><polygon class="cls-10" points="416.93 682.16 409.65 730.63 414.5 766.59 404 819.1 421.12 812.01 439.23 819.51 437.7 762.55 443.71 714.01 440.76 670.04 416.93 682.16"/><polygon class="cls-10" points="265.06 583.59 270.2 644.18 249.85 689.61 225.28 694.11 257.27 705.82 265.06 723.6 275.94 644.18 265.06 583.59"/><polygon class="cls-10" points="196.52 547.57 194.74 577.81 205.16 603.2 211.71 651.86 218.94 663.45 216.3 583.59 234.73 550.87 196.52 547.57"/><polygon class="cls-10" points="424.26 590.95 336.55 553.93 275.94 511.83 344.76 572.4 421.5 593.56 481.46 632.19 424.26 590.95"/><polygon class="cls-10" points="599.87 710.21 588.77 793.71 568.64 811.75 578.82 785.5 599.87 710.21"/><polygon class="cls-10" points="320.5 667.96 331.28 731.04 347.44 763.76 350.19 772.63 311.49 747.49 327.12 744.77 328.5 728.35 320.5 667.96"/><polygon class="cls-6" points="243.81 351.96 343 343.68 404 366.91 427.96 366.91 588.13 427.5 703.49 405.09 747.47 380.19 779.29 364.09 779.29 351.91 695.06 285.58 595.28 247.16 516.59 209.68 472.77 203.42 404 239.1 336.55 287.24 269.44 307.16 243.81 336.2 243.81 351.96"/><polygon class="cls-5" points="243.81 339.79 343 331.5 404 354.74 427.96 354.74 588.13 415.32 703.49 392.92 747.47 368.02 779.29 351.91 775.34 334.82 695.06 273.41 595.28 234.99 516.59 197.5 472.77 191.25 404 226.93 336.55 275.07 269.44 294.99 243.81 324.03 243.81 339.79"/><polygon class="cls-6" points="336.55 275.07 359.63 296.92 423.25 303.29 504.03 327.91 549.96 351.7 629.63 346.17 687.72 313.38 731.42 301.22 733.65 272.58 712.02 255.43 585.92 213.93 530.59 191.25 469.73 184.61 396.7 212.82 364.05 239.38 336.55 253.21 336.55 275.07"/><polygon class="cls-5" points="336.55 262.34 359.63 284.2 423.25 290.56 504.03 315.18 549.96 338.97 629.63 333.44 687.72 300.66 731.42 288.5 733.65 272.58 712.02 242.7 585.92 201.21 530.59 178.52 469.73 171.88 396.7 200.1 364.05 226.66 336.55 240.49 336.55 262.34"/><polygon class="cls-11" points="556.39 285.58 514.32 270.64 485.01 278.11 485.01 283.5 508.46 295.54 546.84 301.35 561.99 310.89 576.31 310.89 594.84 305.08 597.05 295.54 570.91 287.65 556.39 285.58"/><polygon class="cls-11" points="451.61 210.61 422.15 215.63 411.36 224.92 414.68 234.4 429.82 236.23 435.84 228.75 450.16 224.75 457 216.38 451.61 210.61"/><polygon class="cls-6" points="474.43 237.17 481.47 197.88 507.91 170.77 511.55 154.73 571.44 148.64 638.2 158.05 694.36 159.85 707.04 174.28 711.51 185.99 725.8 261.74 711.38 268.15 685.06 272.58 628.52 265.39 559.91 272.58 515.65 252.11 481.47 247.16 474.43 237.17"/><polygon class="cls-12" points="511.55 154.73 513.86 173.68 575.27 203.42 634.61 184.61 651.21 191.25 673.61 184.61 681.5 177.69 688.55 178.52 707.04 174.28 694.36 159.85 638.2 158.05 571.44 148.64 511.55 154.73"/><polygon class="cls-13" points="634.61 184.61 575.27 203.42 579 228.87 575.27 240.76 575.27 255.43 568.21 268.15 559.91 272.58 628.52 265.38 624.1 228.59 628.52 215.22 622.49 209.68 628.52 212.02 634.61 192.91 634.61 184.61"/><polygon class="cls-12" points="686.27 265.25 681.91 255.43 662.2 249.27 655.36 236.82 651.41 222.09 663.66 205.08 646.5 221.4 644.29 250.17 628.52 265.38 685.06 272.58 711.38 268.15 686.27 265.25"/><polygon class="cls-10" points="515.65 252.11 524.02 232.05 525.06 217.11 530.45 209.68 532.94 201.34 535.1 202.17 537.51 218.77 536.26 232.67 538.96 240.76 536.26 248.44 538.31 262.58 515.65 252.11"/><polygon class="cls-12" points="500 190.55 502.86 182.88 513.86 173.68 511.55 154.73 507.91 170.77 481.47 197.88 474.43 237.17 483.77 201.34 500 190.55"/><polygon class="cls-2" points="546.64 176.03 573.47 189.59 596.71 185.99 612.75 184.61 614.41 178.24 598.09 165.24 580.52 169.12 567.11 160.81 549.13 166.9 546.64 176.03"/><polygon class="cls-11" points="594.02 166.14 580.52 169.11 567.11 160.81 549.13 166.9 546.64 176.03 549.51 177.48 549.51 177.48 553 171.33 567.94 167.59 576.93 171.05 594.02 166.14"/><polygon class="cls-6" points="542.07 285.58 500 270.64 470.7 278.11 470.7 283.5 494.14 295.54 532.53 301.35 561.99 310.89 580.52 305.08 582.74 295.54 582.74 291.67 556.6 287.65 542.07 285.58"/><polygon class="cls-2" points="542.07 281.71 500 266.77 470.7 274.24 470.7 279.63 494.14 291.67 532.53 297.48 561.99 307.02 580.52 301.21 582.74 291.67 556.6 283.78 542.07 281.71"/><polygon class="cls-6" points="450.37 212.02 415.51 214.77 404.72 220.56 404.72 224.06 408.04 233.54 423.19 235.37 429.2 227.88 443.52 223.89 450.37 215.51 450.37 212.02"/><polygon class="cls-2" points="444.97 206.25 415.51 211.27 404.72 220.56 408.04 230.05 423.19 231.88 429.2 224.39 443.52 220.4 450.37 212.02 444.97 206.25"/><polygon class="cls-6" points="680.53 333.99 640.14 357.78 622.44 362.76 622.44 370.51 642.35 379.91 686.89 383.79 711.38 362.76 728.94 357.78 735.03 337.04 735.03 330.4 712.62 332.61 696.85 342.29 683.3 338.69 680.53 333.99"/><polygon class="cls-2" points="678.73 330.05 640.14 351.14 622.44 356.12 622.44 363.87 642.35 373.27 686.89 377.15 711.38 356.12 728.94 351.14 735.03 330.4 712.62 325.97 696.85 335.65 683.3 332.06 678.73 330.05"/><path class="cls-10" d="M803.27,464.31c-55.21,1.53-121.49,3.07-160.27,2.93-52.79-.16-116.09-23.89-171.94-44.83-19-7.13-37-13.88-54.57-19.78-45.81-15.39-140.74-16-213.24-13.71l-58.07,29.37L134.38,432l35,18.07c75.67-3.45,186.19-4.9,228.08,9.18,16.58,5.57,34.09,12.14,52.64,19.09,60.55,22.71,129.2,48.44,192.73,48.63h4.58c9.69,0,20.75-.09,32.68-.24l29.63-15.44Z"/><path class="cls-11" d="M423.25,290.56v12.73L481.47,321c-2.28-.7-58.22-15.23-58.22-15.23l-63.62-8.88V284.2Z"/><polygon class="cls-11" points="549.96 338.97 549.96 351.7 618.84 353.63 640.14 351.14 662.41 338.97 682.74 342.01 696.85 335.65 712.62 325.97 730.94 310.89 744.06 310.89 731.42 301.22 733.65 272.58 731.42 288.5 687.72 300.66 629.63 333.44 549.96 338.97"/><polygon class="cls-11" points="756.19 335.1 735.03 334.41 735.03 330.4 728.94 351.14 711.38 356.12 686.89 377.15 686.89 383.79 705.98 375.76 720.64 372.58 735.03 364.42 749.69 344.92 757.44 340.36 756.19 335.1"/><polygon class="cls-11" points="559.91 272.58 618.56 268.15 653.97 272.58 685.06 272.58 628.52 265.39 624.1 228.59 628.52 215.22 622.49 209.68 628.52 212.02 634.61 192.91 634.61 184.61 575.27 203.42 579 228.87 575.27 240.76 575.27 255.43 568.21 268.15 559.91 272.58"/><polygon class="cls-10" points="651.21 191.25 666.77 193.04 663.66 205.08 651.41 222.09 655.36 236.82 662.2 249.27 681.91 255.43 686.27 265.25 711.38 268.15 731.13 269.1 725.8 261.74 711.51 185.99 707.04 174.28 688.55 178.52 681.5 177.69 673.61 184.61 651.21 191.25"/><polygon class="cls-11" points="567.11 160.81 557.69 170.15 557.69 178.62 567.11 186.37 546.64 176.03 549.13 166.9 567.11 160.81"/><polygon class="cls-10" points="500 190.55 501.54 207.43 505.69 219.06 505.14 230.81 506.22 250.74 508.63 251.09 512.33 225.96 512.33 208.4 518.56 198.85 521.88 189.59 527.31 182.81 536.42 184.61 513.86 173.68 502.86 182.88 500 190.55"/><polygon class="cls-11" points="404 354.74 404 366.91 436.98 370.32 440.76 359.58 427.96 354.74 404 354.74"/><polygon class="cls-11" points="588.13 415.32 588.13 427.5 677.72 415.32 704.34 415.32 724.45 409.24 752.25 403.64 775.34 405.09 806.19 398.04 816.36 397.02 807.56 376.92 779.29 364.09 779.29 351.91 703.49 392.92 588.13 415.32"/><polygon class="cls-7" points="709.71 511.32 596.36 570.38 517.36 625.83 481.47 632.2 424.26 590.95 336.55 553.93 238.33 485.72 134.38 432.02 134.38 438.66 238.33 492.36 336.55 560.57 424.26 597.59 481.47 638.84 517.36 632.47 596.36 577.02 709.71 517.96 859.71 442.6 865.62 432.99 709.71 511.32"/><polygon class="cls-10" points="596.36 577.02 709.71 517.96 859.71 442.6 865.62 432.99 709.71 511.32 596.36 570.38 517.36 625.83 481.47 632.2 481.47 638.84 517.36 632.47 596.36 577.02"/><polygon class="cls-6" points="264.37 467.12 277.55 441.49 324.89 432.02 343.83 456.81 334.84 473.21 334.84 477 298.85 479.83 277.55 473.21 264.37 473.21 264.37 467.12"/><polygon class="cls-10" points="334.84 477 334.84 473.21 343.83 456.81 324.89 432.02 304.1 436.18 322.17 434.5 328.8 446.93 304.1 460.84 305.34 469.45 299.8 461.02 281.46 463.74 277.55 473.21 298.85 479.83 334.84 477"/><polygon class="cls-11" points="298.85 479.83 342.14 479.83 354.48 472.17 365.56 468.85 371.16 459.82 362.48 453.2 338.73 450.13 330.55 439.42 336.12 452.13 318.52 465.87 309.68 476.13 298.85 479.83"/><polygon class="cls-6" points="399.25 384.72 404.97 368.24 425.51 362.16 433.72 378.09 429.82 388.63 429.82 391.06 414.21 392.89 404.97 388.63 399.25 388.63 399.25 384.72"/><polygon class="cls-10" points="429.82 391.06 429.82 388.63 433.72 378.09 425.51 362.16 416.49 364.83 424.33 363.76 427.2 371.74 416.49 380.68 417.02 386.22 414.62 380.8 406.67 382.55 404.97 388.63 414.21 392.89 429.82 391.06"/><polygon class="cls-11" points="414.21 392.89 432.99 392.89 438.34 387.96 443.15 385.83 445.58 380.03 441.81 375.77 431.51 373.8 427.96 366.91 430.38 375.08 422.74 383.91 418.91 390.51 414.21 392.89"/><polygon class="cls-11" points="576.75 551.01 602.32 549.03 608.54 544.32 623.42 540.47 644.47 528.3 656.57 524.67 657.39 517.24 643.95 512.4 612.75 512.4 584.17 537.33 576.75 551.01"/><polygon class="cls-6" points="570.58 528.25 573.03 510.5 594.78 496.71 600.61 485.57 612.28 488.4 617.53 503.25 616 513.69 623.42 522 620.5 532.52 603.53 542.07 573.56 535.97 570.58 528.25"/><polygon class="cls-10" points="623.42 522 616 513.69 617.53 503.25 612.28 488.4 600.61 485.57 609.3 491.14 607.03 503.25 597.96 511.83 595.57 524.83 586.82 534.64 603.53 542.07 620.5 532.52 623.42 522"/><polygon class="cls-6" points="576.75 529.93 567.49 531.54 563.11 542.6 565.03 545.82 576.75 551.01 582.8 547.2 587.86 546.51 589.83 540.47 581.93 531.77 576.75 529.93"/><polygon class="cls-11" points="582.8 547.2 587.86 546.51 589.83 540.47 581.93 531.77 583.17 538.68 583.45 542.74 579.61 543.35 575.58 548.27 565.03 545.82 576.75 551.01 582.8 547.2"/></g></g></svg>