<svg xmlns="http://www.w3.org/2000/svg" viewBox="0 0 1501 1001"><defs><radialGradient id="a" cx="1257.1" cy="1081.5" r="51.8" gradientTransform="matrix(1 0 0 -1 -145 1445)" gradientUnits="userSpaceOnUse"><stop offset="0" stop-color="#c0a373"/><stop offset="1" stop-color="#fff" stop-opacity="0"/></radialGradient><linearGradient id="b" x1="1234.5" x2="1234.5" y1="720.4" y2="625.7" gradientTransform="matrix(1 0 0 -1 -146 1444)" gradientUnits="userSpaceOnUse"><stop offset="0" stop-color="#a0edf0"/><stop offset="1" stop-color="#45dbe2"/></linearGradient><style>.c{isolation:isolate}.b{fill:#70b344;stroke:#5f732e}.aa,.at,.b,.t,.u,.x,.y{stroke-miterlimit:10}.c{opacity:.25}.d{fill:#5c4328}.aa,.d,.e,.f,.g,.h,.i,.j,.k,.l,.m,.n,.o,.p,.q,.x,.y{fill-rule:evenodd}.e{fill:#544730}.f{fill:#877657}.g{fill:#ae9c87}.h{fill:#68543c}.i{fill:#9d8264}.j{fill:#b49871}.k{fill:#8f7e5f}.l{fill:#857c68}.m{fill:#a59b84}.n{fill:#67604f}.o{fill:#bdb29a}.p{fill:#c1b09a}.q{fill:#cdb186}.s{fill:#ddc02c}.t,.u{fill:#3f2b0f}.aa,.at,.t,.u,.x,.y{stroke:#1d150c}.u{stroke-width:1.14px}.x,.y{fill:#571c10}.y{stroke-width:1.04px}.aa{fill:#c0a373}.ab{fill:#78a015}.ac,.aw{fill:#7ebb15}.ad{fill:#94d31a}.ae{fill:#897d6f}.af{fill:#635a52}.ah{fill:#91887b}.al{fill:#8ab550}.am{fill:#97c261}.an{fill:#a9d171}.ao{fill:#b3db7b}.ap{fill:#dcf5f5}.aq{fill:#f2ffff}.ar{fill:#fff}.as{fill:#fddfb3}.at{fill:#1d150c}.au{fill:#81a653}.az{mix-blend-mode:multiply}.aw{mix-blend-mode:screen}.ax{fill:#bdbdbd}.ay{fill:#d9d9d9}.az{fill:#cfcfcf}.ba{fill:#cbcbcb}.bc{fill:#c6c6c6}.bd{fill:#e8e8e8}</style></defs><g style="isolation:isolate"><path d="M1001 501h250v250h-250zM1251 251h250v250h-250zM1001 251h250v250h-250zM1001 1h250v250h-250zM1251 1h250v250h-250zM751 251h250v250H751zM751 1h250v250H751zM751 501h250v250H751zM501 251h250v250H501zM251 251h250v250H251zM501 501h250v250H501zM251 501h250v250H251zM751 751h250v250H751zM251 751h250v250H251zM1001 751h250v250h-250zM501 1h250v250H501zM1251 501h250v250h-250zM1251 751h250v250h-250zM501 751h250v250H501zM251 1h250v250H251zM1 1h250v250H1zM1 751h250v250H1zM1 251h250v250H1zM1 501h250v250H1z" class="b"/><path d="M861 655l-1-11v-11l-1-11a13 13 0 00-7-7c-7-3-14-1-22-1a75 75 0 01-11 0 33 33 0 00-6-1 38 38 0 00-5 1 22 22 0 01-6 1l-6-1h-11a4 4 0 00-1-1h-36l-12 1a31 31 0 00-6 0 35 35 0 01-7 0 37 37 0 00-7-1h-15a12 12 0 00-5 1 7 7 0 01-1 2l-1 8c-1 2-4 5-6 3v1a7 7 0 010 2 22 22 0 010 5l3 10a2 2 0 01-1 2v1a2 2 0 010 2 10 10 0 01-1 4 29 29 0 00-1 4 12 12 0 000 3 19 19 0 001 6 5 5 0 005 0 22 22 0 0110-1l11 1 25 1 25-1h87a8 8 0 006-2 8 8 0 002-5v-2c0 1 0 0 0 0a3 3 0 001-3z" class="d"/><path d="M730 613c-5 0-9-2-9 4l-1 5c0 3 8 3 10 3s12 0 12-2c0-1 1-8-1-9-2-2-6-1-8-1zm0 0h11c2 2 1 8 1 10 0 3-10 2-12 2s-10 1-10-3l1-6c0-5 4-3 9-3z" class="e"/><path d="M730 613c-5 0-10-2-9 4 0 6-5 8 8 8 2 0 13 1 13-2v-7c0-2 0-3-3-3a8 8 0 00-4 0 41 41 0 01-5 0z" class="f"/><path d="M730 613h-8a3 3 0 000 3v4c2 2 1 3 6 3 1 0 7 1 9-1s3 6 4-1c1-2 0-6-1-8h-1a8 8 0 00-4 0 41 41 0 01-5 0zm7 2v1h-3l3-1zm2 5v1c-2-2 0-1 0-1zm-17 0l3 4-3-1v-2z" class="g"/><path d="M776 617l1 9s5 3 5 0v-12c-1-1-7-4-6 3zm0 0c-2-6 4-5 6-3v12c0 3-4 1-5 0l-1-9z" class="h"/><path d="M776 617v6l1 3c2 1 2 2 5 1l1-7c0-2 0-6-2-7-4-2-6 0-5 4z" class="i"/><path d="M783 617l-2-4c-3-1-4-1-5 1a13 13 0 010 2l1 6c0 3 1 2 2 3a2 2 0 003-1v-4a21 21 0 001-3z" class="j"/><path d="M689 645c0 1-2 8-1 9 0 0 4 4 5 1 0-2 3-9 2-11 0-1-6-6-6 1zm0 0c0-6 5-4 6-2s-1 10-2 12c-1 3-4 0-5-1s0-8 1-9z" class="h"/><path d="M689 645l-1 6v3l4 2 3-7v-6c-4-3-6-2-6 2z" class="i"/><path d="M695 647v-4c-3-2-5-3-6-1v2l-1 6c0 3 1 2 2 3a2 2 0 003 0l1-3a21 21 0 001-3z" class="j"/><path d="M780 655c-7 1-8-1-15-1-3 0 0-15 6-12h4l8 1-1 8-2 4zm0 0l1-4c1-2 2-6 1-7l-3-1-8-1c-5-3-9 11-6 12 7 0 8 2 15 1z" class="e"/><path d="M780 655c-7 1-9-2-15-1-3 0 1-16 7-12h7c4 1 4 0 3 7-1 2 0 4-2 6z" class="k"/><path d="M764 651c0-4 3-12 8-9h7l4 2a2 2 0 01-1 0c-4 0-3 3-2 3a3 3 0 002 0v2a32 32 0 01-1 5 5 5 0 01-2-1c-1-2-2-8-2 0-4 1-3-4-3-5 0-7-1-2-3 0-4 6 1-4 1-4-1-2-3 3-3 4-2 4-4 4-5 3z" class="g"/><path d="M811 656c-3 0-10 2-9-4l1-5c-1-3 2-3 6-3 2 0 11-3 12 0 0 2 1 9-2 10a31 31 0 01-4 1l-4 1zm0 0l4-1 5-2v-9c0-3-11 0-13 0-7 1-2 2-4 7-2 7 3 5 8 5z" class="h"/><path d="M811 656c-2 0-11 2-8-5 1-4-3-7 4-7 3 0 13-3 14 0 1 13 0 9-8 12a5 5 0 01-2 0z" class="i"/><path d="M810 644l3-1a6 6 0 010 3c-1 1 3 3 5-3l3 1v2a19 19 0 00-1 4c-1 3-5 5-8 3-1 0-9 4-6-1-2-3-2-4 1-6-1-2 0 1 3-2z" class="j"/><path d="M854 640c-3 1-10 2-9-3l1-5c-1-4 2-3 5-4 2 0 12-3 12 0 1 2 2 9-1 10a33 33 0 01-4 1l-4 1zm0 0l4-1 5-1v-10c0-2-11 1-13 1-7 1-3 2-4 7-2 6 3 5 8 4z" class="h"/><path d="M854 640c-2 0-11 3-8-4 1-4-4-7 4-7 3 0 13-4 13-1 1 13 0 9-8 12a4 4 0 01-1 0z" class="i"/><path d="M852 628h4a6 6 0 010 2c-1 1 3 4 5-3l2 1v2a19 19 0 00-1 4c0 3-4 5-7 4-1-1-9 3-7-2-1-2-1-3 2-5-1-3 0 0 2-3z" class="j"/><path d="M729 651c3-7 4-9-7-9-7-1-6 1-6 6-1 2-1 2 1 3 2 2 10 1 12 0zm0 0c-2 1-11 2-12 1a1 1 0 010-1c-2-1-2-1-2-3 1-5 0-7 7-7 11 1 11 3 7 10z" class="e"/><path d="M729 651c1-4 5-8-3-9-12-1-9 0-11 7l2 3c1 1 10 0 12-1z" class="l"/><path d="M731 646c0-2 0-4-5-4-10-1-10 0-10 5 7 1 3 3 9 1l2-1c1 2 3 1 4-1zm-5-3c1 0 2 2 0 2-8-1-6-3 0-2z" class="m"/><path d="M860 652c3-7 4-8-6-9-8 0-6 1-7 6l1 4c2 1 10 1 12-1zm0 0c-2 2-11 2-12 1-2-2-2-2-1-4 0-5-1-7 7-6 10 0 10 2 6 9z" class="e"/><path d="M860 652c2-3 5-8-2-9-13-1-10 1-12 8l3 2c0 1 9 1 11-1z" class="l"/><path d="M862 647c1-2 0-3-4-4-11-1-10 0-11 5a1 1 0 001 0c6 1 2 3 8 2l2-1c1 1 3 0 4-2zm-5-2c1 0 2 1 0 1-7 0-5-2 0-1z" class="m"/><path d="M785 647h14c2-2-2-5-5-5h-4c-6 0-3 1-6 3-1 1 0 1 1 2zm0 0c-1-1-2-1-1-2 2-2-1-3 6-3h4c4 0 8 4 5 5h-14z" class="e"/><path d="M785 647c7 1 18 1 14-3-4-3-5-2-9-2-7 0-3 1-6 3-1 1 0 2 1 2z" class="k"/><path d="M800 646l-1-2c-4-3-5-2-9-2-6 0-4 1-6 3h8c7 4 1-2 6 0a4 4 0 002 1z" class="g"/><path d="M727 629c-3 2-6-2-6 3l-1 5c0 2 5 2 7 2 3 1 6 1 7-3l-1-8c-1-1-5 1-6 1zm0 0c1 0 6-3 7-1v8c-1 5-4 4-7 3-2 0-7 1-7-2l1-5c0-5 3-2 6-3z" class="h"/><path d="M727 629c-3 2-6-2-6 4 0 2-5 6 5 6 2 0 9 4 8-7-1-3 1-6-6-3h-1z" class="j"/><path d="M727 629c-3 1-5-1-6 2a5 5 0 010 1v1l-1 3c2 2 9 0 11 2 1 1 2-1 3-3a19 19 0 000-3 3 3 0 00-4-1c-1 1-2 0-2-2a6 6 0 00-1 0z" class="i"/><path d="M713 655c-7 1-8-1-14-1-4 0 0-15 6-12h3l7 1c1 2-1 6-1 8l-1 4zm0 0l1-4 1-7-4-1-7-1c-5-3-8 11-5 12 6 0 7 2 14 1z" class="e"/><path d="M713 655c-7 1-9-2-14-1-3 0 0-16 6-12h6c4 1 5 0 3 7l-1 6z" class="l"/><path d="M699 645c1-3 3-5 6-3h6c4 1 5 0 4 5a7 7 0 01-2-1l-5 2c-2 4-2 1-3 3 0 1-5 0-4-3l-2-3zm15 4a17 17 0 00-3 0c-2 0-1 1-2 3 0 1 0 3 3 1a13 13 0 002 0v-4z" class="m"/><path d="M833 641c-2 0-11 0-13-2l-2-7c1-6 10-5 15-5 2 0 11 1 11 4v6l-6 2-5 2zm0 0l5-2 7-2v-6c0-5-17-4-20-4-8 1-9 6-5 13v-1c0 2 12 2 13 2z" class="n"/><path d="M833 641c-1 0-13 0-13-2 0 0-9-12 7-12 3 0 18 0 18 4-1 7 2 6-6 7l-6 3z" class="l"/><path d="M819 637c-2-3-3-9 6-10l1 1a3 3 0 004-1c4 0 13 0 14 3-2 1 4 5-8 7-4 1-2-1-2-2 2-5-2 2-3 2-5 3-4-5-8-1-2 1-3 2-4 1z" class="m"/><path d="M784 654c4 1 13 4 17 2 2-1-2-6-5-7h-5c-8-2-4-1-8 3l1 2zm0 0l-1-2c3-4 0-5 8-4l5 1c4 1 8 7 4 8s-12-1-16-3z" class="e"/><path d="M784 654c8 3 21 5 17-1-4-5-5-4-10-5-8-1-4 1-8 4l1 2z" class="k"/><path d="M800 653c-3-5-4-4-9-4l-2-1a2 2 0 01-1 1 2 2 0 00-3 3c2 3 7-3 11 0 0 3-5 2-6 2 0 2 10 1 10 1v-2z" class="g"/><path d="M847 624c4 1 13 3 13-1 1-3-6-11-9-11l-3 1c-6 0-3 1-3 7l2 4zm0 0l-2-4c-1-6-4-7 3-7l3-1c3 0 11 8 9 11s-8 2-13 1z" class="e"/><path d="M847 624c8 3 19 2 11-7-7-7-6-4-10-4-7 0-3 2-3 7l2 4z" class="k"/><path d="M857 616c-6-6-5-3-9-3a14 14 0 00-2 0v1c-2 1 0 5 0 6 4 5 3-7 8-3 3 5-2 4-3 4 2 4 8 0 8 0l-2-5z" class="g"/><path d="M788 626l-4-2c-2-1 0 2 0 2l-1 2 3-1h2a3 3 0 001-1h-1zm0 0a1 1 0 001 0c2 0 0 2-2 1l-3 1c-2 1-1-1 0-2-1-1-2-3 0-2l4 2z" class="h"/><path d="M788 626c-3-1-1 1-4-2-2-1 0 2 0 2l-1 2 3-1h2s3-1 1-1a1 1 0 01-1 0z" class="i"/><path d="M787 628v1c-2 3-2 6-5 3-1-1-3-2 0-4s-1 2 3 0h2zm0 0a3 3 0 00-1 0c-1 1-4 2-4 0 0 1-2 1 0 3s2 4 3 0l2-3zm0 0z" class="h"/><path d="M787 628h-1c-1 0-4 2-3 0 0 0-4 2-1 3 0 0 2 4 4 0a21 21 0 011-3z" class="i"/><path d="M758 626h7c4 0-1 2-3 2l-4-2zm0 0c4 1 5 2 8 0a4 4 0 00-1 0h-7z" class="h"/><path d="M758 626h8c-3 3-4 1-8 1v-1z" class="k"/><path d="M697 648c1 1-1 6-1 8-1 4-3-1-2-3l2-5h1zm0 0h-1c-2 5-3 5-1 9a4 4 0 000-1l2-8z" class="h"/><path d="M697 648c1 1-1 6-1 7l-1 2c-2-4 0-5 1-9h1z" class="k"/><path d="M805 641c1 0 2 0 1 2s-4-1-8-1c-2 0-5-1 1-1h6zm0 0a21 21 0 01-6 0c-6-1-3 1-1 2l6 1c3 1 4-4 1-3z" class="h"/><path d="M805 641s2 0 1 2c-1 3-4-1-8-1-2 0-5-2 1-1a18 18 0 006 0z" class="k"/><path d="M800 648a21 21 0 00-3 0l4 4c1-1 0-4-1-4zm0 0c1-1 4 7 0 4-1-3-7-4 0-4z" class="h"/><path d="M800 648h-3l2 2c2 1 3 4 3 1 0 0-1-4-2-3z" class="k"/><path d="M859 654a22 22 0 00-2 1c1 1 2 0 4 3l-2-4zm0 0c2-1 4 8 1 4-2-2-7-4-1-4z" class="h"/><path d="M859 654l-3 1 2 1c3 1 3 4 4 2l-3-4z" class="k"/><path d="M795 659l1 3h2c1 0 7-3 5-4h-7l-1 1zm0 0c2-2 4-1 7-1 3 1-1 2-3 3l-3 1-1-3z" class="h"/><path d="M795 659l1 3 5-1s4-3 1-3c-2 0-6-2-7 1z" class="i"/><path d="M706 640l8-1 7 1c-1 2-14 2-16 1-2 0-2-1 1-1zm0 0c-2 1-3 0-1 1s15 0 15-1h-4a25 25 0 00-3-1l-7 1z" class="e"/><path d="M706 640l8-1a18 18 0 004 1c3 0 4 1-2 1h-11s-3 0 0-1h1z" class="l"/><path d="M734 642a24 24 0 00-3-1l1 5a2 2 0 000 1l2-5zm0 0c1 1-3 9-3 3 0-2-3-7 3-3z" class="h"/><path d="M734 642l-3-1v2c1 2 0 5 2 3l1-4z" class="k"/><path d="M730 655a21 21 0 003 1l-1-7c-1 0-3 5-2 6zm0 0c-2-1 2-11 2-5 0 4 4 9-2 5z" class="h"/><path d="M730 655l3 1-1-3c-1-2 1-6-1-4 0 0-2 5-1 6z" class="k"/><path d="M723 628l3-2 5-1c1 0 3 0 1 1a50 50 0 01-6 3h-3a1 1 0 010-1zm0 0c1 2 3 1 3 0l6-2a7 7 0 00-1 0h-5l-3 2z" class="n"/><path d="M723 628l3-2 5-1s4 0 0 2a14 14 0 01-2 1l-3 1a3 3 0 01-1 0l-2-1z" class="l"/><path d="M724 640l4 1c2 0 2 1-1 1 0 0 1-1-1-1 0 0-5 0-4-1h1a1 1 0 011 0zm0 0h-2c-2 1 5 1 5 1a2 2 0 002 0h-1l-4-1z" class="e"/><path d="M724 640l4 1c1 0 2 1-1 1l-1-1a25 25 0 00-3 0c-2 0-1-2 0-1z" class="k"/><path d="M699 655c1-1 3 1 5 1s2 1-1 1l-2-1s-5 0-3-1h1zm0 0h-1c-2 1 5 1 5 1a2 2 0 002 0h-1l-5-1z" class="e"/><path d="M699 655c1-1 3 1 5 1 1 0 2 1-1 1l-2-1h-2c-2 0-1-2 0-1z" class="k"/><path d="M697 640a43 43 0 001 5l3-4c1-1-1-1-2-1h-2zm4 1zm-4-1h3l2 1-4 4c-1 2-1-5-1-5z" class="h"/><path d="M697 640v3c0 1 0 4 1 2l3-4c1 0 1-1-1-1h-3z" class="i"/><path d="M758 641h3l1 1a10 10 0 003 0l-1 4-4-4s-3 0-2-1zm0 0l4 2 2 2 1-3a9 9 0 01-3 0l-1-1h-3zm6 4z" class="h"/><path d="M758 641h2l2 1a5 5 0 003 0v3c-1 2-2-2-3-2a10 10 0 00-4-1v-1z" class="i"/><path d="M760 639l4 2h1l-1-1c-2-2-1-2-4-1zm0 0a3 3 0 011 0c1-1 1-2 2 0l3 2c0 2-2 0-2 0-1 1-3-1-4-2z" class="h"/><path d="M760 639l3 2 2 1c1 0 1-1-1-2-1 0-1-3-3-2l-1 1z" class="i"/><path d="M735 626v3l2-3h-2zm0 4zm0-4h1c3-1 0 1 0 1l-1 3v-4z" class="e"/><path d="M735 626v3l1-2c1-1 2-1 0-1h-1z" class="k"/><path d="M720 626v3c0-1 0-2 2-3h-2zm0 3zm0-3l1-1c3 0 0 2 0 2l-1 2v-3z" class="e"/><path d="M720 626v2c0 3 1-1 1-1 1-1 2-2 0-2l-1 1z" class="k"/><path d="M734 638c0 1-2 2 1 3 2 1-1-3-1-3zm0 0zm0 0c1-1 2 2 2 2 1 1 0 2-1 2-3-2-1-3-1-4z" class="h"/><path d="M734 638c0 1-2 2 1 3l1-1-2-2z" class="i"/><path d="M781 642l3-4c1-1 1-1 2 1l2 1-3 3c-1 1-2 0-3-1h-1zm0 0h1l3 1 2-3-1-1c-1-1-1-2-2-1l-3 4z" class="e"/><path d="M781 642l3-4c1-1 1 0 2 1l1 1c1 1-2 1-2 2-1 2-3 0-3 0h-1z" class="k"/><path d="M763 655c2 2 1 5 3 2 0-1 3-1 2-2h-5zm0 0c-1 0 0-2 2-1l3 1c2 2-1 1-2 2-2 3-1 0-3-2z" class="e"/><path d="M763 655c2 1 1 5 3 2 0-1 4 0 2-2-1-1-1 1-3-1-2-1-3 1-2 1z" class="k"/><path d="M781 655h4c4 1 5 3 3 2h-4c-2-1-3 0-3-2zm0 0l1 1h4l2 1a18 18 0 00-4-1c-1-1-2-2-3-1z" class="e"/><path d="M781 655h4s5 1 3 2a7 7 0 00-2 0l-4-1-1-1z" class="k"/><path d="M820 655h3l2 1a10 10 0 002 0c2 0 1 4 0 4s-1-3-4-4l-3-1zm0 0l5 2 2 2v-3a9 9 0 01-2 0l-2-1h-3zm7 4z" class="h"/><path d="M820 655h3l2 1h2v3c0 2-2-2-2-2a10 10 0 00-4-1l-1-1z" class="i"/><path d="M845 639l-1 2-2 1c-1 0-9 0-6-1l7-3a7 7 0 012 1zm0 0h-1c-2-1-4 0-7 1-3 2 2 2 4 2l3-1 1-2z" class="h"/><path d="M845 639l-1 3h-5c-1 0-6 0-2-2 2 0 5-3 7-1h1z" class="i"/><path d="M836 656l7-1c4-1 0 2-2 2l-5-1zm0 0v1c5 0 5 0 8-2a5 5 0 00-1 0l-7 1z" class="h"/><path d="M836 656l7-1h1c-3 3-4 2-8 2v-1z" class="k"/><path d="M839 626h7c4 0 0 2-2 2l-5-1v-1zm0 0v1c5 1 5 2 9-1a4 4 0 00-2 0h-7z" class="h"/><path d="M839 626h9c-4 3-5 2-9 1v-1z" class="k"/><path d="M863 642l-7 1c-4 0 1-3 3-3l4 2zm0 0c-4-1-5-2-8 0a4 4 0 001 0h7z" class="h"/><path d="M863 642h-7-1c3-3 4-1 8 0 1 0 0 0 0 0z" class="k"/><path d="M715 656h14c2-1-2-4-5-4l-4 1c-6 0-3 0-6 2l1 1zm0 0l-1-1c2-2 0-3 6-3h4c3 0 8 3 4 4h-13z" class="e"/><path d="M715 656c6 1 18 1 14-2-4-2-5-1-9-2-6 0-3 1-6 3l1 1z" class="l"/><path d="M730 655l-1-1c-4-2-5-1-9-2-6 0-4 1-6 3l8-1c6 4 1-1 6 1a4 4 0 002 0z" class="m"/><path d="M815 640l3-1 3 2 1 1a34 34 0 01-5 0l-2-1a1 1 0 010-1zm0 0c0 2 2 2 2 2l5-1a6 6 0 00-1 0c-1 0-2-2-3-1h-3z" class="n"/><path d="M815 640h3c1-1 2 1 3 1 0 0 3 1 0 1a10 10 0 01-2 0h-2a2 2 0 01-1 0c-1 0-2-1-1-2z" class="l"/><path d="M817 636l-1 3h3l-1-2v-1a2 2 0 00-1-1v1zm0 0a1 1 0 000-1l1 1a1 1 0 010 1c0 2 0 0 1 1 0 2-1 1-2 1 0 0-2 1-1-1l1-2z" class="n"/><path d="M817 636l-1 2c-1 2 1 1 1 1h2l-1-2v-1l-1-1a1 1 0 010 1z" class="l"/><path d="M815 627l4 1 3-1 1-1a44 44 0 00-5 0l-3 1zm0 0l3-1h5a6 6 0 01-1 1l-3 1-4-1z" class="n"/><path d="M815 627l3 1c1 1 3-1 4-1 0 0 3-1 0-1a10 10 0 00-2 0h-2a3 3 0 00-1 0l-2 1z" class="l"/><path d="M814 642a22 22 0 00-3-1l-4 1a6 6 0 004 1l3-1zm0 0l-3 1a6 6 0 01-4-1l4-1a9 9 0 013 1z" class="h"/><path d="M814 642a18 18 0 00-2-1 3 3 0 00-1 0 15 15 0 00-4 1l2 1a4 4 0 002 0l3-1z" class="i"/><path d="M823 652a22 22 0 00-2 1l5 2c1-1-2-3-3-3zm0 0c1-1 7 6 2 3-2-1-8-1-2-3z" class="h"/><path d="M823 652l-2 1 2 1c2 0 4 3 4 0 0 0-3-3-4-2z" class="k"/><path d="M746 627c-6 0-9-1-11 6 0 2 0 8 4 7h13c7 0 10-2 9-9 0-4-3-4-7-4a30 30 0 00-8 0zm0 0h8c4 0 7 0 8 4 0 7-2 10-10 9l-4 1c-3 0-5-2-8-1-5 2-5-4-5-7 1-7 5-7 11-6z" class="n"/><path d="M746 627h-8c-4 2-4 16 2 13h10c1-1 12 3 12-9-1-2-1-3-5-4h-11z" class="l"/><path d="M746 627a12 12 0 01-1 0c-3 5-3 1-3 0a12 12 0 00-4 0 3 3 0 00-1 1c0 5 0 12 3 10 2-2 8 1 8-1 0-7 2-9 3-11a18 18 0 00-5 1zm15 8s-2-1-4 3c-2 3-6 1-4-1l1-2c-4 5-5 0-4-1 0-1-1-4 1-7h6c4 1 4 2 4 4a14 14 0 010 4z" class="m"/><path d="M739 628l3-1v1c0 2 0 2 2 2a4 4 0 002-2c0 2-2 3-4 3l-1-3a6 6 0 01-2 0zm3-1z" class="o"/><path d="M704 611c-7 0-10-1-11 6 0 3 0 9 4 7h13c7 0 9-2 9-9 0-4-4-3-7-4a31 31 0 00-8 0zm0 0h8c4 0 7 0 7 4 1 7-2 10-9 9l-4 1h-9c-4 1-5-5-4-8 1-7 4-6 11-6z" class="n"/><path d="M704 611h-8c-4 2-5 16 1 13 3-1 7 2 11 0 1-1 12 3 11-8 0-3 0-4-4-5h-11z" class="l"/><path d="M704 611a12 12 0 01-2 0c-2 5-3 2-2 0a13 13 0 00-4 0 3 3 0 00-1 2c-1 4 0 12 3 9 2-2 8 2 8-1 0-6 1-9 2-10a18 18 0 00-5 0zm15 8c-1 1-2-1-5 3-2 3-5 1-3-1 0-1 4-7 0-2s-5 0-4-1l2-7h6c4 1 4 2 4 5a14 14 0 010 3z" class="m"/><path d="M696 612c1 0 3-2 4-1v2l2 1a4 4 0 001-1l-3 2c-2 0-2-2-1-3a6 6 0 01-3 0zm3 0z" class="o"/><path d="M772 641c-7 0-9-1-9-7-1-4 0-5 4-7h9l7 7c1 2 0 5-3 6l-8 1zm0 0a40 40 0 007 0c4-1 6-5 4-7s-4-6-7-7h-9c-5 2-5 3-5 7 1 6 3 7 10 7z" class="n"/><path d="M772 641c-4 0-6 0-8-2-1-1-2-9 0-10 5-3 4-2 11-2 3 0 5 5 8 7v4c-1 3-7 3-11 3z" class="l"/><path d="M763 637c-1-3-1-7 1-8 5-3 4-2 11-2a3 3 0 012 0c0 2 0 4 2 4l1-1a17 17 0 003 4c-3 7-6 2-9 3-3 2-4-1-7 0h-4zm5-8c-4 0-3 5-1 2h2l-1-2z" class="m"/><path d="M769 628c2-1 5-2 6-1l2 3 2 1c-2 0-4 0-4-2s-5-1-6-1z" class="o"/><path d="M852 670c-8-1-9-1-10-7 0-4 0-5 4-7h9l7 7c2 1 0 5-3 6l-7 1zm0 0a40 40 0 006-1c5 0 6-4 5-6l-7-7h-10c-4 2-5 3-4 7 0 6 2 7 10 7z" class="n"/><path d="M852 670c-5 0-6 0-9-2-1-1-2-9 0-10 6-3 4-2 11-2 4-1 5 5 8 7v4c-1 3-6 3-10 3z" class="l"/><path d="M842 666c0-3-1-7 1-8 6-3 4-2 11-2a3 3 0 012 0c0 2 0 4 2 3h1a17 17 0 003 4c-3 7-5 2-9 3h-11zm5-8c-4 0-2 5-1 2h3l-2-2z" class="m"/><path d="M849 657c1-1 4-2 6-1s0 2 1 3l2 1c-2 0-4 0-4-2s-4-1-5-1z" class="o"/><path d="M802 627c-6 1-15-2-16 6 0 4 1 7 5 7 5-1 20 2 23-1 2 0 6-12-3-12h-9zm0 0a78 78 0 0110 0c8 0 5 11 3 12-3 3-19 1-24 1-6 1-6-7-3-11 3-3 10-2 14-2z" class="n"/><path d="M802 627s-10-1-13 1c-5 3-4 13 2 12 4-1 22 2 24-1s4-12-3-12h-10z" class="l"/><path d="M790 632c6-2 12 1 4 0 0 0-6 2-4 0 0-1 0 0 0 0zm12-5s-10-1-13 1a8 8 0 00-3 7 3 3 0 003 2h6c6 0 8-2 12-4 3-2 9 0 7 0-5 0-10 0-10 5h11c2-4 3-11-3-11h-10z" class="m"/><path d="M797 636l7-3c2-2 6-3 8-2a5 5 0 001 1h-1c-2-1-5 0-6 1-4 2-4 3-9 3z" class="o"/><path d="M787 614l10-1c2-1 14-2 16 0v8c1 4-2 3-6 4l-12 1c-6-1-11 0-11-7 0-3-1-4 3-5zm0 0c-4 1-3 2-3 7 1 5 6 4 11 4l12-1c4 0 7 1 6-3l-1-8c-1-2-11-1-13 0l-12 1z" class="e"/><path d="M787 614l8-1c3-1 16-2 17 0 2 1 0 6 1 8 1 1 0 3-2 3-5 0-12 2-16 1-3 0-10 2-11-5v-2c0-3 0-3 3-4z" class="k"/><path d="M787 614l8-1c3-1 16-2 17 0 2 1 0 6 1 8a2 2 0 010 2 40 40 0 01-6 1 4 4 0 01-2 0l-1-1c-2 0-3-2-1-3l1-1h4l2-1 1-1h-1a7 7 0 01-3 1h-5l-3 2-8 1-7-1v-2c0-3 0-3 3-4z" class="g"/><path d="M784 617c2-3 5-2 8-3l8-2a17 17 0 018 2h1l-3-1c-5-1-8 0-13 1l-9 3z" class="p"/><path d="M747 659c0 2 2 9-2 10-5 0-26 1-27-5l1-6c3-2 24-1 27 0a9 9 0 011 1zm0 0a6 6 0 00-1-1c-3-1-24-2-27-1l-1 7c0 7 22 6 27 5s3-8 2-10z" class="e"/><path d="M747 659c1 2 2 9-2 10-5 0-27 1-27-5 0-8-1-7 13-7l15 1a7 7 0 011 1z" class="l"/><path d="M747 659l1 2a1 1 0 01-1 1c-4-1-1 4-7 0-6 3-6 1-10-1-3-1-6 6 0 3 3-2 2 0 5 0 2 0-2 2-4 3-2 0-2 1-1 2-6 0-12-2-12-5 0-6 0-7 5-7h3a2 2 0 001 0h4l15 1a7 7 0 011 1zm1 5c-1-1-2-2-4 0s-4 0-4 1c1 5 2 3-1 4h7c1 0 2-2 2-5z" class="m"/><path d="M719 659c4-4 3 0 6-1l3-1a58 58 0 0111 1h-12a16 16 0 01-3 1c-2 0 0-2-5 0z" class="o"/><path d="M763 669c1-3 2-11-2-13h-6c-3 0-4-1-5 2-3 8 3 13 11 12zm0 0l-2 1c-8 2-14-4-11-12 1-3 2-3 5-2s5-2 8 1 2 8 0 12z" class="h"/><path d="M763 669c2-3 2-16-5-13-4 1-8-4-9 5-1 8 8 11 14 8z" class="i"/><path d="M764 660c-1-3-3-6-6-4-3 1-7-3-9 3 2 0 4-2 4 5 0 3-3 0-4-1a7 7 0 002 4 4 4 0 004-2c2-3 8-1 9-5z" class="j"/><path d="M754 665a10 10 0 016-3l3-2-1 1-4 3-4 1z" class="q"/><path d="M793 668c1-2 3-10-1-10l-14-1h-7c-4 1-5 0-5 5 0 2-1 6 1 6h26zm0 0h-9l-11 1-7-1c-2-1 0-7 0-8 0-3 2-3 5-3h7l14 1c5 0 2 8 1 10z" class="h"/><path d="M793 668c1-3 3-10-1-10l-14-1h-7c-2 0-5-1-5 5 0 5-1 7 5 7 2-1 10 1 13-1h9z" class="i"/><path d="M794 663c1-2 0-5-2-5l-14-1h-7c-2 0-5-1-5 5v3c1 1 2 2 3 1 3-2 12 0 12-1 2-2 3-1 0-3s-2 0-4-3c-2-4 9 5 10 4 3-3 6 0 7 0z" class="j"/><path d="M783 659l3 3c1 0 5-2 6 0-2-1-3 1-6 1l-3-4z" class="q"/><path d="M828 660l2 8s9 2 10 0c0-2 1-8-1-10-1-1-12-3-11 2zm0 0c-2-5 8-4 11-2 3 1 2 8 1 10-1 3-7 1-10 0-2 0-2-6-2-8z" class="h"/><path d="M828 660l1 6 1 2c4 1 5 2 9 1 2 0 1-5 2-6 0-1 0-5-2-5-8-2-12-1-11 2z" class="i"/><path d="M840 667v-4c0-1 0-4-2-5-6-2-10-1-10 1l1 5c0 3 6 4 7 2 0-1 2-2 2 0-1 1 0 1 2 1z" class="j"/><path d="M831 659l4-1a8 8 0 014 2h-3c-2-1-3-2-5-1z" class="q"/><path d="M846 643c0 2 1 10-2 10s-3 2-7 2h-8c-2 0-3-2-5-3-5-6-2-10 5-9h13a12 12 0 003-1 3 3 0 001 1zm0 0l-1-1a15 15 0 01-3 1c-6 1-7 0-12-1-8 0-12 4-6 10 2 2 3 3 5 3h8c4 0 4-1 7-2 3 0 2-8 2-10z" class="e"/><path d="M846 643c0 2 1 10-2 10-2 0-3 2-10 2s-5 1-10-3c-4-4-3-9 2-9h15l4-1z" class="k"/><path d="M846 643l-1 8-1-1-6 1c-3 1-6-1-8 1-5 5-7-7-6-8 4-2 4-1 6-1h11l4-1z" class="g"/><path d="M824 645c4-3 3 0 5-1l3-1a47 47 0 0110 1h-11l-2 1c-3 0-1-2-5 0z" class="p"/><path d="M759 612c-3 2-3 1-6 1-2 0-7-1-8 1l-2 3c-1 1 0 6 2 7 4 3 7 1 12 1a70 70 0 0111 0c1 0 7 1 7-1v-11c-1-2-6-1-8-1a53 53 0 00-8 0zm0 0a41 41 0 018 0c2 0 7-1 8 1l1 11c-1 2-6 2-8 1a74 74 0 00-11 0c-5 0-8 2-13 0-1-1-2-7-1-8l1-3c2-2 7-1 9-1 3 0 3 1 6-1z" class="h"/><path d="M759 612l-4 1h-4c-3 0-7-1-7 3 0 2-2 0-1 5 0 3 0 3 3 4 4 2 7 0 11 0h11a23 23 0 006 0c2 0 1-3 1-5v-3c0-5 0-5-6-5h-10z" class="i"/><path d="M753 613a15 15 0 00-2 0c-3 0-7-1-7 3 0 2 2 4 3 4 3 0 6 2 9 0 1 0 1-2 3-2 1-1 4-2 5-1 3 2 8-1 11-1 0-4-1-4-6-4h-6c-3 2-4 3-10 1zm20 12a6 6 0 01-3 0c-6-4-9-1-15-1-2 0-9-1-9-3 4-1 4 2 10 1 5-1 0-3 10-3 2 0 7-2 9-1v2c0 2 2 5-1 5z" class="j"/><path d="M774 615c0-2-1-3-4-2l-7 1a17 17 0 01-6 0l5-1 7-1c3 0 6 0 5 3z" class="q"/><path d="M703 639c3-2 2-1 6-1 2 0 7 1 8-1l1-3c1-1 1-7-1-7-5-3-7-1-12-1a69 69 0 01-11 0c-2 0-7-1-8 1l1 10c1 2 6 2 8 2a52 52 0 008 0zm0 0a41 41 0 01-8 0c-2 0-7 1-8-2l-1-10c1-2 6-2 8-2a75 75 0 0011 1c5-1 8-2 12 0 2 1 3 7 2 8l-2 3c-1 2-6 1-8 1-4 0-3-1-6 1z" class="h"/><path d="M703 639c2-2 1-1 4-1h4c3 0 6 1 7-3l1-5-3-4c-5-2-7 0-11 0h-11a22 22 0 00-6 0c-3 0-1 3-1 4v3c0 5 0 6 6 6h10z" class="i"/><path d="M709 638a15 15 0 002 0c3 0 6 1 7-3l-3-4c-4 0-6-2-9 0-1 0-1 2-3 2l-6 1c-2-2-7 1-10 1 0 4 1 4 6 4h5c3-2 5-3 11-1zm-20-12a6 6 0 012 0c6 4 10 1 16 1 1 0 9 1 9 3-4 1-4-2-10-1-5 1 0 3-10 3-2 0-7 2-9 1v-2c0-2-2-5 1-5h1z" class="j"/><path d="M688 636c0 2 1 3 3 2l8-1a17 17 0 016 0h-6l-6 2c-2 1-6 0-5-3z" class="q"/><path d="M750 641l-11 1c-5 0-5 2-6 7 0 3 0 7 4 6l3 1c5 1 6 1 11-1 2-2 10 0 11-2 4-12-5-10-12-12zm0 0c8 1 16 0 12 12-1 2-9 0-11 2-5 3-6 2-11 1h-3c-4 0-5-4-4-7 0-5 2-8 6-8h11z" class="e"/><path d="M750 641c-9 2-14-2-16 4-2 4-2 12 4 10 1 0 8 4 13 0 2-2 10 0 11-2 4-12-5-11-11-12a4 4 0 00-1 0z" class="k"/><path d="M749 641h-1a29 29 0 01-4 8l-3 3 2-3a19 19 0 003-8c-6 1-11-1-12 4-3 11 4 14 11 5 2-2 3-7 5-3l3 7h4a1 1 0 00-1 0c-2-1 1-8-1-11-1-2-5 0-6-2zm-3 16c0-3 3-8 4-2a9 9 0 01-4 2zm15-14c4 5 1 10-2 8-3-3-3-8-1-9a10 10 0 013 1z" class="g"/><path d="M735 644c-2-2 4-2 5-2a23 23 0 003 0c1-1 4-2 5-1l-4 2h-7l-2 1z" class="p"/><path d="M734 654l8-8c3-2 2-3 3-5a6 6 0 01-2 5l-2 2c-2 4 1 3 0 7 1-4-1-3-1-5a1 1 0 010-1c-2 3 1 4-1 6 1-3-1-4 1-6l2-3-8 8zm11-13zm0 0z" class="k"/><path d="M827 662v6c-3 2-14 1-17 2-4 0-11 3-12-3 0-4 0-3 4-6l9-4c4-1 12-1 15 2a5 5 0 011 3zm0 0l-2-4c-3-2-13-2-16-1l-11 7v4c2 5 8 3 12 2 4 0 14 1 17-1v-7z" class="e"/><path d="M827 662v7l-11 1c-5 0-4-1-9 1-4 0-9 0-9-4 0-3-1-3 3-5 3-1 8-6 10-6 5 1 16-1 16 6z" class="k"/><path d="M798 664a14 14 0 013-2c3-1 8-6 10-6 4 0 13 0 15 4 0 3 1 4-6 6l-10-1-11-1z" class="g"/><path d="M804 661c4-3 15-6 18-3l1 1-1-1c-4-2-13 2-18 3z" class="p"/><path d="M806 659l5 5c2 2 3 9 1 3 0-2-2-2-4-4-2-4 0-3-2 2l1-5-1-1zM815 625v-9c0-5 4-3 8-3 3-1 18-2 19 0l1 7c0 2 1 5-2 5h-26zm0 0h26c2 0 2-3 1-5l-1-7h-16c-7 0-10-2-10 6v6z" class="e"/><path d="M815 625v-9c1-4 3-3 7-3l12-1 8 1 1 7c0 1 1 5-2 5a175 175 0 00-18 0h-8z" class="k"/><path d="M821 613h1l12-1 8 1a8 8 0 010 1l-2 3c3 3 3 2 2 5-2 4-5 2-5 1-1-5-4-1-6 1h-13c-3-1-3-2-3-5 0-4 2-4 2-5l4-1zm0 4a8 8 0 012-1l1-1a1 1 0 01-2-1s-6 4-1 3zm15 5c-1 0-4-1-3 1a2 2 0 003 0v-1z" class="g"/><path d="M827 613l12 1h-1c-4 1-7 0-11-1z" class="p"/><path d="M815 621a6 6 0 002-1c1-2 4-2 5-2h-1l-4 1-2 2c0-1 0 1 0 0z" class="k"/><path d="M690 670l-1-9c1-5 5-3 9-3 2-1 18-2 18 0l1 7c1 2 1 5-2 5h-25zm0 0h25c3 0 2-3 2-5l-1-7h-17c-6 0-10-2-10 5l1 7z" class="e"/><path d="M690 670l-1-9c0-4 3-3 7-3l12-1 8 1 1 7c1 1 1 5-2 5a175 175 0 00-18 0h-7z" class="k"/><path d="M696 658l12-1 8 1a8 8 0 010 1l-1 3c2 2 2 2 1 5-2 4-4 2-4 0-1-4-4 0-7 2h-13c-2-1-2-3-2-5 0-4 2-4 2-5l4-1zm0 4a8 8 0 012-1v-1a1 1 0 01-1-1s-7 4-1 3zm14 5c-1 0-3-1-3 1 1 1 3 1 3-1 0 0 1 0 0 0z" class="g"/><path d="M702 658l12 1h-2c-4 1-6 0-10-1z" class="p"/><path d="M689 666a6 6 0 002-2l5-1-4 1-3 2c0-1 0 1 0 0zM806 659l5 5c2 2 3 9 1 3 0-2-2-2-4-4-2-4 0-3-2 2l1-5-1-1z" class="k"/><path d="M390 208l-7-7-8-9-7-7a13 13 0 00-11-2c-7 2-11 9-16 14a75 75 0 01-9 7 34 34 0 00-5 3 38 38 0 00-4 5 23 23 0 01-4 3l-5 4-9 7a3 3 0 00-1 0l-18 15-9 8-8 8a4 4 0 00-1 1 31 31 0 00-4 3 35 35 0 01-6 4 37 37 0 00-6 4l-5 5-6 5c-1 2-3 3-3 5a7 7 0 010 1c2 2 4 4 4 7 1 2 1 6-2 7a8 8 0 012 1 22 22 0 013 4c2 3 6 4 9 6a2 2 0 011 3 2 2 0 011 1 10 10 0 012 5 28 28 0 001 3 11 11 0 003 3 19 19 0 004 3 5 5 0 004-3 22 22 0 017-8l9-6c7-4 13-10 19-15l20-16 38-32 19-16 9-8a8 8 0 003-6 8 8 0 00-1-5l-2-2c1 1 0 0 0 0a3 3 0 00-1-3z" class="d"/><path d="M263 261c-4 3-8 4-5 8l4 5c1 2 7-4 9-5 1-1 9-7 8-8-1-2-5-7-7-7-3 0-5 3-7 5zm0 0l2-2c2-2 4-5 7-5 2-1 6 5 7 6 1 2-7 8-8 9-2 2-8 8-10 5l-3-5c-3-4 1-5 5-8z" class="e"/><path d="M263 261c-4 2-9 4-5 8s2 10 12 1c1-1 10-8 9-10l-5-5c-1-2-2-2-4 0a9 9 0 00-3 2 43 43 0 01-4 4z" class="f"/><path d="M263 261l-6 5a3 3 0 001 2l4 3c2 0 2 2 5-1 2-1 7-4 7-7 0-2 6 2 3-4l-7-5v1a9 9 0 00-3 2 42 42 0 01-4 4zm7-4v1l-2 2 2-3zm4 3h1-1zm-12 11c1 1 2 2 4 1 1 1-3 2-3 1l-1-2z" class="g"/><path d="M300 234l7 6s5-1 4-3-6-9-8-9c-1 0-8 1-3 6zm0 0c-5-4 0-7 3-6 2 0 7 7 8 8 2 3-2 4-4 4-1 1-6-5-7-6z" class="h"/><path d="M300 234l5 4 2 2c2-1 3 0 4-2 1-1-3-5-3-6-1-2-4-5-5-4-5 1-6 3-3 6z" class="i"/><path d="M306 230c-1-2-2-2-3-2-4 0-5 2-4 4a15 15 0 011 1l5 4c2 3 2 1 3 1a2 2 0 001-2l-1-4a20 20 0 00-2-2z" class="j"/><path d="M252 311l5 8s5 0 4-3c0-2-3-9-5-10-1 0-8 0-4 5zm0 0c-4-4 1-6 4-5 2 0 5 8 6 10 1 3-4 3-5 3-2 0-5-6-5-8z" class="h"/><path d="M252 311l3 6 2 2 5-1-3-7c0-2-2-5-4-5-5 0-6 2-3 5z" class="i"/><path d="M258 309l-3-3c-3 0-5 1-5 3a17 17 0 011 1l4 6c1 3 2 1 3 1a2 2 0 002-2l-1-3a20 20 0 00-1-3z" class="j"/><path d="M328 260c-5 6-7 5-12 9-3 2-10-12-3-13l3-2c1-1 6-5 7-4l4 6 1 4zm0 0l-1-4-4-6c-1-1-3 1-4 2-2 1-4 4-6 4-6 2 1 15 3 13 5-4 7-3 12-9z" class="e"/><path d="M328 260c-4 6-8 5-12 9-2 2-10-13-2-13l5-4c4-2 3-4 7 3 1 2 3 3 2 5z" class="k"/><path d="M314 268c-3-3-6-12 0-12l5-4c3-2 3-3 4-1-3 2-1 3 0 3a3 3 0 002-1l1 2a32 32 0 012 4 5 5 0 01-2 0c-2 0-7-4-1 2-3 3-5-2-5-2-5-6-3-1-3 1 1 8-2-3-2-3-2 0 0 4 0 5 1 4 0 6-1 6z" class="g"/><path d="M353 241c-2 2-7 8-9 3l-3-4c-3-3 0-4 2-7 1-1 7-10 9-8s7 7 6 9a31 31 0 01-3 4l-2 3zm0 0l2-4 3-4-6-7c-2-2-8 7-10 9-5 5-1 3 1 8 3 6 6 1 10-2z" class="h"/><path d="M353 241c-2 1-7 9-10 2-1-4-6-3-1-8 3-3 8-11 10-9 9 9 6 6 2 14a5 5 0 01-1 1z" class="i"/><path d="M344 233l2-3a6 6 0 011 2c1 1 5 1 2-5 1-2 2-2 3-1l2 1a19 19 0 001 4c2 2 0 6-3 7-1 1-5 9-6 4-3-1-4-2-3-6-2-1 1 1 1-3z" class="j"/><path d="M375 201c-2 3-6 9-9 4-1-3 0-2-3-5-2-2 0-3 3-6 1-1 7-10 9-8 1 2 6 6 5 9a31 31 0 01-2 3l-3 3zm0 0l3-3 2-4c1-2-5-7-6-8s-7 8-9 9c-5 6-1 3 1 8 3 7 6 2 9-2z" class="h"/><path d="M375 201c-1 2-6 10-9 2-1-4-7-3-1-8 2-2 8-11 10-9 9 10 5 7 1 14a5 5 0 01-1 1z" class="i"/><path d="M367 193l2-2a6 6 0 011 2c0 1 5 0 2-6l3-1 1 2a18 18 0 002 4c1 2 0 6-3 7-1 0-6 9-7 3-2-1-3-1-2-5-2-1 1 0 1-4z" class="j"/><path d="M286 290c-2-7-2-9-11-3-5 5-3 5-1 9 1 2 1 2 4 2 2 0 8-6 8-8zm0 0c0 3-7 9-8 8l-4-1c-3-5-5-5 1-10 9-6 10-5 11 3z" class="e"/><path d="M286 290c-1-4-1-9-7-5-11 7-8 6-4 13h3c1 1 8-6 8-8z" class="l"/><path d="M285 285c-1-2-3-3-6 0-9 6-8 6-5 10 6-4 4 1 8-4 1-2 0-3 1-2 2 0 2-2 2-4zm-5 1s2 0 0 1c-6 5-6 2 0-1z" class="m"/><path d="M388 207c-2-8-3-9-11-3-6 4-4 5-1 9 1 2 1 2 3 2 3 0 8-6 9-8zm0 0c-1 2-7 8-9 8s-3 0-3-2c-3-4-5-5 1-9 8-6 9-5 11 3z" class="e"/><path d="M388 207c-1-4-2-10-8-5-10 7-7 6-4 12l3 1c1 0 9-6 9-8z" class="l"/><path d="M386 202c-1-2-2-3-6 0-9 6-8 6-5 10a1 1 0 001 0c5-4 4 0 7-4 2-2 0-3 1-3 2 1 3-1 2-3zm-5 1s2 0 1 1c-7 4-6 2-1-1z" class="m"/><path d="M327 251c3-2 10-6 10-9 1-2-4-2-6-1l-3 3c-5 4-3 3-3 6l2 1zm0 0h-2c0-4-2-3 3-7l3-3c2-2 8-2 6 1s-7 7-10 9z" class="e"/><path d="M327 251c6-3 15-11 9-11-5 0-5 1-8 4-5 4-2 3-3 7h2z" class="k"/><path d="M338 241l-2-1c-5 0-5 1-8 4-5 4-3 3-3 6l6-5c8-1-1-3 5-4a4 4 0 002 0z" class="g"/><path d="M271 275c-2 3-6 2-3 6l3 4c1 2 5-2 6-3 3-1 6-2 3-6l-5-6-4 5zm0 0c0-1 2-6 4-6l5 6c3 5 1 6-3 8-1 0-5 5-7 2l-2-4c-3-4 1-3 3-6z" class="h"/><path d="M271 275c-1 3-6 2-2 7 1 1 0 7 8 1 1-1 9-2 1-10-2-3-3-6-6 0l-1 2z" class="j"/><path d="M271 275c-1 2-5 2-3 5a5 5 0 010 1l1 1 1 3c2 0 7-6 10-6v-4a19 19 0 00-2-2 3 3 0 00-3 1c-1 2-2 1-4 0a6 6 0 000 1z" class="i"/><path d="M277 304c-5 5-7 4-12 8-2 2-9-12-3-13l3-2 6-4 4 6 2 5zm0 0l-2-4-4-6-3 1c-2 1-4 4-6 4-6 1 1 14 3 13 5-4 7-3 12-8z" class="e"/><path d="M277 304c-4 5-8 4-12 8-2 2-10-13-2-13l5-4c3-2 3-3 6 3l3 6z" class="l"/><path d="M260 305c-1-3-1-6 3-6l5-4c3-2 3-3 5 1a7 7 0 01-2 1c-2 1-3 4-2 5 1 4-2 1-1 4 1 1-4 2-4 0l-4-1zm14-7a16 16 0 00-3 2c-1 1 1 1 1 4 0 1 2 2 3-1a13 13 0 001-2l-2-3z" class="m"/><path d="M360 215c-2 1-9 8-11 8-2-1-6-3-7-5-3-5 5-10 9-13 2-1 9-7 11-4l4 4-4 6-2 4zm0 0l2-4 4-6a57 57 0 00-4-5c-3-3-15 8-18 10-5 6-2 11 5 13 1 1 10-7 11-8z" class="n"/><path d="M360 215l-11 8s-15-4-2-15c2-2 13-11 15-7 4 5 6 3 1 9l-3 5z" class="l"/><path d="M347 222c-4-2-9-5-2-12h1a3 3 0 002-3c4-3 10-8 13-7-1 2 7 2-1 11-3 3-3 0-3-1-2-5-1 3-1 4-2 5-7-1-7 4l-2 4z" class="m"/><path d="M330 257c5-1 14-5 15-9 1-2-6-4-8-2l-4 2c-7 4-4 3-5 8l2 1zm0 0l-2-1c1-5-2-4 4-8l4-2c4-2 11-1 9 3s-10 7-15 8z" class="e"/><path d="M330 257c8-2 20-10 13-11-6-2-6 0-10 2-8 4-4 3-5 8l2 1z" class="k"/><path d="M342 245c-5-1-5 1-9 3l-2 1a2 2 0 01-1 2 2 2 0 000 4c4 1 4-7 9-7 2 2-3 4-4 5 1 1 8-5 8-5l-1-3z" class="g"/><path d="M360 194c3-2 11-6 9-10-2-3-12-4-14-2l-2 3c-4 4-1 2 3 7l4 2zm0 0l-4-2c-5-4-8-3-3-8l2-2c2-2 14-1 14 3s-5 7-9 9z" class="e"/><path d="M360 194c7-3 15-11 3-13-9-1-7 1-10 3-5 5-1 4 3 8l4 2z" class="k"/><path d="M362 181c-8-1-6 1-9 3a14 14 0 00-1 1v2c-1 1 4 4 4 4 7 1-2-7 5-7 5 2 0 4 0 5 3 1 5-5 5-5 1-1-1-2-4-3z" class="g"/><path d="M316 233l-4 1c-2 1 0 1 1 2v2l2-2 1-2a3 3 0 001-2l-1 1zm0 0c2-2 1 1 0 2l-2 2c-1 3-1 0-2-1 0 0-3-2 0-2l4-1z" class="h"/><path d="M316 233l-4 1c-3 0 1 2 1 2s0 3 1 2l1-3 1-1c1 0 2-3 0-1z" class="i"/><path d="M316 235a3 3 0 011 1c0 3 3 6-2 5-1 0-3 1-3-2s1 2 3-2l1-2zm0 0a3 3 0 000 1c-1 1-2 4-3 3 0 0-1 2 1 2s4 1 3-2l-1-4zm0 0z" class="h"/><path d="M316 235l-1 1c0 1-1 4-2 2 0 0-2 3 1 3 1 0 5 2 3-2a22 22 0 01-1-4z" class="i"/><path d="M292 253c0-2 5-5 6-5 3-3 1 2-1 3l-4 2h-1zm0 0h1c4-2 5-2 6-6a4 4 0 00-1 1l-6 5z" class="h"/><path d="M292 253c0-2 5-4 6-5l1-1c-1 5-3 4-6 6h-1z" class="k"/><path d="M260 309l4 6c2 4-2 1-3-1 0-1-2-4-1-5zm0 0c1 5 1 5 4 7a4 4 0 000-1l-4-6z" class="h"/><path d="M260 309l4 6v2c-4-2-3-4-4-8z" class="k"/><path d="M338 234c1-1 2-1 2 1s-3 2-6 4c-2 1-5 2 0-1l4-4zm0 0a22 22 0 01-4 3c-6 4-2 4 0 2l5-2c3-2 1-6-1-3z" class="h"/><path d="M338 234c1-1 2-2 3 0 1 3-4 2-7 5-2 1-5 1 0-2a18 18 0 004-3z" class="k"/><path d="M338 242a21 21 0 00-1 2h5a3 3 0 001 0l-5-2zm0 0c1-1 9 3 4 3-3-1-8 2-4-3z" class="h"/><path d="M338 242l-1 3 2-1c2 0 5 2 4 0 0-1-4-3-5-2z" class="k"/><path d="M388 209a20 20 0 00-1 2h5a2 2 0 001 0c0-1-4-3-5-2zm0 0c1-2 8 3 3 2-2 0-7 2-3-2z" class="h"/><path d="M388 209l-1 2h2c2-1 5 1 4-1-1 0-4-2-5-1z" class="k"/><path d="M342 254l3 1 2-1c0-1 3-7 1-6l-6 4a6 6 0 000 2zm0 0c0-3 3-3 5-5 3-2 0 2 0 4l-2 2-3-1z" class="h"/><path d="M342 254l3 1 3-4s2-4-1-2c-1 1-6 2-5 5z" class="i"/><path d="M262 297l6-6 5-4c1 2-9 10-11 11s-2 1 0-1zm0 0c-2 2-2 2 0 1l11-11-4 3a22 22 0 00-2 1l-5 5z" class="e"/><path d="M262 297l6-6a19 19 0 003-2c2-2 4-2 0 2l-9 7s-2 1-1-1h1z" class="l"/><path d="M284 280a23 23 0 00-2 1l4 4c1-1-1-4-2-5zm0 0c2 0 4 8 1 4-2-2-7-3-1-4z" class="h"/><path d="M284 280l-3 1 2 2c2 1 3 4 3 1l-2-4z" class="k"/><path d="M290 292a22 22 0 003-1c-2-1-3 0-5-4a3 3 0 00-1 0l3 5zm0 0c-2 1-6-9-1-4 2 2 8 4 1 4z" class="h"/><path d="M290 292l3-1-2-1c-3-2-4-5-4-2 0 0 2 5 3 4z" class="k"/><path d="M267 277l1-4c0-2 2-3 3-4s3-1 2 0a50 50 0 01-3 6s-1 2-3 2zm0 0c2 0 3-2 3-2l3-6a7 7 0 00-1 0l-4 4-1 4z" class="n"/><path d="M267 277l1-4c0-2 3-2 4-4 0 0 2-2 0 1a13 13 0 01-1 3l-1 2a3 3 0 01-1 1l-2 1z" class="l"/><path d="M275 285l4-2c1-1 3 0 0 1l-1 1s-4 3-4 1h1a1 1 0 010-1zm0 0l-1 1c-1 2 4-2 5-2l1-1h-1l-4 2z" class="e"/><path d="M275 285l4-2c1-1 3-1 0 1l-1 1a24 24 0 00-3 1c-1 1-1 0 0 0v-1z" class="k"/><path d="M266 312l4-2c1-1 3 0 0 1l-1 1s-4 3-4 1h1a1 1 0 010-1zm0 0l-1 1c-1 2 5-2 5-2l2-1h-1l-5 2z" class="e"/><path d="M266 312l4-2c1-1 3-1 0 1l-1 1-2 1h-1z" class="k"/><path d="M255 302a44 44 0 004 4v-6l-2 1-2 1zm4-2zm-4 2l3-2h1v6c0 2-4-4-4-4z" class="h"/><path d="M255 302l2 3 2 1v-6h-1l-3 2z" class="i"/><path d="M302 264l2-2 2-1a10 10 0 002-1c1-1 3 3 2 4-1 0-2-2-5-1l-3 1zm0 0c1 1 3-1 5-1h3s-1-3-2-2a9 9 0 01-2 1h-2l-2 2zm8-1z" class="h"/><path d="M302 264l2-2h2l2-2c1-1 2 2 2 3h-3a10 10 0 00-4 1h-1z" class="i"/><path d="M303 262l4-2 1-1-2 1c-2-1-2-2-3 1zm0 0a3 3 0 010-2c0-1 0-2 2-1h3c2 1-1 1-1 1l-4 2z" class="h"/><path d="M303 262l3-1 2-1c1 0 0-2-1-1h-4v3z" class="i"/><path d="M275 267l2 3v-4l-2 1zm2 3zm-2-3l1-1c2-2 1 1 1 1v3s-3-2-2-3z" class="e"/><path d="M275 267c-1 1 1 2 2 3v-3c0-1 1-2-1-1l-1 1z" class="k"/><path d="M263 277l2 2v-3a2 2 0 000-1l-2 2zm2 2zm-2-2l1-1c2-3 1 0 1 0l1 4-3-3z" class="e"/><path d="M263 277l2 2v-3c0-1 1-2-1-1 0 1 1 1-1 2z" class="k"/><path d="M282 277c1 0 0 3 3 2 2-1-3-2-3-2zm0 0zm0 0h3a1 1 0 010 2c-3 1-2-1-3-2z" class="h"/><path d="M282 277c1 1 0 3 3 2v-1l-3-1z" class="i"/><path d="M320 250v-5c0-2 1-1 3-1h2c0 1-2 2-1 4l-2 1-2 1zm0 0c1 1 1-1 2-1l2-1v-3l-1-1c-2 0-2-1-2 1l-1 5z" class="e"/><path d="M320 250v-5c0-2 1-1 3-1h1v4c1 2-2 1-2 1l-2 1z" class="k"/><path d="M315 272c3-1 4 3 4-1-1-1 2-3 0-3-1 0 0 2-3 2-2 0-1 2-1 2zm0 0s-1-2 1-2 2-2 3-2c3 0 0 2 0 3 0 4-1 1-4 1z" class="e"/><path d="M315 272c3-1 5 3 4-1 0-1 2-3 0-3-1 0-1 2-3 2s-1 2-1 2z" class="k"/><path d="M329 260l3-2c4-3 6-2 3-1l-3 2c-2 1-2 3-3 1zm0 0h1l4-2 2-2a18 18 0 00-4 2l-3 2z" class="e"/><path d="M329 260l3-2s5-3 4-1a7 7 0 00-2 1l-4 2h-1z" class="k"/><path d="M359 234l2-2h2a9 9 0 002-1c1-1 3 3 2 3h-5-3zm0 0c1 1 3-1 5-1l3 1s-1-4-2-3a9 9 0 01-2 1h-2l-2 2zm8 0z" class="h"/><path d="M359 234l2-2h2l2-1c1-1 2 2 2 2 1 2-3 0-3 0a10 10 0 00-4 2l-1-1z" class="i"/><path d="M368 207l1 2-2 2s-6 5-5 3l3-7a7 7 0 013 0zm0 0h-1c-3 0-3 3-4 6-2 3 2-1 3-2 2-1 2 0 3-2-2-1-1-1-1-2z" class="h"/><path d="M368 207s-1 1 1 2l-4 4s-5 3-2-1c0-1 1-5 4-5h1z" class="i"/><path d="M372 225c-1-1 4-4 4-5 3-3 2 1 0 3l-4 3v-1zm0 0s0 1 0 0c4-2 5-2 5-6a5 5 0 000 1l-5 5z" class="h"/><path d="M372 225c-1-1 3-4 4-5l2-1c-1 4-3 4-6 7v-1z" class="k"/><path d="M355 200l5-5c3-2 2 3 0 4l-5 2v-1zm0 0l1 1c4-2 4-2 6-6a4 4 0 00-1 1l-6 4z" class="h"/><path d="M355 200l5-4 2-1c-1 4-3 4-6 6l-1-1z" class="k"/><path d="M384 197l-6 5c-3 3-1-2 1-3 1-1 4-3 5-2zm0 0h-1c-4 2-4 1-6 5a4 4 0 001 0l6-5z" class="h"/><path d="M384 197l-5 5h-2c1-4 3-3 6-5h1z" class="k"/><path d="M279 303c3-2 9-6 11-9 0-2-4-1-6 0l-3 3c-5 4-3 3-3 6h1zm0 0h-1c0-3-2-2 3-6l3-3c2-2 7-2 5 0l-10 9z" class="e"/><path d="M279 303c6-3 14-11 9-10-4 0-4 1-7 4-5 4-3 3-3 6h1z" class="l"/><path d="M290 293h-2c-4 0-4 1-7 4-5 4-3 3-3 6l5-5c8-2 0-3 5-4a4 4 0 002-1z" class="m"/><path d="M345 227l2-3 4-1h1a35 35 0 01-4 4h-3zm0 0c1 1 3 0 3-1l4-3a5 5 0 00-1 0l-4 1c0 2-1 2-2 3z" class="n"/><path d="M345 227l2-2c0-2 3-1 4-2 0 0 3-1 0 1a10 10 0 01-1 1l-2 2h-1-2z" class="l"/><path d="M344 222l1 3 1-1 1-1h-1l-1-1a2 2 0 00-1-1v1zm0 0h1l2 1c2 0 0 1-1 1l-1 1-1-3z" class="n"/><path d="M344 222l1 3 1-1s2 0 1-1l-1-1h-1-1z" class="l"/><path d="M337 217l4-2 2-3c1-1 1-2-1-1a41 41 0 00-4 3l-1 2v1zm0 0c0-2 1-3 2-3l4-3a5 5 0 010 1l-2 3-4 2z" class="n"/><path d="M337 217l3-2c2 0 2-2 3-3 0 0 1-3-1-1a11 11 0 00-2 2l-1 1a3 3 0 00-1 1l-1 2z" class="l"/><path d="M346 229a20 20 0 00-3 1l-2 3a6 6 0 003-1l2-3zm0 0l-2 3a6 6 0 01-3 1l2-3a9 9 0 013-1z" class="h"/><path d="M346 229a18 18 0 00-2 0l-1 1a15 15 0 00-2 3h1a4 4 0 002-2l2-2z" class="i"/><path d="M359 230a23 23 0 000 3c2-1 1-2 5-2 0-1-4-2-5-1zm0 0c0-2 9 0 4 1-3 1-7 5-4-1z" class="h"/><path d="M359 230l-1 3 3-1c2-1 5 0 3-2h-5z" class="k"/><path d="M284 261c-5 4-8 5-4 11 1 2 5 7 8 3l6-6 3-3c6-4 6-7 1-12-2-3-4 0-7 2a30 30 0 00-7 5zm0 0l6-6c3-2 6-4 8-1 6 5 5 9 0 13l-3 3c-2 2-5 2-7 5-3 4-7 0-8-3-4-6-1-7 4-11z" class="n"/><path d="M284 261l-6 5c-2 4 7 15 10 9 1-3 5-3 7-7 1-1 12-5 4-14-2-1-3-3-6 0l-9 7z" class="l"/><path d="M284 261a11 11 0 01-1 0c1 6-1 4-2 2a12 12 0 00-3 3 3 3 0 000 2c3 4 8 9 9 5 0-3 7-4 5-6-4-5-5-8-5-10a18 18 0 00-3 4zm17-4c0 1-2 1-2 5 1 4-3 5-3 2 0-1-2-8-1-2 1 7-4 3-4 2l-3-7 5-3c3-3 4-1 6 0a14 14 0 012 3z" class="m"/><path d="M279 266l2-3 1 1c1 2 1 2 2 0a4 4 0 001-2c1 1 0 3-1 4-2 1-3-1-3-2a6 6 0 01-2 2zm2-2z" class="o"/><path d="M241 276c-4 4-7 5-4 11 2 2 6 7 8 3l7-6 3-2c5-5 6-8 1-13-3-3-5 0-8 2a31 31 0 00-7 5zm0 0l7-6c3-2 5-4 8-1 5 5 5 9-1 13l-3 3c-2 2-5 2-7 5-2 4-6 0-8-3-4-6-1-7 4-11z" class="n"/><path d="M241 276l-5 5c-2 4 6 15 9 9 2-3 6-3 8-7 1-1 11-5 3-14-1-1-2-2-6 0l-9 7z" class="l"/><path d="M241 276a11 11 0 01-1 1c2 5-1 3-2 1a13 13 0 00-2 3 3 3 0 000 2c2 4 8 9 8 5 0-3 7-4 5-6-4-5-4-8-4-9a18 18 0 00-4 3zm17-4c0 1-2 1-1 6 0 3-4 4-4 1 0-1-2-8-1-2 1 7-3 3-3 2s-3-3-4-7l5-3c4-2 5-1 6 0a14 14 0 012 3z" class="m"/><path d="M237 281l2-3 1 2c1 1 1 1 2-1a4 4 0 000-2c1 1 0 3-1 4s-2 0-3-1l-2 1zm2-2z" class="o"/><path d="M313 254c-6 5-7 6-11 1-3-2-4-3-1-7 0-2 5-6 6-6 2-1 7 1 10 1 2 0 3 3 2 6l-6 5zm0 0a39 39 0 005-4c3-3 2-8-1-8s-7-2-10-1l-7 7c-2 4-1 5 1 8 5 4 6 4 12-2z" class="n"/><path d="M313 254c-3 3-4 5-8 4-1 0-7-5-6-7 2-6 2-4 7-9 3-2 8 1 11 1 1-1 2 1 3 2 1 4-4 7-7 9z" class="l"/><path d="M304 258c-3-2-6-5-5-7 2-6 2-4 7-9a3 3 0 012-1c1 1 2 3 4 1a17 17 0 005 1c2 7-3 5-5 8-1 3-4 1-5 5l-3 2zm-1-9c-4 2 1 5 0 2l1-2h-1z" class="m"/><path d="M303 247c0-2 2-5 4-5s1 2 3 2l2-1c-2 1-3 2-4 1s-5 2-5 3z" class="o"/><path d="M392 226c-5 4-7 5-11 1-3-3-3-4-1-8l7-6c2-1 7 1 10 1 1 0 3 3 1 6l-6 6zm0 0a39 39 0 005-5c3-3 2-7 0-7l-10-2c-2 1-7 5-7 7-3 4-2 5 1 8 4 4 6 4 11-1z" class="n"/><path d="M392 226c-3 2-4 4-7 4-2-1-8-6-7-8 3-6 2-4 8-9 2-2 7 1 11 1l2 2c1 4-3 7-7 10z" class="l"/><path d="M383 229c-2-2-5-5-5-7 3-6 2-4 8-9a3 3 0 011-1c1 1 3 3 4 2l1-1a17 17 0 005 1c1 7-4 5-5 8-2 3-4 1-6 5a3 3 0 01-3 2zm-1-9c-3 2 1 5 0 2l2-2h-2z" class="m"/><path d="M382 218c0-2 2-5 4-5s2 2 3 2l2-1c-1 1-3 2-4 1s-4 2-5 3z" class="o"/><path d="M327 225c-4 4-13 7-8 15 2 3 5 5 8 2 3-4 17-12 18-16 0-1-4-13-11-7l-7 6zm0 0a81 81 0 017-7c6-5 11 5 11 8 0 4-15 12-18 16-4 4-9-2-10-6 0-5 7-8 10-11z" class="n"/><path d="M327 225l-9 8c-2 7 6 13 9 9s19-13 18-16c-1-4-5-12-10-8l-8 7z" class="l"/><path d="M321 236c3-5 10-7 3-2 0 0-3 5-3 3v-1zm6-11l-9 8a8 8 0 002 8 3 3 0 004 0l4-4c5-3 5-6 7-11 1-4 7-6 5-4-3 3-7 6-4 10 1 1 7-5 9-7-2-4-6-11-10-7l-8 7z" class="m"/><path d="M329 235l3-7c1-3 3-6 6-6a5 5 0 001-1l-1 1-4 5c-2 4-1 5-5 8z" class="o"/><path d="M307 225c2-4 4-5 7-8 1-2 10-11 12-10l6 6c3 2 0 4-3 7l-8 9c-5 3-8 7-13 2-2-3-3-3-1-6zm0 0c-2 3-1 3 2 7 5 3 8-1 11-4l9-9c3-2 6-4 3-6-2-1-4-5-6-5-2-1-9 6-11 8-2 3-6 5-8 9z" class="e"/><path d="M307 225c1-3 3-4 6-7 2-2 11-11 13-11l6 6c1 1 2 2 0 4-3 3-8 9-12 11-2 2-6 8-11 4l-2-3c-1-1-2-2 0-4z" class="k"/><path d="M307 225c1-3 3-4 6-7 2-2 11-11 13-11l6 6a2 2 0 011 1 40 40 0 01-4 5l-2 1-1 1c-1 1-3 0-3-2l1-2c1-2 0 0 0 0l2-2 1-2 1-1h-1a7 7 0 01-2 3l-4 3-1 4-5 6c-1 1-4 3-7 3l-1-2c-1-1-2-2 0-4z" class="g"/><path d="M307 228c-1-2 2-4 4-6l5-8a17 17 0 017-3 3 3 0 011 0l-3 1c-4 2-6 5-9 9l-5 7z" class="p"/><path d="M306 285c1 1 7 5 5 8-4 4-20 18-24 14-1-1-4-4-3-6l20-17a9 9 0 012 1zm0 0a5 5 0 00-2-1c-3 2-19 14-21 17 0 2 3 5 4 6 4 5 20-10 24-14 3-3-4-7-5-8z" class="e"/><path d="M306 285c2 1 7 6 5 8-4 4-20 19-24 14-5-6-6-5 5-14l12-9a7 7 0 012 1z" class="l"/><path d="M306 285l1 1a1 1 0 010 1c-3 2 3 3-4 4-4 6-5 5-10 6-2 1 0 8 3 2l3-3c2-1 0 3-1 5-1 1 0 2 1 2-5 4-10 6-12 4-4-5-5-5-1-9 1 1 1 2 2-1a2 2 0 001-1l3-3 12-9a7 7 0 012 1zm4 3c-2 0-3 0-4 2 0 3-3 3-2 3 4 4 4 2 2 5l5-5c1-1 0-3-1-5z" class="m"/><path d="M284 303c1-6 2-3 4-5l2-3a57 57 0 019-6l-9 8-2 2c-2 2-1-1-4 4z" class="o"/><path d="M324 282c-1-3-5-10-9-9-3 1-2 3-5 4s-4 2-3 5c3 8 11 8 16 2zm0 0l-1 2c-5 7-13 6-16-1-1-4 0-4 3-6s2-5 6-4 7 5 8 9z" class="h"/><path d="M324 282c0-4-9-14-12-7-2 4-8 2-3 10 4 7 12 3 15-3z" class="i"/><path d="M319 275c-2-2-5-3-7 0s-7 2-4 8c1-1 1-3 5 2 2 2-2 1-4 1a7 7 0 005 3 4 4 0 002-5c-1-3 5-5 3-9z" class="j"/><path d="M315 285a10 10 0 013-6v-4l1 1c0 3-1 4-2 5l-2 4z" class="q"/><path d="M347 262c-1-2-4-10-8-7l-11 8-5 5c-2 3-4 3-1 7 1 1 3 4 5 4l5-4c3-2 6-4 8-8l7-5zm0 0l-7 5c-2 4-5 6-8 8-2 1-4 4-6 4s-5-4-5-6c-2-3-1-3 1-5l6-5 11-8c4-3 7 5 8 7z" class="h"/><path d="M347 262c-1-2-5-10-8-7l-11 8-6 5c-1 2-4 2 0 7 3 4 4 6 8 2 2-2 9-6 10-10l7-5z" class="i"/><path d="M345 258c-2-3-4-5-6-3l-11 8-6 5c-1 2-4 2 0 7l2 2 3-1c1-4 9-8 9-9 0-2 1-2-2-2h-5c-4-1 9-1 10-3 0-5 4-3 6-4z" class="j"/><path d="M333 262h4c1-1 3-5 5-4-3 1-2 3-4 4h-5z" class="q"/><path d="M368 234l7 4s8-4 7-6c0-2-4-8-6-7-2 0-12 5-8 9zm0 0c-5-3 4-9 7-10s7 6 8 8-5 5-8 6c-2 1-5-4-7-4z" class="h"/><path d="M368 234l4 3c1 0 2 2 3 1l8-5-3-6c-1-1-3-3-5-2-7 3-10 7-7 9z" class="i"/><path d="M381 231l-2-3c0-1-2-4-4-3-6 3-9 6-7 8l4 3c1 2 7-2 6-4 0 0 0-2 1 0 1 1 2 0 2-1z" class="j"/><path d="M370 231c-1-1 2-3 3-4a8 8 0 014-1l-3 2-4 3z" class="q"/><path d="M371 209c1 1 7 7 5 9s-1 3-5 6l-5 4c-2 2-4 2-6 1-8 0-8-6-2-10l10-7a12 12 0 002-3zm0 0h-1a14 14 0 01-2 3l-10 7c-6 4-6 10 2 11l6-1 6-5 4-6c2-2-3-7-5-9z" class="e"/><path d="M371 209c1 1 7 7 5 9-2 1-1 3-6 7s-3 5-10 5c-6-1-8-5-4-9 3-3 7-4 11-9l3-3z" class="k"/><path d="M371 209l5 7-2-1-4 5c-1 3-5 3-5 6-1 7-10-1-10-2 1-5 3-4 4-5 2-2 5-3 8-7l3-3z" class="g"/><path d="M356 224c0-5 1-2 3-3 0-1 0-2 2-3a47 47 0 018-6l-9 8-1 1c-2 2-2-1-3 3z" class="p"/><path d="M285 241l-5 5c-1 1-6 3-5 6l1 3c0 2 4 5 5 5 6-1 7-5 10-8a69 69 0 019-7c1-1 5-4 4-6l-7-7c-2-1-5 2-6 4a53 53 0 00-6 5zm0 0a42 42 0 016-5c1-2 4-5 7-4l7 7c1 2-4 6-5 7a74 74 0 00-8 6c-4 4-5 7-11 8-2 1-5-3-5-5l-1-3c-1-3 3-5 5-6l5-5z" class="h"/><path d="M285 241l-3 4-3 2c-3 2-6 3-4 7l3 4c2 2 2 2 5 1 4-1 5-4 8-7l9-7a23 23 0 004-4c2-2-1-3-2-4l-2-2c-3-4-3-4-8-1l-7 7z" class="i"/><path d="M280 246a14 14 0 00-1 1c-3 2-6 3-4 7 2 1 4 2 5 1 3-2 6-3 7-6l1-4c1-2 2-3 4-3 3-1 5-6 7-9-2-2-3-2-7 1l-4 4c-1 4-1 5-7 8h-1zm23-4a6 6 0 01-2 1c-7 1-8 6-12 10-1 1-7 5-9 3 3-3 4-1 8-5s-1-3 6-9c2-2 4-6 7-7l1 2c1 1 4 2 2 4z" class="j"/><path d="M298 234c-2-2-2-2-4 0l-5 6a17 17 0 01-5 4l4-4 4-5c2-2 5-5 6-1z" class="q"/><path d="M259 298c1-3 1-3 4-5 2-1 6-4 5-6l-1-3c0-1-3-5-5-5-5 1-6 4-10 8a68 68 0 01-9 7c-1 0-5 4-4 5l7 8c2 1 5-3 7-4a53 53 0 006-5zm0 0a42 42 0 01-6 5c-2 2-5 5-7 4l-8-8c-1-2 4-5 5-6a74 74 0 009-6c3-4 4-7 10-8 2-1 6 3 6 5l1 3c0 2-4 5-6 6-3 2-3 2-4 5z" class="h"/><path d="M259 298l2-4 4-2c2-2 5-3 3-7-1-1 1-1-3-4-2-3-2-3-5-2-4 2-5 5-8 8l-9 6a22 22 0 00-4 5c-2 1 1 3 2 4l2 2c3 4 4 4 8 0l8-6z" class="i"/><path d="M263 293a13 13 0 002-1c2-2 5-3 3-7-2-1-4-2-5-1-3 2-6 3-7 6l-1 3c-1 1-2 4-4 4-3 1-4 6-7 8 2 3 3 3 7-1l4-3c1-4 2-6 7-8h1zm-23 3a6 6 0 012-1c7-1 8-5 12-9 1-1 8-5 9-3-3 3-4 1-8 5s1 3-6 9l-6 7-2-2c-1-1-4-3-2-5l1-1z" class="j"/><path d="M245 305c2 1 3 2 4-1l6-6a17 17 0 014-3l-4 4-4 5c-2 2-4 5-6 1z" class="q"/><path d="M296 269c-3 4-4 4-8 7s-2 6 0 10c2 2 5 5 8 2l2-1c4-3 6-3 8-8 1-3 8-7 7-8-4-12-10-6-17-2zm0 0c7-4 13-10 18 2 0 2-7 5-8 8-2 5-3 6-8 8l-2 2c-3 3-6 0-8-3-3-4-3-7 0-10l8-7z" class="e"/><path d="M296 269c-5 7-12 7-10 13 2 4 6 11 11 6 0-1 7-3 9-9 0-2 8-7 7-8-4-13-11-6-16-2a4 4 0 00-1 0z" class="k"/><path d="M295 270v1a28 28 0 012 8 20 20 0 010 4l-1-4a19 19 0 00-2-7c-5 5-10 5-8 10 5 11 13 8 13-3 0-3-3-7 1-5l7 3 3-2c-3 1-5-6-8-8-2-1-5 4-7 3zm8 14c-2-3-2-8 3-4a9 9 0 01-3 4zm3-20c6 1 7 7 4 7-5-1-7-4-7-6a10 10 0 013-1z" class="g"/><path d="M286 281c-2-1 3-4 3-5a23 23 0 003-2c0-1 1-3 3-3l-3 3c-1 3-3 4-5 5l-1 2z" class="p"/><path d="M292 290l1-12c1-3 0-3-1-5a6 6 0 012 4v3c1 4 3 2 4 6-2-4-3-2-4-4 0 3 3 2 3 5-1-3-4-3-3-6 0-1 0-4-1-3l-1 12zm0-17zm0 0z" class="k"/><path d="M369 236l4 5c-1 3-10 9-13 12-2 2-6 9-10 5-3-3-2-2 0-7l3-10c3-2 9-8 13-7a5 5 0 013 2zm0 0l-4-2c-4 0-12 6-13 9l-4 12 3 4c4 2 8-4 10-6 2-3 11-9 12-12 0-2-4-4-4-5z" class="e"/><path d="M369 236c0 1 4 3 4 5l-8 8-6 6c-3 3-7 6-9 3-2-2-3-1-1-6l4-11c4-2 11-10 16-5z" class="k"/><path d="M348 255a14 14 0 011-3l4-11c3-2 9-8 14-7 2 3 3 3-2 9-3 4-3 2-7 6l-9 6z" class="g"/><path d="M351 249c0-4 7-14 12-14l1 1h-1c-5 1-10 9-12 13z" class="p"/><path d="M351 246l7 2c3-1 8 4 3 1-2-2-4 0-6-1-4-1-3-2-1 3l-2-4-1-1zM336 215c-2-3-5-4-6-7-3-4 1-5 4-8 2-2 13-13 14-12l6 5c1 1 4 4 2 6l-11 8c0 1-8 9-9 8zm0 0c1 1 8-7 9-8l10-8c3-2 0-5-2-6l-5-4c-1-1-11 9-13 10-4 5-9 5-4 11l5 5z" class="e"/><path d="M336 215l-6-7c-2-3 0-4 3-7l9-8 6-5 5 5c2 1 5 4 3 6a175 175 0 00-14 11l-6 5z" class="k"/><path d="M333 202v-1l9-8 6-5a9 9 0 012 2v2c3 1 3 1 4 4 1 4-2 4-3 3-3-3-3 2-4 5l-10 8c-2 1-3 0-5-2-3-3-1-4-1-5l2-3zm2 3a8 8 0 011-2v-1a1 1 0 01-1 0c-1 0-3 7 0 3zm14-6c0 1-2 2 0 3 0 0 2-1 1-2l-1-1z" class="g"/><path d="M338 198c-1-1 8-6 9-7l-1 1c-2 3-5 4-8 6z" class="p"/><path d="M333 212a6 6 0 000-2c0-3 3-4 3-5v1s-2 1-2 3l-1 3c-1 0 1 0 0 0z" class="k"/><path d="M269 330l-7-7c-2-4 2-5 5-8 2-1 12-13 14-12l5 5c2 1 5 4 2 6l-10 8-9 8zm0 0c1 1 8-7 9-8l10-8c2-2 0-4-2-6l-5-4c-1-1-11 9-13 11-5 4-9 4-4 10l5 5z" class="e"/><path d="M269 330c-2-2-5-3-6-7s0-4 3-7l8-8c2-1 6-5 7-4l5 4c2 1 5 4 2 6a175 175 0 00-13 12l-6 4z" class="k"/><path d="M265 317l1-1 8-8c2-1 6-5 7-4a8 8 0 011 1l1 2c3 1 3 1 4 4 1 4-2 4-3 3-4-3-4 2-4 5l-10 8c-3 1-3 0-5-2-3-3-1-4-2-5s2-2 2-3zm3 3a8 8 0 011-2v-1a1 1 0 01-2 0s-3 7 1 3zm14-6c0 1-3 2-1 3 1 1 3 0 2-2l-1-1z" class="g"/><path d="M271 313c-1-1 8-6 9-7l-1 1-8 6z" class="p"/><path d="M266 327a6 6 0 000-2c0-2 3-4 3-5v1c-1 0-3 1-2 3l-1 3s0 1 0 0zM351 246l7 2c3-1 8 4 3 1-2-2-4 0-6-1-4-1-3-2-1 3l-2-4h-1v-1z" class="k"/><path fill="#ffe161" d="M897 292c2-4 10-3 20-3l28-1 24 3h64c2-1 5-2 8 0s2 6 2 7c0 15 3 30 1 45 0 9-2 32 0 53 1 10-2 21 0 31 0 2 1 5-1 7-3 3-10 1-15 0l-42-1c-18 0-18 2-30 1-15-1-16-4-26-4-16 1-24 9-29 5-3-3-3-7-3-12l1-43c2-18 0-14 1-39 1-13 2-24-1-32l-2-13v-4z"/><path d="M971 435a2 2 0 01-2-2h-1v-3-4a3 3 0 010-1l-1-5 1 1a7 7 0 000-2 2 2 0 001 1 2 2 0 001-1h-3l1-3v-2l1-2a30 30 0 00-1-4h-1v-1a2 2 0 011-1v-4l-1-2v-1a3 3 0 011-2 2 2 0 010-1 41 41 0 01-1-7l-1-4-1-6 3 4v-3a2 2 0 010-1 5 5 0 01-1 0v-1-6l1-2v-1-1a2 2 0 010-1v-2l-1-5a1 1 0 010-2 2 2 0 011 0v-1l-1-2v-1a1 1 0 010-2v-2-1a1 1 0 010-2l1-3a2 2 0 01-1-1 10 10 0 00-2-5l3-1a2 2 0 00-1 0 4 4 0 011 0c-2-3-2-5-1-6l1-4a22 22 0 01-1-3v-1l-1-3v-3a3 3 0 011-2v-1l-6 4 5-6v-6a21 21 0 010-4v-1a28 28 0 000-4v-6a16 16 0 00-1-4l4-1a19 19 0 011 5v5a28 28 0 010 4 1 1 0 010 1 14 14 0 000 4v1a14 14 0 000 3 7 7 0 010 3 14 14 0 011 3v4h-1v3h1v1l1 4 1 3h-2a6 6 0 000 1h1v1a2 2 0 01-2 1 10 10 0 002 4l-1 1v4a30 30 0 010 6 14 14 0 000 2 29 29 0 010 5v1l1 1v3h-1l1 7a2 2 0 010 1l-1 5v5l1 2a2 2 0 010 1v4l-1 2a3 3 0 01-1 0l1 1a61 61 0 001 7 2 2 0 011 1v4l-1-1a2 2 0 01-1 0v9l1 2v4a5 5 0 010 1 2 2 0 01-1 2v1l1 4a18 18 0 011 5h-1v6a2 2 0 01-1 1zm-1-37h-1a2 2 0 001 1 2 2 0 001-1 1 1 0 00-1 0zm-3 1h1a2 2 0 010-1 2 2 0 00-1 1zm3-76zm-4-17z" class="s"/><path d="M958 435a24 24 0 010-2 2 2 0 011-2v-5c-1-3-2-5-1-7a12 12 0 010-4v-3-3-3a2 2 0 01-1-2 2 2 0 011-1l-1-6-1-1h1a8 8 0 010-3 3 3 0 010-1 7 7 0 010-1 1 1 0 010-1v-5-1a2 2 0 010-1v-7a4 4 0 011-2v-3a3 3 0 01-1 0v-1l1-3v-1c-2-5-2-8-1-10v-4l-1-5v-4-1a8 8 0 010-1v-7a2 2 0 010-1 2 2 0 010-1v-1a16 16 0 000-3 11 11 0 01-1-5 4 4 0 010-1v-3-3a8 8 0 010-3 2 2 0 011-2l-1-8v-2a2 2 0 011-1l-1-6v-3l3-2 1 2 1 12v7l1 2 4 8-5-5v1-1l-1-1a29 29 0 000 4v3a4 4 0 010 1 11 11 0 000 4l1 5v2a6 6 0 010 2l1 7-2-2a4 4 0 011 3h-1l1 3v4a2 2 0 001 1v1a1 1 0 010 1 2 2 0 01-1 1l1 1v4l-1 1a18 18 0 002 5l1 10-1-1a7 7 0 010 2l-1 4v-1 13a4 4 0 010 1 6 6 0 000 3 3 3 0 010 1l1 6v3h1l-1 1-1 3a22 22 0 011 5c-1 2-1 3 1 5l4 7-5-4 2 6h-2l1 5h-1v1zm0-59zm2 0h-1a3 3 0 001 0zm-4-34zM950 433a2 2 0 01-1 0h-1v-1a1 1 0 010-2v-3a3 3 0 010-2l-2-7h1a1 1 0 010-1v-2-2l-1-1a1 1 0 011 0v-1a15 15 0 010-5 30 30 0 001-4 1 1 0 010-2v-4h-1-1l2-2a31 31 0 00-1-6 2 2 0 01-1-1 8 8 0 010-1v-2l-1-5h1v-2-3a16 16 0 00-1-7h1v-1a13 13 0 010-2l1-3a11 11 0 00-1-5 2 2 0 01-1-1v-2a2 2 0 011-2v-1a2 2 0 010-2v-3a6 6 0 010-3v-1h-1v-3a4 4 0 010-1 5 5 0 000-3 3 3 0 010-3 7 7 0 001-4 5 5 0 01-1-2 12 12 0 000-2h2v-4-1l-3-9-5-9h1l4 4a2 2 0 011-2 27 27 0 010-8v-9h1l1 2 2 1 1 1h-1l1 3-1 2v1a24 24 0 000 6 4 4 0 011 2 13 13 0 010 3l1 9h-1v-1a58 58 0 011 5l2 4h-1l-2-1a5 5 0 011 2h-1a2 2 0 01-1 1v1h1a9 9 0 01-1 6 3 3 0 000 1 8 8 0 010 4 2 2 0 000 1 19 19 0 011 4l2 7-1-1h-1l1 3h-1v4a13 13 0 011 7 20 20 0 000 2h-1v1a15 15 0 001 2v1h-2v1a19 19 0 011 2v4a43 43 0 010 7v1a3 3 0 010 2 2 2 0 010 1 34 34 0 011 4v5l1 2v3a1 1 0 010 2h-1a31 31 0 010 3v1a3 3 0 011 0v2a5 5 0 01-1 0l-1 4v1l1 1v6l1 6v1a40 40 0 000 4h1l-1 2zm-5-130zm3-14v1a2 2 0 001-1z" class="s"/><path d="M939 432a3 3 0 01-3-1h1l1-1a3 3 0 011-1l-1-1a16 16 0 010-3 21 21 0 01-1-5v-4a2 2 0 010-1 12 12 0 010-6v-3a1 1 0 010-2v-3a3 3 0 010-1v-1a20 20 0 01-1-4v-2l-1-4h1l-1-1v-1h2v-3-1a2 2 0 01-1-1l1-3v-1a5 5 0 010-2v-2-3l1-1-1-2v1l-1-5v-1a4 4 0 01-1-2l-1-5v-1h1l1 3h1v-1l-1-2v-4-9l-1-1a5 5 0 01-1-2v-1h1l-1-2a2 2 0 010-1h1a8 8 0 000-2v-1h2v-1h-2v-1-1a2 2 0 010-1v-2-1a1 1 0 010-1v-1-3a2 2 0 011-2 5 5 0 010-1v-1a25 25 0 000-6l-1-2a2 2 0 010-2h1a10 10 0 010-1 4 4 0 000-3l-1-2a2 2 0 011-1 17 17 0 01-1-4v-2a3 3 0 01-1-1 16 16 0 01-1-2l-1-3 1-1 3 3a3 3 0 011 0h1l1 1a13 13 0 010 1 4 4 0 01-1 1l1 2 1 5v1a2 2 0 01-1 1 6 6 0 010 4 3 3 0 001 3h-1v1h1a27 27 0 010 7v1a5 5 0 010 1l-1 1v3a30 30 0 010 4v6l-1 4 1 1v2a20 20 0 011 5v1h-1l1 2a23 23 0 010 5v1a32 32 0 002 5l1 1v1h-3v2a39 39 0 012 8v5h-1a10 10 0 010 2 6 6 0 000 2l1 1-1 1a2 2 0 010 1v1a36 36 0 001 5l2 7h-1l-2-3v4a14 14 0 001 4h-1v4a17 17 0 010 4v1a12 12 0 001 6v1a2 2 0 01-1 2 20 20 0 001 5 4 4 0 011 2h-1a40 40 0 001 5h-1v1a3 3 0 01-2 1zm1-6a2 2 0 001-1zm-2-49a2 2 0 001 0 2 2 0 001 0zm0-59a2 2 0 011 0zM928 430h-2a3 3 0 011-3 16 16 0 010-2 6 6 0 00-1-3l4-1a2 2 0 00-2-1 2 2 0 00-1 1 4 4 0 000-1h-2l1-2 1-6a16 16 0 010-2v-1l-1-3a34 34 0 010-6 5 5 0 000-1 2 2 0 002 0 2 2 0 001-1h-3a11 11 0 000-3l1-2a16 16 0 00-2-4 2 2 0 011-2v-1a12 12 0 01-2-3l3-1a22 22 0 00-1-5 2 2 0 01-1-1 34 34 0 010-3 1 1 0 010-2v-4 1a6 6 0 011-2 2 2 0 000-1 1 1 0 01-1-1l1-6a4 4 0 010-3 16 16 0 00-1-6 21 21 0 01-1-3h2a10 10 0 010-2 21 21 0 00-1-6h-1v-2-1a5 5 0 011-3 15 15 0 010-2 13 13 0 010-4 3 3 0 011-2 21 21 0 00-1-5 1 1 0 010-1l-2-5 2 2a10 10 0 010-4v-2-2a7 7 0 010-2 4 4 0 010-2 33 33 0 010-5v-1l-1-3a49 49 0 010-6h1a9 9 0 000-1l3-1v8l1 3v4-1 8l1 4-1 1v4a2 2 0 010 1 11 11 0 010 3v6a2 2 0 010 1 16 16 0 000 3 4 4 0 010 1h1v1a2 2 0 01-2 1v4a23 23 0 011 6h1v1c0 1 1 4-1 5a33 33 0 010 7 3 3 0 000 1h1l-1 1v5a4 4 0 010 3 5 5 0 000 3 4 4 0 010 4v1a20 20 0 012 6l-1 4a3 3 0 010 1 3 3 0 01-1 2 15 15 0 011 4v5a9 9 0 010 1 4 4 0 010 1 14 14 0 010 2 2 2 0 010 2v4a1 1 0 011 0v2a10 10 0 000 3l3 6-4-3v7a8 8 0 011 3 12 12 0 000 3l2 8zm-1-67a2 2 0 00-1 1l2-1a3 3 0 00-1 0zm0-75h-1zM920 428v2c0 1 1 4-1 5a3 3 0 01-2 0 2 2 0 01-2-1l1-1h1a9 9 0 00-1-4l-5-10 5 5a2 2 0 011-1v-1l-1-2a14 14 0 00-1-4 1 1 0 010-1h1l1-1h-1a2 2 0 00-1 1v-1a7 7 0 010-2v-1l-4 2v-1l6-4a10 10 0 001-3 36 36 0 00-2-5 12 12 0 01-1-2h1a5 5 0 000-1 3 3 0 010-1 11 11 0 000-3v-3l-1-2 1-6v-3-2a5 5 0 010-2l-1-2v-2a1 1 0 010-1 4 4 0 010-3 2 2 0 010-2 1 1 0 011-1l-1-2v-3-4a2 2 0 010-1v-1-2a3 3 0 010-2 2 2 0 011-2v-2l-1-5h1v-1l-1-3a1 1 0 010-1 67 67 0 01-1-5h2v-1h-1a2 2 0 00-1 1 3 3 0 011-2 6 6 0 011-3 15 15 0 00-2-4l-2-2h3a39 39 0 00-1-6 1 1 0 010-2v-1h1l-1-6h-1a1 1 0 011-2 5 5 0 011-3 2 2 0 000-2 4 4 0 010-1l-1-3v-2a2 2 0 003-1h-3a2 2 0 011-1 2 2 0 012 1l1 2v2l1 2a4 4 0 01-1 4l1 4h-1a2 2 0 00-1 0l1 5v12a15 15 0 011 2v4a5 5 0 000 1v1h-2v1-1 1h1a3 3 0 010 1v2a33 33 0 011 5v5-1 6a1 1 0 010 1l2 8v0l-2-1v6a49 49 0 001 5l-2 1 1 1v8l1 5a1 1 0 010 1 1 1 0 01-1 1 7 7 0 000 3 27 27 0 010 3l1 2a13 13 0 010 4 16 16 0 010 2 4 4 0 010 2l1 3v4a9 9 0 01-1 2 11 11 0 01-1 3l-1 3a15 15 0 012 4 23 23 0 001 5l4 9v1l-4-5-1-1zm-2 5a2 2 0 00-1 0h2a2 2 0 00-1 0zm-2-36a2 2 0 002 0 2 2 0 002 0z" class="s"/><path d="M909 428a2 2 0 01-2-2v-2-1l-1-4v-2a4 4 0 01-1-1h1v-1a3 3 0 01-1 0v-2a3 3 0 011 0v-1a13 13 0 00-1-5 1 1 0 01-1 0l4-2a2 2 0 00-1 0 2 2 0 00-1 1 6 6 0 000-1 5 5 0 010-1v-3a10 10 0 000-3 15 15 0 010-2v-1h1v-2a3 3 0 01-1-1v-2l-2-5v-1l1-1v-3l-1-4v-1l-2-5 3 2-1-6v-3-1l-2-2h3a2 2 0 010-1 2 2 0 010-1 4 4 0 011-1v-4a103 103 0 01-1-6 2 2 0 010-1v-4a14 14 0 010-3 17 17 0 00-2-5l-2-8 3 3a5 5 0 010-1 1 1 0 011 0 26 26 0 00-1-3v-1a3 3 0 01-1-1l-1-3 1-1 2 1v-1a20 20 0 00-2-7v-1h2l-1-2a31 31 0 010-4v-4-2a6 6 0 010-3 8 8 0 010-4 6 6 0 000-2c-1-3-1-5 1-5a2 2 0 013 1v2a1 1 0 010 1 1 1 0 010 1 9 9 0 010 1 6 6 0 000 5l4 6h-1l-3-2a11 11 0 010 2v4a2 2 0 010 2v2l1 3a2 2 0 01-1 1v1a19 19 0 011 3 9 9 0 000 3v1h-1v1a17 17 0 011 3v4a2 2 0 01-1 1h1a5 5 0 00-1 1 3 3 0 010 2v1a19 19 0 010 4 9 9 0 001 4l-1 1a19 19 0 001 3 65 65 0 002 7l2 5h-1l-2-2v1h-1a6 6 0 010 1 4 4 0 010 4 8 8 0 010 2 2 2 0 010 1v1l1 6v1a1 1 0 01-1 1 3 3 0 01-1 2l1 3v2l1 3h-1l1 5v1h1v3l-1 3a12 12 0 010 4 11 11 0 001 2v1l-1 1a7 7 0 01-1 2 15 15 0 011 4v3a6 6 0 010 2v2l1 4v2a1 1 0 010 1v1a2 2 0 01-1 2zm-2-13h-1 1zm1-13h1zm-2 0h0zm2-7zm0-4h1a2 2 0 00-1 0zm-2-43a2 2 0 001 0 2 2 0 000-1zm1-19a2 2 0 00-1 0v1h1a2 2 0 001-1 2 2 0 00-1 0zm-2-40h-1a2 2 0 000 1l1-1zm2-2a1 1 0 000 1v-1zM1033 437v-2a2 2 0 011-2l-1-1 1-4c-2-4-2-6-1-8a12 12 0 010-4v-2a1 1 0 01-1-1v-3l1-2a2 2 0 01-2-3 2 2 0 012-1l-1-5-1-2h1a8 8 0 010-2 3 3 0 010-1 9 9 0 010-2v-4-1-1a2 2 0 010-2v-6a1 1 0 010-1 4 4 0 011-2v-2a3 3 0 01-1-1h-1v-1l2-2v-1c-2-5-2-9-2-11l1-3-1-6-1-3a5 5 0 000-1 8 8 0 011-1c-2-5-1-7-1-8a2 2 0 011-1v-1a17 17 0 000-3v-1a11 11 0 01-1-5 4 4 0 010-1h-1 1a2 2 0 010-1v-2-2a8 8 0 010-3 2 2 0 011-2l-1-9v-1a2 2 0 011-1l-1-6a2 2 0 000-1v-2l3-3v3l2 12v6l1 2 4 9-5-5-1-1a29 29 0 000 4v3a4 4 0 010 1 11 11 0 000 4l1 4v2a6 6 0 010 2v7l-1-2v1a4 4 0 011 2h-1l1 4v4a2 2 0 001 1 1 1 0 010 2 3 3 0 01-1 0v6a18 18 0 001 5h1l1 11-1-2a7 7 0 010 2l-1 4v13a6 6 0 000 3 3 3 0 010 1l1 7v2l1 1h-1a2 2 0 01-1 1v2a22 22 0 010 5l1 6 5 7-6-4 2 5-1 1 1 4-2 1 1 1zm0-59v-1a3 3 0 000 1zm1-1zm-3-33zM1023 434a2 2 0 01-1-1l-1 1a14 14 0 010-2 1 1 0 010-1v-4a3 3 0 010-2l-2-6 1-1a1 1 0 010-1v-2-2a1 1 0 010-1 15 15 0 011-5v-1a28 28 0 000-4 1 1 0 010-1v-1-4l-2 1 2-3a31 31 0 00-1-6 2 2 0 01-1-1v-1-1l-1-7 2 2v-3l-1-2v-1l-1-6 2-1v-1a14 14 0 01-1-1l1-3a2 2 0 010-1 11 11 0 00-1-4 2 2 0 010-2 19 19 0 010-2 2 2 0 010-2v-1a2 2 0 011-2 28 28 0 01-1-3 5 5 0 010-3v-1h-1v-3a4 4 0 010-1 6 6 0 001-3v-2a7 7 0 000-4 5 5 0 010-3 11 11 0 00-1-2h2v-4-1l-3-9-5-10 5 6a1 1 0 010-1 2 2 0 011-2 27 27 0 010-8v-9l2 3c1 0 2-1 2 1h1-1v1l1 2-1 3a25 25 0 000 6 4 4 0 011 2 12 12 0 010 3l1 10-1-2v4l1 1 2 4-3-1a5 5 0 011 2l-1 1a2 2 0 01-1 1v1a9 9 0 010 5v2a8 8 0 010 3 2 2 0 000 2v1a25 25 0 011 2l2 8-2-2 1 3h-1v4a14 14 0 011 7 19 19 0 000 3h-1a16 16 0 001 2 2 2 0 010 1l-2 1a18 18 0 011 2v5a42 42 0 010 7v3a33 33 0 011 4v7l1 3a1 1 0 01-1 2 30 30 0 010 4 3 3 0 011 1v1a4 4 0 01-1 1 36 36 0 00-1 3v2l1 5v1l1 7h-1a37 37 0 001 5v2zm-6-130h1v-1a2 2 0 00-1 1zm3-14h1a2 2 0 001-1z" class="s"/><path d="M1012 437a3 3 0 01-3-2h2a3 3 0 011-2l-1-1a15 15 0 010-2 21 21 0 01-1-5v-4a2 2 0 010-2 12 12 0 010-5v-3l-1-1a1 1 0 011-1v-3a3 3 0 010-2 20 20 0 01-1-4v-1-2l-1-4 1 1-1-1v-1l2-1v-3a2 2 0 01-1-1l1-4a5 5 0 010-2v-2l1-4-1-2-1-5a3 3 0 01-1-2l-1-7 2 4a3 3 0 011-1l-1-2v-5-8l-1-1a4 4 0 01-1-2v-1h1l-1-3h1a7 7 0 000-3l2-1h-1-1a14 14 0 000-1v-1a2 2 0 010-1v-2-1a1 1 0 010-2v-3a2 2 0 011-2v-1-1a26 26 0 000-6l-1-2a2 2 0 010-2 7 7 0 011-2 4 4 0 000-2l-1-3a2 2 0 011 0 15 15 0 01-1-5l-1-1a3 3 0 010-1 15 15 0 01-1-2l-1-4 4 2a3 3 0 011 1h1a12 12 0 010 2 5 5 0 010 1v2l2 4v1a2 2 0 01-1 1v1a6 6 0 010 4 3 3 0 001 3h-1v1a27 27 0 011 6v2h-1v2a2 2 0 010 1v2a30 30 0 010 4v6l-1 4v1l1 2v1l1 4-1 1v2a23 23 0 011 5v1a32 32 0 001 5l2 2h-4v1a40 40 0 012 9v1l1 4-1-1a11 11 0 010 3 6 6 0 000 2v1l-1 1a2 2 0 010 1v1a37 37 0 002 5l2 8-4-4 1 1-1 3a14 14 0 002 4l-1 1v3a17 17 0 010 4v1a11 11 0 000 6h1l-1 1a2 2 0 01-1 2 20 20 0 002 5 3 3 0 010 2 37 37 0 001 5l-2 1a3 3 0 01-2 1zm1-6a2 2 0 001-1zm-2-49a2 2 0 001 0 3 3 0 001 0zm0-60a2 2 0 011 1 2 2 0 000-1zM1001 434l-2 1a3 3 0 011-3 16 16 0 010-3 6 6 0 000-3l3-1a2 2 0 00-2 0 2 2 0 00-1 1 4 4 0 000-2l-1 1v-2-1l1-6a16 16 0 010-2v-1l-1-3a34 34 0 010-6 5 5 0 000-1 2 2 0 002 1 2 2 0 002-1h-4a11 11 0 000-3l1-3a16 16 0 00-2-4 2 2 0 011-2 1 1 0 000-1 12 12 0 01-2-3h3a22 22 0 00-1-5 2 2 0 01-1-1 19 19 0 010-3v-1a2 2 0 010-1v-4a6 6 0 011-1 2 2 0 000-1 1 1 0 01-1-1v-1h1v-5-1a4 4 0 010-3 16 16 0 00-1-6 22 22 0 01-1-2l2-1a9 9 0 010-2 21 21 0 00-1-5 2 2 0 010-1l-1 1 1-3v-1a5 5 0 010-3 14 14 0 010-1 13 13 0 010-4v-1a3 3 0 011-2 20 20 0 000-5 2 2 0 01-1 0l-2-6 2 2a10 10 0 010-4l1-1-1-2a7 7 0 010-3 4 4 0 010-1 34 34 0 010-6v-1l-1-3a50 50 0 010-6h1v-1h4l-1 3v4l1 4v7l1 3h-1l1 4-1 1v5a11 11 0 011 4l-1 4v1a2 2 0 010 1 17 17 0 000 4 4 4 0 011 0v1a2 2 0 01-2 2 3 3 0 011 3 23 23 0 011 6v2s1 3-1 4v1a32 32 0 010 7 3 3 0 001 0v1h-1v5a4 4 0 010 3 5 5 0 000 3 4 4 0 010 5v1a20 20 0 012 5l-1 4a16 16 0 00-1 3 15 15 0 011 4v5a9 9 0 010 1 4 4 0 010 1 14 14 0 010 3 2 2 0 010 1v4a1 1 0 011 1v2a10 10 0 000 3l3 5-4-3v3a2 2 0 010 1v3a8 8 0 011 3 12 12 0 000 3l2 8zm-1-67a2 2 0 00-1 1l2-1a3 3 0 00-1 0zm0-75a2 2 0 00-1 0zM993 425a2 2 0 01-1 2c1 1 2 4 0 5a3 3 0 01-2 0 2 2 0 01-2-1l1-1a8 8 0 00-1-4l-5-11 6 7a2 2 0 011-2l-1-3a14 14 0 00-2-4 1 1 0 010-1h2v-1a2 2 0 00-2 1 6 6 0 000-1l1-3-6 2 7-5a9 9 0 001-3 35 35 0 00-1-5 3 3 0 01-1 0 14 14 0 010-2h1v-1a3 3 0 010-1 11 11 0 000-3l-1-3v-2c-1-3 0-5 1-6v-3l-1-2a5 5 0 010-2v-2-2a1 1 0 01-1-1 4 4 0 011-3 2 2 0 010-2 2 2 0 010-1v-5l-1-4 1-2-1-2a3 3 0 010-2 2 2 0 011-2v-2-6-3a1 1 0 010-1 3 3 0 01-1 0v-1l-1-4h2a3 3 0 010-1 2 2 0 00-1 1 3 3 0 011-2 6 6 0 010-3 14 14 0 00-1-4l-3-2h3a38 38 0 000-6 1 1 0 010-2v-1h1l-2-6a1 1 0 011-2 5 5 0 011-3 2 2 0 000-2 4 4 0 01-1-2l-1-2v-3a2 2 0 002 1 2 2 0 002-1h-4l2-1a2 2 0 012 1v4l1 2a4 4 0 010 4v4h-1l1 5v12a16 16 0 010 2l1 4a2 2 0 01-1 0 3 3 0 001 2h-2v1-1 1a1 1 0 001-1 2 2 0 000 1 3 3 0 01-1 1l1 2a34 34 0 011 5v5-1 6a2 2 0 01-1 1l3 10-2-4a2 2 0 01-1 1v1l1 4-1 1a51 51 0 002 5l-2 1v1l1 3v3a2 2 0 010 1v1l1 5v1l-2 1a7 7 0 000 3 24 24 0 011 3v2a13 13 0 010 4 16 16 0 011 2 4 4 0 01-1 2l1 3v4a9 9 0 010 2 10 10 0 01-1 3l-1 3a16 16 0 011 4 23 23 0 002 5l4 11zm-2 5a2 2 0 00-1 0h1a2 2 0 00-1 0zm-2-36a2 2 0 002 0 2 2 0 001 0z" class="s"/><path d="M982 433a2 2 0 01-2-2l-1-3h1a658 658 0 00-2-7 5 5 0 010-1h1a4 4 0 01-1-1v-1a3 3 0 011-1 13 13 0 00-2-6l3-1a2 2 0 00-2 0 7 7 0 001-1v-4a10 10 0 000-3 14 14 0 010-2l1-3a2 2 0 01-1-1l-1-1-1-6a2 2 0 010-1h1v-3l-1-4-1-2-2-5 4 3-1-6v-4l-3-3 4 1v-1a2 2 0 010-1 4 4 0 011-1v-4a71 71 0 01-2-6 2 2 0 010-1l1-4a13 13 0 01-1-3 18 18 0 00-1-6l-3-9 4 5a5 5 0 010-1 1 1 0 011-1 24 24 0 00-1-3 3 3 0 01-1-2l-1-3 3 1a13 13 0 010-2 20 20 0 00-2-7h1v-2a31 31 0 010-4v-4-2-4a8 8 0 010-4 6 6 0 000-1l-1-1h1c-1-2-1-4 1-4a3 3 0 013 0 1 1 0 010 1v2c0 1 0 0 0 0a1 1 0 01-1 1 1 1 0 010 1 9 9 0 010 1 6 6 0 001 4l4 8-4-4a13 13 0 010 3l-1 2v2h1v6a2 2 0 010 2 19 19 0 010 4 9 9 0 001 2v1h-1v1a7 7 0 010 1 17 17 0 010 2v6a5 5 0 000 1 3 3 0 01-1 2 19 19 0 011 5 9 9 0 001 4l-1 1a18 18 0 001 3h-1a63 63 0 002 7l3 6-3-3a7 7 0 010 1h-1a5 5 0 010 1 4 4 0 01-1 4 9 9 0 010 2 2 2 0 010 1l1 7v1a1 1 0 010 1 3 3 0 01-1 2v5l1 3h-1l1 6 1-1v4l-1 3a12 12 0 010 4 11 11 0 001 2l1 1-1 1h-1a6 6 0 01-1 2 15 15 0 012 3l-1 4a6 6 0 010 2v2l1 4 1 2a1 1 0 010 1v1a2 2 0 01-2 2zm-3-13h1-1zm2-14v1a2 2 0 001-1zm-3 0a1 1 0 001 1l1-1zm3-6zm0-4l1-1a2 2 0 00-1 1zm-2-44a3 3 0 001 0zm1-18a2 2 0 00-2 0h1a3 3 0 002 0 2 2 0 00-1 0zm-2-40a2 2 0 00-1 0h1zm2-2z" class="s"/><path d="M1083 310l1-2h7v2h-8z" class="t"/><path d="M1108 310v-3h7v3h-7zM1136 310l1-3h7v3h-8z" class="u"/><path d="M1163 333l3 1v7h-3v-8z" class="t"/><path fill="#3f2b0f" stroke="#1d150c" stroke-miterlimit="10" stroke-width="1.3" d="M1163 360h4v8h-4v-8z"/><path d="M1164 388h3v7h-3v-7z" class="u"/><path d="M1060 393h-2v-7h2v7z" class="t"/><path d="M1060 369h-3v-7h3v7zM1060 341l-3-1v-7h3v8z" class="u"/><path fill="#3f2b0f" stroke="#1d150c" stroke-miterlimit="10" stroke-width="1.4" d="M1142 414v4h-8v-4h8z"/><path d="M1115 414v3h-7v-3h7zM1089 414v3h-7v-3h7z" class="u"/><path d="M1062 413v2h8l1-1v-5l-5-1-4 5zM1071 410v5h9l1-1-1-4a14 14 0 00-1-1h-8zM1089 410v4l1 1h7l2-1h1v-5h-9l-2 1z" class="x"/><path d="M1080 410v5h8l1-1v-5l-7-1-2 2zM1117 410v5h8v-1h1l-1-3 1-2-7-1-2 2zM1106 410v4l1 1h8l2-1v-5l-7-1-4 2z" class="x"/><path d="M1099 410l-1 2v2l1 1h3l2 1h2l1-1a11 11 0 00-1-1v-4l-3-1zM1132 410v4h1l1 1h7l2-1v-5l-8-1-3 2zM1143 409v4l1 1v1h11l2-1v-2l1-3-11-1-4 1z" class="x"/><path d="M1125 409l-1 2v2l1 2h7a11 11 0 000-2v-3l-3-2z" class="x"/><path d="M1163 414h-2-4v-4l-1-2h2z" class="y"/><path d="M1071 405v2l1 3h8l1-1v-5l-8-1-2 2z" class="x"/><path d="M1080 405v4l1 1h8l2-2-1-3a14 14 0 00-1-2l-8 1zM1112 405l-1 2v2l1 1h10l1-1h1l-1-3 1-2-10-1-2 2z" class="x"/><path d="M1099 403v6l1 1h9l2-1v-2l1-3-10-1h-3z" class="x"/><path d="M1090 403l-1 3v2l1 1 2 1h7a8 8 0 000-2v-5l-4 1zM1067 409l1 1h4v-6h-1l-4 5zM1131 404v5h4l1 1h3l1-1 1-1 1-5h-10l-1 1z" class="x"/><path d="M1141 404v5h11l1-1v-5l-9-1-3 2zM1122 404v5l1 1 3-1 1 1h2l1-1 1-1v-5h-7l-2 1z" class="x"/><path d="M1157 409h-2-3v-2l-1-2v-1l2-1zM1076 399v5l1 1 3-1 1 1h2l1-1 2-1-1-5h-7l-2 1z" class="x"/><path d="M1085 399v5l4 1h4l1-1 1-1v-4a15 15 0 00-1-1h-9zM1117 399l-1 2v2l1 1h9v-1h1l-1-2 1-2-8-2-2 2z" class="x"/><path d="M1103 399v5h1l1 1h9l2-1v-2l1-3-10-1-4 1z" class="x"/><path d="M1094 399a15 15 0 010 2v2l1 1h9a7 7 0 00-1-1v-4l-4-1zM1147 399l-1 3v2h-2a6 6 0 01-2 0 5 5 0 00-1 0h-2a5 5 0 01-1-1v-4l5-2zM1126 403l1 1h2l3 1h5l1-1v-5l-6-1h-5l-1 2v3z" class="x"/><path d="M1153 403l-1 1h-5l-1-2 1-3 1-1 5 4v1zM1072 403v1h5v-5l-1-1-4 5zM1078 397v2l1 1 2-1 2 1h2l1-1 1-1v-5h-5l-4 4zM1087 394v5l4 1h4l1-1 1-1-1-4a14 14 0 00-1-1h-8zM1105 394v5h4l1 1h3l1-1 1-1 1-5h-9l-2 1z" class="x"/><path d="M1096 394v5l1 1 3-1h4l1-1v-5l-7-1-2 2zM1148 398l-1 1h-3-2v-1l-1-3 1-1v-2l6 6z" class="x"/><path d="M1133 394v5h8v-1h1l-1-3 1-1-7-2-2 2zM1122 394v4l1 1 1 1h6l1-1h2v-5l-7-1-4 1z" class="x"/><path d="M1115 394l-1 2v2l1 1 2 1h5a11 11 0 000-2v-4l-3-1zM1097 389v5h4l1 1h3l1-1 1-1 1-5h-10l-1 1z" class="x"/><path d="M1107 389v5h11l1-1v-5l-9-1-3 2z" class="x"/><path d="M1118 389v5h8l1-1v-5l-7-1-2 2zM1088 389v5l1 1 3-1h4l1-1v-5l-8-1-1 2zM1127 389v5h9l1-1v-4a14 14 0 00-1-2l-9 1z" class="x"/><path d="M1142 393v1h-2-3v-3l-1-1v-2h2zM1082 393l1 1 1 1 2-1 1 1 1-1v-6h-1l-5 5zM1088 388v1h5l1-1v-5l-1-1-5 6zM1094 384v4l1 1h5l1-1h1v-5h-7l-1 1z" class="x"/><path d="M1102 384l-1 2 1 2v1h10l1-1v-6h-8l-3 2zM1113 383v5l1 1h6l1-1 1-1v-5h-8l-1 1zM1122 383v6h8l1-1 1-1-1-3a14 14 0 00-1-2h-8z" class="x"/><path d="M1137 388h-2-4v-5l1-1z" class="x"/><path d="M1132 383l-1 1h-3-1l-1-1v-1l-1-2 1-2 1-1 5 5z" class="x"/><path d="M1118 378l-1 2v2l1 1h8v-1l-1-2 1-2-7-2-1 2zM1107 379v4l1 1h7l2-1v-5l-7-1-3 2z" class="x"/><path d="M1099 378v6h8a11 11 0 000-2v-3l-4-1zM1093 383v1h6v-6l-1-1-5 6zM1120 374v4l-1 1h-2a6 6 0 01-1 0 5 5 0 00-1 0h-2l-1-1v-4l4-2z" class="x"/><path d="M1103 377l1 2h8v-5l-5-2-3 1-1 2v2zM1098 377l1 2h3l1-1v-5h-1l-4 4zM1126 377v2h-2l-2-1h-1l-1-1v-3l1-2 6 5h-1z" class="x"/><path d="M1117 373l-2 1h-6l-1-1v-4l1-2 8 1zM1108 373l-1 1h-4l-1-1 6-6v6z" class="x"/><path d="M1122 373l-1 1h-4l-1-1v-5l1-1 5 5v1z" class="x"/><path d="M1117 368l-1 1h-3l-1-1v-2l-1-3 4 2 2 3z" class="x"/><path d="M1107 368l1 1h4v-5l-1-1-4 4v1zM1163 312l-1-2v-1h-7l-1 1-1 1v5h6l4-4z" class="x"/><path d="M1154 315v-5l-1-1h-7l-2 1-1 1 1 3a15 15 0 001 2h8zM1135 315v-5h-1l-3-1h-4l-1 1-1 1-1 5h10l1-1z" class="x"/><path d="M1144 315v-5l-1-1-3 1-1-1h-2l-1 1-1 1v5h8l1-1zM1107 315v-5h-8v1h-1l1 2-1 2 7 2 2-2zM1118 315v-4l-1-1-1-1h-7l-2 1v6h8l3-1z" class="x"/><path d="M1125 315l1-2v-2l-1-2h-7a10 10 0 000 2v4l3 1zM1092 315v-4l-1-1h-8l-1 1-1 1v4l8 1 3-2z" class="x"/><path d="M1082 315v-4l-1-1h-11l-3 1v5l10 1 5-2zM1100 315v-2-2l-1-1h-3l-2-1h-2v1a11 11 0 000 1v4l3 1z" class="x"/><path d="M1061 311l1-1h4l1 1v4l1 1-2 1z" class="y"/><path d="M1153 320v-3l-1-2v-1l-3 1-2-1h-1l-1 1-2 1v5h8l2-1z" class="x"/><path d="M1144 320v-5h-1l-3-1h-4l-1 1-2 1 1 4a14 14 0 001 1h8zM1112 320l1-2v-2l-1-1h-11l-1 1 1 2v2l9 2 2-2z" class="x"/><path d="M1126 321v-5l-1-1-1-1h-9l-2 1v2l-1 3 10 1h4z" class="x"/><path d="M1135 321v-3-2l-1-1h-9a7 7 0 000 1v5h4zM1157 316l-1-1h-4v5l1 1 4-5zM1093 321v-5l-1-1h-7l-1 1h-1v5h10zM1083 320v-5h-11l-1 1v6h9l3-2zM1102 320v-5h-8l-1 1v5l8 1 1-2z" class="x"/><path d="M1067 316h2l2-1h1v3l1 2v1h-2zM1148 325v-5h-8l-1 1v5l7 1 2-2zM1139 325v-5h-9l-1 2v3a15 15 0 001 2l9-1zM1108 325v-4l-2-1h-7l-1 1v5l7 1 3-2zM1121 325v-4l-1-1h-10l-2 1v5l9 1 4-2z" class="x"/><path d="M1130 325a16 16 0 010-1v-2l-1-1-2-1h-6a8 8 0 000 2v3l4 1zM1078 325v-5h2a5 5 0 012 0 5 5 0 001 0h2v1a5 5 0 011 0v5l-5 1zM1098 322l-1-1-2-1h-8l-1 1v5l6 1 5-1 1-2v-2zM1071 322l1-1 1-1 3 1h1l1 1-1 3-1 2-5-5zM1153 321l-1-1h-4v1h-1v5h1l5-5zM1147 328l-1-3h-8l-1 1v5l6 1 4-4z" class="x"/><path d="M1138 330v-4l-1-1h-8l-2 2 1 3a14 14 0 001 2l8-1zM1119 331v-5l-1-1h-7l-1 1h-1l-1 5h11z" class="x"/><path d="M1128 330v-5h-8l-1 1v5l8 1 1-2zM1077 326l1-1h3l1 1v1l1 2v1l-1 2-6-6z" class="x"/><path d="M1091 331v-5l-2-1h-5l-1 1h-1l1 3-1 2 7 2 2-2zM1102 330v-4l-1-1h-8l-2 1v5l8 1 3-2z" class="x"/><path d="M1109 330l1-1v-3l-1-1h-7a11 11 0 000 1v4l3 1zM1127 336v-5l-1-1h-7l-1 1h-1v5h10z" class="x"/><path d="M1117 335v-5h-10l-2 1v6h9l3-2z" class="x"/><path d="M1106 336v-5l-1-1-3 1-1-1h-2l-1 1-1 1v5h7l2-1zM1136 335v-5h-8l-1 1v5l8 1 1-2zM1097 336v-5l-4-1h-4l-1 1-1 1 1 4a14 14 0 001 1h8z" class="x"/><path d="M1082 331h5v2l1 2v1l-1 1zM1142 331l-1-1h-5v7h1l5-6zM1136 337v-1h-5l-1 1v4l1 1 5-5zM1130 341v-5h-3l-1-1h-2l-1 1-1 1v5h7l1-1z" class="x"/><path d="M1122 341l1-2v-2l-1-1h-10l-1 1v5l8 1 3-2zM1111 341v-5h-8l-1 1v5l8 1 1-2z" class="x"/><path d="M1103 341v-4l-1-1h-9l-1 1 1 4a14 14 0 001 2l8-1z" class="x"/><path d="M1087 337l1-1h4l1 1v5h-1z" class="x"/><path d="M1092 342l1-1h5v2l1 2-1 1v2l-6-6z" class="x"/><path d="M1107 346v-5h-8v1h-1l1 3-1 2 7 1 2-2zM1118 346v-4l-1-1h-8l-2 1v5l7 1 4-2z" class="x"/><path d="M1125 346l1-2v-2l-1-1h-3l-2-1h-2l-1 1a10 10 0 001 1v4l3 1z" class="x"/><path d="M1131 342v-1h-5v3l-1 2 1 2 5-6zM1104 351v-5h3a5 5 0 011 0 5 5 0 001 0h3a5 5 0 010 1v4l-4 2z" class="x"/><path d="M1121 347l-1-1h-1l-2-1h-4l-1 1v5l5 1h3l1-2v-3zM1126 347v-1h-5v5l1 1 4-5zM1098 347v-1h6v5l-1 1-5-4v-1z" class="x"/><path d="M1107 352l2-1 1-1h3l2 1h1l1 1v4l-2 1-8-1z" class="x"/><path d="M1116 352l1-1h4l1 1-5 6-1-3v-3zM1103 352v-2l4 1 1 1v4l-1 1-4-4v-1z" class="x"/><path d="M1107 357l1-1h4v2l1 3-4-1-2-3z" class="x"/><path d="M1117 357l-1-1h-4v4l1 2 4-4v-1zM1162 413h2l1-1v-6l-1-1-1-1h-5v5l4 4zM1159 404h6v-8l-1-1-1-1h-4a14 14 0 00-1 2v8zM1159 386h5v-4l1-2v-3l-1-1-1-1h-5v9l1 2z" class="x"/><path d="M1159 395h5l1-1-1-3 1-2v-1l-1-1-1-2h-5v8l1 2zM1159 357l2 1h2l1-1v-7l-1-1h-4l-2 7 2 1z" class="x"/><path d="M1159 368h5l1-1v-7l-1-2h-2l-3-1-1 8 1 3z" class="x"/><path d="M1159 376h6v-7-1a11 11 0 00-2 0h-4l-1 4zM1159 343h4l1-1v-8l-1-2h-5l-1 7 2 4zM1159 332h4l1-1v-11l-1-2h-2l-3-1-1 11 2 4z" class="x"/><path d="M1159 350h5v-3l1-2v-2l-1-1a11 11 0 00-1 1h-4l-1 3z" class="x"/><path d="M1163 312l1 1v4l-1 1h-5l-1-1z" class="y"/><path d="M1154 403h5l1-1-1-3 1-1v-2l-1-1-1-1h-5v8l1 1zM1154 394h5l1-4v-4l-1-1-1-1-4 1a14 14 0 00-1 1v8zM1154 363h5v-12h-1l-2 1-2-1-2 9 2 3zM1153 376h5l1-1 1-1v-8l-1-2-1-1h-4l-1 9v4z" class="x"/><path d="M1153 385h6v-9a8 8 0 00-1 0h-5v4zM1158 408l1-1v-4l-1-1h-4l-1 1 5 5zM1153 344h5l1-1v-8l-1-1v-1h-5v11z" class="x"/><path d="M1154 334h4l1-1v-10l-1-1h-6v9l2 3zM1154 353h5v-8l-1-2-5 1-1 7 2 2z" class="x"/><path d="M1158 317v2l1 2v1l-1 1h-5l-1-1zM1149 399h2l3-1v-8l-1-1h-5l-1 8 2 2z" class="x"/><path d="M1149 390h4l1-1v-8l-2-2-3 1a14 14 0 00-2 1l1 8zM1149 358l2 1h1l1-1 1-2v-6l-1-1v-1l-3 1-2-1-1 8 2 2z" class="x"/><path d="M1149 371h4l1-1v-9l-1-2h-2l-3-1-1 10 2 3z" class="x"/><path d="M1149 380a13 13 0 011 1h2l1-1 1-2v-6l-1-1a8 8 0 00-1 0h-3l-1 4zM1149 328h4l1 1v2a6 6 0 010 1 5 5 0 000 1v2l-1 1h-5l-2-4zM1152 349l1-1 1-3v-7l-1-1v-1h-5l-1 7 1 5 2 1h2zM1152 322l1 1 1 1-1 2v2h-4l-2-1 5-5zM1153 403l1-1v-3l-1-1h-5v1l5 4zM1146 397h3v-8l-1-1h-5l-1 5 4 4z" class="x"/><path d="M1144 388h5v-9l-2-1h-3a15 15 0 00-2 2l1 8zM1143 370h5l1-1v-8l-1-1v-1h-5v11z" class="x"/><path d="M1144 379h5v-8l-1-2h-5l-1 8 2 2zM1148 327l1 1v4l-1 1h-4l-2-1 6-5zM1144 341l2 1h1l1-1 1-1v-6h-1v-1h-5l-1 7 2 1z" class="x"/><path d="M1144 352h5v-8l-1-2h-2l-3-1-1 8 2 3z" class="x"/><path d="M1144 360h5v-7-1a10 10 0 00-1 0h-4l-1 4zM1138 378h5l1-1v-7l-1-2v-1h-5v11z" class="x"/><path d="M1139 368h4l1-1v-10l-1-1h-6v9l2 3z" class="x"/><path d="M1138 357h3l2-1h1l-1-3 1-2v-1l-1-1-1-2h-5v8l1 2zM1139 387h5v-8l-2-1h-4l-1 7 2 2z" class="x"/><path d="M1138 348h5v-1l1-3v-4l-1-1-1-2-4 1a14 14 0 00-1 1v8z" class="x"/><path d="M1143 332v6h-5l-1-1zM1143 393l1-1v-5l-1-1h-6v2l6 5z" class="x"/><path d="M1137 387l1-1v-4l-1-2h-4l-1 2 5 5z" class="x"/><path d="M1133 381h5v-3l1-1v-3l-1-1h-6v7l1 1zM1133 373h5v-11l-1-1h-5l-1 9 2 3z" class="x"/><path d="M1133 362h5v-8l-1-1h-5l-1 7 2 2zM1133 353h5v-9l-1-1h-4a14 14 0 00-1 2v8z" class="x"/><path d="M1137 338h1v5h-3l-1 1h-2v-2z" class="x"/><path d="M1132 343l1 1v5h-5l-2-1 6-6zM1128 357l2 1h2l1-1v-7l-1-1h-5l-1 6 2 2z" class="x"/><path d="M1128 368h4l1-1v-8l-1-1v-1h-5l-1 8 2 3z" class="x"/><path d="M1128 376h4l1-1v-2l1-2v-2l-1-1a11 11 0 00-1 0h-4l-1 4zM1132 382h1v-6h-5l-2 1 6 5zM1123 355h5v2a6 6 0 010 2 5 5 0 000 1v2a5 5 0 01-1 1h-4l-2-5z" class="x"/><path d="M1127 372l1-1v-2l1-2v-3l-1-1h-5l-1 4v4l2 1h3zM1127 377l1-1v-4h-5l-1 1 5 4zM1127 349h1v5l-2 1h-3l-1-2 4-5 1 1z" class="x"/><path d="M1122 358l1 1 1 2v2l-1 3-1 1h-4l-1-1 1-8zM1122 367h1v5l-1 1-6-6h6zM1122 353l2 1-1 3v1h-6l4-5h1z" class="x"/><path d="M1117 358h1v5h-5l1-3 3-2zM1117 367l1-1v-3h-6l4 4h1zM1061 312h-2v8l1 1h5l1-5-5-4zM1064 321h-5v9l1 1 4-1a15 15 0 002-1l-1-8zM1064 339h-4l-1 1v7l1 1v1l5 1v-9l-1-2z" class="x"/><path d="M1064 330h-5v8l1 1h5l1-7-2-2zM1064 367h-4l-1 2v6h1v1l3-1 2 1 1-7-2-2zM1064 356h-4l-1 1v8l1 2h5l1-7-2-4z" class="x"/><path d="M1064 349h-1-4v8a10 10 0 001-1h4l1-3zM1065 382h-4l-1 1h-1v7l1 1v1l1 1h5v-8l-1-3zM1065 393h-4l-1 1h-1v9l1 2v2h3l3 1v-11l-1-4z" class="x"/><path d="M1065 375l-2-1h-2l-2 1v7a11 11 0 002 0h4l1-3z" class="x"/><path d="M1060 413v-1-1-4h4l2-1v2z" class="y"/><path d="M1069 321h-2l-3 1v7l1 2h5l1-8-2-2z" class="x"/><path d="M1069 330h-4l-1 1v8l2 2 3-1a14 14 0 002-1l-1-8zM1069 362l-2-1h-1l-1 1-1 2v8l1 1v1l3-1 2 1 1-10-2-2z" class="x"/><path d="M1071 349h-6l-1 1v9l1 2h2l3 1 1-10v-3z" class="x"/><path d="M1071 340l-3-1h-2l-1 1-1 2v7a7 7 0 002 0h5l-1-4zM1065 317l-1 1v3l1 1h5v-1l-5-4zM1070 381h-5v4l-1 1v3l1 1 1 1 5 1v-10l-1-1z" class="x"/><path d="M1070 391h-5v11l1 1h5l1-9-2-3zM1070 372h-5l-1 1 1 3v4l1 1h5l1-8-2-1z" class="x"/><path d="M1066 407h-1v-2-3h2l2-1h2v2zM1075 326h-5l-1 1 1 3v4l1 1h5l1-7-2-2zM1075 335h-5v9l1 1h4a15 15 0 001-1v-9zM1075 366h-5v10h1v1l3-1 1 1 2-8-2-3zM1075 353h-4l-1 1-1 1v8l1 1v2h6v-9l-1-4z" class="x"/><path d="M1075 344a16 16 0 01-2 0h-2l-1 1v9a7 7 0 001-1h4l1-4zM1075 397l-3-1h-2v-2a5 5 0 010-2 5 5 0 000-1v-2a5 5 0 011-1h4l2 5zM1071 376l-1 1v2l-1 3v5l1 1h5l2-6-1-5-2-1h-3z" class="x"/><path d="M1071 403l-1-1v-5l2-1 3 1 1 1-4 5h-1zM1071 322h-1v5h5l1-1-5-4zM1077 328h-2l-1 1 1 2-1 2v2l1 1 1 1h5v-6l-4-3zM1080 337h-5l-1 4v4l1 1 1 1 4-1a14 14 0 001-1v-8zM1080 355h-5v4l-1 1v3l1 1 1 1 5 1v-10l-1-1z" class="x"/><path d="M1080 346h-5l-1 1 1 3v4l1 1h5l1-7-2-2zM1076 398l-1-2v-2-2h1l3-1 1 1h2l-6 6z" class="x"/><path d="M1080 383h-5v8h1v1l3-1 1 1 2-7-2-2zM1080 372h-4l-1 1v2l-1 2v3l1 1v2h6v-8l-1-3z" class="x"/><path d="M1080 365l-2-1h-2l-1 1-1 2v5a11 11 0 002 0h4l1-3zM1085 347h-5v4l-1 1v3l1 1 1 1 5 1v-10l-1-1z" class="x"/><path d="M1085 357h-5v11l1 1h5l1-9-2-3z" class="x"/><path d="M1085 368h-5v8l1 1h5l1-7-2-2zM1085 338h-5l-1 1 1 3v4l1 1h5l1-8-2-1zM1085 377h-5v9l2 1h3a14 14 0 002-1l-1-9z" class="x"/><path d="M1081 392h-1v-2-3h3l1-1h2v2zM1081 332l-1 1-1 1 1 2-1 1 1 1h6v-1l-5-5zM1086 338h-1v5l1 1h5l1-1-6-5zM1091 344h-5l-1 1v5l1 1v1h5v-8z" class="x"/><path d="M1090 352l-2-1-2 1h-1v10l1 1h6v-8l-2-3zM1091 363h-5l-1 1 1 2-1 2v2l1 1 1 1h5v-8l-1-1zM1091 372h-6v8l1 1 1 1 4-1a15 15 0 001-1v-8z" class="x"/><path d="M1086 387v-1-1-4h5l1 1z" class="x"/><path d="M1091 382l-1-1 1-3-1-1 1-1h1l3-1 1 1h1l-5 6z" class="x"/><path d="M1096 367h-5v9h1l2-1 2 1 2-7-2-2zM1096 357h-5l-1 1v7l1 2h5l1-7-1-3zM1096 349h-2-4v8a11 11 0 002-1h4l1-3zM1091 343h-1v6h6l1-1-6-5z" class="x"/><path d="M1100 370h-4l-1-1v-2a5 5 0 010-1 5 5 0 000-1v-2l1-1h5l1 4zM1097 353l-1 1-1 2v6h6l1-5-1-3-2-1h-2zM1097 348l-2 1 1 2-1 1 1 1h5v-1l-4-4zM1097 376h-1l-1-2 1-2v-1l1-1h3l2 1-5 5z" class="x"/><path d="M1102 367l-2-2v-6l1-1h4l2 1-1 8zM1101 358l-1-1v-4l1-1 6 6h-6z" class="x"/><path d="M1101 372l-1-1v-4l1-1h5l1 1-5 5h-1z" class="x"/><path d="M1106 367l-1-1v-3l1-1h2l3-1-2 4-3 2z" class="x"/><path d="M1106 357l-1 1v4h5l1-1-4-4h-1z" class="x"/><path style="isolation:isolate" fill="url(#a)" d="M1060 312h104v103h-104z" opacity=".1"/><path d="M1061 414l6-6 6-6 7-6 9-10 10-9 10-10 3-3-1-2-3 3-11 11-9 9-9 9-7 7-6 6-6 5v3z" class="aa"/><path d="M1061 312l5 6 6 6 6 7 10 9 9 9 11 11 3 3 1-2-3-3-11-10-9-10-9-9-7-7-6-6-5-6h-2z" class="aa"/><path d="M1162 311l-6 5-6 6-7 7-9 9-9 9-10 11-4 3 2 1 3-3 10-10 10-9 9-10 7-6 6-6 6-6v-2zM1164 413l-6-6-5-6-7-7-9-9-10-9-10-11-3-3-1 2 2 3 11 10 9 9 10 10 6 7 6 6 6 6h2z" class="aa"/><path d="M1114 365l-4-1v-4h4v2a6 6 0 010 3z" class="aa"/><path d="M508 352c0 5 3 9 7 10-1 4-2 7-1 11s5 7 8 6c-2 6 2 14 9 16l3 9c2 3 6 3 8 1a10 10 0 0012 8c1 2 2 5 5 6s5 2 7 0a7 7 0 006 6h4c4 0 7 4 11 4 5 1 6-4 11-5 3-1 7 1 10 2s9-2 7-5c4 2 7 3 11 3s8-4 7-8c4 4 11 0 10-5a9 9 0 0015-9 7 7 0 107-12 7 7 0 008-13c2 0 5-1 6-4s0-5-2-6c7-1 12-12 7-18a8 8 0 104-15 9 9 0 00-4-17c2-5-3-11-8-11a7 7 0 00-6-11c5-5 0-15-7-15 2-3 0-6-3-8s-7-1-10-1c0-3-1-7-4-9s-7-3-8 0c-3-7-12-11-18-7-3-6-13-6-15 0-7-6-19-5-24 2-5-5-16-2-17 5-7-5-17 0-18 8-6-3-13 1-14 7a13 13 0 00-8 16c-3 1-4 6-4 11a4 4 0 01-3 3c-2 1-5 4-5 10-1 4 1 8 1 9s-8 5-2 14l-3 12z" class="ab"/><path d="M671 285c-2-3-5-5-8-5 2-3 0-6-3-8s-7-1-10-1c0-3-1-7-4-9s-7-3-8 0c-3-7-12-11-19-7-2-6-12-6-15 0-6-6-18-5-23 2-5-5-16-2-17 5-7-4-17 0-18 8-6-3-13 1-14 7a13 13 0 00-8 16c-3 1-4 6-4 11a4 4 0 01-3 3c-2 1-5 4-5 10-1 4 1 8 1 9s-8 5-2 14l-3 12c0 4 3 9 7 10l-1 11c0 4 5 6 8 6-2 6 2 14 9 16l3 9c2 3 6 3 8 1a10 10 0 0012 7c1 3 2 5 5 7s5 2 7 0a7 7 0 006 6h4c4 0 7 3 11 4 5 1 6-4 11-5 3-1 7 1 10 2s9-2 7-5c4 2 7 3 11 3a23 23 0 001-4 4 4 0 000-2l-3-3c-3-1-4-4-7-6s-8 0-12 0-9-3-8-7c2-5 10-3 14-6a4 4 0 00-4-4c0-3 4-4 6-5s6-4 4-7c-1-2-6 0-9-2-2-2 1-6 3-7l9-1c3-1 6-3 5-5-1-5-9-4-9-8-1-2 1-4 1-6-1-3-5-3-7-1l-6 4a7 7 0 01-5-12l8-1c3 0 5-4 4-6l-7-3a26 26 0 0114-11c-3-2-2-7 0-9s6-2 10-3c8-1 22-1 28-6-7-9 6-14 13-17z" class="ac"/><path d="M551 383l-5-7-9-14c-2-3-2-7 1-7-2-3-3-8 1-9a15 15 0 01-11-11c0-2 0-6 2-8l3-3a8 8 0 002-8l4-2-2-4a4 4 0 000-6l2-4c3-7 12-11 18-7 3-4-2-10 1-13s7 0 10 0c4 0 8-3 11-4 5-2 11-1 15 1 5 2 9 5 11 9s3 10-1 13c-3 2-6 2-9 2l-15 1a10 10 0 00-5 1 6 6 0 00-2 7 8 8 0 006 5c0 3-4 5-7 6l-9 2c-2 1-6 6-4 8a8 8 0 016 2 22 22 0 00-6 11 103 103 0 0021 13l-6 3c-2 2-4 3-4 5s2 4 4 3l-1 8-6 5c-5 3-10 5-16 2z" class="ad"/><path d="M649 283l-2-2c-2 0-3-2-5-3l-5-2c-2-1-3-2-3-4v-3a3 3 0 00-2-2 14 14 0 00-10 0c-1 1-3 2-4 1l-1-3c0-2-2-4-5-4a18 18 0 00-7 0c-3 1-9 0-10 5a1 1 0 000 1l2 1a5 5 0 012 0c3 2 6 3 6 6a7 7 0 000 3l4 1h4c3 1 2 5 1 7s-4 5-3 8a25 25 0 006 2l-4 4v4c1 2 4 1 6 0s4-4 6-4a10 10 0 013 1 14 14 0 007 1 4 4 0 003-1c2-2 0-7 3-9l4 1a5 5 0 004-9zM579 345c-2 2-3 4-1 5a7 7 0 002 1l6 7c1 2 2 4 1 5l-3 1a5 5 0 00-2 7 27 27 0 012 2c1 2 0 5-1 7l-3 7a11 11 0 01-3 4l-5 2h-13a26 26 0 00-5-1c-2 0-4 0-5 2 0 2 2 4 4 5h6a4 4 0 012 1c2 1 1 4 1 5a7 7 0 0013 5 22 22 0 005 6c2 2 5 3 8 2s4-5 3-7l-4-4a7 7 0 010-9 7 7 0 013-2l4-2a4 4 0 001-2 17 17 0 00-3-7c4-2 8-4 9-7s0-9-4-9h-4v-4l2-3c1-4-5-6-6-9l-1-5c-1-4-7-4-9-3zM518 352a3 3 0 000 1l3 1c2 0 3 2 4 5a33 33 0 01-1 6 16 16 0 002 8l5 5 1 5a7 7 0 003 4 3 3 0 004-1c1-2 0-4-1-5l-3-4-1-6-2-7c-1-2-2-6 0-8a4 4 0 000-1 3 3 0 000-3c-3-5-12-9-14 0zM536 282a6 6 0 003 1c1 1 0 2-1 3l-3 1a6 6 0 00-2 3l-2 6a4 4 0 000 3h4a7 7 0 001-5 8 8 0 011-4c3-3 10 0 12-4l1-6c0-1 1-4 3-3 3 1 5-1 7-3 2-1 3-2 3-4a3 3 0 00-1-1c-3-2-6-1-8 1s-5 4-8 4c-4 0-9 2-10 8z" class="ad"/><path d="M569 584c1-7 4-13 10-16s13-2 18 2c3-5 9-9 16-10s13 2 16 9c9 1 16 13 12 22a36 36 0 00-1 4l-1 4c0 4-3 7-5 10-6 7-14 12-22 15-9 3-20 4-28 0-7-3-14-10-14-18l1-8c-1-5-3-9-2-14z" class="ac"/><path d="M577 613c0-5-2-9-1-14 0-7 4-13 10-16s13-2 17 3c4-6 10-10 16-11s14 3 16 9a15 15 0 017 3c1-9-5-18-13-19-3-6-10-10-16-9s-13 5-16 11c-5-5-12-6-18-3s-9 9-10 16c-1 5 1 9 2 14l-1 8a21 21 0 007 14 35 35 0 000-6z" class="ad"/><path d="M666 712c8-1 15-9 14-17a14 14 0 007-25c4-2 5-8 3-12s-6-7-10-9a37 37 0 00-37 4 18 18 0 01-3 2 41 41 0 01-5 1c-6 2-10 9-10 15s3 13 5 19c4 7 11 7 16 11 7 5 11 12 20 11z" class="ac"/><path d="M687 670c4-2 5-8 3-12s-6-7-10-9a36 36 0 00-11-3 17 17 0 017 8c2 4 1 9-3 12a14 14 0 01-7 24c1 8-5 16-13 17 4 3 7 5 13 5 8-1 15-9 14-17a14 14 0 007-25z" class="ab"/><path d="M514 665a16 16 0 002 17 27 27 0 00-9 19c0 6 2 13 7 15 5 3 12 1 17 0-2 3-1 8 2 11a18 18 0 009 6 23 23 0 0016-1c5-3 9-7 9-13 5 2 11 1 15-2s7-8 9-13c2-6 2-13 0-19s-6-12-13-14c1-4 2-8 1-11-2-3-5-5-9-6-7-3-14-6-22-6s-12 5-18 8-12 2-16 9z" class="ac"/><path d="M578 662l1 1a10 10 0 000-2l-1 1zM591 695c-2 5-4 10-9 13s-10 5-15 3c0 5-4 10-9 12a23 23 0 01-16 1 18 18 0 01-9-6c-3-3-4-7-2-11-5 2-12 3-17 1-3-2-6-6-7-10a25 25 0 000 3c0 6 2 13 7 15s12 2 17 0c-2 3-1 8 2 11a18 18 0 009 6 23 23 0 0016-1c5-3 9-7 9-13 5 2 11 1 15-2s7-8 9-13a34 34 0 001-15 37 37 0 01-1 6zM516 674a16 16 0 01-3-6 16 16 0 000 9 27 27 0 013-3z" class="ab"/><path d="M521 592l-4 6c-1 2 1 4 3 5a25 25 0 00-14 18 37 37 0 000 13c1 5 4 10 8 10a10 10 0 013 0c2 0 2 3 3 5a18 18 0 0031 7 5 5 0 012-2c2-1 3 0 4 1a23 23 0 0035-13 23 23 0 00-4-40c3-3 4-8 2-11s-4-7-8-9a25 25 0 00-14-2 20 20 0 01-5 1 20 20 0 01-4-2 24 24 0 00-20 4l-8 4c-4 1-7 2-10 5z" class="ac"/><path d="M603 621a24 24 0 00-9-16 22 22 0 011 5 24 24 0 01-10 22 23 23 0 01-35 12c-2-1-3-2-5-1a5 5 0 00-2 2 18 18 0 01-17 6 17 17 0 01-6-2 18 18 0 0031 7 5 5 0 012-2c1-1 3 0 4 1a23 23 0 0033-7 23 23 0 002-6 24 24 0 0011-21z" class="ab"/><path d="M526 612c-6 0-10 7-9 13s7 10 13 9l5-2a8 8 0 002-4 37 37 0 00-1-8 9 9 0 009-6c1-3 1-7 4-8h5c3 0 4-2 5-4s2-5 1-7-5-3-8-3h-14c-7 0-7 3-9 8-2 4-6 7-3 12z" class="ad"/><path d="M602 656l-7 2c-2 1-2 5 0 6a25 25 0 00-23 5 37 37 0 00-8 10c-2 4-4 10 0 13a9 9 0 012 1c1 2 0 4-1 6a18 18 0 0020 26 5 5 0 013-1l2 4a23 23 0 0035 13 23 23 0 0023-34c4 0 7-4 9-8s0-8-2-11a25 25 0 00-9-11 20 20 0 01-4-2 21 21 0 01-3-4 24 24 0 00-18-10c-4-1-5 0-8-2-4-2-7-3-11-3z" class="ac"/><path d="M647 730a24 24 0 003-17 22 22 0 01-3 4 24 24 0 01-21 10 23 23 0 01-35-12l-3-4a5 5 0 00-2 0 18 18 0 01-18-6 17 17 0 01-3-6 18 18 0 0020 26 5 5 0 013-1l2 4a23 23 0 0035 13 24 24 0 0022-11z" class="ab"/><path d="M595 682c-5-3-12-1-15 4s-1 12 4 16c2 1 4 2 6 1a8 8 0 003-2 36 36 0 005-7 9 9 0 0011 1c3-1 5-4 8-3l4 3c2 2 4 1 6 0s4-2 5-4c1-3-2-6-4-8l-11-9c-6-4-7-2-12 1-4 2-9 1-10 7z" class="ad"/><path d="M629 586l-6 2c-1 1-3 4-1 6a25 25 0 00-23 5 37 37 0 00-8 10c-2 4-4 10 0 13a10 10 0 012 1c1 2 0 4-1 6a18 18 0 0020 25 5 5 0 013 0l2 4a23 23 0 0035 12 23 23 0 0023-33c4-1 7-4 9-8s0-8-2-12a25 25 0 00-9-10 20 20 0 01-4-3 21 21 0 01-3-3 24 24 0 00-17-11c-5 0-6 1-9-1-4-2-6-3-11-3z" class="ac"/><path d="M674 660a24 24 0 003-17 22 22 0 01-2 4 24 24 0 01-22 10 23 23 0 01-35-12l-2-4a5 5 0 00-3 0 18 18 0 01-18-6 17 17 0 01-3-6 18 18 0 0020 25 5 5 0 013 0l2 4a23 23 0 0035 12 24 24 0 0022-10z" class="ab"/><path d="M620 605c-4-4-12-1-15 4s0 12 4 15a7 7 0 006 2 8 8 0 004-3 37 37 0 004-6 9 9 0 0011 1c3-1 5-4 8-3 2 0 2 2 4 3h6c2-1 5-2 5-4 1-3-2-6-4-8l-11-9c-5-4-7-2-12 1-4 2-9 1-10 7z" class="ad"/><path d="M547 639a18 18 0 00-6 6c-3 5-2 12 1 18-8 2-10 13-5 19s13 7 20 5a24 24 0 0038-4l3-3a9 9 0 013 0 13 13 0 0011-5 21 21 0 004-12 26 26 0 010-6l2-4a17 17 0 00-2-16 21 21 0 00-15-8 19 19 0 00-16-10c-9-1-13 5-18 11-5 5-14 6-20 9z" class="ac"/><path d="M552 673c-2-6-4-13 0-18a19 19 0 016-6c6-4 15-5 20-10 5-6 9-11 18-11a19 19 0 0116 11 22 22 0 017 1 18 18 0 00-3-5 21 21 0 00-15-8 19 19 0 00-15-11c-10 0-13 5-19 11-4 5-14 6-20 10a19 19 0 00-6 6c-3 5-1 12 1 18-8 2-10 13-5 19a16 16 0 008 5c0-5 2-11 7-12z" class="ad"/><path d="M616 637a18 18 0 00-2-2 15 15 0 01-1 6l-2 4a26 26 0 00-1 7 22 22 0 01-4 11 13 13 0 01-10 6 9 9 0 00-4 0l-3 3a24 24 0 01-33 6 24 24 0 01-4-3c-6 2-13 2-18-2a13 13 0 003 9c4 6 13 7 20 5a24 24 0 0035 0 24 24 0 003-4l3-3a9 9 0 013 0 13 13 0 0011-5 21 21 0 004-12 26 26 0 010-6l2-4a17 17 0 00-2-16z" class="ab"/><path d="M595 631c-6 2-11 6-13 11s0 13 5 16c-1 3-1 7 2 10 2 3 5 4 9 4 5 1 11 0 13-5a15 15 0 0025-7 33 33 0 011-5l2-3a10 10 0 00-4-13 10 10 0 00-5-2 12 12 0 00-6-9c-4-3-8-1-12 0-6 0-11 0-17 3z" class="ac"/><path d="M639 642a10 10 0 00-5-4 10 10 0 01-1 3l-2 3a32 32 0 00-1 5 15 15 0 01-24 6c-3 5-9 6-14 5a20 20 0 01-5-1c-1 4 0 7 2 9s5 4 9 4c5 1 11 0 13-5a15 15 0 0025-7 33 33 0 011-5l2-3a10 10 0 000-10z" class="ab"/><path d="M309 697a58 58 0 00-6-3c-7-2-22-11-30-11-3 0-10 2-16 14-3 7-2 15-2 22 1 14 13 61 15 67 3 8 6 17 12 22l8-1-1-2c-6-11-14-49 5-54a52 52 0 017-3l20-8 1-1 1-1c-1-5-3-10-6-13-4-7-13-5-20-6-5 0-9 1-11 3s-2 0-2-1c1-3 4-3 6-5s2-5 5-7l8-2c6-3 15 5 21 9a36 36 0 013 2 118 118 0 00-18-21z" class="ae"/><path d="M323 738l-1 1zM322 739l-1 1z" class="af"/><path fill="#bab2a8" d="M243 678c-10 5-18 12-27 19-8 6-18 12-25 20l-1 1c12-6 20-6 33-12l15-8c-5 19-2 51 6 67 1-4 2-10 0-24-1-10-3-24-2-30 3-10 11-19 17-27 8-10 17-4 20-2a149 149 0 0022 7l-6-4c-15-10-34-16-52-7z"/><path d="M279 682c-3-2-12-8-20 2-6 8-14 17-17 27-1 6 1 20 2 30 2 14 1 20 0 24-8-16-12-48-6-67l-15 8c-13 6-21 6-33 12-6 7-7 16-8 25 0 14-1 42 4 49a21 21 0 003 2c-2-4 1-9 4-15 6-12 12-22 22-30l7-13c0 11-8 21-13 30l-8 15c-3 7-5 11-4 19a59 59 0 007 2c-1-7 4-13 10-17l14-5c3-1 6-3 10-3 9 1 11 6 17 12 3 3 7-1 8-5l5-5c-4-15-12-49-13-60 0-7-1-15 2-22 6-12 13-14 16-14 8 0 23 9 30 11a58 58 0 016 3l-8-8a149 149 0 01-22-7z" class="ah"/><path d="M225 718c-5 2-11 2-15 6-3 2-4 5-5 8-2 4-6 7-9 10-5 8-5 18-7 26 0 6-3 16 3 19a1 1 0 001-1c4-11 10-20 17-29 5-5 11-13 13-20 0-2 2-13 6-19 2-2-3-1-4 0z" class="af"/><path d="M222 736l-7 13c-10 8-16 18-22 30-3 6-6 11-4 15a29 29 0 008 6c-1-8 1-12 4-19l8-15c5-8 13-19 14-29l-1-1z" class="ae"/><path d="M268 779l-5 5c-1 4-5 8-8 5-6-6-8-11-17-12-4 0-7 2-10 3l-14 5c-6 4-11 10-10 17h1c6-10 18-10 29-9 5 1 10 2 14 5 4 4 9 6 13 4s7 2 11 7l10-1c-5-5-9-14-12-22l-2-7zM327 718a34 34 0 00-3-2c-6-4-15-12-21-9l-8 2c-3 2-3 5-5 7s-5 2-6 5c0 1 0 4 2 1s6-3 11-3c7 0 16-1 20 6 3 3 5 8 6 13l-1 1-1 1-19 8a52 52 0 00-8 3c-19 5-11 43-5 54l1 2 8-1a72 72 0 0014-4c13-19 14-62 14-62 1-2 5-4 7-5l1 1v1c4 11 9 34 9 48a20 20 0 005-4s0-10-3-23c-3-15-14-35-18-40z" class="af"/><path fill="#4f463f" d="M334 737v-1l-1-1c-2 1-6 3-7 5 0 0-1 43-14 62 9-3 19-1 24-4 6-3 10-7 9-9 1-15-7-40-11-52z"/><path d="M261 802c-4 2-9 0-13-4-4-3-9-5-14-5-11-1-23-1-29 9a427 427 0 0067 6c-4-4-7-8-11-6z" class="ae"/><path d="M327 733c-2 1-5-1-7-1-4 2-8 5-18 6-7 1-14 0-19 4-3 2-3 4-4 6-3 6-6 5-7 8-1 4 2 9 2 12h1c3-5 7-12 12-16 4-3 8-5 18-6 7-1 12-4 17-5 8-1 7-5 12-6l-7-2z" class="ah"/><path fill="#45dbe2" d="M1078 707c8-5 19-25 60-2 25 13 11 53 31 48 27-7 47 24 20 49s-37 20-66 7c-9-5-15-8-31-6s-20 23-49 26-74-30-51-48 25-29 18-46 29-42 44-28 18 4 24 0z"/><path fill="url(#b)" d="M1139 797c-12 0-42-7-50-5s-32 7-38 20-55 5-57-11 6 2 18-20c11-20 12-28 12-33a6 6 0 01-4-4c-1-4 4-10 12-13s16-1 18 3a6 6 0 01-1 6h1c10 0 38-20 45-16s-19 11-10 18 32-7 39 1-20 6-14 12 23 2 26 6-6 5-2 9 9-2 14 2-22 5-18 11 20 14 9 14zm44-14c-2-5-11-7-20-4s-16 10-14 15 10 7 20 4 15-10 14-15z" transform="translate(1 1)"/><path d="M1119 772c3-5 0-12-6-15-5-3-14 0-15 4l8 5s-8-4-9-3c-1 0-2 9 7 14a11 11 0 0015-5z" class="al"/><path d="M1098 763a33 33 0 013 2l5 1c1-1 0-1-3-3a24 24 0 01-4-2v-1c1-2 9-5 14-3 6 3 8 10 6 15a11 11 0 01-7 5 10 10 0 01-8-1c-8-4-7-11-7-13z" class="am"/><path d="M1098 764l3 1c4 2 5 2 6 1s-1-2-4-4a36 36 0 01-3-2c1-2 8-4 13-2 5 3 8 9 5 14a10 10 0 01-6 5 10 10 0 01-8-1c-6-4-7-10-6-12z" class="an"/><path d="M1102 760c2-1 7-2 10-1 5 2 7 8 5 12a9 9 0 01-5 5 9 9 0 01-7-1 11 11 0 01-6-9h1c5 2 6 3 8 1 1-3-1-4-4-6l-2-1z" class="ao"/><path d="M1125 738c2-3 2-8-2-11-3-3-10-2-11 0l5 5-6-4c-1 0-3 6 2 11a8 8 0 0011-1z" class="al"/><path d="M1111 729a25 25 0 012 1l4 2-2-3a16 16 0 01-2-2c1-2 7-2 10 0a8 8 0 011 11 8 8 0 01-5 3 7 7 0 01-6-2c-4-5-3-10-2-10z" class="am"/><path d="M1111 729l2 1c3 2 3 3 4 2s0-1-2-3l-2-2c1-1 7-2 9 0a7 7 0 012 11 7 7 0 01-5 2 7 7 0 01-5-2c-4-3-3-8-3-9z" class="an"/><path d="M1115 727c1 0 5-1 7 1a6 6 0 011 9 6 6 0 01-4 2 6 6 0 01-5-2 8 8 0 01-2-7l1 1c2 2 3 3 5 2 1-2 0-3-2-5l-1-1z" class="ao"/><path d="M1044 782a12 12 0 0017 0c4-4 3-13 0-15-1 0-6 6-7 5l6-7c0-1-9-5-16 1-4 4-4 12 0 16z" class="al"/><path d="M1059 765a33 33 0 01-2 3c-3 3-3 4-3 5l4-3a23 23 0 013-2c3 2 3 10-1 14a11 11 0 01-15 0 12 12 0 01-4-8 9 9 0 014-8c6-5 13-2 14-1z" class="am"/><path d="M1058 765l-2 3c-3 3-3 4-3 5h1c1 1 2 0 4-2a36 36 0 013-3c2 3 2 10-1 14a10 10 0 01-15-1 11 11 0 01-3-7 9 9 0 013-7 11 11 0 0113-2z" class="an"/><path d="M1061 771c1 2 0 7-2 10a9 9 0 01-13 0 10 10 0 01-3-7 8 8 0 013-6 10 10 0 0110-2l-1 1c-3 3-4 5-3 7h1c2 2 4 1 6-2l2-1z" class="ao"/><path d="M1058 747a8 8 0 00-6 9c1 4 7 7 10 6l-1-6 2 6c1 0 6-4 5-10-1-4-6-7-10-5z" class="al"/><path d="M1063 761a22 22 0 01-1-2l-1-3v3a15 15 0 010 3c-2 0-7-2-8-6a8 8 0 015-9 8 8 0 016 1 7 7 0 014 4c1 6-4 9-5 9z" class="am"/><path d="M1064 761l-1-2-2-4h-1v4l1 2c-2 1-7-1-8-5a7 7 0 015-9 8 8 0 016 1 6 6 0 013 4 8 8 0 01-3 9z" class="an"/><path d="M1060 761l-6-5a6 6 0 014-8 7 7 0 015 1 5 5 0 013 3 7 7 0 01-2 7c-1-4-2-5-3-5h-1c-2 1-1 3-1 5l1 2z" class="ao"/><path d="M1062 770a8 8 0 01-4-3 7 7 0 0110 1 8 8 0 01-6 2zM1052 769a8 8 0 01-4-3 7 7 0 0110 1 8 8 0 01-6 2z" class="ap"/><path d="M1055 772a8 8 0 013-5 7 7 0 01-1 10 8 8 0 01-2-5zM1056 762a8 8 0 012-5 7 7 0 010 10 8 8 0 01-2-5z" class="ap"/><path d="M1063 766a8 8 0 01-5 1 8 8 0 012-5c2-2 5-1 5-1a8 8 0 01-2 5zM1055 772a8 8 0 01-5 2 7 7 0 018-7 8 8 0 01-3 5zM1059 772a3 3 0 115 3 8 8 0 01-5-3z" class="ap"/><path d="M1053 765a3 3 0 115 2 8 8 0 01-5-2z" class="ap"/><path d="M1063 768a7 7 0 01-5-1 6 6 0 019-2 8 8 0 01-4 3zM1054 771a8 8 0 01-5-1 6 6 0 019-3 7 7 0 01-4 4z" class="aq"/><path d="M1057 772a3 3 0 114-1 8 8 0 01-1 5 7 7 0 01-3-4z" class="aq"/><path d="M1054 763a3 3 0 114 4 7 7 0 01-4-4z" class="aq"/><path d="M1062 764a3 3 0 110-5 7 7 0 010 5zM1057 772a3 3 0 111-5 7 7 0 01-1 5zM1061 771a7 7 0 01-3-4 6 6 0 018 5 7 7 0 01-5-1z" class="ar"/><path d="M1053 767a7 7 0 01-3-4 6 6 0 018 4 7 7 0 01-5 0z" class="ar"/><path d="M1058 767a1 1 0 110-1z" class="as"/><path d="M1058 768a2 2 0 01-1 1 2 2 0 010-1 2 2 0 011-1 2 2 0 010 1z" class="as"/><path d="M1058 768a2 2 0 010-1 1 1 0 011 1 1 1 0 01-1 0zM1057 767a2 2 0 01-1-1 1 1 0 012 1 1 1 0 01-1 0z" class="as"/><path d="M1059 767a2 2 0 01-1 0 1 1 0 011-1v1zM1057 768a2 2 0 01-1 0 1 1 0 011-1 1 1 0 011 0 2 2 0 01-1 1z" class="as"/><path d="M1057 768a2 2 0 011-1 1 1 0 010 2 2 2 0 01-1-1zM1057 766a2 2 0 010-1 1 1 0 011 2 2 2 0 01-1-1z" class="as"/><path d="M1058 767a1 1 0 010-1 1 1 0 010 1zM1058 768l-1-1a1 1 0 011 0 1 1 0 010 1z" class="at"/><path d="M1058 768a1 1 0 010-1 1 1 0 011 1 1 1 0 01-1 0zM1057 767a1 1 0 011 0 1 1 0 01-1 0z" class="at"/><path d="M1058 767a1 1 0 011 0 1 1 0 01-1 0zM1057 768a1 1 0 01-1-1 1 1 0 011 0 1 1 0 011 0 1 1 0 01-1 1z" class="at"/><path d="M1058 768a1 1 0 010-1 1 1 0 010 1zM1057 767a1 1 0 010-1 1 1 0 011 0 1 1 0 010 1 1 1 0 01-1 0z" class="at"/><path d="M991 813c3-4 11-8 11-8s-4 8-8 12a21 21 0 01-8 5 21 21 0 015-9z" class="al"/><path d="M989 815c7-8 2 1 2 1s10-6 1 2a13 13 0 01-6 3 16 16 0 013-6z" class="am"/><path d="M989 816c6-8 1 1 1 1s9-6 2 1a11 11 0 01-5 3 14 14 0 012-5z" class="an"/><path d="M991 815v2l1-1a72 72 0 00-6 5 42 42 0 005-6z" class="am"/><path d="M988 807c5-2 14-2 14-2s-7 5-12 7a21 21 0 01-10 1 21 21 0 018-6z" class="al"/><path d="M986 809c9-5 1 1 1 1s11-1 0 3a13 13 0 01-6 0 16 16 0 015-4z" class="am"/><path d="M986 809c8-4 0 2 0 2s11-2 1 2a11 11 0 01-6 0 14 14 0 015-4z" class="an"/><path d="M988 810l-1 1h1a72 72 0 00-7 2l7-3z" class="am"/><path d="M997 819c0-6 3-14 3-14v14a29 29 0 01-2 9 29 29 0 01-1-9z" class="al"/><path d="M997 822c0-12 1-1 1-1s3-11 2 1a17 17 0 01-2 6 22 22 0 01-1-6z" class="am"/><path d="M997 822c0-10 1 0 1 0s3-10 2 0a15 15 0 01-2 5 19 19 0 01-1-5z" class="an"/><path d="M998 820v1l1-1-1 7v1a62 62 0 000-8z" class="am"/><path d="M991 802c3 0 8 4 8 4l-9 1c-3 0-5-4-5-4s3-2 6-1z" class="al"/><path d="M990 802c6 0 0 2 0 2s6 4-1 2a6 6 0 01-3-3 8 8 0 014-1z" class="am"/><path d="M989 802c6 0 0 2 0 2s6 3 0 2a5 5 0 01-3-3 7 7 0 013-1z" class="an"/><path d="M990 803l-1 1 1 1a24 24 0 00-4-2 14 14 0 004 0z" class="am"/><path d="M1000 814v-9l5 7c1 3-1 7-1 7s-3-2-4-5z" class="al"/><path d="M1001 815c-3-6 2-1 2-1s1-7 2 0a6 6 0 01-1 4 8 8 0 01-3-3z" class="am"/><path d="M1001 815c-2-5 2 0 2 0s1-7 2-1a5 5 0 01-1 4 7 7 0 01-3-3z" class="an"/><path d="M1002 814l1 1v-1a25 25 0 001 4 14 14 0 00-2-4z" class="am"/><path d="M999 798v8s-3-4-3-7a11 11 0 010-6 11 11 0 013 5z" class="al"/><path d="M999 797c2 6-2 0-2 0s0 7-1 0a7 7 0 010-4 9 9 0 013 4z" class="am"/><path d="M998 797c2 5-1 0-1 0s0 6-1 0a6 6 0 010-3 7 7 0 012 3z" class="an"/><path d="M998 798l-1-1v1a34 34 0 00-1-4v-1a20 20 0 002 5z" class="am"/><path d="M992 798l8 8-10-5a20 20 0 01-5-7 20 20 0 017 4z" class="al"/><path d="M990 797c8 5 0 1 0 1s6 7-1 1a12 12 0 01-3-4 16 16 0 014 2z" class="am"/><path d="M990 797c7 4-1 1-1 1s6 6 0 1a11 11 0 01-3-4 13 13 0 014 2z" class="an"/><path d="M991 798h-1v1l-4-4a41 41 0 005 3z" class="am"/><path d="M990 810a10 10 0 005-1 14 14 0 002-1 14 14 0 00-2 2 11 11 0 00-2 4 10 10 0 004-3 17 17 0 002-2 28 28 0 00-1 3 15 15 0 001 5 15 15 0 001-4v-2a5 5 0 002 1 5 5 0 000-3 10 10 0 00-2-3h1-1l1-1-2 1a13 13 0 000-4 6 6 0 00-1-3 6 6 0 000 3 10 10 0 000 2 19 19 0 00-2-2 9 9 0 00-4-2 10 10 0 003 3l1 1a4 4 0 00-3 1 5 5 0 002 1 8 8 0 00-1 1 10 10 0 00-4 3zm9-4zm1 0z" class="au"/><path d="M1003 805c-2 1-4 2-5 1s0-3 1-5 4-2 5-1 0 3-1 5z" class="at"/><path d="M1003 805c-2 1-4 2-5 1s0-3 1-4 3-2 4-2 1 3 0 5z" class="at"/><path d="M1003 803a2 2 0 110-3 2 2 0 010 3z" class="at"/><path d="M1003 802l2-5-3 4 1 1z" class="at"/><path d="M1015 830c-3-5-11-11-11-11s2 9 6 14a24 24 0 009 8 24 24 0 00-4-11z" class="al"/><path d="M1016 833c-6-11-2 0-2 0s-10-8-2 3a15 15 0 006 4 18 18 0 00-2-7z" class="am"/><path d="M1016 833c-5-10-1 2-1 2s-9-9-2 1a13 13 0 005 3 16 16 0 00-2-6z" class="an"/><path d="M1014 832v2l-1-1a80 80 0 015 7l-4-8z" class="am"/><path d="M1019 824l-15-6s7 8 12 11a24 24 0 0011 3 24 24 0 00-8-8z" class="al"/><path d="M1022 826c-11-7-3 2-3 2s-12-4 0 2a15 15 0 007 2 18 18 0 00-4-6z" class="am"/><path d="M1022 826c-9-6-1 3-1 3s-12-4-2 1a13 13 0 007 1 16 16 0 00-4-5z" class="an"/><path d="M1019 827l1 1h-2a79 79 0 018 4l-7-5z" class="am"/><path d="M1007 835l-1-16s-3 9-3 16a33 33 0 001 11 33 33 0 003-11z" class="al"/><path d="M1006 838c2-12-2-1-2-1s0-13-1 1a20 20 0 001 7 25 25 0 002-7z" class="am"/><path d="M1006 838c1-11-2 1-2 1s0-13-1-1a17 17 0 001 6 21 21 0 002-6z" class="an"/><path d="M1005 836v2l-1-2v9a69 69 0 011-9z" class="am"/><path d="M1016 817l-9 3 9 3c3 0 7-3 7-3s-3-3-7-3z" class="al"/><path d="M1018 818c-7-2 0 2 0 2s-8 3 0 2a7 7 0 004-2 9 9 0 00-4-2z" class="am"/><path d="M1018 818c-6-1 1 2 1 2s-8 3-1 2a6 6 0 004-2 8 8 0 00-4-2z" class="an"/><path d="M1017 819l1 1-1 1a28 28 0 015-1l-5-1z" class="am"/><path d="M1004 829c2-3 1-10 1-10s-5 4-6 7v8s4-2 5-5z" class="al"/><path d="M1003 830c4-6-2-1-2-1s0-8-2-1a7 7 0 000 5 9 9 0 004-3z" class="am"/><path d="M1003 830c3-5-2 0-2 0s0-8-2-1a6 6 0 000 4 8 8 0 004-3z" class="an"/><path d="M1002 829h-1v-1a28 28 0 01-2 5l3-4z" class="am"/><path d="M1008 811l-1 10 5-8a13 13 0 001-7 13 13 0 00-5 5z" class="al"/><path d="M1009 810c-3 6 2 1 2 1s-1 8 1 0a8 8 0 000-5 10 10 0 00-3 4z" class="am"/><path d="M1010 810c-4 6 1 0 1 0s-1 7 1 1a7 7 0 000-4 9 9 0 00-2 3z" class="an"/><path d="M1010 811h1v1a40 40 0 011-5 23 23 0 01-2 4z" class="am"/><path d="M1016 813l-10 8s8-2 12-5a23 23 0 007-6 23 23 0 00-9 3z" class="al"/><path d="M1019 812c-10 4 0 1 0 1s-8 7 1 1a14 14 0 004-4 18 18 0 00-5 2z" class="am"/><path d="M1019 812c-9 4 1 1 1 1s-8 6 0 1a12 12 0 004-4 15 15 0 00-5 2z" class="an"/><path d="M1018 813h1l-1 1 6-4a47 47 0 01-6 3z" class="am"/><path d="M1013 822a9 9 0 00-1 0 5 5 0 002-2 5 5 0 00-3-1l1-1a12 12 0 003-3 11 11 0 00-4 1 21 21 0 00-3 3 11 11 0 001-2 7 7 0 001-4 6 6 0 00-3 3 15 15 0 000 4l-2-1 1 1-1-1v1a11 11 0 00-2 3 5 5 0 000 4 6 6 0 002-2 20 20 0 000 2 17 17 0 000 6 17 17 0 002-6 31 31 0 000-4 20 20 0 001 4 11 11 0 004 3 12 12 0 00-1-5 16 16 0 00-2-2 15 15 0 002 2 11 11 0 005 1 12 12 0 00-3-4zm-7-2zm0 0z" class="au"/><path d="M1003 818c1 2 3 3 5 2s1-3 0-5-4-3-5-2-2 3 0 5z" class="at"/><path d="M1003 818c1 2 3 3 5 2s1-3-1-5-3-3-4-2-1 3 0 5z" class="at"/><path d="M1003 816a2 2 0 003-2 2 2 0 00-3-1 2 2 0 000 3z" class="at"/><path d="M1004 815l-3-6 3 5v1zM1002 824c2 0 4 0 4-2s-1-2-3-3-4 1-4 2 1 3 3 3z" class="at"/><path d="M1002 824l4-2c0-1-1-2-3-2l-4 1c-1 1 2 2 3 3z" class="at"/><path d="M1001 823a1 1 0 10-2-2 2 2 0 002 2z" class="at"/><path d="M1001 822l-5-2 5 1v1z" class="at"/><path d="M1272 522c14-13 31-6 68 11s49 17 60 18 43 29 61 32 22 5 22 5l5 12s-5 11-47 14-61-4-92 15-58 19-95 12-52-9-59-12 15-15 50-11 46-4 41-8-14 2-38 0-64-17-64-17 74-58 88-71z" class="ac"/><path d="M1461 583c-18-3-51-30-61-32s-23 0-60-18l-20-9c2 1 34 19 43 26 10 7 11 16 28 21a43 43 0 0128 25c3 7-24 5-42 12s-33 24-49 31a108 108 0 0021-11c31-19 51-12 93-15s46-13 46-13l-5-12-22-5z" style="mix-blend-mode:multiply" fill="#7ebb15"/><path d="M1280 585c14-4-7-6-20-11s-18-11-1-11 15-6 10-10-9-15 4-15 10-12 10-16 4-7 5-7a24 24 0 00-16 7c-14 13-89 71-89 71s19-8 34-8 49 4 63 0zM1303 619c1-12-15-12-27-10l10 1c5 4-6 11-41 8-20-2-36 1-45 4a242 242 0 0150 3c27 5 51 6 53-6z" class="aw"/><path d="M31 494l49-4 31 11h11l80 30 57-11 22-12 16-8v-6l-42-33-50-19-39-19-21-3-34 18-34 24-33 10-13 14v8z" class="ax"/><path d="M31 488l49-4 31 11h11l80 30 57-11 22-12 16-8-2-9-40-30-50-19-39-19-21-3-34 18-34 24-33 10-13 14v8z" class="ay"/><path d="M77 456l11 11 32 3 40 12 23 12 39-3 29-16 22-6 1-15-11-8-62-21-28-11-30-3-36 14-16 13-14 7v11z" class="ax"/><path d="M77 449l11 11 32 3 40 13 23 11 39-2 29-17 22-6 1-8-11-14-62-21-28-11-30-3-36 14-16 13-14 7v10z" class="ay"/><path d="M186 461l-21-7-14 3v3l11 6 19 3 8 4h7l9-2 1-5-13-4-7-1zM134 424l-15 2-5 5 2 5h7l3-3 7-2 4-4-3-3z" class="az"/><path d="M145 437l4-20 13-13 2-8 30-3 33 5 27 1 7 7 2 6 7 37-7 3-13 2-28-3-34 3-22-10-17-2-4-5z" class="ax"/><path d="M164 396l1 9 30 15 30-9 8 3 11-3 4-4 4 1 9-2-7-7-27-1-33-5-30 3z" class="ba"/><path fill="#898989" d="M225 411l-30 9 2 13-2 6v7l-3 6-4 2 34-3-2-18 2-7-3-3 3 1 3-9v-4z"/><path d="M251 451l-3-5-9-3-4-6-2-8 6-8-8 8-1 14-8 8 28 3 13-2-12-1z" class="ba"/><path d="M166 444l4-10 1-7 2-4 1-4 2 1 1 8-1 7 1 4-1 4 1 7-11-6z" class="bc"/><path d="M158 414l2-4 5-5-1-9-2 8-13 13-4 20 5-18 8-5z" class="ba"/><path d="M181 407l14 6 11-1 8-1 1-3-8-7-9 2-7-4-9 3-1 5z" class="bd"/><path d="M205 402l-7 1-7-4-9 3-1 5h2l1-3 8-2 4 2 9-2z" class="az"/><path d="M179 461l-21-7-14 3v3l11 6 19 3 15 4 9-2 1-5v-2l-13-2-7-1z" class="ax"/><path d="M179 459l-21-7-14 3v3l11 6 19 3 15 5 9-3 1-5-13-4-7-1z" class="bd"/><path d="M134 424l-18 2-5 3v1l1 5 8 1 3-4 7-2 4-4v-2z" class="ax"/><path d="M131 422l-15 2-5 5 1 4 8 1 3-3 7-2 4-5-3-2z" class="bd"/><path d="M248 485l-20 12-9 2v4l10 5 22 2 12-11 9-2 3-11v-3l-11 1-8 5-7-2-1-2z" class="ax"/><path d="M247 483l-19 10-9 3v4l10 4 22 2 12-10 9-3 3-10-11-2-8 5-7-2-2-1z" class="bd"/><path d="M120 463v7l29 9-29-8-31-4v-7zM183 487v7l34 1 11-2 11-6 10 2 7-3 8-5 9-8h6l-6-4 1-15-1 8-22 6-29 17-39 2zM285 486l-10-1v-2l-3 10-9 3-12 10v4l9-4 8-2 7-4 7-10 4-2-1-2zM188 454l29-2 17 2h16l-28-3-2-18 2-7-3-3 3 1 3-9v-4l-30 9 2 13-2 6v7l-3 6-4 2z" class="az"/><path style="mix-blend-mode:multiply" fill="#c6c6c6" d="M233 414l8 1-2 6-6 8 2 8 4 6 9 3 3 5 12 1 10 1-3-4-7-37-2-6-9 2-4-1-4 4-11 3z"/><path d="M191 399l-4 5v4l4 4-10-5 1-5 9-3z" class="az"/><path d="M158 414l1 8 2 6v16h1l2-13v-8l3-5 2-5 3-3 4 1-11-6-5 5-2 4z" class="bc"/><path d="M111 495v6l16 2 2-5-7-3h-11z" class="az"/></g></svg>