<svg xmlns="http://www.w3.org/2000/svg" xmlns:xlink="http://www.w3.org/1999/xlink" viewBox="0 0 1501 1001"><defs><radialGradient id="a" cx="1014.3" cy="1166.4" r="51.8" gradientTransform="matrix(0 1 1 0 -471 -549)" gradientUnits="userSpaceOnUse"><stop offset="0" stop-color="#c0a373"/><stop offset="1" stop-color="#fff" stop-opacity="0"/></radialGradient><linearGradient id="b" x1="263.2" y1="744.9" x2="263.2" y2="650.2" gradientTransform="matrix(1 0 0 -1 -146 1444)" gradientUnits="userSpaceOnUse"><stop offset="0" stop-color="#a0edf0"/><stop offset="1" stop-color="#45dbe2"/></linearGradient><style>.c{isolation:isolate}.b{fill:#70b344;stroke:#5f732e}.aa,.at,.b,.t,.u,.x,.y{stroke-miterlimit:10}.c{opacity:.25}.d{fill:#5c4328}.aa,.d,.e,.f,.g,.h,.i,.j,.k,.l,.m,.n,.o,.p,.q,.x,.y{fill-rule:evenodd}.e{fill:#544730}.f{fill:#877657}.g{fill:#ae9c87}.h{fill:#68543c}.i{fill:#9d8264}.j{fill:#b49871}.k{fill:#8f7e5f}.l{fill:#857c68}.m{fill:#a59b84}.n{fill:#67604f}.o{fill:#bdb29a}.p{fill:#c1b09a}.q{fill:#cdb186}.s{fill:#ddc02c}.t,.u{fill:#3f2b0f}.aa,.at,.t,.u,.x,.y{stroke:#1d150c}.u{stroke-width:1.14px}.x,.y{fill:#571c10}.y{stroke-width:1.04px}.aa{fill:#c0a373}.ab{fill:#78a015}.ac,.aw{fill:#7ebb15}.ad{fill:#94d31a}.ae{fill:#897d6f}.af{fill:#635a52}.ah{fill:#91887b}.al{fill:#8ab550}.am{fill:#97c261}.an{fill:#a9d171}.ao{fill:#b3db7b}.ap{fill:#dcf5f5}.aq{fill:#f2ffff}.ar{fill:#fff}.as{fill:#fddfb3}.at{fill:#1d150c}.au{fill:#81a653}.az{mix-blend-mode:multiply}.aw{mix-blend-mode:screen}.ax{fill:#bdbdbd}.ay{fill:#d9d9d9}.az{fill:#cfcfcf}.ba{fill:#cbcbcb}.bc{fill:#c6c6c6}.bd{fill:#e8e8e8}</style></defs><g style="isolation:isolate"><path class="b" d="M1001 501h250v250h-250zM1251 251h250v250h-250zM1001 251h250v250h-250zM1001 1h250v250h-250zM1251 1h250v250h-250zM751 251h250v250H751zM751 1h250v250H751zM751 501h250v250H751zM501 251h250v250H501zM251 251h250v250H251zM501 501h250v250H501zM251 501h250v250H251zM751 751h250v250H751zM251 751h250v250H251zM1001 751h250v250h-250zM501 1h250v250H501zM1251 501h250v250h-250zM1251 751h250v250h-250zM501 751h250v250H501zM251 1h250v250H251zM1 1h250v250H1zM1 751h250v250H1zM1 251h250v250H1zM1 501h250v250H1z"/><use class="c" transform="matrix(.07 .05 -.05 .07 318 486)" xlink:href="#c"/><path class="d" d="M441 623l5-9 7-10 4-9a13 13 0 00-1-10c-4-6-12-8-18-12a77 77 0 01-9-7 32 32 0 00-5-3 38 38 0 00-5-2 23 23 0 01-5-3l-5-4-9-7a4 4 0 00-1 0l-20-14-10-6c-3-2-6-5-10-5a4 4 0 00-1-1 32 32 0 00-4-3 34 34 0 01-5-4 37 37 0 00-6-5l-7-4-6-3-5-3a7 7 0 01-1 1c-2 3-3 5-6 6-1 2-5 2-7 0a8 8 0 01-1 3 22 22 0 01-2 3c-3 3-3 7-4 11a2 2 0 01-2 1v1a2 2 0 01-1 1 10 10 0 01-4 3 29 29 0 00-3 3 12 12 0 00-2 3 19 19 0 00-1 5 5 5 0 004 3 22 22 0 019 4l9 7 20 14 21 14 42 27 21 13 10 7a8 8 0 006 2 8 8 0 004-4l1-1 1-1v1a3 3 0 002-3z"/><path class="e" d="M354 517c-4-3-6-6-9-2l-4 5c-1 2 6 6 7 7 2 1 10 7 11 5 1-1 5-7 4-8-1-3-4-4-6-5zm0 0l3 2c2 1 5 2 7 5 1 2-4 7-5 8-1 2-9-4-11-5s-9-5-7-8l4-4c3-5 5-1 9 2z"/><path class="f" d="M354 517c-3-3-7-7-9-2-3 5-9 4 2 11 2 2 11 8 12 6l4-5c1-3 1-3-1-5a9 9 0 00-4-2 42 42 0 01-4-3z"/><path class="g" d="M354 517c-2-2-4-4-6-4a3 3 0 00-2 2l-2 4c1 2-1 2 3 5 1 1 6 5 8 5 2-1 0 5 5 1 1-1 3-5 3-8h-1a9 9 0 00-3-2 41 41 0 01-5-3zm6 6h-1l-3-1 4 1zm-1 5h-1c-1-2 0 0 1 0zm-15-9v4c0 1-3-2-2-3l2-1z"/><path class="h" d="M391 545l-4 8s2 5 4 3c2-1 6-8 6-10 0-1-3-7-6-1zm0 0c2-6 6-2 7 1 0 2-5 9-7 10-2 3-4-1-4-3-1-1 3-7 4-8z"/><path class="i" d="M391 545l-3 5-1 3 3 4 5-6c1-1 3-4 2-5-2-5-4-5-6-1z"/><path class="j" d="M396 549l1-3c-1-4-3-4-5-3a16 16 0 010 1l-3 6c-2 3 0 2 0 4a2 2 0 003 0l2-2a20 20 0 002-3z"/><path class="h" d="M303 521l-6 7s1 5 3 4l9-8c0-1-2-8-6-3zm0 0c3-5 6 0 6 2 0 3-7 8-8 9-3 2-4-2-4-4-1-1 5-6 6-7z"/><path class="i" d="M303 521l-5 5s-2 1-1 2c0 2 0 3 2 4 1 1 5-3 6-4l4-5c-1-5-4-5-6-2z"/><path class="j" d="M307 526l2-3c-1-3-3-5-4-4a17 17 0 01-1 2l-5 5c-2 2 0 2 0 3a2 2 0 002 1l3-2a22 22 0 003-2z"/><path class="e" d="M374 580c-7-3-7-6-12-9-3-2 8-13 11-7l3 2 6 5-5 6-3 3zm0 0l3-3 5-6c1-1-2-2-3-3-2-1-5-2-6-4-3-6-13 5-11 6 5 4 5 6 12 10z"/><path class="k" d="M374 580c-7-3-7-7-12-10-3-1 9-13 12-6l5 4c3 3 4 2-1 8l-4 4z"/><path class="g" d="M362 568c2-4 9-9 12-4l5 4c2 2 3 3 2 4-3-3-4 0-3 1a3 3 0 001 1l-1 2a29 29 0 01-3 3 5 5 0 01-1-2c0-2 2-8-2-1-4-1 0-5 1-5 4-7 0-3-3-2-7 3 3-3 3-3-1-2-4 1-5 1-4 2-6 2-6 1z"/><path class="h" d="M399 597c-3-1-9-4-5-8l3-3c1-4 3-2 7 0 1 1 11 4 10 6s-4 8-7 8a30 30 0 01-4-1l-4-2zm0 0l4 1 5 2c2 0 5-7 6-8 0-2-10-5-12-6-6-4-3 0-7 3-5 4 0 6 4 8z"/><path class="i" d="M399 597c-1-1-11-4-4-8 3-3 1-7 7-4 3 2 13 5 12 7-7 12-5 8-14 6a4 4 0 01-1-1z"/><path class="j" d="M404 587l4 1a6 6 0 01-2 2c-1 0 1 4 6 0l2 2-2 2a19 19 0 00-3 3c-1 2-6 2-8-1 0-1-10-3-5-5 1-3 1-4 5-4 1-3 0 1 3 0z"/><path class="h" d="M444 608c-3-2-10-4-6-8l3-4c2-4 3-1 7 0 2 1 11 4 10 7-1 1-4 8-7 7a31 31 0 01-4-1l-3-1zm0 0l3 1 5 1c2 0 5-6 6-8s-10-5-12-6c-6-4-3 0-7 3-5 5 0 6 5 9z"/><path class="i" d="M444 608c-2-1-11-4-5-9 3-2 1-7 7-3 3 1 13 4 12 6-6 12-5 8-13 6a4 4 0 01-1 0z"/><path class="j" d="M449 597l3 1a5 5 0 01-2 2c-1 1 1 5 6 0l2 2-1 2a19 19 0 00-3 3c-2 2-6 2-8-1-1-1-10-2-5-5 0-3 0-4 4-4 1-2 0 1 4 0z"/><path class="e" d="M333 548c6-4 8-5-1-11-5-4-5-2-9 1v4c1 3 7 6 10 6zm0 0c-3 0-10-4-10-6a1 1 0 01-1 0l1-4c4-4 4-6 10-1 8 6 7 7 0 11z"/><path class="l" d="M333 548c3-2 9-4 3-9-10-8-9-5-14 0l1 3c-1 1 8 7 10 6z"/><path class="m" d="M337 545c2-1 2-3-1-6-9-7-9-5-12-2a1 1 0 000 1c6 4 1 4 7 6h2c1 2 3 2 4 1zm-2-5c0 1 0 2-1 1-6-4-4-5 1-1z"/><path class="e" d="M442 621c6-4 8-5 0-11-6-4-6-2-9 1-2 2-2 2-1 4 1 3 8 6 10 6zm0 0c-3 0-10-4-10-6v-4c4-4 4-6 10-1 8 6 7 7 0 11z"/><path class="l" d="M442 621c3-2 9-4 3-9-10-8-8-5-13 0v3c0 1 8 7 10 6z"/><path class="m" d="M447 618c1-1 1-3-2-6-9-7-9-5-12-2a1 1 0 001 1c5 4 0 4 6 6h2c1 2 3 2 4 1zm-3-5c0 1 0 2-1 1-6-4-4-5 1-1z"/><path class="e" d="M382 575c3 3 9 8 12 8 2 0 1-5-1-6l-4-2c-5-4-3-2-7-1v1zm0 0v-1c3-1 1-3 7 0l4 2c2 2 4 8 1 7l-12-8z"/><path class="k" d="M382 575c5 5 15 12 13 6-1-5-2-4-6-7-6-3-3-1-7 0v1z"/><path class="g" d="M395 583v-2c-1-5-2-4-6-7-5-3-4-1-7 0l7 3c3 8 2-1 5 4a4 4 0 001 2z"/><path class="h" d="M343 529c-3-1-4-5-6-1l-4 4c-1 2 4 4 5 5 2 3 4 5 7 1l4-7-6-2zm0 0l6 2-4 7c-3 4-5 2-8-1-1-1-6-3-4-6l3-3c3-4 4 0 7 1z"/><path class="j" d="M343 529c-3-1-4-5-7 0-1 1-7 3 1 8 1 0 5 8 10-2 2-3 5-4-2-6h-2z"/><path class="i" d="M343 529c-3-1-4-4-6-2a5 5 0 01-1 1v1l-3 2c1 2 8 5 8 8 1 1 3 0 4-1a19 19 0 002-3 3 3 0 00-2-2c-2-1-2-2-1-4a6 6 0 00-1 0z"/><path class="e" d="M317 543c-6-3-6-5-11-9-3-2 8-13 11-7l3 2c1 1 6 4 5 5 0 2-3 5-4 6l-4 3zm0 0l4-3 4-5-2-3-6-5c-3-5-13 5-11 7 5 4 5 6 11 9z"/><path class="l" d="M317 543c-6-3-6-6-11-9-3-1 9-13 12-6l5 4c3 3 4 1-1 7l-5 4z"/><path class="m" d="M311 527c3-2 6-2 7 1l5 4c2 2 4 2 0 5a7 7 0 01-1-1c-1-2-4-2-5-2-4 3-2 0-4 1-1 1-4-3-2-4v-4zm11 12a16 16 0 00-3-2c-2-1-1 0-3 1-1 1-2 3 2 3a14 14 0 001 0l2-2z"/><path class="n" d="M426 597c-2-2-10-7-10-9-1-1 1-6 2-7 4-4 11 2 15 4 2 2 9 7 7 10l-3 4c-1 1-5-1-6-2h-5zm0 0l4 1 7 2a54 54 0 004-5c3-4-12-13-15-15-7-3-11 1-11 8 0 2 10 8 11 9z"/><path class="l" d="M426 597c-1-1-11-8-10-9-1 0-1-15 12-6 3 2 15 9 13 13-5 5-2 6-9 3l-6-1z"/><path class="m" d="M416 586c0-4 2-9 10-5l1 1a3 3 0 004 1c3 3 10 8 10 11-2-1 0 6-11 1-4-2-1-2 0-3 4-3-3 0-4 0-6 0-1-6-6-5l-4-1z"/><path class="e" d="M377 581c3 3 9 11 13 11 3 0 2-6 0-9l-4-3c-6-5-3-2-8-2l-1 3zm0 0l1-3c4-1 2-3 8 2l4 3c3 3 3 10-1 9s-9-7-12-11z"/><path class="k" d="M377 581c5 7 15 16 15 8 0-6-2-5-6-9-6-6-4-2-8-2l-1 3z"/><path class="g" d="M392 589c-1-6-2-6-6-9l-1-1a2 2 0 01-2 0 3 3 0 00-4 0c0 4 8 2 10 7-2 3-5-1-6-2-1 2 7 6 7 6l2-1z"/><path class="e" d="M447 590c2 3 9 9 11 6 2-2 1-12-1-13l-4-2c-5-3-3 0-6 5v4zm0 0v-4c3-6 1-8 6-5l4 1c2 2 4 13 1 15s-8-3-11-7z"/><path class="k" d="M447 590c5 7 14 12 12 0-1-9-2-7-6-9-5-3-3 0-6 5v4z"/><path class="g" d="M459 589c-1-8-3-6-6-8a14 14 0 00-1-1l-1 1c-2 0-3 4-3 5 1 7 6-4 8 2-1 6-3 2-4 2-1 4 6 4 6 4 1 1 1-2 1-5z"/><path class="h" d="M396 560l-2-4c-1-2-1 1-2 2l-1 1h2l2 1a3 3 0 002 1l-1-1zm0 0h-2l-3-1c-2 0 0-1 1-2 0 0 1-3 2-1l2 4z"/><path class="i" d="M396 560l-2-4c-1-2-2 2-2 2s-3 1-1 1l3 1h2z"/><path class="h" d="M395 561h-1l-1 1c-3 1-5 4-5-1 0-1-1-3 1-3s-1 2 3 2l2 1h1zm-1 0a3 3 0 00-1-1c-1 0-4 0-3-1-1-1-3-1-2 1s0 5 3 3l3-2zm1 0h-1z"/><path class="i" d="M395 561l-2-1s-4 0-3-1c0-1-3-1-2 1 0 1 0 5 3 3l3-2z"/><path class="h" d="M371 543c1-1 5 3 6 4 3 2-2 1-4 0l-3-4h1zm0 0l-1 1c4 3 3 4 7 4a4 4 0 000-1l-6-4z"/><path class="k" d="M371 543c1-1 4 3 5 4l2 1c-5 0-5-2-8-4l1-1z"/><path class="h" d="M307 528c1 2-4 5-5 6-2 3-1-2 1-3l4-3zm0 0c-4 3-5 2-6 6a4 4 0 001 0c1-1 5-4 5-6z"/><path class="k" d="M307 528c0 2-4 5-4 6l-2 1c1-5 2-4 6-7z"/><path class="h" d="M402 581v3c-1 1-4-3-6-5-2-1-3-4 1-1 3 3 2 2 5 3zm0 0a21 21 0 01-5-3c-5-4-4 0-2 1l4 4c2 3 6 0 3-2z"/><path class="k" d="M402 581c0 1 2 1 0 3-3 2-3-3-6-5-2-1-3-5 1-1a18 18 0 005 3z"/><path class="h" d="M394 584a19 19 0 00-3-1c1 2 2 2 2 5a3 3 0 000 1c1 0 2-4 1-5zm0 0c1 0-1 9-2 4 0-3-4-7 2-4z"/><path class="k" d="M394 584l-3-1 1 2c1 2 0 5 2 3v-4z"/><path class="h" d="M441 622a22 22 0 00-3-1l1 5a3 3 0 001 1l1-5zm0 0c1 0-1 9-2 4 0-3-4-7 2-4z"/><path class="k" d="M441 622l-3-1v2c2 2 1 5 2 3l1-4z"/><path class="h" d="M383 591v3l2 1c1 0 7 2 6 0 0-1-4-4-6-4a5 5 0 00-2 0zm0 0h1c2-1 4 2 6 3 2 3-2 1-4 1l-3-1v-3z"/><path class="i" d="M383 591v3c2 2 2 1 5 2 0 0 5 0 2-2-2-1-4-4-6-3h-1z"/><path class="e" d="M320 526c1 1 6 3 7 5l5 4c-1 1-13-6-14-8s-1-2 2-1zm0 0c-3 0-3-1-2 1l14 8-4-3a24 24 0 00-2-2l-6-4z"/><path class="l" d="M320 526l7 5a19 19 0 003 2c2 2 3 3-2 0l-10-6s-2-2 0-1h2z"/><path class="h" d="M342 543a22 22 0 00-2-2l-2 5 4-3zm0 0c0 2-7 6-4 2 1-2 1-8 4-2z"/><path class="k" d="M342 543l-2-2-1 2c0 2-3 4-1 3l4-3z"/><path class="h" d="M332 552a22 22 0 001 3c2-3 0-3 3-7l-4 4zm0 0c-1-1 7-8 4-3-2 3-2 10-4 3z"/><path class="k" d="M332 552l1 3 1-3c1-3 4-5 1-4 0 0-4 3-3 4z"/><path class="n" d="M340 526h4c1-1 3 1 4 2s3 1 1 1a51 51 0 01-6-1c-1 0-3 0-3-2zm0 0c0 2 2 2 3 2l6 1a7 7 0 00-1-1l-4-2h-4z"/><path class="l" d="M340 526h4c1-1 3 2 4 2 0 0 4 2 0 1a13 13 0 01-3 0l-2-1a3 3 0 01-2 0l-1-2z"/><path class="e" d="M334 536l4 3c1 1 0 3-1 1l-2-2s-4-3-2-3l1 1zm0 0l-1-1c-2 0 4 4 4 4l1 1v-1l-4-3z"/><path class="k" d="M334 536c1 0 2 3 4 3 1 1 1 2-1 1l-2-2a24 24 0 00-1-1c-2-2-1-2 0-1z"/><path class="e" d="M306 535l4 4c2 2 0 2-2 0l-1-1s-4-3-2-3h1zm0 0h-1l3 3 2 2-1-1-3-4z"/><path class="k" d="M306 535l3 4c1 0 2 2-1 0 0 0 1-1-1-2a23 23 0 00-2-1c-2-1 0-2 1-1z"/><path class="h" d="M313 522a43 43 0 00-3 4c1 0 2-2 5-1 2-1-1-2-1-2l-1-1zm2 3zm-2-3l2 1v2c-3 0-3 1-5 2s3-5 3-5z"/><path class="i" d="M313 522l-2 3-1 1c1-1 4-2 5-1 1 0 2-1 0-1l-2-2z"/><path class="h" d="M362 556c2-1 2 0 3 1l1 2a9 9 0 002 1c1 1-2 4-3 3-1 0 1-2-1-5l-2-2zm0 0l3 4v3l2-2a9 9 0 01-1-2l-1-2-3-1zm3 7"/><path class="i" d="M362 556c2-1 2 0 3 1l1 2 1 1-1 3c-1 1-1-3-1-3a10 10 0 00-3-3v-1z"/><path class="h" d="M365 555l3 4 1 1-1-2c0-2 1-2-2-3zm0 0a3 3 0 011 0c2 0 2 0 2 2l1 3c0 2-1-1-1-1-2 0-3-2-3-4z"/><path class="i" d="M365 555l2 4c1 1 1-1 1 1 1 1 2 0 0-1-1-1 1-4-1-4h-2z"/><path class="e" d="M352 531c-1-1-2 1-2 2l3-1-1-1zm-2 3l2-3h1c2 1-1 1-1 1l-3 2s2-4 3-3z"/><path class="k" d="M352 531c-1-1-2 1-2 2l2-1c1 0 2 0 1-1h-1z"/><path class="e" d="M339 522l-2 3 4-2-2-1zm-2 3l2-3 1 1c3 1 0 1 0 1l-3 1 2-3z"/><path class="k" d="M339 522c-1-1-1 2-2 2-1 2 3 0 3 0 1-1 2 0 0-1l-1-1z"/><path class="h" d="M344 540c0 1-3 1-1 3s2-3 2-3a3 3 0 00-1 0zm1 0h-1l1 3a1 1 0 01-2 1c-2-3 1-3 1-4z"/><path class="i" d="M344 540c0 1-3 1-1 4l1-1 1-3h-1z"/><path class="e" d="M381 569l5-1c2-1 1-1 2 1v2l-4 1c-1 1-1-1-2-2l-1-1zm0 0l2 1 1 2c2-2 3-1 3-1v-2c0-2 0-2-1-1l-5 1z"/><path class="k" d="M381 569l5-1c2-1 1 0 2 1v2c1 1-2 0-4 1s-2-2-2-2l-1-1z"/><path class="e" d="M359 570c1 3-2 5 1 4 2-1 4 1 3-1l-2-2c-1-2-2-1-2-1zm0 0c-1 0 1-1 2 1l3 2c0 2-3 0-4 1-3 1 0-1-1-4z"/><path class="k" d="M359 570c1 2-2 5 1 4 2-1 4 1 4-1-1-1-2 0-3-2s-2-1-2-1z"/><path class="e" d="M374 580c1-1 2 1 3 2 4 3 3 5 2 3l-3-2c-2-2-3-1-2-3zm0 0v1l4 3 2 2a17 17 0 00-3-3l-3-3z"/><path class="k" d="M374 580c1-1 2 2 3 2 0 0 4 4 2 4a7 7 0 00-1-2c-2 0-2-2-4-3v-1z"/><path class="h" d="M407 602c2-1 2 0 3 1l1 2a10 10 0 002 1c1 1-2 4-3 3s1-2-1-5l-2-2zm0 0l3 4v3s3-2 2-3a8 8 0 01-1-1l-1-2-3-1zm3 7"/><path class="i" d="M407 602c2-1 2 0 3 1l1 2 1 1-1 3c-1 1-1-3-1-3a10 10 0 00-3-4z"/><path class="h" d="M436 602l-1 2-3-1c0-1-7-5-4-5l7 2a7 7 0 011 2zm0 0v-1c-1-2-4-2-7-2-4-1 1 2 2 3l3 1 2-1z"/><path class="i" d="M436 602l-1 1c-3 0-2-1-5-2-1 0-5-4-1-3 2 1 6 1 7 3v1z"/><path class="h" d="M420 611l6 3c4 2-1 2-3 0l-4-3h1zm0 0s-1 0 0 0c3 3 3 4 7 4a5 5 0 00-1-1l-6-3z"/><path class="k" d="M420 611c1-1 5 2 6 3l1 1c-4 0-4-1-7-4-1 0 0 0 0 0z"/><path class="h" d="M439 588c1-1 5 3 6 4 3 2-2 1-4 0l-3-4a1 1 0 011 0zm0 0s-1 0 0 0c3 4 3 4 7 4a4 4 0 00-1 0l-6-4z"/><path class="k" d="M439 588c1-1 4 3 6 3l1 2c-5 0-5-2-8-5h1z"/><path class="h" d="M450 614c-1 1-5-3-6-3-3-2 2-2 3-1l4 4h-1zm0 0s1 0 0 0c-3-3-3-4-7-4a4 4 0 001 0c2 1 5 5 6 4z"/><path class="k" d="M450 614c-1 1-4-3-6-3l-1-2c5 0 4 2 7 5 1 0 0 0 0 0z"/><path class="e" d="M318 545c3 2 9 7 12 7 2 0 0-4-2-5l-3-2c-6-4-3-2-7-1v1zm0 0v-2c3 0 1-2 7 2l3 2c3 1 5 6 2 5l-12-7z"/><path class="l" d="M318 545c5 4 15 10 13 6s-3-4-6-6c-6-4-4-2-7-2v2z"/><path class="m" d="M331 552v-1c-2-4-3-4-6-6-6-4-4-2-7-2l7 4c4 7 2 0 5 4a4 4 0 001 1z"/><path class="n" d="M410 586l4 1 2 3v1a36 36 0 01-4-2c-1 0-2-1-2-3zm0 0l2 3 4 2a5 5 0 000-1l-3-3-3-1z"/><path class="l" d="M410 586l3 1c2 0 2 3 3 3 0 0 2 3-1 1a11 11 0 01-2-1l-1-1-1-1-1-2z"/><path class="n" d="M415 584l-2 1c-2 1 0 1 1 1l1 1v-2-1a2 2 0 000-1v1zm0 0a1 1 0 000-1v4l-1-1c-1 0-3 0-1-1l2-1z"/><path class="l" d="M415 584l-2 1c-2 1 1 1 1 1s0 2 1 1v-2-1-1a1 1 0 010 1z"/><path class="n" d="M418 576l2 2 4 1h1a39 39 0 00-4-3l-3-1v1zm0 0h3l4 3a5 5 0 01-1 0l-3-1-3-2z"/><path class="l" d="M418 576l2 2 4 1s3 1 0-1a13 13 0 00-1-1l-2-1a3 3 0 00-1-1l-2 1z"/><path class="h" d="M409 587a22 22 0 00-2-2l-4-1a6 6 0 002 2c1 1 6 3 4 1zm0 0l-3-1a6 6 0 01-3-2l4 1 2 2z"/><path class="i" d="M409 587l-1-1-1-1a15 15 0 00-4-1l1 1a4 4 0 002 2h3z"/><path class="h" d="M412 600a24 24 0 00-3 1l3 4v-5zm0 0c1 0 2 9-1 4-1-2-6-5 1-4z"/><path class="k" d="M412 600h-3l1 2c2 2 2 5 3 3l-1-5z"/><path class="n" d="M360 537c-5-3-7-6-12 0-1 2-5 7 0 8l7 5 4 2c5 4 9 3 12-3 2-3-1-5-4-7a31 31 0 00-7-5zm0 0l7 5c3 2 6 4 4 7-3 6-7 7-13 3l-3-2-7-5c-5-1-2-6 0-9 5-5 7-2 12 1z"/><path class="l" d="M360 537l-6-4c-5 0-13 11-6 12 3 1 4 5 8 5 2 1 9 10 15 0 1-2 2-4-1-6l-10-7z"/><path class="m" d="M360 537l-1-1c-4 3-3 0-2-1a12 12 0 00-3-2 3 3 0 00-2 1c-3 3-7 10-3 9 3 0 6 6 8 4 3-6 6-7 7-7a18 18 0 00-4-3zm9 16c-1 0-2-2-6 0-3 1-5-2-2-3 1-1 7-4 1-2-6 3-4-2-2-3 0 0 1-3 5-5l5 4c3 2 2 4 1 6a14 14 0 01-2 3z"/><path class="o" d="M354 534l3 1-1 2c-1 1-1 1 1 2a4 4 0 002-1c-1 2-3 2-4 1s0-3 1-4a6 6 0 01-2-1zm2 2z"/><path class="n" d="M334 501c-6-4-8-6-12-1-2 2-6 7-1 9l7 4 4 2c5 4 9 4 12-3 2-3-1-4-4-6a31 31 0 00-6-5zm0 0l7 5c2 2 5 3 4 7-4 6-8 7-13 3l-4-2-7-5c-5-2-2-7 0-9 5-5 7-3 13 1z"/><path class="l" d="M334 501l-7-4c-4-1-12 11-6 12 3 0 4 4 9 5 1 0 8 10 14-1 1-2 2-3-1-6l-9-6z"/><path class="m" d="M334 501l-1-1c-5 3-4 0-3-1a12 12 0 00-3-2 3 3 0 00-2 0c-3 4-6 11-3 10 3 0 6 6 8 3 3-5 6-6 8-7a17 17 0 00-5-2zm8 15c-1 0-2-2-6 0-3 2-5-2-2-3l2-1c-7 2-5-3-3-3 0 0 1-3 5-5l5 4c3 2 2 3 1 5a14 14 0 01-2 3z"/><path class="o" d="M327 498l3 1-1 1 1 2a5 5 0 002 0h-4c-1-1 0-2 1-3a6 6 0 01-2-1zm3 1z"/><path class="n" d="M375 563c-6-4-8-5-5-10 2-4 3-4 8-4l7 5c2 2 1 7 2 10 1 2-2 4-5 3l-7-4zm0 0a40 40 0 005 4c4 2 8-1 8-3l-2-10-8-5c-5-1-6 0-8 3-3 6-2 7 5 11z"/><path class="l" d="M375 563c-4-2-6-3-6-6-1-1 3-8 5-8 7 0 4 1 11 4 3 2 1 8 2 11 1 1 0 2-2 3-3 2-7-1-10-4z"/><path class="m" d="M369 555c1-2 3-6 5-6 7 0 4 1 11 4a3 3 0 011 2c-1 1-2 3 0 4h1a18 18 0 000 5c-6 4-6-2-9-2-3-1-2-4-6-4a3 3 0 01-3-3zm8-4c-3-2-5 3-2 2h3l-1-2z"/><path class="o" d="M379 551c2 0 5 1 6 3s-2 2-1 3l1 2c-1-1-3-2-1-4 1-2-4-3-5-4z"/><path class="n" d="M425 631c-6-4-7-5-4-11 2-3 3-4 7-3 2 0 7 4 8 5l2 10c0 1-3 3-6 3l-7-4zm0 0a40 40 0 006 3c4 2 8 0 7-2-1-4 0-8-2-11l-8-4c-4-1-5 0-7 3-3 6-2 7 4 11z"/><path class="l" d="M425 631c-3-3-5-3-6-6 0-2 3-9 6-9 6 1 4 1 10 5 3 1 2 7 3 11l-2 2c-3 2-7-1-11-3z"/><path class="m" d="M420 623c1-3 3-7 5-7 6 1 4 1 10 5a3 3 0 012 1c-1 2-3 3-1 4h1a17 17 0 001 6c-7 3-6-2-9-3-4-1-3-3-7-4a3 3 0 01-2-2zm8-4c-3-2-5 3-2 1l2 1v-2z"/><path class="o" d="M430 618c2 1 5 1 5 3s-1 2 0 4l1 1c-2-1-3-2-2-3 1-2-3-4-4-5z"/><path class="n" d="M407 568c-5-3-11-10-17-3-2 2-3 6 1 8s16 12 20 12c1 0 12-7 4-12l-8-5zm0 0a80 80 0 019 5c6 5-2 12-5 13-3 0-16-11-20-13-6-3-1-10 3-11 5-1 10 4 13 6z"/><path class="l" d="M407 568s-8-6-11-6c-6 0-11 9-5 11 4 1 17 14 20 12 4-1 10-8 5-12l-9-5z"/><path class="m" d="M395 566c5 1 9 7 3 2 0 0-7-1-4-2h1zm12 2s-8-6-11-6a8 8 0 00-7 4 3 3 0 002 4c2 1 1-1 5 2 4 4 7 4 12 4 4 0 8 5 6 4-4-3-8-6-11-1-1 1 7 5 9 6 4-2 9-8 4-12l-9-5z"/><path class="o" d="M398 573l8 1c2 0 6 1 7 3a6 6 0 001 2l-1-1c-1-2-4-3-6-3-4 0-5 1-9-2z"/><path class="e" d="M402 549l9 4c2 1 13 7 13 9l-4 7c-1 4-4 1-7 0l-11-6c-5-3-10-5-6-11 2-3 2-4 6-3zm0 0c-4-1-4 0-6 4-3 5 2 7 6 10l11 6c3 1 5 4 7 0l3-7c1-2-9-7-10-8l-11-5z"/><path class="k" d="M402 549c3 0 4 2 7 4 3 1 14 7 15 9l-4 7c0 2-2 3-3 2-5-3-12-5-15-8-2-2-9-5-6-10l1-3c1-1 2-2 5-1z"/><path class="g" d="M402 549c3 0 4 2 7 4 3 1 14 7 15 9l-4 7a2 2 0 01-1 2 40 40 0 01-6-3l-2-1v-4h3l2 1 2 1h2c1-1-1-1-1-1a7 7 0 01-3-1l-4-2-4-1-7-3-5-5 1-2c1-1 2-2 5-1z"/><path class="p" d="M398 550c2-2 5 1 7 2 4 1 5 0 9 3a17 17 0 015 5l1 1-2-2c-3-3-7-5-11-6s-5-3-9-3z"/><path class="e" d="M344 565c-1 2-4 9-7 7-5-2-23-13-20-19 1-1 2-4 4-4 3 0 20 12 23 14a8 8 0 010 2zm0 0a6 6 0 000-2l-23-15c-2 0-4 4-4 5-4 6 15 17 20 19 4 2 6-5 7-7z"/><path class="l" d="M344 565c-1 2-4 9-7 7-5-2-24-13-20-19s3-6 15 1l12 9a7 7 0 010 2z"/><path class="m" d="M344 565l-1 2a1 1 0 01-1 0c-3-3-3 4-6-3-6-1-5-3-8-7-1-2-8 2-1 3 3 0 1 1 4 3l-5-1-2 2c-5-4-9-8-7-11 3-4 3-6 8-3 0 1-1 1 2 2a3 3 0 001 0l4 2 12 9a6 6 0 010 2zm-3 5c0-2 0-3-2-3-3 1-4-2-4-1-2 5-1 4-4 3l6 3c2 1 3 0 4-2z"/><path class="o" d="M320 550c6-1 3 1 5 2l4 1a58 58 0 018 7l-10-6-2-1c-2-2 1-2-5-3z"/><path class="h" d="M352 582c2-2 7-8 5-12-1-2-3-1-5-3s-3-3-6-1c-6 5-4 13 3 15zm0 0l-3-1c-7-2-10-10-3-15 3-3 4-1 6 1s6 1 6 5-3 8-6 10z"/><path class="i" d="M352 582c3-2 10-13 2-14-3 0-4-7-10 0-5 6 1 13 8 14z"/><path class="j" d="M357 575c1-3 1-6-3-7-3 0-4-6-8-2 1 1 3 0 0 6-2 3-2-1-3-3a7 7 0 00-1 5 4 4 0 005 1c3-2 7 3 10 0z"/><path class="q" d="M346 574a10 10 0 017 1l3-1-1 1h-5l-4-1z"/><path class="h" d="M377 598c2-2 8-7 5-9l-11-9-7-4c-4-2-3-2-6 2-1 1-4 4-3 6l6 3c3 3 5 5 9 5l7 6zm0 0l-7-5-10-5c-1-2-5-3-5-5l4-7c2-3 3-1 6 0l6 4 11 9c4 2-3 7-5 9z"/><path class="i" d="M377 598c2-2 8-7 5-9l-11-9-6-4c-2-1-4-3-7 2-3 4-5 5 0 8 3 1 8 7 12 7l7 5z"/><path class="j" d="M381 594c2-2 3-4 1-5l-11-9-6-4c-2-1-4-3-7 2l-2 2c0 2 1 3 2 3 4-1 10 7 11 6 2-1 3 0 2-3-2-3-2-1-2-5s4 9 6 9c5-1 5 3 6 4z"/><path class="q" d="M373 585l2 4c1 0 5 1 4 3-1-2-3-1-5-2l-1-5z"/><path class="h" d="M411 610l-3 8c1 0 6 7 8 5 2-1 6-6 5-9 0-1-8-9-10-4zm0 0c0-5 9 1 11 4 1 3-4 8-5 9-2 2-7-3-9-5-1-2 2-6 3-8z"/><path class="i" d="M411 610l-2 5c-1 1-2 2-1 3 3 2 3 4 7 6 2 0 4-4 5-5s3-3 1-5c-5-6-9-7-10-4z"/><path class="j" d="M417 622l2-3c1-1 3-3 2-5-5-5-8-6-10-5l-1 5c-2 2 3 6 5 5 0 0 2 0 1 1s0 2 1 2z"/><path class="q" d="M414 611c0-2 4 1 4 1a8 8 0 012 4l-2-2c-1-1-2-3-4-3z"/><path class="e" d="M435 605c-1 2-4 9-7 8l-7-3-6-4c-2-1-2-3-3-5-1-8 4-9 10-5 4 4 4 5 10 7a12 12 0 003 2zm0 0a15 15 0 01-3-2l-10-7c-6-5-12-3-10 5l3 6 6 3c4 3 4 2 7 3s6-6 7-8z"/><path class="k" d="M435 605c-1 2-5 9-7 8s-3 0-9-4-5-1-7-8c-1-5 2-9 7-7 4 2 6 6 12 9l4 2z"/><path class="g" d="M435 605c-1 1-3 6-5 7v-1l-5-3c-4-1-5-4-9-4-6 2-1-9 0-9 5-1 4 1 6 2l9 6 4 2z"/><path class="p" d="M416 595c5-1 2 1 4 2l3 1a46 46 0 018 6l-9-5-2-1c-2-2 1-2-4-3z"/><path class="h" d="M379 532c-3 0-3 0-5-2s-6-5-8-4l-2 2-4 6c3 5 6 5 11 8a68 68 0 019 6c1 1 5 4 7 3l5-9c0-2-4-5-6-6a54 54 0 00-7-4zm0 0a41 41 0 017 4c2 1 6 3 6 6l-5 9c-2 2-6-2-8-3a75 75 0 00-8-6c-5-3-8-3-11-7-1-2 2-7 3-7l3-2c2-1 6 2 8 3 3 3 2 3 5 3z"/><path class="i" d="M379 532l-4-1-3-3c-3-2-5-4-7-1-2 1-2 0-4 4v5c3 4 6 3 10 6l9 6a22 22 0 005 3c2 1 2-2 3-3l2-3c2-4 3-4-2-8l-9-5z"/><path class="j" d="M374 529a13 13 0 00-2-1c-3-2-5-4-7-1v5c3 2 4 5 7 5l4-1 5 3c1 3 7 3 10 5 2-3 1-4-3-7l-5-3c-4 1-5 1-9-4v-1zm9 22a6 6 0 01-1-2c-3-6-7-6-13-9-1-1-7-6-5-7 3 1 2 3 7 6 5 2 2-3 11 3l8 4-2 2c-1 1-1 4-3 3z"/><path class="q" d="M390 543c1-2 1-3-2-4l-7-3a17 17 0 01-5-3l5 2 6 2c2 0 6 4 3 6z"/><path class="h" d="M318 524c3 0 2 0 5 2 2 2 6 5 8 4l2-2c1-1 4-5 3-7-2-4-6-4-10-7a69 69 0 01-9-6c-1-1-5-4-7-3l-5 9c0 2 4 5 6 6a52 52 0 007 4zm0 0a42 42 0 01-7-4c-2-1-6-4-6-6l5-9c2-2 6 2 7 3a74 74 0 009 6c5 2 8 2 11 7 1 2-2 7-4 7l-2 2c-2 1-6-2-8-4-3-2-2-2-5-2z"/><path class="i" d="M318 524l4 1 3 3c3 1 5 4 7 1 2-1 2 0 4-4v-5c-3-4-6-4-10-6l-9-6a22 22 0 00-5-3c-2-1-3 2-3 3l-2 3c-3 4-3 4 2 7l9 6z"/><path class="j" d="M323 527a14 14 0 002 1c2 1 5 4 7 1v-5c-3-2-4-5-8-5h-3c-2 0-4-1-5-3-2-2-7-2-10-4-2 3-1 4 3 6l5 3c4 0 5 0 9 5zm-10-22a6 6 0 012 2c3 6 7 6 13 9 1 1 7 6 5 7-3-1-2-3-7-6-5-2-2 3-11-3l-8-4 2-2c0-1 1-4 3-3h1z"/><path class="q" d="M307 513c-1 2-1 3 1 4l8 3a17 17 0 014 3l-5-2-5-3c-2-1-6-3-3-5z"/><path class="e" d="M356 551c-5-1-5-2-9-5s-6-1-9 3c-2 2-4 6-1 7l3 2c3 4 4 5 9 5 3 0 9 6 10 5 10-7 2-11-3-17zm0 0c6 6 14 10 3 17-1 2-7-4-10-4-5-1-6-2-10-5l-2-2c-4-2-2-6 0-9 4-3 6-5 10-2l9 5z"/><path class="k" d="M356 551c-9-2-11-9-16-5-3 3-8 9-2 11 1 1 5 7 11 6 2 0 9 6 10 5 11-8 2-12-2-16a4 4 0 00-1-1z"/><path class="g" d="M355 551l-1-1a29 29 0 01-8 5 19 19 0 01-3 1l3-2a19 19 0 007-4c-6-3-9-8-13-4-9 8-4 14 7 10 3 0 6-4 5 1v7l2 2c-1-2 5-6 5-10 1-2-4-3-4-5zm-11 11c2-2 7-4 4 2a9 9 0 01-4-2zm20-3c1 6-5 9-6 6-1-5 2-8 4-8a10 10 0 012 2z"/><path class="p" d="M342 546c-1-3 4 1 5 1a22 22 0 003 1l4 2-4-1c-3 0-4-2-6-3h-2z"/><path class="k" d="M335 554c5-2 6-3 12-3 3 0 2-1 4-2a6 6 0 01-4 2l-3 2c-3 1 0 3-4 5 3-2 2-3 3-5-3 1-1 3-4 4 3-1 1-4 4-4l3-2-11 3zm16-5z"/><path class="e" d="M409 611l-4 5c-3 0-11-6-15-8-3-1-10-4-8-9 2-3 1-2 7-2l10 1c3 2 10 6 10 10a5 5 0 010 3zm0 0v-4c-1-4-9-9-12-10h-13l-3 3c-1 5 6 7 9 8 4 2 11 8 15 8 2 1 3-4 4-5z"/><path class="k" d="M409 611c-1 1-2 5-4 5-2 1-8-3-10-4l-8-5c-3-1-7-4-5-8 2-2 0-3 6-2l11 1c4 2 14 7 10 13z"/><path class="g" d="M384 597a14 14 0 014 0l11 1c3 2 11 6 10 11-1 2-1 4-8 1l-8-5-9-7v-1z"/><path class="p" d="M391 598c4-1 15 2 16 7v1-1c-3-4-12-6-16-7z"/><path class="e" d="M393 597l1 7c1 3-2 9 0 3 1-2-1-3-1-6s1-2-3 1l3-3v-2zM419 574l5-8c3-4 5 0 9 2 2 1 16 8 15 10l-3 6c0 2-2 6-5 4l-11-7c-1-1-11-6-10-7zm0 0l10 6 12 8c2 1 3-2 4-4l3-6c0-2-12-8-14-9-6-4-7-7-12-1l-3 6z"/><path class="k" d="M419 574l5-8c3-3 4-1 8 1l10 6 6 5-3 6c0 2-2 5-5 4a178 178 0 00-15-10l-6-4z"/><path class="g" d="M431 567h1l10 6 6 5a8 8 0 01-1 1l-2 2c0 3 1 3-2 5-4 2-5-1-4-2 2-5-3-3-6-3l-11-7c-2-2-1-3 1-5 2-4 4-3 4-3l4 1zm-2 3a8 8 0 012 0h1a1 1 0 01-1-1c0-1-7-1-2 1zm9 12s-2-2-3 0a2 2 0 003 1v-1z"/><path class="p" d="M436 571l9 7-1-1-8-6z"/><path class="k" d="M421 570a6 6 0 002 0c3-1 5 1 6 1h-1c-1 0-2-2-4-1l-3 1v-1z"/><path class="e" d="M290 543l4-8c3-4 6 0 9 2 2 1 16 8 16 10l-3 6c-1 2-3 6-5 4l-11-7c-1-1-11-6-10-7zm0 0c-1 1 9 6 10 6l11 8c2 1 4-2 4-4l3-6c1-1-12-8-14-9-5-3-7-7-11-1l-3 6z"/><path class="k" d="M290 543l4-8c2-3 4-1 8 1l10 6c1 1 7 4 6 5l-3 6c0 2-2 6-4 4a178 178 0 00-15-10c-1 0-7-3-6-4z"/><path class="g" d="M301 536h1l10 6c1 1 7 4 6 5a9 9 0 010 1l-3 2c0 3 1 3-2 5s-4-1-4-2c2-4-3-3-6-3l-10-7c-2-2-1-3 0-5 2-4 4-3 4-3l4 1zm-2 3a8 8 0 012 0h1l-1-1c0-1-7-1-2 1zm10 12c-1 0-3-2-4 0a2 2 0 003 1l1-1z"/><path class="p" d="M306 540c1-1 9 6 10 7l-1-1-9-6z"/><path class="k" d="M291 539a6 6 0 003 0c2-1 4 1 5 1h-1s-2-2-4-1l-3 1v-1zM393 597l1 7c1 3-2 9 0 3 1-2-1-3-1-6s1-2-3 1l3-3v-2z"/><path d="M871 167c2-3 10-2 20-2h28l24 3h43c7 0 15 2 21 1 2-1 5-2 8 0s2 6 2 7c-1 15 2 30 0 45-1 9-3 32-1 53 1 11-2 21 0 32 0 1 0 4-2 6-3 4-10 1-14 0-8-1-19-2-42-2-19 0-19 2-31 1-15-2-15-5-26-4-15 0-24 8-29 3-3-2-2-7-2-12l2-42c1-19-1-14 1-40 1-13 2-24 0-31l-2-13v-5z" fill="#ffe161"/><path class="s" d="M942 311l-2-1v-1-2l-1-4a3 3 0 010-1v-5l1 1a7 7 0 00-1-2 2 2 0 002 1 2 2 0 001-1h-3a3 3 0 010-1 27 27 0 000-2l1-1v-4a31 31 0 00-1-3v-1a2 2 0 011-1l-1-4v-3a3 3 0 011-2 2 2 0 010-1 43 43 0 01-1-7l-1-4-1-6 3 4v-4a3 3 0 010-1v-5l-1-1 1-2h1v-1-2l-1-2v-5a1 1 0 010-2 2 2 0 011 0v-1l-1-3a1 1 0 010-2v-2-1-1a1 1 0 010-1 33 33 0 001-3 2 2 0 01-1-1 11 11 0 00-2-5l3-1a2 2 0 00-1 0 4 4 0 011-1c-2-2-2-4 0-5v-4a22 22 0 01-1-3v-1-3-3a3 3 0 010-2v-1l-6 3 5-5 1-3v-3a21 21 0 010-4v-1a28 28 0 000-5v-5a17 17 0 00-1-4l4-1a19 19 0 011 5v5a26 26 0 010 4 1 1 0 010 1 14 14 0 00-1 4h1v1a14 14 0 000 3 7 7 0 01-1 3 14 14 0 011 3l1 3v1h-1v4a15 15 0 001 4l1 3h-2a6 6 0 000 1h1v1a2 2 0 01-2 1 10 10 0 002 4l-1 1v4a30 30 0 010 6 15 15 0 000 2 30 30 0 010 5v2l1 3h-1v7h1a2 2 0 01-1 1l-1 5v5l1 2a2 2 0 010 1v4l-1 2a2 2 0 01-1 0l1 1a59 59 0 001 7 2 2 0 011 1v4l-1-1a2 2 0 01-1 0v9l1 2v4h-1a5 5 0 011 1 2 2 0 01-1 2v1l1 4a17 17 0 010 5h-1v5h1v1a2 2 0 01-2 2zm0-36h-1a2 2 0 001 0 2 2 0 001 0 1 1 0 00-1 0zm-3 0h1a2 2 0 00-1 0zm5-75zm-4-17z"/><path class="s" d="M929 312a24 24 0 010-2 2 2 0 011-2v-1-12a12 12 0 010-4v-2l-1-1v-2l1-3a2 2 0 01-1-3 2 2 0 011-1l-1-5-1-2h1a8 8 0 010-2 3 3 0 010-1 7 7 0 010-2l1-4v-1-1a2 2 0 01-1-2v-6h1a1 1 0 010-1 4 4 0 011-2l-1-2a3 3 0 010-1h-1v-1l2-2v-1c-2-5-2-9-2-11l1-3-1-6v-3-1a9 9 0 010-1v-8a2 2 0 010-1 2 2 0 011 0v-1a16 16 0 000-3l-1-1a11 11 0 010-5 4 4 0 01-1-1 2 2 0 011-1v-2-2a8 8 0 010-3 2 2 0 011-2l-1-9v-1a2 2 0 011-1l-1-6v-3l3-2v2l2 12v6l1 2 4 9-6-5-1-1a29 29 0 001 4v2h-1v1a4 4 0 010 1 11 11 0 001 4v6a6 6 0 010 2l1 8-2-3 1 1a4 4 0 010 2h-1v1a98 98 0 011 6v1a2 2 0 001 1v1a1 1 0 010 1 2 2 0 01-1 0v3c0 1 0 0 0 0v3a18 18 0 001 5h1v11-1a7 7 0 010 2l-2 3h1l-1 6v7a6 6 0 000 3 3 3 0 010 1l1 7v2l1 1-1 1a2 2 0 01-1 0v2a22 22 0 010 5l1 6 5 7-6-4 2 5-1 1a49 49 0 001 5h-2v1zm1-59h1v-1a2 2 0 00-1 1zm2-1zm-3-33zM922 310a2 2 0 01-1 0h-1-1v-1a1 1 0 010-2h1l-1-3a3 3 0 011-2v-1l-2-6h1v-1l-1-3v-2a1 1 0 010-1 16 16 0 011-5v-1a30 30 0 000-4 1 1 0 011-1v-1-3h-1-1l2-2a31 31 0 00-1-7 2 2 0 01-1-1v-1-6-1 1h1v-5-1a16 16 0 00-1-6l1-1a14 14 0 010-2v-3a3 3 0 011 0v-1a11 11 0 00-1-4 2 2 0 01-1-2v-2a2 2 0 011-1v-1-1a2 2 0 010-1v-1-3a6 6 0 010-3v-1h-1v-2a4 4 0 010-2 5 5 0 001-2 3 3 0 010-3 7 7 0 000-4 5 5 0 010-2 12 12 0 000-2v-1h1v-4c0-3-1-7-3-10l-4-9 5 5a2 2 0 010-1 2 2 0 011-2 27 27 0 010-7v-9h1v2h1l2 1v3l-1 3a24 24 0 000 6 4 4 0 011 2 13 13 0 011 4v8l-1-1a67 67 0 011 5l2 4v1h-1l-2-2 1 1a5 5 0 010 1v1h-1a2 2 0 010 1v1a9 9 0 01-1 5 3 3 0 000 1v1a8 8 0 010 4 2 2 0 000 1v1l1 2 2 8h-1v-1h-1l1 2v1h-1l-1 3a13 13 0 011 8 18 18 0 000 2 15 15 0 001 3l-2 1a18 18 0 010 3v1a2 2 0 010 1h1v2a44 44 0 01-1 7v1a3 3 0 010 2 32 32 0 011 4v5a4 4 0 010 1v5a1 1 0 010 1 31 31 0 010 4 3 3 0 011 1v1h-1a5 5 0 01-1 1v5l1 5-1 1v1l2 6h-1a40 40 0 000 5h1l-1 2zm-4-130h1v-1a2 2 0 00-1 1zm4-14a2 2 0 001 0z"/><path class="s" d="M911 309a3 3 0 01-3-2l1-1a3 3 0 011-1v-1a15 15 0 010-3 21 21 0 01-2-4l1-4v-1a2 2 0 010-1 12 12 0 010-6v-3h-1a1 1 0 011-1v-1-2a3 3 0 010-2 20 20 0 01-1-5v-2l-1-3v-1l1 1v-1l-1-2h3l-1-3a2 2 0 010-1v-4a5 5 0 011-3v-5-3 1l-1-5a4 4 0 01-1-3l-1-5 2 2h1l-1-2v-5-9l-1-1a5 5 0 01-1-2v-1h1l-1-2v-1h1a8 8 0 000-2v-1h2v-1l-1 1v-1h-1v-1a2 2 0 010-2h1l-1-2v-1a1 1 0 011-1v-1l-1-2a2 2 0 011-3 4 4 0 011-1v-1a25 25 0 00-1-6v-2a2 2 0 010-2 8 8 0 010-1 4 4 0 000-3v-2a2 2 0 010-1 17 17 0 010-4l-1-2a16 16 0 01-1-3l-1-3h1l3 2a3 3 0 011 1h1v1a5 5 0 010 2v1l1 5h1v1a2 2 0 01-1 1 6 6 0 010 4 3 3 0 000 3v1a27 27 0 010 7v1a5 5 0 010 1v2a2 2 0 01-1 1v2a28 28 0 010 3v2l1 3h-1v1l-1 5 1 2v2l1 3-1 1v2a22 22 0 011 6v1a31 31 0 001 4l1 2h-3v1a3 3 0 010 1 40 40 0 012 9l1 4h-1-1a10 10 0 011 2h-1a6 6 0 000 3 7 7 0 011 0v1h-1a2 2 0 010 1v1a38 38 0 001 6l2 6h-1l-2-3v5a13 13 0 001 3l-1 1v3a17 17 0 010 4v1a11 11 0 000 6v2a2 2 0 01-1 1 20 20 0 001 6 3 3 0 011 1h-1a44 44 0 001 5l-1 1a2 2 0 01-2 1zm0-7a3 3 0 001 0 2 2 0 001 0zm-1-48a2 2 0 001 0 3 3 0 002-1zm2-60a2 2 0 001 0zM899 306h-2a3 3 0 011-3 16 16 0 010-2 6 6 0 000-3l3-1a2 2 0 00-1-1 2 2 0 00-2 1 4 4 0 000-1h-1l1-2 1-6a15 15 0 010-2v-1l-1-3a34 34 0 010-6 6 6 0 000-1 2 2 0 002 1 2 2 0 001-1l-3-1a11 11 0 000-2l1-3a16 16 0 00-2-4 2 2 0 011-2v-1a12 12 0 01-1-3l2-1a23 23 0 00-1-5 23 23 0 01-1-4 1 1 0 011-2l-1-4 1 1a6 6 0 010-2 2 2 0 000-1 1 1 0 010-1l1-6h-1a4 4 0 010-3 16 16 0 000-6 20 20 0 01-1-3h2a10 10 0 010-2 21 21 0 00-1-6l-1 1 1-3v-1a5 5 0 010-3 15 15 0 010-2 14 14 0 011-3v-1a3 3 0 010-2 20 20 0 000-5l-2-6 2 2a10 10 0 010-4v-1-2a7 7 0 010-3 4 4 0 010-2 35 35 0 010-5v-1l-1-3a49 49 0 010-6h1a7 7 0 000-1l4-1-1 4v4l1 4-1 3h1v7l1 4-2 1 1 3v2a11 11 0 010 3v6a2 2 0 01-1 1 16 16 0 000 4 4 4 0 011 0v1a2 2 0 01-1 1 1 1 0 010 1 3 3 0 010 3 23 23 0 011 6v2s1 3-1 4a33 33 0 010 8l1 1h-1v5a4 4 0 010 3 5 5 0 000 3 4 4 0 01-1 5l1 1a20 20 0 011 5v4a2 2 0 01-1 1 3 3 0 01-1 2 15 15 0 011 4v5a11 11 0 010 1 5 5 0 010 1 14 14 0 010 2 2 2 0 010 2v4a1 1 0 011 1v2a10 10 0 000 2l2 6-3-3-1 3a2 2 0 011 1v3a8 8 0 010 3 12 12 0 001 3l1 8zm1-67a2 2 0 00-1 1l2-1a3 3 0 00-1 0zm1-75a2 2 0 00-1 0h1zM892 304l-1 1v6a3 3 0 01-2 0 2 2 0 01-2-1v-1h1a9 9 0 00-1-4l-4-10 4 5h1a2 2 0 010-2v-2a14 14 0 00-1-4 1 1 0 01-1-1h2v-1a2 2 0 00-2 1v-1a7 7 0 011-2v-1l-4 2-1-1h1l5-4h1a10 10 0 001-3 35 35 0 00-2-5 10 10 0 01-1-2h1v-1a4 4 0 010-1 11 11 0 000-4v-2-2h-1v-1l2-5v-3l-1-2a6 6 0 010-2v-3-1-1a1 1 0 01-1 0 4 4 0 011-3v-1a2 2 0 010-2v-5-1-3a2 2 0 010-2v-2a3 3 0 010-2 2 2 0 011-2v-2l-1-5 1-1-1-3a1 1 0 010-1v-2l-1-3h2v-1a1 1 0 00-1 1 3 3 0 011-2 6 6 0 010-3 15 15 0 00-1-4l-2-2h2a39 39 0 000-6 1 1 0 010-2v-1h1l-2-6a1 1 0 011-2 5 5 0 011-3 2 2 0 000-2 4 4 0 010-2 73 73 0 01-1-4 2 2 0 002 0 2 2 0 001-1h-3a2 2 0 011-1 2 2 0 012 1l1 2v2l1 2a4 4 0 01-1 4v4h-1a1800 1800 0 011 10v7a16 16 0 011 2v4a1 1 0 01-1 0 4 4 0 000 1v1h-1v1a1 1 0 000-1v1a1 1 0 001 0 2 2 0 00-1 0 2 2 0 010 1l1 2a34 34 0 011 5l-1 4v1l1-1v6a1 1 0 01-1 1l2 8v1l-2-2a2 2 0 01-1 0l1 1v5a50 50 0 001 5l-2 1v1l1 3v3a2 2 0 010 1v6a2 2 0 000 1 2 2 0 01-1 1 7 7 0 000 3 27 27 0 011 3v2a13 13 0 010 4 16 16 0 010 2 5 5 0 010 2l1 3v4h-1a9 9 0 010 2 11 11 0 01-1 3l-1 3a15 15 0 011 4 22 22 0 002 5l3 9v1l-4-6zm-3 5a2 2 0 00-1 0h2a2 2 0 00-1 0zm-1-36a2 2 0 002 0 2 2 0 002 0z"/><path class="s" d="M881 304a2 2 0 01-3-2v-2-1h1l-1-5-1-2v-1h1a3 3 0 01-1-1v-1a3 3 0 011-1 13 13 0 00-2-6l4-1a2 2 0 00-1 0 2 2 0 00-2 0 7 7 0 001-1v-4a10 10 0 000-3 13 13 0 010-2h1v-2-1a3 3 0 01-1-1v-1l-1-6a2 2 0 01-1-1h1v-3l-1-4v-2l-2-4v-1h1l2 3h1v-1l-1-5v-4h-1l-2-2v-1h1l2 1a2 2 0 011-2 4 4 0 010-1l1-4a96 96 0 01-2-6 2 2 0 010-1l1-4v-1a16 16 0 010-2 17 17 0 00-1-6l-3-7v-1l3 4h1a3 3 0 010-1v-1a24 24 0 00-1-3 3 3 0 01-1-2v-3l2 1v-2a20 20 0 00-1-7h1v-1-1a31 31 0 01-1-5l1-3v-2-4a8 8 0 010-4 6 6 0 000-1l-1-1h1c-1-2-1-4 1-4a3 3 0 013 1v2a1 1 0 01-1 1 2 2 0 010 1 9 9 0 010 1 6 6 0 001 4l4 7h-1l-3-2a10 10 0 010 2l-1 2v2h1v7a2 2 0 010 1v1a21 21 0 010 3 8 8 0 000 2v2h-1a6 6 0 010 1 19 19 0 011 3v4a2 2 0 01-1 0l1 1a5 5 0 00-1 1 3 3 0 010 2 19 19 0 010 5 9 9 0 001 4l-1 1a18 18 0 001 2l-1 1a63 63 0 002 7l2 5-2-2v1h-1a4 4 0 010 1 4 4 0 01-1 4 8 8 0 010 2 2 2 0 010 1v1a74 74 0 001 7 1 1 0 01-1 1 3 3 0 010 2h-1l1 2v3l1 3h-1l1 5v1h1l-1 3v3a12 12 0 01-1 4 12 12 0 001 2l1 1-1 1a7 7 0 01-1 1v1a15 15 0 011 4v3a6 6 0 01-1 2v2a640 640 0 012 6 1 1 0 010 1v1a2 2 0 01-2 2zm-3-13zm2-14v1a2 2 0 001-1zm-2 1h1l-1-1v1zm2-7zm0-4l1-1a2 2 0 00-1 0 3 3 0 000 1zm-1-44a3 3 0 001 0zm1-18a2 2 0 00-1 0 3 3 0 001 0 2 2 0 001 0 2 2 0 00-1 0zm-1-40h-1 1zm2-2zM1004 315a21 21 0 010-2 2 2 0 011-2v-5c-1-4-2-6-1-8a12 12 0 010-4v-2a1 1 0 010-1v-2-3a2 2 0 01-1-3 2 2 0 012-1l-1-5-1-2h1a7 7 0 010-2 3 3 0 010-1 7 7 0 010-2v-4-1-1a2 2 0 010-2v-6h1a1 1 0 010-1 4 4 0 010-2v-2a3 3 0 01-1-1v-1l1-2h1v-1c-3-5-3-9-2-11v-3-6l-1-3a4 4 0 000-1 7 7 0 011-1c-2-5-1-7 0-8a2 2 0 010-1v-1a17 17 0 000-3v-1a11 11 0 01-1-5 4 4 0 010-1 2 2 0 010-1v-2-2a8 8 0 011-3 2 2 0 011-2l-2-9v-1h1a2 2 0 011-1l-1-6a2 2 0 000-1v-2l3-2v2l2 12-1 6 1 2 4 9-5-5-1-1a29 29 0 000 4v3a4 4 0 010 1 11 11 0 000 4l1 5v1a6 6 0 010 2v8l-1-3v1a4 4 0 011 2h-1a1 1 0 010 1v3l1 3v1a2 2 0 000 1h1v1a1 1 0 01-1 1v3c0 1 0 0 0 0v2l-1 1a18 18 0 002 5l1 11-1-1a7 7 0 010 2l-1 3v13a6 6 0 00-1 3 3 3 0 010 1l1 7v2h1v1l-1 1v2a22 22 0 010 5c0 2-1 4 1 6l4 7-5-4 2 6h-2l1 5h-1v1zm1-59v-1a2 2 0 000 1zm2-1h-1a2 2 0 001 0zm-3-33zM995 312a2 2 0 01-1-1l-2 1a14 14 0 010-2 1 1 0 011-1l-1-4a3 3 0 011-2l-2-7h1a1 1 0 010-1v-2l-1-2v-1a15 15 0 011-6 29 29 0 001-4 1 1 0 010-1v-1-4l-2 1 2-3a31 31 0 00-1-6 2 2 0 010-1l-1-1v-8l1 2v-6c0-1 0-5-2-7h2v-1a13 13 0 010-2v-3a2 2 0 011 0 11 11 0 00-1-5 2 2 0 01-1-1v-2a2 2 0 011-2v-1a2 2 0 010-2v-3a5 5 0 010-3v-1h-1v-3a3 3 0 011-1 6 6 0 000-3v-2a7 7 0 000-5 5 5 0 010-2 11 11 0 000-2h1v-4-1a35 35 0 00-2-9l-6-10 6 5a2 2 0 011-2 26 26 0 010-8v-10l2 4a3 3 0 010-1s2 0 2 2a2 2 0 000 1v2l-1 3a25 25 0 000 6 4 4 0 011 2 13 13 0 011 3v10l-1-2 1 4v1l2 4-2-1a5 5 0 011 2h-2a2 2 0 010 2 9 9 0 01-1 6v2a8 8 0 010 3 2 2 0 000 1v2a25 25 0 011 2l2 8-2-2 1 3h-1l-1 4a13 13 0 011 7 18 18 0 000 3 16 16 0 001 2 2 2 0 010 1h-2a18 18 0 010 3v2h1v2a43 43 0 01-1 8v3a36 36 0 011 4v10a1 1 0 010 2 32 32 0 010 4 3 3 0 011 1l-1 1a4 4 0 01-1 0 37 37 0 000 4v2l1 5-1 1 2 7h-1a40 40 0 000 4l1 1-1 1zm-4-131h1a2 2 0 00-1 0zm3-13h1a2 2 0 001-1z"/><path class="s" d="M983 315a3 3 0 01-3-2l2-1a3 3 0 011-1v-1a14 14 0 01-1-3 20 20 0 01-1-4v-4a2 2 0 011-2 12 12 0 010-6l-1-3a1 1 0 011-1v-3a3 3 0 010-2 20 20 0 01-1-5v-2l-1-4 1 1-1-1v-2h2v-3a2 2 0 01-1-1l1-4a5 5 0 011-3l-1-1 1-4v-3l-1 1-1-5a3 3 0 010-2l-1-7 2 3a3 3 0 011 0l-1-2v-5l-1-3v-6-1a4 4 0 01-1-2l1-1-1-2 1-1a7 7 0 000-2l2-1h-1v-1a1 1 0 00-1 1v-1-1a2 2 0 010-2v-2-1a1 1 0 010-1v-1-2a2 2 0 011-3 4 4 0 010-1v-1a25 25 0 000-6l-1-2a2 2 0 011-2 6 6 0 010-1 4 4 0 000-3v-2a2 2 0 010-1 15 15 0 01-1-4v-1a3 3 0 010-1 15 15 0 01-1-3l-1-4 4 3a3 3 0 011 1h1a10 10 0 010 1 4 4 0 010 2v2l1 4 1 1a2 2 0 01-1 1 6 6 0 010 4 3 3 0 000 3l-1 1h1v1a27 27 0 010 6v1a5 5 0 010 1v2a2 2 0 01-1 1v2a30 30 0 010 4v5l-1 5a21 21 0 011 2v2l1 3-1 1v2a23 23 0 011 6l-1 1a33 33 0 002 5l1 1-2 1h-1v1a40 40 0 012 9v1l1 4-2-1a11 11 0 010 3 6 6 0 000 2l1 1-2 1a2 2 0 011 0v1a38 38 0 001 6l2 8-3-4v1l-1 3a13 13 0 002 4h-1v3a17 17 0 010 5l-1 1a11 11 0 001 6v1a2 2 0 01-1 2 20 20 0 001 5 3 3 0 011 1l-1 1a40 40 0 001 4v1h-1a2 2 0 01-2 2zm1-7a3 3 0 001 0 2 2 0 001 0zm-1-48a2 2 0 001 0 3 3 0 001 0zm1-60a2 2 0 011 0 2 2 0 001 0zM972 312h-2a3 3 0 011-3 18 18 0 010-2 6 6 0 000-3l4-1a2 2 0 00-2-1 2 2 0 00-2 1 4 4 0 000-1h-1l1-2v-1l1-5a16 16 0 010-3v-1l-1-2a34 34 0 010-6 5 5 0 000-1 2 2 0 002 0 2 2 0 001-1h-3a11 11 0 000-3l1-2a16 16 0 00-2-4v-1a2 2 0 011-2v-1a12 12 0 01-1-2l2-1a23 23 0 00-1-5 2 2 0 010-1v-1l-1-2v-1a1 1 0 011-1l-1-4 1 1a6 6 0 010-2 2 2 0 000-1 1 1 0 010-1v-1l1-5h-1v-1a4 4 0 010-3 16 16 0 000-6 22 22 0 01-1-2l2-1a10 10 0 010-1 21 21 0 00-1-6h-1l1-2v-2a5 5 0 010-2 15 15 0 010-2 13 13 0 011-4 3 3 0 010-3 20 20 0 000-4 2 2 0 010-1l-3-5 2 1a10 10 0 011-3v-2-2a7 7 0 010-3 4 4 0 010-1 34 34 0 010-6v-1l-1-3a50 50 0 010-5h1a7 7 0 000-1l4-1-1 4v4l1 3-1 3h1v8l1 4h-2v4l1 1v1a11 11 0 010 3l-1 4v2a2 2 0 010 1 16 16 0 000 3 4 4 0 011 1v1a2 2 0 01-1 1l-1 1 1 2a23 23 0 011 6 5 5 0 000 1v1s1 4-1 5a33 33 0 010 7 3 3 0 000 1h1l-1 1v4a4 4 0 010 4 5 5 0 000 3 4 4 0 01-1 4v1a20 20 0 012 5v4a17 17 0 00-2 4 16 16 0 011 3v5a9 9 0 010 1 4 4 0 010 2 14 14 0 010 2 2 2 0 01-1 1l1 4a1 1 0 010 1v2a9 9 0 001 3l2 6-4-3v3a2 2 0 011 0v4a8 8 0 010 3 12 12 0 000 3l2 7zm1-67a3 3 0 00-1 0h2a3 3 0 00-1 0zm1-76a2 2 0 00-1 0zM965 303h-1a2 2 0 010 1c0 2 1 4-1 5a3 3 0 01-2 1 2 2 0 01-2-2l2-1a8 8 0 00-1-4l-5-11 5 7a2 2 0 011-2 24 24 0 010-3 14 14 0 00-2-4 1 1 0 010-1h2v-1a2 2 0 00-2 1 6 6 0 000-1l1-3-6 2 7-5a10 10 0 001-2v-1a37 37 0 00-1-5 13 13 0 01-1-2h1a9 9 0 000-1 3 3 0 010-1 11 11 0 000-3v-3l-1-2 1-6v-2-3a5 5 0 010-2v-2-2a1 1 0 01-1-1 4 4 0 011-3 2 2 0 010-2 2 2 0 010-1v-5-4a1 1 0 01-1 0l1-2-1-2a3 3 0 011-2 2 2 0 010-2v-2-5h1l-1-4a1 1 0 010-1v-1l-1-4h2a4 4 0 010-1 2 2 0 00-2 1h1a3 3 0 010-2 6 6 0 011-3 14 14 0 00-1-3l-3-3h3a38 38 0 00-1-6 1 1 0 010-2l1-1-1-6a1 1 0 011-2 5 5 0 010-3 2 2 0 001-1 4 4 0 01-1-2v-3l-1-2a2 2 0 002 0 2 2 0 002-1h-4a2 2 0 012-1 2 2 0 012 2v3l1 2a4 4 0 010 4v4h-1a1 1 0 010 1 1800 1800 0 010 10v6a16 16 0 011 2v4a4 4 0 000 2l-2 1h1a2 2 0 010 1v2a35 35 0 011 5v10a1 1 0 01-1 1v1l3 9-3-3v6a50 50 0 002 5l-3 1h1v8l1 1h-1l1 5v1l-1 2a6 6 0 00-1 2 25 25 0 011 3v2a13 13 0 010 4 2 2 0 010 1 18 18 0 010 2 4 4 0 010 1l1 4v3a8 8 0 01-1 2 10 10 0 01-1 4v2a16 16 0 011 5 23 23 0 001 4l4 11zm-3 4a2 2 0 00-1 1l2-1a3 3 0 00-1 0zm-1-36a2 2 0 002 1 2 2 0 001-1z"/><path class="s" d="M953 310a2 2 0 01-2-2v-3l-1-5v-2a4 4 0 010-1 3 3 0 010-1h-1l1-1a3 3 0 011-1 13 13 0 00-2-6l3-1a2 2 0 00-2 0 6 6 0 001-1v-4a10 10 0 000-3 14 14 0 010-2l1-2a2 2 0 01-1-1l-1-2-1-6a3 3 0 010-1h1v-3a72 72 0 00-1-6l-2-5 4 3-1-6-1-4-2-3 3 1v-1a2 2 0 011-1 4 4 0 010-1l1-4a65 65 0 01-2-6 2 2 0 010-1l1-5a14 14 0 010-2 18 18 0 00-1-6l-4-9 5 5a5 5 0 010-1 2 2 0 010-1 23 23 0 00-1-3 3 3 0 01-1-2v-3l2 1a13 13 0 010-2 20 20 0 00-1-7h1v-2a31 31 0 01-1-5l1-3v-2-4a8 8 0 010-3 6 6 0 000-2l-1-1h1c-1-2-1-4 1-4a2 2 0 013 1v2a1 1 0 01-1 1 1 1 0 010 1 8 8 0 010 1 6 6 0 001 4l4 8-4-4a13 13 0 01-1 3v4l1 2v5a2 2 0 01-1 1 19 19 0 011 4 9 9 0 000 2v2h-1a7 7 0 010 1 17 17 0 010 2l1 5a2 2 0 01-1 0l1 1h-1a5 5 0 000 1 3 3 0 010 2 19 19 0 010 5 9 9 0 001 4l-1 1a18 18 0 001 3h-1a63 63 0 002 7l2 6-2-3v1h-1a5 5 0 01-1 1v4a9 9 0 010 2 2 2 0 010 1 72 72 0 001 8 1 1 0 01-1 1 3 3 0 01-1 2v2a241 241 0 001 6h-1l2 6v3l-1 3a12 12 0 010 4 10 10 0 001 2l1 1-1 1h-1a6 6 0 01-1 2 15 15 0 011 4v3a6 6 0 010 2v2l1 4v2a1 1 0 010 1v1a2 2 0 01-2 2zm-2-13zm2-13a2 2 0 001 0zm-3-1a1 1 0 001 1l1-1zm3-6zm0-4h1a2 2 0 00-1 0zm-1-44a2 2 0 001 0zm1-18a2 2 0 00-1 0 3 3 0 002 0 2 2 0 00-1 0zm-2-40h1zm3-2z"/><path class="t" d="M683 408l1-2h1l4 1 2 1-1 2-7-2z"/><path class="u" d="M707 414l1-2h1l4 1h2l-1 3-7-2zM734 422l1-3 2 1h3l2 1-1 3-7-2z"/><path class="t" d="M754 451l2 1v2l-1 3-1 2-2-1 2-7z"/><path stroke-width="1.3" stroke="#1d150c" fill="#3f2b0f" stroke-miterlimit="10" d="M747 477l3 1v2l-1 4-1 2-3-1 2-8z"/><path class="u" d="M740 504l3 1-1 1-1 4v2l-3-1 2-7z"/><path class="t" d="M639 482l-2-1v-1l1-4v-2l3 1-2 7z"/><path class="u" d="M645 458l-3-1 1-1 1-3v-3l3 1-2 7zM653 431l-3-1v-2l1-3 1-2 2 1-1 7z"/><path stroke-width="1.4" stroke="#1d150c" fill="#3f2b0f" stroke-miterlimit="10" d="M712 523l-1 4h-2l-4-1-2-1 1-4 8 2z"/><path class="u" d="M686 517l-1 3-1-1-3-1h-3l1-3 7 2zM661 510l-1 2h-2l-3-1h-2l1-3 7 2z"/><path class="x" d="M635 501v3h3l1 1h3l2-1 1-4-5-2-5 3z"/><path class="x" d="M644 501v1l-1 2v2l4 1 4 1h1l1-1 1-4a14 14 0 00-1-1l-8-2zM662 505v2l-1 1v2l1 1 3 1h1l3 1 1-1h1l2-5-9-2h-2z"/><path class="x" d="M653 503v3l-1 2h1l3 1h1l2 1h1l1-1 2-4-8-3-2 1zM689 513v2l-1 1v1l2 1 5 2 1-1 1-3 1-1-6-4-3 2z"/><path class="x" d="M679 510l-1 4v1l1 1h3l3 1h3v-2l2-3-8-3-3 1z"/><path class="x" d="M672 508l-1 2-1 2v1l2 1h1l2 1h3a10 10 0 000-1l1-4-3-2zM704 517l-1 3v1l1 1h1l2 1 3 1h1l2-1v-2l2-2-8-3-3 1z"/><path class="x" d="M714 519l-1 4v1l1 1h2l2 1 4 1h4l1-1v-1l2-3-11-3h-4zM697 514l-1 2-1 2 1 2h1l1 1h2l2 1h1a9 9 0 000-2l1-4-3-1z"/><path class="y" d="M732 529h-1l-1-1h-3v-6h2z"/><path class="x" d="M646 496v2l-1 3h1l3 1h1l2 1h1l1-1 2-5-7-2-3 1z"/><path class="x" d="M655 498v2l-1 1v2l4 1 3 1h3v-4a14 14 0 000-2l-8-2zM685 507l-1 1v3l2 1 8 2h2v-3l1-2-9-4-3 2z"/><path class="x" d="M673 502l-1 5v1l1 1h2l1 1 4 1h3l1-1v-1l2-3-9-3-4-1z"/><path class="x" d="M664 499l-1 3v3l2 1h1l3 1 2 1h1a7 7 0 000-1l1-5-4-1zM641 498l1 2h2l1 1h1v-1l1-4v-1l-6 3zM704 511v1l-1 2v1l1 1 3 1 1 1 3 1 1-1h1l2-5-9-2h-2z"/><path class="x" d="M714 514l-1 2v3h1l3 1h1l2 1h4l1-5-8-3-3 1zM695 509l-1 2v3h1l3 1h1l2 1h1l1-1 1-5-7-3-2 2z"/><path class="x" d="M728 522h-2-3v-1l1-2v-3h1zM652 492v2l-1 3h1l3 1h1l2 1h1l1-1 2-5-7-2-3 1z"/><path class="x" d="M661 494v1l-1 2v2l4 1 3 1h1l2-1v-3a14 14 0 000-2l-8-2zM691 502l-1 2v3l2 1 6 2 1-1h1v-3l1-1-7-4-3 1z"/><path class="x" d="M679 499l-1 4v1l1 1h2l1 1 4 1h3l1-1v-1l2-3-9-3h-4z"/><path class="x" d="M670 497a14 14 0 01-1 1v3l2 1h1l3 1 2 1h1a7 7 0 000-2l1-3-4-2zM720 511v2l-1 2h-1l-2-1a6 6 0 01-1 0 6 6 0 00-1 0h-1l-1-1a6 6 0 01-1-1l2-4 4-1z"/><path class="x" d="M700 509v1l3 1 2 1 3 1h3v-1l2-4-6-3-5-1-2 2v3zM725 516h-2l-2-1h-1l-1-2 1-3 2-1 4 6-1 1zM647 494l1 2h2l1 1h1v-1l1-5-6 3zM654 490v2l1 1h3l1 1h4l1-5-5-2-5 3z"/><path class="x" d="M664 490l-1 1v4l3 1 4 1h1l2-1v-4a16 16 0 00-1-1l-8-2zM682 494l-1 2v1l-1 2 1 1 3 1h1l3 1h2l1-1 1-4-9-3h-1z"/><path class="x" d="M673 492l-1 3v3h3l2 1h2l2-1 1-4-7-3-2 1zM722 510l-2 1-2-1h-1l-1-1v-4l1-1 1-1 4 7z"/><path class="x" d="M709 502l-1 2v3h1l6 2v-1h1v-3l1-1-6-3-2 1z"/><path class="x" d="M698 499l-1 4 1 1v1h2l1 1h3l1 1 2-1h1v-2l1-3-7-3-4 1z"/><path class="x" d="M691 497l-1 2v3l2 1h1l2 1 2 1v-1a11 11 0 000-1l1-4-3-2zM675 487v2l-1 1v2l1 1 3 1h1l3 1h1l1-1 2-4-9-3h-2z"/><path class="x" d="M685 490l-1 2v3h1l3 1 1 1h2l2 1h1l1-1 2-5-9-3-3 1z"/><path class="x" d="M696 493l-1 2v3l3 1h1l2 1h1l2-1 1-5-7-2-2 1zM666 485v3l-1 2 1 1h3l1 1h3l1-1 2-4-8-3-2 1z"/><path class="x" d="M704 495v2l-1 1v2l4 1 4 1h2l1-4a14 14 0 00-1-2l-8-2z"/><path class="x" d="M718 504h-1l-1-1h-3v-6h2zM660 488v1h1l2 1h2l1-1 1-5h-1l-6 4zM667 484v1l2 1h4l1-5-1-1-6 4z"/><path class="x" d="M674 481l-1 2v1l-1 2 1 1h2l1 1 2 1 2-1 2-5-7-2h-1z"/><path class="x" d="M681 484l-1 2v2l1 1 3 1h3l2 1h2l2-6-8-2-4 1z"/><path class="x" d="M692 486l-1 3v3h3l2 1h2l2-1 1-4-7-3-2 1z"/><path class="x" d="M701 489l-1 1v2l-1 1v1l4 1 4 1h1l1-1 1-4a14 14 0 00-1-1l-8-2z"/><path class="x" d="M714 497h-2l-2-1h-1v-4l1-2h1z"/><path class="x" d="M711 491h-2l-2-1h-2v-4l1-1 1-2 4 7z"/><path class="x" d="M698 483l-1 2v2l1 1 5 1h2v-3l1-2-6-3-2 2z"/><path class="x" d="M687 480l-1 4 1 1 2 1h1l3 1h3l1-1v-1l1-3-7-3-4 1z"/><path class="x" d="M680 478l-1 1v4l2 1h1l1 1h3a11 11 0 000-1l1-4-3-2z"/><path class="x" d="M673 480v1l2 1 2 1h1l1-1v-3l1-1-1-2-6 4zM702 479l-1 2-1 2-1 1-1-1a6 6 0 01-2 0 5 5 0 00-1-1h-1l-1-1a6 6 0 010-1l1-4h5z"/><path class="x" d="M684 478l1 1 1 1 2 1h2l1 1 1-1 1-1 1-4-4-2h-4l-1 2-1 2z"/><path class="x" d="M679 477l1 1h2l1 1h1v-1l1-4v-1l-6 4zM706 484v1h-2l-2-1-1-1v-1l1-3 1-1 4 6h-1zM699 477l-2 1h-1l-3-1-2-1-1-1v-1l1-3 1-1 8 3z"/><path class="x" d="M690 475h-3l-2-1v-1l6-4v2l-1 4zM703 478l-1 2-3-2h-1v-1l1-2v-2l1-1 4 6h-1z"/><path class="x" d="M700 472l-1 1-3-1-1-1 1-2v-3l3 3 1 3z"/><path class="x" d="M691 470v1l3 1h1l1-1v-5l-5 3v1zM759 431v-3l-3-1h-2l-1-1h-1l-2 1-1 5 5 1 5-2z"/><path class="x" d="M750 431v-3l1-1v-1l-4-1-4-1h-2l-1 4a14 14 0 001 2l8 2zM732 426v-3l1-1-1-1-3-1-1-1-3-1-1 1h-1l-2 5 9 2h2z"/><path class="x" d="M740 428l1-2 1-3h-1l-3-1h-1l-2-1h-1l-2 1-1 5 7 3 2-2zM704 419l1-2 1-2v-1l-2-1-5-1h-2v3l-1 2 6 3 2-1z"/><path class="x" d="M715 421l1-4v-1h-1l-1-1h-2l-3-1h-3v1l-1 1-1 3 7 3 4-1z"/><path class="x" d="M722 423l1-1 1-3-1-1-1-1h-1l-2-1h-3a9 9 0 000 1l-1 4 3 2zM690 415l1-4v-1l-1-1h-1l-2-1h-6v1l-1 1-1 3 7 3 4-1z"/><path class="x" d="M680 412l1-4-1-1-2-1-2-1-5-1h-3l-1 1-1 1-1 3 10 4 5-1zM697 417l1-2 1-2-1-1-1-1h-1l-2-1h-3a11 11 0 000 1l-1 4 3 2z"/><path class="y" d="M662 403v-1l2 1h3v5l-1 1h-1z"/><path class="x" d="M747 435l1-2v-3l-3-1h-1l-2-1h-1l-2 1-1 5 7 3 2-2z"/><path class="x" d="M739 433v-1l1-2v-2l-4-1-4-1h-1l-1 1-1 3a14 14 0 001 2l8 2zM708 425l1-2 1-2v-1l-2-1-8-2-1 1h-1v3l-1 1 8 4 3-1z"/><path class="x" d="M721 430l1-6v-1h-1l-2-1-2-1-3-1h-2l-2 1-1 2-1 2 9 4 4 1z"/><path class="x" d="M729 432l2-3v-3l-2-1h-2l-2-1-2-1-1 1a7 7 0 000 1l-1 5h4zM753 433l-1-1-1-1h-3l-2 5h1l6-3zM690 420v-1l1-1v-2l-1-1-3-1-1-1h-5l-2 5 9 3 2-1z"/><path class="x" d="M680 418l1-3v-2l-1-1-3-1h-3l-2-1h-2l-2 6 9 3 3-1zM699 423v-3l1-2-1-1h-3l-1-1h-4l-2 5 8 3 2-1z"/><path class="x" d="M665 409h4l1 1 1 1-1 1v3l-2 1zM741 439l1-2v-3h-3l-1-1h-5l-1 5 7 3 2-2z"/><path class="x" d="M733 437v-1l1-2v-2l-4-1-4-1h-1l-1 1-1 3a14 14 0 001 2l8 2zM702 429l1-2 1-2v-1l-2-1-7-1h-1v3l-1 2 7 3 2-1z"/><path class="x" d="M715 432l1-4-1-1-2-1-2-1-3-1h-2l-2 1-1 2-1 2 9 4 4-1z"/><path class="x" d="M724 435a13 13 0 011-2v-3l-2-1h-2l-2-1-2-1-1 1a7 7 0 000 1l-1 3 4 2zM673 421l1-3 1-1 1-1 1 1a6 6 0 012 0 5 5 0 001 1h2a6 6 0 010 1l-1 4-5 1z"/><path class="x" d="M694 423v-1l-3-2-2-1h-3l-2-1-1 1h-1l-1 4 6 3 5 1 1-2 1-2zM669 416v-1h2l2 1 1 1v1l-1 3-1 1-4-6h1zM747 437l-1-1-1-1h-3v1l-2 4h1l6-3zM739 441l1-2-1-1h-3l-1-1h-3l-1 1-2 4 5 2 5-3z"/><path class="x" d="M730 442v-2l1-2v-2l-4-1-3-1h-1l-2 1v4a16 16 0 000 2l8 1zM712 437l1-2v-1l1-2h-2l-2-1-2-1-2-1-2 1h-1l-1 5 9 2h1z"/><path class="x" d="M721 439l1-2v-3h-1l-2-1h-2l-1-1h-1l-2 1-1 5 7 2 2-1zM672 421h4l1 1h1v4l-1 1-1 2-4-7z"/><path class="x" d="M685 429l1-2v-2l-1-1-6-1h-1v3l-1 1 6 4 2-2z"/><path class="x" d="M696 432l1-4-1-1-2-1h-1l-3-1h-3l-1 1v1l-1 3 7 3 4-1z"/><path class="x" d="M703 434l1-1v-4l-2-1h-1l-2-1h-2a11 11 0 00-1 1l-1 4 3 2zM719 444v-3l1-2h-1l-3-1-1-1-3-1-1 1h-1l-2 5 9 2h2z"/><path class="x" d="M709 441l1-2v-3h-1l-3-1h-1l-2-1h-2l-1-1-1 1-2 5 8 3 4-1z"/><path class="x" d="M698 438l1-2v-3l-3-1h-2l-1-1h-1l-2 1-1 5 7 3 2-2zM728 446v-2l1-3h-1l-3-1h-1l-2-1h-1l-2 1-1 5 7 2 3-1z"/><path class="x" d="M690 436v-3l1-1v-1l-4-1-4-1h-1l-1 1-1 3a16 16 0 001 2l8 2z"/><path class="x" d="M676 428h5v5l-1 1h-1zM734 444l-1-2h-2l-1-1h-1l-1 1-1 5 1 1 6-4zM727 447v-1h-3l-2-1-1 1-1 4 1 2 6-5z"/><path class="x" d="M720 450v-2l1-1v-2l-3-1v-1h-4l-1 1-1 4 7 2h1z"/><path class="x" d="M713 448v-2l1-2v-1h-2l-2-1-1-1h-2l-2-1h-1l-2 1-1 5 8 3 4-1z"/><path class="x" d="M702 445l1-2v-3h-1l-2-1h-2l-1-1h-2l-1 1-1 5 7 2 2-1z"/><path class="x" d="M693 443l1-2v-3l-3-1-4-1h-3v4a14 14 0 001 2l8 2z"/><path class="x" d="M680 434l2 1h3v1l-1 2v3h-1z"/><path class="x" d="M683 441l2-1 2 1h1l1 1v3l-1 1-1 2-4-7z"/><path class="x" d="M696 449l1-2v-3l-1-1-6-1h-1v3l-1 2 6 3 2-1z"/><path class="x" d="M707 451l1-3-1-1v-1h-2l-1-1-3-1h-2l-1 1h-1v2l-1 2 7 3 4-1z"/><path class="x" d="M714 454l1-2v-4h-2l-1-1h-2l-2-1a11 11 0 000 2l-1 3 3 2z"/><path class="x" d="M721 451v-1l-2-1h-2l-1-1-1 2v2l-1 2v2l7-5zM692 452l1-2v-2h3a5 5 0 012 1 5 5 0 001 0l1 1h1a5 5 0 010 1l-1 4h-5z"/><path class="x" d="M709 453v-1l-1-1h-2l-2-1h-2l-1 1-1 4 4 2 4 1 1-2v-3z"/><path class="x" d="M715 455l-1-2h-2l-1-1-1 1h-1l-1 5h1l6-3zM687 447l1-1h2l2 1 1 1v2l-1 3h-1l-4-5v-1zM695 455l2-1 1-1 3 1 2 1 1 1v1l-1 4-2 1-7-4z"/><path class="x" d="M704 457v-1l2 1h3v1l-7 4 1-2 1-3zM690 453l2-1 3 1 1 1-1 3-1 2-4-5v-1z"/><path class="x" d="M694 459v-1l4 1v6l-3-3-1-3zM703 461l-1-1h-3v-1l-1 2v4l5-3v-1zM732 528h3v-3l1-2v-2l-1-2-4-1-2 5 3 5z"/><path class="x" d="M731 519h3l2 1h1l1-4 1-4v-1l-1-2h-4a15 15 0 00-2 1l-2 8zM736 501h3l1 1 1-1 1-3 1-1 1-3-1-1v-1l-5-2-2 9v2z"/><path class="x" d="M734 510h2l3 1v-1l1-3v-1l1-2v-1l-1-2-5-1-2 7 1 3zM744 473l2 1 1 1h1l1-2 1-5v-2h-3l-1-1-4 6 2 2z"/><path class="x" d="M741 484l4 1h1v-1l1-1v-2l1-3v-3h-1l-1-1-3-1-3 8 1 3z"/><path class="x" d="M739 491l1 1 3 1 1-1 1-1v-1l1-2v-2-1a11 11 0 00-1 0l-4-1-2 3zM747 459l4 1h1l1-1v-1l1-2v-6h-1l-1-1-3-1-2 8v3z"/><path class="x" d="M750 449l4 1 1-1 1-2 1-2 1-5v-3l-1-1-1-1-3-1-4 10 1 5zM745 466l2 1 2 1 1-1 1-1v-1l1-2 1-2-1-1a10 10 0 00-1 0l-4-1-2 3z"/><path class="y" d="M760 431l-1 2v3h-5l-1-1v-1z"/><path class="x" d="M727 516l2 1h3l1-3v-1l1-2v-1l-1-2-5-1-3 7 2 2z"/><path class="x" d="M729 508h1l2 1h2l1-4 1-4v-1l-1-1-3-1a16 16 0 00-2 1l-2 8zM737 477l2 1 2 1h1l1-2 2-8v-1l-1-1h-2l-2-1-4 8 1 3z"/><path class="x" d="M733 490l5 1h1l1-1v-2l1-2 1-3v-2l-1-2-1-1-3-1-4 9v4z"/><path class="x" d="M730 498l3 2h3l1-2v-2l1-2 1-2v-1a7 7 0 00-2 0l-4-1-1 4zM729 522l1-1 1-1v-1l1-1-1-1-5-2v1l3 6zM742 459h1l2 1h1l1-1 1-3 1-1v-5l-5-2-2 9v2z"/><path class="x" d="M745 449l2 1h2l1-1 1-3v-3l1-2v-2l-6-2-2 9 1 3zM740 468h2l2 1 1-1v-3l1-1v-4l-5-2-3 8 2 2z"/><path class="x" d="M753 434v4l-1 1v1l-2-1h-3v-1zM723 510l2 1h3l1-3v-1l1-2v-1l-1-2-5-1-3 7 2 2z"/><path class="x" d="M725 502h1l2 1h2l1-4 1-4v-1l-1-1-3-1a16 16 0 00-2 1l-2 8zM733 471l2 1 2 1h1l1-2 1-7v-1h-3l-1-1-4 7 1 2z"/><path class="x" d="M730 484l4 1h1v-1l1-2 1-2 1-3v-2l-1-2-2-1-2-1-4 9 1 4z"/><path class="x" d="M727 493a15 15 0 012 1h3l1-2v-2l1-2 1-2-1-1a7 7 0 00-1 0l-3-1-2 4zM741 442l3 1 1 1 1 1-1 1a6 6 0 010 2 5 5 0 000 1h-1v2a6 6 0 01-1 0l-4-1-1-5z"/><path class="x" d="M739 463h2l1-3 1-2v-3l1-2v-1l-1-1-4-1-3 6-1 5 2 1 2 1zM746 438h1v2l-1 2v1h-2l-3-1-1-1 6-4v1zM725 516l1-1 1-1v-3l-5-2v1l3 6zM721 508l2 1 1-1v-3l1-1v-3l-1-1-4-2-2 5 3 5z"/><path class="x" d="M721 499h1l2 1h2l1-4 1-3v-1l-1-2h-4a14 14 0 00-1 0l-2 8zM725 481l2 1h1l2 1 1-2 1-2v-2l1-2-1-2v-1l-5-1-2 9v1z"/><path class="x" d="M723 490l3 1h2v-1l1-2v-2l1-1v-1l-1-2-5-1-2 7 1 2zM741 441v4l-1 1v1h-4l-1-1-1-1 7-4z"/><path class="x" d="M733 454l2 1h2l1-1 2-6h-1v-1h-3l-1-1-4 6 2 2z"/><path class="x" d="M730 465l4 1 1-1 1-2v-1l1-3v-3l-1-1h-1l-3-1-3 7 1 4z"/><path class="x" d="M728 472l2 1h3l1-2v-1l1-2v-2a11 11 0 00-1-1l-4-1-2 3zM718 488h3l2 1 1-1 1-3v-1l1-3-1-1v-1l-5-2-2 9v2z"/><path class="x" d="M721 478l2 1h3v-1l1-3v-1l1-2 1-2v-1l-1-1-5-2-3 8 1 4z"/><path class="x" d="M724 467l2 1h3l1-3v-2l1-1v-1l-1-2-5-1-3 7 2 2zM716 497h3l2 1v-1l1-3v-1l1-2v-1l-1-2-4-1-3 7 1 3z"/><path class="x" d="M726 459h3l1 1h1l1-4 1-4v-1l-1-1-3-1a14 14 0 00-2 1l-2 8z"/><path class="x" d="M734 445l1 1-1 1v3h-6v-2zM718 503l2-1v-2l1-1v-1l-1-1-5-1-1 1 4 6zM715 496h1v-3l1-2-1-1-4-1-1 1 4 6z"/><path class="x" d="M712 489h2l1 1h3v-3h1v-4l-1-1-4-1-2 7v1z"/><path class="x" d="M714 482h2l2 1h1l1-2 1-2v-3l1-2v-1l-1-2-5-1-3 8 1 4z"/><path class="x" d="M717 471l3 1h2v-1l1-2 1-2v-3l-1-1-4-1-3 7 1 2z"/><path class="x" d="M719 462l2 1h3l2-3 1-4-1-1v-2h-4a16 16 0 00-2 1l-2 8z"/><path class="x" d="M728 449l-1 2v3h-1l-2-1h-3v-1z"/><path class="x" d="M721 452l1 2-1 2v1l-1 1h-3l-1-1-2-1 7-4z"/><path class="x" d="M713 465l2 1h3l1-1 1-6v-1h-3l-2-1-3 6 1 2z"/><path class="x" d="M711 476l4 1 1-1v-2l1-1 1-3v-3l-1-1h-1l-3-1-3 7 1 4z"/><path class="x" d="M709 483l1 1h4v-2l1-1 1-2v-2a11 11 0 00-2 0l-3-1-2 3z"/><path class="x" d="M711 490h1l1-2 1-2v-1l-2-1h-2l-1-1-2 1 4 6zM710 461l2 1h2v3a5 5 0 010 2 5 5 0 00-1 1v1l-1 1a6 6 0 01-1 0l-4-1v-5z"/><path class="x" d="M709 478h1l1-1 1-2v-2l1-1-1-1-1-1-4-1-2 4-1 4 2 1h3z"/><path class="x" d="M707 484l2-1v-2l1-1v-1l-1-1-4-1-1 1 3 6zM715 456l1 1v2l-1 2-1 1h-2l-2-1-1-1 5-4h1zM708 464l1 2v1l-1 3-1 2-1 1h-1l-3-1-1-2 3-7z"/><path class="x" d="M705 473h1v2l-1 3h-1l-4-7 2 1 3 1zM709 460l1 1-1 3-1 1-2-1-2-1h-1l5-4 1 1z"/><path class="x" d="M703 463h1l-1 4h-6l3-3 3-1zM701 472l1-1 1-3-2-1h-4l3 5h1zM662 403h-3v1l-1 2v2l-1 1v2l1 1 5 1 1-5-2-5z"/><path class="x" d="M662 413l-2-1h-3l-1 3-1 4v3h4a15 15 0 002-1l2-8zM657 431l-1-1h-2l-1-1-1 1-1 3-1 1-1 3 1 1v2l5 1 2-9v-1z"/><path class="x" d="M659 422l-2-1h-3l-1 3v1l-1 2v1l1 2 5 1 3-7-2-2zM650 458l-2-1h-3l-1 1-1 6v1h3l2 1 3-6-1-2z"/><path class="x" d="M652 447l-4-1-1 1-1 2v1l-1 3v3l1 1h1l3 1 3-7-1-4z"/><path class="x" d="M654 440l-1-1h-4l-1 2v1l-1 2v2a9 9 0 002 0l3 1 2-3zM646 472l-4-1-1 1h-1v2l-1 1v6l1 1h1l3 1 3-7-1-4z"/><path class="x" d="M643 482l-4-1-1 1v1l-1 2-1 2-1 4v4h1l1 1 3 1 4-10-1-5zM648 465l-2-1h-3l-1 2v1l-1 2v2a11 11 0 001 0l4 1 2-3z"/><path class="y" d="M634 501l-1-1 1-1v-3l1-1 2 1h3v1z"/><path class="x" d="M666 415l-2-1h-3l-1 3v2l-1 1v1l1 2 5 1 3-7-2-2z"/><path class="x" d="M664 424l-1-1h-2l-1-1-1 1-1 3-1 4v1l1 2h3a15 15 0 002-1l2-8zM656 454l-2-1-2-1-1 1-1 2-2 7 1 1v1h3l1 1 4-8-1-3z"/><path class="x" d="M661 442l-6-2-1 1-1 2-1 2-1 3v2l1 2 2 1 2 1 4-9 1-3z"/><path class="x" d="M663 433l-3-1-2-1-1 1-1 2v1l-1 2-1 2 1 1a7 7 0 001 0l5 2v-4zM664 410h-1l-1 1v4l5 1v-1l-3-5zM651 473l-1-1h-1l-2-1-1 1-1 3-1 1v4l1 1 4 2 3-9-1-1z"/><path class="x" d="M649 482h-3l-1-1h-1l-1 1-1 3v3l-1 2v2l6 2 3-8-1-4zM654 464l-3-1h-3v3l-1 1v5l5 1 3-7-1-2z"/><path class="x" d="M640 497v-1-1-2l1-1h6v2zM671 421l-3-1h-3v3l-1 2v4l5 1 3-7-1-2z"/><path class="x" d="M668 430l-1-1h-2l-1-1-1 1-1 3-1 4v1l1 2h3a16 16 0 002-1l2-8zM660 460l-2-1-2-1-1 1-1 1-1 7v2h3l2 1 3-8-1-2z"/><path class="x" d="M663 447l-4-1-1 1-1 2v2l-1 4-1 1 1 2v1h2l3 1 3-9-1-4z"/><path class="x" d="M666 438a15 15 0 01-2 0l-2-1-1 1-1 2v1l-1 2v3a8 8 0 001 0l3 1 2-3zM652 489l-2-1h-2l-1-1 1-2a5 5 0 010-1 4 4 0 001-1v-3a5 5 0 011 0l4 1 1 5z"/><path class="x" d="M654 468l-1 1-2 2v3l-1 3-1 1 1 1v1l4 1 3-6 1-5-2-1-2-1zM647 494l-1-1v-2l1-2 1-1h1l3 1 1 2-6 3zM668 416h-1l-1 1v3l1 1 4 1v-1l-3-5zM672 423h-3v3l-1 1v3l1 2 4 1 2-5-3-5z"/><path class="x" d="M673 432h-2l-2-1h-2l-1 4-1 4v1l1 1 4 1a16 16 0 002-1l2-8zM668 450h-2l-1-1h-2v1l-1 3-1 1-1 3 1 1v1l5 2 2-9v-2z"/><path class="x" d="M670 441h-2l-3-1v1l-1 3v1l-1 2v1l1 1 5 2 2-8-1-2zM652 490v-1-2l1-2v-1l2 1h3l2 2-7 4z"/><path class="x" d="M660 477h-2l-1-1h-1l-1 1-1 6v1l3 1 1 1 4-6-2-3z"/><path class="x" d="M663 467l-4-1h-1v1l-1 1v2l-1 3v3h2l3 2 3-8-1-3z"/><path class="x" d="M665 460l-1-1-3-1h-1l-1 2v1l-1 2v3a10 10 0 001 0l4 1 2-3zM675 444l-2-1h-1l-2-1v1l-1 3-1 1-1 3 1 1v2l5 1 2-9v-1z"/><path class="x" d="M672 453h-2l-2-1h-1v2l-1 2v1l-1 2v2l-1 1 1 2 5 1 3-8-1-4z"/><path class="x" d="M669 464l-2-1h-2l-1 1-1 2v2l-1 1v2l1 1 5 1 3-7-2-2zM677 435l-2-1h-3l-1 3v1l-1 2v1l1 2 5 1 2-7-1-2z"/><path class="x" d="M667 473l-1-1h-4l-1 3-1 4v1l1 2h3a16 16 0 002-1l2-8z"/><path class="x" d="M659 486v-2-2h1v-1l2 1h3v1zM675 428l-2 1v2l-1 2v1h1l5 2 1-1-4-7z"/><path class="x" d="M678 435l-1 1v2l-1 2 1 1 4 2 2-1-5-7z"/><path class="x" d="M681 442h-3l-2-1v1l-1 2-1 1v3l1 1 4 1 2-6v-2z"/><path class="x" d="M679 450l-2-1-2-1-1 1v1l-1 3-1 1v1l-1 3v1l1 1 5 1 3-8-1-3z"/><path class="x" d="M676 460h-2l-3-1v1l-1 3v1l-1 2v1l1 1 5 2 2-8-1-2z"/><path class="x" d="M674 469h-2l-1-1h-2l-1 4-1 3v3h4a16 16 0 002 0l2-8z"/><path class="x" d="M666 483l-1-1 1-2v-2l1-1 2 1h3v2z"/><path class="x" d="M672 479l-1-1 1-3v-1l1-1h1l2 1h1l2 1-7 5z"/><path class="x" d="M680 466l-2-1h-3l-1 1-1 6v1l3 1 2 1 3-6-1-3z"/><path class="x" d="M682 456l-3-1h-1l-1 1v1l-1 2-1 3v1l1 2h2l2 2 3-8-1-3z"/><path class="x" d="M685 448h-2l-2-1h-2v2l-1 1v2l-1 2a11 11 0 002 1l3 1 2-3z"/><path class="x" d="M682 441h-1l-1 2v3h-1v1h2l2 1h4l-5-7zM683 470l-2-1h-2v-3a5 5 0 011-1 5 5 0 000-1v-1l1-1v-1a6 6 0 011 0l4 1 1 5z"/><path class="x" d="M684 453h-1l-1 2v2l-1 2v2h1l4 1 2-4 1-4-2-1h-3z"/><path class="x" d="M686 448h-1l-1 1v1l-1 1 1 1v1l5 1v-1l-3-5zM678 475l-1-1v-1l1-2 1-2h2l3 1v2l-5 3h-1zM686 467l-1-1-1-2 1-2 1-3h1l1-1 4 1 1 2-4 8z"/><path class="x" d="M688 459l-1-1 1-2v-2l1-1 4 7-2-1h-3zM684 472l-1-2 1-2v-1h4l2 1v1l-5 3h-1z"/><path class="x" d="M690 469l-1-1 1-4h3l3 1-3 2-3 2z"/><path class="x" d="M692 459l-1 1v3h-1l2 1h3l1 1-3-5-1-1z"/><path transform="rotate(-75 696 466)" style="isolation:isolate" opacity=".1" fill="url(#a)" d="M644 414h103v104H644z"/><path class="aa" d="M634 502l8-4 7-4 8-4 12-7 11-6 13-8 4-2-1-2-4 2-13 8-11 6-12 7-8 4-7 5-8 3v2z"/><path class="aa" d="M661 403l3 7 4 8 5 8 6 12 7 11c3 5 5 7 7 13l2 4 2-1-2-4-7-13-7-11-7-12-4-8-4-8-4-7h-2zM759 429l-7 4-7 4-9 5-11 6-12 7-12 7-4 2 1 2 4-2 12-8 12-6 11-7 9-4 7-4 7-4 1-2zM733 529l-3-8-4-7-5-9-7-11-6-11-7-13-2-4-2 1 2 4 7 13 7 11 6 11 5 9 4 7 4 8h2z"/><path class="aa" d="M698 469l-4-2c-1-1 0-3 1-4s3 0 4 1v2a6 6 0 01-1 3z"/><path class="ab" d="M418 668c0 5 3 9 7 10-1 4-2 7-1 11s4 7 8 6c-2 6 2 14 9 16l3 9c2 3 6 3 8 1a10 10 0 0012 8c1 2 2 5 4 6s6 2 8 0a7 7 0 006 6 23 23 0 014 0c4 0 7 4 11 4 5 1 6-4 10-5s7 1 11 2 9-2 7-5c4 2 7 3 11 3s8-4 7-8c4 4 11 0 10-4a9 9 0 0015-10 7 7 0 107-12 7 7 0 008-13c2 0 5-1 6-4s0-5-2-6c7-1 12-12 7-18a8 8 0 104-15 9 9 0 00-4-17c2-5-3-11-8-10a7 7 0 00-6-12c5-5 0-15-7-15 2-3 0-6-3-8s-7-1-10-1c0-3-1-7-4-9s-7-3-8 0c-3-7-12-11-18-7-3-6-13-6-16 0-6-6-18-5-23 2-5-5-16-2-17 5-7-5-17 0-18 8-6-3-14 1-14 7a13 13 0 00-8 16c-3 1-4 6-4 11a4 4 0 01-3 3c-2 1-5 4-6 10l2 9c0 1-8 5-2 14l-3 12z"/><path class="ac" d="M581 601c-2-3-5-5-8-5 2-3 0-6-3-8s-7-1-10-1c0-3-1-7-4-9s-7-3-8 0c-3-7-12-11-19-7-2-6-12-6-15 0-6-6-18-5-23 2-5-5-16-2-17 5-7-4-17 0-18 8-6-3-14 1-14 7a13 13 0 00-8 16c-3 1-4 6-4 11a4 4 0 01-3 3c-2 1-5 4-6 10l2 9c0 1-8 5-2 14l-3 12c0 4 3 9 7 10-1 4-2 7-1 11s5 6 8 6c-2 6 2 14 9 16l3 9c2 3 6 3 8 1a10 10 0 0012 7l4 7c2 2 6 2 8 0a7 7 0 006 6 23 23 0 014 0c4 0 7 3 11 4 5 1 6-4 10-5s7 1 11 2 9-2 7-5c4 2 7 3 11 3a23 23 0 001-4 4 4 0 000-2l-3-3c-3-1-4-4-7-6s-8 0-12 0-9-3-8-7c2-5 9-3 14-6a4 4 0 00-4-4c0-3 4-4 6-5s6-4 4-7c-2-2-6 0-9-2-2-2 1-6 3-7l9-1c3-1 6-3 5-5-1-5-9-4-10-8 0-2 2-4 1-6 0-3-4-3-6-1l-6 4a7 7 0 01-5-12l8-1c3 0 5-4 4-6l-7-3a26 26 0 0114-11c-3-2-2-7 0-9s6-2 10-3c8-1 21-1 28-6-7-9 6-14 13-17z"/><path class="ad" d="M461 699l-5-7-9-14c-2-3-2-7 1-7-2-3-3-8 1-9a15 15 0 01-11-11c0-2 0-6 2-8l3-3a8 8 0 002-8l4-2-2-4a4 4 0 000-6l2-4c3-7 12-11 18-7 3-4-2-10 1-13s7 0 10 0c4 0 8-3 11-4 5-2 11-1 15 1 5 2 9 5 11 9s3 10-1 13c-3 2-6 2-9 2l-15 1a10 10 0 00-5 1 6 6 0 00-2 8 8 8 0 006 4c0 3-4 5-7 6l-9 2c-2 1-6 6-4 8a8 8 0 016 2 22 22 0 00-6 11 102 102 0 0021 13l-6 3c-2 2-4 3-4 5s2 4 4 3l-1 8-6 5c-5 3-10 5-16 2z"/><path class="ad" d="M559 599l-2-1-5-4-5-2c-2-1-3-2-3-4v-3a3 3 0 00-2-2 14 14 0 00-10 0c-1 1-3 2-4 1l-1-3c0-2-2-4-5-4a18 18 0 00-7 0c-3 1-9 0-10 5a1 1 0 000 1l2 1a5 5 0 012 0c2 2 6 3 6 7a7 7 0 000 2l4 1h4c3 1 2 5 1 7s-4 5-3 8a25 25 0 006 2l-4 4-1 4c2 2 5 1 7 0s4-4 6-4a10 10 0 013 1 14 14 0 007 1 4 4 0 003-1c2-2 0-7 3-9l4 1a5 5 0 004-9zM488 661c-1 2-2 4 0 6a7 7 0 002 0c3 2 5 5 6 8 1 1 2 3 1 4l-3 1a5 5 0 00-2 7 28 28 0 012 2c1 2 0 5-1 7l-3 7a11 11 0 01-3 4l-5 2h-13a26 26 0 00-5-1c-2 0-4 0-5 2 0 2 2 4 4 5h6a4 4 0 012 1c2 1 1 4 1 5a7 7 0 0013 5 22 22 0 005 6c2 2 5 3 8 2s4-4 3-7l-4-4a7 7 0 010-9 7 7 0 013-2l4-2a4 4 0 001-2 17 17 0 00-3-7c4-2 7-4 9-7s0-9-4-9h-4v-4l2-3c1-4-5-6-6-9l-1-5c-1-4-7-4-10-3zM428 668a3 3 0 000 1l3 1c2 0 3 2 4 5a31 31 0 01-1 6 16 16 0 002 8l5 5 1 5a7 7 0 003 4 3 3 0 004-1c1-2 0-4-1-5l-3-4-1-6-2-7c-1-2-2-6 0-8a4 4 0 000-1 3 3 0 000-3c-3-5-12-9-14 0zM446 598a6 6 0 003 1c1 1 0 2-1 3l-3 1a6 6 0 00-2 3l-2 6a4 4 0 000 3h4a7 7 0 001-5 8 8 0 011-4c3-3 10 0 12-4l1-5c0-1 1-5 3-4 3 1 5-1 7-3 2-1 3-2 3-4a3 3 0 00-1-1c-3-2-6-1-8 1s-5 4-8 4c-5 0-10 2-10 8z"/><path class="ac" d="M1062 588c0-6 4-12 10-15s13-3 17 2c4-5 10-10 16-10s14 2 16 8c10 2 16 13 13 22a36 36 0 00-2 4v4c-1 4-3 8-6 11-6 6-13 11-22 14s-19 5-28 1c-7-3-13-10-13-18v-9c0-5-2-9-1-14z"/><path class="ad" d="M1070 618c0-5-3-10-2-15 1-6 4-12 10-15s13-2 18 2c4-5 9-9 16-10s13 2 16 8a15 15 0 017 3c1-8-5-17-14-19-2-6-9-9-16-8s-12 5-16 10c-4-5-12-5-18-2s-9 9-10 15l2 14v9a21 21 0 006 13 35 35 0 001-5z"/><path class="ac" d="M1159 716c8-1 15-8 13-17a14 14 0 008-24c3-3 4-8 3-12s-6-7-10-9a37 37 0 00-38 3 18 18 0 01-3 2 43 43 0 01-4 2c-7 1-10 8-10 15s2 12 5 18c3 8 10 7 16 12 6 4 10 11 20 10z"/><path class="ab" d="M1180 675c3-3 4-8 3-12s-6-7-10-9a36 36 0 00-12-4 17 17 0 018 8c1 4 0 10-3 12a14 14 0 01-8 25c2 8-5 15-12 17 3 3 7 5 13 4 8-1 15-9 13-17a14 14 0 008-24z"/><path class="ac" d="M1007 669a16 16 0 001 18 27 27 0 00-8 19c-1 6 2 12 7 15s11 1 17-1c-2 4-1 8 1 11a18 18 0 0010 6 23 23 0 0016-1c5-2 8-7 9-12 5 2 11 1 15-3a32 32 0 009-32c-2-6-7-12-13-14 1-3 2-7 0-11-2-3-5-4-8-6-7-3-15-5-22-5-8 0-12 4-19 7-6 3-11 2-15 9z"/><path class="ab" d="M1071 667h1a10 10 0 00-1-2v2zM1083 700c-1 5-4 9-8 13s-10 4-15 2c-1 5-4 10-9 13a23 23 0 01-16 1 18 18 0 01-10-6c-2-4-3-8-1-11-6 1-12 3-17 0-4-2-6-6-7-10a25 25 0 000 4c-1 6 2 12 7 15s11 1 17-1c-2 4-1 8 1 11a18 18 0 0010 6 23 23 0 0016-1c5-2 8-7 9-12 5 2 11 1 15-3s7-8 8-13a34 34 0 002-15 38 38 0 01-2 7zM1008 678a16 16 0 01-3-6 17 17 0 000 9 27 27 0 013-3z"/><path class="ac" d="M1013 597c-1 1-3 3-3 5s1 5 3 5a25 25 0 00-15 19 37 37 0 001 13c1 4 3 9 8 9a9 9 0 012 0c2 1 3 3 3 5a18 18 0 0031 7 5 5 0 013-2l4 2a23 23 0 0035-13 23 23 0 00-4-41c3-2 3-7 2-11s-5-7-9-8a25 25 0 00-14-2 20 20 0 01-4 0 20 20 0 01-5-1 24 24 0 00-20 3l-7 5c-5 1-7 1-11 5z"/><path class="ab" d="M1095 626a24 24 0 00-9-16 22 22 0 011 5 24 24 0 01-10 21 23 23 0 01-35 13l-4-2a5 5 0 00-2 2 18 18 0 01-18 7 17 17 0 01-6-3 18 18 0 0031 7 5 5 0 013-2l4 2a23 23 0 0035-13 24 24 0 0010-21z"/><path class="ad" d="M1019 617c-6 0-11 6-10 12s8 10 14 10c2-1 4-1 5-3a8 8 0 001-4 37 37 0 00-1-8 9 9 0 0010-6c1-3 1-7 4-8l5 1 5-5c1-2 2-4 1-6-2-3-5-3-9-3h-14c-7 0-6 2-8 8-2 4-7 7-3 12z"/><path class="ac" d="M1094 661c-2 0-4 0-6 2s-2 4-1 5a25 25 0 00-23 5 37 37 0 00-8 11c-2 4-3 9 0 12a10 10 0 013 2c1 2 0 4-1 6a18 18 0 0019 25 5 5 0 013 0l2 3a23 23 0 0036 13 23 23 0 0022-34c4 0 8-3 9-7s0-8-1-12a25 25 0 00-10-11 12 12 0 01-6-6 24 24 0 00-18-10l-9-1c-4-2-6-4-11-3z"/><path class="ab" d="M1139 735a24 24 0 003-18 22 22 0 01-2 5 24 24 0 01-21 10 23 23 0 01-36-13l-2-4a5 5 0 00-3 1 18 18 0 01-18-7 17 17 0 01-2-5 18 18 0 0019 25 5 5 0 013 0l2 3a23 23 0 0036 13 24 24 0 0021-10z"/><path class="ad" d="M1088 687c-5-4-13-2-15 3s-1 13 4 16l5 2a8 8 0 004-3 36 36 0 004-6 9 9 0 0011 1c3-2 6-5 8-4l4 4h7c2-1 4-2 5-5 0-3-2-5-5-7l-11-9c-5-5-7-2-12 0-3 2-9 2-9 8z"/><path class="ac" d="M1121 591c-2 0-4 0-6 2s-2 4-1 5a25 25 0 00-23 5 37 37 0 00-7 11c-3 4-4 9 0 12a10 10 0 012 2c1 2 0 4-1 6a18 18 0 0019 25 5 5 0 013 0c2 0 2 2 3 3a23 23 0 0035 13 23 23 0 0022-34c4 0 8-3 9-7s1-8-1-12a25 25 0 00-10-11 12 12 0 01-6-6 24 24 0 00-18-10c-4 0-5 0-9-2-4-1-6-3-11-2z"/><path class="ab" d="M1166 665a24 24 0 003-18 22 22 0 01-2 5 24 24 0 01-21 10 23 23 0 01-35-13l-3-4a5 5 0 00-3 1 18 18 0 01-17-7 17 17 0 01-3-5 18 18 0 0019 25 5 5 0 013 0c2 0 2 2 3 3a23 23 0 0035 13 24 24 0 0021-10z"/><path class="ad" d="M1113 609c-5-3-13-1-15 4s-1 12 4 16a7 7 0 005 1 8 8 0 004-2 37 37 0 005-7 9 9 0 0011 2c2-2 5-5 8-4l3 4h7c2 0 4-3 5-5 0-3-2-6-5-8l-10-8c-6-5-7-3-12 0-4 2-10 1-10 7z"/><path class="ac" d="M1040 644a19 19 0 00-6 6c-4 5-2 11 0 17-7 3-9 13-5 19s14 8 21 5a24 24 0 0034 0 25 25 0 003-3l3-3a9 9 0 014-1 13 13 0 0010-5 21 21 0 004-12 26 26 0 011-6l2-4a17 17 0 00-3-16 21 21 0 00-15-8 19 19 0 00-15-10c-10-1-13 5-18 11-5 5-14 6-20 10z"/><path class="ad" d="M1045 677c-2-6-4-12-1-18a19 19 0 016-5c6-4 16-5 20-10 6-6 9-12 19-11a19 19 0 0115 10 22 22 0 017 2 18 18 0 00-2-6 21 21 0 00-15-8 19 19 0 00-16-10c-10-1-13 5-18 11-5 5-14 6-20 10a19 19 0 00-6 6c-4 5-2 12 0 17-7 3-9 13-5 19a16 16 0 009 6c-1-5 2-11 7-13z"/><path class="ab" d="M1108 641a18 18 0 00-2-2 15 15 0 01-1 7l-2 4a26 26 0 000 6 21 21 0 01-4 11 13 13 0 01-11 6 9 9 0 00-3 0l-3 3a24 24 0 01-34 7 24 24 0 01-4-3c-5 2-12 1-17-2a13 13 0 002 8c5 6 14 8 21 5a24 24 0 0037-3l3-3a9 9 0 014 0 13 13 0 0010-6 21 21 0 004-11 26 26 0 011-6l2-4a17 17 0 00-3-17z"/><path class="ac" d="M1087 635c-5 2-10 6-12 12s-1 12 4 15c0 4 0 8 2 11 2 2 6 3 9 4 5 0 12-1 14-6a15 15 0 0024-6 35 35 0 012-5l1-3a10 10 0 00-8-15 12 12 0 00-6-10c-5-2-8 0-13 0l-17 3z"/><path class="ab" d="M1131 647a10 10 0 00-4-4 10 10 0 01-1 2l-2 3a32 32 0 00-2 5 15 15 0 01-24 7c-2 4-8 6-14 5a20 20 0 01-5-1c0 3 0 6 2 9 2 2 6 3 9 4 5 0 12-1 14-6a15 15 0 0024-6 33 33 0 012-5l1-3a10 10 0 000-10z"/><path class="ae" d="M545 120a56 56 0 00-6-3c-8-2-22-11-30-11-3 0-10 2-16 14-3 7-2 15-2 22 1 14 13 61 15 67 3 8 6 17 12 22h8l-1-2c-6-12-14-50 5-54a52 52 0 017-4c7-2 13-4 20-8l1-1 1-1c-1-4-3-9-6-13-5-7-13-5-20-6-5 0-9 1-11 4s-2-1-2-2c1-3 4-3 6-5s2-5 5-7l8-2c6-3 15 6 21 9a38 38 0 013 2 119 119 0 00-18-21z"/><path class="af" d="M559 161l-1 1zM558 162l-1 1z"/><path d="M479 101c-10 5-18 13-27 19-8 6-18 12-25 20a23 23 0 00-1 1c12-6 20-6 33-12l15-8c-5 19-2 52 6 67 1-4 2-10 0-24-1-10-3-24-2-30 3-9 11-19 17-27 8-10 17-4 20-2a151 151 0 0022 8l-6-5c-15-10-34-16-52-7z" fill="#bab2a8"/><path class="ah" d="M515 105c-3-2-12-8-20 2-6 8-14 18-17 27-1 6 1 20 2 30 2 14 1 20 0 24-8-15-12-48-6-67l-15 8c-13 6-21 6-33 12-6 7-7 16-8 25 0 14-1 42 4 49a20 20 0 003 2c-2-4 1-9 4-15 6-12 12-22 22-30l7-13v1c0 10-8 21-13 29l-8 15c-3 7-5 12-4 19a59 59 0 007 2c-1-7 4-13 10-17l14-5c3-1 6-3 10-3 9 1 11 6 17 12 3 3 7-1 8-5l5-5c-4-15-12-48-13-60 0-7-1-15 2-22 6-12 13-14 16-14 8 0 23 9 30 11a57 57 0 016 3l-8-7a150 150 0 01-22-8z"/><path class="af" d="M461 141c-5 2-11 2-15 6-3 2-4 5-5 8l-9 11c-5 7-5 17-7 25 0 6-3 16 3 19a1 1 0 001-1c4-11 10-20 17-29 5-5 11-13 13-20 0-2 2-13 6-19 2-2-3-1-4 0z"/><path class="ae" d="M458 160l-7 12c-10 8-16 18-22 30-3 6-6 11-4 15a29 29 0 008 6c-1-7 1-12 4-19l8-15c5-8 13-19 13-29z"/><path class="af" d="M504 202l-5 5c-1 4-5 8-8 5-6-6-8-11-17-12-4 0-7 2-10 3l-14 5c-6 4-11 10-10 17h1c6-10 18-10 29-9 5 1 10 2 14 5 4 4 9 6 13 4s7 3 11 7l10-1c-6-5-9-14-12-22l-2-7zM563 141a35 35 0 00-3-2c-6-3-15-12-21-9l-8 2c-3 2-3 5-5 7s-5 2-6 5c0 1 0 4 2 2s6-4 11-4c7 1 16-1 20 6 3 4 5 9 6 13l-1 1-1 1c-7 4-13 6-20 8a53 53 0 00-7 4c-19 4-11 42-5 54l1 2 8-2a72 72 0 0014-4c13-19 14-62 14-62 1-2 5-4 7-5l1 1v1c4 12 9 34 9 48a20 20 0 005-4s0-10-3-23c-3-15-14-34-18-40z"/><path d="M570 161v-2l-1-1c-2 1-6 3-7 5 0 0-1 43-14 62 9-3 19-1 24-4 6-3 10-7 9-9 1-15-7-40-11-51z" fill="#4f463f"/><path class="ae" d="M497 225c-4 2-9 0-13-4-4-3-9-4-14-5-11-1-23-1-29 9a427 427 0 0067 6c-4-3-7-8-11-6z"/><path class="ah" d="M563 156h-7c-4 1-8 4-18 5-7 1-14 0-19 4-3 2-3 4-4 6-3 6-6 5-7 8-1 4 2 9 2 12 0 1 0 2 1 1 3-6 7-13 12-17 4-3 8-5 18-6 7 0 11-3 17-4 8-2 7-6 12-7l-7-2z"/><path d="M107 682c8-5 19-25 60-2 24 14 10 53 30 48 28-7 48 25 21 50s-38 20-66 6c-10-5-16-8-31-6s-20 24-49 27-74-31-52-49 25-28 19-46 28-42 43-27 19 4 25-1z" fill="#45dbe2"/><path d="M167 773c-11 0-42-7-50-5s-31 7-38 19-54 6-56-11 6 2 18-20c11-20 12-27 12-33a6 6 0 01-4-3c-1-5 4-10 12-13s16-1 17 3a6 6 0 01-1 5h1c11 0 39-19 46-15s-19 11-10 17 32-7 38 1-19 7-13 13 23 2 26 6-6 5-2 8 9-2 14 2-23 6-18 11 20 15 8 15zm44-14c-1-6-10-7-20-4s-15 10-13 15 10 6 20 3 15-9 13-14z" transform="translate(1 1)" fill="url(#b)"/><path class="al" d="M148 748c3-6 0-13-6-16-5-2-14 1-15 4l8 5c-1 1-8-3-9-3-1 1-2 10 6 15a11 11 0 0016-5z"/><path class="am" d="M126 739a34 34 0 014 1l5 2c1-1 0-2-4-4a24 24 0 01-3-2c1-3 9-5 14-3 5 3 8 9 5 15a11 11 0 01-6 5 10 10 0 01-9-1c-7-4-7-12-6-13z"/><path class="an" d="M127 740l2 1c5 2 6 2 7 1 0-2-1-2-4-4a36 36 0 01-4-2c2-2 9-5 14-3 5 3 7 9 5 14a10 10 0 01-6 5 10 10 0 01-8-1c-7-3-7-9-6-11z"/><path class="ao" d="M131 736c2-2 7-3 10-1 5 2 7 7 5 12a9 9 0 01-6 4 8 8 0 01-7-1 11 11 0 01-5-9l1 1c5 2 6 3 8 1v-1c1-2-1-3-5-5l-1-1z"/><path class="al" d="M153 714a8 8 0 00-1-12c-4-3-10-2-11 0l4 5-5-3c-1 0-3 6 2 10a8 8 0 0011 0z"/><path class="am" d="M140 704l2 1c3 2 3 3 4 2l-3-2a18 18 0 01-2-3c2-1 7-2 10 1a8 8 0 012 10 7 7 0 01-5 3 7 7 0 01-6-2c-4-4-3-9-2-10z"/><path class="an" d="M140 705l2 1 4 2c1-1 0-2-2-4l-2-2c1-1 6-2 9 1a7 7 0 012 10 7 7 0 01-5 2 7 7 0 01-6-1c-3-4-3-8-2-9z"/><path class="ao" d="M143 703c2-1 6-1 8 1a6 6 0 011 8 6 6 0 01-4 3 6 6 0 01-5-2 8 8 0 01-2-7v1c3 2 4 2 5 1h1c1-1 0-3-3-4a13 13 0 01-1-1z"/><path class="al" d="M73 758a12 12 0 0016 0c5-4 4-13 1-15-1-1-6 6-7 5l6-7c-1-1-9-6-16 0-5 4-4 12 0 17z"/><path class="am" d="M88 741a35 35 0 01-2 3l-3 4 4-2a22 22 0 013-3c2 3 3 11-1 15a11 11 0 01-15-1 12 12 0 01-4-8 9 9 0 013-7c7-5 14-2 15-1z"/><path class="an" d="M87 741l-2 2c-3 4-4 4-3 5v1c1 1 3 0 5-3l3-2c2 2 2 10-1 13a10 10 0 01-15 0 11 11 0 01-3-8 9 9 0 013-7 11 11 0 0113-1z"/><path class="ao" d="M90 746c0 3 0 8-2 10a9 9 0 01-13 0 10 10 0 01-3-7 8 8 0 013-6 10 10 0 0110-2l-1 1c-3 4-4 5-3 7v1c2 2 4 0 7-3l2-1z"/><path class="al" d="M87 722a8 8 0 00-6 10c1 4 7 7 9 6 1-1-1-6-1-7l3 6c1 0 6-3 5-10-1-4-6-6-10-5z"/><path class="am" d="M92 737a22 22 0 01-1-3l-2-3v3a16 16 0 011 3c-2 1-8-2-9-5a8 8 0 016-10 8 8 0 016 1 7 7 0 013 5c1 5-3 8-4 9z"/><path class="an" d="M92 736l-1-2-2-3v6c-2 0-6-2-7-5a7 7 0 015-9 8 8 0 016 0 6 6 0 013 5 8 8 0 01-4 8z"/><path class="ao" d="M88 736c-2 0-5-2-5-4a6 6 0 014-8 7 7 0 015 0 5 5 0 013 4 7 7 0 01-2 7l-1-1c-1-3-1-4-3-4-2 1-2 2-1 5v1z"/><path class="ap" d="M91 745a8 8 0 01-5-2 8 8 0 015-2 8 8 0 015 2 8 8 0 01-5 2zM81 745a8 8 0 01-5-3 8 8 0 015-2 8 8 0 015 3 8 8 0 01-5 2zM84 747a8 8 0 012-4 7 7 0 010 10 8 8 0 01-2-6z"/><path class="ap" d="M84 738a8 8 0 013-5 7 7 0 01-1 10 8 8 0 01-2-5z"/><path class="ap" d="M92 741a8 8 0 01-6 2 8 8 0 013-5c2-2 5-2 5-2a8 8 0 01-2 5zM84 748a8 8 0 01-5 1 8 8 0 012-5 8 8 0 015-1 8 8 0 01-2 5z"/><path class="ap" d="M88 748a8 8 0 01-2-5 7 7 0 017 7 8 8 0 01-5-2zM81 740a8 8 0 01-1-5 8 8 0 015 2 8 8 0 011 6 8 8 0 01-5-3z"/><path class="aq" d="M91 743a8 8 0 01-5 0 8 8 0 014-4 8 8 0 015 1 8 8 0 01-4 3zM82 746a7 7 0 01-5-1 7 7 0 014-3 8 8 0 015 1 7 7 0 01-4 3zM86 748a8 8 0 010-5 6 6 0 013 9 8 8 0 01-3-4z"/><path class="aq" d="M83 739a7 7 0 011-5 6 6 0 012 9 7 7 0 01-3-4z"/><path class="ar" d="M90 740a7 7 0 01-4 3 6 6 0 015-8 8 8 0 01-1 5zM86 748a7 7 0 01-4 3 6 6 0 014-8 8 8 0 010 5z"/><path class="ar" d="M89 747a7 7 0 01-3-4 7 7 0 015 0 7 7 0 013 4 7 7 0 01-5 0zM81 742a7 7 0 01-3-4 7 7 0 015 1 8 8 0 013 4 8 8 0 01-5-1z"/><path class="as" d="M87 742a2 2 0 01-1 1 2 2 0 010-1 2 2 0 011-1 2 2 0 010 1zM86 744a2 2 0 01-1 0 2 2 0 010-1 2 2 0 011 0 2 2 0 010 1z"/><path class="as" d="M87 744a2 2 0 01-1-1 1 1 0 012 0 1 1 0 010 1 2 2 0 01-1 0zM85 743a2 2 0 010-1 1 1 0 011 0v1a2 2 0 01-1 0z"/><path class="as" d="M87 743a2 2 0 01-1 0 1 1 0 012-1 2 2 0 01-1 1z"/><path class="as" d="M86 743a2 2 0 01-2 0 1 1 0 012 0zM86 744a2 2 0 010-1 1 1 0 011 1 2 2 0 01-1 0z"/><path class="as" d="M86 742a2 2 0 010-1 1 1 0 010 1v1a2 2 0 010-1z"/><path class="at" d="M87 742a1 1 0 01-1 1 1 1 0 011-1zM86 743a1 1 0 010 1 1 1 0 010-1zM87 743zM86 743a1 1 0 01-1-1 1 1 0 011 1z"/><path class="at" d="M87 743a1 1 0 01-1 0 1 1 0 011-1 1 1 0 010 1z"/><path class="at" d="M86 743v-1a1 1 0 010 1zM86 743a1 1 0 011 1 1 1 0 01-1-1z"/><path class="at" d="M86 742a1 1 0 010-1 1 1 0 010 2 1 1 0 010-1z"/><path class="al" d="M19 789c4-4 12-8 12-8s-4 7-8 11a21 21 0 01-9 5 21 21 0 015-8z"/><path class="am" d="M18 791c7-9 2 1 2 1s9-6 1 2a13 13 0 01-6 3 16 16 0 013-6z"/><path class="an" d="M18 791c6-7 1 2 1 2s9-6 1 1a11 11 0 01-5 2 14 14 0 013-5z"/><path class="am" d="M20 791l-1 1h2a68 68 0 00-6 5l5-6z"/><path class="al" d="M17 783l13-3s-6 6-11 8a21 21 0 01-10 1 21 21 0 018-6z"/><path class="am" d="M14 784c10-5 2 2 2 2s11-1 0 2a13 13 0 01-7 0 16 16 0 015-4z"/><path class="an" d="M14 785c9-5 0 1 0 1s11-1 2 2a11 11 0 01-6 0 14 14 0 014-3z"/><path class="am" d="M16 785l-1 1h2a69 69 0 00-7 2H9l7-3z"/><path class="al" d="M26 794c0-5 3-13 3-13v13a29 29 0 01-3 10 29 29 0 010-10z"/><path class="am" d="M26 797c0-11 1-1 1-1s3-10 1 1a17 17 0 01-2 6 22 22 0 010-6z"/><path class="an" d="M26 797c0-9 1 1 1 1s3-11 1-1a15 15 0 01-1 6 18 18 0 01-1-6z"/><path class="am" d="M27 796v1s0-2 1-1l-1 7h-1a60 60 0 001-7z"/><path class="al" d="M20 777l7 4s-5 2-8 1l-5-3 6-2z"/><path class="am" d="M18 777c7 1 0 3 0 3s6 3-1 2a6 6 0 01-3-3 8 8 0 014-2z"/><path class="an" d="M18 778c6 0 0 1 0 1s5 4-1 2a5 5 0 01-2-2 7 7 0 013-1z"/><path class="am" d="M19 779h-1l1 1a25 25 0 00-4-1 14 14 0 004 0z"/><path class="al" d="M29 789v-8l5 7c1 3-1 6-1 6s-4-2-4-5z"/><path class="am" d="M29 791c-2-6 2-1 2-1s1-7 3 0a6 6 0 01-2 4 8 8 0 01-3-3z"/><path class="an" d="M30 791c-3-5 2 0 2 0s0-7 1-1a5 5 0 01-1 3 7 7 0 01-2-2z"/><path class="am" d="M31 790c0-1 0 0 0 0l1-1a25 25 0 000 5 14 14 0 00-1-4z"/><path class="al" d="M28 774v8l-4-8a11 11 0 011-6 11 11 0 013 6z"/><path class="am" d="M27 772c2 6-1 1-1 1s-1 7-2 0a7 7 0 011-4 9 9 0 012 3z"/><path class="an" d="M27 772c2 5-1 0-1 0s-1 7-2 1a6 6 0 011-4 8 8 0 012 3z"/><path class="am" d="M26 773a34 34 0 00-1-4 20 20 0 001 4z"/><path class="al" d="M21 774l8 8s-7-3-10-6a20 20 0 01-5-6 20 20 0 017 4z"/><path class="am" d="M19 772c7 6 0 2 0 2s5 7-2 0a13 13 0 01-3-4 15 15 0 015 2z"/><path class="an" d="M19 772c6 5-1 1-1 1s6 7-1 1a11 11 0 01-2-3 14 14 0 014 1z"/><path class="am" d="M19 774l-1-1 1 1-5-4a42 42 0 005 4z"/><path class="au" d="M19 785a10 10 0 004 0 13 13 0 002-1 13 13 0 00-1 1 11 11 0 00-2 5 10 10 0 004-3 17 17 0 002-3 26 26 0 00-1 4 15 15 0 000 5 15 15 0 002-5v-2a5 5 0 001 2 5 5 0 001-3 10 10 0 00-2-3v-1h-1a14 14 0 000-3 6 6 0 00-1-3 6 6 0 00-1 3 9 9 0 001 2 19 19 0 00-2-2 10 10 0 00-4-2 10 10 0 003 3 4 4 0 00-3 1 5 5 0 002 2 10 10 0 00-4 3zm9-3zm1 0h-1 1z"/><path class="at" d="M32 780c-2 2-4 2-5 2s-1-3 1-5 3-2 4-1 1 3 0 4z"/><path class="at" d="M31 780c-1 2-3 2-4 2s-1-3 1-5 3-2 4-1 1 3-1 4z"/><path class="at" d="M32 778a2 2 0 110-2 2 2 0 010 2zM31 777l3-4-3 4z"/><path class="al" d="M44 805l-12-11s3 10 7 15a24 24 0 008 7 24 24 0 00-3-11z"/><path class="am" d="M45 808c-6-11-3 1-3 1s-9-9-1 2a15 15 0 006 5 18 18 0 00-2-8z"/><path class="an" d="M45 809c-5-10-2 1-2 1s-9-8-2 1a13 13 0 006 4 16 16 0 00-2-6z"/><path class="am" d="M43 808v1h-2a78 78 0 016 6l-4-7z"/><path class="al" d="M48 800c-6-4-15-6-15-6s6 7 12 11a24 24 0 0011 3 24 24 0 00-8-8z"/><path class="am" d="M50 802c-10-8-2 1-2 1s-12-4 0 3a15 15 0 007 1 18 18 0 00-5-5z"/><path class="an" d="M50 802c-9-7 0 2 0 2s-12-4-2 2a13 13 0 006 1 16 16 0 00-4-5z"/><path class="am" d="M48 802l1 1h-2a81 81 0 018 4l-7-5z"/><path class="al" d="M35 810v-15l-4 15a33 33 0 001 11 33 33 0 003-11z"/><path class="am" d="M35 814c2-13-2-1-2-1s-1-13-2 0a20 20 0 001 8 25 25 0 003-7z"/><path class="an" d="M35 814c1-11-2 0-2 0s-1-12-1 0a17 17 0 001 6 21 21 0 002-6z"/><path class="am" d="M34 812l-1 1v-1 8a69 69 0 011-8z"/><path class="al" d="M45 793c-4 0-9 3-9 3s5 3 9 3 7-3 7-3-3-3-7-3z"/><path class="am" d="M47 793c-8-1-1 2-1 2s-7 4 1 3a7 7 0 004-3 9 9 0 00-4-2z"/><path class="an" d="M47 793c-6-1 0 2 0 2s-7 3 0 3a6 6 0 004-3 8 8 0 00-4-2z"/><path class="am" d="M46 795h1l-1 1a29 29 0 015-1h-5z"/><path class="al" d="M33 804c2-3 1-9 1-9s-5 4-6 7v7s4-1 5-5z"/><path class="am" d="M32 806c4-6-2-2-2-2s0-8-3 0a7 7 0 001 5 9 9 0 004-3z"/><path class="an" d="M32 806c3-6-3-1-3-1s1-7-1-1a6 6 0 000 4 8 8 0 004-2z"/><path class="am" d="M31 804l-1 1-1-1a28 28 0 01-1 4v1l3-5z"/><path class="al" d="M37 787l-2 9c1 0 5-4 6-8a13 13 0 000-6 13 13 0 00-4 5z"/><path class="am" d="M38 785c-4 7 1 1 1 1s0 8 2 0a8 8 0 000-4 10 10 0 00-3 3z"/><path class="an" d="M38 785c-3 6 2 1 2 1s-1 7 1 0a7 7 0 000-4 9 9 0 00-3 3z"/><path class="am" d="M39 787v-1l1 1a39 39 0 011-5 23 23 0 01-2 5z"/><path class="al" d="M45 788l-11 8 13-4a23 23 0 007-7 23 23 0 00-9 3z"/><path class="am" d="M47 787c-9 5 0 2 0 2s-8 7 2 1a14 14 0 004-4 18 18 0 00-6 1z"/><path class="an" d="M47 787c-8 4 1 1 1 1s-7 7 1 2a12 12 0 004-4 15 15 0 00-6 1z"/><path class="am" d="M46 789h2l-1 1 6-4a46 46 0 01-7 3z"/><path class="au" d="M41 798a9 9 0 00-1-1 5 5 0 003-1 5 5 0 00-3-2h1a12 12 0 003-4 11 11 0 00-4 2 23 23 0 00-3 2 11 11 0 001-2 7 7 0 000-3 6 6 0 00-2 2 15 15 0 00-1 4h-1v1a11 11 0 00-3 3 5 5 0 000 3 6 6 0 003-1l-1 2a17 17 0 001 5 17 17 0 001-5 35 35 0 000-4 19 19 0 002 3 11 11 0 004 4 12 12 0 00-2-5 15 15 0 00-1-2 16 16 0 002 1 11 11 0 005 2 12 12 0 00-4-4zm-6-2zm0 0z"/><path class="at" d="M31 794c2 2 4 3 5 2s2-3 0-6-3-3-5-2-1 3 0 6z"/><path class="at" d="M32 794c1 2 3 3 4 2s1-3 0-5-3-3-4-2-1 3 0 5z"/><path class="at" d="M31 791a2 2 0 101-2 2 2 0 00-1 2z"/><path class="at" d="M32 790l-2-5 3 5h-1zM31 800l4-2c0-1-1-3-3-3s-4 0-4 2 1 2 3 3z"/><path class="at" d="M31 799c2 1 4 0 4-1l-3-3c-2-1-4 0-4 2s1 2 3 2z"/><path class="at" d="M29 798a1 1 0 10-1-1 2 2 0 001 1z"/><path class="at" d="M29 797l-4-1 4 1c1 0 0 0 0 0z"/><path class="ac" d="M1103 286c14-13 31-7 68 11s49 17 60 18 43 29 61 32 23 5 23 5l5 12s-5 11-47 13-62-4-92 15-59 19-95 13-52-9-60-13 15-14 50-11 46-3 41-7-13 2-38 0-64-17-64-17 74-59 88-71z"/><path d="M1293 347c-19-3-51-31-62-32s-23-1-60-18l-19-9c1 0 34 18 43 26 9 7 11 16 28 21a43 43 0 0128 25c3 7-25 4-42 12s-33 24-49 31a108 108 0 0021-11c30-19 51-12 92-15s47-13 47-13l-5-12-22-5z" style="mix-blend-mode:multiply" fill="#7ebb15"/><path class="aw" d="M1111 348c14-4-7-6-20-10s-17-11-1-12 16-6 11-9-10-15 4-15 10-12 9-16c0-4 5-7 5-7a24 24 0 00-16 6c-14 13-88 72-88 72s19-8 34-9 48 5 62 0zM1134 382c2-12-14-11-27-9 5-1 8-1 10 1 5 4-5 11-41 7-20-2-36 1-45 5a242 242 0 0150 3c28 4 52 5 53-7z"/><path class="ax" d="M140 394l50-4 30 11h12l79 30 57-11 22-12 16-8v-6l-42-33-49-19-39-19-22-3-34 18-34 24-33 10-13 14v8z"/><path class="ay" d="M140 388l50-4 30 11h12l79 30 57-11 22-12 16-8-2-9-40-30-49-19-39-19-22-3-34 18-34 24-33 9-13 15v8z"/><path class="ax" d="M186 356l12 10 31 4 40 12 23 12 40-3 29-16 21-6 1-15-10-8-63-21-27-11-31-3-36 14-16 13-14 7v11z"/><path class="ay" d="M186 349l12 11 31 3 40 12 23 12 40-2 29-17 21-6 1-8-10-14-63-21-27-11-31-4-36 14-16 14-14 6v11z"/><path class="az" d="M295 361l-20-8-15 4v3l12 6 19 3 7 4h7l9-3 2-4-13-4-8-1zM243 324l-14 2-6 5 2 4 8 1 3-3 7-2 3-5-3-2z"/><path class="ax" d="M255 337l3-20 13-13 2-8 30-3 33 5h28l6 8 2 5 7 38-7 3-13 2-28-3-34 3-22-10-17-2-3-5z"/><path class="ba" d="M273 296l1 9 31 15 29-9 8 3 12-3 3-4 4 1 9-2-6-8h-28l-33-5-30 3z"/><path fill="#898989" d="M334 311l-29 9 2 13-2 6v7l-4 6-4 2 34-3-2-18 2-7-3-3 3 1 3-9v-4z"/><path class="ba" d="M360 351l-2-5-10-3-4-6-2-8 7-8-9 8-1 14-8 8 28 3 13-2-12-1z"/><path class="bc" d="M275 344l4-10 1-7 2-4 2-4h1l1 9-1 7 2 4-2 3 1 7-11-5z"/><path class="ba" d="M267 314l2-4 5-5-1-9-2 8-13 13-3 20 4-18 8-5z"/><path class="bd" d="M291 307l13 6 11-2h8l1-3-8-7-9 2-6-4-9 3-1 5z"/><path class="az" d="M314 302l-7 1-6-4-9 3-1 5h1l2-3 7-2 5 2 8-2z"/><path class="ax" d="M288 361l-21-8-14 4v3l11 6 20 3 14 4 9-3 1-4v-2l-13-2-7-1z"/><path class="bd" d="M288 359l-21-8-14 4v3l11 6 20 3 14 4 9-2 1-5-13-4-7-1z"/><path class="ax" d="M243 324l-17 2-6 3v1l2 5 7 1 3-4 7-2 4-4v-2z"/><path class="bd" d="M240 321l-14 3-6 5 2 4 7 1 3-3 7-2 4-5-3-3z"/><path class="ax" d="M357 385l-20 12-9 2v4l10 5 22 2 12-11 9-2 3-11v-3l-11 1-8 5-7-2-1-2z"/><path class="bd" d="M356 383l-19 10-9 3v4l10 4 22 2 12-10 9-3 3-10-11-2-8 5-7-2-2-1z"/><path class="az" d="M229 363v7l29 8-29-7-31-4v-7zM292 387v7l34 1 11-2 11-6 10 2 7-3 8-5 9-8h6l-6-4 1-15-1 8-21 6-29 17-40 2zM394 385h-10v-2l-3 10-9 3-12 10v4l10-4 7-2 7-4 7-10 4-2-1-3zM297 354l29-2 18 2h15l-28-3-2-18 2-7-3-3 3 1 3-9v-4l-29 9 2 13-2 6v7l-4 6-4 2z"/><path style="mix-blend-mode:multiply" fill="#c6c6c6" d="M342 314l8 1-1 6-7 8 2 8 4 6 10 3 2 5 12 1 10 1-3-4-7-38-2-5-9 2-4-1-3 4-12 3z"/><path class="az" d="M301 299l-5 5v4l5 4-10-5 1-5 9-3z"/><path class="bc" d="M267 314l1 8 2 6v16h2l2-13v-8l3-5 1-5 3-3 4 1-11-6-5 5-2 4z"/><path class="az" d="M220 395v6l16 2 2-5-6-3h-12z"/><use class="c" transform="rotate(3 -11372 20599) scale(.09)" xlink:href="#c"/><path class="d" d="M1404 786v-10l1-12-1-10a13 13 0 00-6-8c-7-3-14-2-22-2a76 76 0 01-11-1 33 33 0 00-6-1 38 38 0 00-5 1 23 23 0 01-6 0l-6-1-11-1a3 3 0 00-1 0l-24-2-12-1h-12a5 5 0 000 1 32 32 0 00-6-1 34 34 0 01-6-1 37 37 0 00-8-1h-15a12 12 0 00-5 0 6 6 0 01-1 2l-1 8c-1 1-5 4-7 3a7 7 0 011 3 22 22 0 01-1 4l2 11a2 2 0 01-1 2v1a2 2 0 010 1 10 10 0 01-2 4 30 30 0 00-1 4 12 12 0 000 4 19 19 0 001 5 5 5 0 005 1 22 22 0 0110-1l11 2 24 2 25 1 50 3 25 2h13a8 8 0 005-1 8 8 0 003-5v-2-1a3 3 0 001-3z"/><path class="e" d="M1276 737c-5-1-9-2-9 3l-1 6c0 3 8 2 10 3 1 0 11 1 11-1 1-2 2-9 0-10l-8-1zm0 0h3c3 0 6-1 8 1 2 1 1 8 1 10-1 2-11 1-12 1-3 0-11 0-10-3l1-6c0-5 4-4 9-3z"/><path class="f" d="M1276 737c-5 0-9-2-9 3 0 6-6 8 8 9 2 0 12 1 13-1v-7c0-3 0-3-3-4a8 8 0 00-4 0 44 44 0 01-5 0z"/><path class="g" d="M1276 737h-8a3 3 0 000 2v4c2 2 0 3 5 4 2 0 8 2 9 0s3 5 5-1c1-2 0-7-1-8l-1-1a8 8 0 00-4 0 44 44 0 01-5 0zm7 2c2 0 0 1 0 1h-3l3-1zm2 5v1c-2-1 0-1 0-1zm-17 0l2 3-3-1c0-1 0-3 1-2z"/><path class="h" d="M1322 743v9c0 1 5 4 5 1 1-2 2-10 1-12-1-1-7-4-6 2zm0 0c-1-6 4-4 6-2v12c-1 3-4 1-6 0v-10z"/><path class="i" d="M1322 743v10c2 0 3 2 5 1l1-7v-6c-5-3-7-2-6 2z"/><path class="j" d="M1329 744l-1-3c-3-2-5-2-6-1a13 13 0 010 2v7c0 3 1 2 2 3a2 2 0 003-1l1-3a21 21 0 001-4z"/><path class="h" d="M1233 766l-2 9c1 0 4 4 5 1l4-11c-1-1-6-6-7 1zm0 0c0-6 5-3 7-1 1 2-2 10-3 12-2 2-5-1-6-2s2-7 2-9z"/><path class="i" d="M1233 766l-1 6-1 3c2 1 2 3 5 2l3-6v-6c-3-4-5-3-6 1z"/><path class="j" d="M1240 768l-1-3c-2-3-4-3-5-2a15 15 0 010 2l-1 6c-2 4 0 3 1 4a2 2 0 003 0l1-3a21 21 0 002-4z"/><path class="e" d="M1324 782c-8 1-8-2-15-2-4 0 1-15 7-12l3 1c1 0 7 0 8 2l-2 7-1 4zm0 0l1-4 2-7-4-2h-7c-6-4-10 10-7 11 7 0 7 2 15 2z"/><path class="k" d="M1324 782c-7 1-9-2-15-2-3 0 1-16 7-11h7c4 1 5 0 3 7l-2 6z"/><path class="g" d="M1308 777c0-4 4-12 8-8h7l4 2a2 2 0 01-1 0c-4 0-3 2-2 3a3 3 0 002 0v2a29 29 0 01-1 5 5 5 0 01-3-2c0-1-1-7-1 1-4 0-3-4-3-5 1-8-1-3-3-1-4 7 1-3 1-3-1-2-3 2-3 3-3 4-4 4-5 3z"/><path class="h" d="M1355 784c-3 1-10 2-9-3l1-5c-1-4 2-3 6-3 2-1 12-3 12 0 0 2 1 9-2 10a30 30 0 01-4 1h-4zm0 0h4l4-1c2-2 2-9 2-10-1-2-11 0-14 0-7 0-2 1-4 6-3 7 3 6 8 5z"/><path class="i" d="M1355 784c-2 0-12 3-8-5 1-3-3-6 4-6 4 0 14-3 14 0 0 13-1 9-9 11a4 4 0 01-1 0z"/><path class="j" d="M1354 773l4-1a6 6 0 01-1 3c-1 1 3 3 5-3l3 1v2a18 18 0 00-2 4c0 3-4 5-7 3-1 0-10 3-7-2-1-2-1-3 2-5-1-3 0 1 3-2z"/><path class="h" d="M1398 772c-3 0-10 1-8-4v-5c0-4 3-3 7-3 1-1 11-3 12 0 0 2 0 9-2 10a32 32 0 01-5 1l-4 1zm0 0l4-1 5-1c2-1 1-9 1-10 0-2-11 0-13 0-7 0-3 2-5 6-2 7 4 6 8 6z"/><path class="i" d="M1398 772c-1 0-11 2-8-6 2-3-2-6 5-6 3 0 13-3 13 0 0 13 0 9-8 11a4 4 0 01-2 1z"/><path class="j" d="M1397 760l4-1a5 5 0 01-1 3c0 1 3 3 6-3l2 1v2a19 19 0 00-1 4c-1 3-4 5-7 3-1 0-10 3-7-2-2-2-2-3 2-5-1-3 0 1 2-2z"/><path class="e" d="M1273 774c3-6 4-8-6-9-7-1-6 1-7 6-1 2-1 2 1 3 2 2 10 2 12 0zm0 0c-3 2-11 2-12 1a1 1 0 010-1c-2-1-2-1-2-3 1-5 0-7 8-6 10 1 10 3 6 9z"/><path class="l" d="M1273 774c1-3 5-7-2-9-12-1-10 0-12 7l2 3c0 1 10 1 12-1z"/><path class="m" d="M1275 770c1-2 0-4-4-5-11-1-10 0-11 5 7 1 3 3 9 2l2-1c1 2 3 0 4-1zm-5-3c1 0 2 1 0 1-7-1-5-2 1-1z"/><path class="e" d="M1404 784c3-7 4-8-6-9-7-1-6 0-7 5-1 2-1 2 1 4s10 1 12 0zm0 0c-3 2-11 1-12 0l-2-4c1-5 0-7 8-6 10 2 10 3 6 10z"/><path class="l" d="M1404 784c1-4 5-8-2-9-13-2-10 0-12 7l2 2c0 1 10 2 12 0z"/><path class="m" d="M1406 779c1-2 0-3-4-4-11-2-10-1-11 4 7 1 3 3 9 3l2-1c1 1 3 0 4-2zm-5-3c1 1 2 2 0 2-7-1-5-3 0-1z"/><path class="e" d="M1329 774c3 1 11 2 14 1 2-1-2-5-4-5h-4c-7-1-4 0-7 3l1 1zm0 0c-1 0-2-1-1-2 3-2 0-3 7-2h4c3 0 7 4 4 5s-10 0-14-1z"/><path class="k" d="M1329 774c7 2 18 2 14-2-3-3-4-2-8-2-7-1-4 0-7 3l1 1z"/><path class="g" d="M1344 774l-1-2c-3-3-4-2-8-2-7-1-4 0-7 2h8c7 5 2-2 6 1a4 4 0 002 1z"/><path class="h" d="M1272 753c-3 1-6-2-6 2l-1 5c0 3 5 2 6 3 4 1 6 1 7-3l1-8c-1-1-6 1-7 1zm0 0c1-1 6-3 7-1v8c-1 5-4 4-8 3-1 0-7 0-7-3 1-2 2-2 2-5 0-4 3-1 6-2z"/><path class="j" d="M1272 753c-3 1-6-3-6 4 0 1-5 6 4 6 2 0 9 4 9-7 0-3 2-6-5-4l-2 1z"/><path class="i" d="M1272 753c-3 1-5-2-6 1a6 6 0 010 1v2l-1 2c1 2 9 1 11 3l3-2a17 17 0 000-4 3 3 0 00-4-1c-1 1-2-1-2-2a4 4 0 00-1 0z"/><path class="e" d="M1257 778l-14-2c-4 0 1-15 6-12l3 1 8 1-2 8-1 4zm0 0l1-4c0-2 2-6 1-7l-3-2-7-1c-5-3-9 11-6 12l14 2z"/><path class="l" d="M1257 778c-7 1-9-2-14-2-4 0 1-16 6-11h7c4 1 4 0 2 7l-1 6z"/><path class="m" d="M1244 767c1-3 3-4 6-2h6c3 1 4 0 3 5a7 7 0 01-2-1c-2-1-5 1-5 2-2 4-2 0-3 2 0 1-5 0-4-2 1-1-1-3-1-4zm15 5a16 16 0 00-4-1c-2 0-1 2-2 4 0 0 0 3 3 1a12 12 0 002 0v-4z"/><path class="n" d="M1378 771l-13-2c-2-1-3-6-2-8 1-6 11-4 15-4 2 1 12 1 11 5v6l-7 1-4 2zm0 0l4-2 7-1 1-6c0-5-17-6-20-5-8 0-10 6-6 12l14 2z"/><path class="l" d="M1378 771l-13-2c-1 0-8-13 8-12 3 0 17 1 17 5-1 7 1 6-7 7l-5 2z"/><path class="m" d="M1363 767c-1-4-2-10 7-10l1 1a3 3 0 004-1c5 0 13 1 14 4-2 1 4 6-9 7-4 0-2-2-1-3 2-5-3 2-3 2-5 3-5-5-8-2-2 2-3 2-5 2z"/><path class="e" d="M1327 781c4 2 14 5 17 3 2-1-1-6-4-7l-5-1c-8-1-4 0-8 3v2zm0 0v-2c3-3 0-5 8-3l5 1c3 1 8 7 3 8s-11-2-16-4z"/><path class="k" d="M1327 781c8 4 22 7 17 0-3-5-4-4-9-5-8-2-4 0-8 3v2z"/><path class="g" d="M1344 781c-3-5-4-4-9-5h-2a2 2 0 01-1 0 3 3 0 00-3 3c2 3 7-2 11 1 0 3-5 1-6 1 0 2 9 2 9 2 1 1 1-1 1-2z"/><path class="e" d="M1393 755c4 1 12 3 13-1 0-3-6-10-9-10h-3c-6 0-3 1-3 7 0 2 0 3 2 4zm0 0c-2-1-3-2-3-4 0-6-3-7 4-7l3-1c3 0 11 9 9 12s-9 2-13 0z"/><path class="k" d="M1393 755c7 3 18 3 10-6-6-8-5-5-9-5-7 0-3 2-3 7-1 2 0 3 2 4z"/><path class="g" d="M1403 748c-6-7-5-4-9-4h-2v1c-2 1-1 5 0 6 4 5 3-6 8-2 2 5-2 3-3 3 1 4 7 0 7 0l-1-4z"/><path class="h" d="M1333 754l-4-2v2l-1 1h5a3 3 0 002-1h-2zm0 0a1 1 0 001 0l-2 1-3 1c-2 0-1-2 0-2 0-1-1-4 1-3l3 3z"/><path class="i" d="M1333 754l-3-3c-2-1-1 2-1 2 0 1-2 3 0 2h4l1-1a1 1 0 01-1 0z"/><path class="h" d="M1333 755l-1 2c-2 2-2 6-5 2-1-1-2-2 0-3s-1 1 3 0l2-1h1zm-1 0a3 3 0 00-1 0l-3 1c-1 0-3 0-1 2s2 4 3 1l2-4zm1 0z"/><path class="i" d="M1333 755h-2c0 1-3 2-3 0 0 0-3 1-1 3 0 0 2 5 4 1a22 22 0 012-4z"/><path class="h" d="M1303 752c1-2 6 0 7 0 4 0 0 2-3 2l-4-2zm0 0c4 1 5 2 8 0a4 4 0 00-1 0h-7z"/><path class="k" d="M1303 752h9c-4 3-5 1-9 0z"/><path class="h" d="M1241 770c1 1-1 6-2 7 0 4-2-1-1-3l2-4a1 1 0 011 0zm0 0h-1c-2 4-3 5-1 8a4 4 0 000-1l2-7z"/><path class="k" d="M1241 770c1 1-1 6-2 7v2c-2-5 0-5 1-9h1z"/><path class="h" d="M1349 770c2 0 2 0 1 2s-4-1-8-2c-1 0-4-2 1-1l6 1zm0 0a22 22 0 01-6-1c-6-1-3 1-1 2l6 1c3 2 5-3 1-2z"/><path class="k" d="M1349 770c1 0 3-1 2 1-2 3-5-1-8-1s-5-2 0-1a18 18 0 006 1z"/><path class="h" d="M1344 776a20 20 0 00-3 0l4 4-1-4zm0 0c1-1 3 8 0 4-2-2-7-4 0-4z"/><path class="k" d="M1344 776h-3l1 2c3 1 3 4 4 2l-2-4z"/><path class="h" d="M1403 786a20 20 0 00-3 0l4 4-1-4zm0 0c1-1 3 8 0 4-1-2-6-4 0-4z"/><path class="k" d="M1403 786h-3l2 2c2 1 2 4 3 2l-2-4z"/><path class="h" d="M1338 787l1 3h2c1 0 8-2 5-3 0-1-5-2-6-1a5 5 0 00-2 1zm0 0c2-2 4-1 7 0 4 0-1 2-3 2l-3 1-1-3z"/><path class="i" d="M1338 787l1 3 5-1c1 0 5-2 1-3-2 0-5-2-7 1z"/><path class="e" d="M1250 762h9c2 0 7 1 6 2h-15c-2-1-2-1 0-2zm0 0l-1 1 16 1-5-1a24 24 0 00-2-1h-8z"/><path class="l" d="M1250 762h9a18 18 0 004 1c3 0 4 1-2 1l-12-1s-2 0 0-1h1z"/><path class="h" d="M1278 766a22 22 0 00-3-1l1 5a2 2 0 000 1l2-5zm0 0c1 1-3 9-2 3 0-2-3-7 2-3z"/><path class="k" d="M1278 766l-3-1 1 2c0 2-1 5 1 3 0 0 2-3 1-4z"/><path class="h" d="M1274 779a22 22 0 002 1v-7c-1 0-3 5-2 6zm0 0c-2-1 2-11 2-5 0 4 3 9-2 5z"/><path class="k" d="M1274 779l3 1-1-3c-1-2 1-6-1-4 0 0-2 5-1 6z"/><path class="n" d="M1268 752l3-3h5c2 0 3 1 1 1a50 50 0 01-6 2h-3zm0 0h3l7-2a7 7 0 00-2 0h-4l-4 2z"/><path class="l" d="M1268 752l3-2c1-2 4 0 5-1 0 0 4 0 0 2a13 13 0 01-2 0l-3 1a3 3 0 01-1 1l-2-1z"/><path class="e" d="M1268 764h5c2 0 1 2-1 1h-2s-5-1-3-2l1 1zm0 0l-1-1c-2 1 4 2 5 2a2 2 0 002 0h-1c-2-1-4-2-5-1z"/><path class="k" d="M1268 764c1-1 3 1 5 1h-3a24 24 0 00-2-1c-2 0-2-1 0 0z"/><path class="e" d="M1243 777c1-1 3 1 5 1 1 0 1 2-1 1l-2-1s-5 0-4-1h2zm0 0h-1l4 1a2 2 0 002 1v-1l-5-1z"/><path class="k" d="M1243 777c1-1 3 1 5 1 1 0 2 1-1 1l-2-1h-2c-2 0-2-2 0-1z"/><path class="h" d="M1242 762a45 45 0 000 5c1 0 1-3 4-4 1-1-2-1-2-1h-2zm4 1zm-4-1h3c2 0 2 1 1 1l-4 4v-5z"/><path class="i" d="M1242 762v5c1-1 2-4 4-4 0 0 1-1-1-1h-3z"/><path class="h" d="M1302 767l3-1 2 1a10 10 0 002 1c2 0 0 4-1 4s0-3-3-4l-3-1zm0 0l5 2 1 2 1-3a9 9 0 01-2 0l-2-1h-3zm6 4"/><path class="i" d="M1302 767h3l2 1h2c2 0 0 3 0 3-1 2-2-2-3-2a10 10 0 00-3-2h-1z"/><path class="h" d="M1304 765l4 2h2l-2-1c-1-2 0-3-3-1zm0 0a3 3 0 011-1c2 0 2-1 3 1l2 2c1 2-1 0-2 0-1 1-3-1-4-2z"/><path class="i" d="M1304 765l4 2 2 1s1-1-1-2c-1 0-1-3-3-2l-2 1z"/><path class="e" d="M1281 750l-1 3a1 1 0 000 1l2-3a2 2 0 001-1h-3zm-1 4v-4h2c3 0 0 1 0 1l-2 3s-1-4 1-4z"/><path class="k" d="M1281 750c-2 0-1 2-1 3 0 2 2-2 2-2 1 0 2-1 0-1h-1z"/><path class="e" d="M1266 749l-1 3 2-3a2 2 0 001 0h-3zm-1 3v-3h2c3-1 0 1 0 1l-2 3s-1-5 1-4z"/><path class="k" d="M1266 749c-2 0-1 2-1 3 0 2 2-2 2-2 1-1 2-1 0-1h-1z"/><path class="h" d="M1278 762c1 1-2 2 1 3 2 1 0-3 0-3a3 3 0 00-1 0zm1 0h-1a1 1 0 011 0l2 2c0 2-1 2-2 2-3-2 0-3-1-4z"/><path class="i" d="M1278 762c1 1-2 2 1 4 1 0 2 0 1-1l-1-3h-1z"/><path class="e" d="M1325 769l3-4c2-1 2-1 3 1l1 2s-2 0-3 2l-2-1h-2zm0 0h2s1 2 2 1c1-2 2-2 3-2l-1-2c-2-1-1-2-2 0l-4 3z"/><path class="k" d="M1325 769l4-4c1-1 1 0 2 1l1 1c1 1-2 1-3 3s-2-1-2-1h-2z"/><path class="e" d="M1306 781c3 2 1 5 3 2 1-1 4 0 3-2-1 0-2 1-4-1l-2 1zm0 0s0-2 2-1l4 1c2 2-2 2-3 2-2 3 0 0-3-2z"/><path class="k" d="M1306 781c2 1 1 5 3 2 1-1 4 0 3-2-1-1-2 1-4-1-1-1-2 1-2 1z"/><path class="e" d="M1325 782l3 1c5 0 5 2 3 1h-4c-2-1-3 0-2-2zm0 0v1l4 1h3a18 18 0 00-4-1l-3-1z"/><path class="k" d="M1325 782l3 1 4 1a7 7 0 00-3 0l-4-1v-1z"/><path class="h" d="M1364 784h3l2 1a10 10 0 002 1c1 0 0 4-1 3l-4-3s-3-1-2-2zm0 0l4 3 2 2 1-3a9 9 0 01-2 0l-2-2h-3zm6 5"/><path class="i" d="M1364 784h3l1 1 3 1c2 0 0 2-1 3l-2-2a10 10 0 00-4-2v-1z"/><path class="h" d="M1389 770v2l-3 1c-1 0-8-1-6-2l7-2a7 7 0 012 1zm0 0c-3-2-5 0-7 1-4 1 1 1 3 2l3-1 1-2z"/><path class="i" d="M1389 770v2l-6 1s-6-1-2-2c2-1 6-3 8-1z"/><path class="h" d="M1379 786h7c4-1 0 2-2 2l-5-1v-1zm0 0v1c5 0 5 1 9-1a5 5 0 00-1 0h-8z"/><path class="k" d="M1379 786h9c-3 2-4 1-9 1v-1z"/><path class="h" d="M1384 757h8c4 0-1 2-3 2l-5-2zm0 0c5 2 5 2 9 0a4 4 0 00-1 0h-8z"/><path class="k" d="M1384 757h7l2 1c-4 2-5 0-9-1z"/><path class="h" d="M1408 774h-8c-4 0 1-2 3-2l5 2zm0 0h-1c-4-2-4-2-8 0a4 4 0 001 0h8z"/><path class="k" d="M1408 774h-7l-2-1c4-2 4 0 8 1h1z"/><path class="e" d="M1258 779c4 1 12 2 14 1s-1-4-4-4h-4c-6-1-4 0-6 2v1zm0 0v-1c2-2-1-3 6-2h4c3 0 7 3 4 4s-10 0-14-1z"/><path class="l" d="M1258 779c7 1 18 2 14-1-3-3-4-2-8-2-7-1-4 0-6 2v1z"/><path class="m" d="M1273 779l-1-1c-3-3-4-2-8-2-6-1-4 0-6 2h7c7 4 2-2 6 1a4 4 0 002 0z"/><path class="n" d="M1359 769h3c1-1 3 1 4 1s2 1 0 1a36 36 0 01-5 0l-2-1a1 1 0 010-1zm0 0a431 431 0 008 2 5 5 0 00-1-1l-4-1h-3z"/><path class="l" d="M1359 769h3c1-1 3 1 4 1 0 0 2 2-1 1a10 10 0 01-2 0h-2a2 2 0 01-1 0l-1-2z"/><path class="n" d="M1362 765l-2 3h3l-1-1v-2a2 2 0 000-1v1zm0 0v1l1 2h-3l2-3z"/><path class="l" d="M1362 765l-2 3h3l-1-2v-1c1 0-1-2 0 0z"/><path class="n" d="M1360 757l4 1 4-1c2 0 2-1 0-1a44 44 0 00-5-1l-3 1v1zm0 0c1-2 3-1 3-2l5 1a6 6 0 01-1 0l-3 1h-4z"/><path class="l" d="M1360 757h8s3-1-1-1a10 10 0 00-2-1h-2a3 3 0 00-1 0l-2 2z"/><path class="h" d="M1358 771a21 21 0 00-3-1s-4 0-3 1a6 6 0 003 1l3-1zm0 0l-3 1a6 6 0 01-3-1c-1-1 2-1 3-1a9 9 0 013 1z"/><path class="i" d="M1358 771a19 19 0 00-2-1 3 3 0 00-1 0 15 15 0 00-3 1h1a4 4 0 002 1c4 0 5-1 3-1z"/><path class="h" d="M1367 781a23 23 0 00-2 2l5 2-3-4zm0 0c1-1 6 7 2 4-3-2-8-2-2-4z"/><path class="k" d="M1367 781l-3 2h3c2 1 3 4 3 1l-3-3z"/><path class="n" d="M1291 752c-6-1-9-2-11 5 0 3 0 9 4 8h13c7 1 10-2 9-9 0-3-3-3-6-4a30 30 0 00-9 0zm0 0h9c3 1 7 0 7 4 0 8-3 10-10 9h-13c-5 1-4-5-4-8 2-7 5-6 11-5z"/><path class="l" d="M1291 752h-7c-4 1-6 15 0 13h10c2-1 12 4 13-8 0-2 0-4-4-4l-12-1z"/><path class="m" d="M1291 752a12 12 0 01-1-1c-3 5-3 2-2 0a12 12 0 00-4 1 3 3 0 00-2 1c-1 4 0 12 3 10 2-2 8 2 8-1 0-7 2-9 3-10a18 18 0 00-5-1zm15 9c-1 0-2-1-5 3-2 2-5 0-3-2 0 0 4-7 0-2s-5 0-4-1 0-4 2-7l7 1c4 0 4 2 4 4a14 14 0 01-1 4z"/><path class="o" d="M1284 752l3-1v2c0 2 0 2 2 1a5 5 0 002-1c0 2-2 3-3 2-2 0-2-2-2-3a6 6 0 01-2 0zm3 0z"/><path class="n" d="M1250 733c-6 0-9-1-11 6 0 2-1 8 4 7 3-1 5 1 9 1h4c7 0 9-2 9-9 0-4-3-3-7-4a30 30 0 00-8-1zm0 0l8 1c4 0 7 0 7 4 1 7-2 10-9 9h-4c-4 1-6-1-9-1-5 2-5-5-4-8 1-6 5-5 11-5z"/><path class="l" d="M1250 733h-8c-4 2-5 15 1 13 3-1 6 2 10 1 2-1 12 4 12-8 0-3 0-4-4-5l-11-1z"/><path class="m" d="M1250 733a12 12 0 01-1 0c-3 5-3 2-3 0a12 12 0 00-4 0 3 3 0 00-1 1c-1 5-1 12 2 10s9 2 9-1c0-6 2-9 3-10a18 18 0 00-5 0zm15 9c-1 1-2 0-5 3-2 3-5 1-4-1 1-1 5-7 1-3-4 6-5 1-4-1l2-7 6 1c4 1 4 2 4 5a14 14 0 010 4z"/><path class="o" d="M1243 734l3-1v2c0 1 0 2 2 1a5 5 0 002-1l-4 2c-2 0-1-2-1-3a6 6 0 01-2 0zm3 0z"/><path class="n" d="M1317 767c-8 0-9-1-9-7 0-4 0-5 4-6h9l7 8c1 1 0 4-3 5h-8zm0 0a41 41 0 006 0c5 0 7-4 5-6l-6-7-10-1c-4 2-5 3-5 7 1 6 2 7 10 7z"/><path class="l" d="M1317 767c-5 0-6 0-9-2-1-1-1-9 1-10 6-3 4-2 11-2 4 0 5 6 8 9v3c-2 3-7 2-11 2z"/><path class="m" d="M1308 763c-1-3-1-7 1-8 6-3 4-2 11-2a3 3 0 012 1c0 1 0 4 2 4h1a17 17 0 003 4c-4 6-6 1-9 2-4 1-4-2-8 0l-3-1zm5-7c-4-1-3 5-1 2l2-1-1-1z"/><path class="o" d="M1315 754h6c2 1-1 2 1 3l2 1c-2 0-4 0-4-2s-4-2-5-2z"/><path class="n" d="M1394 801c-7-1-9-1-9-7 0-4 0-5 5-7l9 1c2 0 4 5 6 7 1 1 0 5-3 6h-8zm0 0a41 41 0 007 0c4 0 6-4 5-6l-7-8h-10c-4 1-4 3-4 7 0 6 2 7 9 7z"/><path class="l" d="M1394 801c-4-1-6 0-8-3-1-1-2-8 0-9 6-3 5-2 12-2 3 0 5 6 7 8v4c-2 3-7 2-11 2z"/><path class="m" d="M1385 797l1-8c6-3 5-2 12-2a3 3 0 012 1c0 1-1 3 1 3h1a17 17 0 003 4c-4 7-6 1-9 3-3 1-4-2-7-1h-4zm6-8c-5 0-3 5-2 2h3l-1-2z"/><path class="o" d="M1392 788c1-1 4-2 6-1s0 3 1 4l2 1c-2-1-3-1-3-3s-5-1-6-1z"/><path class="n" d="M1347 755c-6 0-14-3-16 6-1 3 0 7 4 6 5 0 21 3 24 2 1-1 7-13-2-13l-10-1zm0 0a80 80 0 0110 0c8 1 4 12 2 14s-19-2-24-1c-6 0-5-8-2-11 3-4 10-2 14-2z"/><path class="l" d="M1347 755h-12c-6 3-5 14 0 13s22 3 24 0c3-3 5-12-2-12l-10-1z"/><path class="m" d="M1335 760c6-2 12 1 4 0 0 0-6 2-5 0l1-1zm12-5h-12a8 8 0 00-4 7 3 3 0 003 3h6c5 1 8-1 12-4 3-2 9 1 7 1-5 0-10-1-10 5h11c2-3 4-11-3-11l-10-1z"/><path class="o" d="M1342 764l7-3c2-1 6-2 8-1a5 5 0 001 1h-1c-2-1-5 0-6 1-4 2-4 2-9 2z"/><path class="e" d="M1333 741h10c2-1 15-1 16 1v8c1 4-3 3-6 3l-13 1c-5-1-11 0-11-7 1-4 0-5 4-6zm0 0c-4 1-3 2-3 7 0 6 5 5 10 5h12c4 0 7 1 7-3l-1-8c0-2-11-1-13-1h-12z"/><path class="k" d="M1333 741h8c3 0 16-1 17 1 2 1 0 6 1 8 0 2 0 3-2 3h-17c-3 0-10 1-10-5v-3c0-2 0-3 3-4z"/><path class="g" d="M1333 741h8c3 0 16-1 17 1 2 1 0 6 1 8a2 2 0 010 2 40 40 0 01-7 1 4 4 0 01-2-1h-1l-1-3 2-1v-1l4 1 1-1 2-1h-1a7 7 0 01-4 0c1 0-5 0-4 1l-4 1-8 1-6-2v-2c0-2 0-3 3-4z"/><path class="p" d="M1330 744c2-2 5-2 8-2l8-2a17 17 0 018 2l1 1-3-1h-13c-4 1-6 0-9 2z"/><path class="e" d="M1290 784c1 2 2 9-2 10-5 0-26-1-26-7 0-1-1-5 1-6 3-1 23 1 27 2a9 9 0 010 1zm0 0a5 5 0 000-2c-4 0-24-3-27-1-2 0-2 5-2 6 0 7 22 7 27 7 4-1 3-8 2-10z"/><path class="l" d="M1290 784c1 2 2 9-2 10-5 0-27-1-27-7 1-8 0-7 14-6l15 2a7 7 0 010 1z"/><path class="m" d="M1290 784l1 2a1 1 0 01-1 0c-4-1-1 5-6 1-7 2-6 0-11-2-2-1-6 5 0 3h5c2 0-2 2-5 2v3c-6-1-12-3-12-6 1-6 0-7 6-7 0 1 0 2 3 1h5l15 2a6 6 0 010 1zm1 5c-1-1-2-2-3-1-3 2-5 1-5 1 1 5 2 4-2 5h7c2 0 3-2 3-5z"/><path class="o" d="M1263 782c4-3 3 0 5 0l4-1a57 57 0 0111 2l-13-1h-2c-3 0 0-2-5 0z"/><path class="h" d="M1306 795c1-4 2-11-1-13-2-2-3 0-6 0s-4-2-6 1c-3 8 3 13 10 12zm0 0h-3c-7 2-13-4-10-12 1-3 3-2 6-2s5-2 7 2 1 8 0 12z"/><path class="i" d="M1306 795c2-3 3-16-5-14-3 2-7-4-9 5-1 8 7 11 14 9z"/><path class="j" d="M1307 786c0-3-2-6-6-5-3 2-6-3-8 3 2 0 3-2 3 5-1 3-3 0-4-1a7 7 0 002 4 4 4 0 004-1c2-3 8-1 9-5z"/><path class="q" d="M1297 790a10 10 0 016-2l3-2v1c-2 2-3 2-5 2l-4 1z"/><path class="h" d="M1336 796c0-2 4-10-1-10l-13-2h-8c-4 0-4-1-5 4 0 2-1 6 1 6l6 1h11s8 2 9 1zm0 0c-1 1-8-1-9-1h-11l-7-1v-8c1-3 2-3 5-3h8l13 2c5 1 2 9 1 11z"/><path class="i" d="M1336 796c1-3 4-10-1-10l-13-2-8-1c-2 1-5-1-5 5 0 5-2 7 4 7 3 0 11 2 14 0 1 0 8 2 9 1z"/><path class="j" d="M1337 791c1-3 1-5-2-5l-13-2-8-1c-2 1-5-1-5 5v3c1 1 2 2 3 1 3-2 12 1 12 0 2-2 3-1 1-3-4-2-3 0-4-3-2-4 8 5 9 4 4-3 6 1 7 1z"/><path class="q" d="M1326 786l3 3c2 0 6-1 6 1-2-2-3 0-6 0l-3-4z"/><path class="h" d="M1371 790l2 8s8 3 9 0c1-1 2-8 1-9s-13-5-12 1zm0 0c-2-5 8-4 12-2 2 2 1 9 0 11s-8 0-10-1c-2 0-2-6-2-8z"/><path class="i" d="M1371 790l1 5 1 3c3 1 5 2 9 1l2-5c0-2 0-5-2-6-8-2-12-1-11 2z"/><path class="j" d="M1383 797v-3c1-2 1-5-2-5-6-3-10-2-10 0l1 5c0 2 6 4 7 2 0 0 2-2 1 0 0 2 1 2 3 1z"/><path class="q" d="M1374 789l5-1a8 8 0 013 3l-2-1c-2-1-4-2-6-1z"/><path class="e" d="M1390 774c0 2 0 10-3 10l-7 1-7-1c-2 0-3-1-5-3-5-6-1-9 6-8l12 1a12 12 0 004-1 3 3 0 000 1zm0 0v-1a15 15 0 01-4 1l-12-2c-8-1-12 4-6 10 1 1 3 3 5 3h7l7-1c4 0 3-8 3-10z"/><path class="k" d="M1390 774c0 2 0 10-3 10-2 0-2 2-9 1s-5 1-10-3c-4-5-3-9 3-10l14 2 5-1z"/><path class="g" d="M1390 774l-1 8-1-1h-6c-3 1-6-1-9 1-4 5-6-7-5-8 4-3 4-1 6-1l11 1 5-1z"/><path class="p" d="M1368 775c4-4 3-1 5-1l3-1a48 48 0 0110 2l-11-1a13 13 0 01-2 1c-3 0 0-2-5 0z"/><path class="h" d="M1305 738h-6c-2 0-7-1-8 1l-2 3c-1 1-1 6 1 7 5 3 8 1 13 1a69 69 0 0110 1c2 0 7 1 8-1v-10c-1-2-6-2-8-2a53 53 0 00-8 0zm0 0a41 41 0 018 0c2 0 7 0 8 2v10c0 3-6 2-8 2a73 73 0 00-10-1c-6 0-8 1-13-2-2-1-2-6-1-7l1-3c2-2 7-1 9-1h6z"/><path class="i" d="M1305 738l-4 1-4-1c-3 0-6-1-7 2 0 2-2 1-1 5 0 4 0 4 2 5 5 2 7 0 12 0l10 1a23 23 0 006 1c3-1 2-3 2-5v-3c0-5 0-5-6-6h-10z"/><path class="j" d="M1299 738a15 15 0 00-2 0c-3 0-6-1-7 2v1c0 2 1 4 3 4 3 0 6 2 9 1 1-1 1-3 3-3h5c3 2 8-1 11-1 0-3-1-3-6-4h-5c-4 2-5 3-11 0zm19 14a6 6 0 01-2-1c-6-4-9-2-16-1-1 0-9-2-8-4 4-1 3 2 9 1 5 0 1-3 11-2l9-1v3c0 2 1 4-2 5z"/><path class="q" d="M1320 742c0-3-1-3-3-3l-8 1a17 17 0 01-6 0l6-1 6-1c2-1 7 0 5 4z"/><path class="h" d="M1248 761l6-1c2 1 7 2 8 0l1-3v-7c-5-3-8-1-13-1a69 69 0 01-11-1h-7v11c1 2 6 2 7 2a54 54 0 009 0zm0 0a42 42 0 01-9 0c-2 0-7 0-7-2v-11c0-2 6-1 7-1a74 74 0 0011 1c5 0 8-1 13 1 2 1 2 7 0 8l-1 3c-1 2-6 1-8 1h-6z"/><path class="i" d="M1248 761l4-1 4 1c3 0 6 1 7-3l1-5c0-3 0-3-3-4-4-2-7 0-11-1l-11-1a23 23 0 00-6 0c-2 0-1 3-1 5v3c-1 5 0 5 5 6h11z"/><path class="j" d="M1254 761a15 15 0 002 0c3 0 6 1 7-3l-3-4c-3 0-6-2-9-1l-3 3-6-1c-2-1-7 2-10 2 0 3 0 3 5 4h6c3-2 4-3 10-1l1 1zm-19-14a6 6 0 012 1c5 4 9 1 16 1 1 0 8 2 8 4-4 1-4-2-10-2-5 1 0 3-10 3h-9v-2c0-2-1-4 1-5h2z"/><path class="q" d="M1233 757c0 2 0 3 3 3l8-1a17 17 0 016 0l-6 1h-6c-2 0-7 1-5-3z"/><path class="e" d="M1294 766h-10c-4 0-6 2-7 7 0 3 0 7 4 7h3c4 1 6 2 10 0 3-2 11 1 12-1 5-12-4-11-11-13a2 2 0 00-1 0zm0 0a1 1 0 011 0c7 2 16 2 11 13-1 2-9 0-12 1-4 3-6 2-11 0h-2c-4 0-5-4-4-7 1-5 2-7 7-7h10z"/><path class="k" d="M1294 766c-8 2-14-3-16 3-2 4-3 12 4 11 1 0 7 3 12 0 2-1 11 1 12-1 5-12-5-11-11-13a4 4 0 00-1 0z"/><path class="g" d="M1293 766h-1a28 28 0 01-4 8l-3 3s0-2 2-3a19 19 0 004-8c-7 1-11-2-13 3-4 11 4 14 11 6 3-3 3-7 5-3l3 8h3c-2-2 1-8 0-12-1-2-6 0-7-2zm-4 16c1-3 4-8 5-1a9 9 0 01-5 1zm16-13c4 5 0 10-2 8-3-4-2-8-1-9a10 10 0 013 1z"/><path class="p" d="M1279 768c-1-2 5-1 5-1a23 23 0 004-1h4l-4 1h-7l-2 1z"/><path class="k" d="M1278 778l8-8c3-1 2-2 3-4a6 6 0 01-2 4l-2 3c-2 3 1 3-1 7v-6c-2 2 1 3-1 6v-1c1-2-1-4 1-5l2-3-9 7zm11-12z"/><path class="e" d="M1370 792l-1 6c-3 2-13 0-17 0-3 1-11 3-11-3 0-4 0-3 5-5l9-5c3 0 12 1 14 4a5 5 0 011 3zm0 0c0-2 0-3-2-4-3-3-12-4-15-2l-12 6v4c1 5 8 3 11 3 4-1 14 1 17-1 2 0 1-5 1-6z"/><path class="k" d="M1370 792c0 1 1 5-1 6l-11 1h-9c-3 1-8 0-8-4 0-3-1-3 3-5l11-5c4 1 15 0 15 7z"/><path class="g" d="M1341 792a14 14 0 013-2l11-5c4 0 12 0 14 5 0 3 1 4-6 5l-10-1-11-2z"/><path class="p" d="M1347 789c4-2 15-5 19-2v1h-1c-4-3-13 0-18 1z"/><path class="e" d="M1350 787c0 1 2 5 4 6 2 2 3 9 1 3 0-2-3-3-4-5-2-3 0-3-2 2l1-4v-2zM1360 754l1-9c1-5 4-3 8-3l19 1v7c1 3 1 6-2 6l-13-1-13-1zm0 0l13 1 13 1c3 0 2-4 2-5l-1-8-16-1c-7 0-10-2-11 6v6z"/><path class="k" d="M1360 754l1-9c1-4 3-3 7-3h12l8 1v7c1 2 1 6-2 6a175 175 0 00-18-1l-8-1z"/><path class="g" d="M1367 742h13l8 1a8 8 0 010 2l-2 2c2 3 2 3 1 6-2 3-4 1-4 0-1-5-4-1-7 1l-13-1c-2-1-2-2-2-5 0-4 2-4 2-5l4-1zm0 4a8 8 0 012-1c2 0 1-1 1-1a1 1 0 01-2 0s-6 3-1 2zm14 6s-3 0-3 2c0 0 3 1 3-1v-1z"/><path class="p" d="M1373 743l12 2h-1l-11-2z"/><path class="k" d="M1360 750a6 6 0 002-1c2-2 5-2 5-1h-4l-3 3v-1z"/><path class="e" d="M1232 791l1-9c1-4 4-3 8-3 3 0 18 0 19 2v7c1 2 1 5-2 5l-13-1c-1 0-13 1-13-1zm0 0c0 2 11 1 13 1l13 1c3 0 2-3 2-5l-1-7-16-1c-7 0-10-3-11 5v6z"/><path class="k" d="M1232 791l1-9c1-4 3-3 7-3l12 1 7 1 1 7c1 1 1 5-2 5a175 175 0 00-18-1l-8-1z"/><path class="g" d="M1239 780h13l7 1a8 8 0 011 1l-2 3c2 3 2 2 1 5-2 4-4 2-5 0 0-4-4-1-6 1-1 1-12 0-13-1-2-1-2-2-2-4 0-5 2-5 2-5l4-2zm0 3a8 8 0 012 0l1-1a1 1 0 01-2-1s-6 3-1 2zm14 6c-1 0-3 0-3 2 0 0 3 1 3-1v-1z"/><path class="p" d="M1245 781c0-2 11 0 12 1h-1l-11-1z"/><path class="k" d="M1232 788a6 6 0 002-2c2-2 5-1 5-1-1 0-3-1-4 1l-3 2c-1 0 0 0 0 0zM1350 787c0 1 2 5 4 6 2 2 3 9 1 3 0-2-3-3-4-5-2-3 0-3-2 2l1-4-1-2h1z"/></g></svg>