<svg xmlns="http://www.w3.org/2000/svg" xmlns:xlink="http://www.w3.org/1999/xlink" viewBox="0 0 1501 1001"><defs><radialGradient id="a" cx="441" cy="1149.9" r="51.8" gradientTransform="matrix(0 1 1 0 -1011 -111)" gradientUnits="userSpaceOnUse"><stop offset="0" stop-color="#c0a373"/><stop offset="1" stop-color="#fff" stop-opacity="0"/></radialGradient><linearGradient id="b" x1="263.2" y1="744.9" x2="263.2" y2="650.2" gradientTransform="matrix(1 0 0 -1 -146 1444)" gradientUnits="userSpaceOnUse"><stop offset="0" stop-color="#a0edf0"/><stop offset="1" stop-color="#45dbe2"/></linearGradient><style>.c{isolation:isolate}.b{fill:#70b344;stroke:#5f732e}.aa,.at,.b,.t,.u,.x,.y{stroke-miterlimit:10}.c{opacity:.25}.d{fill:#5c4328}.aa,.d,.e,.f,.g,.h,.i,.j,.k,.l,.m,.n,.o,.p,.q,.x,.y{fill-rule:evenodd}.e{fill:#544730}.f{fill:#877657}.g{fill:#ae9c87}.h{fill:#68543c}.i{fill:#9d8264}.j{fill:#b49871}.k{fill:#8f7e5f}.l{fill:#857c68}.m{fill:#a59b84}.n{fill:#67604f}.o{fill:#bdb29a}.p{fill:#c1b09a}.q{fill:#cdb186}.s{fill:#ddc02c}.t,.u{fill:#3f2b0f}.aa,.at,.t,.u,.x,.y{stroke:#1d150c}.u{stroke-width:1.14px}.x,.y{fill:#571c10}.y{stroke-width:1.04px}.aa{fill:#c0a373}.ab{fill:#78a015}.ac,.aw{fill:#7ebb15}.ad{fill:#94d31a}.ae{fill:#897d6f}.af{fill:#635a52}.ah{fill:#91887b}.al{fill:#8ab550}.am{fill:#97c261}.an{fill:#a9d171}.ao{fill:#b3db7b}.ap{fill:#dcf5f5}.aq{fill:#f2ffff}.ar{fill:#fff}.as{fill:#fddfb3}.at{fill:#1d150c}.au{fill:#81a653}.az{mix-blend-mode:multiply}.aw{mix-blend-mode:screen}.ax{fill:#bdbdbd}.ay{fill:#d9d9d9}.az{fill:#cfcfcf}.ba{fill:#cbcbcb}.bc{fill:#c6c6c6}.bd{fill:#e8e8e8}</style></defs><g style="isolation:isolate"><path class="b" d="M1001 501h250v250h-250zM1251 251h250v250h-250zM1001 251h250v250h-250zM1001 1h250v250h-250zM1251 1h250v250h-250zM751 251h250v250H751zM751 1h250v250H751zM751 501h250v250H751zM501 251h250v250H501zM251 251h250v250H251zM501 501h250v250H501zM251 501h250v250H251zM751 751h250v250H751zM251 751h250v250H251zM1001 751h250v250h-250zM501 1h250v250H501zM1251 501h250v250h-250zM1251 751h250v250h-250zM501 751h250v250H501zM251 1h250v250H251zM1 1h250v250H1zM1 751h250v250H1zM1 251h250v250H1zM1 501h250v250H1z"/><use class="c" transform="matrix(.07 .05 -.05 .07 1058 346)" xlink:href="#c"/><path class="d" d="M1181 483l5-9 7-10c2-3 4-6 4-9a13 13 0 00-1-10c-4-7-12-9-18-13a75 75 0 01-9-6 33 33 0 00-5-4 40 40 0 00-5-2 22 22 0 01-5-3l-5-4-9-6a3 3 0 00-1-1l-19-13-10-7-11-5a4 4 0 00-1 0 31 31 0 00-4-4 35 35 0 01-5-4 38 38 0 00-6-4l-6-4-7-4-5-2a7 7 0 01-1 1l-5 6c-2 1-6 2-8 0a8 8 0 01-1 2 22 22 0 01-2 4c-3 3-3 7-4 10a2 2 0 01-2 1v1a2 2 0 01-1 2 10 10 0 01-4 2 29 29 0 00-3 3 11 11 0 00-2 3 19 19 0 00-1 5 5 5 0 004 3 22 22 0 019 4l9 8 20 13 21 14 41 27 22 14 10 7a8 8 0 006 1 8 8 0 004-3l1-2h1a3 3 0 002-2z"/><path class="e" d="M1094 376c-4-2-6-6-9-1l-4 4c-1 2 6 6 8 7 1 1 9 7 10 5 1-1 5-6 5-8l-7-5zm0 0l3 2c2 1 6 2 7 5 1 2-4 7-5 9s-9-4-11-5c-2-2-9-5-7-8l4-5c3-4 5-1 9 2z"/><path class="f" d="M1094 376c-3-2-6-6-9-2-3 6-9 5 2 12 2 1 11 8 12 6l4-6c1-2 1-3-1-5a8 8 0 00-3-2 42 42 0 01-5-3z"/><path class="g" d="M1094 376c-2-1-4-4-6-4a3 3 0 00-2 2l-2 4c1 3-1 3 3 5 1 1 6 6 8 5s0 6 5 1l3-7-1-1a8 8 0 00-3-2 42 42 0 01-5-3zm6 6l-1 1-2-1h3zm-1 5l-1 1c-1-2 1-1 1-1zm-15-9v5l-2-3 2-2z"/><path class="h" d="M1131 404l-4 9s2 5 4 3 6-8 6-10c0-1-3-8-6-2zm0 0c2-5 6-1 7 1l-6 11c-2 2-4-2-5-3s3-7 4-9z"/><path class="i" d="M1131 404l-3 6c0 1-2 2-1 3s1 3 3 3l5-5c1-1 3-5 2-6-2-4-4-4-6-1z"/><path class="j" d="M1137 409v-4c-1-3-3-4-4-3l-1 2-3 6c-2 2 0 2 0 3a2 2 0 003 1l2-3a21 21 0 003-2z"/><path class="h" d="M1043 380l-6 7c0 1 1 6 3 4l9-8c0-1-2-8-6-3zm0 0c3-5 6 0 6 3 0 2-7 7-8 8-3 2-4-2-4-3-1-2 5-6 6-8z"/><path class="i" d="M1043 380l-5 5-1 3c1 1 0 3 3 4l5-4c1-1 4-4 4-6-1-4-4-5-6-2z"/><path class="j" d="M1047 386l2-4c-1-3-2-4-4-3a17 17 0 01-1 1l-4 5c-3 2-1 2-1 3a2 2 0 002 2l3-2a22 22 0 003-2z"/><path class="e" d="M1114 439c-7-3-7-5-12-9-3-2 8-13 12-7l2 3c1 0 6 3 6 5l-5 5c-1 2-1 3-3 3zm0 0l3-3 5-5c1-1-2-3-3-3l-6-5c-3-5-13 5-11 7 5 4 5 6 12 9z"/><path class="k" d="M1114 439c-7-3-7-6-12-9-3-2 9-13 12-6l5 4c3 3 5 2-1 7-1 2-2 4-4 4z"/><path class="g" d="M1102 427c2-3 10-8 12-3l5 4c2 2 4 2 3 3a1 1 0 01-1 0c-3-2-3 1-3 1a3 3 0 002 2l-2 1a29 29 0 01-3 3 5 5 0 01-1-2c0-1 2-7-2 0-3-2 0-5 1-6 4-6 0-3-3-2l3-2c0-3-4 0-5 1-4 2-5 2-6 0z"/><path class="h" d="M1140 457c-3-2-10-4-6-8l3-4c1-3 3-1 7 0 1 1 11 4 10 7-1 2-4 8-7 8a31 31 0 01-4-2l-3-1zm0 0l3 1 5 1c2 0 5-6 6-8 0-2-10-5-12-6-6-3-3 0-7 3-5 5 0 6 5 9z"/><path class="i" d="M1140 457c-2-1-12-4-5-9 3-2 1-7 7-3 3 1 13 4 12 7-7 11-5 7-13 5a4 4 0 01-1 0z"/><path class="j" d="M1145 446l3 1a6 6 0 01-2 2c-1 1 1 5 6 0l2 3-1 2a19 19 0 00-3 2c-2 2-7 2-8-1-1-1-10-2-5-5 0-3 0-4 4-4 1-2 0 1 4 0z"/><path class="h" d="M1184 467c-3-1-10-4-6-8l3-4c2-3 4-1 7 1 2 0 11 3 10 6-1 2-4 8-6 8a30 30 0 01-5-2l-3-1zm0 0l4 1 4 2 6-8c1-2-10-6-12-7-6-3-3 0-7 4-5 4 0 6 5 8z"/><path class="i" d="M1184 467c-2-1-11-4-5-8 4-3 1-8 8-4 2 2 12 5 11 7-6 11-5 7-13 6a4 4 0 01-1-1z"/><path class="j" d="M1189 456l3 2a5 5 0 01-2 2s1 4 6 0c2 0 2 1 2 2l-1 2a19 19 0 00-3 3c-2 2-6 1-8-1-1-1-10-3-5-5 0-3 0-4 4-4 1-3 0 1 4-1z"/><path class="e" d="M1073 407c6-4 8-5 0-11-6-4-6-2-9 2-2 1-2 1-1 3 1 3 8 6 10 6zm0 0c-3 1-10-4-10-5a1 1 0 010-1v-3c4-4 4-6 10-2 8 6 7 8 0 11z"/><path class="l" d="M1073 407c3-2 9-4 3-8-10-8-8-5-14 0l1 3c0 1 8 6 10 5z"/><path class="m" d="M1077 404c2-1 2-3-1-5-9-7-9-6-12-2a1 1 0 001 0c5 5 0 4 6 6l2 1h4zm-2-4s0 2-1 1c-6-5-4-5 1-1z"/><path class="e" d="M1182 480c7-4 8-5 0-11-6-4-6-2-9 2-2 1-2 1-1 3 1 3 8 6 10 6zm0 0c-3 1-10-4-10-5a1 1 0 010-1v-3c4-4 4-6 10-2 8 6 7 8 0 11z"/><path class="l" d="M1182 480c3-2 9-4 3-8-10-8-8-5-13 0v3c0 1 8 6 10 5z"/><path class="m" d="M1187 477c1-1 1-3-2-5-8-7-8-6-12-2a1 1 0 001 0c5 5 0 4 6 6l3 1h4zm-3-4s1 2-1 1c-6-5-3-5 1-1z"/><path class="e" d="M1122 435c3 2 9 7 12 7 2 0 1-4-1-6l-4-2c-5-4-3-2-7-1v2zm0 0v-2c4-1 1-3 7 1l4 2c2 2 4 7 1 7s-9-5-12-8z"/><path class="k" d="M1122 435c5 5 15 11 13 5-1-4-2-4-6-6-5-4-3-1-7-1v2z"/><path class="g" d="M1135 442v-2c-1-4-2-4-6-6-5-4-3-2-7-1l7 4c3 8 2-1 5 4a4 4 0 001 1z"/><path class="h" d="M1083 388c-3 0-4-4-6 0l-4 3c-1 2 4 5 5 6 2 2 4 4 7 0l4-6c0-2-4-2-6-3zm0 0c1 0 6 1 7 3l-5 7c-3 3-5 2-8-1-1-1-6-4-4-6l4-4c2-3 3 0 6 1z"/><path class="j" d="M1083 388c-3 0-4-5-7 0-1 2-7 3 1 8 1 1 5 8 10-1 2-4 5-5-2-6l-2-1z"/><path class="i" d="M1083 388c-3 0-4-4-6-1a5 5 0 010 1h-1l-2 2c0 3 7 5 8 8 0 2 2 0 3-1a19 19 0 002-2 2 2 0 000-1 3 3 0 00-2-2c-2 0-2-2-1-4a6 6 0 00-1 0z"/><path class="e" d="M1057 402c-6-3-6-5-11-8-3-2 9-13 12-7l2 2 6 5-5 6-4 2zm0 0l4-3 4-5-2-3c-2-1-5-2-6-4-3-5-13 5-11 6 5 4 5 6 11 9z"/><path class="l" d="M1057 402c-6-2-6-6-11-8-2-2 9-14 12-7l5 4c3 3 4 2-1 7-2 2-3 4-5 4z"/><path class="m" d="M1051 386c3-1 6-2 7 1l5 4c2 3 4 2 1 5a7 7 0 01-2-1c-1-2-4-2-5-1-4 2-2-1-4 1-1 0-4-3-2-5v-4zm11 12a16 16 0 00-3-2c-2-1-1 1-3 2-1 0-2 2 2 3a14 14 0 001 0l3-3z"/><path class="n" d="M1166 456c-2-1-10-6-10-8-1-2 1-6 2-8 4-4 11 2 15 5 2 1 10 6 8 9l-4 5-6-2-5-1zm0 0l5 1c2 0 5 3 6 2a56 56 0 004-5c3-4-12-13-15-14-7-4-11 0-10 8-1 1 9 7 10 8z"/><path class="l" d="M1166 456c-1 0-11-7-10-8 0 0-1-15 13-7 2 2 14 10 12 13-5 6-2 6-9 3l-6-1z"/><path class="m" d="M1156 445c0-3 2-9 10-5l1 1a3 3 0 004 2c3 2 10 7 10 10-2 0 0 7-11 2-4-2-1-3 0-3 4-4-3 0-4 0-6 0-1-7-6-6-2 1-3 0-4-1z"/><path class="e" d="M1117 440c3 4 9 11 13 11 3 0 2-6 0-8l-4-3c-5-6-3-3-8-2l-1 2zm0 0l1-2c4-1 2-4 8 2l4 3c3 2 4 10-1 8s-9-7-12-11z"/><path class="k" d="M1117 440c5 7 15 16 15 9s-2-6-6-9c-6-6-4-3-8-2l-1 2z"/><path class="g" d="M1132 448c0-6-2-5-6-8l-1-2a2 2 0 01-2 0 2 2 0 00-3 1c-1 4 7 2 9 7-2 2-5-2-6-3-1 2 7 7 7 7 1 1 1 0 2-2z"/><path class="e" d="M1187 450c3 3 9 9 11 6s1-12-1-14l-4-1c-5-3-3-1-6 5v4zm0 0v-5c3-5 1-8 6-5l4 2c2 1 4 13 1 14s-8-3-11-6z"/><path class="k" d="M1187 450c5 6 14 11 12-1-1-9-2-6-6-8-5-4-3 0-6 4v5z"/><path class="g" d="M1199 449c-1-9-2-6-6-8a14 14 0 00-1-1l-1 1c-2-1-3 4-3 5 1 6 6-4 9 2-1 5-4 2-5 2-1 3 6 3 6 3 1 1 1-1 1-4z"/><path class="h" d="M1136 419l-2-3c-1-2-1 1-2 1l-1 1 2 1 2 1a3 3 0 002 0l-1-1zm0 0a1 1 0 000 1h-1a1 1 0 01-1-1h-3c-2-1 1-2 1-2 0-1 1-4 2-2l2 4z"/><path class="i" d="M1136 419l-2-4c-1-2-2 2-2 2s-2 1-1 2h3l1 1h1a1 1 0 010-1z"/><path class="h" d="M1135 420l-2 1c-2 1-4 4-5 0 0-2-1-3 1-3s-1 1 3 2h3zm0 0a3 3 0 00-2 0c-1 0-4 0-3-2 0 0-2 0-2 2s0 4 3 2l3-2zm0 0z"/><path class="i" d="M1135 420h-2s-4 0-3-2c0 0-3-1-2 2 1 1 0 5 3 2l3-2h1z"/><path class="h" d="M1111 403c1-1 5 3 6 3 3 2-2 2-4 0l-3-3h1zm0 0s-1 0 0 0c3 3 3 4 7 4a4 4 0 00-1-1c-1 0-5-4-6-3z"/><path class="k" d="M1111 403c1-1 4 2 6 3l1 1c-5 1-5-1-8-4h1z"/><path class="h" d="M1047 388c1 1-4 5-4 5-3 3-2-2 0-3l4-2zm0 0s0-1 0 0c-4 2-5 2-6 6a4 4 0 001-1l5-5z"/><path class="k" d="M1047 388c1 1-3 4-4 5l-2 1c1-4 2-4 6-6 0-1 0 0 0 0z"/><path class="h" d="M1142 441c1 1 2 1 0 2s-3-3-6-5c-2-1-3-4 1 0l5 3zm0 0a21 21 0 01-5-3c-5-5-3-1-1 1l3 4c3 2 6-1 3-2z"/><path class="k" d="M1142 441s2 1 0 2c-2 2-3-3-6-5-2-1-3-4 1 0a18 18 0 005 3z"/><path class="h" d="M1134 443a23 23 0 00-3 0c1 2 2 1 2 5 1 0 2-4 1-5zm0 0c2 1-1 9-1 4-1-2-4-7 1-4z"/><path class="k" d="M1134 443h-3l1 2c1 2 0 5 2 3v-5z"/><path class="h" d="M1181 481a21 21 0 00-3 0l2 5 1-5zm0 0c1 1-1 9-2 4 0-2-4-7 2-4z"/><path class="k" d="M1181 481h-3l1 2c1 2 0 5 1 3 1 0 2-4 1-5z"/><path class="h" d="M1124 450l-1 3 2 2c1 0 8 1 6-1l-5-4a5 5 0 00-2 0zm0 0s0 1 0 0c2-1 4 2 6 4 3 2-2 1-4 1l-3-2 1-3z"/><path class="i" d="M1124 450l-1 3c2 2 2 1 5 2 0 0 5 1 2-1-1-1-4-5-6-4 0 1 0 0 0 0z"/><path class="e" d="M1060 386l7 4 5 4c-1 1-12-6-14-7-1-2-1-2 2-1zm0 0h-2c2 2 13 9 14 8l-4-3a22 22 0 00-2-2l-6-3z"/><path class="l" d="M1060 386l7 4a19 19 0 003 3c3 1 3 2-2 0-2-1-9-5-10-7 0 0-2-1 1-1l1 1z"/><path class="h" d="M1082 403a23 23 0 00-2-3l-2 5a2 2 0 000 1l4-3zm0 0c1 1-7 6-4 1 2-2 2-7 4-1z"/><path class="k" d="M1082 403l-2-3-1 2c0 3-3 4-1 4l4-3z"/><path class="h" d="M1072 412a22 22 0 002 2l2-6a4 4 0 000-1s-4 3-4 5zm0 0c-1-2 7-8 4-3-2 3-2 9-4 3z"/><path class="k" d="M1072 412l2 2 1-2c0-3 3-5 1-5-1 0-5 4-4 5z"/><path class="n" d="M1080 385h4l5 2c2 1 2 2 0 2a51 51 0 01-6-1l-3-2a1 1 0 010-1zm0 0c0 2 2 2 3 2l6 1a7 7 0 00-1-1l-4-2h-4z"/><path class="l" d="M1080 385h4l4 2s4 2 0 1a14 14 0 01-3 0l-2-1a3 3 0 01-1 0l-2-2z"/><path class="e" d="M1074 396l4 3c1 1 0 2-1 0l-2-1s-4-3-2-3h1a1 1 0 010 1zm0 0l-1-1 4 3 1 2v-1c-2-1-2-3-4-3z"/><path class="k" d="M1074 396c2 0 2 2 4 3 1 0 1 2-1 0l-1-1a24 24 0 00-2-2c-2-1-1-2 0-1z"/><path class="e" d="M1046 395l4 3c2 1 0 2-2 0l-1-1s-4-3-2-3l1 1zm0 0l-1-1c-2 0 3 3 3 4l2 1-1-1-3-3z"/><path class="k" d="M1046 395l3 3c1 0 2 2-1 0l-1-1-2-2c-2-1 0-2 1 0z"/><path class="h" d="M1053 381a43 43 0 00-3 5l6-2-2-2-1-1zm3 3zm-3-3l2 2 1 1c-4 0-3 1-6 2-2 1 3-5 3-5z"/><path class="i" d="M1053 381l-2 3-1 2 5-2c1 0 2 0 0-1l-2-2z"/><path class="h" d="M1103 415l2 1 1 2a9 9 0 002 2c1 1-2 3-3 3-1-1 1-3-1-5l-1-3zm0 0c-1 1 2 2 2 4l1 3 2-2a9 9 0 01-2-2l-1-1c-1-2-1-2-3-2zm3 7"/><path class="i" d="M1103 415l2 1 1 2 2 2c2 1-2 2-2 2-1 2-1-2-1-3a10 10 0 00-2-3v-1z"/><path class="h" d="M1105 415l3 3 1 2-1-3c0-2 1-2-2-2zm0 0a3 3 0 011 0l2 1c0 3 2 2 1 3 0 2-1 0-1 0-2 0-2-3-3-4z"/><path class="i" d="M1105 415l2 3 2 2v-2c-1 0 0-3-2-3h-2z"/><path class="e" d="M1092 390l-2 3 3-2a2 2 0 001 0l-2-1zm-2 3l2-3 1 1c2 1-1 1-1 1s-2 2-3 1c0 0 2-4 3-3z"/><path class="k" d="M1092 390c-1-1-2 2-2 2-2 2 2 0 2 0 1 0 3 0 1-1l-1-1z"/><path class="e" d="M1079 382c-1-1-1 1-2 2l4-1-2-1zm-2 2l2-2h2c2 1-1 1-1 1l-3 2 2-3z"/><path class="k" d="M1079 382l-2 2c-1 2 3-1 3-1 1 0 2 0 1-1h-2z"/><path class="h" d="M1084 400c0 1-3 0-1 3 2 2 2-3 2-4l-1 1zm1-1l-1 1a1 1 0 011-1v4a1 1 0 01-2 0c-2-3 1-3 1-3z"/><path class="i" d="M1084 400c0 1-3 0-1 3h2v-4l-1 1z"/><path class="e" d="M1121 428l5-1c2-1 1 0 2 2v2h-4c-1 1-1-1-2-1 1 0-2-1-1-2zm0 0l2 1c0 1 0 3 1 2h4l-1-2-1-2-5 1z"/><path class="k" d="M1121 428c2-1 2 1 5-1 2-1 1 0 2 2v1c1 1-2 0-4 1s-1-2-1-2l-2-1z"/><path class="e" d="M1099 430c1 2-2 4 1 3h3l-2-3h-2zm0 0c0-1 1-2 2 0l3 2c1 3-3 1-3 1-4 2-1 0-2-3z"/><path class="k" d="M1099 430c1 2-2 5 1 3 2-1 4 2 4 0s-2-1-3-3-2-1-2 0z"/><path class="e" d="M1115 440l2 2c4 3 4 5 2 3l-3-2c-2-2-3-2-1-3zm0 0l-1 1 4 2 2 2a18 18 0 00-3-3l-2-2z"/><path class="k" d="M1115 440l2 2s4 4 2 3a8 8 0 00-1-1l-4-3 1-1z"/><path class="h" d="M1147 461l3 1 1 2a9 9 0 002 2c1 1-2 3-3 3-1-1 1-3-1-6l-2-2zm0 0l3 4v3l2-2a8 8 0 01-1-2l-1-2-3-1zm3 7"/><path class="i" d="M1147 461l3 1 1 2 1 2c1 1-1 2-1 2-1 1-1-2-1-3a10 10 0 00-3-3v-1z"/><path class="h" d="M1177 461l-2 2-3-1s-7-4-4-4l7 1a7 7 0 012 2zm0 0h-1c-1-3-4-2-7-3s1 2 3 3l3 2c0-2 0-1 2-2z"/><path class="i" d="M1177 461c-1 1-2 0-2 2-3 0-2-1-5-3-1 0-5-3-1-2 2 0 6 0 7 3h1z"/><path class="h" d="M1160 471c1-1 5 2 6 2 4 2-1 2-3 1l-3-3zm0 0c3 3 3 3 7 3a5 5 0 00-1 0c-1-1-5-4-6-3z"/><path class="k" d="M1160 471c1-1 5 2 6 2l1 1c-4 1-4-1-7-3-1 0 0 0 0 0z"/><path class="h" d="M1179 447l6 4c3 2-2 2-3 0l-3-3v-1zm0 0v1c3 3 3 4 7 4a4 4 0 00-1-1l-6-4z"/><path class="k" d="M1179 447l6 4 1 1c-5 0-4-1-7-4v-1z"/><path class="h" d="M1190 474l-6-4c-3-2 2-2 4 0l3 4h-1zm0 0l1-1c-4-3-3-4-8-4a4 4 0 001 1l6 4z"/><path class="k" d="M1190 474l-5-4-2-1c5 0 5 1 8 4l-1 1z"/><path class="e" d="M1058 404l12 8c2 0 0-4-2-6l-3-2c-6-3-3-1-7-1v1zm0 0v-1c3-1 1-2 7 1l3 2c3 2 5 7 2 6l-12-8z"/><path class="l" d="M1058 404c5 5 15 11 13 6-2-4-3-4-6-6-6-4-4-1-7-1v1z"/><path class="m" d="M1071 412v-2c-2-4-3-4-6-6-6-3-4-1-6-1 1 2 6 3 6 4 4 6 2-1 5 3a4 4 0 001 2z"/><path class="n" d="M1150 446l4 1 2 3v1a37 37 0 01-4-3l-2-2zm0 0l2 2 4 3a6 6 0 000-1l-2-3-4-1z"/><path class="l" d="M1150 446l3 1c2 0 2 2 3 3 0 0 2 2-1 0a11 11 0 01-2-1l-1-1-1-1-1-1z"/><path class="n" d="M1155 443l-2 2c-2 0 0 0 1 1l1 1v-2c0-2 0-1 1-1a2 2 0 000-2l-1 1zm0 0v3c0 2-1 0-1 0-1 0-3-1-1-1l2-2z"/><path class="l" d="M1155 443l-2 2c-2 0 1 1 1 1l1 1v-3h1c0-1 0-3-1-1z"/><path class="n" d="M1158 435c1 1 2 1 2 3l4 1c1 1 3 0 1-1a41 41 0 00-4-3h-3zm0 0h3l4 4a6 6 0 01-1 0l-3-1-3-3z"/><path class="l" d="M1158 435l2 2c1 2 3 1 4 2 0 0 3 0 0-1a11 11 0 00-1-1l-2-2a3 3 0 00-1 0h-2z"/><path class="h" d="M1149 446a21 21 0 00-2-2l-3-1a6 6 0 002 3s5 2 3 0zm0 0c2 2-2 1-3 0a6 6 0 01-3-3l4 1 2 2z"/><path class="i" d="M1149 446l-1-1-1-1a15 15 0 00-3-1v1a4 4 0 002 2h3z"/><path class="h" d="M1152 460a24 24 0 00-3 0l3 4a3 3 0 000 1v-5zm0 0c1 0 2 8-1 4-1-3-6-5 1-4z"/><path class="k" d="M1152 460h-3l1 2c2 1 2 4 3 2l-1-4z"/><path class="n" d="M1101 397c-6-4-8-6-12-1-2 2-6 7-1 8l7 5 4 2c5 4 9 3 12-3 2-3-1-4-4-6a31 31 0 00-6-5zm0 0l7 4c2 3 5 4 4 7-4 7-8 8-13 3l-4-1-7-5c-5-2-2-7 0-9 5-5 7-3 13 1z"/><path class="l" d="M1101 397l-7-4c-4-1-12 10-6 12 3 0 4 4 9 5 1 0 8 9 14-1 1-2 2-3-1-6l-9-6z"/><path class="m" d="M1101 397a11 11 0 01-1-1c-5 3-4 0-3-1a12 12 0 00-3-2 3 3 0 00-2 0c-3 4-6 10-3 10 3-1 6 6 8 3 3-5 6-7 8-7a17 17 0 00-4-2zm8 15c-1 0-2-2-6 0-3 1-5-2-2-3 1 0 7-4 2-2-7 3-5-2-3-2 0-1 1-4 5-6l5 4c3 3 2 4 1 6a14 14 0 01-2 3z"/><path class="o" d="M1094 394l3 1-1 1c0 1-1 2 1 2a4 4 0 002 0h-4c-1-1 0-3 1-3a6 6 0 01-2-1zm3 1z"/><path class="n" d="M1074 360c-6-3-8-6-12 0-2 2-5 7-1 8s4 4 7 5l4 2c6 4 9 3 12-3 2-3-1-5-4-7a30 30 0 00-6-5zm0 0l7 5c2 2 6 4 4 7-4 6-7 7-13 3l-4-2-7-5c-5-1-2-6 0-9 5-5 7-2 13 1z"/><path class="l" d="M1074 360l-7-3c-4-1-12 10-6 11 3 1 5 5 9 5 1 1 8 10 14 0 1-2 2-4-1-6l-9-7z"/><path class="m" d="M1074 360a11 11 0 01-1 0c-5 3-4-1-2-2a12 12 0 00-4-1 3 3 0 00-2 0c-3 3-6 10-3 10 3-1 7 5 8 3 3-6 6-7 8-7a17 17 0 00-4-3zm8 16c-1 0-1-2-6 0-3 1-5-2-2-3 1-1 7-4 2-2-7 3-5-2-3-3 0 0 1-3 5-5l5 4c3 2 2 4 1 6a14 14 0 01-2 3z"/><path class="o" d="M1067 357l3 1-1 2 1 2a5 5 0 003 0h-4c-2-1-1-3 0-4a6 6 0 01-2-1zm3 2z"/><path class="n" d="M1115 423c-6-4-8-5-4-11 1-3 2-4 7-3l7 5c2 1 1 7 2 10 1 1-2 3-5 3l-7-4zm0 0a40 40 0 005 3c5 2 8 0 8-3l-2-10-8-5c-5 0-6 0-8 4-3 6-2 7 5 11z"/><path class="l" d="M1115 423c-4-3-5-3-6-6-1-2 3-9 5-9 7 1 5 1 11 5 3 1 1 7 2 10 1 1 0 2-2 3-2 2-7-1-10-3z"/><path class="m" d="M1109 415c1-3 3-7 5-7 7 1 5 1 11 5a3 3 0 011 1c0 1-2 3 0 4h1a17 17 0 000 5c-6 4-5-1-9-2-3-1-2-3-6-4-2 0-3-1-3-2zm9-4c-4-2-5 3-3 1l3 1v-2z"/><path class="o" d="M1119 410c2 1 5 1 6 3s-2 2-1 3l1 2c-1-1-2-2-1-4 1-1-4-3-5-4z"/><path class="n" d="M1166 490c-7-4-8-5-5-10 2-4 3-5 7-4l8 5 2 10c0 2-3 4-6 3l-6-4zm0 0a40 40 0 005 4c4 2 8-1 7-3l-1-10-9-5c-4-1-5 0-7 3-3 6-2 7 5 11z"/><path class="l" d="M1166 490c-4-2-6-3-7-6 0-1 3-8 6-8 6 0 4 1 10 4 3 2 2 8 3 11l-2 3c-3 2-7-1-10-4z"/><path class="m" d="M1160 482c1-2 3-6 5-6 6 0 4 1 10 4a3 3 0 012 2c-1 1-2 3 0 3v1a17 17 0 001 5c-7 4-6-2-9-3-3 0-3-3-6-4-2 0-3-1-3-2zm8-4c-3-2-5 3-2 2h2v-2z"/><path class="o" d="M1170 478c2 0 5 1 5 3v3l1 2c-2-1-3-2-2-4s-3-4-4-4z"/><path class="n" d="M1147 428c-5-3-11-10-16-4-3 3-4 7 0 8 5 2 16 13 20 13 1 0 12-8 4-13l-8-4zm0 0a80 80 0 019 5c6 4-2 11-5 12s-16-10-20-12c-6-3-1-10 3-11 5-2 10 3 13 6z"/><path class="l" d="M1147 428s-8-7-11-7c-6 0-10 9-5 11 4 2 17 15 21 13 3-2 10-8 4-12l-9-5z"/><path class="m" d="M1135 425c5 2 9 7 3 3 0 0-6-2-4-3h1zm12 3s-8-7-11-7a8 8 0 00-6 5 3 3 0 001 3c2 1 1-1 5 3 4 3 7 3 12 3 4 0 8 5 6 4-4-2-8-5-11-1l9 6c4-2 9-8 4-11l-9-5z"/><path class="o" d="M1138 432l8 2c2 0 6 0 7 3a5 5 0 001 1l-1-1-6-2c-4 0-5 0-9-3z"/><path class="e" d="M1142 408c4 1 5 3 9 5 2 1 13 6 13 9l-4 7c-1 4-4 1-7-1l-11-6c-5-3-10-5-6-11 2-3 2-4 6-3zm0 0c-4-1-4 1-6 4-3 6 2 7 6 10l11 6c3 2 6 4 7 1l3-7c1-2-9-7-10-8l-11-6z"/><path class="k" d="M1142 408l7 4c3 1 14 7 15 9 0 2-4 5-4 8 0 1-2 2-3 1-5-2-12-5-15-8-2-1-9-4-6-10l1-2c1-2 2-3 5-2z"/><path class="g" d="M1142 408l7 4c3 1 14 7 15 9 0 2-4 5-4 8a2 2 0 01-1 1 38 38 0 01-6-2l-2-1v-5h3l2 2h3a7 7 0 01-3-2l-4-2h-4c-2 0-6-2-7-4s-4-3-5-5l1-1c1-2 2-3 5-2z"/><path class="p" d="M1138 409c3-1 5 1 8 2l8 3a17 17 0 015 6h1l-2-2c-3-3-7-5-11-6s-5-3-9-3z"/><path class="e" d="M1084 424c-1 2-4 9-7 8-5-3-23-14-20-19l4-5c3 0 20 12 23 15a9 9 0 010 1zm0 0a5 5 0 000-1c-3-3-19-15-23-15-2 0-4 4-4 5-4 5 15 17 20 19 4 2 6-6 7-8z"/><path class="l" d="M1084 424c-1 3-4 9-7 8-4-2-24-14-20-19 4-7 3-7 15 1l12 9a6 6 0 010 1z"/><path class="m" d="M1084 424l-1 3a1 1 0 01-1-1c-3-2-3 4-6-3-6-1-5-2-8-7-1-2-7 3-1 3l4 3h-5c-1-1-2 0-2 2-5-4-9-8-7-11 3-5 3-6 8-3 0 1-1 1 2 1a3 3 0 001 0l4 3 12 9a6 6 0 010 1zm-3 5c1-1 0-3-2-2-3 0-4-2-4-2-2 5-1 4-4 3l6 4c2 1 3-1 5-3z"/><path class="o" d="M1060 409c6-1 3 1 6 2l3 2a58 58 0 019 6l-11-6-2-1c-2-2 1-2-5-3z"/><path class="h" d="M1092 441c3-2 7-8 5-11-1-3-3-2-5-4s-3-3-6-1c-6 6-4 13 3 16zm0 0h-3c-7-3-9-11-3-16 3-2 4-1 6 1s6 1 6 5-3 8-6 10z"/><path class="i" d="M1092 441c3-1 10-12 2-13-3-1-4-8-10-1-5 6 1 14 8 14z"/><path class="j" d="M1097 435c1-4 1-7-3-7-3-1-4-7-8-2 2 1 3 0 0 5-2 3-2-1-3-3a7 7 0 00-1 5 4 4 0 005 1c3-1 7 3 10 1z"/><path class="q" d="M1087 433a10 10 0 016 1h3c-3 2-4 1-6 0l-3-1z"/><path class="h" d="M1117 457c2-1 8-7 5-9l-11-8-6-4c-4-2-4-3-7 1-1 2-4 5-3 6l6 4c3 2 5 4 9 5 0 0 6 6 7 5zm0 0c-1 1-6-4-7-5-4-1-6-3-9-5l-6-4 4-7c2-3 3-2 6-1l6 4 11 9c4 2-3 8-5 9z"/><path class="i" d="M1117 457c2-2 9-7 5-9l-11-9-6-3c-2-1-4-4-7 1s-5 6 0 8c3 1 8 7 12 7 1 1 6 6 7 5z"/><path class="j" d="M1121 454c2-2 3-5 1-6l-11-9-6-3c-2-1-4-4-7 1l-2 2c0 2 1 3 2 3 4 0 10 7 11 6 2-1 3 0 2-2-2-4-2-2-2-5 0-4 4 9 6 8 5 0 5 4 6 5z"/><path class="q" d="M1113 444l2 4 5 3-1 1c0-3-3-2-4-3l-2-5z"/><path class="h" d="M1151 470l-3 7c1 1 6 7 8 5 2-1 6-6 5-8 0-1-8-10-10-4zm0 0c1-6 9 1 11 4 1 2-4 8-5 9-2 2-7-3-9-5-1-2 2-7 3-8z"/><path class="i" d="M1151 470l-2 5-1 2 8 6c1 1 3-4 4-4 1-1 3-4 1-6-5-6-9-7-10-3z"/><path class="j" d="M1157 481l2-2c1-1 3-4 2-6-5-5-8-6-10-4l-1 4c-2 2 3 7 5 6 0-1 2-1 1 1-1 1 0 1 1 1z"/><path class="q" d="M1154 470c1-1 4 1 4 2a8 8 0 012 4l-2-2-4-4z"/><path class="e" d="M1175 465c-1 2-4 8-7 7l-7-2-6-4c-2-1-2-3-2-5-2-8 3-10 9-5l10 7a12 12 0 003 1 3 3 0 000 1zm0 0v-1a15 15 0 01-3-1c-6-3-6-4-10-8-6-4-12-2-10 6 1 2 1 4 3 5l6 4 7 2c3 2 6-5 7-7z"/><path class="k" d="M1175 465c-1 1-4 9-7 7-2-1-3 1-9-4s-5-1-7-7c-1-6 2-10 7-7l12 8 4 2z"/><path class="g" d="M1175 465l-5 7v-2l-5-2c-4-1-5-5-8-4-7 1-2-10-1-10 5 0 4 1 6 2l9 6 4 2z"/><path class="p" d="M1156 455c5-1 2 1 5 2l3 1a46 46 0 017 6l-9-6-2-1c-2-1 1-2-4-2z"/><path class="h" d="M1119 392l-5-3c-2-1-6-5-8-4l-2 2c-1 0-4 5-3 7 2 5 6 5 10 7a68 68 0 019 6c1 1 5 5 7 3l5-9c0-2-4-4-6-5a52 52 0 00-7-4zm0 0a41 41 0 017 4c2 1 6 3 6 5l-5 9c-2 2-6-1-7-2a75 75 0 00-9-7c-5-2-8-2-11-7-1-2 2-6 4-7l2-2c2-1 6 2 8 4l5 3z"/><path class="i" d="M1119 392l-4-2-3-2c-3-2-5-5-7-2-2 2-2 0-4 4v5c3 4 6 4 10 6l9 6a23 23 0 005 4c2 1 3-2 3-4l2-2c3-5 3-5-2-8l-9-5z"/><path class="j" d="M1114 389a13 13 0 00-2-1c-2-2-5-5-7-2v6c3 1 4 4 8 5 0 0 1-2 3-1 2 0 4 1 5 3 2 2 7 2 10 4 2-3 1-3-3-6l-5-3c-4 0-5 0-9-5zm10 21a6 6 0 01-2-2c-3-6-7-6-13-9-1 0-7-5-5-7 3 1 2 4 7 6s2-2 11 3l8 4-2 2c0 2-1 5-3 4z"/><path class="q" d="M1130 402c1-2 1-3-1-4l-8-3a17 17 0 01-4-3l5 3 5 2c2 1 6 3 3 5z"/><path class="h" d="M1058 383c3 0 3 1 5 3 2 1 6 5 8 3l2-1 4-7c-3-5-6-5-11-7a69 69 0 01-9-7c-1 0-5-4-7-2l-5 9c0 2 4 4 6 5a52 52 0 007 4zm0 0a42 42 0 01-7-4c-2-1-6-3-6-6l5-9c2-1 6 2 8 3a75 75 0 008 6c5 3 8 3 11 8 1 1-2 6-3 7-2 0-2 1-3 2-2 1-6-3-8-4l-5-3z"/><path class="i" d="M1058 383l4 2 3 2c3 2 5 4 7 1 2-1 2 1 4-3v-6c-3-3-6-3-10-6l-9-6a22 22 0 00-5-3c-2-1-2 2-3 3l-2 3c-3 4-3 5 2 8l9 5z"/><path class="j" d="M1063 386a14 14 0 002 1c3 2 5 4 7 1v-5c-3-2-4-5-7-5l-4 1c-2-1-4-1-5-3-1-3-7-3-10-4-2 2-1 3 3 6l5 3c4 0 5 0 9 5zm-9-21a6 6 0 011 2c3 6 7 6 13 8 1 1 7 6 5 8-3-1-2-4-7-6s-2 2-11-3l-8-4 2-3c1-1 1-4 3-3l2 1z"/><path class="q" d="M1047 373c-1 2-1 2 2 3l7 3a17 17 0 015 4l-5-3-6-2c-2-1-6-3-3-5z"/><path class="e" d="M1096 410c-5-1-5-2-9-4s-6-2-9 2c-2 3-4 6-1 8l3 2c3 3 4 4 9 5 3 0 9 6 10 5 10-8 2-12-3-17a2 2 0 000-1zm0 0a1 1 0 010 1c6 5 14 9 4 17-2 1-8-5-11-5-5 0-6-1-10-5l-2-2c-3-2-2-5 1-8 3-4 5-5 9-3l9 5z"/><path class="k" d="M1096 410c-9-2-11-9-16-5-3 3-8 9-2 12 1 0 5 6 11 6 3 0 9 6 10 5 11-8 2-12-2-17a4 4 0 00-1-1z"/><path class="g" d="M1095 410h-1a29 29 0 01-7 5 19 19 0 01-4 0l3-1a19 19 0 007-5c-6-3-8-7-13-4-9 8-4 14 7 11 3-1 6-4 6 0-1 2-2 5-1 8l2 2a2 2 0 000-1c-1-2 5-6 6-9 0-3-5-3-5-6zm-11 12c2-3 7-5 4 1a9 9 0 01-4-1zm20-4c1 6-5 9-6 6-1-5 2-8 4-8a10 10 0 012 2z"/><path class="p" d="M1082 405c0-3 5 1 5 1a23 23 0 003 2c1 0 4 0 4 2-3-2-1-1-4-1l-6-4h-2z"/><path class="k" d="M1075 413c5-2 7-2 12-2 3 0 3-2 4-3a6 6 0 01-4 3l-2 1c-4 2-1 3-4 6l2-5c-3 1-1 3-4 4 3-2 1-4 4-5l3-1-11 2zm16-5h1-1z"/><path class="e" d="M1149 471c-1 0-2 5-4 5-3 0-11-7-15-8-3-2-10-4-7-9 1-4 0-3 6-2 2 0 8-1 10 1 3 1 10 5 10 9a5 5 0 010 4zm0 0v-5c-1-3-9-9-12-9l-13-1-2 4c-2 5 5 7 8 8 4 2 12 8 15 8 2 0 3-5 4-5z"/><path class="k" d="M1149 471c-1 1-2 5-4 5l-10-5-8-4c-3-2-7-5-5-8 2-2 0-3 6-3l11 1c4 3 14 8 10 14z"/><path class="g" d="M1124 456a13 13 0 014 0l11 1c3 2 11 6 11 11-2 3-2 4-9 2-5-2-3-3-8-6l-9-7v-1z"/><path class="p" d="M1131 457c4 0 15 3 16 8v1-1c-3-5-12-6-16-8z"/><path class="e" d="M1134 457v10c1-3-1-4-1-6 0-4 1-3-3 0l3-3 1-1zM1159 433l5-8c3-3 5 0 9 2 2 1 16 8 15 10l-3 7c0 2-2 5-5 3l-11-7s-11-6-10-7zm0 0l10 7 12 7c2 2 4-2 4-3l3-7-14-9c-5-3-7-7-11-1l-4 6z"/><path class="k" d="M1159 433l5-8c3-3 4-1 8 1 3 3 6 4 10 6l6 5-3 7c0 1-2 5-4 3a176 176 0 00-16-9l-6-5z"/><path class="g" d="M1171 426h1c3 3 6 4 10 6l6 5a8 8 0 010 2l-3 1c0 3 1 3-2 5s-5-1-4-2c2-4-3-3-6-2l-11-7c-1-3 0-4 1-6 2-3 4-2 4-3l4 1zm-2 3a8 8 0 012 1c2 0 1-1 1-1l-1-1s-7-1-2 1zm9 12s-2-2-3 1c0 0 2 2 3 0v-1z"/><path class="p" d="M1176 430l10 7h-2l-8-7z"/><path class="k" d="M1161 430a6 6 0 003-1l5 2h-1l-4-2-3 1z"/><path class="e" d="M1030 402l4-8c3-3 6 0 9 2l16 10-3 7c-1 2-3 5-5 3l-11-7c-1 0-11-6-10-7zm0 0c-1 1 9 6 10 7l11 7c2 2 4-1 4-3l3-7c1-1-12-8-14-9-5-3-7-7-11 0l-3 5z"/><path class="k" d="M1030 402l4-8c2-3 4-1 8 1 3 3 7 4 10 6 2 1 7 4 6 5l-2 7c-1 1-3 5-5 3a176 176 0 00-15-9c-1-1-7-4-6-5z"/><path class="g" d="M1041 395h1c3 3 7 4 10 6 2 1 7 4 6 5a9 9 0 010 2l-3 1c1 4 1 3-2 5s-4-1-4-2c2-4-3-3-6-2l-10-7c-2-3-1-4 0-6 2-3 4-2 4-3l4 1zm-2 3a8 8 0 012 1c2 0 2-1 1-1l-1-1s-7-1-2 1zm10 13c-1-1-3-2-4 0a2 2 0 003 0h1z"/><path class="p" d="M1046 399c1-1 9 6 10 7h-1l-9-7z"/><path class="k" d="M1032 399a6 6 0 002-1l5 2h-1l-3-2-4 1h1zM1134 457v10c1-3-1-4-1-6 0-4 1-3-3 0l3-3v-1h1z"/><path d="M1098 660c1-4 9-3 20-2h28l23 2 44 1c7 0 14 2 21 0 1 0 5-1 7 1s2 5 2 7c0 15 2 30 1 45-1 9-4 32-2 53 1 10-2 21 0 31l-1 7c-3 3-11 1-15 0-7-2-19-2-42-2-19 0-18 2-31 1-14-2-15-5-25-5-16 1-24 8-29 4-3-3-3-7-3-12l2-43c2-18-1-14 1-39 1-13 2-24 0-32l-2-13 1-4z" fill="#ffe161"/><path class="s" d="M1168 804a2 2 0 01-2-1v-1-2l-1-4a3 3 0 010-1v-6l1 2a7 7 0 000-2 2 2 0 001 0 2 2 0 001 0h-3a3 3 0 010-1 27 27 0 001-3v-1-3a31 31 0 000-3l-1-1v-1a2 2 0 011-1v-3l-1-3a3 3 0 011-3l1-1a43 43 0 01-2-7l-1-3-1-6 3 3v-3a3 3 0 010-1v-6-3h1v-1-1a2 2 0 010-1v-2l-1-5a1 1 0 010-1 2 2 0 011-1l-1-3v-1a1 1 0 010-1v-2-2c0-1 0 0 0 0a1 1 0 011-1v-4a2 2 0 01-1-1 10 10 0 00-1-4l2-1v-1a2 2 0 00-1 1 1 1 0 000-1 4 4 0 011 0v-9a23 23 0 010-3h-1v-2-2-3a3 3 0 011-2l-1-1-6 3 6-6v-6a21 21 0 010-4v-1a29 29 0 000-4 56 56 0 010-6 17 17 0 00-1-3l4-1a19 19 0 011 5v5a26 26 0 010 3 1 1 0 010 2 14 14 0 000 3v1a14 14 0 000 3 7 7 0 01-1 4 14 14 0 011 2l1 4v1h-1v3l1 5 1 3-2-1a6 6 0 001 1v1a2 2 0 01-1 1 10 10 0 001 5h-1v4a30 30 0 010 6 15 15 0 000 2 30 30 0 010 6l1 1v3l-1 1 1 6v1a2 2 0 010 1l-1 5v6a2 2 0 010 2v3l-1 3v1a59 59 0 001 6 2 2 0 011 1v4l-1-1a2 2 0 01-1 1v8l1 2v5a5 5 0 010 1 2 2 0 01-1 2v1l1 3a17 17 0 010 5h-1v3l1 2v1a2 2 0 01-2 2zm0-37l-1 1a2 2 0 001 0 2 2 0 001 0 1 1 0 00-1-1zm-2 1h1a2 2 0 01-1-1 2 2 0 000 1zm4-75a1 1 0 000-1 1 1 0 010 1zm-4-18z"/><path class="s" d="M1156 805l-1-3a2 2 0 011-2v-1l1-3c-2-4-2-6-1-8a12 12 0 010-4v-2a1 1 0 010-1v-3-2a2 2 0 01-1-3 2 2 0 011-1l-1-6v-1a7 7 0 011-3 3 3 0 01-1-1 7 7 0 010-1 1 1 0 011-1v-4-2a2 2 0 010-1v-7a4 4 0 011-2l-1-3h-1v-1l2-2v-1c-2-5-2-9-1-11v-4l-1-5v-3a1 1 0 010-1 9 9 0 010-1v-8a2 2 0 010-1 3 3 0 011-1v-1a16 16 0 000-3 11 11 0 01-1-5 4 4 0 01-1-1h1v-3-3a8 8 0 010-3 2 2 0 011-2l-1-8v-2a2 2 0 012-1l-1-6h-1v-3l3-2 1 3 1 11v7l1 2 4 9-5-6v1l-1-1v-1a29 29 0 000 4 4 4 0 000 1v2a4 4 0 010 2 11 11 0 000 4l1 4-1 2a6 6 0 011 2v7l-1-2v1a4 4 0 010 2v7a2 2 0 001 2 1 1 0 010 2 3 3 0 01-1 0l1 1v4l-1 1a18 18 0 001 5h1v11-2a7 7 0 010 2l-1 4-1 6v6h1a3 3 0 01-1 1 6 6 0 000 3 3 3 0 010 1l1 6v3l1 1h-1a2 2 0 01-1 1v2a22 22 0 010 5l1 5 5 7-6-4 2 6h-1a49 49 0 001 5l-2 1zm1-60zm1 0zm-3-33h1l-1-1a1 1 0 000 1zM1148 803a2 2 0 01-1-1l-1 1v-1l-1-1a1 1 0 011-1v-1l-1-3a3 3 0 011-2l-2-6v-1h1a1 1 0 010-1v-2l-1-2v-1a1 1 0 011 0 16 16 0 010-5v-1h1a30 30 0 000-4 1 1 0 010-1v-1-3-1l-1 1v-1l1-2a31 31 0 00-1-6 2 2 0 010-1v-1h-1v-7l1 1v-1-5a16 16 0 00-1-6v-1h1v-1a13 13 0 010-2l1-3a11 11 0 000-4l-1-1a2 2 0 010-1 16 16 0 010-2 2 2 0 010-2v-1a2 2 0 011-2l-1-3a5 5 0 010-3v-1l-1-3a4 4 0 011-1 5 5 0 000-3 3 3 0 010-2 7 7 0 000-5h1a5 5 0 01-1-2 12 12 0 000-2h1l1-4v-1l-3-9-5-9v-1h1l4 5a2 2 0 011-2 27 27 0 010-8v-1l1-8 1 2a3 3 0 011 0l2 1v4l-1 2v1a24 24 0 000 6 4 4 0 011 2 13 13 0 010 3v9-1a65 65 0 011 5l1 4-2-1a5 5 0 011 2h-1v1a2 2 0 01-1 1 9 9 0 010 6 3 3 0 00-1 1h1a8 8 0 01-1 4 2 2 0 000 1l1 2v2l2 7-1-1v3h-1v4a13 13 0 011 7 18 18 0 000 2h-1v1a16 16 0 001 2 2 2 0 010 1h-2v1a19 19 0 011 2v1a2 2 0 010 1v2a44 44 0 01-1 7v1a3 3 0 011 2 2 2 0 010 1 33 33 0 011 3v5a4 4 0 010 1v5a1 1 0 010 1l-1 1a31 31 0 010 3 3 3 0 011 1v2a4 4 0 01-1 0l-1 4v2l1 5v1l1 6v1h-1a37 37 0 001 4v2h-1zm-3-131zm3-14v1a2 2 0 001-1z"/><path class="s" d="M1137 801a3 3 0 01-3-1v-1h2a3 3 0 010-1v-1a15 15 0 010-3 22 22 0 01-1-5v-4a2 2 0 010-1v-1a12 12 0 010-5v-4a1 1 0 010-1v-3a3 3 0 010-2 20 20 0 010-4l-1-2-1-4h1v-1l-1-1h3l-1-4a2 2 0 010-1v-4a5 5 0 011-2v-6-2l-1-5a4 4 0 01-1-2l-1-6h1l1 2 1 1v-1l-1-2v-5-8-1a5 5 0 01-1-2l-1-1h1v-1l-1-2h1a8 8 0 000-3h1l2-1h-2-1v-1-1a2 2 0 011-1l-1-2v-1a1 1 0 011-1v-1-3a2 2 0 010-2l1-1v-1a26 26 0 000-6l-1-2a2 2 0 010-2v-1a8 8 0 011-1 4 4 0 000-2l-1-3a2 2 0 011 0 17 17 0 01-1-5v-1a3 3 0 01-1-1 15 15 0 01-1-2v-4l4 2a3 3 0 010 1h2a13 13 0 010 2 4 4 0 01-1 1l1 2 1 4v1a2 2 0 01-1 1v1a6 6 0 010 4 3 3 0 001 2v1h-1v1a27 27 0 011 6l-1 2v2a2 2 0 01-1 1l1 2a28 28 0 010 4v5h-1v8a17 17 0 011 2v4h-1l1 2a23 23 0 010 5v1a31 31 0 002 5v2h-2-1v2a40 40 0 012 8v1l1 4h-1a11 11 0 010 2h-1a6 6 0 001 2v2h-1a2 2 0 010 1v1a38 38 0 001 5l2 7h-1l-2-3v4a13 13 0 001 4l-1 1v3a17 17 0 010 4v1a11 11 0 000 6h1l-1 1a2 2 0 01-1 2 20 20 0 001 5 3 3 0 011 2 42 42 0 000 5h-1v1a2 2 0 01-2 1zm0-6a3 3 0 001 0 2 2 0 001-1zm0-49a2 2 0 001 0 3 3 0 001 0zm1-59a2 2 0 001 0zM1126 799h-3a3 3 0 012-3 16 16 0 010-2 6 6 0 00-1-3l4-2a2 2 0 00-2 0 2 2 0 00-2 1 4 4 0 000-1h-1l1-2v-1l1-6a15 15 0 010-2v-1l-1-2a34 34 0 010-7 5 5 0 000-1 2 2 0 002 1 2 2 0 002-1h-4a11 11 0 000-3l1-2a16 16 0 00-1-5 2 2 0 010-2v-1a12 12 0 01-1-2l3-1a22 22 0 00-1-5 2 2 0 01-1-1v-1a36 36 0 01-1-3 1 1 0 011-1v-4 1a6 6 0 010-2 2 2 0 001-1 1 1 0 01-1-1v-1l1-5h-1v-1a4 4 0 011-3 16 16 0 00-1-6 20 20 0 01-1-2l2-1a10 10 0 010-2 21 21 0 00-1-5h-1l1-3v-1a5 5 0 011-2 14 14 0 01-1-2 13 13 0 011-4 3 3 0 010-3 20 20 0 000-5l-2-5 2 1a10 10 0 010-3v-2-2a7 7 0 010-3 4 4 0 010-1 33 33 0 010-6v-1l-1-3a49 49 0 010-5h1a5 5 0 000-1l4-1-1 4v4l1 3v11l1 4h-2l1 4v1a2 2 0 010 1 12 12 0 010 3v6a2 2 0 01-1 1 16 16 0 000 3 4 4 0 011 1h1l-1 1a2 2 0 01-1 1v1a3 3 0 010 2 23 23 0 011 6v2c1 0 1 4-1 5a33 33 0 010 7 2 2 0 001 1l-1 1v4a4 4 0 010 4 5 5 0 000 3 4 4 0 01-1 4l1 1a20 20 0 011 5v5a3 3 0 01-1 1 3 3 0 01-1 2 16 16 0 012 4v4h-1a11 11 0 010 2 5 5 0 010 1 13 13 0 010 2 2 2 0 010 1v4a1 1 0 011 1v2a10 10 0 000 3l3 6-4-3v2a2 2 0 010 1v4a8 8 0 010 3 12 12 0 001 3l1 7zm0-67a2 2 0 00-1 0h2a3 3 0 00-1 0zm1-76a2 2 0 00-1 0zM1118 797a2 2 0 01-1 1v5a3 3 0 01-2 1 2 2 0 01-2-2h1a9 9 0 00-1-4l-4-10v-1l4 6 1-1a2 2 0 011-1l-1-2a14 14 0 00-1-5 1 1 0 01-1 0l2-1v-1a2 2 0 00-1 1 7 7 0 010-3l-4 1 6-4a10 10 0 001-3 37 37 0 00-2-5 2 2 0 010-1 12 12 0 010-1v-1h1a6 6 0 000-1h-1a4 4 0 010-1 11 11 0 000-3v-2-3a955 955 0 011-8l-1-2v-1a5 5 0 010-1v-3-2a1 1 0 010-1 4 4 0 010-3 2 2 0 010-2 2 2 0 011 0v-1l-1-2v-3-4a2 2 0 010-1v-3a3 3 0 010-1v-1a2 2 0 011-2v-2-5-4a1 1 0 01-1 0v-2l-1-3h1l1-1a1 1 0 00-1 0 3 3 0 011-1 6 6 0 010-4 15 15 0 00-1-3l-2-3h3a40 40 0 00-1-6 1 1 0 010-1v-1h1v-1l-1-5v-1a1 1 0 010-1l1-1a5 5 0 010-2 2 2 0 000-2 4 4 0 010-2l-1-3v-1a2 2 0 003-1h-3v-1a2 2 0 012-1 2 2 0 012 2v3l1 3a4 4 0 010 3v4l-1 1 1 4-1 6v6a16 16 0 011 3v4a4 4 0 000 1l-2 1a1 1 0 001 0 2 2 0 01-1 1l1 3a34 34 0 011 4v10a2 2 0 01-1 1v1l2 8-2-2v6a49 49 0 002 5l-1 1h-2a1 1 0 001 0 1 1 0 00-1 1h1v7a1 1 0 010 1l1 5v1a1 1 0 01-1 2h-1a7 7 0 000 2 27 27 0 011 3 1 1 0 010 1v2a13 13 0 010 3 2 2 0 010 1 16 16 0 010 2 5 5 0 010 1l1 4v3a9 9 0 01-1 2v1a11 11 0 01-1 3l-1 2a15 15 0 012 5 23 23 0 001 4l4 10h-1l-4-5zm-3 4a2 2 0 00-1 1l2-1a3 3 0 00-1 0zm0-36a2 2 0 001 1 2 2 0 002-1z"/><path class="s" d="M1107 796a2 2 0 01-2-1l-1-3h1l-1-5-1-2a3 3 0 010-1h1v-1a3 3 0 01-1 0v-2a3 3 0 011 0 13 13 0 00-1-6h-1l4-1a2 2 0 00-1-1 2 2 0 00-1 1 6 6 0 000-1 6 6 0 011-1c-2-2-1-3-1-3a10 10 0 000-3 13 13 0 010-2h1v-1-2a3 3 0 01-1-1v-2l-1-5v-1h1v-1a1 1 0 00-1 1 2 2 0 001-1l-1-3v-4l-1-1-1-5 3 2-1-6v-3l-2-3 2 1 1-1a2 2 0 010-1v-1a4 4 0 011-1v-3-1a96 96 0 01-1-5 2 2 0 010-1v-5a16 16 0 010-2 17 17 0 00-1-6l-3-8h1l2 3h1a1 1 0 010-1 24 24 0 000-3 3 3 0 01-1-2l-1-3 2 1v-1-1a20 20 0 00-1-7l1-1v-2a31 31 0 010-4v-3-3-3a8 8 0 010-4 5 5 0 000-2c-1-3-1-4 1-5a3 3 0 013 1 1 1 0 010 1v2a1 1 0 010 1 9 9 0 010 2 6 6 0 000 4l4 6v1h-1l-3-3v1a10 10 0 010 2l-1 2v2h1v6a2 2 0 010 2 20 20 0 010 4 9 9 0 001 2v1h-1v1a7 7 0 01-1 1 17 17 0 011 2v4a2 2 0 01-1 1h1a5 5 0 000 2 3 3 0 01-1 2 19 19 0 011 4 9 9 0 000 4v1h-1a19 19 0 001 3l-1 1a67 67 0 003 6l1 5v1l-2-2v1h-1a5 5 0 010 1 4 4 0 01-1 3 8 8 0 010 3 2 2 0 010 1 75 75 0 001 7 1 1 0 010 2 3 3 0 01-1 2v5l1 2h-1v1l1 5h1v4l-1 2v1a12 12 0 01-1 4 12 12 0 001 2h1v1h-1v1a7 7 0 01-1 1 15 15 0 011 4v4a6 6 0 01-1 1 2 2 0 010 1l1 1 1 5v3a2 2 0 01-2 2zm-3-12h1zm2-14h1zm-2 0a1 1 0 000 1l1-1h-1zm2-7h1-1zm0-4h1a3 3 0 00-1 0zm-1-43a3 3 0 001 0 3 3 0 001 0zm1-19a2 2 0 00-1 1 3 3 0 001 0 2 2 0 001-1zm-1-40a2 2 0 00-1 1h1zm2-1h1-1zM1230 808v-3a2 2 0 011-2v-1-11a12 12 0 01-1-4l1-2a1 1 0 01-1-1v-3l1-2a2 2 0 01-2-3 2 2 0 012-1l-1-6-1-1h1a7 7 0 010-3 3 3 0 010-1 7 7 0 010-1 1 1 0 010-1l1-4-1-2a2 2 0 010-1v-7h1a4 4 0 011-2l-1-3a4 4 0 01-1 0v-1l1-2a3 3 0 011 0v-1c-2-5-2-9-2-11l1-4-1-5v-3a1 1 0 01-1-1h1a7 7 0 010-1v-8a2 2 0 010-1 3 3 0 010-1v-1a17 17 0 000-3 11 11 0 01-1-5 4 4 0 010-1v-1a2 2 0 011 0v-2-3a8 8 0 010-3 2 2 0 011-2l-1-8v-2a2 2 0 011-1l-1-5a2 2 0 000-1v-3l3-2v3c2 5 2 9 2 11v9l5 9-6-6v1-1a29 29 0 000 3v2h-1v1a4 4 0 010 2 11 11 0 001 4v6a6 6 0 010 2l1 7-2-2 1 1a4 4 0 010 2h-1l1 4v3a2 2 0 001 2 1 1 0 010 2 2 2 0 01-1 0v6a18 18 0 001 5h1v11l-1-2a7 7 0 010 2l-1 4h1l-1 4v8a4 4 0 010 1 6 6 0 000 3 3 3 0 010 1l1 6v4a3 3 0 01-1 1v2a22 22 0 010 5l1 5 5 7-6-4 2 6h-1v5l-1 1zm1-60h1a2 2 0 00-1 0zm2 0h-1a2 2 0 001 0zm-3-33v-1a2 2 0 000 1zM1221 804a2 2 0 01-1 0h-1a14 14 0 01-1-1 1 1 0 011-2l-1-3a3 3 0 011-2l-2-7h1a1 1 0 010-1v-3l-1-1v-1a1 1 0 011-1l1-5v-1a29 29 0 000-4 1 1 0 010-1v-1-3h-2l2-2a31 31 0 00-1-7 2 2 0 010-1v-1h-1v-7l1 2v-6l-1-7 1-1a13 13 0 010-2l1-3a11 11 0 00-1-5 2 2 0 010-2 18 18 0 010-1 2 2 0 010-2v-2a2 2 0 011-1 31 31 0 01-1-3 5 5 0 010-3v-2l-1-2a4 4 0 011-1 6 6 0 000-3v-3a7 7 0 000-4 5 5 0 010-2 11 11 0 000-2l1-1c0-1-1-3 1-4h-1a35 35 0 00-2-10l-5-10 5 6a1 1 0 010-1 2 2 0 011-2 26 26 0 010-7v-10l2 3 2 1 1 1h-1v3l-1 2a25 25 0 001 7 4 4 0 011 1 13 13 0 010 4v10l-1-3 1 4v2l2 4-2-1a5 5 0 011 2h-1a2 2 0 01-1 1v1a9 9 0 010 5l-1 1 1 1a8 8 0 01-1 4 2 2 0 000 1v1a24 24 0 011 3l2 8-2-3 1 4h-1l-1 3h1a13 13 0 011 8 18 18 0 00-1 2 15 15 0 001 3l-2 1a18 18 0 010 3v1a2 2 0 011 1v2a44 44 0 01-1 7v1l1 2a4 4 0 010 1 36 36 0 010 3v6l1 2v3a1 1 0 01-1 1 32 32 0 010 4 3 3 0 011 1v1h-1a4 4 0 01-1 1 36 36 0 000 4v2l1 5-1 1 2 6h-1a38 38 0 000 5h1l-1 2zm-4-130h1v-1a2 2 0 00-1 1zm4-14v1a2 2 0 001-1z"/><path class="s" d="M1210 807a3 3 0 01-3-2h1a3 3 0 011-1v-1a14 14 0 010-3 20 20 0 01-2-5v-4a2 2 0 011-1 12 12 0 010-6v-3a1 1 0 010-2v-3a3 3 0 010-2 20 20 0 010-4l-1-2-1-4h1v-1l-1-1h3l-1-4a2 2 0 010-1v-3a5 5 0 011-3v-6-2 1l-1-6a3 3 0 01-1-2l-1-6 2 3a3 3 0 011-1l-1-2v-4-9l-1-1a4 4 0 01-1-2v-1h1l-1-3h1a7 7 0 000-3l2-1h-1a1 1 0 00-1 1v-2-1a2 2 0 011-1l-1-2v-1a1 1 0 011-1v-1-3a2 2 0 010-2v-1a4 4 0 011 0v-1a25 25 0 00-1-6v-2a2 2 0 010-2 6 6 0 011-1 4 4 0 000-3l-1-3a2 2 0 011 0 15 15 0 01-1-4l-1-2a3 3 0 010-1 15 15 0 01-1-2l-1-4 4 3a3 3 0 011 0h2a12 12 0 010 2 5 5 0 01-1 1v2l2 5v1a2 2 0 01-1 1 6 6 0 010 4 3 3 0 001 3h-1v1a27 27 0 010 7v1a5 5 0 010 1v2a2 2 0 01-1 0v2a30 30 0 010 4v2l1 3h-1v1l-1 4v1l1 2v2l1 3-1 1v2a22 22 0 011 5v1a33 33 0 001 5l1 2h-3v1a3 3 0 010 1 40 40 0 012 8v1l1 5-2-1a11 11 0 011 2h-1a6 6 0 000 3l1 1h-2a2 2 0 011 1v1a38 38 0 001 5l2 8-3-4v5a13 13 0 001 4h-1v3a17 17 0 010 4v1a11 11 0 000 6l1 1h-1v1a2 2 0 01-1 1 20 20 0 001 6 3 3 0 011 1h-1a39 39 0 001 5l-1 1a3 3 0 01-2 1zm0-6a2 2 0 001 0 2 2 0 001-1zm-1-49a2 2 0 001 0 2 2 0 001 0zm2-59a3 3 0 001 0zM1199 804l-3 1a3 3 0 012-3 16 16 0 010-3 6 6 0 00-1-3l4-1a2 2 0 00-2 0 2 2 0 00-1 1 4 4 0 000-2h-2l1-1v-1l1-6a16 16 0 010-2v-1l-1-3a34 34 0 010-6 5 5 0 000-1 2 2 0 002 1 2 2 0 002-1h-4a11 11 0 000-3l1-3a16 16 0 00-1-4 2 2 0 010-2v-1a12 12 0 01-1-3h3a23 23 0 00-1-5 2 2 0 01-1-1v-1l-1-2v-1a1 1 0 011-1v-4a6 6 0 010-1 2 2 0 001-1 1 1 0 01-1-1v-1l1-5v-1h-1a4 4 0 011-3 16 16 0 00-1-6 21 21 0 01-1-2l2-1a9 9 0 010-2 21 21 0 00-1-5 1 1 0 010-1l-1 1 1-3v-1a5 5 0 011-3 15 15 0 01-1-2 13 13 0 011-3v-1a3 3 0 010-2 20 20 0 000-5l-2-6 2 2a10 10 0 010-4v-1-2a7 7 0 010-3 4 4 0 010-1 33 33 0 010-6v-1l-1-3a50 50 0 010-6h1a7 7 0 000-1h4l-1 3v4l1 4v4a4 4 0 000 1v2a1 1 0 000 1v2l1 5h-2l1 4v1a11 11 0 010 4v5a2 2 0 01-1 2 18 18 0 000 3 4 4 0 011 0v1a2 2 0 01-1 2v1a3 3 0 010 2 23 23 0 011 6 5 5 0 000 1v1s1 3-1 5a33 33 0 010 7l1 1h-1v5a4 4 0 010 3 6 6 0 000 3 4 4 0 01-1 5l1 1a20 20 0 011 5v4a3 3 0 01-1 2 3 3 0 01-1 1 16 16 0 011 4v5a9 9 0 010 1 4 4 0 010 2 13 13 0 010 2 2 2 0 010 1v4a1 1 0 011 1v2a9 9 0 000 3l2 6-3-3-1 2a2 2 0 011 1v3a8 8 0 010 3 12 12 0 001 4l1 7zm0-67a2 2 0 00-1 1l2-1a3 3 0 00-1 0zm1-75z"/><path class="s" d="M1191 795h-1a2 2 0 010 1v6a3 3 0 01-3 0 2 2 0 01-1-2h1a8 8 0 00-1-4l-5-12 5 7a2 2 0 011-2v-2a14 14 0 00-2-5l2-1v-1a2 2 0 00-2 2v-1l1-3-6 2 7-5a10 10 0 001-3 38 38 0 00-1-5 2 2 0 010-1 11 11 0 01-1-1l1-1a9 9 0 000-1 11 11 0 000-4v-2l-1-2v-1c0-2 0-4 2-5l-1-3v-2-1a5 5 0 010-1v-3-2a1 1 0 01-1-1 4 4 0 011-3 2 2 0 010-2v-6-3-2-2a3 3 0 010-2 2 2 0 011-2l-1-2v-6h1l-1-3a1 1 0 010-1v-2l-1-3h2a2 2 0 010-1 2 2 0 00-1 1 3 3 0 010-2 6 6 0 011-3 14 14 0 00-1-4l-3-3 3 1a38 38 0 000-6 1 1 0 01-1-2v-1h1l-1-6v-1a1 1 0 011-1 5 5 0 011-3 2 2 0 000-2 4 4 0 01-1-2v-3l-1-2a2 2 0 002 1 2 2 0 002-1h-4a2 2 0 012-1 2 2 0 012 1v2l1 2v2a4 4 0 010 4v4h-1l1 5v6l-1 6a15 15 0 011 2v4a4 4 0 000 1l-1 1h-1 1v1a1 1 0 000-1 2 2 0 000 1 2 2 0 010 1v2a34 34 0 011 5v5-1 5a2 2 0 01-1 2l3 10-2-4a2 2 0 01-1 1v6a52 52 0 002 5l-2 1v4l1 3a2 2 0 010 1v7l-1 1a7 7 0 000 3 24 24 0 010 3l1 2a13 13 0 010 4 18 18 0 010 2 4 4 0 01-1 2l2 3-1 4a9 9 0 01-1 2 10 10 0 010 3l-1 3a16 16 0 011 4 23 23 0 001 5l5 11zm-3 5a2 2 0 00-1 0h2a2 2 0 00-1 0zm-1-36a2 2 0 002 0 2 2 0 002 0z"/><path class="s" d="M1180 802a2 2 0 01-3-1v-3h1a290 290 0 00-2-7 4 4 0 010-1h1v-1a3 3 0 01-1 0l-1-1h1a3 3 0 011-1 13 13 0 00-2-6l3-1a2 2 0 00-2 0 7 7 0 001-1v-4a10 10 0 000-3 14 14 0 010-2h1v-3a3 3 0 01-1-1v-2l-1-5-1-1h1v-1a1 1 0 000 1 2 2 0 000-1v-3a73 73 0 00-1-5l-2-6 4 4-1-7v-3l-3-3h3a2 2 0 011-1v-1a4 4 0 010-1l1-4a78 78 0 01-2-5 2 2 0 011-2v-4a13 13 0 010-3 18 18 0 00-1-5l-4-9 5 5a5 5 0 010-1 1 1 0 010-1 22 22 0 000-3 3 3 0 01-1-2l-1-4 2 2a14 14 0 010-2 20 20 0 00-1-8h1v-2a32 32 0 010-4v-3-3-3a8 8 0 010-4 6 6 0 000-2c-1-3-1-4 1-5a2 2 0 013 1v3a1 1 0 010 1 8 8 0 010 2 6 6 0 000 4l4 8-4-4a13 13 0 010 3l-1 1v3h1v6a2 2 0 010 2 19 19 0 010 3 9 9 0 000 3l1 1h-1v1a7 7 0 01-1 1 18 18 0 011 2v4a2 2 0 01-1 1h1a5 5 0 00-1 2 3 3 0 010 2 19 19 0 010 4 9 9 0 002 5h-2a18 18 0 001 3h-1a64 64 0 002 7l3 6-3-2-1 1a6 6 0 010 1l-1 3a8 8 0 010 3 2 2 0 010 1 72 72 0 001 7 1 1 0 01-1 2 3 3 0 01-1 2l1 2v2l1 3h-1l1 6h1l-1 4v3a12 12 0 01-1 4 11 11 0 001 2l1 1h-1l-1 1a6 6 0 01-1 1 15 15 0 012 4l-1 4a6 6 0 010 2v1l1 5v2h1a1 1 0 01-1 1v1a2 2 0 01-1 2zm-3-12zm2-14v1a2 2 0 001-1zm-3 0a1 1 0 001 1l1-1zm3-7zm0-4h1a3 3 0 00-1 0zm-1-43a3 3 0 001 0zm1-19a2 2 0 00-1 1 2 2 0 001 0 2 2 0 001 0 2 2 0 00-1-1zm-1-40a2 2 0 00-1 1h1zm2-1z"/><path class="t" d="M126 272l1-2h1l3 1 2 1v2l-7-2z"/><path class="u" d="M150 278l1-2h1l3 1h2v3l-7-2zM177 286l1-3h1l4 1 2 1-1 3-7-2z"/><path class="t" d="M197 315l2 1v2l-1 3-1 2-2-1 2-7z"/><path stroke-width="1.3" stroke="#1d150c" fill="#3f2b0f" stroke-miterlimit="10" d="M190 341l3 1-1 2-1 4v2l-3-1 2-8z"/><path class="u" d="M183 368l2 1v1l-1 4v2l-3-1 2-7z"/><path class="t" d="M81 346l-2-1 1-1 1-4v-2l2 1-2 7z"/><path class="u" d="M88 322l-3-1v-1l1-4 1-2 3 1-2 7zM95 295l-2-1v-2l1-3v-2l3 1-2 7z"/><path stroke-width="1.4" stroke="#1d150c" fill="#3f2b0f" stroke-miterlimit="10" d="M155 387l-2 4h-1l-4-1-2-1 1-4 8 2z"/><path class="u" d="M129 381l-1 3-1-1-4-1h-2l1-3 7 2zM104 374l-1 2h-2l-3-1-2-1 1-2 7 2z"/><path class="x" d="M78 365l-1 2 1 1h3l1 1h3l1-1 2-4-5-2-5 3z"/><path class="x" d="M87 365v1l-1 2v2l4 1 3 1h1l2-1v-4a14 14 0 000-1l-8-2zM105 369v2l-1 1v2l1 1h2l2 1 2 1 2-1h1l1-5-8-2h-2z"/><path class="x" d="M96 367l-1 3v2h1l2 1h2l1 1h2l1-1 1-5-7-2-2 1zM132 377l-1 2v2l1 1 6 2v-1h1v-3l1-1-6-4-2 2z"/><path class="x" d="M122 374l-1 4v1l2 1 2 1h5l1-1v-1l1-3-7-3-3 1z"/><path class="x" d="M114 372v2l-1 2v1l2 1h1l2 1h2a9 9 0 001-1l1-4-3-2zM147 381l-1 3v2h2l1 1 3 1h2l1-1h1v-2l1-2-7-3-3 1z"/><path class="x" d="M157 383l-2 4 1 1 1 1h2l2 1 4 1h4l1-1v-1l1-3-10-3h-4zM139 378v2l-1 2v1l2 1 1 1h2l2 1a13 13 0 001-2l1-4-3-1z"/><path class="y" d="M175 393h-1l-1-1h-3l-1-1 1-2v-3h2z"/><path class="x" d="M89 360v2l-1 3h1l3 1h1l2 1h1l1-1 1-5-7-2-2 1z"/><path class="x" d="M98 362l-1 2v3l3 2 4 1 1-1h2v-4a14 14 0 00-1-2l-8-2zM128 371l-1 1v3l2 1 8 2h1v-3l2-2-9-4-3 2z"/><path class="x" d="M116 366l-2 5 1 1 1 1h1l2 1 4 1h3l1-1v-1l1-3-8-3-4-1z"/><path class="x" d="M107 363l-1 3-1 2 1 1 2 1h1l2 1 3 1a7 7 0 001-2l1-4-4-1zM84 362v2h3l1 1 1-1 1-4-1-1-5 3zM147 375l-1 1v2l-1 1 1 1 3 1 1 1 3 1 2-1h1l1-5-9-2h-1z"/><path class="x" d="M157 378l-1 2-1 2 1 1h1l3 1h1l1 1h5l1-5-8-3-3 1zM138 373l-1 2v3l3 1h2l1 1h1l2-1 1-5-7-3-2 2z"/><path class="x" d="M171 386h-2-3v-5l1-1h1zM95 356v2l-1 3h1l3 1h1l2 1h1l1-1 1-5-7-2-2 1z"/><path class="x" d="M104 358l-1 1v4l3 1 4 1h1l2-1v-3a14 14 0 00-1-2l-8-2zM134 366l-1 2v3l2 1 6 2 1-1h1v-3l1-1-7-4-3 1z"/><path class="x" d="M122 363l-2 4 1 1 1 1h1l2 1 4 1h3l1-1v-1l1-3-8-3h-4z"/><path class="x" d="M113 361a13 13 0 01-1 1l-1 2 1 1 2 1h1l2 1 3 1a7 7 0 001-2v-3l-3-2zM163 375l-1 2v2h-1l-2-1a6 6 0 01-1 0 5 5 0 00-1 0h-1l-1-1a6 6 0 01-1-1l1-4 5-1z"/><path class="x" d="M142 373l1 1 2 1 3 1 3 1h3v-1l1-4-6-3-5-1-1 2-1 3zM168 380h-2l-2-1h-2v-2l1-3 2-1 4 6-1 1zM90 358v2h3l1 1v-1h1l1-5h-1l-5 3zM97 354v3h3l2 1h4l1-5-5-2-5 3z"/><path class="x" d="M107 354l-1 1v2l-1 1 1 1 3 1 4 1h1l2-1v-4a14 14 0 00-1-1l-8-2zM124 358v3l-1 2 1 1 3 1h1l3 1h1l1-1 2-4-9-3h-2z"/><path class="x" d="M116 356l-1 3v3h3l1 1h3l2-1 1-4-7-3-2 1zM164 374l-1 1-2-1h-2v-5l1-1 1-1 4 7z"/><path class="x" d="M152 366l-1 2-1 2v1h2l5 2 1-1h1v-3l1-1-6-4-2 2z"/><path class="x" d="M141 363l-1 4 1 1v1h1l2 1h6v-1l1-1 1-3-7-3-4 1z"/><path class="x" d="M134 361l-1 2-1 2 1 1 2 1 2 1 2 1 1-1a11 11 0 000-1l1-4-3-2zM118 351v2l-1 1v2l1 1 2 1h2l2 1h2l1-1 1-4-8-3h-2z"/><path class="x" d="M128 354l-1 2-1 2 1 1h1l3 1 1 1h1l3 1h1l1-1 1-5-8-3-3 1z"/><path class="x" d="M138 357v2l-1 3h1l3 1h1l2 1h1l1-1 2-5-8-2-2 1zM109 349l-1 3v2l1 1h2l2 1h3l1-1 1-4-7-3-2 1z"/><path class="x" d="M147 359v2l-1 1v2l4 1 3 1h3v-4a16 16 0 000-2l-8-2z"/><path class="x" d="M161 368h-1l-1-1h-3l-1-1 1-2v-3h2zM103 351v2h1l2 1h2l1-1 1-5h-1l-6 3z"/><path class="x" d="M109 348l1 1 2 1h4l1-5-1-1-7 4z"/><path class="x" d="M117 345l-1 2v1l-1 2 1 1h2l1 1 2 1 1-1h1l2-5-7-2h-1z"/><path class="x" d="M124 348l-1 2v2l1 1 3 1h3l2 1h2l2-6-9-2-3 1z"/><path class="x" d="M135 350l-1 3v3h3l1 1h3l2-1 1-4-7-3-2 1z"/><path class="x" d="M143 352v2l-1 2v2l4 1 4 1h1l1-1 1-4a14 14 0 00-1-2l-8-1z"/><path class="x" d="M157 361h-2l-2-1h-1v-6h2z"/><path class="x" d="M153 355h-1l-2-1h-2v-4l1-1 1-2 4 7z"/><path class="x" d="M141 347l-1 2-1 1v1l2 1 5 1h2v-3l1-1-6-4-2 2z"/><path class="x" d="M130 344l-1 4v1h1l1 1h2l3 1h3v-1l1-1 1-3-7-3-4 1z"/><path class="x" d="M123 342l-1 1-1 3 1 1 1 1h1l2 1h3a11 11 0 000-1l1-4-3-2z"/><path class="x" d="M116 344v1l2 1 2 1h1v-1l1-3 1-1-1-2-6 4zM144 343v2l-1 2-1 1-2-1a5 5 0 01-1 0 5 5 0 00-1-1h-2v-1a5 5 0 01-1-1l2-4h4z"/><path class="x" d="M127 342v1l2 1 2 1h2l1 1 1-1v-1l2-4-5-2h-3l-1 2-1 2zM122 340v2h3l1 1 1-1 1-4-1-1-5 3zM149 348l-1 1h-1l-2-1-1-1-1-1 1-3 2-1 4 5-1 1z"/><path class="x" d="M142 341l-2 1h-2l-2-1-2-1-1-1v-1l1-3 1-1 8 3z"/><path class="x" d="M133 338l-1 1h-2l-2-1-1-1 7-4v2l-1 3zM146 342l-1 2-3-2h-1v-1l1-2v-2l1-1 3 6z"/><path class="x" d="M143 336l-1 1-3-1-1-1 1-2v-3l3 3 1 3z"/><path class="x" d="M134 334v1l3 1h1v-1l1-4v-1l-5 3v1zM202 294v-2h-1l-2-1h-2l-1-1h-2l-1 1-1 4 5 2 5-3z"/><path class="x" d="M192 295l1-2v-3l-3-1-4-1h-3v4a14 14 0 001 2l8 2zM174 290l1-1v-2l1-1-1-1-3-1-1-1-3-1-1 1h-2l-1 5 9 2h1z"/><path class="x" d="M183 292l1-2v-3l-3-1h-1l-2-1h-1l-2 1-1 5 7 3 2-2zM147 283l1-2v-3l-1-1-5-1h-2v3l-1 2 6 3 2-1z"/><path class="x" d="M158 285l1-4-1-1-2-1h-1l-3-1h-3l-1 1v1l-1 3 7 3 4-1z"/><path class="x" d="M165 287l1-1v-4l-2-1h-1l-1-1h-3a10 10 0 000 1l-1 4 3 2zM133 279l1-4-1-1v-1h-2l-1-1h-6v1l-1 1-1 3 7 3 4-1z"/><path class="x" d="M123 276l1-4-1-1h-1l-2-1-2-1-4-1h-4v1l-1 1-1 3 10 4 5-1zM140 281l1-2v-3l-2-1h-1l-2-1-1-1-1 1a9 9 0 000 1l-1 4 3 2z"/><path class="y" d="M104 267l1-1 2 1h2l1 1-1 2v3h-1z"/><path class="x" d="M190 299l1-2v-3l-3-1h-2l-1-1h-1l-2 1-1 5 7 3 2-2z"/><path class="x" d="M182 297v-3l1-1v-1l-4-1-4-1h-1l-1 1-1 3a15 15 0 001 2l8 2zM151 289l1-2 1-2v-1l-2-1-8-2-1 1h-1v2l-1 2 8 4 3-1z"/><path class="x" d="M164 294l1-6-1-1-2-1-2-1-3-1h-2l-2 1-1 2-1 2 9 4 4 1z"/><path class="x" d="M172 296l1-3 1-2-1-1-2-1h-1l-2-1-2-1h-1a9 9 0 000 2l-1 5h4zM196 297l-1-1-1-1h-4l-1 5h1l6-3zM133 284v-2l1-2-1-1-3-1-1-1h-5l-2 5 9 3 2-1z"/><path class="x" d="M123 282l1-3v-2l-1-1-3-1h-3l-2-1h-2l-2 6 8 3 4-1zM141 287l1-3v-3h-3l-1-1h-5l-1 5 7 3 2-1z"/><path class="x" d="M108 273h4l1 1h1l-1 2v3l-2 1zM184 303l1-2v-3h-3l-2-1h-4l-1 5 7 3 2-2z"/><path class="x" d="M176 301v-3l1-1v-1l-4-1-4-1h-1l-1 1-1 3a14 14 0 001 2l8 2zM145 293l1-2 1-2v-1l-2-1-7-1h-1l-1 3-1 2 8 3 2-1z"/><path class="x" d="M158 296l1-4-1-1-2-1-2-1-3-1h-2l-2 1-1 2-1 3 9 3 4-1z"/><path class="x" d="M167 299a14 14 0 010-2l1-2-1-1-2-1h-1l-2-1-2-1-1 1a8 8 0 000 1l-1 3 3 2zM116 285l1-3v-1l1-1 2 1a6 6 0 012 0 5 5 0 001 0v1h2a6 6 0 010 1l-1 4-5 1z"/><path class="x" d="M137 287l-1-2-2-1-3-1h-2l-2-1h-1l-1 1-1 4 6 3 5 1 1-2 1-2zM111 280l1-1h2l2 1h1v2l-1 3-1 1-4-6zM190 301l-1-1-1-1h-3l-1 1-1 4h1l6-3zM182 305v-3h-3l-1-1h-3l-2 1-1 4 5 2 5-3z"/><path class="x" d="M173 306v-2l1-2v-2l-4-1-4-1h-1l-1 1-1 4a15 15 0 001 2l8 1zM155 301v-2l1-1v-2l-1-1h-3l-1-1-3-1-1 1h-1l-2 5 9 2h2z"/><path class="x" d="M164 303v-2l1-3h-1l-3-1h-1l-2-1h-1l-1 1-1 5 7 2 2-1zM115 285h3l2 1h1v2l-1 2v1l-1 2-5-7z"/><path class="x" d="M128 293v-2l1-1v-1l-1-1-6-1h-1l-1 3-1 1 6 4 3-2z"/><path class="x" d="M138 296l1-4v-1h-1l-1-1h-2l-3-1h-3v2l-1 3 7 3 3-1z"/><path class="x" d="M146 298v-1l1-3v-1l-2-1h-1l-2-1h-2a11 11 0 00-1 1l-1 4 3 2zM161 308l1-2v-1l1-2-1-1h-3l-1-1-3-1-1 1h-2l-1 5 9 2h1z"/><path class="x" d="M152 305v-2l1-2v-1h-2l-2-1h-1l-2-1-2-1h-1l-2 1-1 5 8 3 4-1z"/><path class="x" d="M141 302l1-2v-3h-1l-2-1h-2l-1-1h-2l-1 1-1 5 7 3 2-2zM170 310l1-2v-3l-3-1h-1l-2-1h-1l-2 1-1 5 7 2 2-1z"/><path class="x" d="M132 300l1-1v-4l-3-1-4-1h-1l-2 1v3a14 14 0 001 2l8 2z"/><path class="x" d="M119 292h5v3l-1 2v1h-1zM177 308l-1-2h-2l-2-1-1 1-2 5 2 1 6-4z"/><path class="x" d="M170 311v-1h-3l-2-1-1 1-2 4 1 2 7-5z"/><path class="x" d="M163 314v-2l1-1v-2h-1l-2-1-1-1h-3l-1 1-1 4 6 2h2z"/><path class="x" d="M155 312l1-2 1-2-1-1-1-1h-3l-1-1h-1l-3-1-2 1-1 5 8 3 3-1z"/><path class="x" d="M145 309v-2l1-3h-1l-3-1h-1l-2-1h-1l-1 1-2 5 8 2 2-1z"/><path class="x" d="M136 307v-2l1-1v-2l-3-1-4-1h-3v4a16 16 0 000 2l8 2z"/><path class="x" d="M122 298h1l2 1h2l1 1-1 2v3h-1z"/><path class="x" d="M126 305l1-1 3 1h1l1 1v1l-1 2v1l-1 2-4-7z"/><path class="x" d="M139 313l1-2v-3l-1-1-6-1h-1l-1 3-1 2 6 3 3-1z"/><path class="x" d="M149 315l1-3v-1l-1-1h-1l-2-1-3-1h-1l-1 1h-1v1l-1 3 7 3 3-1z"/><path class="x" d="M157 318v-2l1-2v-2h-2l-1-1h-2l-2-1a9 9 0 00-1 2l-1 3 3 2z"/><path class="x" d="M164 315v-1l-2-1h-3v-1h-1v2l-1 2v3l7-4zM135 316l1-2v-2h3a6 6 0 011 1 5 5 0 001 0h2l1 1a5 5 0 010 1l-1 4h-5z"/><path class="x" d="M152 317v-1l-2-1h-2l-2-1h-2v1l-1 4 4 2 4 1 1-2v-3z"/><path class="x" d="M157 319v-2h-2l-1-1-1 1h-1l-1 5h1l5-3zM130 311l1-1h1l2 1 2 1v2l-1 2-2 1-3-5v-1zM138 319l1-1 2-1 2 1 3 1v1l1 1-1 4-2 1-8-4z"/><path class="x" d="M146 321l1-1h2l2 1 1 1-7 4 1-2v-3zM133 317l2-1 2 1h1v4l-1 2h-1l-3-5v-1z"/><path class="x" d="M136 323l1-1 4 1v3l-1 3-2-3-2-3z"/><path class="x" d="M146 325l-1-1h-3v-1l-1 2v3l-1 1 6-3v-1zM174 392h3l1-3v-2l1-1v-1l-1-2-5-1-2 5 3 5z"/><path class="x" d="M174 383h3l1 1h1l1-4 1-4v-2l-4-1a15 15 0 00-2 1l-2 8zM179 365h3l1 1 1-1 1-3 1-1v-5l-5-2-2 9v2z"/><path class="x" d="M177 373l2 1 2 1 1-1 1-3v-1l1-2v-1l-1-2-5-1-3 7 2 2zM186 337l2 1 2 1h1l1-2 1-5v-2h-3l-2-1-3 6 1 2z"/><path class="x" d="M184 348l4 1h1v-2l1-2 1-3v-1l-1-2-2-1-2-1-3 7 1 4z"/><path class="x" d="M182 355l1 1 2 1 2-1v-1l1-1v-2l1-2v-1a11 11 0 00-2 0l-3-1-2 3zM190 323l4 1h1v-1l1-1v-2l1-3v-3h-1l-1-1-3-1-3 7 1 4z"/><path class="x" d="M193 313l4 1 1-1 1-2 1-3 1-4v-4h-1l-1-1-3-1-4 10 1 5zM188 330l2 1 2 1 1-1 1-1v-1l1-2v-2-1a11 11 0 00-1 0l-4-1-2 3z"/><path class="y" d="M202 295v5h-5l-1-1-1-1z"/><path class="x" d="M170 380l2 1h3v-3l1-1v-5l-5-1-3 7 2 2z"/><path class="x" d="M172 372h1l2 1h2l1-4 1-4v-1l-1-1-3-1a16 16 0 00-2 1l-2 8zM180 341l2 1 2 1h1l1-2 2-8-1-1v-1h-3l-1-1-4 8 1 3z"/><path class="x" d="M175 354l6 1 1-1 1-2 1-2 1-3v-2l-1-2-2-1-2-1-4 9-1 4z"/><path class="x" d="M173 362l3 2h3l1-2v-2l1-2 1-2-1-1a8 8 0 00-1 0l-5-1v4zM172 386l1-1 1-1v-3h-1l-4-2v1l3 6zM185 323h1l1 1h2l1-1 1-3 1-1v-4l-1-1-4-2-3 9 1 2z"/><path class="x" d="M187 313l2 1h3l1-1 1-3v-3l1-2v-1l-1-1-5-2-3 9 1 3zM182 332h3l2 1 1-1v-3l1-1v-3l-1-1-4-2-3 8 1 2z"/><path class="x" d="M196 298v3l-1 1v1l-1 1-1-1h-4v-2zM165 374l3 1h3v-3l1-1v-5l-5-1-3 7 1 2z"/><path class="x" d="M168 366h1l2 1h2l1-4 1-4v-1l-1-1-4-1a16 16 0 00-1 1l-2 8zM176 335l2 1 2 1h1v-2l2-7v-1h-3l-2-1-3 7 1 2z"/><path class="x" d="M173 348l4 1 1-1 1-2v-2l1-3v-4l-2-1-3-1-3 9 1 4z"/><path class="x" d="M170 357a15 15 0 012 1h3l1-2v-2l1-2v-2-1a9 9 0 00-1 0l-3-1-2 4zM184 306l2 1 2 1h1l-1 2a6 6 0 010 2 4 4 0 00-1 1v1l-1 1-4-1-1-5z"/><path class="x" d="M182 327h1l1-3 1-2 1-3 1-2-1-1v-1l-4-1-3 6-1 5 2 1 2 1zM189 301l1 1v2l-1 2-1 1h-1l-3-1-1-1 6-4zM168 380l1-1v-1l1-1v-2l-1-1-4-1v1l3 6zM164 372l2 1 1-1v-3l1-1v-3l-1-1-4-2-2 5 3 5z"/><path class="x" d="M163 363h2l1 1h2l2-4 1-3v-1l-1-2h-4a14 14 0 00-2 0l-2 8zM168 345l1 1h2l1 1 1-2 1-2 1-2 1-2-1-2v-1l-5-1-2 8v2z"/><path class="x" d="M166 354l2 1h3v-1l1-2v-2l1-1v-2l-1-1-5-1-2 7 1 2zM184 305v2l-1 2v1l-1 1h-3l-1-1-2-1 7-4z"/><path class="x" d="M176 318l2 1h2l1-1 1-6v-1h-3l-2-1-3 6 2 2z"/><path class="x" d="M173 328l4 2 1-1 1-2v-1l1-3v-3l-1-1h-1l-3-1-3 7 1 3z"/><path class="x" d="M171 336l1 1h4l1-2v-1l1-2v-2a11 11 0 00-1-1l-4-1-2 3zM161 352h3l1 1 1-1 1-3 1-1 1-3-1-1v-1l-5-2-2 9v2z"/><path class="x" d="M164 342l2 1h3v-1l1-3v-1l1-2v-4l-5-2-3 8 1 4z"/><path class="x" d="M166 331l3 1h3v-3l1-2v-4l-5-1-3 7 1 2zM159 360l2 1 3 1v-1l1-3v-1l1-2v-1l-1-2-5-1-2 7 1 2z"/><path class="x" d="M169 323h3l1 1h1l1-4 1-4v-1l-1-1-3-1a14 14 0 00-2 1l-2 8z"/><path class="x" d="M177 309v4l-1 1h-5v-2zM161 367l2-1v-2l1-1v-1l-1-1-5-1-1 1 4 6zM157 360h2v-3l1-2-1-1-4-1-2 1 4 6z"/><path class="x" d="M155 353h1l2 1h2l1-3h1v-4l-1-1-4-1-2 7v1z"/><path class="x" d="M157 346h2l2 1h1v-2l1-2v-1l1-2 1-2v-1l-1-2-5-1-3 8 1 4z"/><path class="x" d="M160 335l2 1h3v-1l1-2v-2l1-1v-2l-1-1-5-1-2 7 1 2z"/><path class="x" d="M162 326l1 1h4l1-3 1-4v-1l-1-2h-3a15 15 0 00-2 1l-2 8z"/><path class="x" d="M170 313h1l-1 2v3h-1l-2-1h-3v-1z"/><path class="x" d="M164 316l1 2-1 2v1l-1 1h-4l-1-1-1-1 7-4z"/><path class="x" d="M156 329l2 1h3l1-1 1-6v-1h-3l-2-1-3 6 1 2z"/><path class="x" d="M154 340l3 1 1-1h1v-2l1-1 1-3v-2l-1-1v-1h-2l-2-1-3 7 1 4z"/><path class="x" d="M151 347l2 1h4v-2l1-1v-2l1-2a10 10 0 00-2 0l-3-1-2 2z"/><path class="x" d="M154 354h1l1-2v-2l1-1-2-1h-2l-2-1h-2l5 7zM153 325l2 1h2v1l-1 2a6 6 0 010 2 5 5 0 000 1l-1 1v1a7 7 0 01-1 0l-4-1-1-5z"/><path class="x" d="M152 342h1l1-1v-2l1-2v-2l-1-1-4-1-3 4v4l2 1h3z"/><path class="x" d="M150 348l1-1 1-1v-4l-5-1v1l3 6zM158 320l1 1v2l-2 2v1h-2l-3-1v-1l5-4h1zM150 328l1 2v4l-1 2-1 1h-1l-4-1-1-2 3-7z"/><path class="x" d="M148 337h1l-1 2v3h-1l-4-7 2 1 3 1zM152 323l1 2-1 3h-1v1l-3-1-2-1 5-4h1z"/><path class="x" d="M146 327h1l-1 4h-6l3-3 3-1zM143 336l2-1v-3h1l-2-1h-4l3 5zM104 267h-2l-1 1v2l-1 2v3l1 1 4 1 2-5-3-5z"/><path class="x" d="M105 277l-2-1h-4l-1 3-1 4v1l1 2h4a15 15 0 002-1l1-8zM100 295l-2-1h-1l-2-1v1l-1 3-1 1-1 3 1 1v2l5 1 2-9v-1z"/><path class="x" d="M102 286l-2-1h-3l-1 3v1l-1 2v1l1 2 5 1 2-7-1-2zM92 322l-2-1h-2l-1 1-1 6v1h3l1 1 4-6-2-2z"/><path class="x" d="M95 311l-4-1-1 1-1 2v1l-1 3v3l1 1h1l3 1 3-7-1-4z"/><path class="x" d="M97 304l-1-1h-4l-1 2v1l-1 1v3a9 9 0 001 0l4 1 2-3zM89 336l-4-1-1 1h-1v2l-1 1-1 3v1l1 2v1h2l3 1 2-7v-4z"/><path class="x" d="M86 346l-4-1-1 1-1 1v2l-1 2-1 4v4h1l1 1 3 1 4-10-1-5zM91 329l-2-1h-3l-1 2v1l-1 1-1 2v1a11 11 0 002 0l4 1 2-3z"/><path class="y" d="M76 365v-1l1-2v-2l1-1 2 1h3v1z"/><path class="x" d="M109 279l-2-1h-3l-1 3v2l-1 1v1l1 2 5 1 2-7-1-2z"/><path class="x" d="M107 288l-1-1h-2l-1-1h-1l-1 4-1 4v1l1 2h3a13 13 0 002-1l2-8zM99 318l-2-1-2-1-1 1-1 2-2 7v2h3l2 1 4-8-1-3z"/><path class="x" d="M103 306l-5-2-1 1h-1v2l-1 2-1 3v4h1l1 1 3 1 3-9 1-3z"/><path class="x" d="M106 297l-3-1-2-1-1 1-1 2v1l-1 2-1 2v1a7 7 0 002 0l4 2 1-4zM107 274h-2v2l-1 1v1l1 1 5 1v-1l-3-5zM94 336h-3l-1-1-1 1-1 3-1 1-1 3 1 1v1l5 2 2-9v-2z"/><path class="x" d="M91 346l-2-1h-3v1l-1 3v3l-1 2v2l6 2 2-8-1-4zM96 328l-2-1h-3l-1 3v1l-1 2v1l1 2 5 1 3-7-2-2z"/><path class="x" d="M83 361v-1-1-2l1-1v-1l2 1h3v2zM113 285l-2-1h-3l-1 3v2l-1 1v1l1 2 5 1 3-7-2-2z"/><path class="x" d="M111 294l-1-1h-2l-1-1h-1l-1 4-1 4v1l1 1 3 1a16 16 0 002-1l2-8zM103 324l-2-1-2-1-1 1-1 1-1 7v1l3 1 1 1 4-8-1-2z"/><path class="x" d="M106 311l-4-1-1 1h-1v2l-1 2-1 3v2l1 2 1 1 3 1 4-9-1-4z"/><path class="x" d="M109 302a13 13 0 01-2 0l-2-1-1 1-1 2v1l-1 2-1 2v1a7 7 0 002 0l3 1 2-3zM95 353l-3-1h-1l-1-1 1-2a5 5 0 010-2 5 5 0 000-1l1-1v-1a5 5 0 011 0l4 1 1 5z"/><path class="x" d="M97 332l-2 1-1 2-1 3-1 2v3l1 1 4 1 3-6 1-5-2-1-2-1zM90 358l-1-1v-2l1-2v-1h2l3 1 1 1-6 4zM111 280h-1l-1 1v4l5 1v-1l-3-5zM115 287h-3v3l-1 1v5l5 1 2-5-3-5z"/><path class="x" d="M115 296h-1l-2-1h-2l-1 4-1 4v1l1 1 4 1a14 14 0 001-1l2-8zM111 314h-2l-1-1h-2l-1 1-1 3v1l-1 3 1 1v1l5 2 2-9v-2z"/><path class="x" d="M113 305h-3l-2-1-1 1v3l-1 1v3l1 1 4 2 3-8-1-2zM95 354v-1-2l1-2v-1l2 1h3l1 2-7 4z"/><path class="x" d="M103 341h-2l-1-1h-1l-1 1-2 6 1 1 3 1 1 1 4-6-2-3z"/><path class="x" d="M106 331l-4-1h-1l-1 1v1l-1 2v6h2l3 2 3-8-1-3z"/><path class="x" d="M108 323h-2l-2-1h-1l-1 2v1l-1 2-1 2h1a10 10 0 001 1l4 1 2-3zM118 308l-2-1h-1l-2-1-1 1-1 3v1l-1 3v1l1 2 4 1 3-9v-1z"/><path class="x" d="M115 317h-2l-2-1h-1v2l-1 2v1l-1 2-1 2v1l1 2 5 1 3-8-1-4z"/><path class="x" d="M112 328l-2-1h-3v1l-1 2v2l-1 1v2l1 1 5 1 2-7-1-2zM120 299l-3-1h-3v3l-1 1v3l1 2 4 1 3-7-1-2z"/><path class="x" d="M110 337l-1-1h-4l-1 3-1 4v1l1 2h3a14 14 0 002-1l2-8z"/><path class="x" d="M102 350h-1l1-2v-3h3l2 1h1v1zM118 292l-2 1v1l-1 1v2l1 1 5 2 1-1-4-7z"/><path class="x" d="M121 299h-1l-1 3v3l5 2 1-1-4-7z"/><path class="x" d="M124 306h-3l-2-1-1 1v2l-1 1v4l5 1 2-6v-2z"/><path class="x" d="M122 314l-3-1-1-1-1 1-1 1-1 3v2l-1 3v2l6 1 3-8-1-3z"/><path class="x" d="M119 324h-3l-2-1-1 1v3l-1 1v3l1 1 4 2 3-8-1-2z"/><path class="x" d="M117 333h-2l-2-1h-2l-1 4-1 3v1l1 2h4a15 15 0 002 0l1-8z"/><path class="x" d="M108 347v-1-2l1-1v-1l1-1 2 1h3v1z"/><path class="x" d="M115 343l-1-1 1-3v-1l1-1h1l2 1h1l2 1-7 5z"/><path class="x" d="M123 330l-2-1h-3l-1 1-1 6v1l3 1 2 1 3-6-1-3z"/><path class="x" d="M125 320l-4-1h-1v1l-1 1v2l-1 3v2l1 1h1l3 1 3-7-1-3z"/><path class="x" d="M127 312h-1l-3-1h-1l-1 2v1l-1 2v2a11 11 0 001 1l4 1 2-3z"/><path class="x" d="M125 305h-1l-1 2-1 3v1h2l2 1h3l-4-7zM126 334l-2-1h-2l-1-1 1-2a5 5 0 010-1 5 5 0 001-1v-2l1-1a6 6 0 011 0l4 1v5z"/><path class="x" d="M127 317h-1l-1 2-1 2v2l-1 1 1 1h1l4 1 2-4v-4l-1-1h-3z"/><path class="x" d="M129 312h-2v2l-1 1v1l1 1 4 1 1-1-3-5zM121 339l-1-1v-1l1-2 1-2h1l3 1 1 2-5 3h-1zM128 331l-1-1v-2l1-2 1-3h1l1-1 3 1 1 2-3 8z"/><path class="x" d="M131 323l-1-1v-2l1-2 1-1 4 7-2-1h-3zM127 336l-1-2 1-2v-1h3l2 1 1 1-5 3h-1z"/><path class="x" d="M133 333l-1-1 1-4h3l3 1-3 2-3 2z"/><path class="x" d="M135 323l-1 1-1 3 2 1h3l1 1-3-5-1-1z"/><path transform="rotate(-75 139 330)" style="isolation:isolate" opacity=".1" fill="url(#a)" d="M87 278h103v104H87z"/><path class="aa" d="M77 366l7-4 8-4 8-4 11-7 12-6 13-8 3-2v-1l-4 1-13 8-12 6-11 7-8 4-8 5-7 3v2zM103 267l4 7 4 8 5 8 6 12 7 11 7 13 2 4 2-1-2-4-8-13-6-11-7-12-4-8-4-8c-1-4-3-5-4-7h-2zM202 293l-7 4-8 4-8 5-11 6-12 7-13 7-3 2 1 2 3-2 13-8 12-6 11-7 8-4 8-4c4-1 5-3 7-4v-2zM176 393l-3-8-5-7-4-9-7-11-6-11-8-13-2-4-1 1 2 4 7 13 7 11 6 11 5 9 4 7 4 7 2 1z"/><path class="aa" d="M141 333l-4-2c-1-1 0-3 1-4s3 0 4 1v2a6 6 0 01-1 3z"/><path class="ab" d="M313 512c0 4 3 9 7 9-1 4-2 8-1 11s4 7 8 6c-3 7 2 15 8 16 1 3 1 7 3 9s6 4 9 1a10 10 0 0012 8c1 2 2 5 4 6s6 2 7 0a7 7 0 007 6 21 21 0 014 0c4 0 7 4 11 5 5 0 5-4 10-6 3-1 7 1 11 2s8-2 7-5c3 2 7 4 11 3s8-3 7-7c3 3 10 0 10-5a9 9 0 0014-10 7 7 0 108-12 7 7 0 007-12c3-1 5-2 6-4s1-6-2-6c8-2 12-12 8-19a8 8 0 103-15 9 9 0 00-4-17c2-5-2-11-7-10a7 7 0 00-6-12c4-5 0-15-7-14 1-3-1-7-4-8l-9-1-4-10c-2-3-7-3-9 1-2-8-12-11-18-7-2-6-12-6-15 0-6-7-19-6-24 2-5-6-15-3-17 4-6-4-16 0-18 8-5-3-13 1-13 8a13 13 0 00-8 15c-3 2-4 7-5 11a4 4 0 01-2 3c-2 1-5 4-6 10l2 9s-9 6-2 15l-3 12z"/><path class="ac" d="M475 445c-1-3-4-5-7-5 1-3-1-7-4-8l-9-1-4-10c-2-3-7-3-9 0-2-7-12-10-18-6-3-6-13-6-15 0-6-7-19-6-24 2-5-6-15-3-17 4-6-4-16 0-18 8-5-3-13 1-13 8a13 13 0 00-8 15c-3 2-4 7-5 11a4 4 0 01-2 3c-2 1-5 4-6 10l2 9s-9 6-2 15c-1 3-3 7-3 12s3 8 7 9c-1 4-2 8-1 11s4 7 8 6c-3 7 2 15 8 16 1 3 1 7 3 9s6 3 9 1a10 10 0 0012 8c1 2 2 5 4 6s6 2 7 0a7 7 0 007 6 21 21 0 014 0c4 0 7 4 11 4 5 1 5-3 10-5 3-1 7 1 11 2s8-2 7-5c3 2 7 4 11 3a21 21 0 001-3 4 4 0 000-3l-4-2-6-6c-4-2-8-1-12-1s-9-3-8-7c1-5 9-3 13-6a4 4 0 00-4-4c1-3 4-4 7-5s6-4 4-6c-2-3-7-1-9-3s0-6 3-7h8c2 0 6-3 6-6-2-4-9-3-10-8 0-2 2-4 1-6s-4-2-6-1l-6 4a7 7 0 01-5-12l7-1c2-1 6-4 4-6l-6-2a26 26 0 0114-12c-3-1-3-6 0-9s6-2 9-3c8 0 22-1 28-6-7-8 6-14 14-17z"/><path class="ad" d="M356 542c-3-1-4-4-6-6l-9-15c-1-2-1-7 2-7-2-3-3-8 0-8a15 15 0 01-10-11c-1-3-1-7 1-9l3-3a8 8 0 002-7l4-3-1-4a4 4 0 000-6l2-4c2-7 11-10 17-7 3-3-1-10 2-13 3-2 7 0 10 0 4 0 7-3 11-4 5-1 10 0 15 2 4 1 9 4 11 8s2 10-2 13c-2 2-5 2-8 2l-16 1a10 10 0 00-4 2 6 6 0 00-3 7 8 8 0 007 4c-1 4-4 6-7 6l-10 3c-3 2-5 5-3 8a8 8 0 016 1 22 22 0 00-6 12 102 102 0 0020 12l-5 4c-2 1-4 2-4 4s2 5 4 3l-2 8-5 6c-5 3-11 5-16 1z"/><path class="ad" d="M453 442l-2-1-4-4-5-1c-1 0-4-3-3-4v-4a3 3 0 00-2-1 14 14 0 00-10 0h-4l-1-3c-1-2-3-4-5-4a18 18 0 00-7 0c-4 1-10 1-10 5a1 1 0 000 2h1a5 5 0 012 1c3 1 6 3 6 6a7 7 0 001 2c0 1 2 2 3 1h5c2 1 2 5 1 7s-4 5-4 8a25 25 0 006 2l-3 4c-1 1-2 3-1 5s5 1 7-1 3-4 6-4a10 10 0 013 1 14 14 0 007 2 4 4 0 003-1c2-3-1-8 2-9h5a5 5 0 003-9zM383 505c-2 1-2 4-1 5a7 7 0 002 1c3 1 5 4 7 7v4l-3 1a5 5 0 00-2 7 25 25 0 012 3v6l-4 7a11 11 0 01-2 4l-6 2c-4 1-9 2-13 0a26 26 0 00-5-1l-4 2c-1 2 1 4 3 5h7a4 4 0 012 1l1 6a7 7 0 0013 4 22 22 0 005 6c2 2 5 3 7 2s4-4 3-7l-4-3a7 7 0 013-12c2 0 4 0 5-2a4 4 0 000-2 17 17 0 00-2-7c3-2 7-3 9-7s0-8-4-9h-4v-4l2-3c0-4-5-5-7-9v-5c-2-4-7-4-10-2zM323 511a2 2 0 000 1l3 1c2 1 3 3 3 5a32 32 0 010 6 16 16 0 001 8c1 3 3 5 6 5l1 5a7 7 0 002 4 3 3 0 004-1c1-1 0-3-1-5l-2-4-1-6-3-7v-8a4 4 0 001-1 3 3 0 00-1-2c-2-6-11-10-13-1zM340 441a6 6 0 003 1v3l-3 1a6 6 0 00-3 3l-2 6a4 4 0 000 3h4a7 7 0 002-4 8 8 0 011-5c3-3 9 0 12-4v-5c0-2 2-4 4-4 2 1 5-1 7-2 1-1 3-3 2-4a3 3 0 00-1-2c-2-1-5 0-8 1s-4 4-7 4c-5 1-10 2-11 8z"/><path class="ac" d="M1231 429c0-6 4-13 10-16s13-2 17 3c4-6 10-10 16-11s14 3 16 9c10 2 16 13 13 22a35 35 0 00-2 4v4c-1 4-3 8-6 11-5 6-13 11-22 14s-19 4-28 1c-7-3-13-11-13-19v-8c0-5-2-9-1-14z"/><path class="ad" d="M1239 458l-2-14c1-6 5-12 10-15s13-3 18 2c4-5 9-10 16-10s13 2 16 8a15 15 0 017 3c1-8-5-17-14-19-2-6-9-9-16-8s-12 5-16 10c-4-5-12-5-17-2s-10 9-10 15c-1 5 1 9 1 14v9a21 21 0 006 13 34 34 0 001-6z"/><path class="ac" d="M1328 557c8-1 15-9 14-17a14 14 0 007-24c3-3 4-8 3-12s-6-7-10-9a37 37 0 00-38 3 17 17 0 01-3 2 38 38 0 01-4 1c-7 2-10 9-10 16s2 12 5 18c3 7 10 7 16 11 6 5 10 12 20 11z"/><path class="ab" d="M1349 515c3-2 4-7 3-12s-6-7-10-9a36 36 0 00-12-3 17 17 0 018 8c1 4 0 10-3 12a14 14 0 01-8 25c2 7-5 15-12 16 3 3 7 6 13 5 8-1 15-9 13-17a14 14 0 008-25z"/><path class="ac" d="M1176 510a16 16 0 001 18 27 27 0 00-8 18c-1 6 2 13 7 16 5 2 11 1 17-1-2 4-1 8 1 11a18 18 0 0010 6 23 23 0 0016-1c5-2 8-7 9-12 5 2 11 0 15-3s7-8 8-13c2-6 3-13 1-19s-7-12-13-14c1-3 2-7 0-11-1-3-5-4-8-6-7-3-15-5-22-5-8 0-12 4-19 7-6 3-11 2-15 9z"/><path class="ab" d="M1240 508h1a9 9 0 00-1-2v2zM1252 540c-1 5-4 10-8 14s-10 4-15 2c-1 5-4 10-9 12a23 23 0 01-16 1 18 18 0 01-10-6c-2-3-3-7-1-11-6 2-12 4-17 1-4-2-6-6-7-10a27 27 0 000 3c-1 6 2 13 7 16 5 2 11 1 17-1-2 4-1 8 1 11a18 18 0 0010 6 23 23 0 0016-1c5-2 8-7 9-12 5 2 11 0 15-3s7-8 8-13a34 34 0 002-15 37 37 0 01-2 6zM1177 519a15 15 0 01-2-6 16 16 0 000 9 26 26 0 012-3z"/><path class="ac" d="M1182 438c-1 1-3 3-3 5s1 5 3 5a25 25 0 00-15 19 37 37 0 001 12c1 5 3 10 8 10a10 10 0 013 0c2 0 2 3 3 5a18 18 0 0031 7 5 5 0 012-2l4 1a23 23 0 0032-7 24 24 0 003-5 23 23 0 00-4-41c3-3 4-7 2-11s-5-7-9-8a25 25 0 00-14-2 20 20 0 01-4 0 20 20 0 01-4-1 24 24 0 00-21 3l-7 5c-5 1-7 1-11 5z"/><path class="ab" d="M1264 466a24 24 0 00-9-16 22 22 0 011 5 24 24 0 01-10 22 23 23 0 01-35 13l-4-2a5 5 0 00-2 2 18 18 0 01-18 7 17 17 0 01-5-3 18 18 0 0031 7 5 5 0 012-2l4 1a23 23 0 0035-12 24 24 0 0010-22z"/><path class="ad" d="M1188 458c-6 0-11 6-9 12s7 10 13 10a7 7 0 005-3 8 8 0 001-4 37 37 0 000-8 9 9 0 009-6c1-3 1-7 4-8h5c2 0 4-2 5-4s2-4 1-6c-2-3-5-3-9-3h-14c-7 0-6 2-8 7-2 4-7 8-3 13z"/><path class="ac" d="M1263 502c-2 0-4 0-6 2s-2 4-1 5a25 25 0 00-23 5 36 36 0 00-8 11c-2 4-3 9 0 12a10 10 0 013 2c1 1 0 4-1 6a18 18 0 0019 25 5 5 0 013 0l2 3a23 23 0 0036 13 23 23 0 0022-34c4 0 8-3 9-7s0-8-1-12a25 25 0 00-10-11 12 12 0 01-6-6 24 24 0 00-18-10c-4 0-6 0-9-2-4-2-6-3-11-2z"/><path class="ab" d="M1308 576a24 24 0 003-18 22 22 0 01-2 4 24 24 0 01-21 10 23 23 0 01-36-12l-2-4a5 5 0 00-3 0 18 18 0 01-18-6 17 17 0 01-2-5 18 18 0 0019 25 5 5 0 013 0l2 3a23 23 0 0036 13 24 24 0 0021-10z"/><path class="ad" d="M1257 527c-5-3-13-1-15 4s-1 13 4 16c1 1 3 2 5 1a8 8 0 004-2 37 37 0 005-6 9 9 0 0011 1c2-2 5-5 7-4l4 4h7c2 0 4-3 5-5 0-3-2-6-5-8l-11-8c-5-5-7-3-12 0-3 2-9 2-9 7z"/><path class="ac" d="M1290 432c-2 0-4 0-6 2s-2 4-1 5a25 25 0 00-23 5 36 36 0 00-7 11c-3 4-4 9 0 12a10 10 0 012 2c1 1 0 4-1 6a18 18 0 0019 25 5 5 0 013 0c2 0 2 2 3 3a23 23 0 0035 13 23 23 0 0022-34c4 0 8-4 9-7s1-9-1-12a25 25 0 00-10-11 21 21 0 01-3-2 21 21 0 01-3-4 24 24 0 00-18-10c-4-1-5 0-9-2-3-2-6-3-11-2z"/><path class="ab" d="M1335 506a24 24 0 004-18 22 22 0 01-3 4 24 24 0 01-21 11 23 23 0 01-35-13l-3-4a5 5 0 00-3 1 18 18 0 01-17-7 17 17 0 01-3-5 18 18 0 0019 25 5 5 0 013 0c2 0 2 2 3 3a23 23 0 0035 13 24 24 0 0021-10z"/><path class="ad" d="M1282 450c-5-3-12-1-15 4s-1 12 4 16c2 1 4 2 5 1a8 8 0 004-2 37 37 0 005-7 9 9 0 0011 1c2-1 5-4 8-3l3 3c2 2 5 1 7 0s4-2 5-4c1-3-2-6-5-8l-11-9c-5-4-6-2-11 1-4 2-10 1-10 7z"/><path class="ac" d="M1209 485a19 19 0 00-6 5c-4 6-2 12 0 18-7 3-9 13-5 19s14 8 21 5a24 24 0 0034 0 24 24 0 003-4l3-3a9 9 0 014 0 13 13 0 0010-5 22 22 0 004-12 26 26 0 011-6l2-4a17 17 0 00-3-16 21 21 0 00-15-8 19 19 0 00-15-10c-10-1-13 5-18 11-5 5-14 6-20 10z"/><path class="ad" d="M1214 518c-2-6-4-13-1-18a19 19 0 016-6c6-3 16-4 20-9 6-6 9-12 19-11a19 19 0 0115 10 22 22 0 017 2 18 18 0 00-2-6 21 21 0 00-15-8 19 19 0 00-16-10c-10-1-13 5-18 11-5 5-14 6-20 10a19 19 0 00-6 5c-4 6-2 12 0 18-7 3-9 13-5 19a15 15 0 009 6c-1-6 2-11 7-13z"/><path class="ab" d="M1277 482a19 19 0 00-2-2 15 15 0 01-1 7l-2 4a26 26 0 000 6 22 22 0 01-4 11 13 13 0 01-10 6 9 9 0 00-4 0l-3 3a24 24 0 01-37 4c-6 2-13 1-18-2a13 13 0 002 8c5 6 14 8 21 5a24 24 0 0034 0 25 25 0 003-3l3-3a9 9 0 014-1 13 13 0 0010-5 22 22 0 004-12 25 25 0 011-6l2-4a17 17 0 00-3-16z"/><path class="ac" d="M1256 476c-5 2-10 6-12 11s-1 13 4 16c0 4 0 8 2 11 2 2 6 3 9 3 5 1 12 0 14-5a15 15 0 0024-7 33 33 0 012-5l1-3a10 10 0 00-8-14 12 12 0 00-6-10c-5-2-8 0-13 0-6 1-11 0-17 3z"/><path class="ab" d="M1300 488a10 10 0 00-4-5 10 10 0 01-1 3l-2 3a32 32 0 00-2 5 15 15 0 01-24 7c-2 4-8 5-13 5a20 20 0 01-6-1c0 3 0 6 2 9 2 2 6 3 9 3 5 1 12 0 14-5a15 15 0 0024-6 35 35 0 012-5l2-3a10 10 0 00-1-10z"/><path class="ae" d="M1451 193a59 59 0 00-6-2c-8-3-23-12-31-12-3 0-10 2-15 15-3 6-3 15-2 22 1 13 13 61 15 67 3 7 6 16 12 21h7l-1-2c-5-12-13-49 5-54a52 52 0 018-4c7-2 13-4 19-8h1v-1h2c-1-5-3-10-6-14-5-6-13-5-20-5-5-1-10 1-12 3s-2 0-1-2c1-3 3-2 5-5 2-2 2-5 5-6 2-2 4 0 9-2 6-3 15 5 20 8a35 35 0 014 2 118 118 0 00-18-21z"/><path class="af" d="M1465 235h-1zM1463 236h-1z"/><path d="M1384 175c-9 5-18 12-26 18-9 7-18 12-25 20l-2 2c13-7 20-6 34-12l15-9c-6 19-2 52 5 68 1-5 3-10 1-25-2-9-4-24-2-29 2-10 10-20 17-28 8-10 16-4 19-2a148 148 0 0022 8l-5-4c-16-11-35-17-53-7z" fill="#bab2a8"/><path class="ah" d="M1420 178c-3-2-11-8-19 2-7 8-15 18-17 28-2 5 0 20 2 29 2 15 0 20-1 25-7-16-11-49-5-68l-15 9c-14 6-21 5-34 12-6 7-7 15-7 24 0 14-2 42 4 49a20 20 0 002 3c-1-5 1-10 4-16 6-11 12-22 23-30l6-12h1c-1 10-9 21-13 30l-9 15c-3 6-4 11-3 18a60 60 0 006 2c0-7 5-13 11-16 4-3 9-4 13-6 4-1 7-3 10-2 10 0 12 5 18 12 2 2 6-2 8-6l5-4c-4-16-12-49-13-60-1-7-1-16 2-22 5-13 12-15 15-15 8 0 23 9 31 11a59 59 0 016 3l-9-7a150 150 0 01-22-8z"/><path class="af" d="M1366 214c-5 2-11 2-15 6-3 2-3 5-5 8-1 5-5 7-8 11-5 7-6 17-7 26-1 5-4 15 3 18a1 1 0 001 0v-1c3-10 10-20 17-28 4-6 11-14 12-21 0-1 2-12 6-18 2-3-2-2-4-1z"/><path class="ae" d="M1363 233l-6 12c-11 8-17 19-23 30-3 6-5 11-4 16a30 30 0 009 5c-1-7 0-12 3-18l9-15c4-9 12-20 13-30h-1z"/><path class="af" d="M1410 276l-5 4c-2 4-6 8-8 6-6-7-8-12-18-12-3-1-6 1-10 2-4 2-9 3-13 6-6 3-11 9-11 16l1 1c7-10 19-10 29-10 6 1 10 2 14 6 4 3 10 5 13 3 4-2 7 3 11 7h11c-6-6-9-15-12-22l-2-7zM1469 214a38 38 0 00-4-2c-5-3-14-11-20-8-5 2-7 0-9 2l-5 6c-2 3-4 2-5 5-1 2-1 4 2 2s6-4 11-3c7 0 15-1 20 5 3 4 5 9 6 14h-1l-1 1h-1c-6 4-12 6-19 8a52 52 0 00-8 4c-18 5-10 42-5 54l1 2 9-1a72 72 0 0014-5c12-19 13-62 13-62 1-2 5-4 7-5l1 1 1 2c4 11 9 33 8 48a20 20 0 005-5s1-9-2-23-15-34-18-40z"/><path d="M1476 234l-1-2-1-1c-2 1-6 3-7 5 0 0-1 43-13 62 9-3 19-1 24-3 6-4 9-8 9-10 0-14-7-40-11-51z" fill="#4f463f"/><path class="ae" d="M1402 298c-3 2-9 0-13-3-3-4-8-5-14-6-10 0-22 0-29 10a423 423 0 0067 6c-3-4-7-9-11-7z"/><path class="ah" d="M1468 230c-2 0-5-2-6-1-4 1-8 5-19 5-6 1-13 1-19 5-2 1-3 3-4 6-2 5-6 5-6 7-2 4 2 10 1 13h1c4-6 7-13 13-17 4-2 7-5 17-6 8 0 12-3 18-4 8-2 6-5 11-6-2-1-3-3-7-2z"/><path d="M107 682c8-5 19-25 60-2 24 14 10 53 30 48 28-7 48 25 21 50s-38 20-66 6c-10-5-16-8-31-6s-20 24-49 27-74-31-52-49 25-28 19-46 28-42 43-27 19 4 25-1z" fill="#45dbe2"/><path d="M167 773c-11 0-42-7-50-5s-31 7-38 19-54 6-56-11 6 2 18-20c11-20 12-27 12-33a6 6 0 01-4-3c-1-5 4-10 12-13s16-1 17 3a6 6 0 01-1 5h1c11 0 39-19 46-15s-19 11-10 17 32-7 38 1-19 7-13 13 23 2 26 6-6 5-2 8 9-2 14 2-23 6-18 11 20 15 8 15zm44-14c-1-6-10-7-20-4s-15 10-13 15 10 6 20 3 15-9 13-14z" transform="translate(1 1)" fill="url(#b)"/><path class="al" d="M148 748c3-6 0-13-6-16-5-2-14 1-15 4l8 5c-1 1-8-3-9-3-1 1-2 10 6 15a11 11 0 0016-5z"/><path class="am" d="M126 739a34 34 0 014 1l5 2c1-1 0-2-4-4a24 24 0 01-3-2c1-3 9-5 14-3 5 3 8 9 5 15a11 11 0 01-6 5 10 10 0 01-9-1c-7-4-7-12-6-13z"/><path class="an" d="M127 740l2 1c5 2 6 2 7 1 0-2-1-2-4-4a36 36 0 01-4-2c2-2 9-5 14-3 5 3 7 9 5 14a10 10 0 01-6 5 10 10 0 01-8-1c-7-3-7-9-6-11z"/><path class="ao" d="M131 736c2-2 7-3 10-1 5 2 7 7 5 12a9 9 0 01-6 4 8 8 0 01-7-1 11 11 0 01-5-9l1 1c5 2 6 3 8 1v-1c1-2-1-3-5-5l-1-1z"/><path class="al" d="M153 714a8 8 0 00-1-12c-4-3-10-2-11 0l4 5-5-3c-1 0-3 6 2 10a8 8 0 0011 0z"/><path class="am" d="M140 704l2 1c3 2 3 3 4 2l-3-2a18 18 0 01-2-3c2-1 7-2 10 1a8 8 0 012 10 7 7 0 01-5 3 7 7 0 01-6-2c-4-4-3-9-2-10z"/><path class="an" d="M140 705l2 1 4 2c1-1 0-2-2-4l-2-2c1-1 6-2 9 1a7 7 0 012 10 7 7 0 01-5 2 7 7 0 01-6-1c-3-4-3-8-2-9z"/><path class="ao" d="M143 703c2-1 6-1 8 1a6 6 0 011 8 6 6 0 01-4 3 6 6 0 01-5-2 8 8 0 01-2-7v1c3 2 4 2 5 1h1c1-1 0-3-3-4a13 13 0 01-1-1z"/><path class="al" d="M73 758a12 12 0 0016 0c5-4 4-13 1-15-1-1-6 6-7 5l6-7c-1-1-9-6-16 0-5 4-4 12 0 17z"/><path class="am" d="M88 741a35 35 0 01-2 3l-3 4 4-2a22 22 0 013-3c2 3 3 11-1 15a11 11 0 01-15-1 12 12 0 01-4-8 9 9 0 013-7c7-5 14-2 15-1z"/><path class="an" d="M87 741l-2 2c-3 4-4 4-3 5v1c1 1 3 0 5-3l3-2c2 2 2 10-1 13a10 10 0 01-15 0 11 11 0 01-3-8 9 9 0 013-7 11 11 0 0113-1z"/><path class="ao" d="M90 746c0 3 0 8-2 10a9 9 0 01-13 0 10 10 0 01-3-7 8 8 0 013-6 10 10 0 0110-2l-1 1c-3 4-4 5-3 7v1c2 2 4 0 7-3l2-1z"/><path class="al" d="M87 722a8 8 0 00-6 10c1 4 7 7 9 6 1-1-1-6-1-7l3 6c1 0 6-3 5-10-1-4-6-6-10-5z"/><path class="am" d="M92 737a22 22 0 01-1-3l-2-3v3a16 16 0 011 3c-2 1-8-2-9-5a8 8 0 016-10 8 8 0 016 1 7 7 0 013 5c1 5-3 8-4 9z"/><path class="an" d="M92 736l-1-2-2-3v6c-2 0-6-2-7-5a7 7 0 015-9 8 8 0 016 0 6 6 0 013 5 8 8 0 01-4 8z"/><path class="ao" d="M88 736c-2 0-5-2-5-4a6 6 0 014-8 7 7 0 015 0 5 5 0 013 4 7 7 0 01-2 7l-1-1c-1-3-1-4-3-4-2 1-2 2-1 5v1z"/><path class="ap" d="M91 745a8 8 0 01-5-2 8 8 0 015-2 8 8 0 015 2 8 8 0 01-5 2zM81 745a8 8 0 01-5-3 8 8 0 015-2 8 8 0 015 3 8 8 0 01-5 2zM84 747a8 8 0 012-4 7 7 0 010 10 8 8 0 01-2-6z"/><path class="ap" d="M84 738a8 8 0 013-5 7 7 0 01-1 10 8 8 0 01-2-5z"/><path class="ap" d="M92 741a8 8 0 01-6 2 8 8 0 013-5c2-2 5-2 5-2a8 8 0 01-2 5zM84 748a8 8 0 01-5 1 8 8 0 012-5 8 8 0 015-1 8 8 0 01-2 5z"/><path class="ap" d="M88 748a8 8 0 01-2-5 7 7 0 017 7 8 8 0 01-5-2zM81 740a8 8 0 01-1-5 8 8 0 015 2 8 8 0 011 6 8 8 0 01-5-3z"/><path class="aq" d="M91 743a8 8 0 01-5 0 8 8 0 014-4 8 8 0 015 1 8 8 0 01-4 3zM82 746a7 7 0 01-5-1 7 7 0 014-3 8 8 0 015 1 7 7 0 01-4 3zM86 748a8 8 0 010-5 6 6 0 013 9 8 8 0 01-3-4z"/><path class="aq" d="M83 739a7 7 0 011-5 6 6 0 012 9 7 7 0 01-3-4z"/><path class="ar" d="M90 740a7 7 0 01-4 3 6 6 0 015-8 8 8 0 01-1 5zM86 748a7 7 0 01-4 3 6 6 0 014-8 8 8 0 010 5z"/><path class="ar" d="M89 747a7 7 0 01-3-4 7 7 0 015 0 7 7 0 013 4 7 7 0 01-5 0zM81 742a7 7 0 01-3-4 7 7 0 015 1 8 8 0 013 4 8 8 0 01-5-1z"/><path class="as" d="M87 742a2 2 0 01-1 1 2 2 0 010-1 2 2 0 011-1 2 2 0 010 1zM86 744a2 2 0 01-1 0 2 2 0 010-1 2 2 0 011 0 2 2 0 010 1z"/><path class="as" d="M87 744a2 2 0 01-1-1 1 1 0 012 0 1 1 0 010 1 2 2 0 01-1 0zM85 743a2 2 0 010-1 1 1 0 011 0v1a2 2 0 01-1 0z"/><path class="as" d="M87 743a2 2 0 01-1 0 1 1 0 012-1 2 2 0 01-1 1z"/><path class="as" d="M86 743a2 2 0 01-2 0 1 1 0 012 0zM86 744a2 2 0 010-1 1 1 0 011 1 2 2 0 01-1 0z"/><path class="as" d="M86 742a2 2 0 010-1 1 1 0 010 1v1a2 2 0 010-1z"/><path class="at" d="M87 742a1 1 0 01-1 1 1 1 0 011-1zM86 743a1 1 0 010 1 1 1 0 010-1zM87 743zM86 743a1 1 0 01-1-1 1 1 0 011 1z"/><path class="at" d="M87 743a1 1 0 01-1 0 1 1 0 011-1 1 1 0 010 1z"/><path class="at" d="M86 743v-1a1 1 0 010 1zM86 743a1 1 0 011 1 1 1 0 01-1-1z"/><path class="at" d="M86 742a1 1 0 010-1 1 1 0 010 2 1 1 0 010-1z"/><path class="al" d="M19 789c4-4 12-8 12-8s-4 7-8 11a21 21 0 01-9 5 21 21 0 015-8z"/><path class="am" d="M18 791c7-9 2 1 2 1s9-6 1 2a13 13 0 01-6 3 16 16 0 013-6z"/><path class="an" d="M18 791c6-7 1 2 1 2s9-6 1 1a11 11 0 01-5 2 14 14 0 013-5z"/><path class="am" d="M20 791l-1 1h2a68 68 0 00-6 5l5-6z"/><path class="al" d="M17 783l13-3s-6 6-11 8a21 21 0 01-10 1 21 21 0 018-6z"/><path class="am" d="M14 784c10-5 2 2 2 2s11-1 0 2a13 13 0 01-7 0 16 16 0 015-4z"/><path class="an" d="M14 785c9-5 0 1 0 1s11-1 2 2a11 11 0 01-6 0 14 14 0 014-3z"/><path class="am" d="M16 785l-1 1h2a69 69 0 00-7 2H9l7-3z"/><path class="al" d="M26 794c0-5 3-13 3-13v13a29 29 0 01-3 10 29 29 0 010-10z"/><path class="am" d="M26 797c0-11 1-1 1-1s3-10 1 1a17 17 0 01-2 6 22 22 0 010-6z"/><path class="an" d="M26 797c0-9 1 1 1 1s3-11 1-1a15 15 0 01-1 6 18 18 0 01-1-6z"/><path class="am" d="M27 796v1s0-2 1-1l-1 7h-1a60 60 0 001-7z"/><path class="al" d="M20 777l7 4s-5 2-8 1l-5-3 6-2z"/><path class="am" d="M18 777c7 1 0 3 0 3s6 3-1 2a6 6 0 01-3-3 8 8 0 014-2z"/><path class="an" d="M18 778c6 0 0 1 0 1s5 4-1 2a5 5 0 01-2-2 7 7 0 013-1z"/><path class="am" d="M19 779h-1l1 1a25 25 0 00-4-1 14 14 0 004 0z"/><path class="al" d="M29 789v-8l5 7c1 3-1 6-1 6s-4-2-4-5z"/><path class="am" d="M29 791c-2-6 2-1 2-1s1-7 3 0a6 6 0 01-2 4 8 8 0 01-3-3z"/><path class="an" d="M30 791c-3-5 2 0 2 0s0-7 1-1a5 5 0 01-1 3 7 7 0 01-2-2z"/><path class="am" d="M31 790c0-1 0 0 0 0l1-1a25 25 0 000 5 14 14 0 00-1-4z"/><path class="al" d="M28 774v8l-4-8a11 11 0 011-6 11 11 0 013 6z"/><path class="am" d="M27 772c2 6-1 1-1 1s-1 7-2 0a7 7 0 011-4 9 9 0 012 3z"/><path class="an" d="M27 772c2 5-1 0-1 0s-1 7-2 1a6 6 0 011-4 8 8 0 012 3z"/><path class="am" d="M26 773a34 34 0 00-1-4 20 20 0 001 4z"/><path class="al" d="M21 774l8 8s-7-3-10-6a20 20 0 01-5-6 20 20 0 017 4z"/><path class="am" d="M19 772c7 6 0 2 0 2s5 7-2 0a13 13 0 01-3-4 15 15 0 015 2z"/><path class="an" d="M19 772c6 5-1 1-1 1s6 7-1 1a11 11 0 01-2-3 14 14 0 014 1z"/><path class="am" d="M19 774l-1-1 1 1-5-4a42 42 0 005 4z"/><path class="au" d="M19 785a10 10 0 004 0 13 13 0 002-1 13 13 0 00-1 1 11 11 0 00-2 5 10 10 0 004-3 17 17 0 002-3 26 26 0 00-1 4 15 15 0 000 5 15 15 0 002-5v-2a5 5 0 001 2 5 5 0 001-3 10 10 0 00-2-3v-1h-1a14 14 0 000-3 6 6 0 00-1-3 6 6 0 00-1 3 9 9 0 001 2 19 19 0 00-2-2 10 10 0 00-4-2 10 10 0 003 3 4 4 0 00-3 1 5 5 0 002 2 10 10 0 00-4 3zm9-3zm1 0h-1 1z"/><path class="at" d="M32 780c-2 2-4 2-5 2s-1-3 1-5 3-2 4-1 1 3 0 4z"/><path class="at" d="M31 780c-1 2-3 2-4 2s-1-3 1-5 3-2 4-1 1 3-1 4z"/><path class="at" d="M32 778a2 2 0 110-2 2 2 0 010 2zM31 777l3-4-3 4z"/><path class="al" d="M44 805l-12-11s3 10 7 15a24 24 0 008 7 24 24 0 00-3-11z"/><path class="am" d="M45 808c-6-11-3 1-3 1s-9-9-1 2a15 15 0 006 5 18 18 0 00-2-8z"/><path class="an" d="M45 809c-5-10-2 1-2 1s-9-8-2 1a13 13 0 006 4 16 16 0 00-2-6z"/><path class="am" d="M43 808v1h-2a78 78 0 016 6l-4-7z"/><path class="al" d="M48 800c-6-4-15-6-15-6s6 7 12 11a24 24 0 0011 3 24 24 0 00-8-8z"/><path class="am" d="M50 802c-10-8-2 1-2 1s-12-4 0 3a15 15 0 007 1 18 18 0 00-5-5z"/><path class="an" d="M50 802c-9-7 0 2 0 2s-12-4-2 2a13 13 0 006 1 16 16 0 00-4-5z"/><path class="am" d="M48 802l1 1h-2a81 81 0 018 4l-7-5z"/><path class="al" d="M35 810v-15l-4 15a33 33 0 001 11 33 33 0 003-11z"/><path class="am" d="M35 814c2-13-2-1-2-1s-1-13-2 0a20 20 0 001 8 25 25 0 003-7z"/><path class="an" d="M35 814c1-11-2 0-2 0s-1-12-1 0a17 17 0 001 6 21 21 0 002-6z"/><path class="am" d="M34 812l-1 1v-1 8a69 69 0 011-8z"/><path class="al" d="M45 793c-4 0-9 3-9 3s5 3 9 3 7-3 7-3-3-3-7-3z"/><path class="am" d="M47 793c-8-1-1 2-1 2s-7 4 1 3a7 7 0 004-3 9 9 0 00-4-2z"/><path class="an" d="M47 793c-6-1 0 2 0 2s-7 3 0 3a6 6 0 004-3 8 8 0 00-4-2z"/><path class="am" d="M46 795h1l-1 1a29 29 0 015-1h-5z"/><path class="al" d="M33 804c2-3 1-9 1-9s-5 4-6 7v7s4-1 5-5z"/><path class="am" d="M32 806c4-6-2-2-2-2s0-8-3 0a7 7 0 001 5 9 9 0 004-3z"/><path class="an" d="M32 806c3-6-3-1-3-1s1-7-1-1a6 6 0 000 4 8 8 0 004-2z"/><path class="am" d="M31 804l-1 1-1-1a28 28 0 01-1 4v1l3-5z"/><path class="al" d="M37 787l-2 9c1 0 5-4 6-8a13 13 0 000-6 13 13 0 00-4 5z"/><path class="am" d="M38 785c-4 7 1 1 1 1s0 8 2 0a8 8 0 000-4 10 10 0 00-3 3z"/><path class="an" d="M38 785c-3 6 2 1 2 1s-1 7 1 0a7 7 0 000-4 9 9 0 00-3 3z"/><path class="am" d="M39 787v-1l1 1a39 39 0 011-5 23 23 0 01-2 5z"/><path class="al" d="M45 788l-11 8 13-4a23 23 0 007-7 23 23 0 00-9 3z"/><path class="am" d="M47 787c-9 5 0 2 0 2s-8 7 2 1a14 14 0 004-4 18 18 0 00-6 1z"/><path class="an" d="M47 787c-8 4 1 1 1 1s-7 7 1 2a12 12 0 004-4 15 15 0 00-6 1z"/><path class="am" d="M46 789h2l-1 1 6-4a46 46 0 01-7 3z"/><path class="au" d="M41 798a9 9 0 00-1-1 5 5 0 003-1 5 5 0 00-3-2h1a12 12 0 003-4 11 11 0 00-4 2 23 23 0 00-3 2 11 11 0 001-2 7 7 0 000-3 6 6 0 00-2 2 15 15 0 00-1 4h-1v1a11 11 0 00-3 3 5 5 0 000 3 6 6 0 003-1l-1 2a17 17 0 001 5 17 17 0 001-5 35 35 0 000-4 19 19 0 002 3 11 11 0 004 4 12 12 0 00-2-5 15 15 0 00-1-2 16 16 0 002 1 11 11 0 005 2 12 12 0 00-4-4zm-6-2zm0 0z"/><path class="at" d="M31 794c2 2 4 3 5 2s2-3 0-6-3-3-5-2-1 3 0 6z"/><path class="at" d="M32 794c1 2 3 3 4 2s1-3 0-5-3-3-4-2-1 3 0 5z"/><path class="at" d="M31 791a2 2 0 101-2 2 2 0 00-1 2z"/><path class="at" d="M32 790l-2-5 3 5h-1zM31 800l4-2c0-1-1-3-3-3s-4 0-4 2 1 2 3 3z"/><path class="at" d="M31 799c2 1 4 0 4-1l-3-3c-2-1-4 0-4 2s1 2 3 2z"/><path class="at" d="M29 798a1 1 0 10-1-1 2 2 0 001 1z"/><path class="at" d="M29 797l-4-1 4 1c1 0 0 0 0 0z"/><path class="ac" d="M706 272c14-13 31-6 68 11s49 17 59 18 44 29 62 32 22 5 22 5l5 12s-5 11-47 14-62-4-92 15-58 19-95 12-52-9-60-12 16-15 51-11 46-4 41-8-14 2-38 0-65-17-65-17 75-58 89-71z"/><path d="M895 333c-18-3-51-30-62-31s-22-1-59-19l-20-9c1 1 34 19 43 26 10 7 11 17 28 21a43 43 0 0128 26c3 7-24 4-42 11s-33 24-49 31a108 108 0 0021-10c31-19 51-13 92-15s47-14 47-14l-5-12-22-5z" style="mix-blend-mode:multiply" fill="#7ebb15"/><path class="aw" d="M714 335c14-4-7-6-21-11s-17-11 0-11 15-6 10-10-9-15 4-15 10-12 10-16c-1-4 4-6 5-7a24 24 0 00-16 7c-14 13-89 71-89 71s19-8 34-8 49 4 63 0zM737 369c1-12-15-12-27-9h10c5 4-6 11-41 8-20-2-37 1-45 4a242 242 0 0150 3c27 5 51 6 53-6z"/><path class="ax" d="M619 694l49-4 30 12h12l79 30 58-12 22-12 15-8v-6l-41-33-50-19-39-18-22-4-34 18-33 24-34 10-12 14v8z"/><path class="ay" d="M619 688l49-4 30 12h12l79 30 58-12 22-12 15-8-2-8-39-31-50-19-39-18-22-4-34 18-33 24-34 10-12 14v8z"/><path class="ax" d="M665 656l11 11 32 3 40 12 23 12 39-3 29-16 22-6 1-14-11-9-63-20-27-12-30-3-36 14-17 13-13 7v11z"/><path class="ay" d="M665 650l11 11 32 3 40 12 23 12 39-3 29-16 22-6 1-8-11-15-63-21-27-11-30-3-36 14-17 13-13 7v11z"/><path class="az" d="M774 661l-21-7-15 4v2l12 6 19 3 8 5h7l9-3 1-5-13-4-7-1zM722 624l-15 3-5 4 1 5 8 1 3-4 7-2 3-4-2-3z"/><path class="ax" d="M733 637l4-19 13-14 1-8 30-3 33 5 28 1 6 7 3 6 7 37-7 4-13 2-28-4-34 4-22-10-17-3-4-5z"/><path class="ba" d="M751 596l2 10 30 14 30-9 8 3 11-3 4-3h3l9-2-6-7-28-1-33-5-30 3z"/><path fill="#898989" d="M813 611l-30 9 2 13-2 6v7l-3 7-4 2 34-4-3-18 3-7-3-2 3 1 3-10v-4z"/><path class="ba" d="M838 651l-2-5-10-3-3-6-2-7 6-9-9 8-1 15-7 7 28 4 13-2-13-2z"/><path class="bc" d="M754 645l4-10v-8l3-3 1-5 1 1 1 8v7l1 4-1 4 1 7-11-5z"/><path class="ba" d="M746 614l1-4 6-4-2-10-1 8-13 14-4 19 5-18 8-5z"/><path class="bd" d="M769 607l13 7 12-2 8-1 1-3-9-6-8 1-7-4-9 3-1 5z"/><path class="az" d="M792 602l-6 1-7-4-9 3-1 5 1 1 2-3 7-2 5 1 8-2z"/><path class="ax" d="M767 661l-21-7-15 4v2l12 6 19 3 15 5 9-3 1-5v-2l-13-2-7-1z"/><path class="bd" d="M767 659l-21-7-15 4v2l12 6 19 3 15 5 9-3 1-5-13-4-7-1z"/><path class="ax" d="M721 625l-17 1-5 3v2l1 4 8 1 3-3 7-2 3-5v-1z"/><path class="bd" d="M719 622l-15 2-5 5 1 5 8 1 3-4 7-2 3-4-2-3z"/><path class="ax" d="M835 685l-20 12-9 2v4l10 5 22 2 13-11 8-2 3-10v-4l-11 2-8 4-6-1-2-3z"/><path class="bd" d="M834 683l-19 11-9 2v4l10 5 22 2 13-11 8-2 3-11-11-2-8 5-6-2-3-1z"/><path class="az" d="M708 664v6l29 9-29-8-32-4v-6zM771 688v6l34 1 10-1 11-6 10 1 7-3 8-5 9-7h7l-6-5 1-14-1 8-22 6-29 16-39 3zM873 686l-11-1v-2l-3 11-8 2-13 11v3l10-4 7-2 7-4 8-9 3-3v-2zM776 655l29-2 17 2h16l-28-4-3-18 3-7-3-2 3 1 3-10v-4l-30 9 2 13-2 6v7l-3 7-4 2z"/><path style="mix-blend-mode:multiply" fill="#c6c6c6" d="M821 614l8 1-2 6-6 9 2 7 3 6 10 3 2 5 13 2h9l-2-4-7-37-3-6-9 2h-3l-4 3-11 3z"/><path class="az" d="M779 599l-5 5v4l5 4-10-5 1-5 9-3z"/><path class="bc" d="M746 614l1 8 2 6-1 6 1 10h1l2-12v-9l3-5 2-4 2-4 5 1-11-5-6 4-1 4z"/><path class="az" d="M698 696v6l17 1 1-5-6-2h-12z"/><use class="c" transform="rotate(3 -3177 4072) scale(.09)" xlink:href="#c"/><path class="d" d="M416 258v-10l1-12-1-10a13 13 0 00-6-8c-7-3-14-2-22-2a76 76 0 01-11-1 32 32 0 00-6-1 38 38 0 00-5 1 23 23 0 01-6 0l-6-1-11-1a3 3 0 00-1 0l-24-2-12-1h-12a5 5 0 000 1 31 31 0 00-6-1 35 35 0 01-6-1 37 37 0 00-8-1h-15a12 12 0 00-5 0 7 7 0 01-1 2l-1 8c-1 2-5 4-7 3a7 7 0 011 3 22 22 0 01-1 4l2 11a2 2 0 01-1 2v1a2 2 0 010 1 10 10 0 01-2 5 29 29 0 00-1 3 12 12 0 000 4 18 18 0 001 5 5 5 0 005 1 22 22 0 0110-1l11 2 24 2 25 2 50 2 25 2 13 1a8 8 0 005-2 8 8 0 003-5v-2a3 3 0 001-4z"/><path class="e" d="M288 209c-5 0-9-2-9 3l-1 6c0 3 8 2 10 3 1 0 11 1 11-1 1-2 2-9 0-10l-8-1zm0 0h3l8 1c2 1 1 8 1 10-1 2-11 1-12 1-3 0-11 0-11-3l2-6c0-5 4-4 9-3z"/><path class="f" d="M288 209c-5 0-9-2-9 3 0 6-6 8 8 9 2 0 12 1 13-1v-7c0-2 0-3-3-3a8 8 0 00-4-1 41 41 0 01-5 0z"/><path class="g" d="M288 209h-8a3 3 0 000 3v4c2 2 0 3 5 3 2 0 8 2 9 0s3 5 5-1c1-2 0-6-1-8h-1a8 8 0 00-4-1 41 41 0 01-5 0zm7 2v1h-3l3-1zm2 5v1c-2-1 0-1 0-1zm-17 0l2 3c1 2-3 0-3-1 0 0 0-3 1-2z"/><path class="h" d="M334 215v9c0 1 5 4 5 1 1-2 2-10 1-12-1-1-7-4-6 2zm0 0c-1-5 4-4 6-2v12c-1 3-5 1-6 0v-10z"/><path class="i" d="M334 215v10c2 0 3 2 5 1l1-7c0-2 1-6-1-6-4-3-6-2-5 2z"/><path class="j" d="M341 216l-1-3c-3-2-5-2-6 0a15 15 0 010 1v7c0 3 2 2 2 3a2 2 0 003-1l1-3a21 21 0 001-4z"/><path class="h" d="M245 238l-2 9s4 4 5 2 4-10 3-12c0-1-5-6-6 1zm0 0c0-6 5-3 7-1 1 2-2 10-3 12-2 2-5 0-6-2s2-7 2-9z"/><path class="i" d="M245 238l-2 6v3c2 1 2 3 5 3l3-7v-6c-3-4-5-3-6 1z"/><path class="j" d="M252 241l-1-4c-2-3-4-3-5-2a17 17 0 010 2l-1 7c-2 3 0 2 1 3a2 2 0 002 0l2-3a21 21 0 002-3z"/><path class="e" d="M336 254c-8 1-8-1-15-2-4 0 1-15 7-12l3 1c1 0 7 0 8 2l-2 7-1 4zm0 0l1-4 2-7-4-1-8-1c-5-4-9 10-6 11 7 0 7 2 15 2z"/><path class="k" d="M336 254c-7 1-9-2-15-2-3 0 1-16 7-11h7c4 2 5 0 3 7l-2 6z"/><path class="g" d="M320 249c0-4 4-12 8-8h7l4 2a1 1 0 01-1 0c-4 0-3 3-2 3a3 3 0 002 0v2a29 29 0 01-1 5 5 5 0 01-3-1c-1-2-1-8-1 0-4 1-3-4-3-5 1-8-1-3-3-1-4 7 1-3 1-3-1-2-3 2-3 3-3 4-4 4-5 3z"/><path class="h" d="M367 257c-3 0-11 1-9-4l1-5c-1-4 2-3 6-3 2-1 12-3 12 0 0 2 0 9-2 10a32 32 0 01-4 1l-4 1zm0 0l4-1 4-1c2-1 2-9 1-10 0-2-11 0-13 0-7 0-2 2-4 6-3 7 3 6 8 6z"/><path class="i" d="M367 257c-2 0-12 2-8-6 1-3-3-6 4-6 4 0 14-3 14 0 0 13-1 9-9 11a5 5 0 01-1 1z"/><path class="j" d="M366 245l4-1a6 6 0 01-1 3c-1 1 3 3 5-3l3 1v2a18 18 0 00-2 4c0 3-4 5-7 3-1 0-10 3-7-2-1-2-1-3 2-5-1-3 0 1 3-2z"/><path class="h" d="M410 244c-3 0-10 1-8-4v-5c0-4 3-3 6-3 2 0 12-3 12 0 0 2 1 9-1 10a30 30 0 01-5 1l-4 1zm0 0l4-1 5-1 1-10c0-2-11 0-13 0-7 0-3 2-5 7-2 6 3 5 8 5z"/><path class="i" d="M410 244c-2 0-11 2-8-5 2-4-3-7 5-7 3 0 13-3 13 0 0 13 0 9-8 12a4 4 0 01-2 0z"/><path class="j" d="M409 232l4-1a5 5 0 01-1 3c0 1 3 4 5-3h1l2 1v2a19 19 0 00-1 4c-1 3-5 5-8 3 0 0-9 3-6-1-2-3-2-4 2-6-1-3 0 1 2-2z"/><path class="e" d="M285 247c3-7 4-9-6-10-7-1-6 1-7 6-1 2-1 2 1 3 2 2 10 2 12 1zm0 0h-12l-2-4c1-5 0-7 8-6 10 1 10 3 6 10z"/><path class="l" d="M285 247c1-4 5-8-2-9-13-2-10-1-12 6l2 3h12z"/><path class="m" d="M287 242c1-2 0-4-4-4-11-2-10-1-11 4 7 1 3 3 9 2l2-1c1 2 3 1 4-1zm-5-3c1 0 2 1 0 1-7-1-5-2 0-1z"/><path class="e" d="M416 256c3-7 4-8-6-9-7-1-6 1-7 5-1 2-1 2 1 4s10 1 12 0zm0 0c-3 2-11 1-12 0l-2-4c1-5 0-7 8-6 10 2 10 3 6 10z"/><path class="l" d="M416 256c1-3 5-8-2-9-13-2-10 0-12 7l2 2c0 1 10 2 12 0z"/><path class="m" d="M418 251c1-2 0-3-4-4-11-2-10-1-11 4a1 1 0 000 1c7 1 3 3 9 2l2-1c1 1 3 0 4-2zm-5-2c1 0 2 1 0 1-7-1-5-3 0-1z"/><path class="e" d="M341 246c3 1 11 2 14 1 2-1-2-5-4-5h-4c-7 0-4 0-7 3l1 1zm0 0l-1-1c2-3 0-4 7-3h4c3 0 7 4 4 5s-10 0-14-1z"/><path class="k" d="M341 246c7 2 18 3 14-2-3-3-4-2-8-2-7-1-4 0-7 3l1 1z"/><path class="g" d="M356 246l-1-2c-3-3-4-2-8-2-7-1-4 0-7 2h8c7 5 1-2 6 1a4 4 0 002 1z"/><path class="h" d="M284 225c-3 1-6-2-6 3l-1 4c-1 3 5 2 6 3 4 1 6 2 7-3l1-8c-1-1-6 1-7 1zm0 0c1-1 6-2 7-1v8c-1 5-4 4-8 3-1 0-7 0-7-3l2-4c0-5 3-2 6-3z"/><path class="j" d="M284 225c-3 1-6-3-6 4 0 1-5 6 4 6 2 0 9 4 9-7 0-3 2-6-5-4l-2 1z"/><path class="i" d="M284 225c-3 1-5-2-6 1a6 6 0 010 2v1l-1 2c1 2 9 1 10 3s2-1 3-2a18 18 0 001-4 3 3 0 00-4-1c-2 1-2-1-2-2a5 5 0 00-1 0z"/><path class="e" d="M269 250c-7 1-8-2-14-2-4 0 1-15 6-12l3 1c1 0 7 0 7 2 1 1-1 5-1 7l-1 4zm0 0l1-4 1-7-3-1-7-1c-5-4-9 10-6 11l14 2z"/><path class="l" d="M269 250c-7 1-9-2-14-2-4 0 1-16 6-11h7c4 1 4 0 2 7l-1 6z"/><path class="m" d="M255 239c2-3 4-4 6-2h7c3 1 4 0 3 5a7 7 0 01-2-1c-2-1-5 1-5 2-2 4-2 0-3 2 0 1-5 0-4-2 1-1-1-2-2-4zm15 5a16 16 0 00-3-1c-2 1-1 2-2 4-1 0 0 3 3 1a14 14 0 002 0v-4z"/><path class="n" d="M390 243l-13-2c-2-1-3-6-2-8 1-5 11-4 15-4 2 1 12 2 11 5v6l-7 1-4 2zm0 0l4-2 7-1a55 55 0 001-6c0-5-17-5-20-5-8 0-10 6-6 12l14 2z"/><path class="l" d="M390 243l-14-2s-7-13 9-12c3 0 17 1 16 5-1 7 2 6-6 7l-5 2z"/><path class="m" d="M375 239c-1-4-2-10 7-10l1 1a3 3 0 004-1c4 0 13 1 14 4-2 1 4 6-9 7-4 0-2-2-1-3 2-5-3 2-3 2-6 3-5-5-9-2-1 2-3 2-4 2z"/><path class="e" d="M339 253c4 2 14 5 17 4 2-2-1-7-4-8l-5-1c-8-1-5 0-8 3v2zm0 0v-2c3-3 0-5 8-3l5 1c3 1 8 7 3 8s-11-2-16-4z"/><path class="k" d="M339 253c8 4 21 7 17 0-3-5-4-4-9-5-8-2-5 0-8 3v2z"/><path class="g" d="M356 253c-3-5-4-4-9-5h-2a2 2 0 01-2 0 3 3 0 00-2 3c1 3 7-2 11 1 0 3-5 1-6 1 0 2 9 2 9 2 1 1 1-1 1-2z"/><path class="e" d="M404 227c4 2 13 4 14 0 0-3-6-11-9-11h-3c-6 0-3 1-3 7l1 4zm0 0l-2-4c0-6-3-7 4-7l3-1c3 1 11 9 9 12s-9 2-14 0z"/><path class="k" d="M404 227c8 3 19 3 11-6-6-8-5-5-9-5-7 0-3 2-4 7l2 4z"/><path class="g" d="M415 220c-6-7-6-4-9-4h-2v1c-2 1-1 5 0 6 3 5 3-6 8-2 2 5-3 3-3 4 1 3 7 0 7 0l-1-5z"/><path class="h" d="M345 226l-4-2v2l-1 1h5a3 3 0 001-1h-1zm0 0a1 1 0 001 0l-2 1-3 1c-2 1-1-2 0-2 0-1-1-4 1-3l3 3z"/><path class="i" d="M345 226l-4-2v2s-2 2 0 2l2-1h2s3-1 1-1a1 1 0 01-1 0z"/><path class="h" d="M345 227h-1v2c-2 2-2 6-5 2-1-1-3-2 0-3s-1 2 3 0l2-1h1zm-1 0a3 3 0 00-1 1c-1 0-4 2-4 0 0 0-2 0 0 2s2 4 3 1l2-4zm1 0z"/><path class="i" d="M345 227l-2 1h-3c0-1-4 1-1 2 0 1 2 5 3 1a22 22 0 012-4z"/><path class="h" d="M315 224h7c4 0 0 2-3 2l-4-2zm0 0c4 1 5 2 8 0a4 4 0 00-1 0h-7z"/><path class="k" d="M315 224h9c-4 3-5 1-9 0z"/><path class="h" d="M253 242c1 1-1 6-2 8-1 3-2-1-1-4l2-4h1zm0 0h-1c-2 4-3 5-1 8a4 4 0 000-1l2-7z"/><path class="k" d="M253 242c1 1-2 6-2 7l-1 2c-1-4 0-5 2-9h1z"/><path class="h" d="M361 242c2 0 2 0 1 2s-4-1-8-2c-1 0-4-2 1-1l6 1zm0 0a22 22 0 01-6-1c-6-1-3 1-1 2l6 1c3 2 5-3 1-2z"/><path class="k" d="M361 242c1 0 2-1 1 1-1 3-4 0-8-1-2 0-4-2 1-1a18 18 0 006 1z"/><path class="h" d="M356 248a20 20 0 00-3 0l4 4-1-4zm0 0c1-1 3 8 0 4-2-2-7-4 0-4z"/><path class="k" d="M356 248h-3l1 2c3 1 3 4 3 2l-1-4z"/><path class="h" d="M415 258a20 20 0 00-3 0l4 4-1-4zm0 0c1-1 3 8 0 4-1-2-6-4 0-4z"/><path class="k" d="M415 258h-3l2 2c2 1 2 4 3 2l-2-4z"/><path class="h" d="M350 259l1 3h2c1 0 8-2 5-3 0-1-5-2-7-1a5 5 0 00-1 1zm0 0c2-2 4-1 7 0 3 0-1 2-3 2l-3 1-1-3z"/><path class="i" d="M350 259l1 3 5-1s5-2 1-2c-2-1-6-3-7 0z"/><path class="e" d="M262 234h9c2 0 7 1 6 2h-15c-2-1-2-1 0-2zm0 0l-1 1 16 1-5-1a21 21 0 00-2-1h-8z"/><path class="l" d="M262 234h9a18 18 0 004 1c3 0 4 1-2 1h-12s-2-1 0-1l1-1z"/><path class="h" d="M290 238a25 25 0 00-3-1l1 5a2 2 0 000 1l2-5zm0 0c1 1-3 9-3 4 1-3-2-8 3-4z"/><path class="k" d="M290 238l-3-1 1 2c0 2-1 5 1 4 0 0 2-4 1-5z"/><path class="h" d="M286 251a22 22 0 002 1v-6a3 3 0 000-1c-1 0-3 5-2 6zm0 0c-2-1 2-11 2-5 0 4 3 10-2 5z"/><path class="k" d="M286 251l3 1-1-3c-1-2 1-6-1-4 0 0-2 5-1 6z"/><path class="n" d="M280 224l3-3h5c1 0 3 1 1 1a50 50 0 01-6 2h-3zm0 0h3l6-2a7 7 0 00-1 0h-4l-4 2z"/><path class="l" d="M280 224l3-2c1-2 4 0 5-1 0 0 4 1 0 2a12 12 0 01-2 1h-3a3 3 0 01-1 1l-2-1z"/><path class="e" d="M280 236h5c1 1 1 2-1 2l-2-1s-5-1-4-2l2 1zm0 0h-1l4 1a2 2 0 002 0c1 0 0 0 0 0-2 0-4-2-5-1z"/><path class="k" d="M280 236c1-1 3 1 5 1h-3a24 24 0 00-2-1c-2 0-2-1 0 0z"/><path class="e" d="M255 249c1-1 3 1 5 1 1 0 1 2-1 1l-2-1s-5 0-4-1h2zm0 0h-1c-2 1 4 1 4 1a2 2 0 002 1v-1l-5-1z"/><path class="k" d="M255 249c1-1 3 1 4 1s3 1 0 1l-2-1a24 24 0 00-3 0c-2 0-1-2 1-1z"/><path class="h" d="M254 234a43 43 0 000 5c1 0 1-3 4-4 1-1-2-1-2-1h-2zm4 1zm-4-1h3c2 0 2 1 1 1l-4 4v-5z"/><path class="i" d="M254 234v5c1-2 2-4 4-4 0 0 1-1-1-1h-3z"/><path class="h" d="M314 239h3l2 1a10 10 0 002 0c2 0 0 4-1 4s0-2-3-4l-3-1zm0 0l4 2 2 3s2-3 1-4a8 8 0 01-2 0l-2-1h-3zm6 5"/><path class="i" d="M314 239h3l2 1h2c2 0 0 3 0 3-1 2-2-2-3-2a10 10 0 00-3-2h-1z"/><path class="h" d="M316 237l4 2 2 1-2-2c-1-2 0-2-3-1zm0 0a3 3 0 011-1c1 0 2-1 3 1l2 2c0 2-1 0-2 0-1 1-3-1-4-2z"/><path class="i" d="M316 237l4 2 2 1-1-1c-1-1-1-4-3-3l-2 1z"/><path class="e" d="M293 223l-1 3 2-3a3 3 0 001 0h-3zm0 0l1-1c3 0 0 2 0 2l-2 2s-1-4 1-3z"/><path class="k" d="M293 223c-2-1-1 1-1 2 0 3 2-1 2-2 1 0 2-1 0-1l-1 1z"/><path class="e" d="M277 221v3l2-3a2 2 0 001 0h-3zm0 3v-3h2c2 0 0 1 0 1l-2 3v-4z"/><path class="k" d="M277 221v3c0 2 2-2 2-2 0-1 2-1 0-1h-2z"/><path class="h" d="M290 234c1 1-2 2 1 4 2 0 0-4 0-4a5 5 0 00-1 0zm1 0h-1a1 1 0 011 0l2 3-2 1c-3-2-1-3-1-4z"/><path class="i" d="M290 234c1 1-2 2 1 4 1 0 2 0 1-1l-1-3h-1z"/><path class="e" d="M337 241l3-4c1-1 2 0 3 1l1 2c0 1-2 0-3 2-1 1-2 0-2-1h-2zm0 0h2s1 2 2 1c1-2 2-2 3-2l-1-2c-2-1-1-2-2 0l-4 3z"/><path class="k" d="M337 241l3-3c2-2 2-1 3 0l1 1-3 3c-1 2-2-1-2-1h-2z"/><path class="e" d="M318 253c3 2 1 5 3 2 1-1 4 0 3-2h-6zm0 0s0-2 2-1l4 1c2 2-2 2-3 2-2 3-1 0-3-2z"/><path class="k" d="M318 253c2 1 1 5 3 2 1-1 4 0 3-2-1-1-2 1-4-1-1-1-2 1-2 1z"/><path class="e" d="M337 254l3 1c5 0 5 2 3 1h-4c-2-1-3 0-2-2zm0 0v1l4 1h3a18 18 0 00-4-1l-3-1z"/><path class="k" d="M337 254l3 1s6 1 4 2a7 7 0 00-3-1l-4-1v-1z"/><path class="h" d="M376 257l3-1 1 1a9 9 0 003 1l-1 4c-1-1-1-3-4-4l-2-1zm0 0l4 2 2 2 1-3a8 8 0 01-3 0l-1-1h-3zm6 4"/><path class="i" d="M376 257l3-1 1 1 3 1c2 0 0 2-1 3 0 2-1-2-2-2a10 10 0 00-4-2z"/><path class="h" d="M401 242v2l-3 1c-1 0-8 0-6-2l7-2a7 7 0 012 1zm0 0c-3-2-5 0-8 1s2 1 4 2l3-1 1-2z"/><path class="i" d="M401 242l-1 2-5 1c-1 0-6-1-2-2 2-1 6-3 8-1z"/><path class="h" d="M391 259c1-2 6-1 7-1 4-1 0 2-2 2l-5-1zm0 0c5 0 5 1 9-1a5 5 0 00-2 0l-7 1z"/><path class="k" d="M391 259l7-1h2c-4 3-5 1-9 1z"/><path class="h" d="M396 229h8c4 0-1 2-3 2l-5-2zm0 0c5 2 5 3 9 1a4 4 0 00-1-1h-8z"/><path class="k" d="M396 229h7l2 1c-4 2-5 0-9 0v-1z"/><path class="h" d="M420 246h-8c-4 0 1-2 3-2l5 2zm0 0h-1c-4-1-4-2-8 0a4 4 0 001 0h8z"/><path class="k" d="M420 246h-9c4-3 4-1 8 0h1z"/><path class="e" d="M270 251c4 1 12 2 14 1s-1-4-4-4h-4c-6 0-4 0-6 2v1zm0 0v-1c2-2-1-3 6-2h4c3 0 7 3 4 4s-10 0-14-1z"/><path class="l" d="M270 251c7 2 18 2 14-1-3-3-4-2-8-2-7-1-4 0-6 2v1z"/><path class="m" d="M285 251l-1-1c-3-3-4-2-8-2-7-1-4 0-6 2h7c7 4 2-2 6 1a4 4 0 002 0z"/><path class="n" d="M371 242l3-1c1-1 2 1 4 1s2 1 0 1a38 38 0 01-5 0l-2-1zm0 0l2 1h5l-4-2-3 1z"/><path class="l" d="M371 242l3-1c1-1 3 1 4 1 0 0 2 2-1 1a10 10 0 01-2 0h-2a2 2 0 01-1 0l-1-1z"/><path class="n" d="M374 237l-2 3h3l-1-1v-2a2 2 0 000-1v1zm0 0v1l1 2h-3l2-3z"/><path class="l" d="M374 237l-2 3h3l-1-2v-1s-1-2 0 0z"/><path class="n" d="M372 229l4 1 3-1c1 0 3-1 1-1a42 42 0 00-5-1l-3 1v1zm0 0c1-2 3-1 3-1h5a6 6 0 01-1 0l-3 1h-4z"/><path class="l" d="M372 229h7s3-1 0-1a10 10 0 00-2 0l-2-1a2 2 0 00-1 0l-2 2z"/><path class="h" d="M370 243a22 22 0 00-3-1l-3 1a6 6 0 003 1s5 0 3-1zm0 0l-3 1a6 6 0 01-4-1l4-1a9 9 0 013 1z"/><path class="i" d="M370 243l-2-1a3 3 0 00-1 0 15 15 0 00-3 1l1 1a4 4 0 002 0c4 0 4-1 3-1z"/><path class="h" d="M379 253a25 25 0 00-2 2l4 2a2 2 0 001 0l-3-4zm0 0c1-1 6 7 2 4-3-2-8-2-2-4z"/><path class="k" d="M379 253l-3 2 3 1c2 0 3 3 3 0l-3-3z"/><path class="n" d="M303 224c-6-1-9-2-11 5 0 3 0 9 4 8h13c7 1 9-2 9-9 0-3-3-3-6-4a31 31 0 00-9 0zm0 0h9c3 1 7 1 7 4 0 8-3 10-10 9l-4 1c-3 0-5-2-9-1-5 1-4-5-4-8 2-7 5-6 11-5z"/><path class="l" d="M303 224h-7c-4 1-6 15 0 13h10c2 0 12 4 12-8 0-2 1-4-4-4l-11-1z"/><path class="m" d="M303 224a12 12 0 01-1 0c-3 4-3 1-3-1a12 12 0 00-3 1 3 3 0 00-2 1c-1 4 0 12 3 10 2-2 8 2 8-1 0-7 2-9 3-10a18 18 0 00-5 0zm15 9c-1 0-2-1-5 3-2 3-5 0-3-2 0 0 4-7 0-2s-5 0-4-1 0-4 2-7l7 1c4 1 4 2 4 4a14 14 0 01-1 4z"/><path class="o" d="M296 224h3v1c0 2 0 2 2 1a4 4 0 002-1c0 2-2 3-4 3l-1-4a6 6 0 01-2 0zm3 0z"/><path class="n" d="M262 205c-6 0-9-1-11 6 0 2-1 8 4 7 3-1 5 1 9 1h4c6 1 9-2 9-9 0-4-3-3-7-4a30 30 0 00-8-1zm0 0l8 1c4 1 7 0 7 4 0 7-2 10-9 9h-13c-5 1-5-5-4-8 1-7 5-6 11-6z"/><path class="l" d="M262 205h-8c-4 2-5 15 1 13 3-1 6 2 10 1 2-1 12 4 12-8 0-2 0-4-4-4l-11-2z"/><path class="m" d="M262 205a12 12 0 01-1 0c-3 5-4 2-3 0a12 12 0 00-4 0 3 3 0 00-1 1c-1 5-1 13 2 10 3-2 8 2 9-1 0-6 2-9 3-10a18 18 0 00-5 0zm15 10c-1 0-2-1-5 2-2 3-6 1-4-1 1-1 5-7 1-2s-5 0-4-1l2-8 6 2c4 0 4 2 4 4a14 14 0 010 4z"/><path class="o" d="M255 206l3-1v2c0 1 0 2 2 1a5 5 0 002-1l-4 2c-2 0-1-2-1-3a6 6 0 01-2 0zm3 0z"/><path class="n" d="M329 239c-8 0-9-1-9-7 0-4 0-5 4-6h9l7 8c1 1 0 4-4 5h-7zm0 0a41 41 0 006 0c5 0 7-4 5-5l-6-8-10-1c-5 2-5 3-5 7 0 6 2 7 10 7z"/><path class="l" d="M329 239c-5 0-6 0-9-2-1-1-1-9 1-10 6-3 4-1 11-1 4 0 5 5 8 8v3c-2 3-7 2-11 2z"/><path class="m" d="M320 235c-1-3-1-7 1-8 6-3 4-1 11-1a3 3 0 012 0c0 2 0 4 2 4h1a17 17 0 003 4c-4 6-6 1-9 2-4 1-4-2-8 0a3 3 0 01-3-1zm5-7c-4-1-3 5-1 2l2-1-1-1z"/><path class="o" d="M326 226h6c1 1 0 2 2 3l2 1c-2 0-4 0-4-2s-4-2-6-2z"/><path class="n" d="M406 273c-7-1-9-1-9-7 0-4 0-5 5-7l9 1 6 7c1 2 0 5-3 6h-8zm0 0a41 41 0 006 0c5 0 7-4 5-6l-6-8h-10c-4 2-5 3-4 7 0 6 2 7 9 7z"/><path class="l" d="M406 273c-4 0-6 0-8-3-1 0-2-8 0-9 6-3 5-2 12-2 3 0 4 6 7 8v4c-2 3-7 2-11 2z"/><path class="m" d="M397 269l1-8c6-3 5-2 12-2a3 3 0 011 1c1 1 0 3 2 3h1a17 17 0 003 4c-4 7-6 2-9 3s-4-2-7-1h-4zm5-8c-4 0-2 5-1 2h3l-1-2z"/><path class="o" d="M404 260c1-1 4-2 6 0s0 2 1 3l2 1c-2 0-3-1-3-3s-5-1-6-1z"/><path class="n" d="M359 227c-6 1-14-3-16 6-1 3 0 7 4 6 5 0 21 3 24 2 1-1 6-13-2-13l-10-1zm0 0a80 80 0 0110 1c8 0 4 11 2 13s-19-2-24-1c-6 0-5-8-2-11 3-4 10-2 14-2z"/><path class="l" d="M359 227h-12c-6 3-5 14 0 13s22 3 24 0c3-3 5-12-2-12l-10-1z"/><path class="m" d="M347 232c6-2 12 1 4 0 0 0-6 2-5 0h1zm12-5h-12a8 8 0 00-4 7 3 3 0 003 3h6c5 1 8-1 12-4 3-2 9 1 6 1-4 0-9-1-9 5h11c2-3 4-11-3-11l-10-1z"/><path class="o" d="M354 236l7-3c2-1 6-2 8-1a6 6 0 001 1h-1c-2-1-5 0-6 1-4 2-4 2-9 2z"/><path class="e" d="M345 213h10c2 0 14-1 16 1v8c1 4-3 3-7 3l-12 1c-6-1-11 0-11-7 1-4 0-5 4-6zm0 0c-4 2-3 3-3 7 0 6 5 5 10 5h12c4 0 7 1 7-3l-1-8c-1-2-11-1-13-1h-12z"/><path class="k" d="M345 213h8c3 0 16-1 17 1l1 8c0 2 0 3-3 3h-16c-3 0-10 1-11-5l1-3c0-2 0-3 3-4z"/><path class="g" d="M345 213h8c3 0 16-1 17 1l1 8a2 2 0 010 2 40 40 0 01-7 1 4 4 0 01-2-1h-1l-1-3 2-1c1 0 0 0 0 0h3l2-1 2-1h-1a7 7 0 01-4 0l-5 1-3 1-8 1c-2-1-5 0-7-2l1-2c0-2 0-3 3-4z"/><path class="p" d="M342 216c2-2 5-2 8-2l8-2a17 17 0 018 2l1 1-3-1h-13c-4 1-6 0-9 2z"/><path class="e" d="M302 256c1 2 2 9-2 10-5 0-26-1-26-7 0-1-1-5 1-6 3-1 23 1 27 2a8 8 0 010 1zm0 0a5 5 0 000-1c-4-1-24-4-27-2-2 1-2 5-2 6 0 7 22 7 27 7 4 0 3-8 2-10z"/><path class="l" d="M302 256c1 2 2 10-2 10-5 0-27 0-27-7 1-7 0-7 14-6l15 2a6 6 0 010 1z"/><path class="m" d="M302 256l1 2a1 1 0 01-1 1c-4-1-1 4-7 0-6 2-5 0-10-2-2-1-6 5 0 3h5c2 0-2 2-5 3v2c-6-1-12-3-12-6 1-6 0-7 6-7 0 1 0 2 3 1h5l15 2a6 6 0 010 1zm1 5c-1-1-2-2-4-1-2 3-4 1-4 1 1 6 2 4-2 5h7c2 0 3-2 3-4z"/><path class="o" d="M275 255c4-4 3-1 5-1l4-1a57 57 0 0111 2l-13-1-2 1c-3-1 0-3-5 0z"/><path class="h" d="M318 267c1-3 2-11-1-13-2-2-3 0-6 0s-4-1-6 2c-3 7 3 13 10 11zm0 0l-3 1c-7 1-13-5-10-13 1-3 3-2 6-2s5-1 7 2 1 8 0 12z"/><path class="i" d="M318 267c2-3 3-16-5-13-3 1-7-5-9 4-1 8 7 12 14 9z"/><path class="j" d="M319 258c0-3-2-6-6-4-3 1-6-4-8 2 2 0 3-2 3 5-1 3-3 0-4-1a7 7 0 002 5 4 4 0 004-2c2-3 8-1 9-5z"/><path class="q" d="M309 263a10 10 0 016-3l3-2v1l-5 3-4 1z"/><path class="h" d="M348 268c0-2 4-10-1-10l-13-2h-8c-4 0-4-1-5 4 0 2-1 6 1 6l6 1h11s8 2 9 1zm0 0c-1 1-8-1-9-1h-18v-9c1-3 2-3 5-3l7 1 14 2c5 0 2 8 1 10z"/><path class="i" d="M348 268c1-3 3-10-1-10l-13-2-8-1c-2 1-5-1-5 5 0 5-2 7 4 7 3 0 11 2 14 0 1 0 8 2 9 1z"/><path class="j" d="M349 263c1-3 1-5-2-5l-13-2-8-1c-2 1-5-1-5 5v3c1 1 2 2 3 1 3-2 12 1 12 0 2-2 3-1 1-3-4-2-3 0-4-3-2-4 8 5 9 4 4-3 6 1 7 1z"/><path class="q" d="M338 259l3 2c1 0 6-1 6 1-2-2-3 1-6 0l-3-3z"/><path class="h" d="M383 262l2 8s8 3 9 1 2-9 0-10c-1-1-12-5-11 1zm0 0c-2-5 8-3 12-2 2 2 1 9 0 11s-8 0-10-1c-2 0-2-6-2-8z"/><path class="i" d="M383 262l1 6 1 2 9 2 2-6c0-2 0-5-2-6-8-2-12-1-11 2z"/><path class="j" d="M394 269l1-3c0-1 1-5-2-5-6-3-10-2-10 0l1 5c0 2 6 4 7 2 0 0 2-2 1 1h2z"/><path class="q" d="M386 261l4-1a8 8 0 014 3l-2-1-6-1z"/><path class="e" d="M402 246c0 2 0 10-3 10l-7 1h-7c-2 0-3-2-5-3-5-6-1-10 6-9l12 1a12 12 0 004-1 3 3 0 000 1zm0 0v-1a15 15 0 01-4 1l-12-2c-8-1-12 4-6 10 1 2 3 3 5 3h7c4 1 4-1 7-1s3-8 3-10z"/><path class="k" d="M402 246c0 2 0 10-3 10-2 0-2 2-9 1s-5 1-10-3c-4-5-3-9 3-10l14 2 5-1z"/><path class="g" d="M402 246l-1 8-1-1-6 1c-3 0-6-2-9 0-4 5-6-7-5-8 4-3 4-1 6-1l11 1 5-1z"/><path class="p" d="M380 247c4-3 3-1 5-1h3a47 47 0 0110 1h-13c-3 0-1-2-5 0z"/><path class="h" d="M317 210h-6c-2 0-7-1-8 1l-2 3c-1 1-1 6 1 7 4 3 7 1 12 1a69 69 0 0111 1c2 1 7 1 8-1v-10c-1-2-6-2-8-2a52 52 0 00-8 0zm0 0a40 40 0 018 0c2 0 7 0 8 2v11c-1 2-6 1-8 1a73 73 0 00-11-1c-5 0-8 1-12-2-2-1-2-6-1-7l1-3c2-2 7-1 9-1h6z"/><path class="i" d="M317 210l-4 1-4-1c-3 0-6-1-7 3-1 1-2 0-1 4 0 4 0 4 2 5 5 2 7 0 11 1l11 1a23 23 0 006 0c3-1 2-3 2-5v-3c0-5 0-5-6-6h-10z"/><path class="j" d="M311 210a16 16 0 00-2 0c-3 0-6-1-7 3 0 2 1 4 3 4 3 0 6 2 9 1l2-3h6c3 2 8-1 11-1 0-3-1-3-6-4h-5c-4 2-5 3-11 0zm19 14a6 6 0 01-2-1c-6-4-10-2-16-1-1 0-9-2-8-4 4-1 3 2 9 2 5-1 1-4 11-3h9v2c0 2 1 4-2 5z"/><path class="q" d="M332 214c0-2-1-3-3-3l-8 1a17 17 0 01-6 0l6-1 6-1c2 0 6 0 5 4z"/><path class="h" d="M260 233h6c2 0 7 1 8-1l1-3v-7c-5-3-8-1-13-1a68 68 0 01-11-1c-1-1-7-1-7 1v10c1 2 5 2 7 2a53 53 0 009 0zm0 0a42 42 0 01-9 0c-2 0-7 0-7-2l-1-11c1-2 7-1 8-1a75 75 0 0011 1c5 0 8-1 13 1 1 2 2 7 0 8l-1 3c-1 2-6 1-8 1h-6z"/><path class="i" d="M260 233l4-1 4 1c3 0 6 1 7-3l1-4c0-4 0-4-3-5-4-2-7 0-11-1l-11-1a23 23 0 00-6 0c-2 1-1 3-1 5v3c-1 5-1 5 5 6h11z"/><path class="j" d="M266 233a15 15 0 002 0c3 0 6 1 7-3l-3-4c-4 0-6-2-9-1l-3 3h-6c-2-2-7 1-10 1-1 3 0 3 5 4h6c3-2 4-3 10-1l1 1zm-19-14a6 6 0 012 1c5 4 9 2 15 1 2 0 9 2 9 4-4 1-4-2-10-2-5 1 0 4-10 3h-9v-2c0-2-1-4 1-5h2z"/><path class="q" d="M245 229c0 2 0 3 3 3l8-1a17 17 0 016 0l-6 1h-6c-2 0-7 1-5-3z"/><path class="e" d="M306 238h-10c-4 0-6 2-7 7 0 3 0 7 4 7h3c4 1 5 2 10 0 3-1 11 1 12-1 5-11-4-11-11-13a2 2 0 00-1 0zm0 0a1 1 0 011 0c7 2 16 2 11 13-1 2-9 0-12 1-4 3-6 2-11 1l-2-1c-5 0-5-4-4-7 1-5 2-7 7-7h10z"/><path class="k" d="M306 238c-8 2-14-3-16 3-2 4-3 12 4 11 1 0 7 4 12 0 2-1 11 1 12-1 5-12-5-11-11-13a4 4 0 00-1 0z"/><path class="g" d="M305 238h-1a28 28 0 01-4 8 20 20 0 01-3 3l2-3a19 19 0 004-8c-7 1-11-2-13 3-4 11 3 14 11 6 2-2 3-7 5-3l3 8h3c-2-2 1-8 0-11s-6-1-7-3zm-4 16c1-3 4-8 4-1a9 9 0 01-4 1zm16-13c4 5 0 10-2 8-3-4-2-8-1-9a10 10 0 013 1z"/><path class="p" d="M291 240c-1-2 5-1 5-1a23 23 0 004-1h4l-4 1h-7l-2 1z"/><path class="k" d="M289 250l9-7c3-2 2-3 3-5a6 6 0 01-2 4l-2 3c-2 3 1 3-1 7v-6c-2 2 1 3-1 6 1-3-1-4 1-6l2-3-9 7zm12-12z"/><path class="e" d="M382 264l-1 6c-3 2-13 0-17 1-3 0-11 2-11-4 0-4 0-3 5-5 2-1 6-4 9-4 3-1 11 0 14 3a5 5 0 011 3zm0 0c0-2 0-3-2-4-3-3-12-3-15-2l-12 6v4c1 5 8 3 11 3 4 0 14 1 17-1 2 0 1-5 1-6z"/><path class="k" d="M382 264c-1 1 1 6-1 6-2 2-8 1-11 1h-9c-3 1-8 0-8-4 0-3-1-3 3-5l11-5c4 1 15 0 15 7z"/><path class="g" d="M353 264a14 14 0 013-2l11-5c3 1 12 0 14 5 0 3 1 4-6 5-5 1-4-1-10-1l-11-2h-1z"/><path class="p" d="M359 261c4-2 15-5 19-1h-1c-4-3-13 0-18 1z"/><path class="e" d="M362 259c0 1 2 5 4 6 2 2 3 9 1 3 0-2-3-3-4-5-2-3 0-3-2 2l1-4v-2zM372 226l1-9c1-4 4-3 8-3l19 1v7c1 3 1 6-2 6l-14-1s-12 1-12-1zm0 0l13 1 13 1c3 0 2-3 2-5l-1-7c0-2-14-1-16-1-7 0-10-3-11 5v6z"/><path class="k" d="M372 226l1-9c1-4 3-3 7-3l12 1c1 0 7-1 7 1l1 7c1 1 1 5-2 5a175 175 0 00-18-1l-8-1z"/><path class="g" d="M379 214h13l7 1a8 8 0 011 2l-2 2c2 3 2 3 1 6-2 3-4 1-5 0 0-4-3-1-6 1l-13-1c-2-1-2-2-2-5 0-4 2-4 2-4l4-2zm0 4a8 8 0 012 0l1-1a2 2 0 01-2-1s-6 3-1 2zm14 6c-1 0-3 0-3 2 0 0 3 1 3-1v-1z"/><path class="p" d="M385 215l12 2h-1l-11-2z"/><path class="k" d="M372 222a6 6 0 002-1c2-2 5-2 5-1-1 0-3-1-4 1l-3 2v-1z"/><path class="e" d="M244 263l1-9c1-4 4-3 8-2 3 0 18-1 19 1v7c1 2 1 6-2 5h-14s-12 0-12-2zm0 0c0 2 11 1 12 1l14 1c3 0 2-3 2-5l-1-7-16-1c-7 0-10-3-11 5v6z"/><path class="k" d="M244 263l1-9c1-4 3-3 7-2h12l7 1 1 7c1 1 1 6-2 5a175 175 0 00-18-1c-1 0-8 1-8-1z"/><path class="g" d="M251 252h13l7 1a8 8 0 011 1l-2 3c2 3 2 2 1 5-2 4-4 2-5 0 0-4-4-1-6 1-1 1-12 0-13-1-2-1-2-2-2-4 0-5 2-5 2-5l4-1zm0 3a8 8 0 012 0c2 0 1-1 1-1a1 1 0 01-2-1s-6 3-1 3zm14 6c-1 0-3 0-3 2 0 0 3 1 3-1v-1z"/><path class="p" d="M257 253c0-2 11 0 12 1h-1l-11-1z"/><path class="k" d="M244 260a6 6 0 002-2c2-2 5-1 5-1-1 0-3-1-4 1l-3 2zM362 259c0 1 2 5 4 6 2 2 3 9 1 3 0-2-3-3-4-5-2-3 0-3-2 2l1-4-1-1 1-1z"/></g></svg>