<svg xmlns="http://www.w3.org/2000/svg" xmlns:xlink="http://www.w3.org/1999/xlink" viewBox="0 0 1501 1001"><defs><radialGradient id="b" cx="661.4" cy="1270.7" r="51.8" gradientTransform="matrix(0 1 1 0 -888 -389)" gradientUnits="userSpaceOnUse"><stop offset="0" stop-color="#c0a373"/><stop offset="1" stop-color="#fff" stop-opacity="0"/></radialGradient><linearGradient id="a" x1="1391.8" y1="1220.1" x2="1391.8" y2="1125.4" gradientTransform="matrix(1 0 0 -1 -146 1444)" gradientUnits="userSpaceOnUse"><stop offset="0" stop-color="#a0edf0"/><stop offset="1" stop-color="#45dbe2"/></linearGradient><style>.c{isolation:isolate}.b{fill:#70b344;stroke:#5f732e}.al,.ax,.ay,.b,.bb,.bc,.be{stroke-miterlimit:10}.c{opacity:.25}.d{fill:#5c4328}.bb,.bc,.be,.d,.e,.f,.g,.h,.i,.j,.k,.l,.m,.n,.o,.p,.q{fill-rule:evenodd}.e{fill:#544730}.f{fill:#877657}.g{fill:#ae9c87}.h{fill:#68543c}.i{fill:#9d8264}.j{fill:#b49871}.k{fill:#8f7e5f}.l{fill:#857c68}.m{fill:#a59b84}.n{fill:#67604f}.o{fill:#bdb29a}.p{fill:#c1b09a}.q{fill:#cdb186}.s{fill:#ddc02c}.t{fill:#78a015}.ao,.u{fill:#7ebb15}.v{fill:#94d31a}.w{fill:#897d6f}.x{fill:#635a52}.z{fill:#91887b}.ad{fill:#8ab550}.ae{fill:#97c261}.af{fill:#a9d171}.ag{fill:#b3db7b}.ah{fill:#dcf5f5}.ai{fill:#f2ffff}.aj{fill:#fff}.ak{fill:#fddfb3}.al{fill:#1d150c}.al,.ax,.ay,.bb,.bc,.be{stroke:#1d150c}.am{fill:#81a653}.ar{mix-blend-mode:multiply}.ao{mix-blend-mode:screen}.ap{fill:#bdbdbd}.aq{fill:#d9d9d9}.ar{fill:#cfcfcf}.as{fill:#cbcbcb}.au{fill:#c6c6c6}.av{fill:#e8e8e8}.ax,.ay{fill:#3f2b0f}.ay{stroke-width:1.14px}.bb,.bc{fill:#571c10}.bc{stroke-width:1.04px}.be{fill:#c0a373}</style></defs><g style="isolation:isolate"><path class="b" d="M1001 501h250v250h-250zM1251 251h250v250h-250zM1001 251h250v250h-250zM1001 1h250v250h-250zM1251 1h250v250h-250zM751 251h250v250H751zM751 1h250v250H751zM751 501h250v250H751zM501 251h250v250H501zM251 251h250v250H251zM501 501h250v250H501zM251 501h250v250H251zM751 751h250v250H751zM251 751h250v250H251zM1001 751h250v250h-250zM501 1h250v250H501zM1251 501h250v250h-250zM1251 751h250v250h-250zM501 751h250v250H501zM251 1h250v250H251zM1 1h250v250H1zM1 751h250v250H1zM1 251h250v250H1zM1 501h250v250H1z"/><use class="c" transform="matrix(.07 .05 -.05 .07 790 248)" xlink:href="#c"/><path class="d" d="M913 385c1-4 3-7 5-9l6-10 5-9a13 13 0 00-2-10c-4-7-11-9-17-13a76 76 0 01-10-6 33 33 0 00-4-4 39 39 0 00-6-2 23 23 0 01-4-3l-6-4-8-6a4 4 0 00-1-1l-20-13-10-7-10-5a4 4 0 00-1 0 31 31 0 00-5-4 35 35 0 01-5-4 38 38 0 00-6-5l-6-3-6-4-5-2a6 6 0 01-2 1l-5 6c-2 1-6 2-7 0h-1a8 8 0 010 2 22 22 0 01-3 4c-2 3-2 6-3 10a2 2 0 01-2 1l-1 1a2 2 0 010 2 10 10 0 01-4 2 30 30 0 00-3 3 12 12 0 00-2 3 19 19 0 00-2 5 5 5 0 004 3 22 22 0 019 4l9 7c6 6 13 10 20 14l21 14 42 27 21 14 11 6a8 8 0 005 2 8 8 0 005-3l1-2a3 3 0 003-2z"/><path class="e" d="M826 278c-4-3-7-6-9-2l-4 5c-2 2 5 6 7 7 1 1 9 7 10 5 1-1 6-6 5-8-1-3-5-4-7-5zm0 0l2 2c3 1 6 2 7 5 1 2-3 7-4 9-2 2-10-4-11-5-2-2-9-6-8-8s3-2 4-5c3-4 6-1 10 2z"/><path class="f" d="M826 278c-4-2-7-6-10-2-3 6-8 4 3 12 2 1 10 7 12 5l3-5c2-2 2-3 0-5a8 8 0 00-4-2 43 43 0 01-4-3z"/><path class="g" d="M826 278l-7-4a3 3 0 00-2 2l-1 4c0 2-1 3 3 5 1 1 5 6 7 5s0 6 5 1l3-7v-1a8 8 0 00-4-2 44 44 0 01-4-3zm5 6l-1 1-2-2 3 1zm-1 5l-1 1c0-3 1-1 1-1zm-15-9l1 4c-1 2-3-1-2-2l1-2z"/><path class="h" d="M862 306l-4 8c0 1 3 5 5 3 1-1 6-7 6-9s-4-8-7-2zm0 0c2-5 7-1 7 1 1 2-5 9-6 11-2 2-4-2-5-3l4-9z"/><path class="i" d="M862 306l-3 6-1 3c1 1 1 3 4 3l4-5c1-1 4-5 3-6-2-4-5-4-7-1z"/><path class="j" d="M868 311l1-4c-2-3-3-4-5-3a13 13 0 01-1 2l-3 5c-2 3 0 3 1 4a2 2 0 002 1l3-3a21 21 0 002-2z"/><path class="h" d="M774 282l-6 7s2 6 4 4c2-1 8-6 8-8 0-1-2-8-6-3zm0 0c3-5 7 0 7 3 0 2-7 7-9 8-2 2-3-2-4-3 0-2 5-7 6-8z"/><path class="i" d="M774 282l-4 5-2 2c1 2 1 4 3 5l6-5c1-1 4-3 3-5-1-4-3-5-6-2z"/><path class="j" d="M779 288c1-2 2-3 1-4 0-3-2-4-4-4a17 17 0 01-1 2l-4 5c-3 2-1 2-1 3a2 2 0 003 2l3-2a21 21 0 003-2z"/><path class="e" d="M845 341c-7-3-6-5-12-9-3-2 9-13 12-7l3 2c1 1 6 4 5 6l-4 5-4 3zm0 0l3-3 5-5-2-3-6-5c-3-5-14 5-12 7 6 3 6 6 12 9z"/><path class="k" d="M845 341c-6-3-7-6-12-9-2-2 9-13 12-6l6 4c3 3 4 2-2 7l-4 4z"/><path class="g" d="M834 329c2-3 9-9 11-3l6 4c2 2 3 2 2 3-4-2-4 0-4 1a3 3 0 002 2l-1 1a31 31 0 01-3 3 5 5 0 01-2-2c0-1 3-7-1 0-4-2 0-5 0-6 4-6 0-3-2-2-7 4 2-2 2-3 0-2-4 1-4 1-4 3-6 2-6 1z"/><path class="h" d="M871 359c-3-2-10-4-6-8l3-4c2-4 4-1 7 0 2 1 12 4 10 7-1 1-4 8-6 7a29 29 0 01-4-1l-4-1zm0 0l4 1 4 1c2 0 6-6 6-8 1-2-9-5-11-6-7-4-3 0-8 3-5 5 1 6 5 9z"/><path class="i" d="M871 359c-2-1-11-4-5-9 4-2 1-7 8-3 2 1 12 4 11 6-6 12-5 8-13 6a5 5 0 01-1 0z"/><path class="j" d="M876 348l3 1a6 6 0 01-2 2c0 1 1 5 6 0l2 2-1 2a19 19 0 00-3 3c-2 2-6 2-8-1-1-1-10-2-5-5 0-3 0-4 4-4 1-2 0 1 4 0z"/><path class="h" d="M915 369c-3-1-10-4-6-8l4-4c1-3 3-1 6 1 2 0 12 3 11 6-1 2-4 8-7 8a31 31 0 01-4-2l-4-1zm0 0l4 1c1 0 3 2 5 1l5-7c1-2-9-6-11-7-7-3-3 0-7 4-6 4 0 6 4 8z"/><path class="i" d="M915 369c-1-1-11-4-4-9 3-2 1-7 7-3 3 2 13 4 11 7-6 11-4 7-13 5a5 5 0 01-1 0z"/><path class="j" d="M920 358l4 1a6 6 0 01-2 2c-1 1 1 5 6 1v-1c1 1 2 2 1 3l-1 2a19 19 0 00-3 2c-2 3-6 2-8-1 0 0-10-2-5-5 0-3 1-3 5-3 0-3 0 0 3-1z"/><path class="e" d="M804 309c7-4 8-5 0-11-6-4-6-2-9 2l-1 3c1 3 8 6 10 6zm0 0c-2 1-10-4-10-5a1 1 0 010-1c-1-2-1-2 1-4 3-3 3-6 9-1 8 6 7 7 0 11z"/><path class="l" d="M804 309c4-2 9-4 3-9-9-7-8-5-13 0v4c0 1 8 6 10 5z"/><path class="m" d="M809 306c1-1 2-3-2-6-8-6-8-5-11-1 5 4 1 4 6 6l3 1h4zm-3-4c1 0 1 2-1 1-6-5-3-5 1-1z"/><path class="e" d="M914 382c6-4 8-5-1-11-6-4-5-2-9 2l-1 3c1 3 8 6 11 6zm0 0c-3 1-11-4-11-5a1 1 0 010-1c-1-2 0-2 1-4 3-3 3-6 9-1 9 6 8 7 1 11z"/><path class="l" d="M914 382c3-2 8-4 2-9-9-7-8-5-13 0v4c0 1 8 6 11 5z"/><path class="m" d="M918 379c1-1 2-3-2-6-8-6-8-5-11-1 5 4 1 4 6 6l3 1h4zm-3-4v1c-7-5-4-5 0-1z"/><path class="e" d="M853 337c3 2 9 7 13 7 2 0 0-5-2-6l-3-2c-6-4-4-2-7-1l-1 2zm0 0v-2c4-1 2-3 8 1l3 2c3 2 5 7 1 6s-9-5-12-7z"/><path class="k" d="M853 337c5 5 15 11 14 5-2-4-3-4-6-6-6-4-4-2-7-1l-1 2z"/><path class="g" d="M867 344v-2c-2-4-3-4-6-6-6-4-4-2-7-1l6 4c4 7 3-1 5 3a4 4 0 002 2z"/><path class="h" d="M815 290c-4 0-4-4-7-1l-3 4c-2 2 3 4 4 5 3 3 4 5 8 1l4-6c-1-2-5-2-6-3zm0 0c1 0 6 1 6 3l-4 6c-3 4-5 2-8 0-1-1-6-4-5-6l4-4c3-3 3 0 7 1z"/><path class="j" d="M815 290c-4 0-4-5-8 0 0 2-7 3 1 8 2 1 5 8 11-2 1-3 5-4-3-6h-1z"/><path class="i" d="M815 290c-3 0-4-4-6-1a5 5 0 01-1 0l-1 1-2 2c1 3 8 5 8 8l4-1a19 19 0 002-3 3 3 0 00-3-2c-2-1-1-2-1-4z"/><path class="e" d="M789 304c-7-3-6-5-11-8-3-2 8-13 11-7l3 2s5 3 5 5l-5 5c-1 2-1 3-3 3zm0 0l3-3 5-5c1-1-2-2-3-3l-5-4c-3-6-13 5-11 6 5 4 5 6 11 9z"/><path class="l" d="M789 304c-6-2-7-6-11-9-3-1 9-13 11-6l5 4c3 3 4 2-1 7-1 2-2 4-4 4z"/><path class="m" d="M783 288c2-1 5-2 6 1l5 4c3 2 4 2 1 5a7 7 0 01-1-1c-2-2-5-2-6-1-4 2-2-1-4 1 0 0-3-3-2-5l1-4zm10 12a16 16 0 00-2-2c-2-1-2 1-4 2-1 0-1 2 2 2a14 14 0 002 1l2-3z"/><path class="n" d="M898 358l-11-8 2-8c4-4 12 2 15 4 2 2 10 7 8 10l-3 5-7-2-4-1zm0 0l4 1c2 1 6 3 7 2a56 56 0 003-5c3-4-11-13-14-14-7-4-11 0-11 8l11 8z"/><path class="l" d="M898 358l-11-8s0-15 13-7c3 2 15 10 12 13-4 6-1 6-9 3l-5-1z"/><path class="m" d="M887 347c1-3 3-9 11-5l1 1a3 3 0 003 2c4 2 11 7 11 10-3 0 0 7-12 2-4-2-1-3 0-4 5-3-3 1-3 1-6 0-2-7-7-6-2 1-3 0-4-1z"/><path class="e" d="M848 342c3 4 10 11 13 11s3-6 0-8l-3-3c-6-6-4-3-9-2l-1 2zm0 0l1-2c5-1 3-4 9 1l3 3c3 3 4 11 0 9s-10-7-13-11z"/><path class="k" d="M848 342c5 7 16 16 15 8 0-6-2-5-5-9-6-5-4-2-9-1l-1 2z"/><path class="g" d="M863 350c0-6-2-5-5-9l-2-1a2 2 0 01-1 0 2 2 0 00-4 1c0 4 7 2 9 7-2 2-5-2-6-3-1 2 7 7 7 7 1 1 2-1 2-2z"/><path class="e" d="M918 352c3 3 9 9 12 5 2-2 0-11-2-13l-3-1c-5-3-3-1-7 4v5zm0 0v-5c3-5 1-8 7-5l3 2c3 1 5 13 1 14s-8-3-11-6z"/><path class="k" d="M918 352c5 6 15 11 13-1-2-9-3-6-6-9-6-3-3 1-7 5v5z"/><path class="g" d="M931 351c-2-9-3-7-6-9a16 16 0 00-2 0l-1 1c-1-1-2 4-2 4 0 7 5-3 8 3-1 5-4 2-5 1 0 4 7 4 7 4l1-4z"/><path class="h" d="M867 321l-2-4c-1-1-1 1-1 2l-2 1 3 1 2 1a3 3 0 001 0l-1-1zm0 0a1 1 0 001 0c2 1-1 2-2 0h-3c-3-1 0-2 1-2 0-1 0-4 1-2l2 4z"/><path class="i" d="M867 321l-2-4c-1-2-1 2-1 2l-2 1 3 1 1 1c1 0 4 0 2-1a1 1 0 01-1 0z"/><path class="h" d="M866 322l-1 1c-3 1-5 4-6 0 0-2-1-3 2-3s-2 1 3 1l2 1zm0 0a3 3 0 00-1 0c-1 0-4 0-4-2 0 0-2-1-1 1s-1 5 2 3l4-2zm0 0z"/><path class="i" d="M866 322h-1c-1 0-4-1-3-2 0 0-4-1-2 1 0 1-1 6 3 3a22 22 0 013-2z"/><path class="h" d="M842 304l6 4c4 2-1 2-3 0l-3-3a1 1 0 010-1zm0 0v1c3 3 3 4 7 4a4 4 0 00-1-1c-1 0-4-4-6-4z"/><path class="k" d="M842 304l6 4 1 1c-4 0-4-1-7-4v-1z"/><path class="h" d="M779 290l-5 5c-3 3-1-2 0-3l4-3 1 1zm0 0l-1-1c-4 3-4 3-5 7a4 4 0 001-1l5-5z"/><path class="k" d="M779 290l-5 5-1 1c0-5 2-4 5-7l1 1z"/><path class="h" d="M873 343c2 1 2 1 0 2s-3-3-6-5c-1-1-3-4 1 0l5 3zm0 0a21 21 0 01-4-4c-5-4-4 0-2 1l4 5c2 2 6-1 2-2z"/><path class="k" d="M873 343c1 0 3 1 1 2-3 2-4-3-7-5-2-1-3-5 2 0a18 18 0 004 3z"/><path class="h" d="M866 345a22 22 0 00-3 0l1 5a3 3 0 001 0l1-5zm0 0c1 1-1 9-2 4 0-3-4-7 2-4z"/><path class="k" d="M866 345l-3-1v3c2 2 1 5 2 3l1-5z"/><path class="h" d="M912 383a19 19 0 00-3 0c1 2 2 1 2 5 1 0 2-4 1-5zm0 0c2 1-1 9-2 4 0-3-3-7 2-4z"/><path class="k" d="M912 383l-3-1 1 3c1 2 0 5 2 3v-5z"/><path class="h" d="M855 352v3c-1 1 1 1 2 2 0 0 7 1 5-1l-5-4a5 5 0 00-2 0zm0 0c3-1 4 2 6 4 3 2-2 1-3 0-2 0-2 1-3-1v-3z"/><path class="i" d="M855 352v3c1 2 2 1 4 2 1 0 5 1 2-2-1-1-3-4-6-3z"/><path class="e" d="M791 288l7 4 5 4c-1 1-12-6-13-8h1zm0 0h-1c1 2 12 9 13 8l-4-3a22 22 0 00-1-2l-7-4z"/><path class="l" d="M791 288l7 4a18 18 0 004 3c2 1 2 2-3 0-1-1-9-5-9-7 0 0-2-1 0-1l1 1z"/><path class="h" d="M813 305a23 23 0 00-1-3c-2 2 0 2-3 5a2 2 0 000 1l4-3zm0 0c1 1-6 6-4 1 2-2 2-7 4-1z"/><path class="k" d="M813 305l-2-3v2c-1 3-4 4-1 4l3-3z"/><path class="h" d="M803 313a21 21 0 002 3l2-6a4 4 0 001-1l-5 4zm0 0c-1-1 8-8 4-2-1 3-2 9-4 2z"/><path class="k" d="M803 313l2 3 1-3c1-2 4-5 1-4l-4 4z"/><path class="n" d="M812 287h4l4 2c1 1 2 2 0 1a50 50 0 01-6-1s-2 0-3-2a1 1 0 011 0zm0 0a394 394 0 009 3 7 7 0 00-1-1l-4-2h-4z"/><path class="l" d="M812 287h4c1-1 3 2 4 2 0 0 3 2-1 1a14 14 0 01-2 0l-3-1a3 3 0 01-1 0c-1 0-2-1-1-2z"/><path class="e" d="M806 297l4 3c2 1 0 3-2 1l-1-1s-4-3-2-4l1 1zm0 0h-1l3 3c1 1 1 2 2 1v1l-1-1-3-4z"/><path class="k" d="M806 297l3 4c1 0 2 2-1 0 0-1 1-1-1-2l-2-1c-2-1 0-2 1-1z"/><path class="e" d="M777 297l4 3c1 1 0 2-1 0l-2-1s-4-3-2-3l1 1zm0 0l-1-1c-2 0 4 3 4 4l1 1v-1c-2-1-2-3-4-3z"/><path class="k" d="M777 297c2 0 2 2 4 3 1 0 1 2-1 0l-1-1a25 25 0 00-2-2c-2-1-1-2 0 0z"/><path class="h" d="M784 283a45 45 0 00-3 5c1 0 3-3 6-2l-2-2-1-1zm3 3zm-3-3l3 2v1c-3 0-3 1-5 2-3 1 2-5 2-5z"/><path class="i" d="M784 283l-2 3s-2 3 0 2l5-2v-1l-3-2z"/><path class="h" d="M834 317l3 1 1 2a9 9 0 001 2c2 1-2 3-2 3l-2-6-1-2zm0 0c-1 1 2 2 3 4v3l2-2a9 9 0 01-2-2l-1-2-2-1zm3 7"/><path class="i" d="M834 317l2 1 1 2 2 2c1 1-1 2-2 2-1 1 0-2-1-3a10 10 0 00-2-3v-1z"/><path class="h" d="M837 317l2 3 1 1-1-2c0-2 1-2-2-2zm0 0a3 3 0 011 0c1 0 2-1 2 1l1 3c-1 2-2 0-2 0l-2-4z"/><path class="i" d="M837 317l1 3 2 2v-2c-1-1 1-3-1-3h-2z"/><path class="e" d="M823 292l-2 3 3-2a2 2 0 001 0l-2-1zm-2 3l2-3 1 1c3 1 0 1 0 1l-3 1s1-4 2-3z"/><path class="k" d="M823 292c-1-1-1 1-2 2-1 2 3 0 3 0 1-1 2 0 0-1l-1-1z"/><path class="e" d="M811 284c-1-1-2 1-2 2l3-1a2 2 0 001 0l-2-1zm-2 2l2-2h1c3 1-1 1-1 1s-2 2-3 1c0 0 2-4 3-2z"/><path class="k" d="M811 284c-1-1-2 1-2 2-1 2 2-1 2-1 1 0 3 0 1-1h-1z"/><path class="h" d="M816 301c0 1-3 1-1 4 1 1 1-4 1-4zm0 0v3a1 1 0 01-2 1c-1-3 1-3 2-4z"/><path class="i" d="M816 301c-1 1-3 1-1 4 0 0 1 1 1-1v-3z"/><path class="e" d="M853 330l4-1c2-1 2 0 2 2v2h-3c-1 1-2-1-2-2l-1-1zm0 0c-1 1 1 1 1 1l2 2 3-1v-1l-1-2-5 1z"/><path class="k" d="M853 330l4-1c2-1 2 0 2 2v1l-3 1c-1 1-2-2-2-2l-1-1z"/><path class="e" d="M830 332c2 2-1 4 2 3 1-1 3 1 3-1 0 0-2 0-3-2 0-2-2-1-2 0zm0 0c0-1 1-2 3 0l2 2c1 3-2 1-3 1-3 2-1 0-2-3z"/><path class="k" d="M830 332c2 2-1 5 2 3 1-1 3 2 3 0s-2-1-3-3c0-2-2-1-2 0z"/><path class="e" d="M846 342l3 2c3 3 3 5 1 3l-2-3c-2-1-3-1-2-2zm0 0v1l3 2 2 2a18 18 0 00-3-3c-1-1-1-3-2-2z"/><path class="k" d="M846 342c1-1 1 1 3 2 0 0 4 4 2 3a7 7 0 00-2-1l-3-3v-1z"/><path class="h" d="M879 363l2 1 1 2a10 10 0 002 1c1 1-2 4-2 3l-2-5-1-2zm0 0c-1 1 2 2 3 4v3l2-2a8 8 0 01-2-2l-1-2-2-1zm3 7"/><path class="i" d="M879 363l2 1 1 2 2 2c1 1-1 2-2 2-1 1 0-2-1-3a10 10 0 00-2-3v-1z"/><path class="h" d="M908 363l-2 2-2-1c-1 0-7-5-5-5l8 2a7 7 0 011 2zm0 0v-1c-2-2-4-2-7-2-4-1 1 2 2 3l3 2 2-2z"/><path class="i" d="M908 363l-2 2-5-3s-4-3 0-2c1 0 6 0 7 2v1z"/><path class="h" d="M891 372l7 3c3 2-1 2-3 1l-4-3v-1zm0 0v1c4 2 4 3 8 3a5 5 0 00-1-1l-7-3z"/><path class="k" d="M891 372l6 3 2 1c-4 1-5-1-8-3v-1z"/><path class="h" d="M910 349c1-1 5 3 7 4 3 2-2 2-4 0l-3-4zm0 0v1c3 3 3 4 7 4a4 4 0 00-1-1c-1-1-4-4-6-4z"/><path class="k" d="M910 349l6 4 1 1c-4 0-4-2-7-4v-1z"/><path class="h" d="M922 376l-7-4c-3-2 2-2 4 0l3 3v1zm0 0v-1c-3-3-3-4-7-4a4 4 0 001 1c1 1 4 4 6 4z"/><path class="k" d="M922 376l-6-4-1-1c4 0 4 1 7 4v1z"/><path class="e" d="M790 306l12 8c2 0 0-4-2-6l-4-2c-5-3-3-2-6-1v1zm0 0v-1c3-1 1-3 6 1l4 2c2 2 4 7 1 6l-11-8z"/><path class="l" d="M790 306c5 5 14 11 12 6-1-4-2-4-6-6-5-4-3-1-6-1v1z"/><path class="m" d="M803 314l-1-2c-1-4-2-4-6-6-5-4-3-2-6-1l6 3c4 7 2 0 5 4a4 4 0 002 2z"/><path class="n" d="M882 347l3 1 2 3v2a34 34 0 01-4-3s-2-1-1-2a1 1 0 010-1zm0 0a440 440 0 006 5 5 5 0 00-1 0l-2-3-3-2z"/><path class="l" d="M882 347l3 2c1-1 1 2 2 3 0 0 2 2-1 0a9 9 0 01-1-1l-2-1-1-1v-2z"/><path class="n" d="M887 345l-3 2h1l1 2v-2l1-2a2 2 0 000-1v1zm0 0v1 2c-1 2-2 0-2 0l-1-1 3-2z"/><path class="l" d="M887 345l-3 2 1 1h1l1-2v-1z"/><path class="n" d="M890 337l2 3 4 1c2 1 2 0 1-1a44 44 0 00-5-3h-2zm0 0h2l5 3a6 6 0 01-1 0l-4-1-2-2z"/><path class="l" d="M890 337l2 2c0 2 3 1 4 2 0 0 3 0 0-1a10 10 0 00-2-2l-2-1a3 3 0 00-1 0h-1z"/><path class="h" d="M881 348a21 21 0 00-3-2l-3-1a6 6 0 002 3c1 0 5 2 4 0zm0 0c1 2-2 0-4 0a6 6 0 01-2-3l3 1 3 2z"/><path class="i" d="M881 348l-2-1-1-1a15 15 0 00-3-1l1 1a4 4 0 001 2h4z"/><path class="h" d="M883 362a24 24 0 00-3 0l4 4-1-4zm0 0c2-1 2 8 0 4-1-3-6-5 0-4z"/><path class="k" d="M883 362h-3l2 1c2 2 1 5 2 3l-1-4z"/><path class="n" d="M832 298c-6-3-8-5-12 0-2 2-5 7-1 8s5 4 8 5l3 2c6 4 9 3 13-3 1-3-2-4-4-7a31 31 0 00-7-5zm0 0l7 5c3 3 6 4 4 7-3 7-7 8-13 3l-3-2-8-4c-5-2-1-7 1-9 4-5 7-3 12 0z"/><path class="l" d="M832 298c-1 0-4-3-7-3-4-1-12 10-6 11 3 1 5 5 9 6 2 0 8 9 14-1 2-2 2-3-1-6l-9-7z"/><path class="m" d="M832 298a11 11 0 01-1 0c-5 3-4 0-2-2a12 12 0 00-4-1 3 3 0 00-2 0c-2 4-6 10-2 10 3-1 6 6 7 3 4-5 7-7 8-7a18 18 0 00-4-3zm8 16c-1 0-1-2-5 0-4 1-5-2-3-3 1 0 8-4 2-2-6 3-4-2-3-3l5-5 5 4c3 3 3 4 1 6a14 14 0 01-2 3z"/><path class="o" d="M825 295l4 2-1 1c-1 1-1 2 1 2a5 5 0 002 0h-4c-2-1 0-3 0-3a6 6 0 01-2-2zm3 2z"/><path class="n" d="M805 262c-5-3-7-6-12-1-2 3-5 8-1 9s5 3 8 5l3 2c6 4 9 3 13-3 2-4-1-5-4-7a31 31 0 00-7-5zm0 0l7 5c3 2 6 3 4 7-3 6-7 7-13 3l-3-2c-3-1-4-4-8-5s-1-6 1-9c5-5 7-3 12 1z"/><path class="l" d="M805 262l-7-4c-4 0-12 11-6 12 4 1 5 5 9 5 2 1 9 10 15 0 1-2 2-4-2-6l-9-7z"/><path class="m" d="M805 262a10 10 0 01-1-1c-5 3-4 0-2-1a12 12 0 00-4-2 3 3 0 00-1 1c-3 3-7 10-3 9 3 0 6 6 8 4 3-6 6-7 7-7a18 18 0 00-4-3zm8 16c0-1-1-2-5 0-3 1-5-2-3-3 1-1 8-5 2-2-6 2-4-2-3-3 1 0 2-3 6-5l4 4c4 2 3 4 2 6a14 14 0 01-3 3z"/><path class="o" d="M799 259l3 1-1 1c-1 2-1 2 1 2a5 5 0 002 0c-1 2-3 1-4 1-1-1 0-3 1-4a6 6 0 01-2-1zm2 1z"/><path class="n" d="M846 325c-6-5-7-6-4-11 2-3 3-4 7-3l8 4 2 10c0 2-3 4-6 3l-7-3zm0 0a41 41 0 006 3c4 2 8-1 7-3-1-3 0-8-2-10l-8-5c-5-1-6 0-7 4-3 5-2 7 4 11z"/><path class="l" d="M846 325c-3-3-5-3-6-7 0-1 3-8 6-8 6 0 4 1 10 4 3 2 2 8 3 11l-2 3c-3 2-7-1-11-3z"/><path class="m" d="M841 316c1-2 3-6 5-6 6 1 4 1 10 5a3 3 0 011 1c0 1-2 3 0 4h1a17 17 0 001 5c-7 4-6-2-9-2-4-1-3-4-7-4a3 3 0 01-2-3zm8-3c-4-3-5 3-2 1l2 1v-2z"/><path class="o" d="M851 312c2 0 4 1 5 3s-1 2 0 3l1 2c-2-1-3-2-2-4 1-1-3-3-4-4z"/><path class="n" d="M897 392c-6-4-7-5-4-11 1-3 2-4 7-3l8 5 1 10c1 1-2 4-5 3l-7-4zm0 0a40 40 0 005 4c5 2 8-1 8-3l-2-10c-1-1-6-5-8-5-5-1-6 0-8 3-3 6-1 7 5 11z"/><path class="l" d="M897 392c-4-2-5-3-6-6 0-1 3-8 5-8 7 0 5 1 11 4 3 2 1 7 3 11l-2 3c-3 2-7-2-11-4z"/><path class="m" d="M891 384c1-3 3-6 5-6 7 0 5 1 11 4a3 3 0 011 1c0 2-2 3 0 4l1 1a17 17 0 001 5c-7 4-6-2-10-3-3 0-2-3-6-4a3 3 0 01-3-2zm9-4c-4-2-5 3-2 2h2v-2z"/><path class="o" d="M902 380l5 2c1 1-1 2-1 4l1 2c-1-1-2-2-1-4s-3-4-4-4z"/><path class="n" d="M879 330c-5-3-11-11-17-4-2 3-3 6 0 8 5 2 17 13 20 13 2 0 12-8 5-13l-8-4zm0 0a80 80 0 018 5c7 4-2 11-4 12-4 1-16-11-21-13s-1-9 3-11c5-1 10 4 14 7z"/><path class="l" d="M879 330c-1 0-8-7-11-7-7 0-11 9-6 11 4 2 18 14 21 13 3-2 10-9 4-12l-8-5z"/><path class="m" d="M866 327c6 2 9 7 3 3 0-1-6-2-4-3h1zm13 3c-1 0-8-7-11-7a8 8 0 00-7 4 3 3 0 002 4c2 1 1-1 5 3s7 3 12 3c4 0 7 5 5 4-3-2-8-5-10-1-1 1 6 5 9 6 3-2 9-8 3-11l-8-5z"/><path class="o" d="M870 334l7 1c3 0 7 1 8 4a5 5 0 001 1l-2-1c-1-2-4-2-5-2-5-1-5 0-9-3z"/><path class="e" d="M873 310l9 4c2 2 13 7 13 10 0 1-3 4-3 7-2 4-4 1-8-1l-11-6c-4-3-9-5-5-11 2-3 2-4 5-3zm0 0c-4-1-3 1-6 4-2 6 3 7 6 10s7 4 11 6c4 1 6 4 7 0l4-6c0-3-9-7-11-8-3-2-7-5-11-6z"/><path class="k" d="M873 310l8 4c2 1 14 7 14 9l-4 7c0 2-1 3-3 2l-15-8c-2-2-9-4-6-10l2-2c1-2 1-3 4-2z"/><path class="g" d="M873 310l8 4c2 1 14 7 14 9l-4 7a3 3 0 010 2 40 40 0 01-6-2l-2-2-1-1c-1-1-1-3 1-3h2c1 0 0 0 0 0l3 2h3c0-1 0 0 0 0a7 7 0 01-3-2l-5-2h-3l-8-4-5-5 1-1c2-2 2-3 5-2z"/><path class="p" d="M870 311c2-1 5 1 7 2 4 1 5 0 8 3a17 17 0 016 5v1l-2-2c-3-3-6-5-11-6-4-1-5-3-8-3z"/><path class="e" d="M815 326c-1 2-3 9-6 8-5-3-23-14-20-19 0-1 2-5 4-5 3 0 20 12 22 15a8 8 0 010 1zm0 0a6 6 0 000-1c-2-3-19-15-22-15-2 0-4 3-5 5-3 5 15 16 20 19 4 1 7-6 7-8z"/><path class="l" d="M815 326c-1 2-3 9-7 8-4-3-23-14-20-19 5-7 3-7 15 1l12 9a7 7 0 010 1z"/><path class="m" d="M815 326l-1 2a1 1 0 01-1 0c-2-3-2 4-5-3-6-1-5-3-8-7-2-2-8 2-2 3 3 0 1 1 4 3h-5c-1-1-2 0-2 1-4-3-8-8-7-10 4-5 4-6 9-3-1 0-1 1 2 1l4 3 12 9a6 6 0 010 1zm-2 5c0-2-1-3-2-2-4 0-4-2-5-2-2 5 0 4-4 3l6 4c2 1 4-1 5-3z"/><path class="o" d="M792 311c5-1 3 1 5 2 1 1 2 0 3 2a57 57 0 019 6c-2 0-8-5-10-6a15 15 0 01-3-1c-2-2 1-2-4-3z"/><path class="h" d="M823 343c3-2 8-8 6-11-1-3-3-2-6-4s-2-3-5-1c-7 5-5 13 3 16zm0 0h-2c-8-3-10-11-3-16 2-2 3-1 6 1s5 1 5 5-3 8-6 10z"/><path class="i" d="M823 343c4-2 11-12 3-14-4 0-4-7-10 0-5 6 0 13 7 14z"/><path class="j" d="M829 336c1-3 1-6-3-7-3 0-4-6-9-1 2 0 4 0 0 5-2 3-2-1-2-3a7 7 0 00-1 5 4 4 0 005 1c3-2 6 3 10 0z"/><path class="q" d="M818 335a10 10 0 016 1l4-1-1 1c-2 2-3 1-5 0l-4-1z"/><path class="h" d="M849 359c1-2 8-7 4-9l-11-9-6-3c-4-1-4-3-7 1 0 1-3 4-2 6l5 4 10 5s5 5 7 5zm0 0c-1 1-7-4-7-5l-10-5-6-4c-1-1 3-7 4-8 3-2 4-1 6 0l6 4 11 9c4 2-2 7-4 9z"/><path class="i" d="M849 359c2-2 8-7 4-9l-11-9-6-4c-2 0-3-3-7 2-3 4-5 5 1 8 2 1 8 7 12 7 0 1 6 6 7 5z"/><path class="j" d="M852 356c2-2 4-5 1-6l-11-9-6-4c-2 0-3-3-7 2l-1 2c0 2 0 3 2 3 4 0 10 7 11 6 2-1 2 0 1-2l-1-5c0-4 4 9 6 8 4 0 4 4 5 5z"/><path class="q" d="M845 346l2 4c1 0 5 1 4 3-1-2-3-1-5-2l-1-5z"/><path class="h" d="M882 372c0 1-3 6-2 7 0 0 6 7 8 5 1-1 6-6 5-8-1-1-9-10-11-4zm0 0c1-6 9 0 11 4 2 2-3 8-5 9s-6-4-8-6c-2-1 2-6 2-7z"/><path class="i" d="M882 372l-2 4v3c2 3 3 4 7 6l4-4c2-1 3-4 2-6-6-6-10-7-11-3z"/><path class="j" d="M889 383l2-2c1-1 3-4 1-6-4-5-8-6-9-4l-2 4c-1 2 3 7 5 6 1-1 3-1 1 1l2 1z"/><path class="q" d="M886 372l4 2a8 8 0 012 3l-2-2-4-3z"/><path class="e" d="M907 367c-1 2-5 8-8 7l-6-2-6-4c-2-1-3-3-3-5-2-8 4-10 9-5l10 7a12 12 0 004 1 3 3 0 000 1zm0 0v-1a15 15 0 01-4-1l-10-8c-5-4-11-2-9 6 0 2 0 4 2 5l7 4 6 2c3 2 7-5 8-7z"/><path class="k" d="M907 367c-1 1-5 9-8 7-2-1-3 1-8-4s-6-1-7-7c-2-6 1-10 7-7 4 2 5 5 11 8l5 2z"/><path class="g" d="M907 367l-5 7-1-2-5-3c-3 0-5-4-8-3-6 1-2-10 0-10 4 0 4 1 6 2l8 6 5 2z"/><path class="p" d="M887 357c5-1 3 1 5 1l3 2a46 46 0 018 6l-10-6-2-1c-2-1 1-2-4-2z"/><path class="h" d="M851 294l-6-3c-1-2-5-5-7-4s-1 2-3 2-4 5-3 7c3 4 6 4 10 7a68 68 0 019 6c1 1 6 4 7 3l5-9c1-2-4-4-5-5a52 52 0 00-7-4zm0 0a41 41 0 017 4c1 1 6 3 5 5l-5 9c-1 2-6-2-7-3a75 75 0 00-9-6c-4-2-8-2-10-7-1-2 1-7 3-7 1-1 1-2 3-2 2-1 6 2 7 4l6 3z"/><path class="i" d="M851 294l-4-2-3-3c-3-1-5-4-8-1l-3 4c-2 3-2 3 0 5 2 4 6 4 9 6l9 6a22 22 0 005 3c3 1 3-2 4-3l1-2c3-5 3-5-2-8l-8-5z"/><path class="j" d="M845 291a13 13 0 00-1-2c-3-1-5-4-8-1v5l8 6c1 0 2-2 4-1 1 0 4 1 5 3s7 2 9 4c2-3 2-3-3-6l-4-3c-4 0-6 0-10-5zm10 21a6 6 0 01-2-2c-2-6-7-6-13-9-1 0-6-6-5-7 4 1 2 3 8 6 4 2 2-2 10 3l8 4-1 2c-1 1-1 4-4 3z"/><path class="q" d="M862 304c1-2 1-3-2-4l-7-3a17 17 0 01-5-3l5 2 6 3c2 1 6 3 3 5z"/><path class="h" d="M789 285c4 0 3 0 6 3 1 1 5 4 7 3 2 0 1-1 3-2s4-5 3-6c-3-5-6-5-10-7a69 69 0 01-9-7c-1-1-6-4-7-3l-5 9c-1 3 4 5 5 6a53 53 0 007 4zm0 0a41 41 0 01-7-4c-2-1-6-3-5-6l5-9c1-1 6 2 7 3a73 73 0 009 6c4 3 8 3 10 8 1 1-1 6-3 7l-3 2c-2 1-6-3-7-4l-6-3z"/><path class="i" d="M789 285c3 0 2 0 4 2l3 2c3 2 5 4 8 1 1-1 1 1 3-3s2-3 0-6c-2-4-6-3-9-6l-9-6a22 22 0 00-5-3c-3-1-3 2-4 3l-1 3c-3 4-3 4 2 8l8 5z"/><path class="j" d="M795 288a14 14 0 001 1c3 2 5 4 8 1v-5c-3-2-5-5-8-5l-4 1c-2 0-4-2-5-3-1-3-7-3-9-5-2 3-2 4 2 7l5 3c4 0 6-1 9 4l1 1zm-10-21a6 6 0 011 1c3 7 8 6 13 9 2 1 7 6 6 8-4-2-2-4-8-6-4-3-2 2-10-4l-8-3 1-3c1-1 1-4 4-3l1 1z"/><path class="q" d="M778 274c-1 2-1 3 2 4l7 3a17 17 0 015 4l-5-3-6-2c-2-1-6-3-3-6z"/><path class="e" d="M827 312c-4-1-5-2-9-5s-6-1-9 3c-2 2-4 6 0 8l2 2c4 3 4 4 9 5 4 0 9 5 11 4 10-7 2-11-3-16a2 2 0 00-1-1zm0 0a1 1 0 011 1c5 5 13 9 3 17-2 1-7-5-11-5-5 0-6-2-9-5l-2-2c-4-2-2-6 0-8 3-4 5-5 9-3l9 5z"/><path class="k" d="M827 312c-8-2-10-9-15-5-4 3-9 9-2 11 1 1 4 7 10 7 3 0 9 6 11 5 10-8 2-12-3-17a4 4 0 00-1-1z"/><path class="g" d="M827 312h-2a29 29 0 01-7 5h-4l4-1a19 19 0 006-5c-6-3-8-7-12-4-9 8-4 14 7 11 3-1 5-5 5 0l-1 8 3 1c-2-2 5-6 5-10 0-2-5-3-4-5zm-12 12c2-3 7-5 5 1a9 9 0 01-5-1zm20-4c1 6-4 9-5 6-1-5 1-8 4-8a10 10 0 011 2z"/><path class="p" d="M813 307c0-3 5 1 5 1a23 23 0 004 2s3 0 4 2h-1c-2-2-1-1-4-1l-6-4h-2z"/><path class="k" d="M807 315c4-2 6-2 11-2l5-3a6 6 0 01-4 3l-3 1c-3 2-1 3-4 6 3-3 1-4 3-5a1 1 0 010-1c-4 1-2 4-4 5 2-2 1-4 4-5l3-1c-6 0-6 0-11 2zm16-5z"/><path class="e" d="M880 372l-3 6c-4 0-12-7-15-9-3-1-11-3-8-8 2-4 1-3 6-2h10c3 2 10 6 11 10a5 5 0 01-1 3zm0 0l1-4c-1-3-9-9-13-10h-13l-2 4c-1 4 6 6 9 8 3 1 11 8 15 8l3-6z"/><path class="k" d="M880 372l-3 6-10-5-8-5c-4-1-8-4-5-8 1-2 0-2 5-2l12 1c3 3 13 8 9 13z"/><path class="g" d="M856 358a13 13 0 013 0l12 1c3 2 11 6 10 11-1 3-2 4-8 1l-8-5-9-7v-1z"/><path class="p" d="M862 359c5 0 15 3 17 7v1h-1c-2-5-11-7-16-8z"/><path class="e" d="M865 358l1 8c1 3-2 8 0 3l-1-6c0-4 0-3-4 0l4-3v-2zM891 335l4-8c4-3 6 0 9 2 3 1 16 8 16 10l-3 7c-1 2-3 5-5 3l-11-7c-1-1-11-6-10-7zm0 0c-1 1 9 6 10 7l11 7c2 1 4-2 5-4l2-6c1-1-12-8-14-9-5-3-7-7-11-1l-3 6z"/><path class="k" d="M891 335l5-8c3-3 4-1 7 1l10 6 7 5-3 7c-1 1-3 5-5 3a176 176 0 00-15-9c-1-1-7-4-6-5z"/><path class="g" d="M903 328l10 6 7 5a9 9 0 01-1 2l-3 1c1 3 1 3-2 5s-4-1-4-2c2-4-3-3-6-3l-10-7c-2-2-1-3 0-5 2-4 4-2 4-3l4 1zm-3 3a8 8 0 012 1c2 0 2-1 1-1a1 1 0 010-1s-7-1-3 1zm10 12c-1 0-3-2-3 0a2 2 0 002 1c1 0 2 0 1-1z"/><path class="p" d="M907 332c1-1 9 6 10 7l-1-1c-4-1-6-4-9-6z"/><path class="k" d="M893 332a6 6 0 002-1c2-1 4 1 5 2v-1c-1 0-3-2-4-1l-3 1z"/><path class="e" d="M761 304l5-8c3-3 5 0 9 2 2 1 16 8 15 10l-3 7c0 2-2 5-5 3l-11-7c-1 0-11-6-10-7zm0 0c-1 1 9 6 10 7l11 7c3 1 4-2 5-3l3-7-14-9c-6-3-8-7-12-1l-3 6z"/><path class="k" d="M761 304l5-8c3-3 4-1 7 1l11 6 6 5-3 7c0 1-2 5-5 3a174 174 0 00-15-9c-1-1-7-4-6-5z"/><path class="g" d="M773 297l11 6 6 5a8 8 0 01-1 2l-2 1c0 3 0 3-2 5-4 2-5-1-4-2 2-4-3-3-6-3-1 1-10-6-11-6-2-3-1-4 0-6 3-3 4-2 5-3s2 1 4 1zm-2 3a8 8 0 012 1l1-1a1 1 0 01-1-1s-7-1-2 1zm9 12s-3-2-3 0c0 1 1 3 3 1v-1z"/><path class="p" d="M778 301l9 7-1-1c-4-1-5-4-8-6z"/><path class="k" d="M763 301a6 6 0 002-1c2-1 5 1 5 2v-1l-4-1-3 1zM865 358l1 8c1 3-2 8 0 3l-1-6c0-4 0-3-4 0l4-3v-2z"/><path d="M1258 673c2-3 9-2 20-2h28l23 3h44c7 0 14 2 21 1 2-1 5-2 7 0s2 6 2 7c0 15 3 30 1 45-1 9-3 32-1 53 1 11-2 21-1 32 0 1 1 4-1 6-3 4-11 1-15 0-7-1-19-2-42-2-18 0-18 2-30 1-15-2-16-5-26-4-16 0-24 8-29 3-3-2-3-6-3-12l2-42c2-19 0-14 2-40 0-12 2-24 0-31l-2-13v-5z" fill="#ffe161"/><path class="s" d="M1328 817a2 2 0 01-2-1v-1-2-4a3 3 0 010-1l-1-5 1 1a7 7 0 000-2 2 2 0 001 1 2 2 0 002-1h-4a4 4 0 010-1l1-2v-1a2 2 0 010-1l1-3a31 31 0 00-1-3l-1-1a2 2 0 011-1v-4-3a3 3 0 011-2 1 1 0 010-1 42 42 0 01-2-7v-4l-2-6 4 4v-2h-1v-1a2 2 0 010-1 4 4 0 010-1v-6l1-2v-1-2-2-5a1 1 0 01-1-2 2 2 0 011 0v-1-3h-1a1 1 0 011-2l-1-2v-1a3 3 0 010-1 1 1 0 011-1 33 33 0 000-3 2 2 0 010-1 10 10 0 00-2-5l3-1h-1v-6l1-4a22 22 0 01-1-3v-1l-1-3v-3a3 3 0 011-2v-1l-6 3 5-5 1-3h-1v-3a20 20 0 011-4v-1a28 28 0 000-5 56 56 0 01-1-5h1a16 16 0 00-1-4l3-1a19 19 0 012 5l-1 4v1a30 30 0 010 4h1a1 1 0 010 1 13 13 0 00-1 4h1l-1 1a14 14 0 000 3 7 7 0 010 3 14 14 0 011 3v4h-1v3h1v1a15 15 0 001 4l1 3-2-1a8 8 0 000 1l1 1v1a2 2 0 01-2 1 10 10 0 002 4l-1 1v4a29 29 0 010 6 14 14 0 000 2h-1a29 29 0 011 5v1l1 4h-1v7a2 2 0 010 1l-1 5v5l1 1v6l-1 2a2 2 0 01-1 0v1a61 61 0 002 7 2 2 0 010 1l1 4-1-1a2 2 0 01-1 0v11l1 4h-1a5 5 0 010 1 2 2 0 010 2l-1 1 2 4a17 17 0 010 5h-1v6a2 2 0 01-1 1zm1-36h-1a2 2 0 001 0zm-3 0h1a2 2 0 00-1 0zm4-75zm-3-17z"/><path class="s" d="M1316 818a21 21 0 010-2 2 2 0 011-2v-5c-1-4-2-6-1-8a12 12 0 010-4v-2-1-2-3a2 2 0 01-1-3 2 2 0 012-1l-1-5-1-2h1a8 8 0 010-2 3 3 0 010-1 6 6 0 010-2v-5-1a2 2 0 010-2v-6a4 4 0 011-3v-2a3 3 0 01-1-1l1-3v-1c-2-5-2-9-1-10v-4l-1-6v-3a4 4 0 000-1 7 7 0 011-1c-2-5-1-7 0-8a2 2 0 010-1v-1a16 16 0 000-3v-1a11 11 0 01-1-5 4 4 0 010-1 2 2 0 010-1v-1a1 1 0 010-1v-2a8 8 0 011-3 2 2 0 011-2l-2-9v-1a2 2 0 012-1l-1-6-1-1 1-2 2-2 1 2 2 12-1 6 1 3 4 8-5-5-1-1a31 31 0 000 4v3a4 4 0 010 1 11 11 0 000 4l1 5v2a6 6 0 010 1v8l-1-3v1a4 4 0 011 2h-1a1 1 0 010 1v6l1 1a2 2 0 000 1h1v1a1 1 0 01-1 1v3c0 1 0 0 0 0v2l-1 1a18 18 0 002 5l1 11-1-1a7 7 0 010 2l-1 4v-1 7l-1 6h1a5 5 0 010 1 6 6 0 00-1 2 3 3 0 010 1l1 7v2l1 1-1 1v3a22 22 0 010 4c-1 2-1 4 1 6l4 7-5-4 1 6h-1l1 5h-2v1zm1-59v-1a2 2 0 000 1zm2-1h-1a3 3 0 001 0zm-3-33zM1308 816a2 2 0 01-1 0h-1v-1a1 1 0 010-2v-3a3 3 0 010-2l-1-7v-1-3-2a1 1 0 010-1 15 15 0 011-5v-1a29 29 0 000-4 1 1 0 010-1v-1-3h-1l1-2a30 30 0 000-7h-1a2 2 0 010-1v-1-1l-1-5v-1l1 1v-6a16 16 0 00-1-6l1-1h1a12 12 0 01-1-2l1-3v-1a11 11 0 000-4 2 2 0 01-1-2v-2a2 2 0 010-1v-1-1a2 2 0 011-1v-1l-1-3a5 5 0 011-3l-1-1v-2a3 3 0 010-2 6 6 0 000-2 3 3 0 010-3 7 7 0 001-4 5 5 0 01-1-2 14 14 0 000-2v-1h1l1-4a35 35 0 00-3-10l-5-9h1l4 5a1 1 0 010-1 2 2 0 011-2 27 27 0 010-7v-2l1-7 1 2a3 3 0 011 0l2 1v3l-1 3a24 24 0 000 6 4 4 0 011 2 13 13 0 010 4l1 8h-1v-1 4l1 1 1 4v1l-2-2v1a5 5 0 011 1v1h-1a2 2 0 01-1 1 2 2 0 000 1 9 9 0 010 5 3 3 0 000 1v1a8 8 0 01-1 4 2 2 0 000 1l1 1v2l2 8-1-1v3h-1v3a13 13 0 011 8 18 18 0 000 2h-1a15 15 0 001 3l-2 1a18 18 0 011 3v1a2 2 0 010 1v2a41 41 0 01-1 7v1a3 3 0 011 2 35 35 0 011 4v11a1 1 0 010 1h-1a29 29 0 010 4 3 3 0 011 1v1a5 5 0 01-1 1l-1 4v1l1 5v2l1 6h-1l1 5-1 2zm-3-130h1l-1-1a2 2 0 000 1zm3-14a2 2 0 002 0z"/><path class="s" d="M1297 815a3 3 0 01-3-2h1l1-1a3 3 0 011-1l-1-1a16 16 0 010-3 20 20 0 01-1-4v-4a2 2 0 011-2 12 12 0 010-6l-1-3a1 1 0 010-1l1-1-1-2a3 3 0 011-2 21 21 0 01-1-5l-1-2v-3-1 1-3h2v-3a2 2 0 01-1-1l1-4a5 5 0 010-3v-1l1-4-1-3v1l-1-5a4 4 0 01-1-3l-1-5h1l2 2v-2l-1-5h1l-1-3v-6-1a5 5 0 01-1-2v-1-3h1a8 8 0 000-2v-1h2v-1l-2 1v-1-1a2 2 0 010-2v-2-1a1 1 0 010-1v-1-2a2 2 0 011-3 4 4 0 010-1v-1a26 26 0 000-6l-1-2a2 2 0 011-2 10 10 0 010-1 4 4 0 000-3v-2a2 2 0 010-1 18 18 0 01-1-4v-2a16 16 0 01-1-3l-1-3 4 2a3 3 0 011 1h1a13 13 0 010 1 4 4 0 010 2v1l1 5v1a2 2 0 01-1 1h1a6 6 0 010 4 3 3 0 000 3l-1 1h1a27 27 0 010 7v1a5 5 0 010 1l-1 1v1a2 2 0 010 1v2a32 32 0 010 3v6l-1 5v2a23 23 0 011 5v3a23 23 0 010 6v1a31 31 0 002 4l1 2h-3v1a5 5 0 010 1 40 40 0 012 9v4h-1a10 10 0 010 2 6 6 0 000 3v1h-1a2 2 0 010 1v1a38 38 0 001 6l2 6-3-3v5a14 14 0 001 3v1h-1v3a17 17 0 010 4v1a12 12 0 001 6v1h-1v1a2 2 0 010 1 20 20 0 001 6 3 3 0 010 1 40 40 0 001 5l-2 1a2 2 0 01-2 1zm1-7a2 2 0 002 0zm-1-48a2 2 0 001 0 2 2 0 001 0zm1-60a2 2 0 011 0zM1286 812h-2a3 3 0 011-3 16 16 0 010-2 6 6 0 000-3l3-1a2 2 0 00-2-1 2 2 0 00-1 1 4 4 0 000-1h-1v-2c0-3 0-5 2-6a15 15 0 01-1-2v-1-3a34 34 0 01-1-6h1a5 5 0 000-1 2 2 0 001 1 2 2 0 002-1l-4-1a11 11 0 000-3l1-2a16 16 0 00-1-4 2 2 0 010-2v-1a12 12 0 01-1-3l3-1a22 22 0 00-1-5 2 2 0 01-1-1 49 49 0 010-3 2 2 0 010-2v-4 1a6 6 0 011-2 2 2 0 000-1 1 1 0 010-1h-1 1v-6a4 4 0 010-3 17 17 0 00-1-6 21 21 0 01-1-3h2a10 10 0 010-2 21 21 0 00-1-6v-2-1a5 5 0 011-3 15 15 0 010-2 14 14 0 010-4 3 3 0 011-2 21 21 0 00-1-5l-2-6 2 2a10 10 0 010-4l1-2-1-2a7 7 0 010-2 4 4 0 010-2 32 32 0 010-5v-1-3a49 49 0 010-6h1a7 7 0 00-1-1l4-1c1 2 0 3-1 4v4h1v11l1 3h-1l1 4-1 1v5a11 11 0 011 3l-1 4v2a2 2 0 010 1 17 17 0 000 4h1v1a2 2 0 01-2 1 1 1 0 010 1v3a23 23 0 011 6l1 1-1 5a32 32 0 010 8v1h-1v5a4 4 0 010 3 5 5 0 000 3 4 4 0 010 5 20 20 0 011 6v4a17 17 0 00-1 3 16 16 0 011 4v4l-1 1a11 11 0 010 1 4 4 0 010 1 13 13 0 011 2 2 2 0 01-1 2l1 4a1 1 0 010 1v2a10 10 0 000 2l3 6-4-3v3a2 2 0 010 1v3a8 8 0 011 3 12 12 0 000 3l1 8zm0-67a2 2 0 00-1 1l2-1a3 3 0 00-1 0zm1-75zM1278 810v2c0 1 1 4-1 5a3 3 0 01-2 0 2 2 0 01-2-1l1-1h1a9 9 0 00-1-4l-5-10h1l4 5a2 2 0 011-2v-2a14 14 0 00-2-5h2v-1h-1a2 2 0 00-1 1v-1a7 7 0 010-2v-1l-4 2v-1l6-4a10 10 0 001-3 35 35 0 00-1-5 3 3 0 01-1 0 11 11 0 010-2h1v-1a3 3 0 010-1 12 12 0 000-4v-2l-1-2v-1l1-5v-3-2a6 6 0 010-2v-3-1l-1-1a4 4 0 011-3v-1a2 2 0 010-2v-5-1l-1-3a2 2 0 010-2v-2a3 3 0 010-2 2 2 0 011-2v-2-5-1-3a1 1 0 010-1l-1-2v-3h1l1-1h-1a2 2 0 00-1 1 3 3 0 011-2 6 6 0 011-3 14 14 0 00-1-4l-3-2h3a39 39 0 000-6h-1a1 1 0 010-2v-1h1l-1-6a1 1 0 011-2 5 5 0 011-3 2 2 0 000-2 4 4 0 01-1-2v-2l-1-2h1a2 2 0 001 0 2 2 0 002-1h-4a2 2 0 012-1 2 2 0 012 1v2l1 2v2a4 4 0 010 4v4h-1a1800 1800 0 011 10h-1l1 1-1 6a15 15 0 011 2v4a5 5 0 000 1v1h-2 0l1 1a2 2 0 010 1v2a34 34 0 011 5v5-1 6a1 1 0 01-1 1l3 8v1h-1l-1-2h-1v6a50 50 0 002 5l-2 1v8a2 2 0 011 0v6a1 1 0 010 1 1 1 0 01-1 1v1a7 7 0 000 2 27 27 0 010 3l1 2a13 13 0 010 4 18 18 0 010 2 5 5 0 01-1 2l1 3v4a8 8 0 01-1 2 11 11 0 010 3l-1 3a16 16 0 011 5 22 22 0 001 4l4 10-4-5-1-1zm-2 5a2 2 0 00-1 0h2a2 2 0 00-1 0zm-1-36a2 2 0 002 0 2 2 0 001 0z"/><path class="s" d="M1267 810a2 2 0 01-2-2v-2-1l-1-5v-2-1a3 3 0 010-1h-1v-1h1a3 3 0 011-1 13 13 0 00-2-6l3-1a2 2 0 00-1 0 2 2 0 00-1 0 6 6 0 001-1l-1-4a11 11 0 000-3 13 13 0 010-2h1v-2-1l-1-2-1-6a2 2 0 010-1h1a93 93 0 01-1-7v-2l-2-4v-1l3 3v-1-5l-1-4-2-2v-1l3 1a2 2 0 011-2 4 4 0 010-1v-4h1a98 98 0 01-2-6 2 2 0 010-1v-4-1a14 14 0 010-2 18 18 0 00-1-6l-3-7 1-1 3 4a3 3 0 010-1 1 1 0 011 0v-1a26 26 0 00-1-3 3 3 0 01-1-2l-1-3h1l1 1h1v-2a20 20 0 00-2-7h1l1-1-1-1a29 29 0 010-4v-4-2a6 6 0 010-4 8 8 0 010-4 6 6 0 000-1 3 3 0 010-1c0-2-1-4 1-4a3 3 0 013 0 1 1 0 011 1l-1 2a1 1 0 010 1 1 1 0 010 1 9 9 0 010 1 6 6 0 001 4l3 7-3-2h-1a12 12 0 010 2v6a84 84 0 001 5 2 2 0 01-1 1v1a20 20 0 010 3 9 9 0 001 2v1l-1 1v1a19 19 0 010 2v6a5 5 0 000 1 3 3 0 01-1 2 19 19 0 011 5 9 9 0 001 4h-1l-1 1a17 17 0 001 2v1a66 66 0 002 7l2 5h-1l-2-2v1h-1a6 6 0 010 1 4 4 0 01-1 4 8 8 0 011 2 2 2 0 01-1 1v1l1 6 1 1a1 1 0 01-1 1 3 3 0 01-1 2v5h1v3h-1l1 5v1h1v3l-1 3a12 12 0 010 4 11 11 0 001 2v1l-1 1a7 7 0 01-1 1v1a15 15 0 011 4v3a6 6 0 010 2v2l1 4v2a1 1 0 010 1v1a2 2 0 01-2 2zm-2-13zm1-14l1 1a1 1 0 000-1zm-1 1v-1l-1 1h1zm1-7h1-1zm0-4h2a2 2 0 00-1 0h-1zm0-44a3 3 0 001 0zm1-18a2 2 0 00-2 0h1a1 1 0 101 0zm-2-40a2 2 0 00-1 0h2zm3-2zM1391 821a21 21 0 01-1-2 2 2 0 011-2v-1-12a12 12 0 010-4v-2a1 1 0 010-1v-2-3a2 2 0 01-1-3 2 2 0 011-1l-1-5-1-2h1a8 8 0 011-2 3 3 0 01-1-1 7 7 0 010-2 1 1 0 011 0v-4-1-1a2 2 0 010-2v-6a4 4 0 011-3l-1-2a3 3 0 010-1h-1c0-1 0-2 2-3v-1c-2-5-2-9-1-10v-4l-1-6v-3-1a7 7 0 010-1v-8a2 2 0 010-1 3 3 0 011 0v-1a16 16 0 000-3v-1a11 11 0 01-1-5 4 4 0 01-1-1h1a2 2 0 010-1v-1a1 1 0 010-1v-2a9 9 0 010-3 2 2 0 012-2l-2-9v-1a2 2 0 012-1l-1-6a2 2 0 00-1-1v-2l3-3 1 3c1 6 2 9 1 12v6l1 2 4 9-5-5-1-1a31 31 0 000 4v3a4 4 0 010 1 11 11 0 000 4l1 5v1a6 6 0 010 2v7l-1-2v1a4 4 0 010 2v8a2 2 0 001 1l1 1a1 1 0 01-1 1v3c0 1 0 0 0 0v2l-1 1a18 18 0 001 5h1v11-1a7 7 0 010 2l-1 3v7l-1 6h1a4 4 0 01-1 0 6 6 0 000 3 2 2 0 010 1l1 7v2l1 1-1 1-1 2a22 22 0 010 5l1 6 5 7-6-4 2 5-1 1 1 5h-2v1zm1-59a1 1 0 000-1 3 3 0 000 1zm1-1zm-3-33h1-1zM1381 818a2 2 0 01-1-1l-1 1a14 14 0 01-1-2 1 1 0 011-2v-3a3 3 0 010-2l-1-7a1 1 0 011-1l-1-2v-2-1a15 15 0 011-6 31 31 0 000-4 1 1 0 010-1v-1-4l-1 1 1-3a30 30 0 000-6 2 2 0 01-1-1v-1-2l-1-6 1 2 1-3-1-3-1-7h2v-1a14 14 0 01-1-2l1-3a3 3 0 011 0 11 11 0 00-1-5 2 2 0 01-1-1v-2a2 2 0 011-2l-1-1a2 2 0 011-2 30 30 0 010-3 5 5 0 010-3l-1-1v-3a4 4 0 010-1 6 6 0 000-3v-2a7 7 0 001-5 5 5 0 010-2 11 11 0 00-1-2h2v-4-1l-3-9-5-10 6 5a2 2 0 01-1 0 2 2 0 011-2 26 26 0 010-8v-1l1-9 1 4a3 3 0 011-1s2 0 2 2v3l-1 3a25 25 0 000 6 4 4 0 011 2 13 13 0 010 3l1 10-1-2a58 58 0 011 5l2 4-3-1a5 5 0 011 2h-1a2 2 0 01-1 2 9 9 0 010 6v2a8 8 0 010 3 2 2 0 00-1 1l1 2a25 25 0 011 2l2 8-2-2v3h-1v4a13 13 0 011 7 18 18 0 000 3h-1a15 15 0 001 2 4 4 0 010 1h-2a18 18 0 011 3v4a44 44 0 010 8h-1l1 3a33 33 0 011 4v10a1 1 0 010 2 32 32 0 01-1 4 3 3 0 011 1v1a4 4 0 01-1 0l-1 4v1l1 1v6l1 7h-1a38 38 0 001 4v2zm-3-130l1-1a2 2 0 00-1 1zm3-14a2 2 0 002-1z"/><path class="s" d="M1370 821a3 3 0 01-3-2l2-1a3 3 0 010-1v-1a16 16 0 010-3 22 22 0 01-1-4v-4a2 2 0 010-2 12 12 0 010-6v-3a1 1 0 010-1v-3a3 3 0 011-2 20 20 0 01-1-5l-1-2-1-4 1 1v-1l-1-2h3v-3a2 2 0 01-1-1c-1-3 0-4 1-4a5 5 0 010-3v-1l1-4-1-3v1l-1-5a3 3 0 01-1-3l-1-6 3 3v-2l-1-5v-9-1a4 4 0 01-1-2v-1a23 23 0 000-2l-1-1h2a7 7 0 000-2l2-1v-1l-2 1v-1a1 1 0 000 1v-1l-1-1a2 2 0 011-2v-2l-1-1a1 1 0 011-1v-1-2a2 2 0 011-3 3 3 0 010-1v-1a26 26 0 000-6 20 20 0 01-1-2 2 2 0 011-2 7 7 0 010-1 4 4 0 000-3l-1-2a2 2 0 011-1 16 16 0 01-1-4v-2a3 3 0 01-1 0 17 17 0 010-3l-1-4 4 3a3 3 0 011 1h1a9 9 0 010 1 4 4 0 010 2v2l1 4v1a2 2 0 01-1 1 6 6 0 010 4 3 3 0 001 3l-1 1v1a27 27 0 011 6v1a4 4 0 010 1h-1v2a2 2 0 010 1v2a28 28 0 010 3v5h-1v6a21 21 0 010 2l1 2v4h-1l1 2a22 22 0 010 6v1a32 32 0 002 5l1 1-3 1a3 3 0 010 1 40 40 0 011 9l1 1v4l-1-1a11 11 0 010 2h-1a6 6 0 001 3v1l-1 1v1a38 38 0 001 6l2 8-3-4v4a14 14 0 001 4h-1v3a17 17 0 010 5v1a11 11 0 001 6h-1v1a2 2 0 01-1 2 20 20 0 002 5 3 3 0 010 1v1a40 40 0 001 5h-2a2 2 0 01-2 2zm0-7a2 2 0 001 0 2 2 0 001 0zm0-48a2 2 0 001 0 3 3 0 001 0zm1-60a2 2 0 010 1 2 2 0 001-1zM1359 818h-2a3 3 0 011-3 16 16 0 010-2 6 6 0 000-3l3-1a2 2 0 00-2-1 2 2 0 00-1 1 4 4 0 000-1h-1v-2-1c0-3 0-4 2-5a13 13 0 01-1-3v-3a34 34 0 01-1-6h1a6 6 0 000-1 2 2 0 001 0 2 2 0 002-1h-4a11 11 0 000-3l1-2a16 16 0 00-1-4v-1a2 2 0 010-1v-2a12 12 0 01-1-2l3-1a22 22 0 00-1-5 2 2 0 01-1-1v-1-2-1a1 1 0 010-1v-4 1a6 6 0 011-2 2 2 0 000-1 1 1 0 010-1l-1-1h1v-6a4 4 0 010-3 17 17 0 00-1-5 21 21 0 01-1-3l2-1a10 10 0 010-1 21 21 0 00-1-6v-2a14 14 0 000-2 5 5 0 011-2 15 15 0 010-2 13 13 0 010-4 3 3 0 011-3 21 21 0 000-4 2 2 0 01-1-1l-2-5 2 1a10 10 0 010-3l1-2-1-2a7 7 0 010-3 4 4 0 010-1 34 34 0 010-6v-1-3a47 47 0 010-5h1a7 7 0 00-1-1l4-1c1 2 0 3-1 4l1 3v12l1 3h-1l1 4h-1v6a11 11 0 011 3l-1 4v2a2 2 0 010 1 16 16 0 000 3 4 4 0 010 1h1v1a2 2 0 01-2 1v1a3 3 0 010 2 23 23 0 011 6v1l1 1-1 5a32 32 0 010 7 4 4 0 000 1v1l-1 4a4 4 0 010 4 5 5 0 000 3 4 4 0 010 4v1a20 20 0 012 6l-1 4a17 17 0 00-1 3 16 16 0 011 4v4l-1 1a11 11 0 010 1 4 4 0 011 1 13 13 0 010 2 2 2 0 01-1 1l1 5v2a10 10 0 001 3l2 6-4-3v7a8 8 0 011 3 12 12 0 000 3l1 7zm0-67a3 3 0 00-1 0h2a3 3 0 00-1 0zm1-76zM1351 809a3 3 0 01-1 1v5a3 3 0 01-2 1 2 2 0 01-2-2h1a8 8 0 00-1-4l-5-12 6 7a2 2 0 011-2l-1-3a14 14 0 00-1-4 1 1 0 010-1h2l-1-1a2 2 0 00-1 1v-1-3l-6 3 8-5a10 10 0 001-3v-1a36 36 0 00-2-4 3 3 0 010-1 14 14 0 010-2h1v-1h-1a3 3 0 011-1 12 12 0 000-3l-1-2v-3c-1-3 0-4 1-5v-3-2-1a6 6 0 01-1-1v-3-2a1 1 0 010-1 4 4 0 010-3 2 2 0 010-2 2 2 0 011 0l-1-3v-3-4-1-3a3 3 0 010-2 2 2 0 011-2v-2-5-4a1 1 0 01-1 0v-1-1-4h1a4 4 0 010-1 2 2 0 00-1 1 3 3 0 011-1 6 6 0 010-4 14 14 0 00-1-3l-3-3h4a38 38 0 00-1-6 1 1 0 010-1v-1l1-1-1-6a1 1 0 011-2 5 5 0 010-2 2 2 0 000-2 4 4 0 010-2l-1-3v-2a2 2 0 002 1 2 2 0 001-2h-3a2 2 0 012-1 2 2 0 012 2v3l1 3a4 4 0 010 3v4l-1 1 1 4-1 6v6a16 16 0 011 3v3a3 3 0 000 2l-2 1a1 1 0 001 0 2 2 0 01-1 1l1 2v1a34 34 0 011 4v10a2 2 0 01-1 1 5 5 0 000 1l3 9-3-3v6a50 50 0 001 6h-2a1 1 0 000 1h1v7a2 2 0 010 1l1 6-2 2a7 7 0 000 2 25 25 0 011 3 1 1 0 010 1v2a13 13 0 010 3 2 2 0 010 1 16 16 0 010 2 4 4 0 010 1l1 4v3a8 8 0 01-1 3 10 10 0 01-1 3l-1 2a15 15 0 012 5 23 23 0 001 4l4 12zm-3 4a2 2 0 00-1 1l2-1a2 2 0 00-1 0zm0-36a2 2 0 001 1 2 2 0 002-1z"/><path class="s" d="M1340 816a2 2 0 01-2-2l-1-2 1-1-1-5v-2a5 5 0 01-1-1h1a3 3 0 01-1-1v-1a3 3 0 011-1 13 13 0 00-1-6h-1l4-1a2 2 0 00-2 0l1-1c-2-3-1-3-1-4a11 11 0 000-2 13 13 0 010-3h1v-2a3 3 0 010-1l-1-2-1-6a2 2 0 010-1h1a141 141 0 01-2-9l-2-5 4 3a61 61 0 01-1-6v-4l-3-3 4 1v-1a2 2 0 010-1 4 4 0 011-1v-4a65 65 0 01-1-6 2 2 0 010-1v-5a14 14 0 010-2 18 18 0 00-1-6l-3-9 4 5a5 5 0 010-1 1 1 0 011-1 24 24 0 00-1-3 3 3 0 01-1-2l-1-3 3 1a13 13 0 010-2 20 20 0 00-2-7h2l-1-2a31 31 0 010-5v-3-2-4a8 8 0 010-4 6 6 0 000-1v-1c0-2-1-4 1-5a2 2 0 013 1 1 1 0 010 1h1l-1 2a1 1 0 010 1 2 2 0 010 1 9 9 0 010 1 6 6 0 001 5l4 7-5-4a13 13 0 010 3v6a134 134 0 001 5 2 2 0 01-1 2 19 19 0 010 3 9 9 0 001 2v1l-1 1a9 9 0 01-1 1 19 19 0 011 3v5a5 5 0 000 1 3 3 0 01-1 2 19 19 0 011 5 9 9 0 001 4l-2 1a18 18 0 001 3 69 69 0 002 7l2 6-3-3v1h-1a5 5 0 010 1l-1 4a9 9 0 011 2 2 2 0 01-1 1l1 7 1 1a1 1 0 01-1 1 3 3 0 01-1 2v5l1 3h-1l1 6h1v3l-1 3a12 12 0 01-1 4 12 12 0 001 2l1 1-1 1a6 6 0 01-1 2 15 15 0 011 4v3a6 6 0 01-1 2 1 1 0 010 1l1 1v5l1 1v2a2 2 0 01-2 2zm-2-13h-1 1zm1-13h1zm-2 0a1 1 0 001 0zm2-7h1-1zm0-4h1a2 2 0 00-1 0zm-1-44a2 2 0 001 0 3 3 0 001 0zm2-18a2 2 0 00-2 0 3 3 0 001 0 3 3 0 001 0zm-2-40a2 2 0 00-1 0h2zm3-2z"/><path class="t" d="M431 514c0 4 3 8 7 9-1 4-2 7-1 11s4 7 8 6c-3 7 2 14 8 16 1 3 1 7 3 9s6 3 9 1a10 10 0 0012 8c1 2 2 5 4 6s6 2 7 0a7 7 0 007 6 23 23 0 014 0c4 0 7 4 11 4 5 1 5-4 10-5 3-1 7 1 10 2s9-2 8-5c3 2 7 4 11 3s8-4 7-8c3 4 10 0 10-4a9 9 0 0014-10 7 7 0 108-12 7 7 0 007-13c3 0 5-1 6-3s1-6-2-7c8-1 12-12 8-18a8 8 0 103-15 9 9 0 00-4-17c2-5-2-11-7-10a7 7 0 00-6-12c4-5-1-15-7-14 1-3-1-7-4-8l-9-2c-1-3-2-7-4-9s-7-3-9 0c-2-7-12-10-18-7-2-5-12-5-15 0-6-6-19-5-24 3-5-6-15-3-17 4-6-4-16 0-18 8-5-3-13 1-13 7a13 13 0 00-8 16c-3 2-4 7-5 11a4 4 0 01-2 3c-2 1-5 4-6 10l2 9c0 1-9 5-2 14-1 4-3 8-3 13z"/><path class="u" d="M593 447c-1-3-4-6-7-5 1-3-1-7-4-8l-9-2c-1-3-2-7-4-9s-7-3-9 0c-2-7-12-10-18-7-3-5-13-5-15 0-6-6-19-5-24 3-5-6-15-3-17 4-6-4-16 0-18 8-5-3-13 1-13 7a13 13 0 00-8 16c-3 2-4 7-5 11a4 4 0 01-2 3c-2 1-5 4-6 10l2 9c0 1-9 5-2 14l-3 12c0 4 3 9 7 10-1 4-2 7-1 11s4 7 8 6c-3 6 2 14 8 16l3 9c2 3 7 3 9 1a10 10 0 0012 8c1 2 2 5 4 6s6 2 7 0a7 7 0 007 6 23 23 0 014 0c4 0 7 4 11 4 5 1 5-4 10-5 4-1 7 1 11 2s8-2 7-5c3 2 7 3 11 3a23 23 0 001-4 4 4 0 000-2l-4-3-6-5c-4-3-8-1-12-1s-9-3-8-7c1-5 9-3 13-6a4 4 0 00-4-4c1-3 4-4 7-5s6-4 4-7c-2-2-7 0-9-2s0-6 3-7h9c3 0 6-3 5-6-1-4-9-4-10-8 0-2 2-4 1-6s-4-2-6-1l-6 4a7 7 0 01-5-12l8-1c3 0 5-4 3-6l-6-2a26 26 0 0114-12c-3-1-3-6 0-9s6-2 9-3c8 0 22-1 28-6-7-8 6-14 13-17z"/><path class="v" d="M474 544l-6-6-9-15c-1-3-1-7 2-7-2-3-3-8 0-9a15 15 0 01-10-10c-1-3-1-7 1-9l3-3a8 8 0 002-8l4-2-1-4a4 4 0 000-6l2-4c2-7 11-10 17-7 3-4-1-10 2-13 2-2 7 0 10 0 4 0 7-3 11-4 5-2 10 0 15 1 4 2 9 5 11 9s2 10-2 13c-2 2-5 2-8 2l-16 1a10 10 0 00-5 1 6 6 0 00-2 8 8 8 0 007 4c-1 4-4 5-7 6l-10 2c-3 1-5 6-3 9a8 8 0 016 1 22 22 0 00-6 11 103 103 0 0020 13l-5 4c-2 1-4 2-4 4s2 4 3 3l-1 8-5 5c-5 4-11 5-16 2z"/><path class="v" d="M571 444l-2-1-4-4-5-2c-1-1-4-2-4-4l1-3a3 3 0 00-2-2 14 14 0 00-10 0c-1 1-3 2-4 1l-1-3c-1-2-3-4-5-4a18 18 0 00-7 0c-4 1-10 0-11 5a1 1 0 001 2h1a5 5 0 012 0c3 2 6 4 6 7a7 7 0 000 2l4 1h4c3 1 3 5 2 7s-4 5-4 8a25 25 0 006 2l-3 4c-1 1-2 3-1 4 1 2 5 1 6 0s4-4 7-4a10 10 0 013 1 14 14 0 007 1 4 4 0 003-1c2-2-1-7 2-8h4a5 5 0 004-9zM501 507c-2 1-2 3-1 5a8 8 0 002 1c3 1 5 4 7 7v4l-3 1a5 5 0 00-2 7 28 28 0 012 3v6l-4 7a11 11 0 01-2 4l-6 2c-4 1-9 2-13 0a26 26 0 00-5-1c-2 0-4 0-4 2-1 2 1 4 3 5h7a4 4 0 012 1l1 6a7 7 0 0013 4 22 22 0 005 6c2 2 5 3 7 2s4-4 3-7l-4-3a7 7 0 010-10 7 7 0 013-2c2 0 4 0 5-2a4 4 0 000-2 17 17 0 00-2-7c3-2 7-4 9-7s-1-8-4-9h-4v-4l1-3c1-4-4-5-6-9l-1-5c-1-4-6-4-9-2zM441 513a3 3 0 000 1l3 1c1 0 3 3 3 5a31 31 0 010 6 16 16 0 001 8c1 3 3 4 6 5l1 5a7 7 0 002 4 3 3 0 004-1c1-2 0-4-1-5l-2-4-1-6c0-3-2-5-3-7s-1-6 0-8a4 4 0 001-1 3 3 0 00-1-2c-2-6-11-10-13-1zM458 443a7 7 0 003 1v3l-3 1a6 6 0 00-3 3l-2 6a4 4 0 000 3h4a7 7 0 002-4 8 8 0 011-5c3-3 9 0 12-4v-5c0-2 2-4 4-4 2 1 5-1 7-2 1-1 3-3 2-5a3 3 0 00-1-1c-2-2-5 0-8 1s-4 4-7 4c-5 1-10 2-11 8z"/><path class="u" d="M961 338c1-7 4-13 10-16s13-2 18 2c4-5 9-9 16-10s13 2 16 9c9 1 16 13 12 22a36 36 0 00-1 4l-1 4c0 4-3 7-5 10-6 7-14 12-22 15-9 3-19 4-28 0-7-3-13-10-14-18l1-8c0-5-3-9-2-14z"/><path class="v" d="M969 367c0-5-2-9-1-14 0-7 4-13 10-16s13-2 17 3c4-6 10-10 16-11s14 3 17 9a15 15 0 016 3c1-9-5-18-13-19-3-6-10-10-16-9s-12 5-16 11c-5-5-12-6-18-3s-9 9-10 16c-1 5 1 9 2 14l-1 8a21 21 0 007 14 35 35 0 000-6z"/><path class="u" d="M1058 466c8-1 15-9 14-17a14 14 0 007-25c4-2 5-8 3-12s-5-7-10-9a37 37 0 00-37 4 18 18 0 01-3 2 41 41 0 01-5 1c-6 2-10 9-10 15s3 13 5 19c4 7 11 7 16 11 7 5 11 12 20 11z"/><path class="t" d="M1079 424c4-2 5-8 3-12s-5-7-10-9a36 36 0 00-11-3 17 17 0 017 8c2 4 1 9-3 12a14 14 0 01-7 24c1 8-5 16-13 17 4 3 7 5 13 5 8-1 15-9 14-17a14 14 0 007-25z"/><path class="u" d="M906 419a16 16 0 002 17 27 27 0 00-9 19c0 6 2 13 7 15 5 3 12 1 17 0-2 3-1 8 2 11a18 18 0 009 6 23 23 0 0016-1c5-3 9-7 9-13 5 2 11 1 15-2s7-8 9-13c2-6 3-13 1-19s-7-12-14-14c1-4 2-8 1-11-2-3-5-5-9-6-7-3-14-6-22-6s-11 5-18 8c-6 3-12 2-16 9z"/><path class="t" d="M971 416v1a9 9 0 000-2v1zM983 449c-2 5-4 10-9 13s-10 5-15 3c0 5-4 10-9 12a23 23 0 01-16 1 18 18 0 01-9-6c-3-3-4-7-2-11-5 2-12 3-17 1-3-2-6-6-7-10a27 27 0 000 3c0 6 2 13 7 15 5 3 12 1 17 0-2 3-1 8 2 11a18 18 0 009 6 23 23 0 0016-1c5-3 9-7 9-13 5 2 11 1 15-2s7-8 9-13a34 34 0 001-15 37 37 0 01-1 6zM908 428a16 16 0 01-3-6 16 16 0 000 9 27 27 0 013-3z"/><path class="u" d="M913 346l-4 6c-1 2 1 4 3 5a25 25 0 00-14 18 37 37 0 000 13c1 5 4 10 8 10a10 10 0 013 0c2 0 3 3 3 5a18 18 0 0031 7 6 6 0 012-2c2-1 3 0 4 1a23 23 0 0035-13 23 23 0 00-4-40c3-3 4-8 3-11s-5-7-9-9a25 25 0 00-14-2 20 20 0 01-5 1 20 20 0 01-4-2 24 24 0 00-20 4l-8 4c-4 1-7 2-10 5z"/><path class="t" d="M995 375a24 24 0 00-9-16 22 22 0 011 5 24 24 0 01-10 22 23 23 0 01-30 15 24 24 0 01-5-3c-2-1-3-2-4-1a5 5 0 00-3 2 18 18 0 01-17 6 17 17 0 01-6-2 18 18 0 0031 7 5 5 0 012-2c2-1 3 0 4 1a23 23 0 0033-7 23 23 0 002-6 24 24 0 0011-21z"/><path class="v" d="M918 366c-6 0-10 7-9 13s7 10 13 9l5-2a8 8 0 002-5 37 37 0 00-1-7 9 9 0 009-6c1-3 1-7 4-8h5c3 0 4-2 5-4s2-5 1-7-5-3-8-3h-14c-7 0-7 3-9 8-2 4-6 7-3 12z"/><path class="u" d="M994 410l-6 2c-1 1-3 4-1 6a25 25 0 00-23 5 37 37 0 00-8 10c-2 4-4 10 0 13a10 10 0 012 1c1 2 0 4-1 6a18 18 0 0020 26 5 5 0 013-1l2 4a23 23 0 0030 15 23 23 0 005-3 23 23 0 0023-33c4 0 7-4 9-8s0-8-2-11a25 25 0 00-9-11 20 20 0 01-4-3 21 21 0 01-3-3 24 24 0 00-17-10c-5-1-6 0-9-2-4-2-7-3-11-3z"/><path class="t" d="M1039 484a24 24 0 003-17 22 22 0 01-2 4 24 24 0 01-22 10 23 23 0 01-35-12l-2-4a5 5 0 00-3 0 18 18 0 01-18-6 17 17 0 01-3-6 18 18 0 0020 26 5 5 0 013-1l2 4a23 23 0 0030 15 23 23 0 005-3 24 24 0 0022-10z"/><path class="v" d="M987 436c-4-3-12-1-15 4s-1 12 4 16c2 1 4 2 6 1a8 8 0 003-3 36 36 0 005-6 9 9 0 0011 1c3-1 5-4 8-3l4 3c2 2 4 1 6 0s5-2 5-4c1-3-2-6-4-8l-11-9c-6-4-7-2-12 1-4 2-9 1-10 7z"/><path class="u" d="M1021 340l-6 2c-1 1-3 4-1 6a25 25 0 00-23 5 37 37 0 00-8 10c-2 4-3 10 0 13a10 10 0 012 1c2 2 0 4-1 6a18 18 0 0020 25 5 5 0 013 0l2 4a23 23 0 0030 15 24 24 0 005-3 23 23 0 0023-33c4-1 7-4 9-8s0-8-2-12a25 25 0 00-9-10 20 20 0 01-4-3 21 21 0 01-3-3 24 24 0 00-17-11c-5 0-6 1-9-1-4-2-6-3-11-3z"/><path class="t" d="M1066 414a24 24 0 003-18 22 22 0 01-2 5 24 24 0 01-22 10 23 23 0 01-32-7 23 23 0 01-3-5l-2-4a5 5 0 00-3 0 18 18 0 01-18-6 17 17 0 01-3-6 18 18 0 0020 25 5 5 0 013 0l2 4a23 23 0 0030 15 23 23 0 005-3 24 24 0 0022-10z"/><path class="v" d="M1012 359c-4-4-12-1-15 4s0 12 5 16a7 7 0 005 1 8 8 0 004-3 38 38 0 004-6 9 9 0 0011 1c3-1 5-4 8-3 2 0 3 2 4 3h7c3-1 4-2 4-4 1-3-2-6-4-8l-11-9c-5-4-7-2-12 1-4 2-9 1-10 7z"/><path class="u" d="M939 393a18 18 0 00-6 6c-3 5-1 12 1 18-8 2-10 13-5 19s13 7 20 5a24 24 0 0038-4l3-3a9 9 0 013 0 13 13 0 0011-6 21 21 0 004-11 26 26 0 010-6l2-4a17 17 0 00-2-16 21 21 0 00-15-8 19 19 0 00-16-10c-9-1-12 5-18 11-4 5-14 6-20 9z"/><path class="v" d="M944 427c-2-6-4-13 0-18a19 19 0 016-6c6-4 15-5 20-10 5-6 9-11 18-11a20 20 0 0116 11 22 22 0 017 1 18 18 0 00-3-6 21 21 0 00-15-7 19 19 0 00-15-11c-10 0-13 5-19 11-4 5-14 6-20 10a19 19 0 00-6 6c-3 5-1 12 1 18-8 2-10 13-5 19a16 16 0 008 5c0-5 2-11 7-12z"/><path class="t" d="M1008 391a18 18 0 00-2-2 15 15 0 01-1 6l-2 4a26 26 0 00-1 6 22 22 0 01-3 12 13 13 0 01-11 6 9 9 0 00-4 0l-3 3a24 24 0 01-37 3c-6 2-13 2-18-2a13 13 0 003 9c4 6 13 8 20 5a24 24 0 0035 0 24 24 0 003-4l3-3a9 9 0 014 0 13 13 0 0010-5 21 21 0 004-12 26 26 0 010-6l2-4a17 17 0 00-2-16z"/><path class="u" d="M987 384c-6 3-11 7-13 12s0 13 5 15c0 4-1 8 2 11 2 3 5 4 9 4 5 1 11 0 13-5a15 15 0 0025-7 33 33 0 011-5l2-3a10 10 0 00-9-15 12 12 0 00-5-9c-5-3-9-1-13 0-6 0-11 0-17 2z"/><path class="t" d="M1031 396a10 10 0 00-5-4 10 10 0 01-1 3l-2 3a33 33 0 00-1 5 15 15 0 01-24 6c-2 5-9 6-14 5a20 20 0 01-5-1c0 4 0 7 2 9 2 3 5 4 9 4 5 1 11 0 13-5a15 15 0 0025-7 34 34 0 011-5l2-3a10 10 0 000-10z"/><path class="w" d="M279 669a57 57 0 00-6-2c-7-3-22-11-30-11-3 0-10 1-16 14-3 7-2 15-2 22 1 14 13 61 16 67 2 7 6 16 11 22l8-1-1-2c-6-11-14-49 5-54a52 52 0 018-3c6-3 13-5 19-9h1l1-1-5-14c-5-6-13-5-21-5-5 0-9 1-11 3s-2 0-2-2c1-3 4-2 6-4s2-6 5-7l8-2c7-3 15 5 21 8a37 37 0 013 2 118 118 0 00-18-21z"/><path class="x" d="M293 711l-1 1zM292 712h-1z"/><path d="M213 651c-10 5-18 12-27 19l-25 19a23 23 0 00-1 2c12-6 20-6 33-12l15-9c-5 19-2 52 6 68 1-4 2-10 0-24-1-10-3-24-2-30 3-10 11-20 17-28 8-9 17-3 20-2a149 149 0 0022 8l-6-4c-15-11-34-16-52-7z" fill="#bab2a8"/><path class="z" d="M249 654c-3-1-11-7-19 3-7 7-15 17-18 27-1 6 1 20 2 30 2 14 1 20 0 24-8-16-11-49-6-68l-15 9c-13 6-21 6-33 12-6 7-7 15-7 25-1 14-2 41 4 48a21 21 0 002 3c-2-4 1-9 4-16 6-11 12-22 22-30l7-12h1c-1 10-9 21-14 30l-8 15c-3 6-5 11-3 18a59 59 0 006 2c0-7 5-12 10-16 5-3 10-3 14-5 3-2 6-3 10-3 10 0 12 5 17 12 3 3 7-2 8-5s3-4 6-5c-5-15-13-49-14-60 0-7-1-15 2-22 6-13 13-14 16-14 8 0 23 8 30 11a57 57 0 016 2l-8-7a150 150 0 01-22-8z"/><path class="x" d="M195 690c-5 2-11 3-15 6-3 3-3 6-5 9l-8 10c-6 7-6 17-7 26-1 5-4 15 2 18a1 1 0 001 0 1 1 0 001 0c3-11 9-20 16-29 5-5 12-14 13-21 0-1 2-12 6-18 2-3-2-1-4-1z"/><path class="w" d="M192 709l-7 12c-10 8-16 19-22 30-3 7-6 12-4 16a29 29 0 009 5c-2-7 0-12 3-18l8-15c5-9 13-20 14-30h-1z"/><path class="x" d="M239 752c-3 1-5 2-6 5s-5 8-8 5c-6-7-7-12-17-12-4 0-7 1-10 3-4 2-9 2-14 5-6 4-11 9-10 17h1c6-10 18-10 29-9 5 0 10 1 14 5 4 3 9 5 13 4 4-2 7 2 11 6h10c-5-6-9-15-11-22l-2-7zM297 691a35 35 0 00-3-3c-6-3-14-11-20-8l-9 2c-3 1-3 5-5 7s-5 1-6 4c0 2 0 4 2 2s6-3 11-3c8 0 16-1 21 5l5 14-1 1h-1c-6 4-13 6-19 9a52 52 0 00-8 3c-19 5-10 43-5 54l1 2 8-1a72 72 0 0014-4c13-19 14-63 14-63 1-2 5-3 7-4h1v2c4 11 9 33 9 48a20 20 0 005-5s0-9-3-23-14-34-18-39z"/><path d="M304 710v-2h-1c-2 1-6 2-7 4 0 0-1 44-14 62 9-3 19 0 25-3 5-3 9-7 8-10 1-14-7-40-11-51z" fill="#4f463f"/><path class="w" d="M231 775c-4 1-9-1-13-4-4-4-9-5-14-5-10-1-23-1-29 9a427 427 0 0067 6c-4-4-7-8-11-6z"/><path class="z" d="M297 706l-7-1c-4 1-7 5-18 6-7 0-14 0-19 4l-4 6c-2 5-6 5-7 8s2 9 2 12h1c3-6 7-13 12-16 4-3 8-5 18-6 8-1 12-4 17-5 8-1 7-5 12-6l-7-2z"/><path d="M1236 207c7-5 19-25 59-2 25 14 11 53 31 48 27-7 47 25 21 50s-38 20-66 6c-10-5-16-8-31-6s-21 24-50 27-74-31-51-49 25-28 18-46 29-42 44-27 18 4 25-1z" fill="#45dbe2"/><path d="M1296 298c-12 0-42-7-50-6s-32 8-38 20-54 6-56-11 5 2 17-20c11-20 12-28 12-33a6 6 0 01-3-3c-2-5 4-11 12-13s15-2 17 3a6 6 0 01-1 5h1c10 0 38-20 46-15s-20 11-11 17 32-7 39 1-20 7-14 13 24 1 27 6-7 5-3 8 10-2 15 2-23 6-19 11 21 15 9 15zm44-15c-2-5-11-6-20-3s-16 9-14 15 11 6 20 3 16-10 14-15z" transform="translate(1 1)" fill="url(#a)"/><path class="ad" d="M1277 273c2-6 0-13-6-16-6-2-15 1-15 4 0 1 8 4 7 5l-8-3c-1 1-3 9 6 14a11 11 0 0016-4z"/><path class="ae" d="M1255 264a36 36 0 013 1l6 2v-1l-4-3a25 25 0 01-4-2c2-3 9-6 14-3 6 3 8 9 6 14a11 11 0 01-7 6 10 10 0 01-8-1c-7-4-7-12-6-13z"/><path class="af" d="M1255 264l3 2c4 1 5 2 6 1 1-2 0-2-4-4a36 36 0 01-3-2c1-2 8-5 13-3 5 3 8 9 5 14a10 10 0 01-6 5 10 10 0 01-8-1c-6-3-6-10-6-12z"/><path class="ag" d="M1259 261c2-2 7-3 11-1s6 7 4 12a9 9 0 01-5 4 8 8 0 01-7-1 11 11 0 01-6-9l1 1c5 2 7 2 8 1v-1c2-2-1-4-4-5l-2-1z"/><path class="ad" d="M1282 238c3-3 2-8-2-11-3-3-9-2-11 0l5 5-6-4c0 1-3 6 2 11a8 8 0 0012 0z"/><path class="ae" d="M1269 229l2 1 3 2-2-3a17 17 0 01-2-2c1-1 7-2 10 0a8 8 0 011 11 7 7 0 01-5 3 7 7 0 01-5-2c-5-4-3-9-3-10z"/><path class="af" d="M1269 229l1 2 4 2v-1l-2-3-2-2c2-1 7-2 10 1a7 7 0 011 10 7 7 0 01-5 2 7 7 0 01-5-1c-4-4-3-8-2-10z"/><path class="ag" d="M1272 228h7a6 6 0 011 9 6 6 0 01-4 2 6 6 0 01-4-1 8 8 0 01-3-7h1c3 2 4 3 5 2 1-2 0-3-2-5a13 13 0 01-1 0z"/><path class="ad" d="M1202 283a12 12 0 0016 0c4-4 4-14 1-16l-7 6c-1-1 5-7 5-7 0-1-8-6-15 0-5 4-5 12 0 17z"/><path class="ae" d="M1216 266a35 35 0 01-2 2l-3 5c1 1 2 0 4-2a22 22 0 013-3 1 1 0 011 0c2 2 2 11-2 14a11 11 0 01-15 0 12 12 0 01-3-8 9 9 0 013-7c6-6 13-3 14-1z"/><path class="af" d="M1216 266l-2 2c-3 3-4 4-3 5 1 2 2 1 5-2l2-2c2 2 3 9-1 13a10 10 0 01-15 0 11 11 0 01-3-8 9 9 0 013-7 11 11 0 0114-1z"/><path class="ag" d="M1218 271c1 2 1 7-2 10a9 9 0 01-13 0 10 10 0 01-2-7 8 8 0 012-6 10 10 0 0111-2l-1 1c-3 4-5 5-3 7s4 1 7-2l1-1z"/><path class="ad" d="M1215 247a8 8 0 00-5 10c1 4 7 7 9 5l-1-6 2 6c1 0 6-3 5-10-1-4-5-6-10-5z"/><path class="ae" d="M1221 262a22 22 0 01-1-3l-2-3v3a15 15 0 010 3c-2 1-7-2-8-5a8 8 0 015-10 8 8 0 016 1 7 7 0 014 4c1 6-3 9-4 10z"/><path class="af" d="M1221 261l-1-2-2-3-1 3 1 3c-2 0-7-2-8-5a7 7 0 015-9 8 8 0 016 0 6 6 0 013 4 8 8 0 01-3 9z"/><path class="ag" d="M1217 261c-2 0-5-2-6-5a6 6 0 015-7 7 7 0 015 0 5 5 0 012 4 7 7 0 01-2 7v-1l-3-4h-1c-2 0-1 2 0 5v1z"/><path class="ah" d="M1220 270a8 8 0 01-5-3 7 7 0 0110 1 8 8 0 01-5 2zM1210 270a8 8 0 01-5-3 7 7 0 0110 1 8 8 0 01-5 2z"/><path class="ah" d="M1212 272a3 3 0 115 1 3 3 0 11-5-1z"/><path class="ah" d="M1213 262a3 3 0 112 6 8 8 0 01-2-6z"/><path class="ah" d="M1220 266a8 8 0 01-5 2 8 8 0 012-6l5-1a8 8 0 01-2 5z"/><path class="ah" d="M1213 273a8 8 0 01-6 1 7 7 0 018-7 8 8 0 01-2 6z"/><path class="ah" d="M1216 273a8 8 0 01-1-6 7 7 0 016 8 8 8 0 01-5-2z"/><path class="ah" d="M1210 265a8 8 0 01-2-5 8 8 0 015 2 8 8 0 012 6 8 8 0 01-5-3z"/><path class="ai" d="M1220 268a7 7 0 01-5 0 8 8 0 014-4 7 7 0 015 1 8 8 0 01-4 3zM1211 271a7 7 0 01-5-1 6 6 0 019-3 7 7 0 01-4 4z"/><path class="ai" d="M1214 273a8 8 0 011-6 6 6 0 012 9 7 7 0 01-3-3z"/><path class="ai" d="M1212 264a7 7 0 010-5 6 6 0 013 9 7 7 0 01-3-4z"/><path class="aj" d="M1219 265a7 7 0 01-4 3 6 6 0 014-9 8 8 0 010 6z"/><path class="aj" d="M1215 273a7 7 0 01-5 3 6 6 0 015-9 7 7 0 010 6z"/><path class="aj" d="M1218 272a7 7 0 01-3-5 6 6 0 018 5 7 7 0 01-5 0zM1210 267a7 7 0 01-3-4 6 6 0 018 5 8 8 0 01-5-1z"/><path class="ak" d="M1216 267a2 2 0 01-1 0 2 2 0 010-1 2 2 0 011 0 2 2 0 010 1zM1215 269a2 2 0 01-1 0 2 2 0 010-1 2 2 0 011-1 2 2 0 010 2z"/><path class="ak" d="M1216 268a2 2 0 01-1-1 1 1 0 012 1 2 2 0 01-1 0zM1214 267a2 2 0 01-1 0 1 1 0 012 0 2 2 0 01-1 0z"/><path class="ak" d="M1216 268a2 2 0 01-1-1 1 1 0 012 0 2 2 0 01-1 1zM1214 268a2 2 0 01-1 0 1 1 0 012-1 2 2 0 01-1 1z"/><path class="ak" d="M1215 269a2 2 0 010-2 1 1 0 010 2zM1214 267a2 2 0 010-1 1 1 0 011 1 2 2 0 01-1 0z"/><path class="al" d="M1215 267a1 1 0 010-1 1 1 0 010 1zM1215 268h-1a1 1 0 011-1 1 1 0 010 1z"/><path class="al" d="M1215 268a1 1 0 010-1 1 1 0 011 1 1 1 0 01-1 0zM1214 267a1 1 0 011 0 1 1 0 01-1 0z"/><path class="al" d="M1216 268a1 1 0 01-1-1 1 1 0 011 0 1 1 0 010 1zM1214 268v-1a1 1 0 011 0 1 1 0 01-1 1z"/><path class="al" d="M1215 268a1 1 0 010-1 1 1 0 010 1v1a1 1 0 010-1zM1214 267h1a1 1 0 01-1 0z"/><path class="ad" d="M1148 313l11-7-7 11a21 21 0 01-9 5 21 21 0 015-9z"/><path class="ae" d="M1146 316c7-9 2 1 2 1s10-6 1 2a13 13 0 01-6 3 16 16 0 013-6z"/><path class="af" d="M1146 316c6-8 1 2 1 2s9-6 2 1a11 11 0 01-5 2 14 14 0 012-5z"/><path class="ae" d="M1148 316v1l1-1a72 72 0 00-5 5 41 41 0 004-5z"/><path class="ad" d="M1145 308l14-3s-7 6-12 8a21 21 0 01-10 1 21 21 0 018-6z"/><path class="ae" d="M1143 309c10-5 1 2 1 2s12-2 0 2a13 13 0 01-6 0 16 16 0 015-4z"/><path class="af" d="M1143 309c8-4 0 2 0 2s11-1 1 2a11 11 0 01-6 0 14 14 0 015-4z"/><path class="ae" d="M1145 310l-1 1h1a69 69 0 00-7 2l7-3z"/><path class="ad" d="M1154 319l3-13a84 84 0 011 13 29 29 0 01-3 10 29 29 0 01-1-10z"/><path class="ae" d="M1154 322c1-11 2-1 2-1s3-11 1 1a18 18 0 01-2 6 22 22 0 01-1-6z"/><path class="af" d="M1154 322c1-10 2 1 2 1s2-11 1-1a15 15 0 01-2 5 19 19 0 01-1-5z"/><path class="ae" d="M1155 320l1 2v-2l-1 8a62 62 0 000-8z"/><path class="ad" d="M1149 302l7 4s-5 2-8 1l-6-3s3-2 7-2z"/><path class="ae" d="M1147 302c6 0 0 2 0 2s6 4-1 2a6 6 0 01-3-2 8 8 0 014-2z"/><path class="af" d="M1147 302c5 1-1 2-1 2s6 4 0 2a5 5 0 01-3-2 7 7 0 014-2z"/><path class="ae" d="M1148 304h-1v1a25 25 0 00-4-1 14 14 0 005 0z"/><path class="ad" d="M1157 314c-1-3 1-8 1-8l4 7c1 3-1 6-1 6s-3-2-4-5z"/><path class="ae" d="M1158 316c-3-6 2-1 2-1s1-7 2 0a6 6 0 01-1 4 8 8 0 01-3-3z"/><path class="af" d="M1158 316c-2-6 2-1 2-1s1-6 2 0a5 5 0 01-1 3 7 7 0 01-3-2z"/><path class="ae" d="M1159 314l1 1v-1a25 25 0 001 4v1a14 14 0 00-2-5z"/><path class="ad" d="M1156 299v8s-3-5-3-8a11 11 0 010-6 11 11 0 013 6z"/><path class="ae" d="M1156 297c2 6-2 1-2 1s0 6-1 0a7 7 0 011-4 9 9 0 012 3z"/><path class="af" d="M1156 297c1 5-2 0-2 0s0 6-1 0a6 6 0 011-3 7 7 0 012 3z"/><path class="ae" d="M1155 298l-1-1v1a34 34 0 000-4 20 20 0 001 4z"/><path class="ad" d="M1150 298l7 9-10-6a20 20 0 01-5-6 20 20 0 018 3z"/><path class="ae" d="M1148 297c7 5-1 2-1 2s6 7-1 0a12 12 0 01-3-4 15 15 0 015 2z"/><path class="af" d="M1147 297c7 5-1 1-1 1s6 7 0 1a11 11 0 01-3-4 13 13 0 014 2z"/><path class="ae" d="M1148 299l-1-1v1l-4-4a41 41 0 005 4z"/><path class="am" d="M1147 310a10 10 0 005-1 14 14 0 002 0 13 13 0 00-2 1 11 11 0 00-2 4 10 10 0 004-2 17 17 0 002-3 26 26 0 00-1 4 15 15 0 001 5 15 15 0 001-5v-2a5 5 0 002 2 5 5 0 000-3 10 10 0 00-1-3v-1h-1 1-1a13 13 0 000-4 5 5 0 00-2-2 6 6 0 000 3 10 10 0 001 2 18 18 0 00-3-3 9 9 0 00-3-2 10 10 0 002 4h1a4 4 0 00-3 1 5 5 0 002 2h-1a10 10 0 00-4 3zm10-3zm0-1z"/><path class="al" d="M1160 305c-1 2-3 2-4 1s-1-3 0-4 4-3 5-2 1 4-1 5z"/><path class="al" d="M1160 305c-2 2-4 2-4 1s-1-2 0-4 4-2 5-1 0 3-1 4z"/><path class="al" d="M1161 303a2 2 0 110-2 2 2 0 010 2z"/><path class="al" d="M1160 302l3-4-3 4c-1 0 0 0 0 0z"/><path class="ad" d="M1172 330c-3-5-11-11-11-11s3 10 6 15a24 24 0 009 7 24 24 0 00-4-11z"/><path class="ae" d="M1174 333c-7-11-3 1-3 1s-10-9-1 2a15 15 0 006 4 18 18 0 00-2-7z"/><path class="af" d="M1174 334c-6-10-2 1-2 1s-9-8-2 1a13 13 0 005 4 16 16 0 00-1-6z"/><path class="ae" d="M1171 333v1l-1-1a79 79 0 015 7l-4-7z"/><path class="ad" d="M1176 324c-5-3-15-5-15-5s7 7 12 10a24 24 0 0011 4 24 24 0 00-8-9z"/><path class="ae" d="M1179 327c-10-8-2 1-2 1s-13-4-1 3a15 15 0 007 1 18 18 0 00-4-5z"/><path class="af" d="M1179 327c-9-7-1 2-1 2s-12-4-2 1a13 13 0 007 2 16 16 0 00-4-5z"/><path class="ae" d="M1176 327l1 1h-1a81 81 0 017 4l-7-5z"/><path class="ad" d="M1164 335l-1-15s-3 9-3 15a33 33 0 001 11 33 33 0 003-11z"/><path class="ae" d="M1163 339c2-13-1-2-1-2s-1-12-2 1a20 20 0 001 7 25 25 0 002-6z"/><path class="af" d="M1163 339c2-11-1 0-1 0s-1-12-2-1a17 17 0 001 7 21 21 0 002-6z"/><path class="ae" d="M1162 337v1s0-2-1-1v8a69 69 0 011-8z"/><path class="ad" d="M1174 317c-4 0-10 3-10 3s6 3 10 3 6-3 6-3-3-3-6-3z"/><path class="ae" d="M1176 318c-8-1-1 2-1 2s-7 3 1 3a7 7 0 004-3 9 9 0 00-4-2z"/><path class="af" d="M1176 318c-7-1 0 2 0 2s-7 3 0 2a6 6 0 003-2 8 8 0 00-3-2z"/><path class="ae" d="M1175 320c-1 0 0 0 0 0v1a28 28 0 015-1h-5z"/><path class="ad" d="M1162 329l1-9s-5 3-7 7 0 7 0 7 4-1 6-5z"/><path class="ae" d="M1160 331c5-7-2-2-2-2s1-8-2 0a7 7 0 000 5 9 9 0 004-3z"/><path class="af" d="M1160 331c4-6-2-1-2-1s0-8-2-1a6 6 0 001 4 8 8 0 003-2z"/><path class="ae" d="M1159 329l-1 1v-2a29 29 0 01-2 5h1l2-4z"/><path class="ad" d="M1166 312c-2 3-2 9-2 9l5-8a13 13 0 001-7 12 12 0 00-4 6z"/><path class="ae" d="M1167 310c-4 7 1 1 1 1s-1 8 2 0a8 8 0 000-4 10 10 0 00-3 3z"/><path class="af" d="M1167 310c-3 6 1 0 1 0s-1 8 2 1a7 7 0 00-1-4 9 9 0 00-2 3z"/><path class="ae" d="M1167 312l1-1v1a39 39 0 012-5 23 23 0 01-3 5z"/><path class="ad" d="M1173 313l-10 8s8-2 12-5a23 23 0 007-6 23 23 0 00-9 3z"/><path class="ae" d="M1176 312c-10 4 0 2 0 2s-8 7 1 1a14 14 0 005-4 18 18 0 00-6 1z"/><path class="af" d="M1176 312c-8 4 1 1 1 1s-8 7 0 1a12 12 0 004-3 15 15 0 00-5 1z"/><path class="ae" d="M1175 314l1-1-1 1 6-3a45 45 0 01-6 3z"/><path class="am" d="M1170 322a7 7 0 00-1 0 5 5 0 003-2 5 5 0 00-4-1l1-1a12 12 0 004-3 11 11 0 00-5 2 22 22 0 00-3 2 11 11 0 001-2 7 7 0 001-4 7 7 0 00-2 3 15 15 0 00-1 4h-2l1 1a11 11 0 00-3 3 5 5 0 000 3 6 6 0 002-1 20 20 0 000 2 17 17 0 000 5 17 17 0 002-5 31 31 0 000-4 20 20 0 001 3 11 11 0 005 4 12 12 0 00-2-6 15 15 0 00-2-1 16 16 0 002 1 11 11 0 006 2 12 12 0 00-4-5zm-7-1h1zm0-1v1z"/><path class="al" d="M1160 318c1 3 3 4 5 3s1-4 0-6-4-3-5-2-1 3 0 5z"/><path class="al" d="M1160 319c2 2 4 3 5 2s1-3 0-5-4-3-5-3-1 3 0 6z"/><path class="al" d="M1160 316a2 2 0 100-3 2 2 0 000 3zM1161 315l-2-5 2 5zM1159 324c2 1 4 0 4-1s-1-3-3-3-4 0-4 1 1 3 3 3z"/><path class="al" d="M1160 324l3-1c0-1-1-3-3-3l-3 1c0 1 1 3 3 3z"/><path class="al" d="M1158 323a1 1 0 10-1-2 2 2 0 001 2z"/><path class="al" d="M1158 322l-5-2 5 1v1z"/><path class="u" d="M94 389c14-12 31-6 68 12s49 17 60 18 43 29 62 32 22 5 22 5l5 12s-5 11-47 13-62-4-92 15-59 19-95 13-52-9-60-13 15-14 50-11 46-3 41-7-13 2-38 0-64-17-64-17 74-59 88-72z"/><path d="M284 451c-19-3-51-31-62-32s-23-1-60-18l-19-9c1 0 34 18 43 25 9 8 11 17 28 22a43 43 0 0128 25c3 7-25 4-42 12s-33 24-49 31a108 108 0 0021-11c30-19 50-12 92-15s47-13 47-13l-5-12-22-5z" style="mix-blend-mode:multiply" fill="#7ebb15"/><path class="ao" d="M102 452c14-4-7-6-20-10s-17-11-1-12 16-6 11-9-10-15 4-15 10-12 9-16c0-4 5-7 5-7a24 24 0 00-16 6c-14 13-88 72-88 72s19-8 34-9 48 5 62 0zM125 486c2-12-14-11-27-9 5-1 8-1 10 1 5 4-5 11-41 7-20-2-36 1-44 4a242 242 0 0149 4c28 4 52 5 53-7z"/><path class="ap" d="M752 688l49-4 30 11h12l79 31 58-12 21-12 16-8v-6l-42-33-49-19-39-19-22-3-34 18-34 24-33 10-12 14v8z"/><path class="aq" d="M752 682l49-4 30 11h12l79 30 58-11 21-12 16-8-2-8-40-31-49-19-39-19-22-3-34 18-34 24-33 10-12 14v8z"/><path class="ap" d="M797 650l12 11 31 3 41 12 22 12 40-3 29-16 21-6 1-14-10-9-63-20-27-12-30-3-37 14-16 13-14 7v11z"/><path class="aq" d="M797 644l12 10 31 4 41 12 22 12 40-3 29-16 21-6 1-8-10-15-63-21-27-11-30-3-37 14-16 13-14 7v11z"/><path class="ar" d="M907 655l-21-7-15 3v3l12 6 19 3 7 5h7l10-3 1-5-13-4-7-1zM855 618l-15 2-5 5 1 5 8 1 3-4 7-2 3-4-2-3z"/><path class="ap" d="M866 631l3-19 13-14 2-8 30-3 33 5 28 1 6 7 2 6 8 37-8 3-13 3-28-4-34 4-22-10-17-3-3-5z"/><path class="as" d="M884 590l1 10 31 14 29-9 9 3 11-3 4-3h3l9-2-6-7-28-1-33-5-30 3z"/><path fill="#898989" d="M945 605l-29 9 2 13-2 6v7l-4 6-4 3 34-4-2-18 2-7-3-3 3 2 3-10v-4z"/><path class="as" d="M971 645l-2-5-10-3-3-6-2-7 6-9-9 8-1 15-8 7 28 4 13-3-12-1z"/><path class="au" d="M886 639l4-10 1-8 3-4 1-4 1 1 1 8v7l1 4-1 4 1 7-12-5z"/><path class="as" d="M879 608l1-4 5-4-1-10-2 8-13 14-3 19 5-18 8-5z"/><path class="av" d="M902 601l13 7 12-2 7-1 1-3-8-7-8 2-7-4-9 3-1 5z"/><path class="ar" d="M925 596l-6 1-7-4-9 3-1 5 1 1 2-4 7-1 5 1 8-2z"/><path class="ap" d="M899 655l-20-7-15 3v3l12 6 19 3 14 5 10-3 1-5v-2l-13-2-8-1z"/><path class="av" d="M899 653l-20-7-15 4v2l12 6 19 3 14 5 10-3 1-5-13-4-8-1z"/><path class="ap" d="M854 619l-17 1-6 3v2l2 4 7 1 3-3 8-2 3-5v-1z"/><path class="av" d="M851 616l-14 2-6 5 2 5h7l3-3 8-2 3-4-3-3z"/><path class="ap" d="M968 679l-20 12-9 2v4l10 5 22 2 12-11 9-2 3-10v-4l-11 1-8 5-7-1-1-3z"/><path class="av" d="M967 677l-19 11-9 2v4l10 5 22 2 12-11 9-2 3-11-11-2-8 5-7-2-2-1z"/><path class="ar" d="M841 658v6l28 9-28-8-32-4v-6zM903 682v6l34 1 11-1 11-6 10 1 7-3 8-5 9-7h7l-7-5 1-14-1 8-21 6-29 16-40 3zM1006 680l-11-1v-2l-3 11-9 2-12 11v3l10-4 7-2 7-4 7-9 4-3v-2zM908 649l29-3 18 3h15l-28-4-2-18 2-7-3-3 3 2 3-10v-4l-29 9 2 13-2 6v7l-4 6-4 3z"/><path style="mix-blend-mode:multiply" fill="#c6c6c6" d="M954 608l7 1-1 6-6 9 2 7 3 6 10 3 2 5 12 1 10 1-2-4-8-37-2-6-9 2h-3l-4 3-11 3z"/><path class="ar" d="M912 593l-5 5v4l5 4-10-5 1-5 9-3z"/><path class="au" d="M879 608v8l2 6v6l1 10h1l2-12v-9l3-5 1-4 3-4 5 1-12-5-5 4-1 4z"/><path class="ar" d="M831 689v6l16 2 2-5-6-3h-12z"/><use class="c" transform="rotate(3 -3855 7078) scale(.09)" xlink:href="#c"/><path class="d" d="M597 305v-10l1-12-1-10a13 13 0 00-6-8c-7-4-14-2-22-2a76 76 0 01-11-1 33 33 0 00-5-1 38 38 0 00-6 1 23 23 0 01-6 0l-6-1-11-1a3 3 0 00-1-1l-24-1-12-1h-11a4 4 0 00-1 1 32 32 0 00-6-1 34 34 0 01-6-1 37 37 0 00-8-1l-7-1h-8l-5 1a7 7 0 01-1 1l-1 8c-1 2-4 5-7 4a7 7 0 011 3 22 22 0 01-1 4l2 10a2 2 0 01-1 3v1a2 2 0 010 1 10 10 0 01-1 4 28 28 0 00-2 4 11 11 0 000 3 18 18 0 001 6 5 5 0 005 0 22 22 0 0110 0l11 2 24 2 25 1 50 3 25 2h13a8 8 0 006-1 8 8 0 002-5v-2-1a3 3 0 001-3z"/><path class="e" d="M469 256c-5-1-9-3-9 3l-1 6c0 2 8 2 10 2 1 0 11 2 12 0 0-2 1-9-1-10-2-2-5-1-8-1zm0 0h3c3 0 6-1 9 1v10c0 2-10 1-12 1-2-1-11 0-10-4l1-5c0-6 4-4 9-3z"/><path class="f" d="M469 256c-4-1-9-3-9 3s-6 8 8 8c2 1 12 2 13 0v-7c0-3 0-3-3-4a9 9 0 00-4 0 44 44 0 01-5 0z"/><path class="g" d="M469 256c-3-1-6-2-8-1a3 3 0 000 3v4c2 2 1 3 5 3 2 1 8 2 9 1s3 5 5-2c1-1 0-6-1-8h-1a9 9 0 00-4 0 44 44 0 01-5 0zm8 2l-1 1h-2l3-1zm1 5v1c-2-2 0-1 0-1zm-17 0c1 1 1 3 3 3l-4-1c0-1 0-3 1-2z"/><path class="h" d="M515 262v9s5 3 5 0c1-2 2-9 1-11-1-1-7-5-6 2zm0 0c-1-6 4-4 6-3 2 2 0 10 0 13-1 3-4 0-6 0v-10z"/><path class="i" d="M515 262v9l5 2 1-7v-7c-4-2-7-1-6 3z"/><path class="j" d="M522 263l-1-4c-3-2-5-1-6 0a15 15 0 010 2l1 6c-1 4 1 2 1 3a2 2 0 003 0l1-4a20 20 0 001-3z"/><path class="h" d="M426 285c0 1-2 8-1 9 0 0 3 4 5 1l3-11c-1-1-6-6-7 1zm0 0c0-6 6-4 7-1 1 2-2 9-3 11-1 3-4 0-6-1s2-8 2-9z"/><path class="i" d="M426 285l-1 6v3l4 2 3-6c1-2 2-5 1-6-4-4-6-3-7 1z"/><path class="j" d="M433 287v-4c-3-2-5-2-6-1a15 15 0 010 2l-1 6c-1 3 0 2 1 3a2 2 0 003 0l1-3a21 21 0 002-3z"/><path class="e" d="M517 301c-8 0-8-2-15-2-4-1 1-16 7-12l3 1 8 1-1 8-2 4zm0 0l1-4 2-7-4-2-7-1c-6-3-10 11-7 11 7 1 7 3 15 3z"/><path class="k" d="M517 301c-7 1-9-2-15-2-3-1 1-16 7-12l7 1c4 1 5 0 3 7l-2 6z"/><path class="g" d="M501 296c0-4 4-12 8-9l7 1c3 1 4 0 4 2a2 2 0 01-1 0c-4 0-2 2-2 3a3 3 0 002 0v2a31 31 0 01-1 4 5 5 0 01-3-1c0-1-1-8-1 1-4 0-2-5-2-6 0-7-2-2-3 0-5 6 1-3 0-4-1-2-3 3-3 3-3 4-4 5-5 4z"/><path class="h" d="M548 303c-3 1-10 2-9-4l1-5c0-3 2-2 6-3 2 0 12-2 12 1 0 2 1 9-2 10a30 30 0 01-4 1h-4zm0 0l4-1 5-1 1-9c-1-2-11 0-13 0-8 0-3 1-5 6-2 7 3 5 8 5z"/><path class="i" d="M548 303c-2 0-12 2-8-5 2-4-3-7 5-6 3 0 13-3 13 0 0 13-1 9-9 11a5 5 0 01-1 0z"/><path class="j" d="M547 291h4a6 6 0 01-1 2c0 1 3 4 5-2l3 1v2a19 19 0 00-1 4c-1 3-5 5-8 3-1 0-10 3-7-2-1-3-1-3 2-5 0-3 1 0 3-3z"/><path class="h" d="M592 290c-4 1-11 2-9-4l1-5c-1-3 2-2 6-3 1 0 11-2 12 1 0 2 0 9-2 10a31 31 0 01-4 1h-4zm0 0h3l5-2c2-1 1-8 1-9 0-2-11 0-13 0-7 0-3 1-4 6-3 7 3 6 8 5z"/><path class="i" d="M592 290c-2 0-12 2-9-5 2-4-2-6 5-6 3 0 13-3 13 0 1 13 0 9-8 11a4 4 0 01-1 0z"/><path class="j" d="M591 279l3-1a6 6 0 010 3c-1 0 3 3 5-3l2 1v2a18 18 0 00-1 4c0 3-4 5-7 3-1 0-10 3-7-2-1-3-2-3 2-5-1-3 0 0 3-2z"/><path class="e" d="M466 293c3-7 4-8-6-9-7-1-6 1-7 6-1 1-1 2 1 3 2 2 10 2 12 0zm0 0c-2 2-11 2-12 0-2-1-2-2-2-3 2-5 0-7 8-6 10 1 10 2 6 9z"/><path class="l" d="M466 293c2-3 5-8-2-9-12-2-10 0-12 7l2 2c1 2 10 2 12 0z"/><path class="m" d="M468 289c1-2 0-4-4-5-11-1-10 0-11 4a1 1 0 001 1c6 1 2 3 8 2l2-1c1 1 3 0 4-1zm-4-3s1 1-1 1c-7-1-5-3 1-1z"/><path class="e" d="M597 303c3-7 4-9-6-10-7 0-6 1-7 6-1 2-1 2 1 4h12zm0 0h-12l-2-4c2-5 0-7 8-6 10 1 10 3 6 10z"/><path class="l" d="M597 303c2-4 5-8-2-9-12-2-10-1-12 6l2 3h12z"/><path class="m" d="M599 298c1-2 0-4-4-4-11-2-10-1-11 4a1 1 0 001 0c6 1 2 3 8 2l2-1c1 2 3 1 4-1zm-4-3s1 2-1 1c-7 0-5-2 1-1z"/><path class="e" d="M522 293c4 1 12 2 14 0 2-1-1-4-4-4h-4c-7-1-4 0-7 2l1 2zm0 0c-1-1-2-1-1-2 3-2 0-3 7-3l4 1c3 0 7 4 4 5s-10 0-14-1z"/><path class="k" d="M522 293c7 2 18 2 14-2-3-3-4-2-8-2-7-1-4 0-7 2l1 2z"/><path class="g" d="M537 293l-1-2c-3-3-4-2-8-2-7-1-4 0-7 2h8c7 5 2-2 6 1a4 4 0 002 1z"/><path class="h" d="M465 272c-3 1-5-2-6 2l-1 5c0 2 5 2 6 3 4 0 6 1 7-3l1-8c-1-1-5 0-7 1zm0 0c1-1 6-3 7-1v8c-1 5-4 4-8 3-1 0-7 0-6-3l1-5c1-4 3-1 6-2z"/><path class="j" d="M465 272c-3 1-6-3-6 3 0 2-5 6 5 7 1 0 8 4 8-7 0-3 2-6-5-4l-2 1z"/><path class="i" d="M465 272c-2 1-5-2-6 1a5 5 0 010 1v1l-1 3c2 2 9 1 11 3 1 1 2-1 3-3a18 18 0 000-3 3 3 0 00-3-1c-2 1-3-1-3-3a4 4 0 00-1 1z"/><path class="e" d="M450 297l-14-2c-4-1 1-16 6-12l4 1 7 1-2 7-1 5zm0 0l1-5c0-1 2-6 1-7l-3-1-7-1c-5-3-9 11-6 11 6 1 7 3 14 3z"/><path class="l" d="M450 297c-7 0-9-2-14-3-3 0 1-15 7-11l6 1c4 1 4-1 2 7l-1 6z"/><path class="m" d="M437 286c1-3 3-5 6-3l6 1c3 1 4 0 3 4a7 7 0 01-2 0c-2-1-4 1-5 1-2 4-2 1-3 3 0 1-5-1-4-3 1-1-1-2-1-3zm15 5a16 16 0 00-4-1c-2 0 0 2-2 3 0 1 0 3 3 2a14 14 0 002-1v-3z"/><path class="n" d="M571 289c-2 0-12 0-13-2l-2-7c1-6 11-4 15-4 2 0 12 1 11 5v5l-7 2-4 1zm0 0l4-1 7-1a55 55 0 001-6c0-5-17-6-20-6-8 1-9 6-5 13 0 1 11 2 13 1z"/><path class="l" d="M571 289c-1 1-13 0-13-1 0 0-8-13 8-12 3 0 17 0 17 5-1 7 1 6-6 7l-6 1z"/><path class="m" d="M557 285c-2-3-3-9 6-9h1a3 3 0 004 0c5 0 13 1 14 4-2 0 4 5-8 6-5 1-3-1-2-2 2-5-3 1-3 2-5 3-4-5-8-2-2 2-3 2-4 1z"/><path class="e" d="M520 300c5 2 14 5 17 3 3-1-1-6-4-7l-5-1c-7-2-4 0-8 3v2zm0 0v-3c3-3 0-4 8-2l5 1c4 1 8 7 4 8s-12-2-17-4z"/><path class="k" d="M520 300c8 3 22 6 17 0-3-5-4-4-9-5-8-2-4 0-8 2v3z"/><path class="g" d="M537 300c-3-5-4-4-9-5l-2-1a2 2 0 01-1 1 2 2 0 00-3 3c2 3 7-2 11 1 0 3-5 1-6 1 0 2 9 2 9 2 1 1 1-1 1-2z"/><path class="e" d="M586 274c4 1 12 3 13-1 0-3-6-10-8-11l-4 1c-6 0-3 1-3 7 0 2 0 3 2 4zm0 0l-2-4c0-6-3-7 3-8h3c3 0 11 9 9 12s-9 1-13 0z"/><path class="k" d="M586 274c7 3 18 3 10-7-5-7-5-4-9-4-7-1-3 1-3 7 0 1 0 3 2 4z"/><path class="g" d="M596 267c-5-7-5-4-9-4a14 14 0 00-2 0v1c-2 0 0 5 0 5 4 6 3-6 8-2 2 6-2 4-3 4 1 4 7 0 7 0l-1-4z"/><path class="h" d="M526 272l-3-2c-2-1-1 2-1 2l-1 2 3-1h2a3 3 0 002 0l-2-1zm0 0a1 1 0 001 0c2 0 0 2-2 1l-3 1c-2 1 0-1 0-2s-1-3 1-2l3 2z"/><path class="i" d="M526 272l-3-2c-2-1-1 2-1 2 0 1-2 3 0 2l3-1h1c0 1 3-1 1-1a1 1 0 01-1 0z"/><path class="h" d="M526 274l-1 1c-2 3-2 6-5 3 0-1-2-2 0-4s-1 2 3 1l3-1zm0 0a3 3 0 00-2 0c-1 1-3 2-3 0-1 0-3 1-1 2s2 5 4 1l2-3zm0 0z"/><path class="i" d="M526 274h-2c0 1-3 2-3 0 0 0-3 1-1 3 1 0 2 4 4 0a22 22 0 012-3z"/><path class="h" d="M496 270h7c4 1 0 3-2 2l-5-1v-1zm0 0v1c5 1 5 2 8 0a4 4 0 00-1 0l-7-1z"/><path class="k" d="M496 270c1-1 6 1 7 1h2c-4 3-5 1-9 0v-1z"/><path class="h" d="M434 289c1 1-1 6-2 7 0 4-2-1-1-3l2-4h1zm0 0h-1c-2 4-3 4-1 8a3 3 0 000-1c1-1 3-6 2-7z"/><path class="k" d="M434 289c1 1-1 5-2 7v1c-2-4 0-4 1-8h1z"/><path class="h" d="M542 288c2 0 3 1 1 3s-4-2-7-2c-2 0-5-2 1-1h5zm0 0a22 22 0 01-5 0c-7-2-4 1-1 1l5 2c3 1 5-3 1-3z"/><path class="k" d="M542 288c1 0 3 0 2 2-2 3-5-1-8-1s-5-3 1-1a18 18 0 005 0z"/><path class="h" d="M537 294a20 20 0 00-3 1l4 4c1-1 0-4-1-5zm0 0c1 0 3 8 0 4-1-2-7-3 0-4z"/><path class="k" d="M537 294l-3 1 2 2c2 1 2 4 3 1l-2-4z"/><path class="h" d="M596 304a20 20 0 00-3 1l4 4a2 2 0 001 0l-2-5zm0 0c2 0 4 8 0 4-1-2-6-3 0-4z"/><path class="k" d="M596 304l-3 1 2 2c2 1 2 4 3 1l-2-4z"/><path class="h" d="M531 306l1 2 3 1c0-1 7-3 4-4l-6-1a5 5 0 00-2 2zm0 0v-1c2-2 4 0 7 0 4 1-1 2-3 3h-3l-1-2z"/><path class="i" d="M531 306l1 2h5c1-1 5-2 1-3-2 0-5-2-7 0v1z"/><path class="e" d="M444 281h8l7 1c-1 2-14 1-16 0-2 0-2-1 1-1zm0 0c-3 1-3 0-1 1h10a24 24 0 00-2-1h-7z"/><path class="l" d="M444 281h8a18 18 0 004 1c3 0 4 1-2 1l-12-1s-2 0 0-1h2z"/><path class="h" d="M471 285a23 23 0 00-3-1c0 2 2 1 1 5 1 0 3-3 2-4zm0 0c1 1-3 8-2 3 0-2-3-7 2-3z"/><path class="k" d="M471 285l-3-2 1 3c1 2-1 5 1 3 0 0 2-3 1-4z"/><path class="h" d="M467 297a22 22 0 003 2c0-3-2-2-1-7-1 0-3 4-2 5zm0 0c-2 0 2-10 2-4 0 4 3 9-2 4z"/><path class="k" d="M467 297l3 2-1-3c-1-3 1-6-1-4l-1 5z"/><path class="n" d="M461 271l4-3h4c2 0 3 0 1 1a51 51 0 01-5 2h-4zm0 0h4l6-2a7 7 0 00-2-1h-4l-4 3z"/><path class="l" d="M461 271l4-2c0-2 3 0 4-1 0 0 4 0 0 1a13 13 0 01-2 1l-2 1a3 3 0 01-2 0h-2z"/><path class="e" d="M461 282l5 1c2 0 1 2-1 1h-2s-5-1-3-2h1zm0 0h-1c-2 1 4 1 5 2a2 2 0 002 0l-1-1-5-1z"/><path class="k" d="M461 282l5 1c1 0 2 2-1 1l-2-1h-2c-2 0-1-2 0-1z"/><path class="e" d="M436 296c1-1 3 0 5 1 2 0 1 2-1 1l-2-1s-5 0-3-1h1zm0 0h-1l5 1a2 2 0 002 0h-1l-5-1z"/><path class="k" d="M436 296c1-1 3 1 5 1 1 0 2 1-1 1l-2-1h-2c-2-1-1-2 0-1z"/><path class="h" d="M435 280a43 43 0 000 6c1-1 1-3 4-4 1-1-2-1-2-1l-2-1zm4 2zm-4-2l3 1c2 0 2 1 1 1-3 1-2 2-4 4v-6z"/><path class="i" d="M435 280v6c0-1 2-4 4-4 0 0 1-1-1-1l-3-1z"/><path class="h" d="M495 285h3l2 1a9 9 0 002 1c2 0 0 4 0 4-2-1-1-3-4-4l-3-2zm0 0l5 3 2 2v-3a9 9 0 01-2 0l-2-2h-3zm7 5"/><path class="i" d="M495 285h3l2 1 2 1v3c0 2-2-2-2-2a10 10 0 00-4-2l-1-1z"/><path class="h" d="M497 284l4 2h2l-2-1c-1-2 0-3-3-1zm0 0a3 3 0 011-1c2 0 2-1 3 1l2 2h-1l-5-2z"/><path class="i" d="M497 284l4 2h2l-1-1c-1 0-1-3-3-2l-2 1z"/><path class="e" d="M474 269l-1 3 2-2a3 3 0 001-1h-2zm-1 3l1-3h1c3 0 0 1 0 1l-2 3s-1-4 1-4z"/><path class="k" d="M474 269l-1 3c0 2 2-2 2-2 1-1 2-1 0-1h-1z"/><path class="e" d="M459 268l-1 3 2-3a3 3 0 001 0h-2zm-1 3l1-3h1c3-1 0 1 0 1s-1 3-2 2c0 0-1-4 1-3z"/><path class="k" d="M459 268c-1-1-1 2-1 2 0 3 2-1 2-1 1-1 2-1 0-1h-1z"/><path class="h" d="M472 281c0 1-2 2 1 3 2 1-1-3-1-3zm0 0a1 1 0 010-1l2 3-2 2c-3-2 0-3 0-4z"/><path class="i" d="M472 281c0 1-3 2 0 3 1 1 2 1 2-1l-2-2z"/><path class="e" d="M518 288l4-4c1-1 1-1 2 1l1 2s-2 0-3 2l-2-1h-2zm0 0h2l2 1c1-3 2-2 3-3l-1-1c-1-1-1-2-2-1l-4 4z"/><path class="k" d="M518 288l4-4c1-1 1 0 2 1l1 1c1 1-2 1-3 2s-2 0-2 0h-2z"/><path class="e" d="M499 300c3 1 1 5 3 2 1-1 4-1 3-2s-2 1-4-1c-1-1-2 0-2 1zm0 0s0-2 2-1l4 1c2 2-2 1-2 2-3 3-1 0-4-2z"/><path class="k" d="M499 300c2 1 1 5 3 2 1-1 4 0 3-2-1-1-2 1-4-1-1-1-2 1-2 1z"/><path class="e" d="M518 301h3c5 1 6 3 3 2l-3-1c-3 0-4 1-3-1zm0 0v1h5l2 1a18 18 0 00-4-1l-3-1z"/><path class="k" d="M518 301h3l4 2a8 8 0 00-2 0l-5-1v-1z"/><path class="h" d="M557 303h3l2 1a9 9 0 002 0c1 1 0 4-1 4s0-2-4-3c0 0-3-1-2-2zm0 0l4 2 2 3 1-3a8 8 0 01-2-1l-2-1h-3zm6 5"/><path class="i" d="M557 303h3l2 1 2 1c2 0 0 2 0 3-1 1-2-2-3-3a10 10 0 00-3-1l-1-1z"/><path class="h" d="M582 289v2l-3 1s-8-1-6-2l7-2a7 7 0 012 1zm0 0v-1c-2-1-5 1-7 2-4 1 1 1 3 1h3l1-2z"/><path class="i" d="M582 289v2h-6s-5-1-1-1c1-1 5-3 7-1z"/><path class="h" d="M572 305l8-1c4 0-1 3-3 2h-5v-1zm0 0l1 1c4 0 5 1 8-1a5 5 0 00-1 0h-8z"/><path class="k" d="M572 305h9c-3 2-4 1-8 1l-1-1z"/><path class="h" d="M578 276c0-2 6 0 7 0 4 0-1 2-3 2l-5-2h1zm0 0s-1 0 0 0c4 1 4 2 8 0a4 4 0 00-1 0h-7z"/><path class="k" d="M578 276h8c-4 3-4 1-8 0-1 0-1 0 0 0z"/><path class="h" d="M601 293h-8c-4 0 1-3 3-2l5 2zm0 0v-1c-5-1-5-2-9 0a4 4 0 001 0c2 1 7 2 8 1z"/><path class="k" d="M601 293h-7l-2-1c4-2 5-1 9 0v1z"/><path class="e" d="M451 298c4 0 12 2 14 0 2 0-1-3-4-3h-4c-6-1-3 0-6 2v1zm0 0v-1c2-2 0-3 6-3l4 1c3 0 8 3 4 4s-10 0-14-1z"/><path class="l" d="M451 298c7 1 19 2 14-1-3-3-4-2-8-2-7-1-3 0-6 2v1z"/><path class="m" d="M466 298l-1-1c-3-3-4-2-8-2-6-1-4 0-6 1l7 1c7 3 2-2 6 0a4 4 0 002 1z"/><path class="n" d="M552 288l3-1 4 2c1 1 2 1 0 1a36 36 0 01-5 0s-2 0-2-2zm0 0a433 433 0 008 2 5 5 0 00-1-1c-1 0-3-2-4-1h-3z"/><path class="l" d="M552 288h3c1-1 3 1 4 1 0 0 2 1-1 1a10 10 0 01-2 0h-2a2 2 0 01-1 0l-1-2z"/><path class="n" d="M555 284l-1 2c-1 2 1 0 1 0l1 1v-3a2 2 0 00-1-1v1zm0 0a1 1 0 000-1l1 1a1 1 0 010 1v1c1 2-1 1-1 1-1 0-3 1-2-1l2-2z"/><path class="l" d="M555 284l-1 2c-1 2 1 1 1 1h1v-3l-1-1a1 1 0 010 1z"/><path class="n" d="M554 275l3 1c1 1 2 0 4-1s2-1 0-1a42 42 0 00-5 0l-2 1zm0 0l2-1 6 1a5 5 0 01-1 0c-1 0-3 2-4 1l-3-1z"/><path class="l" d="M554 275l3 1c1 1 3-1 4-1 0 0 3-1-1-1a13 13 0 00-2 0h-2a2 2 0 00-1 0l-1 1z"/><path class="h" d="M551 290a20 20 0 00-3-1l-3 1a6 6 0 003 1l3-1zm0 0l-3 1a6 6 0 01-3-1c-1-1 2-1 3-1l3 1z"/><path class="i" d="M551 290l-2-1a3 3 0 00-1 0 15 15 0 00-3 0c-1 1 1 1 1 1a4 4 0 002 1l3-1z"/><path class="h" d="M560 300a24 24 0 00-2 1c1 2 2 0 5 2a2 2 0 000 1c1-1-2-4-3-4zm0 0c1-1 6 6 2 4-2-2-8-2-2-4z"/><path class="k" d="M560 300l-3 2h3c2 1 4 3 3 1 0 0-2-4-3-3z"/><path class="n" d="M484 270c-6 0-9-1-10 6-1 2-1 8 3 7l9 1h4c7 1 10-2 10-9-1-4-4-3-7-4a31 31 0 00-9-1zm0 0l9 1c3 1 7 0 7 4 0 7-3 10-10 9h-13c-5 1-4-5-4-8 2-7 5-6 11-6z"/><path class="l" d="M484 270h-7c-4 2-6 16 0 14 3-2 6 1 11 0 1-1 12 4 12-8 0-2 0-4-4-4l-12-2z"/><path class="m" d="M484 270h-1c-2 5-3 2-2 0a12 12 0 00-4 0 3 3 0 00-2 2c0 4 0 12 3 9 2-2 8 2 8-1 0-6 2-9 3-10a18 18 0 00-5 0zm15 10c-1 0-2-1-5 2-2 3-5 1-3-1 0-1 4-7 0-2s-4 0-3-1c0-1-1-4 2-7l6 1c4 0 4 2 4 4a14 14 0 01-1 4z"/><path class="o" d="M477 271l4-1-1 2c0 1 1 2 2 1a4 4 0 002-1l-3 2c-2 0-2-2-1-3a6 6 0 01-3 0zm3 0z"/><path class="n" d="M443 252c-6 0-9-1-11 5 0 3-1 9 4 8 3-1 5 1 9 1l4-1c7 1 9-1 9-8 0-4-3-4-7-4a31 31 0 00-8-1zm0 0l8 1c4 0 7 0 7 4 1 7-2 10-9 9h-4c-4 0-6-2-9-1-5 1-5-5-4-8 2-6 5-6 11-5z"/><path class="l" d="M443 252h-8c-4 1-5 15 1 13 3-1 6 2 10 0 2 0 12 4 12-7 0-3 0-4-4-5l-11-1z"/><path class="m" d="M443 252a12 12 0 01-1 0c-3 5-3 1-3 0a12 12 0 00-4 0 3 3 0 00-1 1c-1 5-1 12 2 10s9 2 9-1c0-6 2-9 3-10a18 18 0 00-5 0zm15 9c-1 1-2-1-5 3-2 3-5 1-4-1 1-1 5-8 1-3-4 6-5 1-4-1l2-7 6 1c4 1 4 2 4 5a14 14 0 010 3z"/><path class="o" d="M436 253l3-1v1c0 2 0 2 2 2a4 4 0 002-1l-4 2-1-3a6 6 0 01-2 0zm3 0z"/><path class="n" d="M510 286c-8-1-9-1-9-7 0-4 0-5 4-7l9 1 7 7c1 2 0 5-3 6h-8zm0 0a41 41 0 006 0c5 0 7-4 5-6l-6-8h-10c-4 2-5 3-5 7 1 6 2 7 10 7z"/><path class="l" d="M510 286c-5 0-6 0-9-2 0-1-1-9 1-10 6-3 4-2 11-2 4 0 5 6 8 8v4c-2 3-7 2-11 2z"/><path class="m" d="M501 282c-1-3-1-7 1-8 6-3 4-2 11-2a3 3 0 012 1c0 1 0 3 2 3h1a17 17 0 003 4c-4 7-6 2-9 3s-4-2-8-1a3 3 0 01-3 0zm5-8c-4 0-3 5-1 2h2l-1-2z"/><path class="o" d="M508 273c1-1 4-2 6 0s-1 2 1 3l2 1c-2 0-4-1-4-3l-5-1z"/><path class="n" d="M587 320c-7-1-9-1-9-8 0-3 0-4 5-6h9l6 8c2 1 0 5-3 5l-8 1zm0 0a41 41 0 007 0c4-1 6-5 5-6l-7-8h-9c-5 1-5 2-5 6 0 7 2 7 9 8z"/><path class="l" d="M587 320c-4-1-6 0-8-3-1-1-2-9 1-10 5-3 4-1 11-1 3 0 5 6 8 8l-1 3c-1 4-7 3-11 3z"/><path class="m" d="M578 315c0-2 0-7 2-8 5-3 4-1 11-1a3 3 0 012 0c0 2-1 4 1 4h1a17 17 0 003 4c-3 7-5 1-9 2h-7c-2 1-3 0-4-1zm6-7c-5 0-3 5-2 2l3-1-1-1z"/><path class="o" d="M585 307c2-1 5-2 6-1s0 3 1 3l2 2c-2-1-3-1-3-3s-5-1-6-1z"/><path class="n" d="M540 274c-6 0-14-3-16 6 0 3 1 6 4 6 6 0 21 3 24 1 1 0 7-12-2-13h-10zm0 0a78 78 0 0110 0c8 1 4 12 2 13-2 3-19-1-24 0-6 0-5-8-2-12 3-3 10-1 14-1z"/><path class="l" d="M540 274h-12c-6 3-5 13 0 12 5 0 23 4 25 1s4-12-3-13h-10z"/><path class="m" d="M528 278c6-1 12 2 4 1 0 0-6 1-4-1zm12-4h-12a8 8 0 00-4 7 3 3 0 003 2h6c5 1 8 0 12-3 3-2 9 1 7 1-5 0-10-1-10 4l11 1c2-4 4-11-3-12h-10z"/><path class="o" d="M535 282c4 0 4 0 7-2 2-1 6-2 8-1a6 6 0 001 1l-1-1-6 1c-4 2-4 3-9 2z"/><path class="e" d="M526 260l10-1c2 0 15 0 16 2v8c1 4-3 3-6 3h-13c-5 0-11 0-10-7 0-3-1-4 3-5zm0 0c-4 1-3 2-3 7s5 5 10 5h13c3-1 6 0 6-3v-8c-1-2-12-2-14-2l-12 1z"/><path class="k" d="M526 260l9-1c2 0 15 0 17 2v8c0 1 0 3-2 3h-17c-2 0-10 1-10-5v-3c0-3 0-3 3-4z"/><path class="g" d="M526 260l9-1c2 0 15 0 17 2v8a2 2 0 010 2 39 39 0 01-6 0 4 4 0 01-2 0h-2c-1-1-2-3-1-4l2-1c1-1 0 0 0 0h6l1-1h-1a7 7 0 01-4 0h-4l-4 2-8 1-6-2v-2c0-3 0-3 3-4z"/><path class="p" d="M523 263c2-3 5-2 8-3l9-1a17 17 0 017 2h1-3c-4-2-8-1-13 0-4 1-6 0-9 2z"/><path class="e" d="M484 303c0 2 1 9-3 9-5 1-26 0-26-6 0-1-1-6 1-6 3-2 23 1 27 1a9 9 0 011 2zm0 0a6 6 0 00-1-2c-4-1-24-3-27-2-2 1-2 6-2 7 0 6 22 7 27 7 4-1 3-8 3-10z"/><path class="l" d="M484 303c0 2 1 9-3 9-5 1-27 0-26-6 0-8-1-7 13-6l15 1a6 6 0 011 2z"/><path class="m" d="M484 303v2a1 1 0 01-1 0c-4-1 0 5-6 1-6 1-6 0-11-3-2-1-5 6 1 3 2-1 1 1 4 1l-4 2c-2 0-2 2-1 3-6-1-12-3-11-6 0-6-1-7 5-7 0 1 0 2 3 1a2 2 0 000-1l5 1 15 1a7 7 0 011 2zm0 5c-1-1-2-2-3-1-3 2-5 0-5 1 1 5 2 4-2 4h7c2 0 3-2 3-4z"/><path class="o" d="M456 301c4-3 3 0 5-1h4a58 58 0 0111 2l-12-1a15 15 0 01-3 0c-3 0 0-2-5 0z"/><path class="h" d="M499 313c1-3 2-10-1-12-2-2-3 0-6-1s-4-1-6 2c-3 8 3 13 10 12zm0 0l-3 1c-7 2-13-4-10-12 1-3 3-3 6-2s5-2 7 1 2 9 0 12z"/><path class="i" d="M499 313c2-3 3-15-5-13-3 1-7-4-8 5-2 8 7 11 13 8z"/><path class="j" d="M500 305c0-3-2-6-6-5-3 1-6-3-8 3 2 0 3-2 3 5 0 3-3-1-4-2a7 7 0 002 5 4 4 0 004-2c2-2 8 0 9-4z"/><path class="q" d="M490 309a10 10 0 016-2l3-2a1 1 0 010 1c-1 2-3 2-5 2l-4 1z"/><path class="h" d="M529 314c1-2 4-9-1-10l-13-1-8-1c-3 1-4 0-5 5 0 2-1 5 1 6l6 1c4 0 8 1 11-1 0 0 8 3 9 1zm0 0c-1 2-8 0-9 0h-11l-7-1v-8c1-4 2-3 5-3h8l13 2c5 1 2 8 1 10z"/><path class="i" d="M529 314c1-2 4-10-1-10l-13-2h-8c-2 0-4-1-5 5 0 5-2 7 5 7h13c1 0 8 2 9 0z"/><path class="j" d="M530 310c1-3 1-6-2-6l-13-2h-8c-2 0-4-1-5 5v3l3 1c3-2 12 1 13 0 1-2 2-1 0-3l-4-4c-2-3 8 6 9 5 4-3 6 1 7 1z"/><path class="q" d="M519 305l4 3c1 0 5-1 5 1-2-2-3 0-5 0l-4-4z"/><path class="h" d="M564 309l2 8s8 3 9 0c1-1 3-8 1-10-1 0-13-4-12 2zm0 0c-2-5 8-4 12-2 3 1 1 9 0 10-1 3-7 1-10 0-2-1-1-7-2-8z"/><path class="i" d="M564 309l1 5 1 3c3 1 5 2 9 1l2-6c0-1 0-4-2-5-8-3-11-2-11 2z"/><path class="j" d="M576 316v-4c1-1 1-4-1-5-7-2-10-1-11 1l1 5c0 2 6 4 7 2 0-1 2-2 1 0l3 1z"/><path class="q" d="M568 308c-1-2 3-1 4-1a8 8 0 014 2h-3c-2-1-4-2-5-1z"/><path class="e" d="M583 293c0 2 0 9-3 10l-7 1-7-1c-2 0-3-1-5-3-5-6-1-10 6-9l12 2a12 12 0 004-1 3 3 0 000 1zm0 0v-1a15 15 0 01-4 1l-12-2c-7-1-11 3-6 10 2 1 3 3 5 3h7l7-1c4 0 3-8 3-10z"/><path class="k" d="M583 293c0 2 0 10-3 10-2 0-2 2-9 1s-5 1-10-4c-4-4-3-9 3-9l14 2 5-1z"/><path class="g" d="M583 293l-1 8-1-1h-6c-3 1-6-1-9 1-4 4-6-7-5-8 4-3 5-1 6-2l11 2 5-1z"/><path class="p" d="M561 294c4-4 3-1 5-1l3-1a47 47 0 0110 2l-11-1a13 13 0 01-2 1c-2-1 0-2-5 0z"/><path class="h" d="M498 257h-6c-2 0-7-1-8 1l-2 3c-1 2 0 6 1 7 5 3 8 1 13 1a68 68 0 0111 1c1 0 6 1 7-1v-10c-1-2-6-2-8-2a54 54 0 00-8 0zm0 0a42 42 0 018 0c2 0 7 0 8 2v10c0 2-6 2-8 1a73 73 0 00-10-1c-5 0-8 2-13-1-2-1-2-6-1-8l2-3c1-2 6 0 8 0h6z"/><path class="i" d="M498 257h-8c-3 0-6-2-7 2l-1 5c0 4 0 4 3 5 4 2 6 0 11 0l11 1a23 23 0 006 0c2 0 1-3 1-4v-3c0-5 0-6-6-6h-10z"/><path class="j" d="M492 257a15 15 0 00-2 0c-3 0-6-2-7 2 0 2 1 5 3 5 3 0 6 2 9 0 1 0 1-2 3-2h5c3 2 8-1 11-1 0-3-1-4-6-4h-5c-3 2-5 3-10 0h-1zm19 13a6 6 0 01-2 0c-6-4-9-2-16-2-1 0-9-1-8-3 4-1 4 2 9 1 5 0 1-3 11-2l9-1v3c0 1 1 4-1 4z"/><path class="q" d="M513 260c0-2-1-2-3-2l-8 1a17 17 0 01-6-1h6l6-1c2 0 7 0 5 3z"/><path class="h" d="M441 280c3-2 2-1 6-1 2 1 7 2 8 0l1-3v-8c-5-2-8-1-13-1a69 69 0 01-11-1c-1 0-6-1-7 1v10c1 3 6 2 7 2a54 54 0 009 1zm0 0a41 41 0 01-9 0c-2 0-6 0-7-2v-11c0-2 6-1 7-1a74 74 0 0011 1c5 0 8-2 13 1 2 1 2 7 1 8l-2 3c-1 2-6 1-8 0l-6 1z"/><path class="i" d="M441 280l4-1 4 1c3 0 6 1 7-3l1-5c0-3 0-3-3-4-4-2-6-1-11-1l-11-1a23 23 0 00-6 0c-2 0-1 3-1 5v2c0 6 0 6 5 6l11 1z"/><path class="j" d="M447 279a15 15 0 002 1c3 0 6 1 7-3l-3-4c-3-1-6-2-9-1-1 0-1 2-3 2h-6c-2-1-7 1-10 1 0 4 0 4 5 4l6 1c3-2 5-3 10-1h1zm-19-13a6 6 0 012 1c6 4 9 1 16 1 1 0 8 2 8 4-4 0-4-2-9-2-6 1-1 3-11 3h-9v-2c0-2-1-5 1-5h2z"/><path class="q" d="M426 276c0 2 0 3 3 2l8-1a17 17 0 016 1h-6l-6 1c-2 0-7 0-5-3z"/><path class="e" d="M487 285h-10c-5 0-6 2-7 6 0 4 0 8 4 8h3c5 1 6 2 10 0 3-2 11 0 12-1 5-12-4-11-11-13a2 2 0 00-1 0zm0 0a1 1 0 011 0c7 2 16 1 11 13-1 2-9 0-12 1-4 2-6 2-10 0h-3c-4 0-5-4-4-8 1-5 2-7 7-6s5 0 10 0z"/><path class="k" d="M487 285c-8 2-13-3-16 3-1 4-3 12 4 11 1-1 7 3 12 0 3-2 11 1 12-1 5-12-5-11-11-13a4 4 0 00-1 0z"/><path class="g" d="M487 285h-2a29 29 0 01-4 8l-3 3s0-2 3-4a19 19 0 003-7c-7 1-11-2-13 3-4 11 4 14 11 6 3-3 3-7 5-3l3 7h3c-2-1 1-7 0-11-1-2-6 0-6-2zm-5 15c1-3 4-7 5-1a9 9 0 01-5 1zm16-12c4 4 0 10-2 7-3-3-2-7-1-9a10 10 0 013 2z"/><path class="p" d="M472 287c-1-2 5-2 5-2a22 22 0 004 0h4l-4 1h-7l-2 1z"/><path class="k" d="M471 297l8-8c3-1 2-2 3-4a6 6 0 01-2 4l-2 3c-2 3 1 3 0 7 1-4-1-4-1-6-2 2 1 3-1 5 1-2-1-4 1-6l2-2c-4 2-5 3-8 7zm11-12z"/><path class="e" d="M563 311c0 1 1 5-1 6-3 2-13 0-17 0-3 1-11 2-11-4 0-3 0-2 5-5 2-1 6-4 9-4s12 0 14 4a5 5 0 011 3zm0 0c0-2 0-3-2-4-2-3-12-4-15-3l-12 6v5c1 4 8 3 11 3 4-1 14 1 18-1v-6z"/><path class="k" d="M563 311v6l-11 1h-10c-3 0-8 0-8-5 0-2-1-2 4-4l10-5c4 0 15 0 15 7z"/><path class="g" d="M534 311a14 14 0 014-2l10-5c4 0 13 0 14 4 1 3 1 5-6 6l-10-1-11-2z"/><path class="p" d="M541 308c3-3 14-5 18-2v1c-5-3-14 0-18 1z"/><path class="e" d="M543 306c0 1 2 5 4 6 2 2 3 8 1 3 0-3-2-3-4-5-1-3 0-3-2 2l1-4v-2zM554 273v-9c1-5 4-3 8-3 3 0 18-1 19 1v7c1 2 1 6-2 6l-13-1c-1 0-13 0-12-1zm0 0l12 1 13 1c3 0 3-4 2-6l-1-7-16-1c-7 0-10-2-11 5l1 7z"/><path class="k" d="M554 273v-9c1-4 3-3 7-3h12l8 1v7c1 2 1 6-2 6a175 175 0 00-18-1c-1 0-8 0-7-1z"/><path class="g" d="M560 261h13l8 1a8 8 0 010 2l-2 2c2 3 3 3 1 5-2 4-4 2-4 1-1-5-4-1-7 1l-13-1c-2-1-2-3-2-5 0-4 2-4 2-5l4-1zm0 4a8 8 0 012-1c2 0 1-1 1-1a1 1 0 01-2 0s-6 3-1 2zm14 6s-3-1-2 1a2 2 0 002 0v-1z"/><path class="p" d="M567 262l11 1h-1c-4 1-7 0-10-1z"/><path class="k" d="M554 269a6 6 0 001-2l5-1-4 1-2 2c0-1 0 1 0 0z"/><path class="e" d="M426 310v-9c1-5 4-3 8-3l19 1v7c1 3 1 6-2 6l-13-1c-1 0-13 1-12-1zm0 0l12 1 13 1c3 0 3-4 2-5l-1-8-16-1c-7 0-10-2-10 6v6z"/><path class="k" d="M426 310v-9c1-4 3-3 7-3h12l8 1v8c1 1 1 5-2 5a175 175 0 00-18-1c-1 0-8 0-7-1z"/><path class="g" d="M432 298h13l8 1a8 8 0 010 2l-2 2c2 3 3 3 1 6s-4 1-4 0c-1-4-4-1-7 1l-13-1c-2-1-2-2-2-5 0-4 2-4 2-4l4-2zm0 4a8 8 0 012-1c2 0 1-1 1-1a2 2 0 01-2 0s-6 3-1 2zm14 6s-3 0-3 2a2 2 0 003-1v-1z"/><path class="p" d="M439 299l11 2h-1l-10-2z"/><path class="k" d="M426 306a6 6 0 001-1c2-2 5-2 5-1-1 0-3-1-4 1l-2 2v-1zM543 306c0 1 2 5 4 6 2 2 3 8 1 3 0-3-2-3-4-5-1-3 0-3-2 2l1-4-1-2h1z"/><path class="ax" d="M360 217l1-2h1l3 1h3l-1 2-7-1z"/><path class="ay" d="M385 219v-2h7v3l-7-1zM413 222v-3h2l3 1h2v3l-7-1z"/><path class="ax" d="M438 248h2v5l-1 2h-2l1-7z"/><path stroke-width="1.3" fill="#3f2b0f" stroke="#1d150c" stroke-miterlimit="10" d="M435 274l3 1v8l-4-1 1-8z"/><path class="ay" d="M433 302h3v2l-1 3v2h-3l1-7z"/><path class="ax" d="M329 298l-2-1v-1l1-3v-2h2l-1 7z"/><path class="ay" d="M332 273h-3v-7h3v7zM334 245h-3v-2l1-3v-2h3l-1 7z"/><path stroke-width="1.4" fill="#3f2b0f" stroke="#1d150c" stroke-miterlimit="10" d="M409 326l-1 4h-2l-3-1h-3l1-4 8 1z"/><path class="ay" d="M382 324v3h-2l-3-1h-2v-3l7 1zM356 321v3h-5l-2-1v-2h7z"/><path class="bb" d="M329 317v2l1 1h7l1-1 1-5-6-1-4 4z"/><path class="bb" d="M338 315v5l4 1h5l1-1v-4a15 15 0 00-1-1l-8-1zM357 317l-1 1v3l1 1h3l1 1h3l2-1h1v-5l-9-1-1 1z"/><path class="bb" d="M347 316v5l1 1 3-1 1 1h3l1-1 1-5-8-2-2 2zM385 319l-1 2v3l2 1h7v-5l-6-2-2 1z"/><path class="bb" d="M374 319l-1 4h1l1 1h3l3 1 1-1h2v-2l1-3-8-2-3 2z"/><path class="bb" d="M366 318v5h2l1 1h4a11 11 0 000-2l1-3-3-2zM400 321l-1 4h1v1h4l3 1 1-1h1l1-1v-1l1-3-8-2-3 2z"/><path class="bb" d="M410 321l-1 4 1 1 1 1h5l4 1h1l3-1v-2l1-3-11-2-4 1zM392 320v1l-1 3 1 1h3l2 1h2a11 11 0 000-2l1-3-4-2z"/><path class="bc" d="M430 328h-5l-1-1v-5l1-1z"/><path class="bb" d="M339 310v5l1 1h7l1-1 1-5-8-1-2 1z"/><path class="bb" d="M348 311v5l4 1h5l1-1v-4a15 15 0 00-1-1l-8-1zM380 314l-1 2v3h2l8 1 1-1h1v-4l-9-3-2 2z"/><path class="bb" d="M367 311l-1 6 1 1h1l2 1h7l2-1v-2l1-3-9-1-4-1z"/><path class="bb" d="M358 310l-1 3v3l1 1h3l2 1h3a8 8 0 000-2l1-5-4 1zM335 314v1h5v-5l-1-1-4 5zM399 315v3l-1 2h1l3 1h6l1-1 1-5h-11z"/><path class="bb" d="M409 316v2l-1 2 1 1h1l3 1h6l1-1 1-5-9-1-3 1zM390 314l-1 3 1 2v1h7l2-1v-5l-7-1-2 1z"/><path class="bb" d="M425 322h-2-3l-1-1v-5h2zM345 305l-1 3v2l1 1h7l2-1v-5l-7-1-2 1z"/><path class="bb" d="M354 306l-1 1v4l4 1h5l2-1-1-4a15 15 0 00-1-2h-8zM385 309l-1 2v3h2l7 1 1-1h1l-1-3 1-2-8-2-2 2z"/><path class="bb" d="M372 308l-1 4 1 1h3l2 1h5l2-1v-2l1-3-9-2-4 2z"/><path class="bb" d="M363 307a16 16 0 01-1 1v2l1 1 2 1h4l2 1 1-1a8 8 0 000-1v-3l-4-2zM415 312l-1 2v3l-2-1a6 6 0 01-2 0 5 5 0 00-1 0h-2a6 6 0 01-1-1l1-4 4-2z"/><path class="bb" d="M394 313l1 2h2l3 1h6v-1l1-4-7-2h-5l-1 2v2zM421 316l-1 1h-2l-2-1h-1l-1-1 1-3 1-2 5 5v1zM340 309l1 1h4v-1l1-4-1-1-5 5zM346 303v2l1 1h7l2-1v-5l-5-1-5 4z"/><path class="bb" d="M356 301l-1 2v3l4 1h5l1-1v-4a13 13 0 00-1-1l-8-1zM374 303v3l-1 1 2 1h2l2 1h3l1-1h1l1-5-10-1-1 1z"/><path class="bb" d="M365 302v5h3l2 1h2l2-1v-5l-7-2-2 2zM416 311l-1 1h-4l-1-1v-5l1-1 5 6z"/><path class="bb" d="M402 305v2l-1 2 1 1 1 1h6l1-1v-3l1-1-7-3-2 2z"/><path class="bb" d="M391 305v4l1 1h3l3 1 1-1h2v-1l1-1v-3l-8-2-3 2z"/><path class="bb" d="M384 304l-1 1v4h2l1 1h5a11 11 0 000-2v-3l-3-2zM366 297v5h1l3 1h5l1-1 1-5-9-1-2 1z"/><path class="bb" d="M376 298v5h1l3 1 2-1 1 1h3l2-1v-5l-8-2-4 2z"/><path class="bb" d="M387 299v5h5l2 1 1-1 1-1 1-4-8-2-2 2zM357 296v5l1 1h7l1-1 1-5-8-1-2 1z"/><path class="bb" d="M396 299v6h4l4 1 1-1 1-1v-3a15 15 0 00-1-2l-8-1zM411 305l-1 1-1-1-2 1h-1v-6l1-1zM351 300l1 1h3l1 1 1-1v-1l1-5h-1l-6 5z"/><path class="bb" d="M357 295l1 1h6v-5l-1-1-6 5z"/><path class="bb" d="M364 291v3l-1 2 1 1h7v-1l1-5h-8z"/><path class="bb" d="M372 292l-1 2v3h2l3 1h6l1-1v-5l-8-2-3 2z"/><path class="bb" d="M383 293l-1 2v3h4l1 1h3l2-2v-4l-8-2-1 2z"/><path class="bb" d="M391 294v5h4l4 1 1-1 1-1v-3a15 15 0 00-1-2h-8zM406 299v1h-2-3v-6h1z"/><path class="bb" d="M402 294l-2 1-2-1h-2v-5l1-2 5 7zM388 288l-1 2v3h2l6 1v-1h1v-4l-6-3-2 2z"/><path class="bb" d="M377 287l-1 4 1 1 1 1h9v-3l1-3-8-1-3 1z"/><path class="bb" d="M369 287v5h3l2 1h3a11 11 0 000-2v-4l-3-1zM363 290v1l2 1h3l1-1v-4l-1-2-5 5zM391 284l-1 2v3l-2-1a6 6 0 01-2 1 5 5 0 00-1-1h-2a7 7 0 01-1-1l1-4 4-2z"/><path class="bb" d="M374 286v1l2 1h6v-1l1-4-5-2-3 1-1 1v3zM368 285l1 2h4l1-1v-4l-1-1-5 4zM397 288l-1 1h-4l-1-1-1-1 1-3 1-1 5 4v1z"/><path class="bb" d="M388 282l-2 2h-4l-2-1-1-1v-4l1-1 8 1zM379 282h-5l-1-1 6-5v6z"/><path class="bb" d="M392 283l-1 1h-3v-1h-1v-3l1-2v-1l4 5v1z"/><path class="bb" d="M388 277v2l-4-1h-1l1-2-1-4 3 3 2 2zM379 277v1h4v-6l-4 4v1zM439 226v-2l-1-1h-7l-1 1-1 5 5 1 5-4z"/><path class="bb" d="M430 228v-5l-4-1h-5l-1 1v4a15 15 0 001 2h8zM411 227v-3l1-2-1-1h-3l-2-1h-3l-1 1h-1l-1 5 10 1h1z"/><path class="bb" d="M420 227l1-2-1-3h-4l-2-1-1 1-2 1v4l7 2 2-2zM383 224l1-2v-2l-1-1h-1l-6-1v1h-1v5l6 2 2-2z"/><path class="bb" d="M394 225v-5l-1-1h-7l-2 1v2l-1 3 8 1 3-1z"/><path class="bb" d="M402 226v-2-4h-3l-2-1h-3a11 11 0 000 2v4l3 1zM368 223l1-4-1-1-1-1h-7l-2 1v2l-1 3 8 1 3-1z"/><path class="bb" d="M358 222v-4l-1-1-3-1h-10v3l-1 3 10 1 5-1zM376 224v-2l1-2-1-2h-3l-2-1h-2v1a11 11 0 000 1l-1 4 3 1z"/><path class="bc" d="M338 216l1-1 1 1 2-1 1 1h1v6h-2z"/><path class="bb" d="M428 233l1-3-1-2h-3l-2-1h-2l-2 1v5l7 2 2-2z"/><path class="bb" d="M419 232l1-1v-3l-1-1h-3l-4-1-1 1-2 1 1 3a15 15 0 001 2h8zM388 229l1-2v-2l-3-1-8-1v1h-1v3l-1 2 9 2 3-2z"/><path class="bb" d="M401 232l1-6-1-1h-3l-2-1h-5l-2 1v2l-1 3 9 2h4z"/><path class="bb" d="M410 233l1-3v-2l-1-1-2-1h-7a7 7 0 000 1v5h4zM433 230l-1-2h-4v1l-1 5h1l5-4zM369 228v-3l1-1-2-1h-3l-1-1h-3l-1 1h-1l-1 5 9 1 2-1z"/><path class="bb" d="M359 227v-5h-7l-2-1h-1l-1 1-1 6 9 1 3-2zM378 229v-6l-3 1-2-1h-3l-1 1v5l7 2 2-2z"/><path class="bb" d="M343 221h5v3l1 2v1h-2zM423 238v-5h-3l-2-1h-2l-2 1v5l7 2 2-2z"/><path class="bb" d="M414 238v-2l1-2v-1l-1-1h-3l-4-1-1 1-2 1 1 3a13 13 0 001 2h8zM383 235l1-2v-2l-1-1-1-1h-9l1 3-1 2 8 2 2-1z"/><path class="bb" d="M396 236v-5l-1-1h-4l-4-1h-1l-2 1v2l-1 3 9 2 4-1z"/><path class="bb" d="M405 237a16 16 0 011-2v-2l-1-1-2-1h-7a8 8 0 000 1v4l4 1zM353 232v-5h3a6 6 0 011 0 5 5 0 002 0h1l1 1a6 6 0 010 1v4l-5 1z"/><path class="bb" d="M374 230l-1-1-3-1h-2l-3-1h-2l-1 1-1 1v4l6 2 6-1v-2l1-2zM347 228l1-2h1l2 1h2v5l-2 1-4-5zM428 235l-1-1-1-1h-3v1l-1 5h1l5-4zM421 240v-3h-7l-2 1v5l5 1 4-4z"/><path class="bb" d="M412 242v-1l1-2v-1l-1-1-3-1h-5l-2 2 1 3a13 13 0 001 2h8zM394 241v-5l-1-1h-3l-1-1h-3l-1 1-1 1-1 4 9 1h2z"/><path class="bb" d="M403 241v-5h-5l-2-1-1 1-1 1v4l7 2 2-2zM352 232l1-1 2 1h3v4l-1 1-1 2-5-6z"/><path class="bb" d="M366 238v-5h-1l-6-1-1 1v3l-1 2 7 2 2-2zM377 239v-4l-1-1v-1h-8l-1 1h-1v5l7 1 4-1z"/><path class="bb" d="M384 240l1-2v-2l-1-2h-3l-2-1h-2v1a11 11 0 000 1v4l3 1zM402 246v-4l-1-1h-3l-1-1h-3l-1 1h-2v5l9 1 2-1z"/><path class="bb" d="M391 245l1-2v-2l-1-1h-6l-3-1h-1l-1 1v6l8 1 3-2z"/><path class="bb" d="M380 245l1-3v-2l-1-1h-7l-2 1v5l8 1 1-1zM411 247v-5h-4l-1-1h-3l-1 1-1 5 8 2 2-2z"/><path class="bb" d="M372 244v-5l-4-1h-5l-1 1v4a15 15 0 001 1l8 1zM357 238h5v6h-1zM417 244l-1-2h-5l-1 1v5l1 1 6-5zM410 248v-1h-5l-1 1-1 5 2 1 5-6z"/><path class="bb" d="M404 252v-4l-1-1-2-1h-3l-1 1h-1v5l7 1 1-1z"/><path class="bb" d="M396 251l1-2v-2l-1-1h-7l-2-1h-1l-1 1-1 6 9 1 3-2z"/><path class="bb" d="M385 251v-6h-7l-2 1v5l7 1 2-1z"/><path class="bb" d="M376 250v-2l1-1v-2h-1l-3-1h-5l-2 1 1 4a13 13 0 001 1l8 1z"/><path class="bb" d="M362 244h5v5l-1 1z"/><path class="bb" d="M366 250l1-1h4l1 1v4l-1 2-5-6zM380 255v-2l1-2-1-1h-1l-6-1v1h-1v5l6 2 2-2z"/><path class="bb" d="M391 256v-5h-2l-2-1h-4l-2 1-1 2v3l8 1 3-1z"/><path class="bb" d="M399 257v-2-3l-2-1h-3l-2-1-1 1a10 10 0 000 1v4l3 1z"/><path class="bb" d="M405 253v-1h-2l-3-1h-1v4l-1 2 1 2 6-6zM377 259v-4l1-1 2 1a6 6 0 011 0 5 5 0 002 0h1l1 1v4l-5 2zM394 257v-1h-2l-2-1h-4v1l-1 4 5 2h3l1-2v-3z"/><path class="bb" d="M400 258l-1-1-1-1-2 1-1-1-1 1v5h1l5-4zM371 255l1-1h1l2 1h2v5l-2 1-4-5v-1zM380 261l2-1 1-1 3 1h2l1 1v5l-1 1-9-2z"/><path class="bb" d="M389 262l1-1h4l1 1-6 5v-5zM375 260l1-1 4 1 1 1-1 2v3l-5-5v-1z"/><path class="bb" d="M380 266v-1h4v3l1 3-4-2-1-3z"/><path class="bb" d="M389 266l-1-1h-3l-1 2v3l1 1 4-4v-1zM429 327h2l1-1v-7l-1-1-5-1-1 6 4 4z"/><path class="bb" d="M427 318h5l1-4v-5l-1-1h-4a15 15 0 00-1 1l-1 8zM428 299h2l1 1h2l1-1v-3l1-2v-2l-1-2v-1h-5l-1 9v1z"/><path class="bb" d="M428 308l2 1h3v-4l1-1v-3l-1-2h-5l-2 8 2 1zM431 271l2 1h3v-2l1-6h-1v-1h-4l-3 6 2 2z"/><path class="bb" d="M430 282h5l1-1v-9h-3l-3-1-1 8 1 3z"/><path class="bb" d="M430 290h5v-3l1-2v-2-1a10 10 0 00-2 0h-4l-1 3zM432 256l4 1 1-1 1-1v-9h-3l-3-1-1 8 1 3z"/><path class="bb" d="M433 246h4l1-1h1v-5l1-4-1-2v-2h-2l-3-1-2 11 1 4zM432 264h1l3 1 1-1v-3l1-2v-2a11 11 0 00-2 0l-4-1-1 4z"/><path class="bc" d="M439 226l1 1v4l-1 1h-5l-1-1z"/><path class="bb" d="M422 316l3 1h2l1-1v-7l-1-2h-5l-1 8 1 1z"/><path class="bb" d="M423 308h5l1-4v-5l-1-1h-4a13 13 0 00-2 1v8zM426 276l2 1h3v-2l1-8-1-1v-1h-3l-2-1-2 9 2 3z"/><path class="bb" d="M423 289l6 1 1-1v-3l1-2v-5l-1-2h-2l-3-1-2 9v4z"/><path class="bb" d="M422 298l3 1h2l1-1 1-2v-1l1-2v-3h-1a7 7 0 00-1 0l-5-1v4zM425 321h2v-5h-1l-4-1-1 1 4 5zM427 257h3l1 1 1-2 1-3v-5l-1-1-5-1-1 10 1 1z"/><path class="bb" d="M428 247h5v-5l1-2v-3l-1-1-5-1-2 9 2 3zM426 266h6v-7l-1-2h-5l-1 7 1 2z"/><path class="bb" d="M434 231v5l-1 1-2-1-1 1h-2v-2zM417 311h5v-3l1-2v-2l-1-2h-5l-2 7 2 2z"/><path class="bb" d="M418 302h1l2 1h1l1-1v-3l1-4v-1l-2-2-3 1a15 15 0 00-2 1v8zM421 271l2 1h1l1-1 1-1 1-7-1-1v-1l-3 1-2-1-2 8 2 2z"/><path class="bb" d="M420 284h5v-3l1-2v-5l-1-2h-2l-3-1-2 9 2 4z"/><path class="bb" d="M419 293a14 14 0 011 1h2l1-1 1-2v-4l1-2-1-1a7 7 0 00-1 0h-3l-2 4zM424 241h2l2 1v2a6 6 0 010 2 6 6 0 000 1v1l-1 1a6 6 0 010 1l-5-1-1-5z"/><path class="bb" d="M425 262l1-1 1-2v-3l1-3v-2l-1-1-5-1-2 6 1 6 2 1h2zM428 235l1 1v1l-1 3v1h-5l-1-1 5-5h1zM420 316l2-1v-4h-1l-5-1v1l4 5zM415 310l2-1h1v-7l-1-2h-5l-1 5 4 5z"/><path class="bb" d="M413 300l1 1h3l1-1 1-3v-5l-1-2-4 1a13 13 0 00-2 1v8zM414 282h3l2 1 1-2v-3l1-1v-3l-1-1v-1l-5-1-1 9v2z"/><path class="bb" d="M414 291h5v-3l1-2v-3l-2-1h-4l-2 7 2 2zM423 240l1 1-1 2v3h-5l-2-1 6-6z"/><path class="bb" d="M417 254h5v-1l1-6h-1v-1h-3l-1-1-3 7 2 2zM416 265h4l1-1h1v-9l-1-1h-5l-1 7 1 4z"/><path class="bb" d="M416 272l1 1h3l1-1v-2l1-2v-2-1a11 11 0 00-2 0h-4l-1 3zM409 290h4l1-1v-3l1-1v-3l-1-1v-1l-5-1-1 9 1 2z"/><path class="bb" d="M410 279l2 1h3v-7l1-3v-1l-1-1h-5l-2 8 2 3z"/><path class="bb" d="M411 268l2 1h3v-8l-1-1-5-1-1 8 2 1zM408 299h5l1-1v-7l-1-1-5-1-2 8 2 2z"/><path class="bb" d="M411 260h6v-9l-1-1h-4a15 15 0 00-1 1l-1 8zM417 245v5h-5l-1-1zM411 305l2-1v-5h-1l-5-1v1l4 6z"/><path class="bb" d="M407 299l1-1v-5l-1-1h-4l-2 1 6 6z"/><path class="bb" d="M403 292h3l2 1v-1l1-3v-4l-1-1h-5l-1 7 1 1z"/><path class="bb" d="M404 284l2 1h2l1-1v-5l1-1v-4l-1-1h-5l-2 8 2 3z"/><path class="bb" d="M405 273l2 1h3v-5l1-2-1-1-1-2h-4l-2 8 2 1z"/><path class="bb" d="M405 264l2 1h4v-9l-1-1h-4a15 15 0 00-1 1l-1 8zM411 250h1l-1 2v3h-5l-1-1z"/><path class="bb" d="M406 254l1 1-1 3v2h-5l-2-1 6-5zM400 268l2 1h3v-2l1-6h-1v-1h-5l-2 6 2 2z"/><path class="bb" d="M399 279h5l1-1v-7l-1-2h-2l-3-1-1 8 1 3z"/><path class="bb" d="M398 287h6v-3l1-2v-2l-1-1a11 11 0 00-1 0h-4l-1 3zM402 293h1l1-2v-4h-6l-1 1 5 5zM396 265h2l2 1h1l-1 2a6 6 0 010 2 5 5 0 000 1v2a5 5 0 01-1 1l-4-1-2-4z"/><path class="bb" d="M398 282h1v-2l1-2v-4h-1l-4-1-2 5v3l2 1h3zM397 288l1-1 1-1v-3l-1-1h-5v1l4 5zM400 259l1 1v1l-1 3v1h-4l-2-1 5-5h1z"/><path class="bb" d="M394 268l1 2 1 1-1 3v2l-1 1h-4l-2-1 2-9zM393 277l1 1v4l-1 1-5-6h5z"/><path class="bb" d="M395 263l1 2v3h-1l-1 1-2-1h-3l5-5h1z"/><path class="bb" d="M389 268h1v4l-1 1-2-1-3 1 2-4 3-1z"/><path class="bb" d="M389 277l1-1v-3l-1-1-4 1h-1l4 4h1zM338 217h-3v7l1 2h5l1-5-4-4z"/><path class="bb" d="M340 226h-1l-2-1h-1l-1 1-1 3v5l1 2 4-1a15 15 0 002-1v-8zM339 244h-3l-2-1-1 2v3l-1 1v3l1 1v1l5 1 1-9v-2z"/><path class="bb" d="M339 235h-5v3l-1 2v2l1 1 1 1h4l2-7-2-2zM336 272h-5v1l-1 6 1 1h3l1 1 3-7-2-2zM337 261h-4l-1 1h-1v9l1 1h5l1-7-1-4z"/><path class="bb" d="M338 254l-2-1h-3l-1 1v3l-1 2v2a10 10 0 002 0h4l1-3zM335 287h-5l-1 1v7l1 2h2l3 1 1-8-1-3z"/><path class="bb" d="M334 297h-4l-1 1-1 1v12l1 1h4l2-10-1-5zM336 280l-2-1h-4v3l-1 2v2l1 1a11 11 0 001 0h4l1-3z"/><path class="bc" d="M328 317l-1-1 1-1-1-2 1-1v-1l2 1 2-1h2v2z"/><path class="bb" d="M345 227h-5v3l-1 2v3l1 1h5l2-7-2-2zM344 236h-5v4l-1 3 1 2 1 1h3a15 15 0 002-1v-9zM341 267h-4l-1 2-1 8 1 1v1l3-1 2 1 2-9-2-3zM344 254h-6l-1 1v2l-1 2v5l1 2h1l1 1h3l2-9v-4z"/><path class="bb" d="M345 245h-3l-2-1-1 1-1 2v4l-1 2 1 1a8 8 0 001 0h5v-4zM342 222l-2 1v4l1 1h5v-1l-4-5zM340 286h-4l-1 1-1 3v4l1 1v1l5 1 1-9-1-2z"/><path class="bb" d="M339 297l-2-1h-3v7l-1 3v1l1 1h5l2-8-2-3zM341 277h-5l-1 1v7l1 1 5 1 1-8-1-2z"/><path class="bb" d="M333 312v-2-3h6v1zM350 232h-5v4l-1 1v3l1 1 5 1 2-8-2-2z"/><path class="bb" d="M349 241h-5v4l-1 4 1 1 1 1h3a15 15 0 002-1v-8zM347 272h-5l-1 2v8h5l2-7-1-3z"/><path class="bb" d="M347 259h-4v1h-1v4l-1 4v1l1 2 1 1h1l3 1 2-10-2-4z"/><path class="bb" d="M349 250a15 15 0 01-2 0h-3l-1 3v6a7 7 0 001 0h4l1-3zM344 302h-5v-3a6 6 0 010-1 5 5 0 000-1v-2l1-1h5l1 5zM342 282h-1l-1 3v3l-1 3v1l1 1 1 1h4l2-6-1-5-2-1h-2zM339 308l-1-1v-1l1-2v-2h5l1 2-5 4h-1zM347 227l-1 1-1 1v3l1 1h5v-1l-4-5zM352 234h-2l-1 1v7l1 1 5 1 1-6-4-4z"/><path class="bb" d="M354 243h-5l-1 4v5l1 1h4a13 13 0 002-1v-9zM353 261h-5l-1 1v3l-1 1v3l1 1v1l5 1 1-9v-2z"/><path class="bb" d="M353 252h-5v5l-1 2 1 1 1 1 4 1 2-8-2-2zM344 304l-1-2 1-2v-2h2l2-1 1 1 2 1-6 5z"/><path class="bb" d="M350 290l-2-1h-3v2l-1 5 1 1v1l3-1 2 1 2-6-2-2z"/><path class="bb" d="M351 279l-4-1-1 1-1 1v7l1 2h2l3 1 1-8-1-3z"/><path class="bb" d="M352 271h-2-4v3l-1 2v2h1a10 10 0 001 0l4 1 1-3zM358 254h-2l-2-1-1 1v3l-1 2v3l1 1v1l5 1 1-10-1-1z"/><path class="bb" d="M357 264h-2l-2-1-1 1v7l-1 2v1l1 1 6 1 1-9-2-3z"/><path class="bb" d="M357 275h-6v8l1 1h5l1-7-1-2zM359 245l-3-1-2 1v3l-1 1v3l1 2h5l2-7-2-2z"/><path class="bb" d="M356 284h-2l-1-1h-2v1l-1 4v4l1 2 4-1a13 13 0 001 0l1-9z"/><path class="bb" d="M350 299v-1-1-4h6v2zM356 239l-2 1v4l1 1h5l1-1-5-5zM360 245h-1v5l1 1 5 1 1-2-6-5z"/><path class="bb" d="M364 251h-5v1l-1 2v3l1 1v1l5 1 1-7-1-2z"/><path class="bb" d="M363 259h-5v7l-1 2v1l1 1 6 1 1-9-2-3z"/><path class="bb" d="M362 270h-5v8l1 1h5l1-7-2-2zM362 279h-6v9l1 1h4a15 15 0 001-1l1-9z"/><path class="bb" d="M356 294v-1-1-4h5l1 2z"/><path class="bb" d="M362 289l-1-1v-2-2h1l1-1h2l1 1 2 1-6 5z"/><path class="bb" d="M367 275h-5v1l-1 6 1 1h3l2 1 2-7-2-2zM368 264h-4l-1 1-1 2v6l1 1v1h5l1-7-1-4z"/><path class="bb" d="M369 257l-2-1h-2l-2 1v5l-1 2h1a11 11 0 001 0h4l1-3z"/><path class="bb" d="M365 250l-1 1v2l-1 2v1h4l2 1 2-1-6-6zM371 278h-4l-1-1 1-2a6 6 0 010-1 5 5 0 000-1v-3a6 6 0 011 0h4l2 5z"/><path class="bb" d="M369 261l-1 1v1l-1 2v5h5l2-4v-4l-2-1h-3z"/><path class="bb" d="M370 256l-1 1h-1v4h1l5 1v-1l-4-5zM367 284l-1-1v-1l1-2v-2h5l1 2-5 4h-1zM373 275l-1-1-1-2 1-2v-3h1l1-1h3l2 2-2 8z"/><path class="bb" d="M374 266h-1v-5h1l5 6-2-1h-3zM372 280l-1-1v-3l1-1h5l1 1-5 4h-1z"/><path class="bb" d="M378 276l-1-1v-3l1-1h5l-2 3-3 2zM378 266l-1 1v4h6l-4-5h-1z"/><path transform="rotate(-85 383 272)" style="isolation:isolate" opacity=".1" fill="url(#b)" d="M331 220h103v104H331z"/><path class="be" d="M329 318l6-5 6-5 8-6 10-8 10-9 12-9 3-3-1-1-4 2-11 10-10 8-10 9-8 6-6 5-7 5v2zM337 217l5 6 5 6 6 8 9 10 8 10 10 12 2 3 2-1-3-4-9-11-9-10-8-10-6-8-5-6-5-7h-2z"/><path class="be" d="M439 225l-7 5-6 5-8 6-10 9-10 8-11 10-4 2 2 2 3-3 11-10 11-8 9-8 8-6 7-6 6-4v-3zM431 327l-5-6-5-7c-4-3-4-4-6-7l-9-10-8-10-10-12-2-3-2 1 3 4 9 11 9 10 8 10 6 8 5 6 5 6 2 1z"/><path class="be" d="M386 274h-4v-5c1-1 3 0 4 1v1a6 6 0 010 3z"/></g></svg>