<svg xmlns="http://www.w3.org/2000/svg" xmlns:xlink="http://www.w3.org/1999/xlink" viewBox="0 0 1501 1001"><defs><radialGradient id="b" cx="725.6" cy="993.7" r="51.8" gradientTransform="matrix(0 1 1 0 -571 -173)" gradientUnits="userSpaceOnUse"><stop offset="0" stop-color="#c0a373"/><stop offset="1" stop-color="#fff" stop-opacity="0"/></radialGradient><linearGradient id="a" x1="1447.8" y1="741.3" x2="1447.8" y2="646.6" gradientTransform="matrix(1 0 0 -1 -146 1444)" gradientUnits="userSpaceOnUse"><stop offset="0" stop-color="#a0edf0"/><stop offset="1" stop-color="#45dbe2"/></linearGradient><style>.e{isolation:isolate}.b{fill:#70b344;stroke:#5f732e}.ax,.ay,.b,.bb,.bc,.be,.x{stroke-miterlimit:10}.d{fill:#ddc02c}.e{opacity:.25}.aa,.f{fill:#7ebb15}.g{fill:#94d31a}.h{fill:#78a015}.i{fill:#897d6f}.j{fill:#635a52}.l{fill:#91887b}.p{fill:#8ab550}.q{fill:#97c261}.r{fill:#a9d171}.s{fill:#b3db7b}.t{fill:#dcf5f5}.u{fill:#f2ffff}.v{fill:#fff}.w{fill:#fddfb3}.x{fill:#1d150c}.ax,.ay,.bb,.bc,.be,.x{stroke:#1d150c}.y{fill:#81a653}.ad{mix-blend-mode:multiply}.aa{mix-blend-mode:screen}.ab{fill:#bdbdbd}.ac{fill:#d9d9d9}.ad{fill:#cfcfcf}.ae{fill:#cbcbcb}.ag{fill:#c6c6c6}.ah{fill:#e8e8e8}.aj{fill:#5c4328}.aj,.ak,.al,.am,.an,.ao,.ap,.aq,.ar,.as,.at,.au,.av,.aw,.bb,.bc,.be{fill-rule:evenodd}.ak{fill:#544730}.al{fill:#877657}.am{fill:#ae9c87}.an{fill:#68543c}.ao{fill:#9d8264}.ap{fill:#b49871}.aq{fill:#8f7e5f}.ar{fill:#857c68}.as{fill:#a59b84}.at{fill:#67604f}.au{fill:#bdb29a}.av{fill:#c1b09a}.aw{fill:#cdb186}.ax,.ay{fill:#3f2b0f}.ay{stroke-width:1.14px}.bb,.bc{fill:#571c10}.bc{stroke-width:1.04px}.be{fill:#c0a373}</style></defs><g style="isolation:isolate"><path class="b" d="M1001 501h250v250h-250zM1251 251h250v250h-250zM1001 251h250v250h-250zM1001 1h250v250h-250zM1251 1h250v250h-250zM751 251h250v250H751zM751 1h250v250H751zM751 501h250v250H751zM501 251h250v250H501zM251 251h250v250H251zM501 501h250v250H501zM251 501h250v250H251zM751 751h250v250H751zM251 751h250v250H251zM1001 751h250v250h-250zM501 1h250v250H501zM1251 501h250v250h-250zM1251 751h250v250h-250zM501 751h250v250H501zM251 1h250v250H251zM1 1h250v250H1zM1 751h250v250H1zM1 251h250v250H1zM1 501h250v250H1z"/><path d="M626 312c2-4 9-3 20-3h28l23 3 44 1h28c2 2 2 6 2 7 0 15 2 30 1 45-1 9-3 33-1 54 1 10-2 21-1 31 0 1 1 4-1 6-3 4-11 2-15 1-7-2-19-2-42-2-18-1-18 2-30 0-15-1-16-5-26-4-16 0-24 8-29 3-3-2-3-6-3-11l2-43c2-18 0-14 1-39 1-13 3-24 1-32-1-3-2-6-2-13v-4z" fill="#ffe161"/><path class="d" d="M696 456a2 2 0 01-2-2v-3-4a3 3 0 01-1-1v-5l1 1a7 7 0 000-1 2 2 0 001 0 2 2 0 001 0l-3-1 1-3v-1l1-3a31 31 0 00-1-4h-1v-1a2 2 0 011-1v-4-2a3 3 0 011-3 4 4 0 010-1 42 42 0 01-2-7v-4l-1-6 3 4v-3l-1-1v-1-6l1-2v-1-1a3 3 0 010-1v-2-5a1 1 0 01-1-1 2 2 0 011-1v-1-2l-1-1a1 1 0 011-1v-3l-1-1a1 1 0 011-2v-3a2 2 0 010-1 10 10 0 00-2-5l3-1h-1v-6l1-4a22 22 0 01-1-2v-2l-1-2v-3a3 3 0 011-3l-6 3 5-6 1-3h-1v-3a20 20 0 011-4v-1a29 29 0 000-4 56 56 0 01-1-6h1a16 16 0 00-1-3l3-1a18 18 0 012 4l-1 4v1a28 28 0 010 4 1 1 0 011 0 1 1 0 010 2 13 13 0 00-1 3l1 1h-1a14 14 0 000 3 7 7 0 010 3 14 14 0 011 3v4l-1 1v2h1v1l1 5 1 2h-2a8 8 0 000 1h1v1a2 2 0 01-2 1 10 10 0 002 4l-1 1v4a30 30 0 010 6 13 13 0 000 2h-1a29 29 0 011 6v1l1 3-1 1v7a2 2 0 010 1l-1 4v5l1 2v5l-1 2a3 3 0 01-1 0v2a61 61 0 002 6 2 2 0 010 1l1 4-1-1a2 2 0 01-1 1v10l1 4h-1a5 5 0 010 1 2 2 0 010 2l-1 1 2 4a17 17 0 010 5h-1v6a2 2 0 01-1 2zm1-37l-1 1a2 2 0 001 0 1 1 0 000-1zm-3 1h1a2 2 0 010-1 2 2 0 00-1 1zm4-76zm-4-17a1 1 0 001 0 1 1 0 01-1 0z"/><path class="d" d="M684 456a21 21 0 010-2 2 2 0 011-2v-5c-1-3-2-5-1-7a12 12 0 010-4v-3-3-3a2 2 0 01-1-2 2 2 0 011-1v-6l-1-1 1-1a8 8 0 010-2 3 3 0 010-1 7 7 0 010-1 1 1 0 010-1v-5-1a2 2 0 010-1v-7a4 4 0 011-2v-3a3 3 0 01-1 0v-1l1-3v-1c-2-5-2-8-1-10v-4l-1-5v-4-1a7 7 0 010-1v-8a2 2 0 011 0 2 2 0 010-1v-1a16 16 0 000-3 11 11 0 01-1-5 4 4 0 010-1v-1a2 2 0 010-1v-1-3a9 9 0 010-3 2 2 0 012-2l-2-9v-1a2 2 0 012-1l-1-6a2 2 0 00-1-1l1-2 2-2 1 2c1 6 2 9 1 12v7l1 2 4 8-5-5v1-1l-1-1a31 31 0 000 4v3a4 4 0 010 1 11 11 0 000 4l1 5v2a6 6 0 010 2v7l-1-2a4 4 0 011 2l-1 1v6h1v1a2 2 0 000 1h1v1a1 1 0 01-1 1 2 2 0 010 1v4l-1 1a18 18 0 002 5l1 11-1-1a7 7 0 010 2l-1 4v-1 7l-1 6h1a4 4 0 010 1 6 6 0 00-1 2 2 2 0 010 1l1 7v2l1 1-1 1v3a22 22 0 010 5c0 2-1 3 1 5l4 7-5-4 1 6h-1l1 5h-2v1zm1-59zm2 0h-1a3 3 0 001 0zm-3-34a2 2 0 00-1 0zM676 454a2 2 0 01-1 0h-1l-1-1a1 1 0 011-2v-3a3 3 0 010-2l-1-7a1 1 0 010-1v-3-1-1a1 1 0 010-1 15 15 0 011-5 28 28 0 000-5 1 1 0 010-1v-1-3h-1l1-2a30 30 0 00-1-7 2 2 0 010-1v-1-1l-1-5h1v-5a16 16 0 00-1-7l1-1h1a12 12 0 01-1-2l1-3a11 11 0 000-5h-1a2 2 0 010-2v-1a2 2 0 010-2v-2a2 2 0 011-1l-1-3a5 5 0 011-3v-1l-1-1v1-3a3 3 0 010-1 6 6 0 000-3 3 3 0 010-3 7 7 0 001-4 5 5 0 01-1-2 14 14 0 000-2l1-1 1-3v-1a35 35 0 00-3-10l-4-8v-1l5 5a2 2 0 010-2v-1a27 27 0 010-7l1-2v-7l1 2a3 3 0 011 0l2 1v4l-1 2a24 24 0 000 7 4 4 0 011 1 12 12 0 011 4v9h-1v-1l1 3v2l1 4-2-1a5 5 0 011 2h-1a2 2 0 01-1 1 3 3 0 000 1 9 9 0 010 6 3 3 0 000 1 8 8 0 010 4 2 2 0 000 1v1a23 23 0 011 3l1 7-1-1v3h-1v3a13 13 0 011 8 18 18 0 000 2l-1 1a15 15 0 001 2v1h-1-1a18 18 0 011 3v1a2 2 0 010 1v2a43 43 0 010 7v1a3 3 0 010 2 3 3 0 010 1 36 36 0 011 3v11a1 1 0 010 1 31 31 0 010 4 3 3 0 010 1l1 1h-1a4 4 0 01-1 1v12l1 6v7zm-3-130h0zm3-14v1a2 2 0 002-1z"/><path class="d" d="M665 453a3 3 0 01-3-2h2v-1a3 3 0 011-1l-1-1a16 16 0 010-3 21 21 0 01-1-4v-4a2 2 0 010-2h1a12 12 0 010-6l-1-3a1 1 0 010-1h1l-1-3a3 3 0 011-2 20 20 0 01-1-4 2 2 0 000-1l-1-2-1-3h1v-1l-1-1 1-1h2v-3a2 2 0 01-1-1l1-4a5 5 0 010-3v-1l1-4-1-3v1l-1-5a4 4 0 01-1-2l-1-6h1l2 2v-2l-1-5h1l-1-3v-5-1-1a5 5 0 01-1-2v-1-2h1v-1a8 8 0 000-2l2-1h-2v-1-1a2 2 0 010-1v-1-1-1a1 1 0 010-2v-3a2 2 0 011-2v-1-1-1a26 26 0 000-6l-1-1a2 2 0 011-3 8 8 0 010-1 4 4 0 000-2v-3-1a18 18 0 01-1-4v-1a3 3 0 010-1 16 16 0 01-1-2l-1-4 4 2a3 3 0 011 1h1a13 13 0 010 2 5 5 0 010 1v2l1 4v1a2 2 0 010 1 6 6 0 010 4 3 3 0 000 3v1h-1 1v1a27 27 0 010 6v1a5 5 0 010 1l-1 1v1a2 2 0 010 1v2a30 30 0 010 4v6l-1 4v2a23 23 0 011 5v3a23 23 0 010 6v1a30 30 0 002 5l1 1h-1l-2 1a5 5 0 010 1 40 40 0 012 9v5h-1a10 10 0 010 1v1a6 6 0 000 2v1l-1 1v1a38 38 0 001 6l2 6v1l-3-3 1 1-1 3a14 14 0 001 4h-1v3a17 17 0 010 5v1a12 12 0 001 6l-1 1a2 2 0 010 2h-1a20 20 0 002 5 3 3 0 010 1v1a40 40 0 001 4v1h-2a2 2 0 01-2 2zm1-7a2 2 0 002 0zm-1-48a2 2 0 001 0 3 3 0 001 0zm1-60a2 2 0 011 1 2 2 0 000-1zM654 450l-2 1a3 3 0 011-3 15 15 0 010-3 6 6 0 00-1-3l4-1a2 2 0 00-2 0 2 2 0 00-1 1 4 4 0 000-2l-1 1v-2-1c0-3 0-5 2-6a14 14 0 01-1-2v-1-3a34 34 0 01-1-6h1a5 5 0 000-1 2 2 0 001 1 2 2 0 002-1h-4a11 11 0 000-3l1-2a16 16 0 00-1-5 2 2 0 010-2v-1a12 12 0 01-1-3h3a22 22 0 00-1-5 2 2 0 01-1-1 7 7 0 010-1 49 49 0 010-3 1 1 0 010-1v-4a6 6 0 011-1 2 2 0 000-1 1 1 0 010-1l-1-1h1v-6a4 4 0 010-3 16 16 0 00-1-6 20 20 0 01-1-2l2-1a9 9 0 010-2 21 21 0 00-1-5 1 1 0 010-1v1-3a13 13 0 000-1 5 5 0 011-3 15 15 0 010-1 14 14 0 010-4v-1a3 3 0 011-2 20 20 0 00-1-5l-2-6 2 2a10 10 0 010-4l1-1-1-2a7 7 0 010-3 3 3 0 010-1 32 32 0 010-6v-1-3a49 49 0 010-6h1a7 7 0 00-1-1h4c1 2 0 3-1 3v4l1 1v7a4 4 0 000 1v3l1 2h-1l1 5h-1a41 41 0 000 5 11 11 0 011 4l-1 4v2a2 2 0 010 1 16 16 0 000 3l1 1v1a2 2 0 01-2 1v3a23 23 0 011 6v1l1 1-1 5a32 32 0 010 7v1l-1 5a4 4 0 010 3 5 5 0 000 3 4 4 0 010 5v1a20 20 0 012 5l-1 4a3 3 0 01-1 2 3 3 0 010 1 16 16 0 011 4v4l-1 1a11 11 0 010 1 4 4 0 011 2 13 13 0 010 2 2 2 0 01-1 1l1 4a1 1 0 010 1v2a10 10 0 001 3l2 5-4-3v3a2 2 0 010 1l1 3a8 8 0 010 3 12 12 0 000 4l1 7zm0-67a2 2 0 00-1 1l2-1a3 3 0 00-1 1zm1-75zM646 449a3 3 0 010 1c0 2 1 4-1 5a3 3 0 01-2 1 2 2 0 01-2-2l1-1a9 9 0 000-3l-5-11h1l4 5a2 2 0 011-1v-1l-1-2a14 14 0 00-1-4 1 1 0 010-1h2v-1h-1a2 2 0 00-1 1v-1a7 7 0 010-2l-4 1v-1l6-4a10 10 0 001-2v-1a35 35 0 00-1-5 2 2 0 01-1 0 11 11 0 010-2h1a6 6 0 000-1 3 3 0 010-1 12 12 0 000-3v-3l-1-2 1-6v-2-3a6 6 0 010-2v-2l-1-2a1 1 0 010-1 4 4 0 010-3 2 2 0 011-2 2 2 0 010-1l-1-2v-3h1l-1-3a1 1 0 010-1v-1-1-2a3 3 0 010-2 2 2 0 011-2v-2-5-1-3a1 1 0 010-1l-1-1v-3-1h1v-1a2 2 0 00-1 1 3 3 0 011-1v-1a6 6 0 011-3 15 15 0 00-2-3l-2-3h3a39 39 0 00-1-6 1 1 0 010-1v-1h1v-1l-1-6a1 1 0 011-2 5 5 0 010-3 2 2 0 001-1v-1a4 4 0 01-1-1l-1-3v-2h1a2 2 0 001 0 2 2 0 001 0v-1h-3a2 2 0 012-1 2 2 0 012 1v4l1 2a4 4 0 010 4v4h-1a1800 1800 0 010 10v7a14 14 0 011 2v4a5 5 0 000 2h-2v1a1 1 0 001 0 3 3 0 010 1v2a34 34 0 011 5v5-1 6a1 1 0 01-1 1l2 8v1l-1-2h-1v6a52 52 0 002 5h-1l-2 1a1 1 0 001 0 2 2 0 00-1 0l1 1v8l1 5a1 1 0 010 1 1 1 0 01-1 2h-1a7 7 0 000 2 26 26 0 011 3v2a13 13 0 010 4 18 18 0 011 3 5 5 0 01-1 1l1 4v3a8 8 0 01-1 2 11 11 0 01-1 4v2a16 16 0 011 5 23 23 0 001 4l4 10h-1l-4-5zm-2 4a2 2 0 00-1 0h1zm-1-36a2 2 0 002 0 2 2 0 001 0z"/><path class="d" d="M635 448a2 2 0 01-2-2v-2-1l-1-4v-2a3 3 0 010-1v-1l-1-1 1-1a3 3 0 011 0v-1a13 13 0 00-2-5v-1l3-1a2 2 0 00-1 0 2 2 0 00-1 1 7 7 0 001-1v-1l-1-3a11 11 0 000-3 13 13 0 010-2l1-1v-2a3 3 0 010-1l-1-2-1-6 1-1a141 141 0 01-1-7l-1-1-1-5 3 2-1-6v-3-1l-2-2h3a2 2 0 011-1 2 2 0 010-1 4 4 0 010-1v-4h1a87 87 0 01-2-6 2 2 0 010-1v-4a15 15 0 010-3 18 18 0 00-1-5l-3-8h1l3 3a3 3 0 010-1 1 1 0 011 0 24 24 0 00-1-3v-1a3 3 0 01-1-1l-1-3 1-1 1 1h1v-1a20 20 0 00-2-7v-1h2l-1-2a29 29 0 010-4v-4-2-3a8 8 0 010-4 6 6 0 000-2c0-3-1-5 1-5a3 3 0 013 1h1v1l-1 1v2a9 9 0 010 2 6 6 0 001 4l3 6v1l-3-3h-1a11 11 0 010 2v8l1 3a2 2 0 01-1 2 20 20 0 010 3 9 9 0 001 3v1h-1v1c0 1 0 0 0 0v1a20 20 0 010 2v4a2 2 0 010 1 5 5 0 000 2 3 3 0 01-1 2 19 19 0 011 4 9 9 0 001 4l-1 1h-1a17 17 0 001 3 66 66 0 002 7l2 5h-1l-2-1-1 1v1a4 4 0 01-1 3 8 8 0 011 3 2 2 0 01-1 1l2 6v1a1 1 0 01-1 1v1a3 3 0 01-1 1v3l1 2v3h-1l1 6h1v3l-1 3a12 12 0 010 4v1a11 11 0 001 1v1l-1 1a7 7 0 01-1 2 16 16 0 011 4v4a7 7 0 010 1 2 2 0 010 1v1l1 5v3a2 2 0 01-2 2zm-2-13a2 2 0 00-1 0h1zm1-13h1zm-2 0a2 2 0 001 0h-1zm2-7h1-1zm0-4h2a2 2 0 00-1 0 3 3 0 00-1 0zm0-43a2 2 0 001-1zm1-19a2 2 0 00-2 0l1 1a2 2 0 001-1zm-2-40a2 2 0 00-1 1l2-1zm3-2a1 1 0 000 1v-1zM759 459l-1-2a2 2 0 011-2v-1l1-4c-2-3-2-5-1-7a12 12 0 010-4v-3-3-3a2 2 0 01-1-2 2 2 0 011-1l-1-6v-2a8 8 0 011-2 3 3 0 01-1-1 8 8 0 010-1 1 1 0 011-1v-4-1-1a2 2 0 010-2v-6a4 4 0 011-2l-1-3-1-1 2-3v-1c-2-5-2-8-1-10v-4l-1-5v-4-1a8 8 0 010-1v-8a3 3 0 011-1v-1a16 16 0 000-3 11 11 0 01-1-5 4 4 0 010-1l-1-1h1a2 2 0 010-1v-1a2 2 0 010-1v-2a8 8 0 010-3 2 2 0 011-2l-1-9v-1a2 2 0 011-1v-6a2 2 0 00-1-1v-2l3-2 1 2c1 6 2 9 1 12v7l1 2 4 8-5-5v1-1l-1-1a29 29 0 000 4v3a4 4 0 010 1 10 10 0 000 4l1 5v2a6 6 0 010 1v8l-1-2a4 4 0 010 2v8a2 2 0 001 1v1a1 1 0 010 1 2 2 0 01-1 1l1 1v3l-1 1a18 18 0 001 6h1v10-1a7 7 0 010 2l-1 4v-1 4a158 158 0 00-1 9h1a3 3 0 01-1 1 6 6 0 000 2 2 2 0 010 1l1 7v3h1l-1 1a2 2 0 01-1 0v3a22 22 0 010 5l1 5 5 7-6-4 2 6h-1a49 49 0 001 5h-2v1zm1-59zm1 0zm-3-34h1-1zM749 456a2 2 0 01-1 0h-1a14 14 0 01-1-1 1 1 0 011-2v-3a3 3 0 010-3l-2-6 1-1v-3-2a1 1 0 010-1 15 15 0 011-5v-1a28 28 0 000-4 1 1 0 010-1v-1-3h-1l1-2a30 30 0 000-7 2 2 0 01-1-1v-1-1l-1-6 1 1v-6l-1-6 2-1v-1a15 15 0 01-1-1l1-3a2 2 0 010-1 11 11 0 000-4 2 2 0 01-1-2 19 19 0 010-2 2 2 0 010-2v-1a2 2 0 011-2 30 30 0 01-1-3 5 5 0 011-3l-1-1v-2a4 4 0 010-2 6 6 0 000-2v-3a7 7 0 001-4 5 5 0 01-1-3 11 11 0 000-2h1l1-4c-1-3-1-7-3-10l-5-10 6 6a2 2 0 01-1-1 2 2 0 011-2 26 26 0 010-8v-1l1-8 1 3a3 3 0 011 0s2-1 2 1v3l-1 3a25 25 0 000 6 4 4 0 011 2 13 13 0 010 3l1 10-1-2 1 4v1l2 5-3-2a5 5 0 011 2l-1 1a2 2 0 01-1 1v1a9 9 0 010 5v2a8 8 0 010 4 2 2 0 00-1 1l1 1a25 25 0 011 2l2 9-2-3v3l-1 1v3a13 13 0 011 7 18 18 0 000 3h-1a15 15 0 001 3l-2 1a18 18 0 011 3v1a2 2 0 010 1v2a44 44 0 010 7v3a34 34 0 011 4v11a1 1 0 010 1 32 32 0 01-1 4 3 3 0 011 1l1 1h-1a4 4 0 01-1 1l-1 4 1 1v6l1 7h-1a38 38 0 001 5v2zm-3-130h1l-1-1a2 2 0 000 1zm3-14a2 2 0 001 0z"/><path class="d" d="M738 459a3 3 0 01-3-2h2v-1a3 3 0 010-1v-1a15 15 0 010-3 22 22 0 01-1-4v-4a2 2 0 010-2 12 12 0 010-6v-3a1 1 0 010-1v-3a3 3 0 011-2 20 20 0 01-1-4v-1l-1-2-1-4 1 1v-1l-1-2h3v-3a2 2 0 01-1-1c-1-2 0-3 1-4a5 5 0 010-2v-2c0-2-1-3 1-4l-1-2-1-5a3 3 0 01-1-2l-1-7 3 3v-2c-2-4-1-4-1-5v-8-2a5 5 0 01-1-1v-2a21 21 0 00-1-2h2a7 7 0 000-3l2-1h-2l-1-1v-1a2 2 0 011-1v-2l-1-1a1 1 0 011-2v-3a2 2 0 011-2v-1-1a26 26 0 000-6l-1-2a2 2 0 011-2 7 7 0 010-2 4 4 0 000-2l-1-3a2 2 0 011 0 16 16 0 01-1-5v-1a3 3 0 01-1-1 18 18 0 01-1-2l-1-4 5 2a3 3 0 011 1h1a9 9 0 010 2 4 4 0 01-1 1l1 2 1 4v1a2 2 0 01-1 1v1a6 6 0 010 4 3 3 0 001 3h-1v1a27 27 0 011 6l-1 2v2a2 2 0 01-1 1l1 2a30 30 0 010 4v5h-1v8l1 1v5h-1l1 2a23 23 0 010 5v1a31 31 0 002 5l1 2h-4v1a39 39 0 012 9v1l1 4-1-1a12 12 0 010 3h-1a6 6 0 001 2v1l-1 1a2 2 0 010 1v1a36 36 0 001 5l2 8-3-4v4a14 14 0 001 4l-1 1v3a16 16 0 010 4v1a11 11 0 000 6h1l-1 1a2 2 0 01-1 2 20 20 0 002 6 3 3 0 010 1 41 41 0 000 5h1l-2 1a3 3 0 01-2 1zm0-7a3 3 0 001 0 2 2 0 001 0zm0-48a2 2 0 001 0 3 3 0 001 0zm1-59a2 2 0 001-1zM727 456h-2a3 3 0 011-3 16 16 0 010-2 6 6 0 000-3l3-1a2 2 0 00-2-1 2 2 0 00-1 1 4 4 0 000-1h-1v-2l1-6a13 13 0 010-2v-1-3a34 34 0 01-1-6h1a6 6 0 000-1 2 2 0 001 1 2 2 0 002-1l-4-1a11 11 0 000-3l1-2a16 16 0 00-1-4 2 2 0 010-2v-1a12 12 0 01-1-3l3-1a22 22 0 00-1-5 2 2 0 01-1-1v-2-1a1 1 0 010-2v-4 1a6 6 0 011-2 2 2 0 000-1 1 1 0 010-1h-1 1v-6a4 4 0 010-3 16 16 0 00-1-6 24 24 0 01-1-3h2a10 10 0 010-2 21 21 0 00-1-6v1-3a14 14 0 000-1 6 6 0 011-3 17 17 0 010-2 13 13 0 010-4 3 3 0 011-2 21 21 0 00-1-5l-2-6 2 2a10 10 0 010-4l1-2-1-2a7 7 0 010-2 4 4 0 010-2 32 32 0 010-5v-1-3a50 50 0 010-6h1a7 7 0 00-1-1l4-1c1 2 0 3-1 4v4h1v11l1 3h-1l1 4-1 1v5a11 11 0 010 3v6a2 2 0 01-1 1 16 16 0 001 4h1l-1 1a2 2 0 01-1 1v1a3 3 0 010 3 23 23 0 011 6l1 1-1 5h-1a33 33 0 011 8v1h-1v5a4 4 0 010 3 5 5 0 000 3 4 4 0 010 5v1a19 19 0 011 5v4a18 18 0 00-1 3 16 16 0 011 4v4l-1 1a11 11 0 010 1 4 4 0 010 1 13 13 0 011 2 2 2 0 01-1 2l1 4a1 1 0 010 1v2a10 10 0 000 3l3 5-4-3v3a2 2 0 010 1v3a8 8 0 011 3 12 12 0 000 3l1 8zm0-67a3 3 0 00-1 1l2-1a3 3 0 00-1 0zm1-75zM719 447a3 3 0 01-1 1v6a3 3 0 01-2 0 2 2 0 01-2-2h1a8 8 0 00-1-4l-5-12 6 7a2 2 0 011-2l-1-2a14 14 0 00-1-5 1 1 0 01-1 0l3-1-1-1a2 2 0 00-1 1v-3l-6 2 8-5a10 10 0 001-3 37 37 0 00-2-5 2 2 0 010-1 14 14 0 01-1-2h2v-1h-1a3 3 0 010-1 11 11 0 000-3v-2-3c-1-3 0-4 1-5v-3l-1-2v-1a6 6 0 010-1v-3-2a1 1 0 010-1 4 4 0 010-3 2 2 0 010-2 2 2 0 011 0l-1-3v-3-3-2-3a3 3 0 010-1 2 2 0 011-3v-1-6-4a1 1 0 01-1 0v-2l-1-3 2-1a2 2 0 00-1 0 3 3 0 011-1 6 6 0 010-4 14 14 0 00-1-3l-3-3 4 1a38 38 0 00-1-7 1 1 0 010-1v-1h1l-2-6v-1a1 1 0 011-2 5 5 0 011-2 2 2 0 000-2 4 4 0 010-2l-1-3v-2a2 2 0 002 1 2 2 0 001-1h-3a2 2 0 011-2 2 2 0 012 2l1 2v1l1 3a4 4 0 01-1 3l1 4-2 1 1 5v11a16 16 0 010 3l1 3a2 2 0 01-1 1 3 3 0 001 1l-2 1v1a1 1 0 001-1h-1a2 2 0 010 1l1 3a33 33 0 011 4l-1 4v1h1v5a2 2 0 01-1 1v1l2 9-2-3a2 2 0 010 1v5a52 52 0 001 6h-2v0a1 1 0 000 1l1 4v3a2 2 0 010 1l1 6-2 2a7 7 0 000 3 25 25 0 011 2 1 1 0 010 1v2a13 13 0 010 3 2 2 0 010 1 16 16 0 010 2 4 4 0 010 1l1 4v3a8 8 0 01-1 3 10 10 0 01-1 3l-1 2a15 15 0 012 5 23 23 0 001 5l4 11zm-3 5a2 2 0 00-1 0h2a2 2 0 00-1 0zm0-37a2 2 0 001 1 2 2 0 002-1z"/><path class="d" d="M708 454a2 2 0 01-2-2l-1-2h1l-1-5-1-2a4 4 0 010-1h1v-1a3 3 0 01-1 0v-2a3 3 0 012 0 13 13 0 00-2-6l3-2a2 2 0 00-2 1 5 5 0 000-1l1-1c-2-2-1-3-1-3a11 11 0 000-3 13 13 0 010-3h1v-2a3 3 0 010-1l-1-2-1-6 1-1-1-3v-4l-1-1-2-6 4 3a61 61 0 01-1-6v-4l-3-3 4 1a2 2 0 010-2h1a4 4 0 010-1v-4l-1-4v-2a2 2 0 010-1v-4a14 14 0 010-3 18 18 0 00-1-5l-3-10 4 6a5 5 0 010-2 1 1 0 011 0 24 24 0 00-1-4 3 3 0 01-1-1l-1-4 3 2a12 12 0 010-3 21 21 0 00-2-7h2l-1-2a31 31 0 010-4v-4-2-3a8 8 0 010-4 5 5 0 000-2c0-3-1-5 1-5a2 2 0 013 1h1v1l-1 1a1 1 0 010 1 2 2 0 010 1 9 9 0 010 2 6 6 0 001 4l4 7-5-3a12 12 0 010 2v6a134 134 0 000 5 2 2 0 010 2 20 20 0 010 3 9 9 0 001 3l-1 1v1a9 9 0 01-1 0 19 19 0 011 3v4a2 2 0 01-1 1h1a5 5 0 000 2 3 3 0 01-1 2 19 19 0 011 4 9 9 0 001 4l-2 1a18 18 0 001 3h-1a68 68 0 003 7l2 6-3-2-1 1a6 6 0 010 1l-1 3a8 8 0 011 3 2 2 0 01-1 1l1 6v1a1 1 0 010 2 3 3 0 01-1 2v4l1 3h-1l1 6h1v3l-1 3v1a12 12 0 01-1 4 12 12 0 001 1l1 1-1 1a6 6 0 01-1 2 15 15 0 011 4v4a6 6 0 01-1 1 2 2 0 010 1v1l1 5 1 1v1a1 1 0 010 1 2 2 0 01-2 2zm-2-13l-1 1 1-1h-1zm1-13h1zm-2 0a1 1 0 001 1v-1zm2-7h1a2 2 0 00-1 0zm0-4h1-1zm-1-43a3 3 0 001 0 3 3 0 001-1zm2-19a2 2 0 00-2 1 3 3 0 001 0 2 2 0 001-1zm-2-40a2 2 0 00-1 1l2-1zm3-1z"/><path class="f" d="M1079 255c0-6 4-12 10-15s13-2 17 2c4-5 10-9 16-10s14 2 16 8c10 2 16 14 13 23a34 34 0 00-2 4v4c-1 4-3 7-6 10-5 7-13 12-22 15s-19 4-28 0c-7-3-13-10-13-18v-8c0-5-2-10-1-15z"/><path class="g" d="M1087 285l-2-15c1-6 5-12 10-15s13-2 18 2c4-5 9-9 16-10s14 2 16 8a15 15 0 017 4c1-9-5-18-14-20-2-6-9-9-16-8s-12 5-16 10c-4-4-12-5-17-2s-10 9-10 15c-1 6 1 10 1 15v8a21 21 0 006 14 33 33 0 001-6z"/><path class="f" d="M1176 384c8-1 15-9 14-17a14 14 0 007-25c3-2 4-8 3-12s-6-7-10-9a37 37 0 00-38 3 18 18 0 01-3 2 42 42 0 01-4 2c-7 2-10 9-10 15s2 13 5 19c3 7 10 7 16 11 6 5 10 12 20 11z"/><path class="h" d="M1197 342c3-3 4-8 3-12s-6-7-10-9a36 36 0 00-12-3 17 17 0 018 7c1 5 0 10-3 12a14 14 0 01-7 25c1 8-6 15-13 17 3 3 7 5 13 4 8 0 15-8 14-16a14 14 0 007-25z"/><path class="f" d="M1024 337a16 16 0 001 17 27 27 0 00-8 19c-1 6 2 12 7 15s11 1 17 0c-2 3-1 7 1 11a18 18 0 0010 6 23 23 0 0016-1c5-3 8-8 9-13 5 2 11 1 15-2s7-8 8-13c2-7 3-13 1-20s-7-11-13-13c1-4 2-8 0-11-1-3-5-5-8-6-7-3-15-6-22-6-8 0-12 4-19 8-5 3-11 1-15 9z"/><path class="h" d="M1088 334h1a9 9 0 00-1-2v2zM1100 367c-1 5-4 10-8 13s-10 4-15 2c-1 6-4 10-9 13a23 23 0 01-16 1 18 18 0 01-10-6c-2-3-3-8-1-11-6 2-12 3-17 0-4-2-6-5-7-10a25 25 0 000 4c-1 6 2 12 7 15s11 1 17 0c-2 3-1 7 1 11a18 18 0 0010 6 23 23 0 0016-1c5-3 8-8 9-13 5 2 11 1 15-2s7-8 8-13a34 34 0 002-16 38 38 0 01-2 7zM1025 345a15 15 0 01-2-5 16 16 0 000 8 26 26 0 012-3z"/><path class="f" d="M1030 264c-1 2-3 3-3 5s1 5 3 5a25 25 0 00-15 19 37 37 0 001 13c1 4 3 10 8 9a10 10 0 013 0c2 1 2 3 3 5a18 18 0 0031 7 5 5 0 012-2l4 2a23 23 0 0032-7 23 23 0 003-6 23 23 0 00-4-40c3-3 4-8 2-12s-5-6-8-8a25 25 0 00-15-2 20 20 0 01-4 0 19 19 0 01-4-1 24 24 0 00-21 4l-7 4c-5 1-7 2-11 5z"/><path class="h" d="M1112 293a24 24 0 00-9-16 22 22 0 011 5 24 24 0 01-10 21 23 23 0 01-35 13c-1-1-3-2-4-1a5 5 0 00-2 2 18 18 0 01-18 6 17 17 0 01-5-2 18 18 0 0031 7 5 5 0 012-2c1-1 3 0 4 1a23 23 0 0035-13 24 24 0 0010-21z"/><path class="g" d="M1036 284c-6 0-11 7-9 12s7 10 13 10a7 7 0 005-3 8 8 0 001-4 37 37 0 000-8 9 9 0 009-6c1-3 1-7 4-7h5c2 0 4-2 5-4s2-5 1-7c-2-3-5-3-9-3h-14c-7 0-6 3-8 8-2 4-7 7-3 12z"/><path class="f" d="M1111 328l-6 2c-2 1-2 4-1 6a25 25 0 00-23 5 37 37 0 00-8 10c-2 4-3 10 0 12a9 9 0 013 2c1 2 0 4-1 6a18 18 0 0019 25 5 5 0 013 0l2 4a23 23 0 0036 12 23 23 0 0022-33c4-1 8-4 9-8s0-8-1-12a25 25 0 00-10-10 20 20 0 01-4-3 20 20 0 01-2-3 24 24 0 00-18-11l-9-1c-4-2-6-3-11-3z"/><path class="h" d="M1156 402a24 24 0 003-18 22 22 0 01-2 5 24 24 0 01-21 10 23 23 0 01-33-7 23 23 0 01-2-5c-1-2-1-4-3-4a5 5 0 00-3 0 18 18 0 01-17-6 17 17 0 01-3-6 18 18 0 0019 25 5 5 0 013 0l3 4a23 23 0 0035 12 24 24 0 0021-10z"/><path class="g" d="M1105 354c-5-4-13-2-15 4s-1 12 4 15c1 2 3 2 5 2a8 8 0 004-3 38 38 0 005-6 9 9 0 0011 1c2-2 5-5 7-3 2 0 3 2 4 3h7l5-4c0-3-2-6-5-8l-11-9c-5-4-7-2-12 0-3 2-9 2-9 8z"/><path class="f" d="M1138 258l-6 2c-2 1-2 4-1 6a25 25 0 00-23 5 37 37 0 00-7 10c-3 4-4 10 0 12a10 10 0 012 2c1 2 0 4-1 6a18 18 0 0019 25 5 5 0 013 0l3 4a23 23 0 0035 12 23 23 0 0022-34c4 0 8-3 9-7s1-8-1-12a25 25 0 00-10-10 12 12 0 01-6-7 24 24 0 00-18-10l-9-1c-3-2-6-4-11-3z"/><path class="h" d="M1183 332a24 24 0 004-18 22 22 0 01-3 5 24 24 0 01-21 10 23 23 0 01-35-13c-1-1-1-3-3-3a5 5 0 00-3 0 18 18 0 01-17-7 17 17 0 01-3-5 18 18 0 0019 25 5 5 0 013 0l3 4a23 23 0 0035 12 24 24 0 0021-10z"/><path class="g" d="M1130 277c-5-4-12-2-15 4s-1 12 4 15l5 2a8 8 0 004-3 37 37 0 005-6 9 9 0 0011 1c2-2 5-5 8-4l3 4h7c2-1 4-2 5-5s-2-5-5-7l-10-9c-6-5-7-2-12 0-4 2-9 2-10 8z"/><path class="f" d="M1057 311a19 19 0 00-6 6c-4 5-2 12 0 18-7 2-9 12-5 18s14 8 21 6a24 24 0 0037-4l3-3a9 9 0 014 0c4 0 8-2 10-6a22 22 0 004-11 26 26 0 011-6l2-4a17 17 0 00-3-17 21 21 0 00-15-7 19 19 0 00-15-11c-10 0-13 5-18 11-5 5-14 6-20 10z"/><path class="g" d="M1062 344c-2-5-4-12-1-17a19 19 0 016-6c6-4 16-5 20-10 6-6 9-12 19-11a19 19 0 0115 10 22 22 0 017 2 18 18 0 00-2-6 21 21 0 00-15-8 19 19 0 00-16-10c-10 0-13 5-18 11-5 5-14 6-20 10a18 18 0 00-6 6c-4 5-2 12 0 18-7 2-9 13-5 19a16 16 0 009 5c-1-5 2-11 7-13z"/><path class="h" d="M1125 309a18 18 0 00-2-3 15 15 0 01-1 7l-2 4a26 26 0 000 6 22 22 0 01-4 12 13 13 0 01-10 5 9 9 0 00-4 0l-3 3a24 24 0 01-34 7 24 24 0 01-3-3c-6 2-13 1-18-2a13 13 0 002 9c5 6 14 7 21 5a24 24 0 0034 0 25 25 0 003-4l3-3a9 9 0 014 0 13 13 0 0010-6 21 21 0 004-11 25 25 0 011-6l2-4a17 17 0 00-3-16z"/><path class="f" d="M1104 302c-5 2-10 6-12 12s-1 12 4 15c0 4 0 8 2 11s6 3 9 4c5 0 12-1 14-5a15 15 0 0024-7 33 33 0 012-5l1-3a10 10 0 00-8-15 12 12 0 00-6-9c-5-3-8-1-13 0-6 0-11 0-17 2z"/><path class="h" d="M1148 314a10 10 0 00-4-4 10 10 0 01-1 2l-2 3a32 32 0 00-2 5 15 15 0 01-24 7c-2 5-8 6-13 5a20 20 0 01-6-1c0 3 0 7 2 9 2 3 6 4 9 4 5 0 12-1 14-5a15 15 0 0024-7 33 33 0 012-5l2-3a10 10 0 00-1-10z"/><path class="i" d="M279 669a57 57 0 00-6-2c-7-3-22-11-30-11-3 0-10 1-16 14-3 7-2 15-2 22 1 14 13 61 16 67 2 7 6 16 11 22l8-1-1-2c-6-11-14-49 5-54a52 52 0 018-3c6-3 13-5 19-9h1l1-1-5-14c-5-6-13-5-21-5-5 0-9 1-11 3s-2 0-2-2c1-3 4-2 6-4s2-6 5-7l8-2c7-3 15 5 21 8a37 37 0 013 2 118 118 0 00-18-21z"/><path class="j" d="M293 711l-1 1zM292 712h-1z"/><path d="M213 651c-10 5-18 12-27 19l-25 19a23 23 0 00-1 2c12-6 20-6 33-12l15-9c-5 19-2 52 6 68 1-4 2-10 0-24-1-10-3-24-2-30 3-10 11-20 17-28 8-9 17-3 20-2a149 149 0 0022 8l-6-4c-15-11-34-16-52-7z" fill="#bab2a8"/><path class="l" d="M249 654c-3-1-11-7-19 3-7 7-15 17-18 27-1 6 1 20 2 30 2 14 1 20 0 24-8-16-11-49-6-68l-15 9c-13 6-21 6-33 12-6 7-7 15-7 25-1 14-2 41 4 48a21 21 0 002 3c-2-4 1-9 4-16 6-11 12-22 22-30l7-12h1c-1 10-9 21-14 30l-8 15c-3 6-5 11-3 18a59 59 0 006 2c0-7 5-12 10-16 5-3 10-3 14-5 3-2 6-3 10-3 10 0 12 5 17 12 3 3 7-2 8-5s3-4 6-5c-5-15-13-49-14-60 0-7-1-15 2-22 6-13 13-14 16-14 8 0 23 8 30 11a57 57 0 016 2l-8-7a150 150 0 01-22-8z"/><path class="j" d="M195 690c-5 2-11 3-15 6-3 3-3 6-5 9l-8 10c-6 7-6 17-7 26-1 5-4 15 2 18a1 1 0 001 0 1 1 0 001 0c3-11 9-20 16-29 5-5 12-14 13-21 0-1 2-12 6-18 2-3-2-1-4-1z"/><path class="i" d="M192 709l-7 12c-10 8-16 19-22 30-3 7-6 12-4 16a29 29 0 009 5c-2-7 0-12 3-18l8-15c5-9 13-20 14-30h-1z"/><path class="j" d="M239 752c-3 1-5 2-6 5s-5 8-8 5c-6-7-7-12-17-12-4 0-7 1-10 3-4 2-9 2-14 5-6 4-11 9-10 17h1c6-10 18-10 29-9 5 0 10 1 14 5 4 3 9 5 13 4 4-2 7 2 11 6h10c-5-6-9-15-11-22l-2-7zM297 691a35 35 0 00-3-3c-6-3-14-11-20-8l-9 2c-3 1-3 5-5 7s-5 1-6 4c0 2 0 4 2 2s6-3 11-3c8 0 16-1 21 5l5 14-1 1h-1c-6 4-13 6-19 9a52 52 0 00-8 3c-19 5-10 43-5 54l1 2 8-1a72 72 0 0014-4c13-19 14-63 14-63 1-2 5-3 7-4h1v2c4 11 9 33 9 48a20 20 0 005-5s0-9-3-23-14-34-18-39z"/><path d="M304 710v-2h-1c-2 1-6 2-7 4 0 0-1 44-14 62 9-3 19 0 25-3 5-3 9-7 8-10 1-14-7-40-11-51z" fill="#4f463f"/><path class="i" d="M231 775c-4 1-9-1-13-4-4-4-9-5-14-5-10-1-23-1-29 9a427 427 0 0067 6c-4-4-7-8-11-6z"/><path class="l" d="M297 706l-7-1c-4 1-7 5-18 6-7 0-14 0-19 4l-4 6c-2 5-6 5-7 8s2 9 2 12h1c3-6 7-13 12-16 4-3 8-5 18-6 8-1 12-4 17-5 8-1 7-5 12-6l-7-2z"/><path d="M1292 686c7-5 19-25 59-2 25 14 11 53 31 48 27-7 47 24 21 49s-38 20-66 7c-10-5-16-8-31-6s-21 23-50 26-74-30-51-48 25-28 18-46 29-42 44-28 18 4 25 0z" fill="#45dbe2"/><path d="M1352 777c-12 0-42-8-50-6s-32 8-38 20-54 5-56-11 5 2 17-20c11-20 12-28 12-33a6 6 0 01-3-4c-2-4 4-10 12-13s15-1 17 4a6 6 0 01-1 5h1c10 0 38-20 46-16s-20 11-11 18 32-7 39 1-20 6-14 12 24 2 27 7-7 5-3 8 10-2 15 2-23 5-19 11 21 15 9 15zm44-15c-2-5-11-7-20-4s-16 10-14 15 11 7 20 4 16-10 14-15z" transform="translate(1 1)" fill="url(#a)"/><path class="p" d="M1333 751c2-5 0-12-6-15s-15 0-15 4c0 1 8 4 7 5l-8-3c-1 0-3 9 6 14a11 11 0 0016-5z"/><path class="q" d="M1311 742a35 35 0 013 2c5 2 5 2 6 1l-4-3a24 24 0 01-4-2c2-3 9-6 14-3 6 2 8 9 6 14a11 11 0 01-7 6 10 10 0 01-8-1c-7-5-7-12-6-14z"/><path class="r" d="M1311 743l3 1c4 2 5 3 6 2v-1c1-1 0-2-4-3a34 34 0 01-3-2c1-3 8-5 13-3 5 3 8 9 5 14a10 10 0 01-6 5 10 10 0 01-8-1c-6-4-6-10-6-12z"/><path class="s" d="M1315 739c2-1 7-2 11-1 4 3 6 8 4 12a9 9 0 01-5 5 8 8 0 01-7-1 11 11 0 01-6-9h2c4 2 6 3 7 1 2-3-1-4-4-6l-2-1z"/><path class="p" d="M1338 717a8 8 0 00-2-11c-3-3-9-2-11 0l5 5-6-4s-3 6 2 11a8 8 0 0012-1z"/><path class="q" d="M1325 708l2 1 3 2c1-1 0-1-2-3a17 17 0 01-2-2c1-2 7-2 10 0a8 8 0 011 11 7 7 0 01-5 3 7 7 0 01-5-2c-5-4-3-9-3-10z"/><path class="r" d="M1325 708l1 1 4 2c1-1 0-1-2-3l-2-2c2-1 7-2 10 0a7 7 0 011 11 7 7 0 01-5 2 7 7 0 01-5-2c-4-3-3-8-2-9z"/><path class="s" d="M1328 706l7 1a6 6 0 011 9 6 6 0 01-4 2 6 6 0 01-4-1 8 8 0 01-3-7h1c3 2 4 3 5 2 1-2 0-3-2-5a13 13 0 01-1-1z"/><path class="p" d="M1258 761a12 12 0 0016 1c4-5 4-14 1-16l-7 5 5-7c0-1-8-5-15 1-5 4-5 12 0 16z"/><path class="q" d="M1272 745a35 35 0 01-2 2l-3 5c1 0 2 0 4-3a24 24 0 013-2h1c2 2 2 10-2 14a11 11 0 01-15 0 12 12 0 01-3-8 9 9 0 013-8c6-5 13-2 14-1z"/><path class="r" d="M1272 745l-2 2c-3 3-4 4-3 5s2 0 5-2l3-3c1 3 2 10-2 14a10 10 0 01-15 0 11 11 0 01-3-8 9 9 0 013-7 11 11 0 0114-1z"/><path class="s" d="M1274 750c1 2 1 7-2 10a9 9 0 01-13 0 10 10 0 01-2-7 8 8 0 012-6 10 10 0 0111-2l-1 1c-3 3-5 5-3 7s4 1 7-2l1-1z"/><path class="p" d="M1271 726a8 8 0 00-5 10c1 4 7 6 9 5l-1-6 2 6c1 0 6-4 5-10-1-4-5-7-10-5z"/><path class="q" d="M1277 740a24 24 0 01-1-2l-2-3v3a16 16 0 010 3c-2 1-7-2-8-6a8 8 0 015-9 8 8 0 016 1 7 7 0 014 4c1 6-3 9-4 9z"/><path class="r" d="M1277 740l-1-2-2-4-1 4a21 21 0 011 3c-2 0-7-2-8-6a7 7 0 015-9 8 8 0 016 1 6 6 0 013 4 8 8 0 01-3 9z"/><path class="s" d="M1273 740l-6-5a6 6 0 015-8 7 7 0 015 1 5 5 0 013 4 7 7 0 01-3 7v-1c-1-3-2-5-3-4h-1c-2 0-1 2 0 4v2z"/><path class="t" d="M1276 749a8 8 0 01-5-3 7 7 0 0110 1 8 8 0 01-5 2zM1266 748a8 8 0 01-5-2 7 7 0 0110 0 8 8 0 01-5 2zM1268 751a3 3 0 112 5 8 8 0 01-2-5z"/><path class="t" d="M1269 741a3 3 0 112 5 8 8 0 01-2-5z"/><path class="t" d="M1276 745a8 8 0 01-5 1 8 8 0 012-5c2-2 5-1 5-1a8 8 0 01-2 5zM1269 751a8 8 0 01-6 2 7 7 0 018-7 8 8 0 01-2 5z"/><path class="t" d="M1272 752a8 8 0 01-1-6 7 7 0 016 8 8 8 0 01-5-2zM1266 744a8 8 0 01-2-5 7 7 0 017 7 8 8 0 01-5-2z"/><path class="u" d="M1276 747a7 7 0 01-5-1 6 6 0 019-2 8 8 0 01-4 3zM1267 750a7 7 0 01-5-1 6 6 0 019-3 7 7 0 01-4 4zM1270 751a3 3 0 113 4 7 7 0 01-3-4z"/><path class="u" d="M1268 742a3 3 0 113 4 8 8 0 01-3-4z"/><path class="v" d="M1275 743a3 3 0 110-5 7 7 0 010 5zM1271 751a3 3 0 110-5 7 7 0 010 5z"/><path class="v" d="M1274 750a7 7 0 01-3-4 6 6 0 018 5 7 7 0 01-5-1zM1266 746a7 7 0 01-3-4 7 7 0 015 0 8 8 0 013 4 7 7 0 01-5 0z"/><path class="w" d="M1272 746a2 2 0 01-1 0 2 2 0 010-1 2 2 0 011 0 2 2 0 010 1zM1271 747a2 2 0 01-1 1 2 2 0 010-1 2 2 0 011-1 2 2 0 010 1z"/><path class="w" d="M1272 747a2 2 0 01-1-1 1 1 0 012 1 1 1 0 01-1 0zM1270 746a2 2 0 01-1-1 1 1 0 012 1 1 1 0 01-1 0z"/><path class="w" d="M1272 746a2 2 0 01-1 0 1 1 0 012 0 2 2 0 01-1 0zM1270 747a2 2 0 01-1 0 1 1 0 012-1 2 2 0 01-1 1z"/><path class="w" d="M1271 747a2 2 0 010-1 1 1 0 010 2 2 2 0 010-1zM1270 745a2 2 0 010-1 1 1 0 011 2 2 2 0 01-1-1z"/><path class="x" d="M1271 746a1 1 0 010-1 1 1 0 010 1zM1271 747a1 1 0 01-1 0 1 1 0 011-1 1 1 0 010 1z"/><path class="x" d="M1271 747a1 1 0 010-1 1 1 0 011 1 1 1 0 01-1 0zM1270 746a1 1 0 011 0 1 1 0 01-1 0z"/><path class="x" d="M1272 746a1 1 0 01-1 0 1 1 0 011 0zM1270 747a1 1 0 011-1 1 1 0 01-1 1z"/><path class="x" d="M1271 747a1 1 0 010-1 1 1 0 010 1zM1270 746h1a1 1 0 01-1 0z"/><path class="p" d="M1204 792l11-8-7 12a21 21 0 01-9 5 21 21 0 015-9z"/><path class="q" d="M1202 795c7-9 2 0 2 0s10-6 1 2a13 13 0 01-6 3 16 16 0 013-5z"/><path class="r" d="M1202 795c6-8 1 1 1 1s9-6 2 1a11 11 0 01-5 3 14 14 0 012-5z"/><path class="q" d="M1204 794v2l1-1a68 68 0 00-5 5l4-6z"/><path class="p" d="M1201 786l14-2-12 7a21 21 0 01-10 1 21 21 0 018-6z"/><path class="q" d="M1199 788c10-5 1 2 1 2s12-2 0 2a13 13 0 01-6 0 16 16 0 015-4z"/><path class="r" d="M1199 788c8-4 0 2 0 2s11-2 1 2a11 11 0 01-6 0 14 14 0 015-4z"/><path class="q" d="M1201 789l-1 1h1a72 72 0 00-7 2l7-3z"/><path class="p" d="M1210 798l3-14 1 14a29 29 0 01-3 10 29 29 0 01-1-10z"/><path class="q" d="M1210 801c1-11 2-1 2-1s3-11 1 1a17 17 0 01-2 6 22 22 0 01-1-6z"/><path class="r" d="M1210 801c1-10 2 0 2 0s2-10 1 0a15 15 0 01-2 5 19 19 0 01-1-5z"/><path class="q" d="M1211 799l1 1v-1l-1 8a62 62 0 000-8z"/><path class="p" d="M1205 781c3 0 7 4 7 4l-8 1-6-4s3-2 7-1z"/><path class="q" d="M1203 781c6 0 0 2 0 2s6 4-1 2a6 6 0 01-3-3 8 8 0 014-1z"/><path class="r" d="M1203 781c5 0-1 2-1 2s6 3 0 2a5 5 0 01-3-3 7 7 0 014-1z"/><path class="q" d="M1204 783h-1v1a25 25 0 00-4-2 14 14 0 005 1z"/><path class="p" d="M1213 793c-1-3 1-9 1-9l4 8c1 3-1 6-1 6s-3-2-4-5z"/><path class="q" d="M1214 794c-3-6 2-1 2-1s1-6 2 0a6 6 0 01-1 4 8 8 0 01-3-3z"/><path class="r" d="M1214 794c-2-5 2 0 2 0s1-7 2-1a5 5 0 01-1 4 7 7 0 01-3-3z"/><path class="q" d="M1215 793l1 1v-1a25 25 0 001 4 14 14 0 00-2-4z"/><path class="p" d="M1212 777v8s-3-4-3-7a11 11 0 010-6 11 11 0 013 5z"/><path class="q" d="M1212 776c2 6-2 1-2 1s0 6-1-1a7 7 0 011-4 9 9 0 012 4z"/><path class="r" d="M1212 776c1 5-2 0-2 0s0 6-1 0a6 6 0 011-3 7 7 0 012 3z"/><path class="q" d="M1211 777l-1-1v1a34 34 0 000-4 20 20 0 001 4z"/><path class="p" d="M1206 777l7 9-10-6a20 20 0 01-5-7 20 20 0 018 4z"/><path class="q" d="M1204 776c7 5-1 1-1 1s6 8-1 1a13 13 0 01-3-4 15 15 0 015 2z"/><path class="r" d="M1203 776c7 5-1 1-1 1s6 7 0 1a11 11 0 01-3-4 13 13 0 014 2z"/><path class="q" d="M1204 778l-1-1v1l-4-4a41 41 0 005 4z"/><path class="y" d="M1203 789a10 10 0 005-1 13 13 0 002-1 14 14 0 00-2 2 11 11 0 00-2 4 10 10 0 004-3 17 17 0 002-2 26 26 0 000 4 15 15 0 000 4 15 15 0 001-4v-2a5 5 0 002 1 5 5 0 000-3 10 10 0 00-1-3h-1 1-1a13 13 0 000-4 6 6 0 00-2-2 6 6 0 000 3 9 9 0 001 2 20 20 0 00-3-3 10 10 0 00-3-2 10 10 0 002 4h1a4 4 0 00-3 1 5 5 0 002 2h-1a10 10 0 00-4 3zm10-4zm0 0z"/><path class="x" d="M1216 784c-1 1-3 2-4 1s-1-3 0-5 4-2 5-1 1 3-1 5z"/><path class="x" d="M1216 784l-4 1v-4c1-1 4-2 5-1s0 2-1 4z"/><path class="x" d="M1217 782a2 2 0 110-2 2 2 0 010 2z"/><path class="x" d="M1216 781l3-4-3 3v1z"/><path class="p" d="M1228 809c-3-5-11-11-11-11s3 9 6 14a24 24 0 009 8 24 24 0 00-4-11z"/><path class="q" d="M1230 812c-7-11-3 0-3 0s-10-8-1 3a15 15 0 006 4 18 18 0 00-2-7z"/><path class="r" d="M1230 812c-6-9-2 2-2 2s-9-9-2 1a13 13 0 005 4 16 16 0 00-1-7z"/><path class="q" d="M1227 811v2l-1-1a77 77 0 015 7l-4-8z"/><path class="p" d="M1232 803c-5-3-15-5-15-5s7 7 12 10a24 24 0 0011 3 24 24 0 00-8-8z"/><path class="q" d="M1235 805c-10-7-2 2-2 2s-13-4-1 2a15 15 0 008 2 18 18 0 00-5-6z"/><path class="r" d="M1235 806c-9-7-1 2-1 2s-12-4-2 1a13 13 0 007 2 16 16 0 00-4-5z"/><path class="q" d="M1232 806l1 1h-1a77 77 0 017 4l-7-5z"/><path class="p" d="M1220 814l-1-16s-3 10-3 16a33 33 0 001 11 33 33 0 003-11z"/><path class="q" d="M1219 817c2-12-1-1-1-1s-1-12-2 1a20 20 0 001 7 25 25 0 002-7z"/><path class="r" d="M1219 817c2-11-1 1-1 1s-1-13-2-1a17 17 0 001 6 22 22 0 002-6z"/><path class="q" d="M1218 815v2l-1-2v9a71 71 0 011-9z"/><path class="p" d="M1230 796c-4 0-10 3-10 3s6 3 10 3 6-3 6-3-3-3-6-3z"/><path class="q" d="M1232 797c-8-2-1 2-1 2s-7 3 1 2a7 7 0 004-2 9 9 0 00-4-2z"/><path class="r" d="M1232 797c-7-1 0 2 0 2s-7 3 0 2a6 6 0 003-2 8 8 0 00-3-2z"/><path class="q" d="M1231 798v2a28 28 0 015-1l-5-1z"/><path class="p" d="M1218 808l1-10-7 7c-2 3 0 8 0 8s4-2 6-5z"/><path class="q" d="M1216 810c5-7-2-2-2-2s1-8-2-1a7 7 0 000 5 9 9 0 004-2z"/><path class="r" d="M1216 810c4-6-2-1-2-1s0-8-2-1a6 6 0 001 4 8 8 0 003-2z"/><path class="q" d="M1215 808h-1v-1a27 27 0 01-2 5h1l2-4z"/><path class="p" d="M1222 791c-2 3-2 9-2 9l5-8a13 13 0 001-7 12 12 0 00-4 6z"/><path class="q" d="M1223 789c-4 7 1 1 1 1s-1 8 2 0a8 8 0 000-4 10 10 0 00-3 3z"/><path class="r" d="M1223 789c-3 6 1 0 1 0s-1 8 2 1a7 7 0 00-1-4 9 9 0 00-2 3z"/><path class="q" d="M1223 790h1v1a39 39 0 012-5 23 23 0 01-3 4z"/><path class="p" d="M1229 792l-10 8s8-2 12-5a23 23 0 007-6 23 23 0 00-9 3z"/><path class="q" d="M1232 791c-10 4 0 2 0 2s-8 6 1 1a14 14 0 005-5 18 18 0 00-6 2z"/><path class="r" d="M1232 791c-8 4 1 1 1 1s-8 6 0 1a12 12 0 004-3 15 15 0 00-5 1z"/><path class="q" d="M1231 792h1l-1 1 6-4a47 47 0 01-6 3z"/><path class="y" d="M1226 801a10 10 0 00-1 0 5 5 0 003-2 5 5 0 00-4-1l1-1a12 12 0 004-3 11 11 0 00-5 1 23 23 0 00-3 3 11 11 0 001-2 7 7 0 001-4 6 6 0 00-2 3 15 15 0 00-1 4l-1-1v1h-1 1a11 11 0 00-3 3 5 5 0 000 4 6 6 0 002-2v2a17 17 0 000 6 17 17 0 002-5 31 31 0 000-4 20 20 0 001 3 12 12 0 005 4 12 12 0 00-2-6 16 16 0 00-2-2 15 15 0 002 2 11 11 0 006 1 12 12 0 00-4-4zm-6-1zm-1-1z"/><path class="x" d="M1216 797c1 2 3 3 5 3s1-4 0-6-4-3-5-2-1 3 0 5z"/><path class="x" d="M1216 797l5 3v-5c-1-2-4-3-5-3s-1 3 0 5z"/><path class="x" d="M1216 795a2 2 0 003-2 2 2 0 00-3-1 2 2 0 000 3z"/><path class="x" d="M1217 794l-2-6 2 5v1zM1215 803c2 0 4 0 4-2s-1-2-3-3-4 1-4 2 1 3 3 3z"/><path class="x" d="M1216 803c2 0 3 0 4-2s-2-2-3-2l-4 1c0 1 1 3 3 3z"/><path class="x" d="M1214 802a1 1 0 10-1-2 2 2 0 001 2z"/><path class="x" d="M1214 801l-5-2 5 1v1z"/><path class="f" d="M129 267c14-13 31-6 68 11s49 18 59 19 44 29 62 32 22 5 22 5l5 11s-5 11-47 14-62-4-92 15-58 19-95 12-52-9-60-12 16-14 51-11 46-4 41-7-14 2-39 0-64-17-64-17 74-59 89-72z"/><path d="M318 329c-18-3-51-31-62-32s-22-1-59-19l-20-8c1 0 34 18 43 25 9 8 11 17 28 22a43 43 0 0128 25c3 7-25 4-42 12s-33 23-49 30a108 108 0 0021-10c30-19 51-13 92-15s47-14 47-14l-5-11-22-5z" style="mix-blend-mode:multiply" fill="#7ebb15"/><path class="aa" d="M137 330c14-4-7-6-21-11s-17-11-1-11 16-6 11-10-9-14 4-15 10-11 10-16c-1-4 4-6 5-6a24 24 0 00-17 6c-14 13-88 72-88 72s19-8 34-9 48 4 63 0zM159 364c2-12-14-11-26-9 4-1 7-1 10 1 5 3-6 10-41 7-21-2-37 1-45 4a242 242 0 0150 3c27 5 51 6 52-6z"/><path class="ab" d="M819 653l49-5 30 12h12l79 30 58-11 21-12 16-8v-6l-42-33-49-19-39-19-22-3-34 18-33 23-34 10-12 15v8z"/><path class="ac" d="M819 647l49-5 30 12h12l79 30 58-11 21-12 16-8-2-9-40-30-49-19-39-19-22-3-34 18-33 23-34 10-12 15v8z"/><path class="ab" d="M865 614l11 11 32 3 40 13 22 11 40-2 29-17 21-6 2-14-11-8-63-21-27-11-30-3-37 14-16 13-13 7v10z"/><path class="ac" d="M865 608l11 11 32 3 40 12 22 12 40-3 29-16 21-6 2-8-11-15-63-20-27-11-30-4-37 14-16 13-13 7v11z"/><path class="ad" d="M974 620l-21-8-15 4v3l12 6 19 2 7 5h8l9-3 1-4-13-4-7-1zM922 583l-15 2-5 5 1 4 8 1 3-4 7-2 3-4-2-2z"/><path class="ab" d="M933 596l4-20 13-13 1-8 30-3 33 4 28 1 6 7 3 6 7 38-7 3-14 2-28-3-34 3-22-10-16-2-4-5z"/><path class="ae" d="M951 555l2 9 30 15 29-9 9 3 11-3 4-4 3 1 9-3-6-7-28-1-33-4-30 3z"/><path fill="#898989" d="M1012 570l-29 9 2 13-2 5v8l-3 6-5 2 34-3-2-19 2-6-3-3 3 1 3-9v-4z"/><path class="ae" d="M1038 610l-2-5-10-3-3-7-2-7 6-8-9 8-1 14-8 8 28 3 14-2-13-1z"/><path class="ag" d="M953 603l5-10v-7l3-4 1-4h1l1 9v6l1 4-1 4 1 7-12-5z"/><path class="ae" d="M946 573l1-4 6-5-2-9-1 8-13 13-4 20 5-18 8-5z"/><path class="ah" d="M969 565l13 7 12-2h8v-4l-8-6-8 2-7-4-9 3-1 4z"/><path class="ad" d="M992 560l-6 2-7-4-9 3-1 4 1 1 2-3 7-2 5 2 8-3z"/><path class="ab" d="M967 620l-21-8-15 4v3l12 6 19 2 14 5 10-3 1-4v-2l-13-2-7-1z"/><path class="ah" d="M967 618l-21-8-15 4v3l12 6 19 3 14 4 10-3 1-4-13-4-7-1z"/><path class="ab" d="M921 583l-17 2-6 2v2l2 5 8 1 3-4 7-2 3-4v-2z"/><path class="ah" d="M918 580l-14 3-6 4 2 5 8 1 3-4 7-2 3-4-3-3z"/><path class="ab" d="M1035 644l-20 11-9 3v4l10 4 22 2 13-10 8-3 3-10v-3l-11 1-8 5-6-2-2-2z"/><path class="ah" d="M1034 642l-19 10-9 3v3l10 5 22 2 13-10 8-3 3-10-11-2-8 4-6-1-3-1z"/><path class="ad" d="M908 622v6l29 9-29-7-32-5v-6zM970 646v6l35 1 10-1 11-6 10 2 7-4 8-4 9-8h7l-7-5 2-14-2 8-21 6-29 16-40 3zM1073 644h-11v-2l-3 10-8 3-13 10v3l10-4 7-1 7-4 8-10 3-2v-3zM975 613l30-2 17 2h15l-28-3-2-19 2-6-3-3 3 1 3-9v-4l-29 9 2 13-2 5v8l-3 6-5 2z"/><path style="mix-blend-mode:multiply" fill="#c6c6c6" d="M1021 573l7 1-1 6-6 8 2 7 3 7 10 3 2 5 13 1 9 1-2-4-7-38-3-6-9 3-3-1-4 4-11 3z"/><path class="ad" d="M979 558l-5 4v5l5 3-10-5 1-4 9-3z"/><path class="ag" d="M946 573v8l3 6-1 6 1 9 1 1 2-13v-9l3-4 2-5 2-3 5 1-11-6-6 5-1 4z"/><path class="ad" d="M898 654v6l16 2 2-6-6-2h-12z"/><use class="e" transform="rotate(3 -3197 6185) scale(.09)" xlink:href="#c"/><path class="aj" d="M544 264v-11l1-12-1-10a13 13 0 00-6-8c-7-3-14-1-22-2a76 76 0 01-11-1 33 33 0 00-5-1 39 39 0 00-6 1 23 23 0 01-6 0l-6-1-11-1a3 3 0 00-1 0l-24-2-12-1-11 1a4 4 0 00-1 0 31 31 0 00-6-1 35 35 0 01-6-1 37 37 0 00-8-1h-15a12 12 0 00-5 0 7 7 0 01-1 2l-1 8c-1 2-4 4-7 3a8 8 0 011 3 22 22 0 01-1 4l2 11a2 2 0 01-1 2v1a2 2 0 010 2 10 10 0 01-1 4 28 28 0 00-2 3 12 12 0 000 4 19 19 0 001 5 5 5 0 005 1 22 22 0 0110-1l11 2c8 2 16 2 24 2l26 2 49 3 25 1 13 1a8 8 0 006-2 8 8 0 002-5v-2c0 1 0 0 0 0a3 3 0 001-3z"/><path class="ak" d="M416 214c-5 0-9-2-9 3l-1 6c0 3 8 3 10 3 1 0 11 1 12-1 0-2 1-8-1-9-2-2-5-1-8-2zm0 0h3l9 1v10c0 3-10 1-12 1s-11 0-10-3l1-6c0-5 4-3 9-3z"/><path class="al" d="M416 214c-4 0-9-2-9 3 0 6-6 8 8 9 2 0 12 1 13-1v-7c0-2 0-3-3-3a9 9 0 00-4-1 41 41 0 01-5 0z"/><path class="am" d="M416 214h-8a3 3 0 000 3v4c2 2 1 3 5 3 2 0 8 2 9 0s3 5 5-1c1-2 0-6-1-8h-1a9 9 0 00-4-1 41 41 0 01-5 0zm8 3l-1 1h-2l3-1zm1 4v1c-2-1 0 0 0 0zm-17 0l3 4c0 1-4 0-4-2l1-2z"/><path class="an" d="M462 221v9s5 3 6 0v-12c0-1-7-4-6 3zm0 0c-1-6 4-5 6-3s0 10 0 12c-1 3-4 1-6 0v-9z"/><path class="ao" d="M462 221v9c2 1 3 2 5 1l1-7v-6c-4-3-7-1-6 3z"/><path class="ap" d="M469 221l-1-3c-3-2-5-2-6 0a15 15 0 010 2l1 6c-1 3 1 2 1 3a2 2 0 003-1l1-3a21 21 0 001-4z"/><path class="an" d="M373 243c0 2-2 8-1 9 0 0 3 4 5 2l3-11c-1-1-6-6-7 0zm0 0c0-6 6-3 7-1s-2 10-3 12c-1 3-4 0-6-1s2-8 2-10z"/><path class="ao" d="M373 243l-1 6v3c1 2 2 3 4 3l3-7c0-1 2-5 1-6-4-4-6-3-7 1z"/><path class="ap" d="M380 246v-4c-3-3-5-3-6-1a17 17 0 010 1l-1 7c-1 3 0 2 1 3a2 2 0 003 0l1-3a20 20 0 002-3z"/><path class="ak" d="M464 259c-7 1-8-1-15-2-4 0 1-15 7-12l3 1c1 0 8 0 8 2l-1 7-2 4zm0 0l1-4 2-7-4-1-7-1c-6-3-10 11-7 11 7 1 7 3 15 2z"/><path class="aq" d="M464 259c-7 1-9-2-15-2-3 0 1-16 7-11l7 1c4 1 5-1 3 7l-2 5z"/><path class="am" d="M448 255c0-5 4-13 8-9l7 1c3 0 4 0 4 2a1 1 0 01-1 0c-4-1-2 2-2 2a3 3 0 002 1v2a31 31 0 01-1 4 5 5 0 01-2-1c-1-2-2-8-2 0-4 1-2-4-2-5 0-8-2-3-3 0-5 6 1-4 0-4-1-2-3 3-3 3-2 4-4 5-5 4z"/><path class="an" d="M495 262c-3 0-10 1-9-4l1-5c0-4 2-3 6-3 2 0 12-3 12 0 0 2 1 9-2 10a31 31 0 01-4 1l-4 1zm0 0l4-1 5-1 1-10c-1-2-11 0-13 0-8 1-3 2-5 7-2 6 3 5 8 5z"/><path class="ao" d="M495 262c-2 0-12 2-8-5 2-4-3-7 5-7 3 0 13-3 13 0 0 13-1 9-9 12a5 5 0 01-1 0z"/><path class="ap" d="M494 250l4-1a6 6 0 01-1 3c0 1 3 4 5-3l3 1v3a19 19 0 00-1 3c-1 3-5 5-8 3-1 0-10 3-7-1-1-3-1-4 2-6 0-3 1 1 3-2z"/><path class="an" d="M539 249c-4 0-11 1-9-4l1-5c-1-4 2-3 6-3 2 0 11-2 12 0 0 3 0 9-2 10a31 31 0 01-4 1l-4 1zm0 0l3-1 5-1c2-1 1-8 1-10s-11 0-13 0c-7 1-3 2-4 7-3 6 3 5 8 5z"/><path class="ao" d="M539 249c-2 0-12 2-9-5 2-4-2-7 5-7 3 0 13-2 13 0 1 13 0 9-8 12a5 5 0 01-1 0z"/><path class="ap" d="M538 237l3-1a6 6 0 010 3c-1 1 3 4 5-3l2 1v3a19 19 0 00-1 3c0 3-4 5-7 4-1-1-10 2-7-2-1-3-2-4 2-6-1-2 0 1 3-2z"/><path class="ak" d="M413 252c3-7 4-9-6-10-7-1-6 1-7 6-1 2-1 2 1 4h12zm0 0h-12c-2-2-2-2-1-4 1-5 0-7 7-6 10 1 10 3 6 10z"/><path class="ar" d="M413 252c2-4 5-8-2-9-12-2-10-1-12 6l2 3h12z"/><path class="as" d="M415 247c1-2 0-4-4-4-11-2-10-1-11 4a1 1 0 001 0c6 1 2 3 8 2l2-1c1 2 3 1 4-1zm-4-3s1 2-1 1c-7 0-5-2 1-1z"/><path class="ak" d="M544 261c3-7 4-8-6-9-7-1-6 1-7 6-1 1-1 2 1 3 2 2 10 2 12 0zm0 0c-2 2-11 2-12 0-2-1-2-2-2-3 2-5 0-7 8-6 10 1 10 2 6 9z"/><path class="ar" d="M544 261c2-3 5-8-2-9-12-2-10 0-12 7l2 2c1 1 10 2 12 0z"/><path class="as" d="M546 257c1-2 0-4-4-5-11-1-10 0-11 4a1 1 0 001 1c6 1 2 3 8 2l2-1c1 1 3 0 4-1zm-4-3s1 1-1 1c-7-1-5-3 1-1z"/><path class="ak" d="M469 252c4 0 12 2 14 0 2-1-1-5-4-5h-4c-7 0-4 0-7 3l1 2zm0 0l-1-2c3-3 0-3 7-3h4c3 0 7 4 4 5s-10 0-14 0z"/><path class="aq" d="M469 252c7 1 18 2 14-2-3-4-4-3-8-3-7-1-4 1-7 3l1 2z"/><path class="am" d="M484 251l-1-2c-3-3-4-2-8-2-7-1-4 1-7 3h8c7 5 2-2 6 1a4 4 0 002 0z"/><path class="an" d="M412 230c-3 1-5-2-6 3l-1 4c0 3 5 3 6 3 4 1 7 2 7-3l1-8c-1-1-5 1-7 1zm0 0c1 0 6-2 7-1v8c-1 5-4 4-8 3-1 0-7 0-6-3l1-4c1-5 3-2 6-3z"/><path class="ap" d="M412 230c-3 1-6-3-6 4 0 1-5 6 5 6 1 0 8 5 8-6 0-4 2-7-5-4h-2z"/><path class="ao" d="M412 230c-2 1-5-2-6 2a5 5 0 010 1v1l-1 3c2 1 9 0 11 2 1 2 2-1 3-2a19 19 0 000-3 1 1 0 000-1 3 3 0 00-3 0c-2 0-3-1-3-3h-1z"/><path class="ak" d="M397 255c-7 1-8-1-14-2-4 0 1-15 6-12l4 1s6 0 7 2l-2 7-1 4zm0 0l1-4c0-1 2-6 1-7l-3-1-7-1c-5-4-9 11-6 11l14 2z"/><path class="ar" d="M397 255c-7 1-9-2-14-2-3 0 1-16 7-11h6c4 2 4 0 2 8l-1 5z"/><path class="as" d="M384 244c1-2 3-4 6-2h6c3 1 4 0 3 5a7 7 0 01-2-1l-5 2c-2 4-2 0-3 3 0 1-5-1-4-3 1-1-1-2-1-4zm15 5a17 17 0 00-4 0c-2 0 0 1-2 3 0 0 0 3 3 1a13 13 0 002 0v-3z"/><path class="at" d="M518 248l-13-2-2-7c1-6 11-5 15-4 3 0 12 1 11 4v6l-7 1-4 2zm0 0l4-1 7-2a55 55 0 001-6c0-5-17-5-20-5-8 0-9 6-5 12l13 2z"/><path class="ar" d="M518 248l-13-2s-8-13 8-12c3 0 17 1 17 5-1 7 1 6-6 7l-6 2z"/><path class="as" d="M504 244c-2-4-3-10 6-10l1 1a3 3 0 004-1c5 1 13 1 14 4-2 1 4 6-8 7-5 0-3-1-2-3 2-5-3 2-3 2-5 3-4-5-8-1l-4 1z"/><path class="ak" d="M467 258c5 2 14 5 17 4s-1-7-4-8l-5-1c-7-1-4 0-8 3v2zm0 0v-2c3-3 0-4 8-3l5 1c4 1 8 7 4 8-5 1-12-2-17-4z"/><path class="aq" d="M467 258c8 4 22 7 17 0-3-5-4-3-9-5-8-2-4 0-8 3v2z"/><path class="am" d="M484 258c-3-5-4-4-9-5h-2a2 2 0 01-1 0 2 2 0 00-3 3c2 4 7-2 11 1 0 3-5 1-6 1 0 2 9 2 9 2 1 1 1 0 1-2z"/><path class="ak" d="M533 233c4 1 12 3 13-1 0-3-6-11-8-11h-4c-6 0-3 1-3 8l2 4zm0 0l-2-4c0-7-3-8 3-8h3c3 0 11 9 9 12s-9 1-13 0z"/><path class="aq" d="M533 233c7 2 18 2 10-7-5-7-5-5-9-5-7 0-3 2-3 8l2 4z"/><path class="am" d="M543 225c-5-6-5-4-9-4h-2v1c-2 1 0 5 0 6 4 5 3-6 8-2 2 5-2 3-3 4 1 3 7 0 7 0l-1-5z"/><path class="an" d="M473 231l-3-2c-2-1-1 1-1 2l-1 2 3-1h2a3 3 0 002-1h-2zm0 0a1 1 0 001 0l-2 1-3 1c-2 1 0-2 0-2 0-1-1-4 1-2l3 2z"/><path class="ao" d="M473 231l-3-2c-2-2-1 2-1 2s-2 2 0 2l3-1h1s3-1 1-1a1 1 0 01-1 0z"/><path class="an" d="M473 232l-1 2c-2 2-2 6-5 2 0-1-2-2 0-3s-1 2 3 0l3-1zm0 0a3 3 0 00-2 1c-1 0-3 2-3 0-1 0-3 1-1 2s2 4 4 1l2-4zm0 0z"/><path class="ao" d="M473 232l-2 1s-3 2-3 0c0-1-3 1-1 2 1 1 2 5 4 1a22 22 0 012-3v-1z"/><path class="an" d="M443 229h7c4 0 0 2-2 2l-5-2zm0 0c5 2 5 2 8 0a4 4 0 00-1 0h-7z"/><path class="aq" d="M443 229h7l2 1c-4 2-5 0-9-1z"/><path class="an" d="M381 248l-1 7c-1 4-3-1-2-3l2-5 1 1zm0 0h-1c-2 4-3 4-1 8a4 4 0 000-1c1-2 3-6 2-7z"/><path class="aq" d="M381 248l-2 6v2c-2-4 0-5 1-8h1z"/><path class="an" d="M489 247c2 0 3 0 1 2s-4-1-7-2c-2 0-5-1 1-1l5 1zm0 0a22 22 0 01-5-1c-7-1-4 2-1 2s2 1 5 2 5-4 1-3z"/><path class="aq" d="M489 247c1 0 3-1 2 2-2 3-5-1-8-1s-5-3 1-2a18 18 0 005 1z"/><path class="an" d="M484 253a22 22 0 00-3 1c1 1 2 0 4 3a2 2 0 000 1c1-1 0-5-1-5zm0 0c1-1 3 8 0 4-1-2-7-4 0-4z"/><path class="aq" d="M484 253l-3 1 2 1c2 1 2 4 3 2l-2-4z"/><path class="an" d="M543 263a22 22 0 00-3 1c2 1 2 0 4 3a1 1 0 001 1l-2-5zm0 0c2-1 4 8 0 4-1-2-6-4 0-4z"/><path class="aq" d="M543 263l-3 1 2 1c2 1 3 4 3 2l-2-4z"/><path class="an" d="M478 264l1 3h3s7-2 4-3c0 0-5-2-6-1a6 6 0 00-2 1zm0 0c2-2 5-1 7 0 4 1-1 2-3 2l-3 1-1-3z"/><path class="ao" d="M478 264l1 3c3 1 2 0 5-1 1 0 5-2 1-2-2 0-5-2-7 0z"/><path class="ak" d="M391 239l8 1 7 1h-16c-2-1-2-1 1-2zm0 0c-3 1-3 1-1 2h15l-4-1a22 22 0 00-3 0l-7-1z"/><path class="ar" d="M391 239l8 1a19 19 0 004 0c3 0 4 1-2 2l-12-1s-2-1 0-1l2-1z"/><path class="an" d="M418 243a25 25 0 00-2-1v5a2 2 0 000 1c1 0 3-4 2-5zm0 0c1 1-3 9-2 4 0-3-3-8 2-4z"/><path class="aq" d="M418 243l-3-1 1 2c1 3-1 5 1 4 0 0 2-4 1-5z"/><path class="an" d="M414 256a21 21 0 003 1c0-2-2-2-1-6a4 4 0 000-1c-1 0-3 5-2 6zm0 0c-2-1 2-11 2-4 0 3 3 9-2 4z"/><path class="aq" d="M414 256s2 2 3 1l-1-2c-1-3 1-7-1-5 0 1-2 5-1 6z"/><path class="at" d="M408 229l4-2 4-1c2 0 3 1 1 2a50 50 0 01-5 2l-4-1zm0 0h4l6-2a7 7 0 00-2 0h-4l-4 2z"/><path class="ar" d="M408 229l4-2h4s4 0 0 1a14 14 0 01-2 1l-2 1a3 3 0 01-2 0l-2-1z"/><path class="ak" d="M408 241c1-1 3 0 5 1 2 0 1 1-1 1l-2-1s-5 0-3-1h1zm0 0h-1l5 1a2 2 0 002 0h-1c-2 0-4-2-5-1z"/><path class="aq" d="M408 241c1-1 3 1 5 1h-3a25 25 0 00-2-1c-2 0-1-1 0 0z"/><path class="ak" d="M383 254l5 1c2 0 1 2-1 1h-2s-5-1-3-2h1zm0 0h-1c-2 1 4 1 5 2h2l-1-1-5-1z"/><path class="aq" d="M383 254l5 1c1 0 2 2-1 1l-2-1a24 24 0 00-2 0c-2 0-1-2 0-1z"/><path class="an" d="M382 239a45 45 0 000 5c1 0 1-3 4-4 1-1-2-1-2-1h-2zm4 1zm-4-1h3c2 0 2 1 1 1l-4 5v-6z"/><path class="ao" d="M382 239v5c0-2 2-3 4-4 0 0 1-1-1-1h-3z"/><path class="an" d="M442 244h3l2 1a9 9 0 002 0c2 0 0 4 0 4-2 0-1-2-4-4l-3-1zm0 0l5 2 2 3v-3a9 9 0 01-2-1l-2-1h-3zm7 5"/><path class="ao" d="M442 244h3l2 1a5 5 0 002 0v3c0 2-2-2-2-2a10 10 0 00-4-1l-1-1z"/><path class="an" d="M444 242l5 2 1 1c1-1-1-1-2-2-1-2 0-2-3-1zm0 0a3 3 0 011 0c2-1 2-2 3 0 1 3 2 1 2 2 1 2-1 0-1 0-2 1-4-1-5-2z"/><path class="ao" d="M444 242l4 2 2 1s1-1-1-1c-1 0-1-4-3-3l-2 1z"/><path class="ak" d="M421 228l-1 3 2-3a2 2 0 001 0h-2zm-1 3l1-3 1-1c3 0 0 2 0 2l-2 2s0-4 1-3z"/><path class="aq" d="M421 228c-1-1-1 1-1 2 0 3 2-1 2-1 1-1 2-1 0-1h-1z"/><path class="ak" d="M406 226l-1 3 2-2a2 2 0 001-1h-2zm-1 4l1-4h1c3 0 0 1 0 1l-2 3s-1-4 1-4z"/><path class="aq" d="M406 226l-1 3c0 2 2-2 2-2 1-1 2-1 0-1h-1z"/><path class="an" d="M419 239c0 1-2 2 1 4 2 1-1-4-1-4zm0 0l2 3c0 1-1 2-2 1-3-1 0-3 0-4z"/><path class="ao" d="M419 239c0 1-3 2 0 4l2-1-2-3z"/><path class="ak" d="M465 246l4-3c1-2 1-1 2 0l1 2c0 1-2 0-3 2l-2-1h-2zm0 0h2c0 1 1 2 2 1 1-2 2-2 3-2l-1-1c-1-2-1-2-2-1l-4 3z"/><path class="aq" d="M465 246l4-3c1-2 1-1 2 0l1 2c1 1-2 0-3 2l-2-1h-2z"/><path class="ak" d="M446 258c3 2 1 5 3 2 1-1 4 0 3-1l-4-1h-2zm0 0s0-2 3 0 2 0 3 0c2 2-2 2-2 3-3 3-1-1-4-3z"/><path class="aq" d="M446 258c3 2 1 6 3 3 1-2 4-1 3-2l-4-1c-1-2-2 0-2 0z"/><path class="ak" d="M465 259l3 1c5 1 6 2 3 2l-3-1c-3-1-4 0-3-2zm0 0v1l5 1h2a18 18 0 00-4-1l-3-1z"/><path class="aq" d="M465 259l3 1s6 1 4 2a7 7 0 00-2-1l-5-1v-1z"/><path class="an" d="M504 262l3-1 2 1a9 9 0 002 1l-1 4c-1 0 0-3-4-4l-2-1zm0 0l4 2 2 2 1-3a9 9 0 01-2 0l-2-1h-3zm6 4"/><path class="ao" d="M504 262l3-1 2 2a5 5 0 002 0v3c-1 2-2-2-3-2a10 10 0 00-3-2h-1z"/><path class="an" d="M529 247v3h-3s-8 0-6-2l7-2a7 7 0 012 1zm0 0c-2-2-5 0-7 1-4 1 1 2 3 2h3l1-3z"/><path class="ao" d="M529 247v3h-6s-5-1-1-2c1 0 5-3 7-1z"/><path class="an" d="M519 264l8-1c4 0-1 2-3 2l-5-1zm0 0h1c4 1 5 1 8-1a5 5 0 00-1 0l-8 1z"/><path class="aq" d="M519 264l7-1h2c-3 3-4 1-8 1h-1z"/><path class="an" d="M525 234h7c4 0-1 3-3 2l-5-2h1zm0 0v1c4 1 4 2 8 0a4 4 0 00-1 0c-2 0-6-2-7-1z"/><path class="aq" d="M525 234h6l2 1c-4 2-4 1-8 0v-1z"/><path class="an" d="M548 251c-1 2-6 0-8 0-4 0 1-2 3-2l5 2zm0 0c-5-1-5-2-9 0a4 4 0 001 0h8z"/><path class="aq" d="M548 251h-9c4-3 5-1 9 0z"/><path class="ak" d="M398 256c4 1 12 2 15 1 1-1-2-4-5-4h-4c-6 0-3 0-6 2v1zm0 0v-1c2-2 0-2 6-2h4c3 0 8 3 4 4s-10 0-14-1z"/><path class="ar" d="M398 256c7 2 19 2 14-1-3-3-4-2-8-2-7 0-3 0-6 2v1z"/><path class="as" d="M413 256l-1-1c-3-3-4-2-8-2-6 0-4 0-6 2h7c7 4 2-2 6 1a4 4 0 002 0z"/><path class="at" d="M499 247l3-1 4 1c1 0 2 2 0 2a36 36 0 01-5-1l-2-1zm0 0l2 1h6a6 6 0 00-1 0l-4-2-3 1z"/><path class="ar" d="M499 247l3-1c1-1 3 1 4 1 0 0 2 2-1 1a10 10 0 01-2 0h-2a2 2 0 01-1 0l-1-1z"/><path class="at" d="M502 242l-1 3h1l1 1v-4a2 2 0 00-1-1v1zm0 0c0-2 1 0 1 1v2c1 2-1 0-1 0h-2l2-3z"/><path class="ar" d="M502 242l-1 3h2v-2-1s-1-2-1 0z"/><path class="at" d="M501 234l3 1 4-1c2 0 2-1 0-1a40 40 0 00-5-1l-2 1v1zm0 0c0-2 2-1 2-1h6a6 6 0 01-1 1l-4 1-3-1z"/><path class="ar" d="M501 234l3 1 4-1s3-1-1-1a11 11 0 00-2 0h-2a3 3 0 00-1 0l-1 1z"/><path class="an" d="M498 248a20 20 0 00-3-1l-3 1a6 6 0 003 1c1 0 6 0 3-1zm0 0l-3 1a6 6 0 01-3-1l3-1a9 9 0 013 1z"/><path class="ao" d="M498 248a18 18 0 00-2-1 3 3 0 00-1 0 15 15 0 00-3 1l1 1a4 4 0 002 0c4 0 5-1 3-1z"/><path class="an" d="M507 258a23 23 0 00-2 2l5 2c1-1-2-4-3-4zm0 0c1-1 6 7 2 4-2-1-8-1-2-4z"/><path class="aq" d="M507 258l-2 2 2 1c2 0 4 3 3 0l-3-3z"/><path class="at" d="M431 229c-6 0-9-2-10 5-1 3-1 9 3 8h13c7 1 10-1 10-8-1-4-4-4-7-4a31 31 0 00-9-1zm0 0h9c3 1 7 1 7 5 0 7-3 9-10 9h-4c-3 0-5-2-9-1-5 1-4-5-4-8 2-7 5-6 11-5z"/><path class="ar" d="M431 229h-7c-4 1-6 15 0 13 3-1 7 2 11 0 1 0 12 4 12-8 0-2 0-3-4-4l-12-1z"/><path class="as" d="M431 229a12 12 0 01-1 0c-2 5-3 1-2 0a12 12 0 00-4 0 3 3 0 00-2 1c0 5 0 12 3 10 2-2 8 2 8-1 0-6 2-9 3-10a18 18 0 00-5 0zm15 9c-1 0-2-1-5 3-2 3-5 1-3-1 0-1 4-8 1-3-5 6-5 0-4-1 0 0-1-3 2-7l6 1c4 1 4 2 4 4a14 14 0 01-1 4z"/><path class="au" d="M424 229h4a7 7 0 01-1 1c0 2 1 2 2 2a5 5 0 002-1l-3 2c-2 0-2-3-1-4a6 6 0 01-3 0zm3 0z"/><path class="at" d="M390 210c-6 0-9-1-11 6 0 2-1 9 4 7l9 1h4c7 1 9-2 9-9 0-4-3-3-7-4a31 31 0 00-8-1zm0 0l8 1c4 1 7 0 7 4 1 7-2 10-9 9h-13c-5 1-5-5-4-8 2-7 5-6 11-6z"/><path class="ar" d="M390 210l-8 1c-4 1-5 15 1 13h10c2-1 12 4 12-8 0-2 0-4-4-4l-11-2z"/><path class="as" d="M390 210a12 12 0 01-1 0c-3 5-3 2-3 0a12 12 0 00-4 1 3 3 0 00-1 1c-1 4 0 12 2 9 3-1 9 2 9-1 0-6 2-9 3-10a18 18 0 00-5 0zm15 10c-1 0-2-1-5 2-2 3-5 1-4-1 1-1 5-7 1-2s-5 0-4-1 0-4 2-7l6 1c4 0 4 2 4 4a14 14 0 010 4z"/><path class="au" d="M383 211l3-1v2c0 1 0 2 2 1a5 5 0 002-1c0 2-2 3-4 2l-1-3a6 6 0 01-2 0zm3 0z"/><path class="at" d="M457 244c-8 0-9 0-9-7 0-4 0-5 4-6h9c3 1 5 6 7 8 1 1 0 4-3 5h-8zm0 0a39 39 0 006 1c5-1 7-5 5-6l-6-8h-10c-4 1-5 2-5 6 1 7 2 7 10 7z"/><path class="ar" d="M457 244c-5 0-6 0-9-2 0-1-1-9 1-10 6-3 4-1 11-1 4 0 5 5 8 8v3c-2 3-7 3-11 2z"/><path class="as" d="M448 240c-1-3-1-7 1-8 6-3 4-1 11-1a3 3 0 012 0c1 2 0 4 2 4h1a17 17 0 003 4c-4 6-6 1-9 2h-8l-3-1zm5-7c-4 0-3 5-1 2l2-1-1-1z"/><path class="au" d="M455 231h6c2 1 0 2 1 3l2 1c-2 0-4 0-4-2s-4-2-5-2z"/><path class="at" d="M534 278c-7-1-9-1-9-7 0-4 1-5 5-6h9l6 8c2 1 0 4-3 5h-8zm0 0a40 40 0 007 0c4 0 6-4 5-6l-7-8h-9c-5 2-5 3-5 7 0 6 2 7 9 7z"/><path class="ar" d="M534 278c-4 0-6 0-8-2-1-1-2-9 1-10 5-3 4-2 11-2 3 0 5 6 8 8l-1 4c-1 3-7 2-11 2z"/><path class="as" d="M525 274c0-3 0-7 2-8 5-3 4-2 11-2a3 3 0 012 1c0 1-1 4 2 3a18 18 0 004 4c-4 7-6 2-10 3-3 1-4-2-7-1a3 3 0 01-4 0zm6-8c-5 0-3 5-1 3l2-1-1-2z"/><path class="au" d="M532 265h6l1 3 2 1c-2 0-3 0-3-3l-6-1z"/><path class="at" d="M487 233c-5 0-14-4-16 5 0 3 1 7 4 7 6-1 21 3 24 1 1-1 7-13-2-13h-10zm0 0a78 78 0 0110 0c8 0 4 11 2 13s-19-1-24-1c-6 0-5-8-2-11 3-4 10-2 14-1z"/><path class="ar" d="M487 233s-9-2-12 0c-6 3-5 13 0 12s23 4 25 0c2-3 4-12-3-12h-10z"/><path class="as" d="M475 237c6-2 12 1 4 0 0 0-6 2-4 0 0-1 0 0 0 0zm12-4s-9-2-12 0a8 8 0 00-4 7 3 3 0 003 2h6c5 1 8-1 12-4 3-1 9 2 7 1-5 0-10-1-10 5l11 1c2-4 4-12-3-12h-10z"/><path class="au" d="M482 241l7-3c2-1 6-2 8 0a5 5 0 001 0h-1c-2-1-5 0-6 1-4 2-4 2-9 2z"/><path class="ak" d="M473 218h10c2 0 15-1 16 1v8c1 4-3 3-6 3l-13 1c-5-1-11 0-10-7 0-4-1-5 3-6zm0 0c-4 2-3 3-3 7 1 6 5 5 10 5h13c3 0 6 1 6-3v-7c-1-2-12-2-14-2h-12z"/><path class="aq" d="M473 218h9c2 0 15-1 17 1v8c1 2 0 3-2 3l-17 1c-2-1-10 0-10-6v-3c0-2 0-3 3-4z"/><path class="am" d="M473 218h9c2 0 15-1 17 1v8a3 3 0 010 2 39 39 0 01-6 1 4 4 0 01-2 0l-2-1c-1 0-2-2-1-3l2-1c1 0 0 0 0 0h4l2-1h1l-1-1a7 7 0 01-4 1h-4l-4 1-8 1c-1 0-5 0-6-2v-2c0-2 0-3 3-4z"/><path class="av" d="M470 221c2-2 5-1 8-2 4-1 4-2 9-1a17 17 0 017 2h1l-3-1h-13c-4 2-6 0-9 2z"/><path class="ak" d="M431 261c0 2 1 10-3 10-5 0-26 0-26-7 0-1-1-5 1-6 3-1 23 1 27 2a8 8 0 011 1zm0 0a5 5 0 00-1-1c-4-1-24-3-27-2-2 1-2 5-2 6 0 7 22 7 27 7 4 0 3-8 3-10z"/><path class="ar" d="M431 261c0 3 1 10-3 10-5 0-27 0-26-7 0-7-1-7 13-6l15 2a6 6 0 011 1z"/><path class="as" d="M431 261v2a1 1 0 01-1 1c-4-1 0 4-6 0-6 2-6 0-11-2-2-1-5 6 0 3 3-1 2 0 5 1l-4 2c-2 0-2 1-1 2-6-1-12-2-11-6 0-5-1-7 5-6h8l15 2a7 7 0 010 1zm0 6c-1-2-2-3-3-2-3 3-5 1-5 1 1 6 2 4-2 5h7c2 0 3-2 3-4z"/><path class="au" d="M403 260c4-4 3-1 5-1l4-1a59 59 0 0111 2l-12-1-3 1c-3-1 0-2-5 0z"/><path class="an" d="M446 272c1-3 3-11-1-13h-6c-3-1-4-1-6 2-3 7 3 13 10 12zm0 0l-2 1c-8 1-14-5-11-12 1-4 3-3 6-2s5-2 7 1 2 9 0 12z"/><path class="ao" d="M446 272c2-3 3-16-5-13-3 1-7-4-8 4-2 8 7 12 13 9z"/><path class="ap" d="M447 263c0-3-2-6-6-4-3 1-6-4-8 3 2-1 3-2 3 4 0 3-2 0-4-1a7 7 0 002 5 4 4 0 004-2c2-3 8-1 9-5z"/><path class="aw" d="M437 268a10 10 0 016-3l3-2a1 1 0 010 1c-1 2-3 2-5 3l-4 1z"/><path class="an" d="M476 273c1-2 4-10-1-10l-13-2h-8c-3 0-4-1-5 4 0 2-1 6 1 7h17s8 2 9 1zm0 0c-1 1-8-1-9-1-4 2-7 1-11 0h-7v-9c1-3 2-2 5-3l8 1 13 2c5 0 2 8 1 10z"/><path class="ao" d="M476 273c1-3 4-10-1-10l-13-2h-8c-2 0-4-2-5 4 0 6-2 7 5 7 2 0 10 2 13 0 1 0 8 2 9 1z"/><path class="ap" d="M477 268c1-2 1-5-2-5l-13-2h-8c-2 0-4-2-5 4v3c1 1 2 2 3 1 3-2 12 1 13 0s2-1 0-3c-3-2-2 0-4-3-2-4 8 5 9 4 4-2 6 1 7 1z"/><path class="aw" d="M466 264l4 2c1 0 5-1 5 1-2-2-3 1-5 0l-4-3z"/><path class="an" d="M511 267l2 8s9 3 9 1c1-2 3-9 1-10-1-1-13-4-12 1zm0 0c-2-5 8-3 12-2 3 2 1 9 0 11s-7 0-10-1c-2 0-1-6-2-8z"/><path class="ao" d="M511 267l1 6 1 2 9 2 2-6c0-2 0-5-2-6-8-2-11-1-11 2z"/><path class="ap" d="M523 274v-3c1-1 1-5-1-5-7-2-10-2-11 0l1 5c0 3 6 4 7 2 0 0 2-2 1 1h3z"/><path class="aw" d="M515 266h4a8 8 0 014 2l-3-1-5-1z"/><path class="ak" d="M530 251c0 2 0 10-3 10l-7 1h-7c-2 0-3-2-5-3-5-6-1-10 6-9l12 1a12 12 0 004 0zm0 0a15 15 0 01-4 0l-12-1c-7-2-11 3-6 9 2 2 3 3 5 3h7c5 1 5 0 7-1 4 0 3-8 3-10z"/><path class="aq" d="M530 251c0 2 0 10-3 10-2 0-2 2-9 1s-5 2-10-3c-4-4-3-9 3-9 4-1 8 2 14 1h5z"/><path class="am" d="M530 251l-1 9-1-2-6 1c-3 1-6-2-9 1-4 4-6-8-5-9 4-2 5-1 7-1l10 1h5z"/><path class="av" d="M508 252c4-3 3 0 5-1h3a46 46 0 0110 1h-13c-2 0 0-2-5 0z"/><path class="an" d="M445 215l-6 1c-2-1-7-2-8 0l-1 3v7c5 3 8 1 13 2a69 69 0 0111 1c1 0 6 1 7-1v-11c-1-2-6-2-7-2a52 52 0 00-9 0zm0 0a42 42 0 019 0c1 0 6 0 7 2v11c0 2-6 1-8 1a75 75 0 00-10-1c-5 0-8 1-13-1-2-1-2-7-1-8l2-3c1-2 6-1 8-1h6z"/><path class="ao" d="M445 215l-4 1-4-1c-3 0-6-1-7 3l-1 5c0 3 0 3 3 4 4 2 6 0 11 1l11 1a22 22 0 006 0c2 0 1-3 1-5v-3c0-5 0-5-6-6h-10z"/><path class="ap" d="M439 215a15 15 0 00-2 0c-3 0-6-1-7 3 0 2 2 4 3 4 3 0 6 2 9 1l3-3 5 1c3 1 8-2 11-2 0-3-1-3-6-4h-5c-3 2-5 3-10 1l-1-1zm19 14a6 6 0 01-2-1c-6-4-9-1-16-1-1 0-9-2-8-4 4-1 4 2 9 2 5-1 1-3 11-3h9v2c0 2 1 5-1 5z"/><path class="aw" d="M460 219c0-2-1-3-3-3l-8 1a17 17 0 01-6 0h6l6-1c2 0 7-1 5 3z"/><path class="an" d="M388 238h6c2 0 7 1 8-1l1-3v-7c-5-3-8-1-13-1a69 69 0 01-11-1c-1 0-6-1-7 1v10c1 2 6 2 7 2a52 52 0 009 0zm0 0a42 42 0 01-9 0c-2 0-6 0-7-2v-10c0-3 6-2 7-2a74 74 0 0011 1c5 0 8-1 13 2 2 1 2 6 1 7l-2 3c-1 2-6 1-8 1h-6z"/><path class="ao" d="M388 238h8c3 0 6 1 7-2l1-5c0-4 0-4-3-5-4-2-6 0-11 0l-11-1a23 23 0 00-6-1c-2 1-1 4-1 5v3c0 5 0 5 5 6h11z"/><path class="ap" d="M394 238a14 14 0 002 0c3 0 6 1 7-2v-1l-3-4c-3 0-6-2-9-1-1 1-1 3-3 3h-6c-2-2-7 1-10 1 0 3 0 4 5 4h6c3-2 5-3 10 0h1zm-19-14a6 6 0 012 1c6 4 9 2 16 1 1 0 9 2 8 4-4 1-4-2-9-1-6 0-1 3-11 2l-9 1v-3c0-1-1-4 1-5h2z"/><path class="aw" d="M373 234c0 3 1 3 3 3l8-1a17 17 0 016 0l-6 1-6 1c-2 1-7 0-5-4z"/><path class="ak" d="M434 243h-10c-5-1-6 2-7 7 0 3 0 7 4 7h3c4 2 6 2 10 0 3-1 11 1 12-1 5-11-4-11-11-13a2 2 0 00-1 0zm0 0a1 1 0 011 0c7 2 16 2 11 13-1 2-9 0-11 2-5 2-6 1-11 0l-3-1c-4 0-5-4-4-7 1-5 2-7 7-7h10z"/><path class="aq" d="M434 243c-8 2-13-3-16 3-1 4-3 12 4 11 1 0 7 4 12 0 3-1 11 1 12-1 5-12-5-11-11-13a4 4 0 00-1 0z"/><path class="am" d="M434 243h-2a28 28 0 01-4 8 20 20 0 01-3 3l3-3a19 19 0 003-7c-7 0-11-3-13 2-4 11 4 14 11 6 3-2 3-7 5-2l3 7h3c-2-2 1-8 0-11-1-2-6-1-6-3zm-5 16c1-3 4-7 5-1a9 9 0 01-5 1zm16-13c4 5 0 10-2 8-3-4-2-8 0-9a10 10 0 012 1z"/><path class="av" d="M419 245c-1-2 5-1 5-1a23 23 0 004 0c1-1 3-2 4 0l-4 1-7-1-2 1z"/><path class="aq" d="M418 256l8-8c3-2 2-3 3-5a6 6 0 01-2 5l-2 2c-2 3 1 3 0 7 1-4-1-4-1-6-2 2 1 4-1 6 1-3-1-4 1-6l2-3-8 8zm11-13z"/><path class="ak" d="M510 269v6c-4 2-14 0-18 1-3 0-11 2-11-4 0-4 0-3 5-5 2-1 6-4 9-4s12 0 14 3a5 5 0 011 3zm0 0c0-2 0-3-2-4-2-2-12-3-15-2l-12 6v4c1 5 8 3 11 3h18v-7z"/><path class="aq" d="M510 269v6c-2 2-9 1-11 1h-10c-3 1-8 0-8-4 0-3-1-3 4-5 2-1 8-5 10-4 4 0 15-1 15 6z"/><path class="am" d="M481 269a13 13 0 014-2c2-1 8-5 10-4 4 0 13-1 14 4 1 3 1 4-6 5-5 1-4-1-10-1l-11-1-1-1z"/><path class="av" d="M488 266c3-2 14-5 18-1h-1c-4-2-13 0-17 1z"/><path class="ak" d="M490 265l4 6c2 1 3 8 1 2 0-2-2-3-4-5-1-3 0-2-2 3l1-5v-1zM501 231v-9c1-4 4-3 8-3 3 0 18 0 19 2l1 7c0 2 0 6-3 5l-13-1c-1 1-13 1-12-1zm0 0c0 2 10 1 12 1l13 1c3 0 3-3 2-5l-1-7-16-1c-7 0-10-3-10 5v6z"/><path class="aq" d="M501 231v-9c1-4 3-3 7-2h12l8 1v7c1 1 1 5-2 5a173 173 0 00-18-1c-1 0-8 0-7-1z"/><path class="am" d="M507 220h13l8 1a8 8 0 010 1l-2 3c2 3 3 2 1 5-2 4-4 2-4 0-1-4-4-1-7 1-1 1-12 0-13-1-2-1-2-2-2-4 0-5 2-5 2-5l4-2zm0 3a8 8 0 012 0l1-1a1 1 0 01-1-1c-1 0-7 3-2 2zm14 6s-3 0-2 2c0 0 2 1 2-1v-1z"/><path class="av" d="M514 221c-1-2 10 0 11 1h-1l-10-1z"/><path class="aq" d="M501 228a6 6 0 001-2c2-2 5-1 6-1h-1c-1 0-3-1-4 1l-2 2z"/><path class="ak" d="M373 269v-10c1-4 4-2 8-2 3 0 18-1 19 1l1 7c0 2 0 6-3 6l-13-1c-1 0-13 0-12-1zm0 0h12l13 1c3 0 3-3 2-5l-1-7-16-1c-7 0-10-3-10 5v7z"/><path class="aq" d="M373 269v-10c1-4 3-3 7-2h12l8 1v7c1 2 1 6-2 5a175 175 0 00-18 0c-1 0-8 0-7-1z"/><path class="am" d="M379 257h13l8 1a8 8 0 010 2l-2 2c2 3 3 2 1 5-2 4-4 2-4 0-1-4-4-1-7 1h-13c-2-1-2-3-2-5 0-5 2-4 2-5l4-1zm0 4a8 8 0 012-1c2 0 1-1 1-1a1 1 0 01-1 0c-1-1-7 2-2 2zm14 6s-3-1-3 1a2 2 0 003-1c1 0 1 0 0 0z"/><path class="av" d="M386 258l11 1h-1l-10-1z"/><path class="aq" d="M373 265a6 6 0 001-2l5-1c-1 0-3-1-4 1l-2 2c-1 0 0 0 0 0zM490 265l4 6c2 1 3 8 1 2 0-2-2-3-4-5-1-3 0-2-2 3l1-5-1-1h1z"/><path class="ax" d="M440 496l2-1 1 1 2 2 2 2-2 1-5-5z"/><path class="ay" d="M457 513l3-2 1 2 2 2 2 1-2 2-6-5zM478 533l2-2 1 1 2 3 2 1-2 2-5-5z"/><path class="ax" d="M481 569l1 2-1 1-2 2-2 2-2-2 6-5z"/><path stroke-width="1.3" fill="#3f2b0f" stroke="#1d150c" stroke-miterlimit="10" d="M462 588l2 2-1 1-3 3-2 2-2-2 6-6z"/><path class="ay" d="M442 608l2 2-1 1-2 2-2 2-2-2 5-5z"/><path class="ax" d="M365 539l-2-2 2-1 2-2 1-2 2 2-5 5z"/><path class="ay" d="M382 521l-2-2 1-1 3-2 1-2 2 2-5 5zM402 501l-2-2 1-1 3-3 1-1 2 2-5 5z"/><path stroke-width="1.4" fill="#3f2b0f" stroke="#1d150c" stroke-miterlimit="10" d="M408 611l-2 2-2-1-2-2-2-2 3-3 5 6z"/><path class="ay" d="M389 593l-2 1-1-1-2-2-2-1 2-3 5 6zM371 574l-3 2-1-1-2-3-2-1 3-2 5 5z"/><path class="bb" d="M352 553l-1 2v1l2 2 1 1 2 1v1h2l4-4-4-4h-6z"/><path class="bb" d="M361 558l-1 1-2 1v1l-1 1 3 3 3 2 1 1h1l2-3a16 16 0 001-2l-6-6zM374 571l-1 1-1 1-1 1v1l2 2 1 2 2 1 1 1h1l4-3-7-7h-1z"/><path class="bb" d="M367 564l-2 2-1 2v1l2 2 1 1 2 1 1 1h1l4-4-5-6h-3zM394 591l-2 1-1 1v2l5 4h1l2-2 1-1-3-6-3 1z"/><path class="bb" d="M386 583l-3 3v2l1 1 1 1 3 2 1 1h2l1-1 2-2-5-6-3-1z"/><path class="bb" d="M381 578l-2 1-1 1-1 2 1 1 1 1 1 1 2 2a11 11 0 001-1l3-3-2-3zM405 601l-3 3v2l1 1 1 1 2 2 1 1h3l1-1 2-2-5-6-3-1z"/><path class="bb" d="M412 608l-3 3v1l1 1 1 2 2 1 3 3 1 1 2 1h1l1-1 2-2-7-8-4-2zM399 595l-1 2-2 1v1l1 2 1 1 1 1 2 2a12 12 0 001-1l3-3-2-3z"/><path class="bc" d="M424 625h-1l-1-1-2-1-1-1v-1l2-1 1-2 1-1 1 1z"/><path class="bb" d="M365 555l-2 2-2 2h1l2 2 1 1 1 1 1 1h2l3-3-5-6h-2z"/><path class="bb" d="M371 561l-1 1-1 1-1 1v1l2 3 3 2 1 1h2l2-3a14 14 0 000-2l-6-5zM394 583l-2 1-1 2-1 1 1 1 6 6h2l1-2 2-1-5-8h-3z"/><path class="bb" d="M385 573l-4 4v1l1 1 1 1 1 2 3 2 1 1 2 1h1l1-1 2-2-6-7-3-3z"/><path class="bb" d="M379 567l-3 1-1 2v1l1 2 1 1 2 2 1 1h1a7 7 0 001-1l3-3-3-2zM359 554v2l1 1 1 1 1 1 1-1 3-3-1-1h-6zM408 596l-1 1-1 1-2 1 1 2 2 2v1l3 2h1l1 1 4-4-7-6-1-1z"/><path class="bb" d="M415 603l-2 2-1 1v2l2 2 1 1 1 1 2 2h1l1 1 4-4-6-7-3-1zM401 590l-2 2-1 2 2 2 1 1 1 2h3l3-3-5-6h-2z"/><path class="bb" d="M423 618l-1-1-2-1-1-1v-1l2-1 1-2v-1l2 1zM372 554l-2 2-1 2v1l2 1 1 2 1 1h3l3-3-4-6h-3z"/><path class="bb" d="M379 560l-1 1-2 2-1 1 3 3 2 3h3l2-3a14 14 0 001-1l-6-6zM401 583l-2 1-1 1-1 1 1 1 5 5h1l1 1 2-3 1-1-4-6h-3z"/><path class="bb" d="M391 574l-2 2v2l1 2 1 1 3 3h1l2 1h1l1-1 2-2-6-7-4-1zM385 567a14 14 0 01-1 1l-2 1v2l2 1v1l2 2 2 2a6 6 0 001-1l2-3-2-3zM422 604l-2 1-1 2h-1l-1-2-1-1a5 5 0 00-1 0v-1l-1-1h-1a6 6 0 011-1l3-3 4 2z"/><path class="bb" d="M405 592v1l1 2 2 2 2 3 1 1h3l2-3-3-6-4-3-2 1-2 2zM424 611h-1l-2-1-1-2-1-1 1-1 2-2h2l1 6-1 1zM366 554v1l1 1 1 1v1h2l3-4v-1l-7 1zM375 554l-2 1v1l3 2 1 1 1 1 1 1h2l3-3-4-5-5 1z"/><path class="bb" d="M383 558l-1 1-1 1-1 1v1l2 3 3 2 1 1h2l2-3a14 14 0 000-2l-6-6zM396 571l-1 1-1 1-1 1v1l2 2 1 2 2 2h3l3-3-6-7h-2z"/><path class="bb" d="M390 564l-2 2-2 2 1 1 2 2 1 1 1 1 1 1h2l3-4-5-6h-2zM424 604h-2l-2-2-1-1v-1l1-1 1-2h1l2-1v8z"/><path class="bb" d="M416 591l-1 1-2 1v1l1 1 4 4h1v1l2-3 2-1-4-5h-3zM408 583l-2 3v2l1 1 1 1 2 2 1 1h2l1-1 3-2-5-6-4-1z"/><path class="bb" d="M403 578l-1 1-2 1v2l1 1v1l2 2 1 1h1a9 9 0 001-1l2-3-1-3zM394 561l-1 2-1 1-1 1v1l2 2 1 1 2 2 1 1h1l4-3-6-7-2-1z"/><path class="bb" d="M401 569l-2 1-1 2v1h1l2 3h1l1 1 1 2 1 1h2l3-4-5-6-4-1z"/><path class="bb" d="M409 576l-2 2-1 2v1l2 2 1 1 1 1 1 1h2l3-4-4-6h-3zM387 555l-1 2-2 2v1l3 2v1l2 1h1l1 1 4-4-5-6h-3z"/><path class="bb" d="M416 583l-1 1-2 1-1 1v1l3 2 2 3h3l2-3a14 14 0 001-1l-6-6z"/><path class="bb" d="M423 597v-1l-1-1-2-1-1-1 2-2 1-1v-1h2zM381 554l-1 2h1l1 2 1 1h1l1-1 4-3-1-1h-7z"/><path class="bb" d="M388 554v1l2 2 1 2h2l3-4v-1h-8z"/><path class="bb" d="M396 556l-1 1-1 1-2 1 1 1 1 2 1 1 1 1h3l3-3-5-5h-1z"/><path class="bb" d="M401 561l-2 2-1 1v1l1 1 2 2 1 1 1 1 2 2h2l3-4-5-6-4-1z"/><path class="bb" d="M409 569l-2 2-1 1v1l2 2 1 1 1 1 1 1h2l3-3-4-6h-3z"/><path class="bb" d="M416 575l-1 1-2 1v1l-1 1 3 3 2 2 1 1h2l2-3a16 16 0 001-2l-6-6z"/><path class="bb" d="M423 589l-1-1-2-2h-1v-1l2-1 1-2v-1l2 1z"/><path class="bb" d="M423 582l-1-1-2-1-1-1v-1l1-1 1-2 1-1h2v8z"/><path class="bb" d="M416 568l-1 2-2 1v1l1 1 4 4h1l2-2 1-1-3-6h-3z"/><path class="bb" d="M408 561l-3 3v1l1 1 1 1 1 1 2 2 1 1h2l1-1 3-2-5-6-4-1z"/><path class="bb" d="M403 555l-1 2-2 1v1l1 2v1l2 1 1 2h1a10 10 0 001-1l2-3-1-3z"/><path class="bb" d="M396 554l-1 1 1 2 2 1 1 1 1-1 1-2 2-1v-2l-7 1zM421 567l-2 2-1 1h-1l-1-1a6 6 0 01-1-1 5 5 0 00-1-1v-1h-1v-1a7 7 0 010-1l3-3 4 2z"/><path class="bb" d="M407 558l-1 1 1 1 2 2 1 2h1l1 1 1-1 3-3-3-4-3-2-2 1-1 2z"/><path class="bb" d="M403 554v2l1 1 1 1h2l3-3-1-1h-6zM423 574h-2l-2-2v-3l2-2h2l1 7h-1zM420 564h-2l-1-1-2-2-2-2v-1l1-1 2-2h2l5 6z"/><path class="bb" d="M413 558h-1l-1-1-2-2v-1l8-1-1 2-3 3zM423 567l-2 1-2-3v-1l2-2 1-1 1-1 1 7h-1z"/><path class="bb" d="M423 560l-1 1-2-3-1-1 2-1 2-3 1 4-1 3z"/><path class="bb" d="M416 554v1l2 2 1 1 1-1 2-3 1-1h-6l-1 1zM495 553l1-2v-1l-2-1-1-2-1-1h-3l-3 3 3 4h6z"/><path class="bb" d="M487 549l1-1 1-2 1-1-3-3-2-3h-3l-2 3a16 16 0 000 1l6 6zM473 536l1-1 1-1 2-1-1-2-2-2v-1l-3-2h-1l-1-1-4 4 7 6 1 1z"/><path class="bb" d="M480 542l2-2 1-2-2-2-1-1-1-2h-3l-3 3 5 6h2zM453 516l2-1 1-2 1-1-1-1-4-4h-2l-1 2-2 1 4 6h2z"/><path class="bb" d="M461 523l3-3v-1l-1-1-1-2-2-2h-1l-2-1h-1l-1 1-2 2 5 6 3 1z"/><path class="bb" d="M467 529l1-1 2-2v-1l-1-2h-1l-1-2-1-1-1-1a13 13 0 00-1 2l-3 2 2 3zM443 506l2-3v-2l-1-1-1-1-2-3h-1l-2-1v1l-1 1-3 1 5 6 4 2z"/><path class="bb" d="M435 498l3-3v-2l-2-1-1-2-3-3-2-1-2-1h-1l-1 1-2 2 7 8 4 2zM448 511l1-1 2-2v-1l-1-2-2-2-1-1h-1a11 11 0 00-1 1l-2 3 1 3z"/><path class="bc" d="M424 481h1l1 1 1 1 1 1v1l-2 1v2l-1 1-2-1z"/><path class="bb" d="M482 552l2-2 2-2v-1l-3-2-1-1-1-1-1-1h-1l-4 4 5 6h2z"/><path class="bb" d="M476 545l1-1 1-1 1-1v-1l-2-2-3-3-1-1h-2l-2 3a16 16 0 000 2l6 6zM454 523l2-1 1-1v-1l-1-2-6-6h-2l-1 2-2 1 6 8h3z"/><path class="bb" d="M462 533l4-4v-2l-1-1-2-1-2-3-2-1h-2l-1 1-3 2 6 7 3 2z"/><path class="bb" d="M469 540l2-2 1-2 1-1-2-2h-1l-1-2-2-2h-1a9 9 0 000 1l-4 3 3 3zM488 552l1-1-1-1-1-1-1-1h-1l-4 3 1 1h6zM440 510l1-1 1-1 1-1v-1l-2-3-1-1-2-2h-3l-3 3 6 7h2z"/><path class="bb" d="M433 503l1-1 2-2v-1l-1-1-2-2-1-1-1-1-2-2h-2l-4 4 6 6 4 1zM446 517l2-2 2-2-1-1-2-2-1-1-1-1-1-1h-2l-3 4 5 6h2z"/><path class="bb" d="M424 488l1 1 1 1 1 1h1v1l-1 2-1 1-1 1h-1zM475 552l2-2 2-2h-1l-2-2-1-1-1-1-1-1h-2l-3 3 5 6h2z"/><path class="bb" d="M469 546l1-1 1-1 1-1v-1l-2-3-3-2-1-1h-2l-2 3a14 14 0 000 2l6 5zM447 524l1-1 2-1v-1l-1-2-5-5h-2l-1 2-2 1 5 7h3z"/><path class="bb" d="M456 533l3-3v-2l-2-1-1-2-3-2-1-1-2-1v1l-1 1-3 1 6 8 4 1z"/><path class="bb" d="M462 540l2-1 1-2v-1l-1-2-1-1-1-2-2-1h-1a8 8 0 00-1 1l-2 2 2 3zM425 503l2-2 1-1h1l2 1a6 6 0 011 1 5 5 0 000 1h1l1 1v1a7 7 0 010 1l-3 3-5-2z"/><path class="bb" d="M442 514l1-1-2-2-2-2-2-2-1-1-1-1-1 1-3 3 3 5 5 3 2-1 1-2zM423 496l2-1 1 1 1 2 1 1-1 2-2 2h-2v-7zM481 553v-2l-1-1-1-1-1-1-1 1-3 3 1 1h6zM473 553l1-2v-1l-2-2-1-1-2-1-1-1h-1l-4 4 4 4h6z"/><path class="bb" d="M464 549l1-1 2-2v-1l1-1-3-2-3-3h-2l-2 3a14 14 0 00-1 1l6 6zM451 536l1-1 1-1 1-2v-1l-2-2-1-1-2-2-1-1h-1l-4 4 7 6 1 1z"/><path class="bb" d="M458 542l2-2 1-2v-1l-2-1-1-2-2-1h-2l-4 3 5 6h3zM424 503h1l2 1 1 1v2l-2 2-1 1h-2v-8z"/><path class="bb" d="M431 516l2-2 1-1v-1l-1-1-4-4h-1l-2 2-1 1 3 6h3z"/><path class="bb" d="M439 523l3-3v-2l-1-1-1-1-3-2-1-1h-2l-1 1-2 2 5 6 3 1z"/><path class="bb" d="M444 529l2-1 1-2 1-1-1-2-1-1-1-1-2-2a9 9 0 00-1 1l-3 3 2 3zM453 545l1-1 1-1 2-1-1-2-2-2v-1l-3-2h-2l-4 3 7 6 1 1z"/><path class="bb" d="M446 538l2-2 1-1v-2l-2-2-1-1-2-1-1-2h-1l-1-1-4 4 6 7 3 1z"/><path class="bb" d="M438 530l2-2 1-2-2-2-1-1-1-2h-3l-3 3 5 6h2zM460 551l2-2 1-2-2-2-1-1-1-1-1-1h-2l-3 3 4 6h3z"/><path class="bb" d="M432 524l1-1 1-1 1-1v-1l-2-3-3-3h-3l-2 3a16 16 0 000 2l6 5z"/><path class="bb" d="M424 510h1l1 1 1 1 1 1v1l-1 1-1 2-1 1-2-1zM467 552v-1l-1-1-1-1-1-1h-2l-3 4v1l8-1zM459 552v-1l-2-2-1-1h-2l-3 3v2l8-1z"/><path class="bb" d="M451 551l2-1 1-1 1-1v-2l-2-1v-1l-2-2h-2l-4 3 5 5 1 1z"/><path class="bb" d="M446 545l2-1 1-2v-1l-2-3h-1l-2-1-1-2-1-1h-1l-4 4 6 6 3 1z"/><path class="bb" d="M438 538l2-2 1-2v-1l-2-2-1-1-1-1-1-1h-2l-3 4 5 6h2z"/><path class="bb" d="M432 532l1-1 1-2 1-1v-1l-2-2-3-3h-3l-2 3a16 16 0 000 1l6 6z"/><path class="bb" d="M424 518h1l1 1 1 1 1 1-1 2-1 1-1 1h-2zM424 525h2l1 2 1 1v2l-2 2h-1l-1 1-1-8z"/><path class="bb" d="M431 538l2-1 1-1 1-1-1-2-4-4h-2l-1 2-2 1 3 6h3z"/><path class="bb" d="M439 546l3-3v-2l-1-1-1-1-3-3h-1l-1-1-1 1-1 1-2 1 5 6 3 2z"/><path class="bb" d="M444 551l2-1 2-2v-1l-1-2h-1l-1-2-2-1a13 13 0 00-1 1l-3 3 2 3z"/><path class="bb" d="M452 552v-1l-1-1-2-2v-1h-1l-1 1-1 2-2 1v2l8-1zM426 539l2-1 1-2h1l1 2a6 6 0 012 1 4 4 0 000 1h1v1l1 1-3 3-5-1z"/><path class="bb" d="M441 549v-2l-1-1-1-2-2-1-1-1h-1l-3 3 2 5 3 2 2-2 2-1zM445 552v-1l-1-1-1-1h-1v-1l-1 1-3 3v1l7-1zM424 532h1l2 1 1 2 1 1-1 1-2 2h-2v-7z"/><path class="bb" d="M428 543h3l2 2 1 2v2l-3 3h-1l-6-7z"/><path class="bb" d="M434 549l1-1 1 2 2 1v2h-8l2-2 2-2zM424 539h2l2 2v2l-2 1-1 2h-1v-7z"/><path class="bb" d="M424 546l1-1 3 3v1l-2 1-1 3-1-4v-3z"/><path class="bb" d="M431 553v-2l-2-2h-1l-1 1-2 2-1 1h7zM423 624l2 2h1l2-3h1l1-2 1-1v-1l-4-4-4 4v5z"/><path class="bb" d="M428 616l1 1 1 1 1 1 1 1 2-3 3-3 1-1v-2l-3-2a14 14 0 00-2 0l-6 6zM441 603l1 1 1 1 1 1h1l2-2 2-1 1-2 1-1v-2l-3-3-7 6v2z"/><path class="bb" d="M434 610l2 1 2 2h1l2-3 1-1 1-1 1-1v-1l-4-4-6 5v3zM461 583l1 2 1 1h1l1-1 4-4v-1l-2-2-1-1-6 3 1 3z"/><path class="bb" d="M453 591l3 3h2l1-2 1-1 2-2 1-1v-2l-1-1-2-3-6 5-1 4z"/><path class="bb" d="M448 596l1 2 1 1 2 1 1-2h1l1-2 2-1v-1a12 12 0 00-1-1l-3-2-3 1zM471 572l3 3h2l1-1 1-1 2-3 1-1v-2l-1-1-2-2-6 5-1 3z"/><path class="bb" d="M478 565l3 3 1-1h1l2-1 1-2 3-3 1-1 1-2v-1l-1-1-2-3-8 7-2 5zM465 578l1 1 2 2h1l2-1 1-1 1-1 2-2a11 11 0 00-1-1l-3-3-3 2z"/><path class="bc" d="M495 553v1l-1 1-1 2h-2l-1-1-2-1-1-1 1-1z"/><path class="bb" d="M425 612l2 2 2 1 2-2 1-1 1-1 1-1v-2l-3-3-6 5v2z"/><path class="bb" d="M431 606l1 1 1 1 1 1h1l3-3 2-2 1-1v-2l-3-2a16 16 0 00-2 0l-5 6zM453 583l1 2 2 1 1 1 1-2 6-5v-2l-2-2-1-1-8 5v3z"/><path class="bb" d="M443 592l4 4h1l1-1 1-1 2-1 2-3 1-1 1-2v-1l-1-1-2-2-7 6-3 3z"/><path class="bb" d="M437 598l1 2 2 2h1l2-1 1-1 2-2 1-1v-1a8 8 0 00-1-1l-3-3-2 3zM424 618h2l1-2h1v-2l-3-3-1 1v6zM466 569l1 1 1 1 1 2 2-1 2-2 1-1 2-2v-1l1-1-4-4-6 7-1 1z"/><path class="bb" d="M473 562l2 2 1 1h1l1-1 2-2h1l1-2 2-1v-1l1-1-4-4-7 6-1 3zM460 576l2 2 2 1 2-2 1-1 2-1v-3l-3-3-6 4v3z"/><path class="bb" d="M488 554l-1 1-1 2h-2l-1-1-2-1-1-1 1-1zM424 605l2 2 2 1h1l1-2 2-1 1-2v-2l-3-4-6 5v3z"/><path class="bb" d="M430 598l1 1 2 2 1 1 3-3 3-3v-2l-3-2a14 14 0 00-2-1l-5 6zM452 576l2 2 1 1h1l1-1 5-5 1-1-3-2-1-1-6 4-1 3z"/><path class="bb" d="M443 586l3 2h2l2-1 1-2 3-2v-1l1-2v-1l-1-1-2-2-7 6-2 4z"/><path class="bb" d="M437 592a14 14 0 011 1l1 2h2l1-2h1l2-2 2-2a8 8 0 00-1-1l-3-3-3 3zM474 555l1 2 2 1v1l-2 1-1 1a5 5 0 00-1 1l-1 1a4 4 0 01-1 0l-3-3 1-4z"/><path class="bb" d="M462 572h1l2-2 2-1 3-2 1-2v-2l-3-3-6 4-3 4 1 2 2 2zM481 553v1l-1 1-2 2h-2l-2-2v-2l6-1 1 1zM424 611h1l1-1 1-1 1-1-1-1-3-3h-1l1 7zM424 602l1 2 1-1 2-2 1-1 1-1 1-1v-2l-3-3-5 3 1 6z"/><path class="bb" d="M428 594l1 1 1 1 1 1h1l3-2 2-3 1-1v-2l-3-2a14 14 0 00-2 0l-6 6zM441 581l1 1 1 1 1 1 1-1 2-2h2l2-2v-3l-3-3-7 6v2z"/><path class="bb" d="M434 587l2 2 2 2 1-1 2-2 1-1 1-1 1-1v-2l-4-3-6 5v2zM474 553v2l-2 1-1 2h-1l-1-1-2-1v-1l-1-2h8z"/><path class="bb" d="M461 561l1 1 1 1 1 1 1-1 4-4v-1h1v-1l-3-1-1-2-5 4v3z"/><path class="bb" d="M453 568l3 3h2l1-1 1-1 2-2 1-1v-3l-1-1-2-2-6 5-1 3z"/><path class="bb" d="M448 574l1 1 1 2h2l1-1 1-1 2-1 1-1v-1a10 10 0 00-1-1l-3-3-3 2zM431 583l2 1v1l2 1h1l2-2 1-1 2-2 1-1v-2l-3-3-7 6-1 2z"/><path class="bb" d="M439 576l1 1 2 2h1v-1l3-2v-1l1-1 2-2h1v-2l-4-4-6 6-1 4z"/><path class="bb" d="M446 568l2 2 2 1h1l2-2 1-1 1-2 1-1v-1l-4-4-6 5v3zM425 589l2 2 2 2h1l1-3 2-1 1-1v-3l-3-3-6 5v2z"/><path class="bb" d="M453 561l1 1 1 2h1l1 1 2-3 3-3v-2l-2-2a16 16 0 00-2-1l-6 6z"/><path class="bb" d="M467 554h-1l-1 1-1 2h-1l-2-1-1-1-1-1v-1zM424 596l2 1v-1l1-1 2-1v-1l-1-1-3-4-1 1v7z"/><path class="bb" d="M424 589h1l2-2 2-2v-1l-4-4-1 1v8z"/><path class="bb" d="M426 581l1 1 1 1 1 1h1l2-1 1-1 1-1v-3l-3-3-5 5v1z"/><path class="bb" d="M431 576l1 1 2 2h1l1-1 2-2 1-1 1-1 2-2v-2l-4-4-6 6-1 4z"/><path class="bb" d="M439 568l1 2 2 1h1l2-2 1-1 1-2 1-1v-1l-4-4-5 5v3z"/><path class="bb" d="M445 561l1 1 1 2h1l1 1 3-3 2-3 1-1v-1l-3-2a14 14 0 00-2-1l-6 6z"/><path class="bb" d="M459 554l-1 1-2 2h-1l-1-1-2-1-1-1 1-1z"/><path class="bb" d="M452 554l-1 1-1 2-1 1h-1l-1-1-2-1-1-1v-2h8z"/><path class="bb" d="M438 561l2 1 1 2h1l1-1 4-4v-1l-2-2-1-2-6 4v3z"/><path class="bb" d="M431 569l3 2h1l2-1 1-1 2-2 1-1v-2l-1-1-2-3-6 5-1 4z"/><path class="bb" d="M425 574l1 1 2 2h1l2-1 1-1 1-1 2-1v-1a11 11 0 00-1-1l-3-2-3 1z"/><path class="bb" d="M424 581l1 1 2-2 1-1 1-1-1-1-2-2-1-1-2-1 1 8zM437 556l2 1 1 2v1l-2 1v1a5 5 0 00-1 1h-1v1h-1a7 7 0 01-1 0l-3-3 2-4z"/><path class="bb" d="M428 570l1 1 1-1 2-2 2-1v-3l-3-3-4 3-2 3 1 1 2 2z"/><path class="bb" d="M424 574h2l1-2h1v-2l-3-3-1 1v6zM444 554v2l-2 2h-3l-2-3v-1l7-1v1zM434 557v2l-1 1-2 2-2 2h-1l-1-1-2-2v-2l6-5z"/><path class="bb" d="M428 563v2l-1 1-2 2h-1l-1-8 2 1 3 2zM437 554l1 2-3 2h-1l-2-2-1-2-1-1h7v1zM430 554l1 1-3 2h-1l-1-1-3-2 4-1 3 1z"/><path class="bb" d="M424 561h1l2-3h1l-1-1-3-2-1-1v6l1 1zM423 482l-1-2h-1l-2 3-1 1-1 1-1 1v1l3 4 5-4-1-5z"/><path class="bb" d="M419 490l-1-1-1-1-1-1-1-1-3 3-2 3-1 1v1l3 2a16 16 0 002 1l5-6zM406 503l-1-1-1-1-1-1h-1l-3 2-1 1-2 2v3l3 3 7-6v-2z"/><path class="bb" d="M412 497l-1-2-2-2h-1l-2 3-1 1-1 1-1 1v1l4 4 6-5-1-2zM386 523l-1-1-1-2h-1l-1 1-4 4-1 1 3 2 1 1 5-3v-3zM394 515l-3-3h-2l-1 2-1 1-2 2-1 1v2l1 1 2 3 6-5 1-4z"/><path class="bb" d="M399 510l-1-2-2-1-1-1-1 2h-1l-2 2-1 1v1a12 12 0 001 1l3 2 3-1zM376 534l-3-3h-2l-1 1-1 1-2 3-1 1v2l1 1 2 2 6-5 1-3z"/><path class="bb" d="M369 541l-3-3-2 1-2 1-1 2-3 3-1 1-1 2v1l1 1 2 3 8-7 2-5zM381 529l-1-2-1-2h-2l-1 1-1 1-1 1-2 2a11 11 0 001 1l3 3 3-2z"/><path class="bc" d="M351 553l1-1 1-1 1-2h1l2 1 1 1 2 1-1 1z"/><path class="bb" d="M422 494l-2-2-2-1h-1l-1 2-1 1-2 1v3l3 3 6-5v-2z"/><path class="bb" d="M416 500l-1-1-1-1-1-1h-1l-3 3-3 2v3l3 2a14 14 0 002 0l5-6zM394 523l-1-2-2-1-1-1-1 2-6 5v2h-1l3 2 1 1 7-5 1-3z"/><path class="bb" d="M404 514l-4-4h-1l-1 1-1 1-2 1-2 3-1 1-1 2v1l1 1 2 2 7-6 3-3z"/><path class="bb" d="M410 508l-2-2-1-2h-1l-2 1-1 1-2 2-1 2h-1a7 7 0 001 1l4 3 2-3zM422 488h-2l-1 2-1 1 1 1 3 3 1-1-1-6zM381 537l-1-1-1-1-2-2-1 1-2 2-1 1-2 2v1l-1 1 4 4 6-7 1-1z"/><path class="bb" d="M373 544l-1-2-2-1-1 1-2 2h-1l-1 2-2 1-1 1v1l4 4 7-6v-3zM387 530l-2-2-2-1h-1l-1 2-2 1-1 1v3l3 4 6-5v-3z"/><path class="bb" d="M359 553v-1l1-1 1-2h2l1 1 2 1 1 1-1 1zM423 501l-2-2-2-1h-1l-2 2-1 1-1 2h-1v2l4 4 6-5v-3z"/><path class="bb" d="M416 508l-1-1-1-2h-1l-1-1-2 3-3 3v1l-1 1 3 2a14 14 0 002 1l6-6zM394 530l-1-2-1-1h-1l-2 1-4 5-1 1 3 2v1l7-4v-3z"/><path class="bb" d="M403 521l-2-3h-2l-2 1-1 2-3 2-1 1v3l1 1 2 2 7-6 1-3z"/><path class="bb" d="M410 514a14 14 0 01-1-1l-1-2h-2l-1 2h-1l-2 2-2 2a8 8 0 001 1l2 3 4-3zM373 551l-2-2-1-1v-1l2-1a6 6 0 010-1 4 4 0 001-1h1v-1h1a5 5 0 011 0l3 3-2 4z"/><path class="bb" d="M385 534h-1l-3 2-2 1-2 2-1 2v2l3 3 6-4 3-4-1-2-2-2zM366 553v-2l2-2h3l2 2v2l-7 1v-1zM423 495h-1l-1 1-1 1-1 1v1l3 3h1v-7zM423 504l-2-2v1l-2 2-1 1-2 1v3l3 3 4-3v-6z"/><path class="bb" d="M419 512l-1-1-1-1-1-1h-1l-3 2-3 3v3l3 2a14 14 0 002 0l5-6zM406 525l-1-1-1-1-1-1-1 1-3 2h-1l-2 2v3l3 4 6-7 1-2z"/><path class="bb" d="M412 519l-2-2-1-1h-1l-2 2-1 1-1 1-1 1v2l3 3 6-5v-2zM373 553v-2l2-1 1-2h1l1 1 2 1v1l1 2h-8z"/><path class="bb" d="M386 546l-1-2-1-1-1-1-2 1-4 4v2l3 1v2l6-4v-2zM394 538l-3-3h-2l-1 1-1 1-3 2v1l-1 2 1 1 1 1 2 2 6-5 1-3z"/><path class="bb" d="M399 532l-1-1-2-2h-1l-1 1-1 1-2 1-1 1v1a9 9 0 001 1l3 3 3-2zM415 523l-1-1-1-1-1-1h-1l-2 2-2 1-2 2v3l3 3 7-6v-2z"/><path class="bb" d="M408 530l-1-1-2-2h-1l-1 1-2 2v1l-2 1-1 2h-1v2l4 4 6-6 1-4z"/><path class="bb" d="M400 538l-1-2-2-1h-1l-2 2-1 1-1 2-1 1v1l4 4 6-5-1-3zM422 517l-2-2-2-2h-1l-2 3-1 1-1 1-1 1v2l4 3 6-5v-2z"/><path class="bb" d="M394 545l-1-1-1-2h-1l-1-1-2 3-3 3-1 1v1l3 2a14 14 0 002 1l6-6z"/><path class="bb" d="M380 553l1-1 1-1 1-2h1l2 1 1 1 1 1v1zM423 510l-2-1-1 1-1 2h-1v2l4 4 1-1v-7z"/><path class="bb" d="M423 518l-2-1-1 2-2 2v1l3 4 2-1v-7z"/><path class="bb" d="M421 525l-1-1-1-1-1-1h-1l-2 1-1 1-1 1v3l3 3 5-5v-1z"/><path class="bb" d="M416 530l-2-1-1-2h-1l-1 1-2 2-1 1-1 1-2 2v2l3 4 7-6 1-4z"/><path class="bb" d="M408 538l-2-2-2-1-2 2-1 1-2 2v2l3 4 6-5v-3z"/><path class="bb" d="M402 545l-1-1-1-2h-1l-1-1-3 3-2 3-1 1v1l3 2a15 15 0 002 1l5-6z"/><path class="bb" d="M388 553v-1l1-1 1-2h2l1 1 2 1 1 1-1 1z"/><path class="bb" d="M395 553v-2l2-2 1-1h1l1 1 2 1 1 1v2h-8z"/><path class="bb" d="M408 545l-1-1-1-1-1-1-1 1-4 4v2l2 1 1 2 6-4-1-3zM416 537l-3-2h-2l-1 1-1 1-2 2-1 1v2l1 1 2 3 6-5 1-4z"/><path class="bb" d="M421 532l-1-1-1-2h-2l-1 1-1 1-1 1-2 1v1a11 11 0 001 1l3 2 3-1z"/><path class="bb" d="M423 525l-1-1-2 2-2 1v1l1 1 1 2 1 1 2 1v-8zM410 550l-2-1-1-2v-1l1-1a6 6 0 011-1 5 5 0 001-1l1-1h1a5 5 0 011 0l3 3-2 4z"/><path class="bb" d="M419 536l-1-1-2 1-1 2-2 1-1 1v1l1 1 3 3 4-2 2-4-1-1-2-2z"/><path class="bb" d="M423 532h-2l-1 2h-1v2l3 3 1-1v-6zM403 552l-1-1 1-1 2-1 1-1h2l2 3v1l-7 1v-1zM413 549v-2l1-1 1-2 3-2 2 1 2 2v2l-6 5z"/><path class="bb" d="M419 543v-2l1-1 2-2h1v8l-1-1-3-2zM409 552v-2l2-2h2l2 2 1 2 1 1h-7l-1-1z"/><path class="bb" d="M416 552v-1l2-2h1l2 1 2 2-3 1-4-1zM423 545h-1l-2 3h-1l1 1 3 2 1 1v-6l-1-1z"/><path transform="rotate(-45 423 553)" style="isolation:isolate" opacity=".1" fill="url(#b)" d="M371 501h103v104H371z"/><path class="be" d="M351 554h17l10 1 13-1h32v-1l-5-1h-27l-13 1-10-1h-17l-1 2zM423 481l-1 8v63h2v-4-15-13-13-10-8l1-8-2-1zM496 552h-17l-10-1-13 1h-32v2h32l13-1 10 1h17l1-1zM425 626v-8-9-9-13-13-15-4h-2v71l1 1z"/><path class="be" d="M424 556l-3-3 3-3 3 3-1 1a6 6 0 01-2 2z"/><use class="e" transform="rotate(90 414 914) scale(.09)" xlink:href="#c"/><path class="aj" d="M1281 678l10-1h12l10-1a13 13 0 007-7c3-7 1-14 1-21a75 75 0 010-12 34 34 0 001-5 39 39 0 00-1-6 23 23 0 010-6v-6l1-11a3 3 0 000-1v-36l-1-11a4 4 0 000-1 31 31 0 000-6 34 34 0 010-6 38 38 0 001-8v-15l-1-5a6 6 0 01-2 0c-3 0-5 0-8-2-2-1-5-3-3-6h-1a7 7 0 01-2 1 22 22 0 01-5 0c-3-1-7 1-10 2a2 2 0 01-2-1h-1a2 2 0 01-2 1 10 10 0 01-4-2 30 30 0 00-4-1 12 12 0 00-3 0 18 18 0 00-6 2 5 5 0 000 4 22 22 0 011 10l-1 12-1 24 1 25v87a8 8 0 002 6 8 8 0 005 2h2c-1 0 0 0 0 0a3 3 0 004 1z"/><path class="ak" d="M1322 547c0-5 2-9-3-9h-6c-3 0-2 8-3 10 0 1 0 11 2 11s8 1 9-1c2-2 1-5 1-8zm0 0v12l-10 1c-3-1-2-11-2-12 0-3-1-11 3-11l6 1c5 0 4 4 3 9z"/><path class="al" d="M1322 547c0-4 2-9-3-9-7 1-9-5-9 8 0 3 0 13 2 13l7 1c2-1 3-1 3-4a8 8 0 000-4 41 41 0 010-5z"/><path class="am" d="M1322 547v-8a3 3 0 00-3 0l-4 1c-2 1-3 0-3 5 0 1-1 8 1 9s-5 3 1 5l8-2v-1a8 8 0 000-4 41 41 0 010-5zm-2 8l-1-1v-2l1 3zm-5 2v-1 1zm0-18l-4 3 1-3h3z"/><path class="an" d="M1319 593l-9 1c-1 0-3 5-1 5h12c1 0 4-7-2-6zm0 0c5-1 4 4 3 6-2 2-10 1-13 1-3-1-1-4 0-6l10-1z"/><path class="ao" d="M1319 593h-7l-3 1c0 2-2 3-1 5l7 1 7-1c2-4 0-7-3-6z"/><path class="ap" d="M1318 600l4-1c1-3 1-5-1-6a15 15 0 01-2 0l-6 1c-3 0-2 1-3 2a2 2 0 001 3l4 1a21 21 0 003 0z"/><path class="an" d="M1291 506l-9-1c-1 0-4 4-2 5s10 3 12 2c1 0 5-5-1-6zm0 0c5 0 3 5 1 7-2 1-10-2-12-3-3-1 0-4 1-5s8 1 10 1z"/><path class="ao" d="M1291 506l-7-1h-3c-1 2-2 2-2 5l7 2h6c4-3 2-6-1-6z"/><path class="ap" d="M1289 513l3-1c3-2 3-4 1-5a17 17 0 01-2-1h-6c-3-1-2 1-3 1a2 2 0 000 3l3 2a20 20 0 004 1z"/><path class="ak" d="M1280 598c-1-8 1-9 1-15 0-4 16 0 12 6v3l-1 8-8-1-4-1zm0 0l4 1 7 1 1-4 1-7c3-6-11-9-12-6 0 6-2 7-1 15z"/><path class="aq" d="M1280 598c-1-7 2-10 1-15 0-4 16 0 12 6v7c-1 4 0 5-7 3l-6-1z"/><path class="am" d="M1284 581c4 0 12 4 9 8v7l-2 4a2 2 0 010-1c0-4-3-2-3-2a3 3 0 000 2h-2a31 31 0 01-5-1 5 5 0 012-2c1-1 7-2-1-1-1-4 4-3 5-3 7 0 3-2 0-3-6-4 4 1 4 0 2-1-3-3-3-3-4-2-5-4-4-5z"/><path class="an" d="M1280 629c-1-3-3-11 3-9h5c4 0 3 2 3 6 1 2 3 12 1 12-3 0-9 1-11-1a33 33 0 01-1-4v-4zm0 0l1 4 1 4c1 2 8 1 10 1 2-1-1-11-1-13-1-8-2-3-7-5-7-2-5 4-4 9z"/><path class="ao" d="M1280 629c-1-2-3-12 4-9 4 2 7-3 7 5 0 3 3 13 0 13-13 1-8 0-11-8a4 4 0 010-1z"/><path class="ap" d="M1291 627l1 4a6 6 0 01-3-1c-1 0-3 3 3 5h1c0 2-1 3-2 3h-2a19 19 0 00-4-1c-3 0-5-4-3-7 0-1-4-10 1-7 3-2 4-2 6 2 3-1-1 0 2 2z"/><path class="an" d="M1295 671c-1-3-2-10 3-9l5 1c4-1 3 2 4 6 0 2 3 11 0 12-2 0-9 1-10-1a31 31 0 01-1-5l-1-4zm0 0l1 4 1 5h10c2 0-1-11-1-13-1-7-1-2-7-4s-4 4-4 8z"/><path class="ao" d="M1295 671c0-1-3-11 5-8 3 2 6-3 6 4 0 4 4 13 1 14-13 1-9 0-12-8a4 4 0 010-2z"/><path class="ap" d="M1307 670v3a6 6 0 01-2 0c-1 0-4 3 3 5l-1 3h-2a19 19 0 00-4-1c-3-1-5-4-4-8 1 0-3-9 2-6 2-2 3-2 5 1 3-1 0 1 3 3z"/><path class="ak" d="M1285 546c6 3 8 4 9-6 0-8-2-6-7-7l-3 1c-2 2-1 10 1 12zm0 0c-2-2-3-11-1-12 1-2 2-2 3-1 5 0 7-1 7 7-1 10-2 10-9 6z"/><path class="ar" d="M1285 546c3 2 8 5 8-2 1-13 0-10-7-12l-2 3c-1 0-1 10 1 11z"/><path class="as" d="M1289 548c2 1 4 0 4-4 1-11 0-10-5-11a1 1 0 000 1c0 6-3 2-1 8l1 2c-2 2 0 3 1 4zm3-5c0 1-2 2-1 0 0-7 2-5 1 0z"/><path class="ak" d="M1283 677c7 3 8 4 9-6 0-7-1-6-6-7l-4 2c-1 2 0 9 1 11zm0 0c-2-2-2-10-1-11a1 1 0 010-1l4-1c5 1 7-1 6 7 0 10-2 10-9 6z"/><path class="ar" d="M1283 677c3 2 8 6 9-2 1-12-1-10-8-11l-2 2c-1 0-1 10 1 11z"/><path class="as" d="M1288 680c2 0 3-1 4-5 1-11 0-10-5-11a1 1 0 000 1c-1 6-3 3-2 8 1 3 2 2 1 3s0 3 2 4zm2-5h-1c1-8 2-6 1 0z"/><path class="ak" d="M1288 602v14c2 2 5-2 5-4v-4c0-7-1-4-3-7l-2 1zm0 0l2-1c2 3 3 0 3 7v4c0 3-4 8-5 4v-14z"/><path class="aq" d="M1288 602c-1 7-1 19 3 14 3-3 2-4 2-8 0-7-1-4-3-7l-2 1z"/><path class="am" d="M1289 617l2-1c3-3 2-4 2-8 0-7-1-4-3-7v8c-4 7 2 2 0 6a4 4 0 00-1 2z"/><path class="an" d="M1306 544c-2-3 2-6-3-6l-5-1c-2 0-2 6-2 7-1 4-1 6 3 7h8c1-1-1-5-1-7zm0 0c0 1 3 6 1 7h-8c-5 0-4-3-3-7 0-1-1-7 2-7l5 1c5 0 2 3 3 6z"/><path class="ap" d="M1306 544c-2-3 2-6-4-6-2 0-6-4-6 5 0 2-4 9 7 8 3 0 6 2 3-5v-2z"/><path class="ao" d="M1306 544c-1-2 1-5-2-6a5 5 0 01-1 0h-1l-3-1c-2 2 0 10-2 11-1 1 1 2 3 3a19 19 0 003 0 3 3 0 001-3c-1-2 1-3 2-3a6 6 0 000-1z"/><path class="ak" d="M1280 530c-1-7 1-8 1-14 0-3 16 0 12 6v3l-1 7h-8l-4-2zm0 0l4 1c2 1 6 2 7 1l1-3 1-7c3-5-11-9-12-6 0 6-2 7-1 14z"/><path class="ar" d="M1280 530c-1-6 2-8 1-14 0-3 16 0 12 6v7c-1 4 0 4-7 3-2-1-4 0-6-2z"/><path class="as" d="M1290 517c3 1 5 3 3 5v7c-1 3 0 4-5 3a7 7 0 011-2l-2-5c-4-2-1-2-3-3-1 0 0-4 3-4 1 1 2-1 3-2zm-4 15a16 16 0 000-3c0-3-1-1-3-3-1 0-3 1-1 4a13 13 0 000 1l4 1z"/><path class="at" d="M1295 651l1-14 7-2c6 1 5 11 5 15 0 3-1 12-4 12h-6l-2-7-1-4zm0 0l1 4 2 7h6c5 0 4-17 4-20-1-8-6-9-13-5h1c-2 1-2 12-1 14z"/><path class="ar" d="M1295 651c-1-1 0-13 1-14 0 0 12-8 12 8 0 3 0 17-4 17-7-1-6 2-7-6l-2-5z"/><path class="as" d="M1298 636c3-1 9-3 10 6l-1 2a3 3 0 001 3c0 5 0 13-3 15-1-2-5 3-7-9-1-4 1-2 2-2 5 2-1-2-2-3-3-4 5-4 1-8l-1-4z"/><path class="ak" d="M1281 601c-1 4-4 14-2 17 1 2 6-2 7-5v-5c2-7 1-4-3-8l-2 1zm0 0l2-1c4 4 5 0 4 8l-1 5c-1 4-7 9-8 4s1-12 3-16z"/><path class="aq" d="M1281 601c-3 8-5 22 1 17 5-4 4-5 5-10 1-8-1-4-4-8l-2 1z"/><path class="am" d="M1283 618c4-4 3-5 4-10v-2a2 2 0 01-1-1 2 2 0 00-3-3c-3 2 3 7 0 12-3 0-1-5-1-6-3-1-2 9-2 9l3 1z"/><path class="ak" d="M1311 665c-1 4-3 12 2 13 2 0 10-7 10-9l-1-4c0-6-1-3-7-3l-4 3zm0 0c1-2 2-3 4-3 6 0 7-3 8 3v4c0 3-8 11-11 9s-2-9-1-13z"/><path class="aq" d="M1311 665c-3 7-2 18 7 10 7-6 4-6 4-10 0-6-2-3-7-3l-4 3z"/><path class="am" d="M1319 674c6-5 3-5 3-9a14 14 0 000-1l-1-1c-1-2-5 0-6 1-5 4 7 2 3 8-5 2-4-3-4-3-4 1 0 7 0 7l5-2z"/><path class="an" d="M1309 605l2-4h-2l-2-1 1 3v2a3 3 0 001 2v-2zm0 0a1 1 0 000 1c0 2-2 0-1-2l-1-3c-1-2 1 0 2 0s3-1 2 1l-2 3z"/><path class="ao" d="M1309 605l2-4c1-2-2 0-2 0-1 0-3-2-2 0l1 3v1s1 3 1 1a1 1 0 010-1z"/><path class="an" d="M1307 605l-1-1c-3-2-6-2-3-4 1-1 2-3 4-1s-2 0 0 3v3zm0 0a3 3 0 000-2c-1 0-2-3 0-3 0-1-1-3-3-1s-4 2 0 4l3 2zm0 0z"/><path class="ao" d="M1307 605v-2s-2-3 0-3c0 0-2-3-3-1 0 1-4 2 0 4a21 21 0 013 2z"/><path class="an" d="M1309 575v7c0 4-2 0-2-3l2-4zm0 0c-1 5-2 5 0 8a4 4 0 000-1v-7z"/><path class="aq" d="M1309 575v9c-3-4-1-5 0-9z"/><path class="an" d="M1287 514c-1 1-6-1-8-1-3-1 1-2 3-2l5 2v1zm0 0v-1c-5-1-5-2-9-1a4 4 0 001 1c2 0 7 2 8 1z"/><path class="aq" d="M1287 514c-1 1-6-1-7-1l-2-1c4-2 5 0 9 1v1z"/><path class="an" d="M1294 622c0 2 0 2-2 1s1-4 1-7c0-2 1-5 1 0v6zm0 0a22 22 0 010-6c1-6-1-3-2 0l-1 5c-1 3 4 4 3 1z"/><path class="aq" d="M1294 622c0 1 1 2-2 2-3-2 1-5 1-8s2-5 1 0a18 18 0 000 6z"/><path class="an" d="M1288 617a21 21 0 00-1-3l-4 4a2 2 0 000 1l5-2zm0 0c0 1-8 4-4 1 2-2 3-7 4-1z"/><path class="aq" d="M1288 617l-1-3-2 2c-1 2-4 3-1 3l4-2z"/><path class="an" d="M1281 677a21 21 0 00-1-3c-1 1 0 2-3 4a2 2 0 000 1l4-2zm0 0c1 1-8 4-4 0 2-1 4-7 4 0z"/><path class="aq" d="M1281 677l-1-3-1 2c-1 2-4 3-2 3l4-2z"/><path class="an" d="M1276 612l-3 1v3s3 7 4 4v-6l-1-2zm0 0c2 2 1 4 1 7-1 4-2-1-3-3l-1-3 3-1z"/><path class="ao" d="M1276 612l-3 1 1 5c1 1 3 5 3 1 0-2 2-6-1-7z"/><path class="ak" d="M1295 523l1 9-1 6c-2 0-2-14-1-16s1-1 1 1zm0 0c0-2 0-3-1-1-1 3 0 15 1 16v-5a25 25 0 001-2l-1-8z"/><path class="ar" d="M1295 523l1 8a19 19 0 00-1 5c0 3-1 4-1-2v-12s0-2 1 0v1z"/><path class="an" d="M1293 551a24 24 0 001-3l-5 1a2 2 0 00-1 0l5 2zm0 0c-1 1-9-2-3-2 2 0 7-3 3 2z"/><path class="aq" d="M1293 551l1-3-2 1c-2 1-5-1-3 1l4 1z"/><path class="an" d="M1280 547a21 21 0 00-1 3l7-1-6-2zm0 0c1-1 11 2 5 2-4 1-9 4-5-2z"/><path class="aq" d="M1280 547l-1 3h3c2-2 6 0 4-2l-6-1z"/><path class="at" d="M1307 540l2 3 1 5c0 1 0 3-1 1a50 50 0 01-3-6s-1-2 1-3zm0 0a363 363 0 003 9 7 7 0 00-1-1v-4l-2-4z"/><path class="ar" d="M1307 540l2 3 1 5s0 4-2 0a14 14 0 01-1-2l-1-2a3 3 0 010-2l1-2z"/><path class="ak" d="M1295 541v5c0 1-2 1-2-1l1-2s0-5 1-4v2zm0 0v-1c-1-2-1 4-1 4a2 2 0 000 2l1-5z"/><path class="aq" d="M1295 541c1 1-1 3-1 4s-1 3 0 0v-2a25 25 0 000-3c0-2 2-1 1 0v1z"/><path class="ak" d="M1280 517v4c0 2-2 2-2-1 1 0 1 1 1-1 0 0 0-5 1-4v1a1 1 0 010 1zm0 0v-2c-1-2-1 5-1 5a2 2 0 000 2v-1c0-2 2-3 1-4z"/><path class="aq" d="M1280 517c1 1-1 3-1 4s-1 2 0 0v-2-3c0-2 2-1 1 0a3 3 0 000 1z"/><path class="an" d="M1295 515a43 43 0 00-5 0c1 1 3 1 4 4 1 1 1-2 1-3v-1zm-1 4zm1-4v3l-1 1-4-4h5z"/><path class="ao" d="M1295 515h-5c1 0 4 2 4 4l1-1v-3z"/><path class="an" d="M1294 575v3l-1 2a9 9 0 000 2c0 2-4 0-4 0 0-2 2-1 4-4l1-3zm0 0l-2 5-2 2h3a9 9 0 010-2l1-2v-3zm-4 7"/><path class="ao" d="M1294 575v3l-1 2a6 6 0 000 2h-3c-2 0 2-2 2-3a10 10 0 001-3l1-1z"/><path class="an" d="M1296 577l-2 4v2l1-2c2-1 3-1 1-3zm0 0a3 3 0 010 1c1 1 2 2 0 3l-2 2v-2c-1-1 1-3 2-4z"/><path class="ao" d="M1296 577l-2 3c0 2 1 1-1 3l2-1c0-1 3-2 2-3l-1-2z"/><path class="ak" d="M1309 552h-3l3 2a3 3 0 000 1v-3zm-3 0h3v2c1 2-1 0-1 0l-3-2h4z"/><path class="aq" d="M1309 552h-3c-2 0 2 2 2 2 1 0 1 2 1 0v-2z"/><path class="ak" d="M1309 537h-3l3 2a2 2 0 000 1v-3zm-3 0h3l1 2c0 2-2 0-2 0l-2-2h3z"/><path class="aq" d="M1309 537h-2c-3 0 1 2 2 2 0 0 1 2 1 0l-1-2z"/><path class="an" d="M1297 551c-1 1-2-2-3 1-1 2 3 0 3 0a4 4 0 000-1zm0 1v-1a1 1 0 011 0l-3 2c-1 1-2 0-2-1 2-3 3-1 4-1z"/><path class="ao" d="M1297 551c-1 1-2-2-3 1-1 1 0 2 1 1l2-1v-1z"/><path class="ak" d="M1293 598l4 3c1 1 1 1-1 3l-1 1-3-3 1-2v-2zm0 0v2l-1 2 3 2 1-1c2-1 2-1 1-2l-4-3z"/><path class="aq" d="M1293 598l4 3c1 1 0 1-1 3h-1l-2-2v-2-2z"/><path class="ak" d="M1280 580c-2 3-5 1-2 3 1 1 1 4 2 2v-3c2-2 0-2 0-2zm0 0s2 0 1 2l-1 4c-1 2-1-2-2-3-3-2 0-1 2-3z"/><path class="aq" d="M1280 580c-1 2-5 1-2 3 1 1 0 4 2 3 1-1-1-2 1-4 1-2-1-2-1-2z"/><path class="ak" d="M1280 599v3c-1 5-3 5-2 3v-4c1-2 0-3 2-2zm0 0h-1v4l-1 3a18 18 0 001-4l1-3z"/><path class="aq" d="M1280 599v3s-1 5-2 4a7 7 0 000-3l1-4h1z"/><path class="an" d="M1280 638v3l-1 1a10 10 0 000 3l-4-1c0-1 3-1 4-4l1-2zm0 0l-2 4-2 2 3 1a9 9 0 010-3l1-1v-3zm-4 6"/><path class="ao" d="M1280 638v2l-1 2v2h-3c-2 0 2-1 2-2a10 10 0 001-4h1z"/><path class="an" d="M1296 662h-2l-1-3s0-8 1-6l3 7a7 7 0 01-1 2zm0 0c2-3 0-5-1-8-2-3-2 2-2 4l1 3 2 1z"/><path class="ao" d="M1296 662h-2c-2-3-1-3-1-6 0 0 0-5 2-2 0 2 3 6 1 8z"/><path class="an" d="M1279 653l1 7c1 4-2 0-2-2l1-5zm0 0c-1 5-1 5 1 8a5 5 0 000-1l-1-7z"/><path class="aq" d="M1279 653l1 7v2c-3-3-2-4-2-9h1z"/><path class="an" d="M1309 657v7c0 4-2-1-2-3l1-5 1 1zm0 0h-1c-1 4-2 4 1 8a4 4 0 000-1v-7z"/><path class="aq" d="M1309 657v8c-3-4-1-4-1-8h1z"/><path class="an" d="M1293 681v-8c-1-4 2 1 2 3l-2 5zm0 0c1-5 2-5 0-9a4 4 0 000 1v8z"/><path class="aq" d="M1293 681v-7-2c3 4 1 5 0 9z"/><path class="ak" d="M1279 532v14c1 2 4-2 4-5v-3c0-7-1-4-3-7l-1 1zm0 0l1-1c2 3 3 0 3 7v3c0 4-3 8-4 5v-14z"/><path class="ar" d="M1279 532c-1 7-1 18 2 14l2-8c0-7-1-4-3-7l-1 1z"/><path class="as" d="M1280 547l1-1 2-8c0-7-1-4-3-6l1 7c-4 7 1 1-1 6a4 4 0 000 2z"/><path class="at" d="M1295 632l1 3-2 4c-1 2-1 2-1 0a38 38 0 010-5l1-2a1 1 0 011 0zm0 0c-2 0-2 2-2 2l1 5c0-1 2-3 1-4v-3z"/><path class="ar" d="M1295 632v3c1 1-1 3-1 4 0 0-1 2-1-1a10 10 0 010-2v-2a2 2 0 010-1l2-1z"/><path class="at" d="M1299 634l-2-1c-2 0 0 1 0 2l-1 1 2-1h1a2 2 0 001-1h-1zm0 0a1 1 0 001 0l-1 1a1 1 0 01-1 0l-1 1c-2 1-1-1-1-1 0-1-1-3 1-2l2 1z"/><path class="ar" d="M1299 634l-2-1c-2-1-1 2-1 2v1l2-1h1l1-1a1 1 0 01-1 0z"/><path class="at" d="M1308 633l-1 3c-1 1 1 2 1 4s1 2 1 0a42 42 0 000-5l-1-3a1 1 0 000 1zm0 0l1 2v6a6 6 0 01-1-1l-1-4 1-3z"/><path class="ar" d="M1308 633l-1 3c-1 1 1 3 1 4 0 0 1 3 1-1a10 10 0 000-2v-2a3 3 0 000-1l-1-1z"/><path class="an" d="M1293 631a20 20 0 001-3l-1-3a6 6 0 00-1 3l1 3zm0 0l-1-3a6 6 0 011-3l1 3a9 9 0 01-1 3z"/><path class="ao" d="M1293 631a18 18 0 001-2 3 3 0 000-1 15 15 0 00-1-3l-1 1a4 4 0 000 2l1 3z"/><path class="an" d="M1284 641a25 25 0 00-2-3l-2 5a3 3 0 000 1l4-3zm0 0c1 1-7 6-4 2 1-3 1-8 4-2z"/><path class="aq" d="M1284 641l-2-3-1 2c0 3-3 4 0 4l3-3z"/><path class="at" d="M1308 563c0-6 1-9-6-10-2-1-8-1-7 4v13c0 7 2 9 9 9 4-1 4-4 4-7a30 30 0 000-9zm0 0v9c0 3 0 7-3 7-8 1-10-2-10-9v-13c-2-5 4-5 7-4 7 1 7 4 6 10z"/><path class="ar" d="M1308 563v-7c-2-4-16-5-13 1v10c1 2-3 12 9 12 2 0 4 0 4-4v-12z"/><path class="as" d="M1308 563a12 12 0 010-1c-5-2-1-3 0-3a12 12 0 000-3 3 3 0 00-1-2c-5 0-12 0-10 3 2 2-1 9 1 8 7 0 10 2 11 3a18 18 0 00-1-5zm-8 16c0-1 1-2-3-5-3-2-1-5 1-4l2 1c-5-4 0-5 1-4 1 0 4-1 7 1v7c-1 4-2 4-4 4a14 14 0 01-4 0z"/><path class="au" d="M1307 556l1 3h-1c-2 0-2 1-2 2a4 4 0 002 2c-2 0-3-2-3-3 0-2 2-2 3-2a6 6 0 010-2zm1 3z"/><path class="at" d="M1324 521c0-6 1-10-6-11-3 0-9 0-7 4v13c0 7 2 10 9 9 4 0 3-3 4-7a31 31 0 000-8zm0 0v8c0 4 0 7-4 8-7 0-10-2-9-10l-1-4v-8c-1-5 5-5 8-5 7 1 7 5 6 11z"/><path class="ar" d="M1324 521v-8c-2-4-16-4-13 2 1 3-2 6 0 10 1 1-3 12 9 11 2 0 3 0 4-4v-11z"/><path class="as" d="M1324 521a12 12 0 010-1c-5-3-2-3 0-3a12 12 0 000-4 3 3 0 00-1-1c-5-1-13 0-10 3 2 2-2 8 1 8 6 0 9 2 10 3a18 18 0 000-5zm-8 15c-1-1 1-2-3-4-3-2-1-6 1-4 1 0 7 4 2 0-5-3 0-4 1-3 1 0 4-1 7 1v6c-1 4-2 4-5 4a14 14 0 01-3 0z"/><path class="au" d="M1323 514l1 3h-2l-1 2a5 5 0 001 2l-2-4 3-1a6 6 0 010-2zm0 3z"/><path class="at" d="M1294 590c1-8 1-9 7-10 4 0 5 0 7 4v9l-7 7c-2 2-5 0-6-3l-1-7zm0 0a40 40 0 001 6c0 5 4 6 6 5l7-7v-10c-2-4-3-5-7-4-6 0-7 2-7 10z"/><path class="ar" d="M1294 590c0-5 0-6 2-9 1-1 9-2 10 0 3 6 2 4 2 11 0 4-5 5-7 8h-4c-3-1-3-6-3-10z"/><path class="as" d="M1298 580c3 0 7-1 8 1 3 6 2 4 2 11a3 3 0 010 2c-2 1-4 0-4 2l1 1a17 17 0 00-4 3c-7-3-2-6-3-9-2-3 1-4 0-7v-4zm8 5c0-4-5-2-2-1v3l2-2z"/><path class="au" d="M1307 587c1 1 2 4 1 6s-2 0-3 1l-1 2c0-2 0-4 2-4s1-4 1-5z"/><path class="at" d="M1266 669c0-8 0-9 6-10 4 0 5 0 7 5v9l-7 7c-1 1-5 0-6-3v-8zm0 0a41 41 0 000 6c0 5 4 7 6 5l7-7v-10c-2-4-3-4-7-4-6 1-7 2-6 10z"/><path class="ar" d="M1266 669c0-5-1-6 1-9 1-1 9-2 10 0 3 6 2 5 2 12 1 3-5 5-7 8h-4c-3-2-2-7-2-11z"/><path class="as" d="M1269 660h8c3 6 2 5 2 12a3 3 0 010 1c-2 1-4 0-3 3a17 17 0 00-4 4c-7-4-2-6-3-9v-11zm8 5c0-5-5-3-2-1v2l2-1z"/><path class="au" d="M1278 666c1 1 2 4 1 6s-2 0-3 1l-1 2c0-2 0-3 2-3s1-5 1-6z"/><path class="at" d="M1308 619c0-6 2-14-6-15-4-1-7 0-7 4 1 5-2 21 1 24 0 1 12 6 12-3v-10zm0 0a78 78 0 010 10c0 8-11 5-12 3-3-2 0-19-1-24-1-6 7-6 11-3s2 10 2 14z"/><path class="ar" d="M1308 619s1-10-1-12c-3-6-13-4-12 1s-2 22 1 24 12 4 12-3v-10z"/><path class="as" d="M1303 608c2 5-1 11 0 3 0 0-2-6 0-4v1zm5 11s1-10-1-12a8 8 0 00-7-4 3 3 0 00-2 4v5c0 6 2 8 4 12 2 3 0 9 0 7 0-4 0-9-5-9v11c4 2 11 3 11-4v-10z"/><path class="au" d="M1300 614l2 8c2 2 3 5 2 8a5 5 0 00-1 1v-2c1-1 0-4-1-6-2-4-3-4-2-9z"/><path class="ak" d="M1321 604c2 4 1 6 2 10 0 3 1 15-1 16l-8 1c-4 1-3-3-4-7l-1-12c1-5 0-11 7-11 3 0 4 0 5 3zm0 0c-1-4-2-3-7-3-5 1-4 6-4 11l1 12c0 4-1 7 3 6h8c2-1 1-12 0-14l-1-12z"/><path class="aq" d="M1321 604l1 9c1 2 2 15 0 17l-8 1c-2 0-3 0-3-2l-2-17c1-3-1-10 5-11h3c3 0 3 0 4 3z"/><path class="am" d="M1321 604l1 9c1 2 2 15 0 17l-8 1a2 2 0 01-2 0 40 40 0 01-1-7 4 4 0 010-2l1-1c0-1 2-2 3-1l1 2c1 2 0 0 0 0v3l1 2 1 1v-1a7 7 0 01-1-3v-5l-2-3-1-8 1-7h2c3 0 3 0 4 3z"/><path class="av" d="M1318 602c3 1 2 4 3 7 1 4 2 4 2 9a17 17 0 01-2 7v1l1-3c1-4 0-8-1-12-2-4 0-6-3-9z"/><path class="ak" d="M1276 564c-2 1-9 3-10-1 0-5-1-27 5-27 1 0 6-1 6 1 2 2 1 23 0 26a9 9 0 01-1 1zm0 0a6 6 0 001 0c1-4 2-25 1-27s-6-2-7-2c-6 1-6 22-5 28 1 4 8 2 10 1z"/><path class="ar" d="M1276 564c-2 1-9 3-10-1 0-5-1-27 5-27 8 0 7-2 7 13l-1 15a6 6 0 01-1 0z"/><path class="as" d="M1276 564l-2 1a1 1 0 010-1c0-4-5 0-1-6-3-6-1-6 1-11 1-2-6-5-3 1 2 2 0 1 0 4l-2-4c-1-1-2-2-3-1 0-6 2-11 5-11 6 0 7-1 7 5v2a2 2 0 000 1v5l-1 15a8 8 0 01-1 0zm-5 1c1-1 2-2 1-3-3-3-1-5-2-4-5 1-3 1-4-2v7c0 2 2 2 5 2z"/><path class="au" d="M1276 537c4 4 1 3 1 5l1 4a58 58 0 01-1 11v-13a16 16 0 01-1-2c0-3 2-1 0-5z"/><path class="an" d="M1266 581c3 1 11 1 13-2v-6c0-3 1-5-2-6-8-2-13 3-12 11zm0 0l-1-3c-2-8 4-14 12-11 3 1 3 3 2 6s2 5-1 7-8 2-12 1z"/><path class="ao" d="M1266 581c3 1 16 1 13-6-1-3 4-7-5-8-8-2-11 7-8 14z"/><path class="ap" d="M1275 581c3-1 6-2 4-6-1-3 3-7-3-8 0 2 2 3-5 3-3 0 0-2 1-4a7 7 0 00-4 2 4 4 0 002 5c3 1 1 7 5 8z"/><path class="aw" d="M1270 572a10 10 0 013 5l2 3a1 1 0 01-1 0c-2-1-2-3-3-5l-1-3z"/><path class="an" d="M1267 610c2 1 10 4 10-1l1-14v-7c-1-4 0-4-5-5l-6 1v7c-1 4-1 7 1 11l-1 8zm0 0v-8l-1-11 1-7 8-1c3 1 3 2 3 5v7l-1 14c0 5-8 2-10 1z"/><path class="ao" d="M1267 610c3 1 10 3 10-1l1-14v-7c0-2 1-5-5-5-5 0-7-1-7 5 1 3-1 10 1 14v8z"/><path class="ap" d="M1272 612c2 0 5 0 5-3l1-14v-7c0-2 1-5-5-5h-3l-1 3c3 3 0 12 1 13 2 1 1 2 3 0 2-4 0-2 3-4 4-2-5 8-4 9 3 4 0 6 0 8z"/><path class="aw" d="M1276 600l-3 4c0 1 2 5 0 5 1-2-1-3-1-5l4-4z"/><path class="an" d="M1275 645l-8 2c0 1-2 9 0 10s8 2 10 0c1-1 4-13-2-12zm0 0c5-2 4 8 2 12-1 3-8 1-10 1-3-1-1-8 0-11 0-2 6-1 8-2z"/><path class="ao" d="M1275 645l-6 1c0 1-2 0-2 2-1 3-2 4-1 9l6 1c1 0 5 0 5-2 3-8 1-12-2-11z"/><path class="ap" d="M1269 657h3c1 1 4 1 5-1 2-7 1-11-1-11-2 1-3 2-5 1-2 0-4 7-2 8 1 0 2 1 0 1v2z"/><path class="aw" d="M1276 649c1-1 1 3 1 4a8 8 0 01-2 4l1-3v-5z"/><path class="ak" d="M1292 663c-2 0-10 1-10-2l-2-7v-7c0-2 2-4 3-5 6-6 10-2 9 5v12a12 12 0 001 4 3 3 0 00-1 0zm0 0h1a15 15 0 01-1-4c-1-6 0-7 1-12 0-8-4-11-10-5-2 1-3 3-3 5v7c0 4 1 4 2 7 0 3 8 2 10 2z"/><path class="aq" d="M1292 663c-2 0-10 1-10-2 0-2-2-2-2-9s-1-5 3-10 9-4 10 2c0 4-2 8-1 14l1 5z"/><path class="am" d="M1292 663h-8l1-1-1-6c-1-3 1-7-1-9-5-4 7-7 8-5 3 3 1 4 2 6-1 2-2 6-1 10l1 5z"/><path class="av" d="M1290 642c3 3 1 2 1 4l1 3a47 47 0 01-1 10v-11a13 13 0 01-1-2c0-2 2 0 0-4z"/><path class="an" d="M1323 576c-2-3-1-2-1-6 0-2 1-7-1-8l-3-1c-1-1-6-1-7 1-3 5-1 7-1 12a70 70 0 010 11l1 8 11-1c2-1 1-6 1-8a53 53 0 000-8zm0 0a41 41 0 010 8c0 2 1 7-1 8l-11 1c-2 0-2-6-1-8a75 75 0 000-11c0-5-2-7 0-12 1-2 7-2 8-1l3 1c2 1 1 6 1 8l1 6z"/><path class="ao" d="M1323 576l-1-4v-4c0-3 1-6-3-7l-5-1-4 3c-2 5 0 7 0 11v11a22 22 0 000 6c0 3 3 1 5 1h3c5 0 5 0 5-6v-10z"/><path class="ap" d="M1322 570a15 15 0 000-2c0-3 1-6-3-7l-4 3c0 4-2 6 0 9l3 3v6c-2 2 1 7 1 10 4 0 4-1 4-6v-5c-2-3-3-5-1-10v-1zm-12 20a6 6 0 010-2c4-6 1-10 1-16 0-1 1-9 3-8 1 3-2 3-1 9 1 5 3 0 3 10 0 2 2 7 1 9h-2c-2 0-4 2-5-1v-1z"/><path class="aw" d="M1320 591c2 0 3-1 2-3l-1-8a17 17 0 010-6l1 6 1 6c0 2 1 7-3 5z"/><path class="an" d="M1297 520v6c0 2-1 7 1 8l3 2c1 1 7 0 8-1 2-5 0-8 0-13a68 68 0 010-11c0-1 1-7-1-7h-10c-2 1-2 6-2 8a53 53 0 001 8zm0 0a41 41 0 01-1-8c0-2-1-7 2-8l10-1c2 1 2 7 2 8a74 74 0 00-1 11c1 5 2 8 0 13-1 2-7 2-8 1l-3-1c-2-2-1-7-1-9v-6z"/><path class="ao" d="M1297 520v8c0 3-1 7 3 7 2 0 1 2 5 1 3 0 3 0 4-3 2-4 0-7 0-11l1-11a22 22 0 00-1-6c0-2-3-1-4-1h-3c-5 0-6 0-6 6l1 10z"/><path class="ap" d="M1297 526a15 15 0 000 2c0 3-1 7 3 7 2 0 4-2 4-3 0-3 2-6 0-9l-2-2v-6c1-3-2-8-2-11-4 0-4 1-4 6v6c2 3 3 4 1 10zm12-19a6 6 0 010 2c-4 6-1 9-1 15 1 2-1 9-3 9-1-4 2-4 1-10-1-5-3 0-3-10 0-2-2-6-1-9h2c2 0 5-1 5 1v2z"/><path class="aw" d="M1299 505c-2 1-2 1-2 4l1 8a17 17 0 010 5v-5l-2-7c-1-3 0-6 3-5z"/><path class="ak" d="M1294 567l-1-10c0-4-2-6-7-7-3 0-7 1-6 4l-1 3c-1 5-1 6 1 11 2 3 0 11 2 11 12 5 10-4 12-12zm0 0c-1 8 0 17-12 13-2-1 0-9-2-12-3-5-2-6-1-11v-3c0-4 4-4 8-4 5 1 7 2 7 7v10z"/><path class="aq" d="M1294 567c-2-8 2-14-4-16-4-1-12-2-10 5 0 1-4 7 0 12 2 2 0 11 2 11 12 5 11-5 12-11a4 4 0 000-1z"/><path class="am" d="M1294 566v-1a29 29 0 01-8-4l-3-2 3 2a19 19 0 008 3c-1-7 1-11-4-13-11-3-14 4-5 12 3 2 7 2 3 4l-7 4v3c1-3 8 0 11-1 2-1 0-6 2-7zm-16-3c3 0 8 3 2 4a9 9 0 01-2-4zm14 15c-5 4-10 1-8-1 3-4 8-3 9-2a10 10 0 01-1 3z"/><path class="av" d="M1291 552c2-1 2 5 2 5a23 23 0 000 4c1 0 2 3 1 4l-2-4v-7l-1-2z"/><path class="aq" d="M1281 551l8 8c2 3 3 2 5 3a6 6 0 01-5-2l-2-2c-3-1-3 2-7 0h6c-3-3-4 0-6-2 3 2 4-1 6 2l3 1-8-8zm13 11z"/><path class="ak" d="M1273 644h-6c-2-3-1-13-2-17 0-4-2-11 3-11 4-1 3-1 6 4 1 2 4 6 4 9 1 3 1 11-2 14a5 5 0 01-3 1zm0 0c2 0 3 0 4-2 2-3 2-12 1-15l-7-12h-4c-5 2-3 9-2 12 1 4-1 14 2 17h6z"/><path class="aq" d="M1273 644h-6c-2-2-2-9-2-11 0-5 1-4-1-9 0-4 0-9 4-9 3 0 3-1 5 4 1 2 6 7 6 10 0 4 1 15-6 15z"/><path class="am" d="M1271 616a14 14 0 012 3c1 2 6 7 6 10s1 12-4 14c-3 1-4 1-5-6v-9l1-12z"/><path class="av" d="M1274 622c3 3 6 14 3 18h-1l1-1c2-4-1-13-3-17z"/><path class="ak" d="M1276 624l-5 4c-2 3-9 4-3 2l4-4c4-2 3-1-2-3l5 1h1zM1310 632h9c5 1 3 5 3 9 1 2 2 17 0 18l-7 1c-2 1-5 1-5-2v-13-13zm0 0v26c0 3 3 2 5 2l7-1v-17c0-6 2-10-6-10h-6z"/><path class="aq" d="M1310 632h9c4 1 3 3 3 7l1 12-1 8-7 1c-1 1-5 1-5-2a175 175 0 000-18v-8z"/><path class="am" d="M1322 638v1l1 12-1 8a8 8 0 01-1 0l-3-1c-3 2-2 2-5 1-4-2-2-4 0-5 4 0 0-4-2-6v-13c1-2 3-2 5-2 4-1 4 2 5 2l1 3zm-4 1a8 8 0 011 2h1a1 1 0 011-1c0-1-3-7-3-1zm-5 14c0-1 1-3-1-3a2 2 0 001 3s0 1 0 0z"/><path class="av" d="M1322 645l-1 12v-2c-1-4 0-6 1-10z"/><path class="aq" d="M1314 632a6 6 0 002 2l1 5v-1l-1-3-2-3c1 0 0 0 0 0z"/><path class="ak" d="M1265 507h9c5 0 3 4 4 8v18l-7 2c-3 0-6 0-6-3v-13-12zm0 0v25c0 3 3 3 5 2l7-1v-17c0-6 2-10-5-10l-7 1z"/><path class="aq" d="M1265 507h9c4 1 3 2 3 7l1 11c0 2 1 8-1 8l-7 1c-1 1-5 1-5-2a175 175 0 000-17v-8z"/><path class="am" d="M1277 513v1l1 11c0 2 1 8-1 8a8 8 0 01-1 1l-3-2c-2 2-2 3-5 1-4-1-2-4 0-4 4-1 0-4-2-7v-12c1-3 3-3 5-3 4 0 4 2 5 2l1 4zm-4 0a8 8 0 011 2c1 2 1 1 1 0a1 1 0 011-1s-3-6-2-1zm-4 15c-1-1 0-4-2-3a2 2 0 001 3h1z"/><path class="av" d="M1277 519l-1 12v-1c-1-4 0-7 1-11z"/><path class="aq" d="M1269 507a6 6 0 002 1l1 5-1-4-2-2c1 0 0 0 0 0zM1276 624l-5 4c-2 3-9 4-3 2l4-4c4-2 3-1-2-3l5 1 1-1v1z"/><path class="h" d="M431 668c0 4 3 8 7 9-1 4-2 8-1 11s4 7 8 6c-3 7 2 14 8 16 1 3 1 7 3 9s6 3 9 1a10 10 0 0012 8c1 2 2 5 4 6s6 2 7 0a7 7 0 007 6 23 23 0 014 0c4 0 7 4 11 4 5 1 5-3 10-5 3-1 7 1 10 2s9-2 8-5c3 2 7 4 11 3s8-4 7-7c3 3 10-1 10-5a9 9 0 0014-10 7 7 0 108-12 7 7 0 007-13c3 0 5-1 6-3s1-6-2-7c8-1 12-11 8-18a8 8 0 103-15 9 9 0 00-4-17c2-5-2-11-7-10a7 7 0 00-6-12c4-5-1-15-7-14 1-3-1-7-4-8l-9-2c-1-3-2-7-4-9s-7-3-9 0c-2-7-12-10-18-7-2-5-12-5-15 1-6-7-19-6-24 2-5-6-15-3-17 4-6-4-16 0-18 8-5-3-13 1-13 7a13 13 0 00-8 16c-3 2-4 7-5 11a4 4 0 01-2 3c-2 1-5 4-6 10l2 9s-9 5-2 15c-1 3-3 7-3 12z"/><path class="f" d="M593 601c-1-3-4-6-7-5 1-3-1-7-4-8l-9-2c-1-3-2-7-4-9s-7-3-9 0c-2-7-12-10-18-7-3-5-13-5-15 1-6-7-19-6-24 2-5-6-15-3-17 4-6-4-16 0-18 8-5-3-13 1-13 7a13 13 0 00-8 16c-3 2-4 7-5 11a4 4 0 01-2 3c-2 1-5 4-6 10l2 9s-9 5-2 15c-1 3-3 7-3 12s3 8 7 9c-1 4-2 7-1 11s4 7 8 6c-3 7 2 14 8 16 1 3 1 7 3 9s7 3 9 1a10 10 0 0012 8c1 2 2 5 4 6s6 2 7 0a7 7 0 007 6 23 23 0 014 0c4 0 7 4 11 4 5 1 5-4 10-5 4-1 7 1 11 2s8-2 7-5c3 2 7 4 11 3a23 23 0 001-4 4 4 0 000-2l-4-2-6-6c-4-2-8-1-12-1s-9-3-8-7c1-5 9-3 13-6a4 4 0 00-4-4c1-3 4-4 7-5s6-4 4-7c-2-2-7 0-9-2s0-6 3-7h9c3 0 6-3 5-6-1-4-9-4-10-8 0-2 2-4 1-6s-4-2-6-1l-6 4a7 7 0 01-5-12l8-1c3-1 5-4 3-6l-6-2a26 26 0 0114-12c-3-1-3-6 0-9s6-2 9-3c8 0 22-1 28-6-7-8 6-14 13-17z"/><path class="g" d="M474 698l-6-6-9-15c-1-3-1-7 2-7-2-3-3-8 0-9a15 15 0 01-10-10c-1-3-1-7 1-9l3-3a8 8 0 002-8l4-2-1-4a4 4 0 000-6l2-4c2-7 11-10 17-7 3-3-1-10 2-13 2-2 7 0 10 0 4 0 7-3 11-4 5-2 10 0 15 2 4 1 9 4 11 8s2 10-2 13c-2 2-5 2-8 2l-16 1a10 10 0 00-5 1 6 6 0 00-2 8 8 8 0 007 4c-1 4-4 6-7 6l-10 3c-3 2-5 5-3 8a8 8 0 016 1 22 22 0 00-6 12 103 103 0 0020 12l-5 4c-2 1-4 2-4 4s2 4 3 3l-1 8-5 5c-5 4-11 6-16 2z"/><path class="g" d="M571 598l-2-1-4-4-5-2c-1-1-4-2-4-4l1-3a3 3 0 00-2-2 14 14 0 00-10 1h-4l-1-3c-1-2-3-4-5-4a18 18 0 00-7 0c-4 1-10 0-11 5a1 1 0 001 2h1a5 5 0 012 1c3 1 6 3 6 6a7 7 0 000 2l4 1h4c3 1 3 5 2 7s-4 5-4 8a25 25 0 006 2l-3 4c-1 1-2 3-1 4 1 2 5 1 6 0s4-4 7-4a10 10 0 013 1 14 14 0 007 2 4 4 0 003-1c2-3-1-8 2-9h4a5 5 0 004-9zM501 661c-2 1-2 3-1 5a8 8 0 002 1c3 1 5 4 7 7v4l-3 1a5 5 0 00-2 7 27 27 0 012 3v6l-4 7a11 11 0 01-2 4l-6 2c-4 1-9 2-13 0a26 26 0 00-5-1l-4 2c-1 2 1 4 3 5h7a4 4 0 012 1l1 6a7 7 0 0013 4 22 22 0 005 6c2 2 5 3 7 2s4-4 3-7l-4-3a7 7 0 010-10 7 7 0 013-2c2 0 4 0 5-2a4 4 0 000-2 17 17 0 00-2-7c3-2 7-4 9-7s-1-8-4-9h-4v-4l1-3c1-4-4-5-6-9l-1-5c-1-4-6-4-9-2zM441 667a3 3 0 000 1l3 1c1 0 3 3 3 5a31 31 0 010 6 16 16 0 001 8c1 3 3 5 6 5l1 5a7 7 0 002 4 3 3 0 004-1c1-1 0-3-1-5l-2-4-1-6c0-3-2-5-3-7s-1-6 0-8a4 4 0 001-1 3 3 0 00-1-2c-2-6-11-10-13-1zM458 597a6 6 0 003 1v3l-3 1a6 6 0 00-3 3l-2 6a4 4 0 000 3h4a7 7 0 002-4 8 8 0 011-5c3-3 9 0 12-4v-5c0-2 2-4 4-4 2 1 5-1 7-2 1-1 3-3 2-5a3 3 0 00-1-1c-2-2-5 0-8 1s-4 4-7 4c-5 1-10 2-11 8z"/></g></svg>