<svg xmlns="http://www.w3.org/2000/svg" xmlns:xlink="http://www.w3.org/1999/xlink" viewBox="0 0 1501 1001"><defs><radialGradient id="b" cx="1032.1" cy="1646.8" r="51.8" gradientTransform="matrix(0 1 1 0 -548 -727)" gradientUnits="userSpaceOnUse"><stop offset="0" stop-color="#c0a373"/><stop offset="1" stop-color="#fff" stop-opacity="0"/></radialGradient><linearGradient id="a" x1="1396.1" y1="1190.2" x2="1396.1" y2="1095.5" gradientTransform="matrix(1 0 0 -1 -146 1444)" gradientUnits="userSpaceOnUse"><stop offset="0" stop-color="#a0edf0"/><stop offset="1" stop-color="#45dbe2"/></linearGradient><style>.e{isolation:isolate}.b{fill:#70b344;stroke:#5f732e}.ax,.ay,.b,.bb,.bc,.be,.x{stroke-miterlimit:10}.d{fill:#ddc02c}.e{opacity:.25}.aa,.f{fill:#7ebb15}.g{fill:#94d31a}.h{fill:#78a015}.i{fill:#897d6f}.j{fill:#635a52}.l{fill:#91887b}.p{fill:#8ab550}.q{fill:#97c261}.r{fill:#a9d171}.s{fill:#b3db7b}.t{fill:#dcf5f5}.u{fill:#f2ffff}.v{fill:#fff}.w{fill:#fddfb3}.x{fill:#1d150c}.ax,.ay,.bb,.bc,.be,.x{stroke:#1d150c}.y{fill:#81a653}.ad{mix-blend-mode:multiply}.aa{mix-blend-mode:screen}.ab{fill:#bdbdbd}.ac{fill:#d9d9d9}.ad{fill:#cfcfcf}.ae{fill:#cbcbcb}.ag{fill:#c6c6c6}.ah{fill:#e8e8e8}.aj{fill:#5c4328}.aj,.ak,.al,.am,.an,.ao,.ap,.aq,.ar,.as,.at,.au,.av,.aw,.bb,.bc,.be{fill-rule:evenodd}.ak{fill:#544730}.al{fill:#877657}.am{fill:#ae9c87}.an{fill:#68543c}.ao{fill:#9d8264}.ap{fill:#b49871}.aq{fill:#8f7e5f}.ar{fill:#857c68}.as{fill:#a59b84}.at{fill:#67604f}.au{fill:#bdb29a}.av{fill:#c1b09a}.aw{fill:#cdb186}.ax,.ay{fill:#3f2b0f}.ay{stroke-width:1.14px}.bb,.bc{fill:#571c10}.bc{stroke-width:1.04px}.be{fill:#c0a373}</style></defs><g style="isolation:isolate"><path class="b" d="M1001 501h250v250h-250zM1251 251h250v250h-250zM1001 251h250v250h-250zM1001 1h250v250h-250zM1251 1h250v250h-250zM751 251h250v250H751zM751 1h250v250H751zM751 501h250v250H751zM501 251h250v250H501zM251 251h250v250H251zM501 501h250v250H501zM251 501h250v250H251zM751 751h250v250H751zM251 751h250v250H251zM1001 751h250v250h-250zM501 1h250v250H501zM1251 501h250v250h-250zM1251 751h250v250h-250zM501 751h250v250H501zM251 1h250v250H251zM1 1h250v250H1zM1 751h250v250H1zM1 251h250v250H1zM1 501h250v250H1z"/><path d="M72 497c2-4 9-3 20-3h28l24 3h43c7 0 14 2 21 1h7c2 1 2 6 2 7 0 15 3 30 1 45-1 9-3 32-1 53 1 11-2 21-1 32 0 1 1 4-1 6-3 4-10 1-15 0l-42-2c-18 0-18 2-30 1-15-2-15-5-26-4-16 0-24 8-29 3-3-2-3-6-2-11l1-43c2-19 0-14 2-39 1-13 2-25 0-32l-2-13v-4z" fill="#ffe161"/><path class="d" d="M143 641a2 2 0 01-2-2h-1v-3-4a3 3 0 010-1l-1-5 2 1a6 6 0 00-1-2 2 2 0 002 1 2 2 0 001-1h-4a4 4 0 011 0v-3-2l1-3a31 31 0 00-1-3v-1a2 2 0 011-1l-1-4v-3a3 3 0 011-2 1 1 0 010-1 42 42 0 01-1-7l-1-4-1-6 3 4v-3a2 2 0 010-1 5 5 0 01-1 0v-1-6l1-2v-1-1a2 2 0 010-1v-2-5a1 1 0 010-2 2 2 0 011 0l-1-1v-2-1a1 1 0 010-2v-2l-1-1a1 1 0 011-2 33 33 0 000-3 2 2 0 010-1 11 11 0 00-2-5l3-1h-1v-6l1-4a22 22 0 01-1-3v-1-2l-1-3a3 3 0 011-3v-1l-6 4 5-6 1-3h-1v-3a20 20 0 011-4v-1a28 28 0 000-4 56 56 0 01-1-6h1a16 16 0 00-1-4l3-1a19 19 0 012 5l-1 4v1a30 30 0 011 4 1 1 0 010 1 13 13 0 00-1 4h1v1a14 14 0 00-1 3 7 7 0 010 3 14 14 0 011 3l1 3-1 1h-1v3h1v1a15 15 0 001 4l1 3h-2a8 8 0 000 1h1v1a2 2 0 01-2 1 10 10 0 002 4l-1 1v4a29 29 0 010 6 14 14 0 000 2h-1a29 29 0 011 6v1l1 3h-1v7a2 2 0 010 1l-1 5v5l1 2v5l-1 2a2 2 0 01-1 0l1 2a61 61 0 001 6 2 2 0 010 1l1 4-1-1a2 2 0 01-1 1v8l1 2v4h-1a5 5 0 011 1 2 2 0 01-1 2v1l1 4a17 17 0 010 5h-1v6a2 2 0 01-1 2zm0-37h-1a2 2 0 001 1 2 2 0 000-1zm-3 0h1a2 2 0 00-1 0zm4-75a1 1 0 001 0zm-3-17z"/><path class="d" d="M130 641a21 21 0 010-2 2 2 0 011-2v-1-4c-1-3-2-6-1-8a12 12 0 010-4v-2-1-2-3a2 2 0 01-1-2 2 2 0 012-1l-1-6-1-2h1a8 8 0 010-2 3 3 0 010-1 6 6 0 010-1 1 1 0 010-1v-5-1a2 2 0 010-2v-6h1a4 4 0 011-2l-1-3a4 4 0 01-1 0v-1l1-3a2 2 0 011 0v-1l-2-10 1-4-1-5v-4a1 1 0 01-1 0 4 4 0 000-1h1a7 7 0 010-1v-8a2 2 0 010-1v-1a17 17 0 000-3v-1a11 11 0 01-1-5 4 4 0 010-1 2 2 0 011-1v-1a2 2 0 010-1v-2a8 8 0 010-3 2 2 0 011-2l-1-9v-1a2 2 0 011-1l-1-6v-3l3-2v2l2 12v9l4 8-5-5-1-1a31 31 0 000 4l1 2h-1v1a4 4 0 010 1 11 11 0 001 4v7a6 6 0 010 1v8l-1-3v1a4 4 0 011 2h-1a1 1 0 010 1v3l1 3v1a2 2 0 001 1v1a1 1 0 010 1 3 3 0 01-1 0v3c0 1 0 0 0 0v3a18 18 0 001 5l1 11-1-1a7 7 0 010 2l-1 4v-1 13a5 5 0 010 1 6 6 0 000 2 3 3 0 010 1v7l1 2v2a2 2 0 01-1 0v3a22 22 0 010 4l1 6 4 7-5-4 2 6h-2l1 5h-1v1zm1-59h1a2 2 0 00-1 0zm2-1h-1a3 3 0 001 1zm-3-33zM122 639a2 2 0 01-1 0h-1v-1a1 1 0 010-2v-3a3 3 0 010-2l-1-7h1a1 1 0 010-1l-1-3v-2a1 1 0 010-1 15 15 0 011-5v-1a29 29 0 000-4 1 1 0 010-1l1-1-1-3h-1l1-2a31 31 0 000-7 2 2 0 01-1-1v-1-1l-1-5 1-1v1h1v-3l-1-2a16 16 0 00-1-7l2-1a12 12 0 01-1-2l1-3h1a11 11 0 00-1-5 2 2 0 01-1-2v-2a2 2 0 010-1h1l-1-2a2 2 0 011-1v-1-2a5 5 0 010-3v-1l-1-1v-2a4 4 0 010-1 6 6 0 000-3 3 3 0 010-3 7 7 0 001-4 5 5 0 010-2 14 14 0 00-1-2l1-1 1-4a35 35 0 00-3-10l-4-9 5 5a2 2 0 010-1 2 2 0 010-2 27 27 0 010-7l1-2v-7l1 2a3 3 0 011 0l2 1v4l-1 2a24 24 0 000 6v1a4 4 0 011 1 13 13 0 011 4v9h-1v-1l1 3v2l2 3v1h-1l-2-1a5 5 0 011 1v1h-1a2 2 0 010 1 2 2 0 000 1 9 9 0 01-1 5 3 3 0 000 1v1a8 8 0 010 4 2 2 0 000 1v1l1 3 2 7h-1l-1-1 1 3h-1l-1 3a13 13 0 011 8 18 18 0 000 2h-1a15 15 0 001 3h1l-2 1a18 18 0 010 3v1a2 2 0 010 1v2a42 42 0 010 7v1a3 3 0 010 2 3 3 0 010 1 36 36 0 011 3v11a1 1 0 010 1 29 29 0 010 4 3 3 0 010 1l1 1h-1a4 4 0 01-1 1v12l1 6v7zm-3-130h1a2 2 0 00-1 0zm3-14h1a2 2 0 001 0z"/><path class="d" d="M111 638a3 3 0 01-2-2l1-1a3 3 0 011-1v-1a16 16 0 01-1-3 20 20 0 01-1-4v-4a2 2 0 011-2 12 12 0 010-6l-1-3a1 1 0 011-1v-3a3 3 0 010-2 21 21 0 01-1-5v-2l-1-3v-1l1 1-1-1v-1-1h2v-3a2 2 0 01-1-1l1-4a5 5 0 010-3v-1l1-4v-3l-1 1-1-5a4 4 0 010-2l-1-6 2 2h1l-1-2v-5l-1-3v-6-1a5 5 0 01-1-2v-1-2l1-1a8 8 0 000-2l2-1h-1l-1-1 1 1h-1v-1-1a2 2 0 010-2v-2-1a1 1 0 010-1h1v-1l-1-2a2 2 0 011-2v-1-1l1-1a26 26 0 00-1-6l-1-2a2 2 0 011-2 10 10 0 010-1 4 4 0 000-3v-2-1a17 17 0 010-4l-1-1v-1a16 16 0 01-1-3l-1-3h1l3 2a3 3 0 011 1h1a13 13 0 010 1 4 4 0 010 2v2l1 4h1v1a2 2 0 01-1 1 6 6 0 010 4 3 3 0 000 3v1a27 27 0 010 7v1a5 5 0 010 1v2a2 2 0 01-1 1v2a30 30 0 010 3v2l1 3h-1v2l-1 4v1l1 1a19 19 0 011 5l-1 1v2a23 23 0 011 6v1a31 31 0 001 5l1 1h-3v2a40 40 0 012 9v1l1 3-1 1v-1h-1v1a10 10 0 011 1l-1 1a6 6 0 000 2l1 1h-1v2a38 38 0 001 6l2 6-1 1-2-3v1l-1 3a14 14 0 001 4h-1l1 3a17 17 0 010 5l-1 1a12 12 0 001 6v1a2 2 0 01-1 2 20 20 0 001 5 3 3 0 011 1h-1v1a40 40 0 001 4v1h-1a2 2 0 01-2 2zm1-7a3 3 0 001 0 2 2 0 001 0zm-1-48a2 2 0 001 0 2 2 0 001 0zm1-60a3 3 0 011 0 2 2 0 001 0zM100 635l-2 1a3 3 0 011-3 16 16 0 010-3 6 6 0 000-3l3-1a2 2 0 00-2 0 2 2 0 00-1 0 4 4 0 000-1h-1v-1-1l2-6a15 15 0 01-1-2v-1-3a33 33 0 01-1-6h1a5 5 0 000-1 2 2 0 001 1 2 2 0 002-1h-4a11 11 0 000-3l1-3a16 16 0 00-1-4 2 2 0 011-2v-1a12 12 0 01-2-3l3-1a22 22 0 00-1-4 1 1 0 01-1-1 7 7 0 010-1v-2-1a2 2 0 010-1v-4a6 6 0 011-1 2 2 0 000-2v-1-6a4 4 0 010-3 17 17 0 00-1-6 21 21 0 01-1-2l3-1a10 10 0 01-1-2 21 21 0 000-5 1 1 0 010-1l-1 1v-3-1a5 5 0 011-3 15 15 0 010-2 14 14 0 010-3v-1a3 3 0 011-2 21 21 0 000-5 1 1 0 01-1 0l-2-6 2 2a10 10 0 010-4l1-1-1-2a7 7 0 010-3 4 4 0 011-1 32 32 0 010-6v-1l-1-3a49 49 0 010-6h1a7 7 0 000-1l3-1c1 2 0 4-1 4l1 4v8a4 4 0 000 1v2l1 3h-1l1 4-1 1v5a11 11 0 011 4l-1 4v1a2 2 0 010 1 17 17 0 000 4 4 4 0 011 0v1a2 2 0 01-2 2v3a23 23 0 011 6l1 2-1 4v1a32 32 0 010 7v1l-1 5a4 4 0 010 3 5 5 0 000 3 4 4 0 010 5v1a20 20 0 012 5l-1 4a17 17 0 00-1 3 16 16 0 011 4v4l-1 1v1a4 4 0 011 1 13 13 0 010 2 2 2 0 01-1 2l1 4a1 1 0 010 1v2a9 9 0 001 3l2 5-4-3v3a2 2 0 010 1l1 3a8 8 0 010 3 12 12 0 000 3l2 8zm0-67a2 2 0 00-1 1l2-1zm1-75h1zM93 634h-1v1c0 1 1 4-1 5a3 3 0 01-2 0 2 2 0 01-1-1v-1h1a9 9 0 00-1-4l-5-10h1l4 5a2 2 0 011-1v-1-2a14 14 0 00-2-4 1 1 0 010-1h2v-1a2 2 0 00-2 1v-1a7 7 0 011-2h-1l-4 1v-1l6-4a10 10 0 001-3 36 36 0 00-1-5 11 11 0 01-1-2h1a7 7 0 000-1 3 3 0 010-1 12 12 0 000-3v-3l-1-2 1-6h1l-1-2v-3a6 6 0 010-2v-2-2a1 1 0 01-1-1 4 4 0 011-3 2 2 0 010-2 2 2 0 010-1v-5l-1-4a2 2 0 011-1v-1l-1-2a3 3 0 010-2 2 2 0 011-2v-2-5l1-1-1-3a1 1 0 010-1v-1l-1-4h2v-1h-1a2 2 0 00-1 1 3 3 0 011-2 6 6 0 011-3 14 14 0 00-1-4l-3-2h3a39 39 0 000-6h-1a1 1 0 010-2v-1h1l-1-6a1 1 0 011-2 5 5 0 011-3 2 2 0 000-2 4 4 0 01-1-1v-3l-1-2h1a2 2 0 001 0 2 2 0 002 0v-1h-4a2 2 0 012-1 2 2 0 012 1v2l1 2v2a4 4 0 010 4v4h-1l1 5v5h-1l1 1-1 6a15 15 0 011 2v4a5 5 0 000 1v1h-2l1 1-1-1v1h1a2 2 0 010 1v2a34 34 0 011 5v5-1 6a1 1 0 01-1 1l3 8-1 1-1-2h-1v6a50 50 0 002 5l-2 1v8a2 2 0 011 0v6a1 1 0 010 1 1 1 0 01-1 1v1a7 7 0 000 2 26 26 0 010 3l1 2a13 13 0 010 4 18 18 0 010 2 5 5 0 01-1 2l1 3v4a8 8 0 01-1 2 11 11 0 010 4l-1 2a16 16 0 011 5 23 23 0 001 4l4 10-4-5zm-3 4a2 2 0 00-1 0h2a2 2 0 00-1 0zm-1-36a2 2 0 002 0 2 2 0 001 0z"/><path class="d" d="M81 633a2 2 0 01-2-2v-2-1 0l-1-5v-2-1a4 4 0 010-1h-1l1-1a3 3 0 011-1 13 13 0 00-2-5 1 1 0 010-1l3-1a2 2 0 00-1 0 2 2 0 00-1 0 6 6 0 001 0v-1l-1-4a11 11 0 001-2 13 13 0 010-3l1-2a3 3 0 01-1-1v-2l-2-6a2 2 0 010-1h1a93 93 0 01-1-7v-1l-2-5h1l2 2h1l-1-6-1-4-2-2h3a2 2 0 011-2 4 4 0 010-1l1-4a98 98 0 01-2-6 2 2 0 010-1v-4h1a13 13 0 01-1-3 18 18 0 00-1-5l-2-8v-1l3 4a3 3 0 010-1 1 1 0 011 0v-1a26 26 0 00-1-3 3 3 0 01-1-2v-2-1l2 1v-2a20 20 0 00-2-7h2v-1-1h-1a29 29 0 010-4l1-4-1-2a6 6 0 011-3v-1a8 8 0 010-3 6 6 0 000-2 3 3 0 01-1-1h1c-1-2-1-4 1-4a2 2 0 013 1v2a1 1 0 01-1 1 1 1 0 010 1 9 9 0 010 1 6 6 0 001 4l3 7-3-2a12 12 0 01-1 2v4l1 2v5a2 2 0 010 1l-1 1a20 20 0 011 3 9 9 0 000 2v2h-1v1a19 19 0 011 3v4a2 2 0 01-1 0l1 1a1 1 0 01-1 0 5 5 0 000 1 3 3 0 010 2 19 19 0 010 5 9 9 0 001 4l-1 1a17 17 0 001 2l-1 1a66 66 0 002 7l2 5-2-2v1h-1a5 5 0 010 1 4 4 0 01-1 4 8 8 0 010 2 2 2 0 010 1v1l1 6v1a1 1 0 01-1 1 3 3 0 01-1 2l1 2v6l1 5v4l-1 3a12 12 0 010 4 11 11 0 001 2l1 1h-1v1h-1a7 7 0 010 1v1a15 15 0 011 4l-1 3a6 6 0 010 2v2l1 4 1 2a1 1 0 010 1v1a2 2 0 01-2 2zm-2-13zm2-13a2 2 0 001 0zm-2 0zm2-7a1 1 0 01-1 0zm0-4h1a2 2 0 00-1 0zm-1-44a3 3 0 001 0zm1-18a2 2 0 00-1 0 3 3 0 001 0 2 2 0 001 0 2 2 0 00-1 0zm-1-40h-1 1zm2-2zM205 644a21 21 0 010-2 2 2 0 011-2l-1-1 1-4c-2-3-2-6-1-8a12 12 0 010-4v-2a1 1 0 010-1v-2-3a2 2 0 01-1-2 2 2 0 011-1l-1-6v-2h1a8 8 0 010-2 3 3 0 010-1 7 7 0 010-1 1 1 0 010-1v-4-1-1a2 2 0 010-2v-6a4 4 0 011-2v-3a3 3 0 01-1 0v-1l1-3v-1c-2-5-2-8-1-10v-4l-1-5v-4-1a7 7 0 010-1v-8a2 2 0 011-1v-1a16 16 0 000-3v-1a11 11 0 01-1-5v-1a2 2 0 010-1v-1a1 1 0 010-1v-2a9 9 0 010-3 2 2 0 012-2l-2-9v-1a2 2 0 012-1l-1-6a2 2 0 00-1-1c-1-1 0-1 1-2l2-2 1 2 2 12-1 7 1 2 4 8-5-5-1-1a31 31 0 000 4v3a4 4 0 010 1 11 11 0 000 4l1 5v1a6 6 0 010 2v8l-1-3v1a4 4 0 011 2h-1a1 1 0 010 1v6h1v1a2 2 0 000 1h1v1a1 1 0 01-1 1v3c0 1 0 0 0 0v2l-1 1a18 18 0 002 5l1 11-1-1a7 7 0 010 2l-1 3v7l-1 6h1a6 6 0 00-1 3 2 2 0 010 1l1 7v2h1v1l-1 1v2a22 22 0 010 5c-1 2-1 4 1 6l4 7-5-4 1 5-1 1 1 5h-2v1zm1-59zm2 0h-1a2 2 0 001 0zm-4-34h1a2 2 0 00-1 0zM195 641a2 2 0 01-1-1l-1 1a14 14 0 010-2 1 1 0 010-1v-4a3 3 0 010-2l-1-7a1 1 0 011-1l-1-2v-2a1 1 0 010-1 15 15 0 011-5v-1a31 31 0 000-4 1 1 0 010-1l1-1-1-4-1 1 2-3a30 30 0 00-1-6 2 2 0 01-1-1v-1-1l-1-7 2 2v-3l-1-2 1-1-2-6 2-1v-1a14 14 0 010-1v-3a3 3 0 011-1 11 11 0 00-1-4 2 2 0 01-1-2v-2a2 2 0 011-2v-1a2 2 0 010-2 30 30 0 010-3 5 5 0 010-3v-1h-1v-3a4 4 0 010-1 6 6 0 001-3v-2a7 7 0 000-4 5 5 0 010-3 11 11 0 00-1-2h2v-4-1l-3-9-5-10 6 6a2 2 0 010-1 2 2 0 010-2 26 26 0 010-8l1-1v-8l1 3a3 3 0 011 0s2-1 2 1v3l-1 3a25 25 0 000 6 4 4 0 011 2 13 13 0 011 3v10l-1-2 1 4v1l2 5-3-2a5 5 0 011 2l-1 1a2 2 0 01-1 1l1 1a9 9 0 01-1 5v2a8 8 0 010 4 2 2 0 000 1v1l1 2 2 8-2-2 1 3-2 1v3a13 13 0 011 7 19 19 0 000 3h-1a15 15 0 001 3 3 3 0 011 0l-3 1a18 18 0 011 3v1l1 1v2a44 44 0 01-1 7v3a33 33 0 011 4v11a1 1 0 010 1 30 30 0 010 4 3 3 0 011 1v1h-1a4 4 0 01-1 1v5l1 5-1 1 2 7h-1a38 38 0 000 5h1l-1 2zm-3-130h1v-1a2 2 0 00-1 1zm3-14a2 2 0 002-1z"/><path class="d" d="M184 644a3 3 0 01-3-2l2-1a3 3 0 011-1l-1-1a16 16 0 010-3 21 21 0 01-1-4v-4a2 2 0 011-2 12 12 0 010-6l-1-3a1 1 0 011-1l-1-3a3 3 0 011-2 20 20 0 01-1-5l-1-2-1-4 1 1v-1l-1-2h3v-3a2 2 0 01-1-1l1-4a5 5 0 010-3v-1l1-4-1-3v1l-1-5a3 3 0 01-1-2l-1-7 3 3a3 3 0 011 0l-1-2-1-5h1l-1-3v-6-1a4 4 0 01-1-2v-1a23 23 0 000-2l1-1a7 7 0 000-2l2-1h-2v-1a1 1 0 000 1v-1-1a2 2 0 010-2v-2a1 1 0 010-2v-1-2a2 2 0 011-2v-1a3 3 0 010-1v-1a26 26 0 000-6l-1-1a2 2 0 011-3 7 7 0 010-1 4 4 0 000-3v-2a16 16 0 01-1-5v-1a3 3 0 01-1-1 16 16 0 010-2l-1-4 4 2a3 3 0 011 1h1a9 9 0 010 2 4 4 0 010 1v2l1 4v1a2 2 0 01-1 1h1a6 6 0 010 4 3 3 0 000 3l-1 1h1v1a27 27 0 010 6v1a4 4 0 010 1l-1 2a2 2 0 010 1v2a28 28 0 010 4v4l-1 2v4a17 17 0 010 2l1 2v6a22 22 0 010 6v1a32 32 0 002 5l1 1-3 1v1a40 40 0 012 9v5l-1-1a11 11 0 010 3 6 6 0 000 2v1l-1 1v1a38 38 0 001 6l2 8-3-4v4a14 14 0 001 4h-1v3a17 17 0 010 5v1a11 11 0 001 6l-1 1a2 2 0 01-1 2 20 20 0 002 5 3 3 0 010 2 37 37 0 001 5h-2a3 3 0 01-2 2zm1-7a2 2 0 001 0zm-1-48a2 2 0 001 0 3 3 0 001 0zm1-60a2 2 0 011 1 2 2 0 000-1zM173 641h-2a3 3 0 011-3 15 15 0 010-2 6 6 0 000-3l3-1a2 2 0 00-1-1 2 2 0 00-2 1 4 4 0 000-1h-1v-2-1c0-3 1-4 2-5a13 13 0 010-2v-1l-1-3a34 34 0 01-1-6h1a6 6 0 000-1 2 2 0 002 0 2 2 0 001-1h-3a11 11 0 000-3v-2a16 16 0 00-1-4 2 2 0 011-2v-1a12 12 0 01-2-3l3-1a22 22 0 00-1-5 2 2 0 010-1l-1-1v-1-1a1 1 0 010-2v-4l1 1a6 6 0 010-2 2 2 0 000-1 1 1 0 010-1v-1-5a4 4 0 010-4 17 17 0 000-5 22 22 0 01-1-3h2a10 10 0 010-2 21 21 0 00-1-6h-1v-2a13 13 0 001-2 5 5 0 010-2 15 15 0 010-2 14 14 0 010-4 3 3 0 011-2 21 21 0 000-5 2 2 0 010-1l-3-5 2 1a10 10 0 010-3l1-2v-2a7 7 0 01-1-2 4 4 0 011-2 34 34 0 010-5v-1l-1-3a47 47 0 010-6h1a7 7 0 000-1l3-1v15-1 5l1 3 1 4-2 1v5a11 11 0 011 3l-1 4v2a2 2 0 010 1 16 16 0 000 3 4 4 0 011 1v1a2 2 0 01-2 1v1a3 3 0 010 3 23 23 0 011 6l1 1-1 5a32 32 0 010 7 4 4 0 000 1v6a4 4 0 010 3 5 5 0 00-1 3 4 4 0 010 4v1a20 20 0 012 6l-1 4a3 3 0 010 1 3 3 0 01-1 2 16 16 0 011 4v4l-1 1a11 11 0 010 1 4 4 0 011 1 13 13 0 010 2 2 2 0 01-1 2l1 4a1 1 0 010 1v2a10 10 0 001 2l2 6-4-3v3l1 4a8 8 0 010 3 12 12 0 000 3l2 8zm1-67a3 3 0 00-2 0h2zm1-75a2 2 0 00-1 0h1zM165 632a3 3 0 01-1 1c1 2 2 4 0 5a3 3 0 01-2 1 2 2 0 01-2-2h1a8 8 0 00-1-4l-5-12 6 7a2 2 0 011-2l-1-3a14 14 0 00-1-4 1 1 0 010-1h2l-1-1a2 2 0 00-1 1v-1l1-2-6 1 7-4a10 10 0 001-3v-1a36 36 0 00-1-4 3 3 0 01-1-1 13 13 0 010-2h1a9 9 0 000-1 3 3 0 010-1 12 12 0 000-3l-1-2v-3l1-6v-2-3a6 6 0 01-1-2v-2-2a1 1 0 010-1 4 4 0 010-3 2 2 0 011-2 2 2 0 010-1l-1-2 1-3-1-3v-1-1-3a3 3 0 010-2 2 2 0 011-2v-2-5-4a1 1 0 010-1l-1-1v-4h2a4 4 0 01-1-1 2 2 0 00-1 1 3 3 0 011-2 5 5 0 011-3 14 14 0 00-2-3l-2-3h3a37 37 0 00-1-6 1 1 0 010-2l1-1-1-6a1 1 0 011-2 5 5 0 010-3 2 2 0 001-1 4 4 0 01-1-2l-1-3v-2a2 2 0 002 0 2 2 0 002 0l-4-1a2 2 0 012-1 2 2 0 012 2v3l1 3a4 4 0 010 3v4l-1 1 1 4-1 6v6a16 16 0 011 3v3a2 2 0 010 1 3 3 0 000 1l-2 1a1 1 0 001 0 2 2 0 01-1 1l1 2v1a34 34 0 011 4v10a2 2 0 01-1 1 4 4 0 000 1l3 9-3-3v6a50 50 0 002 6h-3a1 1 0 000 1h1v7a2 2 0 010 1l1 6-1 2a7 7 0 00-1 2 25 25 0 011 3 1 1 0 010 1v2a13 13 0 010 3 2 2 0 010 1 16 16 0 010 2 4 4 0 010 1l1 4v3a8 8 0 01-1 3 10 10 0 01-1 3l-1 2a15 15 0 012 5 23 23 0 001 4l4 12zm-2 4a2 2 0 00-1 1l1-1zm-1-36a2 2 0 002 1 2 2 0 001-1z"/><path class="d" d="M154 639a2 2 0 01-2-2v-2l-1-5v-4a3 3 0 010-1h-1l1-1a3 3 0 011-1 13 13 0 00-2-5v-1l3-1a2 2 0 00-2 0 5 5 0 001 0v-1l-1-4a11 11 0 000-2 13 13 0 010-3h1v-2a3 3 0 010-1l-1-2-1-6a2 2 0 010-1h1a141 141 0 01-2-9l-1-5 4 3-1-6-1-4-3-3 4 1a2 2 0 011-2 4 4 0 010-1l1-4a65 65 0 01-2-6 2 2 0 010-1c-1-3 0-4 1-4a14 14 0 01-1-3 18 18 0 00-1-6l-3-9 4 5a5 5 0 010-1 1 1 0 011 0 24 24 0 00-1-4 3 3 0 01-1-2l-1-3 3 1a13 13 0 010-2 20 20 0 00-2-7h2v-2h-1a31 31 0 010-4l1-4-1-2 1-4a8 8 0 01-1-3 6 6 0 000-2v-1 1c0-3 0-5 2-5a2 2 0 012 1 1 1 0 011 0v2a1 1 0 01-1 1 2 2 0 010 1 9 9 0 010 2 6 6 0 001 4l4 7-5-4a13 13 0 010 3v6a79 79 0 001 5 2 2 0 01-1 2 19 19 0 011 3 9 9 0 000 3v1h-1v1a19 19 0 010 3l1 4a2 2 0 01-1 1 5 5 0 000 2 3 3 0 01-1 2 19 19 0 011 4 9 9 0 001 4l-1 1a17 17 0 000 3 69 69 0 002 7l2 6-3-3 1 1h-1a5 5 0 01-1 1 4 4 0 01-1 4 9 9 0 011 3 2 2 0 01-1 1l2 6v1a1 1 0 01-1 2 3 3 0 01-1 1v3l1 2v3h-1l1 6h1v3l-1 3a12 12 0 010 5 11 11 0 001 1v1l-1 1a6 6 0 01-1 2 15 15 0 011 4v4a6 6 0 010 1 1 1 0 010 1v1a522 522 0 011 6v2a2 2 0 01-2 2zm-2-13h-1 1zm1-13h1zm-2 0a1 1 0 001 0zm2-7h1-1zm0-4h2a2 2 0 00-1 0 2 2 0 00-1 0zm0-43a3 3 0 000-1 3 3 0 001 0zm1-19a2 2 0 00-2 0l1 1a3 3 0 001-1zm-2-40a2 2 0 00-1 0h2zm3-2z"/><path class="f" d="M725 340c1-6 5-12 10-15s14-2 18 2c4-5 10-9 16-10s14 2 16 8c10 2 16 14 13 23a36 36 0 00-2 4l-1 4c0 4-2 7-5 10-6 7-14 12-22 15-9 3-19 4-28 0-7-3-13-10-14-18l1-8-2-15z"/><path class="g" d="M734 370c-1-5-3-9-2-15s4-12 10-15 13-2 18 2c3-5 9-9 16-10s13 2 16 8a15 15 0 016 4c2-9-4-18-13-20-2-6-10-9-16-8s-12 5-16 10c-4-4-12-5-18-2s-9 9-10 15l2 15-1 8a21 21 0 007 14 35 35 0 001-6z"/><path class="f" d="M822 469c8-1 15-9 14-17a14 14 0 007-25c4-2 5-8 3-12s-5-7-9-9a37 37 0 00-38 3 18 18 0 01-3 3 41 41 0 01-5 1c-6 2-9 9-10 15s3 13 6 19c3 7 10 7 16 11 6 5 10 12 19 11z"/><path class="h" d="M843 427c4-2 5-8 3-12s-5-7-9-9a36 36 0 00-12-3 17 17 0 017 7c2 5 1 10-3 12a14 14 0 01-7 25c1 8-5 15-12 17 3 3 7 5 12 5 8-1 15-9 14-17a14 14 0 007-25z"/><path class="f" d="M671 422a16 16 0 001 17 27 27 0 00-9 19c0 6 2 12 8 15 5 3 11 1 16 0-1 3 0 7 2 11a18 18 0 0010 6 23 23 0 0015-1c5-3 9-8 10-13 4 2 10 1 15-2s7-8 8-13c2-7 3-13 1-20s-7-11-13-13c1-4 2-8 0-11s-5-5-8-6c-7-3-15-6-22-6-9 0-12 4-19 8-6 3-12 1-15 9z"/><path class="h" d="M735 419h1a10 10 0 00-1-2v2zM747 452c-1 5-4 10-8 13s-11 4-15 2c-1 6-5 11-9 13a23 23 0 01-16 1 18 18 0 01-10-6c-2-3-3-8-2-11-5 2-11 3-16 1-4-2-6-6-7-11a25 25 0 00-1 4c0 6 2 12 8 15s11 1 16 0c-1 3 0 7 2 11a18 18 0 0010 6 23 23 0 0015-1c5-3 9-8 10-13 4 2 10 1 15-2s7-8 8-13a34 34 0 002-16 38 38 0 01-2 7zM672 430a16 16 0 01-3-5 16 16 0 000 8 27 27 0 013-3z"/><path class="f" d="M677 349c-2 2-3 3-3 6s0 4 3 4a25 25 0 00-15 19 37 37 0 001 13c0 4 3 10 7 9a10 10 0 013 0c2 1 3 3 3 6a18 18 0 0031 7 5 5 0 012-2c2-1 3 0 5 1a23 23 0 0035-13 23 23 0 00-4-40c3-3 3-8 2-12s-5-6-9-8a25 25 0 00-14-2 20 20 0 01-4 0 20 20 0 01-5-1 24 24 0 00-20 4l-8 4c-4 1-7 2-10 5z"/><path class="h" d="M759 378a24 24 0 00-9-16 22 22 0 011 5 24 24 0 01-10 21 23 23 0 01-35 13c-1-1-3-2-4-1a5 5 0 00-2 2 18 18 0 01-18 6 17 17 0 01-6-2 18 18 0 0031 7 5 5 0 012-2c2-1 3 0 5 1a23 23 0 0032-7 23 23 0 003-6 24 24 0 0010-21z"/><path class="g" d="M683 369c-6 0-11 7-10 12s8 10 13 10l6-2a8 8 0 001-5 37 37 0 00-1-8 9 9 0 0010-6c1-3 1-6 4-7h5c2 0 4-2 5-4s2-5 1-7c-2-3-6-3-9-3h-14c-7 0-6 3-9 8-1 4-6 7-2 12z"/><path class="f" d="M758 413l-6 2c-1 1-2 4-1 6a25 25 0 00-23 5 37 37 0 00-8 10c-2 4-3 10 0 12a10 10 0 012 2c2 2 0 4-1 6a18 18 0 0020 25 5 5 0 013 0l2 4a23 23 0 0035 12 23 23 0 0023-33c4-1 8-4 9-8s0-8-1-12a25 25 0 00-10-10 20 20 0 01-4-3 21 21 0 01-2-3 24 24 0 00-18-11l-9-1c-4-2-6-3-11-3z"/><path class="h" d="M803 487a24 24 0 003-18 22 22 0 01-2 5 24 24 0 01-22 10 23 23 0 01-35-12l-2-4a5 5 0 00-3 0 18 18 0 01-18-6 17 17 0 01-3-6 18 18 0 0020 25 5 5 0 013 0l2 4a23 23 0 0035 12 24 24 0 0022-10z"/><path class="g" d="M752 439c-5-4-13-1-16 4s0 12 5 15c1 2 3 2 5 2a8 8 0 004-3 36 36 0 004-6 9 9 0 0011 1c3-1 5-4 8-3 2 0 3 2 4 3h7c3-1 4-2 4-4 1-3-2-6-4-8l-11-9c-5-4-7-2-12 0-3 3-9 2-9 8z"/><path class="f" d="M785 343l-6 2c-2 1-2 4-1 6a25 25 0 00-23 5 37 37 0 00-8 10c-2 4-3 10 0 12a10 10 0 013 2c1 2 0 4-1 6a18 18 0 0019 25 5 5 0 013 0l2 4a23 23 0 0036 12 23 23 0 0022-34c4 0 8-3 9-7s0-8-1-12a25 25 0 00-10-10 20 20 0 01-4-3 21 21 0 01-2-4 24 24 0 00-18-10l-9-1c-4-2-6-3-11-3z"/><path class="h" d="M830 417a24 24 0 003-18 22 22 0 01-2 5 24 24 0 01-21 10 23 23 0 01-36-12l-2-4a5 5 0 00-3 0 18 18 0 01-18-6 17 17 0 01-2-6 18 18 0 0019 25 5 5 0 013 0l2 4a23 23 0 0036 12 24 24 0 0021-10z"/><path class="g" d="M777 362c-5-4-13-2-15 4s-1 12 4 15a7 7 0 005 2 8 8 0 004-3 37 37 0 004-6 9 9 0 0011 1c3-2 6-5 8-3 2 0 3 2 4 3h7l5-4c0-4-2-6-5-8l-11-9c-5-5-7-2-12 0-3 2-9 2-9 8z"/><path class="f" d="M704 396a18 18 0 00-7 6c-3 5-1 12 1 18-7 2-9 12-5 18s14 8 21 6a24 24 0 0037-4l3-3a9 9 0 014 0 13 13 0 0010-6 21 21 0 004-11 26 26 0 011-6l1-4a17 17 0 00-2-17 21 21 0 00-15-7 19 19 0 00-15-11c-10 0-13 5-19 11-4 5-13 6-19 10z"/><path class="g" d="M709 429c-3-5-4-12-1-17a19 19 0 016-6c6-4 15-5 20-10 5-6 9-12 18-11a19 19 0 0116 10 22 22 0 017 2 18 18 0 00-3-6 21 21 0 00-14-8 19 19 0 00-16-10c-10 0-13 5-19 11-4 5-13 6-19 10a19 19 0 00-7 6c-3 5-1 12 1 18-7 2-9 13-5 19a16 16 0 008 5c0-5 3-11 8-13z"/><path class="h" d="M772 394a18 18 0 00-2-2 15 15 0 01-1 6l-2 4a26 26 0 000 6 22 22 0 01-4 12 13 13 0 01-11 5 9 9 0 00-3 0l-3 3a24 24 0 01-34 7 24 24 0 01-4-3c-5 2-12 1-17-2a13 13 0 002 9c5 6 14 7 21 5a24 24 0 0034 0 24 24 0 003-4l3-3a9 9 0 014 0 13 13 0 0010-5 21 21 0 004-12 26 26 0 011-6l1-4a17 17 0 00-2-16z"/><path class="f" d="M751 387c-5 2-10 6-13 12s0 12 5 15c0 4 0 8 2 11s6 4 9 4c5 0 11-1 14-5a15 15 0 0024-7 35 35 0 011-5l2-3a10 10 0 00-8-15 12 12 0 00-6-9c-5-3-8-1-13 0-6 0-11 0-17 2z"/><path class="h" d="M795 399a10 10 0 00-4-4 10 10 0 01-1 2l-2 3a32 32 0 00-2 5 15 15 0 01-24 7c-2 5-9 6-14 5a20 20 0 01-5-1c0 3 0 7 2 9 2 3 6 4 9 4 5 0 11-1 14-5a15 15 0 0024-7 33 33 0 011-5l2-3a10 10 0 000-10z"/><path class="i" d="M904 688a56 56 0 00-6-2c-8-3-23-12-31-12-3 0-10 2-15 15-3 6-3 15-2 22 1 13 13 61 15 67 3 7 6 16 12 21h7l-1-2c-5-12-13-49 5-54a53 53 0 018-4c7-2 13-4 19-8h1v-1h2c-1-5-3-10-6-14-5-6-13-5-20-5-5-1-10 1-12 3s-2 0-1-2c1-3 3-2 5-5 2-2 2-5 5-6 2-2 4 0 9-2 6-3 15 5 20 8a36 36 0 014 2 118 118 0 00-18-21z"/><path class="j" d="M918 730h-1zM916 731h-1 1z"/><path d="M837 670c-9 4-18 12-26 18-9 7-18 12-25 20a23 23 0 00-2 2c13-7 20-6 34-12l15-9c-6 19-2 52 5 68 1-5 3-10 1-25-2-9-4-24-2-29 2-10 10-20 17-28 8-10 16-4 19-2a148 148 0 0022 8l-5-4c-16-11-35-17-53-7z" fill="#bab2a8"/><path class="l" d="M873 673c-3-2-11-8-19 2-7 8-15 18-17 28-2 5 0 20 2 29 2 15 0 20-1 25-7-16-11-49-5-68l-15 9c-14 6-21 5-34 12-6 7-7 15-7 24 0 14-2 42 4 49a20 20 0 002 3c-1-5 1-10 4-16 6-11 12-22 23-30l6-12h1c-1 10-9 21-13 30l-9 15c-3 6-4 11-3 18a61 61 0 006 2c0-7 5-13 11-16 4-3 9-4 13-6 4-1 7-3 10-2 10 0 12 5 18 12 2 2 6-2 8-6l5-4c-4-16-12-49-13-60-1-7-1-16 2-22 5-13 12-15 15-15 8 0 23 9 31 11a57 57 0 016 3l-9-7a149 149 0 01-22-8z"/><path class="j" d="M819 709c-5 2-11 2-15 6-3 2-3 5-5 8-1 5-5 7-8 11-5 7-6 17-7 26-1 5-4 15 3 18a1 1 0 001 0 1 1 0 000-1c3-10 10-20 17-28 4-6 11-14 12-21 0-1 2-12 6-18 2-3-2-2-4-1z"/><path class="i" d="M817 728l-7 12c-11 8-17 19-23 30-3 6-5 11-4 16a30 30 0 009 5c-1-7 0-12 3-18l9-15c5-9 12-20 13-30z"/><path class="j" d="M863 771l-5 4c-2 4-6 8-8 6-6-7-8-12-18-12-3-1-6 1-10 2-4 2-9 3-13 6-6 3-11 9-11 16l1 1c7-10 19-10 29-10 6 1 10 2 14 5 4 4 10 6 13 4 4-2 7 3 11 7l11-1c-6-5-9-14-12-21l-2-7zM922 709a40 40 0 00-4-2c-5-3-14-11-20-8-5 2-7 0-9 2l-5 6c-2 3-4 2-5 5-1 1-1 4 2 2s6-4 11-4c7 1 15 0 20 6 3 4 5 9 6 14h-2l-1 1c-6 4-12 6-19 8a53 53 0 00-8 4c-18 4-10 42-5 54l1 2 9-1a72 72 0 0014-5c12-19 13-62 13-62 1-2 5-4 7-5l1 1 1 2c4 11 9 33 8 48a20 20 0 005-5s1-9-2-23-15-34-18-40z"/><path d="M929 729l-1-2-1-1-7 5s-1 43-13 62c9-3 19-1 24-3 6-4 9-8 9-10 0-14-7-40-11-51z" fill="#4f463f"/><path class="i" d="M855 793c-3 2-9 0-13-4-3-3-8-4-14-5-10 0-22 0-29 10a423 423 0 0067 6c-3-4-7-9-11-7z"/><path class="l" d="M921 725c-2 0-5-2-6-1-4 1-8 4-19 5-6 1-13 1-19 5-2 1-3 3-4 6-2 5-6 5-6 7-2 4 2 10 1 13h1c4-6 7-13 13-17 4-2 7-5 17-6 8 0 12-3 18-4 8-2 6-5 11-6-2-1-3-3-7-2z"/><path d="M1240 237c8-5 19-25 60-2 24 14 10 53 30 48 27-7 47 24 21 50s-38 20-66 6c-10-5-16-8-31-6s-20 23-49 26-75-30-52-48 25-28 19-46 28-42 43-27 18 3 25-1z" fill="#45dbe2"/><path d="M1300 328c-12 0-42-7-50-6s-31 8-38 20-54 6-56-11 5 2 18-20c11-20 12-28 11-33a6 6 0 01-3-4c-1-4 4-10 12-12s16-2 17 3a6 6 0 01-1 5h1c11 0 39-20 46-16s-19 11-10 18 31-7 38 1-19 7-13 13 23 1 26 6-6 5-2 8 9-2 14 2-23 5-18 11 20 15 8 15zm44-15c-1-5-10-6-20-3s-15 9-14 14 11 7 20 4 16-10 14-15z" transform="translate(1 1)" fill="url(#a)"/><path class="p" d="M1281 303c2-6 0-13-6-16s-14 1-15 4l8 5c-1 1-9-3-9-3-1 0-2 9 6 14a11 11 0 0016-4z"/><path class="q" d="M1259 294a33 33 0 014 1c4 2 5 2 5 1l-4-3a24 24 0 01-4-2c2-3 10-6 15-3 5 2 8 9 5 14a11 11 0 01-6 6 10 10 0 01-9-1c-7-5-7-12-6-13z"/><path class="r" d="M1259 294l3 1 6 2h1c0-2-1-3-4-4a36 36 0 01-4-2c2-3 9-5 13-3 6 3 8 9 6 14a10 10 0 01-7 5 10 10 0 01-7-1c-7-4-7-10-7-12z"/><path class="s" d="M1263 291c3-2 7-3 11-2 5 3 7 8 5 12a9 9 0 01-6 5 9 9 0 01-7-1 11 11 0 01-5-9l1 1c4 2 6 2 7 1l1-1c1-2-1-4-5-6h-2z"/><path class="p" d="M1286 268c3-3 2-8-1-11-4-3-10-2-11 0 0 1 5 4 4 5l-5-4c-1 0-3 6 2 11a8 8 0 0011 0z"/><path class="q" d="M1273 259a25 25 0 012 1l3 2-2-3a17 17 0 01-2-2c2-2 7-2 10 0a8 8 0 012 11 8 8 0 01-6 3 7 7 0 01-5-2c-4-4-3-9-2-10z"/><path class="r" d="M1273 259l2 2c2 1 3 2 4 1s0-1-2-3l-2-2c1-1 6-2 9 1a7 7 0 012 10 7 7 0 01-5 2 7 7 0 01-6-2c-3-3-3-7-2-9z"/><path class="s" d="M1276 257l8 1a6 6 0 011 9 6 6 0 01-5 2 6 6 0 01-4-1 8 8 0 01-3-7h1c3 2 4 3 5 2 2-2 0-3-2-5l-1-1z"/><path class="p" d="M1206 312a12 12 0 0016 1c5-4 4-14 1-16l-7 6 5-7c0-2-8-6-15 0-5 4-4 12 0 16z"/><path class="q" d="M1221 296a35 35 0 01-3 2l-3 5c1 1 2 0 5-2a23 23 0 013-3c2 2 3 11-1 14a11 11 0 01-16 0 12 12 0 01-3-8 9 9 0 013-7c6-6 13-3 15-1z"/><path class="r" d="M1220 296l-2 2c-3 3-4 4-3 5s2 0 5-2a36 36 0 013-2c2 2 2 9-2 13a10 10 0 01-14 0 11 11 0 01-3-8 9 9 0 013-7 11 11 0 0113-1z"/><path class="s" d="M1223 301c0 2 0 7-2 10a9 9 0 01-13 0 10 10 0 01-3-7 8 8 0 013-6 10 10 0 0110-2l-1 1c-3 4-4 5-3 7 2 2 4 1 7-2l2-1z"/><path class="p" d="M1220 277a8 8 0 00-6 10c1 4 7 6 9 5l-1-6 3 6s6-3 5-10c-1-4-6-6-10-5z"/><path class="q" d="M1225 292a22 22 0 01-1-3l-2-3v3a16 16 0 011 3c-3 1-8-2-9-5a8 8 0 016-10 8 8 0 016 1 7 7 0 013 4c1 6-3 9-4 9z"/><path class="r" d="M1225 291l-1-2-2-4v7c-2 0-6-2-7-6a7 7 0 015-9 8 8 0 016 1 6 6 0 013 4 8 8 0 01-4 9z"/><path class="s" d="M1221 291c-2-1-5-2-5-5a6 6 0 014-8 7 7 0 015 1 5 5 0 013 4 7 7 0 01-2 7l-1-1c-1-3-1-5-3-4-2 0-2 2-1 4v2z"/><path class="t" d="M1224 300a8 8 0 01-5-3 7 7 0 0110 1 8 8 0 01-5 2zM1214 299a8 8 0 01-5-2 7 7 0 0110 0 8 8 0 01-5 2zM1217 302a3 3 0 112 5 8 8 0 01-2-5z"/><path class="t" d="M1217 292a3 3 0 112 5 8 8 0 01-2-5z"/><path class="t" d="M1225 296a8 8 0 01-6 1 8 8 0 012-5c3-2 6-1 6-1a8 8 0 01-2 5zM1217 302a8 8 0 01-5 2 7 7 0 017-7 8 8 0 01-2 5z"/><path class="t" d="M1221 303a8 8 0 01-2-6 7 7 0 017 8 8 8 0 01-5-2zM1214 295a8 8 0 01-1-5 7 7 0 016 7 8 8 0 01-5-2z"/><path class="u" d="M1224 298a7 7 0 01-5-1 6 6 0 019-2 8 8 0 01-4 3zM1215 301a8 8 0 01-5-1 6 6 0 019-3 7 7 0 01-4 4zM1218 302a3 3 0 114 4 7 7 0 01-4-4z"/><path class="u" d="M1216 294a3 3 0 113 3 7 7 0 01-3-3z"/><path class="v" d="M1223 294a7 7 0 01-4 3 6 6 0 015-8 8 8 0 01-1 5zM1219 302a7 7 0 01-4 3 7 7 0 010-5 8 8 0 014-3 7 7 0 010 5z"/><path class="v" d="M1222 302a7 7 0 01-3-5 6 6 0 018 5 7 7 0 01-5 0zM1214 297a7 7 0 01-3-4 6 6 0 018 4 7 7 0 01-5 0z"/><path class="w" d="M1220 297a2 2 0 01-1 0 1 1 0 111 0zM1219 298a2 2 0 01-1 1 2 2 0 010-1 2 2 0 011-1 2 2 0 010 1z"/><path class="w" d="M1220 298a2 2 0 01-1-1 1 1 0 012 1 1 1 0 01-1 0zM1218 297a2 2 0 01-1-1 1 1 0 012 1 1 1 0 01-1 0z"/><path class="w" d="M1220 298a2 2 0 01-1-1 1 1 0 012 0 2 2 0 01-1 1zM1218 298a2 2 0 01-1 0 1 1 0 012-1 2 2 0 01-1 1z"/><path class="w" d="M1219 298a2 2 0 010-1 1 1 0 011 2 2 2 0 01-1-1z"/><path class="w" d="M1218 297a2 2 0 011-2 1 1 0 010 2 2 2 0 01-1 0z"/><path class="x" d="M1220 297a1 1 0 01-1 0 1 1 0 011-1 1 1 0 010 1zM1219 298a1 1 0 010-1 1 1 0 010 1z"/><path class="x" d="M1220 298a1 1 0 01-1-1 1 1 0 011 0 1 1 0 010 1zM1219 297a1 1 0 01-1 0 1 1 0 011 0z"/><path class="x" d="M1220 297a1 1 0 01-1 0 1 1 0 011 0zM1219 298a1 1 0 01-1 0 1 1 0 011-1 1 1 0 010 1z"/><path class="x" d="M1219 298a1 1 0 010-1 1 1 0 011 1h-1zM1219 297a1 1 0 010-1 1 1 0 010 1z"/><path class="p" d="M1152 343l11-8s-3 8-7 12a21 21 0 01-9 5 21 21 0 015-9z"/><path class="q" d="M1151 346c7-9 2 0 2 0s9-5 1 3a13 13 0 01-6 3 16 16 0 013-6z"/><path class="r" d="M1151 346c6-8 1 2 1 2s9-6 1 1a11 11 0 01-5 2 14 14 0 013-5z"/><path class="q" d="M1153 345l-1 2 2-1a72 72 0 00-6 5 42 42 0 005-6z"/><path class="p" d="M1150 338l13-3s-6 6-11 7a21 21 0 01-10 2 21 21 0 018-6z"/><path class="q" d="M1147 339c10-5 2 2 2 2s11-2 0 2a13 13 0 01-7 0 16 16 0 015-4z"/><path class="r" d="M1147 339c9-4 0 2 0 2s11-1 1 2a11 11 0 01-5 0 14 14 0 014-4z"/><path class="q" d="M1149 340l-1 1h2a72 72 0 00-8 2l7-3z"/><path class="p" d="M1159 349c0-5 3-13 3-13v13a29 29 0 01-3 10 29 29 0 010-10z"/><path class="q" d="M1159 352c0-11 1-1 1-1s3-11 1 1a18 18 0 01-2 6 21 21 0 010-6z"/><path class="r" d="M1159 352c0-10 1 0 1 0s2-10 1 0a15 15 0 01-2 5 19 19 0 010-5z"/><path class="q" d="M1160 350v0l-1 8a62 62 0 001-8z"/><path class="p" d="M1153 332c3 0 7 4 7 4l-8 1-5-3s3-3 6-2z"/><path class="q" d="M1151 332c7 0 0 2 0 2s6 4-1 2a6 6 0 01-3-2 8 8 0 014-2z"/><path class="r" d="M1151 332c6 0-1 2-1 2s6 4 0 2a5 5 0 01-2-2 7 7 0 013-2z"/><path class="q" d="M1152 334h-1l1 1a24 24 0 00-5-1 14 14 0 005 0z"/><path class="p" d="M1161 344l1-8s4 4 4 7l-1 6s-3-2-4-5z"/><path class="q" d="M1162 346c-2-6 2-1 2-1s1-7 2 0a6 6 0 01-1 4 8 8 0 01-3-3z"/><path class="r" d="M1163 346c-3-6 1-1 1-1s1-6 2 0a5 5 0 01-1 3 7 7 0 01-2-2z"/><path class="q" d="M1163 344l1 1 1-1a25 25 0 000 4 14 14 0 00-2-4z"/><path class="p" d="M1161 328v9l-4-8a11 11 0 011-6 11 11 0 013 5z"/><path class="q" d="M1160 327c2 6-1 1-1 1s-1 6-2-1a7 7 0 011-3 9 9 0 012 3z"/><path class="r" d="M1160 327c2 5-1 0-1 0s-1 6-2 0a6 6 0 011-3 7 7 0 012 3z"/><path class="q" d="M1159 328v-1l-1 1a34 34 0 000-4 20 20 0 001 4z"/><path class="p" d="M1154 328l7 9-9-6a20 20 0 01-5-7 20 20 0 017 4z"/><path class="q" d="M1152 327c7 5 0 2 0 2s5 7-2 0a12 12 0 01-3-4 16 16 0 015 2z"/><path class="r" d="M1152 327c6 5-1 1-1 1s5 7-1 1a11 11 0 01-3-4 13 13 0 015 2z"/><path class="q" d="M1152 329l-1-1 1 1-5-4a41 41 0 005 4z"/><path class="y" d="M1152 340a10 10 0 004-1 14 14 0 002-1 14 14 0 00-1 2 11 11 0 00-3 4 10 10 0 004-2 17 17 0 002-3 26 26 0 000 4 15 15 0 000 5 15 15 0 001-5l1-2a5 5 0 001 2 5 5 0 001-4 10 10 0 00-2-3h-1a13 13 0 000-4 6 6 0 00-2-2 6 6 0 000 3 10 10 0 001 2 20 20 0 00-2-3 9 9 0 00-4-2 10 10 0 003 4 4 4 0 00-3 1 5 5 0 002 2 8 8 0 00-1 0 10 10 0 00-3 3zm9-4zm0 0z"/><path class="x" d="M1165 335c-2 2-4 2-5 1s-1-3 1-4 3-3 4-2 1 3 0 5z"/><path class="x" d="M1164 335c-1 1-3 2-4 1s-1-2 1-4 3-2 4-1 0 2-1 4z"/><path class="x" d="M1165 333a2 2 0 110-2 2 2 0 010 2z"/><path class="x" d="M1164 332l3-4-3 3v1z"/><path class="p" d="M1177 360l-12-11s3 9 7 14a24 24 0 008 8 24 24 0 00-3-11z"/><path class="q" d="M1178 363c-6-11-3 1-3 1s-9-9-1 2a15 15 0 006 4 18 18 0 00-2-7z"/><path class="r" d="M1178 363c-6-9-2 2-2 2s-9-9-2 1a13 13 0 005 4 16 16 0 00-1-7z"/><path class="q" d="M1176 363v1l-2-1a80 80 0 016 7l-4-7z"/><path class="p" d="M1181 354l-15-5s6 7 11 10a24 24 0 0012 4 24 24 0 00-8-9z"/><path class="q" d="M1183 356c-10-7-2 2-2 2s-12-4-1 2a15 15 0 008 2 18 18 0 00-5-6z"/><path class="r" d="M1183 357c-9-7-1 2-1 2s-12-4-1 1a13 13 0 006 2 16 16 0 00-4-5z"/><path class="q" d="M1181 357l1 1h-2a79 79 0 017 4h1l-7-5z"/><path class="p" d="M1168 365v-15l-4 15a33 33 0 001 11 33 33 0 003-11z"/><path class="q" d="M1168 368c1-12-2-1-2-1s-1-12-2 1a20 20 0 001 7 25 25 0 003-7z"/><path class="r" d="M1167 369c2-11-1 0-1 0s-1-12-1-1a17 17 0 000 7 22 22 0 002-6z"/><path class="q" d="M1167 366l-1 2v-2l-1 9a69 69 0 012-9z"/><path class="p" d="M1178 347c-4 0-9 3-9 3s5 3 9 3 7-3 7-3-3-3-7-3z"/><path class="q" d="M1180 348c-8-1-1 2-1 2s-7 3 1 3a7 7 0 004-3 9 9 0 00-4-2z"/><path class="r" d="M1180 348c-7-1 0 2 0 2s-7 3 0 2a6 6 0 004-2 8 8 0 00-4-2z"/><path class="q" d="M1179 349l1 1-1 1a28 28 0 015-1l-5-1z"/><path class="p" d="M1166 359l1-9s-5 3-7 7 0 7 0 7 4-2 6-5z"/><path class="q" d="M1165 361c4-7-2-2-2-2s0-8-3 0a7 7 0 001 4 9 9 0 004-2z"/><path class="r" d="M1164 361c4-6-2-1-2-1s1-8-2-1a6 6 0 001 4 8 8 0 003-2z"/><path class="q" d="M1164 359h-1l-1-1a28 28 0 01-1 5l3-4z"/><path class="p" d="M1170 342c-2 3-2 9-2 9l6-8a13 13 0 000-7 13 13 0 00-4 6z"/><path class="q" d="M1171 340c-4 7 1 1 1 1s0 8 2 0a8 8 0 000-4 10 10 0 00-3 3z"/><path class="r" d="M1171 340c-3 6 2 0 2 0s-1 8 1 1a7 7 0 000-4 9 9 0 00-3 3z"/><path class="q" d="M1172 341c0 1 0 0 0 0v1a39 39 0 012-5 23 23 0 01-2 4z"/><path class="p" d="M1178 343c-5 2-11 8-11 8l12-5a23 23 0 007-6 23 23 0 00-8 3z"/><path class="q" d="M1180 342c-9 4 0 2 0 2s-8 7 2 1a14 14 0 004-5 18 18 0 00-6 2z"/><path class="r" d="M1180 342c-8 4 1 1 1 1s-8 6 1 1a12 12 0 003-3 15 15 0 00-5 1z"/><path class="q" d="M1179 344l2-1-1 1 6-4a47 47 0 01-7 4z"/><path class="y" d="M1174 352a9 9 0 00-1 0 5 5 0 003-2 5 5 0 00-3-1l1-1a12 12 0 003-3 11 11 0 00-4 2 21 21 0 00-3 2 11 11 0 001-2 7 7 0 000-4 6 6 0 00-2 3 15 15 0 00-1 4h-1a11 11 0 00-3 3 5 5 0 000 4 6 6 0 002-1 20 20 0 000 2 17 17 0 001 5 17 17 0 001-5 31 31 0 000-4 20 20 0 002 3 12 12 0 004 4 12 12 0 00-2-6 16 16 0 00-1-2 15 15 0 002 2 11 11 0 005 1 12 12 0 00-4-4zm-6-1zm0-1v1-1z"/><path class="x" d="M1164 348l5 3c1 0 2-4 0-6s-3-3-5-2-1 3 0 5z"/><path class="x" d="M1165 348l4 3v-5l-4-3v5z"/><path class="x" d="M1164 346a2 2 0 101-3 2 2 0 00-1 3z"/><path class="x" d="M1165 345l-2-5 3 4-1 1zM1164 354c2 1 4 0 4-1s-1-3-3-3-4 0-4 1 1 3 3 3z"/><path class="x" d="M1164 354l4-1c0-1-1-3-3-3l-4 1c0 1 1 3 3 3z"/><path class="x" d="M1162 353a1 1 0 10-1-2 2 2 0 001 2z"/><path class="x" d="M1162 352l-4-2 4 1v1z"/><path class="f" d="M461 551c14-13 31-6 68 11s49 17 60 19 43 28 61 31 22 5 22 5l6 12s-6 11-47 14-62-4-92 15-59 19-95 12-52-9-60-12 15-14 50-11 46-4 41-8-14 2-38 0-64-17-64-17 74-58 88-71z"/><path d="M650 612c-18-3-50-30-61-31s-23-1-60-19l-20-9c2 1 34 19 43 26 10 7 11 17 28 21a43 43 0 0129 26c2 7-25 4-43 11s-33 24-49 31a108 108 0 0022-10c30-19 50-13 92-15s47-14 47-14l-5-12-23-5z" style="mix-blend-mode:multiply" fill="#7ebb15"/><path class="aa" d="M469 614c14-4-7-6-20-11s-17-11-1-11 16-6 11-10-10-15 3-15 10-12 10-16 5-6 5-7a24 24 0 00-16 7c-14 13-88 71-88 71s19-8 34-8 48 4 62 0zM492 648c1-12-15-12-27-9h10c5 4-6 11-41 8-20-2-36 1-45 4a242 242 0 0150 3c27 5 51 6 53-6z"/><path class="ab" d="M170 377l49-4 31 12h11l80 30 57-11 22-13 16-8v-6l-42-32-50-20-39-18-21-3-34 17-34 24-33 10-13 15v7z"/><path class="ac" d="M170 371l49-4 31 12h11l80 30 57-11 22-13 16-8-2-8-40-30-50-20-39-18-21-3-34 17-34 24-33 10-13 15v7z"/><path class="ab" d="M216 339l12 11 31 3 40 13 23 11 39-2 29-17 22-6 1-14-11-8-62-21-28-11-30-4-36 14-16 14-14 6v11z"/><path class="ac" d="M216 333l12 11 31 3 40 12 23 12 39-3 29-16 22-6 1-8-11-15-62-20-28-12-30-3-36 14-16 13-14 7v11z"/><path class="ad" d="M325 345l-21-8-14 4v3l11 5 19 3 8 5h7l9-3 1-5-13-3-7-1zM273 307l-14 3-6 4 2 5 7 1 3-4 8-2 3-4-3-3z"/><path class="ab" d="M285 321l3-20 13-13 2-8 30-3 33 4 28 1 6 7 2 6 7 38-7 3-13 2-28-4-34 4-22-10-17-3-3-4z"/><path class="ae" d="M303 280l1 9 31 15 29-10 8 4 11-4 4-3h4l9-2-6-7-28-1-33-4-30 3z"/><path fill="#898989" d="M364 294l-29 10 1 12-1 6v8l-4 6-4 2 34-4-2-18 2-6-3-3 3 1 3-9v-5z"/><path class="ae" d="M390 334l-3-4-9-3-4-7-2-7 6-8-8 8-1 14-8 7 28 4 13-2-12-2z"/><path class="ag" d="M305 328l4-10 1-7 2-4 2-4h1l1 8-1 7 2 4-2 4 1 7-11-5z"/><path class="ae" d="M297 297l2-3 5-5-1-9-2 8-13 13-3 20 4-18 8-6z"/><path class="ah" d="M320 290l14 7 11-2 8-1 1-3-8-6-9 2-7-4-8 3-2 4z"/><path class="ad" d="M344 285l-7 2-7-4-8 3-2 4 2 1 1-3 8-2 4 2 9-3z"/><path class="ab" d="M318 345l-21-8-14 4v3l11 5 19 3 15 5 9-3 1-5v-1l-13-2-7-1z"/><path class="ah" d="M318 343l-21-8-14 4v3l11 6 19 2 15 5 9-3 1-4-13-4-7-1z"/><path class="ab" d="M273 308l-18 1-5 3v2l2 5 7 1 3-4 7-2 4-4v-2z"/><path class="ah" d="M270 305l-15 3-5 4 2 5 7 1 3-4 7-2 4-4-3-3z"/><path class="ab" d="M387 369l-20 11-9 3v4l10 4 22 2 12-10 9-3 3-10v-3l-11 1-8 5-7-2-1-2z"/><path class="ah" d="M386 367l-19 10-9 3v3l10 5 22 2 12-10 9-3 3-10-11-2-8 4-7-1-2-1z"/><path class="ad" d="M259 347v6l29 9-29-7-31-5v-6zM322 371v6l34 1 11-1 11-6 10 2 7-4 8-4 9-8h6l-6-5 1-14-1 8-22 6-29 16-39 3zM424 369h-10v-2l-3 10-9 3-12 10v3l9-4 8-1 7-4 7-10 4-2-1-3zM327 338l29-2 18 2h15l-28-4-2-18 2-6-3-3 3 1 3-9v-5l-29 10 1 12-1 6v8l-4 6-4 2z"/><path style="mix-blend-mode:multiply" fill="#c6c6c6" d="M372 298l8 1-2 6-6 8 2 7 4 7 9 3 3 4 12 2h10l-3-3-7-38-2-6-9 2h-4l-4 3-11 4z"/><path class="ad" d="M330 283l-4 4v4l4 4-10-5 2-4 8-3z"/><path class="ag" d="M297 297l1 9 2 6v15h1l2-12v-9l3-4 2-5 3-3h4l-11-5-5 5-2 3z"/><path class="ad" d="M250 379v6l16 2 2-6-7-2h-11z"/><use class="e" transform="rotate(-67 859 -497) scale(.09)" xlink:href="#c"/><path class="aj" d="M1101 341l-10-3-10-5-10-3a13 13 0 00-10 4c-5 5-6 13-9 20a75 75 0 01-4 10 35 35 0 00-3 5 39 39 0 00-1 6 23 23 0 01-2 5l-3 6-5 9a4 4 0 000 1l-10 22-4 11-4 11a4 4 0 000 1 31 31 0 00-2 5 35 35 0 01-3 6 37 37 0 00-4 7l-2 7-3 7-1 5a7 7 0 011 1l7 4c2 2 3 6 1 7v1a8 8 0 013 0 22 22 0 014 2l11 1a2 2 0 011 2h1a2 2 0 012 1 10 10 0 013 3 28 28 0 003 2 11 11 0 003 2 19 19 0 006 0 5 5 0 002-4 22 22 0 012-10l6-10 10-22 9-23 19-46 10-24 5-11a8 8 0 000-6 8 8 0 00-4-4l-2-1c1 1 0 0 0 0a3 3 0 00-3-2z"/><path class="ak" d="M1013 446c-2 5-5 7 0 9 2 1 3 3 5 3 2 2 5-6 6-8 0-1 5-10 3-11s-8-4-9-3c-3 1-3 5-4 7zm0 0l1-3c1-2 1-6 4-7 1-2 7 2 9 2 2 2-2 11-3 12-1 2-3 10-6 9l-5-3c-5-2-3-5 0-10z"/><path class="al" d="M1013 446c-2 4-6 8 0 10 5 2 5 8 10-5 1-2 6-11 4-12l-6-3c-3-1-3-1-5 1a9 9 0 00-1 4 40 40 0 01-2 5z"/><path class="am" d="M1013 446l-3 7a3 3 0 002 2l4 1c3-1 3 0 5-4 1-1 4-7 3-9s6-1 1-5c-2-1-6-2-8-1h-1a9 9 0 00-1 4 41 41 0 01-2 5zm5-6v1l-1 2 1-3zm5 0c-2 2 0 0 0 0zm-6 16l4-1c1 0-1 3-2 2l-2-1z"/><path class="an" d="M1034 405c1 0 7 3 8 2 1 0 5-3 2-4l-10-5c-1 1-7 5 0 7zm0 0c-6-1-3-6-1-7s10 3 12 4c2 2-1 4-2 6l-9-3z"/><path class="ao" d="M1034 405l6 2h3c1-1 2-1 2-4l-6-3-6-2c-4 3-3 6 1 7z"/><path class="ap" d="M1037 399l-4-1c-3 3-3 4-2 6a17 17 0 012 0l6 2c3 1 2 0 3-1a2 2 0 001-3l-3-2a20 20 0 00-3-1z"/><path class="an" d="M1026 496l8 5s5-3 3-5c-1-1-7-6-9-6-1 0-8 3-2 6zm0 0c-5-2-1-6 1-7 3 0 9 6 11 7 2 2-2 4-3 5l-9-5z"/><path class="ao" d="M1026 496l6 3 2 2c2-1 3-1 4-4l-5-5c-1-1-5-3-6-2-4 2-4 4-1 6z"/><path class="ap" d="M1031 491c-2-1-3-2-4-1-3 1-4 3-3 4a16 16 0 012 1l5 3c3 2 2 0 4 0a2 2 0 001-2l-3-3a20 20 0 00-2-2z"/><path class="ak" d="M1071 415c-2 8-4 8-7 14-1 3-14-6-9-10l2-4 4-6 7 4 3 2zm0 0l-3-2-7-4-2 3-3 7c-5 4 7 12 8 10 3-6 5-6 7-14z"/><path class="aq" d="M1071 415c-2 7-5 8-7 14-1 3-15-7-8-11l3-6c2-3 1-4 7 0l5 3z"/><path class="am" d="M1061 429c-4-1-10-8-5-11l3-6c1-2 1-3 3-3a2 2 0 010 1c-2 4 1 3 1 3a3 3 0 002-2l1 1a30 30 0 014 2 5 5 0 01-2 2c-1 0-8-1 0 1-1 4-5 1-6 1-7-3-3 1-1 3 4 6-3-2-3-2-3 0 1 4 2 4 3 4 3 6 1 6z"/><path class="an" d="M1083 387c0 3-1 10-6 7-3-2-1-2-5-2-3-1-1-3 0-7 0-2 1-12 4-11 2 0 9 2 9 5a31 31 0 01-1 4l-1 4zm0 0l1-4 1-5c-1-2-8-4-9-4-2 0-4 10-4 12-3 7 0 3 4 7 5 4 6-1 7-6z"/><path class="ao" d="M1083 387c0 2-1 12-7 6-3-3-7 0-5-7 1-3 2-13 5-12 12 4 8 3 8 12a5 5 0 01-1 1z"/><path class="ap" d="M1072 384l1-4a6 6 0 012 2c1 1 4-2-1-6l2-2 2 1a19 19 0 003 2c3 2 3 6 1 8-1 1-1 10-4 6-3 0-4 0-5-4-3 0 1 0-1-3z"/><path class="an" d="M1086 342c-1 3-2 10-7 7l-4-3c-4-1-2-3-1-6 0-2 1-12 4-12 2 1 9 3 9 5a31 31 0 01-1 5v4zm0 0v-4l1-5c-1-2-8-4-9-4-2-1-4 10-4 12-3 7 0 3 4 6 5 5 6-1 8-5z"/><path class="ao" d="M1086 342c-1 1-2 11-8 6-3-3-7 0-5-7 2-3 2-13 5-13 12 5 8 4 8 12a4 4 0 010 2z"/><path class="ap" d="M1074 339l1-4a6 6 0 012 1c1 1 4-1-1-5 0-2 1-3 2-3l2 1a19 19 0 003 3c3 1 3 5 1 8-1 0-1 10-4 6-3 0-4 0-5-4-3 0 1 0-1-3z"/><path class="ak" d="M1047 461c-5-5-6-7-11 3-3 6-1 6 4 8h3c3-1 5-8 4-11zm0 0c1 3-2 11-3 11a1 1 0 01-1 1h-4c-4-3-6-2-3-9 5-9 6-9 11-3z"/><path class="ar" d="M1047 461c-3-2-5-7-9-1-6 11-3 9 3 13l3-1c1 1 4-8 3-11z"/><path class="as" d="M1044 458c-2-2-4-2-6 2-5 10-4 10 0 12a1 1 0 001-1c3-5 4-1 5-7l-1-2c2-1 2-3 1-4zm-5 3c1 0 2-1 2 1-4 7-5 4-2-1z"/><path class="ak" d="M1099 341c-5-6-6-7-11 2-3 7-1 6 3 9h4c2-1 4-9 4-11zm0 0c1 2-2 10-4 11h-4c-4-3-6-2-3-9 4-9 6-8 11-2z"/><path class="ar" d="M1099 341c-3-3-6-8-9-1-6 11-4 9 2 13l3-1c1 0 5-9 4-11z"/><path class="as" d="M1095 337c-1-1-3-1-5 3-5 9-4 9 0 11a1 1 0 001 0c3-6 3-2 4-7v-3c2-1 1-3 0-4zm-4 3s2-1 1 1c-3 7-4 4-1-1z"/><path class="ak" d="M1065 409c2-4 6-11 5-14 0-2-4 0-6 3l-1 3c-2 6-1 4 0 7l2 1zm0 0h-2c-1-4-3-1 0-8l1-4c2-3 7-5 7-2s-4 10-6 14z"/><path class="aq" d="M1065 409c4-7 8-17 3-15-4 2-3 4-5 7-3 7-1 4 0 7l2 1z"/><path class="am" d="M1070 394h-2c-4 2-3 3-5 7-3 6-1 4 0 7 2-2 3-7 3-7 7-5-2-2 3-6l1-1z"/><path class="an" d="M1027 455c0 3-4 5 0 6l4 3c2 1 4-4 5-5 2-3 3-5-1-8l-7-3-1 7zm0 0c0-1-1-6 1-7l7 3c5 2 3 5 1 8-1 1-2 7-5 5l-4-2c-4-2-1-3 0-7z"/><path class="ap" d="M1027 455c0 3-5 5 1 7 1 0 4 7 7-2 1-2 8-7-3-10-3-1-5-4-5 3v2z"/><path class="ao" d="M1027 455c0 3-4 4-1 6a5 5 0 011 1h1l2 2c3-1 4-9 6-9 2-1 0-3-1-4a19 19 0 00-3-1 3 3 0 00-2 3l-3 1a6 6 0 000 1z"/><path class="ak" d="M1045 478c-1 7-4 6-6 12-2 3-14-6-9-10l1-3 4-6 7 4 3 3zm0 0l-3-3-7-4c-2-1-2 3-2 3l-3 7c-5 3 7 12 8 9 3-5 5-5 7-12z"/><path class="ar" d="M1045 478c-1 6-5 7-6 12-1 3-15-6-9-10l3-6c2-3 1-4 7 0l5 4z"/><path class="as" d="M1031 487c-2-3-3-5-1-7l3-6c2-3 1-4 5-1a7 7 0 01-1 1v6c3 3 0 2 2 3 0 1-3 5-4 3-1-1-3 0-4 1zm9-13a17 17 0 00-1 3c-1 2 1 1 2 3 0 1 3 1 2-2a13 13 0 000-2l-3-2z"/><path class="at" d="M1078 361l-6 12-8-1c-5-3 0-12 1-16 1-2 5-10 8-9l6 2-1 7v5zm0 0v-5c0-2 2-6 1-7a57 57 0 00-5-2c-5-2-11 14-12 17-2 7 3 11 10 9l6-12z"/><path class="ar" d="M1078 361l-6 12s-15 3-9-12c1-3 7-16 11-14 6 3 6 0 4 8v6z"/><path class="as" d="M1069 373c-3 0-9-1-7-9l2-1a3 3 0 000-4c2-4 5-12 8-12 0 2 7-2 4 10-1 5-2 2-3 1-4-4 1 3 1 4 1 5-6 2-4 7l-1 4z"/><path class="ak" d="M1071 412c3-3 9-11 9-15 0-2-7-1-8 2l-3 4c-4 7-2 4 0 9h2zm0 0h-2c-2-5-4-2 0-9l2-4c2-3 10-5 9-1 0 4-5 11-9 14z"/><path class="aq" d="M1071 412c6-6 13-18 6-16-6 1-5 3-8 7-4 7-1 4 0 9h2z"/><path class="am" d="M1076 396c-5 1-4 3-7 7l-1 2a1 1 0 010 1 3 3 0 002 4c4-1 0-8 5-11 2 2-1 5-2 7 2 1 5-8 5-8 1-1 0-2-2-2z"/><path class="ak" d="M1068 342c3-3 7-11 4-13-3-1-12 2-13 4l-1 4c-2 6 0 3 6 5h4zm0 0l-4 1c-6-3-8 0-6-6v-4c2-2 12-7 14-4s-1 9-4 13z"/><path class="aq" d="M1068 342c5-6 9-17-3-13-8 4-6 4-7 8-3 6 1 3 6 5h4z"/><path class="am" d="M1065 330c-8 3-6 3-7 7l-1 1 1 1c0 2 5 2 6 2 6-2-5-5 0-8 6-1 3 3 3 4 4 0 2-7 2-7h-4z"/><path class="an" d="M1047 397l-3 3c-2 1 1 1 2 1l1 2v-3l1-2a3 3 0 000-2l-1 1zm0 0a1 1 0 001 0v2 3c0 2-2 0-2-1-1 0-4 0-2-1l3-3z"/><path class="ao" d="M1047 397l-3 3c-2 1 2 1 2 1s1 3 2 1v-3-1-1a1 1 0 01-1 0z"/><path class="an" d="M1049 398l1 2c1 2 5 3 0 5-1 0-3 2-3-1s2 1 1-3v-2-1zm0 1a3 3 0 00-1 1c1 1 1 4-1 3 0 1 0 3 2 2s5-1 2-3l-2-3zm0-1z"/><path class="ao" d="M1049 398l-1 2s1 4-1 3c0 0 0 4 2 2 1-1 5-1 2-3l-2-3-1-1z"/><path class="an" d="M1036 425c-1-1 2-5 2-7 1-3 2 2 1 4l-3 3zm0 0c3-3 4-3 3-7a4 4 0 00-1 1c0 1-3 5-2 6z"/><path class="aq" d="M1036 425c-1-1 2-5 2-6l1-2c1 5-1 5-3 8 0 1 0 0 0 0z"/><path class="an" d="M1033 490l6 4c4 2-2 2-3 0l-4-3a1 1 0 011-1zm0 0v1c3 3 3 4 7 4a4 4 0 00-1-1l-6-4z"/><path class="aq" d="M1033 490l6 4 1 1c-4 0-4-1-7-4v-1z"/><path class="an" d="M1068 388c0-2 1-2 2-1s-3 4-4 7c-1 2-3 4-1-1l3-5zm0 0a22 22 0 01-3 5c-3 5 0 3 1 1l4-4c2-3-2-6-2-2z"/><path class="aq" d="M1068 388c0-1 0-3 2-1s-3 4-4 7c-1 2-4 4-1-1a18 18 0 003-5z"/><path class="an" d="M1071 395a22 22 0 000 3c2-1 1-2 5-3h-5zm0 0c1-2 9-1 4 1-2 0-5 5-4-1z"/><path class="aq" d="M1071 395v3l2-2c2-1 5-1 3-2l-5 1z"/><path class="an" d="M1100 342a19 19 0 000 3c2-1 1-2 5-3h-5zm0 0c0-2 9-1 4 1-2 1-6 5-4-1z"/><path class="aq" d="M1100 342v3l2-1c2-2 5-1 3-3l-5 1z"/><path class="an" d="M1080 404h3l1-3s1-7-1-5l-3 6a6 6 0 000 2zm0 0v-1c-1-2 1-4 2-6 2-3 2 2 2 3l-1 3-3 1z"/><path class="ao" d="M1080 404l3-1c2-1 1-2 1-4 0-1 0-5-2-2 0 1-4 4-2 6v1z"/><path class="ak" d="M1028 479l3-8c1-1 3-7 4-6s-4 13-6 15c-1 1-1 1-1-1zm0 0c0 2 0 2 1 1 2-2 6-14 5-15l-2 4a24 24 0 00-1 2l-3 7z"/><path class="ar" d="M1028 479l3-8a18 18 0 002-4c1-3 3-3 1 2l-5 11s-1 2-1 0v-1z"/><path class="an" d="M1041 454a23 23 0 00-2 2c2 0 2-1 5 1a2 2 0 001 0l-4-3zm0 0c1-1 7 5 2 3-2-1-7 0-2-3z"/><path class="aq" d="M1041 454l-2 2h2c3 0 4 3 4 0 0 0-3-3-4-2z"/><path class="an" d="M1052 462a22 22 0 002-2l-7-2c-1 1 3 4 5 4zm0 0c-2 1-10-6-4-4 3 1 10 0 4 4z"/><path class="aq" d="M1052 462l2-2-3-1c-3 0-6-3-4 0l5 3z"/><path class="at" d="M1024 459l-1-5 1-4c1-1 2-3 2-1a51 51 0 010 6c0 1 0 3-2 3a1 1 0 010 1zm0 0c2-1 2-3 2-4l-1-6a6 6 0 000 1l-2 4 1 5z"/><path class="ar" d="M1024 459l-1-4c-1-2 2-4 2-5 0 0 1-4 1 0a13 13 0 010 3v2a3 3 0 010 2l-2 2z"/><path class="ak" d="M1035 462l3-4c0-2 2-1 0 1l-1 2-2 3v-2zm0 0v1c0 2 2-4 3-4l1-1h-1l-3 4z"/><path class="aq" d="M1035 462l3-4c0-1 2-1 0 1l-1 2a24 24 0 00-1 2c-1 2-2 0-1 0v-1z"/><path class="ak" d="M1040 490l2-4c1-2 3-1 1 1l-1 2s-2 4-3 3l1-1a1 1 0 010-1zm0 0l-1 1c0 2 3-3 3-4l1-1-3 4z"/><path class="aq" d="M1040 490l2-4c1-1 2-1 1 1l-1 2a24 24 0 00-2 2c0 2-1 0 0 0v-1z"/><path class="an" d="M1025 486a44 44 0 005 2c0-1-2-2-2-5-1-1-2 1-2 2l-1 1zm3-3zm-3 3l1-3h2c0 3 1 3 3 5 1 2-6-2-6-2z"/><path class="ao" d="M1025 486l3 2h2l-2-5h-1l-2 3z"/><path class="an" d="M1050 431v-3l2-1a9 9 0 001-2c1-2 4 1 3 2l-4 2-2 2zm0 0l3-3 3-1s-2-3-3-2a9 9 0 01-1 2l-2 1v3zm6-4"/><path class="ao" d="M1050 431v-3l2-1 1-2 3 1c1 1-2 1-3 2a10 10 0 00-3 3z"/><path class="an" d="M1049 429l3-4 1-1c-1-1-1 1-2 1-3 1-3 0-2 3zm0 0a3 3 0 01-1-2l1-2c3 0 2-2 3-1 2 0 0 1 0 1 0 2-2 3-3 4z"/><path class="ao" d="M1049 429l3-3c0-1-1-1 1-2h-1c-1 2-4 0-4 2l1 3z"/><path class="ak" d="M1027 446l3 2-2-3a2 2 0 000-1l-1 2zm3 2l-3-2v-1c1-3 1 0 1 0 1 0 3 2 2 3 0 0-4-1-3-2z"/><path class="aq" d="M1027 446c-1 1 2 1 2 2 3 1-1-3-1-3 0-1 0-2-1 0v1z"/><path class="ak" d="M1021 460c-1 1 2 1 3 1-1 0-2-1-2-3l-1 2zm3 1l-3-1v-1c1-3 1 0 1 0l2 3s-4-1-3-2z"/><path class="aq" d="M1021 460c-1 1 1 1 2 1 2 1-1-2-1-2 0-1 0-2-1 0v1z"/><path class="an" d="M1038 452s1 3 3 0c1-2-4-1-4-1a4 4 0 001 1zm-1-1v1a1 1 0 010-1h3c2 0 2 1 1 1-2 3-3 0-3 0z"/><path class="ao" d="M1038 452c1 0 1 3 3 0 0 0 1-1-1-1h-3l1 1z"/><path class="ak" d="M1059 410l-2-4c-1-2-1-2 1-2l2-1 1 3c1 1 0 2-1 3l-1 1zm0 0l1-1c0-1 2-1 1-2l-1-4-2 1c-1 1-2 0-1 2l2 4z"/><path class="aq" d="M1059 410l-2-4c-1-2 0-2 1-2l2-1c1-1 0 2 1 4s-1 2-1 2l-1 1z"/><path class="ak" d="M1064 432c3-2 5 1 3-2-1-1 1-4-1-3l-1 3c-2 1-1 2-1 2zm0 0v-2l2-3c3-2 1 2 2 3 2 3-1 0-4 2z"/><path class="aq" d="M1064 432c2-2 6 1 3-2 0-1 1-4-1-3l-2 3v2z"/><path class="ak" d="M1071 415c-1-1 1-2 2-3 2-5 4-5 3-2l-2 3c-1 2-1 3-3 2zm0 0h1l2-4 2-2a18 18 0 00-3 3l-2 3z"/><path class="aq" d="M1071 415c-1-1 1-2 2-3 0 0 3-5 3-3a7 7 0 00-1 2l-2 4h-2z"/><path class="an" d="M1086 378l1-2 2-2a9 9 0 001-2c1-1 4 2 3 2 0 1-2 0-5 3 1 0-1 2-2 1zm0 0c1 1 2-2 4-3l3-1s-2-2-3-1a8 8 0 01-1 1l-2 2-1 2zm7-4"/><path class="ao" d="M1086 378l1-2 2-2 1-1c1-1 2 0 3 1s-3 1-3 1a10 10 0 00-3 3h-1z"/><path class="an" d="M1081 350l2 1v3s-3 7-4 5v-8a7 7 0 012-1zm0 0c-3 2-2 5-2 7 0 4 2-1 3-2l1-4-2-1z"/><path class="ao" d="M1081 350l2 1c0 3-1 2-2 5 0 1-2 5-2 1 0-1-1-6 2-7z"/><path class="an" d="M1093 365c-1-1 2-6 2-8 1-3 2 1 1 3l-2 5h-1zm0 0l1-1c2-4 3-4 2-7a4 4 0 00-1 1l-2 7z"/><path class="aq" d="M1093 365l2-7 1-2c1 4-1 5-2 8l-1 1z"/><path class="an" d="M1067 350c-1-1 2-6 2-7 2-3 3 2 1 4l-3 3zm0 0h1c2-4 3-4 2-8a4 4 0 000 1l-3 7z"/><path class="aq" d="M1067 350c-1-1 2-5 2-6l1-2c1 5 0 5-2 8h-1z"/><path class="an" d="M1091 334c1 1-2 6-3 7-1 3-2-2 0-4 0 0 2-4 3-3zm0 0h-1c-2 4-3 3-2 8a4 4 0 000-1c1-2 4-6 3-7z"/><path class="aq" d="M1091 334c1 1-2 5-3 6l-1 2c-1-5 1-5 3-8h1z"/><path class="ak" d="M1047 477c2-4 5-11 5-14 0-2-4 1-5 3l-1 4c-3 6-1 3-1 7h2zm0 0h-2c-1-3-2-1 1-7l1-4c1-3 6-6 5-2l-5 13z"/><path class="ar" d="M1047 477c3-6 8-17 3-14-3 2-3 3-4 7-3 6-1 4-1 7h2z"/><path class="as" d="M1052 463h-2c-3 2-3 3-4 7-3 6-1 4-1 6 2-2 3-6 3-7 6-5-1-2 3-5a4 4 0 001-1z"/><path class="at" d="M1071 378v-3l2-3h2a35 35 0 01-2 5s-1 2-2 1zm0 0c1 1 1-1 2-2l1-4-3 3v3z"/><path class="ar" d="M1071 378v-3l3-3s2-2 0 1a11 11 0 010 2l-1 2a2 2 0 01-1 1h-1z"/><path class="at" d="M1067 374l2 2c1 1 1-1 1-1l1-1h-3a2 2 0 00-1 0zm0 0h3c2-1 1 1 0 1 0 1 0 3-1 1l-2-2z"/><path class="ar" d="M1067 374l2 2c1 2 1-1 1-1l1-1h-2l-1-1c-1 0-3 1-1 1z"/><path class="at" d="M1059 373l2-3v-4c0-1 0-2-1-1a42 42 0 00-2 5l1 3zm0 0v-3l2-5a5 5 0 010 1v4l-2 3z"/><path class="ar" d="M1059 373l2-3v-4s0-3-1 0a12 12 0 00-1 2v2a3 3 0 00-1 1l1 2z"/><path class="an" d="M1072 379a22 22 0 00-2 3v3a6 6 0 002-2v-4zm0 0v4a6 6 0 01-2 3v-4a9 9 0 012-3z"/><path class="ao" d="M1072 379l-2 2a3 3 0 000 1 15 15 0 00-1 3h2a4 4 0 001-2v-4z"/><path class="an" d="M1084 375a23 23 0 001 2l4-4c-1-1-4 1-5 2zm0 0c0-2 8-4 4-1-2 2-4 7-4 1z"/><path class="aq" d="M1084 375l1 2 1-1c2-3 5-3 2-4l-4 3z"/><path class="at" d="M1032 436c-3 6-5 9 1 12 3 2 8 4 9-1 0-3 2-4 3-8l1-4c3-6 2-9-5-11-3-2-4 2-6 5a30 30 0 00-3 7zm0 0c0-3 1-5 3-7 2-4 2-7 6-6 7 2 9 6 6 12l-2 4c0 4-3 5-3 8-1 5-6 3-9 1-6-3-4-6-1-12z"/><path class="ar" d="M1032 436c-1 1-3 5-3 8 0 4 13 10 13 3 0-3 3-5 3-9 0-2 8-10-3-14-2-1-4-2-5 2l-5 10z"/><path class="as" d="M1032 436a11 11 0 01-1 1c4 5 1 4-1 3a13 13 0 00-1 4 3 3 0 001 1c4 2 11 5 10 1-1-3 4-7 2-8-6-2-8-5-9-6a18 18 0 00-1 4zm13-11c0 1-1 2 1 6 2 3-1 5-2 3l-2-2c4 6-1 5-2 4s-4-1-6-5l3-5c1-4 3-3 5-2a13 13 0 013 1z"/><path class="au" d="M1030 443v-3l2 1c1 0 2 0 2-2a4 4 0 00-1-2c1 1 2 3 1 4-1 2-3 1-3 0a6 6 0 01-1 2zm1-2z"/><path class="at" d="M1001 469c-2 6-5 9 1 12 3 2 8 4 9-1 0-3 2-4 3-8l1-4c3-6 2-9-5-11-3-1-4 2-6 5a31 31 0 00-3 7zm0 0c0-3 2-4 3-7 2-3 3-7 6-6 7 3 9 6 6 13-2 2-1 1-1 3-1 4-4 5-4 8 0 5-6 3-9 2-6-4-4-7-1-13z"/><path class="ar" d="M1001 469c0 1-3 5-3 8 0 4 13 10 13 3 0-3 3-5 3-9 1-2 8-10-3-14-2-1-3-2-5 2l-5 10z"/><path class="as" d="M1001 469a12 12 0 01-1 2c4 4 1 3-1 2a12 12 0 00-1 4 3 3 0 001 1c4 3 11 5 10 1-1-3 5-7 2-8-6-2-8-5-9-6a18 18 0 00-1 4zm13-11c0 1-1 2 1 6 2 3-1 5-2 3-1-1-5-7-2-2 4 6-1 5-2 4s-4-1-6-4l3-6c2-4 3-3 5-2a14 14 0 013 2z"/><path class="au" d="M999 476v-3l2 1c1 0 2 0 2-2a4 4 0 00-1-2c2 1 2 3 1 4-1 2-2 1-3 0a6 6 0 01-1 2zm1-2z"/><path class="at" d="M1055 417c-3 7-4 9-10 7-4-2-5-2-5-7l4-8c1-2 6-3 9-4 2-1 4 2 4 5l-2 7zm0 0a41 41 0 002-6c1-4-2-7-4-6l-10 3-3 9c0 5 1 6 5 7 6 2 7 1 10-7z"/><path class="ar" d="M1055 417c-2 5-2 6-5 8-2 0-9-2-9-4-1-7 0-5 2-12 1-3 7-2 10-4 1-1 2 0 3 1 3 3 0 8-1 11z"/><path class="as" d="M1048 425c-3-1-7-2-7-4-1-7 0-5 2-12a3 3 0 011-1c2 0 3 2 4-1a17 17 0 005-2c5 6-1 6-1 9 0 4-3 4-3 7a3 3 0 01-1 3zm-5-8c-2 4 3 4 1 2v-3l-1 1z"/><path class="au" d="M1042 415l1-6h4l1-1c0 2-1 3-3 2-2 0-3 4-3 5z"/><path class="at" d="M1112 355c-3 7-4 8-10 6-4-1-5-1-4-6l3-9 9-3c2-1 4 2 4 5l-2 7zm0 0a41 41 0 002-6c1-4-2-7-4-6-3 1-8 1-10 3l-3 9c0 5 1 6 5 7 6 2 7 0 10-7z"/><path class="ar" d="M1112 355c-2 4-2 6-5 7-1 1-9-1-9-3-1-7 0-5 2-12 1-3 7-2 10-4 1-1 2 0 3 1 3 3 0 7-1 11z"/><path class="as" d="M1105 362c-3 0-7-2-7-3-1-7 0-5 2-12a3 3 0 011-1c2 0 3 1 4-1v-1a17 17 0 005-1c5 6-1 6-1 9 0 4-2 3-2 7 0 2-1 3-2 3zm-5-7c-2 4 3 4 1 2v-3l-1 1z"/><path class="au" d="M1099 353l1-6h4l1-1c0 1-1 3-3 2s-3 4-3 5z"/><path class="at" d="M1054 385c-2 5-8 12-1 17 3 1 7 2 8-2 1-5 9-18 9-22-1-2-10-10-13-2l-3 9zm0 0a77 77 0 013-10c3-7 12 0 13 3s-7 17-9 22c-1 6-9 3-11-1s2-10 4-14z"/><path class="ar" d="M1054 385s-5 9-5 12c1 6 11 8 12 3 1-4 11-20 9-23-3-3-10-8-13-2l-3 10z"/><path class="as" d="M1054 397c0-5 5-10 1-3 0 0 0 6-2 4l1-1zm0-12s-5 9-5 12a8 8 0 006 6 3 3 0 003-3c1-2-1-1 2-5 2-5 2-8 1-13-1-3 4-8 3-6-2 4-4 9 1 11l4-10c-3-3-10-8-12-2l-3 10z"/><path class="au" d="M1060 393v-8c-1-3-1-7 1-8a5 5 0 001-1v1c-2 2-2 5-1 6 0 5 1 5-1 10z"/><path class="ak" d="M1035 394l3-10c1-2 4-14 7-15l7 3c4 0 2 3 1 7l-4 12c-2 5-3 10-10 7-3-1-4-1-4-4zm0 0c0 4 2 3 6 5 5 1 6-4 8-8l4-12c1-4 3-6-1-7l-7-2c-2 0-5 10-6 12l-4 12z"/><path class="aq" d="M1035 394c0-4 2-5 3-9 1-2 4-15 6-15 2-1 6 2 8 2s3 1 2 3l-5 16c-1 2-2 10-9 8l-2-1c-2-1-3-1-3-4z"/><path class="am" d="M1035 394c0-4 2-5 3-9 1-2 4-15 6-15 2-1 6 2 8 2a3 3 0 012 1 39 39 0 01-1 6l-1 2-1 1h-3l-1-2v-1l1-3v-2-1l-1 1a7 7 0 010 3l-2 5 1 3-2 8c-1 2-2 5-4 6l-2-1c-2-1-3-1-3-4z"/><path class="av" d="M1037 397c-2-2 0-5 0-8l2-8a17 17 0 014-7h1l-2 2-4 12c0 4-2 6-1 9z"/><path class="ak" d="M1062 448c2 0 9 1 8 5-1 5-9 25-14 23l-6-3c0-3 9-22 10-25a8 8 0 012 0zm0 0a5 5 0 00-2 0c-2 3-10 22-10 25 0 2 4 3 5 3 7 3 14-18 16-23 1-4-7-5-9-5z"/><path class="ar" d="M1062 448c2 0 9 1 8 5-1 5-9 26-15 23-7-3-7-1-1-14l6-14a7 7 0 012 0z"/><path class="as" d="M1062 448h2a1 1 0 010 1c-2 3 4 2-2 6 0 6-1 6-5 10-2 1 3 7 3 0 0-3 1-1 2-4 1-2 1 2 1 5-1 1 0 2 2 1-3 6-7 10-10 9-5-2-6-2-4-7l1-3 2-4 6-14a7 7 0 012 0zm5 1c-1 0-3 1-2 3v4c5 1 4 0 3 4l2-7c1-2-1-3-3-4z"/><path class="au" d="M1051 473c-1-5 1-3 2-5v-4a57 57 0 015-9l-4 11-1 3c-1 2-2-1-2 4z"/><path class="an" d="M1077 437c-2-3-9-6-12-4l-3 6c-2 2-2 4 0 6 7 5 14 2 15-6zm0 0v2c-1 8-8 12-15 6-2-2-1-3 0-6s0-6 4-7 9 2 11 5z"/><path class="ao" d="M1077 437c-2-3-14-8-14 0 0 3-6 5 2 10 7 4 13-3 12-10z"/><path class="ap" d="M1070 433c-4-1-7 0-7 4 0 3-5 5 0 9 1-2-1-4 5-2 3 2-1 2-2 3a7 7 0 005 0 4 4 0 000-5c-2-2 2-7-1-9z"/><path class="aw" d="M1070 443a10 10 0 010-6l-1-3h1c2 2 1 3 1 5l-1 4z"/><path class="an" d="M1088 409c-2-2-8-7-10-3l-6 12-3 7c-1 4-1 4 3 6 2 1 5 3 6 2l3-6 3-10s5-7 4-8zm0 0c1 1-3 7-4 8 0 4-1 6-3 10l-3 6-8-2c-3-2-2-3-1-6l3-7 6-12c2-4 8 1 10 3z"/><path class="ao" d="M1088 409c-2-2-8-7-10-3l-6 12-3 7c0 2-3 4 3 6 5 2 6 4 8-1 1-3 5-10 4-13 1-1 5-7 4-8z"/><path class="ap" d="M1084 406c-2-2-5-3-6 0l-6 12-3 7c0 2-3 4 3 7l2 1 3-3c-1-4 5-11 4-12s-1-2-3-1c-3 2-1 2-5 2-4 1 8-5 8-7-2-4 2-5 3-6z"/><path class="aw" d="M1076 415l4-3v1c0-2 0-6 2-5-2 1 0 3-1 5l-5 2z"/><path class="an" d="M1094 373c1 0 7 2 8 1 0 0 6-7 4-8-2-2-7-5-10-4-1 1-8 11-2 11zm0 0c-5 1-1-9 2-11 2-2 9 2 10 3 2 2-2 7-4 9-1 2-6 0-8-1z"/><path class="ao" d="M1094 373l5 2 3-1c2-2 4-3 4-8 1-1-4-3-5-3-1-1-4-2-5-1-5 7-5 11-2 11z"/><path class="ap" d="M1104 365l-3-2c-1-1-4-2-5 0-4 5-5 9-3 10l5 1c2 1 6-5 4-6 0-1-1-3 1-1 1 1 2-1 1-2z"/><path class="aw" d="M1094 370l1-4a8 8 0 013-3l-1 2c-2 2-3 3-3 5z"/><path class="ak" d="M1085 350c2 1 9 3 8 6 0 3 1 3-1 7l-3 7c0 2-2 3-4 3-7 4-10-2-7-8 3-5 4-5 6-11a12 12 0 000-4 3 3 0 001 0zm0 0h-1a14 14 0 01-1 4c-1 6-2 6-5 11-3 7 0 12 7 9l5-4 2-7 2-7c1-3-7-5-9-6z"/><path class="aq" d="M1085 350c2 1 10 3 9 6l-3 9c-3 6 0 6-6 9-5 2-9 0-8-6 1-4 5-7 6-13l1-4z"/><path class="am" d="M1085 350l8 4h-2l-1 6c-1 4-4 6-3 9 3 6-9 3-9 2-1-5 0-4 1-6l4-10c0-1 2-4 1-5z"/><path class="av" d="M1079 371c-2-5 0-3 1-5v-3a46 46 0 015-8c-1 1-4 7-4 10l-1 2c-1 2-2 0-1 4z"/><path class="an" d="M1023 419c1 3 0 3-1 6-1 2-4 6-3 8l3 2c1 1 6 3 7 2 4-4 3-7 5-12a69 69 0 015-10c0-1 3-6 1-7l-10-3c-2 0-3 4-4 6a53 53 0 00-3 8zm0 0a41 41 0 013-8c1-2 2-6 4-6l10 3c2 1 0 6-1 8a74 74 0 00-5 9c-1 5-1 8-5 12-1 1-7 0-7-2l-3-2c-1-2 1-6 2-8l2-6z"/><path class="ao" d="M1023 419c0 3 1 2-1 4l-1 4c-2 2-4 5 0 7 1 1 0 2 4 3 3 1 3 1 5-1 3-4 3-7 4-11l5-10a22 22 0 002-5c0-3-3-2-4-3l-3-1c-5-2-5-2-7 3l-4 10z"/><path class="ap" d="M1022 425a13 13 0 00-1 2c-2 2-4 5 0 7l5-1c1-3 4-5 3-9l-1-3 2-5c2-2 1-8 2-11-3-1-3 0-5 4l-2 5c1 4 1 6-3 10l-1 1zm19-14a6 6 0 01-2 2c-6 4-4 8-6 14-1 2-5 8-6 7 0-4 3-3 4-8s-3-2 1-11c1-2 1-7 3-9l2 1c1 1 4 0 4 3l-1 1z"/><path class="aw" d="M1032 406c-3 0-3 0-4 2l-1 8a17 17 0 01-3 5l2-5 1-6c1-2 2-7 5-4z"/><path class="an" d="M1026 481c0-4 0-3 2-6 1-2 3-6 2-8l-2-2c0-1-6-3-7-2-5 3-4 7-6 11a69 69 0 01-4 10c-1 1-3 6-2 7l10 4c2 0 4-5 4-7a52 52 0 003-7zm0 0a41 41 0 01-2 8c-1 1-3 6-5 6l-10-3c-2-2 1-7 2-8a74 74 0 004-10c2-5 1-8 5-12 2-1 7 1 8 2l2 3c2 2-1 6-2 8-2 3-2 2-2 6z"/><path class="ao" d="M1026 481l1-5 2-3c1-3 3-5 0-7-2-1 0-2-5-3-3-1-3-1-5 1-3 3-2 6-4 10l-4 10a22 22 0 00-2 6c-1 2 2 2 3 3l3 1c5 2 5 2 8-4l3-9z"/><path class="ap" d="M1028 475a15 15 0 001-2c1-3 3-5 0-7v-1c-3 0-5 0-5 2-2 3-4 5-4 8 0 1 2 2 1 3 0 2 0 5-2 6-2 2-1 7-2 10 3 1 4 1 6-4l2-5c-1-4-1-5 3-10zm-19 13a6 6 0 011-1c6-4 5-9 7-15 0-1 4-8 6-6-1 3-3 2-5 8-1 5 3 2-1 11l-2 8h-3c-1-1-4-1-3-3v-2z"/><path class="aw" d="M1018 494c2 0 3 0 3-3l2-8a17 17 0 012-5l-1 6-1 6c0 2-2 6-5 4z"/><path class="ak" d="M1046 438c0 5-1 6-3 10s0 6 4 9c3 1 7 2 8-1s-1-1 1-3c3-4 4-5 3-10 0-3 5-10 3-11-9-9-11 0-16 6zm0 0c5-7 7-15 16-6 2 1-3 8-2 11 0 5-1 6-4 10l-1 3c-1 4-5 3-8 1-4-3-6-5-4-9l3-10z"/><path class="aq" d="M1046 438c-1 9-7 12-2 17 3 2 10 6 11 0 1-2 6-6 5-12-1-3 4-10 2-11-9-9-12 0-15 5a4 4 0 00-1 1z"/><path class="am" d="M1046 439v1a29 29 0 016 7l1 3-2-3a19 19 0 00-6-5c-1 6-5 9-1 13 9 7 14 1 9-9-1-3-5-5-1-5l8-1 1-3c-2 2-7-3-11-3-2 0-2 5-4 5zm13 9c-2-1-5-6 1-4a9 9 0 01-1 4zm-7-19c6-2 10 3 7 4-4 2-8 0-8-2a10 10 0 011-2z"/><path class="av" d="M1043 453c-2 1 0-5 1-5a22 22 0 001-4l1-4-1 5-2 6v2z"/><path class="aq" d="M1052 458l-4-11-3-4a6 6 0 013 4l2 2c2 3 3 0 6 3-3-2-4 0-5-2a1 1 0 01-1 0c2 3 4 1 5 3v1c-2-3-4-1-5-4l-2-2 4 10zm-7-15h-1 1z"/><path class="ak" d="M1095 375l6 3c1 3-4 12-5 16-1 3-2 11-7 9-4-1-3 0-4-6l-1-10c1-3 4-11 8-12a5 5 0 013 0zm0 0h-4c-3 2-7 11-7 14l2 13 4 2c5 0 5-7 6-10 1-4 6-13 5-16 0-2-5-2-6-3z"/><path class="aq" d="M1095 375c2 1 6 1 6 3 1 2-2 8-3 10l-3 9c0 4-3 8-7 6-2 0-2 1-3-4 0-3-2-10-1-12 2-4 5-14 11-12z"/><path class="am" d="M1086 402a14 14 0 01-1-3c0-3-2-10-1-12 2-3 4-12 9-12 3 1 4 1 3 8-1 5-2 3-4 9l-5 10z"/><path class="av" d="M1086 396c-2-5-1-16 4-18l1-1-1 1c-4 3-4 13-4 18z"/><path class="ak" d="M1084 393l7-2c3-2 9 0 3-1l-5 2c-4 1-3 0 1 3 3 3-4-2-4-2h-2zM1057 372l-9-3c-4-3-1-6 0-9l7-18 7 2c2 0 6 2 5 4l-5 13c-1 1-4 12-5 11zm0 0l4-11 6-13c1-2-3-3-5-3l-7-2-6 15c-2 6-6 9 1 12l7 2z"/><path class="aq" d="M1057 372l-9-3c-3-2-2-4 0-8l4-11 3-7 7 1c2 0 6 2 5 4a174 174 0 00-7 17l-3 7z"/><path class="am" d="M1048 362v-1l4-11 3-7a8 8 0 012 0l2 2c3-1 3-1 5 1 3 3 0 5-1 4-5-1-2 4-2 7 1 1-4 11-4 12-2 2-3 1-6 0-4-1-3-3-3-3v-5zm3 1a8 8 0 010-2c0-2 0-1-1-1v1c-1 0 0 7 1 2zm10-11s-1 3 1 3c0 0 2-2 0-3l-1-1z"/><path class="av" d="M1051 356c-2 0 4-10 5-11l-1 2-4 9z"/><path class="aq" d="M1053 371a6 6 0 00-1-3c-1-2 0-4 1-5v1c-1 0-2 2-1 4l1 3c-1 0 0 0 0 0z"/><path class="ak" d="M1050 505l-9-3c-4-3-1-6 1-9 1-3 5-17 7-17l7 1c2 1 5 2 4 5l-5 12c0 1-4 12-5 11zm0 0l5-11 5-13c1-2-2-3-4-3l-7-2-7 15c-2 6-5 9 2 12l6 2z"/><path class="aq" d="M1050 505l-9-3c-4-2-1-4 0-8l4-11 4-7 7 2c1 0 5 1 4 4a174 174 0 00-7 16c0 1-2 8-3 7z"/><path class="am" d="M1041 495v-1l4-11 4-7a8 8 0 011 0l2 2c3 0 3-1 5 1 3 3 1 5-1 5-4-1-2 3-1 6l-5 12c-2 2-3 1-5 1-4-2-3-4-4-4v-4zm4 1a8 8 0 010-2c0-2-1-1-1-1l-1 1s0 7 2 2zm10-11s-2 3 0 3a2 2 0 001-3h-1z"/><path class="av" d="M1044 489l5-11v2c-1 4-3 6-5 9z"/><path class="aq" d="M1046 504a6 6 0 00-1-2c-1-2 1-5 1-6v1s-2 2-1 4l2 3h-1zM1084 393l7-2c3-2 9 0 3-1l-5 2c-4 1-3 0 1 3 3 3-4-2-4-2h-2z"/><path class="ax" d="M1096 245l1-1h2l3 2h2l-1 3-7-4z"/><path class="ay" d="M1119 256l1-3 1 1 3 1 2 1-1 3-6-3zM1144 268l2-3 1 1 3 1 2 1-1 3-7-3z"/><path class="ax" d="M1159 300l2 1-1 2-1 3-1 2-2-1 3-7z"/><path stroke-width="1.3" fill="#3f2b0f" stroke="#1d150c" stroke-miterlimit="10" d="M1147 324l3 2-1 2-1 3-1 2-3-1 3-8z"/><path class="ay" d="M1136 350l2 1v1l-2 3-1 2-2-1 3-6z"/><path class="ax" d="M1040 311l-2-1 1-2 1-3 1-2 2 1-3 7z"/><path class="ay" d="M1050 289l-2-2v-1l2-3 1-2 2 1-3 7zM1062 263l-2-2v-1l2-3 1-2 2 1-3 7z"/><path stroke-width="1.4" fill="#3f2b0f" stroke="#1d150c" stroke-miterlimit="10" d="M1105 364l-2 3h-1l-4-2-2-1 2-3 7 3z"/><path class="ay" d="M1081 353l-2 3-1-1-3-1-2-1 1-3 7 3zM1057 342l-1 2h-2l-3-2-2-1 1-2 7 3z"/><path class="bb" d="M1033 329l-1 2 1 1 2 1h2l1 1h3l2-5-5-2-5 2z"/><path class="bb" d="M1042 330v1l-1 2-1 1v1l4 2 3 1h3l1-4a15 15 0 000-2l-8-3zM1059 338l-1 1v1l-1 2 1 1 2 1 1 1 3 1h3l2-4-8-4h-2z"/><path class="bb" d="M1051 334l-1 2-1 3 3 1 1 1 2 1h1l2-1 2-4-7-4-2 1zM1085 350l-1 2-1 1v1l1 1 5 2h2v-3l1-1-5-4-2 1zM1075 345l-2 4v1l1 1h1l1 1 3 1 1 1h2l1-1v-1l2-3-7-4h-3z"/><path class="bb" d="M1068 342l-1 1-1 3v1l2 1 2 1 2 1h1a11 11 0 000-1l2-4-3-2zM1098 356l-2 4 1 1 2 1 1 1 3 1h3l1-2 1-2-6-4h-4z"/><path class="bb" d="M1108 360l-2 4v1l1 1 2 1 2 1 4 2h4l1-2 2-2-10-5-4-1zM1091 353a17 17 0 01-1 1l-1 2 1 2 1 1h1l2 1 2 1a11 11 0 001-2l1-3-2-2z"/><path class="bc" d="M1124 373h-1l-1-1h-2l-1-1v-1l1-2v-1l1-2h1z"/><path class="bb" d="M1045 326l-1 2-1 3h1l2 1 2 1 1 1h1l2-1 2-4-7-4-2 1z"/><path class="bb" d="M1053 330v1l-1 2-1 1v1l4 1 3 2h1l2-1 1-3a15 15 0 000-2l-8-3zM1082 343l-2 2v2l2 2 7 3h2v-3l2-1-8-6-3 1z"/><path class="bb" d="M1070 336l-2 5 1 1v1l2 1 1 1 4 1 1 1h2l1-1v-1l2-3-8-4-4-2z"/><path class="bb" d="M1062 332l-1 3-1 2v1l2 1 1 1 2 1 2 1h1a8 8 0 000-1l2-5-3-1zM1039 327l1 2 2 1h2l2-4-1-1-6 2zM1099 350v2l-1 1-1 2 1 1 3 1 1 1 2 1h3l2-5-8-3-2-1z"/><path class="bb" d="M1109 355l-2 2v3h1l2 2h1l2 1 2 1h2l3-5-8-4h-3zM1091 347l-1 2-1 2 1 1 2 1 2 1 1 1h1l2-1 2-4-7-4-2 1z"/><path class="bb" d="M1121 366l-2-1h-1l-1-1-1-1 1-1 1-2v-1h2zM1052 323l-1 2-1 2v1l3 1 1 1 2 1h1l2-1 2-4-7-4-2 1z"/><path class="bb" d="M1060 327l-1 1v2l-1 1 3 2 4 2h1l2-1 1-3a15 15 0 00-1-2l-7-3zM1088 340l-1 2-1 1v1l2 1 6 3h2v-3l2-1-7-5-3 1z"/><path class="bb" d="M1076 335l-1 3v1l1 1 1 1 2 1 3 1 2 1h2v-1l1-1 2-3-9-4h-4z"/><path class="bb" d="M1068 331a16 16 0 01-1 1l-1 2 1 1 2 1 1 1 2 1 2 1a9 9 0 001-1l1-3-3-3zM1116 353l-2 2v2h-1l-2-1a6 6 0 01-1 0 5 5 0 00-1-1h-1l-1-1a5 5 0 01-1-1l2-4h5z"/><path class="bb" d="M1095 347l1 2 2 1 2 2 3 1 1 1 2-1 2-4-5-4-5-1-1 1-2 2zM1120 359h-3l-2-1-1-1v-2l2-2 1-1 3 6v1zM1046 324v2h1l2 1h2l2-4-1-1-6 2zM1054 321l-1 3h1l3 1 1 1 1 1h1l2-1 2-4-5-3-5 2z"/><path class="bb" d="M1063 323v1l-1 2-1 1v1l4 1 3 2h3l1-4a13 13 0 000-2l-8-3zM1080 330l-1 2v1l-1 2 1 1 3 1 1 1 2 1h3l2-5-8-4h-2z"/><path class="bb" d="M1072 327l-1 2-1 2v1l3 1 1 1h2l1 1 2-1 2-4-7-4-2 1zM1117 353h-2l-2-1-1-1v-4l1-1 2-1 2 7z"/><path class="bb" d="M1106 342l-1 2-1 2v1l1 1 5 2h2v-3l2-1-6-5-2 1z"/><path class="bb" d="M1096 338l-2 4v1h1l1 1 1 1 3 1h4v-2l2-2-7-4h-3z"/><path class="bb" d="M1089 335l-1 1-1 2v2l2 1 2 1 2 1h1a11 11 0 000-2l2-3-3-2zM1075 322l-1 2v1l-1 2 1 1 2 1 1 1 3 1h3l2-5-8-4h-2z"/><path class="bb" d="M1084 327l-1 2-1 2v1h1l3 1 1 1h2l2 2h2l2-5-7-5-4 1z"/><path class="bb" d="M1094 331l-1 3-1 2 1 1 2 1h2l1 1h3l2-5-7-4-2 1zM1067 319l-2 2v3l3 1 1 1h2l1 1 1-1 2-4-6-4-2 1z"/><path class="bb" d="M1102 335v1l-1 2-1 1v1l4 2 3 1h3l1-4a15 15 0 000-2l-8-3z"/><path class="bb" d="M1114 346h-1l-1-1-2-1-1-1 1-2v-1l1-2 1 1zM1060 320v1l1 1 2 1h2l3-5-1-1-7 3z"/><path class="bb" d="M1067 317v2l3 1 2 1 1-1 2-4-1-2-7 3z"/><path class="bb" d="M1075 316l-1 2-1 1v2l2 1 1 1 2 1h1l1-1 2-4-6-3h-1z"/><path class="bb" d="M1082 320l-2 2v2l1 1 2 1 1 1h2l2 1 1 1 1-1 3-5-8-4-3 1z"/><path class="bb" d="M1092 324l-2 2v3l3 1 1 1 2 1h2l2-5-6-4-2 1z"/><path class="bb" d="M1100 328l-1 1-1 2v2l3 1 4 2h2l1-4a13 13 0 000-2l-7-3z"/><path class="bb" d="M1112 338h-2l-2-1h-1v-1l1-2v-3h2z"/><path class="bb" d="M1109 332h-1l-2-1-2-1v-2l1-2v-1l2-1 3 7z"/><path class="bb" d="M1098 321l-1 2-1 2v1l1 1 5 2h2l1-3 1-1-5-5-3 1z"/><path class="bb" d="M1088 317l-2 4 1 1 1 1 2 1 3 1h3l1-2 1-2-6-4h-4z"/><path class="bb" d="M1081 314l-1 1-1 2v2l2 1h1l2 1 1 1h1a11 11 0 001-1l1-4-2-2z"/><path class="bb" d="M1074 315v1l1 1 3 1 1 1v-2l1-2 1-1v-2l-7 3zM1102 319l-1 2-1 1v1l-2-1a6 6 0 01-2-1l-1-1h-1l-1-1a7 7 0 010-1l2-3h5z"/><path class="bb" d="M1086 315v1l1 1 2 1 2 1h2v-1l2-3-3-3-4-1-1 1-1 3zM1081 312v2h1l1 1h3l1-4v-1l-6 2zM1106 324l-1 1h-1l-2-2h-1v-2l2-3h1l3 6h-1z"/><path class="bb" d="M1100 316l-2 1-1-1-3-1-2-1v-2l1-3 2-1 7 4z"/><path class="bb" d="M1092 312l-1 1-2-1-2-1v-1l7-3-1 2-1 3zM1104 318l-1 1-3-1v-1l-1-1 1-2 1-2 1-1 3 7h-1zM1102 311l-1 1-3-1-1-1 1-2 1-3 2 3 1 3z"/><path class="bb" d="M1093 308l1 1 2 1h1l1-1 1-3v-1l-5 2-1 1zM1167 281l1-3h-1l-2-1-2-1-1-1h-3l-2 5 5 3 5-2z"/><path class="bb" d="M1158 279v-1l1-2 1-1v-1l-4-1-3-2h-3l-1 4a13 13 0 000 2l8 3zM1141 272l1-2v-1l1-2-1-1-2-1-1-1-3-1h-3l-2 5 8 4h2z"/><path class="bb" d="M1149 275l1-2 1-2v-1l-3-1-1-1h-2l-1-1-2 1-2 4 7 4 2-1zM1115 260l2-2v-3l-1-1-5-2h-1l-1 3-1 1 5 4h2z"/><path class="bb" d="M1125 264l2-4v-1h-1l-1-1-1-1-3-1h-4v1l-2 3 7 4h3z"/><path class="bb" d="M1132 267l1-1 1-2v-2l-1-1h-1l-2-1-2-1a11 11 0 00-1 1l-2 4 3 2zM1102 253l2-3-1-1v-1l-1-1h-2l-3-2h-3v1l-1 1-1 2 6 5 4-1z"/><path class="bb" d="M1093 249l1-4v-1h-1l-2-1-2-1-4-2-1-1h-3v1l-1 1-2 2 10 6h5zM1109 257l1-2 1-2v-1l-2-1-1-1-2-1-1-1-1 1a11 11 0 00-1 1l-1 3 2 3z"/><path class="bc" d="M1076 237h2l2 1h1v1l-1 2v2l-1 1h-1z"/><path class="bb" d="M1155 283l1-2 1-2-1-1-2-1-2-1h-1l-1-1-2 1-2 4 7 4 2-1z"/><path class="bb" d="M1147 280v-2l1-1 1-1v-1l-4-2-3-2h-1l-2 1-1 3a13 13 0 000 2l8 3zM1118 266l2-1v-3l-1-1-8-4v1h-2v2l-1 2 7 5 3-1z"/><path class="bb" d="M1130 273l2-5v-1l-1-1-2-1-1-1-4-1h-4v1l-2 3 8 5 4 1z"/><path class="bb" d="M1138 277l1-3 1-2v-1l-2-1h-1l-2-2-2-1h-1a7 7 0 000 2l-2 4 3 1zM1161 282l-1-1v-1h-2l-1-1h-1v1l-2 4h1l6-2zM1101 259v-2l1-1 1-1-1-1-3-2-1-1-2-1h-3l-2 5 8 4h2z"/><path class="bb" d="M1092 254l1-2v-2l-1-1-2-1-1-1h-2l-2-1-1-1-1 1-3 5 8 4 4-1zM1109 262l1-2 1-2-1-1-2-1-2-1h-4l-2 4 7 4 2-1z"/><path class="bb" d="M1079 244h2l1 1h1l1 1-1 2-1 1v2l-1-1zM1148 286l1-2 1-2v-1l-3-1-1-1h-2l-1-1-2 1-2 4 7 4 2-1z"/><path class="bb" d="M1140 283l1-2 1-1v-2l-3-2-4-2h-1l-2 1-1 3a13 13 0 001 2l7 3zM1112 269l1-1 1-2v-1l-2-1-6-3h-2v3l-2 1 7 5 3-1z"/><path class="bb" d="M1124 275l1-4v-1l-1-1-1-1-2-1-3-1h-4l-1 1-2 3 9 5h4zM1132 279a14 14 0 011-2l1-1-1-2-1-1h-2l-2-2-2-1a6 6 0 00-1 2l-1 3 3 2zM1084 256l2-2v-1l1-1 2 1a6 6 0 011 1 5 5 0 001 0l1 1h1v1a6 6 0 011 0l-2 4h-5z"/><path class="bb" d="M1105 262l-1-1-2-2-2-1-3-2h-3v1l-2 3 5 4 5 2 2-2 1-2zM1081 251v-1h2l2 2h1v2l-2 3h-1l-3-6h1zM1154 285v-1l-1-1h-1l-1-1h-1l-1 1-2 4h1l6-2zM1146 288l1-2-1-1-2-1-2-1-1-1h-1l-2 1-2 4 5 3 5-2z"/><path class="bb" d="M1137 287v-2l1-1 1-1v-1l-4-2-3-2h-1l-2 1-1 3a15 15 0 000 2l8 3zM1120 279l1-2v-1l1-1-1-1-2-2-1-1-3-1h-2l-1 1-2 4 8 4h2z"/><path class="bb" d="M1128 283l1-3 1-2v-1l-3-1h-1l-2-1h-3l-2 5 7 3h2zM1083 257l2-1 2 1 1 1 1 1-1 1v2l-1 1-2 1-2-7z"/><path class="bb" d="M1094 267l1-2 1-1v-2h-1l-5-3h-2v3l-1 2 5 4 2-1z"/><path class="bb" d="M1104 271l2-3v-2h-1l-1-1-1-1-3-1h-3l-1 1v1l-2 2 7 4h3z"/><path class="bb" d="M1111 275l1-2 1-2v-1l-2-1v-1l-2-1-2-1h-1a10 10 0 000 2l-2 3 3 3zM1125 287l1-2v-1l1-1-1-1-2-2-1-1-3-1h-1l-2 1-2 4 9 4h1z"/><path class="bb" d="M1116 282l1-2 1-1v-1l-1-1-3-1h-1l-1-1-3-1v-1l-2 1-2 5 7 4 4-1z"/><path class="bb" d="M1106 278l1-2 1-3h-1l-2-1-2-1-1-1h-1l-2 1-2 4 7 4 2-1zM1134 291l1-3v-3l-3-1h-1l-2-1h-2l-2 5 6 3h3z"/><path class="bb" d="M1098 274v-1l1-2 1-1v-1l-4-1-3-2h-1l-2 1-1 3a15 15 0 000 2l8 3z"/><path class="bb" d="M1086 264h2l2 1 1 1-1 2v2l-1 1h-1zM1140 289v-1l-1-1h-1l-2-1-1 1-2 4v1l7-3zM1133 292v-1l-3-1-2-1h-1l-2 4 1 2 7-3z"/><path class="bb" d="M1125 293l1-1 1-2 1-1-1-1-2-1-1-1-2-1-1 1h-1l-2 4 6 3h1z"/><path class="bb" d="M1119 290l1-2v-3l-1-1-2-1h-1l-2-1-2-1h-2l-3 5 8 4h4z"/><path class="bb" d="M1108 285l2-2v-3l-3-1-1-1-2-1h-1l-1 1-2 4 6 4 2-1z"/><path class="bb" d="M1100 282l1-2 1-1v-2l-3-2-4-2h-1l-1 1-1 3a15 15 0 000 2l8 3z"/><path class="bb" d="M1088 271h1l1 1h3v3l-1 2v1h-2z"/><path class="bb" d="M1091 278l1-1 2 1 2 1v2l-1 2v1l-2 1-3-7z"/><path class="bb" d="M1102 288l1-2 1-2v-1h-1l-5-3h-2l-1 3-1 1 5 5 3-1z"/><path class="bb" d="M1112 292l2-3-1-2-1-1-2-1-3-1h-3v1l-1 1-1 2 6 4h4z"/><path class="bb" d="M1119 296l1-2 1-2v-1l-2-1-1-1-2-1-1-1h-1a11 11 0 000 2l-2 3 3 3z"/><path class="bb" d="M1126 294v-1l-1-1-3-1h-1v1l-1 2-1 2v2l7-4zM1098 291l1-2 1-2 1-1 1 2a6 6 0 012 0 5 5 0 000 1h2l1 1a5 5 0 010 1l-2 4-5-1z"/><path class="bb" d="M1115 295l-1-2-1-1-2-1-2-1h-2v1l-2 4 4 3 3 1 1-2 2-2z"/><path class="bb" d="M1119 297v-1l-1-1h-1l-1-1h-1v1l-2 4 6-2zM1094 285l1-1h1l2 2 1 1v1l-1 3h-2l-3-6h1zM1100 293h3l3 1 2 1v3l-1 3h-2l-7-4z"/><path class="bb" d="M1108 297l1-1 2 1 2 1v1l-7 3 1-2 1-3zM1096 291l1-1 3 2h1v1l-1 2-1 2-1 1-2-6v-1z"/><path class="bb" d="M1098 298l1-1 3 1 1 1-1 2-1 3-2-3-1-3z"/><path class="bb" d="M1107 302l-1-2-2-1h-1l-1 1-1 3v1l5-2h1zM1124 372l2 1 1-1 1-3v-1l1-1v-3l-5-2-2 5 2 5z"/><path class="bb" d="M1125 363h1l2 1h2l2-3 1-3v-3l-4-1a13 13 0 00-2 0l-3 8zM1133 346h1l1 1 2 1 1-1 1-3 1-1 1-2v-3l-4-2-4 8v2z"/><path class="bb" d="M1129 354l2 1 3 1 1-3 1-1 1-2v-1l-1-2-4-2-4 7 1 2zM1145 320l1 1 2 1h1l1-1 2-5v-2h-3l-1-2-4 6 1 2z"/><path class="bb" d="M1140 330l4 2h1l1-1v-1l1-2 1-2 1-2v-1l-1-1-1-1-3-1-4 7v3z"/><path class="bb" d="M1137 337l1 1 3 1h1l1-2v-1l1-1 1-2v-1a11 11 0 00-1 0l-4-2-2 3zM1151 307l3 1h2l1-2 1-1 1-3v-3l-2-1-2-2-4 7v4z"/><path class="bb" d="M1155 297l4 2 1-1h1l1-2 1-2 1-4 1-1v-3l-2-1-2-2-6 10v4zM1148 314l1 1 2 1 1-1 1-1 1-1 1-2 1-2a11 11 0 00-2-1l-3-1-3 2z"/><path class="bc" d="M1168 281v1l-1 1-1 2v1h-1l-2-1h-1l-2-1v-1z"/><path class="bb" d="M1121 360l2 1 2 1 1-1 1-3 1-1 1-1v-1l-1-2-4-2-4 6 1 3z"/><path class="bb" d="M1125 352h1l1 1h2l2-3 2-3v-2l-1-1-3-1a13 13 0 00-2 0l-3 8zM1138 323l2 1 1 1h1l1-2 4-7v-2h-3l-1-2-6 8 1 3z"/><path class="bb" d="M1131 334l5 3 1-1h1l1-2 1-2 1-3 1-1v-2l-1-1-1-1-3-1-4 8-2 3z"/><path class="bb" d="M1127 343l3 1 2 1h1l1-2 1-1 1-2 1-2v-1a6 6 0 00-1 0l-5-3-1 4zM1122 365h2v-1l1-1v-2l-4-2h-1l2 6zM1145 305l2 1 1 1 2 1 1-1 1-3 1-1 1-3v-2l-5-2-4 8v1zM1150 296l2 1 2 1h1v-1l1-3 1-1v-1l2-2v-3l-5-2-5 8 1 3z"/><path class="bb" d="M1142 314l2 1 2 1 1-1 1-2 1-2v-1l1-1-1-2-4-2-4 7 1 2zM1161 283v1l-1 1v2l-1 1h-2l-2-1h-1v-2zM1118 353l2 1 2 1h1l1-3 1-1 1-2v-1l-1-2-4-2-4 7 1 2z"/><path class="bb" d="M1121 345l2 1h1l1 1h1l2-4 2-3v-1l-1-2-3-1a13 13 0 00-2 1l-3 7zM1135 317l2 1h1l1 1 1-2 3-6v-2h-3l-1-2-5 7 1 3z"/><path class="bb" d="M1130 329l3 1h1l1-1 1-1 1-2 1-3 1-2v-2h-1l-1-1-3-2-4 8v5z"/><path class="bb" d="M1125 337a13 13 0 012 1l2 1 1-1 1-2 1-1 1-2 1-2v-1a6 6 0 00-1 0l-4-2-2 4zM1148 289l2 1 2 1v1l-1 2a6 6 0 010 1 5 5 0 00-1 1v1l-1 1a5 5 0 01-1 0l-4-1v-5z"/><path class="bb" d="M1142 309h2l1-2 1-3 2-2v-4l-4-1-4 5-2 5 2 1 2 1zM1154 285v3l-1 2-1 1h-2l-2-2-1-2 6-2h1zM1119 359h2v-1l1-2v-2l-4-2-1 1 2 6zM1116 351l3 1v-1l1-3 1-1 1-1v-2l-1-1-4-2-3 4 2 6z"/><path class="bb" d="M1118 342h1l2 1h2l1-3 2-3v-2l-1-1-3-1a13 13 0 00-2 0l-3 8zM1125 325h2l1 1 1 1 2-1 1-3 1-1 1-2v-3l-5-2-4 8v2z"/><path class="bb" d="M1122 333l2 1 2 1 1-1 1-2 1-2v-1l1-1-1-2-4-2-4 7 1 2zM1147 288l1 1-1 2-1 2h-2l-2-1h-1l-1-2 7-3z"/><path class="bb" d="M1137 299l2 1 2 1h1l1-1 2-5v-2h-3l-1-2-5 6 1 2z"/><path class="bb" d="M1133 309l4 2 1-1 1-1 1-2 1-2v-4l-2-1-2-1-4 7v3z"/><path class="bb" d="M1130 316l1 1 2 1h2l1-2v-1l1-1 1-2v-1a11 11 0 00-2 0l-3-2-3 3zM1117 330l2 1h1l1 1 2-1 1-2 1-1 1-3v-3l-5-2-4 8v2z"/><path class="bb" d="M1122 321l2 1 2 1 1-1 1-3 1-1v-2l2-2v-1l-1-1-5-2-4 7 1 4z"/><path class="bb" d="M1126 311l3 1 2 1v-1l1-3 1-1 1-1v-3l-5-2-4 6 1 3zM1114 338l2 1 2 1h1l1-3 1-1v-2l1-1-1-2-4-2-4 7 1 2z"/><path class="bb" d="M1130 303h1l2 1h2l1-3 2-3v-3l-4-1a15 15 0 00-2 0l-3 8z"/><path class="bb" d="M1140 291v2l-1 1v1l-1 1-2-1-1-1h-2v-2zM1115 345h1l1-1v-2l1-1v-1h-1l-4-3-1 1 3 7z"/><path class="bb" d="M1112 338h2l1-3 1-2-1-1-4-2-2 1 3 7z"/><path class="bb" d="M1111 330l2 1h1l1 1h1l1-2 1-1 1-2v-1l-1-1-4-2-3 6v1z"/><path class="bb" d="M1115 323l1 1 2 1h1l1-1 1-3v-1l1-1 1-2 1-1-1-1-5-3-4 8 1 3z"/><path class="bb" d="M1119 313l2 1 3 1 1-3 1-1 1-2v-1l-1-2-4-2-4 7 1 2z"/><path class="bb" d="M1123 305l1 1 2 1h2l1-3 2-4v-1l-1-2-3-1a13 13 0 00-2 1l-3 7z"/><path class="bb" d="M1133 293v2l-1 2v1h-1l-2-1h-3v-2z"/><path class="bb" d="M1126 296l1 1-1 2-1 2h-2l-2-1-1-1-1-1 7-3z"/><path class="bb" d="M1116 307l2 1 2 1h1l1-1 2-6v-1l-3-1-1-1-5 5 1 3z"/><path class="bb" d="M1112 317l4 1h1l1-2 1-1 1-3v-3l-2-1-2-2-4 7v4zM1109 324l1 1 2 1h2l1-2v-1l1-2 1-2a11 11 0 00-2-1l-3-1-3 2z"/><path class="bb" d="M1110 331h1l1-2 1-2v-1h-1l-2-1-1-1h-2l3 7zM1114 302l2 2h1l1 1-1 2a6 6 0 01-1 1 5 5 0 000 1l-1 1v1h-1a5 5 0 01-1 1l-3-2v-5z"/><path class="bb" d="M1110 319h1l1-1 1-2 1-2v-2h-1l-3-2-4 3v4l1 1 3 1z"/><path class="bb" d="M1107 324h2v-1l1-1v-3l-4-2-1 1 2 6zM1119 298l1 1v2l-2 2v1h-2l-3-2v-1l6-3zM1111 305v3l-1 3-1 2h-2l-3-1-1-2 4-7z"/><path class="bb" d="M1107 313l1 1-1 2-1 2h-1l-3-7 2 1 3 1zM1113 301l1 1-2 3h-1l-2-1h-2l-1-1 6-3 1 1z"/><path class="bb" d="M1106 303l1 1-1 3h-1l-2-1h-3l3-3h3z"/><path class="bb" d="M1103 312l1-1 1-3-1-1-3-1h-1l2 5 1 1zM1076 237h-3l-1 3-1 1-1 2v1l1 1 4 2 3-4-2-6z"/><path class="bb" d="M1075 247l-2-1-1-1h-2l-2 3-2 4v1l1 1 3 1a15 15 0 002 0l3-8zM1067 263h-2l-1-1-1-1-1 1-2 3-1 1-1 2v3l5 2 4-8v-2z"/><path class="bb" d="M1070 255l-2-1-2-1-1 1-1 2-1 2v4l4 2 4-7-1-2zM1055 289l-2-1-2-1h-1l-1 1-2 5v2h3l1 2 5-6-1-2z"/><path class="bb" d="M1059 279l-4-2-1 1-1 1-1 2-1 2v4l2 1 2 1 4-7v-3z"/><path class="bb" d="M1063 272l-2-1-2-1h-1l-1 2-1 1-1 1-1 2v1a11 11 0 002 0l3 2 3-3zM1049 303l-4-2h-2v2l-1 1-2 3v3l1 1h1l3 2 4-7v-3z"/><path class="bb" d="M1044 312l-3-2-2 1-1 2-1 2-2 4-1 2v2l1 1h1l3 2 5-10v-4zM1052 296l-2-1-2-1h-1l-1 1v1l-1 2-1 2a12 12 0 001 1l4 1 2-2z"/><path class="bc" d="M1032 328v-2l1-2 1-1 2 1h2l1 1v1z"/><path class="bb" d="M1079 249l-3-1h-3l-1 3v1l-1 2v2l5 2 3-6v-3z"/><path class="bb" d="M1075 258l-1-1-2-1h-2l-2 3-1 4v2l4 1a13 13 0 001 0l4-8zM1062 286l-2-1-2-1h-1l-1 2-3 7v2h3l1 2 5-8v-3z"/><path class="bb" d="M1068 275l-5-3-1 1h-1v2l-1 2-2 3v4l2 1 2 1 5-8 1-3z"/><path class="bb" d="M1072 267l-2-2-2-1h-2l-1 2v1l-1 2-1 3a6 6 0 001 1l4 2 2-4zM1077 244h-1l-1 1v1l-1 1v1l1 1 4 1-2-6zM1054 304l-1-1-2-1-1-1-1 1-2 3-1 1-1 3 1 1v1l4 3 4-9v-1z"/><path class="bb" d="M1050 313l-2-1-2-1h-1l-1 1-1 3v1l-1 1-1 2v3l5 2 4-8v-3zM1058 295l-3-1-2-1-1 1-1 3v1l-1 1v3l5 2 4-6-1-3z"/><path class="bb" d="M1039 326v-1-1l1-2v-1h3l2 1h1v2zM1082 256l-3-1-2-1-1 1-1 2v2l-1 1v3l5 2 4-7-1-2z"/><path class="bb" d="M1078 264h-1l-2-1-1-1h-1l-2 4-1 3v3l4 1a13 13 0 002 0l3-8zM1065 293l-2-2h-3l-1 1-3 6 1 1-1 1 3 1 2 1 4-7v-2z"/><path class="bb" d="M1070 281l-4-2h-1l-1 1v2l-1 1-2 4v4h2l2 2 5-8v-4z"/><path class="bb" d="M1074 273a13 13 0 01-1-1l-2-1h-2l-1 2v1l-1 2-1 2v1a6 6 0 001 0l3 2 3-4zM1052 320l-2-1-2-1-1-1 2-2a6 6 0 010-1 5 5 0 001-1v-2h1a5 5 0 011 0l4 2-1 4z"/><path class="bb" d="M1057 300h-1l-2 2-1 3-1 2-1 2v1l1 1 4 2 3-6 2-5-2-1-2-1zM1046 324l-1-1v-2l2-1 1-2h1l3 2v2l-6 2zM1080 250l-1 1h-1v2l-1 1v1h1l4 2v-1l-2-6zM1083 258h-3l-1 3-1 1v4l4 2 3-4-2-6z"/><path class="bb" d="M1082 268l-1-1-2-1h-2l-2 3-1 4-1 1 1 1 3 1a15 15 0 002 0l4-8zM1074 284h-1l-1-1-2-1-1 1-2 3v1l-2 3 1 1v1l4 2 4-8v-2z"/><path class="bb" d="M1078 276l-3-1-2-1v1l-1 2-1 2-1 1v3l5 2 4-7-1-2zM1052 321v-1l1-2v-2h2l3 1 2 2-8 3z"/><path class="bb" d="M1062 310l-2-1-1-1h-1l-1 1-3 5 1 1v1l2 1 2 1 4-5-1-3z"/><path class="bb" d="M1067 300l-4-2-1 1h-1v1l-1 2-2 3v2l1 1 1 1 3 1 4-6v-4z"/><path class="bb" d="M1070 293l-2-1-2-1h-1l-1 2-1 1-1 1-1 2 1 1a10 10 0 001 0l3 2 3-3zM1082 279h-1l-1-1-2-1-1 1-2 3v1l-2 2 1 2v1l4 2 4-8v-2z"/><path class="bb" d="M1078 288l-2-1-2-1-1 1-1 1-1 2v1l-1 2-1 2v2l5 3 4-8v-4z"/><path class="bb" d="M1073 298l-2-1h-3l-1 3-1 1-1 2v1l1 1 4 2 4-6-1-3zM1086 271l-3-1-2-1-1 3-1 1-1 2v3l5 2 4-7-1-2z"/><path class="bb" d="M1070 307l-2-1-1-1h-2l-2 3-2 4v1l1 1 3 1a13 13 0 002 0l3-8z"/><path class="bb" d="M1059 319v-1l1-2v-2l1-1 2 1 2 1h1v2zM1085 264h-2l-1 1v2l-1 1v1l1 1 5 2v-1l-2-7z"/><path class="bb" d="M1087 271l-1 1-1 2-1 2v1l5 2 1-1-3-7z"/><path class="bb" d="M1088 279l-1-1h-1l-2-1h-1l-1 2-1 1-1 2 1 1v1l4 3 3-7v-1z"/><path class="bb" d="M1085 286l-2-1-2-1h-1v1l-2 3v1l-1 1-1 2v3l5 2 4-8v-3z"/><path class="bb" d="M1080 296l-2-1-2-1h-1l-1 3-1 1v2l-1 1 1 2 4 2 4-7-1-2z"/><path class="bb" d="M1077 304l-2-1h-1l-1-1h-1l-2 3-2 4v1l1 2 3 1a15 15 0 002-1l4-7z"/><path class="bb" d="M1066 316v-1l1-1v-2l1-1h1l1 1h2l1 1v1zM1073 314v-2l1-2v-1l1-1h1l3 1v1l2 1-8 3z"/><path class="bb" d="M1083 302l-2-1-1-1h-1l-1 2-3 5h1v1l2 1 2 1 4-5-1-3z"/><path class="bb" d="M1088 292l-4-1h-2v2l-1 1-2 3v3h1l1 1 3 2 4-7v-4z"/><path class="bb" d="M1091 286l-2-1-2-1h-1l-1 1-1 1-1 2v2a11 11 0 001 1l4 1 2-2z"/><path class="bb" d="M1090 278h-1l-2 2-1 2v1l1 1 2 1 2 1 2-1-3-7zM1086 307l-2-2h-2v-1l1-2a6 6 0 010-1 5 5 0 001-1v-1l1-1a5 5 0 011 0l4 1v5z"/><path class="bb" d="M1090 290h-1l-1 1-2 2-1 2v2l1 1 4 1 3-3 1-4-2-1-2-1z"/><path class="bb" d="M1092 285h-1l-1 1v1l-1 1v1l1 1 4 2 1-1-3-6zM1080 311l-1-1 1-2 1-2 1-1h1l3 2 1 1-6 3h-1zM1089 304l-1-2v-1l1-2 2-3h2l3 1 1 2-5 7z"/><path class="bb" d="M1092 296v-3l1-2h2l3 7-3-1-3-1zM1086 308l-1-1 2-3h1l3 1 1 1h1l-6 3-1-1zM1093 306l-1-1 2-3 2 1h3l-3 3h-3z"/><path class="bb" d="M1097 298h-1l-2 3 1 1 3 1 2 1-2-6h-1z"/><path transform="rotate(-65 1100 304)" style="isolation:isolate" opacity=".1" fill="url(#b)" d="M1047 253h103v104h-103z"/><path class="be" d="M1032 330l8-3 8-3 9-2 12-5 13-4 14-6 4-1-1-2-4 1-14 6-13 4-12 5-9 3-8 2-8 3v2zM1075 237l2 8 3 8 3 9 5 12 4 12 5 14 1 4h2l-1-4-5-14-5-13-4-12-3-9-3-8-2-8-2-1zM1168 279l-8 3-8 3-9 3-13 4-12 5-14 5-4 1 1 2 4-1 14-6 12-4 12-5 10-3 7-2 8-3 1-2zM1125 373l-2-8-3-8-3-9-5-12-4-12-5-14-1-4h-2l1 4 5 14 5 13 4 12 3 9 3 8 2 8h2z"/><path class="be" d="M1101 308l-4-2c-1-1 1-4 2-4l4 2-1 1a6 6 0 01-1 3z"/><use class="e" transform="translate(938 694) scale(.09)" xlink:href="#c"/><path class="aj" d="M1115 743v-22l-1-10a13 13 0 00-7-8c-7-3-14-1-22-1a74 74 0 01-11 0 34 34 0 00-6-1 39 39 0 00-5 1 23 23 0 01-6 0h-6l-11-1a4 4 0 00-1 0h-24l-12-1-12 1a4 4 0 000 1 32 32 0 00-6-1 34 34 0 01-7 0 37 37 0 00-7-1h-15l-5 1a6 6 0 01-1 2l-1 8c-1 2-4 5-6 3v1a8 8 0 010 2 22 22 0 010 5l3 10a2 2 0 01-1 2v1a2 2 0 010 2 10 10 0 01-2 4 28 28 0 00-1 4 11 11 0 000 3 19 19 0 002 6 5 5 0 005 0 22 22 0 0110-1l11 1 24 1h75l25 1h13a8 8 0 005-2 8 8 0 002-6v-2c0 1 0 0 0 0a3 3 0 001-3z"/><path class="ak" d="M985 700c-5 0-9-1-9 4l-1 6c0 2 8 2 10 2s12 1 12-1 1-9-1-10l-8-1zm0 0h3c2 0 6-1 8 1 2 1 1 8 1 10s-10 1-12 1-10 1-10-2l1-6c0-6 4-4 9-4z"/><path class="al" d="M985 700c-5 0-10-2-9 4 0 6-5 8 8 8 2 0 13 1 13-1v-7c0-3 0-3-3-4a8 8 0 00-4 0 42 42 0 01-5 0z"/><path class="am" d="M985 700h-8a3 3 0 000 3v4c2 2 1 3 5 3 2 0 8 2 9 0s3 5 5-2c1-1 0-6-1-8h-1a8 8 0 00-4 0 42 42 0 01-5 0zm7 2v1h-3l3-1zm2 5v1c-2-1 0-1 0-1zm-17 1c1 1 1 3 3 3l-4-1c0-1 0-3 1-2z"/><path class="an" d="M1031 704l1 9c0 1 4 3 5 0v-11c-1-1-7-4-6 2zm0 0c-2-5 4-5 6-3v12c0 3-4 1-5 1-2-1-1-8-1-10z"/><path class="ao" d="M1031 704v7l1 3 5 1v-7c1-2 1-6-1-7-4-2-6-1-5 3z"/><path class="ap" d="M1038 705l-2-4c-3-2-5-1-5 0a18 18 0 010 2l1 7c0 3 1 2 2 2a2 2 0 002 0l1-4a21 21 0 001-3z"/><path class="an" d="M943 732l-1 9s4 4 5 1c1-2 4-9 3-11 0-1-6-6-7 1zm0 0c0-6 6-4 7-2s-2 10-2 12c-2 3-5 0-6-1s1-8 1-9z"/><path class="ao" d="M943 732l-1 6v3c2 1 2 2 5 2l2-7c1-1 2-5 1-6-4-3-6-2-7 2z"/><path class="ap" d="M950 734v-4c-3-2-5-3-6-1a17 17 0 010 2l-1 6c-1 3 1 2 1 3a2 2 0 003 0l2-3a20 20 0 001-3z"/><path class="ak" d="M1035 743c-8 1-8-1-15-1-4-1 0-16 6-13l4 1 7 1c1 1-1 6-1 8l-1 4zm0 0l1-4 1-8c0-2-3-1-4-1h-7c-6-3-9 11-6 11 7 1 7 2 15 2z"/><path class="aq" d="M1035 743c-7 1-9-2-15-2-3 0 0-16 7-11h6c5 1 5-1 3 7l-1 6z"/><path class="am" d="M1019 739c0-4 3-12 8-9h6c3 1 4 0 4 2-4 0-3 2-2 3a3 3 0 002 0l-1 2a30 30 0 010 4 5 5 0 01-3-1c-1-1-2-7-1 1-4 1-3-4-3-5 0-8-1-3-3 0-4 6 1-4 1-4-2-2-3 3-4 3-2 4-3 5-4 4z"/><path class="an" d="M1066 744c-3 0-10 2-9-4v-5c0-4 3-3 6-3 2 0 12-3 12 0 1 2 2 9-1 10a31 31 0 01-4 1l-4 1zm0 0l4-1 4-2c2-1 1-8 1-9 0-3-11 0-13 0-7 1-3 2-4 7-2 7 3 5 8 5z"/><path class="ao" d="M1066 744c-2 0-11 2-8-5 1-4-4-7 4-7 3 0 13-3 13 0 1 13 0 9-8 12a5 5 0 01-1 0z"/><path class="ap" d="M1064 732l4-1a6 6 0 01-1 3c0 1 4 3 5-3h1l2 1v2a19 19 0 00-1 4c0 3-4 5-7 3-1 0-10 4-7-1-1-3-2-4 2-6-1-2 0 1 2-2z"/><path class="an" d="M1109 729c-3 0-10 2-9-4v-5c0-4 3-3 6-3 2-1 12-3 12 0 0 2 1 9-1 10a30 30 0 01-4 1l-4 1zm0 0l4-1 4-2c2-1 1-8 1-10-1-2-11 1-13 1-8 1-3 2-4 7-3 6 3 5 8 5z"/><path class="ao" d="M1109 729c-2 0-12 2-9-5 2-4-3-7 5-7 3 0 13-3 13 0 1 13 0 9-8 11a5 5 0 01-1 1z"/><path class="ap" d="M1107 717l4-1a6 6 0 01-1 3c0 1 3 3 5-3v-1c2 0 3 1 3 2v2a19 19 0 00-1 4c0 2-4 5-7 3-1 0-10 4-7-1-2-3-2-4 2-6-1-3 0 1 2-2z"/><path class="ak" d="M983 738c4-7 4-9-6-9-7-1-6 1-7 6 0 2 0 2 2 3 2 2 9 1 11 0zm0 0c-2 2-10 2-11 1a1 1 0 01-1 0l-1-4c1-5-1-7 7-6 10 0 10 2 6 9z"/><path class="ar" d="M983 738c2-4 6-8-2-9-12-1-10 0-11 7l2 3c0 1 10 1 11-1z"/><path class="as" d="M986 733c0-2-1-3-5-4-11-1-10 0-11 5a1 1 0 001 0c6 1 3 3 8 2 3-1 2-2 3-1s3 0 4-2zm-5-2v1c-8-1-6-2 0-1z"/><path class="ak" d="M1115 741c3-7 4-9-7-9-7-1-6 1-6 6-1 1-1 2 1 3 2 2 10 1 12 0zm0 0c-2 1-11 2-12 0-2-1-2-2-2-3 1-5 0-7 7-7 11 1 11 3 7 10z"/><path class="ar" d="M1115 741c1-4 5-8-3-9-12-2-9 0-11 7l2 2h12z"/><path class="as" d="M1117 736c0-2 0-4-5-4-10-1-10 0-10 4a1 1 0 000 1c7 0 3 3 9 1l2-1c1 2 3 1 4-1zm-5-3c1 0 2 2 0 1-8 0-6-2 0-1z"/><path class="ak" d="M1039 735h15c2-2-2-5-5-5h-4c-6 0-4 0-6 3v2zm0 0l-1-2c3-3 0-3 7-3h4c3 0 8 4 4 5s-10 0-14 0z"/><path class="aq" d="M1039 735c7 1 19 1 15-3-4-3-5-2-9-2-7 0-4 1-6 3v2z"/><path class="am" d="M1055 734l-1-2c-4-3-5-2-9-2-7 0-4 1-6 3h7c7 4 2-3 6 0a4 4 0 003 1z"/><path class="an" d="M982 717c-4 1-6-2-6 2l-1 5c0 3 5 2 7 2 3 1 6 2 6-3v-8c-1-1-5 1-6 2zm0 0c1-1 5-3 6-2l1 8c-1 5-4 5-8 4-1-1-7 0-7-3l2-5c0-4 2-1 6-2z"/><path class="ap" d="M982 717c-3 1-7-3-6 3 0 2-5 7 5 6 1 0 8 5 7-6 0-4 2-7-5-4l-1 1z"/><path class="ao" d="M982 717c-3 1-6-2-6 1a5 5 0 010 1v1l-1 3c1 2 9 0 11 3 1 1 2-2 2-3a18 18 0 000-3 2 2 0 000-1 3 3 0 00-3 0c-2 0-2-1-3-3a5 5 0 000 1z"/><path class="ak" d="M968 742c-7 1-8-1-15-1-3 0 1-15 6-12h4c1 0 6 0 7 2l-1 7-1 4zm0 0l1-4 1-7-4-1-7-1c-5-3-8 11-6 12 7 0 8 2 15 1z"/><path class="ar" d="M968 742c-7 1-9-1-15-1-3 0 1-16 7-12l6 1c4 1 4-1 3 7l-1 5z"/><path class="as" d="M954 732c1-3 3-5 6-3l6 1c4 0 4-1 3 4a7 7 0 01-1-1l-6 2c-1 4-2 1-2 3-1 1-5 0-4-2l-2-4zm15 4a16 16 0 00-3 0c-2 0-1 1-2 3-1 1 0 3 3 2a13 13 0 002-1v-3z"/><path class="at" d="M1088 729c-2 0-12 0-13-2-1-1-3-5-2-7 1-6 10-5 15-5 2 1 11 1 11 4v6l-7 2-4 2zm0 0l4-2 7-2a55 55 0 001-6c0-5-17-4-20-4-8 1-10 6-5 13l13 1z"/><path class="ar" d="M1088 729l-13-1s-9-13 7-13c3 0 18 0 17 4 0 7 2 6-5 8l-6 2z"/><path class="as" d="M1074 725c-2-3-3-9 6-10l1 1a3 3 0 004-1c4 0 12 1 14 3-2 1 4 6-8 8-5 0-3-2-2-3 2-5-3 2-3 2-5 3-5-5-8-1-2 1-3 2-4 1z"/><path class="ak" d="M1038 742c4 1 14 4 17 2 2-1-1-6-5-7l-4-1c-8-1-5 0-8 3v3zm0 0v-3c3-3 0-4 8-3l4 1c4 1 9 7 5 8s-12-1-17-3z"/><path class="aq" d="M1038 742c8 3 22 5 17-1-3-5-5-4-9-5-8-1-5 1-8 3v3z"/><path class="am" d="M1055 741c-3-5-5-4-9-5h-2a2 2 0 01-2 1 3 3 0 00-2 2c2 4 7-2 11 1 0 3-5 1-6 1 0 2 9 2 9 2 1 1 1-1 1-2z"/><path class="ak" d="M1102 713c4 1 12 2 13-2 1-3-6-10-9-10h-3c-6 1-3 1-3 8l2 4zm0 0l-2-4c-1-7-4-8 3-8l3-1c3 0 11 9 9 12s-9 2-13 1z"/><path class="aq" d="M1102 713c8 2 18 1 10-8-6-7-5-4-9-4-7 0-3 2-3 8l2 4z"/><path class="am" d="M1112 705c-6-7-6-4-9-4a14 14 0 00-2 0v2c-2 0 0 5 0 5 4 5 3-6 8-3 2 6-2 4-3 4 2 4 7 0 7 0 2 1 0-2-1-4z"/><path class="an" d="M1043 714l-4-2c-2-1 0 2 0 2l-1 2 2-1h3a3 3 0 001-1h-1zm0 0c3 0 0 1-1 1a1 1 0 01-1 0l-2 1c-3 1-1-1-1-2s-1-4 1-2l4 2z"/><path class="ao" d="M1043 714l-4-2c-2-1 0 2 0 2l-1 2 3-1h1c1 0 3-1 1-1z"/><path class="an" d="M1042 716l-1 1c-1 3-1 6-4 3-1-2-3-2-1-4s0 2 4 0l2-1zm0 0a3 3 0 00-1 0c-1 0-4 2-4 0 0 0-2 1-1 2s3 5 4 1l2-3zm0-1v1z"/><path class="ao" d="M1042 716h-1c-1 0-4 2-4 0 0 0-3 1-1 3 1 0 3 4 4 0a21 21 0 012-3v-1z"/><path class="an" d="M1012 714c1-2 7-1 8-1 4 0-1 3-3 2l-5-1zm0 0h1c4 1 4 2 8 0a4 4 0 00-1 0h-8z"/><path class="aq" d="M1012 714c1-2 6-1 7-1l2 1c-4 2-4 1-8 0h-1z"/><path class="an" d="M951 735c1 1-1 6-1 8 0 4-2-1-1-3l2-5zm0 0v1c-2 4-3 4-1 8a4 4 0 000-1c0-2 2-6 1-8z"/><path class="aq" d="M951 735c1 1-1 6-1 7l-1 2c-2-4 0-5 2-8v-1z"/><path class="an" d="M1059 729c2 0 3 0 2 2s-5-1-8-1c-2 0-5-2 1-1h5zm0 0a22 22 0 01-5 0c-7-1-4 1-1 2l5 1c4 1 5-4 1-3z"/><path class="aq" d="M1059 729c1 0 3 0 2 2-1 3-4-1-8-1-2 0-5-2 1-1a18 18 0 005 0z"/><path class="an" d="M1054 735a21 21 0 00-2 1l4 4c1-1-1-4-2-5zm0 0c2 0 4 8 1 4-2-2-7-3-1-4z"/><path class="aq" d="M1054 735l-3 1 2 2c2 1 3 4 3 1l-2-4z"/><path class="an" d="M1114 742a21 21 0 00-3 1l4 4a2 2 0 001 0l-2-5zm0 0c1 0 4 8 1 4-2-2-7-3-1-4z"/><path class="aq" d="M1114 742l-3 1 2 2c2 1 3 4 3 1l-2-4z"/><path class="an" d="M1049 747l1 3h3s7-3 5-4h-7a5 5 0 00-2 1zm0 0h1c1-2 4-1 6-1 4 1-1 2-2 3l-3 1-2-3z"/><path class="ao" d="M1049 747l2 3 4-1c1-1 5-3 1-3-1 0-5-2-7 1z"/><path class="ak" d="M960 727h9l7 1h-16c-2 0-2 0 0-1zm0 0c-2 1-2 1 0 1h15l-5-1a23 23 0 00-2 0h-8z"/><path class="ar" d="M960 727h9a19 19 0 004 0c3 0 4 1-2 1h-11s-3 0-1-1h1z"/><path class="an" d="M988 729a22 22 0 00-2-1v6c1 0 3-4 2-5zm0 0c2 1-2 9-2 4 0-3-3-7 2-4z"/><path class="aq" d="M988 729l-3-1 1 2c1 3-1 5 1 4 0 0 2-4 1-5z"/><path class="an" d="M985 742a21 21 0 002 1l-1-6a3 3 0 000-1c-1 0-2 5-1 6zm0 0c-2-1 2-11 2-4 0 3 3 9-2 4z"/><path class="aq" d="M985 742s2 2 3 1l-1-2c-1-3 0-7-2-5v6z"/><path class="at" d="M977 716l4-3h5c1-1 2 0 1 1a52 52 0 01-6 2h-3a1 1 0 01-1 0zm0 0h4l6-3a7 7 0 00-1 0h-5l-4 3z"/><path class="ar" d="M977 716l4-3h5s3 0-1 1a13 13 0 01-2 1l-2 1a3 3 0 01-1 0h-3z"/><path class="ak" d="M978 727l5 1c2 0 1 2-1 1h-2s-5-1-3-2h1zm0 0h-1c-2 1 4 1 5 1a2 2 0 002 1l-1-1-5-1z"/><path class="aq" d="M978 727l5 1c1 0 2 1-1 1l-2-1h-2c-2 0-1-1 0-1z"/><path class="ak" d="M954 742c1-1 3 1 5 1 1 0 1 1-1 1l-2-1s-5 0-4-1h2zm0 0h-1c-2 1 4 1 4 1a2 2 0 002 0l-5-1z"/><path class="aq" d="M954 742c1-1 3 1 4 1s3 1 0 1l-2-1h-3c-2 0-1-2 1-1z"/><path class="an" d="M952 727a45 45 0 000 5c1 0 1-3 4-4 1-1-2-1-2-1h-2zm4 1zm-4-1h3c2 0 2 1 1 1l-3 4c-2 2-1-5-1-5z"/><path class="ao" d="M952 727v3c0 1 0 4 1 2l3-4s1-1-1-1h-3z"/><path class="an" d="M1013 729l2-1 2 1a10 10 0 002 1c2 0 1 4 0 3l-4-3-2-1zm0 0c-1 1 2 0 4 2l2 2v-3a9 9 0 01-2 0l-2-1h-2zm6 4"/><path class="ao" d="M1013 729l2-1 2 1 2 1v3l-2-2a10 10 0 00-4-2s-1 0 0 0z"/><path class="an" d="M1014 727l5 2h1l-2-1c-1-2 0-3-3-1zm0 0a3 3 0 011-1h3c1 3 2 1 2 3h-1l-5-2z"/><path class="ao" d="M1014 727l4 2h2s1-1-1-1c-1 0-1-3-3-2l-2 1z"/><path class="ak" d="M990 714v3c0-1 0-2 2-3a2 2 0 000-1h-2zm0 3v-3l1-1c3 0 0 2 0 2l-1 2v-3z"/><path class="aq" d="M990 714c-1-1 0 1-1 2 0 3 2-2 2-2 1 0 2-1 0-1l-1 1z"/><path class="ak" d="M975 713v3s0-2 2-3h-2zm0 3v-3h1c3-1 0 1 0 1l-2 3c0-1 0-5 1-4z"/><path class="aq" d="M975 713l-1 3c0 2 2-2 2-2 1-1 2-1 0-1h-1z"/><path class="an" d="M989 725c0 1-2 3 1 4 2 0-1-4-1-4zm0 0l2 3-2 1c-3-1 0-3 0-4z"/><path class="ao" d="M989 725c0 1-3 2 1 4l1-1-2-3z"/><path class="ak" d="M1035 730l4-4c1-2 1-1 2 1l1 1-2 2c-1 2-2 1-3 0h-2zm0 0h4l3-2-1-1c-1-2-1-2-2-1l-4 4z"/><path class="aq" d="M1035 730l4-4c1-2 1 0 2 1l1 1c1 1-2 1-3 2s-2 0-2 0h-2z"/><path class="ak" d="M1017 743c3 1 1 5 3 2 1-1 4-1 3-2l-4-1c-1-1-2 0-2 1zm0 0s0-2 2-1h4c2 2-2 2-2 3-3 3-1 0-4-2z"/><path class="aq" d="M1017 743c2 1 2 5 3 2 1-1 4-1 3-2l-4-1c-1-1-2 1-2 1z"/><path class="ak" d="M1036 743h3c5 1 6 2 3 2l-3-1c-3 0-4 1-3-1zm0 0v1h5l2 1a18 18 0 00-4-2h-3z"/><path class="aq" d="M1036 743h3s6 1 4 2a8 8 0 00-2-1h-5v-1z"/><path class="an" d="M1075 743h3l2 1a10 10 0 002 0l-1 4c-1 0 0-2-4-4 1 0-3 0-2-1zm0 0l4 2 2 3s2-3 1-4a9 9 0 01-2 0l-2-1h-3zm6 5"/><path class="ao" d="M1075 743h3l2 1h2c2 0 0 3 0 3-1 2-2-2-3-2a10 10 0 00-3-1l-1-1z"/><path class="an" d="M1100 727l-1 3-2 1c-1 0-9 0-7-2l7-3a7 7 0 013 1zm0 0h-1c-2-1-4 1-7 2-4 1 2 1 3 1h4c-1-2 0-1 1-3z"/><path class="ao" d="M1100 727c-1 1-2 1-1 3h-5c-1 0-6 0-2-1 1-1 5-4 7-2h1z"/><path class="an" d="M1090 744l8-1c4 0-1 2-3 2h-5v-1zm0 0l1 1c4 0 5 1 8-2a5 5 0 00-1 0l-8 1z"/><path class="aq" d="M1090 744l7-1h2c-3 3-4 2-8 2l-1-1z"/><path class="an" d="M1094 715c1-2 6-1 7-1 4 0 0 3-3 2l-4-1zm0 0c5 1 5 2 8 0a4 4 0 00-1 0h-7z"/><path class="aq" d="M1094 715c1-2 5-1 7-1l2 1c-4 2-5 1-9 0z"/><path class="an" d="M1118 731h-7c-4 0 0-3 3-2l4 1v1zm0 0v-1c-5-1-5-2-8 0a4 4 0 001 1h7z"/><path class="aq" d="M1118 731h-7l-2-1c4-2 5-1 9 0v1z"/><path class="ak" d="M969 743h14c2-1-2-3-4-3h-4c-7 0-4 0-6 2v1zm0 0l-1-1c3-2 0-2 7-2h4c3 0 7 3 4 3h-14z"/><path class="ar" d="M969 743c7 1 18 1 14-2-3-2-4-1-8-1-7 0-4 0-6 2v1z"/><path class="as" d="M984 743l-1-2c-3-2-4-1-8-1-7 0-4 0-6 2h7c7 3 2-2 6 0a4 4 0 002 1z"/><path class="at" d="M1069 728h3c1-1 3 0 4 1s2 1 0 1a39 39 0 01-4 0l-3-1a1 1 0 010-1zm0 0c0 2 2 2 3 2h5a6 6 0 00-1-1l-3-1h-4z"/><path class="ar" d="M1069 728h3c1-1 3 1 4 1 0 0 3 1-1 1a10 10 0 01-1 0h-2a2 2 0 01-1 0l-2-2z"/><path class="at" d="M1072 724l-1 3h2v-2l-1-1a2 2 0 000-1v1zm0 0a1 1 0 000-1l1 1v2c1 2-1 1-1 1-1 0-2 1-1-1l1-2z"/><path class="ar" d="M1072 724l-1 3h2v-3l-1-1a1 1 0 010 1z"/><path class="at" d="M1070 716h3c1 1 3 0 4-1s2-1 1-1a40 40 0 00-5 0l-3 1a1 1 0 000 1zm0 0c0-2 2-2 3-2l5 1a6 6 0 01-1 0c-1 0-3 2-4 1h-3z"/><path class="ar" d="M1070 716h3c1 1 3-1 4-1 0 0 3-1 0-1a12 12 0 00-2 0h-2a2 2 0 00-2 0l-1 2z"/><path class="an" d="M1069 730a22 22 0 00-3-1l-4 1a6 6 0 003 1l4-1zm0 0l-4 1a6 6 0 01-3-1l3-1a9 9 0 014 1z"/><path class="ao" d="M1069 730l-2-1a3 3 0 00-2 0 16 16 0 00-3 1l1 1a4 4 0 003 0l3-1z"/><path class="an" d="M1078 740a23 23 0 00-2 1l5 2-3-3zm0 0c1-1 6 6 2 3-2-1-8-1-2-3z"/><path class="aq" d="M1078 740l-3 1 3 1c2 0 4 3 3 1 0-1-2-4-3-3z"/><path class="at" d="M1001 714c-7 0-10-1-11 6 0 3 0 9 4 8 4-2 6 0 9 0l4-1c7 1 10-2 9-9 0-4-3-3-7-3a31 31 0 00-8-1zm0 0h8c4 1 7 0 7 4 1 7-2 10-9 10h-13c-4 1-4-5-4-8 1-7 4-6 11-6z"/><path class="ar" d="M1001 714l-8 1c-4 1-5 15 1 13 3-2 7 1 11-1 1 0 12 4 11-8 0-2 0-4-4-4l-11-1z"/><path class="as" d="M1001 714a9 9 0 01-1 0c-3 5-4 2-3 0a12 12 0 00-4 1 3 3 0 00-1 1c-1 5 0 12 3 9 2-2 8 2 8-1 0-6 1-9 2-10a18 18 0 00-4 0zm15 9c-1 0-2-1-5 3-2 3-5 1-3-1 0-1 4-8 0-3-4 6-5 1-4-1l2-7 6 1c4 0 4 2 4 4a14 14 0 010 4z"/><path class="au" d="M994 715l3-1a7 7 0 010 2c0 1 0 2 2 1a5 5 0 001-1c0 1-1 2-3 2s-1-2-1-3a6 6 0 01-2 0zm3 0z"/><path class="at" d="M959 698c-7 0-10-1-11 6 0 3 0 9 4 7h13c7 1 9-2 9-9 0-4-4-3-7-4a31 31 0 00-8 0zm0 0h8c4 1 7 0 7 4 1 7-2 10-9 9l-4 1h-9c-5 1-5-5-4-8 1-7 4-6 11-6z"/><path class="ar" d="M959 698h-8c-4 2-5 16 1 13 3-1 6 2 10 0 2 0 13 4 12-8 0-3 0-4-4-4l-11-1z"/><path class="as" d="M959 698a9 9 0 01-2 0c-2 5-3 2-2 0a12 12 0 00-4 0 3 3 0 00-1 2c-1 4 0 12 2 9 3-2 9 2 9-1 0-6 1-9 2-10a18 18 0 00-5 0zm15 8c-1 1-2 0-5 3-2 3-5 1-4-1l1-2c-4 6-5 0-4-1l2-7 6 1c4 0 4 2 4 4a14 14 0 010 4z"/><path class="au" d="M951 699c1 0 3-2 4-1a7 7 0 010 2c0 1 0 2 2 1a5 5 0 001-1l-3 2c-2 0-2-2-1-3a6 6 0 01-3 0zm3 0z"/><path class="at" d="M1027 728c-7 0-9 0-9-6-1-4 0-5 4-7h9l7 7c1 1 0 5-3 6h-8zm0 0a41 41 0 006 0c5 0 7-4 5-6l-7-7h-9c-5 2-5 3-5 7 1 6 2 7 10 6z"/><path class="ar" d="M1027 728c-5 0-6 1-9-2 0 0-2-8 1-9 5-4 4-2 11-2 3-1 5 5 8 7v4c-2 3-7 2-11 2z"/><path class="as" d="M1018 725c-1-3-1-7 1-8 5-4 4-2 11-3a3 3 0 012 1c0 1-1 4 2 3h1a17 17 0 003 4c-4 7-6 2-9 3h-8c-1 1-2 0-3-1zm5-8c-4 0-3 5-1 2l2-1-1-1z"/><path class="au" d="M1024 716c2-1 4-2 6-1s0 2 1 3l2 1c-2 0-3 0-3-2s-5-2-6-1z"/><path class="at" d="M1106 758c-7 0-9 0-9-7-1-3 0-5 4-6l9-1 7 8c1 1 0 4-3 5l-8 1zm0 0a40 40 0 006 0c5-1 7-5 5-6-2-2-4-7-7-8h-9c-5 2-5 3-5 7 1 7 3 7 10 7z"/><path class="ar" d="M1106 758c-4 0-6 0-8-2-1-1-3-9 0-10 5-3 4-2 11-2 3 0 5 6 8 8v3c-2 3-7 3-11 3z"/><path class="as" d="M1097 754c-1-3-1-7 1-8 5-3 4-2 11-2a3 3 0 012 1c0 1 0 3 2 3h1a18 18 0 003 4c-4 7-6 1-9 3-3 1-4-2-8 0l-3-1zm5-7c-4 0-3 5-1 2l2-1-1-1z"/><path class="au" d="M1103 745c2-1 5-2 6-1l2 4 1 1c-1-1-3-1-3-3s-5-1-6-1z"/><path class="at" d="M1057 715c-6 0-15-3-16 6 0 3 1 7 5 7 5-1 20 2 23 0 1-1 6-13-3-13h-9zm0 0a80 80 0 0110 0c7 0 4 11 3 13-3 2-20-1-24 0-6 1-6-7-4-11 4-4 11-2 15-2z"/><path class="ar" d="M1057 715s-10-1-13 1c-5 3-4 13 2 12 4-1 22 2 24-1s4-12-3-12h-10z"/><path class="as" d="M1045 720c5-2 12 1 4 0 0 0-6 2-5 0h1zm12-5s-10-1-13 1a8 8 0 00-3 7 3 3 0 003 2h6c5 0 8-2 12-4 3-2 9 0 6 0-4 0-9 0-9 5h11c2-4 3-11-3-11h-10z"/><path class="au" d="M1052 724l7-3c2-2 6-3 8-2a5 5 0 001 1h-1c-2-1-5 0-6 1-4 2-4 3-9 3z"/><path class="ak" d="M1042 702c4-2 6-1 10-2 2 0 14-1 16 1v8c1 4-2 3-6 4l-13 1c-5-1-10 0-10-7 0-3-1-4 3-5zm0 0c-4 1-3 2-3 6 1 6 6 5 10 5l13-1c3 0 7 1 6-3l-1-8c-1-2-11-1-13-1l-12 2z"/><path class="aq" d="M1042 702c3-2 5-1 8-1 3-1 16-2 17 0 2 2 0 6 1 8s0 3-2 3c-5 0-12 2-17 1-2 0-10 2-10-5v-2c0-3 0-3 3-4z"/><path class="am" d="M1042 702c3-2 5-1 8-1 3-1 16-2 17 0 2 2 0 6 1 8a2 2 0 010 2 39 39 0 01-6 1 4 4 0 01-2 0l-1-1c-2 0-3-2-1-3l1-1h4l2-1h1l-1-1a7 7 0 01-3 1h-5l-3 2-8 1-7-1v-2c0-3 0-3 3-4z"/><path class="av" d="M1039 705c2-3 5-2 7-3l9-2a17 17 0 018 2h1l-3-1c-5-1-9 0-13 1-4 2-6 0-9 3z"/><path class="ak" d="M1002 747c0 2 2 9-2 9-5 1-27 1-27-5 0-1-1-5 1-6h27a9 9 0 011 2zm0 0a5 5 0 00-1-2c-4 0-24-2-27 0-2 1-2 5-1 6 0 7 21 6 27 5 4 0 2-7 2-9z"/><path class="ar" d="M1002 747c0 2 2 9-2 9-5 1-27 2-27-5s-1-7 13-7l15 1a6 6 0 011 2z"/><path class="as" d="M1002 747v2a1 1 0 01-1 0c-4-1 0 5-6 1-6 2-6 0-11-2-2-1-5 6 1 3 2-1 1 1 4 1l-4 2c-1 0-2 1 0 2-7 0-12-2-12-5 0-6-1-7 5-7 0 1 0 2 3 1a2 2 0 000-1h5l15 1a6 6 0 011 1zm0 5c0-2-2-2-3-1-2 2-4 1-4 1 1 5 1 4-2 5l7-1c2 0 2-2 2-4z"/><path class="au" d="M974 746c4-3 3 0 5-1h4a57 57 0 0111 1h-12a15 15 0 01-3 0c-3 0 0-2-5 0z"/><path class="an" d="M1018 756c1-3 2-10-2-12-2-2-3 0-6 0s-4-1-6 2c-2 8 3 13 11 11zm0 0l-3 1c-8 2-14-3-11-11 1-4 3-3 6-3s5-2 7 1 2 9 1 12z"/><path class="ao" d="M1018 756c1-3 1-16-6-12-3 1-7-4-8 5-1 7 7 11 14 7z"/><path class="ap" d="M1018 748c0-3-2-6-6-4-3 1-6-4-8 3 2-1 3-2 3 4 0 3-2 0-3-1a7 7 0 001 5 4 4 0 005-2c1-3 7-1 8-5z"/><path class="aw" d="M1009 753a10 10 0 015-3l3-2a1 1 0 010 1c-1 2-2 2-4 2l-4 2z"/><path class="an" d="M1047 756c1-2 4-10 0-10l-14-1h-8c-3 0-4 0-4 5v6h7c4 0 7 1 11-1l8 1zm0 0h-26l-1-8c1-4 2-3 5-4h8l14 2c4 0 1 8 0 10z"/><path class="ao" d="M1047 756c1-3 4-10 0-10l-14-1h-8c-2 0-5-1-5 5 0 5-1 7 5 6 3 0 10 2 14-1l8 1z"/><path class="ap" d="M1049 751c0-3 0-5-2-5-5 0-10-2-14-1h-8c-2 0-5-1-5 5v2c1 2 2 2 3 2 4-3 12 0 13-1 1-2 2-2 0-3l-4-3c-2-4 8 5 10 4 3-3 5 0 7 0z"/><path class="aw" d="M1037 747l4 3c1-1 5-2 5 0-2-1-3 1-5 1l-4-4z"/><path class="an" d="M1083 748l1 8c1 0 9 3 10 0 1-2 2-8 0-10-1 0-13-3-11 2zm0 0c-3-5 8-4 11-2 3 1 1 9 1 10-1 3-8 1-10 0-3 0-2-6-2-8z"/><path class="ao" d="M1083 748v6c1 1 0 2 2 2 3 1 4 2 9 1l1-6c1-1 0-4-2-5-8-2-11-1-10 2z"/><path class="ap" d="M1094 755l1-4c0-1 0-4-2-5-7-1-10-1-11 2l2 4c-1 3 6 4 7 2 0 0 2-2 1 0 0 2 1 2 2 1z"/><path class="aw" d="M1086 747c-1-1 3-1 4-1a8 8 0 014 2h-3l-5-1z"/><path class="ak" d="M1100 731c1 2 1 10-2 10-3 1-3 2-7 2h-7c-2 0-3-1-5-3-6-6-2-10 5-9h12a12 12 0 004 0zm0 0a15 15 0 01-4 0h-12c-7-1-11 3-5 9 1 2 3 3 5 3h7l7-1c4-1 3-8 2-11z"/><path class="aq" d="M1100 731c1 2 1 10-2 10-2 1-2 2-9 2s-5 2-10-3c-4-4-4-9 2-9h19z"/><path class="am" d="M1100 731v9l-1-1h-6c-3 1-6-1-9 2-4 4-6-8-5-8 4-3 4-2 6-2l10 1 5-1z"/><path class="av" d="M1079 733c3-3 2 0 5-1h3a46 46 0 019 1h-13c-2 0 0-2-4 0z"/><path class="an" d="M1014 700h-6c-2 0-7-1-8 1l-2 3c-1 1 0 7 1 8 5 2 8 0 13 0a68 68 0 0111 1c1 0 7 0 7-2v-10c-1-2-6-1-8-1a52 52 0 00-8 0zm0 0a41 41 0 018-1c2 0 7 0 8 2v10c0 3-6 2-7 2a74 74 0 00-11 0c-5 0-8 2-13-1-2-1-2-6-1-8l1-3c2-2 7-1 9-1h6z"/><path class="ao" d="M1014 700l-4 1-4-1c-3 0-7-1-7 3 0 2-2 1-1 5 0 4 0 4 3 5h22a23 23 0 006 0c2-1 1-3 1-5v-3c0-5 0-5-6-6l-10 1z"/><path class="ap" d="M1008 700a13 13 0 00-2 0c-3 0-7-1-7 3 0 2 1 4 3 4 3 0 6 2 9 1l2-3h6c3 1 8-2 11-2 0-3-1-3-6-4h-6c-3 3-4 4-10 2v-1zm19 13a6 6 0 01-2-1c-6-3-9-1-16 0-1 0-8-1-8-4 4 0 4 2 9 2 5-1 1-4 11-3 2 0 6-2 9-1v2c0 2 1 4-1 5z"/><path class="aw" d="M1029 703c-1-2-1-3-4-3l-8 2a17 17 0 01-5 0l5-1 7-1c3 0 6-1 5 3z"/><path class="an" d="M958 726c3-2 2-1 6-1 2 0 7 1 8-1l1-3c1-1 1-6-1-7-5-3-8-1-13-1a69 69 0 01-10 0c-2 0-7-1-8 1l1 10c1 2 6 2 7 2a52 52 0 009 0zm0 0a41 41 0 01-9 0c-2 0-6 1-7-2l-1-10c0-2 6-2 8-2a74 74 0 0010 1c6 0 8-2 13 0 2 1 2 7 1 8l-1 3c-1 2-6 1-8 1-4 0-3-1-6 1z"/><path class="ao" d="M958 726c2-2 1-1 4-1h4c3 0 6 1 7-3l1-5-3-4c-5-2-7 0-12 0h-10a22 22 0 00-6 0c-3 0-2 3-2 4l1 3c0 5 0 6 5 6h11z"/><path class="ap" d="M964 725a17 17 0 002 0c3 0 6 1 7-3l-3-4c-4 0-7-2-10 0 0 0 0 2-2 2l-6 1c-2-2-7 1-11 1 1 4 1 4 6 4h6c3-2 4-3 10-1h1zm-20-12a6 6 0 012 0c6 4 10 1 16 1 1 0 9 1 8 3-3 1-3-2-9-1-5 1-1 3-11 3-1 0-6 2-9 1v-3c0-1-1-4 2-4h1z"/><path class="aw" d="M943 723c0 2 0 2 3 2l8-1a17 17 0 016 0l-6 1-6 1c-2 1-7 0-5-3z"/><path class="ak" d="M1004 728c-4 2-5 1-10 1s-6 2-6 7c-1 3 0 7 4 7h3c4 1 6 2 10-1l12-1c4-12-5-11-12-13a2 2 0 00-1 0zm0 0a1 1 0 011 0c8 2 16 1 12 13-1 2-9 0-12 2-4 2-6 1-11 0h-2c-5 0-5-4-4-7 0-5 1-7 6-7l10-1z"/><path class="aq" d="M1004 728c-8 3-13-2-16 4-1 4-2 12 5 11 1 0 7 3 12-1 2-1 11 1 12-1 4-12-5-11-12-13a4 4 0 00-1 0z"/><path class="am" d="M1004 728l-2 1a28 28 0 01-3 8l-3 3 2-4a18 18 0 003-7c-6 1-11-2-13 3-3 12 5 14 12 6 2-3 3-7 5-3l3 7h3c-2-2 1-8-1-11-1-2-5 0-6-3zm-4 16c1-3 4-7 5-1a9 9 0 01-5 1zm15-13c4 4 1 10-1 8-4-4-3-8-1-9a10 10 0 012 1z"/><path class="av" d="M989 731c-1-2 5-1 6-1a22 22 0 003-1h4l-4 1h-7l-2 1z"/><path class="aq" d="M988 742l9-9c2-1 1-2 2-4a6 6 0 01-2 4l-1 3c-2 3 1 3-1 7v-6c-2 2 0 3-1 5 1-2-2-4 1-5l1-3-8 7zm11-13z"/><path class="ak" d="M1081 750v7c-3 2-13 0-17 1-3 0-11 2-11-3-1-4-1-3 4-6 2-1 6-4 9-4 3-1 12-1 14 2a5 5 0 011 3zm0 0l-1-4c-3-2-13-2-16-1l-11 7v4c1 5 8 3 11 2 4 0 14 1 17-1v-7z"/><path class="aq" d="M1081 750v7l-11 1c-5 0-3-1-9 1-3 0-9 0-8-4 0-3-2-3 3-5 2-1 8-6 10-6 4 1 15-1 15 6z"/><path class="am" d="M1053 752a14 14 0 013-2c2-1 8-6 10-6 4 0 13 0 15 4 0 3 1 4-7 6-5 1-4-1-9-1l-12-1z"/><path class="av" d="M1059 749c3-3 14-6 18-3v1-1c-5-2-14 2-18 3z"/><path class="ak" d="M1061 747l4 6c3 1 4 8 2 2l-4-4c-2-4-1-3-2 2-2 4 1-4 0-5v-1zM1070 713v-9c0-5 4-3 8-3 3 0 18-2 19 0l1 7c0 2 0 6-3 6h-13l-12-1zm0 0h25c3 0 3-3 2-5l-1-7h-16c-7 0-10-2-10 6v6z"/><path class="aq" d="M1070 713v-9c1-4 3-3 7-3l12-1 8 1 1 7c0 2 0 6-3 6a175 175 0 00-17 0l-8-1z"/><path class="am" d="M1076 701h1l12-1 8 1a8 8 0 010 2l-2 2c2 3 3 2 1 5-1 4-4 2-4 1-1-5-4-1-7 1h-12c-3-1-3-2-3-5 0-4 2-4 2-5l4-1zm0 4a7 7 0 012-1c2 0 1-1 1-1a1 1 0 01-2 0c0-1-6 3-1 2zm15 5c-1 0-4 0-3 2 0 0 2 1 3-1v-1z"/><path class="av" d="M1082 702c0-2 11 0 12 0h-12z"/><path class="aq" d="M1070 709a6 6 0 001-1c2-2 5-2 6-2h-1l-4 1-2 3v-1z"/><path class="ak" d="M944 757v-9c1-5 4-3 8-3 3-1 18-2 19 0l1 7c0 2 1 6-2 6l-14-1h-12zm0 0h26c2 0 2-3 1-5l-1-7h-16c-7 0-10-2-10 5v7z"/><path class="aq" d="M944 757v-9c1-4 3-3 7-3l12-1 8 1 1 7c0 1 0 6-2 5a176 176 0 00-18 0h-8z"/><path class="am" d="M950 745h1l12-1 8 1a8 8 0 010 2l-2 2c2 3 3 2 1 5-1 4-4 2-4 1-1-5-4-1-7 1h-12c-3-1-3-3-3-5 0-4 2-4 2-5l4-1zm0 4a8 8 0 012-1c2 0 1-1 1-1a1 1 0 01-2-1s-6 4-1 3zm15 5c-1 0-4 0-3 2a2 2 0 003-1v-1z"/><path class="av" d="M956 745l12 1h-1c-4 1-7 0-11-1z"/><path class="aq" d="M944 753a6 6 0 002-1c1-2 4-2 5-2h-1l-4 1-2 2c0-1 0 1 0 0zM1061 747l4 6c3 1 4 8 2 2l-4-4c-2-4-1-3-2 2-2 4 1-4 0-5v-1z"/><path class="h" d="M1166 672c0 4 3 8 7 9-1 4-2 7-1 11s4 7 8 6c-3 7 2 14 8 16 1 3 1 7 3 9s6 3 9 1a10 10 0 0012 8c1 2 2 5 4 6s6 2 7 0a7 7 0 007 6 22 22 0 014 0c4 0 7 4 11 4 5 1 5-4 10-5 4-1 7 1 11 2s8-2 7-5c3 2 7 4 11 3s8-4 7-8c3 4 10 0 10-4a9 9 0 0014-10 7 7 0 108-12 7 7 0 007-13c3 0 5-1 6-3s1-6-2-7c8-1 12-12 8-18a8 8 0 103-15 9 9 0 00-4-17c2-5-2-11-7-10a7 7 0 00-6-12c4-5 0-15-7-15 1-2-1-6-4-8s-6-1-9-1c-1-3-1-7-4-9s-7-3-9 0c-2-7-12-10-18-7-2-5-12-5-15 0-6-6-19-5-24 2-4-5-15-2-16 5-7-4-17 0-19 8-5-3-13 1-13 7a13 13 0 00-8 16c-3 1-4 6-5 11a4 4 0 01-2 3c-2 1-5 4-6 10l2 9c0 1-9 5-2 14-1 4-3 8-3 13z"/><path class="f" d="M1328 605c-1-3-4-6-7-5 1-3-1-7-4-8l-9-2c-1-3-2-7-4-9s-7-3-9 0c-2-7-12-10-18-7-3-5-13-5-15 0-6-6-19-5-24 2-5-5-15-2-16 5-7-4-17 0-19 8-5-3-13 1-13 7a13 13 0 00-8 16c-3 1-4 7-5 11a4 4 0 01-2 3c-2 1-5 4-6 10l2 9c0 1-9 5-2 14l-3 12c0 4 3 9 7 10-1 4-2 7-1 11s4 7 8 6c-3 6 2 14 8 16l3 9c2 3 7 3 9 1a10 10 0 0012 8c1 2 2 5 4 6s6 2 7 0a7 7 0 007 6 22 22 0 014 0c4 0 7 4 11 4 5 1 5-4 10-5 4-1 7 1 11 2s8-2 7-5c3 2 7 3 11 3a22 22 0 001-4 4 4 0 000-2l-4-3-6-5c-4-3-8-1-12-1s-9-3-8-7c1-5 9-3 13-6a4 4 0 00-4-4c1-3 4-4 7-5s6-4 4-7c-2-2-7 0-9-2s0-6 3-7l9-1c3-1 6-2 5-5-1-4-9-4-10-8 0-2 2-4 1-6s-4-3-6-1l-6 4a7 7 0 01-5-12l8-1c3 0 5-4 3-6l-6-3a26 26 0 0114-11c-3-2-3-7 0-9s6-2 9-3c8-1 22-1 28-6-7-9 6-14 14-17z"/><path class="g" d="M1209 702l-6-6-9-15c-1-3-1-7 2-7-2-3-3-8 0-9a15 15 0 01-10-10c-1-3-1-7 1-9l3-3a8 8 0 002-8l4-2-1-4a4 4 0 000-6l2-4c2-7 11-10 17-7 3-4-1-10 2-13 2-2 7 0 10 0 4 0 7-3 11-4 5-2 10 0 15 1 4 2 9 5 11 9s2 10-2 13c-2 2-5 2-8 2l-16 1a10 10 0 00-5 1 6 6 0 00-2 8 8 8 0 007 4c-1 4-4 5-7 6l-10 2c-3 1-5 6-3 9a8 8 0 016 1 22 22 0 00-6 11 103 103 0 0020 13l-5 3c-2 2-4 3-4 5s2 4 3 3l-1 8-5 5c-5 4-11 5-16 2z"/><path class="g" d="M1306 602l-2-1-4-4-5-2c-1-1-4-2-3-4v-3a3 3 0 00-2-2 14 14 0 00-10 0c-1 1-3 2-4 1l-1-3c-1-2-3-4-5-4a18 18 0 00-7 0c-4 1-10 0-11 5a1 1 0 001 2h1a5 5 0 012 0c3 2 6 4 6 7a7 7 0 001 2l3 1h4c3 1 3 5 2 7s-4 5-4 8a24 24 0 006 2l-3 4c-1 1-2 3-1 4 1 2 5 1 7 0s3-4 6-4a10 10 0 013 1 14 14 0 007 1 4 4 0 003-1c2-2-1-7 2-8h5a5 5 0 003-9zM1236 665c-2 1-2 3-1 5a7 7 0 002 1c3 1 5 4 7 7v4l-3 1a5 5 0 00-2 7 25 25 0 012 3v6l-4 7a11 11 0 01-2 4l-6 2c-4 1-9 2-13 0a26 26 0 00-5-1c-2 0-4 0-4 2-1 2 1 4 3 5h7a4 4 0 012 1l1 6a7 7 0 0013 4 22 22 0 005 6c2 2 5 3 7 2s4-4 3-7l-4-3a7 7 0 013-12l5-2a4 4 0 000-2 17 17 0 00-2-7c3-2 7-4 9-7s0-9-4-9h-4v-4l2-3c0-4-5-6-7-9v-5c-2-4-7-4-10-2zM1176 671a3 3 0 000 1l3 1c2 0 3 3 3 5a33 33 0 010 6 16 16 0 001 8c1 3 3 4 6 5l1 5a7 7 0 002 4 3 3 0 004-1c1-2 0-4-1-5l-2-4-1-6c0-3-2-5-3-7s-1-6 0-8a4 4 0 001-1 3 3 0 00-1-2c-2-6-11-10-13-1zM1193 601a6 6 0 003 1v3l-3 1a6 6 0 00-3 3l-2 6a4 4 0 000 3h4a7 7 0 002-4 8 8 0 011-5c3-3 9 0 12-4v-5c0-2 2-4 4-4 2 1 5-1 7-2 1-1 3-3 2-5a3 3 0 00-1-1c-2-2-5 0-8 1s-4 4-7 4c-5 1-10 2-11 8z"/></g></svg>