<svg xmlns="http://www.w3.org/2000/svg" xmlns:xlink="http://www.w3.org/1999/xlink" viewBox="0 0 1501 1001"><defs><radialGradient id="b" cx="458.9" cy="1227.4" r="51.8" gradientTransform="matrix(0 1 1 0 -826 -18)" gradientUnits="userSpaceOnUse"><stop offset="0" stop-color="#c0a373"/><stop offset="1" stop-color="#fff" stop-opacity="0"/></radialGradient><linearGradient id="a" x1="357.9" y1="1225.9" x2="357.9" y2="1131.2" gradientTransform="matrix(1 0 0 -1 -146 1444)" gradientUnits="userSpaceOnUse"><stop offset="0" stop-color="#a0edf0"/><stop offset="1" stop-color="#45dbe2"/></linearGradient><style>.e{isolation:isolate}.b{fill:#70b344;stroke:#5f732e}.ax,.ay,.b,.bb,.bc,.be,.x{stroke-miterlimit:10}.d{fill:#ddc02c}.e{opacity:.25}.aa,.f{fill:#7ebb15}.g{fill:#94d31a}.h{fill:#78a015}.i{fill:#897d6f}.j{fill:#635a52}.l{fill:#91887b}.p{fill:#8ab550}.q{fill:#97c261}.r{fill:#a9d171}.s{fill:#b3db7b}.t{fill:#dcf5f5}.u{fill:#f2ffff}.v{fill:#fff}.w{fill:#fddfb3}.x{fill:#1d150c}.ax,.ay,.bb,.bc,.be,.x{stroke:#1d150c}.y{fill:#81a653}.ad{mix-blend-mode:multiply}.aa{mix-blend-mode:screen}.ab{fill:#bdbdbd}.ac{fill:#d9d9d9}.ad{fill:#cfcfcf}.ae{fill:#cbcbcb}.ag{fill:#c6c6c6}.ah{fill:#e8e8e8}.aj{fill:#5c4328}.aj,.ak,.al,.am,.an,.ao,.ap,.aq,.ar,.as,.at,.au,.av,.aw,.bb,.bc,.be{fill-rule:evenodd}.ak{fill:#544730}.al{fill:#877657}.am{fill:#ae9c87}.an{fill:#68543c}.ao{fill:#9d8264}.ap{fill:#b49871}.aq{fill:#8f7e5f}.ar{fill:#857c68}.as{fill:#a59b84}.at{fill:#67604f}.au{fill:#bdb29a}.av{fill:#c1b09a}.aw{fill:#cdb186}.ax,.ay{fill:#3f2b0f}.ay{stroke-width:1.14px}.bb,.bc{fill:#571c10}.bc{stroke-width:1.04px}.be{fill:#c0a373}</style></defs><g style="isolation:isolate"><path class="b" d="M1001 501h250v250h-250zM1251 251h250v250h-250zM1001 251h250v250h-250zM1001 1h250v250h-250zM1251 1h250v250h-250zM751 251h250v250H751zM751 1h250v250H751zM751 501h250v250H751zM501 251h250v250H501zM251 251h250v250H251zM501 501h250v250H501zM251 501h250v250H251zM751 751h250v250H751zM251 751h250v250H251zM1001 751h250v250h-250zM501 1h250v250H501zM1251 501h250v250h-250zM1251 751h250v250h-250zM501 751h250v250H501zM251 1h250v250H251zM1 1h250v250H1zM1 751h250v250H1zM1 251h250v250H1zM1 501h250v250H1z"/><path d="M76 497c2-3 9-3 20-2h28l24 2c13 2 18 1 43 1 7 0 14 2 21 0 2 0 5-1 7 1s3 6 3 7c-1 15 2 30 0 45-1 9-3 32-1 53 1 11-2 21-1 31 1 2 1 5-1 7-3 3-10 1-14 0-8-2-19-2-43-2-18 0-18 2-30 1-15-2-15-5-26-5-15 1-24 8-29 4a5492 5492 0 01-1-54c2-19 0-15 2-40 1-13 2-24 0-31l-2-14v-4z" fill="#ffe161"/><path class="d" d="M147 641a2 2 0 01-2-1v-1l-1-2v-4a3 3 0 010-1v-5l1 1a7 7 0 00-1-2 2 2 0 002 1 2 2 0 001-1h-3a3 3 0 010-1 27 27 0 000-2v-1l1-1v-3a31 31 0 00-1-3v-1a2 2 0 011-1l-1-4v-3a3 3 0 011-3 43 43 0 01-1-7l-1-4-1-6 3 3v-3a3 3 0 01-1-1v-6l1-2v-1-1-1a2 2 0 011 0l-1-2v-6a1 1 0 010-1 2 2 0 011-1l-1-3v-1a1 1 0 010-1v-2-1-1a1 1 0 010-1 33 33 0 000-3 2 2 0 010-1 10 10 0 00-2-5l3-1a2 2 0 00-1 0v-6l1-4a23 23 0 01-1-3v-1-3l-1-3a3 3 0 011-2v-1l-6 3 5-6 1-2v-1l-1 1 1-3a20 20 0 010-4v-1a29 29 0 000-5 56 56 0 010-5 17 17 0 00-1-4l3-1a19 19 0 012 5l-1 3v2a26 26 0 011 4 1 1 0 010 1 14 14 0 00-1 3 1 1 0 010 1h1a14 14 0 00-1 3 7 7 0 010 4 14 14 0 011 3l1 3-1 1h-1v1l1 2v1l1 4 1 3-2-1a6 6 0 000 1h1v1a2 2 0 01-2 2 10 10 0 002 4h-1v5a30 30 0 010 6 15 15 0 000 2 30 30 0 010 5v1l1 4h-1v6a2 2 0 010 1 2 2 0 010 1l-1 5v5l1 1a2 2 0 010 2v4l-1 2a3 3 0 01-1 0v1a59 59 0 002 6 2 2 0 010 2l1 4-1-1a2 2 0 01-1 0v8l1 2v4l-1 1a5 5 0 010 1 2 2 0 010 2l-1 1 2 4a17 17 0 010 5h-1v4h1v2a2 2 0 01-2 1zm0-36h-1a2 2 0 001 0 2 2 0 001 0 1 1 0 00-1 0zm-3 0h1a2 2 0 00-1 0zm5-75zm-4-18a1 1 0 000 1 1 1 0 010-1z"/><path class="d" d="M134 642v-3a2 2 0 011-1v-1-12a12 12 0 01-1-4l1-2a1 1 0 01-1-1v-3l1-2a2 2 0 01-2-3 2 2 0 012-1l-1-5-1-2h1a8 8 0 010-2 3 3 0 010-1 7 7 0 010-2l1-4v-1l-1-1a2 2 0 010-2v-6h1v-1a4 4 0 011-2l-1-2a3 3 0 010-1h-1v-1l1-2h1v-1c-2-5-2-9-2-11l1-3-1-6v-3a1 1 0 01-1 0v-1h1a9 9 0 010-1v-8a2 2 0 010-1l1-1a16 16 0 000-4h-1a11 11 0 01-1-5 4 4 0 010-1 2 2 0 011-1v-2-2a8 8 0 010-3 2 2 0 011-3l-1-8v-1a2 2 0 011-1l-1-6v-3l3-3v3l2 12v8l5 9-6-5-1-1a29 29 0 000 4l1 2h-1v1a4 4 0 010 1 11 11 0 001 4v6a6 6 0 010 2l1 7-2-2v1a4 4 0 011 2h-1l1 4v4a2 2 0 001 1 1 1 0 010 2 3 3 0 01-1 0v6a18 18 0 001 5h1v11l-1-1a7 7 0 010 2l-1 3h1l-1 7v6a6 6 0 000 3 2 2 0 010 1l1 7v4a2 2 0 01-1 0v2a22 22 0 010 5l1 6 5 7-6-4 2 5-2 1a49 49 0 001 5h-1v1zm1-60h1a2 2 0 00-1 0zm2 0h-1a2 2 0 001 0zm-3-33zM127 640a2 2 0 01-1 0h-1-1v-2a1 1 0 010-1v-3a3 3 0 011-2v-1l-2-6v-1h1v-1l-1-2v-2a1 1 0 010-1 16 16 0 011-5v-1a30 30 0 000-4 1 1 0 010-1l1-1v-3h-1-1v-1l2-2a31 31 0 00-1-6 2 2 0 01-1-1v-1-1l-1-6h1v1h1v-3l-1-2 1-1a16 16 0 00-2-6l2-1v-1a13 13 0 010-1v-3a2 2 0 011-1 11 11 0 00-1-4 2 2 0 01-1-2 16 16 0 010-2 2 2 0 011-2v-1a2 2 0 010-2v-3a5 5 0 010-3v-1h-1v-2a4 4 0 010-2 5 5 0 001-2v-1a3 3 0 010-2 7 7 0 000-4 5 5 0 010-3 12 12 0 000-2h1v-4-1l-3-9-4-9 5 5a2 2 0 010-1 2 2 0 010-2 26 26 0 011-8v-9l1 3h1s2-1 2 1a2 2 0 000 1v2l-1 3a24 24 0 000 6 4 4 0 011 2 13 13 0 011 3v9h-1v-1a65 65 0 011 5l1 4-2-1a5 5 0 011 2l-1 1a2 2 0 01-1 1l1 1a9 9 0 01-1 5 3 3 0 000 1v1a8 8 0 010 4 2 2 0 000 1v1l1 2 2 7-1 1-1-1 1 2h-1v1h-1v3a13 13 0 011 7 18 18 0 000 3h-1a16 16 0 001 3 2 2 0 011 0h-1l-1 1a19 19 0 010 2v4a44 44 0 010 8 3 3 0 010 3 33 33 0 011 4v10a1 1 0 010 2 31 31 0 010 4 3 3 0 010 1h1l-1 1a4 4 0 01-1 0v12l1 6v1a37 37 0 000 4v2zm-4-130h1v-1a2 2 0 00-1 1zm4-14a2 2 0 001 0z"/><path class="d" d="M116 639a3 3 0 01-3-2l1-1a3 3 0 011-1v-1a15 15 0 010-3 22 22 0 01-2-4v-4-1a2 2 0 011-1 12 12 0 010-6l-1-3a1 1 0 011-1v-1-2a3 3 0 010-2 20 20 0 01-1-5v-2l-1-3v-1l1 1-1-1v-2h2v-3a2 2 0 01-1-2l1-3a5 5 0 011-3l-1-1 1-4v-3l-1 1-1-5v-1a4 4 0 010-2l-1-5v-1 1l2 2h1v-1l-1-2v-4l-1-3v-6-1a5 5 0 01-1-2v-1-2-1h1a8 8 0 000-2v-1h2v-1l-1 1v-1h-1v-1a2 2 0 010-2v-2-1a1 1 0 010-1v-1-2a2 2 0 011-3 4 4 0 010-1v-1a26 26 0 000-6l-1-2a2 2 0 011-2 8 8 0 010-1 4 4 0 000-3v-2a2 2 0 010-1 17 17 0 010-4l-1-2a15 15 0 01-1-3l-1-3v-1h1l3 3a3 3 0 011 1h1a13 13 0 010 1 4 4 0 010 2v1l1 5h1v1a2 2 0 01-1 1 6 6 0 010 4 3 3 0 000 3v1a27 27 0 010 7v1a4 4 0 010 1v2a2 2 0 01-1 0v3a28 28 0 010 3v6l-1 4v1l1 2a18 18 0 010 2l1 3-1 1v2a23 23 0 011 5v1a31 31 0 001 5l1 1v1h-3v1a3 3 0 010 1 40 40 0 012 9l1 4h-1a11 11 0 010 2h-1a6 6 0 000 3h1v1h-1a2 2 0 010 1v1a38 38 0 001 5l2 7h-1l-2-2-1 4a14 14 0 001 3v4a17 17 0 010 4v1a12 12 0 000 6v2a2 2 0 01-1 1v1a20 20 0 001 5 3 3 0 011 1l-1 1a42 42 0 001 4v1h-1a3 3 0 01-2 1zm0-7a3 3 0 001 0 2 2 0 001 0zm-1-49a2 2 0 001 1 3 3 0 001-1zm2-59a2 2 0 001 0zM104 636h-2a3 3 0 011-3 16 16 0 010-2 6 6 0 000-3l3-1a2 2 0 00-1-1 2 2 0 00-2 1 4 4 0 000-1h-1v-2l2-6a15 15 0 010-2v-1l-1-3a34 34 0 010-6 5 5 0 000-1 2 2 0 002 0 2 2 0 001-1h-3a11 11 0 000-3s-1-1 1-2a16 16 0 00-2-4 2 2 0 011-2v-1a12 12 0 01-2-3l3-1a22 22 0 00-1-5 2 2 0 010-1h-1v-2-1a1 1 0 011-2l-1-4 1 1a7 7 0 010-2 2 2 0 000-1 1 1 0 010-1v-6a4 4 0 010-3 16 16 0 000-6 20 20 0 01-1-3h2a10 10 0 010-2 21 21 0 00-1-6h-1v-2l1-2a5 5 0 010-2 14 14 0 010-2 13 13 0 010-4 3 3 0 011-2 20 20 0 000-5 1 1 0 010-1l-3-5 2 1a10 10 0 010-3l1-2v-2a7 7 0 01-1-2 4 4 0 011-2 33 33 0 010-5v-1l-1-3a49 49 0 010-6h1a5 5 0 000-1l3-1v15-1 5l1 3 1 4-2 1v4a2 2 0 010 1 12 12 0 011 3l-1 4v2a2 2 0 010 1 16 16 0 000 3 4 4 0 011 1v1a2 2 0 01-2 1v1a3 3 0 011 3 23 23 0 010 6l1 1c0 1 1 4-1 5a33 33 0 010 7 2 2 0 000 1v6a4 4 0 010 3 5 5 0 00-1 3 4 4 0 010 4v1a20 20 0 012 6l-1 4a18 18 0 00-1 3 16 16 0 011 4v4l-1 1a11 11 0 010 1 5 5 0 011 1 13 13 0 010 2 2 2 0 01-1 2l1 4a1 1 0 010 1v2a10 10 0 001 2l2 6-4-3v3a2 2 0 011 0v4a8 8 0 010 3 12 12 0 000 3l2 8zm1-67a2 2 0 00-2 0h2zm1-75a2 2 0 00-1 0zM97 634h-1a3 3 0 010 1v6a3 3 0 01-3 0 2 2 0 01-1-2h1a9 9 0 00-1-4l-4-10 4 5a2 2 0 011-2v-2a14 14 0 00-2-5h2v-1a2 2 0 00-2 1v-1a8 8 0 011-2v-1h-1l-3 1h-1l6-4a10 10 0 001-3 37 37 0 00-1-5 12 12 0 01-1-2h1v-1a4 4 0 010-1 11 11 0 000-4v-2l-1-2v-1c0-2 0-4 2-5l-1-3v-2-1a5 5 0 010-1v-3-1-1a1 1 0 01-1 0 4 4 0 011-3v-1a2 2 0 010-2v-5-1-3a2 2 0 010-2l-1-2a3 3 0 011-2 2 2 0 010-2v-1-1-6h1l-1-3a1 1 0 010-1v-2l-1-3h2v-1h-1a2 2 0 000 1v-1a3 3 0 010-1 6 6 0 011-3v-1a15 15 0 00-1-3l-3-2v-1h1l2 1a38 38 0 000-6 1 1 0 01-1-2v-1h1l-1-6v-1a1 1 0 011-1 5 5 0 011-3 2 2 0 000-2 4 4 0 01-1-2v-3-1a2 2 0 003-1h-3-1a2 2 0 012-1 2 2 0 012 1v2l1 1v3a4 4 0 010 4v4h-1l1 5v6l-1 5v1a16 16 0 011 2v4a4 4 0 000 1l-1 1h-1 1v1a1 1 0 000-1 3 3 0 000 1v3a34 34 0 011 5v5-1 5a1 1 0 010 2h-1l3 8h-1l-1-2h-1a1 1 0 010 1v1l1 4h-1a49 49 0 002 6h-2v5l1 3a1 1 0 010 1v6a2 2 0 000 1 1 1 0 01-1 1 7 7 0 000 3 27 27 0 010 2v1l1 2a13 13 0 010 4 16 16 0 010 2 5 5 0 010 1v1l1 3-1 3v1a9 9 0 010 2 11 11 0 01-1 3l-1 3a15 15 0 011 4 23 23 0 002 5l3 9v1l-4-6zm-3 5a2 2 0 00-1 0h2a3 3 0 00-1 0zm-1-36a2 2 0 002 0 2 2 0 002 0z"/><path class="d" d="M85 634a2 2 0 01-2-2v-2-1-5l-1-2a3 3 0 010-1h1a3 3 0 01-1-1v-1a3 3 0 011-1 13 13 0 00-2-6l3-1a2 2 0 00-2 0 6 6 0 001-1v-4a10 10 0 000-3 13 13 0 010-2h1v-3a2 2 0 01-1-1v-2l-1-5-1-1h1a2 2 0 000-1v-2l-1-5v-1l-2-4 1-1 2 2h1l-1-5v-4h-1l-2-2 1-1 2 1v-1a2 2 0 011-1 4 4 0 010-1v-1l1-3v-1a96 96 0 01-2-5 2 2 0 010-1v-1l1-4a16 16 0 010-2 17 17 0 00-1-6l-3-8 3 4h1v-1a1 1 0 010-1 24 24 0 000-3h-1a3 3 0 010-2l-1-3 2 1v-1-1a20 20 0 00-1-7l1-1v-2a31 31 0 01-1-4l1-3v-3-3a8 8 0 010-4 5 5 0 000-2h-1 1c-1-3-1-4 1-5a3 3 0 013 1 1 1 0 010 1v2c0 1 0 0 0 0a1 1 0 01-1 1 9 9 0 010 2 6 6 0 001 4l4 7h-1l-3-3v1a10 10 0 010 2l-1 2v2l1 1v5a2 2 0 010 2 20 20 0 010 4 9 9 0 000 2v1l-1 1a7 7 0 010 1 17 17 0 011 2v5a2 2 0 01-1 0h1v1a5 5 0 00-1 1 3 3 0 010 2 19 19 0 010 4 9 9 0 001 5h-1v1a19 19 0 001 2l-1 1a67 67 0 002 6l2 6-2-2v1h-1a5 5 0 010 1 4 4 0 01-1 3 8 8 0 010 3 2 2 0 010 1 75 75 0 001 7 1 1 0 01-1 2 3 3 0 01-1 2l1 2v6l1 5 1 1-1 3-1 3a12 12 0 010 4 12 12 0 001 2l1 1h-1l-1 1a7 7 0 010 1 15 15 0 011 4v4a7 7 0 01-1 2v1l1 5 1 2a1 1 0 010 1v1a2 2 0 01-2 2zm-2-13zm2-14v1a2 2 0 001-1zm-2 1h1l-1-1v1zm2-7zm0-5h1a3 3 0 00-1 0zm-1-43a2 2 0 001 0zm1-18a2 2 0 00-1 0 3 3 0 001 0 2 2 0 001 0 3 3 0 00-1 0zm-1-40h-1 1zm2-2zM209 645v-3a2 2 0 011-1v-5c-1-4-2-6-1-8a12 12 0 010-4v-2a1 1 0 010-1v-3-2a2 2 0 01-1-3 2 2 0 012-1l-1-5-1-2h1a7 7 0 010-2 3 3 0 010-1 7 7 0 010-2v-4-1-1a2 2 0 010-2v-6h1a1 1 0 010-1 4 4 0 010-2v-2a4 4 0 01-1-1v-1l1-2a3 3 0 011 0v-1c-3-5-3-9-2-11v-4-5l-1-3a1 1 0 010-1 7 7 0 011-1c-2-5-1-7 0-8a2 2 0 010-1v-1a17 17 0 000-4 11 11 0 01-1-5 4 4 0 010-1 2 2 0 010-1v-2-2a8 8 0 011-3 2 2 0 011-3l-2-8v-1h1a2 2 0 011-2l-1-5a2 2 0 000-1v-2l3-3v3l2 12-1 6 1 2 4 9-5-5-1-1a29 29 0 000 4v3a4 4 0 010 1 11 11 0 000 4l1 4v2a6 6 0 010 2v7l-1-2v1a4 4 0 011 2h-1v4l1 3v1a2 2 0 000 1h1a1 1 0 01-1 2v5l-1 1a18 18 0 002 5l1 11-1-2a7 7 0 010 2l-1 4v13a6 6 0 00-1 3 3 3 0 010 1l1 7v2h1v1l-1 1v2a22 22 0 010 5l1 6 4 7-5-4 2 5-2 1a49 49 0 001 4l-1 1v1zm1-60zm2 0h-1a2 2 0 001 0zm-3-33zM199 641a2 2 0 01-1 0h-1a13 13 0 010-1 1 1 0 010-2v-3a3 3 0 011-2l-2-7h1a1 1 0 010-1l-1-3v-1-1a1 1 0 010-1l1-5a28 28 0 000-4 1 1 0 010-2h1v-4h-2l2-2a30 30 0 00-1-6 2 2 0 01-1-1v-1-2l-1-6 2 2v-6l-2-7h2v-1a13 13 0 010-2v-3a2 2 0 011 0 11 11 0 00-1-5 2 2 0 01-1-1 18 18 0 010-2 2 2 0 011-2v-2a2 2 0 010-1 31 31 0 010-3 5 5 0 010-3v-1h-1v-3a4 4 0 010-1 6 6 0 001-3v-3a7 7 0 000-4 5 5 0 010-2 11 11 0 000-2h1v-4-1a35 35 0 00-3-10l-5-10 6 6a2 2 0 011-2 26 26 0 010-8v-10l1 3a4 4 0 011 0l2 1a6 6 0 010 1v3l-1 2a25 25 0 000 7 4 4 0 011 2 13 13 0 011 3v10l-1-2 1 4v1l2 4-3-1a2 2 0 001 0 5 5 0 010 2h-1a2 2 0 010 2 9 9 0 01-1 6v1a8 8 0 010 4 2 2 0 000 1v2a24 24 0 011 2l2 8-2-2 1 3h-1l-1 3v1a13 13 0 011 7 18 18 0 000 2h-1a16 16 0 002 3 2 2 0 010 1h-2a18 18 0 010 3v1a2 2 0 010 1h1v2a44 44 0 01-1 7v3a4 4 0 010 1 34 34 0 011 4v10a1 1 0 010 2 32 32 0 010 3 3 3 0 011 1v1l-1 1a4 4 0 01-1 0 36 36 0 000 4v2l1 5-1 1 2 7h-1a38 38 0 000 4h1l-1 2zm-3-130h1a2 2 0 00-1 0zm3-14v1a2 2 0 002-1z"/><path class="d" d="M188 645a3 3 0 01-3-2l2-1a3 3 0 011-1v-1a14 14 0 01-1-3 20 20 0 01-1-4v-4a2 2 0 011-2 12 12 0 010-6l-1-3a1 1 0 011-1v-3a3 3 0 010-2 20 20 0 01-1-5v-2l-1-4 1 1-1-1v-2h2v-3a2 2 0 01-1-1l1-4a5 5 0 010-3v-1l1-4v-3l-1 1-1-5a3 3 0 01-1-3l-1-6 3 3a3 3 0 011 0l-1-2v-5l-1-3v-6-1a4 4 0 01-1-2v-1-3h1a7 7 0 000-2l2-1v-1l-1 1v-1a1 1 0 00-1 1v-1-1a2 2 0 010-2v-2-1a1 1 0 010-1v-1-2a2 2 0 011-3 4 4 0 010-1v-1a25 25 0 000-6l-1-2a2 2 0 011-2 6 6 0 010-1 4 4 0 000-3v-2a2 2 0 010-1 15 15 0 01-1-4v-2a15 15 0 01-1-3l-1-4 4 3a3 3 0 011 1h1a12 12 0 010 1 5 5 0 010 2v2l1 4h1l-1 1a2 2 0 010 1 6 6 0 010 4 3 3 0 000 3l-1 1h1a27 27 0 010 7v1a5 5 0 010 1l-1 1 1 1h-1a2 2 0 010 1v2a30 30 0 010 3v6l-1 5v2l1 2v6a22 22 0 010 6v1a33 33 0 002 5l1 1-3 1a3 3 0 010 1 40 40 0 012 9v5l-1-1a11 11 0 010 2 6 6 0 000 3l1 1h-2a2 2 0 010 1l1 1a38 38 0 001 6l2 7-4-3h1l-1 4a13 13 0 001 4h-1l1 3a17 17 0 010 5h-1a11 11 0 001 6v1h-1 1v1a2 2 0 01-1 2 20 20 0 001 5 3 3 0 011 1h-1a41 41 0 001 5v1h-2a2 2 0 01-2 2zm1-7a2 2 0 001 0 2 2 0 001 0zm-1-48a2 2 0 001 0 2 2 0 001-1zm1-60a2 2 0 011 0zM177 642h-2a3 3 0 011-3 16 16 0 010-2 6 6 0 000-3l3-2a2 2 0 00-1 0 2 2 0 00-2 1 4 4 0 000-1h-1v-2-1l2-5a16 16 0 010-3v-1l-1-2a34 34 0 010-6v-1a5 5 0 000-1 2 2 0 002 1 2 2 0 001-1h-3a11 11 0 000-3c0-1-1-2 1-2a16 16 0 00-2-4v-1a2 2 0 011-2v-1a12 12 0 01-2-2l3-1a23 23 0 00-1-5 2 2 0 010-1l-1-1a36 36 0 010-3 1 1 0 010-1v-4l1 1a6 6 0 010-2 2 2 0 000-1 1 1 0 010-1v-1-6a4 4 0 010-3 16 16 0 000-6 21 21 0 01-1-2l2-1a10 10 0 010-1 21 21 0 00-1-6h-1v-2l1-2a5 5 0 010-2 15 15 0 010-2 13 13 0 010-4 3 3 0 011-3 20 20 0 000-4 2 2 0 010-1l-3-5 2 1a10 10 0 010-3l1-2v-2a8 8 0 01-1-3 4 4 0 011-1 33 33 0 010-6v-1l-1-3a50 50 0 010-5l1-1 3-1v19l1 2v1l1 4h-2a41 41 0 000 5v1a11 11 0 011 3l-1 4v2a2 2 0 010 1 18 18 0 000 3 4 4 0 011 1v1a2 2 0 01-2 1v1a3 3 0 011 2 23 23 0 010 6 5 5 0 000 1l1 1s1 4-1 5a33 33 0 010 7 2 2 0 000 1v5a4 4 0 010 4 5 5 0 00-1 3 4 4 0 010 4v1a20 20 0 012 5v5a3 3 0 01-1 1 3 3 0 01-1 2 16 16 0 011 4v4a9 9 0 01-1 2 4 4 0 011 1 13 13 0 010 2 2 2 0 01-1 1l1 4a1 1 0 010 1v2a9 9 0 001 3l2 6-4-3v2a2 2 0 011 1v4a8 8 0 010 3 12 12 0 000 3l2 7zm1-67a2 2 0 00-1 0h2a3 3 0 00-1 0zm1-76a2 2 0 00-1 0h1z"/><path class="d" d="M170 633h-1a2 2 0 010 1c0 1 1 4-1 5a3 3 0 01-2 1 2 2 0 01-2-2l1-1a8 8 0 000-4l-5-11 5 7a2 2 0 011-2v-3a14 14 0 00-2-4 1 1 0 010-1h2l-1-1a2 2 0 00-1 1v-1l1-3-6 2 7-5a10 10 0 001-2v-1a38 38 0 00-1-5 2 2 0 01-1 0 11 11 0 010-2h1a9 9 0 000-1 3 3 0 010-1 11 11 0 000-3v-3l-1-2 1-6v-2-3a5 5 0 010-2v-2l-1-2a1 1 0 010-1 4 4 0 011-3 2 2 0 010-2 2 2 0 010-1v-5l-1-4 1-2-1-2a3 3 0 010-2 2 2 0 011-2v-2-5h1l-1-4a1 1 0 010-1l-1-1v-4h2a2 2 0 01-1-1 2 2 0 00-1 1 3 3 0 011-2 6 6 0 011-3 14 14 0 00-1-4l-3-2h3a38 38 0 000-6 1 1 0 01-1-2l1-1-1-6a1 1 0 011-2 5 5 0 011-3 2 2 0 000-2 4 4 0 01-1-1v-3l-1-2a2 2 0 002 0 2 2 0 002-1h-4a2 2 0 012-1 2 2 0 012 1v2l1 2v2a4 4 0 010 4v4h-1l1 5v6l-1 6a15 15 0 011 2v4a4 4 0 000 2l-1 1a1 1 0 00-1 0h1a2 2 0 010 1v2a34 34 0 011 5v5-1 6a2 2 0 01-1 1v1l3 9-3-4a2 2 0 010 1v6a52 52 0 002 5l-2 1v8a2 2 0 011 0v6a1 1 0 010 1l-1 2a7 7 0 000 2 24 24 0 010 3l1 2a13 13 0 010 4 18 18 0 010 3 4 4 0 01-1 1l2 4-1 3a9 9 0 01-1 2 10 10 0 010 4l-1 2a16 16 0 011 5 23 23 0 001 4l5 11zm-3 4a2 2 0 00-1 0h2a2 2 0 00-1 0zm-1-36a2 2 0 002 0 2 2 0 001 0z"/><path class="d" d="M158 640a2 2 0 01-2-2v-3a290 290 0 00-1-7 4 4 0 010-1 3 3 0 010-1h-1l1-1a3 3 0 011-1 13 13 0 00-2-6l3-1a2 2 0 00-2 0 6 6 0 001-1l-1-4a10 10 0 000-3 14 14 0 010-2h1v-3a3 3 0 010-1l-1-2-1-5v-1h1v-3a73 73 0 00-2-6l-1-5 4 3-1-6-1-4-3-3 4 1v-1a2 2 0 011-1 4 4 0 010-1l1-4a78 78 0 01-2-6 2 2 0 010-1c-1-3 0-4 1-5a13 13 0 01-1-2 18 18 0 00-1-6l-3-9 4 5a5 5 0 010-1 1 1 0 011-1 22 22 0 00-1-3 3 3 0 01-1-2l-1-3 3 1a14 14 0 010-2 20 20 0 00-2-7l2-1v-1h-1a32 32 0 010-5l1-3-1-3 1-3a8 8 0 01-1-4 6 6 0 000-1v-1c0-3 0-4 2-5a2 2 0 012 1 1 1 0 011 1v2c0 1 0 0 0 0a1 1 0 01-1 1 8 8 0 010 2 6 6 0 001 4l4 8-5-4a13 13 0 010 3v6l1 2v2a2 2 0 01-1 2 19 19 0 011 4 9 9 0 000 2v1h-1v1a7 7 0 010 1 18 18 0 010 2v6a5 5 0 000 1 3 3 0 01-1 2 19 19 0 011 5 9 9 0 001 4h-2a18 18 0 001 4 64 64 0 002 6l2 7-3-3 1 1h-2a6 6 0 010 1l-1 3v1a8 8 0 011 2 2 2 0 01-1 1 72 72 0 002 8 1 1 0 01-1 1 3 3 0 01-1 2v2l1 3v3h-1l1 5h1v4l-1 3a12 12 0 010 4 11 11 0 001 2v1h-1v1a6 6 0 01-1 1 15 15 0 011 4v4a6 6 0 010 2 2 2 0 01-1 0l1 2 1 4v2a1 1 0 010 1v1a2 2 0 01-2 2zm-2-13zm2-14v1a2 2 0 000-1zm-3 0a1 1 0 001 1l1-1zm2-6h1zm1-4h1a2 2 0 00-1 0zm-1-44a3 3 0 001 0zm1-18a2 2 0 00-2 0h1a2 2 0 002 0 2 2 0 00-1 0zm-2-40h1zm3-2z"/><path class="f" d="M768 331c1-7 4-13 10-16s13-2 17 3c4-6 10-10 16-11s14 3 17 9c9 2 15 13 12 22a35 35 0 00-2 4v4l-5 10c-6 7-14 12-23 15s-19 4-28 1c-7-3-13-11-13-19v-8c0-5-2-9-1-14z"/><path class="g" d="M776 360l-2-14c1-6 5-13 10-16s14-2 18 3c4-5 10-10 16-11s14 3 16 9a15 15 0 017 3c1-8-5-18-13-19-3-6-10-9-17-9s-12 5-16 11c-4-5-12-6-17-3s-9 9-10 16c-1 5 1 9 1 14v8a21 21 0 007 14 35 35 0 000-6z"/><path class="f" d="M865 459c8-1 15-9 14-17a14 14 0 007-25c4-2 5-7 3-12s-6-7-10-9a37 37 0 00-37 4 17 17 0 01-4 2 39 39 0 01-4 1c-6 2-10 9-10 15s3 13 5 19c4 7 10 7 16 11 7 5 11 12 20 11z"/><path class="h" d="M886 417c4-2 5-8 3-12s-6-7-10-9a36 36 0 00-12-3 17 17 0 018 8c2 4 1 9-3 12a14 14 0 01-7 25c1 7-5 15-13 16 4 3 7 6 13 5 8-1 15-9 14-17a14 14 0 007-25z"/><path class="f" d="M713 412a16 16 0 002 18 27 27 0 00-9 18c0 6 2 13 7 16 5 2 11 1 17-1-2 4-1 8 1 11a18 18 0 0010 6 23 23 0 0016-1c5-2 9-7 9-13 5 3 11 1 15-2s7-8 9-13c2-6 2-13 0-19s-7-12-13-14c1-3 2-7 0-11-1-3-5-5-8-6-7-3-14-5-22-5s-12 4-18 7-12 2-16 9z"/><path class="h" d="M777 410h1a10 10 0 000-2l-1 2zM790 442c-2 5-5 10-9 13s-10 5-15 3c0 5-4 10-9 12a23 23 0 01-16 1 18 18 0 01-10-6c-2-3-3-7-1-11-6 2-12 4-17 1-4-2-6-6-7-10a25 25 0 000 3c0 6 2 13 7 16s11 1 17-1c-2 4-1 8 1 11a18 18 0 0010 6 23 23 0 0016-1c5-2 9-7 9-13 5 3 11 1 15-2s7-8 9-13a34 34 0 001-15 38 38 0 01-1 6zM715 421a16 16 0 01-3-6 17 17 0 000 9 28 28 0 013-3z"/><path class="f" d="M719 340c-1 1-3 3-3 5s1 5 3 5a25 25 0 00-15 18 37 37 0 001 13c1 5 3 10 8 10a10 10 0 013 0c2 0 2 3 3 5a18 18 0 0031 7 5 5 0 012-2c1-1 3 0 4 1a23 23 0 0035-13 23 23 0 00-4-40c3-3 4-7 2-11s-5-7-8-9a25 25 0 00-14-2 19 19 0 01-5 1 20 20 0 01-4-1 24 24 0 00-21 3c-3 2-4 4-7 4-4 2-7 2-11 6z"/><path class="h" d="M801 368a24 24 0 00-9-16 22 22 0 012 5 24 24 0 01-11 22 23 23 0 01-29 15 23 23 0 01-6-2l-4-2a5 5 0 00-2 2 18 18 0 01-18 6 17 17 0 01-5-2 18 18 0 0031 7 5 5 0 012-2l4 1a24 24 0 0035-12 24 24 0 0010-22z"/><path class="g" d="M725 359c-6 1-11 7-9 13s7 10 13 9a7 7 0 005-2 8 8 0 001-4 37 37 0 000-8 9 9 0 009-6c1-3 1-7 4-8h5c2 0 4-2 5-4s2-4 1-6c-1-3-5-4-8-4h-14c-7 0-7 3-9 8-2 4-6 7-3 12z"/><path class="f" d="M800 404c-2 0-4 0-6 2s-2 4 0 5a25 25 0 00-24 5 37 37 0 00-7 11c-2 4-4 9 0 12a10 10 0 012 2c1 1 0 4-1 6a18 18 0 0019 25 5 5 0 013 0c2 0 2 2 3 3a23 23 0 0035 13 23 23 0 0023-34c4 0 7-4 8-7s1-9-1-12a25 25 0 00-10-11 12 12 0 01-6-6 24 24 0 00-18-10c-4-1-5 0-8-2-4-2-7-3-12-2z"/><path class="h" d="M845 478a24 24 0 004-18 22 22 0 01-3 4 24 24 0 01-21 10 23 23 0 01-35-12l-3-4a5 5 0 00-3 0 18 18 0 01-17-6 17 17 0 01-3-5 18 18 0 0019 25 5 5 0 013-1l3 4a23 23 0 0035 13 24 24 0 0021-10z"/><path class="g" d="M794 429c-5-3-12-1-15 4s-1 12 4 16c2 1 4 2 6 1a8 8 0 003-2 36 36 0 005-7 9 9 0 0011 2c2-2 5-5 8-4l3 3c2 2 5 1 7 0s4-2 5-4c1-3-2-6-5-8l-10-9c-6-4-7-2-12 1-4 2-9 1-10 7z"/><path class="f" d="M827 333l-6 2c-2 1-2 5 0 6a25 25 0 00-24 5 37 37 0 00-7 11c-2 3-4 9 0 12a10 10 0 012 2c1 1 0 4-1 5a18 18 0 0020 26 5 5 0 012-1l3 4a23 23 0 0035 13 23 23 0 0023-34c4 0 7-4 8-8s1-8-1-11a25 25 0 00-9-11 20 20 0 01-4-2 20 20 0 01-3-4 24 24 0 00-18-10c-4-1-5 0-8-2-4-2-7-3-12-3z"/><path class="h" d="M872 408a24 24 0 004-18 22 22 0 01-3 4 24 24 0 01-21 10 23 23 0 01-35-12l-3-4a5 5 0 00-3 0 18 18 0 01-17-6 17 17 0 01-3-6 18 18 0 0020 26 5 5 0 012-1l3 4a23 23 0 0035 13 24 24 0 0021-10z"/><path class="g" d="M819 352c-5-3-12-1-15 4s-1 12 4 16c2 1 4 2 6 1a8 8 0 003-3 37 37 0 005-6 9 9 0 0011 1c2-1 5-4 8-3l4 3c1 2 4 1 6 0s4-2 5-4c1-3-2-6-4-8l-11-9c-6-4-7-2-12 1-4 2-9 1-10 7z"/><path class="f" d="M746 387a18 18 0 00-6 5c-3 5-2 12 0 18-7 2-9 13-4 19s13 7 20 5a24 24 0 0038-4l3-3a9 9 0 013 0 13 13 0 0011-5 22 22 0 003-12 26 26 0 011-6l2-4a17 17 0 00-3-16 21 21 0 00-14-8 19 19 0 00-16-10c-9-1-13 5-18 11-5 5-14 6-20 10z"/><path class="g" d="M751 420c-2-6-4-13-1-18a19 19 0 017-6c6-4 15-4 19-10 6-6 9-11 19-11a19 19 0 0116 11 22 22 0 017 2 18 18 0 00-3-6 21 21 0 00-15-8 19 19 0 00-16-10c-9-1-13 5-18 11-5 5-14 6-20 9a19 19 0 00-6 6c-3 5-2 12 0 18-7 2-9 13-4 19a16 16 0 008 6c-1-6 2-11 7-13z"/><path class="h" d="M814 384a19 19 0 00-1-2 15 15 0 01-2 7l-1 4a26 26 0 00-1 6 21 21 0 01-4 11 13 13 0 01-10 6 9 9 0 00-4 0l-3 3a24 24 0 01-34 6 25 25 0 01-3-3c-6 2-13 2-18-2a13 13 0 003 9c4 6 13 8 20 5a24 24 0 0038-4l3-3a9 9 0 013 0c4 0 8-2 11-5a21 21 0 003-12 26 26 0 011-6l2-4a17 17 0 00-3-16z"/><path class="f" d="M793 378c-5 2-10 6-12 11s-1 13 5 16c-1 3-1 8 1 10 2 3 6 4 9 4 6 1 12 0 14-5a15 15 0 0024-7 35 35 0 012-5l2-3a10 10 0 00-9-15 12 12 0 00-6-9c-4-2-8 0-12 0-6 1-12 0-18 3z"/><path class="h" d="M838 390a10 10 0 00-5-5 10 10 0 01-1 3l-2 3a32 32 0 00-1 5 15 15 0 01-25 6c-2 5-8 6-13 6a20 20 0 01-6-1c0 3 0 6 2 9s6 3 9 3c6 1 12 0 14-5a15 15 0 0024-7 33 33 0 012-5l2-3a10 10 0 000-9z"/><path class="i" d="M1231 506a56 56 0 00-7-3c-7-2-22-11-30-11-3 0-10 2-15 14-3 7-3 15-2 22 1 14 13 61 15 67 3 8 6 16 12 22l7-1-1-2c-5-11-13-49 5-54a52 52 0 018-3l19-8 1-1 1-1c-1-5-2-10-5-13-5-7-13-6-21-6-4 0-9 1-11 3-2 3-2 0-2-1 2-3 4-3 6-5s2-5 5-7l9-2c6-3 15 5 20 9a38 38 0 013 2 118 118 0 00-17-21z"/><path class="j" d="M1245 547l-2 1zM1243 548l-1 1z"/><path d="M1164 487c-9 5-18 12-26 19l-26 19-1 2c13-6 20-6 34-12l15-8c-6 19-3 51 5 67 1-4 2-10 0-24-1-10-3-24-1-30 2-10 10-19 17-27 8-10 16-4 19-3a148 148 0 0022 8l-5-4c-16-11-35-16-53-7z" fill="#bab2a8"/><path class="l" d="M1200 490c-3-1-11-7-19 3-7 8-15 17-17 27-2 6 0 20 1 30 2 14 1 20 0 24-8-16-11-48-6-67l-14 8c-14 6-21 6-34 12-6 7-7 16-7 25-1 14-2 41 4 49a19 19 0 002 2c-1-4 1-9 4-15 6-12 12-22 22-30h1l6-13h1c-1 11-9 21-14 30l-8 15c-3 6-5 11-3 18v1a59 59 0 006 2c0-7 5-13 11-17l13-5c3-2 6-3 10-3 10 0 12 6 18 12 2 3 6-1 8-5 1-3 3-4 5-5-4-15-13-49-13-60-1-7-1-15 2-22 5-12 12-14 15-14 8 0 23 8 30 11a56 56 0 017 3l-9-8a149 149 0 01-22-8z"/><path class="j" d="M1146 527c-5 2-11 2-15 5-3 3-3 6-5 9l-8 10c-6 8-6 18-7 26-1 5-4 16 3 18a1 1 0 001 0c3-11 9-20 17-29 4-5 11-13 12-21 0-1 2-12 6-18 2-2-2-1-4 0z"/><path class="i" d="M1143 545l-6 13h-1c-10 8-16 18-22 30-3 6-5 11-4 15a30 30 0 009 6c-2-8 0-13 3-19l8-15c5-9 13-19 14-30h-1z"/><path class="j" d="M1190 588l-5 5c-2 4-6 8-8 5-6-6-8-11-18-12-4 0-7 1-10 3l-13 5c-6 4-11 10-11 17h1c6-10 19-10 29-9 6 0 10 1 14 5 4 3 10 6 13 4 4-2 7 2 11 6h11c-6-6-9-14-12-22l-2-7zM1249 527a38 38 0 00-4-3c-5-3-14-11-20-8l-9 2c-3 2-3 5-5 7s-4 2-5 5c-1 1-1 4 1 1s7-3 11-3c8 0 16-1 21 6 3 3 4 8 6 13l-2 1-1 1-19 8a51 51 0 00-8 3c-18 5-10 43-5 54l1 2 9-1a71 71 0 0013-4c13-19 14-62 14-62 1-3 5-4 7-5l1 1v1c5 11 10 34 9 48a20 20 0 005-5s1-9-2-22c-4-15-15-35-18-40z"/><path d="M1256 546l-1-1-1-1c-2 1-6 2-7 5 0 0-1 43-14 62 10-3 20-1 25-4 6-3 9-7 9-9 0-15-7-41-11-52z" fill="#4f463f"/><path class="i" d="M1182 611c-3 2-9-1-13-4-4-4-8-5-14-5-10-1-23-1-29 9a427 427 0 0067 6c-4-4-7-8-11-6z"/><path class="l" d="M1248 542l-6-1c-4 1-8 5-19 6-6 1-13 0-19 4l-4 6c-2 5-6 5-7 8-1 4 3 9 2 12h1c4-5 7-12 13-16 3-3 7-5 17-6 8-1 12-4 17-5 9-1 7-5 12-6l-7-2z"/><path d="M202 202c8-6 19-26 59-3 25 14 11 54 31 48 27-6 47 25 21 50s-38 20-66 6c-10-4-16-8-31-6s-21 24-50 27-74-30-51-49 25-28 19-46 28-42 43-27 18 4 25 0z" fill="#45dbe2"/><path d="M262 292c-12 0-42-7-50-5s-31 7-38 19-54 6-56-11 5 2 17-20c11-20 12-27 12-33a6 6 0 01-3-3c-2-5 4-10 12-13s16-1 17 3a6 6 0 01-1 5h1c10 0 38-19 46-15s-20 11-10 17 31-7 38 1-19 7-14 13 24 2 27 6-7 5-3 8 10-2 15 2-23 6-19 12 21 14 9 14zm44-14c-2-6-11-7-20-4s-15 10-14 15 11 6 20 3 16-9 14-14z" transform="translate(1 1)" fill="url(#a)"/><path class="p" d="M243 267c2-6 0-13-6-16-6-2-15 1-15 4l7 5-8-3c-1 1-3 10 6 15a11 11 0 0016-5z"/><path class="q" d="M221 258a35 35 0 013 1l6 2-4-4a24 24 0 01-4-2c2-3 9-5 14-3 6 3 9 9 6 15a11 11 0 01-7 5 10 10 0 01-8-1c-7-4-7-12-6-13z"/><path class="r" d="M221 259l3 1c4 2 5 2 6 1 1-2 0-2-4-4a36 36 0 01-3-2c1-2 9-5 13-2 6 2 8 8 5 13a10 10 0 01-6 5 10 10 0 01-8 0c-6-4-6-10-6-12z"/><path class="s" d="M225 255c2-2 7-3 11-1s6 7 4 12a9 9 0 01-5 4 9 9 0 01-7-1 11 11 0 01-6-9l2 1c4 2 6 3 7 1h1c1-3-2-4-5-6l-2-1z"/><path class="p" d="M248 233c3-4 2-9-2-12-3-2-9-2-10 0l4 5-5-3c-1 0-3 6 1 10a8 8 0 0012 0z"/><path class="q" d="M235 223a25 25 0 012 2l3 1-2-2a17 17 0 01-2-2 1 1 0 010-1c1-1 7-2 10 1a8 8 0 011 10 7 7 0 01-5 3 7 7 0 01-5-2c-5-4-3-9-2-10z"/><path class="r" d="M235 224l1 1 4 2h1l-3-4-2-2c2-1 7-1 10 1a7 7 0 011 10 7 7 0 01-5 3 7 7 0 01-5-2c-4-4-3-8-2-9z"/><path class="s" d="M238 222c2-1 5-1 7 1a6 6 0 012 9 6 6 0 01-5 2 6 6 0 01-4-2 8 8 0 01-3-7l1 1c3 2 4 2 5 1s0-3-2-4a13 13 0 01-1-1z"/><path class="p" d="M168 277a12 12 0 0016 0c4-4 4-13 1-15-1-1-7 6-7 5-1-1 5-6 5-7s-8-6-15 0c-5 5-5 12 0 17z"/><path class="q" d="M183 260l-3 3-3 4c1 1 2 0 4-2a22 22 0 014-3c2 3 2 11-1 15a11 11 0 01-16-1 12 12 0 01-3-8 9 9 0 013-7c6-5 13-2 14-1z"/><path class="r" d="M182 260l-2 2c-3 4-4 4-3 5v1c1 1 2 0 5-3l3-2c1 2 2 10-2 13a10 10 0 01-14 0 11 11 0 01-4-8 9 9 0 013-7 11 11 0 0114-1z"/><path class="s" d="M184 265c1 3 1 8-2 10a9 9 0 01-13 0 10 10 0 01-2-7 8 8 0 012-6 10 10 0 0111-2l-1 1c-3 4-5 5-3 7v1c2 2 4 0 7-3l1-1z"/><path class="p" d="M181 241a8 8 0 00-5 10c1 4 7 7 9 6l-1-6 2 5c1 1 7-3 5-9 0-5-5-7-10-6z"/><path class="q" d="M187 256a21 21 0 01-1-2l-2-4v3a15 15 0 011 3h-1c-2 1-7-2-8-5a8 8 0 015-10 8 8 0 016 1 7 7 0 014 5c1 5-3 8-4 9z"/><path class="r" d="M187 255l-1-2-2-3v6c-2 0-7-2-8-5a7 7 0 015-9 8 8 0 016 0 6 6 0 013 5 8 8 0 01-3 8z"/><path class="s" d="M183 255c-2 0-5-2-6-4a6 6 0 015-8 7 7 0 015 0 5 5 0 013 4 7 7 0 01-3 7v-1c-1-3-1-4-3-4-2 1-2 2-1 5v1z"/><path class="t" d="M186 264a8 8 0 01-5-2 7 7 0 0110 0 8 8 0 01-5 2zM176 264a8 8 0 01-5-3 7 7 0 0110 1 8 8 0 01-5 2z"/><path class="t" d="M178 267a8 8 0 013-5 7 7 0 01-1 10 8 8 0 01-2-5zM179 257a8 8 0 013-5 7 7 0 01-1 10 8 8 0 01-2-5z"/><path class="t" d="M186 260a8 8 0 01-5 2 8 8 0 012-5c2-2 6-2 6-2a8 8 0 01-3 5zM179 267a8 8 0 01-6 1 7 7 0 018-6 8 8 0 01-2 5z"/><path class="t" d="M182 267a8 8 0 01-1-5 7 7 0 017 7 8 8 0 01-6-2zM176 259a8 8 0 01-2-5 7 7 0 017 8 8 8 0 01-5-3z"/><path class="u" d="M186 263a7 7 0 01-5-1 6 6 0 019-3 8 8 0 01-4 4zM177 265a8 8 0 01-5-1 6 6 0 019-2 7 7 0 01-4 3z"/><path class="u" d="M180 267a7 7 0 011-5 6 6 0 013 9 7 7 0 01-4-4zM178 258a7 7 0 010-5 6 6 0 013 9 7 7 0 01-3-4z"/><path class="v" d="M185 259a7 7 0 01-4 3 7 7 0 010-5 8 8 0 014-3 8 8 0 010 5zM181 267a7 7 0 01-5 3 7 7 0 011-5 8 8 0 014-3 7 7 0 010 5z"/><path class="v" d="M184 266a7 7 0 01-3-4 6 6 0 018 4 7 7 0 01-5 0zM176 261a7 7 0 01-3-4 6 6 0 018 5 7 7 0 01-5-1z"/><path class="w" d="M182 261a2 2 0 01-1 1 1 1 0 011-2 2 2 0 010 1zM181 263a2 2 0 01-1 0 2 2 0 010-1 2 2 0 011 0 2 2 0 010 1z"/><path class="w" d="M182 263a2 2 0 01-1-1 1 1 0 012 0v1a2 2 0 01-1 0z"/><path class="w" d="M180 262a2 2 0 01-1-1 1 1 0 012 0 1 1 0 010 1 2 2 0 01-1 0z"/><path class="w" d="M182 262a2 2 0 01-1 0 1 1 0 012-1 2 2 0 01-1 1z"/><path class="w" d="M180 262a2 2 0 01-1 0 1 1 0 012 0 2 2 0 01-1 0zM181 263a2 2 0 010-1 1 1 0 011 1 1 1 0 01-1 1 2 2 0 010-1z"/><path class="w" d="M180 261a2 2 0 010-1 1 1 0 011 2 2 2 0 01-1-1z"/><path class="x" d="M181 261a1 1 0 010 1 1 1 0 010-1zM181 262a1 1 0 01-1 1 1 1 0 010-1 1 1 0 011 0zM181 262a1 1 0 011 0 1 1 0 01-1 0z"/><path class="x" d="M180 262a1 1 0 010-1 1 1 0 011 1 1 1 0 01-1 0z"/><path class="x" d="M182 262a1 1 0 01-1 0 1 1 0 010-1 1 1 0 011 0 1 1 0 010 1zM180 262a1 1 0 011 0 1 1 0 01-1 0zM181 262a1 1 0 010 1 1 1 0 010-1zM181 261z"/><path class="p" d="M114 308l11-8-7 11a21 21 0 01-9 5 21 21 0 015-8z"/><path class="q" d="M112 310c7-9 2 1 2 1s10-6 1 2a13 13 0 01-6 3 16 16 0 013-6z"/><path class="r" d="M112 310c6-7 1 2 1 2s10-6 2 1a11 11 0 01-5 2 14 14 0 012-5z"/><path class="q" d="M114 310v1h1a72 72 0 00-5 5 42 42 0 004-6z"/><path class="p" d="M111 302l14-3s-7 6-12 8a21 21 0 01-10 1 21 21 0 018-6z"/><path class="q" d="M109 303c10-5 1 2 1 2s12-1 0 2a13 13 0 01-6 1 16 16 0 015-5z"/><path class="r" d="M109 304c8-5 0 2 0 2s11-2 1 1a11 11 0 01-6 0 14 14 0 015-3z"/><path class="q" d="M111 304l-1 1h1a69 69 0 00-7 2l7-3z"/><path class="p" d="M120 313l3-13 1 14a29 29 0 01-3 9 29 29 0 01-1-10z"/><path class="q" d="M120 316c1-11 2-1 2-1s3-10 1 1a18 18 0 01-2 6 22 22 0 01-1-6z"/><path class="r" d="M120 316c1-9 2 1 2 1s2-11 1-1a15 15 0 01-2 6 19 19 0 01-1-6z"/><path class="q" d="M121 315c1-1 1 1 1 1v-1l-1 7a62 62 0 000-7z"/><path class="p" d="M115 296l7 4s-5 2-8 1l-5-3 6-2z"/><path class="q" d="M113 296c6 1 0 3 0 3s6 3-1 2a6 6 0 01-3-3 8 8 0 014-2z"/><path class="r" d="M113 297c6 0-1 1-1 1s6 4 0 2a5 5 0 01-3-2 7 7 0 014-1z"/><path class="q" d="M114 298h-1v1a24 24 0 00-4-1 14 14 0 005 0z"/><path class="p" d="M123 308c-1-3 1-8 1-8l4 7c1 3-1 6-1 6s-3-2-4-5z"/><path class="q" d="M124 310c-3-6 2-1 2-1s1-7 2 0a6 6 0 01-1 4 8 8 0 01-3-3z"/><path class="r" d="M124 310c-2-5 2 0 2 0s1-7 2-1a5 5 0 01-1 3 7 7 0 01-3-2z"/><path class="q" d="M125 309h1v-1a25 25 0 001 5 14 14 0 00-2-4z"/><path class="p" d="M123 293l-1 8-3-8a11 11 0 011-6 11 11 0 013 6z"/><path class="q" d="M122 291c2 6-2 1-2 1s0 7-1 0a7 7 0 011-4 9 9 0 012 3z"/><path class="r" d="M122 291c1 6-2 0-2 0s0 7-1 1a6 6 0 011-4 7 7 0 012 3z"/><path class="q" d="M121 292h-1s1 0 0 0a34 34 0 000-4 20 20 0 001 4z"/><path class="p" d="M116 293l7 8-10-6a20 20 0 01-5-6 20 20 0 018 4z"/><path class="q" d="M114 291c7 6-1 2-1 2s6 7-1 1a12 12 0 01-3-5 16 16 0 015 2z"/><path class="r" d="M114 291c6 5-2 1-2 1s6 7 0 1a10 10 0 01-3-3 13 13 0 015 1z"/><path class="q" d="M114 293h-1l1 1-5-5a40 40 0 005 4z"/><path class="y" d="M113 304a10 10 0 005 0 14 14 0 002-1 13 13 0 00-2 1 11 11 0 00-2 5 10 10 0 004-3 17 17 0 002-3 26 26 0 000 4 15 15 0 000 5 15 15 0 001-5v-2a5 5 0 002 2 5 5 0 000-3 10 10 0 00-1-3v-1h-1 1-1a13 13 0 000-3 5 5 0 00-2-3 6 6 0 000 3 10 10 0 001 2 19 19 0 00-3-2 9 9 0 00-3-2 10 10 0 002 3h1a4 4 0 00-3 1 5 5 0 002 2 8 8 0 00-1 0 10 10 0 00-4 3zm10-3zm0 0z"/><path class="x" d="M126 299c-1 2-3 3-4 2s-1-3 0-5 4-2 5-1 1 3-1 4z"/><path class="x" d="M126 299l-4 2c-1 0-1-3 1-5s3-2 4-1 0 3-1 4z"/><path class="x" d="M127 297a2 2 0 110-2 2 2 0 010 2z"/><path class="x" d="M126 296l3-4-3 4c-1 0 0 0 0 0z"/><path class="p" d="M138 325c-3-6-11-12-11-12s3 10 6 15a24 24 0 009 7 24 24 0 00-4-10z"/><path class="q" d="M140 328c-6-12-3 0-3 0s-10-9-1 2a15 15 0 006 5 18 18 0 00-2-7z"/><path class="r" d="M140 328c-6-10-2 1-2 1s-9-8-2 1a13 13 0 005 4 16 16 0 00-1-6z"/><path class="q" d="M137 327l1 1h-2a79 79 0 015 6h1l-5-7z"/><path class="p" d="M142 319c-5-4-15-6-15-6s7 7 12 11a24 24 0 0011 3 24 24 0 00-8-8z"/><path class="q" d="M145 321c-10-8-2 1-2 1s-13-4-1 3a15 15 0 008 1 18 18 0 00-5-5z"/><path class="r" d="M145 321c-9-7-1 2-1 2s-12-4-1 2a13 13 0 006 1 16 16 0 00-4-5z"/><path class="q" d="M142 321l1 2-1-1a80 80 0 017 4l-7-5z"/><path class="p" d="M130 330c1-7-1-16-1-16l-3 15a33 33 0 001 11 33 33 0 003-10z"/><path class="q" d="M129 333c2-13-1-1-1-1s-1-13-2 0a20 20 0 001 8 25 25 0 002-7z"/><path class="r" d="M129 333c2-11-1 0-1 0s-1-12-2 0a17 17 0 001 6 21 21 0 002-6z"/><path class="q" d="M129 331l-1 1v-1l-1 8a69 69 0 012-8z"/><path class="p" d="M140 312c-4 0-9 3-9 3s5 3 9 3 6-3 6-3-3-3-6-3z"/><path class="q" d="M142 312c-8-1-1 3-1 3s-7 3 1 2a7 7 0 004-2 9 9 0 00-4-3z"/><path class="r" d="M142 312c-7-1 0 2 0 2s-7 3 0 3a6 6 0 003-3 8 8 0 00-3-2z"/><path class="q" d="M141 314c-1 0 0 0 0 0l-1 1a28 28 0 016 0v-1h-5z"/><path class="p" d="M128 324l1-10-7 7c-2 3 0 7 0 7s4-1 6-4z"/><path class="q" d="M126 325c5-6-2-2-2-2s1-8-2 0a7 7 0 000 5 9 9 0 004-3z"/><path class="r" d="M126 325c4-6-2-1-2-1s1-7-2-1a6 6 0 001 4 8 8 0 003-2z"/><path class="q" d="M125 323l-1 1v-1a28 28 0 01-1 5l2-5z"/><path class="p" d="M132 306c-2 3-2 9-2 9l5-7a13 13 0 001-7 12 12 0 00-4 5z"/><path class="q" d="M133 304c-4 7 1 2 1 2s-1 7 2 0a8 8 0 000-5 10 10 0 00-3 3z"/><path class="r" d="M133 304c-3 6 1 1 1 1s-1 7 2 0a7 7 0 000-3 9 9 0 00-3 2z"/><path class="q" d="M133 306l1-1v1a39 39 0 012-5 23 23 0 01-3 5z"/><path class="p" d="M139 307l-10 8 12-4a23 23 0 007-7 23 23 0 00-9 3z"/><path class="q" d="M142 306c-10 5 0 2 0 2s-8 7 1 1a14 14 0 005-4 18 18 0 00-6 1z"/><path class="r" d="M142 306c-8 4 1 1 1 1s-8 7 0 2a12 12 0 004-4 15 15 0 00-5 1z"/><path class="q" d="M141 308h1l-1 1 6-4a47 47 0 01-6 3z"/><path class="y" d="M136 317a9 9 0 00-1-1 5 5 0 003-1 5 5 0 00-3-2h-1 1a12 12 0 004-4 11 11 0 00-5 2 22 22 0 00-3 2 11 11 0 002-2 7 7 0 000-3 6 6 0 00-2 2 15 15 0 00-1 4h-2l1 1a11 11 0 00-3 3 5 5 0 000 3 6 6 0 002-1 20 20 0 000 2 17 17 0 000 6 17 17 0 002-6 31 31 0 000-4 20 20 0 001 3 11 11 0 005 4 12 12 0 00-2-6 16 16 0 00-2-1 16 16 0 002 1 11 11 0 006 2 12 12 0 00-4-4zm-6-2zm-1 0z"/><path class="x" d="M126 313c1 2 4 3 5 2s1-3 0-5-3-4-5-3-1 4 0 6z"/><path class="x" d="M127 313c1 2 3 3 4 2s1-3 0-5-3-3-5-2-1 3 1 5z"/><path class="x" d="M126 310a2 2 0 100-2 2 2 0 000 2zM127 309l-2-5 2 5zM126 319l4-2c1-1-2-3-4-3s-3 0-4 2 2 2 4 3z"/><path class="x" d="M126 318c2 1 3 0 4-1s-2-2-3-3-4 1-4 2l3 2z"/><path class="x" d="M124 317a1 1 0 10-1-1 2 2 0 001 1zM124 316l-4-1 4 1z"/><path class="f" d="M450 586c14-13 31-7 68 11s49 17 60 18 43 29 61 32 23 5 23 5l5 12s-5 11-47 13-62-4-92 15-59 19-95 13-52-9-60-13 15-14 50-11 46-3 41-7-13 2-38 0-64-17-64-17 74-58 88-71z"/><path d="M640 647c-19-3-51-31-62-32s-23-1-60-18l-19-9c1 1 34 18 43 26 9 7 11 16 28 21a43 43 0 0128 25c3 7-25 5-42 12s-33 24-49 31a108 108 0 0021-11c30-19 51-12 92-15s47-13 47-13l-5-12-22-5z" style="mix-blend-mode:multiply" fill="#7ebb15"/><path class="aa" d="M458 649c14-5-7-7-20-11s-17-11-1-12 16-6 11-9-10-15 4-15 10-12 9-16c0-4 5-7 5-7a24 24 0 00-16 7c-14 13-88 71-88 71s19-8 34-8 48 4 62 0zM481 683c2-12-14-12-27-10 5 0 8-1 10 1 5 4-5 11-41 8-20-2-36 0-45 4a242 242 0 0150 3c28 4 52 6 53-6z"/><path class="ab" d="M1122 370l50-5 30 12h12l79 30 57-11 22-12 16-8v-6l-42-33-49-19-39-19-22-3-34 18-34 24-33 9-13 15v8z"/><path class="ac" d="M1122 364l50-5 30 12h12l79 30 57-11 22-12 16-8-2-9-40-30-49-19-39-19-22-3-34 18-34 23-33 10-13 15v8z"/><path class="ab" d="M1168 331l12 11 31 3 40 13 23 12 40-3 29-17 21-6 1-14-10-8-63-21-27-11-31-3-36 14-16 13-14 7v10z"/><path class="ac" d="M1168 325l12 11 31 3 40 12 23 12 40-3 29-16 21-6 1-8-10-15-63-20-27-11-31-4-36 14-16 13-14 7v11z"/><path class="ad" d="M1277 337l-20-8-15 4v3l12 6 19 3 7 4h7l10-3 1-4-13-4-8-1zM1225 300l-14 2-5 5 1 4 8 1 3-3 7-2 3-5-3-2z"/><path class="ab" d="M1237 313l3-20 13-13 2-8 30-3 33 4 28 1 6 7 2 6 7 38-7 3-13 2-28-3-34 3-22-10-17-2-3-5z"/><path class="ae" d="M1255 272l1 9 31 15 29-9 8 3 12-3 4-4 3 1 9-3-6-7-28-1-33-4-30 3z"/><path fill="#898989" d="M1316 287l-29 9 2 13-2 5v8l-4 6-4 2 34-3-2-19 2-6-3-3 3 1 3-9v-4z"/><path class="ae" d="M1342 327l-2-5-10-3-3-6-2-8 6-8-9 8-1 14-8 8 28 3 13-2-12-1z"/><path class="ag" d="M1257 320l4-10 1-7 3-4 1-4h1l1 9v6l1 4-1 4v7l-11-5z"/><path class="ae" d="M1249 290l2-4 5-5-1-9-2 8-13 13-3 20 4-18 8-5z"/><path class="ah" d="M1273 282l13 7 11-2h8l1-4-8-6-9 2-6-4-9 3-1 4z"/><path class="ad" d="M1296 277l-7 2-6-4-9 3-1 4 1 1 2-3 7-2 5 2 8-3z"/><path class="ab" d="M1270 337l-21-8-14 4v3l12 6 19 3 14 4 9-3 2-4v-2l-13-2-8-1z"/><path class="ah" d="M1270 335l-21-8-14 4v3l12 6 19 3 14 4 9-3 2-4-13-4-8-1z"/><path class="ab" d="M1225 300l-17 2-6 2v2l2 5 7 1 3-4 7-2 4-4v-2z"/><path class="ah" d="M1222 297l-14 3-6 4 2 5 7 1 3-4 7-2 4-4-3-3z"/><path class="ab" d="M1339 361l-20 11-9 3v4l10 4 22 2 12-10 9-3 3-10v-3l-11 1-8 5-7-2-1-2z"/><path class="ah" d="M1338 359l-19 10-9 3v4l10 4 22 2 12-10 9-3 3-10-11-2-8 5-7-2-2-1z"/><path class="ad" d="M1211 339v7l29 8-29-7-31-5v-6zM1274 363v7h34l11-1 11-6 10 2 7-3 8-5 9-8h7l-7-5 1-14-1 8-21 6-29 16-40 3zM1377 361h-11v-2l-3 10-9 3-12 10v3l10-4 7-1 7-4 7-10 4-2v-3zM1279 330l29-2 18 2h15l-28-3-2-19 2-6-3-3 3 1 3-9v-4l-29 9 2 13-2 5v8l-4 6-4 2z"/><path style="mix-blend-mode:multiply" fill="#c6c6c6" d="M1324 290l8 1-1 6-6 8 2 8 3 6 10 3 2 5 12 1 10 1-3-4-7-38-2-6-9 3-3-1-4 4-12 3z"/><path class="ad" d="M1283 275l-5 4v5l5 3-10-5 1-4 9-3z"/><path class="ag" d="M1249 290l1 8 2 6v6l1 9 1 1 2-13v-9l3-4 1-5 3-3 5 1-12-6-5 5-2 4z"/><path class="ad" d="M1202 371v6l16 2 2-6-6-2h-12z"/><use class="e" transform="matrix(.09 0 0 .09 505 206)" xlink:href="#c"/><path class="aj" d="M681 261l-1-10 1-12-1-10a13 13 0 00-7-8c-6-4-14-2-21-2a76 76 0 01-11-1 33 33 0 00-6 0 39 39 0 00-6 1 22 22 0 01-5 0l-7-1-11-1a4 4 0 00-1 0l-24-2h-23a4 4 0 00-1 1 31 31 0 00-6-1 34 34 0 01-6-1 37 37 0 00-7-1h-15l-6 1a7 7 0 010 2c0 2 0 5-2 8-1 1-4 4-6 3a7 7 0 010 3 22 22 0 010 4l2 11a2 2 0 01-1 2v1a2 2 0 010 1 10 10 0 01-1 4 28 28 0 00-2 4 12 12 0 000 4 19 19 0 002 5 5 5 0 004 1 22 22 0 0110-1l12 1c8 2 16 2 24 2l25 1 50 2 25 1h12a8 8 0 006-1 8 8 0 002-5v-2-1a3 3 0 002-3z"/><path class="ak" d="M551 214c-5 0-8-2-9 3l-1 6c0 3 8 3 10 3s12 1 12-1v-10l-8-1zm0 0h4c2 0 5-1 8 1 2 1 1 8 0 10 0 2-10 1-12 1s-10 0-10-3l1-6c1-5 4-3 9-3z"/><path class="al" d="M551 214c-4 0-9-2-9 3 1 6-5 8 8 9 2 0 13 1 13-1l1-7c0-3-1-3-3-4a8 8 0 00-5 0 43 43 0 01-5 0z"/><path class="am" d="M551 214h-7a3 3 0 00-1 3l1 4c1 2 0 3 5 3 1 0 7 2 9 0s3 5 5-1c0-2 0-7-2-8v-1a8 8 0 00-5 0 43 43 0 01-5 0zm8 2l-1 1h-2l3-1zm2 5l-1 1c-1-1 0-1 1-1zm-18 0l3 4c0 1-3 0-3-2v-2z"/><path class="an" d="M597 220l1 9s5 3 5 0v-12c0-1-6-4-6 3zm0 0c-1-6 5-5 6-3 2 1 1 10 0 12 0 3-4 1-5 0l-1-9z"/><path class="ao" d="M597 220v6l1 3c2 1 2 2 5 1l1-7-1-6c-4-3-6-1-6 3z"/><path class="ap" d="M604 220l-1-3c-3-2-5-2-6 0a15 15 0 011 2v6c0 3 1 2 2 3a2 2 0 003-1l1-3a22 22 0 000-4z"/><path class="an" d="M509 244c0 1-2 8-1 9 0 0 3 4 5 1l3-11c-1-1-6-6-7 1zm0 0c0-6 5-4 7-1 1 2-2 10-3 12s-4-1-5-2 1-7 1-9z"/><path class="ao" d="M509 244l-1 6v3c1 1 2 3 4 2l3-6v-6c-3-4-5-3-6 1z"/><path class="ap" d="M516 246l-1-3c-2-3-4-3-5-2a18 18 0 010 2l-1 6c-1 4 0 3 1 4a2 2 0 003 0l1-3a21 21 0 002-4z"/><path class="ak" d="M600 258c-7 1-8-1-15-2-3 0 1-15 7-12l3 1c1 0 7 0 8 2l-1 7-2 4zm0 0l1-4 2-7-4-1-7-1c-6-3-10 11-7 11 7 1 8 3 15 2z"/><path class="aq" d="M600 258c-7 1-9-2-15-2-3 0 1-16 7-11l7 1c4 1 5-1 3 7-1 1 0 4-2 5z"/><path class="am" d="M584 254c0-4 4-12 8-9l7 1 4 1a2 2 0 01-1 0c-4 0-2 3-2 3a3 3 0 002 0v3a31 31 0 01-1 4 5 5 0 01-2-1c-1-2-2-8-2 0-4 1-2-4-2-5 0-8-2-3-3 0-5 6 0-4 0-4-1-2-3 3-3 3-2 4-4 5-5 4z"/><path class="an" d="M631 260c-3 0-10 2-9-4l1-5c0-3 2-2 6-3 2 0 12-2 12 0 0 3 1 9-2 10a29 29 0 01-4 1l-4 1zm0 0l4-1 5-1 1-10c-1-2-11 0-13 1-8 0-3 1-5 6-2 7 3 5 8 5z"/><path class="ao" d="M631 260c-2 0-11 2-8-5 2-4-3-7 5-7 3 0 13-2 13 0 0 13-1 9-9 12a5 5 0 01-1 0z"/><path class="ap" d="M630 248h4a6 6 0 01-1 2c0 1 3 4 5-3l3 1v3a18 18 0 00-1 4c-1 2-5 4-8 3-1-1-10 3-7-2-1-3-1-3 2-6 0-2 1 1 3-2z"/><path class="an" d="M675 246c-4 1-11 2-9-3v-5c0-4 3-3 6-4 2 0 12-2 12 1 0 2 1 9-1 10a33 33 0 01-5 1h-3zm0 0l3-1 5-1c2-1 1-8 1-9 0-3-11 0-13 0-7 0-3 1-5 6-2 7 4 6 9 5z"/><path class="ao" d="M675 246c-2 0-12 3-9-5 2-3-3-6 5-6 3 0 13-3 13 0 1 13 0 9-8 11a4 4 0 01-1 0z"/><path class="ap" d="M673 235l4-1a6 6 0 01-1 3s3 3 5-3v-1c2 0 3 1 3 2v2a19 19 0 00-1 4c-1 3-4 5-7 3-1 0-10 3-7-2-2-2-2-3 2-5-1-3 0 0 2-2z"/><path class="ak" d="M549 252c3-7 4-9-6-10-7 0-6 1-7 6-1 2-1 2 1 4s10 1 12 0zm0 0h-12l-2-4c1-5 0-7 8-6 10 1 10 3 6 10z"/><path class="ar" d="M549 252c2-4 5-8-2-9-13-2-10 0-12 7l2 2h12z"/><path class="as" d="M551 247c1-2 0-4-4-4-11-2-10-1-11 4a1 1 0 001 0c6 1 2 3 8 2l2-1c1 2 3 1 4-1zm-4-3s1 2-1 1c-7 0-5-2 1-1z"/><path class="ak" d="M680 259c3-7 4-9-6-10-7 0-6 1-7 6l1 4h12zm0 0h-12c-2-2-2-2-1-4 1-5-1-7 7-6 10 1 10 3 6 10z"/><path class="ar" d="M680 259c2-4 5-8-2-9-12-2-10-1-11 6-1 1 1 3 2 3 0 1 9 1 11-1z"/><path class="as" d="M682 254c1-2 0-4-4-4-11-2-10-1-11 4a1 1 0 001 0c6 1 2 3 8 2l2-1c2 2 3 0 4-1zm-4-3v1c-8 0-6-2 0-1z"/><path class="ak" d="M605 250c4 1 12 2 14 0 2-1-2-4-4-4h-4c-7 0-4 0-7 3l1 1zm0 0l-1-1c3-3 0-4 7-3h4c3 0 7 4 4 5s-10 0-14-1z"/><path class="aq" d="M605 250c7 2 19 2 14-2-3-3-4-2-8-2-7-1-4 0-7 3l1 1z"/><path class="am" d="M620 250l-1-2c-3-3-4-2-8-2-7-1-4 0-7 2h8c7 5 2-2 6 1a4 4 0 002 1z"/><path class="an" d="M548 230c-3 1-6-2-6 3l-1 4c0 3 5 3 6 3 4 1 6 2 7-3v-8c-1-1-5 1-6 1zm0 0c1 0 6-2 7-1v8c-1 5-4 4-8 3-1 0-7 0-7-3l2-4c0-5 2-2 6-3z"/><path class="ap" d="M548 230c-3 1-6-3-6 4 0 1-5 6 4 6 2 0 9 4 9-7-1-3 2-6-6-3h-1z"/><path class="ao" d="M548 230c-3 1-5-1-6 2a5 5 0 010 1v1l-1 3c1 1 9 0 11 2 0 2 2-1 2-2a19 19 0 001-3 2 2 0 000-1 3 3 0 00-4 0c-2 0-2-1-3-3z"/><path class="ak" d="M533 255c-7 1-8-1-14-1-4-1 1-16 6-12h3l8 2-2 7-1 4zm0 0l1-4c0-1 2-6 1-7l-3-1-7-1c-5-3-9 11-6 11 6 1 7 3 14 2z"/><path class="ar" d="M533 255c-7 1-9-2-14-1-3 0 1-16 7-12l6 1c4 1 4-1 3 7l-2 5z"/><path class="as" d="M520 245c1-3 3-5 6-3l6 1c3 1 4 0 3 4a7 7 0 01-2 0c-2-1-4 0-5 1-2 4-2 1-3 3 0 1-5-1-4-3 1-1-1-2-1-3zm15 4a16 16 0 00-4 0c-2 0 0 1-2 3 0 1 0 3 3 2a16 16 0 002-1v-3z"/><path class="at" d="M654 246l-13-2c-1-1-3-6-2-7 1-6 10-5 15-4 2 0 11 0 11 4v6l-7 1-4 2zm0 0l4-2 7-1a57 57 0 001-6c0-5-17-5-20-5-8 1-10 6-5 12h-1c1 2 12 2 14 2z"/><path class="ar" d="M654 246l-13-2s-9-13 7-12c3 0 18 0 17 5 0 7 2 6-6 7l-5 2z"/><path class="as" d="M639 242c-1-3-2-9 7-10l1 1a3 3 0 004-1c4 0 13 1 14 4-2 1 4 5-9 7-4 0-2-2-1-3 2-5-3 2-3 2-5 3-5-5-9-1l-4 1z"/><path class="ak" d="M603 257c5 2 14 5 17 3 3-1-1-6-4-7l-5-1c-7-1-4 0-8 3v2zm0 0v-2c3-3 0-5 8-3l5 1c4 1 8 7 4 8-5 1-12-2-17-4z"/><path class="aq" d="M603 257c8 4 22 6 18 0-4-5-5-4-10-5-8-2-4 0-8 3v2z"/><path class="am" d="M620 257c-3-5-4-4-9-5h-2a2 2 0 01-1 0 2 2 0 00-3 3c2 3 7-2 11 1 0 3-5 1-6 1 0 2 9 2 9 2 1 1 2-1 1-2z"/><path class="ak" d="M668 230c4 1 13 3 13-1 1-3-5-11-8-11l-4 1c-6 0-3 1-3 7l2 4zm0 0l-2-4c0-6-3-7 3-8h4c3 0 10 9 8 12s-8 1-13 0z"/><path class="aq" d="M668 230c8 3 19 2 11-7-6-7-6-4-10-4-6-1-2 2-3 7l2 4z"/><path class="am" d="M679 223c-6-7-6-4-10-4a16 16 0 00-1 0l-1 1c-2 1 0 5 0 6 4 5 3-7 9-3 2 6-3 4-4 4 2 4 8 0 8 0l-1-4z"/><path class="an" d="M609 230l-4-2v2l-1 2 3-1h2a3 3 0 001-1h-1zm0 0a1 1 0 001 0l-2 1-3 1c-2 1-1-2 0-2-1-1-2-4 0-2l4 2z"/><path class="ao" d="M609 230l-4-2c-2-2 0 2 0 2l-1 2 3-1h2l1-1a1 1 0 01-1 0z"/><path class="an" d="M608 231v2c-2 2-2 6-5 2-1-1-3-2 0-3s-1 2 3 0l2-1zm0 0a3 3 0 00-1 1c-1 0-4 2-4 0 0 0-2 0 0 2s2 4 3 1l2-4zm0 0z"/><path class="ao" d="M608 231l-1 1h-4c0-1-3 1-1 2 1 1 3 5 4 1a22 22 0 012-4z"/><path class="an" d="M579 228h7c4 0-1 3-3 2l-4-1v-1zm0 0v1c4 1 5 2 8 0a4 4 0 00-1 0c-2-1-6-2-7-1z"/><path class="aq" d="M579 228h7l1 1c-3 2-4 1-8 0v-1z"/><path class="an" d="M517 248c1 1-1 6-1 7-1 4-3-1-2-3l2-4h1zm0 0h-1c-2 4-3 4-1 8a4 4 0 000-1c1-1 3-6 2-7z"/><path class="aq" d="M517 248c1 1-1 5-2 7v2c-2-5 0-5 1-9h1z"/><path class="an" d="M625 245c2 0 3 1 1 2s-4-1-7-1c-2 0-5-2 0-1h6zm0 0a22 22 0 01-5 0c-7-1-4 1-1 1l5 2c3 1 5-4 1-3z"/><path class="aq" d="M625 245c1 0 3 0 2 2-2 3-5-1-8-1s-5-2 1-1a18 18 0 005 0z"/><path class="an" d="M620 251a19 19 0 00-3 1l4 4c1-1 0-4-1-5zm0 0c1 0 4 8 0 4-1-2-6-3 0-4z"/><path class="aq" d="M620 251l-3 1 2 2c2 1 2 4 3 1l-2-4z"/><path class="an" d="M679 260a22 22 0 00-2 1l4 4c1-1-1-4-2-5zm0 0c2 0 4 8 1 4-2-2-7-3-1-4z"/><path class="aq" d="M679 260l-3 1 2 1c2 2 3 5 3 2l-2-4z"/><path class="an" d="M614 263l1 3h3c0-1 7-3 5-4l-7-1a5 5 0 00-2 2zm0 0h1c1-2 4-1 6-1 4 1-1 2-2 3h-3l-2-2z"/><path class="ao" d="M614 263l2 2h5c0-1 4-2 0-3-1 0-5-2-6 1h-1z"/><path class="ak" d="M526 240h9c2 1 7 0 6 1h-15c-2 0-2-1 0-1zm0 0c-2 1-2 0-1 1h16l-5-1a22 22 0 00-2 0h-8z"/><path class="ar" d="M526 240h9a18 18 0 004 0c3 1 4 1-2 2l-12-1s-2 0 0-1h1z"/><path class="an" d="M554 243a23 23 0 00-3-1l1 5a2 2 0 000 1l2-5zm0 0c1 1-3 9-2 4 0-3-3-8 2-4z"/><path class="aq" d="M554 243l-3-1 1 2c1 2-1 5 1 4 0 0 2-4 1-5z"/><path class="an" d="M550 256a20 20 0 003 1l-1-6a4 4 0 000-1c-1 0-3 5-2 6zm0 0c-2-1 2-11 2-5 0 4 3 10-2 5z"/><path class="aq" d="M550 256l3 1-1-3c-1-2 1-6-1-4 0 0-2 5-1 6z"/><path class="at" d="M544 229l3-2 5-1c1 0 3 1 1 1a51 51 0 01-6 3s-2 1-3-1zm0 0h3l6-2a7 7 0 00-1 0h-5l-3 2z"/><path class="ar" d="M544 229l3-2h5s4 0 0 1a14 14 0 01-2 1h-3a3 3 0 01-1 1l-2-1z"/><path class="ak" d="M544 241c1-1 3 0 5 1 1 0 1 1-1 1l-2-1s-5 0-4-1h2zm0 0h-1l5 1a2 2 0 002 0h-1l-5-1z"/><path class="aq" d="M544 241c1-1 3 1 5 1 1 0 2 1-1 1l-2-1a22 22 0 00-2 0c-2-1-2-2 0-1z"/><path class="ak" d="M519 255c1-1 3 0 5 1 2 0 1 1-1 1l-2-1s-5 0-3-1h1zm0 0h-1l5 1a2 2 0 002 0h-1c-2 0-4-2-5-1z"/><path class="aq" d="M519 255c1-1 3 1 5 1h-1-2-2c-2-1-1-2 0-1z"/><path class="an" d="M518 240a43 43 0 000 5c1-1 1-3 4-4 1-1-2-1-2-1h-2zm4 1zm-4-1h3c2 0 2 1 1 1-3 1-2 2-4 4v-5z"/><path class="ao" d="M518 240v5c1-1 2-4 4-4 0 0 1-1-1-1h-3z"/><path class="an" d="M578 243h3l2 1a10 10 0 002 0c2 1 0 4 0 4-2 0-1-2-4-3 0 0-4-1-3-2zm0 0l5 2 2 3v-3a9 9 0 01-2-1l-2-1h-3zm7 5"/><path class="ao" d="M578 243h3l2 1 2 1v3l-2-3a10 10 0 00-4-1l-1-1z"/><path class="an" d="M580 242c2 0 3 2 4 1l2 1-2-2c-1-1 0-2-3-1zm0 0a3 3 0 011-1h3c1 3 2 1 2 3h-2l-4-2z"/><path class="ao" d="M580 242l4 2h2s1-1-1-1c-1 0-1-3-3-2l-2 1z"/><path class="ak" d="M556 227v4l2-3a4 4 0 000-1h-2zm0 4v-4h1c3 0 1 2 1 2l-2 2v-4z"/><path class="aq" d="M556 227v3c0 3 1-2 1-2l1-1h-2z"/><path class="ak" d="M541 226v3a1 1 0 000 1l2-3a2 2 0 000-1h-2zm0 4v-4h1c3 0 0 1 0 1l-1 3v-4z"/><path class="aq" d="M541 226v3l1-2 1-1h-2z"/><path class="an" d="M554 239c1 1-2 2 1 4 2 0 0-4 0-4a5 5 0 00-1 0zm1 0h-1a1 1 0 011 0l2 3-2 1c-3-1-1-3-1-4z"/><path class="ao" d="M554 239c1 1-2 2 1 4 1 0 2 0 1-1l-1-3h-1z"/><path class="ak" d="M601 245l3-4c2-1 2 0 3 1l1 2c0 1-2 0-3 2l-2-1h-2zm0 0h2s1 2 2 1c1-2 2-2 3-2l-1-2c-2-1-1-2-2 0l-4 3z"/><path class="aq" d="M601 245l4-3c1-2 1-1 2 0l1 1-3 3c-1 2-2-1-2-1h-2z"/><path class="ak" d="M583 258c2 1 1 5 3 2 0-2 3-1 2-2l-3-1c-2-1-3 0-2 1zm0 0c-1 0 0-2 2-1h3c2 2-2 2-2 3-2 3-1 0-3-2z"/><path class="aq" d="M583 258c2 1 1 5 3 2 0-2 3-1 2-2l-3-1c-2-1-3 0-2 1z"/><path class="ak" d="M601 258l3 1c5 0 6 2 3 1h-3c-2-1-3 0-3-2zm0 0v1l5 1h2a18 18 0 00-4-1c-1 0-2-2-3-1z"/><path class="aq" d="M601 258l3 1 4 1a7 7 0 00-2 0l-5-1v-1z"/><path class="an" d="M640 260h3l2 1a9 9 0 002 0c2 0 0 4 0 4-2 0-1-2-4-4l-3-1zm0 0l5 2 2 2v-3a9 9 0 01-2 0l-2-1h-3zm7 4"/><path class="ao" d="M640 260h3l2 1h2v3c0 2-2-2-2-2a10 10 0 00-4-2h-1z"/><path class="an" d="M665 245v2l-3 1s-8 0-6-2l7-2a7 7 0 012 1zm0 0c-3-2-5 0-7 1-4 1 1 1 3 2l3-1 1-2z"/><path class="ao" d="M665 245v2l-6 1s-5-1-1-2c1-1 5-3 7-1z"/><path class="an" d="M656 262c0-2 6-1 7-1 4-1 0 2-3 2l-4-1zm0 0c4 0 5 1 8-1a5 5 0 00-1 0l-7 1z"/><path class="aq" d="M656 262l6-1h2c-3 2-4 1-8 1z"/><path class="an" d="M660 232h7c4 0 0 2-2 2l-5-2zm0 0c5 1 5 2 9 0a4 4 0 00-2 0h-7z"/><path class="aq" d="M660 232h9c-4 3-5 1-9 0z"/><path class="an" d="M684 249h-8c-4 0 1-3 3-2l5 1v1zm0 0v-1c-5-1-5-2-9 0a4 4 0 001 0c2 1 7 2 8 1z"/><path class="aq" d="M684 249h-7l-2-1c4-2 5-1 9 0v1z"/><path class="ak" d="M535 257h14c1-1-2-4-5-4h-4c-6 0-3 0-6 2-1 1 0 1 1 2zm0 0c-1-1-2-1-1-2 2-2 0-2 6-2h4c3 0 8 3 4 4s-10 0-13 0z"/><path class="ar" d="M535 257c6 1 18 1 14-2-4-2-5-2-9-2-6 0-3 1-6 2-1 1 0 1 1 2z"/><path class="as" d="M549 256l-1-1c-3-2-4-2-8-2-6 0-4 1-6 2h8c6 4 1-1 5 1a4 4 0 002 0z"/><path class="at" d="M635 245l3-1 4 1c1 0 2 2 0 2a35 35 0 01-5 0l-2-2zm0 0l2 1h6a5 5 0 00-1 0l-4-2-3 1z"/><path class="ar" d="M635 245l3-1 4 2h-1a11 11 0 01-2 0h-2a2 2 0 01-1 0l-1-1z"/><path class="at" d="M638 241l-1 2h1l1 1-1-2v-1a2 2 0 000-1v1zm0 0a1 1 0 000-1v1l1 2c1 2-1 1-1 0h-2l2-3z"/><path class="ar" d="M638 241l-2 2h2l1 1-1-2v-1-1a1 1 0 010 1z"/><path class="at" d="M636 232l4 1 3-1c1 0 3-1 1-1a42 42 0 00-5 0l-3 1zm0 0l3-1h5a6 6 0 01-1 1l-3 1-4-1z"/><path class="ar" d="M636 232l3 1c1 1 3-1 4-1 0 0 3-1 0-1a12 12 0 00-2 0h-2a3 3 0 00-1 0l-2 1z"/><path class="an" d="M634 246a22 22 0 00-3 0h-3a6 6 0 003 2c1 0 6-1 3-2zm0 0c3 1-1 2-3 2a6 6 0 01-3-1c-1-1 2-1 3-1h3z"/><path class="ao" d="M634 246h-2a3 3 0 00-1 0 16 16 0 00-3 0l1 1a4 4 0 002 1c4-1 5-1 3-2z"/><path class="an" d="M643 256a22 22 0 00-2 2l5 2-3-4zm0 0c2-1 6 7 2 4-2-1-8-1-2-4z"/><path class="aq" d="M643 256l-2 2 2 1c2 0 4 3 4 1l-4-4z"/><path class="at" d="M567 228c-6 0-9-1-11 6 0 3 0 9 4 8h13c7 0 9-2 9-9 0-4-3-3-7-4a31 31 0 00-8-1zm0 0l8 1c4 0 7 0 8 4 0 7-3 10-10 9h-13c-5 1-5-5-4-8 1-7 5-6 11-6z"/><path class="ar" d="M567 228l-8 1c-4 1-5 15 1 13h10c2-1 12 4 12-8 0-3 0-4-4-5l-11-1z"/><path class="as" d="M567 228a9 9 0 01-1 0c-3 5-3 2-3 0a12 12 0 00-4 1 3 3 0 00-1 1c-1 4 0 12 3 10 2-2 8 1 8-2 0-6 2-9 3-10a18 18 0 00-5 0zm15 9c-1 1-2 0-5 3-2 3-5 1-3-1 0-1 4-7 0-2s-5 0-4-1 0-4 2-7l6 1c4 0 4 2 4 4a14 14 0 010 3z"/><path class="au" d="M560 229l3-1v2c0 1 0 2 2 1a5 5 0 002-1c0 2-2 3-4 2l-1-3a6 6 0 01-2 0zm3 0z"/><path class="at" d="M525 211c-6 0-9-1-10 5-1 3-1 9 3 8h13c7 1 10-2 10-9-1-3-4-3-7-3a31 31 0 00-9-1zm0 0h9c3 1 7 0 7 4 0 8-3 10-10 10h-4c-3 0-5-2-9-1-4 2-4-5-4-8 2-6 5-6 11-5z"/><path class="ar" d="M525 211h-7c-4 2-6 15 0 13 4-1 7 2 11 0 1 0 12 4 12-8 0-2 0-4-4-4l-12-1z"/><path class="as" d="M525 211a9 9 0 01-1 0c-2 5-3 1-2 0a12 12 0 00-4 0 3 3 0 00-2 1c0 5 0 12 3 10 2-2 8 2 8-1 0-6 2-9 3-10a18 18 0 00-5 0zm15 9s-2-1-4 3c-3 3-6 1-4-2l1-2c-4 5-5 0-4-1 0 0-1-3 2-7l6 1c4 0 4 2 4 4a14 14 0 01-1 4z"/><path class="au" d="M518 212l3-1v1c0 2 1 2 2 2a5 5 0 002-1l-3 2c-2 0-2-2-2-3a6 6 0 01-2 0zm3 0z"/><path class="at" d="M593 243c-8 0-9 0-9-7-1-3 0-4 4-6h9l7 8c1 1 0 4-3 5h-8zm0 0a40 40 0 006 1c5-1 7-5 5-6-2-3-4-7-7-8h-9c-5 1-5 3-5 7 1 6 2 6 10 6z"/><path class="ar" d="M593 243c-5 0-6 1-9-2-1-1-2-8 1-10 5-3 4-1 11-1 3 0 5 5 8 8v3c-2 3-7 3-11 2z"/><path class="as" d="M584 239c-1-2-1-7 1-8 5-3 4-1 11-1a3 3 0 012 0c0 2 0 4 2 4h1a17 17 0 003 4c-4 6-6 1-9 2h-8c-1 1-3 0-3-1zm5-7c-4 0-3 5-1 2l2-1-1-1z"/><path class="au" d="M590 231c2-1 5-2 6-1s0 2 2 3l1 1c-1 0-3 0-3-2s-5-1-6-1z"/><path class="at" d="M671 276c-8-1-9-1-9-7-1-4 0-5 4-7h9l7 8c1 1 0 4-3 5l-8 1zm0 0a41 41 0 006 0c5-1 7-5 5-6-2-3-4-7-7-8h-9c-5 2-5 3-5 7 1 6 2 7 10 7z"/><path class="ar" d="M671 276c-5-1-6 0-9-3-1-1-1-8 1-10 6-2 4-1 11-1 3 0 5 5 8 8v3c-2 3-7 3-11 3z"/><path class="as" d="M662 272c-1-3-1-8 1-8 6-3 4-2 11-2a3 3 0 012 0c0 2 0 4 2 4h1a17 17 0 003 4c-4 6-6 1-9 2-3 2-4-1-8 0-1 1-3 0-3-1zm5-8c-4 0-3 5-1 2h2l-1-2z"/><path class="au" d="M668 263c2-1 5-2 6-1s0 3 2 3l1 1c-1 0-3 0-3-2s-4-1-6-1z"/><path class="at" d="M623 231c-6 0-15-3-16 6 0 3 1 7 4 6 6 0 21 3 24 1 1-1 6-13-3-13h-9zm0 0a78 78 0 0110 0c8 1 4 11 2 13-2 3-19-1-24 0-6 0-5-8-2-11 3-4 10-2 14-2z"/><path class="ar" d="M623 231h-13c-5 3-4 14 1 13s23 3 25 0c2-4 4-13-3-13h-10z"/><path class="as" d="M611 236c6-2 12 1 4 0 0 0-6 2-5 0l1-1zm12-5h-13a8 8 0 00-3 7 3 3 0 003 3l6-1c5 1 8-1 12-3 3-2 9 1 6 1-4 0-9-1-9 4l11 1c2-4 3-12-3-12h-10z"/><path class="au" d="M618 239c4 0 4 0 7-2 2-1 6-3 8-1a6 6 0 001 0h-1c-2-1-5 0-6 1-4 2-4 3-9 2z"/><path class="ak" d="M608 217l10-1c3 0 15-1 16 2l1 7c1 5-3 4-7 4h-12c-6 0-11 1-11-6 0-4 0-5 3-6zm0 0c-3 2-3 3-3 7 1 6 6 5 11 5l12-1c4 0 7 1 6-2v-8c-1-2-12-2-13-2l-13 1z"/><path class="aq" d="M608 217h26l1 8c0 2-1 3-3 3-5 0-12 2-16 1-3 0-10 1-11-5v-3c0-2 0-3 3-4z"/><path class="am" d="M608 217h26l1 8a2 2 0 010 2 39 39 0 01-7 1 4 4 0 01-2 0h-1c-1-1-2-3-1-4l2-1c2-1 0 0 0 0h3l2-1h0a7 7 0 01-3 0h-5l-3 2-8 1-7-2v-2c0-2 0-3 3-4z"/><path class="av" d="M606 220c1-2 4-2 7-2 4-1 4-2 9-2a17 17 0 017 2h1-3c-4-2-8-1-12 0s-6 0-9 2z"/><path class="ak" d="M567 261c0 2 2 9-2 9-5 1-27 1-27-5l1-7c3-1 23 1 27 1a9 9 0 011 2zm0 0a5 5 0 00-1-2c-3 0-24-2-27-1-2 1-1 5-1 7 0 6 21 6 27 6 4-1 2-8 2-10z"/><path class="ar" d="M567 261c0 2 2 9-2 10-5 0-27 0-27-6 0-8-1-8 13-7l15 1a6 6 0 011 2z"/><path class="as" d="M567 261v2a1 1 0 01-1 0c-3-1 0 5-6 1-6 2-6 0-11-2-2-1-5 6 1 3h4c2 0-1 2-4 3-1 0-2 1-1 2-6-1-11-2-11-5 0-6-1-7 5-7h3a3 3 0 001 0h4l15 1a7 7 0 011 2zm0 5c0-1-2-2-3-1-2 2-4 1-4 1 1 5 1 4-2 5h7c2-1 2-3 2-5z"/><path class="au" d="M539 260c4-4 3-1 5-1l4-1a57 57 0 0111 2l-12-1-3 1c-2 0 0-2-5 0z"/><path class="an" d="M583 271c1-3 2-10-2-13h-6c-3-1-4-1-5 2-3 8 2 13 10 12zm0 0l-3 1c-8 2-14-4-11-12 2-3 3-3 6-2s5-2 7 1 2 9 1 12z"/><path class="ao" d="M583 271c1-3 2-16-5-13-4 1-8-4-9 5-2 8 7 11 14 8z"/><path class="ap" d="M584 263c-1-4-3-6-6-5s-7-3-9 3c2 0 3-2 3 5 0 3-2 0-3-1a7 7 0 001 4 4 4 0 005-2c1-2 7 0 9-4z"/><path class="aw" d="M574 267a10 10 0 015-2l3-3a1 1 0 010 1c-1 3-2 3-4 3l-4 1z"/><path class="an" d="M612 272c1-2 4-10 0-10l-14-2h-8c-3 0-4 0-4 5v6h18l8 1zm0 0l-8-1c-4 2-7 1-11 1l-7-1-1-8c1-4 3-3 5-3h8l14 1c4 1 1 9 0 11z"/><path class="ao" d="M612 272c1-3 4-10 0-10l-14-2h-8c-2 0-4-1-5 5 0 5-1 7 5 6 3 0 10 2 14 0l8 1z"/><path class="ap" d="M614 267c0-3 0-5-2-5l-14-2h-8c-2 0-4-1-5 5v2c1 2 2 2 3 2 4-3 12 0 13-1s2-1 0-3c-3-2-2 0-4-3-2-4 8 5 10 4 3-3 5 1 7 1z"/><path class="aw" d="M602 263l4 2c1 0 5-1 5 1-2-2-3 0-5 0l-4-3z"/><path class="an" d="M648 265l1 8c1 0 9 3 10 1s2-9 0-10c-1-1-13-4-11 1zm0 0c-3-5 8-3 11-2 3 2 1 9 1 11-1 2-8 0-11-1-2 0-1-6-1-8z"/><path class="ao" d="M648 265v6c1 1 0 2 2 2 3 1 4 2 8 1 2 0 2-4 2-5 1-2 1-5-2-6-7-2-11-1-10 2z"/><path class="ap" d="M659 272l1-3c0-2 0-5-2-5-6-2-10-2-10 0l1 5c-1 3 6 4 7 2 0 0 2-2 1 1h2z"/><path class="aw" d="M651 264c-1-1 4-1 4-1a8 8 0 014 3l-3-1-5-1z"/><path class="ak" d="M666 249c0 2 1 9-2 10l-7 1h-8c-2 0-3-2-5-3-5-6-1-10 6-9l12 1a12 12 0 004-1 4 4 0 000 1zm0 0v-1a15 15 0 01-4 1l-12-1c-7-1-11 3-6 9 2 2 3 3 5 3h8l7-1c3 0 2-8 2-10z"/><path class="aq" d="M666 249c0 2 1 10-2 10-2 0-3 2-10 1s-5 2-10-3c-4-4-3-9 3-9 4-1 8 1 14 1l5-1z"/><path class="am" d="M666 249l-1 8-1-1-6 1c-3 0-6-2-8 1-5 4-7-8-5-9 3-2 4-1 6-1l10 1 5-1z"/><path class="av" d="M644 250c4-3 3 0 5-1h3a46 46 0 0110 1h-13c-2 0 0-2-5 0z"/><path class="an" d="M581 215h-6c-3 0-7-1-9 1l-1 3c-1 2-1 6 1 7 4 3 7 1 12 1a68 68 0 0111 1c1 0 7 1 7-1v-11c-1-2-5-1-7-1a52 52 0 00-8 0zm0 0a41 41 0 018-1c2 0 7 0 7 2l1 11c-1 2-6 1-8 1a74 74 0 00-11-1c-5 0-8 2-13-1v-7l1-3c1-3 6-1 8-1h7z"/><path class="ao" d="M581 215h-9c-3 0-6-2-7 2l-1 5c1 4 0 4 3 5 4 2 7 0 11 0l11 1a23 23 0 006 0c3 0 1-3 1-5v-3c1-5 1-5-5-5h-10z"/><path class="ap" d="M574 215a14 14 0 00-2 0c-3 0-6-2-7 2a1 1 0 010 1l3 4c4 0 6 2 9 0 1 0 1-2 3-2h6c2 1 7-2 10-2 0-3 0-3-5-4h-6c-3 2-4 3-10 1h-1zm20 13a6 6 0 01-3-1c-5-4-9-1-15-1-2 0-9-1-8-3 3-1 3 2 9 1 5 0 1-3 11-3h8v2c0 2 2 5-1 5z"/><path class="aw" d="M596 218c-1-2-1-3-4-2l-8 1a17 17 0 01-5-1h5l6-1c2 0 7-1 6 3z"/><path class="an" d="M524 239c3-2 2-1 6-1 2 0 7 1 8-1l1-3c1-2 1-6-1-7-4-3-7-1-12-1a68 68 0 01-11-1l-7 1v11c1 2 5 1 7 2a53 53 0 009 0zm0 0a41 41 0 01-9 0c-2 0-7 0-7-2l-1-11c1-2 6-1 8-1a74 74 0 0011 1c5 0 8-2 13 1v8l-1 2c-1 3-6 1-8 1-4 0-3-1-6 1z"/><path class="ao" d="M524 239c2-2 1-1 4-1h4c3 1 6 2 7-2l1-5c-1-4 0-4-3-5-4-2-7 0-11 0l-11-1a23 23 0 00-6 0c-3 1-1 3-1 5v3c-1 5-1 5 5 6h11z"/><path class="ap" d="M530 238a15 15 0 002 0c3 1 6 2 7-2l-3-5c-4 0-6-2-9 0-1 0-1 2-3 2h-6c-2-1-7 2-10 2 0 3 0 3 5 4h6c3-2 4-3 10-1h1zm-20-13a6 6 0 013 1c5 4 9 1 15 1 2 0 9 1 8 3-3 1-3-2-9-1-5 0 0 3-11 3h-8v-2c0-2-2-4 1-5h1z"/><path class="aw" d="M509 235c0 2 0 3 3 3l8-2a17 17 0 015 1h-5l-6 1c-2 0-7 1-5-3z"/><path class="ak" d="M570 243h-10c-4 0-6 2-7 7 0 3 0 7 4 7h3c5 1 6 2 10 0 3-2 11 0 12-1 5-12-4-11-11-13a2 2 0 00-1 0zm0 0a1 1 0 011 0c7 1 16 1 11 13-1 2-9 0-11 1-5 2-6 2-11 0h-3c-4 0-5-4-4-7 1-5 2-7 7-7h10z"/><path class="aq" d="M570 243c-8 2-14-3-16 3-1 4-3 12 4 11 1 0 8 3 13 0 2-2 10 0 11-1 5-12-5-12-11-13a4 4 0 00-1 0z"/><path class="am" d="M569 243h-1a28 28 0 01-4 8l-3 3s0-2 3-4a18 18 0 003-7c-7 1-11-2-13 3-4 11 4 14 11 6 3-3 3-7 5-3l3 7h4a1 1 0 00-1 0c-2-1 1-7 0-11-1-2-6 0-7-2zm-3 15c0-3 3-7 4-1a9 9 0 01-4 1zm15-13c4 5 1 11-2 8s-2-7-1-9a10 10 0 013 1z"/><path class="av" d="M555 245c-1-2 5-1 5-1a23 23 0 004-1h4l-4 1h-7l-2 1z"/><path class="aq" d="M554 255l8-8c3-1 2-2 3-4a6 6 0 01-2 4l-2 3c-2 3 1 3 0 7 1-4-1-4-1-6-2 2 1 3-1 6v-1c1-2-1-4 1-5l2-3-8 7zm11-12z"/><path class="ak" d="M646 267v6c-3 2-13 1-17 1s-11 2-11-4c0-3-1-2 4-5l9-4c4 0 12 0 14 3a5 5 0 011 3zm0 0l-1-4c-3-2-13-3-16-2l-11 6-1 5c2 5 9 3 12 2h17v-7z"/><path class="aq" d="M646 267v7h-11l-9 1c-4 0-9 0-9-5 1-2-1-2 4-4l10-5c5 0 16-1 15 6z"/><path class="am" d="M618 268a14 14 0 013-2l10-5c4 0 13-1 15 4 0 3 1 4-7 5h-9l-12-2z"/><path class="av" d="M624 265c3-3 15-6 18-2l1 1-1-1c-5-2-13 1-18 2z"/><path class="ak" d="M626 263c1 0 2 5 4 6 3 2 3 8 2 3-1-3-3-3-4-5-2-3-1-3-3 2l1-4v-2zM636 230v-10c1-4 5-3 9-3l18 1 1 7c1 3 1 6-2 6l-14-1h-12zm0 0h12l14 1c2 0 2-4 2-6l-1-7h-17c-6 0-10-3-10 5v7z"/><path class="aq" d="M636 230v-10c1-4 3-3 7-2h20l1 7c0 2 1 6-2 6a173 173 0 00-18-1h-8z"/><path class="am" d="M643 218l12-1 8 1a8 8 0 010 2l-1 2c2 3 2 3 1 6-2 3-5 1-5 0 0-4-4-1-6 1-1 1-12 0-13-1-3 0-2-2-2-4 0-5 2-4 2-5l4-1zm0 3a8 8 0 012 0v-1a1 1 0 01-1-1s-7 3-1 3zm14 6c-1 0-4 0-3 2 0 0 2 1 3-1v-1z"/><path class="av" d="M649 219c0-2 10 0 12 1h-2l-10-1z"/><path class="aq" d="M636 226a6 6 0 002-2c1-2 4-1 5-1h-1s-2-1-3 1l-3 2z"/><path class="ak" d="M509 269v-9c1-4 5-3 9-3 2 0 18-1 18 1l1 7c0 2 0 6-3 6l-13-1c-1 0-12 1-12-1zm0 0c0 2 11 1 12 1l13 1c3 0 3-4 2-6v-7h-17c-6 0-10-3-10 5v6z"/><path class="aq" d="M509 269v-9c1-4 3-3 7-3h12l8 1 1 7c0 2 0 6-3 6a172 172 0 00-18-1l-7-1z"/><path class="am" d="M515 257h13l8 1a8 8 0 010 2l-1 2c2 3 2 3 0 5-1 4-4 2-4 1-1-5-4-1-7 1l-12-1c-3-1-3-2-3-4 0-5 3-5 2-5l4-2zm0 4a8 8 0 012 0l1-1a1 1 0 01-1-1c-1 0-7 3-2 2zm15 6c-1 0-4-1-3 2a2 2 0 003-1v-1z"/><path class="av" d="M522 258l11 1-1 1-10-2z"/><path class="aq" d="M509 266a6 6 0 002-2c1-2 4-1 5-1h-1s-3-1-4 1l-2 2zM626 263c1 0 2 5 4 6 3 2 3 8 2 3-1-3-3-3-4-5-2-3-1-3-3 2l1-4v-2z"/><path class="ax" d="M399 381l1-2 2 1 3 2h2l-1 2-7-3z"/><path class="ay" d="M421 392l2-3 1 1 3 1 2 1-1 3-7-3zM447 404l2-3 1 1 3 1 2 1-1 3-7-3z"/><path class="ax" d="M462 436l2 1-1 2-1 3-1 2-2-1 3-7z"/><path stroke-width="1.3" fill="#3f2b0f" stroke="#1d150c" stroke-miterlimit="10" d="M450 460l3 2-1 2-1 3-1 2-3-1 3-8z"/><path class="ay" d="M439 486l2 1v1l-2 3-1 2-2-1 3-6z"/><path class="ax" d="M343 447l-2-1v-2l2-3 1-2 2 1-3 7z"/><path class="ay" d="M353 424l-2-1v-1l2-3 1-2 2 1-3 6zM365 399l-2-2v-1l2-3 1-2 2 1-3 7z"/><path stroke-width="1.4" fill="#3f2b0f" stroke="#1d150c" stroke-miterlimit="10" d="M408 500l-2 3h-2l-3-2-2-1 1-3 8 3z"/><path class="ay" d="M384 489l-2 3-1-1-3-1-2-1 1-3 7 3zM360 478l-2 2h-1l-3-2-2-1 1-2 7 3z"/><path class="bb" d="M336 465l-1 2 1 1 2 1h2l1 1h3l2-5-5-2-5 2z"/><path class="bb" d="M345 466v1l-1 2-1 1v1l4 2 3 1h3l1-4a13 13 0 000-1l-8-4zM362 474l-1 1v1l-1 2 1 1 2 1 1 1 3 1h3l2-4-8-4h-2z"/><path class="bb" d="M354 470l-2 2v3l3 1 1 1 2 1h1l1-1 2-4-6-4-2 1zM388 486l-2 2v1l-1 1 2 1 5 2h1l1-3 1-1-5-4-2 1z"/><path class="bb" d="M378 481l-2 4v2h2l1 1 3 1 1 1h2l1-1v-1l2-3-7-4h-3z"/><path class="bb" d="M371 478l-1 1-1 3v1l1 1h1l2 1 2 1a10 10 0 001-1l2-4-3-2zM401 492l-2 4 1 1 1 1 2 1 3 1h3l1-2 1-2-6-4h-4z"/><path class="bb" d="M411 496l-2 4v1l1 1 2 1 2 1 4 2h4l1-2 2-2-10-6h-4zM394 489l-1 1-1 2v1l2 1 1 1 2 1 1 1h1a11 11 0 000-2l2-3-2-2z"/><path class="bc" d="M427 509h-1l-1-1h-2l-1-1v-1l1-2v-3h2z"/><path class="bb" d="M348 462l-1 2-1 2 1 1 2 1 2 1 1 1h1l2-1 2-4-7-4-2 1z"/><path class="bb" d="M356 466v1l-1 1-1 1v2l4 1 3 2h1l2-1 1-3a13 13 0 000-2l-8-3zM385 479l-2 2v2l1 2 8 3h2v-3l1-1-7-6-3 1z"/><path class="bb" d="M373 472l-2 5v1l1 1 2 1 1 1 4 1 1 1h2l1-1v-1l2-3-8-4-4-2z"/><path class="bb" d="M365 468l-1 3-1 2v1l2 1 1 1 2 1 2 1h1a7 7 0 000-1l2-5-3-1zM342 463l1 2 2 1h2l2-4-1-1-6 2zM402 486v2l-1 1-1 2 1 1 3 1 1 1 2 1h3l2-5-8-4h-2z"/><path class="bb" d="M411 491l-1 2v3h1l2 1 1 1 2 1 2 1h2l3-5-8-5-4 1zM394 483l-1 2-1 2v1l3 1 1 1h2l1 1 2-1 2-4-7-4-2 1z"/><path class="bb" d="M424 502h-1l-1-1h-2v-1l-1-1 1-1v-2l1-1h1zM355 459l-1 2-1 2v1l3 1 1 1 2 1h1l2-1 2-4-7-4-2 1z"/><path class="bb" d="M363 463l-1 1-1 1v2l3 2 4 2h1l2-1v-3a15 15 0 000-2l-7-3zM391 476l-1 2-1 1v1l2 1 6 3h2v-3l2-1-7-5-3 1z"/><path class="bb" d="M379 471l-1 3v2l2 1 2 1 3 1 2 1h2v-1l1-1 2-3-9-4h-4zM371 466a14 14 0 01-1 2l-1 2 1 1 1 1 1 1 3 1 2 1a7 7 0 001-1l1-4-3-2zM419 489l-2 2v2h-1l-2-1a6 6 0 01-1 0 5 5 0 00-1-1h-1l-1-1a5 5 0 01-1-1l2-4h5z"/><path class="bb" d="M398 483l1 2 2 1 2 1 3 2 1 1 2-1 2-4-5-4-5-2-2 2-1 2zM422 495h-2l-2-1-1-1v-2l2-2 1-1 3 6-1 1zM349 460v2h1l1 1h3l2-4-1-1-6 2zM357 457l-1 3h1l2 1 2 1 1 1h1l2-1 2-4-5-3-5 2z"/><path class="bb" d="M366 459v1l-1 2-1 1v1l4 1 3 2h1l2-1 1-3a13 13 0 000-2l-8-3zM383 466l-1 2v1l-1 1 1 2 2 1 1 1 3 1h3l2-5-8-4h-2z"/><path class="bb" d="M375 463l-1 2-1 2v1l3 1 1 1h2l1 1 2-1 2-4-7-4-2 1zM420 488l-2 1-2-1-1-1-1-1 1-1v-2l1-1 1-1 3 7z"/><path class="bb" d="M409 478l-1 2-1 2v1l1 1 5 2h2v-3l1-1-5-5-2 1z"/><path class="bb" d="M399 474l-2 4v1h1l1 1 1 1 3 1h4v-2l2-2-7-4h-3z"/><path class="bb" d="M392 471l-1 1-1 2v2l1 1h1l2 1 2 1h1a11 11 0 000-2l2-3-3-2zM378 458l-1 2v1l-1 1 1 2 2 1 1 1 3 1h2l3-5-9-4h-1z"/><path class="bb" d="M387 463l-1 2-1 2 1 1 3 1 1 1h1l3 2h2l2-5-8-5-3 1z"/><path class="bb" d="M397 467l-1 3-1 2 1 1h2l2 1 1 1h3l2-5-7-4-2 1zM369 455l-1 2v3l3 1 1 1h2l1 1 1-1 2-4-6-4-3 1z"/><path class="bb" d="M405 471v1l-1 2-1 1v1l4 2 3 1h3l1-4a15 15 0 000-2l-8-3z"/><path class="bb" d="M417 482h-1l-1-1-2-1h-1v-1l1-2v-1l1-2 1 1zM363 456v1l1 1 1 1h2l1-1 2-4v-1l-7 3zM370 453v2l2 1 2 1 2-1 2-4-1-2-7 3z"/><path class="bb" d="M378 452l-1 2-1 1-1 1 1 1 2 1 1 1 2 1h1l1-1 2-4-6-3h-1z"/><path class="bb" d="M384 456l-1 2v2l1 1 2 1h1l2 1 2 1 1 1 1-1 3-5-8-4-4 1z"/><path class="bb" d="M394 460l-1 2v3l3 1 1 1 2 1h1l1-1 2-4-6-4-3 1z"/><path class="bb" d="M403 464l-1 1-1 2v2l3 1 4 2h1l1-1 1-3a13 13 0 000-2l-8-3z"/><path class="bb" d="M415 474h-2l-2-1h-1v-3l1-2v-1h2z"/><path class="bb" d="M412 467l-1 1-2-1-2-1v-2l1-2v-1l2-1 3 7z"/><path class="bb" d="M401 457l-1 2-1 2v1l1 1 5 2h2l1-3 1-1-5-5-3 1z"/><path class="bb" d="M391 453l-2 4 1 1 1 1 2 1 3 1h3l1-2 1-2-6-4h-4z"/><path class="bb" d="M384 450l-1 1-1 2v2l2 1h1l1 1 2 1h1a11 11 0 000-2l2-3-3-2z"/><path class="bb" d="M377 451v1l1 1 3 1h1v-1l1-2 1-1v-2l-7 3zM405 455l-1 2-1 1-1 1-1-1a6 6 0 01-2-1 5 5 0 00-1 0v-1h-1l-1-1a5 5 0 010-1l2-3h5z"/><path class="bb" d="M388 451v1l2 1 2 1 2 1h2v-1l2-3-4-4h-3l-1 1-2 3zM384 448v2h1l1 1h2l2-4-1-1-5 2zM409 460l-1 1h-1l-2-2h-1v-2l1-3h2l3 6h-1z"/><path class="bb" d="M403 452l-2 1-1-1-3-1-2-1v-2l1-3 2-1 7 4z"/><path class="bb" d="M395 448l-1 1-2-1-2-1-1-1 8-3-1 2-1 3zM407 454l-1 1-3-2h-1v-1l1-2 1-2 1-1 2 6v1z"/><path class="bb" d="M405 447l-1 1-3-1-1-1 1-2 1-3 2 3 1 3z"/><path class="bb" d="M396 444l1 1 2 1h1l1-1 1-3v-1l-5 2-1 1zM470 416l1-2h-1l-2-1-2-1-1-1h-3l-2 5 5 3 5-3z"/><path class="bb" d="M461 415v-1l1-2 1-1v-1l-4-1-3-2h-3l-1 4a13 13 0 000 2l8 3zM444 408l1-2v-1l1-2-1-1-2-1-1-1-3-1h-3l-2 5 8 3 2 1z"/><path class="bb" d="M452 411l1-2 1-2v-1l-3-1-1-1-2-1h-1l-2 1-2 4 7 4 2-1zM418 396l1-2 1-2v-1l-1-1-5-2h-2v3l-1 1 5 4h2z"/><path class="bb" d="M428 400l2-4v-1h-1l-1-1-1-1-3-1-1-1-2 1h-1v1l-2 3 7 4h3z"/><path class="bb" d="M435 403l1-1 1-2v-2l-1-1h-1l-2-1-2-1h-1a11 11 0 000 1l-2 4 3 2zM405 389l1-3v-2l-2-1-1-1-3-1h-3v1l-1 1-1 2 6 4h4z"/><path class="bb" d="M395 385l2-4v-1l-1-1h-2l-2-2-4-1-1-1h-3v1l-1 1-2 2 10 6h4zM412 393l1-2 1-2-1-1-1-1-1-1-2-1-2-1v1a10 10 0 00-1 1l-1 3 2 3z"/><path class="bc" d="M379 373h2l2 1h1v1l-1 2v2l-1 1h-1z"/><path class="bb" d="M458 419l1-2 1-2-1-1-2-1-2-1h-1l-1-1-2 1-2 4 7 4 2-1z"/><path class="bb" d="M450 416v-2l1-1 1-1v-1l-4-2-3-2h-1l-2 1-1 3a13 13 0 000 2l8 3zM421 402l2-1v-3l-1-1-8-4v1l-1-1h-1v3l-2 2 8 5 3-1z"/><path class="bb" d="M433 409l2-5-1-1v-1l-2-1-1-1-4-1-1-1h-2l-1 1v1l-2 3 8 5 4 1z"/><path class="bb" d="M441 413l1-3 1-2v-1l-2-1h-1l-2-2-2-1h-1a6 6 0 000 2l-2 4 3 1zM464 418l-1-2h-1l-1-1h-2l-2 4 1 1 6-2zM404 395v-2l1-1 1-1-1-2-3-1-1-1-2-1h-3l-2 5 8 4h2z"/><path class="bb" d="M394 390l2-2v-2l-1-1-2-1-2-1h-1l-2-2h-1l-1 1-3 5 8 4 3-1zM412 398l1-2 1-2-1-1-2-1-2-1h-1l-1-1-2 1-2 4 7 4 2-1z"/><path class="bb" d="M382 379l2 1 1 1h1l1 1-1 2-1 1v2l-2-1zM451 422l1-2 1-2v-1l-3-1-1-1h-2l-1-1-2 1-2 4 7 4 2-1z"/><path class="bb" d="M443 419l1-2 1-1v-2l-3-2-4-2h-1l-2 1-1 3a13 13 0 001 2l7 3zM415 405l1-1 1-2v-1l-2-1-6-3h-2v3l-2 1 7 5 3-1z"/><path class="bb" d="M427 411l1-4v-1l-1-1-1-1-2-1-3-1-2-1h-2v1l-1 1-2 3 8 5h5z"/><path class="bb" d="M435 415a13 13 0 011-2l1-2-1-1-2-1h-1l-2-2-2-1h-1a7 7 0 000 2l-1 3 3 2zM387 392l2-2v-1l1-1 2 1a6 6 0 011 1 5 5 0 001 0h1l1 1v1l-1 4h-5zM408 398l-1-1-2-2-2-1-3-2h-3l-2 4 5 4 5 2 1-2 2-2z"/><path class="bb" d="M383 387l1-1h2l2 1 1 1v2l-2 3h-1l-3-6zM457 421v-2h-3l-1-1-1 1-2 4h1l6-2zM449 424l1-2-1-1-3-1-1-1-1-1h-1l-2 1-2 4 5 3 5-2z"/><path class="bb" d="M440 423v-2l1-1v-2l-3-2-3-2h-1l-2 1-1 3a15 15 0 000 2l8 3zM423 415v-2l1-1 1-1-1-1-3-2-1-1-2-1h-2l-1 1-2 4 8 4h2z"/><path class="bb" d="M431 419l1-3 1-2v-1l-3-1h-1l-2-1h-3l-2 4 7 4h2zM386 393l2-1 2 1 1 1v4l-1 1-2 1-2-7z"/><path class="bb" d="M397 403l1-2 1-2v-1l-1-1-5-2h-2v3l-2 2 6 4 2-1z"/><path class="bb" d="M407 407l2-3v-2h-1l-1-1-2-1-2-1h-4v2l-2 2 7 4h3z"/><path class="bb" d="M414 411l1-2 1-2v-1l-2-1-1-1-1-1-2-1h-1a11 11 0 000 2l-2 3 3 3zM428 423l1-2v-1l1-1-1-1-2-2-1-1-3-1h-1l-2 1-2 4 8 4h2z"/><path class="bb" d="M419 418l1-2 1-1v-1l-1-1-3-1-1-1h-2l-2-1-1-1-1 1-2 5 7 4 4-1z"/><path class="bb" d="M409 414l1-2 1-3h-1l-2-1-2-1-1-1h-3l-2 5 7 4 2-1zM436 427l2-3v-3l-3-1h-1l-2-1h-2l-2 4 6 4h2z"/><path class="bb" d="M401 410v-1l1-2 1-1v-1l-4-1-3-2h-3l-1 4a15 15 0 000 2l8 3z"/><path class="bb" d="M389 400h2l2 1 1 1-1 2v1l-1 2h-1zM443 425v-1l-1-1h-2l-1-1h-1v1l-3 4 1 1 7-3z"/><path class="bb" d="M436 428v-1l-3-1-2-1h-1l-2 4 1 2 7-3z"/><path class="bb" d="M428 429l1-1 1-2v-2l-2-1-1-1-2-1h-1l-1 1-2 4 6 3h1z"/><path class="bb" d="M421 426l2-2v-3l-1-1-2-1h-1l-2-1-2-1h-2l-3 5 8 4h3z"/><path class="bb" d="M411 421l2-2v-3l-3-1-1-1-2-1h-1l-1 1-2 4 6 4 2-1z"/><path class="bb" d="M403 418l1-2 1-1v-2l-3-2-4-2h-1l-2 1v3a13 13 0 000 2l7 3z"/><path class="bb" d="M391 407h2l2 1h1v1l-1 2v3h-2z"/><path class="bb" d="M394 414l1-1 2 1 2 1v2l-1 2-1 1-1 1-3-7z"/><path class="bb" d="M405 424l1-2 1-2v-1l-1-1-5-2h-2l-1 3-1 2 5 4 3-1z"/><path class="bb" d="M415 428l2-3-1-2-1-1-2-1-3-1h-3l-1 2-1 2 6 4h4z"/><path class="bb" d="M422 432a17 17 0 011-2l1-2v-1l-2-1-1-1-2-1-1-1h-1a10 10 0 00-1 2l-1 3 2 3z"/><path class="bb" d="M429 430v-1l-2-1-2-1h-1v1l-1 2-1 2v2l7-4zM401 427l1-3 1-1v-1l2 1a6 6 0 011 1 5 5 0 001 0l1 1h1v1a5 5 0 011 1l-2 4-5-1z"/><path class="bb" d="M417 431v-2l-1-1-2-1-2-1h-2v1l-2 3 3 4 4 1 1-2 1-2zM422 433v-1l-1-1h-1l-1-1h-1l-1 1-1 4 6-2zM397 421l1-1h1l2 2 1 1v1l-2 3h-1l-3-6h1z"/><path class="bb" d="M403 429h3l3 1 2 1v3l-1 3h-2l-7-4z"/><path class="bb" d="M411 433l1-1 2 1 2 1v1l-7 3 1-2 1-3zM399 427l1-1 3 2 1 1-1 2-1 2-1 1-3-6 1-1z"/><path class="bb" d="M401 434l1-1 3 1v3l-1 3-2-3-1-3z"/><path class="bb" d="M410 437l-1-1-3-1-1 1-1 3v1l5-2 1-1zM427 508l2 1v-1l1-3 1-1 1-1v-3l-5-2-3 4 3 6z"/><path class="bb" d="M428 499h1l2 1h2l1-3 2-3v-3l-4-1a13 13 0 00-2 0l-3 8zM436 482h1l1 1 2 1 1-1 1-3 1-1 1-2v-3l-5-2-3 8v2z"/><path class="bb" d="M432 490l2 1 2 1h1l1-3 1-1 1-2v-1l-1-2-4-2-4 7 1 2zM448 456l1 1 2 1h1l1-1 2-5v-2h-3l-1-2-4 6 1 2z"/><path class="bb" d="M443 466l4 2h1l1-1v-1l1-2 1-2 1-2-1-1v-1l-1-1-3-1-4 7v3z"/><path class="bb" d="M440 473l1 1 2 1h2l1-2v-1l1-1 1-2v-1a13 13 0 00-1 0l-4-2-2 3zM454 443l3 1h2l1-2 1-1 1-3v-3l-2-1-2-2-4 7v4z"/><path class="bb" d="M458 433l4 2 1-1h1v-2l2-2 1-4 1-2v-2l-2-1-2-2-6 10v4zM450 450l2 1 2 1 1-1 1-1 1-1 1-2 1-2a11 11 0 00-2-1l-3-1-3 2z"/><path class="bc" d="M471 417l-1 2-1 2v1h-1l-2-1h-2l-1-1v-1z"/><path class="bb" d="M424 496l2 1 2 1 1-1 1-3 1-1v-1l1-2-1-1-4-2-4 6 1 3z"/><path class="bb" d="M427 488h2l1 1h2l2-3 2-3v-2l-1-1-3-1a14 14 0 00-2 0l-3 8zM441 459l1 1 2 1h1l1-2 4-7-1-1h1v-1h-3l-2-2-5 8 1 3z"/><path class="bb" d="M434 470l5 3 1-1h1l1-2 1-2 1-3 1-1v-2l-1-1-1-1-3-1-4 8-2 3z"/><path class="bb" d="M430 479l3 1 2 1h1l1-2v-1l2-2 1-3a9 9 0 00-2-1l-4-2-1 4zM425 501h2v-1l1-1v-3l-4-1h-1l2 6zM448 441l2 1 1 1 1 1 2-1 1-3 1-1 1-3v-2l-5-3-4 9v1z"/><path class="bb" d="M453 432l2 1 2 1 1-1 1-3 1-1v-1l2-2v-3l-6-2-4 8 1 3zM445 450l2 1 2 1 1-1 1-3 1-1v-1l1-1-1-2-4-2-4 7 1 2z"/><path class="bb" d="M464 419v1l-1 1-1 2v1h-3l-1-1h-2l1-2zM421 489l2 1 2 1 1-1 1-2 1-2v-1l1-1-1-2-4-2-4 7 1 2z"/><path class="bb" d="M424 481l2 1h1l1 1h1l2-4 2-3v-1l-1-2-3-1a15 15 0 00-2 1l-3 7zM438 453l1 1h2l1 1 1-2 3-6v-2h-3l-1-2-5 7 1 3z"/><path class="bb" d="M432 464l4 2h1l1-1 1-1 1-2 1-4 1-1v-2l-1-1h-1l-3-2-5 8v4z"/><path class="bb" d="M428 473a14 14 0 012 1h3l1-2v-1l2-2 1-2v-1a8 8 0 00-2 0l-3-2-2 4zM451 425l2 1 1 1 1 1-1 2a6 6 0 01-1 1 6 6 0 000 1v1l-1 1h-1l-4-1v-5z"/><path class="bb" d="M445 445h1l2-2 1-3 2-2v-4l-4-1-4 5-2 5 2 1 2 1zM456 421l1 1v2l-1 1-1 2h-2l-3-2v-2l6-2zM422 495l2-1 1-2v-2l-4-2-1 1 2 6zM419 487h3l1-3 1-1 1-2v-1l-1-1-4-2-3 4 2 6z"/><path class="bb" d="M421 477l1 1 1 1h3l1-3 2-4v-1l-1-1-3-1a15 15 0 00-2 0l-3 8zM428 461h2l1 1 1 1 1-1 2-3 1-1 1-2v-2l-1-1-4-2-4 8v2z"/><path class="bb" d="M424 469l3 1 2 1 1-1 1-2 1-2v-4l-4-2-4 7v2zM450 424l1 1-1 2-1 2h-2l-2-1h-1l-1-2 7-3z"/><path class="bb" d="M440 435l2 1 2 1h1l1-1 2-5v-2l-3-1-1-1-5 6 1 2z"/><path class="bb" d="M436 445l3 2 2-1 1-1 1-2 1-3v-3l-2-1-2-1-4 6v4z"/><path class="bb" d="M433 452l1 1 2 1h1l1-2 1-1 1-1 1-2v-1a11 11 0 00-2 0l-3-2-2 3zM420 466l2 1h1l1 1 1-1 2-3 1-1 1-2v-2l-1-1-4-2-4 8v2z"/><path class="bb" d="M425 457l2 1 1 1h1l1-2 1-2 1-1v-2l1-2 1-1-1-1-5-2-4 7 1 4z"/><path class="bb" d="M429 447l2 1 3 1v-1l1-3 1-1 1-1v-3l-5-2-4 6 1 3zM417 474l2 1 2 1h1l1-3 1-1v-5l-4-2-4 7 1 2z"/><path class="bb" d="M433 439h1l2 1h2l1-3 2-3v-3l-4-1a13 13 0 00-2 0l-3 8z"/><path class="bb" d="M443 427v2l-1 1v1h-3l-1-1h-2v-2zM418 481h1l1-1v-2l1-1v-1l-1-1-4-2-1 1 3 7z"/><path class="bb" d="M415 474l1-1 2-2v-3l-4-2-2 1 3 7z"/><path class="bb" d="M414 466l1 1h2l1 1h1l1-2 1-1 1-2v-1l-1-1-4-2-3 6v1z"/><path class="bb" d="M417 459l2 1 2 1h1l1-1 1-3v-1l1-1 1-2v-3l-5-2-4 8v3z"/><path class="bb" d="M422 449l2 1 3 1 1-3 1-1 1-2v-1l-1-2-4-2-4 7 1 2z"/><path class="bb" d="M426 441l1 1 2 1h2l1-3 2-4v-1l-1-2-3-1a15 15 0 00-2 1l-3 7z"/><path class="bb" d="M436 429v2l-1 2v1h-1l-2-1h-2l-1-1v-1z"/><path class="bb" d="M429 432l1 1-1 2-1 1-1 1h-1l-2-1-1-1-1-1 7-3z"/><path class="bb" d="M419 443l2 1 2 1h1l1-2 2-5v-1l-3-1-1-1-5 5 1 3z"/><path class="bb" d="M415 453l4 1h1l1-2 1-1 1-3v-3l-2-1-2-2-4 7v4zM412 460l1 1 2 1 1-1 1-1 1-1 1-2 1-2a11 11 0 00-2-1l-3-1-2 2z"/><path class="bb" d="M413 467h1l1-2 1-2v-1h-1l-2-1-2-1h-2l4 7zM416 438l3 2h1l1 1-1 2a6 6 0 01-1 1 5 5 0 000 1l-1 1v1h-1a6 6 0 01-1 0l-3-1v-5z"/><path class="bb" d="M412 455h2l1-1 1-2 1-2v-2l-1-1-3-1-4 3v4l1 1 2 1zM410 460h1l1-1v-1l1-1v-1l-1-1-4-2v1l2 6zM422 434l1 1v2l-2 2-1 1h-1l-3-2v-1l6-3z"/><path class="bb" d="M414 441v3l-1 2-1 3h-3l-2-1-1-2 4-7z"/><path class="bb" d="M410 449l1 1-1 2-1 2h-1l-3-7 2 1 3 1zM416 437l1 1-2 3h-1l-2-1-2-1h-1l6-3 1 1zM409 439l1 1-1 3h-1l-2-1h-3l3-3h3z"/><path class="bb" d="M406 447h1l1-3-1-1-3-1h-1l2 5h1zM379 373l-3-1v1l-1 3-1 1-1 1v2l1 1 4 2 3-4-2-6z"/><path class="bb" d="M377 383l-1-1-2-1h-2l-1 3-2 3v2l1 1 3 1a15 15 0 002 0l3-8zM370 399h-2l-1-1-1-1-2 1-1 3-1 1-1 2v3l5 2 4-8v-2z"/><path class="bb" d="M373 391l-2-1-2-1h-1l-1 3-1 1v2l-1 1 1 2 4 2 4-7-1-2zM358 425l-2-1-2-1h-1l-1 1-2 5v2h3l1 2 5-6-1-2z"/><path class="bb" d="M362 415l-4-2h-1v1l-1 1-1 2-1 3v3l2 1 2 1 4-7v-3z"/><path class="bb" d="M365 408l-1-1-2-1h-2l-1 2v1l-1 1-1 2v1a10 10 0 002 0l3 2 2-3zM352 438l-4-1h-2v2l-1 1-2 3v3l1 1h1l3 2 4-7v-4z"/><path class="bb" d="M347 448l-3-2-2 1-1 2-1 2-2 4-1 2v2l1 1h1l3 2 5-10v-4zM355 432l-2-1-2-1h-1l-1 1-1 1-1 2v2a10 10 0 001 1l4 1 2-2z"/><path class="bc" d="M335 464v-2l1-2v-1h1l2 1h2l1 1v1z"/><path class="bb" d="M382 385l-3-1-2-1-1 1-1 3-1 1v4l4 2 4-6v-3z"/><path class="bb" d="M378 394l-1-1-2-1h-2l-2 3-1 4v2l4 1a15 15 0 001 0l4-8zM365 422l-2-1-2-1h-1l-1 2-3 7v2h3l1 2 5-8v-3z"/><path class="bb" d="M371 411l-5-3-1 1h-1v2l-1 2-2 3v4l1 1 3 1 5-8 1-3z"/><path class="bb" d="M375 403l-2-2-2-1h-2l-1 2v1l-1 2-1 3a9 9 0 001 1l4 2 1-4zM380 380h-1l-1 1v1l-1 1v1l1 1 4 1-2-6zM357 440l-1-1-2-1-1-1-1 1-2 3-1 1-1 3v1l1 1 4 3 4-9v-1z"/><path class="bb" d="M352 449l-1-1-2-1h-1l-1 1-1 3v1l-1 1-1 2-1 1 1 2 5 2 4-8-1-3zM361 431l-3-1-2-1-1 1-1 3v1l-1 1v3l5 2 3-6v-3z"/><path class="bb" d="M342 462v-1-1l1-2v-1h3l1 1h2v2zM385 392l-3-1-2-1-1 1-1 2v2l-1 1v3l4 2 4-7v-2z"/><path class="bb" d="M381 400l-1-1h-2l-1-1h-1l-2 4-1 3v3l4 1a15 15 0 001-1l4-7zM368 429l-2-2h-2l-1-1-1 2-3 6v2h3l1 2 5-7v-2z"/><path class="bb" d="M373 417l-4-2h-1l-1 1v1l-1 2-2 4v4h1l3 2 5-8v-4z"/><path class="bb" d="M377 408a14 14 0 01-1-1h-4l-1 2v1l-1 2-1 2v1a6 6 0 001 0l3 2 2-4zM355 456l-3-1-1-1-1-1 1-2a5 5 0 011-1 5 5 0 000-1l1-1v-1h1a7 7 0 011 0l3 1v5z"/><path class="bb" d="M360 436h-1l-2 2-1 3-1 2-1 2v1l1 1 3 1 4-5 2-5-2-1-2-1zM349 460l-1-1v-2l2-1v-2h2l3 2v2l-6 2zM383 386l-1 1h-1v2l-1 1 1 1 4 2v-1l-2-6zM386 394h-3l-1 3-1 1v2l-1 1 1 1 4 2 3-4-2-6z"/><path class="bb" d="M385 404l-2-1-1-1h-2l-2 3-2 4v1l1 1 3 1a13 13 0 002 0l3-8zM377 420h-1l-2-1-1-1-1 1-2 3-1 1-1 2 1 2v1l4 2 4-8v-2z"/><path class="bb" d="M381 412l-3-1-2-1-1 1-1 2v2l-1 1v3l5 2 4-7-1-2zM355 457l-1-1 2-2v-2h2l2 1h1l2 2-8 3z"/><path class="bb" d="M365 446l-2-1-1-1h-1l-1 1-3 5 1 1v1l2 1 2 1 4-6-1-2z"/><path class="bb" d="M369 436l-3-2-1 1h-1l-1 1v2l-2 3v2l1 1 1 1 3 1 4-7-1-3z"/><path class="bb" d="M373 429l-2-1-2-1h-1l-1 2-1 1-1 1-1 2 1 1a12 12 0 001 0l3 2 3-3zM385 415l-1-1h-2l-1-1-1 1-2 3-1 1-1 2 1 2v1l4 2 4-8v-2z"/><path class="bb" d="M381 424l-2-1-2-1h-1l-1 2-1 2v1l-1 2-1 2v2l5 2 4-7v-4z"/><path class="bb" d="M376 434l-2-1-3-1v1l-1 3-1 1-1 1v2l1 1 4 2 4-6-1-3zM389 407l-3-1-2-1h-1l-1 3v1l-1 2v3l5 2 4-7-1-2zM372 443l-1-1-2-1h-1l-2 3-2 4v1l1 1 3 1a15 15 0 002 0l3-8z"/><path class="bb" d="M362 455v-1-2l1-1v-1h3l2 1h1v2zM388 400h-2l-1 1v2l-1 1v1l1 1 5 2v-1l-2-7z"/><path class="bb" d="M390 407l-1 1-1 2-1 2v1l4 2 2-1-3-7z"/><path class="bb" d="M391 415l-1-1h-1l-2-1h-1l-1 2-1 1-1 2 1 1v1l4 3 3-7v-1z"/><path class="bb" d="M388 422l-2-1-2-1h-1v1l-2 3v1l-1 1-1 2v3l5 2 4-8v-3z"/><path class="bb" d="M383 432l-2-1-2-1h-1l-1 3-1 1v2l-1 1 1 2 4 2 4-7-1-2z"/><path class="bb" d="M380 440l-2-1-1-1h-2l-2 3-2 4v1l1 2 3 1a15 15 0 002-1l3-7z"/><path class="bb" d="M369 452v-1l1-1v-2l1-1 2 1h2l1 1v1z"/><path class="bb" d="M376 450l-1-2 2-2v-1l1-1h1l2 1 1 1 2 1-8 3z"/><path class="bb" d="M386 438l-2-1-1-1h-1l-1 2-3 5h1v1l2 1 2 1 4-5-1-3z"/><path class="bb" d="M390 428l-3-1h-2l-1 2v1l-2 3v3h1l1 1 3 2 4-7-1-4z"/><path class="bb" d="M394 422l-2-1-2-1h-1l-1 1-1 1-1 2-1 2h1a11 11 0 001 1l3 1 3-2zM393 414h-2l-1 2-1 2v1h1l2 1 2 1h2l-3-7zM389 443l-2-2h-2v-1l1-2a6 6 0 010-1 5 5 0 001-1v-2h1a7 7 0 011 0l4 1v5z"/><path class="bb" d="M393 426h-1l-2 1-1 2-1 2v2l1 1 4 1 3-3 1-4-2-1-2-1z"/><path class="bb" d="M395 421h-1l-1 1v1l-1 1v1l1 1 4 2v-1l-2-6zM383 447l-1-1v-2l2-2 1-1h1l3 2 1 1-7 3zM391 440v-3l1-2 2-3h2l3 1v2l-4 7z"/><path class="bb" d="M395 432v-3l1-2h1l3 7-2-1-3-1zM389 444l-1-1 2-3h1l2 1 2 1h1l-6 3-1-1zM396 442l-1-1 1-3h1l2 1h3l-3 3h-3z"/><path class="bb" d="M400 434h-2l-1 3 1 1 3 1h2l-2-5h-1z"/><path transform="rotate(-65 402 440)" style="isolation:isolate" opacity=".1" fill="url(#b)" d="M350 389h103v104H350z"/><path class="be" d="M335 466l8-3 8-3 9-3 12-4 12-5 14-5 4-1v-2l-4 1-14 6-13 4-12 5-9 3-8 2-8 3v2zM378 373l2 8 3 8 3 9 5 12 4 12 5 14 1 4h2l-1-4-5-14-5-13-4-12-3-9-3-8-2-8-2-1zM470 415l-7 3-8 3-10 3-12 4-12 5-14 5-4 1 1 2 4-1 14-6 12-4 12-5 9-3 8-2 8-3 1-2zM428 509l-2-8-3-8-3-9-5-12-4-13-5-14-1-4-2 1 1 4 5 14 5 12 4 13 3 9 3 8 2 7 2 1z"/><path class="be" d="M404 444l-4-2 2-4c1 0 3 0 4 2l-1 1a6 6 0 01-1 3z"/><use class="e" transform="translate(56 620) scale(.09)" xlink:href="#c"/><path class="aj" d="M233 669v-22l-1-10a13 13 0 00-7-8c-7-3-14-1-22-1a74 74 0 01-11 0 34 34 0 00-6-1 39 39 0 00-5 1 23 23 0 01-6 1l-6-1h-11a4 4 0 00-1-1h-24l-12-1c-4 0-8 0-12 2a32 32 0 00-6 0 35 35 0 01-6-1 37 37 0 00-8-1h-7l-8 1a12 12 0 00-5 1 7 7 0 01-1 1l-1 8c-1 2-4 5-6 4a7 7 0 010 3 22 22 0 010 4c0 4 2 7 3 10a2 2 0 01-1 3v1a2 2 0 010 1 10 10 0 01-2 4 30 30 0 00-1 4 12 12 0 000 4 19 19 0 002 5 5 5 0 005 0 22 22 0 0110-1l11 1 24 1h25l50 1h38a8 8 0 005-2 8 8 0 002-5v-2-1a3 3 0 001-3z"/><path class="ak" d="M103 626c-5 0-9-1-9 4l-1 6c0 3 8 2 10 2s12 1 12-1 1-9-1-10h-8zm0 0h3c2 0 6-1 8 1 2 1 1 8 1 10s-10 1-12 1-10 1-10-2l1-6c0-5 4-4 9-4z"/><path class="al" d="M103 626c-5 0-10-1-9 4 0 6-5 8 8 8 2 0 13 1 13-1v-7c0-3 0-3-3-4a8 8 0 00-4 0 42 42 0 01-5 0z"/><path class="am" d="M103 626l-8 1a3 3 0 000 2v4c2 2 1 3 5 3 2 0 8 2 9 0s3 5 5-1c1-2 0-7-1-8l-1-1a8 8 0 00-4 0 43 43 0 01-5 0zm7 2v1l-3 1 3-2zm2 5v1c-2-1 0-1 0-1zm-17 1c1 1 1 3 3 3l-4-1c0-1 0-3 1-2z"/><path class="an" d="M149 630l1 9c0 1 4 3 5 1v-12c-1-1-7-4-6 2zm0 0c-2-5 4-4 6-3v13c0 3-4 1-5 0l-1-10z"/><path class="ao" d="M149 630v7l1 3c2 0 2 2 5 1l1-7-1-7c-5-2-7 0-6 3z"/><path class="ap" d="M156 631l-2-4c-3-1-5-1-5 1a15 15 0 010 1l1 7c0 3 1 2 2 3a2 2 0 002-1l1-4a21 21 0 001-3z"/><path class="an" d="M61 658l-1 9s4 4 5 1c1-2 4-9 3-11 0-1-6-6-7 1zm0 0c0-6 6-4 7-2s-1 10-2 12c-2 3-5 0-6-1s1-8 1-9z"/><path class="ao" d="M61 658l-1 6v3c2 1 2 2 5 2l2-7c1-1 2-5 1-6-4-3-6-2-7 2z"/><path class="ap" d="M68 660v-4c-3-2-5-3-6-1a15 15 0 010 2l-1 6c-1 3 1 2 2 3a2 2 0 002 0l2-3a21 21 0 001-3z"/><path class="ak" d="M153 669c-8 1-8-1-15-1-4 0 0-16 6-12h4l7 1c1 1-1 6-1 8l-1 4zm0 0l1-4 1-7-4-1-7-1c-6-3-9 11-6 11 7 1 7 3 15 2z"/><path class="aq" d="M153 669c-7 1-9-2-15-2-3 1 0-15 7-11h6c5 1 5 0 3 7l-1 6z"/><path class="am" d="M137 665c0-4 3-12 8-9h6c3 1 4 0 4 2-4 0-3 2-2 3a3 3 0 002 0l-1 2a31 31 0 010 5 5 5 0 01-3-2c-1-1-2-7-1 1-4 1-3-4-3-5 0-8-1-3-3 0-4 6 1-4 1-4-2-2-3 3-4 3-2 4-3 5-4 4z"/><path class="an" d="M184 670c-3 0-10 2-9-4l1-5c-1-3 2-2 5-3 2 0 12-3 12 0 1 2 2 9-1 10a31 31 0 01-4 1l-4 1zm0 0l4-1 4-2c2-1 1-8 1-9 0-2-11 0-13 0-7 1-3 2-4 7-2 7 3 5 8 5z"/><path class="ao" d="M184 670c-2 0-11 3-8-5 1-4-4-6 4-7 3 0 13-3 13 0 1 13 0 9-8 12a5 5 0 01-1 0z"/><path class="ap" d="M182 658l4-1a6 6 0 010 3c-1 1 3 3 5-3l2 1v2a18 18 0 00-1 4c0 3-4 5-7 3-1 0-10 4-7-1-1-3-2-4 2-6-1-2 0 1 2-2z"/><path class="an" d="M227 655c-3 0-10 2-9-4v-5c0-4 3-3 6-3 2 0 12-3 12 0 1 2 1 9-1 10a30 30 0 01-4 1l-4 1zm0 0l4-1 4-2c2-1 1-8 1-9 0-3-11 0-13 0-7 1-3 2-4 7-2 7 3 5 8 5z"/><path class="ao" d="M227 655c-2 0-12 2-9-5 2-4-3-7 5-7 3 0 13-3 13 0 1 13 0 9-8 12a5 5 0 01-1 0z"/><path class="ap" d="M225 643l4-1a6 6 0 01-1 3c0 1 3 3 5-3 2-1 3 0 3 1v2a19 19 0 00-1 4c0 3-4 5-7 3-1 0-10 4-7-1-1-3-2-4 2-6-1-2 0 1 2-2z"/><path class="ak" d="M101 664c4-7 5-8-6-9-7 0-6 1-7 6l2 4c2 1 9 1 11-1zm0 0c-2 2-10 2-11 1a1 1 0 01-1 0l-1-4c1-5 0-7 7-6 10 0 10 2 6 9z"/><path class="ar" d="M101 664c2-3 6-8-2-9-12-1-10 0-11 7l2 3c0 1 10 1 11-1z"/><path class="as" d="M104 659c0-2-1-3-5-4-11-1-10 0-11 5a1 1 0 001 0c7 1 3 3 8 2 3-1 2-2 3-1s3 0 4-2zm-5-2v1c-8-1-6-2 0-1z"/><path class="ak" d="M233 667c3-7 4-9-7-9-7-1-6 1-6 6-1 2-1 2 1 3 2 2 10 1 12 0zm0 0c-2 2-11 2-12 1a1 1 0 010-1c-2-1-2-1-2-3 1-5 0-7 7-7 11 1 11 3 7 10z"/><path class="ar" d="M233 667c1-4 5-8-3-9-12-1-9 0-11 7l2 3c1 1 10 1 12-1z"/><path class="as" d="M235 662c0-2 0-4-5-4-10-1-10 0-10 5 7 1 3 3 9 2l2-2c1 2 3 1 4-1zm-5-3c1 1 2 2 0 2-8-1-6-3 0-2z"/><path class="ak" d="M157 661h15c2-2-2-5-5-5h-4c-6 0-4 1-6 3v2zm0 0v-2c2-2-1-3 6-3h4c3 0 8 4 4 5s-10 1-14 0z"/><path class="aq" d="M157 661c7 1 19 1 15-3-4-3-5-2-9-2-7 0-4 1-6 3v2z"/><path class="am" d="M173 660l-1-2c-4-3-5-2-9-2-7 0-4 1-6 3h7c7 4 2-2 7 0a4 4 0 002 1z"/><path class="an" d="M100 643c-4 1-6-2-6 2l-1 5c0 3 5 2 7 2 3 1 6 2 6-3v-8c-1-1-5 1-6 2zm0 0c1-1 5-3 6-2l1 8c-1 5-4 5-8 4-1 0-7 0-7-3l2-5c0-4 2-1 6-2z"/><path class="ap" d="M100 643c-3 1-6-3-6 4 0 1-5 6 5 6 1-1 8 4 8-7-1-4 1-7-6-4l-1 1z"/><path class="ao" d="M100 643c-3 1-6-2-6 1a5 5 0 010 1v2l-1 2c2 2 9 1 11 3 1 1 2-1 3-3a18 18 0 000-3 1 1 0 000-1 3 3 0 00-4 0c-2 0-2-1-3-3a4 4 0 000 1z"/><path class="ak" d="M86 668c-7 1-8-1-14-1-4 0 0-15 5-12h4l7 2-1 7-1 4zm0 0l1-4 1-7-4-1-7-1c-5-3-8 12-5 12 6 0 7 2 14 1z"/><path class="ar" d="M86 668c-7 2-9-1-14-1-4 0 0-16 6-12l6 1c4 1 5-1 3 7l-1 5z"/><path class="as" d="M72 658c1-3 3-4 6-3l6 1c4 1 4-1 4 4a7 7 0 01-2 0c-2-1-5 0-6 1-1 5-2 1-2 3-1 1-5 0-4-2l-2-4zm15 4a16 16 0 00-3 0c-2 0-1 1-2 3-1 1 0 3 3 2a12 12 0 002-1v-3z"/><path class="at" d="M206 655l-13-1c-1-2-3-6-2-8 1-6 10-5 15-4 2 0 11 0 11 4v5l-7 2-4 2zm0 0l4-2 7-2a55 55 0 001-5c0-5-17-5-20-5-8 1-10 7-5 13l13 1z"/><path class="ar" d="M206 655l-13-1s-9-13 7-13c3 0 18 0 17 5 0 7 2 5-5 7l-6 2z"/><path class="as" d="M192 651c-2-3-3-9 6-10l1 1a3 3 0 004-1c4 0 12 1 14 3-2 1 4 6-8 8-5 0-3-2-2-3 2-5-3 2-3 2-5 4-5-5-8-1-2 2-3 2-4 1z"/><path class="ak" d="M156 668c5 1 14 4 17 2 2-1-1-6-5-7h-4c-8-2-5-1-8 3v2zm0 0v-3c3-3 0-4 8-3l4 1c4 1 9 7 5 8s-12-1-17-3z"/><path class="aq" d="M156 668c8 3 22 5 17-1-3-5-4-4-9-5-8-1-5 1-8 3v3z"/><path class="am" d="M173 667c-3-5-5-4-9-5h-2a2 2 0 01-2 1 2 2 0 00-2 3c2 3 7-3 11 0 0 3-5 1-6 1 0 3 9 2 9 2 1 1 1-1 1-2z"/><path class="ak" d="M220 639c4 1 12 2 13-2 1-3-6-10-9-10h-3c-6 1-3 1-3 8l2 4zm0 0l-2-4c-1-7-4-8 3-8l3-1c3 0 11 9 9 12s-9 2-13 1z"/><path class="aq" d="M220 639c8 2 18 1 11-8-7-7-6-4-10-4-7 0-3 2-3 8l2 4z"/><path class="am" d="M230 631c-6-6-5-4-9-4a14 14 0 00-2 0v2c-2 0 0 5 0 5 4 5 3-6 8-2 3 5-2 3-3 4 2 3 7-1 7-1 2 1 0-2-1-4z"/><path class="an" d="M161 640l-4-2c-2-1 0 2 0 2l-1 2 2-1h3a3 3 0 001-1h-1zm0 0c3 0 1 2-1 1l-3 1c-3 1-1-1-1-2s-1-3 1-2l4 2z"/><path class="ao" d="M161 640c-3-1-1 1-4-2-2-1 0 2 0 2l-1 2 3-1h1c1 0 4-1 1-1z"/><path class="an" d="M160 642l-1 1c-1 3-1 6-4 3-1-1-3-2-1-4s0 2 4 0h2s0-1 0 0zm0 0a3 3 0 00-1 0c-1 1-4 2-4 0 0 0-2 1 0 3s2 4 3 0l2-3zm0 0z"/><path class="ao" d="M160 642h-1c-1 0-4 2-4 0 0 0-3 1-1 3 1 0 3 4 4 0a21 21 0 012-3z"/><path class="an" d="M131 640c0-2 6-1 7-1 4 0-1 3-3 3l-5-2h1zm0 0s-1 0 0 0c4 1 4 2 8 0a4 4 0 00-1 0h-7z"/><path class="aq" d="M131 640h8c-4 3-4 1-8 0-1 0 0 0 0 0z"/><path class="an" d="M69 662l-1 7c0 4-2-1-1-3l2-5v1zm0 0s0-1 0 0c-2 4-3 4-1 8a4 4 0 000-1c0-2 2-6 1-7z"/><path class="aq" d="M69 662l-1 6v2c-2-4-1-5 1-8 0-1 0 0 0 0z"/><path class="an" d="M177 655c2 0 3 1 2 2s-5-1-8-1c-2 0-5-1 1-1h5zm0 0a22 22 0 01-5 0c-6-1-4 1-1 2l5 1c4 1 5-4 1-3z"/><path class="aq" d="M177 655c1 0 3 0 2 2-1 3-4-1-8-1-2 0-5-2 1-1a18 18 0 005 0z"/><path class="an" d="M172 662a21 21 0 00-2 0l4 4-2-4zm0 0c2-1 4 7 1 4-2-2-7-4-1-4z"/><path class="aq" d="M172 662h-3l2 2c3 1 3 4 4 1 0 0-2-4-3-3z"/><path class="an" d="M232 668a21 21 0 00-3 1l5 4-2-5zm0 0c2 0 4 8 1 4-2-2-7-3-1-4z"/><path class="aq" d="M232 668l-3 1 2 2c2 1 3 4 3 1l-2-4z"/><path class="an" d="M167 673l1 3h3s7-3 5-4h-7l-2 1zm0 0h1c1-2 4-1 6-1 4 1-1 2-2 3l-3 1c0-2-1-2-2-3z"/><path class="ao" d="M167 673l2 3 4-1c1 0 5-3 1-3-1 0-5-2-7 1z"/><path class="ak" d="M79 653h8l7 1-16 1c-2-1-2-1 1-2zm0 0c-3 1-3 1-1 1h15l-4-1a22 22 0 00-3 0h-7z"/><path class="ar" d="M79 653h8a19 19 0 004 0c3 0 4 1-2 2l-11-1s-3 0-1-1h2z"/><path class="an" d="M106 656a22 22 0 00-2-2l1 6 1-4zm0 0c2 0-2 8-2 3 0-3-3-7 2-3z"/><path class="aq" d="M106 656l-3-2 1 3c1 2-1 5 1 3l1-4z"/><path class="an" d="M103 668a21 21 0 002 1l-1-6a3 3 0 000-1c-1 1-2 5-1 6zm0 0c-2-1 2-11 2-4 0 3 3 9-2 4z"/><path class="aq" d="M103 668l3 2-1-3c-1-3 0-6-2-4v5z"/><path class="at" d="M96 642l3-3h5c1 0 3 0 1 1a51 51 0 01-6 2h-3zm0 0h3l6-3a7 7 0 00-1 0h-5l-3 3z"/><path class="ar" d="M96 642l3-3h5s3 0-1 1a12 12 0 01-2 1l-2 1a3 3 0 01-1 0h-2z"/><path class="ak" d="M96 653l5 1c2 0 1 2-1 1h-2s-5-1-3-2h1zm0 0h-1c-2 1 5 1 5 2h2l-1-1-5-1z"/><path class="aq" d="M96 653l5 1c1 0 2 1-1 1l-2-1h-2c-2 0-1-1 0 0z"/><path class="ak" d="M72 668l5 1c1 0 1 2-1 1l-2-1s-5 0-4-1h2zm0 0h-1c-2 1 4 1 4 1a2 2 0 002 1v-1l-5-1z"/><path class="aq" d="M72 668l4 1c2 0 3 1 0 1l-2-1h-3c-2 0-1-2 1-1z"/><path class="an" d="M70 653a43 43 0 000 5c1 0 1-3 4-4 1-1-2-1-2-1h-2zm4 1zm-4-1h3c2 0 2 1 1 1l-3 5c-2 1-1-6-1-6z"/><path class="ao" d="M70 653v3c0 1 0 4 1 2l3-4s1-1-1-1h-3z"/><path class="an" d="M131 655l2-1 2 1a9 9 0 002 1c2 0 1 4 0 4s-1-3-4-4l-2-1zm0 0c-1 1 2 1 4 2l2 2v-3a9 9 0 01-2 0l-2-1h-2zm6 4"/><path class="ao" d="M131 655l2-1 2 1 2 1v3c0 2-2-2-2-2a10 10 0 00-4-2s-1 0 0 0z"/><path class="an" d="M132 653l5 2h1l-2-1c-1-2 0-3-3-1zm0 0a3 3 0 011-1c2 0 2-1 3 1l3 2h-2c-1 1-3-1-5-2z"/><path class="ao" d="M132 653l4 2h2c0 1 1-1-1-1-1 0-1-3-3-2l-2 1z"/><path class="ak" d="M108 640v3c0-1 0-2 2-3h-2zm0 3v-3l1-1c3 0 0 2 0 2l-1 2v-3z"/><path class="aq" d="M108 640v2c-1 3 1-1 1-1 1-1 2-2 0-2l-1 1z"/><path class="ak" d="M93 639v3s0-2 2-3h-2zm0 3v-3h1c3-1 0 1 0 1l-1 3v-4z"/><path class="aq" d="M93 639l-1 3c0 2 2-2 2-2 1-1 2-1 0-1h-1z"/><path class="an" d="M107 652s-2 2 1 3c2 1-1-4-1-4a3 3 0 000 1zm0-1l-1 1a1 1 0 011-1l2 3c0 1-1 2-2 1-3-1 0-2 0-3z"/><path class="ao" d="M107 652s-3 1 1 3l1-1-2-3v1z"/><path class="ak" d="M153 656l4-4c1-2 1-1 2 1l1 1c0 1-2 1-2 3-1 1-2 0-3-1h-2zm0 0h2l2 1 3-3-1-1c-1-2-1-2-2-1l-4 4z"/><path class="aq" d="M153 656l4-4c1-1 1 0 2 1l1 1c1 1-2 1-2 2h-3-2z"/><path class="ak" d="M135 669c3 1 1 5 3 2 1-1 4-1 3-2s-2 1-4-1c-1-1-2 1-2 1zm0 0s0-2 2-1l4 1c2 1-2 1-2 2-2 3-1 0-4-2z"/><path class="aq" d="M135 669c2 1 2 5 3 2 1-1 4-1 3-2l-4-1c-1-1-2 1-2 1z"/><path class="ak" d="M154 669h3c5 1 6 3 3 2l-3-1c-3 0-4 1-3-1zm0 0v1h5l2 1a18 18 0 00-4-2h-3z"/><path class="aq" d="M154 669h3s6 1 4 2a8 8 0 00-2 0l-5-1v-1z"/><path class="an" d="M193 669h3l2 1a10 10 0 002 0c2 0 0 4 0 4-2 0-1-2-4-3 0 0-4-1-3-2zm0 0l4 2 3 3v-3a8 8 0 01-2-1l-2-1h-3zm7 5"/><path class="ao" d="M193 669h3l2 1h2c2 0 0 3 0 3 0 2-2-1-3-2a10 10 0 00-3-1l-1-1z"/><path class="an" d="M218 653l-1 3-2 1c-1 0-9 0-7-2l7-2a7 7 0 013 0zm0 0h-1c-2-1-4 1-7 2-4 1 2 1 3 1h4l1-3z"/><path class="ao" d="M218 653c-1 1-2 1-1 3h-5c-1 0-6 0-2-1 1-1 5-3 7-2h1z"/><path class="an" d="M209 671c0-2 6-1 7-2 4 0 0 2-3 2h-5 1zm0 0c4 0 5 1 8-1a5 5 0 00-1 0l-7 1z"/><path class="aq" d="M209 671l6-1h2c-3 2-4 1-8 1-1 0 0 0 0 0z"/><path class="an" d="M212 641c1-2 6-1 7-1 4 0 0 3-2 3l-5-2zm0 0c5 1 5 2 8 0a4 4 0 00-1 0h-7z"/><path class="aq" d="M212 641h9c-4 3-5 1-9 0z"/><path class="an" d="M236 657h-7c-4 0 0-2 3-2l4 1v1zm0 0v-1c-4-1-5-2-8 1a4 4 0 001 0h7z"/><path class="aq" d="M236 657h-7-2c4-3 5-1 9-1v1z"/><path class="ak" d="M87 670c4 0 12 1 14-1 2-1-2-3-4-3h-4c-7 0-4 0-6 2v2zm0 0v-2c2-2-1-2 6-2h4c3 0 7 3 4 4s-10 0-14 0z"/><path class="ar" d="M87 670c7 1 19 1 14-3-3-2-4-1-8-1-7 0-4 0-6 2v2z"/><path class="as" d="M102 669l-1-2c-3-2-4-1-8-1-7 0-4 0-6 2h7c7 3 2-2 6 0a4 4 0 002 1z"/><path class="at" d="M187 655l3-1c1-1 3 0 4 1s2 1 1 1a39 39 0 01-5 0l-3-1zm0 0l3 1h5a5 5 0 00-1-1l-3-1-4 1z"/><path class="ar" d="M187 655l3-1c1-1 3 1 4 1 0 0 3 1 0 1a10 10 0 01-2 0h-2a2 2 0 01-1 0l-2-1z"/><path class="at" d="M190 650l-1 3h2v-3a2 2 0 00-1-1v1zm0 0c-1-2 1-1 1 1v2h-1-1l1-3z"/><path class="ar" d="M190 650l-1 3h3l-1-2v-1s-1-2-1 0z"/><path class="at" d="M188 642l3 1 4-2 1-1a40 40 0 00-5 0l-3 1v1zm0 0c0-2 2-2 3-2l5 1a7 7 0 01-1 0l-3 1h-4z"/><path class="ar" d="M188 642h3c1 1 3-1 4-1 0 0 3-1 0-1a12 12 0 00-2 0h-2a2 2 0 00-2 0l-1 2z"/><path class="an" d="M187 656a22 22 0 00-3-1l-4 1a6 6 0 003 1l4-1zm0 0l-4 1a6 6 0 01-3-1l3-1a9 9 0 014 1z"/><path class="ao" d="M187 656l-2-1a3 3 0 00-2 0 15 15 0 00-3 1l1 1a4 4 0 003 0l3-1z"/><path class="an" d="M196 666a26 26 0 00-2 2c1 1 2-1 5 1a2 2 0 000 1c1-1-2-4-3-4zm0 0c1-1 6 6 2 3-2-1-8-1-2-3z"/><path class="aq" d="M196 666l-3 2h3c2 0 4 3 3 1 0 0-2-4-3-3z"/><path class="at" d="M119 640c-7 0-10-1-11 6 0 3 0 9 4 8h9l4-1c7 1 10-2 9-9 0-3-3-3-7-3a31 31 0 00-8-1zm0 0l8 1c4 0 7-1 7 3 1 7-2 10-9 10h-13c-4 1-4-5-4-8 1-7 4-6 11-6z"/><path class="ar" d="M119 640l-8 1c-4 1-5 15 1 13 3-1 7 1 11-1 1 0 12 4 11-8 0-2 0-4-4-4l-11-1z"/><path class="as" d="M119 640a9 9 0 01-1 0c-3 5-4 2-3 0a12 12 0 00-4 1 3 3 0 00-1 1c-1 5 0 12 3 10 2-2 8 1 8-2 0-6 1-9 3-10a18 18 0 00-5 0zm15 9c-1 0-2-1-5 3-2 3-5 1-3-1 0-1 4-8 0-3-3 6-5 1-4-1l2-7 6 1c4 0 4 2 4 4a14 14 0 010 4z"/><path class="au" d="M112 641l3-1v2c0 1 0 2 2 1a5 5 0 002-1l-4 2-1-3a6 6 0 01-2 0zm3 0z"/><path class="at" d="M77 624c-7 0-10-1-11 6 0 3 0 9 4 7 4-1 6 1 9 1l4-1c7 1 9-2 9-9 0-4-4-3-7-4a31 31 0 00-8 0zm0 0h8c4 1 7 0 7 4 1 7-2 10-9 10H70c-5 1-5-5-4-8 1-7 4-6 11-6z"/><path class="ar" d="M77 624l-8 1c-4 1-5 15 1 13 3-2 6 1 10-1 2 0 13 4 12-8 0-2 0-4-4-4l-11-1z"/><path class="as" d="M77 624a9 9 0 01-2 0c-2 5-3 2-2 0a12 12 0 00-4 1 3 3 0 00-1 1c-1 4 0 12 2 9 3-2 9 2 9-1 0-6 1-9 2-10a18 18 0 00-5 0zm15 9c-1 0-2-1-5 3-2 3-5 1-4-1 1-1 4-8 1-3-4 6-5 1-4-1l2-7 6 1c4 0 4 2 4 4a14 14 0 010 4z"/><path class="au" d="M69 625l4-1v2c0 1 0 2 2 1a5 5 0 001-1l-3 2c-2 0-2-2-1-3a6 6 0 01-3 0zm3 0z"/><path class="at" d="M145 654c-7 0-9 0-9-6-1-4 0-5 4-7h9l7 7c1 2 0 5-3 6h-8zm0 0a41 41 0 006 0c5 0 7-4 5-6l-7-7h-9c-5 2-5 3-5 7 1 6 2 7 10 6z"/><path class="ar" d="M145 654c-5 0-6 1-8-1-1-1-3-9 0-10 5-3 4-2 11-2 3-1 5 5 8 7v4c-2 3-7 3-11 2z"/><path class="as" d="M136 651c-1-3-1-7 1-8 5-4 4-2 11-2a3 3 0 012 0c0 2 0 4 2 3h1a17 17 0 003 4c-4 7-6 2-9 3h-11zm5-8c-4 0-3 5-1 2h2l-1-2z"/><path class="au" d="M142 642c2-1 5-2 6-1l2 3 1 1c-1 0-3 0-3-2s-5-1-6-1z"/><path class="at" d="M224 684c-7 0-9 0-9-7-1-3 0-5 4-6h9c2 0 5 5 7 7 1 1 0 5-3 5l-8 1zm0 0a40 40 0 006 0c5-1 7-5 5-6-2-2-4-7-7-8l-9 1c-5 1-5 3-5 6 1 7 3 7 10 7z"/><path class="ar" d="M224 684c-4 0-6 0-8-2-1-1-3-8 0-10 5-3 4-1 11-2 3 0 5 6 8 8v3c-2 4-7 3-11 3z"/><path class="as" d="M215 680c-1-2-1-7 1-8 5-3 4-1 11-2a3 3 0 012 1c0 1 0 3 2 3h1a18 18 0 003 4c-4 7-6 1-9 3-3 1-4-2-8 0l-3-1zm5-7c-4 0-3 5-1 2l2-1-1-1z"/><path class="au" d="M221 671c2-1 5-2 6 0s0 2 2 3l1 1c-1 0-3-1-3-3s-5-1-6-1z"/><path class="at" d="M175 641c-6 1-15-2-16 6 0 4 1 7 5 7 5-1 20 2 23 0 1-1 6-13-3-13h-9zm0 0a80 80 0 0110 0c7 0 5 11 3 13-3 2-20 0-24 0-6 1-6-7-4-11 4-3 11-2 15-2z"/><path class="ar" d="M175 641s-10-1-13 1c-5 3-4 13 2 12 4-1 22 3 24-1 2-3 4-12-3-12h-10z"/><path class="as" d="M163 646c6-2 12 1 4 0 0 0-6 2-5 0h1zm12-5s-10-1-13 1a8 8 0 00-3 7 3 3 0 003 2h6c5 0 8-2 12-4 3-2 9 0 6 0-4 0-9 0-9 5h11c2-3 3-11-3-11h-10z"/><path class="au" d="M170 650l7-3c2-1 6-3 8-1a6 6 0 001 0h-1c-2-1-5 0-6 1-4 2-4 3-9 3z"/><path class="ak" d="M160 628l10-1c2-1 14-2 16 0v8c1 4-2 3-6 4l-13 1c-5-1-10 0-10-7 0-3-1-4 3-5zm0 0c-4 1-3 2-3 6 1 6 6 5 10 5l13-1c3 0 7 1 6-3l-1-7c-1-2-11-1-13-1l-12 1z"/><path class="aq" d="M160 628l8-1c3 0 16-2 17 0 2 2 0 6 1 8s0 3-2 3c-5 0-12 2-17 1-2 0-10 2-10-4v-3c0-3 0-3 3-4z"/><path class="am" d="M160 628l8-1c3 0 16-2 17 0 2 2 0 6 1 8a2 2 0 010 2 40 40 0 01-6 1 4 4 0 01-2 0h-1c-2-1-3-3-1-4l1-1h4l2-1h1l-1-1a7 7 0 01-3 1h-5l-3 2c-2 1-6 2-8 1l-7-1v-2c0-3 0-3 3-4z"/><path class="av" d="M157 631c2-3 5-2 8-3l8-2a17 17 0 018 2h1-16l-9 3z"/><path class="ak" d="M120 673c0 2 2 9-2 9-5 1-27 1-27-5l1-6h27a9 9 0 011 2zm0 0a5 5 0 00-1-2c-4 0-24-2-27 0-2 1-1 5-1 6 0 7 22 6 27 6 4-1 2-8 2-10z"/><path class="ar" d="M120 673c0 2 2 9-2 9-5 1-27 2-27-5s-1-7 13-7l15 1a6 6 0 011 2z"/><path class="as" d="M120 673v2a1 1 0 01-1 0c-4-1 0 5-6 1-6 2-6 0-11-2-2-1-5 6 1 3 2-1 1 1 4 1 2 0-1 2-4 2v3c-7-1-12-2-12-6 0-6-1-7 5-7 0 1 0 2 3 1a2 2 0 000-1h5l15 1a6 6 0 011 2zm0 5c0-1-2-2-3-1-2 2-4 1-4 1 1 6 1 4-2 5l7-1c2 0 2-2 2-4z"/><path class="au" d="M92 673c4-4 3-1 5-1l4-1a57 57 0 0111 1h-12a15 15 0 01-3 0c-3 0 0-2-5 1z"/><path class="an" d="M136 683c1-4 2-11-2-13-2-2-3 0-6 0-3-1-4-1-5 2-3 8 3 13 10 11zm0 0l-3 1c-8 2-14-4-11-12 1-3 3-3 6-2s5-2 7 1 2 8 1 12z"/><path class="ao" d="M136 683c1-4 2-16-6-13-3 1-7-4-8 5-1 8 7 11 14 8z"/><path class="ap" d="M136 674c0-3-2-6-6-4-3 1-6-3-8 3 2 0 3-2 3 4 0 4-2 0-3-1a7 7 0 001 5 4 4 0 005-2c1-3 7-1 8-5z"/><path class="aw" d="M127 679a10 10 0 015-3l3-2a1 1 0 010 1l-4 3-4 1z"/><path class="an" d="M166 682c0-2 3-10-1-10l-14-1h-8c-3 0-4 0-4 5v6h7c4 1 7 1 11-1 0 0 8 2 9 1zm0 0h-9l-11 1-7-1-1-8c1-4 3-3 5-3h8l14 1c4 0 1 8 1 10z"/><path class="ao" d="M166 682c0-3 3-10-1-10l-14-1h-8c-2 0-4-1-5 5 0 5-1 7 5 6 3 0 11 2 14 0h9z"/><path class="ap" d="M167 677c0-2 0-5-2-5-5 0-10-2-14-1h-8c-2 0-4-1-5 5v3l3 1c4-3 12 0 13-1 1-2 2-1 0-3-3-2-2 0-4-3-2-4 8 5 10 4 3-3 5 0 7 0z"/><path class="aw" d="M155 673l4 3c1 0 5-2 5 0-2-1-3 1-5 1l-4-4z"/><path class="an" d="M201 675c0 1 0 7 2 7 0 0 8 3 9 0 1-1 2-8 0-10-1 0-13-3-11 3zm0 0c-3-5 8-4 11-3s2 9 1 10c-1 3-8 1-10 1-3-1-2-7-2-8z"/><path class="ao" d="M201 675v5c1 1 0 2 2 2 3 1 5 2 9 1l1-6c1-1 1-4-2-5-7-2-11-1-10 3z"/><path class="ap" d="M212 681l1-3c0-2 0-5-2-6-7-1-10-1-10 2l1 4c-1 3 6 4 7 2 0 0 2-2 1 0 0 2 1 2 2 1z"/><path class="aw" d="M204 673c-1-1 3-1 4-1a8 8 0 014 2h-3l-5-1z"/><path class="ak" d="M218 657c1 3 1 10-2 11l-7 1h-7c-2 0-3-1-5-3-6-6-2-10 5-9l12 1a12 12 0 004-1zm0 0a15 15 0 01-3 1l-13-1c-7-1-11 4-5 9 2 2 3 3 5 3h7l7-1c4-1 3-8 2-11z"/><path class="aq" d="M218 657c1 2 1 10-2 11-2 0-2 2-9 1s-5 2-10-3c-4-4-4-8 2-9 4-1 8 1 14 1l5-1z"/><path class="am" d="M218 657v9l-1-1h-6c-3 1-6-1-9 2-4 4-6-7-5-8 4-3 4-2 6-2l11 1 4-1z"/><path class="av" d="M197 659c3-3 3 0 5-1h3a46 46 0 019 1h-13c-2 0 0-2-4 0z"/><path class="an" d="M132 626l-6 1c-2-1-7-1-8 1l-2 3c-1 2 0 6 1 7 5 2 8 1 13 0a69 69 0 0111 1l7-1v-11c-1-2-6-1-8-1a52 52 0 00-8 0zm0 0a41 41 0 018-1c2 0 7 0 8 2l1 11c-1 2-7 1-8 1a74 74 0 00-11 0c-5 0-8 2-13-1-2-1-2-6-1-8l1-3c2-2 7-1 9-1h6z"/><path class="ao" d="M132 626l-4 1-4-1c-3 0-7-1-7 3 0 2-2 1-1 5 0 4 0 4 3 5h22a23 23 0 006 0c2-1 1-3 1-5v-3c0-5 0-5-6-5h-10z"/><path class="ap" d="M126 627a13 13 0 00-2-1c-3 0-7-1-7 3 0 2 2 5 3 5h9l3-3h5c3 1 8-2 11-2 0-3-1-3-6-3h-6c-3 2-4 3-10 1zm19 12a6 6 0 01-2-1c-6-3-9-1-15 0-2 0-9-1-9-3 4-1 4 2 10 1 5-1 0-3 10-3 2 0 6-2 9-1v2c0 2 1 4-1 5z"/><path class="aw" d="M147 629c0-2-1-3-4-2l-7 1a17 17 0 01-6 0l5-1 7-1c3 0 6-1 5 3z"/><path class="an" d="M76 652c3-2 2-1 6-1 2 0 7 1 8-1l1-3c1-1 1-6-1-7-5-3-8-1-13-1a69 69 0 01-10 0c-2 0-7-1-8 1l1 10c1 2 6 2 7 2a52 52 0 009 0zm0 0a41 41 0 01-9 0c-2 0-6 1-7-1l-1-11c0-2 6-2 8-1a74 74 0 0011 0c5 0 7-2 12 1 2 1 2 6 1 7l-1 3c-1 3-6 2-8 1l-6 1z"/><path class="ao" d="M76 652l4-1h4c3 0 6 1 7-2l1-5c-1-4-1-4-3-5-5-2-7 0-11 0H67a22 22 0 00-6 0c-3 0-1 3-2 5l1 2c0 6 0 6 5 6h11z"/><path class="ap" d="M82 651a16 16 0 002 0c3 0 6 1 7-2v-1l-3-4H78s0 2-2 3h-6c-2-2-7 1-10 1 0 4 0 4 5 4h6c3-2 4-3 10-1h1zm-20-12a6 6 0 012 0c6 4 10 2 16 1 1 0 9 1 8 3-3 1-3-2-9-1-5 1-1 3-11 3-1 0-6 2-8 1l-1-2c0-2-1-5 2-5h1z"/><path class="aw" d="M61 649c0 2 0 3 3 2l8-1a17 17 0 016 0l-6 1-6 1c-2 0-7 1-5-3z"/><path class="ak" d="M122 654c-4 2-5 1-10 1s-6 2-6 7c-1 3 0 7 4 7h3c4 1 6 2 10-1 3-1 11 1 12-1 4-12-5-11-12-13a2 2 0 00-1 0zm0 0a1 1 0 011 0c8 2 16 1 12 13-1 2-9 0-12 2-4 2-6 2-10 1l-3-1c-4 1-5-3-4-7 0-5 1-7 6-7l10-1z"/><path class="aq" d="M122 654c-8 3-13-2-15 4-2 5-3 12 4 11 1 0 7 3 12 0 2-2 11 0 12-2 4-12-5-11-12-12a4 4 0 00-1-1z"/><path class="am" d="M122 655h-2a28 28 0 01-3 8l-3 3 2-4a19 19 0 003-7c-6 1-11-2-12 4-4 11 4 13 11 5 2-3 3-7 5-3l3 7h3c-2-1 1-8-1-11-1-2-5 0-6-2zm-4 15c1-3 4-7 5-1a9 9 0 01-5 1zm15-13c4 4 1 10-1 8-4-4-3-8-1-9a10 10 0 012 1z"/><path class="av" d="M108 657c-2-2 4-1 5-1a22 22 0 003-1h5-1l-4 1h-7l-1 1z"/><path class="aq" d="M106 668l9-9c2-1 1-2 2-4a6 6 0 01-2 4l-1 3c-2 3 1 3-1 7v-6c-2 2 0 3-1 6 1-3-1-4 1-6 0-2 2-4 2-3-5 3-5 4-9 8zm11-13z"/><path class="ak" d="M199 677v6c-3 2-13 0-17 1-3 0-11 3-11-3 0-4-1-3 4-5l9-5c3-1 12-1 14 2a5 5 0 011 4zm0 0l-1-4c-3-3-13-3-16-2l-11 7v4c1 5 8 3 11 2 4 0 14 1 17-1 2-1 0-5 0-6z"/><path class="aq" d="M199 677v6l-11 1-9 1c-3 0-8 0-8-4 0-3-2-3 3-5l10-5c4 0 15-1 15 6z"/><path class="am" d="M171 678a14 14 0 013-2l10-5c4 0 13-1 15 3 0 3 1 4-7 6-5 1-4-1-9-1-1 1-11 0-11-1h-1z"/><path class="av" d="M177 675c3-3 14-6 18-3v1c-5-3-14 1-18 2z"/><path class="ak" d="M179 673l4 6c3 1 4 8 2 2l-4-4c-2-3-1-3-2 2-2 4 1-4 0-4v-2zM188 639v-9c0-5 4-3 8-3 3 0 18-2 19 0l1 7c0 2 0 6-3 6h-13c-1 0-12 1-12-1zm0 0h12l14 1c2 0 2-4 1-6l-1-7h-16c-7 0-10-2-10 6v6z"/><path class="aq" d="M188 639v-9c1-4 3-3 7-3h20l1 7c0 2 0 6-2 6a176 176 0 00-18 0l-8-1z"/><path class="am" d="M194 627h21a8 8 0 010 2l-2 2c2 3 3 3 1 5-1 4-4 2-4 1-1-4-4-1-7 1h-12c-3-1-3-2-3-5 0-4 2-4 2-5l4-1zm0 4a8 8 0 012-1c2 0 1-1 1-1a1 1 0 01-2 0c0-1-6 3-1 2zm15 5c-1 0-4 0-3 2 0 0 2 1 3-1v-1z"/><path class="av" d="M200 628h12l-1 1-11-1z"/><path class="aq" d="M188 635a6 6 0 001-1c2-2 5-2 6-2h-1l-4 1-2 3v-1z"/><path class="ak" d="M62 683v-9c1-5 4-3 8-3 3 0 18-2 19 0l1 7c0 2 1 6-2 6H74l-12-1zm0 0h26c2 0 2-3 1-5l-1-7H72c-7 0-10-2-10 6v6z"/><path class="aq" d="M62 683v-9c1-4 3-3 7-3l12-1 8 1 1 7c0 1 0 6-2 6a175 175 0 00-18 0l-8-1z"/><path class="am" d="M68 671h1l12-1 8 1a8 8 0 010 2l-2 2c2 3 3 2 1 5-1 4-4 2-4 1-1-5-4-1-6 1H65c-3-1-3-2-3-5 0-4 2-4 2-5l4-1zm0 4a8 8 0 012-1c2 0 1-1 1-1a1 1 0 01-1 0c-1-1-7 3-2 2zm15 5c-1 0-4 0-3 2 0 0 2 1 3-1v-1z"/><path class="av" d="M75 672c-1-2 10 0 11 0H75z"/><path class="aq" d="M62 679a6 6 0 002-1c1-2 4-2 5-2h-1l-4 1-2 3v-1zM179 673l4 6c3 1 4 8 2 2l-4-4c-2-3-1-3-2 2-2 4 1-4 0-4v-2z"/><path class="h" d="M981 713c0 4 3 9 7 10-1 3-2 7-1 10s4 7 8 7c-3 6 2 14 8 16 1 3 1 6 3 8s6 4 9 2a10 10 0 0012 7l4 7c2 2 6 1 7-1a7 7 0 007 7 22 22 0 014-1l11 5c5 0 5-4 10-6 4-1 7 2 11 2s8-1 7-5c3 2 7 4 11 4s8-4 7-8c3 3 10 0 10-5a9 9 0 0014-10 7 7 0 108-12 7 7 0 007-12c3-1 5-2 6-4s1-6-2-6c8-2 12-12 8-19a8 8 0 103-15 9 9 0 00-4-17c2-4-2-11-7-10a7 7 0 00-6-12c4-5 0-14-7-14 1-3-1-7-4-8l-9-1c-1-4-1-7-4-10s-7-2-9 1c-2-7-12-11-18-7-2-6-12-6-15 0-6-7-19-6-24 2-5-6-15-3-17 4-6-4-16 0-18 8-5-3-13 2-13 8a13 13 0 00-8 15c-3 2-4 7-5 11a4 4 0 01-2 4c-2 1-5 3-6 9l2 10c0 1-9 5-2 14l-3 12z"/><path class="f" d="M1143 646c-1-3-4-5-7-5 1-3-1-7-4-8l-9-1-4-10c-2-3-7-2-9 1-2-7-12-11-18-7-3-6-13-6-15 0-6-7-19-6-24 2-5-6-15-3-17 4-6-4-16 0-18 8-5-3-13 2-13 8a13 13 0 00-8 15c-3 2-4 7-5 11a4 4 0 01-2 4c-2 1-5 3-6 9l2 10c0 1-9 5-2 14l-3 12c0 4 3 9 7 10-1 3-2 7-1 10s4 7 8 6c-3 7 2 15 8 16 1 4 1 7 3 9s6 4 9 2a10 10 0 0012 7l4 7c2 2 6 1 7-1a7 7 0 007 7 22 22 0 014-1l11 5c5 0 5-4 10-6 4-1 7 1 11 2s8-1 7-5c3 2 7 4 11 4a22 22 0 001-4 4 4 0 000-3l-4-2-6-6c-4-2-8-1-12-1s-9-3-8-7c1-5 9-3 13-6a4 4 0 00-4-3c1-3 4-5 7-6s6-4 4-6c-2-3-7-1-9-3s0-6 3-7h9c3 0 6-3 5-6-1-4-9-3-10-8 0-2 2-4 1-6s-4-2-6-1l-6 4a7 7 0 01-5-12l8-1c3-1 5-3 3-6l-6-2a26 26 0 0114-12c-3-1-3-6 0-8s6-3 9-3c8-1 22-2 28-7-7-8 6-14 14-17z"/><path class="g" d="M1024 743c-3-1-4-4-6-6l-9-15c-1-2-1-7 2-6-2-3-3-9 0-9a15 15 0 01-10-11c-1-3-1-6 1-9l3-2a8 8 0 002-8l4-3-1-4a4 4 0 000-6l2-4c2-7 11-10 17-7 3-3-1-9 2-13 2-2 7 0 10 0 4 0 7-3 11-4 5-1 10 0 15 2 4 2 9 4 11 8s2 10-2 13c-2 2-5 2-8 3l-16 1a10 10 0 00-5 1 6 6 0 00-2 7 8 8 0 007 5c-1 3-4 5-7 6l-10 2c-3 2-5 5-3 8a8 8 0 016 2 22 22 0 00-6 11 102 102 0 0020 12l-5 4c-2 1-4 2-4 5s2 4 3 2l-1 8c-1 3-3 4-5 6-5 3-11 5-16 1z"/><path class="g" d="M1121 643l-2-1-4-3-5-2c-1 0-4-2-4-4l1-4a3 3 0 00-2-1 14 14 0 00-10 0h-4l-1-3c-1-2-3-4-5-4a18 18 0 00-7 0c-4 1-10 1-11 5a1 1 0 001 2h1a5 5 0 012 1c3 1 6 3 6 6a7 7 0 001 2c0 1 2 2 3 1h4c3 1 3 5 2 8s-4 5-4 7a25 25 0 006 3l-3 3c-1 1-2 3-1 5s5 1 7-1 3-4 6-4a10 10 0 013 2 14 14 0 007 1 4 4 0 003-1c2-3-1-8 2-9h5a5 5 0 003-9zM1051 706c-2 1-2 4-1 5a8 8 0 002 1c3 1 5 4 7 7v4l-3 1a5 5 0 00-2 8 27 27 0 012 2v6l-4 7a11 11 0 01-2 4c-2 2-4 2-6 2-4 1-9 2-13 1a26 26 0 00-5-2c-2 0-4 1-4 3-1 2 1 4 3 4l7 1a4 4 0 012 0l1 6a7 7 0 0013 4 22 22 0 005 7c2 1 5 2 7 1s4-4 3-6l-4-4a7 7 0 013-12c2 0 4 0 5-2a4 4 0 000-2 17 17 0 00-2-7c3-1 7-3 9-7s0-8-4-8l-4-1v-3l2-4c0-3-5-5-7-9v-5c-2-4-7-4-10-2zM991 712a3 3 0 000 2l3 1c1 0 3 2 3 4a31 31 0 010 7 16 16 0 001 8c1 2 3 4 6 4l1 5a7 7 0 002 4 3 3 0 004-1c1-1 0-3-1-5l-3-4v-6l-3-7c-1-2-2-6 0-8a4 4 0 001-1 3 3 0 00-1-2c-2-6-11-9-13-1zM1008 642a6 6 0 004 2l-1 2-3 1a6 6 0 00-3 4l-2 5a4 4 0 000 3h4a7 7 0 002-4 8 8 0 011-4c3-4 9-1 12-4v-6c0-2 2-4 4-3s5-1 7-3c1-1 3-3 2-4a3 3 0 00-1-2c-2-1-5 0-8 2s-4 3-7 4c-5 0-10 1-11 7z"/></g></svg>