<svg xmlns="http://www.w3.org/2000/svg" viewBox="0 0 1501 1001"><defs><radialGradient id="b" cx="1012.4" cy="1639.5" r="51.8" gradientTransform="matrix(0 1 1 0 -562 -709)" gradientUnits="userSpaceOnUse"><stop offset="0" stop-color="#c0a373"/><stop offset="1" stop-color="#fff" stop-opacity="0"/></radialGradient><linearGradient id="a" x1="357.9" y1="1225.9" x2="357.9" y2="1131.2" gradientTransform="matrix(1 0 0 -1 -146 1444)" gradientUnits="userSpaceOnUse"><stop offset="0" stop-color="#a0edf0"/><stop offset="1" stop-color="#45dbe2"/></linearGradient><style>.e{isolation:isolate}.b{fill:#70b344;stroke:#5f732e}.aj,.ak,.an,.ao,.aq,.b,.x{stroke-miterlimit:10}.d{fill:#ddc02c}.e{opacity:.25}.aa,.f{fill:#7ebb15}.g{fill:#94d31a}.h{fill:#78a015}.i{fill:#897d6f}.j{fill:#635a52}.l{fill:#91887b}.p{fill:#8ab550}.q{fill:#97c261}.r{fill:#a9d171}.s{fill:#b3db7b}.t{fill:#dcf5f5}.u{fill:#f2ffff}.v{fill:#fff}.w{fill:#fddfb3}.x{fill:#1d150c}.aj,.ak,.an,.ao,.aq,.x{stroke:#1d150c}.y{fill:#81a653}.ad{mix-blend-mode:multiply}.aa{mix-blend-mode:screen}.ab{fill:#bdbdbd}.ac{fill:#d9d9d9}.ad{fill:#cfcfcf}.ae{fill:#cbcbcb}.ag{fill:#c6c6c6}.ah{fill:#e8e8e8}.aj,.ak{fill:#3f2b0f}.ak{stroke-width:1.14px}.an,.ao{fill:#571c10}.an,.ao,.aq,.ar,.as,.at,.au,.av,.aw,.ax,.ay,.az,.ba,.bb,.bc,.bd,.be{fill-rule:evenodd}.ao{stroke-width:1.04px}.aq{fill:#c0a373}.ar{fill:#5c4328}.as{fill:#544730}.at{fill:#877657}.au{fill:#ae9c87}.av{fill:#68543c}.aw{fill:#9d8264}.ax{fill:#b49871}.ay{fill:#8f7e5f}.az{fill:#857c68}.ba{fill:#a59b84}.bb{fill:#67604f}.bc{fill:#bdb29a}.bd{fill:#c1b09a}.be{fill:#cdb186}</style></defs><g style="isolation:isolate"><path class="b" d="M1001 501h250v250h-250zM1251 251h250v250h-250zM1001 251h250v250h-250zM1001 1h250v250h-250zM1251 1h250v250h-250zM751 251h250v250H751zM751 1h250v250H751zM751 501h250v250H751zM501 251h250v250H501zM251 251h250v250H251zM501 501h250v250H501zM251 501h250v250H251zM751 751h250v250H751zM251 751h250v250H251zM1001 751h250v250h-250zM501 1h250v250H501zM1251 501h250v250h-250zM1251 751h250v250h-250zM501 751h250v250H501zM251 1h250v250H251zM1 1h250v250H1zM1 751h250v250H1zM1 251h250v250H1zM1 501h250v250H1z"/><path d="M765 369c2-4 10-3 20-3l29-1c11 1 11 2 23 2h43c7 0 15 2 21 0h8c3 1 2 6 2 7 0 15 3 30 2 45-1 9-3 32-1 53 2 11-1 22 1 32 0 1 1 4-1 6-3 4-11 2-15 1-7-2-19-2-42-1-19 0-18 2-30 1-15-1-16-4-26-4-16 1-24 9-29 5-3-3-3-7-3-12l1-43v-39c1-13 2-24 0-32l-3-13v-4z" fill="#ffe161"/><path class="d" d="M839 511a2 2 0 01-2-1v-1-2l-1-4a3 3 0 010-1v-5l1 1a7 7 0 00-1-2 2 2 0 002 1 2 2 0 001-1h-3a3 3 0 010-1v-2-1a2 2 0 011-1v-3a33 33 0 00-1-3l-1-1h1a2 2 0 011-1l-1-4v-3a3 3 0 011-3 41 41 0 01-2-7l-1-4-1-6 4 4-1-2v-2a5 5 0 010-1v-5l-1-1 1-2h1l-1-1v-2-2-6a1 1 0 01-1-1 2 2 0 011-1v-3h-1a1 1 0 011-2l-1-2v-1-1a1 1 0 011-1v-3a2 2 0 01-1-1 10 10 0 00-1-5l2-1a2 2 0 00-1 0l1-1c-2-2-2-4 0-5v-4a25 25 0 01-1-3v-1-3l-1-3a3 3 0 011-2v-1l-6 3 5-5v-4 1-3a20 20 0 011-4h-1v-1a29 29 0 000-5 56 56 0 010-5 17 17 0 00-1-4l4-1a19 19 0 011 5v5a28 28 0 010 4 1 1 0 010 1 14 14 0 000 4v1a14 14 0 000 2 7 7 0 010 4 14 14 0 011 3v4h-1v3h1v1l1 4 1 3-2-1a6 6 0 000 1h1v1a2 2 0 01-2 2 10 10 0 002 4h-1v5a30 30 0 010 6 14 14 0 000 2 30 30 0 011 5v1l1 4h-2l1 6a3 3 0 010 1 2 2 0 010 1l-1 5v5l1 1v6l-1 2v1a58 58 0 001 6 2 2 0 011 2l1 4-2-1a2 2 0 01-1 0l1 3v8l1 4h-1a5 5 0 011 1 2 2 0 01-1 2v1l1 4a17 17 0 010 5h-1v3l1 1v2a2 2 0 01-2 1zm0-36h-1a2 2 0 001 0zm-3 0h1a2 2 0 00-1 0zm3-75zm-5-17z"/><path class="d" d="M827 512a21 21 0 010-2 2 2 0 011-2l-1-1v-12a12 12 0 01-1-4l1-2-1-1v-2-3a2 2 0 01-1-2 2 2 0 012-1l-1-6-1-2h1a8 8 0 010-2 3 3 0 010-1 7 7 0 010-1 1 1 0 010-1v-5-1a2 2 0 010-2l-1-6h1a4 4 0 011-2l-1-3-1-1 1-3h1v-1c-3-5-2-8-2-10v-4l-1-5v-4-1a7 7 0 010-1v-8a2 2 0 011-1v-1a16 16 0 000-3l-1-1a11 11 0 01-1-5v-1a2 2 0 011-1v-1a1 1 0 010-1l-1-2a8 8 0 011-3 2 2 0 011-2l-2-9v-1a2 2 0 012-1l-1-6h-1v-3l3-2 1 2 2 12-1 7 1 2 4 8-5-5-1-1a31 31 0 000 4v3a4 4 0 010 1 11 11 0 001 4v7a6 6 0 011 1v8l-1-3v1a4 4 0 010 2v7l1 1a2 2 0 000 1h1v1a1 1 0 01-1 1v3c0 1 0 0 0 0v3a18 18 0 001 5l1 11v-1a7 7 0 010 2l-1 3v6l-1 7h1a6 6 0 00-1 3 2 2 0 010 1l1 7 1 2v2a2 2 0 01-1 0v2a22 22 0 010 5l1 6 5 7-6-4 2 5-1 1 1 5h-2v1zm-1-59h1a2 2 0 00-1 0zm2-1zm-4-33h1a2 2 0 00-1 0zM819 510a2 2 0 01-1 0h-1l-1-1a1 1 0 011-2l-1-3a3 3 0 011-2l-2-7h1a1 1 0 010-1l-1-3v-1-1a1 1 0 010-1 15 15 0 011-5 30 30 0 000-4v-1a1 1 0 010-1v-4h-1l1-2a31 31 0 000-6l-1-1a2 2 0 010-1v-1-1l-1-5h1v-5a16 16 0 00-1-7h1v-1a12 12 0 010-2v-3a2 2 0 011 0 11 11 0 00-1-5 2 2 0 01-1-1 17 17 0 010-2 2 2 0 010-2h1l-1-2a2 2 0 011-1l-1-3a5 5 0 011-3l-1-1-1-3a4 4 0 011-1 6 6 0 000-3 3 3 0 010-3 7 7 0 000-4 5 5 0 010-2 12 12 0 000-2h1v-4-1a35 35 0 00-3-10l-5-8 1-1 5 5a1 1 0 01-1 0 2 2 0 011-2v-1a27 27 0 010-7v-9h1l1 2 3 1v4l-1 2a24 24 0 000 7 4 4 0 011 1 12 12 0 011 4v9l-1-1a68 68 0 011 5l2 3v1h-1l-2-1h1a5 5 0 010 2h-1a2 2 0 010 1 3 3 0 000 1 9 9 0 010 6 3 3 0 00-1 1h1a8 8 0 01-1 4 2 2 0 000 1l1 1a23 23 0 010 3l2 7-1-1v3h-1v3a13 13 0 011 8 18 18 0 000 2 15 15 0 001 3v1h-2a18 18 0 010 3v1a2 2 0 011 1v2a44 44 0 01-1 7v1a3 3 0 011 2 3 3 0 010 1 36 36 0 011 3v11a1 1 0 010 1 31 31 0 010 4 3 3 0 010 1l1 1h-1a4 4 0 01-1 1v6l1 5-1 1 2 6h-1v1l1 4v2h-1zm-6-130h0zm3-14v1a2 2 0 001-1z"/><path class="d" d="M808 509a3 3 0 01-3-1v-1h2a3 3 0 010-1v-1a15 15 0 010-3 22 22 0 01-2-5v-4a2 2 0 011-1v-1a12 12 0 010-5l-1-3v-1a1 1 0 011-1l-1-3a3 3 0 011-1v-1a21 21 0 01-1-4l-1-2-1-4h1v-1l-1-1h3l-1-4a2 2 0 010-1v-3-1a5 5 0 011-2v-6-2l-1 1-1-6a4 4 0 01-1-2v-5-1l2 2v1-1h1l-1-2-1-4h1l-1-4v-6a5 5 0 01-1-2l-1-1h1l-1-3h1a8 8 0 000-3l2-1h-1-1v-1-1a2 2 0 010-1v-2-1a1 1 0 010-1v-1-3a2 2 0 011-2v-1-1a26 26 0 000-6l-1-2a2 2 0 011-2 7 7 0 010-2 4 4 0 000-2l-1-3a2 2 0 011 0 17 17 0 01-1-4v-2a3 3 0 01-1-1 16 16 0 01-1-2l-1-3 1-1 4 3h2a13 13 0 010 2 4 4 0 01-1 1l1 2 1 4v1a2 2 0 01-1 1v1a6 6 0 011 4 3 3 0 000 2v1h-1l1 1a27 27 0 010 6v4h-1a2 2 0 010 1v2a30 30 0 010 4v2l1 2-1 1v8l1 1v5h-1l1 2a23 23 0 010 5v1a31 31 0 002 5l1 1-3 1v1a40 40 0 012 9v1l1 4h-1a9 9 0 010 1v1h-1a6 6 0 001 3v1h-1a2 2 0 010 1v1a36 36 0 001 5l2 7-3-3v4a14 14 0 001 4l-1 1v3a16 16 0 011 4v1h-1a12 12 0 001 6v1a2 2 0 01-1 2 20 20 0 002 5 4 4 0 010 2 40 40 0 001 5h-1l-1 1a3 3 0 01-2 1zm0-6a2 2 0 001 0 2 2 0 001-1zm-2-49a2 2 0 001 0 2 2 0 002 0zm0-59a2 2 0 011 0zM797 507h-3a3 3 0 012-3 16 16 0 010-2 6 6 0 00-1-3l3-1a2 2 0 00-1-1 2 2 0 00-2 1 4 4 0 000-1h-1v-2l2-6a14 14 0 01-1-2v-1-3a34 34 0 01-1-6h1a5 5 0 00-1-1 2 2 0 002 0 2 2 0 002-1h-4a11 11 0 000-3l1-2a16 16 0 00-1-4 2 2 0 010-2v-1a12 12 0 01-1-3l2-1a21 21 0 00-1-5 2 2 0 010-1h-1v-2-1a1 1 0 010-2v-4l1 1a6 6 0 010-2 2 2 0 000-1 1 1 0 010-1v-6a4 4 0 010-3 16 16 0 00-1-6 22 22 0 01-1-3h2a10 10 0 010-2 21 21 0 00-1-6h-1v-2l1-1a5 5 0 010-3 14 14 0 010-2 13 13 0 010-4 3 3 0 011-2 20 20 0 000-5 1 1 0 01-1-1l-2-5 2 2a10 10 0 010-4l1-2-1-2a7 7 0 010-2 4 4 0 010-2 33 33 0 010-5v-1l-1-3a49 49 0 010-6h1a6 6 0 000-1l3-1v8l1 3v4-1 8l1 4-1 1v5a11 11 0 011 3l-1 4v2a2 2 0 010 1 17 17 0 000 3 4 4 0 011 1v1a2 2 0 01-2 1v1a3 3 0 011 2v1a23 23 0 011 6v1c0 1 1 4-1 5a32 32 0 010 7 3 3 0 001 1v1l-1 4a4 4 0 011 4 5 5 0 00-1 3 4 4 0 010 4v1a20 20 0 012 6v4a3 3 0 01-1 1 3 3 0 01-1 2 16 16 0 012 4v4l-1 1a11 11 0 010 1 5 5 0 010 1 13 13 0 011 2 2 2 0 01-1 1l1 5v2a9 9 0 001 3l2 6-4-3v3a2 2 0 011 0v4a8 8 0 010 3 13 13 0 000 3l2 7zm-2-67a2 2 0 00-1 0h2a3 3 0 00-1 0zm0-75a2 2 0 00-1 0zM789 505v1a3 3 0 01-1 0v6a3 3 0 01-2 0 2 2 0 01-2-1v-1h1a9 9 0 00-1-4l-4-10 4 5h1a2 2 0 010-1l1-1-1-2a14 14 0 00-2-4 1 1 0 010-1h2v-1a2 2 0 00-2 1v-1a7 7 0 011-2h-1l-3 1h-1v-1l6-4a10 10 0 001-3 37 37 0 00-1-5 2 2 0 01-1 0 13 13 0 010-2h1a5 5 0 000-1 4 4 0 010-1 11 11 0 000-3l-1-3v-2c-1-3 0-5 1-6l-1-3v-2a6 6 0 010-2v-2-2a1 1 0 01-1-1 4 4 0 011-3 2 2 0 010-2 2 2 0 010-1l-1-2v-3h1l-1-4a2 2 0 010-2v-2a3 3 0 010-2 2 2 0 011-2v-2l-1-5 1-1-1-3a1 1 0 010-1v-1l-1-4h1l1-1h-1a2 2 0 000 1 3 3 0 010-2 6 6 0 011-3 15 15 0 00-1-4l-3-2h3a40 40 0 00-1-6 1 1 0 010-2v-1h1l-1-6a1 1 0 010-2 5 5 0 011-3 2 2 0 000-2 4 4 0 01-1-2v-3-1a2 2 0 001 0 2 2 0 002-1h-3-1a2 2 0 012-1 2 2 0 012 1l1 2v2l1 2a4 4 0 01-1 4l1 4h-1-1l2 5-1 5v7a15 15 0 011 2v4a4 4 0 000 1v1h-2 1v1a1 1 0 000-1v4a34 34 0 011 5v5l1-1v5a1 1 0 01-1 2l2 8-1-1h-1v6a50 50 0 002 5l-2 1v4l1 3a2 2 0 010 1v7a1 1 0 01-1 1 7 7 0 000 3 26 26 0 011 3v2a13 13 0 010 4 16 16 0 010 2 4 4 0 010 2l1 3v4a9 9 0 01-1 2 11 11 0 010 3l-1 3a16 16 0 011 4 23 23 0 002 5l3 9v1l-4-6zm-3 5a2 2 0 00-1 0h2a2 2 0 00-1 0zm-1-36a2 2 0 002 0 2 2 0 001 0z"/><path class="d" d="M778 505a2 2 0 01-2-2l-1-2 1-1-1-4-1-2a3 3 0 010-1l1-1h-1v-2a3 3 0 011 0v-1a13 13 0 00-2-5l3-2a2 2 0 00-1 0 2 2 0 00-1 1 6 6 0 001-1 5 5 0 010-1l-1-3a11 11 0 000-3 12 12 0 010-2l1-1v-2a3 3 0 010-1l-1-2-1-5v-1l1-1a1 1 0 00-1 0 2 2 0 001 0l-1-3-1-4v-1l-2-5h1l2 2h1l-1-6-1-3v-1l-2-2h3a2 2 0 011-1 3 3 0 010-1 4 4 0 010-1v-4l-1-4v-2a2 2 0 010-1v-4a14 14 0 010-3 17 17 0 00-1-5l-3-8 3 3h1a5 5 0 010-1 24 24 0 00-1-4 3 3 0 01-1-1v-3-1l2 1v-1a20 20 0 00-2-7l1-1h1v-2h-1a31 31 0 010-4v-4-2a6 6 0 010-3v-1a8 8 0 010-3 5 5 0 000-2c-1-3-1-5 1-5a2 2 0 013 1v2a1 1 0 010 1 2 2 0 010 1 9 9 0 010 1 6 6 0 000 5l4 6-3-2h-1a11 11 0 010 2v6l1 2v3a2 2 0 01-1 1v1a20 20 0 011 3 9 9 0 000 3v1h-1a7 7 0 010 1 17 17 0 011 3v4a2 2 0 01-1 1h1a6 6 0 000 2 3 3 0 01-1 1v1a18 18 0 011 4 9 9 0 001 4l-2 1a18 18 0 001 3 66 66 0 002 7l2 5-3-2 1 1h-1v1a5 5 0 01-1 0 4 4 0 010 4 8 8 0 010 2 2 2 0 010 1v1a59 59 0 001 7 1 1 0 010 1l-1 1a3 3 0 010 1v5l1 3h-1l1 5v1h1v3l-1 3a12 12 0 010 4 12 12 0 001 2v2h-1a7 7 0 01-1 2 15 15 0 012 4v3a7 7 0 01-1 2v2l1 4 1 2a1 1 0 010 1v1a2 2 0 01-2 2zm-3-13zm1-13h1zm-1 0h-1 1zm1-7h1-1zm0-4h2a3 3 0 00-1 0 3 3 0 00-1 0zm-1-43a2 2 0 001-1zm0-19a2 2 0 00-1 1 2 2 0 001 0 2 2 0 001-1 2 2 0 00-1 0zm-2-40a2 2 0 00-1 1l1-1zm2-2v1-1zM901 514v-3a2 2 0 011-2v-1-3c-1-4-2-6-1-8a12 12 0 010-4v-2a1 1 0 010-1v-3-3a2 2 0 01-1-2 2 2 0 011-1l-1-6v-1a8 8 0 011-3 3 3 0 01-1-1 7 7 0 010-1 1 1 0 010-1l1-4-1-2a2 2 0 010-1v-7h1a4 4 0 010-2v-3a3 3 0 01-1 0v-1l1-2a2 2 0 011-1v-1c-3-4-3-8-2-10v-4l-1-5v-4a7 7 0 010-1v-8a2 2 0 010-1 2 2 0 010-1v-1a17 17 0 000-3 11 11 0 01-1-5 4 4 0 010-1v-3-3a8 8 0 010-3 2 2 0 011-2l-1-8v-2a2 2 0 011-1l-1-6a2 2 0 000-1v-2l3-2v3c2 5 2 9 2 11v7l1 2 4 8-5-5v1-1l-1-1a29 29 0 000 4v3a4 4 0 010 1 11 11 0 000 4l1 5v2a6 6 0 010 2l1 7-2-2 1 1a4 4 0 010 2h-1l1 4v3a2 2 0 001 1v1a1 1 0 010 1 2 2 0 01-1 1l1 1v4l-1 1a18 18 0 002 5l1 10-1-1a7 7 0 010 2l-1 4h1l-1 4v8h1a4 4 0 01-1 1 6 6 0 000 3 2 2 0 010 1l1 6v2l1 1-1 1v3a22 22 0 010 5l1 5 5 7-6-4 2 6h-1a49 49 0 001 5h-2v1zm0-60h1a3 3 0 00-1 0zm2 0h-1a2 2 0 001 0zm-4-33a2 2 0 010-1 1 1 0 000 1zM892 510a2 2 0 01-1 0h-1l-1-1a1 1 0 011-2l-1-3a3 3 0 011-2l-2-7h1a1 1 0 010-1l-1-3v-1-1a1 1 0 010-1 15 15 0 011-5 29 29 0 000-5 1 1 0 010-1v-4h-1l1-2a30 30 0 00-1-7 2 2 0 010-1v-1-1l-1-6 1 2v-6l-2-7 2-1a13 13 0 010-2v-3a2 2 0 011 0 11 11 0 00-1-5 2 2 0 01-1-2v-1a2 2 0 010-2v-2a2 2 0 011-1l-1-3a5 5 0 010-3v-1l-1-3a4 4 0 011-1 6 6 0 000-3v-3a7 7 0 000-4 5 5 0 010-2 11 11 0 000-2l1-1v-3-1a35 35 0 00-3-10l-5-10 5 6a2 2 0 011-2 27 27 0 010-8v-10l2 3 2 1 1 1h-1l1 3-1 2a25 25 0 000 7 4 4 0 011 1 13 13 0 010 4l1 10-1-2 1 3v2l2 4-3-1a5 5 0 011 2h-1a2 2 0 01-1 1 3 3 0 000 1h1a9 9 0 01-1 6v1a8 8 0 010 4 2 2 0 000 1v1a21 21 0 011 3l2 8-2-3 1 4h-1v3a13 13 0 011 8 18 18 0 000 2h-1a15 15 0 001 3 2 2 0 011 1h-2a18 18 0 010 3v1a2 2 0 010 1h1v2a42 42 0 01-1 7v1l1 2a4 4 0 010 1 31 31 0 010 3l1 5a5 5 0 010 1v5a1 1 0 010 1 30 30 0 010 4 3 3 0 010 1l1 1h-1a4 4 0 01-1 1v6l1 5-1 1 2 6-1 1a40 40 0 001 4l-1 2zm-6-130zm2-14l1 1a2 2 0 001-1z"/><path class="d" d="M881 514a3 3 0 01-3-2l1-1h1a3 3 0 010-1v-1a15 15 0 010-3 21 21 0 01-2-4v-4a2 2 0 011-2 12 12 0 010-6l-1-3a1 1 0 011-1l-1-3a3 3 0 011-2 20 20 0 01-1-5l-1-2-1-4 1 1v-1l-1-2h3l-1-3a2 2 0 010-1v-4a5 5 0 011-3l-1-1 1-4v-3l-1 1-1-5a3 3 0 01-1-2l-1-7 3 3a3 3 0 011 0l-1-2-1-5v-9-1a4 4 0 01-1-2h-1l1-1a23 23 0 00-1-2l1-1a7 7 0 000-2l2-1v-1l-1 1v-1a1 1 0 00-1 1 14 14 0 000-1v-1a2 2 0 010-2v-2-1a1 1 0 010-1v-1-2a2 2 0 011-3 3 3 0 010-1v-1a26 26 0 000-6l-1-2a2 2 0 011-2 7 7 0 010-1 4 4 0 000-3l-1-2a2 2 0 011-1 16 16 0 01-1-4v-2a3 3 0 01-1 0 15 15 0 01-1-3l-1-4 4 3a3 3 0 011 1h2a9 9 0 010 1 4 4 0 01-1 2l1 1 1 5v1a2 2 0 01-1 1 6 6 0 010 4 3 3 0 001 3l-1 1a27 27 0 011 7v1a4 4 0 010 1l-1 1 1 1h-1a2 2 0 010 1v2a30 30 0 010 3v6l-1 5 1 1v3l1 3v1h-1l1 2a23 23 0 010 6v1a33 33 0 002 4l1 2h-3v1a4 4 0 010 1 40 40 0 012 9v1l1 4-2-1a12 12 0 010 2 6 6 0 000 3l1 1-1 1v1a39 39 0 001 6l2 7-3-3v4a13 13 0 001 4h-1v3a17 17 0 010 5h1l-1 1a11 11 0 001 5v2a2 2 0 01-1 2 20 20 0 001 5 3 3 0 011 1h-1a39 39 0 001 5v1h-1a2 2 0 01-2 2zm0-7a2 2 0 001 0 2 2 0 001 0zm-2-48a2 2 0 001 0 3 3 0 001-1zm0-60a2 2 0 011 0zM870 511h-2a3 3 0 011-3 15 15 0 010-2 6 6 0 00-1-3l4-1a2 2 0 00-2-1 2 2 0 00-2 1 4 4 0 000-1h-1l1-2 1-6a14 14 0 010-2l-1-1v-3a34 34 0 01-1-6h1a5 5 0 000-1 2 2 0 001 0 2 2 0 002-1h-4a11 11 0 000-3l1-2a16 16 0 00-1-4 2 2 0 010-2v-1a12 12 0 01-1-3l3-1a22 22 0 00-2-5 2 2 0 010-1 47 47 0 01-1-3 1 1 0 011-2l-1-4 1 1a6 6 0 010-2 2 2 0 000-1 1 1 0 010-1v-6a4 4 0 010-3 16 16 0 00-1-6 22 22 0 01-1-3h2a9 9 0 010-2 21 21 0 00-1-6l-1 1 1-3v-1a5 5 0 011-3 17 17 0 01-1-2 13 13 0 010-4 3 3 0 011-2 20 20 0 000-5l-3-6 2 2a10 10 0 010-4l1-2-1-2a7 7 0 010-2 4 4 0 010-2 33 33 0 010-5v-1l-1-3a49 49 0 010-6h1a9 9 0 000-1l4-1-1 4v4l1 3v4-1 5l1 3h-1l1 4-1 1v5a11 11 0 011 3l-1 4v2a2 2 0 010 1 16 16 0 000 3 4 4 0 011 1v1a2 2 0 01-1 1l-1 1 1 3a23 23 0 011 6v6h-1a32 32 0 011 7 3 3 0 000 1v1l-1 4v1a4 4 0 011 3 5 5 0 00-1 3 4 4 0 010 4v1a20 20 0 012 6v4a3 3 0 01-1 1 3 3 0 01-1 2 15 15 0 012 4v4l-1 1a7 7 0 010 1 4 4 0 010 1 13 13 0 011 2 2 2 0 01-1 2l1 4a1 1 0 010 1v1a10 10 0 001 3l2 6-4-3v3a2 2 0 011 0v4a8 8 0 010 3 12 12 0 001 3l1 7zm-1-67a3 3 0 00-1 1l2-1a3 3 0 00-1 0zm-1-75zM862 502h-1a2 2 0 010 1v6a3 3 0 01-2 0 2 2 0 01-2-2h1a8 8 0 00-1-4l-5-12 5 7a2 2 0 011-2v-2a14 14 0 00-2-5l2-1-1-1a2 2 0 00-1 2v-1l1-3-6 2 7-5a10 10 0 001-3 36 36 0 00-2-5 2 2 0 010-1 12 12 0 01-1-1h2l-1-1a4 4 0 010-1 11 11 0 000-4v-2l-1-2v-1l1-5v-3-2-1a6 6 0 010-1l-1-3v-2a1 1 0 010-1 4 4 0 010-3 2 2 0 010-2 2 2 0 011 0l-1-2v-4-3-2-2a3 3 0 010-2 2 2 0 011-3v-1l-1-6h1l-1-3a1 1 0 010-1v-2l-1-3 2-1a3 3 0 01-1 0 2 2 0 00-1 1v-1a3 3 0 011-1 6 6 0 011-3 14 14 0 00-2-4l-3-3 4 1a37 37 0 00-1-6 1 1 0 010-2v-1h1l-2-6v-1a1 1 0 011-1 5 5 0 011-3 2 2 0 000-2 4 4 0 01-1-2v-3l-1-2a2 2 0 002 1 2 2 0 002-1h-4l2-2a2 2 0 012 2v2l1 1v3a4 4 0 010 3v5h-1l1 5v11a15 15 0 011 3v3a2 2 0 010 1 4 4 0 000 1l-2 1 1 1a1 1 0 000-1 2 2 0 000 1v3a33 33 0 011 5v9a2 2 0 010 2l3 9-3-3a2 2 0 010 1v5a52 52 0 002 6h-3v1a1 1 0 001 0 1 1 0 00-1 0h1v7a2 2 0 010 1h1-1l1 6-1 2a7 7 0 000 3 24 24 0 011 2v3a13 13 0 010 3 3 3 0 010 1 18 18 0 010 2 5 5 0 010 1l1 4v3a9 9 0 01-1 3 10 10 0 01-1 3v2a15 15 0 011 5 23 23 0 001 5l5 11zm-3 5a2 2 0 00-1 0h2a2 2 0 00-1 0zm-1-36a2 2 0 001 0 2 2 0 002-1z"/><path class="d" d="M851 510a2 2 0 01-3-2v-3h1l-2-5v-2a4 4 0 010-1 4 4 0 010-1l-1-1h1a3 3 0 011-1 13 13 0 00-2-6l3-1a2 2 0 00-2 0 6 6 0 000-1l1-1c-2-2-1-2-1-3a11 11 0 000-3 13 13 0 010-2h1v-3a3 3 0 01-1-1v-2l-1-5v-1h-1 1v-1-2l-1-5v-1l-2-5 4 3-1-6-1-4-3-3 4 1v-1a2 2 0 011-1 4 4 0 010-2c-1-1-1-3 1-3a76 76 0 01-2-6 2 2 0 010-2v-4a14 14 0 010-2 17 17 0 00-1-6l-4-9 5 5a5 5 0 010-1 2 2 0 010-1 23 23 0 00-1-3 3 3 0 01-1-2l-1-3 3 1a14 14 0 010-2 20 20 0 00-2-7l2-1-1-2a31 31 0 010-4v-3-3-3a8 8 0 010-4 6 6 0 000-2c-1-3-1-4 1-5a2 2 0 013 1 1 1 0 010 1v2a1 1 0 01-1 1 8 8 0 010 2 6 6 0 001 4l5 8-5-4a13 13 0 010 3v8l1 2a2 2 0 01-1 2 20 20 0 011 3 9 9 0 000 3v1a8 8 0 00-1 1v1a19 19 0 010 2l1 4a2 2 0 01-1 1h1a5 5 0 00-1 2 3 3 0 010 2 19 19 0 010 4 9 9 0 002 5h-2a18 18 0 001 3v1a63 63 0 002 6l2 6-3-2-1 1a5 5 0 010 1l-1 3a8 8 0 011 3 2 2 0 01-1 1l2 7a1 1 0 01-1 2 3 3 0 01-1 2 151 151 0 012 7l-1 1 1 5h1v4l-1 2v1a12 12 0 010 4 11 11 0 001 2v1h-1v1a6 6 0 01-1 1 15 15 0 011 4v4a7 7 0 010 2v1l1 5v2a1 1 0 010 1v1a2 2 0 01-1 2zm-3-13zm1-14l1 1a2 2 0 000-1zm-2 0a1 1 0 001 1v-1zm2-6h1-1zm0-5h1a2 2 0 00-1 0zm-2-43a3 3 0 001 0 2 2 0 001 0zm1-18a2 2 0 00-1 0 3 3 0 002 0 2 2 0 00-1 0zm-2-41a2 2 0 00-1 1h1zm2-1z"/><path class="f" d="M1256 431c1-6 4-12 10-15s13-2 17 2c4-5 10-9 16-10s14 2 17 8c9 2 15 13 12 22a37 37 0 00-2 5v4l-5 10c-6 7-14 11-23 14-9 4-19 5-28 1-7-3-13-10-13-18v-8c0-5-2-10-1-15z"/><path class="g" d="M1264 461l-2-15c1-6 5-12 10-15s14-2 18 2c4-5 10-9 16-10s14 2 16 8a15 15 0 017 3c1-8-5-17-13-19-3-6-10-9-17-8s-12 5-16 10c-4-4-12-5-17-2s-9 9-10 15c-1 5 1 10 1 15v8a21 21 0 007 14 35 35 0 000-6z"/><path class="f" d="M1353 560c8-1 15-9 14-17a14 14 0 007-25c4-2 5-8 3-12s-6-7-10-9a37 37 0 00-37 3 18 18 0 01-4 2 39 39 0 01-4 2c-6 2-10 8-10 15s2 13 5 18c3 8 10 7 16 12 7 5 10 12 20 11z"/><path class="h" d="M1374 518c4-3 5-8 3-12s-6-7-10-9a36 36 0 00-12-4 17 17 0 018 8c2 4 1 10-3 12a14 14 0 01-7 25c1 8-5 15-13 17 3 3 7 5 13 4 8 0 15-8 14-16a14 14 0 007-25z"/><path class="f" d="M1201 512a16 16 0 002 18 27 27 0 00-9 19c0 6 2 12 7 15s11 1 17 0c-2 3-1 7 1 10a18 18 0 0010 6 23 23 0 0016-1c5-2 9-7 9-12 5 2 11 1 15-2s7-9 9-14c2-6 2-13 0-19s-7-11-13-13c1-4 2-8 0-11-1-3-5-5-8-6-7-3-14-6-22-6s-12 4-19 8c-5 3-11 1-15 8z"/><path class="h" d="M1265 510h1a8 8 0 000-2l-1 2zM1278 543c-2 5-5 10-9 13s-10 4-15 2c0 6-4 10-9 13a23 23 0 01-16 1 18 18 0 01-10-6c-2-3-3-8-1-11-6 1-12 3-17 0-4-2-6-5-7-10a25 25 0 000 4c0 6 2 12 7 15s11 1 17 0c-2 3-1 7 1 10a18 18 0 0010 6 23 23 0 0016-1c5-2 9-7 9-12 5 2 11 1 15-2s7-9 9-14a34 34 0 001-15 39 39 0 01-1 7zM1203 521a15 15 0 01-3-5 16 16 0 000 8 26 26 0 013-3z"/><path class="f" d="M1207 440c-1 2-3 3-3 5s1 5 3 5a25 25 0 00-15 19 37 37 0 001 13c1 4 3 9 8 9a10 10 0 013 0c2 1 2 3 3 5a18 18 0 0031 7 5 5 0 012-2l4 2a23 23 0 0035-13 23 23 0 00-4-40c3-3 4-8 2-12s-5-6-8-8a25 25 0 00-14-2 20 20 0 01-5 0 20 20 0 01-4-1 24 24 0 00-21 4l-7 4c-4 1-7 2-11 5z"/><path class="h" d="M1289 469a24 24 0 00-9-16 22 22 0 012 5 24 24 0 01-11 21 23 23 0 01-35 13c-1-1-2-2-4-1a5 5 0 00-2 2 18 18 0 01-18 6 17 17 0 01-5-2 18 18 0 0031 7 5 5 0 012-2c1-1 3 0 4 1a23 23 0 0032-7 24 24 0 003-6 24 24 0 0010-21z"/><path class="g" d="M1213 460c-6 0-11 7-9 12s7 10 13 10a7 7 0 005-3 8 8 0 001-4 38 38 0 000-8 9 9 0 009-6c1-3 1-7 4-7h5c2 0 4-2 5-4s2-5 1-7c-1-3-5-3-8-3h-14c-7 0-7 3-9 8-2 4-6 7-3 12z"/><path class="f" d="M1288 504l-6 2c-2 1-2 4 0 6a25 25 0 00-24 5 37 37 0 00-7 10c-3 4-4 10 0 12a10 10 0 012 2c1 2 0 4-1 6a18 18 0 0019 25 5 5 0 013 0l3 4a23 23 0 0035 12 23 23 0 0023-34c4 0 7-3 8-7s1-8-1-12a25 25 0 00-10-10 21 21 0 01-3-3 21 21 0 01-3-4 24 24 0 00-18-10l-8-1c-4-2-7-3-12-3z"/><path class="h" d="M1333 578a24 24 0 004-18 22 22 0 01-3 5 24 24 0 01-21 10 23 23 0 01-35-13c-1-1-1-3-3-3a5 5 0 00-3 0 18 18 0 01-17-7 17 17 0 01-3-5 18 18 0 0019 25 5 5 0 013 0c2 0 2 2 3 4a23 23 0 0035 12 24 24 0 0021-10z"/><path class="g" d="M1282 530c-5-4-12-2-15 4s-1 12 4 15l5 2a8 8 0 004-3 37 37 0 005-6 9 9 0 0011 1c2-2 5-5 8-3l3 3h7l5-4c1-3-2-6-5-8l-10-9c-6-4-7-2-12 0-4 2-9 2-10 8z"/><path class="f" d="M1315 434c-2 0-4 0-6 2s-2 4 0 6a25 25 0 00-24 5 37 37 0 00-7 10c-2 4-4 10 0 12a10 10 0 012 2c1 2 0 4-1 6a18 18 0 0020 25 5 5 0 012 0c2 0 2 2 3 4a23 23 0 0035 12 23 23 0 0023-34c4 0 7-3 8-7s1-8-1-12a25 25 0 00-9-10 20 20 0 01-4-3 20 20 0 01-3-4 24 24 0 00-18-10l-8-1c-4-2-7-4-12-3z"/><path class="h" d="M1360 508a24 24 0 004-18 22 22 0 01-3 5 24 24 0 01-21 10 23 23 0 01-33-7 24 24 0 01-2-6c-1-1-1-3-3-3a5 5 0 00-3 0 18 18 0 01-17-7 17 17 0 01-3-5 18 18 0 0019 25 5 5 0 013 0c2 0 2 2 3 4a23 23 0 0035 12 24 24 0 0021-10z"/><path class="g" d="M1307 453c-5-4-12-2-15 3s-1 13 4 16l6 2a8 8 0 003-3 36 36 0 005-6 9 9 0 0011 1c2-2 5-5 8-4l4 4h6c2-1 4-2 5-5s-2-5-4-7l-11-9c-6-5-7-2-12 0-4 2-9 2-10 8z"/><path class="f" d="M1234 487a18 18 0 00-6 6c-3 5-2 12 0 17-7 3-9 13-4 19s13 8 20 5a24 24 0 0038-3c0-1 1-3 3-3a9 9 0 013 0 13 13 0 0011-6 22 22 0 003-11 26 26 0 011-6l2-4a17 17 0 00-3-17 21 21 0 00-14-7 19 19 0 00-16-11c-9 0-13 5-18 11-5 5-14 6-20 10z"/><path class="g" d="M1239 520c-2-5-4-12-1-17a19 19 0 017-6c6-4 15-5 19-10 6-6 9-12 19-11a19 19 0 0116 10 22 22 0 017 2 18 18 0 00-3-6 21 21 0 00-15-8 19 19 0 00-16-10c-9-1-13 5-18 11-5 5-14 6-20 10a19 19 0 00-6 6c-3 5-2 12 0 17-7 3-9 13-4 20a16 16 0 008 5c-1-5 2-11 7-13z"/><path class="h" d="M1302 485a18 18 0 00-1-3 15 15 0 01-2 7l-1 4a26 26 0 00-1 6 21 21 0 01-4 12 13 13 0 01-10 5 9 9 0 00-4 0l-3 3a24 24 0 01-37 4c-6 2-13 1-18-2a13 13 0 003 9c4 6 13 7 20 5a24 24 0 0035 0 25 25 0 003-4c0-1 1-3 3-3a9 9 0 013 0c4 0 8-2 11-6a21 21 0 003-11 26 26 0 011-6l2-4a17 17 0 00-3-16z"/><path class="f" d="M1281 478c-5 2-10 6-12 12s-1 12 5 15c-1 4-1 8 1 11s6 3 9 4c6 0 12-1 14-5a15 15 0 0024-7 33 33 0 012-5l2-3a10 10 0 00-9-15 12 12 0 00-6-10c-4-2-8 0-12 0l-18 3z"/><path class="h" d="M1326 490a10 10 0 00-5-4 10 10 0 01-1 2l-2 3a33 33 0 00-1 5 15 15 0 01-25 7c-2 5-8 6-13 5a20 20 0 01-6-1c0 3 0 7 2 9s6 3 9 4c6 0 12-1 14-5a15 15 0 0021-2 15 15 0 003-5 33 33 0 012-5l2-3a10 10 0 000-10z"/><path class="i" d="M231 550a59 59 0 00-6-3c-7-2-22-11-30-11-3 0-10 2-16 14-3 7-2 15-2 22 1 14 13 61 15 67 3 8 6 16 12 22l8-1-1-2c-6-11-14-49 5-54a53 53 0 017-3l20-8 1-1 1-1c-1-5-3-10-6-13-4-7-13-6-20-6-5 0-9 1-11 3s-2 0-2-1c1-3 4-3 6-5s2-5 5-7l8-2c6-3 15 5 21 8a34 34 0 013 3 118 118 0 00-18-21z"/><path class="j" d="M245 591l-1 1zM244 592l-1 1z"/><path d="M165 531c-10 5-18 12-27 19-8 6-18 12-25 19l-2 2c13-6 21-6 34-12l15-8c-6 19-2 51 6 67 1-4 2-10 0-24-1-10-3-24-2-30 3-10 11-19 17-27 8-10 17-4 20-3a148 148 0 0022 8l-6-4c-15-11-34-16-52-7z" fill="#bab2a8"/><path class="l" d="M201 534c-3-1-12-7-20 3-6 8-14 17-17 27-1 6 1 20 2 30 2 14 1 20 0 24-8-16-12-48-6-67l-15 8c-13 6-21 6-34 12-5 7-6 16-7 25 0 14-1 41 4 49a21 21 0 003 2c-2-4 1-9 4-15 6-12 12-22 22-30l7-13c0 11-8 21-13 30l-8 15c-3 6-5 11-4 18v1a61 61 0 007 2c-1-7 4-13 10-17l14-5c3-2 6-3 10-3 9 0 11 6 17 12 3 3 7-2 8-5s3-4 5-5c-4-15-12-49-13-60 0-7-1-15 2-22 6-12 13-14 16-14 8 0 23 8 30 11a58 58 0 016 2l-8-7a148 148 0 01-22-8z"/><path class="j" d="M147 571c-5 2-11 2-15 5-3 3-4 6-5 9-2 4-6 7-9 10-5 8-5 18-7 26 0 5-3 16 3 18a1 1 0 001 0c4-11 10-20 17-29 5-5 11-13 13-21 0-1 2-12 6-18 2-2-3-1-4 0z"/><path class="i" d="M144 589l-7 13c-10 8-16 18-22 30-3 6-6 11-4 15a30 30 0 008 6v-1c-1-7 1-12 4-18l8-15c5-9 13-19 13-30z"/><path class="j" d="M190 632c-2 1-4 2-5 5-1 4-5 8-8 5-6-6-8-12-17-12-4 0-7 1-10 3l-14 5c-6 4-11 10-10 17h1c6-10 18-10 29-9 5 0 10 1 14 5 4 3 9 6 13 4s7 2 10 6h11c-6-6-9-14-12-22l-2-7zM249 571a38 38 0 00-3-3c-6-3-15-11-21-8l-8 2c-3 2-3 5-5 7s-5 2-6 5c0 1 0 4 2 1s6-3 11-3c7 0 16-1 20 6 3 3 5 8 6 13l-1 1-1 1-20 8a53 53 0 00-7 3c-19 5-11 43-5 54l1 2 8-1a72 72 0 0014-4c13-19 14-62 14-62 1-3 5-4 7-5h1v2c4 11 9 34 9 48a20 20 0 005-5s0-9-3-23-14-34-18-39z"/><path d="M256 590v-1l-1-1c-2 1-6 2-7 5 0 0-1 43-14 62 9-3 19-1 24-4 6-3 10-7 9-9 1-15-7-41-11-52z" fill="#4f463f"/><path class="i" d="M183 655c-4 2-9-1-13-4-4-4-9-5-14-5-11-1-23-1-29 9a423 423 0 0067 6c-4-4-7-8-11-6z"/><path class="l" d="M249 586l-7-1c-4 1-8 5-18 6-7 1-14 0-19 4-3 2-3 3-4 6-3 5-6 5-7 8-1 4 2 9 2 12h1c3-5 7-12 12-16 4-3 8-5 18-6 7-1 11-4 17-5 8-1 7-5 12-6l-7-2z"/><path d="M202 202c8-6 19-26 59-3 25 14 11 54 31 48 27-6 47 25 21 50s-38 20-66 6c-10-4-16-8-31-6s-21 24-50 27-74-30-51-49 25-28 19-46 28-42 43-27 18 4 25 0z" fill="#45dbe2"/><path d="M262 292c-12 0-42-7-50-5s-31 7-38 19-54 6-56-11 5 2 17-20c11-20 12-27 12-33a6 6 0 01-3-3c-2-5 4-10 12-13s16-1 17 3a6 6 0 01-1 5h1c10 0 38-19 46-15s-20 11-10 17 31-7 38 1-19 7-14 13 24 2 27 6-7 5-3 8 10-2 15 2-23 6-19 12 21 14 9 14zm44-14c-2-6-11-7-20-4s-15 10-14 15 11 6 20 3 16-9 14-14z" transform="translate(1 1)" fill="url(#a)"/><path class="p" d="M243 267c2-6 0-13-6-16-6-2-15 1-15 4l7 5-8-3c-1 1-3 10 6 15a11 11 0 0016-5z"/><path class="q" d="M221 258a35 35 0 013 1l6 2-4-4a24 24 0 01-4-2c2-3 9-5 14-3 6 3 9 9 6 15a11 11 0 01-7 5 10 10 0 01-8-1c-7-4-7-12-6-13z"/><path class="r" d="M221 259l3 1c4 2 5 2 6 1 1-2 0-2-4-4a36 36 0 01-3-2c1-2 9-5 13-2 6 2 8 8 5 13a10 10 0 01-6 5 10 10 0 01-8 0c-6-4-6-10-6-12z"/><path class="s" d="M225 255c2-2 7-3 11-1s6 7 4 12a9 9 0 01-5 4 9 9 0 01-7-1 11 11 0 01-6-9l2 1c4 2 6 3 7 1h1c1-3-2-4-5-6l-2-1z"/><path class="p" d="M248 233c3-4 2-9-2-12-3-2-9-2-10 0l4 5-5-3c-1 0-3 6 1 10a8 8 0 0012 0z"/><path class="q" d="M235 223a25 25 0 012 2l3 1-2-2a17 17 0 01-2-2 1 1 0 010-1c1-1 7-2 10 1a8 8 0 011 10 7 7 0 01-5 3 7 7 0 01-5-2c-5-4-3-9-2-10z"/><path class="r" d="M235 224l1 1 4 2h1l-3-4-2-2c2-1 7-1 10 1a7 7 0 011 10 7 7 0 01-5 3 7 7 0 01-5-2c-4-4-3-8-2-9z"/><path class="s" d="M238 222c2-1 5-1 7 1a6 6 0 012 9 6 6 0 01-5 2 6 6 0 01-4-2 8 8 0 01-3-7l1 1c3 2 4 2 5 1s0-3-2-4a13 13 0 01-1-1z"/><path class="p" d="M168 277a12 12 0 0016 0c4-4 4-13 1-15-1-1-7 6-7 5-1-1 5-6 5-7s-8-6-15 0c-5 5-5 12 0 17z"/><path class="q" d="M183 260l-3 3-3 4c1 1 2 0 4-2a22 22 0 014-3c2 3 2 11-1 15a11 11 0 01-16-1 12 12 0 01-3-8 9 9 0 013-7c6-5 13-2 14-1z"/><path class="r" d="M182 260l-2 2c-3 4-4 4-3 5v1c1 1 2 0 5-3l3-2c1 2 2 10-2 13a10 10 0 01-14 0 11 11 0 01-4-8 9 9 0 013-7 11 11 0 0114-1z"/><path class="s" d="M184 265c1 3 1 8-2 10a9 9 0 01-13 0 10 10 0 01-2-7 8 8 0 012-6 10 10 0 0111-2l-1 1c-3 4-5 5-3 7v1c2 2 4 0 7-3l1-1z"/><path class="p" d="M181 241a8 8 0 00-5 10c1 4 7 7 9 6l-1-6 2 5c1 1 7-3 5-9 0-5-5-7-10-6z"/><path class="q" d="M187 256a21 21 0 01-1-2l-2-4v3a15 15 0 011 3h-1c-2 1-7-2-8-5a8 8 0 015-10 8 8 0 016 1 7 7 0 014 5c1 5-3 8-4 9z"/><path class="r" d="M187 255l-1-2-2-3v6c-2 0-7-2-8-5a7 7 0 015-9 8 8 0 016 0 6 6 0 013 5 8 8 0 01-3 8z"/><path class="s" d="M183 255c-2 0-5-2-6-4a6 6 0 015-8 7 7 0 015 0 5 5 0 013 4 7 7 0 01-3 7v-1c-1-3-1-4-3-4-2 1-2 2-1 5v1z"/><path class="t" d="M186 264a8 8 0 01-5-2 7 7 0 0110 0 8 8 0 01-5 2zM176 264a8 8 0 01-5-3 7 7 0 0110 1 8 8 0 01-5 2z"/><path class="t" d="M178 267a8 8 0 013-5 7 7 0 01-1 10 8 8 0 01-2-5zM179 257a8 8 0 013-5 7 7 0 01-1 10 8 8 0 01-2-5z"/><path class="t" d="M186 260a8 8 0 01-5 2 8 8 0 012-5c2-2 6-2 6-2a8 8 0 01-3 5zM179 267a8 8 0 01-6 1 7 7 0 018-6 8 8 0 01-2 5z"/><path class="t" d="M182 267a8 8 0 01-1-5 7 7 0 017 7 8 8 0 01-6-2zM176 259a8 8 0 01-2-5 7 7 0 017 8 8 8 0 01-5-3z"/><path class="u" d="M186 263a7 7 0 01-5-1 6 6 0 019-3 8 8 0 01-4 4zM177 265a8 8 0 01-5-1 6 6 0 019-2 7 7 0 01-4 3z"/><path class="u" d="M180 267a7 7 0 011-5 6 6 0 013 9 7 7 0 01-4-4zM178 258a7 7 0 010-5 6 6 0 013 9 7 7 0 01-3-4z"/><path class="v" d="M185 259a7 7 0 01-4 3 7 7 0 010-5 8 8 0 014-3 8 8 0 010 5zM181 267a7 7 0 01-5 3 7 7 0 011-5 8 8 0 014-3 7 7 0 010 5z"/><path class="v" d="M184 266a7 7 0 01-3-4 6 6 0 018 4 7 7 0 01-5 0zM176 261a7 7 0 01-3-4 6 6 0 018 5 7 7 0 01-5-1z"/><path class="w" d="M182 261a2 2 0 01-1 1 1 1 0 011-2 2 2 0 010 1zM181 263a2 2 0 01-1 0 2 2 0 010-1 2 2 0 011 0 2 2 0 010 1z"/><path class="w" d="M182 263a2 2 0 01-1-1 1 1 0 012 0v1a2 2 0 01-1 0z"/><path class="w" d="M180 262a2 2 0 01-1-1 1 1 0 012 0 1 1 0 010 1 2 2 0 01-1 0z"/><path class="w" d="M182 262a2 2 0 01-1 0 1 1 0 012-1 2 2 0 01-1 1z"/><path class="w" d="M180 262a2 2 0 01-1 0 1 1 0 012 0 2 2 0 01-1 0zM181 263a2 2 0 010-1 1 1 0 011 1 1 1 0 01-1 1 2 2 0 010-1z"/><path class="w" d="M180 261a2 2 0 010-1 1 1 0 011 2 2 2 0 01-1-1z"/><path class="x" d="M181 261a1 1 0 010 1 1 1 0 010-1zM181 262a1 1 0 01-1 1 1 1 0 010-1 1 1 0 011 0zM181 262a1 1 0 011 0 1 1 0 01-1 0z"/><path class="x" d="M180 262a1 1 0 010-1 1 1 0 011 1 1 1 0 01-1 0z"/><path class="x" d="M182 262a1 1 0 01-1 0 1 1 0 010-1 1 1 0 011 0 1 1 0 010 1zM180 262a1 1 0 011 0 1 1 0 01-1 0zM181 262a1 1 0 010 1 1 1 0 010-1zM181 261z"/><path class="p" d="M114 308l11-8-7 11a21 21 0 01-9 5 21 21 0 015-8z"/><path class="q" d="M112 310c7-9 2 1 2 1s10-6 1 2a13 13 0 01-6 3 16 16 0 013-6z"/><path class="r" d="M112 310c6-7 1 2 1 2s10-6 2 1a11 11 0 01-5 2 14 14 0 012-5z"/><path class="q" d="M114 310v1h1a72 72 0 00-5 5 42 42 0 004-6z"/><path class="p" d="M111 302l14-3s-7 6-12 8a21 21 0 01-10 1 21 21 0 018-6z"/><path class="q" d="M109 303c10-5 1 2 1 2s12-1 0 2a13 13 0 01-6 1 16 16 0 015-5z"/><path class="r" d="M109 304c8-5 0 2 0 2s11-2 1 1a11 11 0 01-6 0 14 14 0 015-3z"/><path class="q" d="M111 304l-1 1h1a69 69 0 00-7 2l7-3z"/><path class="p" d="M120 313l3-13 1 14a29 29 0 01-3 9 29 29 0 01-1-10z"/><path class="q" d="M120 316c1-11 2-1 2-1s3-10 1 1a18 18 0 01-2 6 22 22 0 01-1-6z"/><path class="r" d="M120 316c1-9 2 1 2 1s2-11 1-1a15 15 0 01-2 6 19 19 0 01-1-6z"/><path class="q" d="M121 315c1-1 1 1 1 1v-1l-1 7a62 62 0 000-7z"/><path class="p" d="M115 296l7 4s-5 2-8 1l-5-3 6-2z"/><path class="q" d="M113 296c6 1 0 3 0 3s6 3-1 2a6 6 0 01-3-3 8 8 0 014-2z"/><path class="r" d="M113 297c6 0-1 1-1 1s6 4 0 2a5 5 0 01-3-2 7 7 0 014-1z"/><path class="q" d="M114 298h-1v1a24 24 0 00-4-1 14 14 0 005 0z"/><path class="p" d="M123 308c-1-3 1-8 1-8l4 7c1 3-1 6-1 6s-3-2-4-5z"/><path class="q" d="M124 310c-3-6 2-1 2-1s1-7 2 0a6 6 0 01-1 4 8 8 0 01-3-3z"/><path class="r" d="M124 310c-2-5 2 0 2 0s1-7 2-1a5 5 0 01-1 3 7 7 0 01-3-2z"/><path class="q" d="M125 309h1v-1a25 25 0 001 5 14 14 0 00-2-4z"/><path class="p" d="M123 293l-1 8-3-8a11 11 0 011-6 11 11 0 013 6z"/><path class="q" d="M122 291c2 6-2 1-2 1s0 7-1 0a7 7 0 011-4 9 9 0 012 3z"/><path class="r" d="M122 291c1 6-2 0-2 0s0 7-1 1a6 6 0 011-4 7 7 0 012 3z"/><path class="q" d="M121 292h-1s1 0 0 0a34 34 0 000-4 20 20 0 001 4z"/><path class="p" d="M116 293l7 8-10-6a20 20 0 01-5-6 20 20 0 018 4z"/><path class="q" d="M114 291c7 6-1 2-1 2s6 7-1 1a12 12 0 01-3-5 16 16 0 015 2z"/><path class="r" d="M114 291c6 5-2 1-2 1s6 7 0 1a10 10 0 01-3-3 13 13 0 015 1z"/><path class="q" d="M114 293h-1l1 1-5-5a40 40 0 005 4z"/><path class="y" d="M113 304a10 10 0 005 0 14 14 0 002-1 13 13 0 00-2 1 11 11 0 00-2 5 10 10 0 004-3 17 17 0 002-3 26 26 0 000 4 15 15 0 000 5 15 15 0 001-5v-2a5 5 0 002 2 5 5 0 000-3 10 10 0 00-1-3v-1h-1 1-1a13 13 0 000-3 5 5 0 00-2-3 6 6 0 000 3 10 10 0 001 2 19 19 0 00-3-2 9 9 0 00-3-2 10 10 0 002 3h1a4 4 0 00-3 1 5 5 0 002 2 8 8 0 00-1 0 10 10 0 00-4 3zm10-3zm0 0z"/><path class="x" d="M126 299c-1 2-3 3-4 2s-1-3 0-5 4-2 5-1 1 3-1 4z"/><path class="x" d="M126 299l-4 2c-1 0-1-3 1-5s3-2 4-1 0 3-1 4z"/><path class="x" d="M127 297a2 2 0 110-2 2 2 0 010 2z"/><path class="x" d="M126 296l3-4-3 4c-1 0 0 0 0 0z"/><path class="p" d="M138 325c-3-6-11-12-11-12s3 10 6 15a24 24 0 009 7 24 24 0 00-4-10z"/><path class="q" d="M140 328c-6-12-3 0-3 0s-10-9-1 2a15 15 0 006 5 18 18 0 00-2-7z"/><path class="r" d="M140 328c-6-10-2 1-2 1s-9-8-2 1a13 13 0 005 4 16 16 0 00-1-6z"/><path class="q" d="M137 327l1 1h-2a79 79 0 015 6h1l-5-7z"/><path class="p" d="M142 319c-5-4-15-6-15-6s7 7 12 11a24 24 0 0011 3 24 24 0 00-8-8z"/><path class="q" d="M145 321c-10-8-2 1-2 1s-13-4-1 3a15 15 0 008 1 18 18 0 00-5-5z"/><path class="r" d="M145 321c-9-7-1 2-1 2s-12-4-1 2a13 13 0 006 1 16 16 0 00-4-5z"/><path class="q" d="M142 321l1 2-1-1a80 80 0 017 4l-7-5z"/><path class="p" d="M130 330c1-7-1-16-1-16l-3 15a33 33 0 001 11 33 33 0 003-10z"/><path class="q" d="M129 333c2-13-1-1-1-1s-1-13-2 0a20 20 0 001 8 25 25 0 002-7z"/><path class="r" d="M129 333c2-11-1 0-1 0s-1-12-2 0a17 17 0 001 6 21 21 0 002-6z"/><path class="q" d="M129 331l-1 1v-1l-1 8a69 69 0 012-8z"/><path class="p" d="M140 312c-4 0-9 3-9 3s5 3 9 3 6-3 6-3-3-3-6-3z"/><path class="q" d="M142 312c-8-1-1 3-1 3s-7 3 1 2a7 7 0 004-2 9 9 0 00-4-3z"/><path class="r" d="M142 312c-7-1 0 2 0 2s-7 3 0 3a6 6 0 003-3 8 8 0 00-3-2z"/><path class="q" d="M141 314c-1 0 0 0 0 0l-1 1a28 28 0 016 0v-1h-5z"/><path class="p" d="M128 324l1-10-7 7c-2 3 0 7 0 7s4-1 6-4z"/><path class="q" d="M126 325c5-6-2-2-2-2s1-8-2 0a7 7 0 000 5 9 9 0 004-3z"/><path class="r" d="M126 325c4-6-2-1-2-1s1-7-2-1a6 6 0 001 4 8 8 0 003-2z"/><path class="q" d="M125 323l-1 1v-1a28 28 0 01-1 5l2-5z"/><path class="p" d="M132 306c-2 3-2 9-2 9l5-7a13 13 0 001-7 12 12 0 00-4 5z"/><path class="q" d="M133 304c-4 7 1 2 1 2s-1 7 2 0a8 8 0 000-5 10 10 0 00-3 3z"/><path class="r" d="M133 304c-3 6 1 1 1 1s-1 7 2 0a7 7 0 000-3 9 9 0 00-3 2z"/><path class="q" d="M133 306l1-1v1a39 39 0 012-5 23 23 0 01-3 5z"/><path class="p" d="M139 307l-10 8 12-4a23 23 0 007-7 23 23 0 00-9 3z"/><path class="q" d="M142 306c-10 5 0 2 0 2s-8 7 1 1a14 14 0 005-4 18 18 0 00-6 1z"/><path class="r" d="M142 306c-8 4 1 1 1 1s-8 7 0 2a12 12 0 004-4 15 15 0 00-5 1z"/><path class="q" d="M141 308h1l-1 1 6-4a47 47 0 01-6 3z"/><path class="y" d="M136 317a9 9 0 00-1-1 5 5 0 003-1 5 5 0 00-3-2h-1 1a12 12 0 004-4 11 11 0 00-5 2 22 22 0 00-3 2 11 11 0 002-2 7 7 0 000-3 6 6 0 00-2 2 15 15 0 00-1 4h-2l1 1a11 11 0 00-3 3 5 5 0 000 3 6 6 0 002-1 20 20 0 000 2 17 17 0 000 6 17 17 0 002-6 31 31 0 000-4 20 20 0 001 3 11 11 0 005 4 12 12 0 00-2-6 16 16 0 00-2-1 16 16 0 002 1 11 11 0 006 2 12 12 0 00-4-4zm-6-2zm-1 0z"/><path class="x" d="M126 313c1 2 4 3 5 2s1-3 0-5-3-4-5-3-1 4 0 6z"/><path class="x" d="M127 313c1 2 3 3 4 2s1-3 0-5-3-3-5-2-1 3 1 5z"/><path class="x" d="M126 310a2 2 0 100-2 2 2 0 000 2zM127 309l-2-5 2 5zM126 319l4-2c1-1-2-3-4-3s-3 0-4 2 2 2 4 3z"/><path class="x" d="M126 318c2 1 3 0 4-1s-2-2-3-3-4 1-4 2l3 2z"/><path class="x" d="M124 317a1 1 0 10-1-1 2 2 0 001 1zM124 316l-4-1 4 1z"/><path class="f" d="M445 279c14-13 31-6 68 12s49 17 60 18 43 29 61 32 23 5 23 5l5 11s-5 12-47 14-62-4-92 15-59 19-95 12-52-9-60-12 15-14 50-11 46-4 41-7-13 2-38 0-64-17-64-17 74-59 88-72z"/><path d="M634 341c-18-3-50-31-61-32s-23-1-60-18l-19-9c1 0 34 18 43 25 9 8 11 17 28 22a43 43 0 0128 25c3 7-25 4-42 12s-33 24-49 30a108 108 0 0021-10c30-19 50-12 92-15s47-14 47-14l-5-11-23-5z" style="mix-blend-mode:multiply" fill="#7ebb15"/><path class="aa" d="M453 342c14-4-7-6-20-11s-17-11-1-11 16-6 11-10-10-14 4-15 10-11 9-16c0-4 5-6 5-6a24 24 0 00-16 6c-14 13-88 72-88 72s19-8 34-9 48 4 62 0zM476 376c2-12-14-11-27-9 5-1 8-1 10 1 5 4-5 11-41 7-20-2-36 1-45 4a242 242 0 0150 3c28 5 52 6 53-6z"/><path class="ab" d="M404 687l49-4 31 11h12l79 30 57-11 22-12 16-8v-6l-42-33-49-19-39-19-22-3-34 18-34 24-33 10-13 14v8z"/><path class="ac" d="M404 681l49-4 31 11h12l79 30 57-11 22-12 16-8-2-9-40-30-49-19-39-19-22-3-34 18-34 24-33 9-13 15v8z"/><path class="ab" d="M450 649l12 10 31 4 40 12 23 12 40-3 28-16 22-6 1-15-11-8-62-21-27-11-31-3-36 14-16 13-14 7v11z"/><path class="ac" d="M450 642l12 11 31 3 40 12 23 12 40-2 28-17 22-6 1-8-11-14-62-21-27-11-31-4-36 14-16 14-14 6v11z"/><path class="ad" d="M559 654l-21-8-14 4v3l12 6 19 3 7 4h7l9-3 1-4-12-4-8-1zM507 617l-14 2-6 5 2 4 8 1 3-3 7-2 3-5-3-2z"/><path class="ab" d="M519 630l3-20 13-13 2-8 30-3 33 5h28l6 8 2 5 7 38-7 3-13 2-28-3-34 3-22-10-17-2-3-5z"/><path class="ae" d="M537 589l1 9 31 15 29-9 8 3 11-3 4-4 4 1 9-2-6-8h-28l-33-5-30 3z"/><path fill="#898989" d="M598 604l-29 9 2 13-2 6v7l-4 6-4 2 34-3-2-18 2-7-3-3 3 1 3-9v-4z"/><path class="ae" d="M624 644l-2-5-10-3-4-6-2-8 6-8-8 8-1 14-8 8 28 3 13-2-12-1z"/><path class="ag" d="M539 637l4-10 1-7 2-4 2-4h1l1 9-1 7 2 4-2 3 1 7-11-5z"/><path class="ae" d="M531 607l2-4 5-5-1-9-2 8-13 13-3 20 4-18 8-5z"/><path class="ah" d="M554 599l14 7 11-2h8l1-3-8-7-9 2-6-4-9 3-2 4z"/><path class="ad" d="M578 595l-7 1-6-4-9 3-2 4 2 1 2-3 7-2 4 2 9-2z"/><path class="ab" d="M552 654l-21-8-14 4v3l11 6 19 3 15 4 9-3 1-4v-2l-13-2-7-1z"/><path class="ah" d="M552 652l-21-8-14 4v3l11 6 19 3 15 4 9-2 1-5-13-4-7-1z"/><path class="ab" d="M507 617l-18 2-5 3v1l2 5 7 1 3-4 7-2 4-4v-2z"/><path class="ah" d="M504 614l-15 3-5 5 2 4 7 1 3-4 7-1 4-5-3-3z"/><path class="ab" d="M621 678l-20 12-9 2v4l10 5 22 1 12-10 9-2 3-11v-3l-11 1-8 5-7-2-1-2z"/><path class="ah" d="M620 676l-19 10-9 3v4l10 4 22 2 12-10 9-3 3-10-11-2-8 5-7-2-2-1z"/><path class="ad" d="M493 656v7l29 8-29-7-31-4v-7zM556 680v7l34 1 11-2 11-6 10 2 7-3 8-5 9-8h6l-6-4 1-15-1 8-22 6-28 17-40 2zM658 678h-10v-2l-3 10-9 3-12 10v3l10-3 7-2 7-4 7-10 4-2-1-3zM561 647l29-2 18 2h15l-28-3-2-18 2-7-3-3 3 1 3-9v-4l-29 9 2 13-2 6v7l-4 6-4 2z"/><path style="mix-blend-mode:multiply" fill="#c6c6c6" d="M606 607l8 1-2 6-6 8 2 8 4 6 10 3 2 5 12 1 10 1-3-4-7-38-2-5-9 2-4-1-4 4-11 3z"/><path class="ad" d="M565 592l-5 5v4l5 4-11-6 2-4 9-3z"/><path class="ag" d="M531 607l1 8 2 6v16h2l1-13v-8l4-5 1-5 3-3 4 1-11-6-5 5-2 4z"/><path class="ad" d="M484 688v6l16 2 2-6-6-2h-12z"/><path class="aj" d="M1075 244l1-2h2l3 2 2 1-1 2-7-3z"/><path class="ak" d="M1098 254l1-2h1l3 2 2 1-1 2-6-3zM1123 266l2-2h1l3 2 2 1-1 2-7-3z"/><path class="aj" d="M1138 299l2 1-1 1-1 3-1 2-2-1 3-6z"/><path stroke-width="1.3" fill="#3f2b0f" stroke="#1d150c" stroke-miterlimit="10" d="M1127 323l2 1v2l-2 3-1 3-3-2 4-7z"/><path class="ak" d="M1115 348l3 1-1 2-2 3v2l-3-2 3-6z"/><path class="aj" d="M1019 309l-2-1 1-1 1-3 1-2 2 1-3 6z"/><path class="ak" d="M1029 287l-2-2v-1l2-3 1-2 2 1-3 7zM1041 261l-2-1v-2l2-3 1-2 2 2-3 6z"/><path stroke-width="1.4" fill="#3f2b0f" stroke="#1d150c" stroke-miterlimit="10" d="M1084 362l-2 4-1-1-4-2-2-1 2-3 7 3z"/><path class="ak" d="M1060 352l-2 2-1-1-3-1-2-1 1-3 7 4zM1036 340l-1 3-2-1-3-1-2-1 2-3 6 3z"/><path class="an" d="M1012 327l-1 2 1 1 2 1 2 1h1l1 1 2-1 2-4-5-3-5 2z"/><path class="an" d="M1021 328v2l-1 1-1 1v1l4 2 3 2h1l2-1 1-3a15 15 0 000-2l-8-3zM1038 336l-1 1v2l-1 1 1 1 3 2 1 1 2 1 2-1h1l2-4-8-4h-2z"/><path class="an" d="M1030 332l-1 3-1 2v1l3 1h1l2 1h3l2-5-7-4-2 1zM1064 348l-1 2-1 1v1l1 1 5 3 1-1h1v-2l2-2-6-4-2 1z"/><path class="an" d="M1054 344l-2 3v1l1 1 1 1h1l3 2h3l1-1v-1l2-2-7-5-3 1z"/><path class="an" d="M1047 340l-1 2-1 2v1l2 1v1l2 1 2 1 1-1a9 9 0 000-1l2-3-3-3zM1077 354l-1 4v2h2l1 1 3 1 1 1 2-1 1-1 2-3-7-4h-4z"/><path class="an" d="M1087 359l-2 3 1 1v1l2 1 2 1 4 2h4l1-1 2-3-10-5h-4zM1070 351a17 17 0 01-1 1l-1 3 1 1 1 1h1l2 1 2 1a11 11 0 001-1l1-4-2-2z"/><path class="ao" d="M1103 371h-1l-1-1h-2l-1-1 1-2v-2l1-1h1z"/><path class="an" d="M1024 324l-1 3-1 2h1l3 1 1 1 1 1h3l2-5-7-4-2 1z"/><path class="an" d="M1032 328v1l-1 2-1 1v1l4 1 3 2h3l1-4a15 15 0 000-2l-8-3zM1061 341l-1 2-1 2v1l2 1 7 3h2v-3l2-1-8-5h-3z"/><path class="an" d="M1050 335l-3 5 1 1 2 1 1 1 4 2h4v-2l2-2-8-5-3-1z"/><path class="an" d="M1041 331l-1 2a21 21 0 00-1 2v1l2 1 1 1 2 1 2 1h1a8 8 0 000-1l3-4-4-2zM1019 326v1l1 1h1l1 1h1v-1l2-4-1-1-5 3zM1078 349v1l-1 1-1 2 1 1 3 1 1 1 3 1h2l2-4-8-4h-2z"/><path class="an" d="M1088 353l-2 2v3h1l3 2h1l1 1 2 1h2l3-5-8-4h-3zM1070 345l-1 2-1 3h1l2 1 2 1 1 1h3l2-5-7-4-2 1z"/><path class="an" d="M1101 364h-1l-2-1h-2v-3l1-2v-1h2zM1031 321l-1 3-1 2 3 1 1 1 2 1h3l2-5-7-4-2 1z"/><path class="an" d="M1039 325l-1 1v2l-1 1v1l4 2 3 1h3l1-4a15 15 0 00-1-2l-7-3zM1067 338l-1 2-1 1v2l2 1 6 3 1-1h1v-3l2-1-7-5-3 1z"/><path class="an" d="M1056 333l-2 4v1h1l1 1 2 1 3 2h4l1-2 2-2-8-5h-4zM1047 329a16 16 0 01-1 1l-1 2 1 1 2 1 1 1 2 1 2 1h1a9 9 0 000-1l1-3-3-3zM1095 351l-2 2v2h-1l-2-1a6 6 0 01-1 0 5 5 0 00-1-1h-2v-1a5 5 0 010-1l1-4 5 1z"/><path class="an" d="M1075 346v1l2 1 2 2 3 1 2 1h1l1-1 1-4-5-4-5-1-1 1-1 3zM1099 357l-1 1-2-1-2-1-1-1v-1l2-3 1-1 3 7zM1025 323v1l1 1h2l1 1 1-1 2-4-1-1-6 3zM1033 320l-1 2 1 1 3 1h1l1 1h3l2-5-5-2-5 2z"/><path class="an" d="M1042 321v1l-1 2v2l3 2 3 1h3l1-4a13 13 0 000-2l-8-3zM1059 329v1l-1 1-1 2 1 1 3 1 1 1 2 1h3l2-4-8-4h-2z"/><path class="an" d="M1051 325l-1 2-1 3 3 1 1 1 2 1h1l2-1 2-4-7-4-2 1zM1096 351h-2l-2-1h-1v-5l1-1 2-1 2 8z"/><path class="an" d="M1085 341l-1 1-1 2v1l1 1 5 2h2v-3l2-1-6-4-2 1z"/><path class="an" d="M1075 336l-2 4v1l1 1h1l2 1 2 1 2 1h1l1-1v-1l2-3-7-4h-3z"/><path class="an" d="M1068 333l-1 1-1 3v1l2 1h1l1 1 2 1h1a10 10 0 000-1l2-4-3-2zM1054 321l-1 1v1l-1 2 1 1 2 1 1 1 3 1h3l2-4-8-4h-2z"/><path class="an" d="M1063 325l-1 2-1 2v1h1l3 2h1l2 1 2 1h2l2-5-7-4h-4z"/><path class="an" d="M1073 330l-1 2-1 2 1 1 3 1 1 1h1l1 1 2-1 2-4-7-4-2 1zM1046 317l-2 2v3l3 1 1 1 2 1h1l1-1 2-4-6-4-2 1z"/><path class="an" d="M1081 333v2l-1 1-1 1v1l4 2 3 2h1l2-1 1-3a13 13 0 000-2l-8-3z"/><path class="an" d="M1093 344l-2-1h-2v-1l-1-1 1-1 1-2v-1h1zM1039 318v2h1l2 1 1 1h1v-1l3-5-1-1-7 3z"/><path class="an" d="M1046 316v1l3 1 2 1h1l2-5-1-1-7 3z"/><path class="an" d="M1054 315l-1 1-1 1v3l2 1 1 1h4l2-5-6-3-1 1z"/><path class="an" d="M1061 318l-2 2v3h1l2 1 2 1 1 1 2 1h2l3-5-8-4h-3z"/><path class="an" d="M1071 322l-1 3-1 2v1l3 1h1l2 1h3l2-5-7-3h-2z"/><path class="an" d="M1079 326l-1 1-1 2v2l3 2 4 1h3v-4a15 15 0 000-2l-7-3z"/><path class="an" d="M1091 337h-1l-1-1-2-1h-1v-1l1-1v-4l2 1z"/><path class="an" d="M1088 330h-1l-2-1h-2v-2l1-3 1-1 1-1 3 8z"/><path class="an" d="M1077 320l-1 2-1 1v1l1 1 6 2h1l1-3 1-1-5-4-3 1z"/><path class="an" d="M1067 315l-2 4 1 1v1h2l1 1 3 1 1 1h2v-1l1-1 1-3-6-4h-4z"/><path class="an" d="M1060 312l-1 1-1 3v1l2 1h1l2 1 2 1a9 9 0 001-1l1-4-2-2z"/><path class="an" d="M1053 313v1l2 1 2 1v1h1v-2l1-2 1-1v-2l-7 3zM1082 317l-2 2-1 2-2-1a6 6 0 01-1 0 5 5 0 00-1-1h-1l-1-1a7 7 0 01-1-1l2-4h5z"/><path class="an" d="M1065 313v1l1 1 2 1 2 1 1 1h1v-1l2-4-3-3-4-1-1 2-1 2zM1060 311v1h1l1 1 1 1h1l1-1 1-4v-1l-6 3zM1085 323h-2l-2-1-1-1v-2l2-2 1-1 3 6-1 1z"/><path class="an" d="M1079 314l-2 1h-1l-3-1-2-2v-2l1-3 2-1 7 5z"/><path class="an" d="M1071 310l-1 1-2-1h-2v-2l7-3-1 3-1 2zM1083 317l-1 1-3-2v-2l1-2v-2h1l3 6-1 1z"/><path class="an" d="M1081 310l-1 1-3-2v-3l1-3 3 4v3z"/><path class="an" d="M1072 306l1 1 3 2 1-1 1-3v-2l-5 2-1 1zM1146 279l1-2-1-1-2-1-2-1-1-1h-1l-2 1-2 4 5 3 5-2z"/><path class="an" d="M1137 278l1-2v-1l1-1v-1l-4-2-3-2h-1l-2 1-1 3a15 15 0 001 2l7 3zM1120 270l1-2v-1l1-1-1-1-2-2-1-1-3-1h-1l-2 1-2 4 8 4h2z"/><path class="an" d="M1128 274l2-3v-3l-3-1h-1l-2-1h-2l-2 4 6 4h2zM1095 258l1-2v-2l1-1-2-1-5-2h-1l-1 3-1 1 5 5 3-1z"/><path class="an" d="M1105 262l1-3v-2l-2-1-1-1-3-1h-4v2l-2 2 7 4h4z"/><path class="an" d="M1111 266l1-2 1-2v-1l-1-1-1-1-2-1-2-1a11 11 0 00-1 2l-2 3 3 3zM1081 252l2-4-1-1v-1h-1l-2-1-3-1-1-1h-2v1l-1 1-1 3 6 4h4z"/><path class="an" d="M1072 247l1-3v-2h-1l-2-1-2-1-4-2h-1l-2-1-1 1-1 1-1 3 9 5h5zM1088 255l1-1 1-3v-1l-2-1h-1l-1-1-2-1h-1a10 10 0 000 1l-2 4 3 2z"/><path class="ao" d="M1055 235h2l2 1h1v1l-1 2v3h-2z"/><path class="an" d="M1134 282l1-3 1-2-1-1-2-1h-2l-1-1h-3l-2 5 7 4 2-1z"/><path class="an" d="M1126 278v-1l1-2 1-1v-1l-4-2-3-1h-3l-1 4a13 13 0 001 2l7 3zM1097 265l2-2v-3l-1-1-8-3h-1l-1 3-1 1 7 5h3z"/><path class="an" d="M1109 271l2-5v-1h-1l-1-1-2-1-4-2h-4v2l-2 2 8 5 4 1z"/><path class="an" d="M1117 275l2-2v-3l-2-2h-1l-2-1-2-1h-1a8 8 0 000 1l-2 4 4 2zM1140 280l-1-1v-1h-2l-1-1-1 1-2 4 1 1 6-3zM1080 257v-1l1-2 1-1-1-1-3-2-1-1-2-1-2 1h-1l-2 4 8 4h2z"/><path class="an" d="M1071 253l1-2v-3l-1-1-2-1h-1l-2-1-2-1h-2l-3 5 8 4h4zM1088 261l1-3 1-2v-1h-3l-1-1-2-1h-3l-2 5 7 4 2-1z"/><path class="an" d="M1058 242h2l2 1 1 1-1 2v2l-1 1h-1zM1127 285l1-3 1-2v-1l-3-1h-1l-2-1h-2l-2 5 6 4 2-1z"/><path class="an" d="M1119 281l1-1 1-2v-2l-3-2-4-1h-3v4a13 13 0 000 2l7 3zM1091 268l1-2 1-2v-1l-2-1-6-3-1 1h-1v2l-1 2 6 5 3-1z"/><path class="an" d="M1103 273l1-4v-1l-2-1-2-1-3-2h-4l-1 2-1 2 8 5h4zM1111 277a13 13 0 011-1l1-2v-1l-2-2h-1l-3-1-2-1a7 7 0 00-1 1l-1 3 3 3zM1064 255l1-2 1-2v-1l2 2a6 6 0 011 0 4 4 0 001 1h2v1a5 5 0 011 1l-2 4-5-1z"/><path class="an" d="M1084 260l-1-1-2-2-2-1-3-1-1-1h-2v1l-2 4 5 4 5 1 2-2 1-2zM1060 249l1-1h1l2 2 1 1v1l-2 3h-1l-3-6h1zM1133 283v-1l-1-1h-1l-1-1h-1l-1 1-2 4 1 1 6-3zM1125 286l1-2-1-1-2-1h-2l-1-1h-3l-2 4 5 3 5-2z"/><path class="an" d="M1116 285v-1l1-2 1-1v-1l-4-2-3-1h-3l-1 4a15 15 0 000 1l8 4zM1099 277l1-1v-1l1-2-1-1-2-1-1-1-3-1h-3l-2 4 8 4h2z"/><path class="an" d="M1107 281l1-2 1-3-3-1-1-1-2-1h-3l-2 5 7 4 2-1zM1062 255h2l2 1h1l1 1-1 1v3h-1l-1 2-3-8z"/><path class="an" d="M1073 265l2-2v-2l-1-1-5-3-1 1h-1v3l-1 1 5 4 2-1z"/><path class="an" d="M1083 270l2-4v-1l-1-1h-1l-1-1-3-2h-3l-1 1v1l-2 3 7 4h3z"/><path class="an" d="M1090 273l1-2 1-2v-1l-1-1h-1l-2-2h-2a11 11 0 00-1 1l-2 4 3 2zM1104 285l1-1v-1l1-2v-1l-3-1-1-1-3-1h-2l-3 4 9 4h1z"/><path class="an" d="M1095 281l1-2 1-2v-1h-1l-3-2h-1l-1-1-3-1h-2l-2 5 8 4h3z"/><path class="an" d="M1085 276l1-2 1-2-1-1-2-1-2-1h-1l-1-1-2 1-2 4 7 4 2-1zM1113 289l1-2v-3l-3-1-1-1-2-1h-2l-2 5 6 4 3-1z"/><path class="an" d="M1077 273v-2l1-1 1-1v-1l-4-2-3-2h-1l-2 1-1 3a13 13 0 001 2l7 3z"/><path class="an" d="M1065 262h1l1 1h2l1 1-1 2v2l-1 1h-1zM1119 288v-2h-1l-1-1-2-1-1 1-2 5 1 1 6-3zM1112 290v-1l-2-1-2-1h-2l-2 5 1 1 7-3z"/><path class="an" d="M1105 291v-1l1-1 1-2-1-1-2-1-1-1-2-1-1 1h-1l-2 4 6 3h2z"/><path class="an" d="M1098 288l1-2 1-2-1-1h-1l-2-2h-1l-2-1-2-1h-2l-3 5 8 4h4z"/><path class="an" d="M1088 284l1-3v-3l-3-1-1-1h-4l-2 4 6 4h3z"/><path class="an" d="M1079 280l1-1 1-2v-2l-3-2-3-1-2-1-1 1-1 3a15 15 0 000 2l8 4z"/><path class="an" d="M1067 269h1l1 1h2l1 1v2l-1 2v1h-2zM1070 276h1l2 1h2v2l-1 3-2 2-3-8z"/><path class="an" d="M1081 286l1-2 1-1v-1l-1-1-5-3-1 1h-1l-1 2-1 2 6 4 2-1z"/><path class="an" d="M1091 291l2-4-1-1v-1h-1l-2-1-3-2h-2l-1 1-1 1-1 3 6 4h4z"/><path class="an" d="M1098 294l1-2 1-2v-1l-2-1h-1l-1-2h-3a11 11 0 000 1l-2 4 3 2z"/><path class="an" d="M1105 293v-1l-1-1-3-2-1 1-1 2-1 2v2l7-3zM1077 289l1-2 1-2h1l1 1a6 6 0 012 0 5 5 0 001 1l1 1h1a7 7 0 010 1l-2 4h-5z"/><path class="an" d="M1094 293v-1l-2-1-2-1-2-1-1-1h-1v1l-2 4 4 3 3 1 2-2 1-2z"/><path class="an" d="M1098 295v-1l-1-1h-1l-1-1h-1v1l-2 4 1 1 5-3zM1073 283l1-1 1 1 2 1 1 1v2l-1 2-2 1-3-6 1-1zM1079 292l2-1h1l3 1 2 2v2l-1 3-2 1-7-5z"/><path class="an" d="M1087 295h1l2 1h2l1 2-8 3 1-3 1-3zM1075 289l1-1 3 2 1 1-1 3-1 1-1 1-2-6v-1z"/><path class="an" d="M1077 296l1-1 3 2 1 1-1 1-1 3-2-3-1-3z"/><path class="an" d="M1086 300l-1-1-2-2h-1l-1 1-1 3v2l5-2 1-1zM1103 370l2 1 1-1 1-2v-2l1-1v-3l-5-2-2 5 2 5z"/><path class="an" d="M1104 361l1 1h2l1 1h1l2-4 1-3v-3l-4-1a13 13 0 00-2 1l-3 7zM1112 344l1 1h1l2 1 1-1 1-2 1-1 1-3v-3l-4-2-4 8v2z"/><path class="an" d="M1108 352l2 2h3l1-3 1-1 1-2v-1l-1-1-4-2-4 6 1 2zM1124 319l2 1h1l1 1 1-2 3-5-1-1-3-1-1-1-4 5 1 3z"/><path class="an" d="M1119 329l4 1h2v-2l1-1 1-3 1-1v-2l-1-1h-1l-3-2-4 7v4z"/><path class="an" d="M1116 335l1 1 3 1h1l1-1v-1l1-2 1-2a11 11 0 00-1-1l-4-2-2 3zM1130 305l4 2 1-1 1-1 1-2 1-3v-3l-2-1-2-1-4 6v4z"/><path class="an" d="M1134 296l4 1h1l1-1 1-2 1-2 2-4v-4l-2-1-2-1-5 9-1 5zM1127 312l1 1 2 1h1l1-2 1-1 1-2 1-1v-1a10 10 0 00-2 0l-3-2-2 3z"/><path class="ao" d="M1147 279v1l-1 1v2l-1 1h-1l-2-1h-3v-2z"/><path class="an" d="M1100 358l2 1 3 1v-1l1-2 1-2 1-1v-1l-1-2-4-2-4 7 1 2z"/><path class="an" d="M1104 350h1l2 1 1 1 2-4 2-3v-1l-1-2-3-1a13 13 0 00-2 0l-3 8zM1117 321l2 2h2l2-1 3-8v-1l-3-1-1-1-6 7 1 3z"/><path class="an" d="M1110 333l5 2h1l1-1 1-1 1-2 1-4 1-1v-2l-1-1h-1l-3-2-4 8-2 4z"/><path class="an" d="M1106 341l3 2h3l1-2 1-1 1-2 1-2v-1a7 7 0 00-1 0l-5-2-1 4zM1101 364l2-1 1-2v-2l-4-2-1 1 2 6zM1124 304h2l1 1 2 1 1-1 1-3 1-1 1-2v-3l-5-2-3 8-1 2z"/><path class="an" d="M1129 295l2 1h3v-1l2-2v-1l1-2 1-2v-2l-5-3-4 8v4zM1121 312l2 1 2 1h1l1-3 1-1 1-2v-1l-1-2-4-2-4 7 1 2z"/><path class="an" d="M1140 282v1l-1 1v2h-1l-1 1-1-1h-2l-1-1v-1zM1097 351l2 1 2 1h1l1-3 1-1 1-2v-1l-1-1-4-2-4 6 1 2z"/><path class="an" d="M1101 343l1 1 1 1h2l2-3 2-4v-1l-1-2h-3a15 15 0 00-2 0l-3 7zM1114 315l2 1 1 1h1l1-2 3-6v-2h-3l-1-1-5 6 1 3z"/><path class="an" d="M1109 327l3 1h2l1-2 1-2 1-3 1-2v-2h-1l-1-1-3-1-4 8v4z"/><path class="an" d="M1105 335a13 13 0 011 1l2 1h1l1-2 1-1 1-3 1-2a9 9 0 00-1-1l-3-1-3 3zM1127 288l2 1 2 1-1 2a6 6 0 010 1 5 5 0 00-1 1v1l-1 1a6 6 0 01-1 1l-4-2v-5z"/><path class="an" d="M1121 308l2-1 1-2 2-2 1-3 1-1-1-2-4-2-4 5-1 5 1 2 2 1zM1133 284v2l-1 2-1 1h-2l-2-2-1-1 6-3 1 1zM1098 357h2v-1l1-1v-3l-4-2-1 1 2 6zM1095 349l3 1v-1l1-2 1-2 1-1v-1l-1-2-4-2-3 5 2 5z"/><path class="an" d="M1097 340h1l2 1 1 1h1l1-4 2-3v-1l-1-2-3-1a13 13 0 00-2 0l-3 8zM1104 323l2 1h1l2 1 1-1 1-2 1-1 1-3v-3l-5-2-4 8v2z"/><path class="an" d="M1101 331l2 1 2 1h1l1-3 1-1v-2l1-1-1-2-4-2-4 7 1 2zM1127 286v2l-1 2-1 1v1l-2-1h-2l-1-1-1-1 7-3z"/><path class="an" d="M1116 297l2 2h3l1-1 2-5v-2h-3l-1-1-5 5 1 2z"/><path class="an" d="M1112 307l4 2h1v-1l1-1 1-1 1-3v-4h-2l-2-2-4 7v3zM1109 314l1 1 2 1h2l1-1v-1l1-2 1-2a11 11 0 00-2-1l-3-2-2 3zM1096 328l2 1h1l2 1 1-1 1-2 1-1 1-3v-2l-5-3-4 9v1z"/><path class="an" d="M1101 319l2 1 2 1h1v-1l1-3 1-1v-1l2-3v-2l-5-2-5 8 1 3z"/><path class="an" d="M1105 309l3 1 2 1 1-1 1-2v-2l1-1v-3l-5-2-4 7 1 2zM1093 337l2 1h3l1-3 1-1v-2l1-1-1-1-4-2-4 6 1 3z"/><path class="an" d="M1109 301h1l2 1 1 1h1l2-4 1-3v-3l-4-1a15 15 0 00-2 0l-3 8z"/><path class="an" d="M1120 289v1l-1 1-1 2v1h-1l-2-1h-1l-2-1 1-1zM1094 343h1l1-1 1-1v-3l-5-2-1 1 3 6zM1091 336h2l1-2 1-2-1-2-4-2-2 1 3 7z"/><path class="an" d="M1090 329h2l1 1 1 1 1-1 1-2 1-1 1-2v-1l-1-1-4-2-3 6v2z"/><path class="an" d="M1094 322l2 1 1 1 1-1 1-1 1-2 1-1v-2l1-2 1-1-1-1-5-3-4 8 1 4z"/><path class="an" d="M1098 312l2 1h3l1-3 1-1 1-2v-2l-5-2-4 6 1 3z"/><path class="an" d="M1102 303l1 1 2 1h2l1-3 2-4v-2l-4-1a13 13 0 00-2 0l-3 8z"/><path class="an" d="M1112 291v2l-1 2v1h-3l-1-1h-2v-2z"/><path class="an" d="M1106 294v1l-1 2-1 2h-2l-2-1h-1l-1-2 7-3z"/><path class="an" d="M1095 305l2 1 2 1h1l1-1 2-5v-2l-3-1-1-1-5 6 1 2z"/><path class="an" d="M1091 315l4 2 1-1 1-1 1-2 1-3v-3l-2-1-2-1-4 6v4z"/><path class="an" d="M1088 322l1 1 2 1h2l1-2v-1l1-1 1-2v-1a10 10 0 00-2 0l-3-2-2 3z"/><path class="an" d="M1089 329h1l1-1 1-3h1l-2-1-2-1-1-1h-2l3 7zM1093 301l2 1 1 1 1 1-1 1a6 6 0 01-1 2 5 5 0 000 1h-1v1l-1 1a5 5 0 01-1 0l-3-2v-5z"/><path class="an" d="M1089 318h1l1-2 1-2 1-2v-2h-1l-3-2-3 4-1 3 1 2 3 1z"/><path class="an" d="M1086 322h2v-1l1-1v-2l-4-2-1 1 2 5zM1098 297l1 1v1l-2 2v1h-2l-3-1v-2l6-3v1zM1090 303l1 2-1 1-1 3-1 2h-2l-3-1-1-2 4-7z"/><path class="an" d="M1086 311l1 1-1 2-1 2-1 1-3-8 2 1 3 1zM1092 299l1 1-1 3-1 1h-1l-2-1-2-1-1-1 6-2h1z"/><path class="an" d="M1085 301l1 1-1 3-1 1-2-1-3-1 3-2 3-1z"/><path class="an" d="M1082 310l1-1 1-2v-1l-1-1-3-1h-1l2 5 1 1zM1055 236l-2-1h-1l-1 3-1 1-1 2v1l1 2 4 2 3-5-2-5z"/><path class="an" d="M1054 245l-2-1-1-1h-2l-2 3-2 4v1l1 2 3 1a15 15 0 002-1l3-7zM1046 262l-2-1-1-1-1-1-1 1-2 3-1 1-1 3v1l1 1 4 3 4-9v-1z"/><path class="an" d="M1050 253l-3-1-2-1-1 1-1 3v1l-1 1v3l4 2 4-6v-3zM1034 287l-2-1-2-1h-1l-1 1-2 6v1l3 1 1 1 5-5-1-3z"/><path class="an" d="M1038 277l-3-2-2 1-1 2-1 1-1 3v3l2 1 2 1 4-6v-4z"/><path class="an" d="M1042 270l-2-1-2-1h-1l-1 2-1 1-1 2-1 2a11 11 0 002 1l3 1 3-2zM1028 301l-4-2h-1l-1 1v1l-1 2-1 2-1 2v1l1 1h1l3 2 4-7v-3z"/><path class="an" d="M1023 310l-3-2-2 1v1l-1 1-1 2-2 4v2l-1 2 1 1h1l3 2 5-9v-5zM1031 294l-1-1-3-1h-1l-1 2v1l-1 1-1 2v1a11 11 0 001 0l4 2 2-3z"/><path class="ao" d="M1011 327v-1-1l1-2v-1h3l2 1h1v2z"/><path class="an" d="M1058 248l-3-1-2-1h-1l-1 3v1l-1 2v3l5 2 4-7-1-2z"/><path class="an" d="M1054 256l-1-1-2-1h-2l-2 3-1 4v3l4 1a15 15 0 002-1l3-7zM1041 284l-2-1-2-1h-1l-1 2-3 7v2l3 1 1 1 5-8v-3z"/><path class="an" d="M1047 273l-5-2h-1v1l-1 1-1 2-2 3v4l2 1 2 2 5-9 1-3z"/><path class="an" d="M1051 265l-2-2-2-1-1 1-2 2v1l-1 2-1 2v1a9 9 0 001 0l4 2 2-4zM1056 242h-1l-1 1v1l-1 1v1l1 1 4 2 1-1-3-6zM1033 302l-1-1h-2l-1-1-1 1-2 2v1l-2 3 1 1v2l4 2 4-8v-2z"/><path class="an" d="M1029 311l-2-1-2-1h-1l-1 1-1 3v1l-1 2-1 2v2l5 2 4-7v-4zM1037 294l-3-2h-3v3l-1 1-1 2v2l5 2 4-6-1-2z"/><path class="an" d="M1018 324v-1-1l1-2v-1h1l2 1h2l1 1v1zM1061 254l-3-1-2-1-1 1-1 3v1l-1 1v3l5 2 4-6-1-3z"/><path class="an" d="M1057 263l-1-1-2-1h-2l-2 3-1 3v3l4 1a13 13 0 002 0l3-8zM1044 291l-2-1-2-1h-1l-1 1-3 7h1v1l2 1 2 1 5-6-1-3z"/><path class="an" d="M1049 279l-4-2-1 1-1 2-1 2-2 3v4l2 1 2 1 5-8v-4z"/><path class="an" d="M1053 271a16 16 0 01-1-1l-2-1h-1l-2 2v1l-1 2-1 2v1a7 7 0 001 0l3 2 3-3zM1031 318l-2-1-2-1v-1l1-2a6 6 0 010-1 5 5 0 001-1v-1l1-1a7 7 0 011 0l4 2-1 5z"/><path class="an" d="M1036 298h-1l-2 2-1 3-1 3-1 1v1l1 1 4 2 4-5 1-5-2-2-2-1zM1025 322l-1-1v-1l2-2 1-1h1l3 1v2l-6 3v-1zM1059 249h-1l-1 1v1l-1 1v1l1 1 4 1h1l-3-6zM1062 257l-2-1h-1l-1 3v1l-1 2v3l4 2 3-5-2-5z"/><path class="an" d="M1061 266l-1-1-2-1h-2l-2 3-1 4v3l4 1a15 15 0 001-1l4-7zM1053 283l-1-1-1-1h-3l-1 3-1 1-1 3v2l4 3 4-9v-1z"/><path class="an" d="M1057 274l-2-1-3-1v1l-1 3-1 1-1 1v3l5 2 4-6-1-3zM1031 319v-1l1-2v-2h2l3 1 1 1 1 1-8 3z"/><path class="an" d="M1041 308l-2-1-1-1h-1l-1 1-3 6h1v1l3 1 1 1 4-5-1-3z"/><path class="an" d="M1046 298l-4-1h-2v2l-1 1-2 3v3h1l1 1 3 2 4-7v-4z"/><path class="an" d="M1049 291a17 17 0 01-2-1l-2-1-1 1-1 1v1l-2 2v2a11 11 0 001 1l4 1 2-2zM1061 277h-1l-1-1-2-1-1 1-1 3-1 1-1 3v2l4 2 4-8v-2z"/><path class="an" d="M1057 287l-2-2h-3v1l-2 3v1l-1 1-1 2v2l5 3 4-8v-3z"/><path class="an" d="M1052 297l-2-1-2-1h-1l-1 3-1 1v2l-1 1 1 2 4 2 4-7-1-2zM1065 269l-2-1-3-1v1l-1 2-1 2-1 1v3l5 2 4-7-1-2z"/><path class="an" d="M1049 305l-2-1-1-1h-2l-2 3-2 4v1l1 2 3 1a15 15 0 002-1l3-7z"/><path class="an" d="M1038 317v-1l1-1v-2l1-1 2 1h3v2zM1064 262l-2 1v1l-1 1-1 1v1l1 1 5 2 1-1-3-7zM1066 270h-1l-1 2-1 2v2l5 2 1-1-3-7z"/><path class="an" d="M1067 277h-1l-1-1-2-1-1 1-1 2h-1v5l4 2 3-6v-2z"/><path class="an" d="M1064 284l-2-1-2-1h-1v1l-2 3v1l-1 2-1 2v2l5 2 4-7v-4z"/><path class="an" d="M1060 294l-3-1-2-1-1 1-1 2-1 2v4l4 2 4-7v-2z"/><path class="an" d="M1056 302h-1l-2-1-1-1h-1l-2 4-1 3-1 1 1 2 4 1a15 15 0 001 0l4-8z"/><path class="an" d="M1045 314v-1l1-1v-2h1l1-1 1 1h2l1 1v1zM1052 312v-2l1-2v-1l1-1 1 1h3v1l2 2-8 2z"/><path class="an" d="M1062 301l-2-1-1-1h-1l-1 1-3 5 1 1v1h3l1 1 4-5-1-2zM1067 291l-4-2h-1l-1 1v1l-1 1-2 3v3l1 1h1l3 2 4-7v-3z"/><path class="an" d="M1070 284l-2-1-2-1h-1l-1 2-2 2v2 1a10 10 0 001 0l4 2 2-3z"/><path class="an" d="M1069 277l-1-1-1 2-2 2v1l1 1 2 1 2 1h2l-3-7zM1065 305l-2-1-2-1v-1l1-2a6 6 0 010-1 5 5 0 001-1l1-1v-1a7 7 0 011 0l4 2v5z"/><path class="an" d="M1069 288h-1l-1 2-1 1-1 2-1 1v1l1 1 4 2 3-4 1-4-2-1-2-1zM1071 283h-1l-1 1v2l-1 1 1 1 4 2 1-1-3-6zM1059 309l-1-1 1-1 1-2 1-1h2l2 1 1 2-6 3-1-1z"/><path class="an" d="M1068 303l-1-2v-2l1-2 2-2v-1h2l3 2 1 2-5 7z"/><path class="an" d="M1071 294l1-2v-2l2-1 3 8-3-1-3-2zM1065 307l-1-2 2-2 1-1h1l2 1 1 1 1 1-6 2h-1z"/><path class="an" d="M1072 305l-1-1 2-3 1-1 1 1 3 1-3 2-3 1z"/><path class="an" d="M1076 296h-1l-2 3v1h1l3 1 2 1-2-6h-1z"/><path transform="rotate(-65 1079 303)" style="isolation:isolate" opacity=".1" fill="url(#b)" d="M1026 251h103v104h-103z"/><path class="aq" d="M1011 328l8-2 8-3 9-3 12-5 13-4c5-2 8-4 14-5l4-2-1-1-4 1-14 5-12 4-12 5-10 3-8 3-7 2-1 2zM1054 235l2 8 3 8 3 9 5 12 4 13 5 14 1 4 2-1-1-4-5-14-4-12-5-12-3-10-3-8-2-7-2-1zM1147 278l-8 2-8 3-9 3-12 5-13 4-14 5-4 1 1 2 4-1 14-5 12-5 12-4 10-3 7-3 8-2 1-2zM1104 371l-2-8-3-7-3-10-4-12-5-12-5-14-1-4h-2l1 4 5 14 5 13 4 12 3 9 3 8 3 8 1 1z"/><path class="aq" d="M1080 306l-4-2c-1-1 1-3 2-4s3 1 4 2l-1 1a6 6 0 01-1 3z"/><path class="ar" d="M751 517l-11-1h-11l-11-1a13 13 0 01-7-7c-3-7-1-14-1-21a75 75 0 00-1-12 34 34 0 010-5 39 39 0 011-6 23 23 0 000-6v-6l-1-11a3 3 0 010-1v-24l-1-12c0-4 0-8 2-11a4 4 0 010-1 31 31 0 01-1-6 35 35 0 000-6 38 38 0 01-1-8v-7l1-8 1-5a6 6 0 001 0c3 0 6 0 8-2 2-1 5-4 4-6a8 8 0 003 1 22 22 0 004-1c4 0 7 2 10 3a2 2 0 003-1h1a2 2 0 001 0 10 10 0 004-1 28 28 0 014-1 12 12 0 014 0 19 19 0 015 1 5 5 0 010 5 22 22 0 00-1 10l1 11 1 25v112a8 8 0 01-2 6 8 8 0 01-5 2h-2c1 0 0 0 0 0a3 3 0 01-3 1z"/><path class="as" d="M709 389v8c1 2 8 1 10 1s1-10 1-12c0-1 1-10-2-10l-6 1c-5 0-4 4-4 9zm3-12l6-1c3 0 2 8 2 10s1 12-1 12h-10c-2-3-1-6-1-9v-3c0-5-1-9 4-9z"/><path class="at" d="M708 386c0-5-1-9 4-9 6 1 8-5 8 8 0 2 1 13-1 13h-7c-3 0-3 0-4-3a9 9 0 010-4 41 41 0 000-5z"/><path class="au" d="M708 391a9 9 0 000 4l1 1 8 2c6-2-1-4 1-5s0-8 0-9c0-5-1-4-3-5l-4-1a3 3 0 00-2 0l-1 8a41 41 0 010 5zm2 3l2-3-1 2-1 1zm6 1l-1 1c0-1 0-3 1-1zm2-17l1 3c0-2-2-2-3-3h2z"/><path class="av" d="M710 438h11c3 0 0-5 0-5l-9-1c-6-1-3 6-2 6zm12-5c0 1 2 5-1 6-2 0-10 1-12-1s-3-7 3-6l10 1z"/><path class="aw" d="M712 432h6l3 1c1 2 2 3 1 5l-7 1-6-1c-2-4-1-7 3-6z"/><path class="ax" d="M713 439l-4-1c-2-3-1-5 0-6a15 15 0 002 0l7 1c3 0 1 1 2 2a2 2 0 010 3l-4 1a21 21 0 01-3 0z"/><path class="av" d="M739 351c2 1 9-1 11-2 3-1-1-5-1-5-1-1-8 1-9 1-7 1-2 6-1 6zm10-7c1 1 4 4 1 5-2 1-10 4-12 2-2-1-4-6 2-6 1 0 8-2 9-1z"/><path class="aw" d="M740 345l6-1h3l2 4-6 3h-7c-3-3-2-6 2-6z"/><path class="ax" d="M742 351h-4c-2-2-2-4-1-5a15 15 0 002-1h6c4-1 2 0 3 1a2 2 0 010 3l-3 1a20 20 0 01-3 1z"/><path class="as" d="M747 438l-8 1-1-8-1-4c-3-6 12-9 12-6 1 7 3 8 2 15l-4 2zm2-17c0-3-14 1-11 6v8l1 4c1 1 6-1 7-1l5-2-2-15z"/><path class="ay" d="M751 436c1-7-2-9-2-15 0-3-16 1-11 7v7c1 4-1 4 7 3 2-1 4 0 6-2z"/><path class="au" d="M747 420c-4 0-12 3-9 8v7c1 3 0 4 2 4a2 2 0 000-1c0-4 2-3 3-2a3 3 0 010 2h2a29 29 0 004-1 5 5 0 00-1-2c-1-1-7-2 1-2 1-4-4-2-5-2-8 0-3-2 0-3 6-5-4 0-4 0-2-1 3-3 3-3 4-2 5-4 4-5z"/><path class="av" d="M751 471a31 31 0 01-1 5c-2 2-8 1-11 1-2 0 0-10 1-12 0-4-1-7 3-6l5-1c6-1 4 6 3 9v4zm-4-12c-5 2-6-3-7 4 0 3-3 13-1 13h10l1-5 1-4c1-4 2-10-4-8z"/><path class="aw" d="M752 467c0-1 2-11-5-8-4 2-7-3-7 4 0 4-3 13 0 14 13 1 8 0 11-8a5 5 0 001-2z"/><path class="ax" d="M740 466l-1 3a6 6 0 003 0s3 3-3 5h-1l1 3h3a19 19 0 014-1c2-1 5-5 3-8 0-1 4-9-1-6-3-2-4-2-6 1-3-1 1 1-2 3z"/><path class="av" d="M735 514a31 31 0 01-1 4c-1 3-8 2-10 2-3-1 0-10 0-12 1-4 0-7 4-6l5-1c5-1 4 6 3 9l-1 4zm-3-12c-5 2-6-3-7 4 0 2-3 13-1 13h10l1-5 1-4c1-5 2-10-4-8z"/><path class="aw" d="M736 510c0-2 3-11-4-8-4 1-7-3-7 4 0 3-4 13-1 13 13 1 9 0 12-8a4 4 0 000-1z"/><path class="ax" d="M724 509v3a6 6 0 002 0c1-1 4 3-3 5l1 2 2 1a19 19 0 014-1c3-1 5-5 4-8 0-1 3-9-2-7-2-1-3-1-5 2-3-1 0 0-3 3z"/><path class="as" d="M747 373c-2-2-2-2-4-1-5 1-6-1-6 6 1 11 2 10 9 7 1-2 2-10 1-12zm-10 5c-1-7 1-6 6-7l4 2c1 1 1 10-1 12-7 4-9 4-9-7z"/><path class="az" d="M746 385c-4 1-8 5-9-3-1-12 0-9 7-11l3 2c1 1 1 10-1 12z"/><path class="ba" d="M743 383l1-2c1-6-1-2-2-9-5 0-6 0-5 10 1 5 2 5 4 5 2-1 3-3 2-4zm-3-1c0 2-1 1-1 0-1-6 0-8 1 0z"/><path class="as" d="M749 504l-4-1c-5 1-6 0-6 7 1 10 2 9 9 6 2-2 3-10 1-12zm-10 6c-1-8 1-7 6-7 2-1 2-1 4 1a1 1 0 010 1c1 0 1 9-1 11-7 4-8 4-9-6z"/><path class="az" d="M748 516c-3 2-8 5-9-2-1-13 1-10 8-11l2 2c1 0 1 10-1 11z"/><path class="ba" d="M743 518c2-1 3-2 2-4-1 0 1 1 1-2 1-6-1-2-2-8a1 1 0 000-1c-5 1-6 0-5 11 1 4 2 5 4 4zm-1-5c0 2-1 1-1 1-1-6 1-8 1-1z"/><path class="as" d="M741 440c-3 3-3 0-3 6v4c0 3 3 7 4 5 2-2 1-11 1-14l-2-1zm2 15c-2 3-5-1-5-5v-3c0-7 0-5 3-7 1-1 1 0 2 1v14z"/><path class="ay" d="M743 441c1 7 1 18-3 14-3-4-2-4-2-9 0-6 1-3 3-6 1-1 1 0 2 1z"/><path class="au" d="M742 456l-2-1c-3-4-2-4-2-9 0-6 1-3 3-6v8c4 7-3 1 0 6a4 4 0 011 2z"/><path class="av" d="M723 390h8c5-1 4-4 3-7 0-1 1-7-2-7l-5 1c-4 0-1 3-2 6-1 1-3 6-2 7zm5-13l4-1c3 0 3 5 3 7 1 4 1 6-4 7h-8c-1-1 1-6 2-7 1-3-2-6 3-6z"/><path class="ax" d="M725 383c1-3-3-6 4-6 1 0 6-4 6 5-1 2 4 9-7 8-4 0-7 2-4-5l1-2z"/><path class="aw" d="M725 383c1-3-2-5 1-6a5 5 0 001 0h2l2-1c2 2 0 9 3 11 1 1-2 2-3 3a18 18 0 01-3 0 1 1 0 01-1 0 3 3 0 010-3c0-2-1-3-3-3a6 6 0 011-1z"/><path class="as" d="M746 370c-1 0-6 2-7 1l-2-7v-3c-3-6 12-10 12-6 0 6 2 7 1 14l-4 1zm3-15c0-3-15 0-12 6l1 7 1 3 7-1 4-1c1-7-1-8-1-14z"/><path class="az" d="M750 369c2-7-1-9-1-14 0-3-16 0-11 6v7c1 4-1 4 7 2l5-1z"/><path class="ba" d="M740 355c2 1 3 3 4 2 2-1 3 4 2 4-2 1 2 1-3 3-1 0-2 3-1 5a7 7 0 010 2c-5 1-3 0-4-3v-7c-2-2-1-4 2-6zm5 15h3a14 14 0 001-2c1-3-1-3-2-3-2 2-3 0-3 2a16 16 0 000 3z"/><path class="bb" d="M735 494l-2 6-6 1c-3 0-4-10-4-12 0-4-1-14 5-15l7 2 1 14-1 4zm0-18c-6-4-11-3-12 5 0 3-1 20 4 20a55 55 0 006 0l2-7 1-4c1-2 1-14-1-14z"/><path class="az" d="M736 490c1-2 0-14-1-14 0 0-12-8-12 8 0 3 0 17 4 17 7-1 6 2 7-6l2-5z"/><path class="ba" d="M733 475c-3-2-9-3-10 6l1 1a3 3 0 01-1 4c0 5 0 13 3 15 1-3 5 3 7-9 1-4-1-2-2-2-5 2 1-2 2-3 3-5-5-4-1-8 1-1 2-3 1-4z"/><path class="as" d="M747 439c-3 4-4 0-3 8l1 5c1 3 6 7 7 5 2-4-1-13-2-17-1-1-2-2-3-1zm6 17c-1 4-8 0-8-4l-1-5c-1-8 0-5 3-8 1-1 2 0 3 1 1 4 4 12 3 16z"/><path class="ay" d="M750 440c3 8 5 21-1 17-5-4-4-5-5-10-1-8 1-4 3-8 1-1 2 0 3 1z"/><path class="au" d="M748 456c-4-3-3-4-4-9v-2a2 2 0 001-1 2 2 0 012-3c4 2-2 7 1 12 3-1 1-5 1-7 2 0 2 10 2 10h-3z"/><path class="as" d="M716 501c-6 0-7-3-7 3l-1 4c0 2 8 9 11 8 4 0 2-9 1-13l-4-2zm4 16c-4 1-12-6-12-9l1-4c0-6 1-3 7-3l4 2c1 5 3 12 0 14z"/><path class="ay" d="M720 503c3 8 2 19-7 11-7-6-4-6-4-10 0-6 2-3 7-3l4 2z"/><path class="au" d="M713 513c-7-5-4-5-4-9v-2h1c1-2 5 0 6 0 5 4-6 3-3 9 5 2 4-3 4-3 4 1 0 7 0 7l-4-2z"/><path class="av" d="M722 446a3 3 0 001-2v-2l1-3-2 1h-2l2 4v2zm0-2l-2-4c-2-2 1-1 2 0 1-1 3-2 2 0l-1 3-1 2a1 1 0 000-1z"/><path class="aw" d="M722 444l-2-4c-1-2 2 0 2 0s2-2 2 0l-1 2v2s-1 3-1 1a1 1 0 000-1z"/><path class="av" d="M724 444v-1-2c2-4-1-1 0-3s3 0 4 0c3 3 0 3-3 5l-1 1zm0-1l3-1c4-2 1-3-1-4s-2 0-2 1c2 0 0 2 0 3a3 3 0 000 2zm0 0v1z"/><path class="aw" d="M724 444v-2s2-3 0-3c0 0 1-3 3-1 0 1 4 2 0 4l-3 1h-1z"/><path class="av" d="M722 414l1 4c1 3-2 7-2 3 0-1-1-7 1-7zm0 7a4 4 0 000 1c2-3 1-4 0-8v7z"/><path class="ay" d="M722 414c-2 0-1 5-1 7l1 1c2-3 1-4 0-8z"/><path class="av" d="M744 352l4-2c2-1 7 1 3 2l-7 1v-1zm7-1a4 4 0 001 0c-4-2-4-1-8 1v1l7-2z"/><path class="ay" d="M744 353l6-1 2-1c-4-2-4 0-8 1v1z"/><path class="av" d="M737 455c-1-5 1-2 1-1 0 4 3 7 1 8s-2 1-2-1v-6zm3 5l-2-6c0-2-2-5-1 1a22 22 0 010 6c-1 3 4 2 3-1z"/><path class="ay" d="M737 461s-1 2 2 1-1-4-1-8c0-2-2-5-1 1a18 18 0 010 6z"/><path class="av" d="M748 458a2 2 0 00-1-1l-3-4a19 19 0 00-1 3l5 2zm-1-2c4 4-4 1-4 0 1-7 2-1 4 0z"/><path class="ay" d="M743 456l1-3 2 2c1 2 4 3 1 3l-4-2z"/><path class="av" d="M755 517a1 1 0 00-1 0c-3-2-2-3-3-4a22 22 0 00-1 2c0 1 4 3 5 2zm-1-1c4 3-5 1-4-1 0-6 2-1 4 1z"/><path class="ay" d="M750 515l1-2 1 1c1 3 4 3 2 4l-4-3z"/><path class="av" d="M753 452l1 7c1 3 3-4 4-5v-2l-3-1a5 5 0 00-2 1zm4 0v3c-1 2-2 6-3 3 0-3-1-5 1-7l2 1z"/><path class="aw" d="M755 451l3 1-2 5s-2 4-2 1c0-2-2-6 1-7z"/><path class="as" d="M737 361l-1 16-1-7v-8c1-3 1-3 2-1zm-2 1v7a25 25 0 000 3l1 5v-16c0-2 0-1-1 1z"/><path class="az" d="M735 362v8a18 18 0 010 4c0 3 1 4 2-2l-1-11s0-2-1 0v1z"/><path class="av" d="M742 388l-6-1a24 24 0 001 3l5-2zm-1-1c5 0-3 4-4 3-3-5 1-2 4-3z"/><path class="ay" d="M737 390l-1-3h2c3 1 5 0 4 2l-5 1z"/><path class="av" d="M744 388a3 3 0 001 0l6 1a21 21 0 00-1-3l-6 2zm2 0c-7 0 3-4 4-2 5 6-1 2-4 2z"/><path class="ay" d="M750 386l2 3-3-1c-3-1-6 1-4-1l5-1z"/><path class="bb" d="M724 379v3a52 52 0 01-2 6c-1 2-1 0-1-1v-5l3-3zm-3 3v5a8 8 0 000 1l3-6v-3l-3 3z"/><path class="az" d="M724 379l-3 3v5s0 4 1 0a13 13 0 001-2l1-3a3 3 0 000-1v-2z"/><path class="as" d="M735 379v-1c1-1 2 4 2 4v1c1 3-1 3-1 1l-1-4a2 2 0 010-1zm1 5l1 1a2 2 0 000-2c-1 0-1-7-2-5v2l1 4z"/><path class="ay" d="M735 380l1 4c0 1 1 2 1 0l-1-2a24 24 0 010-3c0-2-1-1-1 0v1z"/><path class="as" d="M750 355v-1c1-2 1 3 1 3l1 2c1 3-1 3-1 1l-1-5zm1 5l1 1a2 2 0 00-1-2s0-7-1-5v1l1 5z"/><path class="ay" d="M750 355l1 5c0 1 1 2 1-1l-1-2a24 24 0 010-2c0-2-1-1-1 0z"/><path class="av" d="M735 354v1l1 3c1-3 4-3 5-4a43 43 0 00-6 0zm1 4zm5-4c-2 2-3 1-5 4l-1-1v-3h6z"/><path class="aw" d="M735 354l3-1c1 0 4 0 2 1l-4 4-1-1v-3z"/><path class="av" d="M738 416c1 4 3 3 3 4l-3 1a9 9 0 00-1-2l-1-2 1-3 1 2zm-1-2l-1 3 1 1a9 9 0 011 3l3-1-2-2c-2-1-1-4-2-4zm4 6"/><path class="aw" d="M737 414l-1 3 1 2a6 6 0 011 2h3c1-1-2-2-2-3a10 10 0 01-2-4z"/><path class="av" d="M735 416c-2 3-1 2 1 4l1 1-1-1c1-1-1-3-1-4zm2 4v2c-2 0 0-1-3-3v-2a3 3 0 011-1l2 4z"/><path class="aw" d="M735 416l2 3v2h-1c0-2-3-2-2-3l1-2z"/><path class="as" d="M722 391v2l3-2h-3zm3 0l-2 2s-2 2-2 0l1-2h3z"/><path class="ay" d="M722 391h2c3 0-1 1-1 2-1 0-2 2-2 0l1-2z"/><path class="as" d="M721 376v2l3-2h-3zm3 0h1l-3 2s-2 2-1-1v-1h4z"/><path class="ay" d="M721 376h3l-2 1-1 1v-2z"/><path class="av" d="M734 390a4 4 0 00-1 0s4 3 4 1c-1-3-3 0-3-1zm-1 0l4 1c1 1 0 2-1 1l-3-2a1 1 0 011 0c1 0 2-2 3 1z"/><path class="aw" d="M734 390s1-2 3 1l-1 1-3-2h1z"/><path class="as" d="M738 439s2 1 0 2l-2 3-2-1c-1-2-2-2 0-3l3-3c1-1 1 2 1 2zm-4 1c-1 1-1 1 1 2l1 1 2-2v-3l-1-1c-1 1 0 2-3 3z"/><path class="ay" d="M737 437c-1 1 0 2-3 3-2 1-1 1 1 2l1 1c1 1 0-2 2-2s0-2 0-3l-1-1z"/><path class="as" d="M750 421l1 3c1 1 0-1 2-2 3-2-1-1-2-3-1-1-2 0-1 2zm3 1c-1 1-1 4-3 2v-3c-1-2 1-3 1-2 2 2 5 1 2 3z"/><path class="ay" d="M751 419c1 2 5 1 2 3-1 1-1 4-2 2l-1-3c-1-2 1-3 1-2z"/><path class="as" d="M752 440l1 4c0 2-1 1-2-3v-4c2 0 1 1 1 3zm-1 1a18 18 0 001 4v-3-4l-1-1v4z"/><path class="ay" d="M751 437v4s1 5 2 3a7 7 0 01-1-2v-4l-1-1z"/><path class="av" d="M752 479c1 3 4 3 4 4s-4 2-4 0a10 10 0 00-1-2v-5l1 3zm-1 0l1 2a9 9 0 010 2h3l-2-2-2-5v3zm4 4"/><path class="aw" d="M751 477v2l1 2a6 6 0 010 2c0 2 2 0 3 0 2 0-2-2-2-2a10 10 0 01-1-4h-1z"/><path class="av" d="M734 499l3-7c1-2 1 5 1 6v3h-3a7 7 0 01-1-2zm4 1v-3c0-2 0-7-2-4-1 3-2 5-1 7v1l3-1z"/><path class="aw" d="M735 501l3-1v-5c0-1 0-6-2-2 0 2-3 5-1 7v1z"/><path class="av" d="M752 492l1 5c0 2-3 6-2 2l1-7zm-1 7a4 4 0 000 1c2-3 2-3 2-8h-1l-1 7z"/><path class="ay" d="M752 492l-1 7v2c3-4 2-5 2-9h-1z"/><path class="av" d="M723 495l1 5c0 2-2 7-2 3v-8h1zm-1 8a4 4 0 000 1c3-4 2-4 1-8l-1-1v8z"/><path class="ay" d="M722 495v9c3-4 2-4 1-8l-1-1z"/><path class="av" d="M738 520l-1-5c-1-2 2-7 2-3 0 1 1 7-1 7v1zm0-8a4 4 0 000-1c-2 4-1 4 0 8 0 1 0 0 0 0v-7z"/><path class="ay" d="M738 520v-7-2c-3 4-1 4 0 8v1z"/><path class="as" d="M750 370c-2 3-2 0-2 6v4c0 3 2 7 3 5 2-3 1-11 1-14l-2-1zm2 14c-1 4-4-1-4-4v-4c0-6 0-4 2-6 1-1 1 0 2 1v13z"/><path class="az" d="M752 371c1 6 0 18-3 14-2-4-1-5-1-9 0-6 0-3 2-6l2 1z"/><path class="ba" d="M751 386l-2-1c-2-4-1-5-1-9 0-6 0-4 2-6v8c3 6-2 1 0 6a4 4 0 011 2z"/><path class="bb" d="M737 471l1 2a36 36 0 010 5l-1-1-2-3 1-3a1 1 0 011 0zm-1 3c-1 1 1 2 1 3a5 5 0 000 1l1-5c0-1 0-2-2-2v3z"/><path class="az" d="M736 471v3c-1 1 1 2 1 3 0 0 1 3 1 0a10 10 0 000-2v-2a2 2 0 000-1l-2-1z"/><path class="bb" d="M731 473a2 2 0 001 1h1l2 1-1-2s2-2 0-1l-2 1h-1zm1 0l2-1c2-1 1 1 1 2 0 0 1 2-1 1l-1-1a1 1 0 01-1 0l-1-1a1 1 0 001 0z"/><path class="az" d="M732 473l2-1c2-1 1 1 1 1v2l-2-1h-1l-1-1a1 1 0 001 0z"/><path class="bb" d="M723 471l-1 3a42 42 0 000 5c0 2 1 1 1 0l1-4-1-4zm1 4l-1 4a5 5 0 01-1 0v-5l1-3 1 4z"/><path class="az" d="M723 471l1 4c1 1-1 2-1 4 0 0-1 2-1-1a11 11 0 010-2v-2a3 3 0 010-1l1-2z"/><path class="av" d="M739 467a6 6 0 00-1-3l-1 3a19 19 0 001 3l1-3zm-2 0l1-4a6 6 0 011 4l-1 3a9 9 0 01-1-3z"/><path class="aw" d="M738 470l-1-2a3 3 0 010-1 15 15 0 011-3l1 1a4 4 0 010 2l-1 3z"/><path class="av" d="M751 483a3 3 0 000-1l-2-5a23 23 0 00-2 2l4 4zm0-2c3 5-5 0-4-2 3-5 3 0 4 2z"/><path class="ay" d="M747 479l2-2 1 2c0 3 3 4 0 4l-3-4z"/><path class="bb" d="M723 411c0 3-1 6 3 7 7 0 10-2 9-9l1-4v-9c1-5-5-5-8-4-7 1-6 4-6 10a31 31 0 001 9zm5-20c3 0 9 0 8 5v13c0 7-3 9-10 9-4-1-3-4-4-7v-9c0-6-1-9 6-11z"/><path class="az" d="M722 402l1-8c1-4 15-4 13 2-2 3 1 6-1 10 0 2 4 12-8 12-2 0-4 0-4-4l-1-12z"/><path class="ba" d="M722 402a18 18 0 000 5c1-1 4-3 10-3 3 0 0-6 2-8 2-3-5-3-10-3a3 3 0 00-1 1 13 13 0 00-1 4c2 0 5 1 0 3a9 9 0 010 1zm9 15a14 14 0 01-4 1c-2 0-4 0-4-5l-1-6c4-2 7-1 7-1 2-1 7 0 1 4-5 3 2 0 3-1 2-2 4 2 1 4-4 2-3 4-3 4z"/><path class="bc" d="M723 395a6 6 0 010 2c1 0 3 0 3 2l-2 3a5 5 0 001-2c1-1 0-2-1-2h-2l1-3zm0 3z"/><path class="bb" d="M707 368c0 4-1 7 3 7 7 1 10-2 9-9l1-4c0-3-2-5 0-9 1-4-5-4-8-4-7 1-6 4-6 11a31 31 0 001 8zm5-19c3 0 9 0 8 5v8 4c0 7-3 10-10 10-4-1-3-4-4-8v-8c0-7-1-10 6-11z"/><path class="az" d="M706 360l1-8c1-4 15-4 13 1-2 4 1 7-1 11 0 1 4 12-8 11-2 0-4 0-4-4l-1-11z"/><path class="ba" d="M706 360a18 18 0 000 5c1-1 4-3 10-3 3 0-1-6 1-8 3-3-5-4-9-3a3 3 0 00-1 1 12 12 0 00-1 4c2-1 5 0 0 3a12 12 0 010 1zm5 15c-2 0-4 0-4-4l-1-6 7-2c2-1 7 1 1 4-5 4 2 0 3 0 2-2 4 2 1 4-4 2-3 3-3 4a14 14 0 01-4 0z"/><path class="bc" d="M707 353a6 6 0 010 2l3 1-2 4a5 5 0 001-2c1-2 0-2-1-2h-2l1-3zm0 3z"/><path class="bb" d="M736 436c-1 3-5 4-6 3l-7-7v-9c2-4 3-4 7-4 6 0 6 2 6 9v8zm-6-17c-4-1-5 0-7 4l-1 10 8 6c1 2 6 0 6-4a39 39 0 000-7c1-7 0-9-6-9z"/><path class="az" d="M736 428c0-4 1-6-2-8 0-1-8-2-9 0-4 6-2 4-3 11 0 3 6 5 8 8h4c3-1 2-6 2-11z"/><path class="ba" d="M733 419v4 7c-1 3 4 6-3 9a17 17 0 00-4-3v-1c1-2-2-2-3-2a3 3 0 01-1-2c1-7-1-5 3-11 0-2 5-1 8-1zm-8 5l1 1 1-2c3-1-2-3-2 1z"/><path class="bc" d="M723 426v6c1 2 2 0 3 1l1 2c0-2 0-4-2-4s-2-4-2-5z"/><path class="bb" d="M765 515c-1 3-4 5-5 3l-8-7v-9c2-4 3-4 7-4 6 1 6 2 7 9l-1 8zm-6-17c-4-1-5 0-7 4v10l7 7c2 1 6 0 6-5a41 41 0 001-6c0-8-1-10-7-10z"/><path class="az" d="M766 508c0-5 0-6-2-9-1-1-9-2-10 0-3 6-2 4-2 11 0 4 5 6 7 8h4c3-1 3-6 3-10z"/><path class="ba" d="M762 498a3 3 0 010 4c-1 3 2 4 0 7-1 4 4 6-3 9a18 18 0 00-4-3l1-1c0-2-2-1-4-2a3 3 0 010-2c0-7-1-5 2-11l8-1zm-6 7v-3c3-1-2-3-2 1l2 2z"/><path class="bc" d="M753 505c-1 1-2 4-1 6s2 0 3 1l1 2c0-2 0-4-2-4s-1-4-1-5z"/><path class="bb" d="M723 468c0 9 12 4 12 3 2-4 0-19 1-24 0-4-4-5-7-5-9 1-6 10-6 16v10zm2-24c3-3 12-3 11 3-1 5 2 21-1 24-2 2-12 5-13-3a80 80 0 011-10c0-4-2-11 2-14z"/><path class="az" d="M723 458s-1-10 1-12c3-6 13-4 12 1-1 4 2 22-1 24s-12 4-12-3v-10z"/><path class="ba" d="M728 447v-1c2-2 0 4 0 4 0 8-2 2 0-4zm-5 21c0 7 7 5 11 4v-12c-5 0-5 6-5 10 0 2-3-4-1-7 3-4 5-6 4-12l1-5a3 3 0 00-2-4 8 8 0 00-8 4v22z"/><path class="bc" d="M731 453c0 4 0 4-2 7-2 2-3 6-2 8a5 5 0 011 2v-2c-1-2 0-4 1-6 2-4 3-4 2-9z"/><path class="as" d="M715 440c7 0 6 5 6 11 1 5 0 8-1 12 0 4 1 8-3 7l-8-1c-2-1-1-14-1-16l1-10c2-3 2-3 6-3zm-7 15c0 2-1 13 1 14h8c4 1 3-2 3-6l1-12c0-5 1-10-5-11-4 0-5-1-7 3l-1 12z"/><path class="ay" d="M709 443v9c-1 2-2 15 0 17h8c1 1 3 0 3-2 0-5 2-12 1-16 0-3 2-10-5-11h-3c-2 0-3 0-4 3z"/><path class="au" d="M709 443v9c-1 2-2 15 0 17h8a3 3 0 002 1 41 41 0 001-7 4 4 0 000-2l-1-1c0-1-2-2-3-1l-1 2c0 2 0 0 0 0v3l-1 2-1 1v-1a7 7 0 001-3v-5l2-3 1-8c0-2 0-5-2-7h-1c-3 0-4 0-5 3z"/><path class="bd" d="M712 441c-2 1-2 4-2 7-1 4-2 4-2 9a17 17 0 001 7l1 1-1-3c-1-4 0-8 1-13 1-3 0-6 2-8z"/><path class="as" d="M753 402v-26c1-2 5-2 6-2 7 1 6 22 5 27 0 4-7 2-9 2a8 8 0 01-2-1zm12 0c0-6 1-27-6-28l-6 1c-2 3 0 24 0 27a5 5 0 002 1c2 1 9 3 10-1z"/><path class="az" d="M755 403c2 1 9 2 9-2 1-5 2-27-5-27s-7-1-7 13l1 15a7 7 0 002 1z"/><path class="ba" d="M755 403a6 6 0 01-2-1l-1-15v-4a2 2 0 001-1c1-3 0-2-1-3 0-5 2-5 7-5 4 0 5 6 6 12-1-1-3-1-3 1l-2 4c0-3-2-2-1-5 3-6-4-3-3 0 2 5 4 4 2 10 4 6-2 3-1 7a1 1 0 010 1l-2-1zm9-2l1-7c-1 4 0 3-5 2 0 0 1 2-1 4-1 2-1 3 1 4l4-2z"/><path class="bc" d="M755 375c-4 4-1 3-2 6v3a57 57 0 001 11v-12-3c0-2-2 0 1-5z"/><path class="av" d="M765 417c2-8-3-14-11-11-3 1-3 2-2 5s-2 4 0 6c2 4 9 3 12 2zm-13 2c-3-3 0-5-1-8s-1-4 3-5c8-3 13 3 11 11l-1 2c-3 2-8 2-12 0z"/><path class="aw" d="M764 419c-3 2-16 2-12-5 1-4-4-8 5-9 8-1 11 8 7 14z"/><path class="ax" d="M756 420c-3-1-6-3-4-6 1-3-3-7 3-9-1 2-2 4 4 4 3 0 0-3-1-4a7 7 0 015 2 4 4 0 01-2 4c-3 2-1 8-5 9z"/><path class="be" d="M761 410a10 10 0 00-3 6l-2 3 1-1c2-1 2-2 2-4l2-4z"/><path class="av" d="M763 440c2-3 1-7 1-11v-6c-1-2-5-1-6-1-5 0-5 1-5 5v7l1 14c0 4 8 2 10 1 1-1-1-9-1-9zm-9 8l-2-14v-7c1-3 0-5 4-5h8v7c1 5 1 8-1 11l1 9c-2 1-10 4-10-1z"/><path class="aw" d="M764 449c-3 1-10 3-10-1l-2-14 1-7c0-2-1-5 5-5 5 0 7-1 6 5 0 2 2 10-1 13l1 9z"/><path class="ax" d="M759 450c-3 1-5 1-5-2l-2-14 1-7c0-2-1-5 5-5h2c2 1 2 2 2 3-3 3 0 12-1 12-2 2-2 3-3 1l-3-4c-4-3 5 8 3 9-2 3 1 6 1 7z"/><path class="be" d="M755 439l3 3c-1 1-2 5 0 6-2-2 1-3 1-6l-4-3z"/><path class="av" d="M754 495c2 2 8 1 10 1 2-1 0-10 0-10l-8-2c-6-1-3 10-2 11zm10-9c1 3 3 9 0 10-2 1-9 2-10-1-2-3-3-13 2-11 2 0 8 0 8 2z"/><path class="aw" d="M756 484l6 1 2 1c1 4 2 5 1 9 0 2-5 1-6 2-1 0-5 0-5-2-2-8-1-12 2-11z"/><path class="ax" d="M763 496h-4c-1 1-4 0-5-2-2-6-1-10 1-10l5 1c2 0 4 6 2 7-1 1-2 2 0 2 1-1 1 0 1 2z"/><path class="be" d="M755 487l-1 4a8 8 0 002 4l-1-3v-5z"/><path class="as" d="M739 502a12 12 0 000-4v-12c-1-7 3-11 9-5 1 1 3 2 3 5v7c0 4-2 4-2 7s-8 2-10 2zm10-2c1-3 2-3 2-7v-7c0-3-1-4-3-6-6-6-10-2-10 6 1 5 2 6 1 12a15 15 0 01-1 3l1 1c2 0 10 1 10-2z"/><path class="ay" d="M739 502c2 0 10 1 10-2 0-2 2-3 2-9s1-6-3-11c-4-4-9-3-10 2 0 5 2 8 1 15l-1 5z"/><path class="au" d="M739 502h8l-1-2 1-5c1-4-1-7 1-9 5-5-7-7-8-6-3 4-1 4-1 6v11l-1 5z"/><path class="bd" d="M741 480c-3 4-1 3-1 5l-1 3a47 47 0 001 10v-11l1-2c0-3-2-1 0-5z"/><path class="av" d="M708 423c0 2-1 7 1 8l10 1c2-1 2-6 2-8a70 70 0 01-1-11c1-5 2-8 0-12-1-2-6-2-7-1l-3 1c-2 1-2 6-1 8l-1 6a52 52 0 000 8zm0-14c0-2-1-7 1-8l3-2c2-1 7 0 8 2 3 4 1 7 1 12a74 74 0 000 11c0 2 1 7-2 8l-10-1c-2-1-2-6-2-8a41 41 0 011-8v-6z"/><path class="aw" d="M708 415l1-4-1-4c0-3-1-6 3-7l5-1c4 1 4 0 5 3v22a22 22 0 010 6c-1 3-3 1-5 1h-3c-5 0-5 0-6-6l1-10z"/><path class="ax" d="M708 409l1 1c2 5 1 7-2 10v5c1 5 1 6 4 6 0-3 3-8 2-10v-6c0-2 2-2 3-3 1-3-1-5-1-9l-4-3c-4 1-3 4-3 7a15 15 0 000 2zm13 21c-1 3-3 1-5 1h-3c0-2 2-7 1-9 0-10 3-5 4-10 0-6-2-6-2-10 3 0 4 7 4 9-1 6-4 10 0 16a6 6 0 011 2v1z"/><path class="be" d="M711 430c-2 0-3-1-3-3l2-8a17 17 0 000-6l-1 6-1 6c0 2-1 7 3 5z"/><path class="av" d="M734 351c0-2 1-7-1-8h-11c-2 0-1 6-1 7a68 68 0 010 11c0 5-2 8 1 12 1 2 6 2 7 1l3-1c2-1 1-6 1-8 0-4-1-3 1-6a52 52 0 000-8zm-1 14c1 2 2 7-1 9l-3 1c-1 1-6 0-7-1-3-5-1-8-1-13a74 74 0 000-11c-1-2-1-7 1-8l11 1c2 1 1 6 1 8a41 41 0 010 8l-1 6z"/><path class="aw" d="M734 359l-1 4v4c0 3 1 6-2 7-2 0-1 2-5 1s-4 0-5-3c-2-4 0-7 0-11v-11a23 23 0 010-6c0-3 3-1 5-1h3c5 0 5 0 5 6v10z"/><path class="ax" d="M733 365c-2-6-1-7 1-11v-5c0-5 0-6-4-6 0 3-2 8-1 10v6l-3 3v9l4 3h1c4-1 3-4 2-7a15 15 0 000-2zm-12-21c1-3 3-1 5-1h2c1 2-1 7-1 9 0 10-2 5-3 10-1 6 2 6 1 10-2 0-3-7-3-9 1-6 3-10 0-15a6 6 0 01-1-3v-1z"/><path class="be" d="M731 344c2 0 3 1 2 3l-1 8a17 17 0 000 6l1-6 1-6c0-3 1-6-3-5z"/><path class="as" d="M736 406c2 8 1 16 13 12l1-11c3-5 2-6 1-11v-3c0-4-4-4-7-4-5 1-7 2-7 6l-1 11zm1-11c0-4 2-5 7-6 4-1 8 0 7 4l1 3c1 5 1 6-1 11-2 3 0 11-2 11-12 5-11-4-13-12l1-10z"/><path class="ay" d="M736 406c3-9-2-14 4-16 5-1 12-2 11 4 0 1 3 8-1 13-1 2 1 10-1 11-12 4-11-5-13-11a4 4 0 010-1z"/><path class="au" d="M736 405c3 1 1 6 3 7 3 1 9-2 11 1v-4l-7-3c-4-2 0-2 3-5 8-7 6-14-6-11-5 2-2 6-3 12a19 19 0 007-3l4-2-3 3a29 29 0 01-8 4l-1 1zm15 1c-6-1-2-4 1-4a9 9 0 01-1 4zm-12 11a10 10 0 01-1-3c1-2 5-2 9 1 2 3-4 6-8 2z"/><path class="bd" d="M739 391c-2-2-1 5-1 5a23 23 0 01-1 3v5l1-4v-7l1-2z"/><path class="ay" d="M750 390l-8 8 3-2c2-2 3 0 6-1-3 2-4-1-6 1 2 0 2 2 6 1-4 1-4-2-7 0l-3 2a6 6 0 01-4 2c2-1 3 0 4-3l9-8zm-13 11z"/><path class="as" d="M755 482c-3-3-3-11-3-15l5-9c3-4 2-4 5-4 6 1 4 8 4 12-1 3 0 14-2 17h-6a5 5 0 01-3-1zm9 1c2-3 1-13 2-17 0-4 2-10-2-12h-5l-6 11c-2 3-1 13 1 16l4 2h7z"/><path class="ay" d="M758 483h6c2-2 2-9 2-11v-9c1-4 1-9-4-9-2 0-2-1-4 3-1 3-6 8-6 10 0 5-1 16 6 16z"/><path class="au" d="M760 454a13 13 0 00-2 3c-1 3-6 8-6 10 0 4 0 13 4 15 3 0 4 1 5-6v-10l-1-11v-1z"/><path class="bd" d="M757 460c-3 4-6 15-3 18l1 1-1-1c-2-4 1-13 3-18z"/><path class="as" d="M755 462l5 5c2 2 9 3 3 1-2 0-3-2-5-4-3-2-2 0 3-2l-5 1-1-1zM721 484v13c0 3-3 3-5 2l-7-1c-2-1-1-16 0-18 0-4-2-8 3-9h9v13zm-7-13c-7 0-5 4-5 10v17l7 1c2 0 5 1 5-2v-13-13h-7z"/><path class="ay" d="M721 471h-9c-4 1-3 3-3 7l-1 12 1 8 7 1c1 1 5 1 5-2a176 176 0 010-18v-8z"/><path class="au" d="M709 477l1-3c0 1 1-3 5-2 2 0 4-1 5 2v13c-2 2-6 6-1 6 1 1 3 3-1 5-3 1-2 1-5-1l-3 1a8 8 0 01-1 0l-1-8 1-12v-1zm1 2a1 1 0 011 1l1-1a8 8 0 011-2c0-5-3 1-3 2zm8 13c0 1 0 0 0 0a2 2 0 001-3c-2 0-1 2-1 3z"/><path class="bd" d="M709 484l1 12v-2c1-4 0-6-1-10z"/><path class="ay" d="M717 471a6 6 0 01-2 2l-1 5v-1l1-4 2-2c-1 0 1 0 0 0z"/><path class="as" d="M766 358v13c0 3-4 3-6 2l-7-1c-2 0 0-16 0-18 0-4-2-8 3-9l9 1c2-1 1 11 1 12zm-7-13c-8 0-6 4-6 10v17l7 1c2 0 5 1 5-2v-13-12l-6-1z"/><path class="ay" d="M765 346l-9-1c-4 0-3 3-3 7l-1 12 1 8 7 1c2 1 6 1 6-2a175 175 0 010-18c0-1 0-8-1-7z"/><path class="au" d="M753 352l1-4s1-2 5-2c3 0 4 0 5 2v13c-2 2-6 6-1 6 1 1 3 3-1 5-3 1-2 1-5-1l-2 1a8 8 0 01-2 0l-1-8 1-12zm2 1a1 1 0 010 1h1a8 8 0 011-2c1-6-3 1-2 1zm8 13a2 2 0 001-3c-2 0-2 2-2 3h1z"/><path class="bd" d="M754 358c-2 0 0 10 0 12l1-1-1-11z"/><path class="ay" d="M761 345a6 6 0 01-1 2c-2 1-2 4-2 5l1-4 3-3h-1zM755 462l5 5c2 2 9 3 3 1-2 0-3-2-5-4-3-2-2 0 3-2l-5 1-1-1z"/><path class="h" d="M848 723c0 4 3 8 7 9-1 4-2 7-1 11s4 7 8 6c-2 7 2 14 8 16 1 3 2 7 4 9s6 3 8 1a10 10 0 0012 8c1 2 2 5 4 6s6 2 7 0a7 7 0 007 6 23 23 0 014 0c4 0 7 4 11 4 5 1 6-4 10-5s7 1 11 2 8-2 7-5c4 2 7 4 11 3s8-4 7-8c4 4 11 0 10-4a9 9 0 0015-10 7 7 0 107-12 7 7 0 007-13c3 0 6-1 7-3s0-6-2-7c7-1 11-12 7-18a8 8 0 104-15 9 9 0 00-4-17c2-5-3-11-8-10a7 7 0 00-6-12c4-5 0-15-7-14 2-3 0-7-3-8l-10-2c0-3-1-7-4-9s-7-3-8 0c-3-7-12-10-19-7-2-5-12-5-15 0-6-6-18-5-23 2-5-5-16-2-17 5-7-4-17 0-18 8-6-3-14 1-14 7a13 13 0 00-8 16c-3 1-4 7-4 11a4 4 0 01-3 3c-2 1-5 4-6 10l2 9c0 1-8 5-2 14-1 4-3 8-3 13z"/><path class="f" d="M1011 655c-2-2-5-5-8-5 2-2-1-6-3-8s-7-1-10-1c-1-3-1-7-4-9s-7-3-9 0c-2-7-11-11-18-7-2-6-12-5-15 0-6-6-18-5-23 2-5-5-16-2-17 5-7-4-17 0-18 8-6-3-14 1-14 7a13 13 0 00-8 16c-3 1-4 6-4 11a4 4 0 01-3 3c-2 1-5 4-6 10l2 9c0 1-8 5-2 14l-3 12c0 4 3 9 7 10-1 4-2 7-1 11s4 7 8 6c-2 6 2 14 9 16l3 9c2 3 6 3 8 1a10 10 0 0012 8c1 2 2 5 4 6s6 2 8 0a7 7 0 006 6 23 23 0 014 0c4 0 7 4 11 4 5 1 6-4 10-5s7 1 11 2 9-2 7-5c4 2 7 3 11 3a23 23 0 001-4 4 4 0 000-2l-3-3c-3-1-4-4-7-6s-8 0-12 0-9-3-8-7c2-5 9-3 14-6a4 4 0 00-4-4c0-3 4-4 6-5s6-4 4-7c-2-2-6 0-9-2-2-2 0-6 3-7l9-1c3-1 6-3 5-5-1-4-9-4-10-8 0-2 2-4 1-6 0-2-4-3-6-1l-6 4a7 7 0 01-5-12l8-1c3 0 5-4 4-6l-7-3a26 26 0 0114-11c-3-2-2-7 0-9s6-2 10-3c8-1 21-1 28-6-7-9 6-14 13-17z"/><path class="g" d="M891 753l-5-7-9-14c-2-3-2-7 1-7-2-3-3-8 1-9a15 15 0 01-11-10c-1-3 0-7 2-9l3-3a8 8 0 001-8l5-2-2-4a4 4 0 000-6l2-4c2-7 11-11 18-7 3-4-2-10 1-13s7 0 10 0c4 0 8-3 11-4 5-2 10 0 15 1 5 2 9 5 11 9s3 10-1 13c-3 2-6 2-9 2l-15 1a10 10 0 00-5 1 6 6 0 00-2 8 8 8 0 006 4c0 3-4 5-7 6l-10 2c-3 1-5 6-3 8a8 8 0 016 2 22 22 0 00-6 11 102 102 0 0021 13l-6 3c-2 2-4 3-4 5s2 4 4 3l-1 8-6 5c-5 4-10 5-16 2z"/><path class="g" d="M989 653l-2-1-5-4-5-2c-2-1-3-2-3-4v-3a3 3 0 00-2-2 14 14 0 00-10 0c-1 1-3 2-4 1l-1-3c0-2-2-4-5-4a18 18 0 00-7 0c-3 1-9 0-10 5a1 1 0 000 2h2a5 5 0 012 0c2 2 6 4 6 7a7 7 0 000 2l4 1h4c3 1 2 5 1 7s-4 5-3 8a25 25 0 005 2c0 2-2 3-3 4s-1 3-1 4c2 2 5 1 7 0s4-4 6-4a10 10 0 013 1 14 14 0 007 1 4 4 0 003-1c2-2 0-7 2-9l5 1a5 5 0 004-9zM918 716c-1 1-2 3 0 5a7 7 0 002 0c3 2 5 5 6 8 1 1 2 3 1 4l-3 1a5 5 0 00-2 7 28 28 0 012 2c1 2 0 5-1 7l-3 7a11 11 0 01-3 4l-5 2h-14a26 26 0 00-5-1c-1 0-3 0-4 2s2 4 4 5h6a4 4 0 012 1c2 1 1 4 1 6a7 7 0 0013 4 22 22 0 005 6c2 2 5 3 8 2s4-4 3-7l-4-3a7 7 0 013-12l4-2a4 4 0 000-2 17 17 0 00-2-7c4-2 7-4 9-7s0-9-4-9h-4v-4l2-3c1-4-5-6-6-9l-1-5c-1-4-7-4-10-2zM858 722a3 3 0 000 1l3 1c2 0 3 3 3 5a31 31 0 010 6 16 16 0 001 8c2 3 4 4 6 5l1 5a7 7 0 003 4 3 3 0 004-1l-1-5c-1-1-3-2-3-4l-1-6c0-3-2-5-3-7s-1-6 0-8a4 4 0 001-1 3 3 0 000-2c-3-6-12-10-14-1zM876 652a6 6 0 003 1c1 1 0 2-1 3l-3 1a6 6 0 00-2 3l-2 6a4 4 0 000 3h3a7 7 0 002-4 8 8 0 011-5c3-3 10 0 12-4l1-5c0-1 1-4 3-4 3 1 5-1 7-3 2-1 3-2 3-4a3 3 0 00-2-1c-2-2-5 0-7 1s-5 4-8 4c-5 0-10 2-10 8z"/><path class="ar" d="M917 349v-22c0-3 0-7-2-10a13 13 0 00-6-8c-7-3-15-1-22 0a75 75 0 01-11-1 33 33 0 00-6 0 39 39 0 00-6 1 23 23 0 01-5 0h-7l-11-1a3 3 0 00-1 0h-35c-4-1-8 0-12 1a4 4 0 00-1 0 31 31 0 00-5 0 34 34 0 01-7-1 38 38 0 00-7-1l-8 1h-7a12 12 0 00-6 1 7 7 0 010 2l-1 8c-1 2-4 4-6 3l-1 1a7 7 0 011 2 22 22 0 010 5l3 10a2 2 0 01-1 2v1a2 2 0 010 2 10 10 0 01-2 4 28 28 0 00-1 4 11 11 0 000 3 18 18 0 002 5 5 5 0 005 1 22 22 0 0110-2l11 2h137a8 8 0 005-2 8 8 0 002-5l1-2v-1a3 3 0 000-3z"/><path class="as" d="M786 308c-5 0-8-2-8 3l-1 6c0 3 8 2 10 2 1 0 11 1 12-1l-1-10h-8zm0 0h12c2 1 1 8 1 10s-10 2-12 2-10 0-10-3v-6c0-5 4-4 9-3z"/><path class="at" d="M786 308c-4 0-9-2-8 3 0 6-6 8 8 8 2 0 13 1 13-1v-7c0-3-1-3-3-3a9 9 0 00-5 0 40 40 0 01-5 0z"/><path class="au" d="M786 308h-7a3 3 0 00-1 3l1 4c2 2 0 3 5 3 2 0 8 1 9-1s3 5 5-1c0-2 0-7-2-8a9 9 0 00-5 0 40 40 0 01-5 0zm8 2v1h-3l3-1zm2 4v1c-2-1 0-1 0-1zm-17 1c0 1 1 3 3 3l-4-1 1-2z"/><path class="av" d="M832 311l1 9c1 0 5 3 6 0 0-2 1-10-1-11 0-1-6-5-6 2zm0 0c-1-6 5-5 6-3 2 2 1 10 1 12 0 3-4 1-5 1-2-1-1-8-2-10z"/><path class="aw" d="M832 311l1 6 1 3c1 1 2 2 4 1l1-7-1-6c-4-2-6-1-6 3z"/><path class="ax" d="M839 312l-1-4c-3-2-5-1-5 0a13 13 0 010 2l1 7c-1 3 1 1 2 2a2 2 0 002 0l1-4a20 20 0 000-3z"/><path class="av" d="M745 339l-1 9c0 1 4 4 5 2s4-10 3-12c0-1-6-5-7 1zm0 0c0-6 6-3 7-1s-1 10-2 12c-1 3-5 0-6-1s1-8 1-10z"/><path class="aw" d="M745 339l-1 6v4l5 2 2-7c1-2 2-5 1-6-4-4-6-3-7 1z"/><path class="ax" d="M752 341v-3c-3-3-5-3-6-1a15 15 0 010 1l-1 7c-1 3 1 2 2 3a2 2 0 002 0l2-3a19 19 0 001-4z"/><path class="as" d="M837 350c-7 1-8-1-15-2-4 0 0-15 6-12l4 1 7 1c1 1-1 6-1 7l-1 5zm0 0l1-5 1-7-4-1h-7c-6-3-9 11-6 11l15 2z"/><path class="ay" d="M837 350c-7 1-9-2-15-2-3 0 0-16 7-11h6c5 1 5-1 3 7l-1 6z"/><path class="au" d="M821 346c0-4 3-12 8-9h6c3 1 4 0 4 2-4 0-3 2-2 3a3 3 0 002 0l-1 2a30 30 0 010 4 5 5 0 01-3-1c-1-1-2-7-1 1-4 1-3-4-3-5 0-8-1-3-3 0-4 6 1-4 1-4-2-2-3 3-4 3-2 4-3 5-4 4z"/><path class="av" d="M868 350c-3 1-10 2-9-3l1-5c-1-4 2-3 5-4 2 0 12-3 12 0 1 2 2 9-1 10a30 30 0 01-4 1l-4 1zm0 0l4-1 5-1v-10c0-2-11 1-13 1-7 1-3 2-4 7-2 6 3 5 8 4z"/><path class="aw" d="M868 350c-2 0-11 3-8-4 1-4-4-7 4-7 3 0 13-4 13-1 1 13 0 9-8 12a4 4 0 01-1 0z"/><path class="ax" d="M866 339l4-1a6 6 0 010 2c-1 1 3 4 4-3a3 3 0 001 0l2 1v3a19 19 0 00-1 3c0 3-4 5-7 4-1 0-10 3-7-1-1-3-2-4 2-6-1-3 0 1 2-2z"/><path class="av" d="M911 335c-3 0-10 2-9-4v-5c0-3 2-3 6-3 2 0 12-3 12 0 0 2 1 9-1 10a31 31 0 01-4 1l-4 1zm0 0l4-1 4-2c2-1 1-8 1-9-1-3-11 0-13 0-8 1-3 2-4 7-3 7 3 5 8 5z"/><path class="aw" d="M911 335c-2 0-12 2-9-5 2-4-3-6 5-7 3 0 13-3 13 0 1 13 0 9-8 12a4 4 0 01-1 0z"/><path class="ax" d="M909 323l4-1a5 5 0 01-1 3c0 1 3 3 5-3 2-1 3 0 3 1v2a19 19 0 00-1 4c0 3-4 5-7 3-1 0-10 4-7-1-2-3-2-4 2-6-1-2 0 1 2-2z"/><path class="as" d="M785 345c4-7 4-8-6-9-7 0-6 2-7 6l2 4c2 2 10 1 11-1zm0 0c-2 2-10 2-11 1l-2-4c1-5-1-6 7-6 10 1 10 2 6 9z"/><path class="az" d="M785 345c2-3 6-8-2-9-12-1-10 1-11 8l2 2c0 1 10 1 11-1z"/><path class="ba" d="M788 340c0-2-1-3-5-4-11-1-10 0-11 5a1 1 0 001 1c7 0 3 2 8 1 3 0 2-2 3-1s3 0 4-2zm-5-2v1c-8 0-6-2 0-1z"/><path class="as" d="M917 347c3-7 4-9-7-9-7-1-6 1-6 6-1 2-1 2 1 3 2 2 10 1 12 0zm0 0c-2 2-11 2-12 1a1 1 0 010-1c-2-1-2-1-2-3 1-5 0-7 7-7 11 1 11 3 7 10z"/><path class="az" d="M917 347c1-4 5-8-3-9-12-1-9 0-11 7l2 3c1 1 10 0 12-1z"/><path class="ba" d="M919 342c0-2 0-4-5-4-10-1-10 0-10 5 7 1 3 3 9 2l2-2c1 2 3 1 4-1zm-5-3c1 0 2 2 0 2-8-1-6-3 0-2z"/><path class="as" d="M841 342c4 0 12 1 15-1 2-1-2-4-5-4h-4c-6 0-4 0-6 3v2zm0 0v-2c2-3-1-3 6-3h4c3 0 8 3 4 5s-10 0-14 0z"/><path class="ay" d="M841 342c7 1 19 1 15-3-4-3-5-2-9-2-7 0-4 1-6 3v2z"/><path class="au" d="M857 341l-1-2c-4-3-5-2-9-2-7 0-4 1-6 3l7-1c7 5 2-2 7 1a4 4 0 002 1z"/><path class="av" d="M784 324c-4 1-6-2-6 3l-1 4c0 3 5 2 6 3 4 0 7 1 7-4v-8l-6 2zm0 0c1-1 5-3 6-2l1 8c-1 5-4 5-8 4-1 0-7 0-7-3l1-4c1-5 3-2 7-3z"/><path class="ax" d="M784 324c-3 1-7-3-6 4 0 1-5 6 5 6 1 0 8 4 7-7 0-4 2-7-5-4l-1 1z"/><path class="aw" d="M784 324c-3 1-6-2-6 2a5 5 0 010 1v1l-1 3c1 1 9 0 11 2 1 1 2-1 2-3a18 18 0 000-3 3 3 0 00-3-1c-2 1-2-1-3-2z"/><path class="as" d="M770 350c-7 1-8-1-14-1-4-1 0-16 5-13l4 1 7 1-1 7-1 5zm0 0l1-5 1-7-4-1h-7c-5-3-8 11-5 11l14 2z"/><path class="az" d="M770 350c-7 1-9-2-14-2-4 1 0-15 6-11h6c4 1 4-1 3 7l-1 6z"/><path class="ba" d="M756 340c1-3 3-5 6-3h6c4 1 4 0 4 4a7 7 0 01-2 0c-2-1-5 1-6 2-1 4-2 0-2 3-1 1-5-1-4-3l-2-3zm15 4a17 17 0 00-3-1c-2 0-1 2-2 4-1 0 0 3 3 1a12 12 0 002-1v-3z"/><path class="bb" d="M890 335l-13-1c-1-1-3-6-2-7 0-6 10-5 15-5 2 0 11 0 11 4v5l-7 2-4 2zm0 0l4-2c1-1 7 0 7-2a55 55 0 000-5c1-5-17-5-20-5-7 1-9 7-4 13l13 1z"/><path class="az" d="M890 335l-13-1s-9-12 7-12c3 0 18-1 17 4 0 7 2 5-5 7l-6 2z"/><path class="ba" d="M876 332c-2-4-3-9 5-10h2a3 3 0 004 0c4 0 12 0 14 3-2 0 4 5-8 7-5 1-3-1-2-3 2-5-3 2-3 2-5 4-5-4-8-1l-4 2z"/><path class="as" d="M840 349c5 1 14 4 17 2 3-1-1-7-5-7l-4-1c-8-1-5 0-8 3v3zm0 0v-3c3-3 0-4 8-3l4 1c4 0 9 6 5 7s-12-1-17-2z"/><path class="ay" d="M840 349c8 3 22 5 17-1-3-5-4-4-9-5-8-1-5 0-8 3v3z"/><path class="au" d="M857 347c-3-4-5-3-9-4h-2a2 2 0 01-2 0 3 3 0 00-2 3c2 4 7-2 11 1 0 3-5 1-6 1 0 2 9 2 9 2l1-3z"/><path class="as" d="M904 319c4 1 12 2 13-2 0-3-6-10-9-10h-4c-6 1-3 2-2 8l2 4zm0 0l-2-4c-1-6-4-7 2-8l4-1c3 0 11 9 9 12s-9 2-13 1z"/><path class="ay" d="M904 319c8 2 18 1 10-8-6-7-6-4-10-4-6 0-2 2-2 8l2 4z"/><path class="au" d="M914 311c-6-6-6-4-10-4h-1l-1 2 1 5c4 5 3-6 8-2 2 5-2 3-3 4 1 3 7-1 7-1l-1-4z"/><path class="av" d="M845 321l-4-2c-2-1 0 1 0 2l-1 2 2-1h2a3 3 0 002-1h-1zm0 0l-1 1a1 1 0 01-1 0l-2 1c-3 1-1-1-1-2s-1-4 1-2l4 2z"/><path class="aw" d="M845 321l-4-2c-2-2-1 2-1 2v2l3-1h1l1-1z"/><path class="av" d="M844 322l-1 2c-1 2-1 6-4 2-1-1-3-2-1-3s0 2 4 0l2-1zm0 0a3 3 0 00-1 1c-1 0-4 2-4 0 0 0-2 1-1 2s3 4 4 1l2-4zm0 0z"/><path class="aw" d="M844 322l-1 1c-1 0-4 2-4 0 0 0-3 1-1 2 1 1 3 5 4 1a21 21 0 012-4z"/><path class="av" d="M814 321c1-2 6-1 8-1 4 0-1 3-3 2l-5-1zm0 0c5 1 5 2 9 0a4 4 0 00-1 0h-8z"/><path class="ay" d="M814 321l7-1 2 1c-4 2-5 1-9 0z"/><path class="av" d="M753 343c1 1 0 6-1 7 0 4-2-1-1-3l2-4zm0 0c-2 4-3 5-1 8a4 4 0 000-1c0-1 2-6 1-7z"/><path class="ay" d="M753 343c1 1-1 5-1 7v2c-2-4-1-5 1-9z"/><path class="av" d="M861 336c2 0 3 0 2 2s-5-1-8-1c-2-1-5-2 1-1h5zm0 0a22 22 0 01-5-1c-7 0-4 2-1 2s3 1 5 2c4 1 5-4 1-3z"/><path class="ay" d="M861 336c1 0 3-1 2 1-1 3-4 0-8 0-2 0-5-2 1-1a18 18 0 005 0z"/><path class="av" d="M856 342a22 22 0 00-2 1c1 1 2 0 4 3a2 2 0 000 1c1-1-1-5-2-5zm0 0c2 0 4 8 1 4-2-2-7-3-1-4z"/><path class="ay" d="M856 342l-3 1 2 1c3 1 3 4 4 2l-3-4z"/><path class="av" d="M916 348a21 21 0 00-3 1l5 4c1-1-1-4-2-5zm0 0c2 0 4 8 1 4-2-2-7-3-1-4z"/><path class="ay" d="M916 348l-3 1 2 2c2 1 3 4 3 1l-2-4z"/><path class="av" d="M851 354l2 2h2c1 0 7-2 5-3l-7-1-2 2zm0 0l1-1c1-2 4 0 6 0 4 0-1 2-2 3h-3c0-2-1-1-2-2z"/><path class="aw" d="M851 354c1 1 2 0 2 2 2 1 2 0 5-1 0 0 4-2 0-2-1 0-5-2-6 0l-1 1z"/><path class="as" d="M762 334h9c2 0 7 0 6 1 0 1-13 2-15 1s-2-1 0-2zm0 0c-2 1-2 1 0 2s15 0 15-1l-5-1a24 24 0 00-2 0h-8z"/><path class="az" d="M762 334h9a18 18 0 004 1c3-1 4 0-2 1h-11s-3-1-1-1l1-1z"/><path class="av" d="M790 337a23 23 0 00-2-1l1 5s2-3 1-4zm0 0c2 0-2 8-2 3 0-3-3-7 2-3z"/><path class="ay" d="M790 337l-3-2 1 3c1 2-1 5 1 3l1-4z"/><path class="av" d="M787 349a21 21 0 003 2c-1-3-2-2-2-7a3 3 0 000-1c-1 1-2 5-1 6zm0 0c-2 0 2-10 2-4 0 3 3 9-2 4z"/><path class="ay" d="M787 349l3 2-1-3c-1-3 0-6-2-4v5z"/><path class="bb" d="M779 323l4-3h4c2 0 3 0 2 1a51 51 0 01-6 2h-4zm0 0h4l6-3a7 7 0 00-1 0l-5 1-4 2z"/><path class="az" d="M779 323l4-2c0-2 3-1 4-1 0 0 4 0 0 1a14 14 0 01-2 1l-2 1a3 3 0 01-1 1l-3-1z"/><path class="as" d="M780 335h5c2 0 1 2-1 1h-2s-5 0-3-1h1zm0 0h-1l5 1a2 2 0 002 0h-1c-2-1-4-2-5-1z"/><path class="ay" d="M780 335h5c1 0 2 2-1 1h-2l-2-1c-2 0-1-1 0 0z"/><path class="as" d="M756 350h5c2 0 1 2-1 1h-2s-5 0-4-1h2zm0 0h-1l5 1a2 2 0 002 0h-1c-2-1-4-2-5-1z"/><path class="ay" d="M756 350h5c1 0 2 2-1 1h-2l-2-1c-2 0-2-1 0 0z"/><path class="av" d="M754 334a43 43 0 000 6c1-1 1-3 4-5h-2l-2-1zm4 1zm-4-1l3 1c2-1 2 0 1 1l-3 4c-2 2-1-6-1-6z"/><path class="aw" d="M754 334v4s0 3 1 2l3-5h-1l-3-1z"/><path class="av" d="M815 336l2-1 2 1a9 9 0 002 1c2 0 1 4 0 3l-4-3-2-1zm0 0c-1 1 2 0 4 2l2 2v-3a9 9 0 01-2 0l-2-1h-2zm6 4"/><path class="aw" d="M815 336l2-1 2 1a5 5 0 002 1c2 0 0 2 0 3l-2-2a10 10 0 00-4-2s-1 0 0 0z"/><path class="av" d="M816 334l5 2h1l-2-1c-1-2 0-3-3-1zm0 0a3 3 0 011-1h3c1 3 2 1 2 3h-1l-5-2z"/><path class="aw" d="M816 334l4 2h2s1-1-1-1c-1 0-1-3-3-2l-2 1z"/><path class="as" d="M792 321v3s0-2 2-3h-2zm0 3v-3h1c3-1 0 1 0 1s-1 3-2 2c0 0 0-4 1-3z"/><path class="ay" d="M792 321l-1 3c0 2 2-2 2-2 1-1 2-1 0-1h-1z"/><path class="as" d="M777 320l-1 3a1 1 0 000 1l2-3a3 3 0 001-1h-2zm0 4v-4h1c3 0 0 1 0 1l-2 3 1-4z"/><path class="ay" d="M777 320l-1 3c0 2 2-2 2-2 1-1 2-1 0-1h-1z"/><path class="av" d="M791 333s-2 2 1 3c2 1-1-4-1-4a3 3 0 00-1 1zm0-1v1a1 1 0 010-1l2 3-1 1c-4-1-1-2-1-3z"/><path class="aw" d="M791 333c0 1-3 2 1 3l1-1-2-3v1z"/><path class="as" d="M837 336l4-3c1-2 1-1 2 0l1 2c0 1-2 0-2 2h-3l-2-1zm0 0l2 1h2l3-2-1-1c-1-2-1-2-2-1l-4 3z"/><path class="ay" d="M837 336c1-1 2 0 4-3 1-2 1-1 2 0l1 1c1 1-2 1-3 3 0 2-2 0-2 0l-2-1z"/><path class="as" d="M819 350c3 1 2 5 3 2 1-2 4-1 3-2l-4-1c-1-1-2 0-2 1zm0 0s0-2 2-1h4c2 2-2 2-2 3-2 3-1 0-4-2z"/><path class="ay" d="M819 350c3 1 2 5 4 2 0-1 3-1 2-2l-4-1c-1-1-2 1-2 1z"/><path class="as" d="M838 350h3c5 0 6 2 3 2l-3-1c-2 0-4 1-3-1zm0 0v1h7a18 18 0 00-4-1h-3z"/><path class="ay" d="M838 350h3s6 1 4 2a7 7 0 00-2-1h-5v-1z"/><path class="av" d="M877 350l3-1 2 1a9 9 0 002 0c2 1 0 4 0 4l-4-3-3-1zm0 0l5 1 2 3v-3a9 9 0 01-2-1l-2-1-3 1zm7 4"/><path class="aw" d="M877 350c1-2 1-1 3-1l2 1a5 5 0 002 1v3l-3-2a10 10 0 00-3-2h-1z"/><path class="av" d="M901 334v2l-2 1c-1 0-9 0-7-2l7-2a7 7 0 012 1zm0 0v-1c-2-1-5 1-7 2-4 2 2 1 3 1h4v-2z"/><path class="aw" d="M901 334v2l-6 1s-5-1-1-2c1-1 5-3 7-2v1z"/><path class="av" d="M893 351l7-2c4 0 0 3-3 3l-4-1zm0 0c4 0 5 1 8-1a4 4 0 00-1 0l-7 1z"/><path class="ay" d="M893 351l6-1h2c-3 2-4 1-8 1z"/><path class="av" d="M896 321l7-1c4 0 0 3-3 3l-4-2zm0 0c4 1 5 2 8 0a4 4 0 00-1 0h-7z"/><path class="ay" d="M896 321h9c-4 3-5 1-9 0z"/><path class="av" d="M920 337h-7c-4 0 0-2 3-2l4 1v1zm0 0v-1c-5-1-5-2-8 1a4 4 0 001 0h7z"/><path class="ay" d="M920 337h-7-2c4-3 5-2 9-1v1z"/><path class="as" d="M771 351c4 0 12 1 14-1 2 0-2-3-4-3h-4c-6 0-4 1-6 3v1zm0 0v-1c2-2-1-3 6-3h4c3 0 7 3 4 4h-14z"/><path class="az" d="M771 351c7 1 19 1 14-2-3-3-4-2-8-2-7 0-4 1-6 3v1z"/><path class="ba" d="M786 350l-1-1c-3-3-4-2-8-2-7 0-4 1-6 2h7c7 4 2-2 6 0a4 4 0 002 1z"/><path class="bb" d="M871 335l3-1 4 1c1 0 2 1 0 1a36 36 0 01-4 0l-3-1zm0 0l3 1h5a5 5 0 00-1 0l-3-2-4 1z"/><path class="az" d="M871 335l3-1c1-1 3 1 4 1 0 0 3 1 0 1a10 10 0 01-2 0h-2a2 2 0 01-1 0l-2-1z"/><path class="bb" d="M874 330l-1 3h1l1 1v-2l-1-2a2 2 0 000-1v1zm0 0l1 1v2c1 2-1 1-1 0h-1l1-3z"/><path class="az" d="M874 330l-1 3h2v-2c-1 0-1 0 0 0l-1-1z"/><path class="bb" d="M872 322l3 1 4-1 1-1a42 42 0 00-6 0l-2 1zm0 0l2-1h6a5 5 0 01-1 0l-4 2-3-1z"/><path class="az" d="M872 322l3 1 4-1s3-2-1-1a12 12 0 00-1 0h-3a3 3 0 00-1 0l-1 1z"/><path class="av" d="M871 336a21 21 0 00-3 0l-4 1a6 6 0 003 1c1 0 6-1 4-2zm0 0c2 1-2 2-4 2a6 6 0 01-3-1c-1-1 2-1 3-1a9 9 0 014 0z"/><path class="aw" d="M871 336h-2a3 3 0 00-2 0 15 15 0 00-3 1h1a4 4 0 003 1c3-1 4-1 3-2z"/><path class="av" d="M880 346a25 25 0 00-2 2l5 2c1-1-2-4-3-4zm0 0c1-1 6 6 2 4-2-2-8-1-2-4z"/><path class="ay" d="M880 346l-3 2 3 1c2 0 4 2 3 0l-3-3z"/><path class="bb" d="M803 321c-7 0-10-1-11 6 0 3 0 9 4 8h9l4-1c7 1 10-2 9-9 0-4-4-3-7-3a31 31 0 00-8-1zm0 0h8c4 1 7 0 7 4 1 7-2 10-9 10h-13c-4 1-5-5-4-8 1-6 4-6 11-6z"/><path class="az" d="M803 321l-8 1c-4 1-5 15 1 13 3-1 7 1 11-1 1 0 12 4 11-8 0-2 0-4-4-4l-11-1z"/><path class="ba" d="M803 321a8 8 0 01-2 0c-2 5-3 2-2 0a12 12 0 00-4 1 3 3 0 00-1 1c-1 5 0 12 3 10 2-2 8 1 8-2 0-6 1-9 2-10a18 18 0 00-4 0zm15 9c-1 0-2-1-5 3-2 3-5 1-3-1 0-1 4-8 0-3-4 6-5 1-4-1l2-7 6 1c4 0 4 2 4 4a13 13 0 010 4z"/><path class="bc" d="M796 322l3-1v2c0 2 0 2 2 1a5 5 0 001-1c0 2-1 3-3 3-2-1-2-3-1-4a6 6 0 01-3 0zm2 0z"/><path class="bb" d="M760 306c-6 0-9-1-10 6-1 2-1 8 4 7h13c7 0 9-3 9-10-1-3-4-3-7-3a30 30 0 00-9 0zm0 0h9c3 0 7-1 7 3 1 8-2 10-9 10h-13c-5 2-5-4-4-7 1-7 4-7 10-6z"/><path class="az" d="M760 306h-7c-4 2-5 16 1 13h10c2-1 12 3 12-9 0-2 0-4-4-4h-12z"/><path class="ba" d="M760 306a12 12 0 01-1 0c-2 5-3 1-3 0a12 12 0 00-3 0 3 3 0 00-2 1c0 5 0 12 3 10 2-2 9 1 8-2 0-6 2-9 3-10a18 18 0 00-5 0zm16 8c-1 0-3-1-5 3-2 3-5 1-4-1 1-1 4-8 1-3-4 6-5 1-4 0 0-1-1-4 1-8l7 1c4 0 4 2 4 4a14 14 0 010 4z"/><path class="bc" d="M753 307l3-1v1c0 2 1 2 2 1a4 4 0 002-1c0 2-2 3-3 3-2 0-2-3-2-4a6 6 0 01-2 0zm3-1z"/><path class="bb" d="M829 335c-7 0-9 0-10-6 0-4 0-5 5-7h9l7 7c1 1 0 5-3 6h-8zm0 0a41 41 0 006 0c5 0 7-5 5-6l-7-8-10 1c-4 2-4 3-4 7 1 6 2 7 10 6z"/><path class="az" d="M829 335c-5 0-6 1-9-2-1 0-2-8 0-9 6-4 5-2 12-3 3 0 5 6 8 8v3c-2 4-7 3-11 3z"/><path class="ba" d="M820 332v-8c6-4 5-2 12-3a3 3 0 012 1c0 1-1 3 2 3a17 17 0 004 4c-4 7-6 2-9 3s-4-2-8 0c-1 1-3 0-3-1zm5-8c-5 0-3 5-1 2l2-1-1-1z"/><path class="bc" d="M826 322h6c2 1 0 2 1 3l2 1c-2 0-3 0-3-2s-5-2-6-2z"/><path class="bb" d="M908 364c-7 0-9 0-9-7 0-3 0-4 4-6h9c2 0 5 5 7 7 1 1 0 4-3 5l-8 1zm0 0a40 40 0 007 0c4-1 6-5 4-6-2-2-4-7-7-8l-9 1c-5 1-5 3-5 6 1 7 3 7 10 7z"/><path class="az" d="M908 364c-4 0-6 0-8-2-1-1-2-8 0-10 5-3 4-1 11-2 3 0 5 6 8 8v3c-1 3-7 3-11 3z"/><path class="ba" d="M899 360c-1-2-1-7 1-8 5-3 4-1 11-2a3 3 0 012 1c0 1 0 3 2 3h1a17 17 0 003 4c-3 7-6 1-9 3-3 1-4-2-7 0l-4-1zm5-7c-4 0-2 5-1 2l2-1-1-1z"/><path class="bc" d="M905 351c2-1 5-2 6 0l2 3 2 1c-2 0-4 0-4-3 0-2-4-1-6-1z"/><path class="bb" d="M859 322c-6 0-15-3-16 6 0 3 1 7 5 6 5 0 20 2 23 0 1-1 6-13-3-13l-9 1zm0 0a78 78 0 0110-1c7 0 4 11 3 13-3 3-20 0-24 1-6 0-7-8-4-11 3-4 10-2 15-2z"/><path class="az" d="M859 322h-13c-5 4-4 14 2 13 4-1 22 2 24-1 2-4 4-13-3-13l-10 1z"/><path class="ba" d="M847 327c5-2 12 0 4 0 0 0-6 2-5 0l1-1zm12-5h-13a8 8 0 00-3 8 3 3 0 003 2l6-1c5 1 8-1 12-4 3-2 9 1 6 1-4 0-9-1-9 5h11c2-4 3-12-3-12l-10 1z"/><path class="bc" d="M854 330l7-3c2-1 6-2 8-1a5 5 0 001 1l-1-1-6 2c-4 2-4 3-9 2z"/><path class="as" d="M843 308l10-1c3 0 15-2 16 1l1 7c1 5-3 4-6 4l-13 1c-5 0-11 1-11-6 1-4 0-4 3-6zm0 0c-3 2-2 3-2 7 1 6 6 5 10 5l13-1c3-1 7 0 6-3l-1-8c-1-2-11-1-13-1l-13 1z"/><path class="ay" d="M843 308l9-1c3 0 16-1 17 1l1 8c1 1 0 3-2 3-5 0-12 2-17 1-2 0-10 1-10-5v-3c0-2 0-3 2-4z"/><path class="au" d="M843 308l9-1c3 0 16-1 17 1l1 8a2 2 0 010 1 39 39 0 01-6 1 4 4 0 01-2 0h-1c-2 0-3-2-2-3l2-1c1 0 0 0 0 0l3-1h2l2-1h-1a7 7 0 01-4 0l-5 1-3 2-8 1c-1-1-5 0-6-2v-2c0-2 0-3 2-4z"/><path class="bd" d="M841 311c1-2 5-2 7-2 4-2 4-2 9-2a17 17 0 017 1h1-2c-5-1-9 0-13 1s-6 0-9 2z"/><path class="as" d="M804 354c0 2 2 9-2 9-5 1-26 2-27-4l1-7h27a9 9 0 011 2zm0 0a5 5 0 00-1-2h-27c-2 1-1 5-1 7 0 6 22 5 27 5 4-1 2-8 2-10z"/><path class="az" d="M804 354c0 2 2 9-2 10-5 0-27 1-27-5 0-8-1-7 13-7h15a6 6 0 011 2z"/><path class="ba" d="M804 354v2a1 1 0 01-1 0c-3-1 0 5-6 1-6 2-6 0-11-2-2-1-5 6 1 3 2-1 1 1 5 1 2 0-2 2-5 2v3c-6-1-12-2-12-5 0-6-1-7 5-7h23a6 6 0 011 2zm1 5c-1-1-3-2-4-1-2 2-4 1-4 1 1 6 2 4-2 5h7c2-1 3-3 3-5z"/><path class="bc" d="M776 354c4-4 3-1 5-1l4-1a58 58 0 0111 1h-12a16 16 0 01-3 1c-3 0 0-2-5 0z"/><path class="av" d="M820 363c1-3 2-10-2-12-2-2-3 0-6 0-3-1-4-1-5 2-3 8 3 13 10 11zm0 0l-3 1c-7 2-14-3-11-11 1-3 3-3 6-2s5-3 7 0 2 9 1 12z"/><path class="aw" d="M820 363c2-3 2-16-6-12-3 1-7-4-8 5-1 8 8 11 14 7z"/><path class="ax" d="M821 355c-1-3-3-6-7-4-3 1-6-3-8 3 2-1 3-2 3 4 0 4-2 0-3-1a7 7 0 002 5 4 4 0 004-2c2-3 7-1 9-5z"/><path class="be" d="M811 360a10 10 0 016-3l2-2v1c-1 2-2 2-4 2l-4 2z"/><path class="av" d="M850 363c0-2 3-10-1-10l-14-1h-8c-3 0-4 0-4 5 0 1-1 5 1 6h6c4 0 7 1 11-1 0 0 8 2 9 1zm0 0c-1 1-8 0-9-1-4 2-7 2-11 1h-7v-8c0-4 2-3 4-4h8l14 1c4 1 1 8 1 11z"/><path class="aw" d="M850 363c1-3 3-11-1-10s-10-2-14-2l-8 1c-2 0-4-1-4 5 0 5-2 7 4 6 3 0 11 1 14-1 1 1 8 2 9 1z"/><path class="ax" d="M851 358c0-3 0-6-2-5l-14-2-8 1c-2 0-4-1-4 5v2c0 2 2 2 2 2 4-3 13 0 13-1 1-2 3-2 0-3l-4-4c-2-3 8 6 10 4 3-3 5 1 7 1z"/><path class="be" d="M839 354l4 2c1 0 5-1 6 1-2-2-4 1-6 1l-4-4z"/><path class="av" d="M885 355l2 7c0 1 9 3 9 1 1-2 2-9 0-10-1-1-13-4-11 2zm0 0c-3-5 8-4 11-3 3 2 2 9 1 11s-8 0-10 0c-2-1-2-7-2-8z"/><path class="aw" d="M885 355l1 5 1 3h9l1-6c1-1 1-4-2-5-7-2-11 0-10 3z"/><path class="ax" d="M897 361v-3c0-2 0-5-2-5-7-2-10-1-10 1l1 5c0 2 6 3 7 1 0 0 2-2 1 1h3z"/><path class="be" d="M888 353h4a8 8 0 014 2l-3-1-5-1z"/><path class="as" d="M902 337c1 3 1 10-2 11l-7 1h-7c-2 0-3-1-5-3-6-5-2-9 5-9l12 1a12 12 0 004-1zm0 0a14 14 0 01-4 1l-12-1c-7-1-11 4-5 10 2 1 3 3 5 2h7l7-1c4-1 3-8 2-11z"/><path class="ay" d="M902 337c1 2 1 11-2 11-2 0-2 2-9 1s-5 2-10-2c-4-4-4-9 2-10 4-1 8 2 14 1l5-1z"/><path class="au" d="M902 337v9l-1-1c-1-1-5 0-6 1-3 1-6-2-9 1-4 5-6-7-5-8 4-3 4-1 6-2l10 1 5-1z"/><path class="bd" d="M881 340c3-4 3-1 5-1l3-1a46 46 0 019 1h-10a13 13 0 01-3 1c-2-1 0-2-4 0z"/><path class="av" d="M816 307l-6 1c-3-1-7-1-9 1l-1 3c-1 2 0 6 1 7 5 2 8 1 13 0a69 69 0 0111 1c1 0 7 0 7-2l-1-10c-1-2-5-2-7-2a54 54 0 00-8 1zm0 0a41 41 0 018-1c2 0 7 0 7 2l1 10c0 3-6 2-7 2a75 75 0 00-11 0c-5 0-8 2-13-1-2-1-2-6-1-8l1-3c1-2 6-1 9-1h6z"/><path class="aw" d="M816 307l-5 1-4-1c-3 0-6-1-6 3-1 2-2 1-1 5 0 4 0 4 3 5 4 2 7 0 11 0h11a22 22 0 006 0c2-1 1-3 1-5v-3c0-5 0-5-6-6l-10 1z"/><path class="ax" d="M809 308a15 15 0 00-2-1c-3 0-6-1-6 3v1c0 2 1 4 3 4h9l2-3h6c3 1 7-2 11-2 0-3-1-3-6-4h-6c-3 3-4 4-10 2h-1zm20 12a6 6 0 01-2-1c-6-3-9-1-16 0-1 0-9-1-8-3 4-1 3 2 9 1 5-1 1-3 11-3l9-2v3c0 1 1 4-1 5z"/><path class="be" d="M831 310c-1-3-1-3-4-3l-8 2a17 17 0 01-5 0l5-1 6-1c2 0 7-1 6 3z"/><path class="av" d="M760 333h6c2 0 7 1 8-1l1-3c1-1 0-7-1-8-5-2-8 0-13 0a69 69 0 01-11-1c-1 0-7 0-7 2l1 10c1 2 5 2 7 2a52 52 0 009-1zm0 0a41 41 0 01-9 1c-2 0-7 0-7-2l-1-10c0-2 6-2 7-2a74 74 0 0011 0c5 0 8-2 13 1 2 1 2 6 1 8l-1 3c-1 2-6 1-8 1h-6z"/><path class="aw" d="M760 333l4-1 4 1c3 0 6 1 7-3v-5c0-4 0-4-3-5-4-1-6 1-11 1l-11-1a23 23 0 00-6 0c-2 1-1 4-1 5v3c0 5 0 6 6 6l11-1z"/><path class="ax" d="M766 333a15 15 0 002 0c3 0 6 1 7-3l-3-4c-4 0-7-2-10-1 0 1 0 3-2 3h-6c-3-1-7 2-11 2 1 3 1 4 6 4h6c3-3 4-4 10-2l1 1zm-20-13a6 6 0 012 1c6 4 9 1 16 0 1 0 9 1 8 4-3 1-3-2-9-1-5 0-1 3-11 3l-9 1v-3c0-1-1-4 1-4l2-1z"/><path class="be" d="M745 331c0 2 0 2 3 2l8-2a17 17 0 015 0l-5 1-6 1c-2 0-7 1-5-2z"/><path class="as" d="M806 335c-4 2-5 1-10 1s-6 3-6 7c-1 4 0 7 4 7h3c5 1 6 2 10-1l12-1c4-12-5-11-12-13a2 2 0 00-1 0zm0 0a1 1 0 011 0c8 2 16 1 12 13-1 2-9 0-12 2-4 2-5 2-10 1l-3-1c-4 1-5-3-4-7 0-5 1-7 6-7l10-1z"/><path class="ay" d="M806 335c-8 3-13-2-15 5-2 4-3 12 4 10 1 0 8 3 12 0 2-2 11 0 12-2 4-12-5-11-12-12a4 4 0 00-1-1z"/><path class="au" d="M806 336h-2a29 29 0 01-3 8 20 20 0 01-3 3l2-4a19 19 0 003-7c-6 1-11-2-12 4-4 11 4 13 11 5 2-3 3-7 5-3l3 7h3c-2-1 1-8-1-11-1-2-5 0-6-3zm-3 15c0-3 3-7 4-1a9 9 0 01-4 1zm14-13c4 4 1 10-1 8-4-4-3-8-1-9a10 10 0 012 1z"/><path class="bd" d="M791 339c-1-2 5-2 6-2a23 23 0 003-1h4l-4 1-7 1-2 1z"/><path class="ay" d="M791 349l8-8c2-2 1-3 2-5a6 6 0 01-2 4l-1 3c-2 3 1 3-1 7v-6c-2 3 0 3-1 6 1-3-1-4 1-6l2-3c-5 3-5 4-9 8zm10-13z"/><path class="as" d="M883 357v6c-3 2-13 1-17 1-3 1-11 3-11-3 0-4-1-2 4-5l9-5c4 0 12 0 14 3a5 5 0 011 3zm0 0l-1-4c-3-3-13-3-16-1l-11 6v5c1 4 8 2 11 2 4-1 14 0 17-2 2-1 1-5 0-6z"/><path class="ay" d="M883 357c0 1 2 5 0 6l-11 1-9 1c-3 1-8 0-8-4 0-2-2-2 3-5l10-5c4 0 16-1 15 6z"/><path class="au" d="M855 358a14 14 0 013-2l10-5c4 0 13-1 15 3 0 3 1 5-7 6h-9l-11-1z"/><path class="bd" d="M861 355c3-2 14-6 18-2h1-1c-5-2-13 1-18 2z"/><path class="as" d="M863 353l4 6c3 2 4 8 2 3-1-3-3-3-4-5-2-3-1-3-2 2l1-4c-1-1-2-1-1-2zM872 320l-1-10c1-4 5-3 9-3 2 0 18-2 18 0l1 7c1 2 1 6-2 6h-25zm0 0h25c3 0 3-4 2-6l-1-7h-17c-6 1-10-2-10 6l1 7z"/><path class="ay" d="M872 320v-10c1-4 2-3 6-3h20l1 7c1 2 1 6-2 6a173 173 0 00-18 0h-7z"/><path class="au" d="M878 307h20a8 8 0 011 2l-2 2c2 3 3 3 1 6-1 3-4 2-4 0-1-4-4-1-7 1h-12c-3 0-3-2-3-4 0-4 2-5 2-5l4-2zm0 4a8 8 0 012-1v-1a1 1 0 01-1 0s-6 3-1 2zm14 5s-3 0-2 2a2 2 0 002-1v-1z"/><path class="bd" d="M884 308l12 1h-1l-11-1z"/><path class="ay" d="M872 316a6 6 0 001-2c2-2 5-1 5-1-1 0-3-1-4 1l-2 2z"/><path class="as" d="M746 365v-10c1-4 4-3 8-3h19l1 7c1 2 1 6-2 6h-14-12zm0 0h26c3 0 2-4 2-6l-1-7h-17c-6 1-10-2-10 6v7z"/><path class="ay" d="M746 365v-9c1-3 3-4 7-4h20l1 7c0 2 1 6-2 6a175 175 0 00-18 0h-8z"/><path class="au" d="M752 352h21a8 8 0 010 2l-1 2c2 3 2 3 1 6-2 3-4 2-5 0 0-4-4-1-6 1h-13c-3 0-2-2-2-4-1-4 2-4 1-5s3-1 4-2zm0 4a8 8 0 012 0l1-1a2 2 0 01-1-1c-1 0-7 3-2 2zm15 5c-1 0-4 0-3 2a2 2 0 003-1v-1z"/><path class="bd" d="M759 353l11 1h-1l-10-1z"/><path class="ay" d="M746 361a6 6 0 002-2c1-2 4-1 5-1h-1s-3-1-4 1l-2 2zM863 353l4 6c3 2 4 8 2 3-1-3-3-3-4-5-2-3-1-3-2 2l1-4-1-1v-1z"/></g></svg>