<svg xmlns="http://www.w3.org/2000/svg" viewBox="0 0 1501 1001"><defs><radialGradient id="b" cx="1050.3" cy="1255.6" r="51.8" gradientTransform="matrix(0 1 1 0 -307 -384)" gradientUnits="userSpaceOnUse"><stop offset="0" stop-color="#c0a373"/><stop offset="1" stop-color="#fff" stop-opacity="0"/></radialGradient><linearGradient id="a" x1="1234.7" y1="773.8" x2="1234.7" y2="679.1" gradientTransform="matrix(1 0 0 -1 -146 1444)" gradientUnits="userSpaceOnUse"><stop offset="0" stop-color="#a0edf0"/><stop offset="1" stop-color="#45dbe2"/></linearGradient><style>.e{isolation:isolate}.b{fill:#70b344;stroke:#5f732e}.aj,.ak,.an,.ao,.aq,.b,.x{stroke-miterlimit:10}.d{fill:#ddc02c}.e{opacity:.25}.aa,.f{fill:#7ebb15}.g{fill:#94d31a}.h{fill:#78a015}.i{fill:#897d6f}.j{fill:#635a52}.l{fill:#91887b}.p{fill:#8ab550}.q{fill:#97c261}.r{fill:#a9d171}.s{fill:#b3db7b}.t{fill:#dcf5f5}.u{fill:#f2ffff}.v{fill:#fff}.w{fill:#fddfb3}.x{fill:#1d150c}.aj,.ak,.an,.ao,.aq,.x{stroke:#1d150c}.y{fill:#81a653}.ad{mix-blend-mode:multiply}.aa{mix-blend-mode:screen}.ab{fill:#bdbdbd}.ac{fill:#d9d9d9}.ad{fill:#cfcfcf}.ae{fill:#cbcbcb}.ag{fill:#c6c6c6}.ah{fill:#e8e8e8}.aj,.ak{fill:#3f2b0f}.ak{stroke-width:1.14px}.an,.ao{fill:#571c10}.an,.ao,.aq,.ar,.as,.at,.au,.av,.aw,.ax,.ay,.az,.ba,.bb,.bc,.bd,.be{fill-rule:evenodd}.ao{stroke-width:1.04px}.aq{fill:#c0a373}.ar{fill:#5c4328}.as{fill:#544730}.at{fill:#877657}.au{fill:#ae9c87}.av{fill:#68543c}.aw{fill:#9d8264}.ax{fill:#b49871}.ay{fill:#8f7e5f}.az{fill:#857c68}.ba{fill:#a59b84}.bb{fill:#67604f}.bc{fill:#bdb29a}.bd{fill:#c1b09a}.be{fill:#cdb186}</style></defs><g style="isolation:isolate"><path class="b" d="M1001 501h250v250h-250zM1251 251h250v250h-250zM1001 251h250v250h-250zM1001 1h250v250h-250zM1251 1h250v250h-250zM751 251h250v250H751zM751 1h250v250H751zM751 501h250v250H751zM501 251h250v250H501zM251 251h250v250H251zM501 501h250v250H501zM251 501h250v250H251zM751 751h250v250H751zM251 751h250v250H251zM1001 751h250v250h-250zM501 1h250v250H501zM1251 501h250v250h-250zM1251 751h250v250h-250zM501 751h250v250H501zM251 1h250v250H251zM1 1h250v250H1zM1 751h250v250H1zM1 251h250v250H1zM1 501h250v250H1z"/><path d="M443 300c2-4 9-3 20-3l28-1 24 2h43c7 0 14 2 21 0h7c2 1 3 6 3 7 0 15 3 30 1 45 0 9-2 33 0 53v38c-3 4-11 2-15 1-8-2-19-2-42-1-19 0-18 2-31 1-15-1-15-4-26-4-15 1-23 9-29 5-2-3-2-7-2-12l1-43v-39c1-13 2-24-1-32l-2-13v-4z" fill="#ffe161"/><path class="d" d="M517 442a2 2 0 01-2-1v-1-2l-1-4a3 3 0 010-1v-5l1 1a7 7 0 00-1-2 2 2 0 002 1 2 2 0 001-1h-4a3 3 0 011-1 27 27 0 000-2v-1-1l1-3a30 30 0 00-1-3l-1-1a2 2 0 011-1v-4l-1-2v-1a3 3 0 012-3 42 42 0 01-2-7l-1-4-1-6 3 4v-4a5 5 0 01-1-1v-6l1-2v-1-2-2l-1-6a1 1 0 010-1 2 2 0 011-1l-1-3a1 1 0 010-2v-2-1-1a1 1 0 010-1l1-3a2 2 0 01-1-1 10 10 0 00-2-5l3-1a2 2 0 00-1 0 4 4 0 010-1v-5l1-4a23 23 0 01-1-3l-1-1v-3-3a3 3 0 011-2l-1-1-5 3 5-5v-4 1-3a20 20 0 010-4v-1a29 29 0 000-5v-5a17 17 0 00-1-4l3-1a19 19 0 012 5l-1 3 1 2a28 28 0 010 4 1 1 0 010 1 13 13 0 000 4v1a14 14 0 000 3 7 7 0 01-1 3 14 14 0 011 3l1 3v1h-1v3h1l-1 1 2 4 1 3-2-1a6 6 0 000 1l1 1v1a2 2 0 01-2 1 10 10 0 002 4h-1v5a30 30 0 010 6 14 14 0 000 2 30 30 0 010 5v1h1v4h-1l1 6a3 3 0 010 1 2 2 0 010 1l-1 5v5l1 1v6l-1 2a3 3 0 01-1 0l1 1a61 61 0 001 7 2 2 0 011 1v4l-1-1a2 2 0 01-1 0v3l1 6v6a5 5 0 010 1 2 2 0 01-1 2v1l2 4a17 17 0 010 5h-1v4h1v2a2 2 0 01-2 1zm-1-36h-1a2 2 0 001 0 2 2 0 001 0 1 1 0 00-1 0zm-2 0h1a2 2 0 01-1 0zm2-75zm-4-17z"/><path class="d" d="M504 443a21 21 0 010-2 2 2 0 011-2v-1-4l-1-8a12 12 0 010-4v-2-3-3a2 2 0 01-1-2 2 2 0 011-1l-1-6v-2a8 8 0 011-2 3 3 0 01-1-1 7 7 0 010-1 1 1 0 011-1v-5-1a2 2 0 01-1-2v-6h1a4 4 0 010-2v-3a3 3 0 01-1 0v-1l1-3a2 2 0 011 0v-1c-3-5-3-8-2-10v-4l-1-5v-4-1a7 7 0 010-1v-8a3 3 0 010-1v-1a17 17 0 000-3 11 11 0 01-1-5 4 4 0 010-1v-1a2 2 0 010-1v-1a2 2 0 010-1v-2a8 8 0 010-3 2 2 0 011-2l-1-9v-1a2 2 0 011-1l-1-6v-3l3-2v2l2 12v7l1 2 4 8-5-5v1-1l-1-1a31 31 0 000 4v3a4 4 0 010 1 11 11 0 000 4l1 5v2a6 6 0 010 1l1 8-2-3 1 1a4 4 0 010 2l-1 1 1 3v4a2 2 0 001 1v1a1 1 0 010 1 2 2 0 01-1 0l1 2v3l-1 1a18 18 0 002 5l1 11-1-1a7 7 0 010 2l-1 4 1-1-1 7v6h1a3 3 0 01-1 1 6 6 0 000 2 2 2 0 010 1l1 7v2h1v1l-1 1v3a22 22 0 010 4l1 6 5 7-6-4 2 6h-1l1 5h-2v1zm0-59h1a3 3 0 00-1 0zm2-1h-1a2 2 0 001 1zm-4-33zM497 441a2 2 0 01-1 0h-1l-1-1a1 1 0 010-2h1l-1-3a3 3 0 011-2l-2-7a1 1 0 011-1l-1-3v-1-1a1 1 0 010-1 16 16 0 011-5 30 30 0 000-4v-1a1 1 0 010-1v-4h-1l1-2a31 31 0 00-1-6v-1a2 2 0 01-1 0v-1-2l-1-5h2v-2-1l-1-2a16 16 0 00-1-7h1l1-1a12 12 0 01-1-2l1-3a11 11 0 00-1-5 2 2 0 010-1 17 17 0 01-1-2 2 2 0 011-2v-2a2 2 0 010-1 28 28 0 010-3 6 6 0 010-3v-1h-1v-3a4 4 0 010-1 5 5 0 000-3 3 3 0 010-3 7 7 0 001-4 5 5 0 01-1-2 12 12 0 000-2h1v-1l1-3v-1a35 35 0 00-3-10l-5-8h1l4 4a2 2 0 011-2 27 27 0 010-8v-9l1 2h1l2 1v6h-1a24 24 0 001 7 4 4 0 011 2 13 13 0 010 3l1 9h-1v-1a68 68 0 011 5l1 4-2-1a5 5 0 011 2h-1a2 2 0 01-1 1v1h1a9 9 0 01-1 6 3 3 0 000 1 8 8 0 010 4 2 2 0 000 1v1l1 3 2 7-1-1h-1l1 3h-1v3a14 14 0 011 8 16 16 0 000 2h-1v1a15 15 0 001 2v1h-1a18 18 0 010 3v1a2 2 0 010 1v2a44 44 0 010 7v1a3 3 0 011 2 3 3 0 010 1 35 35 0 010 3l1 5v6a1 1 0 010 1 29 29 0 01-1 4h1a3 3 0 010 1v1a5 5 0 01-1 1v12l2 6h-1v1a40 40 0 000 4h1l-1 2zm-6-130zm2-14l1 1a2 2 0 001-1z"/><path class="d" d="M486 440a3 3 0 01-3-1v-1h1a3 3 0 011-1v-1a16 16 0 010-3 22 22 0 01-2-5v-4a2 2 0 011-1 12 12 0 010-6l-1-3v-1a1 1 0 010-1v-3a3 3 0 011-1v-1a21 21 0 01-1-4l-1-2-1-4h1v-1l-1-1h3l-1-4a2 2 0 01-1-1l1-3v-1a5 5 0 010-2v-2l1-4-1-2v1l-1-6a4 4 0 01-1-2l-1-5 1-1 2 3v-1-2l-1-4v-1-8l-1-1a5 5 0 01-1-2v-1h1l-1-3h1a8 8 0 000-3l2-1h-2v-1-1a2 2 0 010-1v-2-1a1 1 0 010-1v-1-3a2 2 0 011-2v-1-1a26 26 0 000-6l-1-2a2 2 0 010-2 6 6 0 011-2 4 4 0 000-2l-1-3a2 2 0 011 0 17 17 0 01-1-4l-1-2a3 3 0 010-1 15 15 0 01-1-2l-1-3v-1h1l3 2a3 3 0 011 1h1a13 13 0 010 2 4 4 0 010 1v2l2 4v1a2 2 0 01-1 1v1a6 6 0 010 4 3 3 0 001 2v1h-1v1a27 27 0 011 6v2l-1 2a2 2 0 010 1v2a30 30 0 010 4v6l-1 4v1l1 2a22 22 0 011 5l-1 1v2a23 23 0 011 5v1a31 31 0 002 5l1 1h-1l-2 1v1a41 41 0 012 9v5h-1a10 10 0 010 1v1a6 6 0 000 2l1 1-1 1v1a38 38 0 001 6l2 6-1 1-2-3v4a14 14 0 001 4h-1v3a16 16 0 010 5v1a12 12 0 001 6v1a2 2 0 01-1 2 20 20 0 001 5 4 4 0 011 2h-1a42 42 0 001 4v1h-1a2 2 0 01-2 2zm0-6a3 3 0 002-1zm-2-49a2 2 0 001 0 3 3 0 001 0zm0-59h1zM474 438h-2a3 3 0 011-3 16 16 0 010-2 6 6 0 000-3l3-1a2 2 0 00-2-1 2 2 0 00-1 1 4 4 0 000-1h-1v-2l1-6a14 14 0 010-2v-1l-1-3a34 34 0 010-6 5 5 0 000-1 2 2 0 002 0 2 2 0 002-1h-4a11 11 0 000-3l1-2a16 16 0 00-2-4 2 2 0 011-2 1 1 0 000-1 12 12 0 01-2-3l3-1a22 22 0 00-1-5 2 2 0 01-1-1v-2-1a1 1 0 010-2v-4 1a6 6 0 011-2 2 2 0 000-1 1 1 0 01-1-1l1-6a4 4 0 010-3 16 16 0 00-1-6 22 22 0 01-1-3h2a10 10 0 010-2 21 21 0 00-1-6l-1 1v-3-1a5 5 0 011-3 13 13 0 010-2 13 13 0 010-4 3 3 0 011-2 20 20 0 00-1-5l-2-6 2 2a10 10 0 010-4v-2-2a7 7 0 01-1-2 4 4 0 011-2 33 33 0 010-5v-1l-1-3a49 49 0 010-6h1a5 5 0 00-1-1l4-1c1 2 0 3-1 4l1 4v7-1 5l1 3 1 4-2 1 1 3v1a2 2 0 010 1 11 11 0 010 3v6a2 2 0 01-1 1 17 17 0 001 3 4 4 0 010 1h1v1a2 2 0 01-2 1v1a3 3 0 010 3 23 23 0 011 6h1v1c0 1 1 4-1 5a32 32 0 010 7 2 2 0 001 1l-1 1v5a4 4 0 010 3 5 5 0 000 3 4 4 0 010 4v1a20 20 0 012 6l-1 4a3 3 0 010 1 3 3 0 01-1 2 16 16 0 011 4v5a11 11 0 010 1 5 5 0 010 1 13 13 0 010 2 2 2 0 010 2l1 4a1 1 0 010 1v1a9 9 0 000 3l3 6-4-3v3l1 4a8 8 0 010 3 13 13 0 000 3l2 7zm-1-67a3 3 0 00-1 0h2a3 3 0 00-1 0zm0-75a2 2 0 00-1 0zM467 436h-1v7a3 3 0 01-2 0 2 2 0 01-2-1v-1h1a9 9 0 00-1-4l-5-10h1l4 5a2 2 0 011-1v-1-2a14 14 0 00-2-4 1 1 0 010-1h2v-1h-1a2 2 0 00-1 1v-1a7 7 0 010-2l-4 1v-1l6-4a10 10 0 001-3 37 37 0 00-2-5 13 13 0 010-2h1a5 5 0 000-1h-1a4 4 0 010-1 11 11 0 000-3v-3l-1-2c0-3 0-5 2-6l-1-3v-2a6 6 0 010-2v-2l-1-2a1 1 0 010-1 4 4 0 010-3 2 2 0 011-2 2 2 0 010-1l-1-2v-3-4a2 2 0 010-1v-1-2a3 3 0 010-2 2 2 0 011-2v-2l-1-5h1v-1l-1-3a1 1 0 010-1v-1l-1-4h2v-1h-1a2 2 0 00-1 1 3 3 0 011-2 6 6 0 010-3 15 15 0 00-1-4l-2-2h3a39 39 0 00-1-6 1 1 0 010-2v-1h1l-2-6a1 1 0 011-2 5 5 0 011-3 2 2 0 000-2 4 4 0 01-1-1v-3-2a2 2 0 001 0 2 2 0 002-1h-3-1a2 2 0 012-1 2 2 0 012 1v2l1 2 1 2a4 4 0 01-1 4v4a2 2 0 01-1 0l1 5v12a15 15 0 011 2v4a4 4 0 000 1v1h-2v1a1 1 0 000-1v1h1a3 3 0 010 1v2a34 34 0 011 5v5l1-1v6a1 1 0 01-1 1l2 8v0l-2-1v6a50 50 0 002 5h-1l-2 1h1v7a2 2 0 011 1v7a1 1 0 01-1 1 7 7 0 000 3 26 26 0 011 3v2a13 13 0 010 4 16 16 0 010 2 5 5 0 010 2l1 3v4a9 9 0 01-1 2 11 11 0 01-1 3v3a16 16 0 011 4 23 23 0 002 5l3 9v1l-4-5v-1zm-3 5a2 2 0 00-1 0h2a2 2 0 00-1 0zm-1-36a2 2 0 001 0 2 2 0 002 0z"/><path class="d" d="M456 436a2 2 0 01-3-2v-2-1l-1-4v-2a3 3 0 010-1v-1l-1-1 1-1a3 3 0 011 0v-1a13 13 0 00-2-5l3-2a2 2 0 00-2 1 6 6 0 000-1 5 5 0 011-1l-1-3a11 11 0 000-3 12 12 0 010-2v-1h1v-2a3 3 0 01-1-1v-2l-1-5v-1a2 2 0 01-1 0h1v-1-3l-1-4v-1l-2-5 3 2h1l-1-6-1-3v-1l-2-2h3a2 2 0 011-1 3 3 0 010-1 4 4 0 010-1v-4l-1-4v-2a2 2 0 010-1v-4a14 14 0 010-3 18 18 0 00-2-5l-2-8 3 3a5 5 0 010-1 1 1 0 011 0 24 24 0 00-1-3v-1a3 3 0 01-1-1l-1-3 1-1 1 1h1v-1a20 20 0 00-2-7v-1h1v-2a29 29 0 010-4v-4-2a6 6 0 010-3 8 8 0 010-4 5 5 0 000-2h-1 1c-1-3-1-5 1-5a3 3 0 013 1v2a1 1 0 01-1 1 1 1 0 010 1 9 9 0 010 2 6 6 0 001 4l4 6h-1l-3-2a11 11 0 010 2l-1 2 1 3v3l1 3a2 2 0 01-1 2 19 19 0 010 3 9 9 0 001 3v1h-1v1c0 1 0 0 0 0v1a17 17 0 010 2l1 4a2 2 0 01-1 1h1a1 1 0 01-1 0 6 6 0 000 2 3 3 0 010 2 19 19 0 010 4 9 9 0 001 4l-1 1a18 18 0 001 3h-1a66 66 0 003 7l2 5h-1l-2-1h-1v2a4 4 0 01-1 3 9 9 0 011 3 2 2 0 010 1h-1l2 6v1a1 1 0 01-1 2 3 3 0 01-1 1v1l1 2v2l1 3h-1l1 6h1v3l-1 3a12 12 0 010 4v1a13 13 0 001 1v1l-1 1a7 7 0 01-1 2 15 15 0 011 4v4a6 6 0 010 1v2l1 5 1 1v2a2 2 0 01-2 2zm-3-13zm1-13h1zm-2 0h0zm2-7h1-1zm0-4h1a3 3 0 00-1 0zm-2-43a3 3 0 001 0 3 3 0 001-1zm1-19a2 2 0 00-1 1 3 3 0 001 0 2 2 0 001-1 2 2 0 00-1 0zm-2-40h-1a2 2 0 000 1l1-1zm2-2v1-1zM579 445v-3a2 2 0 011-2v-4c-1-4-2-6-1-8a12 12 0 010-4v-2a1 1 0 010-1v-3-3a2 2 0 01-1-2 2 2 0 011-1l-1-6-1-1h1a8 8 0 010-3 3 3 0 010-1 7 7 0 010-1 1 1 0 010-1v-4-2a2 2 0 010-1v-7a4 4 0 011-2v-3a3 3 0 01-1 0v-1l1-2a2 2 0 010-1v-1c-2-4-2-8-2-10l1-4-1-5-1-4h1a7 7 0 010-1c-2-5-1-7 0-8a2 2 0 010-1 2 2 0 010-1v-1a17 17 0 000-3 11 11 0 01-1-5 5 5 0 010-1v-3-3a9 9 0 010-3 2 2 0 011-2l-1-8v-2a2 2 0 011-1 56 56 0 00-1-6 2 2 0 000-1v-2l2-2 1 2 2 12v7l1 2 4 8-5-5v1l-1-1v-1a31 31 0 000 4v3a4 4 0 010 1 11 11 0 000 4l1 5v2a6 6 0 010 2v7l-1-2a4 4 0 011 3h-1l1 3v4a2 2 0 001 1v1a1 1 0 010 1 2 2 0 01-1 1v2l1 1v2l-1 1a18 18 0 002 5l1 10-1-1a7 7 0 010 2l-1 4v-1 13a3 3 0 010 1 6 6 0 000 3 2 2 0 010 1l1 6v2a5 5 0 010 1h1l-1 1-1 3h1a22 22 0 010 5c0 2-1 3 1 5l4 7-5-4 2 6h-2l1 5h-1v1zm0-60zm2 0h-1a2 2 0 001 0zm-4-33v-1a2 2 0 000 1zM570 441a2 2 0 01-1 0h-1a14 14 0 01-1-1 1 1 0 011-2l-1-3a3 3 0 011-2l-2-7a1 1 0 011-1l-1-3v-1-1a1 1 0 010-1 15 15 0 011-5 29 29 0 000-5 1 1 0 010-1v-4h-2l2-2a31 31 0 00-1-7 2 2 0 010-1l-1-1v-7l1 2v-4l-1-2h1l-2-7h2v-1a14 14 0 01-1-2l1-3a11 11 0 000-5 2 2 0 01-1-1v-2a2 2 0 010-2v-2a2 2 0 011-1l-1-3a5 5 0 010-3v-1l-1-3a4 4 0 010-1 6 6 0 001-3v-3a7 7 0 000-4 5 5 0 010-2 11 11 0 00-1-2h2v-5l-3-10-6-9 6 5a2 2 0 011-2 27 27 0 010-8v-10l1 3a3 3 0 011 0l2 1v4l-1 2a25 25 0 000 7 4 4 0 011 2 13 13 0 011 3v10l-1-2a68 68 0 012 5l1 4-2-1a5 5 0 011 2h-1a2 2 0 01-1 1 3 3 0 000 1 9 9 0 010 6v1a8 8 0 010 4 2 2 0 000 1v1a21 21 0 011 3l2 8-2-3 1 4h-1v3a13 13 0 011 8 18 18 0 000 2h-1a15 15 0 001 3 2 2 0 010 1h-2a18 18 0 011 3v1a2 2 0 010 1v2a42 42 0 010 7v3a4 4 0 010 1 31 31 0 011 3v5a5 5 0 011 1v5a1 1 0 01-1 1 30 30 0 010 4 3 3 0 011 1v2a5 5 0 01-1 0 37 37 0 00-1 4v1l1 1v6l2 6-1 1a40 40 0 000 4h1l-1 2zm-7-130h1a2 2 0 00-1 0zm3-14v1a2 2 0 002-1z"/><path class="d" d="M559 445a3 3 0 01-3-2l1-1a3 3 0 011-1v-1a15 15 0 01-1-3 21 21 0 01-1-4v-4a2 2 0 011-2 12 12 0 01-1-6v-3a1 1 0 010-1v-3a3 3 0 010-2 20 20 0 010-5l-1-2-1-4 1 1-1-1v-2h3l-1-3a2 2 0 01-1-1l1-4a5 5 0 010-3v-1l1-4-1-3v1l-1-5a4 4 0 01-1-2l-1-7 3 3v-2c-2-4-2-4-1-5v-9l-1-1a4 4 0 01-1-2l1-1a22 22 0 00-1-2l1-1a7 7 0 000-2l2-1v-1l-1 1v-1a1 1 0 00-1 1 14 14 0 000-1v-1a2 2 0 010-2v-2-1a1 1 0 010-1v-1-2a2 2 0 011-3 4 4 0 010-1v-1a26 26 0 000-6l-1-2a2 2 0 010-2 7 7 0 011-1 4 4 0 000-3c-1-1-2-1-1-2a2 2 0 011 0 16 16 0 01-1-5l-1-1a3 3 0 010-1 14 14 0 01-1-3l-1-4 4 3a3 3 0 011 1h1a9 9 0 010 1 4 4 0 010 2v2l1 4h1v1a2 2 0 01-1 1 6 6 0 010 4 3 3 0 001 3l-1 1a27 27 0 011 7v1a4 4 0 010 1h-1v2a2 2 0 010 1v2a30 30 0 010 3v6l-1 5v1l1 1v2l1 3-1 1v2a23 23 0 011 6v1a33 33 0 002 5l1 1h-3v2a40 40 0 012 9v5l-1-1a11 11 0 010 2 6 6 0 000 3l1 1-2 1a2 2 0 011 0v1a39 39 0 001 6l2 7-3-3v4a13 13 0 001 4h-1v3a17 17 0 010 5v1a11 11 0 001 5v1h-1v1a2 2 0 01-1 2 20 20 0 002 5 3 3 0 011 1h-1a39 39 0 001 5v1h-1a3 3 0 01-2 2zm0-7a2 2 0 001 0 2 2 0 001 0zm-2-48a2 2 0 001 0 3 3 0 001 0zm0-60a3 3 0 001 0zM548 442h-3a3 3 0 012-3 16 16 0 01-1-2 6 6 0 000-3l3-1a2 2 0 00-1-1 2 2 0 00-2 1 4 4 0 000-1h-1v-2l2-6a14 14 0 01-1-2v-1-3a34 34 0 01-1-6h1a6 6 0 00-1-1 2 2 0 002 0 2 2 0 002-1h-4a11 11 0 000-3l1-2a16 16 0 00-1-4 2 2 0 010-2v-1a12 12 0 01-1-3l2-1a22 22 0 00-1-5 2 2 0 010-1h-1a47 47 0 010-3 1 1 0 010-2v-4 1a6 6 0 011-2 2 2 0 000-1 1 1 0 010-1h-1 1v-6a4 4 0 010-3 16 16 0 00-1-6 21 21 0 01-1-3h2a10 10 0 010-2 21 21 0 00-1-6l-1 1v-3a14 14 0 001-1 5 5 0 010-3 17 17 0 010-2 13 13 0 010-4 3 3 0 011-2 20 20 0 000-5 1 1 0 01-1 0l-2-6 2 2a10 10 0 010-4l1-2-1-2a7 7 0 010-2 4 4 0 010-2 33 33 0 010-5v-1l-1-3a49 49 0 010-6h1a7 7 0 000-1l3-1v8l1 4v3-1 8l1 4-1 1v5a11 11 0 011 3l-1 4v2a2 2 0 010 1 17 17 0 000 3 4 4 0 011 1v1a2 2 0 01-2 1v1l1 2v1a23 23 0 011 6v1c0 1 1 4-1 5a32 32 0 010 7 3 3 0 001 1l-1 1v4a4 4 0 010 4 5 5 0 000 3 4 4 0 010 4v1a20 20 0 012 6v4a3 3 0 01-1 1 3 3 0 01-1 2 15 15 0 011 4l1 4-1 1a7 7 0 010 1 4 4 0 010 1 13 13 0 010 2 2 2 0 010 1l1 5v2a10 10 0 001 3l2 6-4-3v3l1 4a8 8 0 010 3 12 12 0 000 3l2 7zm-2-67a3 3 0 00-1 0h2a3 3 0 00-1 0zm0-75a2 2 0 00-1 0z"/><path class="d" d="M540 433h-1a2 2 0 010 1c0 2 1 5-1 6a3 3 0 01-2 0 2 2 0 01-2-2h2a8 8 0 00-1-4l-6-11 6 6a2 2 0 011-2l-1-2a14 14 0 00-1-5l2-1-1-1a2 2 0 00-1 2v-1-3l-6 2 8-5a10 10 0 001-3 36 36 0 00-2-5 14 14 0 01-1-2h1v-1a3 3 0 010-1 11 11 0 000-4v-2l-1-2v-1l1-5v-3-2-1a6 6 0 01-1-1v-3-2a4 4 0 010-3 2 2 0 010-3 2 2 0 011 0l-1-2v-4-5l-1-2a3 3 0 011-2 2 2 0 010-3v-1-6-3a1 1 0 010-1l-1-2v-3l1-1a2 2 0 00-1 1 3 3 0 011-2 6 6 0 010-3 14 14 0 00-1-4l-3-3 4 1a37 37 0 00-1-6 1 1 0 010-2v-1h1l-2-6v-1a1 1 0 011-1 5 5 0 010-3 2 2 0 001-2 4 4 0 01-1-2l-1-3v-2a2 2 0 002 1 2 2 0 002-1h-4a2 2 0 012-2 2 2 0 012 2v3l1 3a4 4 0 010 3v5h-1l1 5v11a14 14 0 011 3v3a1 1 0 01-1 1 4 4 0 001 1l-2 1v1a1 1 0 001-1 3 3 0 000 1 2 2 0 01-1 0l1 3a33 33 0 011 5v9a2 2 0 01-1 2l3 9-2-3a2 2 0 01-1 1v1l1 4a49 49 0 001 6h-2v2l1 3v3a1 1 0 010 1l1 6v1l-1 1a7 7 0 00-1 3 24 24 0 011 2v1l1 2a13 13 0 010 4 18 18 0 010 2 5 5 0 010 1l1 4v4a9 9 0 01-1 2 10 10 0 01-1 3l-1 3a15 15 0 012 4 22 22 0 001 5l5 11zm-3 5a2 2 0 00-1 0h2a2 2 0 00-1 0zm-2-36a2 2 0 002 0 2 2 0 001-1z"/><path class="d" d="M528 441a2 2 0 01-2-2v-3l-1-5v-2a4 4 0 010-1 4 4 0 010-1l-1-1h1a3 3 0 011-1 13 13 0 00-2-6 1 1 0 01-1 0l4-1a2 2 0 00-2 0 6 6 0 000-1 8 8 0 011-1c-2-2-2-3-1-3a10 10 0 000-3 13 13 0 010-2h1v-3a3 3 0 01-1-1v-2l-2-5v-1h1v-1a89 89 0 01-1-7v-1l-2-5 4 3-2-6v-4l-3-3 4 1v-1a2 2 0 010-1 4 4 0 011-2v-3a76 76 0 01-2-6 2 2 0 011-2v-4a13 13 0 010-2 17 17 0 00-2-6l-3-9 4 5a5 5 0 010-1 2 2 0 011-1 22 22 0 00-1-3 3 3 0 01-1-2l-1-3 3 1a13 13 0 010-2 21 21 0 00-2-7l1-1v-2a32 32 0 010-4v-3-3-3a8 8 0 01-1-4 6 6 0 000-2c0-3 0-4 2-5a2 2 0 012 1 1 1 0 011 1v2a1 1 0 01-1 1 8 8 0 010 2 6 6 0 001 4l4 8-4-4a13 13 0 010 3l-1 2v2h1v6a2 2 0 010 2 19 19 0 010 3 9 9 0 001 3v1h-1a8 8 0 000 1 8 8 0 010 1 19 19 0 010 2v4a2 2 0 010 1 5 5 0 000 2 3 3 0 010 2 19 19 0 010 4 9 9 0 001 5h-1a17 17 0 001 3h-1a64 64 0 003 7l2 6-3-2-1 1a6 6 0 010 1 4 4 0 01-1 3 8 8 0 011 3 2 2 0 01-1 1l2 7a1 1 0 01-1 2 3 3 0 01-1 2 147 147 0 011 7l-1 1 2 5v7a12 12 0 01-1 4 11 11 0 001 2l1 1h-1v1a6 6 0 01-1 1 15 15 0 011 4v4a6 6 0 010 2 2 2 0 01-1 0l1 1 1 5v2a1 1 0 010 1v1a2 2 0 01-2 2zm-2-13zm1-14l1 1a2 2 0 000-1zm-2 0a1 1 0 001 1v-1zm2-6h1-1zm0-5h1a3 3 0 00-1 0zm-2-43a3 3 0 001 0zm1-18a2 2 0 00-2 0h1a3 3 0 002 0 2 2 0 00-1 0zm-3-41a2 2 0 000 1h1zm3-1z"/><path class="f" d="M1185 222c0-7 4-13 10-16s13-2 17 3c4-6 10-10 16-11s14 3 17 9c9 2 15 13 12 22a36 36 0 00-2 4v4c-1 4-3 8-6 11-5 6-13 11-22 14s-19 4-28 1c-7-3-13-11-13-19v-8c0-5-2-9-1-14z"/><path class="g" d="M1193 251l-2-14c1-6 5-12 10-15s14-3 18 2c4-5 9-10 16-10s14 2 16 8a15 15 0 017 3c1-8-5-18-13-19-3-6-10-9-17-9s-12 6-16 11c-4-5-12-6-17-3s-10 10-10 16c-1 5 1 9 1 14v9a21 21 0 007 13 35 35 0 000-6z"/><path class="f" d="M1282 350c8-1 15-9 14-17a14 14 0 007-24c4-3 5-8 3-12s-6-8-10-9a37 37 0 00-37 3 17 17 0 01-4 2 39 39 0 01-4 1c-7 2-10 9-10 16s2 12 5 18c3 7 10 7 16 11 7 5 10 12 20 11z"/><path class="h" d="M1303 308c4-2 5-7 3-12s-6-7-10-9a36 36 0 00-12-3 17 17 0 018 8c1 4 0 10-3 12a14 14 0 01-7 25c1 7-5 15-13 16 3 3 7 6 13 5 8-1 15-9 14-17a14 14 0 007-25z"/><path class="f" d="M1130 303a16 16 0 002 18 27 27 0 00-9 18c-1 6 2 13 7 16 5 2 11 1 17-1-2 4-1 8 1 11a18 18 0 0010 6 23 23 0 0016-1c5-2 8-7 9-13 5 3 11 1 15-2s7-8 8-13c2-6 3-13 1-19s-7-12-13-14c1-3 2-7 0-11-1-3-5-5-8-6-7-3-14-5-22-5s-12 4-19 7c-5 3-11 2-15 9z"/><path class="h" d="M1194 301h1a10 10 0 00-1-2v2zM1207 333c-2 5-5 10-9 13s-10 5-15 3c-1 5-4 10-9 12a23 23 0 01-16 1 18 18 0 01-10-6c-2-3-3-7-1-11-6 2-12 4-17 1-4-2-6-6-7-10a27 27 0 000 3c-1 6 2 13 7 16 5 2 11 1 17-1-2 4-1 8 1 11a18 18 0 0010 6 23 23 0 0016-1c5-2 8-7 9-13 5 3 11 1 15-2s7-8 8-13a34 34 0 002-15 37 37 0 01-1 6zM1132 312a15 15 0 01-3-6 16 16 0 000 9 28 28 0 013-3z"/><path class="f" d="M1136 231c-1 1-3 3-3 5s1 5 3 5a25 25 0 00-15 19 37 37 0 001 12c1 5 3 10 8 10a10 10 0 013 0c2 0 2 3 3 5a18 18 0 0031 7 5 5 0 012-2l4 1a23 23 0 0035-12 23 23 0 00-4-41c3-3 4-7 2-11s-5-7-8-8a25 25 0 00-14-3 19 19 0 01-5 1 20 20 0 01-4-1 24 24 0 00-21 3l-7 5c-5 1-7 1-11 5z"/><path class="h" d="M1218 259a24 24 0 00-9-16 22 22 0 012 5 24 24 0 01-11 22 23 23 0 01-35 13l-4-2a5 5 0 00-2 2 18 18 0 01-18 7 17 17 0 01-5-3 18 18 0 0031 7 5 5 0 012-2l4 1a23 23 0 0032-7 23 23 0 003-5 24 24 0 0010-22z"/><path class="g" d="M1142 250c-6 1-11 7-9 13s7 10 13 9c2 0 4 0 5-2a8 8 0 001-4 37 37 0 000-8 9 9 0 009-6c1-3 1-7 4-8h5c2 0 4-2 5-4s2-4 1-6c-1-3-5-4-8-4l-14 1c-7 0-7 2-9 7-2 4-6 7-3 12z"/><path class="f" d="M1217 295c-2 0-4 0-6 2s-2 4-1 5a25 25 0 00-23 5 37 37 0 00-7 11c-3 4-4 9 0 12a10 10 0 012 2c1 1 0 4-1 6a18 18 0 0019 25 5 5 0 013 0c2 0 2 2 3 3a23 23 0 0035 13 23 23 0 0022-34c4 0 8-3 9-7s1-9-1-12a25 25 0 00-10-11 20 20 0 01-3-2 21 21 0 01-3-4 24 24 0 00-18-10c-4-1-5 0-9-2-3-2-6-3-11-2z"/><path class="h" d="M1262 369a24 24 0 004-18 22 22 0 01-3 4 24 24 0 01-21 10 23 23 0 01-35-12l-3-4a5 5 0 00-3 0 18 18 0 01-17-6 17 17 0 01-3-5 18 18 0 0019 25 5 5 0 013 0c2 0 2 2 3 3a23 23 0 0035 13 24 24 0 0021-10z"/><path class="g" d="M1211 320c-5-3-13-1-15 4s-1 12 4 16c1 1 4 2 5 1a8 8 0 004-2 36 36 0 005-7 9 9 0 0011 2c2-2 5-5 8-4l3 4c2 1 5 0 7-1s4-2 5-4c1-3-2-6-5-8l-10-8c-6-5-7-3-12 0-4 2-10 1-10 7z"/><path class="f" d="M1244 225c-2 0-4 0-6 2s-2 4 0 5a25 25 0 00-24 5 37 37 0 00-7 11c-2 4-4 9 0 12a10 10 0 012 2c1 1 0 4-1 6a18 18 0 0019 25 5 5 0 013 0c2 0 2 2 3 3a23 23 0 0035 13 23 23 0 0023-34c4 0 7-4 8-7s1-9-1-12a25 25 0 00-10-11 20 20 0 01-3-2 21 21 0 01-3-4 24 24 0 00-18-10c-4-1-5 0-8-2-4-2-7-3-12-2z"/><path class="h" d="M1289 299a24 24 0 004-18 21 21 0 01-3 4 23 23 0 01-21 10 23 23 0 01-35-12l-3-4a5 5 0 00-3 0 18 18 0 01-17-6 17 17 0 01-3-5 18 18 0 0019 25 5 5 0 013 0c2 0 2 2 3 3a23 23 0 0029 15 23 23 0 006-2 24 24 0 0021-10z"/><path class="g" d="M1236 243c-5-3-12-1-15 4s-1 12 4 16c2 1 4 2 6 1a8 8 0 003-2 38 38 0 005-7 9 9 0 0011 1c2-1 5-4 8-3l3 3c2 2 5 1 7 0s4-2 5-4c1-3-2-6-5-8l-10-9c-6-4-7-2-12 1-4 2-9 1-10 7z"/><path class="f" d="M1163 278a18 18 0 00-6 5c-4 6-2 12 0 18-7 2-9 13-5 19s14 8 21 5a24 24 0 0035 0 24 24 0 003-4l3-3a9 9 0 013 0 13 13 0 0011-5 21 21 0 003-12 26 26 0 011-6l2-4a17 17 0 00-3-16 21 21 0 00-14-8 19 19 0 00-16-10c-10-1-13 5-18 11-5 5-14 6-20 10z"/><path class="g" d="M1168 311c-2-6-4-13-1-18a19 19 0 017-6c6-3 15-4 19-9 6-6 9-12 19-12a20 20 0 0115 11 22 22 0 018 2 18 18 0 00-3-6 21 21 0 00-15-8 19 19 0 00-16-10c-9-1-13 5-18 11-5 5-14 6-20 9a19 19 0 00-6 6c-4 5-2 12 0 18-7 3-9 13-5 19a16 16 0 009 6c-1-6 2-11 7-13z"/><path class="h" d="M1231 275a18 18 0 00-2-2 15 15 0 01-1 7l-1 4a26 26 0 00-1 6 22 22 0 01-4 11 13 13 0 01-10 6 9 9 0 00-4 0l-3 3a24 24 0 01-37 4c-6 2-13 1-18-3a13 13 0 002 9c5 6 14 8 21 5a24 24 0 0034 0 24 24 0 003-3l3-4a9 9 0 014 0 13 13 0 0011-5 21 21 0 003-12 26 26 0 011-6l2-4a17 17 0 00-3-16z"/><path class="f" d="M1210 269c-5 2-10 6-12 11s-1 13 4 16c0 3 0 8 2 11 2 2 6 3 9 3 5 1 12 0 14-5a15 15 0 0024-7 33 33 0 012-5l2-3a10 10 0 00-9-15 12 12 0 00-6-9c-4-2-8 0-13 0-6 1-11 0-17 3z"/><path class="h" d="M1255 281a10 10 0 00-5-5 10 10 0 01-1 3l-2 3a33 33 0 00-1 5 15 15 0 01-25 7c-2 4-8 5-13 5a20 20 0 01-6-1c0 3 0 6 2 9s6 3 9 3c5 1 12 0 14-5a15 15 0 0024-7 33 33 0 012-5l2-3a10 10 0 000-9z"/><path class="i" d="M255 188a59 59 0 00-6-2c-8-3-23-11-31-11-2 0-9 1-15 14-3 7-3 15-2 22 1 14 13 61 15 67 3 7 6 16 12 22l8-1-1-2c-6-11-14-49 5-54a53 53 0 017-3l20-9h1l1-1c-1-5-3-10-6-14-5-6-13-5-20-5-5 0-9 1-11 3s-3 0-2-2c1-3 4-2 6-4s2-6 4-7 5 0 9-2c6-3 15 5 21 8a34 34 0 013 2 118 118 0 00-18-21z"/><path class="j" d="M269 230l-1 1zM268 231h-1z"/><path d="M189 170c-10 5-18 12-27 18-8 7-18 13-25 20l-2 2c13-6 20-6 34-12l15-9c-6 19-2 52 6 68 1-5 2-10 0-24-1-10-3-24-2-30 3-10 11-20 17-28 8-10 17-3 20-2a148 148 0 0022 8l-6-4c-15-11-35-16-52-7z" fill="#bab2a8"/><path class="l" d="M225 173c-3-1-12-8-20 2-6 8-14 18-17 28-1 6 0 20 2 30 2 14 1 19 0 24-8-16-12-49-6-68l-15 9c-14 6-21 6-34 12-5 7-7 15-7 24 0 15-1 42 4 49a21 21 0 003 3c-2-4 1-10 4-16 6-11 12-22 22-30l7-12c-1 10-8 21-13 30l-8 15c-4 6-5 11-4 18a61 61 0 007 3c-1-8 4-13 10-17 4-3 9-3 14-5 3-2 6-3 10-3 9 0 11 5 17 12 3 3 7-2 8-5s3-4 5-5c-4-15-12-49-13-60 0-7-1-15 2-22 6-13 13-14 15-14 9 0 23 8 31 11a58 58 0 016 2l-8-7a148 148 0 01-22-8z"/><path class="j" d="M171 209c-5 2-11 3-15 6-3 2-4 5-5 9-2 4-6 6-9 10-5 7-6 17-7 26 0 5-3 15 3 18a1 1 0 001 0c4-11 10-20 17-29 5-5 11-14 12-21 1-1 3-12 7-18 2-3-3-1-4-1z"/><path class="i" d="M168 228l-7 12c-10 8-16 19-22 30-3 7-6 12-4 16a30 30 0 008 5c-1-7 0-12 4-18l8-15c5-9 12-20 13-30z"/><path class="j" d="M214 271c-2 1-4 2-5 5s-5 8-8 5c-6-7-8-12-18-12l-9 3c-5 2-10 2-14 5-6 4-11 9-10 17h1c6-10 18-10 29-9 5 0 10 1 14 5 4 3 9 5 13 4 4-2 7 2 10 6h11c-6-6-9-15-12-22l-2-7zM273 209a38 38 0 00-3-2c-6-3-15-11-21-8-4 2-7 1-9 2s-2 5-4 7-5 1-6 4c-1 2 0 4 2 2s6-3 11-3c7 0 15-1 20 5 3 4 5 9 6 14l-1 1h-1l-20 9a52 52 0 00-7 3c-19 5-11 43-5 54l1 2 8-1a72 72 0 0014-5c13-18 13-62 14-62 1-2 4-3 6-4h2v2c4 11 9 33 9 48a20 20 0 005-5s0-9-3-23-14-34-18-40z"/><path d="M280 229v-2h-2c-2 1-5 2-6 4 0 0-1 44-14 62 9-3 19-1 24-3 6-3 10-7 9-10 1-14-7-40-11-51z" fill="#4f463f"/><path class="i" d="M207 294c-4 1-9-1-13-4-4-4-9-5-14-5-11-1-23-1-29 9a423 423 0 0067 6c-4-4-7-8-11-6z"/><path class="l" d="M272 225l-6-1c-4 1-8 5-18 6-7 0-14 0-19 4-3 2-3 3-4 6-3 5-6 5-7 8s2 9 2 12h1c3-6 7-13 12-17 4-2 8-4 18-5 7-1 11-4 17-5 8-1 7-5 12-6l-8-2z"/><path d="M1079 654c7-6 19-26 59-3 25 14 11 54 31 49 27-7 47 24 21 49s-38 20-66 6c-10-4-16-8-31-6s-21 24-50 27-74-30-51-49 25-28 18-46 29-41 44-27 18 4 25 0z" fill="#45dbe2"/><path d="M1139 744c-12 0-42-7-50-5s-32 7-38 20-55 5-56-12 5 2 17-20c11-20 12-27 12-33a6 6 0 01-3-3c-2-5 3-10 12-13s15-1 17 3a6 6 0 01-1 5h1c10 0 38-19 45-15s-19 11-10 18 32-8 39 0-20 7-14 13 23 2 26 6-6 5-2 8 10-2 15 2-23 6-19 12 21 14 9 14zm44-14c-2-5-11-7-20-4s-16 10-14 15 11 7 20 3 16-9 14-14z" transform="translate(1 1)" fill="url(#a)"/><path class="p" d="M1119 719c3-6 0-13-5-15-6-3-15 0-16 3 1 2 9 5 8 5l-9-3c-1 1-2 10 7 15a11 11 0 0015-5z"/><path class="q" d="M1098 710a35 35 0 013 1l6 2-4-3a24 24 0 01-4-3c1-3 9-5 14-3 6 3 8 9 6 15a11 11 0 01-7 5 10 10 0 01-8-1c-7-4-7-12-6-13z"/><path class="r" d="M1098 711l3 1c4 2 5 2 6 1s-1-2-4-4a36 36 0 01-3-2c1-2 8-5 13-2 5 2 8 8 5 13a10 10 0 01-6 6 10 10 0 01-8-1c-6-4-6-10-6-12z"/><path class="s" d="M1102 707c2-2 7-3 10-1 5 2 7 7 5 12a9 9 0 01-5 4 8 8 0 01-7 0 11 11 0 01-6-9h1c5 2 7 3 8 1v-1c2-2-1-3-4-5l-2-1z"/><path class="p" d="M1125 685c2-4 2-9-2-12-3-2-10-2-11 1l5 4-6-3s-3 6 2 10a8 8 0 0011 0 4 4 0 001 0z"/><path class="q" d="M1111 675l3 2c2 2 3 2 3 1l-2-2a18 18 0 01-2-2 1 1 0 010-1c1-1 7-2 10 1a8 8 0 011 10 7 7 0 01-5 3 7 7 0 01-5-2c-5-4-3-9-3-10z"/><path class="r" d="M1112 676l1 1 4 2c1-1 0-2-2-4l-2-1c2-2 7-2 10 0a7 7 0 011 10 7 7 0 01-5 3 7 7 0 01-5-2c-4-4-3-8-2-9z"/><path class="s" d="M1115 674c2-1 5-1 7 1a6 6 0 011 9 6 6 0 01-4 2 6 6 0 01-5-2 8 8 0 01-2-7l1 1 5 2v-1c1-1 0-2-2-4a13 13 0 01-1-1z"/><path class="p" d="M1045 729a12 12 0 0016 0c4-4 4-13 1-15-2 0-7 6-7 5-1-1 5-6 5-7s-8-5-15 1c-5 4-5 11 0 16z"/><path class="q" d="M1059 712l-2 3-3 4c1 1 2 0 4-2a23 23 0 013-3 1 1 0 011 0c2 3 2 11-2 15a11 11 0 01-15-1 12 12 0 01-4-8 9 9 0 014-7c6-5 13-2 14-1z"/><path class="r" d="M1059 712l-2 2c-3 4-4 5-3 6s2 0 5-3l2-2c2 2 3 10-1 13a10 10 0 01-15 0 11 11 0 01-3-8 9 9 0 013-7 11 11 0 0114-1z"/><path class="s" d="M1061 717c1 3 1 8-2 10a9 9 0 01-13 0 10 10 0 01-2-6 8 8 0 012-6 10 10 0 0110-2c-4 4-5 5-3 7v1c2 2 4 0 7-3l1-1z"/><path class="p" d="M1058 693a8 8 0 00-6 10c2 4 7 7 10 6l-1-6 2 5c1 1 6-3 5-9-1-5-6-7-10-6z"/><path class="q" d="M1064 708a23 23 0 01-1-2l-2-4v4a16 16 0 010 2c-2 1-7-2-8-5a8 8 0 015-9 8 8 0 016 0 7 7 0 014 5c1 5-3 9-4 9z"/><path class="r" d="M1064 707l-1-2-2-3-1 4a22 22 0 011 2c-2 1-7-2-8-5a7 7 0 015-9 8 8 0 016 1 6 6 0 013 4 8 8 0 01-3 8z"/><path class="s" d="M1060 707c-2 0-5-2-6-4a6 6 0 015-8 7 7 0 015 0 5 5 0 012 4 7 7 0 01-2 7v-1l-3-4h-1c-2 1-1 2-1 5l1 1z"/><path class="t" d="M1063 717a8 8 0 01-5-3 7 7 0 0110 1 8 8 0 01-5 2zM1053 716a8 8 0 01-5-3 7 7 0 0110 1 8 8 0 01-5 2z"/><path class="t" d="M1055 719a8 8 0 013-5 7 7 0 01-1 10 8 8 0 01-2-5zM1056 709a8 8 0 012-5 7 7 0 010 10 8 8 0 01-2-5z"/><path class="t" d="M1063 712a8 8 0 01-5 2 8 8 0 012-5c2-2 5-2 5-2a8 8 0 01-2 5zM1056 719a8 8 0 01-6 1 7 7 0 018-6 8 8 0 01-2 5z"/><path class="t" d="M1059 719a8 8 0 01-1-5 7 7 0 016 7 8 8 0 01-5-2zM1053 712a8 8 0 01-2-6 7 7 0 017 8 8 8 0 01-5-2z"/><path class="u" d="M1063 715a7 7 0 01-5-1 6 6 0 019-3 8 8 0 01-4 4zM1054 717a7 7 0 01-5-1 6 6 0 019-2 7 7 0 01-4 3zM1057 719a3 3 0 113 4 7 7 0 01-3-4z"/><path class="u" d="M1054 710a3 3 0 115-1 3 3 0 11-5 1z"/><path class="v" d="M1062 711a3 3 0 11-4-2 3 3 0 114 2z"/><path class="v" d="M1057 719a3 3 0 111-5 8 8 0 01-1 5zM1061 718a7 7 0 01-3-4 6 6 0 018 4 7 7 0 01-5 0z"/><path class="v" d="M1053 713a7 7 0 01-3-4 6 6 0 018 5 7 7 0 01-5-1z"/><path class="w" d="M1059 713a2 2 0 01-1 1 1 1 0 111-1z"/><path class="w" d="M1058 715a1 1 0 11-1-1 2 2 0 011 0 2 2 0 010 1z"/><path class="w" d="M1058 715a2 2 0 010-1 1 1 0 011 1 1 1 0 01-1 0zM1057 714a2 2 0 01-1-1 1 1 0 012 1 1 1 0 01-1 0z"/><path class="w" d="M1059 714a2 2 0 01-1 0 1 1 0 011-1 1 1 0 011 0 2 2 0 01-1 1zM1057 715a2 2 0 01-1-1 1 1 0 012 0 2 2 0 01-1 1zM1058 715a2 2 0 010-1 1 1 0 010 1 1 1 0 010 1 2 2 0 010-1z"/><path class="w" d="M1057 713a2 2 0 010-1 1 1 0 011 2 2 2 0 01-1-1z"/><path class="x" d="M1058 713a1 1 0 010 1 1 1 0 010-1zM1058 714a1 1 0 01-1 1 1 1 0 010-1 1 1 0 011 0zM1058 714z"/><path class="x" d="M1057 714a1 1 0 010-1 1 1 0 011 1 1 1 0 01-1 0z"/><path class="x" d="M1058 714a1 1 0 010-1 1 1 0 011 0 1 1 0 01-1 1zM1057 714a1 1 0 011 0 1 1 0 01-1 0zM1058 714a1 1 0 010 1 1 1 0 010-1z"/><path class="x" d="M1057 713a1 1 0 011 0 1 1 0 010 1 1 1 0 01-1-1z"/><path class="p" d="M991 760c3-4 11-8 11-8s-4 8-7 11a21 21 0 01-9 5 21 21 0 015-8z"/><path class="q" d="M989 762c7-9 2 1 2 1s10-6 1 2a13 13 0 01-6 3 16 16 0 013-6z"/><path class="r" d="M989 762c6-7 1 2 1 2s9-6 2 1a11 11 0 01-5 2 14 14 0 012-5z"/><path class="q" d="M991 762v1h1a72 72 0 00-5 5h-1l5-6z"/><path class="p" d="M988 754c5-2 14-2 14-2s-7 5-12 7a21 21 0 01-10 1 21 21 0 018-6z"/><path class="q" d="M986 756c10-5 1 1 1 1s11-1 0 2a13 13 0 01-6 1 16 16 0 015-4z"/><path class="r" d="M986 756c8-5 0 2 0 2s11-2 1 1a11 11 0 01-6 0 14 14 0 015-3z"/><path class="q" d="M988 756l-1 1h1a69 69 0 00-7 3v-1l7-3z"/><path class="p" d="M997 765l3-13 1 14a29 29 0 01-3 9 29 29 0 01-1-10z"/><path class="q" d="M997 768c0-11 2-1 2-1s2-10 1 1a18 18 0 01-2 6 22 22 0 01-1-6z"/><path class="r" d="M997 768c1-9 1 1 1 1s3-11 2 0a15 15 0 01-2 5 19 19 0 01-1-6z"/><path class="q" d="M998 767v1l1-1-1 7a62 62 0 000-7z"/><path class="p" d="M992 748l7 4-8 2c-3 0-6-4-6-4s3-2 7-2z"/><path class="q" d="M990 749c6 0 0 2 0 2s6 4-1 2a6 6 0 01-3-3 8 8 0 014-1z"/><path class="r" d="M990 749c5 0-1 2-1 2s6 3 0 1a5 5 0 01-3-2 7 7 0 014-1z"/><path class="q" d="M990 750v1a24 24 0 00-4-1 14 14 0 004 0z"/><path class="p" d="M1000 760v-8l5 7c1 3-1 6-1 6s-3-1-4-5z"/><path class="q" d="M1001 762c-3-6 2-1 2-1s1-7 2 0a6 6 0 01-1 4 8 8 0 01-3-3z"/><path class="r" d="M1001 762c-2-5 2 0 2 0s1-7 2-1a5 5 0 01-1 4 7 7 0 01-3-3z"/><path class="q" d="M1002 761h1v-1a25 25 0 001 5 14 14 0 00-2-4z"/><path class="p" d="M999 745v8s-3-4-3-7a11 11 0 010-6 11 11 0 013 5z"/><path class="q" d="M999 743c2 6-2 1-2 1s0 7-1 0a7 7 0 010-4 9 9 0 013 3z"/><path class="r" d="M999 743c1 6-2 0-2 0s0 7-1 1a6 6 0 011-4 7 7 0 012 3z"/><path class="q" d="M998 744h-1v1a36 36 0 00-1-5h1a20 20 0 001 4z"/><path class="p" d="M993 745l7 8-10-6a20 20 0 01-5-6 20 20 0 018 4z"/><path class="q" d="M991 743c7 6-1 2-1 2s6 7-1 1a12 12 0 01-3-5 15 15 0 015 2z"/><path class="r" d="M990 744c7 4-1 0-1 0s6 7 0 1a11 11 0 01-3-3 13 13 0 014 2z"/><path class="q" d="M991 745h-1v1l-4-5a40 40 0 005 4z"/><path class="y" d="M990 756a10 10 0 005 0 14 14 0 002-1 13 13 0 00-2 1 11 11 0 00-2 5 10 10 0 004-3 17 17 0 002-3 26 26 0 00-1 4 15 15 0 001 5 15 15 0 001-5v-2a5 5 0 002 2 5 5 0 000-3 9 9 0 00-2-3l1-1-1 1 1-1h-2a13 13 0 000-3 5 5 0 00-1-3 6 6 0 000 3 9 9 0 000 2 20 20 0 00-2-2 9 9 0 00-3-2 10 10 0 002 3l1 1a4 4 0 00-3 0 5 5 0 002 2h-1a10 10 0 00-4 3zm10-3zm0 0z"/><path class="x" d="M1003 751c-1 2-3 3-5 2s0-3 1-5 4-2 5-1 1 3-1 4z"/><path class="x" d="M1003 751c-2 2-4 3-5 2s0-3 1-5 4-2 4-1 1 3 0 4z"/><path class="x" d="M1004 749a2 2 0 110-2 2 2 0 010 2z"/><path class="x" d="M1003 748l3-4-4 4h1z"/><path class="p" d="M1015 777c-3-6-11-12-11-12s3 10 6 15a24 24 0 009 7 24 24 0 00-4-10z"/><path class="q" d="M1017 780c-7-12-3 0-3 0s-10-9-2 2a15 15 0 006 5 18 18 0 00-1-7z"/><path class="r" d="M1016 780c-5-10-1 1-1 1s-9-8-2 1a13 13 0 005 4 16 16 0 00-2-6z"/><path class="q" d="M1014 779v2l-1-1a78 78 0 015 6l-4-7z"/><path class="p" d="M1019 771c-5-4-15-6-15-6s7 8 12 11a24 24 0 0011 3 24 24 0 00-8-8z"/><path class="q" d="M1022 773c-11-8-3 1-3 1s-12-3 0 3a15 15 0 007 2 18 18 0 00-4-6z"/><path class="r" d="M1022 773c-9-7-1 2-1 2s-12-4-2 2a13 13 0 007 1 16 16 0 00-4-5z"/><path class="q" d="M1019 773l1 2-2-1a79 79 0 018 4l-7-5z"/><path class="p" d="M1007 782l-1-16s-3 9-3 15a33 33 0 001 11 33 33 0 003-10z"/><path class="q" d="M1006 785c2-13-1-1-1-1s-1-13-2 1a20 20 0 001 7 25 25 0 002-7z"/><path class="r" d="M1006 785c2-11-1 0-1 0s-1-12-2 0a17 17 0 001 6 22 22 0 002-6z"/><path class="q" d="M1005 783v1l-1-1v8a71 71 0 011-8z"/><path class="p" d="M1017 764c-4 0-10 3-10 3s6 3 10 3 6-3 6-3-3-3-6-3z"/><path class="q" d="M1018 764c-7-1 0 3 0 3s-8 3 0 2a7 7 0 005-2 9 9 0 00-5-3z"/><path class="r" d="M1019 764c-7-1 0 3 0 3s-7 2 0 2a6 6 0 003-2 8 8 0 00-3-3z"/><path class="q" d="M1017 766h1l-1 1a28 28 0 015 0v-1h-5z"/><path class="p" d="M1005 776l1-10-7 7c-2 3 0 7 0 7s4-1 6-4z"/><path class="q" d="M1003 777c4-6-2-2-2-2s0-8-2 0a7 7 0 000 5 9 9 0 004-3z"/><path class="r" d="M1003 777c4-5-2-1-2-1s0-7-2-1a6 6 0 000 4 8 8 0 004-2z"/><path class="q" d="M1002 775l-1 1v-1a27 27 0 01-2 5l3-5z"/><path class="p" d="M1008 758l-1 9 5-7a13 13 0 001-7 12 12 0 00-5 5z"/><path class="q" d="M1009 756c-3 7 2 2 2 2s-1 7 2 0a8 8 0 000-5 10 10 0 00-4 3z"/><path class="r" d="M1010 756c-3 6 1 1 1 1s-1 7 1 1a7 7 0 000-4 9 9 0 00-2 2z"/><path class="q" d="M1010 758l1-1v1a39 39 0 011-5 23 23 0 01-2 5z"/><path class="p" d="M1016 759l-10 8 12-4a23 23 0 007-7 23 23 0 00-9 3z"/><path class="q" d="M1019 758c-10 5 0 2 0 2s-8 7 1 1a14 14 0 004-4 18 18 0 00-5 1z"/><path class="r" d="M1019 758c-8 4 1 1 1 1s-8 7 0 2a12 12 0 004-4 15 15 0 00-5 1z"/><path class="q" d="M1018 760h1l-1 1 6-4a47 47 0 01-6 3z"/><path class="y" d="M1013 769a10 10 0 00-1-1 5 5 0 003-1 5 5 0 00-4-2h1a12 12 0 004-3 11 11 0 00-5 1 23 23 0 00-3 2 11 11 0 001-2 7 7 0 001-3 6 6 0 00-3 2 15 15 0 000 4h-2l1 1-1-1v1a11 11 0 00-2 3 5 5 0 000 3 6 6 0 002-1v2a17 17 0 000 6 17 17 0 002-6 31 31 0 000-4 20 20 0 001 3 12 12 0 004 4 12 12 0 00-1-5 16 16 0 00-2-2 15 15 0 002 1 11 11 0 005 2 12 12 0 00-3-4zm-7-2zm0 0z"/><path class="x" d="M1003 765c1 2 3 3 5 2s1-3 0-5-4-4-5-3-1 4 0 6z"/><path class="x" d="M1003 765c2 2 4 3 5 2s1-3 0-5-4-3-5-2-1 3 0 5z"/><path class="x" d="M1003 762a2 2 0 003-2 2 2 0 00-3 0 2 2 0 000 2zM1004 761l-3-5 3 5zM1002 771l4-2c0-1-1-3-3-3s-4 0-4 2 1 2 3 3z"/><path class="x" d="M1003 770c1 1 3 0 3-1l-3-3c-2-1-3 1-3 2l3 2z"/><path class="x" d="M1001 770a1 1 0 10-1-2 2 2 0 001 2zM1001 768l-5-1 5 1z"/><path class="f" d="M855 361c14-13 31-6 68 11s49 18 59 19 44 28 62 32l22 5 5 11s-5 11-47 14-61-4-92 15-58 19-95 12-52-9-60-12 16-14 51-11 46-4 41-7-14 2-38 0-65-17-65-17 75-59 89-72z"/><path d="M1044 423c-18-4-51-31-62-32s-22-1-59-19l-20-9c1 1 34 19 43 26 10 8 11 17 28 22a43 43 0 0128 25c3 7-24 4-42 12s-33 23-49 30a108 108 0 0021-10c31-19 51-13 92-15s47-14 47-14l-5-11-22-5z" style="mix-blend-mode:multiply" fill="#7ebb15"/><path class="aa" d="M863 424c14-4-7-6-21-11s-17-11 0-11 15-6 10-10-9-14 4-15 10-12 10-16c-1-4 4-6 5-6a24 24 0 00-16 6c-14 13-89 71-89 71s19-8 34-8 49 4 63 0zM886 458c1-12-15-11-27-9 5-1 8-1 10 1 5 3-6 10-41 7-20-2-37 1-45 4a242 242 0 0150 3c27 5 51 6 53-6z"/><path class="ab" d="M147 679l49-4 30 11h12l80 31 57-12 22-12 15-8v-6l-41-33-50-19-39-19-22-3-34 18-33 24-33 10-13 14v8z"/><path class="ac" d="M147 673l49-4 30 11h12l80 30 57-11 22-12 15-8-1-8-40-31-50-19-39-19-22-3-34 18-33 24-33 10-13 14v8z"/><path class="ab" d="M193 641l11 11 32 3 40 12 23 12 39-3 29-16 22-6 1-14-11-9-62-20-28-12-30-3-36 14-16 13-14 7v11z"/><path class="ac" d="M193 635l11 10 32 4 40 12 23 12 39-3 29-16 22-6 1-8-11-15-62-21-28-11-30-3-36 14-16 13-14 7v11z"/><path class="ad" d="M302 646l-21-7-14 3v3l11 6 19 3 8 5h7l9-3 1-5-13-4-7-1zM250 609l-15 2-5 5 2 5 7 1 3-4 7-2 4-4-3-3z"/><path class="ab" d="M261 622l4-19 13-14 2-8 29-3 34 5 27 1 7 7 2 6 7 37-7 3-13 3-28-4-34 4-22-10-17-3-4-5z"/><path class="ae" d="M280 581l1 10 30 14 30-9 8 3 11-3 4-3h3l10-2-7-7-27-1-34-5-29 3z"/><path fill="#898989" d="M341 596l-30 9 2 13-2 6v7l-3 6-4 3 34-4-2-18 2-7-3-3 3 2 3-10v-4z"/><path class="ae" d="M366 636l-2-5-10-3-3-6-2-7 6-9-8 8-1 15-8 7 28 4 13-3-13-1z"/><path class="ag" d="M282 630l4-10v-8l3-4 1-4 1 1 2 8-1 7 1 4-1 4 1 7-11-5z"/><path class="ae" d="M274 599l1-4 6-4-1-10-2 8-13 14-4 19 5-18 8-5z"/><path class="ah" d="M297 592l13 6 12-1 8-1 1-3-8-7-9 2-7-4-9 3-1 5z"/><path class="ad" d="M321 587l-7 1-7-4-9 3-1 5h2l1-3 8-1 4 1 9-2z"/><path class="ab" d="M295 646l-21-7-15 3v3l12 6 19 3 15 5 9-3 1-5v-2l-13-2-7-1z"/><path class="ah" d="M295 644l-21-7-15 3v3l12 6 19 3 15 5 9-3 1-5-13-4-7-1z"/><path class="ab" d="M249 610l-17 1-5 3v2l1 4 8 1 3-4 7-2 3-4v-1z"/><path class="ah" d="M247 607l-15 2-5 5 1 5h8l3-3 7-2 3-4-2-3z"/><path class="ab" d="M363 670l-20 12-8 2v4l10 5 22 2 12-11 8-2 4-10v-4l-12 1-7 5-7-2-2-2z"/><path class="ah" d="M363 668l-20 11-8 2v4l10 5 22 2 12-11 8-2 4-11-12-2-7 5-7-2-2-1z"/><path class="ad" d="M236 649v6l29 9-29-8-32-4v-7zM299 673v6l34 1 10-1 12-6 10 1 7-3 7-5 9-7h7l-6-5 1-14-1 8-22 6-29 16-39 3zM401 671l-10-1v-2l-4 11-8 2-12 11v3l9-4 7-2 8-4 7-9 4-3-1-2zM304 640l29-3 17 3h16l-28-4-2-18 2-7-3-3 3 2 3-10v-4l-30 9 2 13-2 6v7l-3 6-4 3z"/><path style="mix-blend-mode:multiply" fill="#c6c6c6" d="M349 599l8 1-2 6-6 9 2 7 3 6 10 3 2 5 13 1 10 1-3-4-7-37-2-6-10 2h-3l-4 3-11 3z"/><path class="ad" d="M307 584l-4 5v4l4 4-10-5 1-5 9-3z"/><path class="ag" d="M274 599l1 8 2 6v16h1l2-12v-9l3-5 2-5 3-3 4 1-11-5-6 4-1 4z"/><path class="ad" d="M226 680v6l17 2 2-5-7-3h-12z"/><path class="aj" d="M946 607l2-2 1 1 3 1 2 1-1 2-7-3z"/><path class="ak" d="M969 618l1-3 2 1 3 1 2 1-2 3-6-3zM994 630l2-3 1 1 3 1 2 1-1 3-7-3z"/><path class="aj" d="M1009 662l2 1-1 2-1 3-1 2-2-1 3-7z"/><path stroke-width="1.3" fill="#3f2b0f" stroke="#1d150c" stroke-miterlimit="10" d="M998 686l2 2v2l-2 3-1 2-3-1 4-8z"/><path class="ak" d="M986 712l3 1-1 1-1 3-1 2-3-1 3-6z"/><path class="aj" d="M890 673l-2-1 1-2 1-3 1-2 2 1-3 7z"/><path class="ak" d="M900 650l-2-1 1-1 1-3 1-2 2 1-3 6zM912 625l-2-2 1-1 1-3 1-2 3 1-4 7z"/><path stroke-width="1.4" fill="#3f2b0f" stroke="#1d150c" stroke-miterlimit="10" d="M955 726l-2 3h-1l-4-2-2-1 2-3 7 3z"/><path class="ak" d="M931 715l-1 3-2-1-3-1-2-1 2-3 6 3zM907 704l-1 2h-2l-3-2-2-1 2-2 6 3z"/><path class="an" d="M883 691l-1 2 1 1 3 1h1l1 1h3l2-5-4-2-6 2z"/><path class="an" d="M893 692l-1 1-1 2v2l3 2 3 1h3l1-4a15 15 0 000-2l-8-3zM909 700v1l-1 1-1 2 1 1 3 1 1 1 2 1h3l2-4-8-4h-2z"/><path class="an" d="M901 696l-1 2-1 3h1l2 1 1 1 2 1h1l2-1 2-4-7-4-2 1zM935 712l-1 2-1 1v1l1 1 5 2h2v-3l2-1-6-4-2 1z"/><path class="an" d="M925 707l-2 4v1l1 1h1l2 1 2 1 2 1h1l1-1 1-1 1-3-7-4h-3z"/><path class="an" d="M918 704l-1 1-1 3v1l2 1h1l1 1 2 1h1a10 10 0 000-1l2-4-3-2zM948 718l-1 4v1l2 1 1 1 3 1h4v-2l2-2-7-4h-4z"/><path class="an" d="M958 722l-2 4 1 1v1l2 1 2 1 4 1 2 1h3v-2l2-2-10-6h-4zM942 715l-1 1-1 2v1l1 1 1 1 2 1 2 1a11 11 0 001-2l1-3-2-3z"/><path class="ao" d="M974 735l-2-1-2-1h-1v-1l1-2v-1l1-2h1z"/><path class="an" d="M895 688l-1 2-1 2 1 1 3 1 1 1 1 1h2l1-1 2-4-6-4-3 1z"/><path class="an" d="M904 692l-1 1-1 1v2l3 2 3 2h2l1-1 1-3a15 15 0 000-2l-8-3zM932 705l-1 2-1 1v1l2 1 7 4h2v-3l2-1-8-6-3 1z"/><path class="an" d="M921 698l-3 5 1 1v1l2 1 2 1 3 1 1 1h2l1-1 1-1 1-3-8-4-3-2z"/><path class="an" d="M913 694l-2 3-1 2v1l2 1 1 1 2 1 3 1a9 9 0 001-1l2-5-4-1zM890 689v2h1l1 1h3l1-4v-1l-6 2zM950 712l-1 2-1 1-1 2 1 1 3 1 1 1 3 1h2l3-5-9-4h-1z"/><path class="an" d="M959 717l-1 2-1 2v1h1l3 1 1 1h1l2 2h3l2-5-8-5-3 1zM941 709l-1 2-1 2 1 1 3 1 1 1h1l1 1 2-1 2-4-6-4-3 1z"/><path class="an" d="M972 728h-1l-1-1h-2l-1-1v-2l1-2v-1h2zM902 685l-1 2-1 2 1 1 2 1 2 1 1 1h1l2-1 2-4-7-4-2 1z"/><path class="an" d="M910 688l-1 2v1l-1 1v1l4 2 3 2h1l2-1 1-3a15 15 0 00-1-2l-7-3zM939 702l-2 2v1l-1 1 2 1 6 3h2v-3l2-1-7-5-2 1z"/><path class="an" d="M927 697l-2 3v1l1 1 1 1 2 1 4 1 1 1h2l1-1v-1l2-3-8-4h-4z"/><path class="an" d="M918 692a14 14 0 01-1 2l-1 2 1 1 2 1 1 1 2 1 2 1h1a8 8 0 000-1l2-4-4-2zM966 715l-1 2-1 2h-1l-2-1a6 6 0 01-1 0 5 5 0 00-1-1h-1l-1-1a7 7 0 010-1l1-4h5z"/><path class="an" d="M946 709v2l2 1 3 1 2 2 2 1 1-1h1l1-4-5-4-5-2-1 2-1 2zM970 721h-3l-1-1-2-1v-2l2-2 2-1 2 6v1zM896 686l1 2 2 1h2l2-4-1-1-6 2zM904 683v3l3 1 1 1 2 1h1l1-1 2-4-4-3-6 2z"/><path class="an" d="M914 685l-1 1-1 2v2l3 1 4 2h1l1-1 1-3a15 15 0 000-2l-8-3zM930 692v2l-1 1-1 1 1 2 3 1 1 1 2 1h3l2-5-8-4h-2z"/><path class="an" d="M922 689l-1 2-1 2 1 1 2 1 2 1h1l1 1 2-1 2-4-7-4-2 1zM967 714l-1 1-2-1-2-1v-2l1-2v-1l2-1 3 7z"/><path class="an" d="M956 704l-1 2-1 2v1l1 1 5 2h2l1-3 1-1-6-5-2 1z"/><path class="an" d="M946 700l-2 4 1 1 1 1 2 1 3 1h3l1-2 1-2-6-4h-4z"/><path class="an" d="M939 697l-1 1-1 2v2l2 1h1l1 1 2 1h1a11 11 0 000-2l2-3-3-3zM925 684l-1 2v1l-1 1 1 2 3 1 1 1 2 1h3l2-5-8-4h-2z"/><path class="an" d="M934 689l-1 2-1 2 2 1 2 1 1 1h2l2 2h1l1-1 2-5-7-4-4 1z"/><path class="an" d="M944 693l-1 3-1 2h1l3 1 1 1 1 1h3l2-5-6-4-3 1zM917 681l-1 2-1 2v1l3 1 1 1h2l1 1 2-1 2-4-7-4-2 1z"/><path class="an" d="M953 697l-1 1-1 2v2l3 1 3 2h3l1-4a14 14 0 000-2l-8-3z"/><path class="an" d="M965 708h-1l-2-1-1-1h-1v-3l1-1v-2l2 1zM910 682v1l1 1h2l1 1h1l1-1 2-4-1-1-7 3z"/><path class="an" d="M917 679l1 2 2 1 2 1 1-1 2-4-1-2-7 3z"/><path class="an" d="M925 678l-1 2v1l-1 1v1l2 1 1 1 2 1h1l1-1 3-4-7-3h-1z"/><path class="an" d="M932 682l-1 1-1 2v1l1 1 3 1h1l1 1 2 1 1 1 2-1 2-5-8-4-3 1z"/><path class="an" d="M942 686l-1 2-1 3 3 1 1 1 2 1h1l2-1 2-4-7-4-2 1z"/><path class="an" d="M950 690l-1 1v2l-1 1v1l3 1 4 2h1l2-1 1-3a15 15 0 00-1-2l-7-3z"/><path class="an" d="M962 700h-2l-2-1h-1v-1l1-2v-2l1-1h1z"/><path class="an" d="M960 693l-2 1-2-1-1-1-1-1v-1l1-2 1-1 1-1 3 7z"/><path class="an" d="M948 683l-1 2-1 2v1l2 1 5 2h1l1-3 1-1-5-5-3 1z"/><path class="an" d="M938 679l-1 4v1l2 1 1 1 3 1h3l1-2 2-2-7-4h-4zM932 676l-1 1-1 2v2l1 1h1l2 1 2 1a9 9 0 001-2l1-3-2-2zM924 677v1l2 1 2 1h1v-1l1-2 1-1v-2l-7 3z"/><path class="an" d="M953 681l-2 2v1l-1 1-2-1a6 6 0 01-1-1 5 5 0 00-1 0l-1-1h-1v-1a6 6 0 010-1l1-3h5z"/><path class="an" d="M936 677v1l1 1 2 1 2 1h2l1-1 1-3-3-4h-4l-1 1-1 3z"/><path class="an" d="M931 674v2h1l1 1h3l2-4-1-1-6 2zM957 686l-1 1h-2l-2-2h-1v-2l2-3h1l3 6zM950 678h-3l-2-1-3-1v-2l1-3 2-1 7 4z"/><path class="an" d="M942 674l-1 1-2-1-2-1v-1l7-3-1 2-1 3zM954 680l-1 1-3-2v-1l1-2 1-2v-1l3 6-1 1zM952 673l-1 1-3-1v-1l1-2v-3l3 3v3z"/><path class="an" d="M944 670v1l3 1 1-1 1-3v-1l-5 2v1zM1017 642l1-2-3-1-1-1-2-1h-3l-2 5 5 3 5-3z"/><path class="an" d="M1008 641l1-1v-2l1-1v-1l-3-1-4-2h-3l-1 4a15 15 0 001 2l7 3zM991 633l1-1v-1l1-2-1-1-2-1-1-1-3-1h-2l-3 5 9 3h1z"/><path class="an" d="M1000 637l1-2v-3l-3-1-1-1-2-1h-1l-1 1-2 4 6 4 3-1zM966 621l1-1 1-2v-1l-2-1-5-2h-1l-1 3-1 1 5 4 3-1z"/><path class="an" d="M976 626l1-4v-2h-2l-1-1-3-1-1-1-2 1-1 1-2 3 7 4h4z"/><path class="an" d="M983 629l1-1 1-2-1-2-1-1h-1l-2-1-2-1a10 10 0 00-1 1l-1 4 2 2zM952 615l2-3v-1l-1-1-1-1-2-1-2-1h-3l-1 1-1 1-1 2 7 5 3-1z"/><path class="an" d="M943 611l1-4v-1l-1-1h-2l-2-2-3-1-2-1h-2l-1 1-1 1-1 2 9 6h5zM959 619l1-2 1-2v-1l-2-1-1-1-1-1-2-1h-1a11 11 0 000 2l-2 3 3 3z"/><path class="ao" d="M926 598h1l1 1 2 1h1v1l-1 2v3h-2z"/><path class="an" d="M1005 645l1-2 1-2v-1l-3-1-1-1h-2l-1-1-2 1-2 4 7 4 2-1z"/><path class="an" d="M997 642l1-2v-1l1-1v-1l-3-2-4-2h-1l-2 1-1 3a13 13 0 001 2l7 3zM969 628l1-1v-2l1-1-2-1-7-4-1 1-1-1-1 3-1 2 7 5 4-1z"/><path class="an" d="M980 635l2-5v-1l-1-1-1-1-2-1-3-1-2-1h-2v1l-1 1-2 3 8 4 4 2z"/><path class="an" d="M988 639l2-3 1-2-1-1-2-1-1-1-2-1-2-1h-1a7 7 0 000 2l-2 4 4 1zM1011 644v-2h-1l-2-1h-2l-2 4 1 1 6-2zM951 621l1-2v-1l1-1-1-2-2-1-1-1-3-1h-3l-2 5 8 4h2z"/><path class="an" d="M942 616l1-2 1-2-1-1-3-1-1-1h-2l-2-2h-1l-1 1-2 5 7 4 4-1zM959 624l1-2 1-2v-1l-3-1-1-1h-2l-1-1-2 1-2 4 7 4 2-1z"/><path class="an" d="M929 605h1l1 1 2 1h1v1l-1 2v1l-1 2-1-1zM999 648l1-2v-3l-3-1-1-1h-2l-1-1-1 1-2 4 6 4 3-1z"/><path class="an" d="M990 645l1-2 1-1v-2l-3-2-4-2h-1l-1 1-1 3a15 15 0 000 2l8 3zM962 631l1-1 1-2v-1l-1-1-7-3h-1l-1 3-1 1 6 5 3-1z"/><path class="an" d="M974 637l2-4-1-1v-1l-2-1-2-1-3-1h-4l-1 1-1 3 8 5h4z"/><path class="an" d="M982 641a14 14 0 011-2l1-2v-1l-2-1h-1l-2-2-3-1a7 7 0 00-1 2l-1 3 3 2zM935 618l1-2 1-1 1-1 1 1a6 6 0 012 1 4 4 0 001 0l1 1 1 1-2 4h-5z"/><path class="an" d="M955 624v-1l-3-2-2-1-3-2h-3l-2 4 5 4 5 2 2-2 1-2zM931 613l1-1h1l2 1 1 1v2l-1 3h-2l-3-6h1zM1004 647v-2h-1l-1-1h-3l-2 5h1l6-2zM996 650l1-2v-1l-3-1-1-1-2-1h-1l-2 1-2 4 5 3 5-2z"/><path class="an" d="M987 649l1-2v-1l1-1v-1l-3-2-4-2h-1l-2 1-1 3a15 15 0 001 2l7 3zM970 641l1-2v-1l1-1-1-1-2-2-1-1-3-1h-1l-2 1-2 4 9 4h1z"/><path class="an" d="M978 645l2-3v-3l-3-1-1-1h-4l-2 4 6 4h2zM933 619l2-1 2 1 1 1 1 1v1l-1 2-1 1-1 1-3-7z"/><path class="an" d="M945 629l1-2v-2l1-1-2-1-5-2h-1l-1 3-1 1 5 5 3-1z"/><path class="an" d="M955 633l1-4v-1l-2-1-1-1-3-1h-4v2l-2 2 7 4h4zM961 637l1-2 1-2v-1l-1-1-1-1-2-1-2-1a11 11 0 00-1 2l-1 3 2 3zM975 649l1-2 1-1 1-1-1-1-3-2-1-1-3-1h-1l-1 1-3 4 9 4h1z"/><path class="an" d="M966 644l1-2 1-1v-1l-1-1-3-1-1-1h-1l-2-1-1-1-2 1-2 5 8 4 3-1z"/><path class="an" d="M956 640l1-2 1-3-3-1-1-1-2-1h-3l-2 5 7 4 2-1zM984 653l1-3 1-2-1-1-3-1-1-1h-4l-2 4 6 4h3z"/><path class="an" d="M948 636l1-1v-2l1-1v-1l-3-1-4-2h-3l-1 4a13 13 0 001 2l7 3z"/><path class="an" d="M936 626h2l2 1h1v1l-1 2v1l-1 2h-1zM991 651l-1-1-1-1h-1l-1-1h-1l-1 1-2 4 1 1 7-3zM983 654v-1l-2-2h-4l-2 4 1 2 7-3z"/><path class="an" d="M976 655v-1l1-2 1-1-1-1-2-1-1-1-2-1h-1l-1 1-2 4 6 3h2z"/><path class="an" d="M969 652l1-2 1-2v-1l-1-1-3-1h-1l-2-1-2-1h-2l-2 5 7 4h4z"/><path class="an" d="M959 647l1-2 1-3h-1l-3-1-1-1-1-1h-1l-2 1-2 4 6 4 3-1z"/><path class="an" d="M951 643v-1l1-2v-1l-3-2-3-2h-2l-1 1-1 3a15 15 0 000 2l8 3z"/><path class="an" d="M939 633h2l1 1h1l1 1-1 2-1 2v1h-2z"/><path class="an" d="M941 640l2-1 2 1 1 1v4l-1 1-2 1-2-7z"/><path class="an" d="M952 650l1-2 1-2v-1l-1-1-5-2h-2v3l-2 1 6 5 2-1z"/><path class="an" d="M962 654l2-4v-1h-1l-1-1-2-1-2-1h-4l-1 2-1 2 7 4h3z"/><path class="an" d="M969 658l1-2 1-2v-1l-2-1-1-1-1-1-2-1h-1a9 9 0 000 2l-2 3 3 3z"/><path class="an" d="M976 656v-1l-1-1-2-1h-1l-1 1-1 2-1 2v2l7-4zM948 653l1-3 1-1 1-1 2 2a6 6 0 011 0 5 5 0 001 0v1h1l1 1a6 6 0 010 1l-2 4-5-1z"/><path class="an" d="M965 657v-2l-2-1-2-1-1-1h-2l-1 1-2 3 4 4h3l2-1 1-2z"/><path class="an" d="M970 659l-1-1v-1h-2l-1-1h-1v1l-2 4h1l6-2zM944 647l1-1h1l2 2 1 1v1l-1 3h-2l-3-6h1zM950 655h3l3 1 2 1v3l-1 3h-2l-7-4z"/><path class="an" d="M958 659l1-1 2 1 2 1 1 1-8 3 1-2 1-3zM946 653l2-1 2 2h1v1l-1 2-1 2-1 1-2-6v-1z"/><path class="an" d="M948 660l1-1 3 1 1 1-1 2-1 3-2-3-1-3z"/><path class="an" d="M957 663v-1l-3-1h-1l-1 1-1 3v1l6-2v-1zM974 734l2 1 1-1 1-3 1-1v-4l-4-2-3 4 2 6z"/><path class="an" d="M975 725h1l2 1h2l2-3 2-3v-2l-1-1-3-1a15 15 0 00-2 0l-4 8zM983 708h1l1 1 2 1 1-1 1-3 1-1 2-2-1-2v-1l-4-2-4 8v2z"/><path class="an" d="M979 716l3 1 2 1v-1l1-2 1-2 1-1v-3l-5-2-4 7 1 2zM995 682l2 1 1 1h1l1-1 3-5-1-1v-1h-2l-2-2-4 6 1 2z"/><path class="an" d="M991 692l3 2 1-1h1v-1l1-2 2-2v-3l-1-1-1-1-3-1-4 7 1 3z"/><path class="an" d="M987 699l2 1 2 1h1l1-2v-1l2-1v-2-1a12 12 0 00-1 0l-3-2-3 3zM1001 669l4 1h1l1-2 1-1 1-3v-4h-1l-3-2-4 7v4z"/><path class="an" d="M1005 659l4 2 1-1h1l1-2 1-2 2-4v-5h-1l-3-2-5 10-1 4zM998 675l1 1 2 1h2l1-1v-1l1-2 1-2a10 10 0 00-2-1l-3-1-2 2z"/><path class="ao" d="M1018 643l-1 2v2l-1 1h-1l-1-1h-2l-2-1 1-1z"/><path class="an" d="M971 722l2 1h3l1-3 1-1 1-1v-2l-1-1-4-2-4 6 1 3z"/><path class="an" d="M975 714h1l2 1h2l1-3 2-3v-3l-4-1a13 13 0 00-2 0l-3 8zM988 685l2 1 1 1h1l2-2 3-7v-2h-3l-1-2-6 8 1 3z"/><path class="an" d="M981 696l5 3 2-1 1-2 1-2 2-3v-3l-1-1-1-1-2-1-5 8-2 3z"/><path class="an" d="M977 705l3 1 2 1h1l1-2 1-1 1-2 1-3a9 9 0 00-1-1l-5-2-1 4zM973 727h1v-1l1-1 1-1v-1l-1-1-4-1h-1l3 6zM996 667l1 1 1 1 2 1 1-1 1-3 1-1 1-3v-2l-4-3-4 9v1z"/><path class="an" d="M1000 658l2 1 2 1h1v-1l2-3v-1l1-1 1-2v-3l-5-2-4 8v3zM992 676l2 1 3 1v-1l1-3 1-1 1-1v-1l-1-2-4-2-4 6 1 3z"/><path class="an" d="M1011 645v1l-1 1v2l-1 1h-2l-2-1h-1v-2zM968 715l2 1 3 1v-1l1-2 1-2 1-1v-1l-1-2-4-2-4 7 1 2z"/><path class="an" d="M972 707h1l2 1 1 1h1l1-4 2-3v-3l-4-1a15 15 0 00-2 1l-3 7zM985 678l2 2h2l1-1 3-6v-2l-3-1-1-1-5 7 1 2z"/><path class="an" d="M980 690l3 2h2v-1l1-1 1-2 1-4 1-1v-2l-1-1h-1l-2-2-5 8v4z"/><path class="an" d="M976 699a14 14 0 011 1h3l1-2 1-1 1-2 1-2v-1a9 9 0 00-1 0l-3-2-3 4zM998 651l2 1 2 1v1l-1 2a6 6 0 010 1 5 5 0 00-1 1v1l-1 1a5 5 0 01-1 0l-4-1v-5z"/><path class="an" d="M993 671h1l1-2 2-3 1-2 1-2v-1l-1-1-4-1-4 5-1 5 1 1 3 1zM1004 647l1 1-1 2-1 1-1 2h-2l-2-2-1-2 6-2h1zM970 721l1-1 1-2v-2l-4-2-1 1 3 6zM967 713h2l1-3 1-1 1-2v-2l-5-2-3 4 3 6z"/><path class="an" d="M968 703l1 1 2 1h2l1-3 2-4v-2l-4-1a15 15 0 00-2 0l-3 8zM976 687h1l1 1 2 1 1-1 1-3 1-1 1-2v-3l-5-2-3 8v2z"/><path class="an" d="M972 695l2 1 2 1 1-1 1-2 1-2 1-1v-1l-1-2-4-2-4 7 1 2zM998 650v1l-1 2-1 2h-2l-2-1h-1l-1-2 8-3z"/><path class="an" d="M988 661l1 1 2 1h1l1-1 2-5v-2l-3-1-1-1-4 6 1 2z"/><path class="an" d="M983 671l4 2 1-1 1-1 1-2 1-3 1-1-1-1v-1l-1-1-3-1-4 6v4z"/><path class="an" d="M980 678l1 1 2 1h2l1-2v-1l1-1 1-2v-1a11 11 0 00-1 0l-4-2-2 3zM968 692l1 1h1l2 1 1-1 1-3 1-1 1-2v-3l-5-2-3 8v2z"/><path class="an" d="M972 683l2 1 2 1h1v-2l2-2v-1l1-2 1-2v-2l-5-2-4 7v4z"/><path class="an" d="M976 673l3 1h3l1-3v-1l1-1v-3l-4-2-4 6v3zM964 700l2 1 2 1h1l1-3 1-1 1-2v-1l-1-2-4-2-4 7 1 2z"/><path class="an" d="M980 665h1l2 1h2l2-3 1-3v-3l-4-1a13 13 0 00-1 0l-4 8z"/><path class="an" d="M991 653l-1 2v1l-1 1h-2l-2-1h-1v-2zM965 707h2v-1l1-2v-3l-5-2-1 1 3 7z"/><path class="an" d="M963 700l1-1 1-2 1-2-1-1-4-2-1 1 3 7zM961 692l2 1h1l2 1h1l1-2v-1l1-2v-2l-5-3-3 7v1z"/><path class="an" d="M965 685l2 1 2 1 1-1 1-3 1-1v-1l2-2v-3l-6-2-4 8 1 3z"/><path class="an" d="M969 675l3 1 2 1h1v-3l1-1 1-2v-3l-5-2-4 7 1 2z"/><path class="an" d="M973 667l1 1h2l1 1h1l2-3 1-4v-3l-4-1a15 15 0 00-2 1l-3 7z"/><path class="an" d="M984 655v1l-1 1-1 2v1h-1l-2-1h-1l-2-1 1-1z"/><path class="an" d="M977 658v1l-1 2-1 1v1h-2l-2-1-1-1-1-1 8-3z"/><path class="an" d="M967 669l1 1 2 1h1l1-2 2-5v-1l-3-1-1-1-4 5 1 3z"/><path class="an" d="M962 679l4 1h1l1-2 1-1 1-3 1-1-1-2-1-1-3-2-4 7v4z"/><path class="an" d="M959 686l1 1 2 1 2-1 1-1v-1l1-2 1-2a12 12 0 00-1-1l-4-1-2 2z"/><path class="an" d="M960 693h1l1-2 1-2 1-1-2-1h-2l-1-1h-2l3 7zM964 664l2 2h1l1 1-1 2a6 6 0 010 1 4 4 0 00-1 1v1l-1 1a7 7 0 01-1 0l-4-1v-5z"/><path class="an" d="M960 681h1l1-1 1-2 1-2 1-1-1-1v-1l-4-1-3 3-1 4 1 1 3 1z"/><path class="an" d="M957 686h2v-1l1-1v-3l-4-2-1 1 2 6zM970 660v3l-1 2-1 1h-2l-2-2-1-1 6-3h1zM961 667l1 2v1l-2 2-1 3h-2l-3-2-1-1 4-7z"/><path class="an" d="M957 675l1 1-1 2-1 2h-1l-3-7 2 1 3 1zM963 663l1 1-1 3h-2l-2-1-2-1 6-3v1zM957 665l1 1-2 3h-1l-2-1h-3l3-3h4z"/><path class="an" d="M953 673h1l1-3h1l-2-1-3-1h-1l2 5h1zM926 599l-2-1-1 1-1 3-1 1v1l-1 2 1 1 4 2 3-5-2-5z"/><path class="an" d="M925 609l-2-1-1-1h-2l-2 3-2 3v2l1 1 3 1a15 15 0 002 0l3-8zM917 625h-1l-2-1-1-1-1 1-2 3-1 1-1 2 1 2v1l4 2 4-8v-2z"/><path class="an" d="M921 617l-3-1-2-1h-1l-1 3v1l-1 2v3l5 2 4-7-1-2zM905 651l-2-1-1-1h-1l-1 1-3 5 1 1v1h2l2 2 4-6-1-2z"/><path class="an" d="M909 641l-3-2h-1l-1 1-1 1v2l-2 2v3l1 1 1 1 3 1 4-7-1-3z"/><path class="an" d="M913 634l-2-1-2-1h-1l-1 2-1 1-1 1-1 2 1 1a10 10 0 001 0l3 2 3-3zM899 664l-4-1h-2v2l-1 1-1 3-1 1 1 2 1 1 3 2 4-7v-4z"/><path class="an" d="M895 674l-4-2-1 1h-1l-1 2-1 2-2 4v4l1 1 3 2 5-10 1-4zM902 658l-1-1-2-1h-2l-1 1v1l-1 2-1 2a11 11 0 001 1l4 1 2-2z"/><path class="ao" d="M882 690v-1l1-1v-2l1-1 2 1h2l1 1v1z"/><path class="an" d="M929 611l-3-1-2-1v1l-1 3-1 1-1 1v3l5 2 4-6-1-3z"/><path class="an" d="M925 620l-1-1-2-1h-2l-1 3-2 3v3l4 1a15 15 0 002 0l3-8zM912 648l-2-1-2-1h-1l-1 2-3 7v2h3l1 2 6-8-1-3z"/><path class="an" d="M919 637l-5-3-2 1-1 2-1 2-2 3v3l1 1 1 1 2 1 5-8 2-3z"/><path class="an" d="M923 629l-3-2-2-1h-1l-1 2-1 1-1 2-1 3a9 9 0 001 1l5 2 1-4zM927 606h-1l-1 1v1l-1 1v1l1 1 4 1h1l-3-6zM904 666l-1-1-1-1-2-1-1 1-1 3-1 1-1 3v2l4 3 4-9v-1z"/><path class="an" d="M900 675l-2-1-2-1h-1v1l-2 3v1l-1 1-1 2v3l5 2 4-8v-3zM908 657l-2-1-3-1v1l-1 3-1 1-1 1v3l5 2 4-7-1-2z"/><path class="an" d="M889 688v-1l1-1v-3h3l2 1h1v2zM932 618l-3-1-2-1v1l-1 2-1 2-1 1v3l5 2 4-7-1-2z"/><path class="an" d="M928 626l-1-1h-2l-1-1h-1l-1 4-2 3v3l4 1a15 15 0 002-1l3-7zM915 655l-2-2h-2l-2 1-2 6v2l3 1 1 1 5-7-1-2z"/><path class="an" d="M920 643l-3-2h-2v1l-1 1-1 2-2 4v3l1 1h1l2 2 5-8v-4z"/><path class="an" d="M924 634a16 16 0 01-1-1l-2-1-1 1-1 2-1 1-1 2-1 2v1a9 9 0 001 0l3 2 3-4zM902 682l-2-1-2-1v-1l1-2a6 6 0 010-1 5 5 0 001-1v-2h1a7 7 0 011 0l4 1v5z"/><path class="an" d="M907 662h-1l-1 2-2 3-1 2-1 2v1l1 1 4 1 4-5 1-5-1-1-3-1zM896 686l-1-1 1-2 1-1 1-2h1l3 2 1 2-6 2h-1zM930 612l-1 1-1 2-1 1 1 1 4 2 1-1-3-6zM933 620h-3l-1 3v1l-1 2v2l5 2 2-4-2-6z"/><path class="an" d="M932 630l-1-1-2-1h-2l-2 3-1 4v2l4 1a13 13 0 002 0l3-8zM924 646h-1l-1-1-2-1-1 1-1 3-1 1-1 2v3l4 2 4-8v-2z"/><path class="an" d="M928 638l-2-1-3-1v1l-1 2-1 2-1 1v1l1 2 4 2 4-7-1-2zM902 683v-1l1-2v-2h3l2 1h1l1 2-8 3z"/><path class="an" d="M912 672l-1-1-2-1h-1l-1 1-2 5v2h3l1 2 4-6-1-2z"/><path class="an" d="M917 662l-4-2-1 1h-1v1l-1 2-1 3-1 1v1l1 1 1 1 3 1 4-7v-3z"/><path class="an" d="M920 655a17 17 0 01-1-1l-3-1h-1l-1 2v1l-1 1-1 2v1a11 11 0 001 0l4 2 2-3zM932 641l-1-1h-1l-2-1-1 1-1 2-1 1-1 3v3l4 2 4-8v-2z"/><path class="an" d="M928 650l-2-1-2-1h-1v2l-2 2v1l-1 2-1 2v2l5 2 4-7v-4z"/><path class="an" d="M923 660l-2-1-2-1-1 1-1 3-1 1v1l-1 2 1 1 4 2 4-6-1-3zM936 633l-2-1-3-1-1 3-1 1-1 2v1l1 2 4 2 4-7-1-2z"/><path class="an" d="M920 669l-2-1-1-1h-2l-2 3-1 3-1 2 1 1 3 1a15 15 0 002 0l4-8z"/><path class="an" d="M909 681v-1l1-2v-1l1-1h2l2 1h1v2zM935 626h-2v1l-1 2-1 1v1l1 1 5 2 1-1-3-7z"/><path class="an" d="M937 633l-1 1-1 2-1 2v1l5 2 1-1-3-7z"/><path class="an" d="M939 641l-2-1h-1l-2-1h-1l-1 2-1 1v4l5 2 3-6v-1zM935 648l-2-1-2-1h-1v1l-1 3-1 1-1 1-1 2v3l5 2 5-8-1-3z"/><path class="an" d="M931 658l-3-1-2-1h-1l-1 3v1l-1 2v3l5 2 4-7-1-2z"/><path class="an" d="M927 666l-1-1-2-1h-2l-2 3-1 4v3l4 1a13 13 0 002-1l3-7z"/><path class="an" d="M916 678v-1l1-1 1-2v-1h1l2 1h1l2 1-1 1z"/><path class="an" d="M923 675v-1l1-2v-2h3l2 1 1 1 1 1-8 3z"/><path class="an" d="M933 664l-1-1-2-1h-1l-1 2-2 5v1l3 1 1 1 4-5-1-3z"/><path class="an" d="M938 654l-4-1h-2v2l-1 1-1 3-1 1v2h1l1 1 3 2 4-7v-4z"/><path class="an" d="M941 647l-1-1-3-1-1 1-1 1v1l-1 2-1 2a10 10 0 001 1l4 1 2-2z"/><path class="an" d="M940 640h-1l-1 2-1 2-1 1h2l2 1 1 1h2l-3-7zM936 669l-2-2h-2v-1l1-2a6 6 0 010-1 5 5 0 001-1v-1l1-1a7 7 0 011 0l4 1v5zM940 652h-1l-1 1-1 2-1 2-1 1v1h1l4 2 3-3 1-4-2-1-2-1z"/><path class="an" d="M942 647h-1v1l-1 1-1 1v1l1 1 4 2 1-1-3-6zM930 673v-3l1-2 1-1h2l2 2 1 1-6 3h-1zM939 666l-1-2v-1l1-2 2-3h2l3 1 1 2-5 7z"/><path class="an" d="M943 658l-1-1 1-2v-2h2l3 7-3-1-2-1zM936 670v-1l1-3h2l2 1 2 1-6 3-1-1zM943 668l-1-1 2-3h1l2 1h3l-4 3h-3z"/><path class="an" d="M947 660h-1l-2 3 1 1 3 1h2l-2-5h-1z"/><path transform="rotate(-65 950 666)" style="isolation:isolate" opacity=".1" fill="url(#b)" d="M898 614h103v104H898z"/><path class="aq" d="M882 692l8-3 8-3 9-3 12-4 13-5 14-5 4-1-1-2-4 1-14 6-12 4-12 5-10 3-8 2-7 3-1 2zM925 599l2 8 3 7 3 10 5 12 4 12c2 5 4 8 5 14l2 4h1l-1-4-5-14-4-13-5-12-3-9-3-8-2-8-2-1zM1018 641l-8 3-8 3-9 2-12 5-13 4-14 6-4 1 1 2 4-1 14-6 12-4 13-5 9-3 8-2 7-3 1-2zM976 735l-3-8-3-8-3-9-4-12-5-13-5-14-1-4-2 1 1 4 6 14 4 12 5 13 2 9 3 8 3 7 2 1z"/><path class="aq" d="M951 670l-4-2c-1-1 1-4 2-4l4 2v1a6 6 0 01-2 3z"/><path class="ar" d="M203 475h-22l-10-1a13 13 0 01-7-7c-4-7-1-14-1-22a76 76 0 00-1-11 34 34 0 010-6 40 40 0 011-6 22 22 0 000-5v-7l-1-10a4 4 0 010-1l-1-24v-12l1-12a5 5 0 011-1 31 31 0 01-1-5 35 35 0 000-7 38 38 0 01-1-7v-15a12 12 0 011-5 7 7 0 002-1l8-1c2-1 5-4 4-6a8 8 0 002 0 22 22 0 005 0c4 0 7 2 10 3a2 2 0 002-1h1a2 2 0 002 0 10 10 0 004-2 29 29 0 014-1 12 12 0 013 0 19 19 0 016 2 5 5 0 010 5 22 22 0 00-1 10l1 11 1 24v113a8 8 0 01-2 5 8 8 0 01-5 2h-2a3 3 0 01-4 1z"/><path class="as" d="M161 348c0 2-1 5 1 8 1 2 8 1 9 1 2-1 2-10 2-12s0-10-2-10l-6 1c-6 0-4 4-4 8zm4-12l6-1c3 0 2 8 2 10s1 12-2 12c-1 0-8 1-9-1-2-2-1-6-1-8v-4c0-4-2-8 4-8z"/><path class="at" d="M161 344c0-4-2-9 4-8 6 0 8-6 8 8 0 2 1 13-2 13h-6c-3 0-3 0-4-3a9 9 0 010-4 43 43 0 000-6z"/><path class="au" d="M161 350a9 9 0 000 4v1c2 1 7 2 8 1 7-2 0-3 2-5s0-7 0-9c0-4-1-3-3-5l-4-1a3 3 0 00-3 1v7a43 43 0 010 6zm2 2l1-3v3h-1zm6 2h-1s-1-2 1 0zm2-18l1 4c0-2-2-3-3-3-1-1 1-1 2-1z"/><path class="av" d="M163 397h11c3-1 0-5 0-6l-9-1c-7 0-3 6-2 7zm11-5c1 1 3 5 0 5h-12c-2-2-3-8 3-7 2 1 9 0 9 2z"/><path class="aw" d="M165 391h6l3 1c1 1 2 2 1 5h-7c-1 1-5 1-6-1-2-4-1-6 3-5z"/><path class="ax" d="M166 397l-4-1c-2-3-1-5 0-5a18 18 0 002 0l6 1c4-1 2 1 3 2a2 2 0 01-1 2l-3 1a20 20 0 01-3 0z"/><path class="av" d="M192 310l11-3c3-1-1-5-1-5l-9 1c-7 1-2 6-1 7zm10-8c1 1 4 4 1 6-2 0-10 3-12 2s-4-7 2-7c1 0 8-2 9-1z"/><path class="aw" d="M193 303l6-1h3c1 2 2 2 2 5l-7 2c-1 1-5 2-6 1-3-4-2-6 2-7z"/><path class="ax" d="M195 310h-4c-2-3-3-5-1-6h2l6-1c3-1 2 1 3 1a2 2 0 010 3l-3 2a22 22 0 01-3 1z"/><path class="as" d="M199 396c-1 0-6 2-7 1l-1-7-1-4c-3-6 12-10 12-6 0 7 3 7 1 15l-4 1zm3-16c0-3-14 0-12 6l1 7 1 4 7-1 4-1c1-8-1-8-1-15z"/><path class="ay" d="M203 395c2-7-1-9-1-15 0-3-16 0-11 6v7c1 5-1 5 7 3l5-1z"/><path class="au" d="M200 379c-4 0-13 3-9 8v6c1 3 0 4 2 4 0-5 2-3 2-2a3 3 0 011 2l2-1a31 31 0 004 0 5 5 0 00-1-3c-1-1-8-2 1-1 0-4-5-3-5-3-8 0-3-1-1-3 7-4-3 1-3 1-2-2 2-3 3-4 4-2 5-3 4-4z"/><path class="av" d="M203 430a31 31 0 01-1 4c-1 2-8 2-10 1-3 0 0-10 0-12 1-3 0-6 4-6h5c5-1 4 6 3 9l-1 4zm-3-12c-5 1-6-3-7 4 0 2-3 13-1 13 1 0 9 1 10-1l1-4 1-4c1-5 2-10-4-8z"/><path class="aw" d="M204 426c0-2 3-11-4-8-4 1-7-4-7 4 0 3-3 13-1 13 13 1 9 0 12-8a4 4 0 000-1z"/><path class="ax" d="M193 424l-1 4a6 6 0 002-1c1 0 4 4-3 5v1l1 2h3a19 19 0 013-1c3 0 5-4 4-7 0-1 3-10-2-7-2-1-3-2-5 2-3-1 1 0-2 2z"/><path class="av" d="M188 473a32 32 0 01-1 4c-1 2-8 1-10 1-3 0 0-10 0-12 1-4 0-6 4-6h5c5-1 3 6 3 9l-1 4zm-4-12c-5 1-6-4-6 4 0 2-3 12-1 13 1 0 8 1 10-1l1-4 1-4c0-5 2-11-5-8z"/><path class="aw" d="M189 469c0-2 3-12-5-9-4 2-6-3-6 5-1 3-4 13-1 13 13 1 9 0 12-8a4 4 0 000-1z"/><path class="ax" d="M177 467l-1 4a6 6 0 003-1c1 0 4 3-3 5l1 3h2a19 19 0 014-1c3 0 5-4 4-7-1-1 3-10-2-7-2-2-3-2-5 2-3-1 0 0-3 2z"/><path class="as" d="M199 332c-1-2-1-2-3-2-5 1-7 0-6 7 0 10 2 9 9 6 1-2 2-9 0-11zm-9 5c-1-8 1-6 6-7l4 1a1 1 0 010 1c1 0 1 9-1 11-7 4-9 4-9-6z"/><path class="az" d="M199 343c-4 2-8 6-9-2-1-12 0-10 7-11l3 2c1 0 1 10-1 11z"/><path class="ba" d="M196 342c-1-1 0 0 1-3 1-5-1-2-2-8a1 1 0 000-1c-5 1-6 0-5 11 0 4 2 5 4 4 2 0 3-2 2-3zm-3-1h-2c-1-6 1-8 2 0z"/><path class="as" d="M202 463c-2-2-2-2-4-1-5 0-6-1-6 6 1 11 2 10 9 7 1-2 2-10 1-12zm-10 5c-1-7 1-6 6-7l4 2c1 1 1 10-1 12-7 4-9 4-9-7z"/><path class="az" d="M201 475c-4 1-8 5-9-3-1-12 0-9 7-11l3 2c1 0 1 10-1 12z"/><path class="ba" d="M196 477c2-1 3-3 2-4s0 0 1-2c1-6-1-2-2-9-5 0-6 0-5 10 1 5 2 5 4 5zm-1-5c0 2-1 1-1 0-1-6 0-8 1 0z"/><path class="as" d="M194 399c-3 2-3-1-3 6v4c0 3 3 7 4 5 2-3 1-11 1-15h-2zm2 14c-2 4-5-1-6-4l1-4c0-7 0-4 3-7l2 1v14z"/><path class="ay" d="M196 399c1 7 1 19-3 15-3-4-2-5-2-9 0-7 1-4 3-6h2z"/><path class="au" d="M195 415l-2-1c-3-4-2-5-2-9 0-7 0-4 3-6l-1 7c5 7-2 2 1 7a4 4 0 011 2z"/><path class="av" d="M176 348h8c5 0 4-3 3-7 0-1 1-6-2-6l-5 1c-4 0-1 2-3 5 0 2-2 6-1 7zm4-12l5-2c3 0 2 6 3 7 0 4 1 7-4 8l-8-1c-1-1 1-5 1-6 1-4-1-6 3-6z"/><path class="ax" d="M177 342c2-3-2-7 4-6 2 0 7-5 6 4 0 2 4 9-7 8-3 0-6 2-3-5v-1z"/><path class="aw" d="M177 342c2-3-1-6 2-6a6 6 0 001 0h1l3-1c2 1 0 9 2 11 2 0-1 2-2 2a18 18 0 01-4 0 3 3 0 010-3c0-2-1-2-3-3z"/><path class="as" d="M199 329l-7 1c-2-1-2-6-2-7v-4c-3-5 12-9 12-6 0 7 2 8 1 15l-4 1zm3-16c0-2-15 1-12 6l1 7 1 4c1 1 5-1 7-1l4-1c1-7-1-8-1-14z"/><path class="az" d="M203 328c1-7-1-9-1-15 0-3-16 1-12 7l1 6c1 4-1 4 6 3l6-1z"/><path class="ba" d="M193 314l3 2c3-1 4 3 3 4-2 0 1 1-3 2l-2 6a8 8 0 011 1c-5 1-4 1-4-3l-1-6c-2-3 0-5 3-6zm5 15h3a15 15 0 001-2c1-3-1-4-2-3-2 1-3 0-3 2a16 16 0 000 3z"/><path class="bb" d="M188 452l-2 7h-6c-4 0-4-9-4-11 0-5-1-14 5-15 1-1 6 1 7 2l1 13-1 4zm0-17c-6-5-11-3-12 4-1 4-1 21 4 20h6l2-7 1-4c0-1 1-13-1-13z"/><path class="az" d="M189 448l-1-13s-12-9-12 7c0 3-1 18 4 17 7 0 6 2 7-5l2-6z"/><path class="ba" d="M186 434c-3-2-9-3-10 6l1 1a3 3 0 01-1 4c0 4 0 12 3 14 1-2 5 4 7-8 1-5-1-3-3-2-5 2 2-3 3-3 3-5-5-5-2-8l2-4z"/><path class="as" d="M200 398c-3 3-4 0-3 8l1 4c0 4 6 7 7 5 2-3-1-13-2-17h-3zm5 17c-1 4-7-1-7-5l-1-4c-1-8 0-5 3-8h3c1 5 4 12 2 17z"/><path class="ay" d="M203 398c3 8 5 22-1 17-5-3-4-5-5-9-1-8 0-5 3-8h3z"/><path class="au" d="M201 415c-4-3-3-5-4-9v-2a2 2 0 000-2 3 3 0 013-2c4 2-2 7 1 11 3 0 1-5 1-6 2 0 2 9 2 9l-3 1z"/><path class="as" d="M169 460c-6 0-7-3-7 3l-1 3c0 3 8 9 10 9 5-1 3-9 2-13l-4-2zm3 15c-3 2-11-6-11-9v-3c1-7 2-4 8-3 2 0 3 0 4 2 1 4 3 11-1 13z"/><path class="ay" d="M173 462c2 8 2 18-7 10-7-6-5-6-4-9 0-7 2-3 7-3l4 2z"/><path class="au" d="M165 472c-6-6-3-6-3-9a12 12 0 010-2h1c1-2 5 0 6 0 5 4-7 3-3 8 5 2 4-2 4-3 3 2 0 7 0 7l-5-1z"/><path class="av" d="M175 404a3 3 0 001-2v-2l1-2-2 1c-1 0-3-2-2 0l2 4v1zm0-1l-2-4c-2-2 1-1 2-1 0 0 3-2 2 1-1 1-1-1-1 2a1 1 0 010 1l-1 1z"/><path class="aw" d="M175 403l-2-4c-2-2 2-1 2-1h2l-1 3v1l-1 1z"/><path class="av" d="M176 402l1-2c2-4-1-1 0-4s2 0 3 1c4 3 0 3-2 4l-2 1zm0 0l4-2c3-1 0-2-1-4s-2 1-2 1c2 0 0 3 0 4a3 3 0 00-1 1zm0 0z"/><path class="aw" d="M176 402l1-1c0-1 2-4 0-4-1 0 1-3 2-1 1 1 5 3 1 4a21 21 0 00-4 2z"/><path class="av" d="M175 372l1 5c0 2-2 7-2 3v-8h1zm-1 8a4 4 0 001 1c2-4 1-4 0-8l-1-1v8z"/><path class="ay" d="M174 372v7l1 2c2-4 1-4 0-8l-1-1z"/><path class="av" d="M196 311l5-2c2-1 7 1 3 1-2 0-7 2-8 1zm8-1a3 3 0 001 0c-4-2-4-1-9 1 2 1 6-1 8-1z"/><path class="ay" d="M196 311c1 1 6-1 7-1l2-1c-4-2-5 0-9 1v1z"/><path class="av" d="M190 414c-1-6 0-3 1-1 0 3 2 6 1 8s-2 0-2-2v-5zm3 4c-1-2-2-2-2-5s-3-6-2 1a21 21 0 011 5c-1 4 4 3 3-1z"/><path class="ay" d="M190 419c0 1-1 3 1 2 3-1 0-4 0-8 0-2-2-5-1 1a18 18 0 010 5z"/><path class="av" d="M201 416a2 2 0 00-1 0c-3-2-2-3-3-4a22 22 0 00-1 2c0 1 4 3 5 2zm-1-1c4 3-4 1-4-1 1-6 2-1 4 1z"/><path class="ay" d="M196 414l1-3 1 2c1 2 4 3 2 3l-4-2z"/><path class="av" d="M207 476a2 2 0 000-1c-3-2-2-2-3-4a20 20 0 00-1 3l4 2zm0-1c4 3-5 0-4-1 0-6 2-1 4 1z"/><path class="ay" d="M203 474l1-3 1 2c1 2 4 3 2 3l-4-2z"/><path class="av" d="M206 411l1 7c1 2 3-5 3-5v-3l-2-1-2 2zm4 0v3c-1 1-2 6-3 2 0-2-2-5 0-6l1-1c1 1 0 2 2 2z"/><path class="aw" d="M208 409l2 2c1 2 0 2-1 4 0 1-2 5-2 1 0-1-2-5 0-7h1z"/><path class="as" d="M189 320v15c-1 1-1-5-1-6v-9c1-2 1-2 1 0zm-1 0v8a22 22 0 000 2v5c1 0 2-13 1-15s0-2-1 0z"/><path class="az" d="M188 320v9a19 19 0 010 4c0 3 1 4 1-2v-12s0-2-1 0v1z"/><path class="av" d="M195 347a2 2 0 00-1 0l-5-1a22 22 0 001 2c1 1 5-1 5-1zm-1-1c5 0-3 4-4 2-4-5 1-2 4-2z"/><path class="ay" d="M190 348l-1-3 2 1c2 1 5-1 4 1 0 0-4 2-5 1z"/><path class="av" d="M197 346a3 3 0 001 0l6 1a23 23 0 00-1-2c-1-1-6 0-6 1zm2 1c-7 0 3-4 4-2 5 5-1 2-4 2z"/><path class="ay" d="M203 345s2 2 1 3l-2-1c-3-1-7 0-5-2h6z"/><path class="bb" d="M177 338v3a49 49 0 01-2 6c-1 1-2 0-2-2l1-4 2-4a1 1 0 011 1zm-3 3v5a7 7 0 000 1l3-6s1-3-1-4c-1 2 0 3-2 4z"/><path class="az" d="M176 337l-2 4v5s-1 3 1-1a13 13 0 001-2l1-2a3 3 0 000-1l-1-3z"/><path class="as" d="M188 338v-1c1-2 1 3 1 3l1 2c1 2-1 3-1 1l-1-5zm1 5v-1c0-1 0-7-1-5v1l1 5z"/><path class="ay" d="M188 338l1 5c0 1 1 2 1-1l-1-2v-2c0-2-2-1-1 0z"/><path class="as" d="M203 314v-2c1-1 1 4 1 4l1 2c0 2-1 2-1 1 0-2-2-4-1-5zm1 5a2 2 0 000-2s0-6-1-4v1l1 5z"/><path class="ay" d="M203 314c-1 1 1 3 1 4s1 3 1 0l-1-2v-3c0-2-2-1-1 1z"/><path class="av" d="M188 312v2c0 1 0 3 1 2 1-3 4-3 4-4a45 45 0 00-5 0zm1 4zm5-3l-5 3c0 1-1 1-1-1v-3s7-1 6 1z"/><path class="aw" d="M188 312h3c1 0 4 0 2 1l-4 3s-1 1-1-1v-3z"/><path class="av" d="M191 375l3 4s-3 2-4 0a9 9 0 000-2l-1-2v-3l2 3zm-2-3v3l1 2a9 9 0 011 2h3l-3-2-2-5zm5 7"/><path class="aw" d="M189 372v3l1 2a6 6 0 011 2c-1 2 2 0 3 0l-3-2a10 10 0 01-1-4l-1-1z"/><path class="av" d="M187 375c-1 3 0 2 1 3s1 3 2 2l-1-1c1-1-1-3-1-5zm3 4s1 2-1 1c-1 0 1-1-2-2v-3a3 3 0 011-1l2 5z"/><path class="aw" d="M188 374l2 4v2s-1 1-1-1c0-1-3-1-2-3l1-2z"/><path class="as" d="M174 350v2a2 2 0 001 0c1-2 2-2 3-2h-4zm4 0v-1l-3 2s-1 3-1 0v-1h4z"/><path class="ay" d="M174 350l3-1c3 0-2 2-2 2 0 1-1 2-1 0v-1z"/><path class="as" d="M174 335v2c1-2 3-2 3-2h-3zm3 0v-1c1 1-2 2-2 2s-2 3-1 0v-1c-1-1 3-1 4-1z"/><path class="ay" d="M174 335l3-1c2 0-2 2-2 2-1 1-1 2-1 0v-1z"/><path class="av" d="M186 348a4 4 0 000 1s4 3 3 1c-1-4-2-1-3-2zm0 1h4c0 1 0 2-2 2l-2-2a1 1 0 010-1c1 1 3-2 4 1z"/><path class="aw" d="M186 348c1 1 2-2 4 1 0 1 0 2-1 1l-3-1v-1z"/><path class="as" d="M191 397v3c-2 0-1 2-2 2l-2-1c-1-1-2-1 0-2l3-4 1 2zm-4 2v2l2 1c0-1 0-2 2-3l-1-2v-2l-3 4z"/><path class="ay" d="M190 395l-3 4c-2 1-1 1 0 2l1 1 3-3c2-1 0-2 0-2l-1-2z"/><path class="as" d="M203 379l1 4c1 1 0-2 2-3 2-2-1 0-2-3-1 0-2 1-1 2zm3 2c-1 0-1 4-3 2v-4c-1-2 1-2 1-2 2 3 5 1 2 4z"/><path class="ay" d="M204 377c1 2 5 2 2 3-2 1-1 4-2 3l-1-4c-1-1 0-2 1-2z"/><path class="as" d="M205 399v3c1 3-1 2-1-3v-3c1-1 1 0 1 3zm-1 0a18 18 0 001 4v-2-5h-1v3z"/><path class="ay" d="M204 396c-2 0 0 1 0 3 0 0 1 6 2 4a7 7 0 01-1-2v-5h-1z"/><path class="av" d="M205 438c1 3 3 2 4 4 0 0-4 2-4 0a10 10 0 00-1-2l-1-2 1-3 1 3zm-1 0l1 2a8 8 0 010 2h3l-2-3c-2-1-1-4-2-4v3zm4 4"/><path class="aw" d="M204 435l-1 3 1 2 1 2c0 2 2 0 3 0 1-1-2-2-2-3a10 10 0 01-2-3v-1z"/><path class="av" d="M187 457l3-7c1-2 1 6 1 7l-1 2h-2a7 7 0 01-1-2zm3 2l1-4c0-1 0-7-2-3-1 2-3 5-1 7h2z"/><path class="aw" d="M188 459h2c2-2 1-2 1-6 0 0-1-5-2-1 0 1-3 5-1 7z"/><path class="av" d="M205 450l1 5c0 2-3 7-2 3l1-8zm-1 8a5 5 0 000 1c2-3 2-4 1-8v-1l-1 8z"/><path class="ay" d="M205 451l-1 6v2c3-3 1-4 1-8 0-1 0-1 0 0z"/><path class="av" d="M175 454l2 4c0 3-2 7-2 3v-7zm0 7a4 4 0 000 1c2-3 2-4 1-8h-1v7z"/><path class="ay" d="M175 454v9c3-4 1-5 1-9h-1z"/><path class="av" d="M191 478l-2-5c0-2 2-6 2-2v7zm0-7a4 4 0 000-1c-2 3-1 3 0 8v-7z"/><path class="ay" d="M191 478v-7-2c-3 4-1 5 0 9z"/><path class="as" d="M203 329c-2 2-2-1-2 6v4c0 2 2 6 3 4v-14h-1zm1 14c-1 3-3-1-4-4l1-4c0-7 0-4 2-7l1 1v14z"/><path class="az" d="M204 329c1 7 1 19-2 14-2-3-1-4-1-8 0-7 0-4 2-6h1z"/><path class="ba" d="M204 344l-2-1c-2-3-1-4-1-8 0-7 0-4 2-6v7c3 7-2 2 0 6a4 4 0 011 2z"/><path class="bb" d="M189 429c2 0 1 2 2 3a37 37 0 010 4c0 2-1 1-2 0l-1-4 1-3zm-1 3l2 4a5 5 0 000 1v-5l-1-3-1 4z"/><path class="az" d="M189 429l-1 3 1 4s2 3 1-1a10 10 0 000-1v-2a2 2 0 000-1l-1-2z"/><path class="bb" d="M184 432a2 2 0 001 0l1 1h2l-1-1v-1l-3 1zm1 0l2-1v1c1 1 2 2 0 1h-2l-1-1a1 1 0 001 0z"/><path class="az" d="M185 432l2-1c2-1 0 1 0 1v1h-2l-1-1a1 1 0 001 0z"/><path class="bb" d="M176 430l-1 2a42 42 0 000 6l1-1 1-4-1-3zm1 3l-1 4a6 6 0 01-1 1v-5l1-3 1 3z"/><path class="az" d="M176 430l1 3c1 1-1 3-1 4 0 0-1 3-1 0a11 11 0 010-2v-2a2 2 0 010-2l1-1z"/><path class="av" d="M192 425a6 6 0 00-1-3l-1 4a20 20 0 001 3l1-4zm-2 0l1-3a6 6 0 011 3c0 2-1 6-2 3a9 9 0 010-3z"/><path class="aw" d="M191 429a18 18 0 01-1-2 3 3 0 010-2 15 15 0 011-3l1 1a4 4 0 010 3l-1 3z"/><path class="av" d="M204 441l-2-5a26 26 0 00-2 2l4 3zm0-1c2 4-5-1-4-2 3-6 2 0 4 2z"/><path class="ay" d="M200 438l2-3 1 3c0 2 3 4 0 3l-3-3z"/><path class="bb" d="M175 369c1 4 0 7 4 7 7 1 10-2 9-9v-4-9c2-4-4-4-7-4-7 1-6 4-6 11a30 30 0 000 8zm6-19c3-1 9 0 8 4v9l-1 4c1 7-2 10-9 9-4 0-3-3-4-7v-8c0-7-1-10 6-11z"/><path class="az" d="M175 361v-8c2-4 16-5 14 1-2 3 1 7-1 11 0 1 4 12-8 11-3 0-4 0-4-4l-1-11z"/><path class="ba" d="M175 361a18 18 0 000 4c1-1 4-2 10-2 3 0-1-6 1-8 3-3-5-4-9-3a3 3 0 00-2 1 12 12 0 000 4c2-1 5 0 0 2a12 12 0 010 2zm8 15a14 14 0 01-3 0c-3 0-4 0-4-4l-1-6 7-2c1-1 7 0 1 4-5 4 2 0 2 0 2-2 4 1 1 3-3 3-2 4-3 5z"/><path class="bc" d="M176 354a6 6 0 010 2c1 0 3-1 3 1s-1 3-2 3a4 4 0 001-1c1-2 0-2-1-2h-2c-1-1 1-3 1-3zm0 3z"/><path class="bb" d="M159 327c1 3 0 6 4 7 7 0 10-2 9-9v-4-9c2-4-4-4-7-4-7 1-6 4-6 10a31 31 0 000 9zm6-19c3-1 9-1 8 4v9l-1 4c1 7-2 10-9 9-4 0-3-4-4-7v-9c0-6-1-9 6-10z"/><path class="az" d="M159 318v-7c2-4 16-5 13 1-1 3 2 6 0 10-1 2 4 12-8 12-3 0-4 0-4-4l-1-12z"/><path class="ba" d="M159 318a18 18 0 000 5c1-1 4-3 10-2 3 0-1-6 1-9 3-2-5-3-9-3a3 3 0 00-2 2 13 13 0 000 4c2-1 5 0 0 2a9 9 0 010 1zm5 16c-3 0-4 0-4-4l-1-6 7-2c1-1 6 0 1 4l2-1c2-1 4 2 1 4-3 3-2 4-3 5a14 14 0 01-3 0z"/><path class="bc" d="M160 311a6 6 0 010 3c1-1 3-1 3 1l-2 3a5 5 0 001-2c1-1 0-1-1-1a7 7 0 01-2 0c-1-1 1-3 1-4zm0 3z"/><path class="bb" d="M189 395c-1 3-5 4-6 3-2-3-7-5-7-7v-9c2-5 3-5 6-5 7 1 7 2 7 10v8zm-7-18c-3 0-5 0-6 5l-1 9 8 7c1 2 5 0 6-5a40 40 0 000-6c0-8 0-9-7-10z"/><path class="az" d="M189 387c0-5 0-6-2-9-1-1-8-2-10 1-3 5-1 4-2 11 0 3 6 5 8 8h3c4-2 3-7 3-11z"/><path class="ba" d="M185 378c1 0 2 2 1 3-2 4 1 5 0 8s4 5-3 9a17 17 0 00-4-3v-1c0-3-2-2-3-2a3 3 0 01-1-2c1-7-1-6 2-11 1-2 6-2 8-1zm-7 5l1 1 1-2c3-2-2-4-2 1z"/><path class="bc" d="M176 384v6c1 2 2 0 3 1l1 2c0-2 0-3-3-3l-1-6z"/><path class="bb" d="M218 474c-1 3-5 4-6 3l-7-7v-9c2-4 3-5 7-4 6 0 6 2 6 9v8zm-6-18c-4 0-5 0-7 5v9c0 3 5 5 7 7s6 0 6-5a40 40 0 000-6c1-7 0-9-6-10z"/><path class="az" d="M218 466c0-4 1-6-2-8 0-1-8-3-9 0-4 5-2 4-2 11-1 3 5 5 7 8h4c3-2 2-7 2-11z"/><path class="ba" d="M215 457v3 8c-1 3 4 5-3 9a18 18 0 00-4-3v-1c1-2-2-2-3-2a3 3 0 010-2c0-7-2-6 2-11 1-2 5-2 8-1zm-6 6v-2c3-2-2-3-2 1l2 1z"/><path class="bc" d="M206 463c-1 2-2 5-1 6l3 2 1 1c0-1 0-3-2-3s-1-5-1-6z"/><path class="bb" d="M175 426c0 9 12 4 13 3 2-3 0-18 0-23 1-4-3-5-6-5-9 1-6 10-6 16l-1 9zm3-24c3-2 11-2 11 4-1 4 2 21-1 24-2 1-13 4-13-3a79 79 0 011-10c0-4-2-12 2-15z"/><path class="az" d="M176 417v-13c4-5 14-4 12 2-1 4 3 22 0 24-4 2-13 4-13-3l1-10z"/><path class="ba" d="M180 405l1-1c2-1 0 5 0 5 0 8-2 1-1-4zm-5 22c0 6 8 5 12 3v-11c-6 0-5 5-5 9 0 3-3-3-1-6 3-4 5-7 4-12l1-6a3 3 0 00-3-3 8 8 0 00-7 3v13l-1 10z"/><path class="bc" d="M184 412l-3 7c-1 2-2 6-1 8a6 6 0 011 1l-1-1 2-6c2-4 3-4 2-9z"/><path class="as" d="M168 399c7-1 6 5 6 10l-1 13c0 4 1 7-3 6h-8c-2-2-1-14-1-16l1-11c1-3 2-2 6-2zm-7 15c0 2-1 12 1 13l8 1c3 1 2-3 3-6l1-13c0-5 1-9-5-10-4 0-5-1-7 2l-1 13z"/><path class="ay" d="M162 401l-1 9c0 3-1 16 1 17l8 1c1 1 3 0 3-2 0-5 2-12 1-17 0-2 1-10-5-10h-3c-2 0-3 0-4 2z"/><path class="au" d="M162 401l-1 9c0 3-1 16 1 17l8 1a2 2 0 001 0 41 41 0 002-6 4 4 0 00-1-2v-1c0-2-2-3-3-2l-1 2c0 1 0 0 0 0v4l-1 1-1 2v-1a7 7 0 000-4l1-4 2-4 1-7c-1-2 0-6-2-7h-2c-2 0-3 0-4 2z"/><path class="bd" d="M165 399c-2 1-2 5-2 7-2 4-2 4-2 9a17 17 0 001 8 3 3 0 001 0l-1-2c-1-5 0-9 1-13s0-6 2-9z"/><path class="as" d="M206 361c-1-4-2-24 0-27 1-2 5-1 6-1 6 0 6 22 5 27 0 4-8 2-10 2a9 9 0 01-1-1zm11-1c1-5 2-27-5-27-1 0-5-1-6 1-2 3-1 23 0 27a6 6 0 001 1c2 0 10 2 10-2z"/><path class="az" d="M207 362c3 0 10 2 10-2 1-5 2-27-5-27-8 0-7-1-7 13l1 15a6 6 0 001 1z"/><path class="ba" d="M207 362a6 6 0 01-1-1l-1-15v-5c2-3 1-3 0-3 0-6 1-5 7-5 3 0 5 5 5 12h-2c0 3-3 6-3 4v-4c3-6-4-3-3-1 2 5 4 5 2 11 3 6-2 2-1 6a1 1 0 010 1h-3zm10-2l1-7c-1 3 0 3-5 2-1 0 1 2-1 4-2 1-1 3 1 3s4 0 4-2z"/><path class="bc" d="M207 334c-3 4 0 3-1 5l-1 4a58 58 0 001 11l1-12v-3c0-3-2 0 0-5z"/><path class="av" d="M218 375c2-7-3-13-11-11-3 2-3 3-2 6 0 3-2 4-1 6 3 4 10 3 13 2zm-13 2c-3-2 0-4-1-7s-1-5 3-6c8-3 13 3 11 11l-1 3c-3 1-9 2-12-1z"/><path class="aw" d="M217 378c-3 1-16 1-13-6 2-3-4-7 5-8 8-1 11 7 8 14z"/><path class="ax" d="M209 378c-4 0-6-2-5-6 2-3-3-6 4-8-1 2-3 3 4 3 3 0 0-2-1-3a7 7 0 015 1 4 4 0 01-2 5c-3 1-1 7-5 8z"/><path class="be" d="M213 369a10 10 0 00-2 5l-3 3a1 1 0 001 0c3-1 3-2 3-4l1-4z"/><path class="av" d="M216 399c2-4 1-7 1-11v-7h-6c-5 0-5 1-5 4l-1 8 2 14c0 4 8 1 9 0 2 0 0-8 0-8zm-10 8l-1-14v-8c1-3 0-4 4-5l8 1v7c0 4 1 7-1 11 0 1 2 8 0 8-2 1-9 4-10 0z"/><path class="aw" d="M217 408c-3 0-11 3-10-1s-2-10-2-14v-8c1-2-1-4 6-5 5 0 7-1 6 5 0 3 1 11-1 14 0 1 2 8 1 9z"/><path class="ax" d="M212 409c-3 0-6 0-6-2 1-5-1-10-1-14v-8c1-2-1-5 6-5h2c1 1 2 2 1 3-2 4 1 12 0 13-2 1-2 2-3 0l-4-4c-3-2 6 8 4 10-3 3 1 5 1 7z"/><path class="be" d="M208 397l2 4c0 1-1 5 1 5-2-2 1-3 0-5l-3-4z"/><path class="av" d="M207 454c1 2 8 1 10 0s0-9 0-9c-1-2-7-2-8-2-6-2-3 10-2 11zm10-9c1 2 2 9 0 10s-9 2-11-1c-1-3-2-14 3-11 1 0 7-1 8 2z"/><path class="aw" d="M209 443h5c1 1 3 0 3 2l1 9-6 1c-2 1-5 1-6-2-2-8 0-11 3-10z"/><path class="ax" d="M215 454l-3 1c-1 0-5 0-5-2-2-7-1-10 1-11l5 2c2-1 3 6 1 7 0 0-2 2 1 1v2z"/><path class="be" d="M208 446c-2-1-1 3-1 4a8 8 0 002 4l-1-3v-5z"/><path class="as" d="M191 460a12 12 0 001-4c1-6 0-6-1-12 0-7 4-11 10-5l2 5v7l-1 7c-1 3-8 3-10 2h-1zm11-2c1-2 2-2 2-7v-7c0-2-2-3-3-5-6-6-11-2-10 5l1 12a15 15 0 01-1 4h1c2 1 10 2 10-2z"/><path class="ay" d="M192 460c2 1 10 1 10-2 0-2 2-2 1-9s2-5-2-10c-4-4-9-4-10 2 0 4 2 8 1 14l-1 5z"/><path class="au" d="M192 460h8l-1-1 1-6c1-3-1-6 1-9 5-4-7-6-8-5-3 4-1 4-2 6 1 3 2 6 1 10l-1 5z"/><path class="bd" d="M194 439c-4 3-1 2-1 5l-1 3a47 47 0 001 9v-10l1-3c0-2-2 0 0-4z"/><path class="av" d="M160 382c0 2 0 7 2 7l10 1c2 0 2-6 1-7a68 68 0 010-11c0-5 2-8 0-13-1-1-6-2-8-1l-3 1c-2 2-1 7-1 9v6a53 53 0 00-1 8zm1-14c0-3-1-7 1-9l3-1c1-1 7-1 8 1 3 5 1 8 0 13a75 75 0 001 11c0 1 0 7-2 7h-10c-2-1-2-6-2-8a41 41 0 011-8v-6z"/><path class="aw" d="M161 374v-5-3c0-4-1-7 3-7 2-1 1-2 5-1 3 0 3 0 4 3 2 4 0 7 0 11l1 11a23 23 0 01-1 6c0 2-3 1-4 1h-3c-5 0-6 0-6-6l1-10z"/><path class="ax" d="M161 368c2 6 2 7-1 10v6c0 5 1 6 4 6 0-4 3-8 2-11v-6l2-2c2-3 0-6 0-9 0-2-2-3-4-3-4 0-3 3-3 7a15 15 0 000 2zm12 21c0 2-3 1-4 1h-3l1-9c0-10 3-6 3-11 1-5-2-5-1-9 2-1 4 7 4 8-1 7-4 10 0 16a6 6 0 011 2l-1 2z"/><path class="be" d="M164 389c-3-1-3-1-3-4l2-8a17 17 0 00-1-5v5l-1 6c0 2-1 7 3 6z"/><path class="av" d="M187 309c0-1 0-6-2-7l-10-1c-2 1-1 6-1 7a68 68 0 010 11c0 5-2 8 1 13 1 2 6 2 7 1l3-1c2-1 1-6 1-8 0-4-1-4 1-6a54 54 0 000-9zm-1 15c0 2 1 7-1 8l-3 1c-1 1-7 1-8-1-2-5 0-8 0-13a74 74 0 00-1-10c0-2 0-8 2-8l10 1c3 0 2 5 2 7a42 42 0 010 8c-2 4-1 3-1 7z"/><path class="aw" d="M187 318c-2 2-1 1-1 4v4c0 3 1 6-3 7h-5c-3 0-3 0-4-2-2-5 0-7 0-12v-10a23 23 0 010-7c0-2 3-1 4-1h3c6 0 6 0 6 6v11z"/><path class="ax" d="M186 324v-1c-2-6-1-7 1-10v-6c0-5 0-5-4-6 0 4-3 8-1 11l-1 6-2 2c-2 3 0 6 0 10l4 3c4-1 3-4 3-7a15 15 0 000-2zm-12-22c0-2 3-1 5-1h2c1 3-1 7-1 9 0 10-2 6-3 11-1 6 2 6 1 9-2 1-3-7-3-8 0-6 3-10-1-16a6 6 0 010-2v-2z"/><path class="be" d="M184 303c2 0 3 0 2 3l-1 8a17 17 0 000 5l1-5 1-6c1-2 0-7-3-5z"/><path class="as" d="M189 365c2 7 1 16 13 12l1-12c3-4 2-6 1-10v-3c0-4-4-5-7-4-5 0-7 1-7 6l-1 10a2 2 0 000 1zm1-11c0-5 2-6 7-6 3-1 7 0 7 4v2c1 5 2 7-1 11-1 3 1 11-1 12-12 4-11-4-13-12a1 1 0 010-1l1-10z"/><path class="ay" d="M189 364c3-8-2-14 4-16 4-1 12-2 11 5 0 1 3 7-1 12l-1 12c-13 4-11-5-13-12a4 4 0 010-1z"/><path class="au" d="M189 364c2 0 0 5 2 6 4 2 10-1 11 1a1 1 0 001 0v-3l-7-3c-4-2 0-3 2-5 9-7 7-15-5-12-5 2-2 6-3 13a19 19 0 007-3l3-2a20 20 0 01-2 3 29 29 0 01-8 3l-1 2zm15 1c-6-1-2-4 1-5a9 9 0 01-1 5zm-12 10a11 11 0 01-1-2c1-2 5-3 9 1 2 2-4 5-8 1z"/><path class="bd" d="M192 349c-2-1-2 5-2 5a23 23 0 010 4v4l1-4v-7l1-2z"/><path class="ay" d="M202 348l-7 9 2-2c2-2 4 0 6-1-2 1-3-1-5 1h5c-4 2-3-1-6 1l-3 1a6 6 0 01-5 2c2-1 3 0 5-2l8-9zm-12 11h-1z"/><path class="as" d="M208 440c-3-2-3-11-3-14l5-9c3-5 1-4 5-4 6 0 4 8 3 11 0 4 1 14-1 17h-6a5 5 0 01-3-1zm9 1c2-3 1-13 2-17 0-3 2-10-2-11h-5l-6 11c-2 3-1 13 1 16l4 1c1 0 6 2 6 0z"/><path class="ay" d="M211 441h6c2-2 1-8 2-11v-9c1-3 0-8-4-8-2 0-2-2-5 3l-5 10c0 4-1 15 6 15z"/><path class="au" d="M212 413a14 14 0 00-2 3l-5 10c0 4-1 13 4 15 3 0 4 1 5-7v-9l-1-12z"/><path class="bd" d="M209 419c-2 3-6 14-2 18-2-5 1-14 2-18z"/><path class="as" d="M207 421c1 1 5 2 6 4 2 3 8 4 3 2-3-1-3-3-5-4-3-2-3-1 2-2 5-2-4 1-4 0h-2zM174 442v13c0 3-3 3-6 3l-7-2v-18c0-4-1-8 4-8h9v12zm-7-13c-8 0-5 4-6 10v17l8 1c1 1 5 1 5-2v-13-12h-7z"/><path class="ay" d="M174 430h-9c-3 1-4 2-4 7v19l7 1c2 1 6 1 6-2a173 173 0 010-18v-7z"/><path class="au" d="M161 436l2-4c1 0 1-2 5-2 2 0 4 0 4 3l1 12c-2 3-6 6-2 7 2 0 4 3 0 4-3 2-3 1-5-1l-3 2a8 8 0 01-1-1c-2 0-1-6-1-8v-12zm2 1a1 1 0 011 1c-1 1 0 2 1 0a8 8 0 010-2c1-5-2 1-2 1zm7 14h1a2 2 0 001-3c-2-1-2 2-2 3z"/><path class="bd" d="M162 442l1 12v-1c1-4 0-7-1-11z"/><path class="ay" d="M170 430a6 6 0 01-2 1c-2 2-1 5-1 5 0-1-1-3 1-4l2-2z"/><path class="as" d="M218 316l1 14c0 3-4 2-6 2l-7-1c-2-1 0-16 0-19 0-4-2-7 3-8h9v12zm-6-12c-8 0-6 3-6 10v16l7 1c2 1 5 1 5-1v-14-12h-6z"/><path class="ay" d="M218 304h-9c-4 1-3 3-3 7l-1 12 1 8 7 1c1 0 5 1 5-2a176 176 0 010-18v-8z"/><path class="au" d="M206 310l1-4s1-2 5-2c2 0 4 0 5 3v13c-2 2-6 5-1 6 1 0 3 3-1 4-3 2-2 1-5-1l-3 2a8 8 0 01-1 0l-1-8 1-12v-1zm1 1a2 2 0 011 2s1 1 1-1a8 8 0 011-2c1-5-3 1-3 1zm9 14a2 2 0 001-3c-3-1-2 2-2 3h1z"/><path class="bd" d="M206 316l1 12v-1c1-4 0-7-1-11z"/><path class="ay" d="M214 304a6 6 0 01-1 2c-2 1-2 4-2 5v-1l1-4 2-2c-1 0 1 0 0 0zM207 421c1 1 5 2 6 4 2 3 8 4 3 2-3-1-3-3-5-4-3-2-3-1 2-2 5-2-4 1-4 0h-1-1z"/><path class="h" d="M411 694c0 4 2 9 7 10-1 3-2 7-1 10s4 7 7 6c-2 7 2 15 9 16 0 4 1 7 3 9s6 4 9 1a10 10 0 0012 8l4 7c2 2 5 1 7-1a6 6 0 007 7 22 22 0 013-1l12 5c4 0 5-4 10-6 3-1 7 1 10 2s9-1 7-5c4 2 8 4 12 3s7-3 7-7c3 3 10 0 9-5a9 9 0 0015-10 7 7 0 107-12 7 7 0 008-12c2-1 5-2 6-4s0-6-2-6c8-2 12-12 7-19a8 8 0 104-15 9 9 0 00-4-17c2-5-2-11-7-10a7 7 0 00-6-12c4-5-1-14-7-14 1-3-1-7-4-8l-9-1-4-10c-2-3-7-2-9 1-2-7-12-11-18-7-3-6-13-6-15 0-7-7-19-6-24 2-5-6-15-3-17 4-6-4-17 0-18 8-5-3-13 1-14 8a13 13 0 00-7 15c-3 2-5 7-5 11a4 4 0 01-2 3c-3 1-6 4-6 10l2 9s-9 6-2 15l-3 12z"/><path class="f" d="M573 627c-1-3-4-5-7-5 1-3-1-7-4-8l-10-1c0-4-1-7-3-10s-8-2-9 1c-2-8-12-11-18-7-3-6-13-6-15 0-7-7-19-6-24 2-5-6-15-3-17 4-6-4-17 0-18 8-5-3-13 1-14 8a13 13 0 00-7 15c-3 2-5 7-5 11a4 4 0 01-2 3c-3 1-6 4-6 10l2 9s-9 6-2 15c-2 3-3 7-3 12s2 8 7 9c-1 4-2 8-1 11s4 7 7 6c-2 7 2 15 9 16 0 3 1 7 3 9s6 3 9 1a10 10 0 0012 8l4 7c2 2 5 1 7-1a6 6 0 007 7 22 22 0 013-1l12 5c4 0 5-4 10-6 3-1 7 1 10 2s9-1 7-5c4 2 8 4 11 3a21 21 0 002-3 4 4 0 00-1-3l-3-2-6-6c-4-2-8-1-12-1s-10-3-8-7c1-5 9-3 13-6a4 4 0 00-4-3c0-3 4-5 7-6s5-4 4-6c-2-3-7-1-9-3s0-6 3-7h8c3 0 6-3 6-6-2-4-10-3-10-8l1-6c-1-2-4-2-6-1l-6 4a7 7 0 01-6-11c3-2 6-1 8-2s5-3 4-6l-6-2a26 26 0 0113-12c-3-1-2-6 0-8s7-3 10-3c8-1 22-2 28-7-7-8 6-14 13-17z"/><path class="g" d="M454 724c-3-1-4-4-6-6l-9-15c-1-2-1-7 1-7-1-3-2-8 1-8a15 15 0 01-10-11c-1-3-1-6 1-9l3-3a8 8 0 002-7l4-3-1-4a4 4 0 00-1-6c2-1 2-3 2-4 3-7 12-10 18-7 3-3-1-10 2-13 2-2 6 0 10 0s7-3 11-4c5-1 10 0 15 2 4 2 8 4 11 8s2 10-2 13c-2 2-6 2-9 3h-15a10 10 0 00-5 2 6 6 0 00-2 7 8 8 0 007 5c-1 3-4 5-8 5l-9 3c-3 2-5 5-4 8a8 8 0 017 2 22 22 0 00-7 11 102 102 0 0021 12l-6 4-4 4c-1 2 3 5 4 3l-1 8c-1 3-3 4-6 6-4 3-10 5-15 1z"/><path class="g" d="M551 624l-2-1-4-4-6-1c-2 0-3-3-3-4l1-4a3 3 0 00-2-1 14 14 0 00-10 0h-5v-3c-1-2-3-4-5-4a18 18 0 00-7 0c-4 1-10 1-11 5a1 1 0 001 2h1a5 5 0 012 1c3 1 6 3 6 6a7 7 0 000 2c1 1 3 2 4 1h4c3 1 3 5 1 7s-3 5-3 8a24 24 0 006 2l-3 4c-1 1-2 3-1 5s5 1 6-1 4-4 6-4a10 10 0 014 2 14 14 0 007 1 4 4 0 003-1c2-3-1-8 2-9h4a5 5 0 004-9zM481 687c-2 1-3 4-1 5a7 7 0 002 1c3 1 5 4 7 7v4l-3 1a5 5 0 00-2 7 25 25 0 012 3c1 2 0 4-1 6l-3 7a11 11 0 01-2 4l-6 2c-4 1-9 2-13 1a26 26 0 00-5-2l-4 2c-1 3 1 5 3 5h7a4 4 0 012 1l1 6a7 7 0 0013 4 22 22 0 005 6c2 2 5 3 7 2s4-4 3-6l-4-4a7 7 0 013-12c2 0 4 0 5-2a4 4 0 000-2 18 18 0 00-2-7c3-1 7-3 8-7s0-8-3-8l-5-1v-3l2-4c1-4-4-5-6-9l-1-5c-1-4-6-4-9-2zM421 693a2 2 0 000 1l2 1c2 1 4 3 4 5a33 33 0 010 7 17 17 0 001 7c1 3 3 5 5 5l2 5a7 7 0 002 4 3 3 0 004-1c1-1 0-3-1-5l-3-4v-6l-3-7c-1-2-2-6 0-8a4 4 0 001-1 3 3 0 00-1-2c-2-6-11-10-13-1zM438 623a7 7 0 003 1c1 1 0 2-1 3l-3 1a6 6 0 00-2 3l-2 6a4 4 0 000 3h4a7 7 0 001-4 8 8 0 012-4c2-4 9-1 11-5l1-5c0-2 2-4 3-4 3 1 6 0 8-2l2-4a3 3 0 00-1-2c-2-1-6 0-8 1s-5 4-7 4c-5 1-10 2-11 8z"/><path class="ar" d="M1302 418v-22l-1-11a13 13 0 00-7-7c-7-3-15-1-22-1a75 75 0 01-11 0 34 34 0 00-6-1 39 39 0 00-6 1 23 23 0 01-5 1l-7-1h-11a3 3 0 00-1 0l-24-1h-12l-11 1a4 4 0 00-1 1 31 31 0 00-5-1 35 35 0 01-7 0 36 36 0 00-7-1h-8l-7 1a12 12 0 00-6 1 6 6 0 010 1l-1 8c-1 2-4 5-6 4h-1a8 8 0 011 3 22 22 0 010 4c0 4 2 7 3 10a2 2 0 01-1 3v1a2 2 0 010 1 10 10 0 01-2 4 28 28 0 00-1 4 12 12 0 000 4 19 19 0 002 5 5 5 0 005 0 22 22 0 0110-1l11 1 24 1h75l25-1h13a8 8 0 006-2 8 8 0 001-5l1-2c0 1 0 0 0 0a3 3 0 000-3z"/><path class="as" d="M1171 376c-5 0-8-2-8 4l-1 6c0 2 8 2 10 2s11 0 12-2l-1-9c-3-2-6-1-8-1zm0 0h4c2 0 5-1 8 1 2 1 1 8 1 9 0 3-10 2-12 2s-10 1-10-2v-6c1-6 4-4 9-4z"/><path class="at" d="M1171 376c-4 0-9-2-8 4 0 6-6 8 8 8 2 0 13 1 13-2v-6c0-3-1-3-3-4a8 8 0 00-4 0 43 43 0 01-6 0z"/><path class="au" d="M1171 376h-7a3 3 0 00-1 3l1 4c2 2 1 3 5 3 2 0 8 2 9 0s3 5 5-2c1-1 0-6-2-8a8 8 0 00-5 0 43 43 0 01-5 0zm8 2v1h-3l3-1zm2 5v1c-2-2 0-1 0-1zm-17 1c0 1 1 3 3 3l-4-1c0-1 0-3 1-2z"/><path class="av" d="M1217 380l1 9c1 0 5 3 6 0 0-2 1-10-1-12 0-1-6-4-6 3zm0 0c-1-6 5-5 7-3v12c0 3-4 1-5 0-2 0-1-8-2-9z"/><path class="aw" d="M1217 380l1 6 1 3c1 1 2 2 5 1v-7c1-2 0-6-1-6-4-3-6-1-6 3z"/><path class="ax" d="M1224 380l-1-3c-3-2-5-2-5 0a18 18 0 010 2l1 6c-1 3 1 2 2 3a2 2 0 002-1l1-3a21 21 0 000-4z"/><path class="av" d="M1130 408l-1 9c1 0 4 4 5 1 1-2 4-9 3-11 0-1-6-6-7 1zm0 0c0-6 6-4 7-2s-1 10-2 12c-1 3-4 0-6-1s1-7 1-9z"/><path class="aw" d="M1130 408l-1 6v3l5 2 2-6c1-2 2-6 1-7-4-3-6-2-7 2z"/><path class="ax" d="M1137 410v-4c-3-2-5-2-6-1v2l-1 6c-1 4 1 2 2 4a2 2 0 002-1l2-3a21 21 0 001-3z"/><path class="as" d="M1222 418c-7 1-8-1-15-1-4 0 0-15 6-12h4c1 0 7 0 7 2 1 1-1 6-1 7l-1 4zm0 0l1-4 1-7-4-1-7-1c-6-3-9 12-6 12 7 0 8 2 15 1z"/><path class="ay" d="M1222 418c-7 1-9-1-15-1-3 0 0-16 7-12l6 1c5 1 5-1 3 7l-1 5z"/><path class="au" d="M1206 415c0-5 3-13 8-10l6 1 4 1a2 2 0 010 1c-4-1-3 2-2 2a3 3 0 002 0l-1 3a33 33 0 010 4 5 5 0 01-3-1c-1-2-2-8-1 0-4 1-3-4-3-5 0-7-1-2-3 0-4 7 1-3 1-4-2-2-3 3-4 4-2 4-3 5-4 4z"/><path class="av" d="M1253 419c-3 0-10 2-9-4l1-5c-1-3 2-2 5-3 2 0 12-3 12 0 1 2 2 9-1 10a30 30 0 01-4 1l-4 1zm0 0l4-1 5-2v-9c0-2-11 0-13 1-7 0-3 1-4 6-2 7 3 5 8 5z"/><path class="aw" d="M1253 419c-2 0-11 3-8-5 1-4-4-6 4-7 3 0 13-3 13 0 1 13 0 9-8 12a4 4 0 01-1 0z"/><path class="ax" d="M1251 407l4-1a5 5 0 010 3c-1 1 3 3 4-3h1l2 1v2a19 19 0 00-1 4c0 3-4 5-7 4-1-1-9 3-7-2-1-3-1-3 2-6-1-2 0 1 2-2z"/><path class="av" d="M1296 403c-3 1-10 2-9-3v-5c0-4 2-3 6-4 2 0 12-3 12 0 0 2 1 9-1 10a31 31 0 01-4 1l-4 1zm0 0l4-1 4-1c2-1 1-9 1-10-1-2-11 1-13 1-8 1-3 2-4 7-2 6 3 5 8 4z"/><path class="aw" d="M1296 403c-2 0-12 3-9-4 2-4-3-7 5-7 3 0 13-4 13-1 1 13 0 9-8 12a4 4 0 01-1 0z"/><path class="ax" d="M1294 392l4-1a6 6 0 01-1 2c0 1 3 4 5-3l3 1v3a19 19 0 00-1 3c0 3-4 5-7 4-1 0-10 3-7-1-2-3-2-4 2-6-1-3 0 1 2-2z"/><path class="as" d="M1171 414c3-7 4-9-7-9-7 0-6 1-7 6 0 2 0 2 2 3 2 2 10 1 12 0zm0 0c-3 2-11 2-12 1l-2-4c1-5 0-7 7-6 10 0 10 2 7 9z"/><path class="az" d="M1171 414c1-4 5-8-3-9-12-1-10 0-11 7l2 3c0 1 10 1 12-1z"/><path class="ba" d="M1173 409c0-2-1-4-5-4-11-1-10 0-11 5a1 1 0 001 0c7 1 3 3 8 2 3-1 2-2 3-1s3 0 4-2zm-5-2v1c-8-1-6-2 0-1z"/><path class="as" d="M1302 415c3-7 4-8-7-9-7 0-6 1-6 6-1 2-1 2 1 4s10 1 12-1zm0 0c-2 2-11 2-12 1l-2-4c1-5 0-6 7-6 11 1 11 2 7 9z"/><path class="az" d="M1302 415c1-3 5-8-3-9-12-1-9 1-11 8l2 2c1 1 10 1 12-1z"/><path class="ba" d="M1304 410c0-2 0-3-5-4-10-1-10 0-10 5a1 1 0 000 1c7 0 3 2 9 1l2-1c1 1 3 0 4-2zm-5-2c1 0 2 1 0 1-8 0-6-2 0-1z"/><path class="as" d="M1226 410h15c2-1-2-5-5-5h-4c-6 0-4 1-6 4v1zm0 0v-1c2-3-1-4 6-4h4c3 0 8 4 4 5h-14z"/><path class="ay" d="M1226 410c7 1 19 1 15-3-4-3-5-2-9-2-7 0-4 1-6 4v1z"/><path class="au" d="M1242 409l-1-2c-4-3-5-2-9-2-7 0-4 1-6 3h7c7 4 2-2 7 0a4 4 0 002 1z"/><path class="av" d="M1169 392c-4 2-6-1-6 3l-1 5c0 3 5 2 6 2 4 1 7 2 7-3v-8c-1-1-5 1-6 1zm0 0c1 0 5-2 6-1l1 8c-1 5-4 4-8 4-1-1-7 0-7-3l1-5c1-4 3-1 7-3z"/><path class="ax" d="M1169 392c-3 2-7-2-6 4 0 2-5 7 5 6 1 0 8 4 7-7 0-3 2-6-5-3h-1z"/><path class="aw" d="M1169 392c-3 2-6-1-6 2a5 5 0 010 1v1l-1 3c1 2 9 0 11 2 0 2 2-1 2-2a18 18 0 000-4 3 3 0 00-3 0c-2 0-2-1-3-3z"/><path class="as" d="M1155 418c-7 1-8-1-14-1-4 0 0-15 5-12h4c1 0 6 0 7 2l-1 7-1 4zm0 0l1-4 1-7-4-1-7-1c-5-3-8 12-5 12 6 0 7 2 14 1z"/><path class="az" d="M1155 418c-7 2-9-1-14-1-4 0 0-16 6-12l6 1c4 1 5-1 3 7l-1 5z"/><path class="ba" d="M1141 408c1-3 3-4 6-3l6 1c4 0 4-1 4 4a7 7 0 01-2 0c-2-1-5 0-5 1-2 5-2 1-3 3-1 1-5 0-4-2l-2-4zm15 4a17 17 0 00-3 0c-2 0-1 1-2 3-1 1 0 3 3 2a13 13 0 002-1v-3z"/><path class="bb" d="M1275 404c-2 0-12 0-13-2-1-1-3-5-2-7 1-6 10-5 15-5 2 0 11 1 11 4v6l-7 2-4 2zm0 0l4-2 7-2a58 58 0 000-6c1-5-17-4-20-4-7 1-9 7-4 13l13 1z"/><path class="az" d="M1275 404l-13-1s-9-13 7-13c3 0 18 0 17 4 0 7 2 6-5 8l-6 2z"/><path class="ba" d="M1261 400c-2-3-3-9 5-10l2 1a3 3 0 004-1c4 0 12 0 14 3-2 1 4 6-8 8-5 0-3-2-2-3 2-5-3 2-3 2-5 3-5-5-8-1-2 1-3 2-4 1z"/><path class="as" d="M1225 417c5 2 14 4 17 2 3-1-1-6-5-7h-4c-8-1-5 0-8 3v2zm0 0v-2c3-3 0-5 8-3h5c3 1 8 7 4 8-5 1-12-1-17-3z"/><path class="ay" d="M1225 417c8 3 22 5 17-1-3-5-4-3-9-4-8-2-5 0-8 3v2z"/><path class="au" d="M1242 416c-3-5-5-3-9-4l-2-1a2 2 0 01-2 1 2 2 0 00-2 3c2 3 7-3 11 0 0 4-5 2-6 2 0 2 9 1 9 1 1 1 1-1 1-2z"/><path class="as" d="M1289 387c4 1 12 3 13-1 0-3-6-11-9-11l-4 1c-6 0-3 1-2 7l2 4zm0 0c-2-1-2-2-2-4-1-6-4-7 2-7l4-1c3 0 11 8 9 12s-9 2-13 0z"/><path class="ay" d="M1289 387c8 3 18 2 10-7-6-7-6-4-10-4-6 0-2 2-2 7l2 4z"/><path class="au" d="M1299 380c-6-7-6-4-10-4h-1l-1 1c-1 1 0 5 1 6 4 5 3-6 8-3 2 5-2 4-3 4 2 4 7 0 7 0l-1-4z"/><path class="av" d="M1230 389l-4-1c-2-2 0 1 0 2l-1 1 2-1h2a3 3 0 002-1h-1zm0 0c2 0 0 2-1 1a1 1 0 01-1 1c-3 0-1 0-2 1-3 1-1-2-1-3 0 0-1-3 1-2 3 3 1 1 4 2z"/><path class="aw" d="M1230 389c-3-1-1 1-4-2-2-1-1 2-1 3v2l3-2h1c1 1 3-1 1-1z"/><path class="av" d="M1229 391l-1 1c-1 3-1 7-4 3-1-1-3-2-1-3s0 2 4 0l2-1zm0 0a3 3 0 00-1 0c-1 1-4 3-4 1 0 0-2 1-1 2s3 4 4 1l2-4zm0 0z"/><path class="aw" d="M1229 391h-1l-4 1c0-1-3 1-1 2 1 1 3 5 4 1a22 22 0 012-4z"/><path class="av" d="M1199 389h8c4 0-1 2-3 2l-5-1v-1zm0 0l1 1c4 1 4 2 8-1a4 4 0 00-1 0h-8z"/><path class="ay" d="M1199 389h9c-4 3-4 1-9 1v-1z"/><path class="av" d="M1138 412l-1 7c0 4-2-1-1-3 0-1 1-5 2-4zm0 0c-2 4-3 4-1 8a4 4 0 000-1c0-2 2-6 1-7z"/><path class="ay" d="M1138 412l-1 6v2c-2-4-1-4 1-8 0-1 0 0 0 0z"/><path class="av" d="M1246 404c2 0 3 1 2 2s-5-1-8-1c-2 0-5-1 1-1h5zm0 0a21 21 0 01-5 0c-7-1-4 2-1 2l5 1c4 1 5-4 1-3z"/><path class="ay" d="M1246 404c1 0 3 0 2 2-1 3-4-1-8-1-2 1-5-2 1-1a18 18 0 005 0z"/><path class="av" d="M1241 411a22 22 0 00-2 1c1 1 2 0 4 3l-2-4zm0 0c2-1 4 8 1 4-2-2-7-4-1-4z"/><path class="ay" d="M1241 411l-3 1 2 1c3 1 3 4 4 2l-3-4z"/><path class="av" d="M1301 417a20 20 0 00-3 1c2 1 2 0 5 3a2 2 0 000 1c1-1-1-5-2-5zm0 0c2-1 4 8 1 4-2-2-7-3-1-4z"/><path class="ay" d="M1301 417l-3 1 2 1c2 1 3 4 3 2l-2-4z"/><path class="av" d="M1236 422l2 3h2c1 0 7-3 5-4h-7a5 5 0 00-2 1zm0 0h1c1-2 4-1 6 0 4 0-1 2-2 2l-3 1c0-2-1-1-2-3z"/><path class="aw" d="M1236 422c1 1 2 1 2 3l5-1s4-2 0-3c-1 0-5-1-6 1h-1z"/><path class="as" d="M1147 403h9l7 1-16 1c-2-1-2-1 0-2zm0 0c-2 1-2 1 0 1h15l-5-1a25 25 0 00-2 0h-8z"/><path class="az" d="M1147 403h9a19 19 0 004 0c3 0 4 1-2 1h-11s-3 0-1-1h1z"/><path class="av" d="M1175 405a24 24 0 00-2-1l1 5a2 2 0 000 1s2-4 1-5zm0 0c2 1-2 9-2 4 0-3-3-8 2-4z"/><path class="ay" d="M1175 405l-3-1 1 2c1 2-1 5 1 4 0 0 2-4 1-5z"/><path class="av" d="M1172 418a22 22 0 003 1c-1-2-2-2-2-6a3 3 0 000-1c-1 0-2 5-1 6zm0 0c-2-1 2-11 2-5 0 4 3 10-2 5z"/><path class="ay" d="M1172 418s2 2 3 1l-1-2c-1-3 0-7-2-5v6z"/><path class="bb" d="M1164 392l4-3 4-1c2 0 3 1 2 2a52 52 0 01-6 2h-4zm0 0h4l6-3a7 7 0 00-1 0h-5l-4 3z"/><path class="az" d="M1164 392l4-3h4s4 0 0 1a14 14 0 01-2 1l-2 1a3 3 0 01-1 0h-3z"/><path class="as" d="M1165 403l5 1c2 0 1 2-1 1l-2-1s-5 0-3-1h1zm0 0h-1c-2 1 4 1 5 1a2 2 0 002 0h-1l-5-1z"/><path class="ay" d="M1165 403l5 1c1 0 2 1-1 1l-2-1h-2c-2 0-1-2 0-1z"/><path class="as" d="M1141 418l5 1c2 0 1 2-1 1l-2-1s-5 0-4-1h2zm0 0h-1c-2 1 4 1 5 1a2 2 0 002 1l-1-1-5-1z"/><path class="ay" d="M1141 418l5 1c1 0 2 1-1 1l-2-1h-2c-2 0-2-2 0-1z"/><path class="av" d="M1139 403a43 43 0 000 6c1-1 1-4 4-5 1-1-2-1-2-1h-2zm4 1zm-4-1h3c2 0 2 1 1 1l-3 5c-2 2-1-6-1-6z"/><path class="aw" d="M1139 403v3c0 1 0 4 1 2l3-4s1-1-1-1h-3z"/><path class="av" d="M1200 404h2l2 1a9 9 0 002 0c2 0 1 4 0 4l-4-3s-3-1-2-2zm0 0c-1 1 2 1 4 2l2 3v-3a9 9 0 01-2-1l-2-1h-3zm6 5"/><path class="aw" d="M1200 404h2l2 1a6 6 0 002 0c2 0 0 3 0 3 0 2-2-1-2-2a10 10 0 00-4-1v-1z"/><path class="av" d="M1201 403c2 0 4 2 5 1l1 1c1-1-1-1-2-2-1-2 0-2-3-1zm0 0a3 3 0 011-1h3c1 3 2 1 2 2 1 2-1 0-1 0-1 1-3-1-5-1z"/><path class="aw" d="M1201 403l4 1 2 1s1-1-1-1c-1 0-1-4-3-3l-2 2z"/><path class="as" d="M1177 389v4c0-1 0-2 2-3a3 3 0 000-1h-2zm0 4v-4h1c3 0 0 1 0 1l-1 3v-4z"/><path class="ay" d="M1177 389l-1 3c0 2 2-2 2-2 1-1 2-1 0-1h-1z"/><path class="as" d="M1162 389l-1 3 2-3a2 2 0 001 0h-2zm0 3v-3h1c3-1 0 1 0 1l-2 3c0-1 0-5 1-4z"/><path class="ay" d="M1162 389l-1 3c0 2 2-2 2-2 1-1 2-1 0-1h-1z"/><path class="av" d="M1176 401c0 1-2 2 1 3 2 1-1-3-1-3zm0 0l2 2-1 2c-4-1-1-3-1-4z"/><path class="aw" d="M1176 401c0 1-3 2 1 4l1-2-2-2z"/><path class="as" d="M1222 405l4-4c1-1 1-1 2 1l1 1c0 1-2 1-2 3-1 1-2 0-3-1h-2zm0 0h2l2 1 3-3-1-1c-1-1-1-2-2-1l-4 4z"/><path class="ay" d="M1222 405l4-4c1-1 1 0 2 1l1 1c1 1-2 1-3 3s-2-1-2-1h-2z"/><path class="as" d="M1204 418c3 2 2 5 3 2 1-1 4 0 3-2h-6zm0 0s0-2 2-1l4 1c2 2-2 2-2 2-2 4-1 0-4-2z"/><path class="ay" d="M1204 418c3 2 2 6 4 2 0-1 3 0 2-2h-6z"/><path class="as" d="M1223 418h3c5 1 6 3 3 2h-3c-2-1-4 0-3-2zm0 0v1l5 1h2a18 18 0 00-4-1l-3-1z"/><path class="ay" d="M1223 418l3 1 4 1a7 7 0 00-2 0l-5-1v-1z"/><path class="av" d="M1262 418h3l2 1a9 9 0 002 0c2 0 0 4 0 4l-4-4s-4 0-3-1zm0 0l5 2 2 3v-4a8 8 0 01-2 0l-2-1h-3zm7 5"/><path class="aw" d="M1262 418h3l2 1a5 5 0 002 0v3c0 2-2-2-2-2a10 10 0 00-4-1l-1-1z"/><path class="av" d="M1287 402l-1 3h-2c-1 0-9 0-7-1l7-3a7 7 0 013 1zm0 0h-1c-2-1-4 1-7 2-4 1 2 1 3 1h4c-1-2 0-2 1-3z"/><path class="aw" d="M1287 402c-1 1-2 1-1 3h-5c-1 0-6 0-2-2 2 0 5-3 7-1h1z"/><path class="av" d="M1278 419l7-1c4-1 0 2-3 2h-4v-1zm0 0v1c4 0 5 1 8-2a5 5 0 00-1 0l-7 1z"/><path class="ay" d="M1278 419l6-1h2c-3 3-4 2-8 2v-1z"/><path class="av" d="M1281 389h7c4 0 0 3-3 2l-4-1v-1zm0 0v1c4 1 5 2 8 0a4 4 0 00-1-1h-7z"/><path class="ay" d="M1281 389h7l2 1c-4 2-5 1-9 0v-1z"/><path class="av" d="M1305 405l-7 1c-4 0 0-3 3-2l4 1zm0 0c-5-1-5-2-8 0a4 4 0 001 0h7z"/><path class="ay" d="M1305 405h-7-2c4-3 5-1 9 0z"/><path class="as" d="M1156 419h15c1-1-2-3-5-3h-4c-6 0-4 0-6 2v1zm0 0v-1c2-2-1-2 6-2h4c3 0 8 2 4 3h-14z"/><path class="az" d="M1156 419c7 1 19 1 14-2-3-2-4-1-8-1-7 0-4 0-6 2v1z"/><path class="ba" d="M1171 419l-1-2c-3-2-4-1-8-1-7 0-4 0-6 2h7c7 3 2-2 6 0a4 4 0 002 1z"/><path class="bb" d="M1256 404l3-1c1-1 3 0 4 1s2 1 0 1a36 36 0 01-4 0l-3-1zm0 0l3 1h5a5 5 0 00-1-1l-3-1-4 1z"/><path class="az" d="M1256 404l3-1c1-1 3 1 4 1 0 0 3 1 0 1a10 10 0 01-2 0h-2a2 2 0 01-1 0l-2-1z"/><path class="bb" d="M1259 399l-1 3h2v-1l-1-2a2 2 0 000-1v1zm0 0c-1-2 1-1 1 1v1c1 2-1 1-1 1h-1l1-3z"/><path class="az" d="M1259 399l-1 3h2v-3s-2-2-1 0z"/><path class="bb" d="M1257 391h3c1 1 3 0 4-1s2-1 1-1a44 44 0 00-6 0l-2 1a1 1 0 000 1zm0 0c0-2 2-2 3-2l5 1a6 6 0 01-1 0c-1 0-3 2-4 1h-3z"/><path class="az" d="M1257 391h3c1 1 3-1 4-1 0 0 3-1 0-1a10 10 0 00-2 0h-3a3 3 0 00-1 0l-1 2z"/><path class="av" d="M1256 405a21 21 0 00-3-1l-4 1a6 6 0 003 1l4-1zm0 0l-4 1a6 6 0 01-3-1l3-1a9 9 0 014 1z"/><path class="aw" d="M1256 405l-2-1a3 3 0 00-2 0 15 15 0 00-3 1l1 1a4 4 0 003 0l3-1z"/><path class="av" d="M1265 415a25 25 0 00-2 1l5 2-3-3zm0 0c1-1 6 6 2 3-2-1-8-1-2-3z"/><path class="ay" d="M1265 415l-2 2h2c2 0 4 3 3 1 0-1-2-4-3-3z"/><path class="bb" d="M1188 390c-7 0-10-1-11 6 0 3 0 9 4 7h13c7 0 10-2 9-9 0-4-4-3-7-4a31 31 0 00-8 0zm0 0h8c4 0 7 0 7 4 1 7-2 10-9 9l-4 1h-9c-4 1-5-5-4-8 1-7 4-6 11-6z"/><path class="az" d="M1188 390h-8c-4 2-5 16 1 13 3-1 7 2 11 0 1-1 12 3 11-8 0-3 0-4-4-5h-11z"/><path class="ba" d="M1188 390a9 9 0 01-2 0c-2 5-3 2-2 0a12 12 0 00-4 0 3 3 0 00-1 2c-1 4 0 12 3 9 2-2 8 2 8-1 0-6 1-9 2-10a18 18 0 00-4 0zm15 8c-1 1-2-1-5 3-2 3-5 1-3-1 0-1 4-7 0-2s-5 0-4-1l2-7h6c4 1 4 2 4 5a14 14 0 010 3z"/><path class="bc" d="M1181 391l3-1v2l2 1a5 5 0 001-1c0 1-1 2-3 2s-1-2-1-3a6 6 0 01-2 0zm2 0z"/><path class="bb" d="M1145 374c-6 0-9-1-10 6-1 3-1 9 4 8 3-2 5 0 9 0l4-1c7 1 9-2 9-9-1-4-4-3-7-4a31 31 0 00-9 0zm0 0h9c3 1 7 0 7 4 1 7-2 10-9 10h-13c-5 1-5-5-4-8 1-7 4-6 10-6z"/><path class="az" d="M1145 374l-7 1c-4 1-5 15 1 13 3-2 6 1 10-1 2 0 12 4 12-8 0-3 0-4-4-4l-12-1z"/><path class="ba" d="M1145 374a12 12 0 01-1 0c-2 5-3 2-3 0a13 13 0 00-3 1 3 3 0 00-2 1c0 5 1 12 3 9 3-2 9 2 8-1 0-6 2-9 3-10a18 18 0 00-5 0zm16 8c-1 1-2 0-5 3-2 3-5 2-4-1l1-2c-4 6-5 1-4-1 0 0-1-3 1-7l7 1c4 0 4 2 4 4a14 14 0 010 4z"/><path class="bc" d="M1138 375l3-1v2c0 1 1 2 2 1a5 5 0 002-1l-3 2c-2 0-2-2-2-3a6 6 0 01-2 0zm3 0z"/><path class="bb" d="M1214 404c-7 0-9 0-10-7 0-3 0-5 5-6l9-1 7 8c1 1 0 4-3 5l-8 1zm0 0a41 41 0 006 0c5-1 7-5 5-7l-7-7h-10c-4 2-4 3-4 7 1 7 2 7 10 7z"/><path class="az" d="M1214 404c-5 0-6 0-9-2 0-1-2-9 0-10 6-3 5-2 12-2 3 0 5 5 8 8v3c-2 3-7 3-11 3z"/><path class="ba" d="M1205 400c-1-2-1-7 1-8 5-3 4-2 11-2a3 3 0 012 0c0 2-1 4 2 4a17 17 0 004 4c-4 6-6 1-9 2-3 2-4-1-8 1a3 3 0 01-3-1zm5-7c-5 0-3 5-1 2l2-1-1-1z"/><path class="bc" d="M1211 391c2-1 4-2 6-1s0 3 1 3l2 1c-2 0-3 0-3-2s-5-1-6-1z"/><path class="bb" d="M1293 433c-7 0-9-1-9-7 0-4 0-5 4-7h9l7 7c1 2 0 5-3 6l-8 1zm0 0a40 40 0 007-1c4 0 6-4 4-6s-4-6-7-7h-9c-5 2-5 3-5 7 1 6 3 7 10 7z"/><path class="az" d="M1293 433c-4 0-6 0-8-2-1-1-2-9 0-10 5-3 4-2 11-2 3 0 5 5 8 7v4c-1 3-6 3-11 3z"/><path class="ba" d="M1284 429c-1-3-1-7 1-8 5-3 4-2 11-2a3 3 0 012 0c0 2 0 4 2 4l1-1a17 17 0 003 4c-3 7-6 2-9 3-3 2-4-1-7 0a3 3 0 01-4 0zm5-8c-4 0-2 5-1 2h2l-1-2z"/><path class="bc" d="M1290 420c2-1 5-2 6-1l2 3 2 1c-2 0-4 0-4-2s-4-1-6-1z"/><path class="bb" d="M1244 390c-6 1-15-2-16 7 0 3 1 6 5 6 5-1 20 2 23 0 1-1 6-13-3-13h-9zm0 0a78 78 0 0110 0c7 0 4 11 3 13-3 2-20 0-24 0-6 1-6-7-4-11 3-3 10-2 15-2z"/><path class="az" d="M1244 390s-10-1-13 1c-5 3-4 13 2 12 4-1 22 3 24-1 2-3 4-12-3-12h-10z"/><path class="ba" d="M1232 395c5-2 12 1 4 0 0 0-6 2-5 0h1zm12-5s-10-1-13 1a8 8 0 00-3 7 3 3 0 003 2h6c5 0 8-1 12-4 3-2 9 0 6 0-4 0-9 0-9 5h11c2-3 3-11-3-11h-10z"/><path class="bc" d="M1239 399l7-3c2-1 6-3 8-1a5 5 0 001 0h-1c-2-1-5 0-6 1-4 2-4 3-9 3z"/><path class="as" d="M1228 377l11-1c2-1 14-2 15 0l1 8c1 4-3 3-6 4l-13 1c-5 0-11 1-11-7 1-3 0-4 3-5zm0 0c-3 1-2 2-2 7 1 6 6 4 10 5s8-1 13-2c3 0 7 1 6-3l-1-7c-1-2-11-1-13-1l-13 1z"/><path class="ay" d="M1228 377l9-1c3 0 16-2 17 0l1 8c1 2 0 3-2 3l-17 2c-2-1-10 1-10-5v-3c0-2 0-3 2-4z"/><path class="au" d="M1228 377l9-1c3 0 16-2 17 0l1 8a2 2 0 010 2 41 41 0 01-6 1h-3c-2-1-3-3-2-4l2-1c1-1 0 0 0 0h4l1-1h2l-1-1a7 7 0 01-4 1l-5 1-3 1c-1 1-6 2-8 1l-6-1v-2c0-2 0-3 2-4z"/><path class="bd" d="M1226 380c1-3 5-2 7-3 4-1 4-2 9-2a17 17 0 017 2h1-2c-5-1-9-1-13 1-4 1-6 0-9 2z"/><path class="as" d="M1189 422c0 2 2 9-2 10-5 1-26 1-27-5l1-6c3-2 23-1 27 0a8 8 0 011 1zm0 0a5 5 0 00-1-1c-3-1-24-2-27 0-2 1-1 5-1 6 0 7 22 6 27 5 4 0 2-8 2-10z"/><path class="az" d="M1189 422c0 3 2 10-2 10-5 1-27 2-27-5 0-8-1-7 13-7l15 1a7 7 0 011 1z"/><path class="ba" d="M1189 422v2a1 1 0 01-1 1c-3-1 0 4-6 0-6 3-6 1-11-1-2-1-5 6 1 3h5c2 0-2 2-5 3v2c-6 0-12-2-12-5 0-6-1-7 5-7 0 1 0 2 3 0h5l15 1a6 6 0 011 1zm1 6c-1-2-2-3-4-1s-4 0-4 1c1 5 2 4-2 4h7c2 0 3-2 3-4z"/><path class="bc" d="M1161 422c4-3 3 0 5-1h4a58 58 0 0111 1h-15c-2 0 0-2-5 0z"/><path class="av" d="M1205 432c1-3 2-11-2-13h-6c-3-1-4-1-5 3-3 7 3 13 10 11zm0 0l-3 1c-7 2-13-3-11-11 1-4 3-3 6-3s5-2 7 1 2 9 1 12z"/><path class="aw" d="M1205 432c2-3 2-16-6-13-3 2-7-4-8 5-1 8 8 11 14 8z"/><path class="ax" d="M1206 423c-1-3-3-5-7-4-3 1-6-3-8 3 2 0 3-2 3 5 0 3-2 0-3-1a7 7 0 002 5 4 4 0 004-2c2-3 7-2 9-6z"/><path class="be" d="M1196 428a10 10 0 016-2l2-3a1 1 0 010 1c-1 3-2 2-4 3l-4 1z"/><path class="av" d="M1235 431c0-2 3-10-1-10l-14-1h-8c-3 1-4 0-4 5 0 2-1 6 1 6l6 1 11-1h9zm0 0h-9c-4 2-7 1-11 1h-7v-9c0-3 2-3 4-3h8l14 1c4 0 1 8 1 10z"/><path class="aw" d="M1235 431c1-2 3-10-1-10l-14-1h-8c-2 1-4-1-4 5s-2 8 4 7c3-1 11 1 14-1h9z"/><path class="ax" d="M1236 427c0-3 0-6-2-6l-14-1h-8c-2 1-4-1-4 5v3l2 1c4-2 13 0 13-1 1-2 3-1 0-3s-2 0-4-3 8 5 10 4c3-3 5 0 7 1z"/><path class="be" d="M1224 423l4 2c1 0 5-2 6 0v1c-2-2-4 0-6 0l-4-3z"/><path class="av" d="M1270 423l2 8s9 3 9 0c1-2 2-8 0-10-1-1-13-3-11 2zm0 0c-3-5 8-4 11-2 3 1 2 8 1 10-1 3-8 1-10 0-2 0-2-6-2-8z"/><path class="aw" d="M1270 423l1 6 1 2c3 1 5 2 9 1l1-6c1-1 1-5-2-5-7-2-11-1-10 2z"/><path class="ax" d="M1282 430v-4c0-1 0-4-2-5-7-2-10-1-10 1l1 5c0 3 6 4 7 2 0-1 2-2 1 0l3 1z"/><path class="be" d="M1273 422c-1-1 4-1 4-1a8 8 0 014 2h-3c-2-1-3-2-5-1z"/><path class="as" d="M1287 406c1 2 1 10-2 10-2 1-2 2-6 2h-8c-2 0-3-2-5-3-6-6-2-10 5-9h12a12 12 0 004 0zm0 0a15 15 0 01-4 0c-6 1-6 0-12-1-7 0-11 4-5 10 2 2 3 3 5 3h8c4 0 4-1 6-2 4 0 3-8 2-10z"/><path class="ay" d="M1287 406c1 2 1 10-2 10-2 0-2 2-9 2s-5 2-10-3c-4-4-4-9 2-9h19z"/><path class="au" d="M1287 406v8l-1-1-6 1c-3 1-6-1-9 1-4 5-6-7-5-7 4-3 4-2 6-2h15z"/><path class="bd" d="M1266 408c3-3 3 0 5-1l3-1a47 47 0 019 1l-10 1h-3c-2 0 0-2-4 0z"/><path class="av" d="M1201 376h-6c-3 0-7-1-9 1l-1 3c-1 1 0 7 1 8 5 2 8 0 13 0a68 68 0 0111 0c1 0 7 1 7-1l-1-10c-1-2-5-2-7-2a54 54 0 00-8 1zm0 0a42 42 0 018-1c2 0 7-1 8 2v10c0 2-6 2-7 2a75 75 0 00-11-1c-5 1-8 2-13 0-2-1-2-7-1-8l1-3c1-2 6-1 9-1h6z"/><path class="aw" d="M1201 376h-9c-3 0-6-1-6 3-1 2-2 1-1 5 0 3 0 3 3 4 4 2 7 0 11 0l11 1a22 22 0 006-1c2 0 1-3 1-4v-3c0-5 0-6-6-6l-10 1z"/><path class="ax" d="M1194 376a15 15 0 00-2 0c-3 0-6-1-6 3 0 2 1 4 3 4 3 0 6 2 9 0l2-2h6c3 1 7-2 11-2 0-4-1-4-6-4h-6c-3 2-4 3-10 1h-1zm20 12a6 6 0 01-2 0c-6-4-9-1-16-1-1 1-9-1-8-3 4-1 4 2 9 1s1-3 11-3c2 0 6-2 9-1v2c0 2 1 5-1 5z"/><path class="be" d="M1216 378c-1-2-1-2-4-2l-8 1a17 17 0 01-5 0h5l6-2c2-1 7 0 6 3z"/><path class="av" d="M1145 402c3-2 2-1 6-1 2 0 7 1 8-1l1-3c1-1 1-6-1-7-5-3-8-1-13-1a68 68 0 01-11 0l-7 1 1 11c1 2 6 1 7 1a53 53 0 009 0zm0 0a41 41 0 01-9 0c-2 0-6 1-7-1l-1-11c0-2 6-1 8-1a74 74 0 0010 0c5 0 8-2 13 0 2 1 2 7 1 8l-1 3c-1 2-6 2-8 1l-6 1z"/><path class="aw" d="M1145 402l4-1h4c3 0 6 1 7-3v-5c0-3 0-3-2-4-5-2-7 0-12 0h-11a22 22 0 00-6 0c-2 1-1 3-1 5v3c0 5 1 5 6 5h11z"/><path class="ax" d="M1151 401a15 15 0 002 0c3 0 6 1 7-3l-3-4c-4 0-7-2-10 0 0 0 0 2-2 3h-6c-3-1-7 1-11 2 1 3 1 3 6 3h6c3-2 4-3 10-1h1zm-20-12a6 6 0 012 1c6 3 9 1 16 0 1 0 9 1 8 3-3 1-3-2-9-1-5 1-1 3-11 3-2 0-6 2-9 1v-2c0-2-1-4 1-5h2z"/><path class="be" d="M1130 399c0 2 0 3 3 2l8-1a17 17 0 015 0l-5 1-6 1c-2 0-7 1-5-3z"/><path class="as" d="M1191 404l-10 1c-5 0-6 2-6 7 0 3 0 7 4 7h3c5 1 6 2 10-1 3-2 11 0 12-2 4-11-5-10-12-12a2 2 0 00-1 0zm0 0a1 1 0 011 0c8 1 16 1 12 12-1 2-9 1-11 2-5 3-6 2-11 1h-3c-4 0-5-4-4-7 0-5 1-7 6-7l10-1z"/><path class="ay" d="M1191 404c-8 3-13-2-15 4-2 4-3 12 4 11 1-1 8 3 12-1 2-1 11 0 12-2 4-12-5-11-12-12a4 4 0 00-1 0z"/><path class="au" d="M1191 404h-2a29 29 0 01-3 9l-3 2 2-3a19 19 0 003-7c-6 0-11-2-12 3-4 12 4 14 11 5 2-2 3-7 5-3l3 7h3c-2-1 1-7-1-11-1-2-5 0-6-2zm-3 16c0-3 3-7 4-1a9 9 0 01-4 1zm14-14c4 5 1 10-1 8-4-3-3-7-1-9a10 10 0 012 1z"/><path class="bd" d="M1177 407c-2-2 4-2 5-2a23 23 0 003 0c1 0 3-2 5 0h-1l-4 1h-7l-1 1z"/><path class="ay" d="M1176 417l8-8c2-2 1-3 2-5a6 6 0 01-2 5l-1 3c-2 3 1 2-1 6v-5c-2 2 1 3-1 5 1-2-1-4 1-6l2-3-9 8zm10-13z"/><path class="as" d="M1268 425v7c-3 2-13 0-17 1-3 0-11 3-11-3 0-4-1-3 4-5l9-5c4-1 12-1 14 2a5 5 0 011 3zm0 0l-1-4c-3-2-13-2-16-1l-11 7v4c1 5 8 3 11 2 4 0 14 1 18-1 1-1 0-6-1-7z"/><path class="ay" d="M1268 425c0 2 2 6 1 7l-11 1-10 1c-3 0-8 0-8-4 0-3-2-3 3-5l10-5c4 0 16-2 15 5z"/><path class="au" d="M1240 427a14 14 0 013-2l10-5c4 0 13-1 15 3 0 3 1 4-7 6-5 1-3-1-9-1-1 1-11 0-11-1h-1z"/><path class="bd" d="M1246 424c3-3 14-6 18-3l1 1-1-1c-5-2-13 2-18 3z"/><path class="as" d="M1248 422l4 6c3 1 4 8 2 2 0-2-3-2-4-4-2-3-1-3-2 2l1-4-1-2zM1257 388l-1-9c1-5 5-3 9-3 2 0 18-2 18 0l1 7c1 2 1 6-2 6l-13-1c-1 1-12 2-12 0zm0 0h25c3 0 3-3 2-5l-1-7h-17c-6 0-10-2-10 6l1 6z"/><path class="ay" d="M1257 388v-9c1-4 2-3 6-3l12-1 8 1 1 7c1 1 1 5-2 5a175 175 0 00-18 1l-7-1z"/><path class="au" d="M1263 376l12-1 8 1a8 8 0 011 1l-2 3c2 3 3 2 1 5-1 4-4 2-4 1-1-5-4-1-7 1h-12c-3-1-3-2-3-5 0-4 2-4 2-5l4-1zm0 4a8 8 0 012-1v-1a1 1 0 01-1 0c0-1-6 3-1 2zm14 5s-3 0-2 2a2 2 0 002-1v-1z"/><path class="bd" d="M1269 377c0-2 11 0 12 0h-12z"/><path class="ay" d="M1257 384a6 6 0 001-1c2-2 5-2 5-2l-4 1-2 3v-1z"/><path class="as" d="M1131 433v-9c1-5 4-3 8-3 3 0 18-2 19 0l1 7c1 2 1 6-2 6h-14s-12 1-12-1zm0 0h26c3 0 2-3 2-5l-1-7h-17c-6 0-10-2-10 6v6z"/><path class="ay" d="M1131 433v-9c1-4 3-3 7-3l12-1 8 1 1 7c0 1 1 6-2 5a175 175 0 00-18 1l-8-1z"/><path class="au" d="M1137 421h1l12-1 8 1a8 8 0 010 2l-1 2c2 3 2 2 1 5-2 4-4 2-5 1 0-5-4-1-6 1h-13c-3-1-2-2-2-5-1-4 2-4 1-5s3-1 4-1zm0 4a8 8 0 012-1c2 0 1-1 1-1a1 1 0 01-1 0c-1-1-7 3-2 2zm15 5c-1 0-4 0-3 2 0 0 3 1 3-1v-1z"/><path class="bd" d="M1144 422c-1-2 10 0 11 0h-11z"/><path class="ay" d="M1131 429a6 6 0 002-1c1-2 4-2 5-2h-1l-4 1c0 2-2 3-2 3v-1zM1248 422l4 6c3 1 4 8 2 2 0-2-3-2-4-4-2-3-1-3-2 2l1-4-1-2z"/></g></svg>