<svg xmlns="http://www.w3.org/2000/svg" viewBox="0 0 1501 1001"><defs><radialGradient id="b" cx="1024.5" cy="1321" r="51.8" gradientTransform="matrix(0 1 1 0 -368 -428)" gradientUnits="userSpaceOnUse"><stop offset="0" stop-color="#c0a373"/><stop offset="1" stop-color="#fff" stop-opacity="0"/></radialGradient><linearGradient id="a" x1="1362.3" y1="816.8" x2="1362.3" y2="722.1" gradientTransform="matrix(1 0 0 -1 -146 1444)" gradientUnits="userSpaceOnUse"><stop offset="0" stop-color="#a0edf0"/><stop offset="1" stop-color="#45dbe2"/></linearGradient><style>.e{isolation:isolate}.b{fill:#70b344;stroke:#5f732e}.aj,.ak,.an,.ao,.aq,.b,.x{stroke-miterlimit:10}.d{fill:#ddc02c}.e{opacity:.25}.aa,.f{fill:#7ebb15}.g{fill:#94d31a}.h{fill:#78a015}.i{fill:#897d6f}.j{fill:#635a52}.l{fill:#91887b}.p{fill:#8ab550}.q{fill:#97c261}.r{fill:#a9d171}.s{fill:#b3db7b}.t{fill:#dcf5f5}.u{fill:#f2ffff}.v{fill:#fff}.w{fill:#fddfb3}.x{fill:#1d150c}.aj,.ak,.an,.ao,.aq,.x{stroke:#1d150c}.y{fill:#81a653}.ad{mix-blend-mode:multiply}.aa{mix-blend-mode:screen}.ab{fill:#bdbdbd}.ac{fill:#d9d9d9}.ad{fill:#cfcfcf}.ae{fill:#cbcbcb}.ag{fill:#c6c6c6}.ah{fill:#e8e8e8}.aj,.ak{fill:#3f2b0f}.ak{stroke-width:1.14px}.an,.ao{fill:#571c10}.an,.ao,.aq,.ar,.as,.at,.au,.av,.aw,.ax,.ay,.az,.ba,.bb,.bc,.bd,.be{fill-rule:evenodd}.ao{stroke-width:1.04px}.aq{fill:#c0a373}.ar{fill:#5c4328}.as{fill:#544730}.at{fill:#877657}.au{fill:#ae9c87}.av{fill:#68543c}.aw{fill:#9d8264}.ax{fill:#b49871}.ay{fill:#8f7e5f}.az{fill:#857c68}.ba{fill:#a59b84}.bb{fill:#67604f}.bc{fill:#bdb29a}.bd{fill:#c1b09a}.be{fill:#cdb186}</style></defs><g style="isolation:isolate"><path class="b" d="M1001 501h250v250h-250zM1251 251h250v250h-250zM1001 251h250v250h-250zM1001 1h250v250h-250zM1251 1h250v250h-250zM751 251h250v250H751zM751 1h250v250H751zM751 501h250v250H751zM501 251h250v250H501zM251 251h250v250H251zM501 501h250v250H501zM251 501h250v250H251zM751 751h250v250H751zM251 751h250v250H251zM1001 751h250v250h-250zM501 1h250v250H501zM1251 501h250v250h-250zM1251 751h250v250h-250zM501 751h250v250H501zM251 1h250v250H251zM1 1h250v250H1zM1 751h250v250H1zM1 251h250v250H1zM1 501h250v250H1z"/><path d="M579 367c2-4 9-3 20-3l28-1 24 2h43c7 0 14 2 21 0h7c2 1 3 6 3 7 0 15 3 30 1 45 0 9-2 33 0 53v38c-3 4-11 2-15 1-8-2-19-2-42-1-19 0-18 2-31 1-15-1-15-4-26-4-15 1-23 9-29 5-3-3-2-7-2-12l1-43v-39c1-13 2-24-1-32l-2-13v-4z" fill="#ffe161"/><path class="d" d="M653 509a2 2 0 01-2-1v-1-2l-1-4a3 3 0 010-1v-5l1 1a7 7 0 00-1-2 2 2 0 002 1 2 2 0 001-1h-4a3 3 0 011-1 26 26 0 000-2v-1-1l1-3a29 29 0 00-1-3l-1-1a2 2 0 011-1v-4l-1-3a3 3 0 012-3 42 42 0 01-2-7l-1-4-1-6 3 4v-4a4 4 0 01-1-1 53 53 0 000-5v-1l1-2v-1-2-2l-1-6a1 1 0 010-1 2 2 0 011-1l-1-3a1 1 0 010-2v-2-1-1a1 1 0 010-1l1-3a2 2 0 01-1-1 10 10 0 00-2-5l3-1a2 2 0 00-1 0v-6l1-4a24 24 0 01-1-3v-1l-1-3v-3a3 3 0 011-2l-1-1-5 3 5-5v-6a21 21 0 010-4v-1a29 29 0 000-5v-5a16 16 0 00-1-4l3-1a19 19 0 012 5l-1 4 1 1a28 28 0 010 4 1 1 0 010 1 13 13 0 000 4v1a14 14 0 000 3 7 7 0 01-1 3 14 14 0 011 3l1 3v1h-1v3h1l-1 1 2 4 1 3-2-1a7 7 0 000 1l1 1v1a2 2 0 01-2 1 10 10 0 002 4l-1 1v4a30 30 0 010 6 14 14 0 000 2 29 29 0 010 5v1h1l1 4h-2l1 7a2 2 0 010 1l-1 5v5l1 1a2 2 0 010 2v4l-1 2v1a61 61 0 001 7 2 2 0 011 1v4l-1-1a2 2 0 01-1 0l1 3v12a5 5 0 010 1c0 1 1 2-1 2v1l2 4a17 17 0 010 5h-1v4h1v2a2 2 0 01-2 1zm-1-36h-1a2 2 0 001 0 2 2 0 001 0 1 1 0 00-1 0zm-2 0h1a2 2 0 01-1 0zm2-75zm-4-17z"/><path class="d" d="M640 510v-2a2 2 0 011-2v-1-4l-1-8a12 12 0 010-4v-2-3-3a2 2 0 01-1-2 2 2 0 011-1l-1-6v-2a8 8 0 011-2 3 3 0 01-1-1 7 7 0 010-1 1 1 0 011-1v-5-1a2 2 0 01-1-2v-6h1a4 4 0 010-2v-3a3 3 0 01-1 0v-1l1-3a2 2 0 011 0v-1c-3-5-3-8-2-10v-4l-1-5v-4-1a9 9 0 010-1v-8a2 2 0 010-1v-1a16 16 0 000-3 11 11 0 01-1-5 4 4 0 010-1v-1a2 2 0 010-1v-1a2 2 0 010-1v-2a8 8 0 010-3 2 2 0 011-2l-1-9v-1a2 2 0 011-1l-1-6a2 2 0 000-1v-2l3-2v2l2 12v7l1 2 4 8-5-5v1-1l-1-1a29 29 0 000 4v3a4 4 0 010 1 11 11 0 000 4l1 5v2a6 6 0 010 1l1 8-2-3 1 1a4 4 0 010 2l-1 1 1 3v4a2 2 0 001 1v1a1 1 0 010 1 2 2 0 01-1 1l1 1v3l-1 1a18 18 0 002 5l1 11-1-1a7 7 0 010 2l-1 4 1-1-1 7v6h1a4 4 0 01-1 1 6 6 0 000 2 2 2 0 010 1l1 7v2l1 1-1 1v3a22 22 0 010 5l1 5 5 7-6-4 2 6h-1a49 49 0 001 5h-2v1zm0-59h1a2 2 0 00-1 0zm2-1h-1a3 3 0 001 1zm-4-33zM633 508a2 2 0 01-1 0h-1l-1-1a1 1 0 010-2h1l-1-3a3 3 0 011-2l-2-7a1 1 0 011-1l-1-3v-1-1a1 1 0 010-1 15 15 0 011-5 29 29 0 000-4v-1a1 1 0 010-1v-4h-1l1-2a31 31 0 00-1-6v-1a2 2 0 01-1 0v-1-2l-1-5h2v-2-1l-1-2a16 16 0 00-1-7h2v-1a13 13 0 01-1-2l1-3a11 11 0 00-1-5 2 2 0 010-1l-1-2a2 2 0 011-2v-2a2 2 0 010-1v-3a5 5 0 010-3v-1h-1v-3a4 4 0 010-1 6 6 0 000-3 3 3 0 010-3 7 7 0 001-4 5 5 0 01-1-2 12 12 0 000-2h1v-1l1-3v-1a35 35 0 00-3-10l-5-8v-1l5 5a2 2 0 011-2 27 27 0 010-8v-9l1 2a3 3 0 011 0l2 1v4l-1 2a24 24 0 000 7 4 4 0 011 1 12 12 0 011 4v9-1 3l1 2 1 4-2-1a5 5 0 011 2h-1a2 2 0 01-1 1 2 2 0 000 1 9 9 0 010 6 3 3 0 000 1 8 8 0 010 4 2 2 0 000 1v1a24 24 0 011 3l2 7h-1v-1h-1l1 3h-1v3a13 13 0 011 8 18 18 0 000 2h-1a15 15 0 002 3v1h-2v1a19 19 0 010 2v1a2 2 0 010 1h1v2a42 42 0 01-1 7v1a3 3 0 011 2 3 3 0 010 1 33 33 0 010 3l1 5v6a1 1 0 010 1v1a31 31 0 010 3 3 3 0 010 1l1 1-1 1a5 5 0 01-1 0v6l1 5-1 1 2 6-1 1 1 4-1 2zm-7-130h1zm3-14v1h1a2 2 0 001-1z"/><path class="d" d="M622 507a3 3 0 01-3-1v-1h1a3 3 0 011-1v-1a15 15 0 010-3 21 21 0 01-2-5v-4a2 2 0 011-1 12 12 0 010-6l-1-3v-1a1 1 0 010-1v-3a3 3 0 011-1v-1a20 20 0 01-1-4l-1-2-1-4h1v-1l-1-1h3l-1-4a2 2 0 01-1-1l1-3v-1a5 5 0 010-2v-2l1-4-1-2v1l-1-6a4 4 0 01-1-2l-1-5v-1h1l2 3v-1-2l-1-4v-1-8l-1-1a5 5 0 01-1-2v-1h1v-1l-1-2h1a8 8 0 000-3l2-1h-2v-1-1a2 2 0 010-1v-2-1a1 1 0 010-1v-1-3a2 2 0 011-2v-1-1a25 25 0 000-6 18 18 0 01-1-2 2 2 0 010-2 8 8 0 011-2 4 4 0 000-2l-1-3a2 2 0 011 0 17 17 0 01-1-4l-1-2a3 3 0 010-1 16 16 0 01-1-2l-1-3v-1h1l3 2a3 3 0 011 1h1a13 13 0 010 2 4 4 0 010 1v2l2 4v1a2 2 0 01-1 1v1a6 6 0 010 4 3 3 0 001 2v1h-1v1a27 27 0 011 6v2l-1 2a2 2 0 010 1v2a28 28 0 010 4v6l-1 4v1l1 2v1l1 4-1 1v1a23 23 0 011 6v1a31 31 0 002 5l1 1h-1l-2 1v1a40 40 0 012 9v5h-1a10 10 0 010 1v1a6 6 0 000 2l1 1-1 1a2 2 0 010 1v1a36 36 0 001 5l2 6v1h-1l-2-3v4a14 14 0 001 4h-1v3a17 17 0 010 5h1v1h-1a11 11 0 001 6v1a2 2 0 01-1 2 21 21 0 001 5 3 3 0 011 1v1a39 39 0 000 4v1h-1a2 2 0 01-2 2zm0-6a3 3 0 001 0 2 2 0 001-1zm-2-49a2 2 0 001 0 2 2 0 001 0zm0-59h1zM610 505h-2a3 3 0 011-3 17 17 0 010-2 6 6 0 000-3l3-1a2 2 0 00-2-1 2 2 0 00-1 1 4 4 0 000-1h-1v-2l1-6a15 15 0 010-2v-1-3a34 34 0 01-1-6 5 5 0 000-1 2 2 0 002 0 2 2 0 002-1h-4a11 11 0 000-3l1-2a16 16 0 00-2-4 2 2 0 011-2v-1a12 12 0 01-2-3l3-1a22 22 0 00-1-5 2 2 0 01-1-1v-2-1a1 1 0 010-2v-4 1a6 6 0 011-2 2 2 0 000-1 1 1 0 01-1-1l1-6a4 4 0 010-3 16 16 0 00-1-6 19 19 0 01-1-3h2a10 10 0 010-2 21 21 0 00-1-6l-1 1v-3-1a5 5 0 011-3 15 15 0 010-2 14 14 0 010-4 3 3 0 011-2 20 20 0 00-1-5l-2-6 2 2a10 10 0 010-4v-2-2a7 7 0 010-2 3 3 0 010-2 33 33 0 010-5v-1l-1-3a47 47 0 010-6h1a7 7 0 00-1-1l4-1c1 2 0 3-1 4l1 4v7-1 5l1 3 1 4-2 1 1 3v2a11 11 0 010 3v6a2 2 0 01-1 1 17 17 0 001 3 3 3 0 010 1h1v1a2 2 0 01-2 1v4a23 23 0 011 6l1 1c0 1 1 4-1 5a32 32 0 010 7 3 3 0 000 1h1l-1 1v5a4 4 0 010 3 5 5 0 000 3 4 4 0 010 4v1a20 20 0 012 6l-1 4a16 16 0 00-1 3 16 16 0 011 4v5a9 9 0 010 1 4 4 0 010 1 13 13 0 010 2 2 2 0 010 1v5a1 1 0 011 0v2a10 10 0 000 3l3 6-4-3v3l1 4a8 8 0 010 3 12 12 0 000 3l2 7zm-1-67a2 2 0 00-1 0h2a3 3 0 00-1 0zm0-75h-1zM603 503h-1v7a3 3 0 01-2 0 2 2 0 01-2-1l1-1a9 9 0 00-1-4l-5-10h1l4 5a2 2 0 011-1v-1-2a14 14 0 00-2-4 1 1 0 010-1h2v-1h-1a2 2 0 00-1 1v-1a7 7 0 010-2l-4 1v-1l6-4a10 10 0 001-3 37 37 0 00-2-5 10 10 0 010-2h1a7 7 0 000-1h-1a3 3 0 010-1 12 12 0 000-3v-3l-1-2 1-6h1l-1-2v-3a6 6 0 010-2v-2l-1-2a1 1 0 010-1 4 4 0 010-3 2 2 0 010-2 2 2 0 011-1l-1-2v-3-4a2 2 0 010-1v-1-2a3 3 0 010-2 2 2 0 011-2v-2l-1-5 1-1-1-3a1 1 0 010-1 67 67 0 01-1-4v-1h2v-1h-1a2 2 0 00-1 1 3 3 0 011-2 6 6 0 011-3 15 15 0 00-2-4l-2-2h3a38 38 0 00-1-6 1 1 0 010-2v-1h1l-2-6a1 1 0 011-2 5 5 0 011-3 2 2 0 000-2 4 4 0 01-1-1 57 57 0 010-5 2 2 0 003-1h-3-1a2 2 0 012-1 2 2 0 012 1 46 46 0 011 4l1 2a4 4 0 01-1 4l1 4h-1a2 2 0 00-1 0l1 5v12a16 16 0 011 2v4a4 4 0 000 1v1h-2l1 1a1 1 0 00-1-1v1h1a3 3 0 010 1v2a32 32 0 011 5v5l1-1v6a2 2 0 01-1 1l2 8v0l-2-1v6a52 52 0 002 5l-3 1h1v4l1 3v7a1 1 0 010 1 2 2 0 01-1 1 7 7 0 000 3 27 27 0 011 3v2a13 13 0 010 4 16 16 0 010 2 4 4 0 010 2l1 3v4a9 9 0 01-1 2 11 11 0 010 3l-1 3a15 15 0 011 4 23 23 0 002 5l3 9v1l-4-5v-1zm-3 5a2 2 0 00-1 0h2a2 2 0 00-1 0zm-1-36a2 2 0 001 0 2 2 0 002 0z"/><path class="d" d="M592 503a2 2 0 01-3-2v-2-1l-1-4v-2a4 4 0 010-1v-1l-1-1 1-1a3 3 0 011 0v-1a13 13 0 00-2-5l3-2a2 2 0 00-2 1 6 6 0 000-1l1-1c-2-2-1-3-1-3a10 10 0 000-3 15 15 0 010-2v-1h1v-2a3 3 0 01-1-1v-2l-1-5v-1h-1 1v-1a89 89 0 01-1-7v-1l-2-5 3 2-1-6v-3l-2-3h3a2 2 0 011-1 3 3 0 010-1 4 4 0 010-1v-4l-1-4v-2a2 2 0 010-1v-4a14 14 0 01-1-3 17 17 0 000-5l-3-8 3 3a5 5 0 011-1 25 25 0 00-1-4 3 3 0 01-1-1l-1-3 1-1 2 1v-2a20 20 0 00-2-6v-1h2l-1-2a29 29 0 010-4v-4-2-3-1a8 8 0 010-3 6 6 0 000-2h-1 1c-1-3-1-5 1-5a2 2 0 013 1v2a1 1 0 01-1 1 1 1 0 010 1 9 9 0 010 2 6 6 0 001 4l4 6h-1l-3-2a11 11 0 010 2v8l1 3a2 2 0 01-1 1v1a21 21 0 011 3 9 9 0 000 3v1h-1v1a19 19 0 010 3l1 4a2 2 0 01-1 1h1-1a5 5 0 000 1 3 3 0 010 2v1a19 19 0 010 4 9 9 0 001 4l-1 1a18 18 0 001 3 67 67 0 002 7l2 5h-1l-2-2v1h-1a5 5 0 010 1 4 4 0 01-1 4 9 9 0 011 2 2 2 0 010 1v1a58 58 0 001 7 1 1 0 01-1 1 3 3 0 01-1 2l1 3v2l1 3h-1l1 5v1h1v3l-1 3a12 12 0 010 4 11 11 0 001 2v1l-1 1a7 7 0 01-1 2 15 15 0 011 4v3a6 6 0 010 2v2a331 331 0 012 6 1 1 0 010 1v1a2 2 0 01-2 2zm-3-13zm1-13h1zm-2 0h0zm2-7h1-1zm0-4h1a2 2 0 00-1 0zm-2-43a3 3 0 001 0 2 2 0 001-1zm1-19a2 2 0 00-1 1 3 3 0 001 0 2 2 0 001-1 2 2 0 00-1 0zm-2-40h-1a2 2 0 000 1l1-1zm2-2a1 1 0 000 1 1 1 0 000-1zM715 512v-3a2 2 0 011-2v-4c-1-4-2-6-1-8a12 12 0 010-4v-2a1 1 0 010-1v-3-3a2 2 0 01-1-2 2 2 0 011-1l-1-6-1-1h1a8 8 0 010-3 3 3 0 010-1 7 7 0 010-1 1 1 0 010-1v-4-2a2 2 0 010-1v-7a4 4 0 011-2v-3a3 3 0 01-1 0v-1l1-2a2 2 0 010-1v-1c-2-4-2-8-2-10l1-4-1-5-1-4h1a7 7 0 010-1c-2-5-1-7 0-8a2 2 0 010-1 2 2 0 010-1v-1a17 17 0 000-3 11 11 0 01-1-5 4 4 0 01-1-1h1v-3-3a8 8 0 010-3 2 2 0 011-2l-1-8v-2a2 2 0 011-1l-1-6a2 2 0 000-1v-2l2-2 1 3 2 11v7l1 2 4 8-6-5v1-2a29 29 0 000 4v3a4 4 0 01-1 1 11 11 0 001 4l1 5v2a6 6 0 010 2v7l-1-2a4 4 0 011 3h-1v3l1 3v1a2 2 0 001 1v1a1 1 0 010 1 3 3 0 01-1 1v6a18 18 0 001 5h1l1 10-1-1a7 7 0 010 2l-1 4v-1 13a4 4 0 010 1 6 6 0 000 3 3 3 0 010 1l1 6v3h1l-1 1a3 3 0 01-1 0v3a22 22 0 010 5c0 2 0 3 2 5l4 7-5-4 2 6h-2a50 50 0 001 5h-1v1zm0-60zm2 0h-1a3 3 0 001 0zm-4-33a1 1 0 000-1 2 2 0 000 1zM706 508a2 2 0 01-1 0h-1a14 14 0 01-1-1 1 1 0 011-2l-1-3a3 3 0 011-2l-2-7a1 1 0 011-1l-1-3v-1-1a1 1 0 010-1 15 15 0 011-5 29 29 0 000-5 1 1 0 010-1v-4h-2l2-2a30 30 0 00-1-7 2 2 0 010-1l-1-1v-1l-1-6 2 2v-4l-1-2h1l-2-7h2v-1a12 12 0 01-1-2l1-3a11 11 0 000-5 2 2 0 01-1-1v-2a2 2 0 010-2v-2a2 2 0 011-1 29 29 0 01-1-3 5 5 0 010-3v-1h-1v-3a4 4 0 010-1 5 5 0 001-3v-3a7 7 0 000-4 5 5 0 010-2 10 10 0 00-1-2h1l1-4v-1a35 35 0 00-3-10l-6-9 6 5a2 2 0 011-2 26 26 0 010-8v-10l1 3a3 3 0 011 0l2 1v4l-1 2a25 25 0 000 7 4 4 0 011 2 13 13 0 011 3v10l-1-2 1 3 1 2 1 4-2-1a5 5 0 011 2h-1a2 2 0 01-1 1 3 3 0 000 1 9 9 0 010 6v1a8 8 0 010 4 2 2 0 000 1v1a24 24 0 011 3l2 8-2-3 1 4h-1v3a13 13 0 011 8 18 18 0 000 2h-1a15 15 0 001 3 2 2 0 010 1h-2a19 19 0 011 3v1a2 2 0 010 1v2a44 44 0 010 7v3a4 4 0 010 1l1 3v6l1 2v3a1 1 0 01-1 1 32 32 0 010 4 3 3 0 011 1v2a4 4 0 01-1 0l-1 4 1 2v6l2 6-1 1a38 38 0 000 4h1l-1 2zm-7-130h1a2 2 0 00-1 0zm3-14v1a2 2 0 002-1z"/><path class="d" d="M695 512a3 3 0 01-3-2l1-1a3 3 0 011-1v-1a14 14 0 01-1-3 21 21 0 01-1-4v-4a2 2 0 011-2 12 12 0 01-1-6v-3a1 1 0 010-1v-3a3 3 0 010-2 20 20 0 010-5l-1-2-1-4 1 1-1-1v-2h3l-1-3a2 2 0 01-1-1l1-4a5 5 0 010-3v-1l1-4-1-3v1l-1-5a4 4 0 01-1-2l-1-7 3 3-1-2v-5-9l-1-1a4 4 0 01-1-2l1-1-1-2 1-1a7 7 0 000-2l2-1v-1l-1 1-1-1a1 1 0 000 1 14 14 0 000-1v-1a2 2 0 010-2v-2-1a1 1 0 010-1v-1-2a2 2 0 011-3 3 3 0 010-1v-1a26 26 0 000-6 20 20 0 01-1-2 2 2 0 010-2 7 7 0 011-1 4 4 0 000-3c-1-1-2-1-1-2a2 2 0 011 0 16 16 0 01-1-5l-1-1a3 3 0 010-1 16 16 0 01-1-3l-1-4 4 3a3 3 0 011 1h1a9 9 0 010 1 4 4 0 010 2v2l1 4h1v1a2 2 0 01-1 1 6 6 0 010 4 3 3 0 001 3l-1 1a27 27 0 011 7v1a4 4 0 010 1h-1v2a2 2 0 010 1v2a28 28 0 010 3v6l-1 5a46 46 0 011 2v2l1 3-1 1v2a23 23 0 011 6v1a33 33 0 002 5l1 1h-3v2a40 40 0 012 9v5l-1-1a12 12 0 010 2 6 6 0 000 3l1 1-2 1a2 2 0 011 0v1a37 37 0 001 6l2 7-3-3v4a13 13 0 001 4h-1v3a16 16 0 010 5v1a11 11 0 001 5v1h-1v1a2 2 0 010 2 20 20 0 001 5 3 3 0 011 1h-1a38 38 0 001 5v1h-1a3 3 0 01-2 2zm0-7a2 2 0 001 0 2 2 0 001 0zm-2-48a2 2 0 001 0 3 3 0 001 0zm0-60a2 2 0 001 0zM684 509h-3a3 3 0 012-3 16 16 0 01-1-2 6 6 0 000-3l3-1a2 2 0 00-1-1 2 2 0 00-2 1 4 4 0 000-1h-1v-2l2-6a14 14 0 01-1-2v-1-3a33 33 0 01-1-6h1a5 5 0 00-1-1 2 2 0 002 0 2 2 0 002-1h-4a11 11 0 000-3l1-2a16 16 0 00-1-4 2 2 0 010-2v-1a12 12 0 01-1-3l2-1a23 23 0 00-1-5l-1-1v-2-1a1 1 0 010-2v-4 1a6 6 0 011-2 2 2 0 000-1 1 1 0 010-1h-1 1v-6a4 4 0 010-3 16 16 0 00-1-6 23 23 0 01-1-3h2a10 10 0 010-2 21 21 0 00-1-6l-1 1 1-3v-1a5 5 0 010-3 14 14 0 010-2 13 13 0 010-3v-1a3 3 0 011-2 20 20 0 000-5 1 1 0 01-1 0l-2-6 2 2a10 10 0 010-4l1-2-1-2a7 7 0 010-2 4 4 0 010-2 33 33 0 010-5v-1l-1-3a47 47 0 010-6h1a6 6 0 000-1l3-1v8l1 4v3-1 8l1 4-1 1v5a11 11 0 011 3l-1 4v2a2 2 0 010 1 17 17 0 000 3 4 4 0 011 1v1a2 2 0 01-2 1v1l1 2a1 1 0 010 1 23 23 0 011 5v2c0 1 1 4-1 5a33 33 0 010 7 3 3 0 001 1l-1 1v5a4 4 0 010 3 5 5 0 000 3 4 4 0 010 4v1a20 20 0 012 6v4a3 3 0 01-1 1 3 3 0 01-1 2 16 16 0 011 4l1 4-1 1a11 11 0 010 1 4 4 0 010 1 13 13 0 010 2 2 2 0 010 2l1 4a1 1 0 010 1v1a9 9 0 001 3l2 6-4-3v3l1 4a8 8 0 010 3 12 12 0 000 3l2 8zm-2-67a2 2 0 00-1 0h2a3 3 0 00-1 0zm0-75a2 2 0 00-1 0z"/><path class="d" d="M676 500h-1a2 2 0 010 1c0 2 1 5-1 6a3 3 0 01-2 0 2 2 0 01-2-2h2a8 8 0 00-1-4l-6-11 6 6a2 2 0 011-2l-1-2a14 14 0 00-1-5l2-1-1-1a2 2 0 00-1 2v-1-3l-6 2 8-5a10 10 0 001-3 37 37 0 00-2-5 13 13 0 01-1-2h1a8 8 0 000-1 3 3 0 010-1 11 11 0 000-4v-2l-1-2v-1l1-5v-3-2-1a6 6 0 01-1-1v-3-2a4 4 0 010-3 2 2 0 010-3 2 2 0 011 0l-1-2v-4-3-2l-1-2a3 3 0 011-2 2 2 0 010-3v-1-6h1l-1-3a1 1 0 010-1l-1-2v-3l1-1a2 2 0 00-1 1 3 3 0 011-2 6 6 0 010-3 14 14 0 00-1-4l-3-3 4 1a39 39 0 00-1-6 1 1 0 010-2v-1h1l-2-6v-1a1 1 0 011-1 5 5 0 011-3 2 2 0 000-2 4 4 0 01-1-2l-1-3v-2a2 2 0 002 1 2 2 0 002-1h-4l2-2a2 2 0 012 2v3l1 3a4 4 0 010 3v5h-1l1 5v11a15 15 0 011 3v4a2 2 0 01-1 0 3 3 0 001 1l-2 1v1a1 1 0 001-1 2 2 0 000 1 2 2 0 01-1 0l1 3a32 32 0 011 5v9a2 2 0 01-1 2l3 9-2-3a2 2 0 01-1 1v1l1 4a52 52 0 001 6h-2v2l1 3v3a2 2 0 010 1l1 6v1a2 2 0 01-1 1 7 7 0 00-1 3 24 24 0 011 2v3a13 13 0 011 4 16 16 0 010 2 4 4 0 010 2l1 3v4a8 8 0 01-1 2 10 10 0 01-1 3l-1 3a15 15 0 012 4 23 23 0 001 5l5 11zm-3 5a2 2 0 00-1 0h2a2 2 0 00-1 0zm-2-36a2 2 0 002 0 2 2 0 001-1z"/><path class="d" d="M664 508a2 2 0 01-2-2v-3l-1-5v-2a4 4 0 010-1 3 3 0 010-1l-1-1h1a3 3 0 011-1 13 13 0 00-2-6h-1l4-1a2 2 0 00-2 0 6 6 0 000-1l1-1c-2-2-2-3-1-3a11 11 0 000-3 14 14 0 010-2h1v-3a2 2 0 01-1-1v-2l-2-5v-1h1v-1-2l-1-5-1-1-2-5 5 3-2-6v-4l-3-3 4 1v-1a2 2 0 010-1 4 4 0 011-2v-3a70 70 0 01-2-6 2 2 0 010-2l1-4a13 13 0 01-1-2 17 17 0 00-1-6l-3-9 4 5a5 5 0 010-1 1 1 0 011-1 24 24 0 00-1-3 3 3 0 01-1-2l-1-3 3 1a14 14 0 010-2 20 20 0 00-2-7l1-1v-2a31 31 0 010-4v-3-3-3a8 8 0 01-1-4 5 5 0 000-2c0-3 0-4 2-5a2 2 0 012 1 1 1 0 011 0v3a1 1 0 01-1 1 9 9 0 010 2 6 6 0 001 4l4 8-4-4a13 13 0 010 3l-1 2v2h1v6a2 2 0 010 2 20 20 0 010 4 9 9 0 001 2v1h-1v1a7 7 0 010 1 18 18 0 010 2v4a2 2 0 010 1 5 5 0 000 2 3 3 0 01-1 2 19 19 0 011 4 9 9 0 001 5h-1a17 17 0 001 3l-1 1a66 66 0 002 6l3 6-3-2-1 1a5 5 0 010 1l-1 3a9 9 0 011 3 2 2 0 01-1 1l2 7a1 1 0 01-1 2 3 3 0 01-1 2v2l1 3v2l-1 1 2 5v7a12 12 0 01-1 4 12 12 0 001 2l1 1h-1v1a6 6 0 01-1 1 15 15 0 011 4v4a6 6 0 010 2 2 2 0 01-1 0l1 1 1 5v2a1 1 0 010 1v1a2 2 0 01-2 2zm-2-13h-1 1zm1-14l1 1a2 2 0 000-1zm-2 0a1 1 0 001 1v-1zm2-6zm0-5h1a3 3 0 00-1 0zm-2-43a3 3 0 001 0zm1-18a2 2 0 00-2 0h1a2 2 0 002 0 3 3 0 00-1 0zm-3-41a2 2 0 000 1h1zm3-1z"/><path class="f" d="M556 589c1-6 5-12 10-15s14-3 18 2c4-5 10-10 16-10s14 2 16 8c10 2 16 13 13 22a35 35 0 00-2 4v4c-1 4-3 8-6 11-6 7-14 11-22 14-9 3-19 5-28 1-7-3-13-10-14-18l1-9-2-14z"/><path class="g" d="M565 619c-1-5-3-10-2-15 1-6 4-12 10-15s13-2 18 2c3-5 9-9 16-10s13 2 16 8a15 15 0 016 3c2-8-4-17-13-19-2-6-10-9-16-8s-12 5-16 10c-4-5-12-5-18-2s-9 9-10 15l2 14-1 9a21 21 0 007 13 33 33 0 001-5z"/><path class="f" d="M653 717c9 0 16-8 14-16a14 14 0 007-25c4-3 5-8 3-12s-5-7-9-9a37 37 0 00-38 3 17 17 0 01-3 2 38 38 0 01-5 2c-6 1-9 8-10 15s3 12 6 18c3 8 10 7 16 12 6 4 10 11 19 10z"/><path class="h" d="M674 676c4-3 5-8 3-12s-5-7-9-9a36 36 0 00-12-4 17 17 0 017 8c2 4 1 10-3 12a14 14 0 01-7 25c1 8-5 15-12 17 3 3 7 5 12 4 8-1 15-9 14-17a14 14 0 007-24z"/><path class="f" d="M502 670a16 16 0 001 18 27 27 0 00-9 19c0 6 2 12 8 15 5 3 11 1 16-1-1 4 0 8 2 11a18 18 0 0010 6 23 23 0 0015-1c5-2 9-7 10-12 4 2 10 1 15-3s7-8 8-13c2-6 3-13 1-19s-7-12-13-14c1-3 2-7 0-11-2-3-5-4-8-6-7-3-15-5-22-5-9 0-12 4-19 7-6 3-12 2-15 9z"/><path class="h" d="M566 668h1a9 9 0 00-1-2v2zM578 701c-1 5-4 9-8 13s-11 4-15 2c-1 5-5 10-9 13a23 23 0 01-16 1 18 18 0 01-10-6c-2-3-3-8-2-11-5 1-11 3-16 0-4-2-6-6-7-10a27 27 0 00-1 4c0 6 2 12 8 15 5 3 11 1 16-1-1 4 0 8 2 11a18 18 0 0010 6 23 23 0 0015-1c5-2 9-7 10-12 4 2 10 1 15-3s7-8 8-13a34 34 0 002-15 37 37 0 01-2 7zM503 679a15 15 0 01-3-6 16 16 0 000 9 26 26 0 013-3z"/><path class="f" d="M508 598c-2 1-3 3-3 5s1 5 3 5a25 25 0 00-15 19 37 37 0 001 13c0 4 3 9 7 9a10 10 0 013 0c2 1 3 3 3 5a18 18 0 0031 7 5 5 0 012-2l5 2a24 24 0 0035-13 23 23 0 00-4-41c3-2 3-7 2-11s-5-7-9-8a25 25 0 00-14-2 19 19 0 01-4 0 20 20 0 01-5-1 24 24 0 00-20 3c-3 3-4 4-8 5s-7 1-10 5z"/><path class="h" d="M590 627a24 24 0 00-9-16 22 22 0 011 5 24 24 0 01-10 21 23 23 0 01-35 13l-4-2a5 5 0 00-2 2 18 18 0 01-18 7 17 17 0 01-6-3 18 18 0 0031 7 5 5 0 012-2l5 2a23 23 0 0035-13 24 24 0 0010-21z"/><path class="g" d="M514 618c-6 0-11 6-10 12s8 10 13 10a7 7 0 006-3 8 8 0 001-4 37 37 0 00-1-8 9 9 0 0010-6c1-3 1-7 4-8l5 1 5-5 1-6c-2-3-6-3-9-3h-14c-7 0-7 2-9 8-1 4-6 7-2 12z"/><path class="f" d="M589 662c-2 0-5 0-6 2s-2 4-1 5a25 25 0 00-23 5 36 36 0 00-8 11c-2 4-3 9 0 12a10 10 0 012 2c2 2 0 4-1 6a18 18 0 0020 25 5 5 0 013 0l2 4a23 23 0 0035 12 23 23 0 0023-34c4 0 8-3 9-7s0-8-2-12a25 25 0 00-9-11 21 21 0 01-4-2 20 20 0 01-2-4 24 24 0 00-18-10l-9-1c-4-2-6-4-11-3z"/><path class="h" d="M634 736a24 24 0 003-18 22 22 0 01-2 5 24 24 0 01-22 10 23 23 0 01-35-13l-2-4a5 5 0 00-3 1 18 18 0 01-18-7 17 17 0 01-3-5 18 18 0 0020 25 5 5 0 013 0l2 3a23 23 0 0035 13 24 24 0 0022-10z"/><path class="g" d="M583 688c-5-4-13-2-16 3s0 13 5 16l5 2a8 8 0 004-3 37 37 0 004-6 9 9 0 0011 1c3-2 5-5 8-4l4 4h7c3-1 4-2 4-5 1-3-2-5-4-7l-11-9c-5-5-7-2-12 0-3 2-9 2-9 8z"/><path class="f" d="M616 592c-2 0-4 0-6 2s-2 4-1 5a25 25 0 00-23 5 37 37 0 00-8 11c-2 4-3 9 0 12a10 10 0 013 2c1 1 0 4-1 6a18 18 0 0019 25 5 5 0 013 0l2 3a23 23 0 0036 13 23 23 0 0022-34c4 0 8-3 9-7s0-8-1-12a25 25 0 00-10-11 21 21 0 01-4-2 21 21 0 01-2-4 24 24 0 00-18-10c-4 0-6 0-9-2-4-2-6-3-11-2z"/><path class="h" d="M661 666a24 24 0 003-18 22 22 0 01-2 5 24 24 0 01-21 10 23 23 0 01-36-13l-2-4a5 5 0 00-3 1 18 18 0 01-18-7 17 17 0 01-2-5 18 18 0 0019 25 5 5 0 013 0l2 3a23 23 0 0030 16 23 23 0 006-3 24 24 0 0021-10z"/><path class="g" d="M608 610c-5-3-13-1-15 4s-1 12 4 16c1 1 3 2 5 1a8 8 0 004-2 37 37 0 005-6 9 9 0 0011 1c2-2 5-5 7-4l4 4h7c2 0 4-3 5-5 0-3-2-6-5-8l-11-8c-5-5-7-3-12 0-3 2-9 1-9 7z"/><path class="f" d="M535 645a19 19 0 00-7 6c-3 5-1 11 1 17-7 3-9 13-5 19s14 8 21 5a24 24 0 0034 0 24 24 0 003-3l3-3a9 9 0 014-1 13 13 0 0010-5 22 22 0 004-12 26 26 0 011-6l1-4a17 17 0 00-2-16 21 21 0 00-15-8 19 19 0 00-15-10c-10 0-13 5-19 11-4 5-13 6-19 10z"/><path class="g" d="M540 678c-3-6-4-12-1-18a19 19 0 016-5c6-4 15-5 20-10 6-6 9-12 18-11a19 19 0 0116 10 22 22 0 017 2 17 17 0 00-3-6 21 21 0 00-14-8 19 19 0 00-16-10c-10-1-13 5-19 11-4 5-13 6-19 10a19 19 0 00-7 5c-3 6-1 12 1 18-7 3-9 13-5 19a16 16 0 008 6c0-5 3-11 8-13z"/><path class="h" d="M603 642a18 18 0 00-2-2 15 15 0 01-1 7l-2 4a26 26 0 000 6 22 22 0 01-4 11 13 13 0 01-11 6 9 9 0 00-3 0l-3 3a24 24 0 01-38 4c-5 2-12 1-17-2a13 13 0 002 8c5 6 14 8 21 5a24 24 0 0034 0 24 24 0 003-3l3-3a9 9 0 014 0 13 13 0 0010-6 22 22 0 004-11 25 25 0 011-6l1-4a17 17 0 00-2-17z"/><path class="f" d="M582 636c-5 2-10 6-13 12s0 12 5 15c0 4 0 8 2 11 2 2 6 3 9 4 5 0 11-1 14-6a15 15 0 0021-1 15 15 0 003-5 34 34 0 011-5l2-3a10 10 0 00-8-15 12 12 0 00-6-10c-5-2-8 0-13 0l-17 3z"/><path class="h" d="M626 648a10 10 0 00-4-4 10 10 0 01-1 2l-2 3a32 32 0 00-2 5 15 15 0 01-24 7c-2 4-9 6-14 5a19 19 0 01-5-1c0 3 0 6 2 9 2 2 6 3 9 4 5 0 12-1 14-6a15 15 0 0024-6 33 33 0 011-5l2-3a10 10 0 000-10z"/><path class="i" d="M255 188a59 59 0 00-6-2c-8-3-23-11-31-11-2 0-9 1-15 14-3 7-3 15-2 22 1 14 13 61 15 67 3 7 6 16 12 22l8-1-1-2c-6-11-14-49 5-54a53 53 0 017-3l20-9h1l1-1c-1-5-3-10-6-14-5-6-13-5-20-5-5 0-9 1-11 3s-3 0-2-2c1-3 4-2 6-4s2-6 4-7 5 0 9-2c6-3 15 5 21 8a34 34 0 013 2 118 118 0 00-18-21z"/><path class="j" d="M269 230l-1 1zM268 231h-1z"/><path d="M189 170c-10 5-18 12-27 18-8 7-18 13-25 20l-2 2c13-6 20-6 34-12l15-9c-6 19-2 52 6 68 1-5 2-10 0-24-1-10-3-24-2-30 3-10 11-20 17-28 8-10 17-3 20-2a148 148 0 0022 8l-6-4c-15-11-35-16-52-7z" fill="#bab2a8"/><path class="l" d="M225 173c-3-1-12-8-20 2-6 8-14 18-17 28-1 6 0 20 2 30 2 14 1 19 0 24-8-16-12-49-6-68l-15 9c-14 6-21 6-34 12-5 7-7 15-7 24 0 15-1 42 4 49a21 21 0 003 3c-2-4 1-10 4-16 6-11 12-22 22-30l7-12c-1 10-8 21-13 30l-8 15c-4 6-5 11-4 18a61 61 0 007 3c-1-8 4-13 10-17 4-3 9-3 14-5 3-2 6-3 10-3 9 0 11 5 17 12 3 3 7-2 8-5s3-4 5-5c-4-15-12-49-13-60 0-7-1-15 2-22 6-13 13-14 15-14 9 0 23 8 31 11a58 58 0 016 2l-8-7a148 148 0 01-22-8z"/><path class="j" d="M171 209c-5 2-11 3-15 6-3 2-4 5-5 9-2 4-6 6-9 10-5 7-6 17-7 26 0 5-3 15 3 18a1 1 0 001 0c4-11 10-20 17-29 5-5 11-14 12-21 1-1 3-12 7-18 2-3-3-1-4-1z"/><path class="i" d="M168 228l-7 12c-10 8-16 19-22 30-3 7-6 12-4 16a30 30 0 008 5c-1-7 0-12 4-18l8-15c5-9 12-20 13-30z"/><path class="j" d="M214 271c-2 1-4 2-5 5s-5 8-8 5c-6-7-8-12-18-12l-9 3c-5 2-10 2-14 5-6 4-11 9-10 17h1c6-10 18-10 29-9 5 0 10 1 14 5 4 3 9 5 13 4 4-2 7 2 10 6h11c-6-6-9-15-12-22l-2-7zM273 209a38 38 0 00-3-2c-6-3-15-11-21-8-4 2-7 1-9 2s-2 5-4 7-5 1-6 4c-1 2 0 4 2 2s6-3 11-3c7 0 15-1 20 5 3 4 5 9 6 14l-1 1h-1l-20 9a52 52 0 00-7 3c-19 5-11 43-5 54l1 2 8-1a72 72 0 0014-5c13-18 13-62 14-62 1-2 4-3 6-4h2v2c4 11 9 33 9 48a20 20 0 005-5s0-9-3-23-14-34-18-40z"/><path d="M280 229v-2h-2c-2 1-5 2-6 4 0 0-1 44-14 62 9-3 19-1 24-3 6-3 10-7 9-10 1-14-7-40-11-51z" fill="#4f463f"/><path class="i" d="M207 294c-4 1-9-1-13-4-4-4-9-5-14-5-11-1-23-1-29 9a423 423 0 0067 6c-4-4-7-8-11-6z"/><path class="l" d="M272 225l-6-1c-4 1-8 5-18 6-7 0-14 0-19 4-3 2-3 3-4 6-3 5-6 5-7 8s2 9 2 12h1c3-6 7-13 12-17 4-2 8-4 18-5 7-1 11-4 17-5 8-1 7-5 12-6l-8-2z"/><path d="M1206 611c8-6 19-26 60-3 24 14 10 54 30 49 28-7 48 24 21 49s-38 20-66 6c-10-4-16-8-31-6s-20 24-49 27-74-30-52-49 25-28 19-46 28-42 43-27 19 4 25 0z" fill="#45dbe2"/><path d="M1266 701c-11 0-42-7-50-5s-31 7-38 20-54 5-56-12 6 2 18-20c11-20 12-27 12-33a6 6 0 01-4-3c-1-5 4-10 12-13s16-1 17 3a6 6 0 010 5c11 0 39-19 46-15s-19 11-10 18 32-7 38 0-19 7-13 13 23 2 26 6-6 5-2 9 9-3 14 1-23 6-18 12 20 14 8 14zm44-14c-1-5-10-7-20-4s-15 10-13 15 10 7 20 3 15-9 13-14z" transform="translate(1 1)" fill="url(#a)"/><path class="p" d="M1247 676c3-6 0-12-6-15-5-3-14 0-15 3 0 2 8 5 8 5-1 1-8-3-9-3-1 1-2 10 6 15a11 11 0 0016-5z"/><path class="q" d="M1225 667a33 33 0 014 1l5 2c1-1 0-2-4-3a23 23 0 01-3-3c1-3 9-5 14-3 5 3 8 9 5 15a11 11 0 01-6 5 10 10 0 01-9-1c-7-4-7-11-6-13z"/><path class="r" d="M1226 668l2 1c5 2 6 2 7 1l-4-4a36 36 0 01-4-2c2-2 9-5 14-2 5 2 7 8 5 13a10 10 0 01-6 6 10 10 0 01-8-1c-7-4-7-10-6-12z"/><path class="s" d="M1230 664c2-2 7-3 10-1 5 2 7 8 5 12a9 9 0 01-6 4 8 8 0 01-7 0 11 11 0 01-5-9h1c5 2 6 3 8 1 1-3-1-4-5-6l-1-1z"/><path class="p" d="M1252 642c3-4 2-9-1-12-4-2-10-2-11 1l4 4-5-3c-1 0-3 6 2 10a8 8 0 0011 0z"/><path class="q" d="M1239 632l2 2 4 2-2-3a17 17 0 01-3-2c2-2 7-3 10 0a8 8 0 012 10 7 7 0 01-5 3 7 7 0 01-6-2c-4-4-3-9-2-10z"/><path class="r" d="M1239 633l2 1 4 2c1-1 0-2-2-4l-2-1c1-2 6-2 9 0a7 7 0 012 10 7 7 0 01-5 3 7 7 0 01-6-2c-3-4-3-8-2-9z"/><path class="s" d="M1242 631c2-1 6-1 8 1a6 6 0 011 9 6 6 0 01-4 2 6 6 0 01-5-2 8 8 0 01-2-7v1l5 2v-1h1c1-1-1-2-3-4l-1-1z"/><path class="p" d="M1172 686a12 12 0 0016 0c5-4 4-13 1-15-1 0-6 6-7 5l6-7c-1-1-9-5-16 1-5 4-4 11 0 16z"/><path class="q" d="M1187 669l-2 3-3 4 4-2a22 22 0 013-3c2 3 3 11-1 15a11 11 0 01-15 0 12 12 0 01-4-9 9 9 0 013-7c7-5 14-2 15-1z"/><path class="r" d="M1186 669l-2 2c-3 4-4 5-3 6s3 0 5-3l3-2c2 2 2 10-1 13a10 10 0 01-15 0 11 11 0 01-3-8 9 9 0 013-7 11 11 0 0113-1z"/><path class="s" d="M1189 674c0 3 0 8-2 10a9 9 0 01-13 0 10 10 0 01-3-6 8 8 0 013-6 10 10 0 0110-2l-1 1c-3 3-4 4-3 6v1c3 2 4 0 7-2l2-2z"/><path class="p" d="M1186 650a8 8 0 00-6 10c1 4 7 7 9 6 1-1-1-6-1-6l3 5c1 1 6-3 5-9-1-5-6-7-10-6z"/><path class="q" d="M1191 665a23 23 0 01-1-2l-2-4v4a15 15 0 011 2v1c-2 0-8-2-9-6a8 8 0 016-9 8 8 0 016 0 7 7 0 013 5c1 5-3 9-4 9z"/><path class="r" d="M1191 664v-2l-3-3v6c-2 1-6-2-7-5a7 7 0 015-9 8 8 0 016 1 6 6 0 013 4 8 8 0 01-4 8z"/><path class="s" d="M1187 664c-2 0-5-2-5-4a6 6 0 014-8 7 7 0 015 0 5 5 0 013 4 7 7 0 01-2 7l-1-1c-1-3-1-4-3-4-2 1-2 2-1 5v1z"/><path class="t" d="M1190 674a8 8 0 01-5-3 7 7 0 0110 1 8 8 0 01-5 2zM1180 673a8 8 0 01-5-3 7 7 0 0110 1 8 8 0 01-5 2zM1183 676a3 3 0 112 5 8 8 0 01-2-5z"/><path class="t" d="M1183 666a3 3 0 112 5 8 8 0 01-2-5z"/><path class="t" d="M1191 669a8 8 0 01-6 2 8 8 0 013-5c2-2 5-2 5-2a8 8 0 01-2 5zM1183 676a8 8 0 01-5 1 7 7 0 017-6 8 8 0 01-2 5z"/><path class="t" d="M1187 676a8 8 0 01-2-5 7 7 0 017 7 8 8 0 01-5-2zM1180 669a8 8 0 01-1-6 7 7 0 016 8 8 8 0 01-5-2z"/><path class="u" d="M1190 672a8 8 0 01-5-1 6 6 0 019-3 8 8 0 01-4 4zM1182 674a7 7 0 01-6-1 7 7 0 014-3 8 8 0 015 1 8 8 0 01-3 3zM1185 676a3 3 0 113 4 7 7 0 01-3-4z"/><path class="u" d="M1182 667a3 3 0 113 4 8 8 0 01-3-4z"/><path class="v" d="M1189 668a3 3 0 111-5 7 7 0 01-1 5zM1185 676a3 3 0 110-5 7 7 0 010 5z"/><path class="v" d="M1188 675a7 7 0 01-3-4 6 6 0 018 4 7 7 0 01-5 0zM1180 670a7 7 0 01-3-4 7 7 0 015 1 8 8 0 013 4 7 7 0 01-5-1z"/><path class="w" d="M1186 670a2 2 0 01-1 1 2 2 0 010-1 2 2 0 011-1 2 2 0 010 1z"/><path class="w" d="M1185 672a1 1 0 11-1-1 1 1 0 111 1z"/><path class="w" d="M1186 672a2 2 0 01-1-1 1 1 0 012 1 1 1 0 01-1 0zM1184 671a2 2 0 010-1 1 1 0 011 1 1 1 0 01-1 0z"/><path class="w" d="M1186 671a2 2 0 01-1 0 1 1 0 012-1 2 2 0 01-1 1z"/><path class="w" d="M1185 672a2 2 0 01-2-1 1 1 0 012 0 2 2 0 010 1z"/><path class="w" d="M1185 672a2 2 0 010-1 1 1 0 011 2 2 2 0 01-1-1z"/><path class="w" d="M1185 670a2 2 0 010-1 1 1 0 010 2 2 2 0 010-1z"/><path class="x" d="M1186 670a1 1 0 01-1 1 1 1 0 011-1zM1185 671a1 1 0 010 1 1 1 0 010-1z"/><path class="x" d="M1186 671a1 1 0 01-1 0 1 1 0 011 0zM1185 671a1 1 0 01-1-1 1 1 0 011 1z"/><path class="x" d="M1186 671a1 1 0 01-1 0 1 1 0 011-1 1 1 0 010 1zM1185 671a1 1 0 01-1 0 1 1 0 011 0z"/><path class="x" d="M1185 671a1 1 0 011 1 1 1 0 01-1-1zM1185 670a1 1 0 010 1 1 1 0 010-1z"/><path class="p" d="M1118 717c4-4 12-8 12-8s-4 8-8 11a21 21 0 01-9 6 21 21 0 015-9z"/><path class="q" d="M1117 719c7-9 2 1 2 1s9-6 1 2a13 13 0 01-6 3 16 16 0 013-6z"/><path class="r" d="M1117 719c6-7 1 2 1 2s9-6 1 1a11 11 0 01-5 3 14 14 0 013-6z"/><path class="q" d="M1119 719l-1 1h2a68 68 0 00-6 5l5-6z"/><path class="p" d="M1116 711c5-2 13-2 13-2s-6 5-11 7a21 21 0 01-10 1 21 21 0 018-6z"/><path class="q" d="M1113 713c10-5 2 1 2 1s11-1 0 2a13 13 0 01-7 1 16 16 0 015-4z"/><path class="r" d="M1113 713c9-5 0 2 0 2s11-2 2 1a11 11 0 01-6 0 14 14 0 014-3z"/><path class="q" d="M1115 713l-1 1h2a68 68 0 00-7 3h-1l7-4z"/><path class="p" d="M1125 722c0-5 3-13 3-13v14a29 29 0 01-2 9 29 29 0 01-1-10z"/><path class="q" d="M1125 725c0-11 1-1 1-1s3-10 1 1a17 17 0 01-2 6 21 21 0 010-6z"/><path class="r" d="M1125 725c0-9 1 1 1 1s3-11 1 0a15 15 0 01-1 5 19 19 0 01-1-6z"/><path class="q" d="M1126 724v1l1-1-1 7h-1a60 60 0 001-7z"/><path class="p" d="M1119 705l7 4-8 2c-3 0-5-4-5-4s3-2 6-2z"/><path class="q" d="M1117 706c7 0 0 2 0 2s6 4 0 2a6 6 0 01-4-3 8 8 0 014-1z"/><path class="r" d="M1117 706c6 0 0 2 0 2s5 3 0 1a5 5 0 01-3-2 7 7 0 013-1z"/><path class="q" d="M1118 707l-1 1h1a24 24 0 00-4-1 14 14 0 004 0z"/><path class="p" d="M1128 718v-9l5 7c1 3-1 6-1 6s-4-1-4-4z"/><path class="q" d="M1128 719c-2-6 2-1 2-1s1-7 3 0a6 6 0 01-2 4 8 8 0 01-3-3z"/><path class="r" d="M1129 719c-3-5 2 0 2 0s0-7 1-1a5 5 0 01-1 4 7 7 0 01-2-3z"/><path class="q" d="M1130 718l1-1a25 25 0 000 5 14 14 0 00-1-4z"/><path class="p" d="M1127 702v8l-4-7a11 11 0 011-6 11 11 0 013 5z"/><path class="q" d="M1126 700c2 7-1 1-1 1s-1 7-2 0a7 7 0 011-4 9 9 0 012 3z"/><path class="r" d="M1126 700c2 6-1 0-1 0s-1 7-2 1a6 6 0 011-4 8 8 0 012 3z"/><path class="q" d="M1125 701c0 1 0 0 0 0v1a34 34 0 00-1-5 20 20 0 001 4z"/><path class="p" d="M1120 702l8 8s-7-3-10-6a20 20 0 01-5-6 20 20 0 017 4z"/><path class="q" d="M1118 700c7 6 0 2 0 2s5 7-2 1a12 12 0 01-3-5 15 15 0 015 2z"/><path class="r" d="M1118 701c6 4-1 0-1 0s6 7-1 1a11 11 0 01-2-3 13 13 0 014 2z"/><path class="q" d="M1119 702h-2l1 1-5-5a41 41 0 006 4z"/><path class="y" d="M1118 713a10 10 0 005 0 13 13 0 001-1 13 13 0 00-1 1 11 11 0 00-3 5 10 10 0 005-3 17 17 0 002-2 28 28 0 00-1 3 15 15 0 000 5 15 15 0 002-5v-2a5 5 0 001 2 5 5 0 001-3 9 9 0 00-2-3v-1 0h-1a13 13 0 000-3 6 6 0 00-1-3 6 6 0 00-1 3 9 9 0 001 2 20 20 0 00-2-2 10 10 0 00-4-2 10 10 0 003 3v1a4 4 0 00-3 0 5 5 0 002 2 10 10 0 00-4 3zm9-3zm0 0h1z"/><path class="x" d="M1131 708c-2 2-4 3-5 2s-1-3 1-5 3-2 4-1 1 3 0 4z"/><path class="x" d="M1130 708c-1 2-3 3-4 2s0-3 1-5 3-2 4-1 1 3-1 4z"/><path class="x" d="M1131 707a2 2 0 110-3 2 2 0 010 2zM1130 705l3-4-3 4z"/><path class="p" d="M1143 734c-4-6-12-12-12-12s3 10 7 15a24 24 0 008 7 24 24 0 00-3-10z"/><path class="q" d="M1144 737c-6-12-3 0-3 0s-9-8-1 2a15 15 0 006 5 18 18 0 00-2-7z"/><path class="r" d="M1144 737c-5-10-2 2-2 2s-9-9-2 0a13 13 0 006 4 16 16 0 00-2-6z"/><path class="q" d="M1142 736v2s-1-2-2-1a80 80 0 016 7l-4-8z"/><path class="p" d="M1147 728c-6-4-15-6-15-6s6 8 12 11a24 24 0 0011 3 24 24 0 00-8-8z"/><path class="q" d="M1149 730c-10-8-2 1-2 1s-12-3 0 3a15 15 0 007 2 18 18 0 00-5-6z"/><path class="r" d="M1149 730c-9-7 0 2 0 2s-12-4-2 2a13 13 0 006 1 16 16 0 00-4-5z"/><path class="q" d="M1147 730l1 2-2-1a80 80 0 018 4l-7-5z"/><path class="p" d="M1134 739v-16l-4 15a33 33 0 001 12 33 33 0 003-11z"/><path class="q" d="M1134 742c2-13-2-1-2-1s-1-13-1 1a20 20 0 001 7 25 25 0 002-7z"/><path class="r" d="M1134 742c1-11-2 0-2 0s-1-12-1 0a17 17 0 001 6 21 21 0 002-6z"/><path class="q" d="M1133 740l-1 1v-1 8a69 69 0 011-8z"/><path class="p" d="M1144 721c-4 0-9 3-9 3s5 3 9 3 7-3 7-3-3-3-7-3z"/><path class="q" d="M1146 721c-7-1-1 3-1 3s-7 3 1 2a7 7 0 004-2 9 9 0 00-4-3z"/><path class="r" d="M1146 721c-6-1 0 3 0 3s-7 2 0 2a6 6 0 004-2 8 8 0 00-4-3z"/><path class="q" d="M1145 723l1 1h-1a29 29 0 015 0v-1h-5z"/><path class="p" d="M1132 733c2-4 1-10 1-10s-5 4-6 7v7s4-1 5-4z"/><path class="q" d="M1131 734c4-6-2-2-2-2s0-8-3 0a7 7 0 001 5 9 9 0 004-3z"/><path class="r" d="M1131 734c3-5-3-1-3-1s1-7-1-1a6 6 0 000 4 8 8 0 004-2z"/><path class="q" d="M1130 732l-1 1v-1a27 27 0 01-2 5l3-5z"/><path class="p" d="M1136 715l-1 9 5-7a12 12 0 000-7 12 12 0 00-4 5z"/><path class="q" d="M1137 714c-4 6 1 1 1 1s0 7 2 0a8 8 0 000-5 10 10 0 00-3 4z"/><path class="r" d="M1137 713c-3 6 2 1 2 1s-1 7 1 1a7 7 0 000-4 8 8 0 00-3 2z"/><path class="q" d="M1138 715v-1l1 1a39 39 0 011-5 23 23 0 01-2 5z"/><path class="p" d="M1144 716l-10 8 12-4a23 23 0 007-7 23 23 0 00-9 3z"/><path class="q" d="M1146 715c-9 5 0 2 0 2s-8 7 2 1a14 14 0 004-4 18 18 0 00-6 1z"/><path class="r" d="M1146 715c-8 4 1 1 1 1s-7 7 1 2a12 12 0 003-4 15 15 0 00-5 1z"/><path class="q" d="M1145 717h2l-1 1 6-4a47 47 0 01-7 3z"/><path class="y" d="M1140 726l-1-1a5 5 0 003-1 5 5 0 00-3-2h1a12 12 0 003-3 11 11 0 00-4 1 23 23 0 00-3 2 11 11 0 001-2 7 7 0 000-3 6 6 0 00-2 2 15 15 0 00-1 4h-1v1-1 1a11 11 0 00-3 3 5 5 0 000 4 6 6 0 003-2l-1 2a17 17 0 001 6 17 17 0 001-6 35 35 0 000-4 20 20 0 002 3 11 11 0 004 4 12 12 0 00-2-5 18 18 0 00-1-2 15 15 0 002 1 11 11 0 005 2 12 12 0 00-4-4zm-6-2zm0 0z"/><path class="x" d="M1130 722c2 2 4 3 5 2s2-3 0-5-3-4-5-3-1 4 0 6z"/><path class="x" d="M1131 722c1 2 3 3 4 2s1-3 0-5-3-3-4-2-1 3 0 5z"/><path class="x" d="M1130 719a2 2 0 101-2 2 2 0 00-1 2z"/><path class="x" d="M1131 718l-2-5 3 5h-1zM1130 728l4-2c0-1-1-3-3-3s-4 0-4 2 1 2 3 3z"/><path class="x" d="M1130 727c2 1 4 0 4-1l-3-3c-2-1-4 1-4 2l3 2z"/><path class="x" d="M1128 727a1 1 0 10-1-2 2 2 0 001 2z"/><path class="x" d="M1128 725l-4-1 4 1c1 0 0 0 0 0z"/><path class="f" d="M1255 340c14-13 31-7 68 11s49 17 59 18 44 29 62 32 22 5 22 5l5 12s-5 11-47 13-61-4-92 15-58 20-94 13-53-9-60-13 15-14 50-10 46-4 41-8-14 2-38 0-65-17-65-17 75-58 89-71z"/><path d="M1444 401c-18-3-51-31-61-32s-23-1-60-18l-20-9c1 1 34 18 43 26 10 7 11 16 28 21a43 43 0 0128 25c3 7-24 5-42 12s-33 24-49 31a108 108 0 0021-11c31-19 51-12 92-15s47-13 47-13l-5-12-22-5z" style="mix-blend-mode:multiply" fill="#7ebb15"/><path class="aa" d="M1263 403c14-5-7-6-20-11s-18-11-1-12 15-6 10-9-9-15 4-15 10-12 10-16 4-7 5-7a24 24 0 00-16 7c-14 13-89 71-89 71s19-8 34-8 49 4 63 0zM1286 437c1-12-15-12-27-10 5 0 8-1 10 1 5 4-6 11-41 8-20-2-36 0-45 4a242 242 0 0150 3c27 4 51 6 53-6z"/><path class="ab" d="M212 676l49-5 30 12h12l80 30 57-11 22-12 16-8v-6l-42-33-50-19-39-19-21-3-35 18-33 23-33 10-13 15v8z"/><path class="ac" d="M212 669l49-4 30 12h12l80 30 57-11 22-13 16-7-2-9-40-30-50-20-39-18-21-3-35 18-33 23-33 10-13 15v7z"/><path class="ab" d="M258 637l11 11 32 3 40 13 23 11 39-2 29-17 22-6 1-14-11-8-62-21-28-11-30-3-36 14-16 13-14 7v10z"/><path class="ac" d="M258 631l11 11 32 3 40 12 23 12 39-3 29-16 22-6 1-8-11-15-62-20-28-11-30-4-36 14-16 13-14 7v11z"/><path class="ad" d="M367 643l-21-8-14 4v3l11 6 19 2 8 5h7l9-3 1-4-13-4-7-1zM315 605l-15 3-5 5 2 4 7 1 3-4 7-2 4-4-3-3z"/><path class="ab" d="M326 619l4-20 13-13 2-8 29-3 34 4 27 1 7 7 2 6 7 38-7 3-13 2-28-3-34 3-22-10-17-2-4-5z"/><path class="ae" d="M345 578l1 9 30 15 30-9 8 3 11-3 4-4 4 1 9-3-7-7-27-1-34-4-29 3z"/><path fill="#898989" d="M406 593l-30 9 2 12-2 6v8l-3 6-4 2 34-3-2-19 2-6-3-3 3 1 3-9v-4z"/><path class="ae" d="M431 633l-2-5-10-3-3-7-2-7 6-8-8 8-1 14-8 8 28 3 13-2-13-1z"/><path class="ag" d="M347 626l4-10v-7l3-4 1-4h1l2 8-1 7 1 4-1 4 1 7-11-5z"/><path class="ae" d="M339 595l1-3 6-5-1-9-2 8-13 13-4 20 5-18 8-6z"/><path class="ah" d="M362 588l14 7 11-2h8l1-4-8-6-9 2-7-4-9 3-1 4z"/><path class="ad" d="M386 583l-7 2-7-4-9 3-1 4 2 1 1-3 8-2 4 2 9-3z"/><path class="ab" d="M360 643l-21-8-14 4v3l11 6 19 2 15 5 9-3 1-4v-2l-13-2-7-1z"/><path class="ah" d="M360 641l-21-8-14 4v3l11 6 19 2 15 5 9-3 1-4-13-4-7-1z"/><path class="ab" d="M314 606l-17 1-5 3v2l1 5 8 1 3-4 7-2 3-4v-2z"/><path class="ah" d="M312 603l-15 3-5 4 1 5 8 1 3-4 7-2 3-4-2-3z"/><path class="ab" d="M429 667l-20 11-9 3v4l10 4 22 2 12-10 9-3 3-10v-3l-12 1-7 5-7-2-1-2z"/><path class="ah" d="M428 665l-19 10-9 3v3l10 5 22 2 12-10 9-3 3-10-12-2-7 4-7-1-2-1z"/><path class="ad" d="M301 645v6l29 9-29-7-32-5v-6zM364 669v6l34 1 11-1 11-6 10 2 7-4 7-4 10-8h6l-6-5 1-14-1 8-22 6-29 16-39 3zM466 667h-10v-2l-3 10-9 3-12 10v3l9-4 7-1 8-4 7-10 4-2-1-3zM369 636l29-2 17 2h16l-28-3-2-19 2-6-3-3 3 1 3-9v-4l-30 9 2 12-2 6v8l-3 6-4 2z"/><path style="mix-blend-mode:multiply" fill="#c6c6c6" d="M414 596l8 1-2 6-6 8 2 7 3 7 10 3 2 5 13 1h10l-3-3-7-38-2-6-9 3-4-1-4 4-11 3z"/><path class="ad" d="M372 581l-4 4v5l4 3-10-5 1-4 9-3z"/><path class="ag" d="M339 595l1 9 2 6v15h1l2-12v-9l3-4 2-5 3-3 4 1-11-6-6 5-1 3z"/><path class="ad" d="M291 677v6l17 2 2-6-7-2h-12z"/><path class="aj" d="M951 537l1-2 1 1 3 1 2 1-1 2-6-3z"/><path class="ak" d="M973 548l2-3 1 1 3 1 2 1-1 3-7-3zM999 560l1-3 2 1 3 1 2 1-2 3-6-3z"/><path class="aj" d="M1014 592l1 1v2l-2 3v1h-3l4-7z"/><path stroke-width="1.3" fill="#3f2b0f" stroke="#1d150c" stroke-miterlimit="10" d="M1002 616l3 2-1 1-2 4-1 2-2-1 3-8z"/><path class="ak" d="M991 641l2 2-1 1-1 3-1 2-3-1 4-7z"/><path class="aj" d="M894 603l-1-2v-1l2-3v-2l3 1-4 7z"/><path class="ak" d="M905 580l-3-1 1-2 1-3 1-2 3 2-3 6zM917 555l-3-2 1-1 1-3 1-2 3 1-3 7z"/><path stroke-width="1.4" fill="#3f2b0f" stroke="#1d150c" stroke-miterlimit="10" d="M960 656l-2 3-2-1-3-1-2-1 1-4 8 4z"/><path class="ak" d="M935 645l-1 3-1-1-3-2h-2l1-3 6 3zM912 633l-2 3-1-1-3-1-2-1 1-3 7 3z"/><path class="an" d="M888 620l-1 3 3 1 1 1 2 1h3l2-5-5-3-5 2z"/><path class="an" d="M897 622l-1 1-1 2v2l3 1 4 2h3l1-4a13 13 0 00-1-2l-7-3zM914 629l-1 2-1 1v3l3 1 1 1 3 1h2l3-5-9-4h-1z"/><path class="an" d="M905 626l-1 2-1 2 1 1 3 1 1 1h1l2 1 1-1 2-4-6-4-3 1zM939 642l-1 1-1 2v1l1 1 6 2h1l1-3 1-1-5-5-3 2z"/><path class="an" d="M929 637l-1 4v1l2 1 1 1 3 1h3l1-1 2-3-7-4h-4z"/><path class="an" d="M922 634l-1 1-1 2 1 2 1 1h1l2 1 2 1a10 10 0 001-1l1-4-2-2zM953 648l-2 3v1l1 1 1 1h2l2 2h3l1-1 1-1 1-3-7-4-3 1z"/><path class="an" d="M962 652l-2 4 1 1h1l1 1 2 1 4 2 2 1h2l1-1 1-1 1-2-9-6h-5zM946 644l-1 2-1 2v1l2 1 1 1 1 1 2 1 1-1a12 12 0 000-1l2-3-3-3z"/><path class="ao" d="M979 665h-1l-1-1-2-1h-1v-3l1-2v-1h2z"/><path class="an" d="M900 618l-1 2-1 2v1l3 1 1 1h2l1 1 2-1 2-4-7-4-2 1z"/><path class="an" d="M908 621l-1 2-1 1v2l3 2 4 2h1l2-1 1-3a13 13 0 00-1-2l-7-3zM936 635l-1 1-1 2v1l2 1 7 4 1-1h1l1-2 1-2-7-5-4 1z"/><path class="an" d="M925 628l-2 5v1l1 1 1 1 2 1 3 1h4l1-1 2-3-9-5-3-1z"/><path class="an" d="M917 624l-2 3-1 2 1 1 2 1h1l2 2 2 1h1a7 7 0 000-2l2-4-4-1zM894 619v1l1 1h2l1 1 1-1 2-4h-1l-6 2zM954 642l-1 2v1l-1 1 1 1 2 2 1 1 3 1h1l2-1 2-4-8-4h-2z"/><path class="an" d="M963 647l-1 2-1 1v1l1 1 3 1 1 1h2l2 1 1 1 1-1 2-5-7-4-4 1zM946 638l-1 3-1 2v1l3 1 1 1h4l2-4-6-4h-2z"/><path class="an" d="M976 658h-1l-1-1-2-1h-1v-1l1-2v-1l1-2 1 1zM906 615l-1 2v3l3 1 1 1h1l2 1 1-1 2-4-6-4-3 1z"/><path class="an" d="M915 618l-1 2-1 1v2l3 2 4 2h1l1-1 1-3a13 13 0 000-2l-8-4zM943 632l-1 1-1 2v1l1 1 7 3h1l1-3 1-1-6-5-3 1z"/><path class="an" d="M931 626l-2 4 1 1v1h2l2 1 3 2h4l1-1 1-3-8-5h-4z"/><path class="an" d="M923 622a13 13 0 01-1 1l-1 2v2l2 1h1l2 2 2 1 1-1a6 6 0 001-1l1-3-3-2zM970 645l-1 2-1 1-1 1-1-1a6 6 0 01-2-1 5 5 0 00-1 0v-1h-1l-1-1a5 5 0 010-1l2-3h5z"/><path class="an" d="M950 639v1l3 2 2 1 3 2h2l1-1 2-3-5-4-5-2-2 2-1 2zM974 650l-1 1h-1l-2-2h-1v-2l1-3h2l3 6h-1zM901 616v1l1 1h1l1 1h1l1-1 1-4-6 2zM909 613l-1 2v1l3 1 1 1h2l1 1 2-1 2-4-5-3-5 2z"/><path class="an" d="M918 614l-1 2v1l-1 1v1l3 2 4 2h1l2-1 1-3a15 15 0 00-1-2l-7-3zM935 622l-1 1v2l-1 1 1 1 2 2 1 1 3 1h1l1-1 3-4-9-4h-1z"/><path class="an" d="M926 618l-1 3v3l3 1h1l2 1h2l2-5-6-3h-3zM972 644l-2 1-2-1-1-1-1-1v-1l1-2 1-1 1-1 3 7z"/><path class="an" d="M960 634l-1 2-1 1v2h2l5 3h1l1-3 1-2-5-4-3 1z"/><path class="an" d="M950 630l-1 3v2l2 1 1 1 3 1h3v-1l1-1 2-2-7-4h-4z"/><path class="an" d="M944 626l-1 2-1 2v1l1 1 1 1 2 1 2 1a11 11 0 001-2l1-3-2-3zM930 614l-1 1-1 2-1 1 1 1 3 2 1 1 3 1h1l1-1 2-4-8-4h-1z"/><path class="an" d="M939 619l-1 1-1 2v1l1 1 3 1h1l1 1 2 1 1 1 1-1 3-5-8-4-3 1z"/><path class="an" d="M949 623l-1 2-1 3 3 1 1 1 2 1h1l2-1 2-4-7-4-2 1zM921 610l-1 3-1 2 1 1 2 1h2l1 1h3l2-5-7-3h-2z"/><path class="an" d="M957 627l-1 1-1 2v2l3 1 4 2h1l2-1 1-3a15 15 0 00-1-2l-7-3z"/><path class="an" d="M969 637h-2l-2-1h-1v-1l1-2v-3h2zM914 612l1 1 1 1h1l1 1h1l1-1 2-4-1-1-7 3zM922 609v1l2 1 2 1h2l2-4-1-2-7 3z"/><path class="an" d="M929 608v1l-1 2-1 1 1 1 2 1v1l3 1 1-1h1l2-4-6-3h-2z"/><path class="an" d="M936 611l-1 2-1 2v1l1 1 3 1h1l2 1 2 1h2l2-5-7-4h-4z"/><path class="an" d="M946 616l-1 2-1 2 1 1 3 1 1 1 1 1h1l2-1 2-4-7-4-2 1z"/><path class="an" d="M954 619v2l-1 1-1 1v1l4 2 3 2h1l2-1 1-3a15 15 0 000-2l-8-3z"/><path class="an" d="M966 630h-1l-1-1h-2v-1h-1l1-2v-2l1-1h1z"/><path class="an" d="M964 623l-2 1-2-1-1-1-1-1 1-1v-2l1-1 2-1 2 7z"/><path class="an" d="M953 613l-1 2-1 1v2h1l5 3h2v-3l2-1-6-5-2 1z"/><path class="an" d="M943 609l-2 3v1l1 1 1 1 2 1 2 1h3l1-1v-1l2-2-7-4h-3z"/><path class="an" d="M936 605l-1 2-1 2v1l2 1v1l2 1 2 1h1a10 10 0 000-2l2-3-3-3z"/><path class="an" d="M929 607l-1 1 2 1 2 1h1l1-1 1-2 1-2v-2l-7 4zM957 610l-1 2-1 2-1 1-2-2a6 6 0 01-1 0 5 5 0 00-1-1h-1l-1-1a5 5 0 010-1l2-4 5 1z"/><path class="an" d="M940 606v2l2 1 1 1 2 1h2l1-1 2-4-4-3-3-1-2 2-1 2z"/><path class="an" d="M935 604l1 1v1h2l1 1 1-1 2-4h-1l-6 2zM961 616l-1 1h-1l-2-2-1-1v-1l1-3h2l3 6h-1zM955 608h-4l-2-1-2-1-1-1v-2l2-3h2l7 4z"/><path class="an" d="M946 604v1l-2-1-2-1-1-1 8-3-1 2-2 3zM959 610l-2 1-2-2h-1v-1l1-2 1-2 1-1 2 6v1z"/><path class="an" d="M957 603l-1 1-3-1-1-1 1-2 1-3 2 3 1 3z"/><path class="an" d="M948 599v2l3 1h1v-1l1-3 1-1-6 2zM1022 572v-3l-3-1h-1l-2-1h-2l-2 5 4 2 6-2z"/><path class="an" d="M1012 571l1-1 1-2v-2l-3-2-4-1h-2l-1 4a15 15 0 000 1l8 4zM996 563v-1l1-1 1-2-1-1-3-1-1-1-2-1h-3l-2 4 8 4h2z"/><path class="an" d="M1004 567l1-2 1-3h-1l-2-1-2-1-1-1h-1l-2 1-2 4 7 4 2-1zM970 551l1-2 1-1v-1l-1-1-5-2h-2l-1 3-1 1 6 4 2-1z"/><path class="an" d="M980 556l2-4-1-1v-1h-1l-2-1-2-1-2-1h-1l-1 1-1 1-1 3 7 4h3z"/><path class="an" d="M987 559l1-2 1-2v-1l-2-1h-1l-1-1-2-1h-1a10 10 0 000 1l-2 4 3 2zM957 545l1-4v-1l-2-1-1-1-3-1h-4v2l-2 2 7 4h4z"/><path class="an" d="M947 541l2-4-1-1v-1l-2-1-2-1-4-2h-5v2l-2 2 9 5 5 1zM963 548l1-1 1-2v-2l-1-1h-1l-2-1-2-1a11 11 0 00-1 2l-2 3 3 2z"/><path class="ao" d="M931 528l2 1h2v1l1 1-1 1-1 2v2h-1z"/><path class="an" d="M1010 575l1-2v-3l-3-1-1-1-2-1h-1l-1 1-2 4 6 4 3-1z"/><path class="an" d="M1001 571l1-1 1-2v-1l-3-2-3-2h-2l-1 1-1 3a15 15 0 000 2l8 3zM973 558l1-2 1-1v-1l-2-1-7-4h-2v3l-2 1 8 6 3-1z"/><path class="an" d="M984 565l3-5-1-1v-1l-2-1-2-1-3-1-1-1h-2l-1 1-1 1-1 3 8 4 3 2z"/><path class="an" d="M992 569l2-3 1-2v-1l-2-1-1-1-2-1-3-1a7 7 0 00-1 1l-2 5 4 1zM1015 574v-2h-1l-1-1h-3l-2 4 1 1 6-2zM955 551l1-2 1-1v-3l-3-1-1-1-3-1h-2l-3 5 9 3 1 1z"/><path class="an" d="M946 546l1-2 1-2v-1h-1l-3-2h-1l-1-1-3-1h-2l-2 5 8 4h3zM964 554l1-2 1-2-1-1-3-1-1-1-1-1h-2l-1 1-2 4 6 4 3-1z"/><path class="an" d="M933 535h1l1 1h2l1 1v1l-1 1v3h-2zM1003 578l1-2 1-3h-1l-2-1-2-1-1-1h-1l-2 1-2 4 7 4 2-1z"/><path class="an" d="M995 574v-1l1-2 1-1-4-2-3-2h-1l-2 1-1 3a15 15 0 000 2l8 3zM966 561l2-2v-2l-1-1-6-3h-2l-1 3-1 1 7 5 2-1z"/><path class="an" d="M978 566l2-3v-1l-1-1-2-1-1-1-4-1-1-1h-2l-1 1v1l-2 3 8 4h4z"/><path class="an" d="M987 571a14 14 0 011-2v-3l-2-1-1-1-2-1-2-1h-1a9 9 0 000 1l-2 4 3 2zM939 548l1-2 1-2h1l2 1a6 6 0 011 0 5 5 0 001 1l1 1h1a5 5 0 010 1l-1 4h-5z"/><path class="an" d="M959 554v-2l-2-1-3-2-2-1-2-1h-1l-1 1-2 4 6 4 5 1 1-1 1-2zM935 542h3l1 1 2 1-1 2-1 2-2 1-2-6v-1zM1009 577l-1-2-2-1h-2l-2 4 1 1 6-2zM1001 580v-3l-3-1-1-1-2-1h-2l-2 5 4 3 6-2z"/><path class="an" d="M991 578l1-1 1-2v-2l-3-1-4-2h-2l-1 4a13 13 0 000 2l8 3zM975 571v-2l1-1 1-2-1-1-3-1-1-1-3-1h-2l-2 5 8 4h2z"/><path class="an" d="M983 574l1-2 1-2-1-1-2-1-2-1h-1l-1-1-2 1-2 4 7 4 2-1zM938 549l1-1 2 1 2 1v2l-1 2v1l-2 1-3-7z"/><path class="an" d="M949 559l1-2 1-2v-1l-1-1-5-2h-2l-1 3-1 1 5 5 3-1z"/><path class="an" d="M959 563l2-4-1-1-1-1-2-1-3-1h-3l-1 1-1 3 6 4h4z"/><path class="an" d="M966 566l1-1 1-2v-2l-2-1h-1l-1-1-2-1h-1a11 11 0 000 1l-2 4 3 2zM980 579v-2l1-1 1-2-1-1-3-1-1-1-2-1h-3l-2 5 8 4h2z"/><path class="an" d="M971 574l1-2 1-2-1-1h-1l-2-1-1-1-2-1-2-1h-2l-3 5 8 5 4-1z"/><path class="an" d="M961 570l1-3v-3l-3-1h-1l-2-1h-2l-2 5 6 4 3-1zM988 582l1-2 1-2v-1l-3-1-1-1h-2l-1-1-2 1-2 4 7 4 2-1z"/><path class="an" d="M952 566l1-1 1-2v-2l-3-2-3-1h-3l-1 4a15 15 0 000 2l8 3z"/><path class="an" d="M940 555h1l1 1 2 1h1v3l-1 1v2l-2-1zM995 581v-1l-1-1-2-1h-3l-2 5 1 1 7-3z"/><path class="an" d="M988 584l-1-2-2-1-2-1-1 1-2 4v2l8-3z"/><path class="an" d="M980 585l1-2v-1l1-1v-1l-2-1-1-1-2-1h-2l-3 5 7 3h1z"/><path class="an" d="M973 581l1-2 1-1v-1l-1-1-3-1-1-1h-1l-2-1-1-1-2 1-2 5 8 4 3-1z"/><path class="an" d="M963 577l1-2 1-3-3-1-1-1-2-1h-3l-2 5 7 4 2-1z"/><path class="an" d="M955 573l1-1v-2l1-1v-1l-3-1-4-2h-3l-1 4a14 14 0 001 2l7 3z"/><path class="an" d="M943 563h2l2 1h1v1l-1 2v1l-1 2h-1z"/><path class="an" d="M945 570l2-1 2 1 1 1h1v2l-1 2-1 1-1 1-3-7z"/><path class="an" d="M957 580l1-2v-2l1-1-2-1-5-2h-1l-1 3-1 1 5 5 3-1z"/><path class="an" d="M967 584l1-4v-1l-2-1-1-1-3-1h-4v1l-2 3 7 4h4z"/><path class="an" d="M973 587l1-1 1-2v-2l-1-1h-1l-2-1-2-1a11 11 0 00-1 1l-1 4 2 2z"/><path class="an" d="M981 586v-1l-2-1-2-1h-1v-1l-1 2-1 2-1 1 1 2 7-3zM952 582l1-2 1-1 1-1 2 1a6 6 0 011 1 4 4 0 001 0h1l1 1v1l-1 4h-5z"/><path class="an" d="M969 586v-1l-1-1-2-1-2-1-1-1-1 1h-1l-1 4 3 3 4 1 1-1 1-3z"/><path class="an" d="M974 589v-2h-1l-1-1h-3l-2 4 1 1 6-2zM948 577l1-1h2l2 2h1v2l-2 3h-2l-2-6zM955 585l1-1 2 1 2 1 2 1 1 1v1l-1 3-2 1-7-4z"/><path class="an" d="M963 589l1-1 1 1 3 1v1l-7 3 1-2 1-3zM951 583l1-1 3 1v2l-1 2-1 2v1l-3-7h1z"/><path class="an" d="M953 589h1l3 1v1l-1 2v3l-3-3v-4z"/><path class="an" d="M961 593v-1l-3-1-1 1-1 3-1 1 6-2v-1zM978 664h3l1-3 1-1 1-2v-1l-1-1-4-2-3 4 2 6z"/><path class="an" d="M980 654l1 1 2 1h1l2-3 2-4v-1l-1-1-3-1a15 15 0 00-2 0l-3 7zM987 637l2 1 1 1 1 1 1-1 2-3 1-1 1-3v-2l-5-2-4 8v1z"/><path class="an" d="M984 646l2 1 2 1 1-1 1-2 1-2v-1l1-1-1-2-4-2-4 7 1 2zM999 612l2 1 2 1h1l1-1 2-6v-1l-3-1-1-1-5 5 1 3z"/><path class="an" d="M995 622l4 2 1-1 1-1 1-2 1-3v-3l-2-1-2-1-4 6v4z"/><path class="an" d="M992 629l1 1 2 1h1l1-2 1-1 1-2 1-1v-1a9 9 0 00-2 0l-3-2-2 3zM1005 598l4 2h1l1-1v-1l1-1 2-3v-3l-1-1h-1l-3-2-4 7v3z"/><path class="an" d="M1010 589l3 2 2-1 1-2 1-2 2-4 1-2v-2l-1-1h-1l-3-2-5 9v5zM1002 605l2 1 2 1h1l1-2 2-2v-2-1a8 8 0 00-1 0l-4-2-2 3z"/><path class="ao" d="M1022 572v3l-1 1v1l-1 1-2-1-2-1h-1v-2z"/><path class="an" d="M975 651l3 2h3l1-3v-1l1-2v-2l-4-2-4 6v2z"/><path class="an" d="M979 643l1 1 2 1h2l2-3 1-4v-3h-4a15 15 0 00-1 0l-4 7zM993 615l1 1 2 1h1l1-2 3-7v-2l-3-1-1-1-5 8 1 3z"/><path class="an" d="M986 626l5 3 1-1h1v-2l1-2 2-3v-4l-1-1-3-1-5 8-1 3z"/><path class="an" d="M982 634l2 2a21 21 0 002 1h2l1-2v-1l1-3 1-2a9 9 0 00-1-1l-4-2-1 4zM977 657h1l1-1v-1l1-1v-1l-1-1-4-2v1l2 6zM1000 597l1 1h2l1 1 1-1 2-2 1-1 1-3-1-1v-1l-4-3-4 9v1z"/><path class="an" d="M1004 588l2 1 2 1h1l1-1 1-3v-1l1-1 1-3h1l-1-2-5-2-4 7v4zM996 606l3 1h3l1-3v-1l1-2v-2l-5-2-4 6 1 3z"/><path class="an" d="M1015 575v2l-1 2v1h-1l-2-1h-3v-2zM972 645l3 1 2 1 1-1 1-3v-1l1-1v-3l-5-2-3 7v2z"/><path class="an" d="M976 637h1l2 1h2l2-3 1-3v-3l-4-1a15 15 0 00-1 0l-4 8zM989 608l2 1 2 1h1l1-1 3-6-1-1 1-1-3-1-2-1-4 6v3z"/><path class="an" d="M984 620l4 2 1-1h1v-2l1-1 2-4v-4h-2l-2-2-5 8v4z"/><path class="an" d="M980 628a16 16 0 011 1l2 1h2l1-2v-1l1-2 1-2v-1a8 8 0 00-1 0l-3-2-3 3zM1002 581l3 1 1 1 1 1-2 2a6 6 0 010 1 5 5 0 00-1 1v1l-1 1a5 5 0 01-1 0l-3-2v-5z"/><path class="an" d="M997 601h1l2-2 1-3 1-2 1-2v-1l-1-1-3-2-4 6-2 5 2 1 2 1zM1008 577l1 1v1l-2 2-1 1h-1l-3-1v-2l6-3v1zM974 650h1l1-1v-1l1-1v-1h-1l-4-2v1l2 5zM971 642l2 1h1l1-3 1-1v-2l1-1-1-2-4-2-3 5 2 5z"/><path class="an" d="M972 633l2 1 1 1h2l2-3 1-4 1-1-1-2h-3a15 15 0 00-2 0l-4 7zM980 616l1 1 2 1 1 1 1-1 2-3 1-1 1-3-1-1v-1l-4-3-4 9v1z"/><path class="an" d="M976 625l3 1 2 1 1-1v-3l1-1 1-1v-3l-5-2-4 6 1 3zM1002 580v1l-1 2v2h-2l-3-1v-1l-2-1 8-3z"/><path class="an" d="M992 591l2 1 1 1h1l1-1 3-6h-1v-1l-2-1-2-1-4 5 1 3z"/><path class="an" d="M988 601l3 2 1-1h1l1-1v-2l2-3v-3h-1l-1-1-3-1-4 6 1 4z"/><path class="an" d="M984 608a17 17 0 012 1l2 1h1l1-2 1-1 1-2 1-1-1-1a11 11 0 00-1-1l-3-1-3 2zM972 622h1l2 1 1 1 1-1 2-3 1-1 1-2-1-2v-1l-4-2-4 8v2z"/><path class="an" d="M976 612l2 2h3l1-1 1-2v-1l1-2 1-2v-2l-5-3-4 8v3z"/><path class="an" d="M981 602l2 2h3l1-3 1-1 1-2v-1l-1-1-4-2-4 6 1 2zM968 630l3 1 2 1 1-1v-2l1-2 1-1v-3l-5-2-4 7 1 2z"/><path class="an" d="M985 594l1 1 1 1h2l2-3 2-4v-1l-1-1-3-1a13 13 0 00-2 0l-3 7z"/><path class="an" d="M995 582v1l-1 1v3h-3l-2-1h-1v-2zM969 637h2l1-1v-2l1-1v-1l-1-1-5-2v1l2 7zM967 629h1l1-2 1-2v-2l-5-2-1 1 3 7z"/><path class="an" d="M966 622l1 1h1l2 1 1-1 1-2h1l1-2-1-2v-1l-4-2-3 7v1z"/><path class="an" d="M969 615l2 1 2 1h1v-1l2-3v-1l1-1 1-3v-2l-5-2-4 8v3z"/><path class="an" d="M974 605l2 1 2 1 1-1 1-2 1-2v-1l1-1-1-2-4-2-4 7 1 2z"/><path class="an" d="M977 597h2l1 1 1 1h1l2-4 2-3v-1l-1-2-3-1a15 15 0 00-2 0l-3 8z"/><path class="an" d="M988 585v1l-1 1v2l-1 1h-1l-1-1h-2l-1-1v-1zM981 587v2l-1 2v1l-1 1-1-1h-3v-1l-2-1 8-3z"/><path class="an" d="M971 598l2 2h2l1-1 3-5-1-1-2-1-2-1-4 5 1 2z"/><path class="an" d="M967 608l3 2h1l1-1 1-1v-1l2-3v-3l-1-1h-1l-3-2-4 7 1 3z"/><path class="an" d="M963 615l2 1 2 1h1l1-1 1-1 1-2v-2a11 11 0 00-1-1l-3-2-3 3zM964 623h2l1-2 1-2v-1l-1-1-2-1-2-1-2 1 3 7zM968 594l2 1 2 1v1l-1 2a6 6 0 010 1 5 5 0 00-1 1v1l-1 1a6 6 0 01-1 0l-4-1v-5z"/><path class="an" d="M964 611h1l2-2 1-1 1-2v-2l-1-1-4-2-3 4-1 4 2 1 2 1zM962 616h1l1-1v-2l1-1-1-1-4-2v1l2 6zM974 590l1 1-1 2-1 1-1 2h-1l-3-2-1-2 6-2h1z"/><path class="an" d="M966 597v3l-1 2-2 2v1h-2l-3-2v-1l4-8z"/><path class="an" d="M962 605v2l-1 3h-1l-3-7h2l3 2zM968 592l1 2-2 3h-1l-3-1-1-1-1-1 6-2h1z"/><path class="an" d="M961 594l1 1-2 4-2-1-3-1 3-2 3-1zM957 603h1l2-3-1-1-3-1-2-1 2 6h1zM930 529l-2-1-1 1v2l-1 2-1 1v3l5 2 2-5-2-5z"/><path class="an" d="M929 538h-1l-2-1-1-1h-1l-2 4-1 3v3l4 1a13 13 0 002 0l3-8zM921 555l-1-1h-1l-2-1-1 1-1 2-1 1-1 3v3l4 2 4-8v-2z"/><path class="an" d="M925 547l-2-1-3-1-1 3-1 1-1 2v1l1 2 4 2 4-7-1-2zM909 581l-1-1-2-1h-1l-1 1-2 5v2h3l1 1 4-5-1-2z"/><path class="an" d="M914 571l-4-2h-1l-1 1v1l-1 1-1 3-1 1v2l1 1h1l3 2 4-7v-3z"/><path class="an" d="M917 564l-1-1-3-1h-1l-1 1v1l-1 2-1 2v1a11 11 0 001 0l4 2 2-3zM903 594l-3-1h-2l-1 2-1 1-1 3v3l2 1 2 2 4-7v-4z"/><path class="an" d="M899 604l-4-2h-1l-1 1-1 2-1 2-1 4-1 1v3l2 1 2 2 6-10v-4zM907 587l-2-1-2-1h-1l-1 2-1 1-1 2-1 1v1a11 11 0 002 1l3 1 3-2z"/><path class="ao" d="M886 620v-1l1-1 1-2v-1h1l2 1h1l2 1v1z"/><path class="an" d="M933 541l-2-1-2-1-1 1-1 2-1 2-1 1v1l1 2 4 2 4-7-1-2z"/><path class="an" d="M930 549h-2l-1-1-1-1h-1l-2 4-2 3v1l1 2 3 1a15 15 0 002 0l3-8zM916 578l-2-1-1-1h-1l-1 2-4 7v2h3l2 2 5-8-1-3zM923 566l-5-2-1 1h-1l-1 2-1 1-1 4-1 1v2l1 1h1l3 2 4-8 2-4z"/><path class="an" d="M927 558l-3-1-2-1h-1l-1 2-1 1-1 2-1 2v1a7 7 0 001 0l5 2 1-3zM932 535l-2 1-1 2v2l4 2 1-1-2-6zM909 595h-2l-1-1-1-1-2 1-1 3-1 1-1 2v3l5 2 4-8v-2z"/><path class="an" d="M904 605l-2-2h-2l-1 1-1 2-1 1v2l-2 2v2l5 3 5-8-1-3zM912 587l-2-1-2-1-1 1-1 2-1 2v1l-1 1 1 2 4 2 4-7-1-2z"/><path class="an" d="M893 617l1-2v-1l1-1 1-1 1 1 2 1h2l-1 1zM936 548l-2-1-2-1h-1l-1 3-1 1v2l-1 1 1 2 4 2 4-7-1-2z"/><path class="an" d="M933 556l-2-1-1-1h-2l-2 3-2 4v1l1 2 3 1a15 15 0 002-1l3-7zM919 584l-1-1-2-1h-1l-1 2-3 6v2h3l1 2 5-7-1-3z"/><path class="an" d="M925 572l-4-1h-1l-1 1-1 1-1 2-1 3-1 2v2h1l1 1 3 2 4-9 1-4z"/><path class="an" d="M929 564a14 14 0 01-2-1l-2-1-1 1-1 2-1 1-1 2-1 2v1a9 9 0 002 0l3 1 2-3zM906 612l-2-2h-1l-1-1 1-2a6 6 0 010-1 4 4 0 001-1v-1l1-1a5 5 0 011-1l4 2v5z"/><path class="an" d="M912 591l-2 1-1 2-1 2-2 3v3l4 2 4-5 2-5-2-1-2-2zM900 616v-3l1-2 1-1h2l2 2 1 1-6 3h-1zM935 542h-2v1l-1 2v2l4 2 1-1-2-6zM938 550l-3-1v1l-1 2-1 2-1 1v1l1 2 4 2 3-5-2-5z"/><path class="an" d="M936 559h-1l-2-1-1-1-2 4-2 3v1l1 2 3 1a13 13 0 002 0l3-8zM929 576l-2-1h-1l-1-1-1 1-2 3-1 1-1 2v3l5 2 4-8v-2z"/><path class="an" d="M932 568l-2-1-2-1h-1l-1 3-1 1v2l-1 1 1 2 4 2 4-7-1-2zM907 613l-1-2 1-2 1-1 1-1 1 1h2l1 1 1 2-7 2z"/><path class="an" d="M917 602l-2-1-2-1h-1l-1 1-2 5v2h3l1 1 5-5-1-2z"/><path class="an" d="M921 592l-4-2h-1v1l-1 1-1 1-1 3v4h2l2 2 4-7v-3z"/><path class="an" d="M925 585l-2-1-2-1h-1l-1 2h-1l-1 2-1 2v1a11 11 0 002 0l3 2 3-3zM937 571l-2-1h-1l-1-1-2 1-1 2-1 1-1 3v3l5 2 4-9v-1z"/><path class="an" d="M932 580l-2-1-1-1h-1l-1 1-1 3-1 1v2l-2 2 1 2 5 2 4-7-1-4z"/><path class="an" d="M928 590l-3-1-2-1v1l-1 2-1 2-1 1v3l5 2 4-7-1-2zM940 563l-2-2h-3l-1 3-1 1v2l-1 1 1 1 4 2 4-6-1-2z"/><path class="an" d="M924 598h-1l-2-1-1-1h-1l-1 4-2 3v3l4 1a13 13 0 002 0l3-8z"/><path class="an" d="M914 610v-1-1l1-2 1-1 2 1h1l2 1v1zM939 556h-1l-1 1v2l-1 1 1 1 4 3 1-1-3-7z"/><path class="an" d="M942 563h-2l-1 3-1 2 1 1 4 2 2-1-3-7z"/><path class="an" d="M943 571l-2-1-1-1h-2l-1 2-1 1-1 2v1l1 1 4 2 3-6v-1z"/><path class="an" d="M940 577l-2-1h-3l-1 1-1 2v1l-1 2-1 2-1 1 1 1 5 3 4-8v-4z"/><path class="an" d="M935 588l-2-2h-3l-1 3-1 1-1 2v1l1 1 4 2 4-6-1-2z"/><path class="an" d="M931 596l-1-1-2-1h-2l-1 3-2 4v1l1 2h3a13 13 0 002 0l3-7z"/><path class="an" d="M921 608v-1-1l1-2v-1h3l2 1h1v2z"/><path class="an" d="M928 605l-1-1 1-2 1-2h2l2 1h1l1 2-7 3z"/><path class="an" d="M938 594l-2-1-2-1h-1l-1 1-2 6v1l3 1 1 1 5-5-1-3z"/><path class="an" d="M942 584l-4-2-1 1-1 1-1 2-1 3v3l2 1 2 1 4-6v-4z"/><path class="an" d="M945 577l-1-1-2-1h-1l-1 2-1 1-1 2-1 1v1a11 11 0 002 0l3 2 3-2z"/><path class="an" d="M944 570h-1l-1 1-1 3v1h1l2 1 1 1h2l-3-7zM941 598l-3-1-1-1h-1l1-2a6 6 0 011-2l1-1v-1l1-1a5 5 0 011 0l3 2v5z"/><path class="an" d="M944 582h-1l-1 1-1 2-1 2v2h1l3 2 4-3v-4l-1-1-3-1zM947 577h-2v1l-1 1v3l4 1h1l-2-6zM935 602l-1-1v-1l2-2v-1h2l3 2v1l-6 3v-1z"/><path class="an" d="M943 596v-3l1-3 1-2h2l3 1 1 2-4 7z"/><path class="an" d="M947 588l-1-1 1-2 1-2h1l3 7-2-1-3-1zM941 600l-1-1 2-3 1-1 2 1 2 1 1 1-6 3-1-1z"/><path class="an" d="M948 598l-1-1 1-3 1-1 2 1 3 1-3 2-3 1z"/><path class="an" d="M951 589l-1 1-1 2v1l1 1 3 1h1l-2-5-1-1z"/><path transform="rotate(-65 954 596)" style="isolation:isolate" opacity=".1" fill="url(#b)" d="M902 544h103v104H902z"/><path class="aq" d="M887 621l8-2 7-3 10-3 12-4 12-5 14-5 4-1v-2l-5 1-14 5-12 5-12 4-9 3-8 3-8 3-1 1zM929 529l3 7 3 8 3 10 4 12 5 12 5 14 1 4 2-1-1-4-6-14-4-12-5-12-2-9-3-8-3-8-2-1zM1022 571l-8 3-8 2-9 3-12 5-12 4c-5 2-8 4-14 5l-4 2v2l4-2 14-5 13-4 12-5 9-3 8-3c3-2 6-2 8-2l1-2zM980 665l-2-8-3-8-3-9-5-12-4-13c-2-5-4-8-5-14l-2-4-1 1 1 4 5 14 4 12 5 12 3 10 3 7 2 8 2 1z"/><path class="aq" d="M956 599l-4-2 2-3 3 1v2a6 6 0 01-1 2z"/><path class="ar" d="M207 468l-11-1h-11l-10-1a13 13 0 01-8-7c-3-7-1-14-1-21a76 76 0 000-12 34 34 0 01-1-5 40 40 0 011-6 22 22 0 000-6v-6l-1-11a3 3 0 010-1v-36c-1-4-1-8 1-11a5 5 0 010-1 31 31 0 010-6 34 34 0 00-1-6 38 38 0 01-1-8l1-7v-8a12 12 0 011-5 7 7 0 001 0l8-2c2-1 5-4 4-6a8 8 0 003 1 22 22 0 004-1c4 0 7 2 11 3a2 2 0 002-1h1a2 2 0 001 0 10 10 0 004-1 29 29 0 014-1 12 12 0 014 0 19 19 0 015 1 5 5 0 010 5 22 22 0 00-1 10l1 11c2 8 1 16 1 25v112a8 8 0 01-2 6 8 8 0 01-5 2h-2c1 0 0 0 0 0a3 3 0 01-3 1z"/><path class="as" d="M165 340v8c1 2 8 1 10 1s1-10 1-12 1-10-2-10l-6 1c-5 0-4 4-4 9zm3-12l6-1c3 0 2 8 3 10 0 2 0 12-2 12h-10v-12c-1-5-2-9 3-9z"/><path class="at" d="M165 337c0-5-2-9 3-9 6 1 8-5 8 8 0 2 1 13-1 13h-7c-3 0-3 0-3-3a9 9 0 010-4 43 43 0 000-5z"/><path class="au" d="M165 342a9 9 0 000 4v1l8 2c6-2-1-4 1-5s0-8 0-9c0-5-1-4-3-6h-3a3 3 0 00-3 0l-1 8a43 43 0 011 5zm2 3l1-3v2l-1 1zm5 1l-1 1c0-1 0-3 1-1zm2-17l1 3c0-2-2-2-3-3h2z"/><path class="av" d="M166 389h11c3 0 1-5 0-5l-9-1c-6-1-3 5-2 6zm12-5c1 1 3 5 0 6-3 0-11 1-13-1-1-2-2-7 3-6l10 1z"/><path class="aw" d="M168 383h7l3 1 1 5-7 1-7-1c-2-4-1-7 3-6z"/><path class="ax" d="M169 390l-4-1c-1-3-1-5 1-6a18 18 0 001 0l7 1c3 0 2 1 3 2a2 2 0 01-1 3l-4 1a20 20 0 01-3 0z"/><path class="av" d="M195 302c2 1 9-2 11-2 3-1-1-5-1-5-1-1-8 1-9 1-7 0-2 6-1 6zm10-7c1 1 4 4 1 5-2 1-10 4-12 2-2-1-4-6 2-6 2-1 8-2 9-1z"/><path class="aw" d="M196 296l6-1h3c1 1 3 2 2 4l-6 3h-7c-3-3-2-6 2-6z"/><path class="ax" d="M198 302h-4c-2-3-2-4-1-6h8c4-1 3 0 4 1a2 2 0 010 3l-4 1a22 22 0 01-3 1z"/><path class="as" d="M203 389l-8 1-1-8v-4c-4-6 12-9 12-6 0 7 2 8 1 15l-4 2zm2-17c0-3-14 1-11 6v8l2 3 7-1 4-1c1-7-1-8-2-15z"/><path class="ay" d="M207 387c1-7-2-9-2-15 1-3-15 1-11 7v7c1 4 0 4 7 3 2-1 4 0 6-2z"/><path class="au" d="M203 371c-4 0-12 3-9 8v7c1 3 0 4 2 4a1 1 0 000-1c0-4 2-3 3-2a3 3 0 010 2h2a31 31 0 004-1 5 5 0 00-1-2c-1-1-7-2 1-2 1-4-4-2-5-2-8 0-3-2 0-3 6-5-4 0-4 0-2-1 3-3 3-3 4-2 5-4 4-5z"/><path class="av" d="M207 422a33 33 0 01-1 5c-1 2-8 1-10 1-3 0 0-10 0-12 0-4-1-7 3-6l5-1c6-1 4 6 4 9l-1 4zm-4-12c-5 2-6-3-7 4 0 2-3 13 0 13h9l2-5 1-4c0-5 2-10-5-8z"/><path class="aw" d="M208 418c0-2 2-11-5-8-4 2-7-3-7 4 0 4-3 13 0 14 13 1 9 0 12-8a4 4 0 000-2z"/><path class="ax" d="M196 417l-1 3a6 6 0 003 0c1 0 3 3-3 5-1 1 0 3 1 3h2a19 19 0 014-1c3-1 5-4 3-8 0 0 4-9-1-6-3-2-4-2-6 1-2-1 1 1-2 3z"/><path class="av" d="M192 465a33 33 0 01-1 4c-2 3-8 2-11 2-2-1 0-11 1-12 0-4-1-7 3-6l5-1c5-1 4 6 3 9v4zm-4-12c-5 2-6-3-7 4 0 2-3 13-1 13h10l1-5 1-4c1-5 2-10-4-8z"/><path class="aw" d="M192 461c0-2 3-11-4-8-4 1-7-3-7 4 0 3-3 13-1 13 13 1 9 0 12-8a4 4 0 000-1z"/><path class="ax" d="M181 460l-1 3a6 6 0 003 0c0-1 3 3-3 5h-1l1 2 3 1a19 19 0 014-1c2-1 4-5 3-8 0-1 3-9-1-7-3-1-4-1-6 2-3-1 1 0-2 3z"/><path class="as" d="M203 324c-2-2-2-2-4-1-5 1-6-1-6 6 1 11 2 10 9 7 2-2 2-10 1-12zm-10 5c-1-7 1-6 6-7l4 2c1 1 1 10-1 12-7 4-8 4-9-7z"/><path class="az" d="M202 336c-3 1-8 5-9-3-1-12 1-9 8-11l2 2c1 1 1 10-1 12z"/><path class="ba" d="M199 334l1-2c1-6-1-2-2-9-5 0-6 0-5 10 1 5 2 5 4 5 2-1 3-3 2-4zm-3-1c0 2-1 1-1 0-1-6 1-8 1 0z"/><path class="as" d="M205 455l-3-1c-5 1-7 0-7 7 1 10 2 9 9 6 2-2 3-10 1-12zm-10 6c0-8 2-7 7-7 1-1 2-1 3 1 1 1 1 10-1 12-7 4-8 4-9-6z"/><path class="az" d="M204 467c-3 2-8 5-8-2-2-13 0-10 7-11l2 2c1 0 1 10-1 11z"/><path class="ba" d="M200 469c1-1 2-2 1-4-1 0 1 1 1-2 1-6-1-2-1-8a1 1 0 00-1-1c-5 1-6 0-4 11 0 4 2 5 4 4zm-2-5c0 2-1 1-1 0-1-5 1-7 1 0z"/><path class="as" d="M197 391c-2 3-3 0-3 6v4c0 3 3 7 5 5v-14l-2-1zm2 15c-1 3-5-1-5-5v-4c0-6 1-4 3-6 1-1 1 0 2 1v14z"/><path class="ay" d="M199 392c1 7 1 18-3 14-3-4-2-4-2-9 0-6 1-3 3-6 1-1 1 0 2 1z"/><path class="au" d="M198 407l-2-1c-3-4-2-4-2-9 0-6 1-3 3-6v8c4 7-2 1 0 6a4 4 0 011 2z"/><path class="av" d="M179 341h8c5-1 4-4 4-7-1-1 0-7-3-7l-4 1c-5 0-2 3-3 6-1 1-3 6-2 7zm5-13l4-1c3 0 3 5 3 7 1 4 1 6-4 7h-8c-1-1 1-6 2-7 1-3-2-6 3-6z"/><path class="ax" d="M181 334c1-3-3-6 4-6 1 0 6-5 6 5 0 2 4 9-7 8-4 0-7 2-4-5l1-2z"/><path class="aw" d="M181 334c1-3-2-5 1-6a6 6 0 002 0h1l3-1c1 2 0 9 2 11 1 1-1 2-3 3a18 18 0 01-3 0 3 3 0 01-1-3c1-2-1-3-3-3a6 6 0 011-1z"/><path class="as" d="M202 321c-1 0-6 2-7 1l-1-7-1-3c-3-6 12-10 12-6 0 6 3 7 1 14l-4 1zm3-15c0-3-14 0-12 5l1 7 1 4 7-1 4-1c1-7-1-8-1-14z"/><path class="az" d="M207 320c1-7-2-9-2-14 0-3-16 0-11 6v7c1 4-1 4 7 2l6-1z"/><path class="ba" d="M196 306c2 1 3 3 4 2 2-1 3 4 2 4-2 1 2 1-2 3-1 0-3 3-2 5a8 8 0 010 2c-4 1-3 0-4-3v-7c-2-2 0-4 2-6zm5 15h3a15 15 0 001-2c2-3-1-3-1-3-2 1-4 0-4 2a16 16 0 000 3z"/><path class="bb" d="M191 445l-2 6-6 1c-3 0-4-10-4-12 0-4-1-14 5-15l7 2c2 2 2 11 2 14l-2 4zm0-18h1c-7-4-12-3-13 5 0 3-1 20 4 20h6l2-7 2-5-1-13z"/><path class="az" d="M193 441c0-2 0-14-2-14 0 0-12-8-12 8 0 3 0 17 4 17 7-1 6 2 8-6l2-5z"/><path class="ba" d="M189 426c-3-2-9-3-10 6l1 1a3 3 0 01-1 4c0 5 0 13 3 14 1-2 6 4 7-8 1-4-1-2-2-2-5 2 2-2 2-3 3-5-5-4-1-8 1-2 2-3 1-4z"/><path class="as" d="M204 390c-4 4-5 0-3 8v5c1 3 6 7 7 5 2-4-1-13-2-18h-2zm5 17c-1 4-7 0-8-4l-1-5c-1-8 0-5 3-8h3c2 5 4 13 3 17z"/><path class="ay" d="M206 391c3 8 5 21-1 17-5-4-4-5-5-10-1-8 1-4 3-8 1-1 2 0 3 1z"/><path class="au" d="M205 407c-5-3-4-4-5-9v-2a2 2 0 001-1 3 3 0 012-3c4 2-2 7 1 11 3 0 1-4 1-6 2 0 2 10 2 10h-2z"/><path class="as" d="M173 452c-7 0-8-3-8 3v4c0 2 7 9 10 8 4 0 2-9 1-13l-3-2zm3 15c-3 2-12-5-12-8l1-4c0-6 1-3 7-3l4 2c2 5 3 12 0 13z"/><path class="ay" d="M176 454c3 8 2 19-7 11-7-6-4-6-4-10 0-6 2-3 8-3l3 2z"/><path class="au" d="M169 464c-7-5-4-5-4-9a12 12 0 010-2h1c1-2 5 0 6 0 5 4-6 3-3 8 6 3 4-2 4-3 4 2 0 8 0 8l-4-2z"/><path class="av" d="M178 397a3 3 0 001-2v-2l1-3-2 1h-2l2 4v2zm0-2l-2-4c-1-2 1-1 2 0 1-1 3-2 2 0l-1 3c1 2-1 4-1 2a1 1 0 000-1z"/><path class="aw" d="M178 395l-2-4c-1-2 2 0 2 0 1 0 3-2 2 0l-1 2v2s-1 3-1 1a1 1 0 000-1z"/><path class="av" d="M180 395v-1-2c2-4-1-1 0-3s3-1 4 0c3 3 0 3-3 5h-1v1zm0-1l3-1c4-2 1-3-1-4s-2 0-2 1c2 0 1 2 0 3a3 3 0 000 1zm0 0v1z"/><path class="aw" d="M180 395v-2s2-3 0-3c0 0 1-3 3-1 0 1 4 2 0 4a21 21 0 00-3 1z"/><path class="av" d="M178 365l2 4c0 3-3 7-3 3 0-1-1-7 1-7zm0 7a4 4 0 000 1c2-3 1-4 0-8v7z"/><path class="ay" d="M178 365v8c3-3 1-4 0-8z"/><path class="av" d="M200 303l4-2c2-1 7 1 3 2-1 0-6 2-7 1v-1zm7-1a3 3 0 001 0c-4-2-4-1-8 1v1l7-2z"/><path class="ay" d="M200 304c1 1 5-1 7-1l1-1c-4-2-4 0-8 1v1z"/><path class="av" d="M193 406c0-5 1-3 1-1 0 4 3 7 1 8s-2 0-2-1v-6zm3 5l-1-6c-1-2-3-5-2 1a21 21 0 010 6c-1 3 4 2 3-1z"/><path class="ay" d="M193 412s0 2 2 1c3-1-1-4-1-8 0-2-2-5-1 1a18 18 0 010 6z"/><path class="av" d="M204 409a2 2 0 000-1l-4-4a22 22 0 00-1 3l5 2zm-1-2c4 4-4 1-4 0 1-7 2-1 4 0z"/><path class="ay" d="M199 407l1-3 2 2c1 2 4 3 1 3l-4-2z"/><path class="av" d="M211 468a2 2 0 00-1 0l-3-4a21 21 0 00-1 2c0 1 4 3 5 2zm-1-1c4 3-4 1-4-1 1-6 2-1 4 1z"/><path class="ay" d="M206 466l1-3 1 2c1 3 4 3 2 4l-4-3z"/><path class="av" d="M210 403v7c1 2 4-4 4-5v-2l-3-1-1 1zm4 0l-1 3c-1 2-2 6-3 3 0-3-1-5 1-7l3 1z"/><path class="aw" d="M211 402l3 1-1 5c-1 0-3 4-3 1 0-2-2-6 1-7z"/><path class="as" d="M193 312l-1 16-1-7v-8c1-3 1-3 2-1zm-2 1v7a25 25 0 000 3l1 5v-16c0-2 0-1-1 1z"/><path class="az" d="M191 313v8a19 19 0 010 4c0 3 1 4 2-2l-1-11c1 0 0-2 0 0l-1 1z"/><path class="av" d="M198 339l-6-1a22 22 0 002 3l4-2zm-1-1c5 0-3 4-3 3-4-5 0-2 3-3z"/><path class="ay" d="M194 341l-2-3h3c2 1 5 0 3 2l-4 1z"/><path class="av" d="M200 339a3 3 0 001 0l7 1a23 23 0 00-2-3l-6 2zm2 0c-7 0 4-4 4-2 5 6-1 2-4 2z"/><path class="ay" d="M206 337l2 3-3-1c-3-1-6 1-4-1l5-1z"/><path class="bb" d="M180 330v3a51 51 0 01-2 6c-1 2-1 0-1-1v-5l3-3zm-3 3v5a7 7 0 000 1l3-6v-3l-3 3z"/><path class="az" d="M180 330l-2 3c-2 1-1 4-1 5 0 0 0 4 1 0a13 13 0 001-2l1-3a3 3 0 001-1l-1-2z"/><path class="as" d="M192 330l-1-1c1-1 2 4 2 4v1c1 3-1 3-1 1v-4a1 1 0 010-1zm0 5l1 1v-2l-1-5v2 4z"/><path class="ay" d="M192 331v4c0 1 1 2 1-1v-1l-1-3c0-2-1-1 0 0v1z"/><path class="as" d="M207 306l-1-1c1-2 2 3 2 3v2c1 3-1 3-1 1l-1-5a1 1 0 011 0zm0 5l1 1a2 2 0 000-2c-1 0-1-7-2-5v1l1 5z"/><path class="ay" d="M206 306l1 5c0 1 1 2 1-1l-1-2v-2c0-2-1-1-1 0z"/><path class="av" d="M191 305v1l1 3c1-3 4-3 5-4a45 45 0 00-6 0zm1 4zm5-4c-2 2-3 1-5 4l-1-1v-3h6z"/><path class="aw" d="M191 305l4-1s3 0 1 1l-4 4-1-1v-3z"/><path class="av" d="M194 367c1 4 4 3 4 4l-4 1a9 9 0 00-1-3l-1-1 1-3 1 2zm-1-2v3l1 1a9 9 0 010 3l3-1-2-2-2-4zm4 6"/><path class="aw" d="M193 365v3l1 1a6 6 0 010 3h3c2-1-2-2-2-3a10 10 0 01-2-4z"/><path class="av" d="M191 367c-2 3-1 2 1 4l1 1v-1l-2-4zm2 4v2l-2-3c-2-1-1-1-1-2a3 3 0 011-1c1 1 3 3 2 4z"/><path class="aw" d="M191 367l2 3v2h-1c0-2-3-2-2-3l1-2z"/><path class="as" d="M178 342v2l3-2h-3zm3 0c1 1-2 2-2 2s-2 2-2-1c1 0 1 1 1-1h3z"/><path class="ay" d="M178 342h3c2 0-2 1-2 2-1 0-1 2-1 0v-2z"/><path class="as" d="M177 327v2l3-2h-3zm3 0h1l-3 2s-2 2-1-1v-1h4z"/><path class="ay" d="M177 327h3l-2 1-1 1v-2z"/><path class="av" d="M190 341a4 4 0 00-1 0s5 3 4 1c-1-3-3 0-3-1zm-1 0l4 1c1 1 0 2-1 1l-3-2a1 1 0 011 0c1 0 2-2 3 1z"/><path class="aw" d="M190 341c1 0 2-2 3 1l-1 1-3-2h1z"/><path class="as" d="M194 390c1 0 2 1 0 2l-2 3-1-1c-2-2-3-2-1-3l4-3v2zm-4 1c-1 1-1 1 1 2l1 1 2-2v-3-1l-4 3z"/><path class="ay" d="M194 388l-4 3c-2 1 0 1 1 2l1 1c1 1 1-2 2-2v-3-1z"/><path class="as" d="M206 372c2 2 0 2 1 3s1-2 2-2c3-2-1-1-2-3 0-1-2 0-1 2zm3 1c-1 1-1 4-2 2l-1-3c-1-2 1-3 1-2 2 2 5 1 2 3z"/><path class="ay" d="M207 370c1 2 5 1 2 3-1 1-1 4-2 2l-1-3c-1-2 1-3 1-2z"/><path class="as" d="M208 391l1 4c0 2-1 1-2-3v-4c2 0 1 1 1 3zm-1 1a18 18 0 002 4l-1-3v-4l-1-1c-1 1 0 2 1 4z"/><path class="ay" d="M207 388v4s1 5 2 3a7 7 0 01-1-2v-4l-1-1z"/><path class="av" d="M208 430l4 4c0 1-4 2-4 0a10 10 0 000-2l-1-2v-3l1 3zm-1 0l1 2a8 8 0 010 2h3l-2-2-2-5v3zm4 4"/><path class="aw" d="M207 428v2l1 2v2h3c2 0-2-2-2-2a10 10 0 01-1-4h-1z"/><path class="av" d="M190 450l3-7c1-2 1 5 1 6v3h-3a7 7 0 01-1-2zm4 1v-3c0-2 0-7-1-4s-3 5-2 7v1l3-1z"/><path class="aw" d="M191 452l3-1v-5c0-1 0-6-2-2 0 2-3 5-1 7v1z"/><path class="av" d="M209 443v5c0 2-2 6-2 2l1-7h1zm-2 7a5 5 0 000 1c3-3 2-3 2-8h-1l-1 7z"/><path class="ay" d="M208 443l-1 7v1c3-3 2-4 2-8h-1z"/><path class="av" d="M179 446l1 5c1 2-2 7-2 3v-8h1zm-1 8a4 4 0 001 1c2-4 1-4 0-9h-1l1 8z"/><path class="ay" d="M179 446c-2 1-1 6-1 7l1 2c2-4 1-5 0-9z"/><path class="av" d="M194 471l-1-5c-1-2 2-7 2-3 0 1 1 7-1 7v1zm0-8a4 4 0 000-1c-2 4-1 4 0 8v-7z"/><path class="ay" d="M194 471c2-1 1-6 1-7l-1-2c-2 4-1 4 0 8v1z"/><path class="as" d="M206 321c-2 3-2 0-2 6v4c0 3 3 7 3 5 2-3 1-11 1-14l-2-1zm2 14c-1 4-4-1-4-4v-4c0-6 0-4 2-6 1-1 1 0 2 1v13z"/><path class="az" d="M208 322c1 6 1 18-2 14s-2-5-2-9c0-6 1-3 2-6 1-1 1 0 2 1z"/><path class="ba" d="M207 337l-1-1c-3-4-2-5-2-9 0-6 1-4 2-6v8c3 6-2 1 0 6a4 4 0 011 2z"/><path class="bb" d="M193 422l1 2a37 37 0 010 5l-1-1-2-3 1-3a1 1 0 011 0zm-1 3c-1 1 1 2 1 3a6 6 0 000 1l1-5s0-2-2-2v3z"/><path class="az" d="M192 422v3c-1 1 1 2 1 3 0 0 1 3 1 0a10 10 0 000-2v-2a2 2 0 000-1l-2-1z"/><path class="bb" d="M187 424a2 2 0 001 1h1l2 1v-2-1l-3 1h-1zm1 0l2-1c2-1 1 1 1 1 0 1 1 3-1 2l-1-1a1 1 0 01-1 0l-1-1a1 1 0 001 0z"/><path class="az" d="M188 424l3-1v3l-2-1h-1l-1-1a1 1 0 001 0z"/><path class="bb" d="M179 422l-1 3a42 42 0 000 5c0 2 1 1 1 0l1-4-1-4zm1 4l-1 3a6 6 0 01-1 1v-5l1-3 1 4z"/><path class="az" d="M179 422l1 4c1 1-1 2-1 3 0 0-1 3-1 0a11 11 0 010-2v-2a2 2 0 010-1l1-2z"/><path class="av" d="M195 418a6 6 0 00-1-3l-1 3a20 20 0 001 3l1-3zm-2 0l1-4a6 6 0 011 4l-1 3a9 9 0 01-1-3z"/><path class="aw" d="M194 421a18 18 0 01-1-2 3 3 0 010-1 15 15 0 011-4l1 2a4 4 0 010 2l-1 3z"/><path class="av" d="M207 434a2 2 0 000-1l-2-5a26 26 0 00-1 2l3 4zm0-2c3 5-4 0-3-2 2-5 2 0 3 2z"/><path class="ay" d="M204 430l1-2 1 2c0 2 3 4 1 4-1 0-4-3-3-4z"/><path class="bb" d="M179 362c0 3 0 6 3 7 7 0 10-2 9-9l1-4v-9c1-5-5-5-8-4-7 1-5 4-6 10a30 30 0 001 9zm5-20c3 0 9 0 8 5v13c0 7-3 9-10 9-4-1-3-4-3-7l-1-9c0-6-1-9 6-11z"/><path class="az" d="M178 353l1-8c1-4 15-4 13 2v10c-1 2 3 12-9 12-2 0-4 0-4-5l-1-11z"/><path class="ba" d="M178 353a18 18 0 000 5c1-1 4-3 10-3 3 0 0-6 2-8 2-3-5-3-10-3a3 3 0 00-1 1 12 12 0 00-1 4c2 0 5 1 0 3a12 12 0 010 1zm9 15a14 14 0 01-4 1c-2 0-4 0-4-5l-1-6c4-2 7-1 7-1 2-1 7 0 1 4-5 3 2 0 3-1 2-2 4 2 1 4-4 2-3 4-3 4z"/><path class="bc" d="M179 346a6 6 0 010 2c1 0 3 0 4 2 0 1-1 3-3 3a4 4 0 001-2c1-2 1-2-1-2h-2l1-3zm0 3z"/><path class="bb" d="M163 319c0 4 0 7 3 7 7 1 10-2 9-9l1-4v-9c1-4-5-4-8-4-7 1-6 4-6 11a31 31 0 001 8zm5-19c3 0 9 0 8 4v13c0 7-3 10-10 9-4 0-3-3-4-7v-8c0-7-1-10 6-11z"/><path class="az" d="M162 311l1-8c1-4 15-5 13 1v11c-1 1 3 12-9 11-2 0-4 0-4-4l-1-11z"/><path class="ba" d="M162 311a18 18 0 000 5c1-1 4-3 10-3 3 0 0-6 2-8 2-3-5-4-10-3a3 3 0 00-1 1 13 13 0 00-1 4c2-1 5 0 0 3a9 9 0 010 1zm5 15c-2 0-4 0-4-4l-1-6 7-2c2-1 7 1 1 4-5 4 2 0 3 0 2-2 4 1 1 4-4 2-3 3-3 4a14 14 0 01-4 0z"/><path class="bc" d="M163 304a6 6 0 010 2l3 1c1 2-1 3-2 4a5 5 0 001-2c1-2 1-2-1-2a7 7 0 01-2 0l1-3zm0 3z"/><path class="bb" d="M192 387c-1 3-5 4-6 3l-7-7v-9c2-4 3-4 7-4 6 0 6 2 6 9v8zm-6-17c-4-1-5 0-7 4v9c1 3 5 5 7 7s6 0 6-4a40 40 0 000-7c1-7 0-9-6-9z"/><path class="az" d="M192 379c0-4 1-6-1-8-1-1-9-2-10 0-4 6-2 4-2 11-1 3 5 5 7 8h4c3-1 2-6 2-11z"/><path class="ba" d="M189 370v4 7c-1 3 4 6-3 9a17 17 0 00-4-3v-1c1-2-1-2-3-2a3 3 0 010-2c0-7-1-5 2-11 1-2 5-1 8-1zm-8 5l2 1v-2c3-1-2-3-2 1z"/><path class="bc" d="M180 376c-1 2-2 5-1 6l3 2 1 2c0-2 0-4-2-4s-1-4-1-6z"/><path class="bb" d="M221 466c-1 3-4 5-5 3l-8-7 1-9c1-4 2-4 6-4 6 0 7 2 7 9l-1 8zm-6-17c-4-1-5 0-7 4v10l7 7c2 1 6 0 7-5a40 40 0 000-7c0-7 0-9-7-9z"/><path class="az" d="M222 459c0-5 0-6-2-9-1-1-9-2-10 0-3 6-2 4-2 11 0 4 5 6 8 9l3-1c3-1 3-6 3-10z"/><path class="ba" d="M218 449v4c-1 3 2 4 0 7-1 4 4 6-2 9a18 18 0 00-4-3v-1c0-2-2-1-4-2a3 3 0 010-2c0-7-1-5 2-11 1-2 5-1 8-1zm-6 7l1-3c3-1-3-3-3 1l2 2z"/><path class="bc" d="M209 456c-1 1-2 4-1 6s3 0 3 1l1 2c0-2 0-4-2-4s-1-4-1-5z"/><path class="bb" d="M179 419c0 8 12 4 13 2 2-3-1-18 0-23 0-4-3-5-7-5-8 1-6 10-6 16v10zm2-24c4-3 12-3 11 3-1 5 2 21 0 24-2 2-13 5-13-3a79 79 0 010-10c0-4-2-11 2-14z"/><path class="az" d="M179 409s-1-10 1-12c3-6 13-5 12 1-1 4 2 22-1 24s-12 4-12-3v-10z"/><path class="ba" d="M184 398v-1c2-2 0 4 0 4 1 8-2 2 0-3zm-5 21c0 7 7 5 11 4v-12c-5 0-5 6-5 10 0 2-2-4 0-7 2-4 4-6 4-12v-5a3 3 0 00-2-4 8 8 0 00-7 4c-2 2-1 12-1 12v10z"/><path class="bc" d="M188 404l-3 7c-2 2-3 6-2 8a6 6 0 011 2v-2c-1-2 0-4 1-6 2-4 3-4 3-9z"/><path class="as" d="M171 391c7 0 6 5 7 11l-1 12c-1 4 0 8-4 7l-8-1c-2-1-1-14-1-16 1-4 0-6 2-10 1-3 2-3 5-3zm-6 15c-1 2-2 13 0 14h8c4 1 3-2 3-6l1-12c0-5 1-10-5-11-4 0-5-1-6 3l-1 12z"/><path class="ay" d="M166 394c-2 3-1 5-1 9-1 2-2 15 0 17h8c2 1 3 0 3-2 0-5 2-12 1-16 0-3 2-10-5-11h-2c-3 0-3 0-4 3z"/><path class="au" d="M166 394c-2 3-1 5-1 9-1 2-2 15 0 17h8a2 2 0 002 1 41 41 0 001-7 4 4 0 000-2l-1-1c0-1-2-2-3-1l-1 2c-1 2 0 0 0 0v3a20 20 0 01-1 2v1l-1-1a7 7 0 001-3v-5l2-3 1-8-1-7h-2c-3 0-3 0-4 3z"/><path class="bd" d="M169 392c-3 1-2 4-3 7-1 4-2 4-2 9a17 17 0 002 7 3 3 0 000 1l-1-3c-1-4 0-8 1-13 2-3 0-6 3-8z"/><path class="as" d="M209 353v-26c1-2 5-2 6-2 7 1 6 22 5 27 0 4-7 2-9 2a9 9 0 01-2-1zm12-1c0-5 1-27-6-27l-6 1c-2 3 0 24 0 27a6 6 0 002 1c2 1 9 2 10-2z"/><path class="az" d="M211 354c2 1 9 2 10-2 0-5 1-27-5-27-8 0-8-1-7 13v15a7 7 0 002 1z"/><path class="ba" d="M211 354a6 6 0 01-2-1l-1-15v-4a2 2 0 001-1c1-3 0-2-1-3 1-5 2-5 8-5 3 0 4 6 5 12-1-1-3-1-3 1l-2 4c0-3-2-2-1-5 3-6-4-3-3 0 2 5 4 4 2 10 4 6-2 3-1 7a1 1 0 010 1l-2-1zm10-2v-7c-1 4 1 3-5 2 0 0 1 2-1 4-1 2 0 3 1 4 2 0 4-1 5-3z"/><path class="bc" d="M211 326c-4 4-1 3-1 6l-1 3a58 58 0 001 11v-12l1-3c-1-2-3 0 0-5z"/><path class="av" d="M221 368c2-8-3-14-11-11-3 1-3 2-2 5 0 3-2 4 0 6 2 4 9 3 12 2zm-12 2c-4-3-1-5-1-8s-1-4 2-5c8-3 13 3 11 11l-1 2c-3 1-8 2-11 0z"/><path class="aw" d="M221 370c-4 2-16 2-13-5 1-4-4-8 5-9 8-1 11 8 8 14z"/><path class="ax" d="M212 371c-3-1-6-3-4-6 1-3-3-7 3-9 0 2-2 4 4 4 4 0 0-3-1-4a7 7 0 015 2 4 4 0 01-2 4c-3 2-1 8-5 9z"/><path class="be" d="M217 361a10 10 0 00-3 6l-2 2a1 1 0 001 0l3-4 1-4z"/><path class="av" d="M219 391c2-3 1-7 1-11v-6c-1-2-5-1-6-1-5 0-5 1-5 5v7l1 14c0 4 8 1 10 1 1-1-1-9-1-9zm-9 8l-2-14 1-7c0-3-1-5 3-5h8l1 7-1 11v9c-2 1-10 4-10-1z"/><path class="aw" d="M220 400c-3 1-10 3-10-1l-1-14v-7c0-2-1-5 5-5 5 0 7-1 6 5 0 2 2 10-1 13l1 9z"/><path class="ax" d="M215 401c-2 1-5 1-5-2 0-4-2-9-1-14v-7c0-2-1-5 5-5h3l1 3c-3 3 0 12-1 12-2 2-1 3-3 1-2-4 0-3-3-4-4-3 5 8 4 9-3 3 0 6 0 7z"/><path class="be" d="M211 390l3 3c-1 1-2 5 0 6-1-2 1-3 1-6l-4-3z"/><path class="av" d="M210 446c2 2 8 1 10 1 3-1 0-10 0-10l-8-2c-5-1-2 10-2 11zm10-9c1 3 3 9 0 10-2 1-9 2-10-1-2-3-3-13 2-11 2 0 8 0 8 2z"/><path class="aw" d="M212 435l6 1 2 1c1 3 2 5 1 9 0 2-5 1-6 2-1 0-5 0-5-2-2-8-1-12 2-11z"/><path class="ax" d="M219 447h-4c-1 0-4 0-5-2-2-6-1-10 1-10l5 1c3 0 4 6 2 7-1 0-2 2 0 1l1 3z"/><path class="be" d="M211 438l-1 4a8 8 0 002 4v-3c-1-2-2-3-1-5z"/><path class="as" d="M195 453a13 13 0 000-4v-12c-1-7 3-11 9-5 1 1 3 2 3 5v7c0 4-1 4-2 7 0 3-8 2-10 2zm11-2l1-7v-8c0-2-1-3-3-5-6-6-10-2-9 6v12a15 15 0 010 3v1c2 0 10 1 11-2z"/><path class="ay" d="M195 453c2 0 10 1 10-2 0-2 2-3 2-10s2-5-3-10c-4-4-9-3-9 2v19z"/><path class="au" d="M195 453l9-1-2-1 1-6c1-3-1-6 1-8 5-5-7-7-8-6-2 4-1 4-1 6v16z"/><path class="bd" d="M197 431c-3 4 0 3-1 5l-1 3a47 47 0 001 10l1-11v-2c0-3-2-1 0-5z"/><path class="av" d="M164 374c0 2-1 7 1 8h10c2 0 2-5 2-7a68 68 0 01-1-11c1-5 2-8 0-12-1-2-6-2-7-1l-3 1c-2 1-2 6-1 8l-1 6a53 53 0 000 8zm1-14c-1-2-2-7 1-8l3-2c1-1 6 0 7 2 3 4 1 7 1 12a75 75 0 000 11c0 2 1 7-1 8l-11-1c-2-1-2-6-2-8a41 41 0 011-8l1-6z"/><path class="aw" d="M164 366l1-4-1-4c0-3-1-6 3-7l5-1c4 1 4 0 5 3 2 4 0 7 0 11v11a23 23 0 010 6c-1 3-3 1-5 1h-3c-5 0-5 0-5-6v-10z"/><path class="ax" d="M165 360c2 6 1 8-1 11v5c0 5 0 6 3 6 0-3 3-8 2-10v-6l3-3v-9l-4-3h-1c-4 1-3 4-3 7a15 15 0 001 2zm12 21c-1 3-3 1-5 1h-2c-1-2 1-7 1-9 0-10 2-5 3-10 0-6-2-6-1-10 2 0 3 7 3 9-1 6-3 10 0 16a6 6 0 011 2v1z"/><path class="be" d="M167 381c-2 0-3-1-2-3l1-8a17 17 0 000-6l-1 6-1 6c0 2-1 7 3 5z"/><path class="av" d="M190 302c0-2 1-7-1-8h-10c-2 0-2 6-2 7a68 68 0 011 11c-1 5-2 8 0 12 1 2 6 2 7 1l3-1c2-1 2-6 1-8l1-6a54 54 0 000-8zm0 14c0 2 1 7-1 9l-3 1c-2 1-7 0-8-1-3-5-1-8-1-13a74 74 0 000-11c0-2-1-7 1-8l11 1c2 1 2 6 2 8a42 42 0 01-1 8v6z"/><path class="aw" d="M190 310l-1 4 1 4c0 3 1 6-3 7l-5 1c-4-1-4 0-5-3-2-4 0-7 0-11v-11a23 23 0 010-6c1-3 3-1 5-1h3c5 0 5 0 5 6v10z"/><path class="ax" d="M189 316c-2-6-1-7 1-11v-5c0-5 0-6-3-6 0 3-3 8-2 10v6l-3 3v9l4 3a1 1 0 011 0c4-1 3-4 3-7a15 15 0 00-1-2zm-12-21c1-3 3-1 5-1h2c1 2-1 7-1 9 0 10-2 5-3 10-1 6 2 6 1 10-2 0-3-7-3-9 1-6 3-10 0-15a6 6 0 01-1-3v-1z"/><path class="be" d="M187 295c2 0 3 1 2 3l-1 8a17 17 0 000 6l1-6 1-6c0-2 1-6-3-5z"/><path class="as" d="M193 357c1 8 0 16 12 12 2-1 0-9 2-11 2-5 1-6 0-11v-3c0-4-3-4-7-4-4 1-7 2-7 6l-1 11a2 2 0 001 0zm0-11c0-4 2-5 7-6 4-1 8 0 8 4v3c1 5 1 6-1 11-2 3 0 11-2 11-12 5-11-4-13-12 2-5 1-6 1-11z"/><path class="ay" d="M192 357c3-9-2-14 5-16 4-1 12-2 10 4 0 1 3 8 0 13-2 2 0 10-2 11-12 4-11-5-12-11a4 4 0 01-1-1z"/><path class="au" d="M193 356c2 1 0 6 2 7 3 1 10-2 11 0v-3l-7-3c-4-2 0-2 3-5 8-7 6-14-5-11-6 1-3 6-4 12a19 19 0 008-2l3-3a20 20 0 01-3 3 29 29 0 01-8 4v1zm14 1c-6-1-2-4 1-4a9 9 0 01-1 4zm-12 11a11 11 0 01-1-3c1-2 5-2 9 1 2 3-4 6-8 2z"/><path class="bd" d="M196 342c-2-2-2 5-2 5a23 23 0 01-1 3v5l1-4 1-7 1-2z"/><path class="ay" d="M206 341l-8 8 3-2c2-2 3 0 6-1-3 2-4-1-6 1 2 0 2 2 6 1-4 1-4-2-7 0l-3 2a6 6 0 01-4 2c2-1 3 0 5-3 2-4 4-5 8-8zm-13 11z"/><path class="as" d="M211 433c-3-3-3-11-2-15l4-9c3-4 2-4 6-4 5 1 3 8 3 12l-1 17h-7a5 5 0 01-3-1zm10 1c2-3 1-13 1-17 1-4 3-10-2-12h-4l-7 11c-1 3-1 13 1 16l4 2h7z"/><path class="ay" d="M214 434h7l1-11c0-5-1-4 1-10 0-3 0-8-4-8-3 0-3-1-5 3-1 3-6 8-5 10 0 5-2 16 5 16z"/><path class="au" d="M216 405a14 14 0 00-2 3c-1 3-6 8-6 10 0 4 0 13 4 15 3 0 4 1 6-6l-1-10-1-11z"/><path class="bd" d="M213 411c-3 4-6 15-3 18l1 1-1-1c-2-4 2-13 3-18z"/><path class="as" d="M211 413l6 5c1 2 8 3 2 1-2 0-2-2-4-4-4-2-3 0 2-2l-5 1-1-1zM178 434v14c0 3-4 3-6 2l-7-1c-2-1 0-16 0-19 0-4-2-7 3-8h9l1 12zm-7-12c-8 0-6 4-6 10v17l7 1c2 0 5 1 5-2v-14-12h-6z"/><path class="ay" d="M177 422h-9c-4 1-3 3-3 7l-1 12 1 8 7 1c1 0 6 1 5-2a173 173 0 011-18l-1-8z"/><path class="au" d="M165 428l1-4s1-2 5-1c3 0 4-1 5 2v13c-2 2-6 6-1 6 1 0 3 3-1 5-3 1-2 1-5-1l-2 1a8 8 0 01-2 0l-1-8 1-12v-1zm1 2a1 1 0 011 1s1 1 1-1a8 8 0 011-2c1-5-3 1-2 2zm8 13h1a2 2 0 001-3c-2-1-2 2-2 3z"/><path class="bd" d="M166 435c-2-1 0 10 0 11v-1-10z"/><path class="ay" d="M173 422a6 6 0 01-1 2c-2 1-2 4-2 5v-1l1-4 2-2c-1 0 1 0 0 0z"/><path class="as" d="M222 309v13c0 3-4 3-6 2l-7-1c-2 0 0-16 0-18 0-4-1-8 3-9h9c2 0 1 12 1 13zm-7-13c-8 0-6 4-6 10v17l7 1c2 0 6 1 6-2v-13c0-2 1-12-1-12l-6-1z"/><path class="ay" d="M221 297l-9-1c-4 0-3 3-3 7v20l7 1c2 1 6 1 6-2a173 173 0 010-18c0-1 0-8-1-7z"/><path class="au" d="M209 303l2-4c1 0 0-2 5-2 2 0 3 0 4 2v13c-2 2-5 6-1 6 1 1 3 3-1 5-2 1-2 1-5-1l-2 1a8 8 0 01-2 0v-8-12zm2 1a1 1 0 010 1h1a8 8 0 011-2c1-6-2 1-2 1zm8 13a2 2 0 001-3c-2 0-2 2-2 3h1z"/><path class="bd" d="M210 309v12l1-2-1-10z"/><path class="ay" d="M218 296a6 6 0 01-2 2c-2 1-2 4-2 5l1-1s-1-2 1-3l2-3zM211 413l6 5c1 2 8 3 2 1-2 0-2-2-4-4-4-2-3 0 2-2l-5 1-1-1z"/><path class="h" d="M999 365c0 4 3 8 7 9-1 4-2 7-1 11s4 7 8 6c-3 7 2 14 8 16 1 3 1 7 3 9s6 3 9 1a10 10 0 0012 8c1 2 2 5 4 6s6 2 7 0a7 7 0 007 6 23 23 0 014 0c4 0 7 4 11 4 5 1 5-4 10-5 3-1 7 1 10 2s9-2 8-5c3 2 7 4 11 3s8-4 7-8c3 4 10 0 10-4a9 9 0 0014-10 7 7 0 108-12 7 7 0 007-13c3 0 5-1 6-3s1-6-2-7c8-1 12-12 7-18a8 8 0 104-15 9 9 0 00-4-17c2-5-2-11-7-10a7 7 0 00-6-12c4-5-1-15-7-14 1-3-1-7-4-8l-9-2c-1-3-2-7-4-9s-7-3-9 0c-2-7-12-10-18-7-3-5-13-5-15 0-6-6-19-5-24 3-5-6-15-3-17 4-6-4-16 0-18 8-5-3-13 1-13 7a13 13 0 00-8 16c-3 2-4 7-5 11a4 4 0 01-2 3c-2 1-5 4-6 10l2 9c0 1-9 5-2 14-1 4-3 8-3 13z"/><path class="f" d="M1161 297c-1-2-4-5-7-5 1-2-1-6-4-8s-6-1-9-1c-1-3-2-7-4-9s-7-3-9 0c-2-7-12-11-18-7-3-6-13-5-15 0-6-6-19-5-24 2-5-5-15-2-17 5-6-4-16 0-18 8-5-3-13 1-13 7a13 13 0 00-8 16c-3 1-4 7-5 11a4 4 0 01-2 3c-2 1-5 4-6 10l2 9c0 1-9 5-2 14l-3 12c0 4 3 9 7 10-1 4-2 7-1 11s4 7 8 6c-3 6 2 14 8 16l3 9c2 3 6 3 9 1a10 10 0 0012 8c1 2 2 5 4 6s6 2 7 0a7 7 0 007 6 23 23 0 014 0c4 0 7 4 11 4 5 1 5-4 10-5 3-1 7 1 11 2s8-2 7-5c3 2 7 3 11 3a21 21 0 001-4 4 4 0 000-2l-4-3-6-5c-4-3-8-1-12-1s-9-3-8-7c1-5 9-3 13-6a4 4 0 00-4-4c1-3 4-4 7-5s6-4 4-7c-2-2-7 0-9-2s0-6 3-7l9-1c3-1 6-2 5-5-1-4-9-4-10-8 0-2 2-4 1-6s-4-3-6-1l-6 4a7 7 0 01-5-12l8-1c3 0 5-4 3-6l-6-3a26 26 0 0114-11c-3-2-3-7 0-9s6-2 9-3c8-1 22-1 28-6-7-9 6-14 14-17z"/><path class="g" d="M1042 395l-6-7-9-14c-1-3-1-7 2-7-2-3-3-8 0-9a15 15 0 01-10-10c-1-3-1-7 1-9l3-3a8 8 0 002-8l4-2-1-4a4 4 0 00-1-6l3-4c2-7 11-10 17-7 3-4-1-10 2-13 2-3 6 0 10 0s7-3 11-4c5-2 10 0 15 1 4 2 9 5 11 9s2 10-2 13c-2 2-5 2-8 2l-16 1a10 10 0 00-5 1 6 6 0 00-2 8 8 8 0 007 4c-1 3-4 5-7 6l-10 2c-3 1-5 6-3 8a8 8 0 016 2 22 22 0 00-6 11 102 102 0 0020 13l-5 3c-2 2-4 3-4 5s2 4 3 3l-1 8-5 5c-5 4-11 5-16 2z"/><path class="g" d="M1139 295l-2-1-4-4-5-2c-1-1-4-2-4-4l1-3a3 3 0 00-2-2 14 14 0 00-10 0c-2 1-3 2-4 1l-1-3c-1-2-3-4-5-4a18 18 0 00-7 0c-4 1-10 0-11 5a1 1 0 001 2h1a5 5 0 012 0c3 2 6 4 6 7a7 7 0 000 2l4 1h4c3 1 3 5 2 7s-4 5-4 8a25 25 0 006 2l-3 4c-1 1-2 3-1 4 1 2 5 1 6 0s4-4 7-4a10 10 0 013 1 14 14 0 007 1 4 4 0 003-1c2-2-1-7 2-9l5 1a5 5 0 003-9zM1069 358c-2 1-2 3-1 5a8 8 0 002 0l7 8v4l-3 1a5 5 0 00-2 7 24 24 0 012 2v7l-4 7a11 11 0 01-2 4l-6 2h-13a25 25 0 00-5-1c-2 0-4 0-4 2-1 2 1 4 3 5h7a4 4 0 012 1l1 6a7 7 0 0013 4 22 22 0 005 6c2 2 5 3 7 2s4-4 3-7l-4-3a7 7 0 013-12l5-2a4 4 0 000-2 17 17 0 00-2-7c3-2 7-4 9-7s0-9-4-9h-4v-4l2-3c0-4-5-6-7-9l-1-5c-1-4-6-4-9-2zM1009 364a3 3 0 000 1l3 1c1 0 3 3 3 5a32 32 0 010 6 16 16 0 001 8c1 3 3 4 6 5l1 5a7 7 0 002 4 3 3 0 004-1c1-2 0-4-1-5l-3-4v-6c0-3-2-5-3-7s-2-6 0-8a4 4 0 001-1 3 3 0 00-1-2c-2-6-11-10-13-1zM1026 294a6 6 0 003 1v3l-3 1a6 6 0 00-3 3l-2 6a4 4 0 000 3h4a7 7 0 002-4 8 8 0 011-5c3-3 9 0 12-4v-5c0-1 2-5 4-4s5-1 7-3c1-1 3-2 2-4a3 3 0 00-1-1c-2-2-5 0-8 1s-4 4-7 4c-5 0-10 2-11 8z"/><path class="ar" d="M371 454l-1-10v-12l-1-10a13 13 0 00-7-8c-7-3-14-1-21 0a75 75 0 01-12-1 33 33 0 00-5 0 39 39 0 00-6 1 23 23 0 01-6 0h-6l-11-1a3 3 0 00-1 0h-24l-12-1c-4 0-8 0-11 2a4 4 0 00-1 0 31 31 0 00-6 0 34 34 0 01-6-1 38 38 0 00-8-1l-7 1h-8a12 12 0 00-5 1 7 7 0 010 2c0 2 0 5-2 8-1 2-3 4-6 3v1a8 8 0 011 2 22 22 0 010 4c-1 4 1 7 2 11a2 2 0 01-1 2v1a2 2 0 011 2 10 10 0 01-2 4 28 28 0 00-1 4 12 12 0 000 3 19 19 0 002 5 5 5 0 004 1 22 22 0 0110-2l12 2h136a8 8 0 006-2 8 8 0 002-5v-2-1a3 3 0 001-3z"/><path class="as" d="M240 413c-5 0-9-2-9 3v6c0 3 8 2 10 2 1 0 11 1 11-1s1-9-1-10h-8zm0 0h12l1 10c-1 2-11 2-12 2-3-1-11 0-11-3l1-6c0-5 4-4 9-3z"/><path class="at" d="M240 413c-5 0-9-2-9 3 1 6-5 8 8 8 2 0 13 1 13-1v-7c0-3 0-3-3-3a9 9 0 00-4 0 39 39 0 01-5 0z"/><path class="au" d="M240 413h-8a3 3 0 000 3l1 4c1 2 0 3 5 3 1 0 8 1 9-1s3 5 5-1l-2-8h-1a9 9 0 00-4 0 39 39 0 01-5 0zm8 2l-1 1h-2l3-1zm2 4l-1 1c-2-1 0-1 1-1zm-18 1l3 3-3-1v-2z"/><path class="av" d="M286 416l1 9s5 3 5 0v-11c0-1-7-5-6 2zm0 0c-1-6 4-5 6-3s1 10 1 12c-1 3-4 1-6 1l-1-10z"/><path class="aw" d="M286 416v6l1 3c2 1 3 2 5 1l1-7-1-6c-4-2-7-1-6 3z"/><path class="ax" d="M293 417l-1-4c-3-2-5-1-6 0a18 18 0 010 2l1 7c0 3 1 1 2 2a2 2 0 003 0l1-4a21 21 0 000-3z"/><path class="av" d="M199 444c0 2-2 8-1 9 0 1 4 4 5 2s3-10 2-12c0-1-5-5-6 1zm0 0c0-6 5-3 7-1 1 2-2 10-3 12-1 3-4 0-5-1s1-8 1-10z"/><path class="aw" d="M199 444l-1 6v4c2 1 2 2 5 2l2-7v-6c-3-4-6-3-6 1z"/><path class="ax" d="M206 446l-1-3c-2-3-4-3-5-1l-1 1v7c-1 3 1 2 1 3a2 2 0 003 0l2-3a22 22 0 001-4z"/><path class="as" d="M291 455c-8 1-9-1-15-2-4 0 0-15 6-12l3 1 8 1-1 7-1 5zm0 0l1-5 1-7-4-1h-8c-5-3-8 11-5 11 6 0 7 2 15 2z"/><path class="ay" d="M291 455c-8 1-10-2-15-2-4 0 0-16 6-11h7c4 1 5-1 3 7l-1 6z"/><path class="au" d="M274 451c0-4 3-12 8-9h7c3 1 4 0 4 2a1 1 0 01-1 0c-4 0-2 2-2 3a3 3 0 002 0v2a33 33 0 01-1 4 5 5 0 01-2-1c-1-1-2-7-1 1-4 1-3-4-3-5 0-8-2-3-3 0-4 6 0-4 0-4-1-2-3 3-3 3-2 4-4 5-5 4z"/><path class="av" d="M322 455c-3 1-11 2-9-3v-5c0-4 2-3 6-4 2 0 12-3 12 0 0 2 1 9-1 10a33 33 0 01-4 1l-4 1zm0 0l4-1 4-1c2-1 1-9 1-10-1-2-11 1-13 1-8 1-3 2-5 7-2 6 4 5 9 4z"/><path class="aw" d="M322 455c-2 0-12 3-9-4 2-4-3-7 5-7 3 0 13-4 13-1 1 13 0 9-8 12a4 4 0 01-1 0z"/><path class="ax" d="M320 444l4-1a5 5 0 01-1 2c0 1 3 4 5-3l3 1v3a19 19 0 00-1 3c0 3-4 5-7 4-1 0-10 3-7-1-2-3-2-4 1-6-1-3 1 1 3-2z"/><path class="av" d="M364 440c-3 0-10 2-9-4l1-5c-1-3 2-3 6-3 2 0 11-3 12 0 0 2 1 9-1 10a31 31 0 01-5 1l-4 1zm0 0l4-1 5-2v-9c0-3-11 0-13 0-7 1-2 2-4 7-2 7 3 5 8 5z"/><path class="aw" d="M364 440c-2 0-11 2-8-5 1-4-3-6 4-7 3 0 13-3 14 0 1 13 0 9-8 12a4 4 0 01-2 0z"/><path class="ax" d="M363 428l3-1a6 6 0 010 3c-1 1 3 3 5-3 1-1 2 0 3 1v2a19 19 0 00-1 4c-1 3-5 5-8 3-1 0-9 4-6-1-2-3-2-4 1-6-1-2 0 1 3-2z"/><path class="as" d="M239 450c3-7 4-8-6-9-8 0-6 2-7 6l1 4c2 2 10 1 12-1zm0 0c-2 2-11 2-12 1-2-2-2-2-1-4 0-5-1-6 7-6 10 1 10 2 6 9z"/><path class="az" d="M239 450c2-3 5-8-2-9-13-1-10 1-12 8l3 2c0 1 9 1 11-1z"/><path class="ba" d="M241 445c1-2 0-3-4-4-11-1-10 0-11 5a1 1 0 001 1c6 0 2 2 8 1l2-1c2 1 3 0 4-2zm-5-2c1 0 2 1 0 1-7 0-6-2 0-1z"/><path class="as" d="M370 452c3-7 4-9-6-9-7-1-6 1-7 6 0 2 0 2 2 3 2 2 9 1 11 0zm0 0c-2 2-10 2-11 1a1 1 0 01-1-1l-1-3c1-5-1-7 7-7 10 1 10 3 6 10z"/><path class="az" d="M370 452c2-4 5-8-2-9-12-1-10 0-11 7l2 3 11-1z"/><path class="ba" d="M373 447c0-2-1-4-5-4-11-1-10 0-11 5a1 1 0 001 0c6 1 3 3 8 2l3-2c1 2 3 1 3-1zm-5-3v2c-8-1-6-3 0-2z"/><path class="as" d="M295 447c4 0 12 1 14-1 2-1-2-4-4-4h-4c-7 0-4 0-7 3l1 2zm0 0l-1-2c3-3 0-3 7-3h4c3 0 7 3 4 5s-10 0-14 0z"/><path class="ay" d="M295 447c7 1 19 1 14-3-3-3-4-2-8-2-7 0-4 1-7 3l1 2z"/><path class="au" d="M310 446l-1-2c-3-3-4-2-8-2-7 0-4 0-7 3l8-1c7 5 1-2 6 1a4 4 0 002 1z"/><path class="av" d="M237 429c-3 1-6-2-6 3l-1 4c0 3 6 2 7 3 4 0 6 1 7-4v-8l-7 2zm0 0c1-1 6-3 7-2v8c0 5-3 5-7 4-1 0-7 0-7-3l1-4c0-5 3-2 6-3z"/><path class="ax" d="M237 429c-3 1-6-3-6 4 0 1-4 6 5 6 2 0 9 4 8-7 0-4 2-7-5-4l-2 1z"/><path class="aw" d="M237 429c-2 1-5-2-6 2a5 5 0 010 1v1l-1 3c2 1 10 0 11 2 1 1 2-1 3-3a18 18 0 000-3 3 3 0 00-3-1c-2 1-3-1-3-2a4 4 0 00-1 0z"/><path class="as" d="M223 455c-7 1-8-1-14-1-3-1 0-16 6-13l3 1 7 1v7l-2 5zm0 0l1-5c1-1 2-6 1-7l-3-1h-7c-6-3-9 11-6 11l14 2z"/><path class="az" d="M223 455c-6 1-9-2-14-2-3 1 0-15 6-11h7c4 1 4-1 3 7-1 2 0 4-2 6z"/><path class="ba" d="M210 445c1-3 3-5 5-3h7c3 1 4 0 3 4a8 8 0 01-2 0c-2-1-4 1-5 2-2 4-2 0-3 3 0 1-4-1-4-3 1-1-1-2-1-3zm15 4a16 16 0 00-4-1c-2 0 0 2-2 4 0 0 1 3 4 1a14 14 0 001-1l1-3z"/><path class="bb" d="M344 440l-14-1-2-7c1-6 11-5 15-5 3 0 12 0 12 4v5l-7 2-4 2zm0 0l4-2c2-1 6 0 7-2a58 58 0 000-5c0-5-17-5-20-5-8 1-9 7-5 13l14 1z"/><path class="az" d="M344 440l-14-1s-8-12 8-12c3 0 17-1 17 4-1 7 2 5-6 7l-5 2z"/><path class="ba" d="M329 437c-1-4-3-9 6-10h1a3 3 0 004 0c5 0 13 0 15 3-2 0 3 5-9 7-4 1-2-1-2-3 2-5-2 2-3 2-5 4-4-4-8-1-1 2-3 2-4 2z"/><path class="as" d="M294 454c4 1 14 4 17 2 2-1-2-7-5-7l-5-1c-7-1-4 0-8 3l1 3zm0 0c-1-1-2-2-1-3 3-3 0-4 8-3l5 1c4 0 9 6 4 7-4 2-12-1-16-2z"/><path class="ay" d="M294 454c8 3 22 5 17-1-4-5-5-4-10-5-8-1-4 0-8 3l1 3z"/><path class="au" d="M311 452c-4-4-5-3-10-4h-2a2 2 0 01-1 0 2 2 0 00-3 3c2 4 7-2 12 1 0 3-5 1-6 1-1 2 9 2 9 2l1-3z"/><path class="as" d="M357 424c4 1 13 2 13-2 1-3-6-10-8-10h-4c-6 1-3 2-3 8l2 4zm0 0l-2-4c0-6-3-7 3-8l4-1c3 0 10 9 9 12s-9 2-14 1z"/><path class="ay" d="M357 424c8 2 19 1 11-8-6-7-6-4-10-4-6 0-3 2-3 8l2 4z"/><path class="au" d="M367 416c-5-6-5-4-9-4h-2v2c-2 0 0 5 0 5 5 5 3-6 9-2 2 5-3 3-3 4 1 3 7-1 7-1l-2-4z"/><path class="av" d="M298 426l-4-2v2l-1 2 3-1h2a3 3 0 002-1h-2zm0 0a1 1 0 001 0l-2 1-3 1c-2 1-1-1 0-2-1-1-2-4 0-2l4 2z"/><path class="aw" d="M298 426l-4-2c-2-2 0 2 0 2s-2 2 0 2l3-1h1l1-1a1 1 0 01-1 0z"/><path class="av" d="M298 427l-1 2c-2 2-2 6-4 2-1-1-3-2-1-3s0 2 3 0l3-1zm0 0a3 3 0 00-2 1c-1 0-3 2-3 0-1 0-3 1-1 2s2 4 4 1l2-4zm0 0z"/><path class="aw" d="M298 427l-2 1s-3 2-3 0c0 0-3 1-1 2 1 1 2 5 4 1l2-4z"/><path class="av" d="M268 426c0-2 6-1 7-1 4 0 0 3-3 2l-4-1zm0 0c4 1 5 2 8 0a4 4 0 00-1 0h-7z"/><path class="ay" d="M268 426l7-1 2 1c-4 2-5 1-9 0z"/><path class="av" d="M207 448c1 1-1 6-1 7-1 4-2-1-2-3l2-4h1zm0 0h-1c-1 4-2 5-1 8a4 4 0 001-1c0-1 2-6 1-7z"/><path class="ay" d="M207 448c1 1-1 5-1 7l-1 2c-2-4 0-5 1-9h1z"/><path class="av" d="M315 441c2 0 2 0 1 2s-4-1-8-1c-1-1-4-2 1-1h6zm0 0a21 21 0 01-6-1c-6 0-3 2 0 2s2 1 5 2 4-4 1-3z"/><path class="ay" d="M315 441c1 0 2-1 2 1-2 3-5 0-9 0-2 0-5-2 1-1a18 18 0 006 0z"/><path class="av" d="M310 447a22 22 0 00-3 1c2 1 2 0 4 3a2 2 0 001 1l-2-5zm0 0c1 0 4 8 1 4-2-2-7-3-1-4z"/><path class="ay" d="M310 447l-3 1 2 1c2 1 3 4 3 2l-2-4z"/><path class="av" d="M370 453a22 22 0 00-3 1l4 4a2 2 0 001 0l-2-5zm0 0c1 0 4 8 0 4-1-2-7-3 0-4z"/><path class="ay" d="M370 453l-3 1 2 2c2 1 3 4 3 1l-2-4z"/><path class="av" d="M305 459l1 2h3s7-2 4-3l-7-1a5 5 0 00-1 2zm0 0v-1c2-2 4 0 7 0 4 0-1 2-3 3h-3l-1-2z"/><path class="aw" d="M305 459l1 2c3 1 2 0 5-1 1 0 5-2 1-2-2 0-6-2-7 0v1z"/><path class="as" d="M216 439h9l6 1c0 1-14 2-16 1s-1-1 1-2zm0 0c-2 1-3 1-1 2 3 1 15 0 16-1l-5-1a22 22 0 00-3 0h-7z"/><path class="az" d="M216 439h8a18 18 0 005 1c3-1 4 0-2 1h-12s-2-1 0-1l1-1z"/><path class="av" d="M244 442a23 23 0 00-3-1l1 5 2-4zm0 0c1 0-2 8-2 3 0-3-3-7 2-3z"/><path class="ay" d="M244 442l-3-2 1 3c1 2-1 5 1 3l1-4z"/><path class="av" d="M240 454a21 21 0 003 2l-1-7a3 3 0 000-1l-2 6zm0 0c-1 0 2-10 2-4 1 3 4 9-2 4z"/><path class="ay" d="M240 454l3 2v-3c-2-3 0-6-2-4l-1 5z"/><path class="bb" d="M233 428l3-3h5c1 0 3 0 1 1a50 50 0 01-6 2h-3zm0 0h3l6-3a7 7 0 00-1 0l-5 1-3 2z"/><path class="az" d="M233 428l3-2c1-2 4-1 5-1 0 0 4 0 0 1a14 14 0 01-2 1l-3 1a3 3 0 01-1 1l-2-1z"/><path class="as" d="M234 440h5c1 0 1 2-1 1h-2s-5 0-4-1h1a1 1 0 011 0zm0 0h-2l5 1a2 2 0 002 0c-2-1-4-2-5-1z"/><path class="ay" d="M234 440h4c1 0 3 2 0 1h-2l-3-1c-2 0-1-1 0 0z"/><path class="as" d="M210 455h4c2 0 2 2-1 1h-1s-5 0-4-1h1a1 1 0 011 0zm0 0h-2l5 1a2 2 0 002 0h-1c-2-1-3-2-4-1z"/><path class="ay" d="M210 455h4c1 0 2 2 0 1h-2l-3-1c-2 0-1-1 0 0z"/><path class="av" d="M208 439a43 43 0 000 6c1-1 1-3 4-5h-3l-1-1zm4 1zm-4-1l3 1c1-1 1 0 1 1-3 1-2 2-4 4v-6z"/><path class="aw" d="M208 439v6l4-5h-1l-3-1z"/><path class="av" d="M268 441l3-1 2 1a9 9 0 002 1c2 0 0 4 0 3-2 0-1-2-4-3l-3-1zm0 0c0 1 3 0 4 2l3 2v-3a9 9 0 01-2 0l-2-1h-3zm7 4"/><path class="aw" d="M268 441l3-1 2 1a5 5 0 002 1v3l-3-2a10 10 0 00-3-2h-1z"/><path class="av" d="M270 439l4 2h2l-2-1c-1-2-1-3-3-1zm0 0a3 3 0 011-1h3c1 3 2 1 2 3h-2l-4-2z"/><path class="aw" d="M270 439l3 2h3l-1-1c-2 0-2-3-3-2l-2 1z"/><path class="as" d="M245 426v3l2-3a2 2 0 001 0h-3zm0 3v-3l2-1c2 0 0 2 0 2s-1 3-2 2v-3z"/><path class="ay" d="M245 426v3c0 2 2-2 2-2 0-1 2-1 0-1h-2z"/><path class="as" d="M230 425v3a1 1 0 000 1l2-3a3 3 0 000-1h-2zm0 4v-4h2c2 0 0 1 0 1l-2 3v-4z"/><path class="ay" d="M230 425v3c0 2 1-2 2-2 0-1 2-1 0-1h-2z"/><path class="av" d="M244 438c1 0-2 2 1 3 2 1 0-4-1-4a5 5 0 000 1zm1-1l-1 1a1 1 0 010-1l2 3c1 1 0 2-1 1-3-1-1-2-1-3z"/><path class="aw" d="M244 438c1 1-2 2 1 3 1 0 2 0 1-1l-1-3-1 1z"/><path class="as" d="M291 441l3-3c1-2 1-1 3 0l1 2c0 1-2 0-3 2h-2s-3 0-2-1zm0 0l2 1h2l2-2-1-1c-1-2-1-2-2-1l-3 3z"/><path class="ay" d="M291 441c1-1 2 0 3-3 1-2 1-1 3 0v1l-2 3c0 2-2 0-2 0l-2-1z"/><path class="as" d="M273 455c3 1 1 5 3 2 1-2 4-1 2-2l-3-1c-2-1-2 0-2 1zm0 0c-1 0 0-2 2-1h4c2 2-2 2-3 3-2 3-1 0-3-2z"/><path class="ay" d="M273 455c2 1 1 5 3 2 1-1 4-1 3-2l-4-1c-2-1-2 1-2 1z"/><path class="as" d="M292 455h3c5 0 5 2 3 2l-4-1c-2 0-3 1-2-1zm0 0v1h7a17 17 0 00-4-1h-3z"/><path class="ay" d="M292 455h3s5 1 4 2a8 8 0 00-3-1h-4v-1z"/><path class="av" d="M331 455l3-1 1 1a10 10 0 003 0c1 1 0 4-1 4l-4-3-2-1zm0 0l4 1 2 3 1-3a9 9 0 01-3-1l-1-1-3 1zm6 4"/><path class="aw" d="M331 455c1-2 1-1 2-1l2 1a5 5 0 002 1c2 0 1 2 0 3l-2-2a10 10 0 00-4-2z"/><path class="av" d="M355 439v2l-3 1s-8 0-6-2l7-2a7 7 0 012 1zm0 0v-1c-3-1-5 1-8 2-3 2 2 1 4 1h3l1-2z"/><path class="aw" d="M355 439v2l-6 1s-5-1-2-2c2-1 6-3 8-2v1z"/><path class="av" d="M346 456l7-2c4 0 0 3-2 3l-5-1zm0 0c5 0 5 1 8-1a5 5 0 00-1 0l-7 1z"/><path class="ay" d="M346 456l7-1h2c-3 2-4 1-9 1z"/><path class="av" d="M349 426l8-1c4 0-1 3-3 3l-5-2zm0 0h1c4 1 4 2 8 0a4 4 0 00-1 0h-8z"/><path class="ay" d="M349 426h9c-4 3-4 1-8 0h-1z"/><path class="av" d="M374 442h-8c-4 0 1-2 3-2l5 1v1zm0 0l-1-1c-4-1-4-2-8 1a4 4 0 001 0h8z"/><path class="ay" d="M374 442h-9c4-3 4-2 8-1l1 1z"/><path class="as" d="M225 456c4 0 12 1 14-1 2 0-2-3-5-3h-3c-7 0-4 1-7 3l1 1zm0 0l-1-1c3-2 0-3 7-3h3c4 0 8 3 5 4h-14z"/><path class="az" d="M225 456c7 1 18 1 14-2s-4-2-8-2c-7 0-4 1-7 3l1 1z"/><path class="ba" d="M240 455l-1-1c-4-3-5-2-9-2-6 0-3 1-6 2h8c7 4 1-2 6 0a4 4 0 002 1z"/><path class="bb" d="M325 440l3-1 4 1c2 0 2 1 0 1a38 38 0 01-5 0l-2-1zm0 0l2 1h5l-4-2-3 1z"/><path class="az" d="M325 440l3-1c1-1 3 1 4 1 0 0 2 1-1 1a10 10 0 01-2 0h-2a2 2 0 01-1 0l-1-1z"/><path class="bb" d="M327 435l-1 3h2l1 1-1-2v-1a2 2 0 00-1-1s1 0 0 0zm0 0l1 1 1 2c1 2-1 1-1 0h-2l1-3z"/><path class="az" d="M327 435c0 2 1 1-1 3h3l-1-2-1-1z"/><path class="bb" d="M325 427l4 1 4-1c2 0 2-1 0-1a40 40 0 00-5 0l-3 1zm0 0l3-1h6a6 6 0 01-1 0l-4 2-4-1z"/><path class="az" d="M325 427l4 1 4-1s3-2-1-1a12 12 0 00-2 0h-2a3 3 0 00-1 0l-2 1z"/><path class="av" d="M324 441a21 21 0 00-3 0s-4 0-3 1a6 6 0 003 1c1 0 5-1 3-2zm0 0c2 1-1 2-3 2a6 6 0 01-3-1c-1-1 2-1 3-1a9 9 0 013 0z"/><path class="aw" d="M324 441a18 18 0 00-2 0 3 3 0 00-1 0 16 16 0 00-3 1h1a4 4 0 002 1c4-1 5-1 3-2z"/><path class="av" d="M334 451a26 26 0 00-3 2l5 2a2 2 0 001 0l-3-4zm0 0c1-1 6 6 2 4-3-2-8-1-2-4z"/><path class="ay" d="M334 451l-3 2 2 1c3 0 4 2 4 0l-3-3z"/><path class="bb" d="M256 426c-6 0-9-1-10 6-1 3-1 9 4 8h9l4-1c7 1 9-2 9-9-1-4-4-3-7-3a31 31 0 00-9-1zm0 0h9c3 1 7 0 7 4 1 7-2 10-9 10h-13c-5 1-5-5-4-8 1-6 4-6 10-6z"/><path class="az" d="M256 426l-7 1c-4 1-5 15 1 13 3-1 6 1 10-1 2 0 12 4 12-8 0-2 0-4-4-4l-12-1z"/><path class="ba" d="M256 426a12 12 0 01-1 0c-2 5-3 2-3 0a12 12 0 00-3 1 3 3 0 00-2 1c0 5 0 12 3 10 2-2 9 1 8-2 0-6 2-9 3-10a18 18 0 00-5 0zm15 9s-2-1-4 3c-2 3-5 1-4-1 1-1 4-8 1-3-4 6-5 1-4-1 0 0-1-3 1-7l7 1c4 0 4 2 4 4a14 14 0 010 4z"/><path class="bc" d="M249 427l3-1v2c0 2 1 2 2 1a5 5 0 002-1c0 1-2 3-3 2-2 0-2-2-2-3a6 6 0 01-2 0zm3 0z"/><path class="bb" d="M214 411c-7 0-10-1-11 6 0 2 0 8 4 7h13c7 0 10-3 9-10 0-3-3-3-7-3a30 30 0 00-8 0zm0 0h8c4 0 7-1 8 3 0 8-2 10-10 10h-12c-5 2-5-4-5-7 1-7 4-7 11-6z"/><path class="az" d="M214 411h-8c-4 2-4 16 2 13h10c1-1 12 3 11-9 0-2 0-4-4-4h-11z"/><path class="ba" d="M214 411a12 12 0 01-1 0c-3 5-4 1-3 0a13 13 0 00-4 0 3 3 0 00-1 1c-1 5 0 12 3 10 2-2 8 1 8-2 0-6 1-9 3-10a18 18 0 00-5 0zm15 8c-1 0-2-1-4 3-2 3-6 1-4-1 0-1 4-8 0-3-3 6-4 1-4 0l2-8 6 1c4 0 4 2 4 4a14 14 0 010 4z"/><path class="bc" d="M207 412l3-1v1c0 2 0 2 2 1a5 5 0 002-1c0 2-2 3-4 3l-1-4a6 6 0 01-2 0zm3-1z"/><path class="bb" d="M283 440c-8 0-9 0-10-6 0-4 0-5 4-7h9l7 7c2 1 0 5-3 6h-7zm0 0a39 39 0 006 0c5 0 6-5 5-6l-7-8-10 1c-4 2-5 3-4 7 0 6 2 7 10 6z"/><path class="az" d="M283 440c-5 0-6 1-9-2-1 0-2-8 0-9 6-4 4-2 11-3 4 0 5 6 8 8v3c-1 4-6 3-10 3z"/><path class="ba" d="M273 437c0-3-1-7 1-8 6-4 4-2 11-3a3 3 0 012 1c0 1 0 3 2 3h1a17 17 0 003 4c-3 7-6 2-9 3s-4-2-7 0a3 3 0 01-4-1zm5-8c-4 0-2 5-1 2l3-1-2-1z"/><path class="bc" d="M280 427h6c2 1 0 2 1 3l2 1c-2 0-4 0-4-2s-4-2-5-2z"/><path class="bb" d="M362 469c-8 0-9 0-10-7 0-3 0-4 5-6h9c2 0 4 5 7 7 1 1 0 4-3 5l-8 1zm0 0a40 40 0 006 0c5-1 7-5 5-6l-7-8-10 1c-4 1-4 3-4 6 1 7 2 7 10 7z"/><path class="az" d="M362 469c-5 0-6 0-9-2-1-1-2-8 0-10 6-3 5-1 12-2 3 0 5 6 8 8v3c-2 3-7 3-11 3z"/><path class="ba" d="M353 465v-8c6-3 5-1 12-2a3 3 0 011 1c1 1 0 3 3 3a17 17 0 004 4c-4 7-6 1-9 3-3 1-4-2-8 0a3 3 0 01-3-1zm5-7c-5 0-3 5-1 2l2-1-1-1z"/><path class="bc" d="M359 456c1-1 4-2 6 0l1 3 2 1c-2 0-3 0-3-3 0-2-5-1-6-1z"/><path class="bb" d="M312 427c-6 0-14-3-16 6 0 3 1 7 5 6 5 0 21 2 24 0 1-1 6-13-3-13l-10 1zm0 0a80 80 0 0110-1c8 0 5 11 3 13-2 3-19 0-24 1-6 0-6-8-3-11 3-4 10-2 14-2z"/><path class="az" d="M312 427h-12c-6 4-4 14 1 13 4-1 22 2 24-1 2-4 4-13-3-13l-10 1z"/><path class="ba" d="M301 432c5-2 11 0 3 0 0 0-6 2-4 0l1-1zm11-5h-12a8 8 0 00-4 8 3 3 0 004 2l5-1c6 1 8-1 12-4 3-2 9 1 7 1-4 0-9-1-9 5h11c1-4 3-12-4-12l-10 1z"/><path class="bc" d="M307 435l8-3c2-1 5-2 8-1a5 5 0 001 1l-2-1-6 2c-4 2-4 3-9 2z"/><path class="as" d="M297 413l10-1c2 0 15-2 16 1l1 7c1 5-3 4-7 4l-12 1c-5 0-11 1-11-6 0-4 0-4 3-6zm0 0c-4 2-3 3-3 7 1 6 6 5 11 5l12-1c4-1 7 0 6-3v-8c-1-2-12-1-14-1l-12 1z"/><path class="ay" d="M297 413l9-1c2 0 15-1 17 1l1 8c0 1 0 3-3 3-4 0-12 2-16 1-3 0-10 1-11-5v-3c0-2 0-3 3-4z"/><path class="au" d="M297 413l9-1c2 0 15-1 17 1l1 8a2 2 0 010 1 39 39 0 01-7 1 4 4 0 01-2 0h-1c-1 0-2-2-1-3l2-1c2 0 0 0 0 0l3-1h2l1-1h-1a7 7 0 01-3 0l-5 1-3 2-8 1c-2-1-5 0-7-2v-2c0-2 0-3 3-4z"/><path class="bd" d="M295 416c1-2 4-2 7-2 4-2 4-2 9-2a17 17 0 017 1h1-3c-4-1-8 0-13 1-3 1-6 0-8 2z"/><path class="as" d="M257 459c1 2 3 9-1 9-5 1-27 2-27-4 0-2-1-6 1-7h26a8 8 0 011 2zm0 0a5 5 0 000-2h-27c-2 1-2 5-2 7 1 6 22 5 28 5 4-1 2-8 1-10z"/><path class="az" d="M257 459c1 2 3 9-1 10-5 0-27 1-27-5 0-8-2-7 12-7h15a7 7 0 011 2z"/><path class="ba" d="M257 459l1 2a1 1 0 01-1 0c-4-1 0 5-6 1-6 2-6 0-11-2-2-1-5 6 1 3 2-1 1 1 4 1l-4 2c-1 0-2 2-1 3-6-1-11-2-11-5 0-6-1-7 5-7h2a3 3 0 001 0h20a6 6 0 010 2zm1 5c-1-1-2-2-3-1-3 2-5 1-4 1 1 6 1 4-2 5h7c2-1 2-3 2-5z"/><path class="bc" d="M230 459c4-4 3-1 5-1l4-1a58 58 0 0111 1h-13l-2 1c-3 0-1-2-5 0z"/><path class="av" d="M273 468c1-3 2-10-1-12-2-2-4 0-7 0-2-1-4-1-5 2-3 8 3 13 11 11zm0 0l-2 1c-8 2-14-3-11-11 1-3 3-3 6-2s5-3 7 0 2 9 0 12z"/><path class="aw" d="M273 468c2-3 2-16-5-12-3 1-7-4-9 5-1 8 8 11 14 7z"/><path class="ax" d="M274 460c-1-3-2-6-6-4-3 1-7-3-8 3 2-1 3-2 3 4 0 4-2 0-4-1a7 7 0 002 5 4 4 0 005-2c1-3 7-1 8-5z"/><path class="be" d="M265 465a10 10 0 015-3l3-2a1 1 0 010 1c-1 2-3 2-5 2l-3 2z"/><path class="av" d="M303 468c1-2 4-10-1-10l-14-1h-7c-4 0-4 0-5 5l1 6h7c4 0 7 1 11-1l8 1zm0 0l-8-1c-4 2-7 2-11 1h-7l-1-8c1-4 2-3 5-4h7l14 1c5 1 2 8 1 11z"/><path class="aw" d="M303 468c1-3 3-11-1-10s-9-2-14-2l-7 1c-2 0-5-1-5 5 0 5-1 7 5 6 3 0 10 1 14-1l8 1z"/><path class="ax" d="M305 463c0-3 0-6-3-5l-14-2-7 1c-2 0-5-1-5 5v2c1 2 2 2 3 2 3-3 12 0 13-1 1-2 2-2 0-3-4-2-2-1-4-4s8 6 10 4c3-3 5 1 7 1z"/><path class="be" d="M293 459l4 2c1 0 5-1 5 1-2-2-3 1-5 1l-4-4z"/><path class="av" d="M338 460l2 7c1 1 9 3 10 1s2-9 0-10c-1-1-13-4-12 2zm0 0c-2-5 8-4 12-3 3 2 1 9 1 11-1 2-8 0-11 0-2-1-1-7-2-8z"/><path class="aw" d="M338 460l1 5c1 1 0 2 2 3h9l1-6c0-1 0-4-2-5-8-2-12 0-11 3z"/><path class="ax" d="M350 466v-3c1-2 1-5-1-5-7-2-11-1-11 1 1 1 2 3 1 5 0 2 7 3 8 1 0 0 1-2 1 1h2z"/><path class="be" d="M342 458h4a8 8 0 014 2l-3-1-5-1z"/><path class="as" d="M356 442c0 3 1 10-2 11l-7 1h-7c-2 0-4-1-5-3-6-5-2-9 5-9l12 1a12 12 0 004-1zm0 0a15 15 0 01-4 1l-12-1c-8-1-11 4-5 10 1 1 3 3 5 2h7l7-1c3-1 2-8 2-11z"/><path class="ay" d="M356 442c0 2 1 11-2 11-2 0-2 2-9 1s-5 2-10-2-4-9 2-10c4-1 8 2 14 1l5-1z"/><path class="au" d="M356 442v9l-1-1c-1-1-6 0-6 1-3 1-7-2-9 1-4 5-7-7-5-8 3-3 4-1 6-2l10 1 5-1z"/><path class="bd" d="M334 445c4-4 3-1 5-1l3-1a46 46 0 0110 1h-11a13 13 0 01-2 1c-2-1 0-2-5 0z"/><path class="av" d="M269 412l-6 1c-2-1-7-1-8 1l-1 3c-1 2-1 6 1 7 5 2 7 1 12 0a68 68 0 0111 1c2 0 7 0 8-2l-1-10c-1-2-6-2-8-2a53 53 0 00-8 1zm0 0a41 41 0 018-1c2 0 7 0 8 2l1 10c-1 3-6 2-8 2a75 75 0 00-11 0c-5 0-8 2-12-1-2-1-3-6-2-8l2-3c1-2 6-1 8-1h6z"/><path class="aw" d="M269 412l-4 1-4-1c-3 0-6-1-7 3l-1 5c1 4 1 4 3 5 5 2 7 0 11 0h11a23 23 0 006 0c3-1 1-3 1-5v-3c0-5 0-5-6-6l-10 1z"/><path class="ax" d="M263 413a15 15 0 00-2-1c-3 0-6-1-7 3a1 1 0 010 1l3 4h9l3-3h6c2 1 7-2 10-2 0-3-1-3-6-4h-5c-3 3-5 4-11 2v-1zm20 12a6 6 0 01-2-1c-6-3-10-1-16 0-1 0-9-1-9-3 4-1 4 2 10 1 5-1 0-4 10-4l9-1v3c0 1 2 4-1 5z"/><path class="be" d="M284 415c0-3-1-3-3-3l-8 2a17 17 0 01-6 0l6-1 6-1c2 0 7-1 5 3z"/><path class="av" d="M213 438h6c2 0 7 1 8-1l2-3c1-1 0-7-2-8-4-2-7 0-12 0a70 70 0 01-11-1c-1 0-7 0-7 2v10c1 2 6 2 8 2a52 52 0 008-1zm0 0a41 41 0 01-8 1c-2 0-7 0-8-2l-1-10c1-2 6-2 8-2a75 75 0 0011 0c5 0 8-2 13 1 1 1 2 6 1 8l-1 3c-2 2-7 1-9 1h-6z"/><path class="aw" d="M213 438l4-1 4 1c3 0 7 1 7-3 0-2 2-1 1-5 0-4 0-4-3-5-4-1-7 1-11 1l-11-1a22 22 0 00-6 0c-2 1-1 4-1 5v3c0 5 0 6 6 6l10-1z"/><path class="ax" d="M219 438a15 15 0 002 0c3 0 7 1 7-3 0-2-2-4-3-4-3 0-6-2-9-1-1 1-1 3-3 3h-5c-3-1-8 2-11 2 0 3 1 4 6 4h6c3-3 4-4 10-2v1zm-19-13a6 6 0 012 1c6 4 9 1 15 0 2 0 9 1 9 4-4 1-4-2-10-1-5 0 0 3-10 3l-9 1v-3c0-1-2-4 1-4l2-1z"/><path class="be" d="M198 436c1 2 1 2 4 2l7-2a17 17 0 016 0l-5 1-7 1c-3 0-6 1-5-2z"/><path class="as" d="M260 440c-5 2-6 1-10 1s-6 3-7 7c0 4 0 7 4 7h3c5 1 6 2 11-1l11-1c5-12-4-11-12-13zm0 0c8 2 17 1 13 13-1 2-9 0-12 2-5 2-6 2-11 1l-3-1c-4 1-4-3-4-7 1-5 2-7 7-7l10-1z"/><path class="ay" d="M260 440c-8 3-14-2-16 5-1 4-2 12 4 10 2 0 8 3 13 0 2-2 11 0 11-2 5-12-5-11-11-13a4 4 0 00-1 0z"/><path class="au" d="M259 441h-1a29 29 0 01-4 8l-2 3 2-4a19 19 0 003-7c-7 1-11-2-13 4-3 11 4 13 12 5 2-3 2-7 4-3l4 7h3c-3-1 0-8-1-11-1-2-6 0-7-3zm-3 15c0-3 3-7 4-1a9 9 0 01-4 1zm15-13c4 4 1 10-1 8-4-4-3-8-2-9a10 10 0 013 1z"/><path class="bd" d="M245 444c-2-2 5-2 5-2a23 23 0 004-1h4l-4 1-7 1-2 1z"/><path class="ay" d="M244 454l8-8c3-2 2-3 3-5a6 6 0 01-2 4l-2 3c-1 3 2 3 0 7v-6c-3 3 0 3-2 6 2-3-1-4 2-6l1-3-8 8zm11-13z"/><path class="as" d="M337 462v6c-3 2-13 1-17 1-3 1-11 3-11-3-1-4-1-2 4-5 2-1 6-5 9-5s11 0 14 3a5 5 0 011 3zm0 0c0-2 0-3-2-4-3-3-12-3-15-1l-12 6v5c2 4 9 2 12 2 4-1 14 0 17-2v-6z"/><path class="ay" d="M337 462v6l-11 1-9 1c-4 1-9 0-9-4 0-2-1-2 4-5 2-1 7-5 10-5 4 0 15-1 15 6z"/><path class="au" d="M309 463a14 14 0 013-2c2-1 7-5 10-5s12-1 14 3c1 3 1 5-6 6h-9l-12-1z"/><path class="bd" d="M315 460c3-2 14-6 18-2h-1c-4-2-13 1-17 2z"/><path class="as" d="M317 458c0 1 2 5 4 6 3 2 4 8 2 3-1-3-3-3-4-5-2-3-1-3-3 2l1-4v-2zM325 425v-10c1-4 4-3 8-3 3 0 18-2 19 0l1 7c1 2 1 6-2 6h-26zm0 0h26c3 0 2-4 2-6l-1-7h-17c-6 1-10-2-10 6v7z"/><path class="ay" d="M325 425v-10c1-4 3-3 7-3h20l1 7c1 2 1 6-2 6a175 175 0 00-18 0h-8z"/><path class="au" d="M331 412h21a8 8 0 010 2l-1 2c2 3 2 3 1 6-2 3-4 2-5 0 0-4-4-1-6 1h-13c-2 0-2-2-2-4-1-4 2-5 2-5l3-2zm0 4a8 8 0 012-1c2 0 1-1 1-1a1 1 0 01-1 0c-1 0-7 3-1 2zm15 5c-1 0-3 0-3 2 0 0 3 1 3-1v-1z"/><path class="bd" d="M338 413l12 1h-2l-10-1z"/><path class="ay" d="M325 421a6 6 0 002-2c1-2 4-2 5-1h-1s-2-1-4 1l-2 2z"/><path class="as" d="M200 470v-10c0-4 4-3 8-3h18l2 7c0 2 0 6-3 6h-25zm0 0h25c3 0 3-4 2-6l-1-7h-17c-6 1-10-2-10 6l1 7z"/><path class="ay" d="M200 470v-9c1-3 2-4 7-4h19l1 7c1 2 1 6-2 6a175 175 0 00-17 0h-8z"/><path class="au" d="M206 457h20a8 8 0 011 2l-2 2c2 3 3 3 1 6-1 3-4 2-4 0-1-4-4-1-7 1h-12c-3 0-3-2-3-4 0-4 2-4 2-5l4-2zm0 4a8 8 0 012-1c2 0 1-1 1-1a1 1 0 01-2 0s-6 3-1 2zm15 5c-1 0-4 0-3 2 0 0 2 1 3-1v-1z"/><path class="bd" d="M212 458l12 1h-1l-11-1z"/><path class="ay" d="M200 466a6 6 0 001-2c2-2 5-1 5-1-1 0-3-1-4 1l-2 2zM317 458c0 1 2 5 4 6 3 2 4 8 2 3-1-3-3-3-4-5-2-3-1-3-3 2l1-4-1-1 1-1z"/></g></svg>