<svg xmlns="http://www.w3.org/2000/svg" viewBox="0 0 1501 1001"><defs><radialGradient id="b" cx="557.1" cy="1377.9" r="51.8" gradientTransform="matrix(0 1 1 0 -823 -211)" gradientUnits="userSpaceOnUse"><stop offset="0" stop-color="#c0a373"/><stop offset="1" stop-color="#fff" stop-opacity="0"/></radialGradient><linearGradient id="a" x1="1183.2" y1="763.8" x2="1183.2" y2="669.1" gradientTransform="matrix(1 0 0 -1 -146 1444)" gradientUnits="userSpaceOnUse"><stop offset="0" stop-color="#a0edf0"/><stop offset="1" stop-color="#45dbe2"/></linearGradient><style>.e{isolation:isolate}.b{fill:#70b344;stroke:#5f732e}.aj,.ak,.an,.ao,.aq,.b,.x{stroke-miterlimit:10}.d{fill:#ddc02c}.e{opacity:.25}.aa,.f{fill:#7ebb15}.g{fill:#94d31a}.h{fill:#78a015}.i{fill:#897d6f}.j{fill:#635a52}.l{fill:#91887b}.p{fill:#8ab550}.q{fill:#97c261}.r{fill:#a9d171}.s{fill:#b3db7b}.t{fill:#dcf5f5}.u{fill:#f2ffff}.v{fill:#fff}.w{fill:#fddfb3}.x{fill:#1d150c}.aj,.ak,.an,.ao,.aq,.x{stroke:#1d150c}.y{fill:#81a653}.ad{mix-blend-mode:multiply}.aa{mix-blend-mode:screen}.ab{fill:#bdbdbd}.ac{fill:#d9d9d9}.ad{fill:#cfcfcf}.ae{fill:#cbcbcb}.ag{fill:#c6c6c6}.ah{fill:#e8e8e8}.aj,.ak{fill:#3f2b0f}.ak{stroke-width:1.14px}.an,.ao{fill:#571c10}.an,.ao,.aq,.ar,.as,.at,.au,.av,.aw,.ax,.ay,.az,.ba,.bb,.bc,.bd,.be{fill-rule:evenodd}.ao{stroke-width:1.04px}.aq{fill:#c0a373}.ar{fill:#5c4328}.as{fill:#544730}.at{fill:#877657}.au{fill:#ae9c87}.av{fill:#68543c}.aw{fill:#9d8264}.ax{fill:#b49871}.ay{fill:#8f7e5f}.az{fill:#857c68}.ba{fill:#a59b84}.bb{fill:#67604f}.bc{fill:#bdb29a}.bd{fill:#c1b09a}.be{fill:#cdb186}</style></defs><g style="isolation:isolate"><path class="b" d="M1001 501h250v250h-250zM1251 251h250v250h-250zM1001 251h250v250h-250zM1001 1h250v250h-250zM1251 1h250v250h-250zM751 251h250v250H751zM751 1h250v250H751zM751 501h250v250H751zM501 251h250v250H501zM251 251h250v250H251zM501 501h250v250H501zM251 501h250v250H251zM751 751h250v250H751zM251 751h250v250H251zM1001 751h250v250h-250zM501 1h250v250H501zM1251 501h250v250h-250zM1251 751h250v250h-250zM501 751h250v250H501zM251 1h250v250H251zM1 1h250v250H1zM1 751h250v250H1zM1 251h250v250H1zM1 501h250v250H1z"/><path d="M148 271c2-4 10-3 20-3 17 0 14-2 28-1l24 2h64c2-1 5-2 8 0s2 6 2 7c0 15 3 30 2 45-1 9-3 32-1 53 2 11-1 21 1 31l-1 7c-3 3-11 1-15 1-7-2-19-2-42-2-19 1-18 3-30 2-15-2-16-5-26-4-16 1-24 9-29 4-3-2-3-6-3-11l1-43v-39c1-13 2-25 0-32l-3-13v-4z" fill="#ffe161"/><path class="d" d="M222 413a2 2 0 01-2-1v-1-2l-1-4a3 3 0 010-1v-6l1 2a7 7 0 00-1-2 2 2 0 002 0 2 2 0 001 0h-3a3 3 0 010-1 26 26 0 000-3v-1l1-3a31 31 0 00-1-3 2 2 0 010-1h-1l1-1a2 2 0 011-1l-1-3v-3a3 3 0 011-3v-1a42 42 0 01-2-6l-1-4-1-6 3 3v-3a3 3 0 010-1 53 53 0 00-1-6l1-3v-1-1a2 2 0 010-1v-2-5a1 1 0 01-1-1 2 2 0 011-1l-1-3v-1a1 1 0 011-1l-1-2v-2a1 1 0 011-1 31 31 0 000-4 2 2 0 01-1-1 10 10 0 00-1-4l2-1v-1a2 2 0 00-1 0 5 5 0 011 0c-2-3-2-4 0-6v-3a22 22 0 01-1-3v-1a73 73 0 00-1-6 3 3 0 011-2v-1l-6 3 5-6v-6a21 21 0 011-4h-1v-1a29 29 0 000-4v-6a16 16 0 00-1-3l4-1a19 19 0 011 5v5a28 28 0 010 3v1a1 1 0 010 1 13 13 0 000 3v1a14 14 0 000 3 7 7 0 010 4 14 14 0 011 2v5h-1v2l1 1 1 5 1 3-2-1a8 8 0 000 1h1v1a2 2 0 01-2 2 10 10 0 002 4h-1v4a30 30 0 010 6 13 13 0 000 3 30 30 0 011 5v1l1 4h-2l1 6v1a2 2 0 010 1l-1 5v4l1 2a2 2 0 010 2v3l-1 2a2 2 0 010 1v1a61 61 0 001 6 2 2 0 011 1l1 4-2-1a2 2 0 01-1 1l1 2v8l1 4h-1a5 5 0 011 2l-1 2 1 4a17 17 0 010 5h-1v3l1 2v1a2 2 0 01-2 2zm0-37l-1 1a2 2 0 001 0 1 1 0 000-1zm-3 1h1a2 2 0 010-1 2 2 0 00-1 1zm3-75a1 1 0 000-1zm-5-18z"/><path class="d" d="M210 414l-1-3a2 2 0 011-1v-1-12a12 12 0 01-1-4v-2-1-3-2a2 2 0 01-1-3 2 2 0 012-1l-1-5-1-2h1a8 8 0 010-3 3 3 0 010-1 7 7 0 01-1-1 1 1 0 011 0v-5-2a2 2 0 010-1l-1-6 1-1a3 3 0 011-2l-1-2a3 3 0 010-1h-1v-1l1-2a3 3 0 011 0v-1c-3-5-3-9-2-11v-4l-1-5v-3a2 2 0 010-1 7 7 0 010-1v-8a2 2 0 010-1 2 2 0 011 0v-1a16 16 0 000-4h-1a11 11 0 01-1-5 4 4 0 010-1 2 2 0 011-1v-2l-1-2a8 8 0 011-3 2 2 0 011-3l-2-8v-1a2 2 0 011-2l-1-5a2 2 0 000-1v-2l3-3 1 3 1 12v6l1 2 4 9-5-5v-1h-1a29 29 0 000 4v3a4 4 0 010 1 11 11 0 001 4v6a6 6 0 011 2v7l-1-2v1a4 4 0 010 2v7-1 2a2 2 0 001 1h1a1 1 0 01-1 2v5l-1 1a18 18 0 002 5l1 11-1-2a7 7 0 010 2v10l-1 6 1 1a6 6 0 00-1 3 2 2 0 010 1l1 7v2h1v1a2 2 0 01-1 1v2a22 22 0 010 5l1 6 5 6-6-3 2 5-1 1a49 49 0 001 4l-2 1v1zm-1-60h1a2 2 0 00-1 0zm2 0zm-4-33h0zM202 412a2 2 0 01-1 0h-1l-1-1a1 1 0 011-2l-1-3a3 3 0 011-2l-2-7 1-1-1-3v-2a1 1 0 010-1 15 15 0 011-5 5 5 0 010-1 29 29 0 000-4 1 1 0 010-1v-1-3h-1l1-2a31 31 0 00-1-7 2 2 0 010-1l-1-1v-6-1 1h1v-3l-1-2 1-1v1a16 16 0 00-1-7l1-1a13 13 0 010-2v-3a3 3 0 011 0 11 11 0 00-1-5 2 2 0 01-1-2 16 16 0 010-2 2 2 0 010-1h1l-1-2a2 2 0 011-1v-1l-1-3a5 5 0 011-3l-1-1-1-2a3 3 0 011-2 6 6 0 000-2 3 3 0 010-3 7 7 0 000-4 5 5 0 010-2 14 14 0 000-2v-1h1v-4a35 35 0 00-3-10l-5-9h1l5 5a2 2 0 01-1-1 2 2 0 011-2 27 27 0 010-7v-9h1l1 2 2 1 1 1h-1l1 2-1 3a24 24 0 000 6 4 4 0 011 2 12 12 0 010 4l1 8v1l-1-1v-1l1 4v1l2 4h-1l-2-1v1a5 5 0 011 1v1h-1a2 2 0 010 1v1a9 9 0 01-1 5 3 3 0 000 1h1v1a8 8 0 01-1 4 2 2 0 000 1l1 1v2l2 8-1-1v2l-1 1v3a13 13 0 011 7 18 18 0 000 3 15 15 0 001 3l-2 1a19 19 0 010 3v1a2 2 0 011 1v-1 3a42 42 0 01-1 7v1a3 3 0 011 2 33 33 0 011 4v10a1 1 0 010 2 31 31 0 010 4 3 3 0 010 1h1l-1 1a4 4 0 01-1 1v5l1 5-1 1 2 7h-1l1 4v2l-1 1zm-6-130v-1a2 2 0 000 1zm3-14a2 2 0 001 0z"/><path class="d" d="M191 411a3 3 0 01-3-2h2v-1a3 3 0 010-1v-1a15 15 0 010-3 21 21 0 01-2-4v-4a2 2 0 011-2 12 12 0 010-6l-1-3a1 1 0 010-1h1l-1-3a3 3 0 011-2 20 20 0 01-1-4 2 2 0 000-1l-1-2-1-3h1v-1l-1-1v-1h3l-1-3a2 2 0 010-1v-4a5 5 0 011-3l-1-1 1-4v-3l-1 1-1-5a4 4 0 01-1-2l-1-6h1l2 2v-2l-1-5v-8-1-1a5 5 0 01-1-2h-1l1-1-1-2h1v-1a8 8 0 000-2l2-1h-1-1v-1-1a2 2 0 010-1v-1-1-1a1 1 0 010-2v-3a2 2 0 011-2v-1a6 6 0 010-1v-1a26 26 0 000-6 19 19 0 01-1-1 2 2 0 010-3h1a10 10 0 010-1 4 4 0 000-3l-1-2a2 2 0 011 0v-1a17 17 0 01-1-4v-1a3 3 0 01-1-1 16 16 0 01-1-2l-1-4h1l3 2a3 3 0 011 1h2a11 11 0 010 1 5 5 0 01-1 2l1 2 1 4v1a2 2 0 01-1 1 6 6 0 011 4 3 3 0 000 3v1h-1 1v1a28 28 0 010 6v1a5 5 0 010 1v2h-1a2 2 0 010 1v2a28 28 0 010 4v2l1 2h-1v9l1 1v5h-1l1 1a23 23 0 010 6v1a31 31 0 002 5l1 1-3 1v1a40 40 0 012 9v1l1 3v1h-1v-1 1a10 10 0 010 1l-1 1a6 6 0 001 2 6 6 0 010 1l-1 1v1a36 36 0 001 6l2 6v1l-3-3v4a14 14 0 001 4h-1l1 3a17 17 0 010 5v1a11 11 0 000 6v1a2 2 0 01-1 2 20 20 0 002 5 3 3 0 010 1v1a42 42 0 001 4v1h-2a2 2 0 01-2 2zm0-7a3 3 0 001 0 2 2 0 001 0zm-2-48a2 2 0 001 0 3 3 0 001 0zm0-60a2 2 0 011 1 2 2 0 000-1zM180 409h-3a3 3 0 012-3 16 16 0 01-1-2 6 6 0 000-3l3-2a2 2 0 00-1 0 2 2 0 00-2 1 4 4 0 000-1h-1v-2-1c0-3 1-5 2-5a15 15 0 01-1-3v-1-2a34 34 0 01-1-6l1-1a5 5 0 00-1-1 2 2 0 002 1 2 2 0 002-1h-4a11 11 0 000-3l1-2a16 16 0 00-1-4v-1a2 2 0 010-1v-2a12 12 0 01-1-2l2-1a22 22 0 00-1-5 2 2 0 010-1l-1-1a44 44 0 010-3 1 1 0 010-1v-4l1 1a6 6 0 010-2 2 2 0 000-1 1 1 0 010-1l-1-1h1v-6a4 4 0 010-3 17 17 0 00-1-5 20 20 0 01-1-3l2-1a10 10 0 010-1 22 22 0 00-1-6h-1l1-2v-2a5 5 0 010-2 15 15 0 010-2 14 14 0 010-4 3 3 0 011-3 20 20 0 000-5 2 2 0 01-1 0l-2-5 2 1a10 10 0 010-3l1-2-1-2a7 7 0 010-3 3 3 0 010-1 33 33 0 010-6v-1l-1-3a47 47 0 010-5l1-1 3-1v8l1 3v8l1 2h-1l1 5h-1v5a11 11 0 011 4l-1 4v2a2 2 0 010 1 17 17 0 000 3 4 4 0 011 0v2a2 2 0 01-2 1v1l1 2a23 23 0 011 6 5 5 0 000 1v1s1 4-1 5a33 33 0 010 7 3 3 0 001 0v2l-1 4a4 4 0 011 3 5 5 0 00-1 3 4 4 0 010 5v1a20 20 0 012 5v4a3 3 0 01-1 2 3 3 0 01-1 2 15 15 0 011 3l1 5h-1a11 11 0 010 1 4 4 0 010 2 13 13 0 011 2 2 2 0 01-1 1l1 4a1 1 0 010 1v2a10 10 0 001 3l2 5-4-2v2a2 2 0 011 1v3a8 8 0 010 3 12 12 0 000 4l2 7zm-2-67a2 2 0 00-1 0h2a3 3 0 00-1 0zm0-76h-1zM172 407a3 3 0 01-1 1v6a3 3 0 01-2 0 2 2 0 01-2-2h1a9 9 0 00-1-4l-4-10 4 5h1a2 2 0 010-2v-2a14 14 0 00-2-5l2-1v-1a2 2 0 00-2 2v-1a7 7 0 011-2v-1h-1l-3 1h-1l6-4a10 10 0 001-3 37 37 0 00-1-5 3 3 0 01-1-1 10 10 0 010-1l1-1a7 7 0 000-1 12 12 0 000-4l-1-2v-3c-1-2 0-4 1-5l-1-3v-2-1a6 6 0 010-1v-3-2a1 1 0 01-1-1 4 4 0 011-3 2 2 0 010-2l-1-2v-4h1l-1-3a2 2 0 010-2v-2a3 3 0 010-2 2 2 0 011-3v-1l-1-6h1l-1-3v-1-2l-1-3 2-1h-1a2 2 0 000 1v-1a3 3 0 010-1 6 6 0 011-3v-1a14 14 0 00-1-3l-3-2v-1l3 1v-1a38 38 0 00-1-5 1 1 0 010-2v-1h1l-1-6v-1a1 1 0 010-1 5 5 0 011-3 2 2 0 000-2 4 4 0 010-2l-1-3v-1a2 2 0 001 0 2 2 0 002-1h-3v-1a2 2 0 011-1 2 2 0 012 2 46 46 0 011 3l1 3a4 4 0 010 3v5h-1l1 5-1 5v6a17 17 0 011 3v3a2 2 0 010 1 5 5 0 000 1l-1 1h-1 1v1a1 1 0 000-1 3 3 0 000 1v3h1a32 32 0 011 5l-1 3v1h1v5a1 1 0 01-1 1v1l2 8-1-2h-1a2 2 0 010 1v5a53 53 0 002 5v1h-2v1a1 1 0 000-1 1 1 0 000 1v4l1 3a2 2 0 010 1v6a1 1 0 01-1 2 7 7 0 000 3 27 27 0 011 2v3a13 13 0 010 3 2 2 0 010 1 16 16 0 010 2 4 4 0 010 1l1 4v3a9 9 0 01-1 2v1a11 11 0 010 3l-1 2a15 15 0 012 5 23 23 0 001 4l4 10h-1l-4-5zm-3 5a2 2 0 00-1 0h2a2 2 0 00-1 0zm-1-37a2 2 0 002 1 2 2 0 001-1z"/><path class="d" d="M161 407a2 2 0 01-2-2l-1-2v-1h1a669 669 0 00-2-7v-1h0a3 3 0 010-1h-1v-1h1a3 3 0 011-1 13 13 0 00-2-6l3-1a2 2 0 00-1 0 2 2 0 00-1 0 7 7 0 001-1l-1-4a10 10 0 000-3 15 15 0 010-2h1v-2-1a3 3 0 010-1l-1-1-1-6v-1h1a1 1 0 00-1 0h1a94 94 0 01-2-7v-2l-2-4h1l2 2h1v-1l-1-5-1-4-2-2v-1l3 1a2 2 0 011-2 4 4 0 010-1v-4a93 93 0 01-1-6 2 2 0 010-1v-4-1a14 14 0 010-2 17 17 0 00-1-5l-3-8v-1l3 4h1v-1a1 1 0 010-1 25 25 0 00-1-3 3 3 0 01-1-2v-3l2 1v-2a20 20 0 00-2-7l1-1h1l-1-2a31 31 0 010-4v-3-3-3a8 8 0 010-4 6 6 0 000-1v-1c-1-3-1-4 1-5a3 3 0 013 1 1 1 0 010 1v2a1 1 0 010 1 9 9 0 010 2 6 6 0 000 4l4 7h-1l-3-2a11 11 0 010 2v6l1 2v2a2 2 0 01-1 2 21 21 0 011 4 9 9 0 000 2v1l-1 1v1a21 21 0 011 2v5a2 2 0 01-1 0h1v1a5 5 0 000 1 3 3 0 01-1 2 19 19 0 011 4 9 9 0 001 5h-1l-1 1a18 18 0 001 2v1a67 67 0 002 6l2 5v1l-3-2h1l-1 1a5 5 0 01-1 1 4 4 0 010 3v1a9 9 0 010 2 2 2 0 010 1 61 61 0 001 8 1 1 0 010 1 3 3 0 01-1 2v5l1 2v1h-1l1 5h1v4l-1 3a12 12 0 010 4 11 11 0 001 2v1l-1 1a7 7 0 01-1 1v1a15 15 0 012 3v4a6 6 0 01-1 2v2a331 331 0 012 6 1 1 0 010 1v1a2 2 0 01-2 2zm-3-13zm1-14l1 1a1 1 0 000-1zm-1 1v-1l-1 1h1zm1-7h1-1zm0-5h1a2 2 0 00-1 0zm-2-43a3 3 0 001 0 2 2 0 001 0zm1-18a2 2 0 00-1 0 3 3 0 001 0 3 3 0 001 0 2 2 0 00-1 0zm-2-40h-1 1zm2-2zM284 415v-2a2 2 0 011-2v-1-4c-1-3-2-6-1-8a12 12 0 010-4v-2a1 1 0 010-1v-2-3a2 2 0 01-1-2 2 2 0 011-1l-1-6-1-2h1a8 8 0 010-2 3 3 0 010-1 7 7 0 010-1 1 1 0 010-1l1-4v-1l-1-1a2 2 0 010-2v-6h1a4 4 0 010-3v-2a3 3 0 01-1 0v-1l1-3v-1c-2-5-2-8-1-10v-4l-1-5v-4-1a7 7 0 010-1v-8a2 2 0 010-1v-1a17 17 0 000-3v-1a11 11 0 01-1-5v-1a2 2 0 010-1v-1a2 2 0 010-1v-2a8 8 0 010-3 2 2 0 011-2l-1-9v-1a2 2 0 011-1l-1-6a2 2 0 000-1v-2l3-3v3l2 12v6l1 2 4 9-5-5-1-1a29 29 0 000 4v3a4 4 0 010 1 11 11 0 000 4l1 5v1a6 6 0 010 2l1 7-2-2v1a4 4 0 011 2h-1l1 4v4a2 2 0 001 1 1 1 0 010 2 2 2 0 01-1 0l1 2v1c0 1 0 0 0 0v2l-1 1a18 18 0 002 5l1 11-1-1a7 7 0 010 2l-1 3h1l-1 4v9h1a4 4 0 01-1 0 6 6 0 000 3 3 3 0 010 1l1 7v2h1v1l-1 1v2a21 21 0 010 5l1 6 5 7-6-4 2 5-1 1a49 49 0 001 5h-2v1zm0-59h1a2 2 0 00-1 0zm2-1h-1a2 2 0 001 0zm-4-33zM275 412a2 2 0 01-1 0h-1l-1-1a1 1 0 011-2l-1-3a3 3 0 011-2l-2-7h1a1 1 0 010-1l-1-3v-2a1 1 0 010-1 15 15 0 011-5v-1a29 29 0 000-4 1 1 0 010-1v-1-3h-1l1-2a30 30 0 00-1-7 2 2 0 010-1v-1l-1-1v-6l1 1v-6l-2-6 2-1a13 13 0 010-2v-3a2 2 0 011 0 11 11 0 00-1-5 2 2 0 01-1-2v-2a2 2 0 010-1v-2a2 2 0 011-2 29 29 0 01-1-3 5 5 0 010-3v-1l-1-2a4 4 0 011-2 6 6 0 000-2v-3a7 7 0 000-4 5 5 0 010-2 10 10 0 000-3h1v-4a35 35 0 00-3-10l-5-10 5 6a2 2 0 010-1 2 2 0 011-2 26 26 0 010-7v-10l2 3 2 1v3l-1 3a25 25 0 001 6 4 4 0 011 2 13 13 0 010 3l1 10-1-2v4l1 1 2 5-3-2v1a5 5 0 011 1l-1 1a2 2 0 01-1 1l1 1a9 9 0 01-1 5v2a8 8 0 010 4 2 2 0 000 1 20 20 0 011 3l3 9-2-3v4h-1v3a13 13 0 011 7 18 18 0 000 3h-1a15 15 0 002 3l-2 1a19 19 0 010 3v1a2 2 0 011 1v2a44 44 0 01-1 7v1l1 2 1 4v11a1 1 0 010 1 32 32 0 010 4 3 3 0 011 1v1h-1a4 4 0 01-1 1v6l1 4-1 2 2 6h-1a38 38 0 001 5v2zm-6-130v-1a2 2 0 000 1zm2-14h1a2 2 0 001 0z"/><path class="d" d="M264 415a3 3 0 01-3-1l1-1a1 1 0 001 0 3 3 0 010-1v-1a14 14 0 010-3 21 21 0 01-2-5v-4a2 2 0 011-1 12 12 0 010-6l-1-3a1 1 0 011-2l-1-3a3 3 0 011-1 20 20 0 01-1-5l-1-2-1-4h1l-1-2h3l-1-3a2 2 0 010-2v-3a5 5 0 011-3l-1-2 1-3v-3l-1 1-1-6a3 3 0 01-1-2l-1-6 3 3a3 3 0 011 0l-1-3-1-4v-9-1a4 4 0 01-1-2l-1-1h1l-1-2v-1h1a7 7 0 000-3h2v-1h-1a1 1 0 00-1 1 14 14 0 000-2v-1a2 2 0 010-1v-2-1a1 1 0 010-1v-1-3a2 2 0 011-2 4 4 0 010-1v-1a26 26 0 000-6l-1-2a2 2 0 011-2 7 7 0 010-1 4 4 0 000-3l-1-2a2 2 0 011-1 16 16 0 01-1-4l-1-2a3 3 0 010-1 16 16 0 01-1-2l-1-4 4 3a3 3 0 011 1l1-1a10 10 0 010 2 4 4 0 010 2v1l2 5v1a2 2 0 01-1 1 6 6 0 010 4 3 3 0 001 3h-1v1a27 27 0 011 7v1a5 5 0 010 1l-1 1v4a28 28 0 010 3v6l-1 5a46 46 0 011 2v2l1 3-1 1 1 2a23 23 0 010 5v1a33 33 0 002 5l1 2h-3v1a3 3 0 010 1 39 39 0 012 9l1 5-2-1a12 12 0 010 2 6 6 0 000 3l1 1h-2a2 2 0 011 1v1a37 37 0 001 5l2 8-3-4v5a14 14 0 001 3l-1 1v3a16 16 0 010 4l1 1h-1a11 11 0 001 6v2a2 2 0 01-1 1 20 20 0 001 6 3 3 0 011 1h-1a41 41 0 001 5l-1 1a3 3 0 01-2 1zm0-6a3 3 0 002-1zm-2-49a2 2 0 001 0 3 3 0 001 0zm0-59a2 2 0 011 0zM253 413h-2a3 3 0 011-3 16 16 0 010-2 6 6 0 00-1-3l4-2a2 2 0 00-2 0 2 2 0 00-2 1 4 4 0 000-1h-1l1-2v-1l1-5a14 14 0 010-3l-1-1v-2a33 33 0 01-1-6l1-1a5 5 0 000-1 2 2 0 001 1 2 2 0 002-1h-4a11 11 0 000-3l1-2a15 15 0 00-1-4v-1a2 2 0 010-1v-2a12 12 0 01-1-2l3-1a23 23 0 00-2-5 2 2 0 010-1v-1l-1-2v-1a1 1 0 011-1l-1-4 1 1a6 6 0 010-2 2 2 0 000-1 1 1 0 010-1v-1-6a4 4 0 010-3 16 16 0 00-1-5 21 21 0 01-1-3l2-1a10 10 0 010-1 21 21 0 00-1-6h-1l1-2v-2a5 5 0 011-2 14 14 0 01-1-2 13 13 0 010-4 3 3 0 011-3 20 20 0 000-4 1 1 0 010-1l-3-5 2 1a10 10 0 010-3l1-2-1-2a7 7 0 010-3 3 3 0 010-1 33 33 0 010-6v-1l-1-3a47 47 0 010-5l1-1 4-1-1 3v5l1 3v8l1 2h-1l1 5h-1v5a11 11 0 011 4l-1 4v2a2 2 0 010 1 17 17 0 000 3 3 3 0 011 0v2a2 2 0 01-1 1l-1 1a3 3 0 011 2 24 24 0 011 6v7h-1a33 33 0 011 7v6a4 4 0 010 3 5 5 0 00-1 3 4 4 0 010 5v1a19 19 0 012 5v4a19 19 0 00-2 4 16 16 0 012 3v5h-1a11 11 0 010 1 4 4 0 011 2 13 13 0 010 2 2 2 0 01-1 1l1 4a1 1 0 010 1v2a9 9 0 001 3l2 6-4-3v2a2 2 0 011 1v3a8 8 0 010 4 12 12 0 001 3l1 7zm-1-67a2 2 0 00-2 0h2zm-1-76zM245 404h-1a2 2 0 010 1v5a3 3 0 01-3 1 2 2 0 01-1-2h1a8 8 0 00-1-4l-6-12 6 7a2 2 0 011-2v-3a14 14 0 00-2-4l2-1-1-1a2 2 0 00-1 1l1-3-6 2 7-5a10 10 0 001-3v-1a37 37 0 00-2-4 2 2 0 010-1 12 12 0 01-1-2h1a8 8 0 000-1 3 3 0 010-1 11 11 0 000-3v-2l-1-3 1-5v-3-2-1a5 5 0 010-1l-1-3v-2a1 1 0 010-1 4 4 0 010-3 2 2 0 010-2 1 1 0 011 0l-1-3v-3-4-1l-1-3a3 3 0 011-2 2 2 0 011-2l-1-2v-5h1l-1-4v-1l-1-1v-4h1a4 4 0 010-1 2 2 0 00-1 1 3 3 0 011-1 6 6 0 010-4 14 14 0 00-1-3l-3-3h4a40 40 0 00-1-6 1 1 0 010-1v-1l1-1-2-6a1 1 0 011-2 5 5 0 011-3 2 2 0 000-1 4 4 0 01-1-2v-3l-1-2a2 2 0 002 1 2 2 0 002-2h-4l2-1a2 2 0 012 2v1l1 2v2a4 4 0 010 4v4h-1v1l1 4v12a15 15 0 011 2v4a3 3 0 000 2l-2 1a1 1 0 001 0 2 2 0 010 1v2a32 32 0 011 5v10a2 2 0 01-1 1v1l3 9-2-3v6a52 52 0 002 5l-3 1 1 1v7l1 1h-1l1 5a1 1 0 010 1l-1 2a7 7 0 000 2 25 25 0 010 3l1 2a13 13 0 010 4 2 2 0 010 1 16 16 0 010 2 4 4 0 010 1l1 4v3a8 8 0 01-1 2 10 10 0 01-1 4v2a15 15 0 011 5 23 23 0 001 4l5 11zm-3 4a2 2 0 00-1 1l2-1a2 2 0 00-1 0zm-1-36a2 2 0 001 1 2 2 0 002-1z"/><path class="d" d="M234 411a2 2 0 01-3-1v-3h1l-2-5v-2a4 4 0 010-1v-1l-1-1 1-1a3 3 0 011 0 13 13 0 00-2-6l3-2a2 2 0 00-2 1 6 6 0 000-1l1-1c-2-2-1-3-1-3a11 11 0 000-3 14 14 0 010-3h1v-2a3 3 0 01-1-1v-2l-1-5v-1h-1 1v-1-3l-1-4v-1l-2-6 4 3-1-6-1-3-3-3h4a2 2 0 011-1v-1a4 4 0 010-1v-4l-1-4a17 17 0 010-2 2 2 0 010-1v-4a14 14 0 010-3 17 17 0 00-1-5l-4-9 5 5a5 5 0 010-2 24 24 0 00-1-4 3 3 0 01-1-1l-1-4 3 2a14 14 0 010-2 20 20 0 00-2-8h2l-1-2a31 31 0 010-4v-4-2-3a8 8 0 010-4 6 6 0 000-2h-1 1c-1-3-1-5 1-5a2 2 0 013 1v2a1 1 0 01-1 1 1 1 0 000 1 9 9 0 010 2 6 6 0 001 4l4 7-4-3a13 13 0 010 2v8l1 3a2 2 0 01-1 2 20 20 0 011 3 9 9 0 000 3v1l-1 1a16 16 0 010 3l1 4a2 2 0 01-1 1h1-1a5 5 0 000 2 3 3 0 010 2 19 19 0 010 4 9 9 0 002 4l-2 1a18 18 0 001 3h-1a66 66 0 003 7l2 6-3-3v1h-1a5 5 0 010 1l-1 4a9 9 0 011 3 2 2 0 01-1 1l2 6v1a1 1 0 01-1 2 3 3 0 01-1 2l1 2v2l1 3h-1l1 6h1v3l-1 3a12 12 0 010 5 12 12 0 001 1v1l-1 1a7 7 0 01-1 2 15 15 0 011 4v4a6 6 0 010 1 2 2 0 010 1v1l1 5v3a2 2 0 01-1 2zm-3-12v-1zm1-14h1zm-2 0a1 1 0 001 1v-1zm2-7h1a2 2 0 00-1 0zm0-4h1a3 3 0 00-1 0zm-2-43a2 2 0 001 0 3 3 0 001-1zm1-19a2 2 0 00-1 1 3 3 0 001 0 2 2 0 001-1 2 2 0 00-1 0zm-2-40a2 2 0 00-1 1l1-1zm2-2v1z"/><path class="f" d="M564 592c1-7 5-13 10-16s13-2 18 2c4-5 9-9 16-10s14 3 16 9c10 1 16 13 12 22a34 34 0 00-1 4l-1 4c0 4-2 7-5 10-6 7-14 12-22 15-9 3-19 4-28 0-7-3-13-10-14-18l1-8-2-14z"/><path class="g" d="M573 621c-1-5-3-9-2-14 1-7 4-13 10-16s13-2 17 3c4-6 10-10 16-11s14 3 17 9a15 15 0 016 3c1-9-5-18-13-19-3-6-10-10-16-9s-12 5-16 11c-5-5-12-6-18-3s-9 9-10 16c-1 5 2 9 2 14l-1 8a21 21 0 007 14 33 33 0 001-6z"/><path class="f" d="M661 720c8-1 15-9 14-17a14 14 0 007-25c4-2 5-8 3-12s-5-7-9-9a37 37 0 00-38 4 17 17 0 01-3 2 38 38 0 01-5 1c-6 2-10 9-10 15s3 13 6 19c3 7 10 7 15 11 7 5 11 12 20 11z"/><path class="h" d="M682 678c4-2 5-8 3-12s-5-7-9-9a36 36 0 00-12-3 17 17 0 017 8c2 4 1 9-3 12a14 14 0 01-7 24c1 8-5 16-13 17 4 3 8 5 13 5 8-1 15-9 14-17a14 14 0 007-25z"/><path class="f" d="M509 673a16 16 0 002 17 27 27 0 00-9 19c0 6 2 13 7 15 6 3 12 1 17 0-1 3-1 8 2 11a18 18 0 009 6 23 23 0 0016-1c5-3 9-7 9-13 5 2 11 1 15-2s7-8 9-13c2-6 3-13 1-19s-7-12-13-14v-11c-2-3-5-5-9-6-7-3-14-6-22-6s-11 5-18 8c-6 3-12 2-16 9z"/><path class="h" d="M574 670v1a8 8 0 000-2v1zM586 703c-2 5-4 10-9 13s-10 5-15 3c0 5-4 10-9 12a23 23 0 01-16 1 18 18 0 01-9-6c-3-3-3-7-2-11-5 2-11 3-17 1-3-2-6-6-6-10a26 26 0 00-1 3c0 6 2 13 7 15 5 3 12 2 17 0-1 3-1 8 2 11a18 18 0 009 6 23 23 0 0016-1c5-3 9-7 9-13 5 2 11 1 15-2s7-8 9-13a34 34 0 002-15 38 38 0 01-2 6zM511 682a15 15 0 01-3-6 16 16 0 000 9 26 26 0 013-3z"/><path class="f" d="M516 600l-4 6c-1 2 1 4 3 5a25 25 0 00-14 18 37 37 0 000 13c1 5 4 10 8 10a10 10 0 013 0c2 0 3 3 3 5a18 18 0 0031 7 5 5 0 012-2c2-1 3 0 4 1a24 24 0 0035-13 23 23 0 00-3-40c3-3 3-8 2-11s-5-7-9-9a25 25 0 00-14-2 19 19 0 01-5 1 20 20 0 01-4-2 24 24 0 00-20 4l-8 4c-4 1-7 2-10 5z"/><path class="h" d="M598 629a24 24 0 00-9-16 22 22 0 011 5 24 24 0 01-10 22 23 23 0 01-35 12c-1-1-3-2-4-1a5 5 0 00-2 2 18 18 0 01-18 6 17 17 0 01-6-2 18 18 0 0031 7 5 5 0 012-2c2-1 3 0 4 1a23 23 0 0036-13 24 24 0 0010-21z"/><path class="g" d="M521 620c-6 0-10 7-9 13s7 10 13 9a7 7 0 005-2 8 8 0 002-5 37 37 0 00-1-7 9 9 0 009-6c1-3 1-7 4-8h5c3 0 4-2 5-4s2-5 1-7-5-3-8-3h-14c-7 0-7 3-9 8-1 4-6 7-3 12z"/><path class="f" d="M597 664l-6 2c-1 1-3 4-1 6a25 25 0 00-23 5 37 37 0 00-8 10c-2 4-4 10 0 13a10 10 0 012 1c1 2 0 4-1 6a18 18 0 0020 26 5 5 0 013-1l2 4a23 23 0 0035 13 23 23 0 0023-34c4 0 7-4 9-8s0-8-2-11a25 25 0 00-9-11 20 20 0 01-4-2 20 20 0 01-3-4 24 24 0 00-17-10c-5-1-6 0-9-2-4-2-6-3-11-3z"/><path class="h" d="M642 738a24 24 0 003-17 22 22 0 01-2 4 24 24 0 01-22 10 23 23 0 01-32-7 23 23 0 01-3-5l-2-4a5 5 0 00-3 0 18 18 0 01-18-6 17 17 0 01-3-6 18 18 0 0020 26 5 5 0 013-1l2 4a23 23 0 0035 12 24 24 0 0022-10z"/><path class="g" d="M590 690c-4-3-12-1-15 4s0 12 4 16c2 1 4 2 6 1a8 8 0 004-2 37 37 0 004-7 9 9 0 0011 1c3-1 5-4 8-3l4 3c2 2 4 1 6 0s5-2 5-4c1-3-2-6-4-8l-11-9c-5-4-7-2-12 1-4 2-9 1-10 7z"/><path class="f" d="M624 594l-6 2c-1 1-3 4-1 6a25 25 0 00-23 5 37 37 0 00-8 10c-2 4-3 10 0 13a10 10 0 012 1c2 2 0 4-1 6a18 18 0 0020 25 5 5 0 013 0l2 4a23 23 0 0035 12 23 23 0 0023-33c4-1 8-4 9-8s0-8-2-12a25 25 0 00-9-10 20 20 0 01-4-3 20 20 0 01-2-3 24 24 0 00-18-11c-4 0-6 1-9-1-4-2-6-3-11-3z"/><path class="h" d="M669 668a24 24 0 003-18 22 22 0 01-2 5 24 24 0 01-22 10 23 23 0 01-35-12l-2-4a5 5 0 00-3 0 18 18 0 01-18-6 17 17 0 01-3-6 18 18 0 0020 25 5 5 0 013 0l2 4a23 23 0 0030 15 23 23 0 005-3 24 24 0 0022-10z"/><path class="g" d="M616 613c-5-4-13-1-16 4s0 12 5 15c1 2 3 2 5 2a8 8 0 004-3 37 37 0 004-6 9 9 0 0011 1c3-1 5-4 8-3 2 0 3 2 4 3h7c3-1 4-2 4-4 1-3-2-6-4-8l-11-9c-5-4-7-2-12 0-3 3-9 2-9 8z"/><path class="f" d="M542 647a18 18 0 00-6 6c-3 5-1 12 1 18-7 2-10 13-5 19s13 7 21 5a24 24 0 0034 0 24 24 0 003-4l3-3a9 9 0 014 0 13 13 0 0010-5 22 22 0 004-12 26 26 0 010-6l2-4a17 17 0 00-2-16 21 21 0 00-15-8 19 19 0 00-15-10c-10-1-13 5-19 11-4 5-14 6-20 9z"/><path class="g" d="M547 681c-2-6-3-13 0-18a19 19 0 016-6c6-4 15-5 20-10 5-6 9-11 18-11a19 19 0 0116 11 22 22 0 017 1 18 18 0 00-3-6 21 21 0 00-15-7 19 19 0 00-15-11c-10 0-13 5-19 11-4 5-14 6-20 10a19 19 0 00-6 6c-3 5-1 12 1 18-7 2-10 13-5 19a16 16 0 008 5c0-5 2-11 7-12z"/><path class="h" d="M611 645a19 19 0 00-2-2 15 15 0 01-1 6l-2 4a26 26 0 00-1 6 22 22 0 01-3 12 13 13 0 01-11 5 9 9 0 00-3 1c-2 0-3 1-3 3a24 24 0 01-38 3c-6 2-13 2-17-2a13 13 0 002 9c5 6 14 8 21 5a24 24 0 0034 0 24 24 0 003-4l3-3a9 9 0 014 0 13 13 0 0010-5 22 22 0 004-12 25 25 0 011-6 43 43 0 011-4 17 17 0 00-2-16z"/><path class="f" d="M590 638c-6 3-11 7-13 12s0 13 5 15c0 4-1 8 2 11 2 3 5 4 9 4 5 1 11 0 13-5a15 15 0 0025-7 33 33 0 011-5l2-3a10 10 0 00-8-15 12 12 0 00-6-9c-5-3-9-1-13 0-6 0-11 0-17 2z"/><path class="h" d="M634 650a10 10 0 00-5-4 10 10 0 01-1 3l-1 3a32 32 0 00-2 5 15 15 0 01-24 6c-2 5-9 6-14 6a19 19 0 01-5-2c0 4 0 7 2 9s6 4 9 4c5 1 11 0 13-5a15 15 0 0025-7 33 33 0 011-5l2-3a10 10 0 000-10z"/><path class="i" d="M159 632a58 58 0 00-6-3c-8-2-23-11-31-11-3 0-10 2-15 14-3 7-3 15-2 22 1 14 13 61 15 67 3 8 6 17 12 22h7l-1-2c-5-12-13-50 5-54a53 53 0 018-4c7-2 13-4 19-8l1-1h2c-1-5-3-10-6-14-5-7-13-5-20-6-5 0-10 1-12 4s-2-1-1-2c1-3 3-3 5-5s2-5 5-7l9-2c6-2 15 6 20 9a34 34 0 014 2 118 118 0 00-18-21z"/><path class="j" d="M173 674h-1zM171 674l-1 1z"/><path d="M92 613c-9 5-18 13-26 19-9 6-18 12-25 20l-2 1c13-6 20-6 34-11l15-9c-6 19-2 52 5 68 1-5 3-11 1-25-2-9-4-24-2-29 2-10 10-20 17-28 8-10 16-4 19-2a148 148 0 0022 8l-5-4c-16-11-35-17-53-8z" fill="#bab2a8"/><path class="l" d="M128 617c-3-2-11-8-19 2-6 8-15 18-17 28-2 5 0 20 2 29 2 14 0 20-1 25-7-16-11-49-5-68l-15 9c-14 5-21 5-34 11-6 7-7 16-7 25 0 14-2 42 4 49a20 20 0 002 2c-1-4 1-9 4-15 6-12 12-22 23-30l7-12v-1 1c-1 10-8 21-13 29l-9 15c-3 7-4 12-3 19a61 61 0 006 2c0-7 5-13 11-16 4-3 9-4 13-6l10-3c10 1 12 6 18 12 2 3 6-1 8-5l5-5c-4-15-12-48-13-60-1-7-1-15 2-22 5-12 12-14 15-14 8 0 23 9 31 11a58 58 0 016 3l-9-7a149 149 0 01-22-8z"/><path class="j" d="M74 653c-5 2-11 2-15 6-3 2-3 5-5 8-1 4-5 7-8 11-5 7-6 17-7 26-1 5-4 15 3 18a1 1 0 001-1c3-11 10-20 17-29 4-5 11-13 12-20 0-2 2-12 6-19 2-2-2-1-4 0z"/><path class="i" d="M71 672l-6 12c-11 8-17 18-23 30-3 6-5 11-4 15a30 30 0 009 6c-1-7 0-12 3-19l9-15c4-8 12-19 13-29v-1l-1 1z"/><path class="j" d="M118 714l-5 5c-2 4-6 8-8 5-6-6-8-11-18-12l-10 3c-4 2-9 3-13 6-6 3-11 9-11 16h1c7-10 19-9 29-9 6 1 10 2 14 5 4 4 10 6 13 4 4-2 7 3 11 7l11-1c-6-5-9-14-12-22l-2-7zM177 653a36 36 0 00-4-2c-5-3-14-12-20-9l-9 2-5 7c-2 2-4 2-5 5-1 1-1 4 2 2s6-4 11-4c7 1 15-1 20 6 3 4 5 9 6 13l-1 1h-1l-1 1c-6 4-12 6-19 8a52 52 0 00-8 4c-18 4-10 42-5 54l1 2 9-2a72 72 0 0014-4c12-19 13-62 13-62 1-2 5-4 7-5l1 1 1 2c4 11 9 33 8 47a20 20 0 005-4s1-10-2-23c-3-15-15-34-18-40z"/><path d="M184 673l-1-2-1-1c-2 1-6 3-7 5 0 0-1 43-13 62 9-3 19-1 24-4 6-3 9-7 9-9 0-15-7-40-11-51z" fill="#4f463f"/><path class="i" d="M110 737c-3 2-9 0-13-4-4-3-8-4-14-5-10-1-22-1-29 9a427 427 0 0067 6c-3-3-7-8-11-6z"/><path class="l" d="M176 669c-2 0-5-2-6-1-4 1-8 4-19 5-6 1-13 0-19 4l-4 6c-2 6-6 5-6 8-2 4 2 9 1 12l1 1c4-6 7-13 13-17 4-3 7-5 17-6 8 0 12-3 18-4 8-2 6-6 11-7-2-1-3-2-7-1z"/><path d="M1027 664c8-6 19-26 60-3 24 14 10 54 30 49 27-7 48 24 21 49s-38 20-66 6c-10-4-16-8-31-6s-20 24-49 27-74-30-52-49 25-28 19-46 28-41 43-27 19 4 25 0z" fill="#45dbe2"/><path d="M1087 754c-11 0-42-7-50-5s-31 7-38 20-54 5-56-12 6 2 18-20c11-20 12-27 12-33a6 6 0 01-4-3c-1-5 4-10 12-13s16-1 17 3a6 6 0 01-1 5h1c11 0 39-19 46-15s-19 11-10 18 32-7 38 0-19 7-13 13 23 2 26 6-6 5-2 9 9-3 14 1-23 6-18 12 20 14 8 14zm44-14c-1-5-10-7-20-4s-15 10-13 15 10 7 19 3 16-9 14-14z" transform="translate(1 1)" fill="url(#a)"/><path class="p" d="M1068 729c3-6 0-12-6-15s-14 0-15 3c0 2 8 5 8 5-1 1-8-3-9-3-1 1-2 10 6 15a11 11 0 0016-5z"/><path class="q" d="M1046 720a33 33 0 014 1l5 2c1-1 0-2-4-3a24 24 0 01-3-3c1-3 9-5 14-3 5 3 8 9 5 15a11 11 0 01-6 5 10 10 0 01-9-1c-7-4-7-12-6-13z"/><path class="r" d="M1047 721l2 1c5 2 6 2 7 1l-4-4a36 36 0 01-4-2c2-2 9-5 14-2 5 2 7 8 5 13a10 10 0 01-6 6 10 10 0 01-8-1c-7-4-7-10-6-12z"/><path class="s" d="M1051 717c2-2 7-3 10-1 5 2 7 8 5 12a9 9 0 01-6 4 8 8 0 01-7 0 11 11 0 01-5-9h1c5 2 6 3 8 1 1-3-1-4-5-6l-1-1z"/><path class="p" d="M1073 695c3-4 2-9-1-12-4-2-10-2-11 1l4 4-5-3c-1 0-3 6 2 10a8 8 0 0011 0z"/><path class="q" d="M1060 685l2 2c3 2 3 2 4 1v1l-3-3a17 17 0 01-2-2c2-2 7-3 10 0a8 8 0 012 10 8 8 0 01-5 3 7 7 0 01-6-2c-4-4-3-9-2-10z"/><path class="r" d="M1060 686l2 1 4 2c1-1 0-2-2-4l-2-1c1-2 6-2 9 0a7 7 0 012 10 7 7 0 01-5 3 7 7 0 01-6-2c-3-4-3-8-2-9z"/><path class="s" d="M1063 684c2-1 6-1 8 1a6 6 0 011 9 6 6 0 01-5 2 6 6 0 01-4-2 8 8 0 01-2-7v1l5 2v-1h1c1-1-1-2-3-4a13 13 0 01-1-1z"/><path class="p" d="M993 739a12 12 0 0016 0c5-4 4-13 1-15-1 0-6 6-7 5l6-7c-1-1-9-5-16 1-5 4-4 11 0 16z"/><path class="q" d="M1008 722a35 35 0 01-2 3l-3 4 4-2a22 22 0 013-3c2 3 3 11-1 15a11 11 0 01-15 0 12 12 0 01-4-9 9 9 0 013-7c7-5 14-2 15-1z"/><path class="r" d="M1007 722l-2 2c-3 4-4 5-3 6s2 0 5-3a36 36 0 013-2c2 2 2 10-1 13a10 10 0 01-15 0 11 11 0 01-3-8 9 9 0 013-7 11 11 0 0113-1z"/><path class="s" d="M1010 727c0 3 0 8-2 10a9 9 0 01-13 0 10 10 0 01-3-6 8 8 0 013-6 10 10 0 0110-2h-1c-3 4-4 5-3 7v1c2 2 4 0 7-3z"/><path class="p" d="M1007 703a8 8 0 00-6 10c1 4 7 7 9 6 1-1-1-6-1-6l3 5c1 1 6-3 5-9-1-5-6-7-10-6z"/><path class="q" d="M1012 718a21 21 0 01-1-2l-2-4v4a15 15 0 011 2c-2 1-8-2-9-5a8 8 0 016-9 8 8 0 016 0 7 7 0 013 5c1 5-3 9-4 9z"/><path class="r" d="M1012 717l-1-2-2-3v6c-2 1-6-2-7-5a7 7 0 015-9 8 8 0 016 1 6 6 0 013 4 8 8 0 01-4 8z"/><path class="s" d="M1008 717c-2 0-5-2-5-4a6 6 0 014-8 7 7 0 015 0 5 5 0 013 4 7 7 0 01-2 7l-1-1c-1-3-1-4-3-4-2 1-2 2-1 5v1z"/><path class="t" d="M1011 727a8 8 0 01-5-3 7 7 0 0110 1 8 8 0 01-5 2zM1001 726a8 8 0 01-5-3 7 7 0 0110 1 8 8 0 01-5 2z"/><path class="t" d="M1004 729a8 8 0 012-5 7 7 0 010 10 8 8 0 01-2-5zM1004 719a8 8 0 013-5 7 7 0 01-1 10 8 8 0 01-2-5z"/><path class="t" d="M1012 722a8 8 0 01-6 2 8 8 0 013-5c2-2 5-2 5-2a8 8 0 01-2 5zM1004 729a8 8 0 01-5 1 7 7 0 017-6 8 8 0 01-2 5z"/><path class="t" d="M1008 729a8 8 0 01-2-5 7 7 0 017 7 8 8 0 01-5-2zM1001 722a8 8 0 01-1-6 7 7 0 016 8 8 8 0 01-5-2z"/><path class="u" d="M1011 725a7 7 0 01-5-1 6 6 0 019-3 7 7 0 01-4 4zM1002 727a8 8 0 01-5-1 6 6 0 019-2 7 7 0 01-4 3z"/><path class="u" d="M1006 729a7 7 0 010-5 6 6 0 11-1 5z"/><path class="u" d="M1003 720a7 7 0 011-5 6 6 0 11-1 5z"/><path class="v" d="M1010 721a3 3 0 111-5 7 7 0 01-1 5zM1006 729a3 3 0 110-5 7 7 0 010 5z"/><path class="v" d="M1009 728a7 7 0 01-3-4 6 6 0 018 4 7 7 0 01-5 0zM1001 723a7 7 0 01-3-4 6 6 0 018 5 7 7 0 01-5-1z"/><path class="w" d="M1007 723a2 2 0 01-1 1 2 2 0 010-1 2 2 0 011-1 2 2 0 010 1zM1006 725a2 2 0 01-1 0 1 1 0 011-1 2 2 0 010 1z"/><path class="w" d="M1007 725a2 2 0 01-1-1 1 1 0 012 1 2 2 0 01-1 0zM1005 724a2 2 0 010-1 1 1 0 011 1 2 2 0 01-1 0z"/><path class="w" d="M1007 724a2 2 0 01-1 0 1 1 0 012-1 2 2 0 01-1 1z"/><path class="w" d="M1006 725a2 2 0 01-2-1 1 1 0 012 0 2 2 0 010 1z"/><path class="w" d="M1006 725a2 2 0 010-1 1 1 0 011 1 1 1 0 010 1 2 2 0 01-1-1zM1006 723a2 2 0 010-1 1 1 0 010 2 2 2 0 010-1z"/><path class="x" d="M1007 723a1 1 0 01-1 1 1 1 0 011-1zM1006 724a1 1 0 010 1 1 1 0 010-1z"/><path class="x" d="M1007 724a1 1 0 01-1 0 1 1 0 011 0zM1006 724a1 1 0 01-1-1 1 1 0 011 1z"/><path class="x" d="M1007 724a1 1 0 01-1 0 1 1 0 011-1 1 1 0 010 1zM1006 724a1 1 0 01-1 0 1 1 0 011 0z"/><path class="x" d="M1006 724a1 1 0 011 1 1 1 0 01-1-1zM1006 723z"/><path class="p" d="M939 770c4-4 12-8 12-8s-4 8-8 11a21 21 0 01-9 5 21 21 0 015-8z"/><path class="q" d="M938 772c7-9 2 1 2 1s9-6 1 2a13 13 0 01-6 3 16 16 0 013-6z"/><path class="r" d="M938 772c6-7 1 2 1 2s9-6 1 1a11 11 0 01-5 3 14 14 0 013-6z"/><path class="q" d="M940 772l-1 1h2a72 72 0 00-6 5 42 42 0 005-6z"/><path class="p" d="M937 764c5-2 13-2 13-2s-6 5-11 7a21 21 0 01-10 1 21 21 0 018-6z"/><path class="q" d="M934 766c10-5 2 1 2 1s11-1 0 2a13 13 0 01-7 1 16 16 0 015-4z"/><path class="r" d="M934 766c9-5 0 2 0 2s11-2 2 1a11 11 0 01-6 0 14 14 0 014-3z"/><path class="q" d="M936 766l-1 1h2a67 67 0 00-7 3h-1l7-4z"/><path class="p" d="M946 775c0-5 3-13 3-13v14a29 29 0 01-3 9 29 29 0 010-10z"/><path class="q" d="M946 778c0-11 1-1 1-1s3-10 1 1a18 18 0 01-2 6 22 22 0 010-6z"/><path class="r" d="M946 778c0-9 1 1 1 1s3-11 1 0a15 15 0 01-1 5 19 19 0 01-1-6z"/><path class="q" d="M947 777v1l1-1-1 7h-1a60 60 0 001-7z"/><path class="p" d="M940 758l7 4-8 2c-3 0-5-4-5-4s3-2 6-2z"/><path class="q" d="M938 759c7 0 0 2 0 2s6 4-1 2a6 6 0 01-3-3 8 8 0 014-1z"/><path class="r" d="M938 759c6 0 0 2 0 2s5 3 0 1a5 5 0 01-3-2 7 7 0 013-1z"/><path class="q" d="M939 760l-1 1h1a24 24 0 00-5-1 14 14 0 005 0z"/><path class="p" d="M949 771v-9l5 7c1 3-1 6-1 6s-4-1-4-4z"/><path class="q" d="M949 772c-2-6 2-1 2-1s1-7 2 0a6 6 0 01-1 4 8 8 0 01-3-3z"/><path class="r" d="M950 772c-3-5 2 0 2 0s0-7 1-1a6 6 0 01-1 4 7 7 0 01-2-3z"/><path class="q" d="M951 771l1-1a24 24 0 000 5 14 14 0 00-1-4z"/><path class="p" d="M948 755v8l-4-7a11 11 0 011-6 11 11 0 013 5z"/><path class="q" d="M947 753c2 7-1 1-1 1s-1 7-2 0a7 7 0 011-4 9 9 0 012 3z"/><path class="r" d="M947 753c2 6-1 0-1 0s-1 7-2 1a6 6 0 011-4 7 7 0 012 3z"/><path class="q" d="M946 754c0 1 0 0 0 0v1a34 34 0 00-1-5 20 20 0 001 4z"/><path class="p" d="M941 755l8 8s-7-3-10-6a20 20 0 01-5-6 20 20 0 017 4z"/><path class="q" d="M939 753c7 6 0 2 0 2s5 7-2 1a12 12 0 01-3-5 15 15 0 015 2z"/><path class="r" d="M939 754c6 4-1 0-1 0s5 7-1 1a10 10 0 01-2-3 13 13 0 014 2z"/><path class="q" d="M939 755h-1l1 1-5-5a41 41 0 005 4z"/><path class="y" d="M939 766a10 10 0 004 0 14 14 0 002-1 13 13 0 00-1 1 11 11 0 00-3 5 10 10 0 005-3 17 17 0 002-2 28 28 0 00-1 3 15 15 0 000 5 15 15 0 002-5v-2a5 5 0 001 2 5 5 0 001-3 9 9 0 00-2-3v-1 1-1h-1a13 13 0 000-3 5 5 0 00-1-3 6 6 0 00-1 3 9 9 0 001 2 20 20 0 00-2-2 9 9 0 00-4-2 10 10 0 003 3v1a4 4 0 00-3 0 5 5 0 002 2 10 10 0 00-4 3zm9-3zm0 0z"/><path class="x" d="M952 761c-2 2-4 3-5 2s-1-3 1-5 3-2 4-1 1 3 0 4z"/><path class="x" d="M951 761c-1 2-3 3-4 2s-1-3 1-5 3-2 4-1 1 3-1 4z"/><path class="x" d="M952 759a2 2 0 110-2 2 2 0 010 2zM951 758l3-4-3 4z"/><path class="p" d="M964 787c-4-6-12-12-12-12s3 10 7 15a24 24 0 008 7 24 24 0 00-3-10z"/><path class="q" d="M965 790c-6-12-3 0-3 0s-9-8-1 2a15 15 0 006 5 18 18 0 00-2-7z"/><path class="r" d="M965 790c-5-10-2 2-2 2s-9-9-2 0a13 13 0 006 4 16 16 0 00-2-6z"/><path class="q" d="M963 789v2s-1-2-2-1a79 79 0 016 6l-4-7z"/><path class="p" d="M968 781c-6-4-15-6-15-6s6 8 11 11a24 24 0 0012 3 24 24 0 00-8-8z"/><path class="q" d="M970 783c-10-8-2 1-2 1s-12-3 0 3a15 15 0 007 2 18 18 0 00-5-6z"/><path class="r" d="M970 783c-9-7 0 2 0 2s-12-4-2 2a13 13 0 006 1 16 16 0 00-4-5z"/><path class="q" d="M968 783l1 2-2-1a80 80 0 018 4l-7-5z"/><path class="p" d="M955 792v-16l-4 15a33 33 0 001 12 33 33 0 003-11z"/><path class="q" d="M955 795c2-13-2-1-2-1s-1-13-2 1a20 20 0 001 7 25 25 0 003-7z"/><path class="r" d="M955 795c1-11-2 0-2 0s-1-12-1 0a17 17 0 001 6 21 21 0 002-6z"/><path class="q" d="M954 793l-1 1v-1l-1 8h1a69 69 0 011-8z"/><path class="p" d="M965 774c-4 0-9 3-9 3s5 3 9 3 7-3 7-3-3-3-7-3z"/><path class="q" d="M967 774c-7-1-1 3-1 3s-7 3 1 2a7 7 0 004-2 9 9 0 00-4-3z"/><path class="r" d="M967 774c-6-1 0 3 0 3s-7 2 0 2a6 6 0 004-2 8 8 0 00-4-3z"/><path class="q" d="M966 776l1 1h-1a28 28 0 015 0v-1h-5z"/><path class="p" d="M953 786c2-4 1-10 1-10s-5 4-6 7v7s4-1 5-4z"/><path class="q" d="M952 787c4-6-2-2-2-2s0-8-3 0a7 7 0 001 5 9 9 0 004-3z"/><path class="r" d="M952 787c3-5-3-1-3-1s1-7-1-1a6 6 0 000 4 8 8 0 004-2z"/><path class="q" d="M951 785l-1 1-1-1a29 29 0 01-1 5l3-5z"/><path class="p" d="M957 768l-2 9c1 0 5-4 6-7a13 13 0 000-7 12 12 0 00-4 5z"/><path class="q" d="M958 767c-4 6 1 1 1 1s0 7 2 0a8 8 0 000-5 10 10 0 00-3 4z"/><path class="r" d="M958 766c-3 6 2 1 2 1s-1 7 1 1a7 7 0 000-4 9 9 0 00-3 2z"/><path class="q" d="M959 768v-1l1 1a39 39 0 011-5 23 23 0 01-2 5z"/><path class="p" d="M965 769l-11 8 13-4a23 23 0 007-7 23 23 0 00-9 3z"/><path class="q" d="M967 768c-9 5 0 2 0 2s-8 7 2 1a14 14 0 004-4 18 18 0 00-6 1z"/><path class="r" d="M967 768c-8 4 1 1 1 1s-7 7 1 2a12 12 0 003-4 15 15 0 00-5 1z"/><path class="q" d="M966 770h2l-1 1 6-4a47 47 0 01-7 3z"/><path class="y" d="M961 779a10 10 0 00-1-1 5 5 0 003-1 5 5 0 00-3-2h1a12 12 0 003-3 11 11 0 00-4 1 22 22 0 00-3 2 11 11 0 001-2 7 7 0 000-3 6 6 0 00-2 2 15 15 0 00-1 4h-1v1-1 1a11 11 0 00-3 3 5 5 0 000 4 6 6 0 003-2 20 20 0 00-1 2 17 17 0 001 6 17 17 0 001-6 31 31 0 000-4 20 20 0 002 3 11 11 0 004 4 12 12 0 00-2-5 17 17 0 00-1-2 16 16 0 002 1 11 11 0 005 2 12 12 0 00-4-4zm-6-2zm0 0z"/><path class="x" d="M951 775c2 2 4 3 5 2s2-3 0-5-3-4-5-3-1 4 0 6z"/><path class="x" d="M952 775c1 2 3 3 4 2s1-3 0-5-3-3-4-2-1 3 0 5z"/><path class="x" d="M951 772a2 2 0 101-2 2 2 0 00-1 2z"/><path class="x" d="M952 771l-2-5 3 5h-1zM951 781l4-2c0-1-1-3-3-3s-4 0-4 2 1 2 3 3z"/><path class="x" d="M951 780c2 1 4 0 4-1l-3-3c-2-1-4 1-4 2l3 2z"/><path class="x" d="M949 780a1 1 0 10-1-2 2 2 0 001 2z"/><path class="x" d="M949 778l-4-1 4 1c1 0 0 0 0 0z"/><path class="f" d="M768 428c14-13 31-6 68 11s49 17 60 18 43 29 61 32 22 5 22 5l5 12s-5 11-46 14-62-4-93 15-58 19-94 12-53-9-60-12 15-15 50-11 46-4 41-8-14 2-38 0-64-17-64-17 74-58 88-71z"/><path d="M957 489c-18-3-51-30-61-31s-23-1-60-19l-20-9c2 1 34 19 43 26 10 7 11 17 28 21a43 43 0 0129 25c2 8-25 5-43 12s-33 24-49 31a108 108 0 0021-10c31-19 51-13 93-15s46-14 46-14l-5-12-22-5z" style="mix-blend-mode:multiply" fill="#7ebb15"/><path class="aa" d="M776 491c14-4-7-6-20-11s-18-11-1-11 15-6 10-10-9-15 4-15 10-12 10-16 4-7 5-7a24 24 0 00-16 7c-14 13-88 71-88 71s19-8 34-8 48 4 62 0zM799 525c1-12-15-12-27-10l10 1c5 4-6 11-41 8-20-2-36 1-45 4a242 242 0 0150 3c27 5 51 6 53-6z"/><path class="ab" d="M1131 542l50-4 30 12h12l79 30 57-11 22-13 16-8v-6l-42-33-49-19-39-18-22-3-34 17-34 24-33 10-13 14v8z"/><path class="ac" d="M1131 536l50-4 30 12h12l79 30 57-11 22-13 16-8-2-8-40-31-49-19-39-18-22-3-34 17-34 24-33 10-13 14v8z"/><path class="ab" d="M1177 504l12 11 31 3 40 12 23 12 40-3 29-16 21-6 1-14-10-9-63-20-27-11-31-4-36 14-16 13-14 7v11z"/><path class="ac" d="M1177 498l12 11 31 3 40 12 23 12 40-3 29-16 21-6 1-8-10-15-63-21-27-11-31-3-36 14-16 13-14 7v11z"/><path class="ad" d="M1286 509l-20-7-15 4v2l12 6 19 3 7 5h7l10-3 1-5-13-4-8-1zM1235 472l-15 3-5 4 1 5 8 1 3-4 7-2 3-4-2-3z"/><path class="ab" d="M1246 485l3-19 13-14 2-8 30-3 33 5 28 1 6 7 2 6 7 37-7 4-13 2-28-4-34 4-22-10-17-3-3-5z"/><path class="ae" d="M1264 444l1 10 31 15 29-10 8 4 12-4 4-3h3l9-2-6-7-28-1-33-5-30 3z"/><path fill="#898989" d="M1325 459l-29 10 2 12-2 6v7l-4 7-4 2 34-4-2-18 2-7-3-2 3 1 3-10v-4z"/><path class="ae" d="M1351 499l-2-5-10-3-3-6-2-7 6-9-9 8-1 15-8 7 28 4 13-2-12-2z"/><path class="ag" d="M1266 493l4-10 1-8 3-3 1-4h1l1 8v7l1 4-1 4 1 7-12-5z"/><path class="ae" d="M1259 462l1-4 5-4-1-10-2 8-13 14-3 19 4-17 9-6z"/><path class="ah" d="M1282 455l13 7 11-2 8-1 1-3-8-6-9 2-6-5-9 3-1 5z"/><path class="ad" d="M1305 450l-7 2-6-5-9 3-1 5 1 1 2-3 7-2 5 1 8-2z"/><path class="ab" d="M1279 509l-20-7-15 4v2l12 6 19 3 14 5 9-3 2-5v-2l-13-2-8-1z"/><path class="ah" d="M1279 507l-20-7-15 4v2l12 6 19 3 14 5 9-3 2-5-13-4-8-1z"/><path class="ab" d="M1234 473l-17 1-6 3v2l2 4 7 1 3-3 7-2 4-4v-2z"/><path class="ah" d="M1231 470l-14 2-6 5 2 5 7 1 3-4 7-2 4-4-3-3z"/><path class="ab" d="M1348 533l-20 12-9 3v3l10 5 22 2 12-10 9-3 3-10v-3l-11 1-8 4-7-1-1-3z"/><path class="ah" d="M1347 531l-19 11-9 2v4l10 5 22 2 12-11 9-2 3-10-11-3-8 5-7-2-2-1z"/><path class="ad" d="M1220 512v6l29 9-29-8-31-4v-6zM1283 536v6l34 1 11-1 11-6 10 1 7-3 8-5 9-7h7l-7-5 1-14-1 8-21 6-29 16-40 3zM1386 534h-11v-2l-3 10-9 2-12 11v3l10-4 7-2 7-4 7-9 4-3v-2zM1288 503l29-2 18 2h15l-28-4-2-18 2-7-3-2 3 1 3-10v-4l-29 10 2 12-2 6v7l-4 7-4 2z"/><path style="mix-blend-mode:multiply" fill="#c6c6c6" d="M1333 463h8l-1 6-6 9 2 7 3 6 10 3 2 5 12 2h10l-3-4-7-37-2-6-9 2h-3l-4 3-12 4z"/><path class="ad" d="M1292 447l-5 5v4l5 4-10-5 1-5 9-3z"/><path class="ag" d="M1259 462v9l2 5v6l1 10h1l2-12v-9l3-5 1-4 3-4 5 1-12-5-5 4-1 4z"/><path class="ad" d="M1211 544v6l16 1 2-5-6-2h-12z"/><path class="aj" d="M552 287l1-2 2 1 3 1 1 1v2l-7-3z"/><path class="ak" d="M574 297l2-2h1l3 2 2 1-1 2-7-3zM600 309l1-2h2l3 2 2 1-1 2-7-3z"/><path class="aj" d="M615 342l2 1-1 1-1 3-1 2-2-1 3-6z"/><path stroke-width="1.3" fill="#3f2b0f" stroke="#1d150c" stroke-miterlimit="10" d="M603 366l3 2-1 1-1 4-1 2-3-2 3-7z"/><path class="ak" d="M592 391l2 2v1l-2 3-1 2-2-1 3-7z"/><path class="aj" d="M496 352l-2-1v-1l2-3 1-2 2 1-3 6z"/><path class="ak" d="M506 330l-3-2 1-1 1-3 1-2 3 1-3 7zM518 304l-3-1 1-2 2-3v-1l3 1-3 6z"/><path stroke-width="1.4" fill="#3f2b0f" stroke="#1d150c" stroke-miterlimit="10" d="M561 406l-2 3-2-1-3-1-2-1 1-4 8 4z"/><path class="ak" d="M537 395l-2 2h-1l-3-2-2-1 1-2 7 3zM513 383l-2 3-1-1-3-1-2-1 1-3 7 3z"/><path class="an" d="M489 370l-1 2v1l3 1 1 1 2 1h1l2-1 2-4-5-3-5 2z"/><path class="an" d="M498 372l-1 1v1l-1 1v1l4 2 3 2h1l2-1 1-3a15 15 0 00-1-2l-7-3zM515 379l-1 2v1l-1 1 1 1 2 2 1 1 3 1h1l2-1 2-4-9-4h-1z"/><path class="an" d="M506 375l-1 3v3l3 1 1 1h4l2-4-6-4h-3zM540 391l-1 2v2l-1 1 2 1 5 2h1l1-3 1-1-5-5-3 1z"/><path class="an" d="M530 387l-1 4v1l2 1 1 1 3 1h4v-2l2-2-7-4h-4zM524 384l-1 1-1 2v1l1 1 1 1 2 1 2 1a11 11 0 001-2l1-3-2-2zM554 397l-2 4 1 1v1h1l2 1 3 2h2l1-1 1-1 1-3-6-4h-4z"/><path class="an" d="M563 402l-1 3v2h1l2 1 2 1 4 2h1l2 1 1-1 1-1 1-3-9-5h-5zM547 394a17 17 0 01-1 2l-1 2v1l2 1h1l2 2h2a11 11 0 000-1l2-4-3-2z"/><path class="ao" d="M580 414h-2l-2-1h-1v-1l1-2v-3h2z"/><path class="an" d="M501 367l-1 3-1 2v1l3 1h1l2 1h3l2-5-7-3h-2z"/><path class="an" d="M509 371l-1 1v2l-1 1v1l4 2 3 1h3l1-4a15 15 0 00-1-1l-7-4zM538 384l-2 2v2l-1 1 2 1 7 3h3v-3l1-1-7-5h-3z"/><path class="an" d="M526 378l-2 5v1l1 1h1l2 1 3 2h5v-2l2-2-8-5-4-1z"/><path class="an" d="M518 374l-2 2-1 2 1 1 2 2h1l2 1 2 1h1a8 8 0 000-1l2-4-4-2zM495 369v1l1 1h2l1 1 1-1 2-4h-1l-6 2zM555 392l-1 1v2l-1 1 1 1 3 2 1 1 2 1 2-1h1l2-4-8-4h-2z"/><path class="an" d="M564 396l-1 2-1 2v1l2 1 2 1h1l2 1 2 1h2l2-5-7-4h-4zM547 388l-1 3-1 2v1l3 1h1l2 1h3l2-5-7-4-2 1z"/><path class="an" d="M577 407h-2l-2-1h-1v-1l1-2v-2l1-1h1zM508 364l-2 3v3l3 1h1l2 1h2l2-5-6-4-2 1z"/><path class="an" d="M516 368l-1 1-1 2v2l3 2 4 1h2l1-4a15 15 0 000-2l-8-3zM544 381l-1 2-1 2v1l2 1 6 3v-1l1 1h1v-3l1-2-6-4h-3z"/><path class="an" d="M532 376l-2 4 1 1v1h2l2 1 3 2h4l1-2 1-2-8-5h-4z"/><path class="an" d="M524 372a16 16 0 01-1 1l-1 2v1l2 2h1l2 1 3 1a9 9 0 001-1l1-3-3-3zM571 394l-1 3-1 1-1 1-1-1a6 6 0 01-2-1l-1-1h-1l-1-1a6 6 0 010-1l2-3h5z"/><path class="an" d="M551 389v1l3 2 2 1 3 1 1 1h2v-1l2-4-5-3-5-2-2 2-1 2zM575 400l-1 1h-1l-2-2-1-1v-1l1-3h2l3 6h-1zM502 366v1l1 1h1l1 1h1l1-1 2-4h-1l-6 2zM510 363l-1 2 1 1 2 1 2 1h4l2-4-5-3-5 2z"/><path class="an" d="M519 364v2l-1 1-1 1v1l4 2 3 1 1 1 2-1 1-3a15 15 0 00-1-2l-7-4zM536 372l-1 1v1l-1 2 1 1 2 2h1l3 2 1-1h2l2-4-8-4h-2z"/><path class="an" d="M528 368l-2 3v2l3 1 1 1 2 1h2l2-5-6-4-2 1zM573 394h-2l-2-1h-1l-1-1 1-1v-3h1l1-2 3 8z"/><path class="an" d="M562 384l-2 2v1l-1 1 2 1 5 3 1-1 1-2 1-2-5-4-2 1z"/><path class="an" d="M552 380l-2 3v2h2l1 1 3 2h3l1-1v-1l2-3-7-4-3 1z"/><path class="an" d="M545 376l-1 2-1 2v1l1 1h1l2 2h2a11 11 0 001-1l2-3-3-3zM531 364l-1 1-1 1v3l3 2h1l3 2 1-1h1l3-4-9-4h-1z"/><path class="an" d="M540 368l-1 2-1 2v1l1 1 3 1h1l1 1 3 1h2l2-5-8-4h-3z"/><path class="an" d="M550 373l-1 2-1 2v1l3 1 1 1 2 1h1l2-1 2-4-7-4-2 1zM522 360l-1 3-1 2h1l3 1 1 1 1 1h3l2-5-6-4-3 1z"/><path class="an" d="M558 376l-1 2v1l-1 1v1l4 2 3 2h1l2-1 1-3a13 13 0 00-1-2l-7-3z"/><path class="an" d="M570 387h-1l-1-1h-2l-1-1 1-2v-2l1-1h1zM516 361v2l1 1h1l1 1h1l1-1 2-5h-1l-6 2zM523 359v1l2 1 2 1h2l2-5-1-1-7 3z"/><path class="an" d="M530 358v1l-1 1-1 2 1 1 2 1 1 1 2 1 1-1h1l2-4-6-3h-2z"/><path class="an" d="M537 361l-1 2-1 2v1h2l2 2h1l2 1 2 1h2l2-5-7-4h-4z"/><path class="an" d="M547 366l-1 2-1 2 1 1 3 1 1 1h1l2 1 1-1 2-4-6-4-3 1z"/><path class="an" d="M556 369l-1 2-1 1v2l3 2 4 2h1l1-1 1-3a15 15 0 000-2l-8-4z"/><path class="an" d="M568 380h-1l-2-1h-1l-1-1v-2l1-2v-1h2zM565 373h-1l-2-1h-2v-2l1-3 2-2 3 8z"/><path class="an" d="M554 363l-1 2-1 1v1l1 1 5 3 1-1h1v-2l2-2-6-4-2 1z"/><path class="an" d="M544 359l-2 3 1 1v1h1l2 1 2 2h3l1-1 1-1 1-3-7-4-3 1z"/><path class="an" d="M537 355l-1 2-1 2v1l2 1 1 1 1 1h3a10 10 0 000-1l2-4-3-2z"/><path class="an" d="M530 356v1l1 2 2 1h1l1-1 1-2 1-2v-2l-7 3zM558 360l-1 2-1 2h-1l-1-1a6 6 0 01-2 0 5 5 0 00-1-1l-1-1h-1a7 7 0 010-1l2-4h5z"/><path class="an" d="M541 356v1l2 1 2 2h1l2 1h1v-1l2-4-4-3-3-1-2 2-1 2z"/><path class="an" d="M536 354l1 1v1h2l1 1h1v-1l2-4-1-1-6 3zM562 366l-1 1-1-1-2-1-1-1v-1l1-3 2-1 3 6-1 1zM556 358h-3l-3-1-2-2v-2l1-3h2l7 4z"/><path class="an" d="M548 354h-3l-2-1-1-2 8-3-1 3-1 3zM560 360l-1 1-3-2-1-1 1-3 1-1 1-1 2 6v1z"/><path class="an" d="M558 353l-1 1-3-2h-1l1-2 1-3 2 3 1 3z"/><path class="an" d="M549 349l1 1 2 2h1l1-1 1-3v-2l-5 2-1 1zM623 322l1-2-1-1-3-1-1-1h-1l-1-1-2 1-2 4 5 3 5-2z"/><path class="an" d="M614 321v-2l1-1v-2l-3-2-3-2h-2l-1 1-1 3a15 15 0 000 2l8 3zM597 313v-1l1-2 1-1-1-1-3-2-1-1-2-1-2 1h-1l-2 4 8 4h2z"/><path class="an" d="M605 317l1-3 1-2v-1l-3-1h-1l-2-1h-3l-2 5 7 4 2-1zM571 301l1-2 1-1v-1l-1-1-5-3-1 1h-1v2l-2 2 6 4 2-1zM581 305l2-3v-1l-1-1-1-1h-2l-2-2h-3l-1 1v1l-2 3 7 4 3-1z"/><path class="an" d="M588 309l1-2 1-2v-1l-2-1-1-1-1-1-2-1-1 1a11 11 0 000 1l-2 3 3 3zM558 295l1-4v-1l-2-1-1-1-3-1-1-1-2 1-1 1-2 3 7 4h4z"/><path class="an" d="M548 291l2-4-1-1v-1l-2-1-2-1-4-2h-4l-1 1-2 3 10 5 4 1zM565 298a17 17 0 011-1l1-2-1-2-1-1h-1l-2-1-2-1a11 11 0 00-1 1l-1 4 2 2z"/><path class="ao" d="M532 278h1l1 1h2l1 1-1 2v2l-1 1h-1z"/><path class="an" d="M611 325l1-3 1-2h-1l-3-1-1-1-1-1h-3l-2 5 6 4 3-1z"/><path class="an" d="M603 321v-1l1-2v-2l-3-1-3-2h-3l-1 4a15 15 0 000 2l8 3zM574 308l1-2 1-1v-2l-2-1-7-3h-2v3l-2 1 8 6 3-1z"/><path class="an" d="M585 315l3-6-1-1-2-1-1-1-4-2h-3l-1 1v1l-2 2 8 5 3 2z"/><path class="an" d="M594 319l1-3 1-2v-1l-2-1-1-1-2-1-2-1h-1a8 8 0 000 1l-3 5 4 1zM616 323v-1h-1l-1-1-1-1h-1v1l-2 4v1l6-3zM556 300l1-1 1-1 1-2-1-1-3-1-1-1-3-1h-2l-2 4 8 4h1z"/><path class="an" d="M547 296l1-2 1-2v-1h-1l-3-2h-1l-1-1-2-1h-2l-3 5 8 4h3zM565 304l1-2 1-3h-1l-2-1-2-1-1-1h-1l-2 1-2 4 7 4 2-1z"/><path class="an" d="M534 285h1l1 1h2l1 1v2l-1 2v1h-2zM604 328l1-2 1-3-3-1-1-1-2-1h-3l-2 5 7 4 2-1z"/><path class="an" d="M596 324l1-1v-2l1-1v-1l-3-1-4-2h-3l-1 4a15 15 0 001 2l7 3zM568 311l1-2v-1l1-2-2-1-6-2h-2v3l-2 1 7 5 3-1z"/><path class="an" d="M580 316l1-3v-2h-1l-1-1-2-1-3-2h-4l-1 1v1l-2 2 8 5h5z"/><path class="an" d="M588 320a14 14 0 011-1l1-2-1-1-2-1-1-1-2-1-2-1h-1a6 6 0 000 1l-2 3 4 3zM540 298l1-2 1-2h1l2 1a6 6 0 011 0 4 4 0 001 1h1l1 1a6 6 0 010 1l-1 4h-5z"/><path class="an" d="M560 303v-1l-2-1-3-2-2-1-2-1h-1l-1 1-1 4 5 4 5 1 1-1 1-3zM536 292l1-1 2 1 2 1 1 1v1l-2 3-2 1-2-6v-1zM610 326v-1h-1l-2-1-1-1-1 1-2 4 1 1 6-3zM602 329l1-2-1-1-3-1h-1l-1-1h-3l-2 5 4 2 6-2z"/><path class="an" d="M593 328v-1l1-2v-2l-3-2-3-1h-3l-1 4a15 15 0 000 2l8 3zM576 320v-1l1-1 1-2-1-1-3-1-1-1-2-1h-3l-2 4 8 4h2z"/><path class="an" d="M584 324l1-2 1-3h-1l-2-1-2-1-1-1h-1l-2 1-2 4 7 4 2-1zM539 298h1l2 1h2v3l-1 2v1l-2 1-3-8z"/><path class="an" d="M550 308l1-1 1-2v-1l-1-1-5-2h-2v3l-2 1 6 4 2-1z"/><path class="an" d="M560 313l2-4-1-1v-1h-1l-2-1-2-1-2-1h-1l-1 1-1 1-1 3 7 4h3z"/><path class="an" d="M567 316l1-1 1-3v-1l-2-1h-1l-1-1-2-1h-1a11 11 0 000 1l-2 4 3 2zM581 328l1-1v-1l1-2-1-1-2-1-1-1-3-1h-3l-2 4 8 4h2z"/><path class="an" d="M572 324l1-2 1-2v-1h-1l-3-2h-1l-2-1-2-1h-2l-2 5 7 4h4z"/><path class="an" d="M562 319l1-2 1-2-1-1-3-1-1-1h-4l-2 4 6 4 3-1zM589 332l1-2 1-3-3-1-1-1-2-1h-1l-2 1-2 4 7 4 2-1z"/><path class="an" d="M554 316v-1l1-2v-2l-3-2-3-1-2-1-1 1-1 3a13 13 0 000 2l8 4z"/><path class="an" d="M542 305l2 1h1l1 1 1 1-1 1-1 2v1h-2zM596 331v-2h-1l-2-1-1-1h-1v1l-3 5 1 1 7-3z"/><path class="an" d="M589 333v-1l-3-1-2-1-1 1-2 4 1 1 7-3zM581 335l1-2v-1l1-2v-1l-2-1-1-1h-4l-2 5 6 3h1zM574 331l1-2 1-2v-1h-1l-3-1-1-1-1-1-2-1h-2l-3 5 8 5 3-1z"/><path class="an" d="M564 327l1-3 1-2v-1l-3-1h-1l-2-1h-3l-2 5 7 4 2-1z"/><path class="an" d="M556 323l1-1 1-2v-2l-3-2-4-1h-3l-1 4a15 15 0 001 2l7 3z"/><path class="an" d="M544 312h1l1 1 2 1h1v1l-1 2v3l-2-1z"/><path class="an" d="M547 319h1l2 1h2v3l-1 2-1 1-1 1-3-8z"/><path class="an" d="M558 329l1-1 1-2v-1l-1-1-6-2h-1l-1 3-1 1 5 4 3-1z"/><path class="an" d="M568 334l1-4v-2h-2l-1-1-3-1-1-1h-2v1l-1 1-1 3 6 4h4z"/><path class="an" d="M575 337l1-1 1-3-1-1-1-1h-1l-2-1-2-1a9 9 0 00-1 1l-1 4 2 2z"/><path class="an" d="M582 336v-1l-2-1-2-1-1-1v2l-1 2-1 1v2l7-3zM553 332l2-2v-2h1l2 1a6 6 0 011 0 5 5 0 001 1h1l1 1a7 7 0 011 1l-2 4h-5z"/><path class="an" d="M570 336v-1l-1-1-2-1-2-1-1-1-1 1-2 4 3 3 4 1 1-2 1-2z"/><path class="an" d="M575 338v-1h-1l-1-1-1-1h-1l-1 1-2 4 1 1 6-3zM549 326h3l2 1 1 1v2l-2 2-1 1-3-6v-1zM556 335l2-1h1l3 2 2 1v2l-1 3-2 1-7-5z"/><path class="an" d="M564 339l1-1 2 1h2v2l-7 3 1-3 1-2zM552 332h1l3 1v2l-1 2v2h-1l-3-6 1-1z"/><path class="an" d="M554 339l1-1 3 2v1l-1 2v3l-3-3v-4z"/><path class="an" d="M563 343l-1-1-3-1v-1l-1 2-1 3v1l5-2 1-1zM579 413l3 1 1-3 1-1 1-2v-3l-5-2-3 5 2 5z"/><path class="an" d="M581 404l1 1h2l1 1h1l1-3 2-4v-3l-4-1a13 13 0 00-2 1l-3 7zM588 387l2 1 1 1h3l1-3 1-1 1-3v-2l-5-3-4 9v1z"/><path class="an" d="M585 396l2 1h3l1-3 1-1v-1l1-2-1-1-4-2-4 6 1 3zM601 362l1 1 2 1h1l1-2 2-5v-1l-3-1-1-1-4 5 1 3z"/><path class="an" d="M596 372l4 1h1l1-2 1-1 1-3v-3l-1-1-3-2-4 7v4z"/><path class="an" d="M593 379l1 1 2 1 2-1 1-1v-1l1-2 1-2a10 10 0 00-1-1l-4-1-2 2zM607 348l3 2h1l1-1 1-1v-2l2-2v-3l-1-1-1-1-3-1-4 7 1 3z"/><path class="an" d="M611 339l4 1h1v-1l1-2 1-2 2-3 1-2v-2l-1-1-1-1-2-1-6 9v5zM603 355l2 1 2 1h1l1-2 1-1 1-1 1-2-1-1a10 10 0 00-1 0l-3-2-3 3z"/><path class="ao" d="M624 322v1l-1 1-1 2v1h-3l-2-1h-1v-2z"/><path class="an" d="M577 401l2 1 2 1h1l1-3 1-1v-2l1-1-1-2-4-2-4 7 1 2z"/><path class="an" d="M580 393l2 1h1l1 1h1l2-3 2-4v-1l-1-2-3-1a13 13 0 00-2 1l-3 7zM594 365l1 1 2 1h1l1-2 4-7-1-1v-1l-2-1-2-1-5 7 1 4z"/><path class="an" d="M587 376l5 2h1l1-1 1-1 1-2 1-3v-4l-1-1-3-2-5 8-1 4z"/><path class="an" d="M583 384l3 2 2 1 1-1 1-2v-1l2-2 1-2v-1a7 7 0 00-2 0l-4-2-1 4zM578 407h1l1-1v-2l1-1-1-1-4-2v1l2 6zM601 347l2 1h1l1 1 1-1 2-2 1-1 1-3v-2l-1-1-4-2-4 8v2z"/><path class="an" d="M606 338l2 1 1 1h1l1-1 1-3 1-1v-2l1-2 1-1-1-1-5-2-4 7 1 4zM597 355l3 1 2 1h1l1-3 1-1v-5l-4-2-4 7v2z"/><path class="an" d="M617 325v1l-1 1-1 2v1h-1l-2-1h-1l-2-1 1-1zM574 395l2 1h3l1-3 1-1v-2l1-1-1-1-4-2-4 6 1 3z"/><path class="an" d="M577 386l2 1 1 1h2l2-3 2-3v-2l-1-1-3-1a13 13 0 00-2 0l-4 8zM591 358l1 1 2 1h1l1-1 3-7v-1l-3-1-1-1-5 6 1 3z"/><path class="an" d="M585 370l4 2 1-1h1v-2l1-2 2-3v-4l-1-1-3-1-5 8v4z"/><path class="an" d="M581 378a13 13 0 011 1l2 1h2l1-2v-1l2-2 1-3h-1a7 7 0 00-1-1l-3-1-2 3zM604 331l2 1 1 1 1 1-1 1a6 6 0 01-1 2 5 5 0 000 1h-1v1l-1 1a6 6 0 01-1 0l-3-2v-5z"/><path class="an" d="M598 351h1l2-3 1-2 2-3v-2l-1-1-3-2-4 5-2 5 2 2 2 1zM609 327l1 1v1l-2 2v1h-2l-3-1v-2l6-3v1zM575 400h1l1-1v-1l1-1v-1l-1-1-4-2v1l2 6zM572 392l2 1h1l1-3 1-1v-2l1-1-1-2-4-2-3 5 2 5z"/><path class="an" d="M573 383l2 1h1l1 1h1l2-4 2-3v-1l-1-2-3-1a13 13 0 00-2 1l-3 7zM581 366l1 1h2l1 1 1-1 2-2 1-1 1-3v-1l-1-1-4-3-4 9v1z"/><path class="an" d="M577 375l3 1h3l1-3v-1l1-2v-2l-5-2-3 6v3zM603 330l1 1-1 2-1 1-1 1h-1l-2-1-1-1-1-1 7-3z"/><path class="an" d="M593 341l2 1 2 1h1v-2l3-5v-1l-3-1-1-1-5 5 1 3z"/><path class="an" d="M589 351l3 1h2l1-2 1-1 1-3v-3l-2-1-2-2-4 7v4z"/><path class="an" d="M585 358l2 1 2 1 1-1 1-1 1-1 1-2 1-2a11 11 0 00-2-1l-3-1-3 2zM573 371l1 1 2 1 1 1 1-1 2-3 1-1 1-3v-1l-1-1-4-3-4 9v1z"/><path class="an" d="M578 362l1 1 2 1h1l1-1 1-3v-1l1-1 1-2 1-1-1-2-5-2-4 8 1 3z"/><path class="an" d="M582 352l2 1 3 1 1-3 1-1 1-2v-1l-1-2-4-2-4 7 1 2zM569 380l3 1 2 1 1-1 1-3v-1l1-1v-3l-5-2-3 7v2z"/><path class="an" d="M586 344l1 1h2l1 1h1l1-3 2-4v-3l-4-1a15 15 0 00-2 1l-3 7z"/><path class="an" d="M596 332v2l-1 2v1h-1l-2-1h-1l-2-1v-1zM571 387l1-1 1-1v-1l1-1v-1l-1-1-4-2-1 1 3 7zM568 379h1l1-2 1-2v-2l-4-2-2 1 3 7z"/><path class="an" d="M567 372h1l2 1 1 1 1-1 1-2 1-1 1-2-1-1v-1l-4-2-3 6v2z"/><path class="an" d="M570 365l2 1 2 1h1l1-1 1-3v-1l1-2 1-2v-2l-5-2-4 7v4z"/><path class="an" d="M575 355l2 1 2 1 1-1 1-3 1-1 1-1v-1l-1-2-4-2-4 6 1 3z"/><path class="an" d="M578 347h2l1 1h2l2-3 2-3v-1l-1-2-3-1a13 13 0 00-2 0l-3 8z"/><path class="an" d="M589 335l-1 2v1l-1 1v1l-2-1-2-1h-1v-1z"/><path class="an" d="M582 337l1 2-1 2-1 1h-4l-1-1-1-2 7-2z"/><path class="an" d="M572 348l2 1 1 1h2v-1l3-5v-2h-3l-1-2-5 6 1 2z"/><path class="an" d="M568 358l3 2h1l1-1 1-1 1-2 1-2v-3l-1-1h-1l-2-2-4 7v3z"/><path class="an" d="M564 365l2 1 2 1h1l1-2 1-1 1-1 1-2v-1a10 10 0 00-2 0l-3-2-3 3z"/><path class="an" d="M566 372l1 1 1-2 1-2v-1l-1-1-2-1-2-1h-2l4 7zM569 344l2 1 2 1 1 1-2 2a6 6 0 010 1 5 5 0 00-1 1v1l-1 1a5 5 0 01-1 0l-4-2 1-5zM565 361h2l1-2 1-1 1-2v-2l-1-1-4-2-3 4-1 3 2 2 2 1z"/><path class="an" d="M563 366l1-1h1v-2l1-1-1-1-4-2v1l2 6zM575 340l1 1v1l-2 2-1 1h-1l-3-1v-2l6-3v1zM567 346v4l-1 2-1 2-1 1h-2l-3-2v-2l4-7z"/><path class="an" d="M563 354l1 1-1 2-1 2-1 1-3-8 2 1 3 1zM569 342l1 2-2 2v1h-1l-2-1-2-1-1-1 6-2h1z"/><path class="an" d="M562 344l1 1-1 3-1 1-2-1-3-1 3-2 3-1z"/><path class="an" d="M558 353h2l1-3v-1l-1-1-3-1h-1l2 6zM532 279l-3-1-1 3-1 1-1 2v3l5 2 3-5-2-5z"/><path class="an" d="M530 288l-1-1h-2l-1-1h-1l-1 4-2 3v3l4 1a15 15 0 002-1l3-7zM523 305l-2-1h-1l-2-1-1 1-1 2-1 1-1 3v3l5 2 4-9v-1z"/><path class="an" d="M526 296l-2-1h-3l-1 3-1 1v2l-1 1 1 1 4 2 4-6-1-3zM511 330l-2-1h-2l-1-1-1 2-2 5v1l3 1 1 1 5-5-1-3z"/><path class="an" d="M515 320l-4-1h-1l-1 2-1 1-1 3v3l1 1 3 2 4-7v-4z"/><path class="an" d="M518 314l-1-1-2-1h-2l-1 1v1l-1 2-1 2a10 10 0 001 1l4 1 2-2zM504 344l-3-2-1 1h-1l-1 1v2l-2 3v2l1 1 1 1 3 1 4-7-1-3z"/><path class="an" d="M500 353l-4-1h-1v1l-1 2-1 2-2 4-1 1v2l1 1 1 1 2 1 6-9v-5zM508 337l-2-1-2-1h-1l-1 2-1 1-1 1-1 2 1 1a11 11 0 001 0l3 2 3-3z"/><path class="ao" d="M488 370v-1-1l1-2v-1h1l2 1h3v2z"/><path class="an" d="M534 291l-2-1-2-1h-1l-1 3-1 1v2l-1 1 1 2 4 2 4-7-1-2z"/><path class="an" d="M531 299l-2-1h-1l-1-1h-1l-2 4-2 3v1l1 2 3 1a13 13 0 002-1l3-7zM517 328l-1-2h-2l-1-1-1 2-4 8h1v1l2 1 2 1 5-7-1-3z"/><path class="an" d="M524 316l-5-2h-1l-1 1-1 1-1 2-1 4v4h1l3 2 5-8 1-4z"/><path class="an" d="M528 308l-3-2-2-1-1 1-1 2v1l-2 2-1 2v1a8 8 0 002 0l4 2 1-4zM533 285h-1l-1 1v2l-1 1 1 1 4 2v-1l-2-6zM510 345l-2-1h-1l-1-1-1 1-2 3-1 1-1 2v2l1 1 4 2 4-8v-2z"/><path class="an" d="M505 354l-2-1-1-1h-1l-1 2-1 2-1 1v2l-1 2-1 1 1 1 5 2 4-7-1-4zM514 337l-3-1-2-1h-1l-1 3-1 1v5l4 2 4-7v-2z"/><path class="an" d="M495 367v-1-1l1-2v-1h1l2 1h1l2 1-1 1zM537 298l-2-2h-3l-1 3-1 1v2l-1 1 1 1 4 2 4-6-1-2z"/><path class="an" d="M534 306l-2-1-1-1h-2l-2 3-1 4-1 1 1 1 3 1a13 13 0 002 0l4-8zM520 334l-1-1-2-1h-1l-1 2-3 6v1l3 1 1 1 5-6-1-3z"/><path class="an" d="M526 322l-4-2-1 1h-1v2l-1 2-2 3v4l1 1 3 1 5-8v-4z"/><path class="an" d="M530 314a14 14 0 01-1-1l-2-1h-2l-1 2v1l-2 3-1 2a6 6 0 002 1l3 1 2-3zM508 361l-3-1-1-1-1-1 1-1a6 6 0 011-2l1-1v-1l1-1a5 5 0 011 0l3 2v5z"/><path class="an" d="M513 341h-1l-2 3-1 2-2 3v3h1l3 2 4-5 2-5-2-2-2-1zM502 365l-1-1v-1l2-2v-1h2l3 1v2l-6 3v-1zM536 292h-1l-1 1v1l-1 1v1l1 1 4 2v-1l-2-6zM539 300l-2-1-1 1-1 2-1 2v1l-1 1 1 2 4 2 3-5-2-5z"/><path class="an" d="M538 309l-2-1h-1l-1-1h-1l-2 4-2 3v1l1 2 3 1a15 15 0 002-1l3-7zM530 326l-1-1h-2l-1-1-1 1-2 2-1 1-1 3v1l1 2 4 2 4-8v-2z"/><path class="an" d="M534 318l-3-2h-3l-1 3v1l-1 2v2l5 2 3-6v-2zM508 363l-1-2 1-2 1-1 1-1 1 1h2l1 1 1 1-7 3z"/><path class="an" d="M518 352l-2-2h-1l-2-1v2l-3 5v1l3 1 2 1 4-5-1-2z"/><path class="an" d="M522 342l-3-2h-2l-1 2-1 1-1 3v3l1 1h1l2 2 4-7v-3zM526 335l-2-1-2-1h-1l-1 1-1 1-1 2-1 2a11 11 0 002 1l3 1 3-2zM538 321l-1-1-2-1h-2l-2 3-1 1-1 3v1l1 1 4 3 4-9v-1z"/><path class="an" d="M533 330l-1-1-2-1h-1l-1 1-1 3v1l-1 1-1 3h-1l1 2 5 2 4-8-1-3z"/><path class="an" d="M529 340l-2-1-3-1-1 3-1 1-1 2v1l1 2 4 2 4-7-1-2zM542 312l-3-1-2-1-1 1-1 3v1l-1 1v3l5 2 3-6v-3z"/><path class="an" d="M525 348l-1-1h-2l-1-1h-1l-1 4-2 3v3l4 1a13 13 0 002-1l3-7z"/><path class="an" d="M515 360v-1-1l1-2v-1h1l2 1h2l1 1v1zM540 306h-1l-1 1v1l-1 1v1l1 1 4 2 1-1-3-6zM543 313h-1l-1 2-1 2v2l4 2 2-1-3-7z"/><path class="an" d="M544 320h-1l-2-1-1-1-1 1-1 2-1 1-1 2 1 1v1l4 2 3-6v-2z"/><path class="an" d="M541 327l-2-1-2-1h-1l-1 2-1 2v1l-1 2-1 2v2l5 2 4-7v-4z"/><path class="an" d="M536 337l-2-1-2-1-1 1-1 3-1 1-1 1v2l1 1 4 2 4-6-1-3z"/><path class="an" d="M533 346l-2-1-1-1h-2l-2 3-2 3v2l1 1 3 1a15 15 0 002 0l3-8z"/><path class="an" d="M522 358v-1l1-2v-2h3l2 1h1v2z"/><path class="an" d="M529 355l-1-1 1-2 1-2h4l1 1 1 2-7 3z"/><path class="an" d="M539 344l-2-1-1-1h-2v1l-3 5v2h3l2 2 4-6-1-2z"/><path class="an" d="M543 334l-3-2-1 1h-1l-1 1-1 2-1 2v3l1 1 1 1 2 1 5-7-1-3z"/><path class="an" d="M547 327l-2-1-2-1h-1l-1 2-1 1-1 1-1 2v1a10 10 0 002 0l3 2 3-3z"/><path class="an" d="M545 320h-1l-1 1-1 2v1l1 1 2 1 2 1h2l-4-7zM542 348l-2-1-2-1-1-1 2-1a6 6 0 010-2 5 5 0 001-1v-1l1-1a7 7 0 011 0l4 2-1 5zM546 331h-2l-1 2-1 2-1 1v2l1 1 4 2 3-4 1-3-2-2-2-1z"/><path class="an" d="M548 326l-1 1h-1v2l-1 1v1h1l4 2v-1l-2-6zM536 352l-1-1v-1l2-2 1-1h1l3 1v2l-6 3v-1zM544 346v-3l1-3 1-2h3l3 1v2l-4 7z"/><path class="an" d="M548 338l-1-1 1-2 1-2 1-1 3 8-2-1-3-1zM542 350l-1-2 2-2v-1h1l2 1 2 1 1 1-6 2h-1z"/><path class="an" d="M549 348l-1-1 1-3 1-1 2 1 3 1-3 2-3 1z"/><path class="an" d="M553 339h-2l-1 3v1l1 1 3 1h1l-2-6z"/><path transform="rotate(-65 555 346)" style="isolation:isolate" opacity=".1" fill="url(#b)" d="M503 294h103v104H503z"/><path class="aq" d="M488 371l8-2 8-3 9-3 12-5 12-4 14-5 4-1v-2l-4 1-14 5-13 5-12 4-9 3-8 3-8 2-1 2zM531 278l2 8 3 8 3 9 4 12 5 13 5 14 1 4 2-1-1-4-5-14-5-12-4-12-3-10-3-7-3-8-1-1zM623 321l-7 2-8 3-10 3-12 5-12 4-14 5-4 2 1 1 4-1 14-5 12-4 12-5 9-3 8-3 8-2 1-2zM581 414l-2-7-3-8-3-10-5-12-4-12-5-14-1-4-2 1 1 4 5 14 4 12 5 12 3 9 3 8 2 8 2 1z"/><path class="aq" d="M557 349l-4-2 2-4c1-1 3 1 4 2l-1 2a6 6 0 01-1 2z"/><path class="ar" d="M354 691l-11-1h-12c-3 0-6 1-10-1a13 13 0 01-7-6c-3-7-1-15-1-22a75 75 0 00-1-11 33 33 0 010-6 39 39 0 011-6 23 23 0 000-5v-7l-1-11v-24l-1-12 1-12a4 4 0 011-1 31 31 0 01-1-5 35 35 0 000-7 36 36 0 01-1-7v-8l1-7a12 12 0 010-6 6 6 0 002 0l8-1c2-1 5-4 4-6v-1a7 7 0 002 1 22 22 0 005 0l10 2a2 2 0 003 0l1-1a2 2 0 001 1 10 10 0 004-2 28 28 0 014-1 11 11 0 014 0 18 18 0 015 2 5 5 0 010 4 22 22 0 00-1 10l1 12 1 24v112a8 8 0 01-2 6 8 8 0 01-5 2h-2c1 0 0 0 0 0a3 3 0 01-3 1z"/><path class="as" d="M311 564l1 8h10c2 0 1-10 1-11 0-2 0-10-2-10l-6 1c-5 0-4 3-4 8zm4-13l6-1c3 0 2 9 2 11s1 12-1 12-9 1-10-1c-2-3-1-6-1-8v-4c0-5-2-9 4-9z"/><path class="at" d="M311 560c0-4-2-9 4-9 6 1 8-5 8 9 0 2 1 13-1 13h-7c-3 0-3-1-4-3a8 8 0 010-5 43 43 0 000-5z"/><path class="au" d="M311 565a8 8 0 000 5c2 2 7 2 8 2 7-2 0-4 2-5s0-7 0-9c0-5-1-3-3-5l-4-1a3 3 0 00-3 1v7a43 43 0 010 5zm2 3l1-3v3h-1zm6 2h-1s-1-2 1 0zm2-18l1 3-3-3h2z"/><path class="av" d="M313 612c1 2 9 1 11 1 3-1 0-5 0-6l-9-1c-7 0-3 6-2 6zm12-5c0 2 2 5-1 6-2 0-10 1-12-1-2-1-3-7 3-6l10 1z"/><path class="aw" d="M315 606l6 1h3c1 2 2 3 1 5l-7 1-6-1c-2-4-1-6 3-6z"/><path class="ax" d="M316 613l-4-1c-2-3-1-5 0-6a15 15 0 002 1h6c4 0 2 2 3 2a2 2 0 010 3l-4 1a21 21 0 01-3 0z"/><path class="av" d="M342 526l11-3c3-1-1-5-1-5l-9 1c-7 1-2 6-1 7zm10-8c1 1 4 4 1 5-2 1-10 4-12 3-2-2-4-7 2-7 1 0 8-2 9-1z"/><path class="aw" d="M343 519l6-1h3c1 2 2 2 2 5l-7 2h-6c-3-3-2-6 2-6z"/><path class="ax" d="M345 526l-4-1c-2-2-3-4-1-5a15 15 0 002 0l6-1c3-1 2 1 3 1a2 2 0 010 3l-3 2a20 20 0 01-3 1z"/><path class="as" d="M349 612c-1 0-6 2-7 1l-1-8-1-3c-3-6 12-10 12-6 1 6 3 7 2 15l-5 1zm3-16c0-3-14 0-11 6v7l1 4 7-1 5-1c0-8-2-9-2-15z"/><path class="ay" d="M354 611c1-7-2-10-2-15 0-4-16 0-11 6v7c1 4-1 5 7 3l6-1z"/><path class="au" d="M350 595c-4-1-13 3-9 7v7c1 3 0 4 2 4 0-5 2-3 3-2a3 3 0 010 2l2-1a30 30 0 004 0 5 5 0 00-1-3c-1-1-7-2 1-1 0-4-4-3-5-3-8 0-3-2-1-3 7-4-3 1-3 1-2-2 3-4 3-4 4-2 5-3 4-4z"/><path class="av" d="M354 646a30 30 0 01-1 4c-2 2-8 1-11 1-2 0 0-10 1-12 0-3-1-6 3-6h5c5-1 4 6 3 9v4zm-4-12c-5 1-6-4-7 4 0 2-3 12-1 13 2 0 9 1 10-1l1-4 1-4c1-5 2-11-4-8z"/><path class="aw" d="M354 642c0-2 3-12-4-9-4 2-7-3-7 5 0 3-3 13-1 13 13 1 9 0 12-8a4 4 0 000-1z"/><path class="ax" d="M343 640l-1 4a6 6 0 003-1s3 3-3 5h-1l1 3h3a19 19 0 014-1c2 0 4-4 3-7 0-1 3-10-1-7-3-2-4-2-6 2-3-1 1 0-2 2z"/><path class="av" d="M338 689a31 31 0 01-1 4c-1 2-8 1-10 1-3 0 0-10 0-12 1-4 0-7 4-6h5c5-2 4 5 3 9l-1 4zm-3-13c-5 2-6-3-7 5 0 2-3 12-1 13l10-1 1-5 1-3c1-5 2-11-4-9z"/><path class="aw" d="M339 685c0-2 3-12-5-9-3 2-6-3-6 5 0 3-4 13-1 13 13 1 9 0 12-8a5 5 0 000-1z"/><path class="ax" d="M327 683v4a6 6 0 002-1c1 0 4 3-3 5l1 3h2a19 19 0 014-1c3-1 5-4 4-7-1-1 3-10-2-7-2-2-3-2-5 1-3-1 0 1-3 3z"/><path class="as" d="M350 548l-4-2c-5 1-6 0-6 7 1 10 2 9 9 6 1-2 2-9 1-11zm-10 5c-1-8 1-6 6-7 2-1 2-1 4 1a1 1 0 010 1c1 0 1 9-1 11-7 4-9 4-9-6z"/><path class="az" d="M349 559c-4 2-8 5-9-2-1-13 0-10 7-11l3 2c1 0 1 10-1 11z"/><path class="ba" d="M346 558c-1-1 0 0 1-3 1-6-1-2-2-8a1 1 0 000-1c-5 1-6 0-5 11 1 4 2 5 4 4s3-2 2-3zm-3-1h-1c-1-6 0-8 1 0z"/><path class="as" d="M352 679l-4-2c-5 1-6 0-6 7 1 11 2 10 9 6 2-1 2-9 1-11zm-10 5c-1-7 1-6 6-7l4 2c1 1 1 9-1 11-7 4-8 4-9-6z"/><path class="az" d="M351 691c-3 1-8 5-9-3-1-12 0-9 8-11l2 2c1 0 1 10-1 12z"/><path class="ba" d="M346 693c2-1 3-3 2-4s1 0 1-2c1-6-1-2-2-9a1 1 0 000-1c-5 1-6 0-5 11 1 4 2 5 4 5zm-1-5h-1c-1-6 1-8 1 0z"/><path class="as" d="M344 615c-3 2-3-1-3 6v4c0 3 3 6 4 5 2-3 1-11 1-15h-2zm2 14c-2 4-5-1-5-4v-4c0-7 0-4 3-7l2 1v14z"/><path class="ay" d="M346 615c1 7 1 19-3 14-3-3-2-4-2-8 0-7 1-4 3-7l2 1z"/><path class="au" d="M345 630l-2-1c-3-3-2-4-2-8 0-7 1-4 3-6l-1 7c5 7-2 2 1 6a4 4 0 011 2z"/><path class="av" d="M326 564h8c5-1 4-3 3-7 0-1 1-7-2-6l-5 1c-4 0-1 2-3 5 0 2-2 6-1 7zm4-13l5-1c3 0 2 6 3 7 1 4 1 7-4 7h-8c-1-1 1-5 1-7 2-3-1-5 3-6z"/><path class="ax" d="M328 557c1-3-3-6 4-6 1 0 6-4 5 5 0 2 5 9-6 8-4 0-7 2-4-5l1-2z"/><path class="aw" d="M328 557c1-2-2-5 1-5a5 5 0 001-1h2l2-1c2 2 0 10 3 11 1 1-2 2-3 3a19 19 0 01-3 0 1 1 0 01-1 0 3 3 0 010-3c0-2-1-2-3-3a6 6 0 011-1z"/><path class="as" d="M349 545l-7 1c-2-1-2-7-2-8v-3c-3-6 12-9 12-6 0 7 2 7 1 14-1 2-2 1-4 2zm3-16c0-2-15 1-12 6l1 7 1 3h7l4-2c1-7-1-7-1-14z"/><path class="az" d="M353 543c1-6-1-8-1-14 0-3-16 1-12 7l1 6c1 4-1 4 7 3 1-1 4 0 5-2z"/><path class="ba" d="M343 530l4 2c2-1 3 3 2 3-2 1 2 1-3 3-1 1-2 3-1 5a7 7 0 010 2c-5 1-4 0-4-3l-1-6c-1-3 0-5 3-6zm5 15l3-1a14 14 0 001-1c1-3-1-4-2-4-2 2-3 0-3 3a17 17 0 000 3z"/><path class="bb" d="M338 668l-2 7h-6c-4 0-4-9-4-12 0-4-1-14 5-15 2 0 6 1 7 3l1 13-1 4zm0-18v1c-6-5-11-4-12 4-1 3-1 20 4 20a52 52 0 006 0l2-7 1-4c1-2 1-13-1-13z"/><path class="az" d="M339 664c1-1 0-13-1-13 0 0-12-9-12 7 0 3 0 18 4 17 7 0 6 2 7-6l2-5z"/><path class="ba" d="M336 649c-3-1-9-2-10 6l1 2a3 3 0 01-1 3c0 5 0 13 3 15 1-2 5 4 7-9 1-4-1-2-2-1-5 1 1-3 2-3 3-5-5-5-1-9l1-4z"/><path class="as" d="M350 614c-3 3-4 0-3 7l1 5c0 3 6 7 7 5 2-3-1-13-2-17h-3zm6 17c-2 4-8-1-8-5l-1-4c-1-8 0-5 3-9l3 1c1 5 4 12 3 17z"/><path class="ay" d="M353 614c3 8 5 22-1 17-5-4-4-5-5-9-1-8 1-5 3-8h3z"/><path class="au" d="M351 631c-4-4-3-5-4-9v-2a2 2 0 000-2 2 2 0 013-3c4 2-2 8 1 12 3 0 1-5 1-6 2 0 2 9 2 9l-3 1z"/><path class="as" d="M319 676c-6-1-7-4-7 2l-1 4c0 3 8 9 11 9 4-1 2-9 1-13l-4-2zm4 15c-4 2-12-6-12-9v-4c1-6 2-3 8-3l4 3c1 4 3 11 0 13z"/><path class="ay" d="M323 678c3 7 2 18-7 10-7-6-4-6-4-10 0-6 2-2 7-2l4 2z"/><path class="au" d="M315 688c-6-6-3-6-3-10a14 14 0 010-1l1-1c1-1 5 0 6 1 5 4-7 3-3 8 5 2 4-2 4-3 4 1 0 7 0 7l-5-1z"/><path class="av" d="M325 620a3 3 0 001-2v-2l1-2-2 1c-1 0-3-2-2 0l2 4v1zm0-1l-2-4c-2-2 1-1 2-1s3-2 2 1l-1 2a1 1 0 010 1l-1 1a1 1 0 000-1z"/><path class="aw" d="M325 619l-2-4c-2-2 2-1 2-1h2l-1 3v1l-1 1z"/><path class="av" d="M326 618l1-2c2-4-1-2 0-4s2 0 3 1c4 3 0 3-2 4l-2 1zm0 0l4-2c3-2 0-2-1-4s-2 0-2 1c2 0 0 3 0 3a3 3 0 00-1 2zm0 0z"/><path class="aw" d="M326 618l1-2s2-3 0-3c0 0 1-3 2-1 1 1 5 3 1 4a23 23 0 00-3 2h-1z"/><path class="av" d="M325 588l1 5c1 2-2 6-2 2v-7h1zm0 8a4 4 0 000 1c2-4 1-4 0-9h-1l1 8z"/><path class="ay" d="M325 588c-2 1-1 6-1 7l1 2c2-4 1-5 0-9z"/><path class="av" d="M346 527l5-3c2 0 7 1 3 2l-7 1h-1zm8-1a4 4 0 001-1c-4-1-4 0-8 1l-1 1c2 1 6-1 8-1z"/><path class="ay" d="M347 527l6-1 2-1c-4-2-5 0-8 1v1z"/><path class="av" d="M340 630c-1-6 1-3 1-1 0 3 3 6 1 7s-2 1-2-1v-5zm3 4l-2-5c0-3-2-6-2 1a22 22 0 011 5c-1 4 4 2 3-1z"/><path class="ay" d="M340 635c0 1-1 3 2 2s-1-5-1-8c0-2-2-5-1 1a18 18 0 010 5z"/><path class="av" d="M351 632a2 2 0 00-1 0l-3-5a21 21 0 00-1 3c1 1 4 3 5 2zm-1-1c4 3-4 1-4-1 1-6 2-1 4 1z"/><path class="ay" d="M346 630l1-3 1 2c1 2 4 3 2 3l-4-2z"/><path class="av" d="M358 692a2 2 0 00-1-1c-3-2-2-3-3-4a22 22 0 00-1 3l5 2zm-1-1c4 3-5 0-4-1 0-6 2-1 4 1z"/><path class="ay" d="M353 690l1-3 1 2c1 2 4 3 2 3l-4-2z"/><path class="av" d="M356 627l1 6c1 3 3-4 3-4v-3l-2-1a5 5 0 00-2 2zm4 0v3c-1 1-2 6-3 2 0-3-2-5 1-7l2 2z"/><path class="aw" d="M358 625l2 1c1 3 0 2-1 5 0 1-2 5-2 1 0-2-2-6 1-7z"/><path class="as" d="M340 536l-1 15c-1 1-1-5-1-6v-9c1-2 1-2 2 0zm-2 0v8a22 22 0 000 2l1 5v-16l-1 1z"/><path class="az" d="M338 536v9a18 18 0 010 4c0 3 1 4 1-2v-12s0-2-1 0v1z"/><path class="av" d="M345 562c-4 1-4-1-6-1a22 22 0 001 3c1 1 5-1 5-2zm-1 0c5 0-3 3-4 2-3-5 1-2 4-2z"/><path class="ay" d="M340 564l-1-3 2 1c3 1 5-1 4 1 0 0-4 2-5 1z"/><path class="av" d="M347 562a4 4 0 001 0l6 1a22 22 0 00-1-3l-6 2zm2 1c-7-1 3-4 4-3 5 6-1 3-4 3z"/><path class="ay" d="M353 560l1 3h-2c-3-1-7 0-5-2l6-1z"/><path class="bb" d="M327 553v4a48 48 0 01-2 5c-1 2-2 1-1-1v-4l3-4zm-3 4v4a7 7 0 000 2l3-6v-4l-3 4z"/><path class="az" d="M327 553l-3 4v4s0 4 1 0a13 13 0 001-2l1-2a3 3 0 000-2v-2z"/><path class="as" d="M338 554v-2c1-1 2 4 2 4v2c1 2-1 2-1 1l-1-5zm1 5h1a2 2 0 00-1-2s0-6-1-4v1l1 5z"/><path class="ay" d="M338 554l1 5c0 1 1 2 1-1l-1-2v-2c0-2-1-2-1 0z"/><path class="as" d="M353 529v-1c1-1 1 4 1 4l1 1c1 3-1 3-1 1l-1-4a1 1 0 010-1zm1 5v1a2 2 0 000-2s0-6-1-5v2l1 5z"/><path class="ay" d="M353 530c-1 1 1 3 1 4s1 3 1 0l-1-2v-3c0-2-2-1-1 0a3 3 0 010 1z"/><path class="av" d="M338 528v2c0 1 0 3 1 2 1-3 4-3 4-4a43 43 0 00-5 0zm1 4zm5-3c-2 1-3 0-5 3 0 1-1 1-1-1v-3s7-1 6 1z"/><path class="aw" d="M338 528h3c1 0 4 0 2 1l-4 3s-1 1-1-1v-3z"/><path class="av" d="M341 591l3 4s-3 2-4 0a10 10 0 000-2l-1-2c0-1-1-2 1-3l1 3zm-1-3l-1 3 1 2a9 9 0 011 2h3l-3-2-2-5zm4 7"/><path class="aw" d="M340 588c-2 1-1 2-1 3l1 2a6 6 0 011 2h3l-2-2a10 10 0 01-2-4v-1z"/><path class="av" d="M338 591c-2 2-1 2 1 3l1 2-1-2c1-1-1-2-1-4zm2 4v1c-2 0 0-1-3-2v-3a3 3 0 011-1l2 5z"/><path class="aw" d="M338 590l2 4v2s-1 1-1-1c0-1-3-1-2-3l1-2z"/><path class="as" d="M325 566v2a3 3 0 000-1l3-2-3 1zm3-1l-2 2s-2 3-2 0v-1l4-1z"/><path class="ay" d="M325 566c-1-1 1-1 2-1 3 0-2 2-2 2 0 1-1 2-1 0l1-1z"/><path class="as" d="M324 551v2a2 2 0 000-1l3-2-3 1zm3-1h1l-3 2s-2 3-1 0v-1c-1-2 4-1 4-1z"/><path class="ay" d="M324 551l3-1c2 0-2 2-2 2-1 1-1 2-1 0v-1z"/><path class="av" d="M336 564a4 4 0 000 1s4 3 4 0c-2-3-3 0-4-1zm0 1h4l-1 2-3-2a1 1 0 010-1c1 0 3-2 4 1z"/><path class="aw" d="M336 564c1 1 2-2 4 1 0 1 0 2-1 1l-3-1v-1z"/><path class="as" d="M341 613v2c-2 1-1 3-2 3l-2-1c-1-1-2-2 0-3l3-3c1-1 1 2 1 2zm-4 2l1 2 1 1c0-1 0-2 2-3v-2l-1-2-3 4z"/><path class="ay" d="M340 611c-1 1 0 2-3 3-2 1-1 2 0 3l2 1c1 1 0-2 2-3s0-2 0-2l-1-2z"/><path class="as" d="M353 595l1 3c1 2 0-1 2-2 3-2-1 0-2-3-1 0-2 0-1 2zm3 1c-1 1-1 5-3 3v-4c-1-2 1-2 1-2 2 3 5 1 2 3z"/><path class="ay" d="M354 593c1 2 5 1 2 3-2 1-1 4-2 3l-1-4c-1-2 1-2 1-2z"/><path class="as" d="M355 615l1 3c0 3-2 2-2-3v-3c2-1 1 0 1 3zm-1 0a18 18 0 001 4v-2-5h-1v3z"/><path class="ay" d="M354 612v3s1 6 2 4a7 7 0 01-1-3v-4h-1z"/><path class="av" d="M355 653c1 4 4 3 4 4l-4 1a10 10 0 00-1-3l-1-1 1-3 1 2zm-1 1l1 1a9 9 0 010 3l3-1-2-2-2-4v3zm4 3"/><path class="aw" d="M354 651v3l1 1v3c0 2 2 0 3 0 2-1-2-2-2-3a10 10 0 01-2-4z"/><path class="av" d="M337 673l3-7c1-2 1 6 1 6l-1 3h-2a7 7 0 01-1-2zm3 2l1-4c0-1 0-7-2-3-1 2-3 4-1 7h2z"/><path class="aw" d="M338 675h2c2-2 1-2 1-6 0 0-1-5-2-1 0 1-3 5-1 7z"/><path class="av" d="M355 666l1 5c0 2-3 6-2 2l1-7zm-1 8a5 5 0 000 1c2-4 2-4 1-8v-1l-1 8z"/><path class="ay" d="M355 666l-1 7v2c3-3 2-4 1-8v-1z"/><path class="av" d="M326 670l1 4c0 3-2 7-2 3v-7h1zm-1 7a4 4 0 000 1c3-3 2-4 1-8h-1v7z"/><path class="ay" d="M325 670v8c3-3 1-4 1-8h-1z"/><path class="av" d="M341 694l-2-5c0-2 3-6 3-2l-1 7zm0-7a4 4 0 000-1c-2 3-1 3 0 8v-7z"/><path class="ay" d="M341 694v-7-2c-3 4-1 5 0 9z"/><path class="as" d="M353 545c-2 2-2-1-2 6v4c0 2 2 6 3 4v-14h-1zm2 14c-1 3-4-1-4-4v-4c0-7 0-4 2-7l1 1c1 4 2 10 1 14z"/><path class="az" d="M354 545c1 7 1 18-2 14-2-3-1-4-1-8 0-7 0-4 2-7l1 1z"/><path class="ba" d="M354 560l-2-1c-2-4-1-4-1-8 0-7 0-4 2-6v7c3 7-2 1 0 6a4 4 0 011 2z"/><path class="bb" d="M339 645c2 0 2 2 2 2a36 36 0 010 5c0 2-1 1-2 0l-1-4 1-3zm-1 3l2 4a5 5 0 000 1v-6c-1-1 1-2-1-2l-1 3z"/><path class="az" d="M339 645l-1 3 2 4v-1a10 10 0 001-1v-2a2 2 0 00-1-2l-1-1z"/><path class="bb" d="M334 648a2 2 0 001 0h1l2 1-1-1v-1l-2 1h-1zm1 0l2-2c2-1 1 1 1 2 0 0 1 2-1 1l-2-1h-1a1 1 0 001 0z"/><path class="az" d="M335 648l2-2c2 0 0 2 0 2l1 1-2-1h-2a1 1 0 001 0z"/><path class="bb" d="M326 646l-1 2a42 42 0 000 5c0 2 1 1 1 0l1-4-1-3zm1 3l-1 4a5 5 0 01-1 1v-6l1-2 1 3z"/><path class="az" d="M326 646l1 3c1 1-1 3-1 4 0 0-1 3-1-1a11 11 0 010-1v-3a2 2 0 010-1l1-1z"/><path class="av" d="M342 641a6 6 0 00-1-3l-1 3a22 22 0 001 3l1-3zm-2 0l1-3a6 6 0 011 3l-1 3a9 9 0 01-1-3z"/><path class="aw" d="M341 644a17 17 0 01-1-2 3 3 0 010-1 15 15 0 011-3l1 1a4 4 0 010 2l-1 3z"/><path class="av" d="M354 657l-2-5a26 26 0 00-2 2l4 3zm0-1c2 4-5-1-4-2 3-6 3-1 4 2z"/><path class="ay" d="M350 654l2-3 1 3c0 2 3 4 0 3l-3-3z"/><path class="bb" d="M326 585c0 3-1 7 3 7 7 0 10-2 9-9l1-4c0-3-2-5 0-9 1-4-5-4-8-4-7 1-6 4-6 10a31 31 0 001 9zm5-19c3-1 9-1 8 4v9 4c0 7-3 10-10 9-4 0-3-3-4-7v-9c0-6-1-9 6-10z"/><path class="az" d="M325 577l1-8c1-4 15-5 13 1-2 3 1 6-1 10 0 2 4 13-8 12-2 0-4 0-4-4l-1-11z"/><path class="ba" d="M325 577a18 18 0 000 4c1-1 4-2 10-2 3 0-1-6 1-9 3-2-5-3-9-3a3 3 0 00-1 2 12 12 0 00-1 4c2-1 5 0 0 2a12 12 0 010 1zm9 15a14 14 0 01-4 0c-2 0-4 0-4-4l-1-6 7-2c1-1 7 0 1 4l2-1c3-1 4 2 1 4-3 3-2 4-3 5z"/><path class="bc" d="M326 569a6 6 0 010 3c1-1 3-1 3 1l-2 3a4 4 0 001-1c1-2 0-2-1-2a7 7 0 01-2 0l1-4zm0 3z"/><path class="bb" d="M309 543c1 3 0 6 4 7 7 0 10-2 9-9v-4-9c2-5-4-5-7-4-7 1-6 4-6 10a30 30 0 000 9zm6-19c3-1 9-1 8 4v9 4c0 7-3 9-10 9-4 0-3-4-4-7v-9c0-6-1-9 6-10z"/><path class="az" d="M309 534l1-7c1-4 15-5 13 1-2 3 1 6-1 10 0 2 4 12-8 12-3 0-4 0-4-4l-1-12z"/><path class="ba" d="M309 534a18 18 0 000 5c1-1 4-3 10-3 3 1-1-6 1-8 3-3-5-3-9-3a3 3 0 00-1 2 13 13 0 00-1 3c2 0 5 1 0 3a9 9 0 010 1zm5 16c-3 0-4 0-4-4l-1-7c4-2 7-1 7-1 1-1 7 0 1 4l2-1c3-1 4 2 1 4s-2 4-3 4a14 14 0 01-3 1z"/><path class="bc" d="M310 527a6 6 0 010 2c1 0 3 0 3 2l-2 3a4 4 0 001-2c1-1 0-2-1-2h-2l1-3zm0 3z"/><path class="bb" d="M339 611c-1 3-5 4-6 3l-7-7v-9c2-5 3-5 7-5 6 1 6 2 6 10v8zm-6-18c-4 0-6 0-7 4l-1 10 8 7c1 1 5 0 6-5a40 40 0 000-6c0-8 0-9-6-10z"/><path class="az" d="M339 603c0-5 1-6-2-9-1-1-8-2-10 0-3 6-1 5-2 12 0 3 6 5 8 8h3c4-2 3-7 3-11z"/><path class="ba" d="M335 594c1 0 2 2 1 3-2 4 1 4 0 8-1 3 4 5-3 9a17 17 0 00-4-4v-1c0-2-2-1-3-2a3 3 0 01-1-1c1-8-1-6 2-12l8-1zm-7 5l1 1 1-3c3-1-2-3-2 1z"/><path class="bc" d="M326 600v6c1 2 2 0 3 1l1 2c0-2 0-3-2-3s-2-5-2-6z"/><path class="bb" d="M368 690c-1 3-5 4-6 3l-7-7v-9c2-5 3-5 7-5 6 1 6 2 6 10v8zm-6-18c-4 0-5 0-7 5v9l7 7c2 2 6 0 6-5a41 41 0 000-6c1-8 0-9-6-10z"/><path class="az" d="M368 682c0-5 1-6-1-9-1-1-9-2-10 1-3 5-2 4-2 11-1 3 5 5 7 8h4c3-2 3-7 2-11z"/><path class="ba" d="M365 673v3 8c-1 3 4 5-3 9a17 17 0 00-4-3v-1c1-3-1-2-3-2a3 3 0 010-2c0-7-1-6 2-11 1-2 5-2 8-1zm-6 6v-2c3-2-2-4-2 1l2 1z"/><path class="bc" d="M356 679c-1 2-2 4-1 6s2 0 3 1l1 2c0-2 0-3-2-3s-1-5-1-6z"/><path class="bb" d="M326 642c-1 9 11 4 12 3 2-3 0-19 0-24 1-3-3-5-6-4-9 1-6 10-6 16v9zm2-24c3-3 11-3 11 3-1 5 2 22-1 24-2 2-12 5-13-2a78 78 0 011-10c0-5-2-12 2-15z"/><path class="az" d="M326 633v-13c4-5 14-4 13 1s2 23-1 25c-4 2-13 3-13-3l1-10z"/><path class="ba" d="M331 621v-1c2-2 0 5 0 5 0 7-2 1-1-4zm-6 22c0 6 8 5 12 3v-11c-6 0-5 5-5 9 0 3-3-3-1-6 3-5 5-7 4-12l1-6a3 3 0 00-2-3 8 8 0 00-8 3v13l-1 10z"/><path class="bc" d="M334 628c-1 4 0 4-3 7-1 2-2 6-1 8a5 5 0 011 1v-1c-1-2 0-5 1-7 2-3 3-4 2-8z"/><path class="as" d="M318 614c7 0 6 6 6 11 1 5 0 8-1 13 0 3 1 7-3 6l-8-1c-2-1-1-13-1-16l1-10c2-3 2-2 6-3zm-7 16c0 1-1 12 1 13l8 1c3 1 2-3 3-6l1-13c0-5 1-9-5-10-4 0-5-1-7 2l-1 13z"/><path class="ay" d="M312 617l-1 9c0 3-1 16 1 17l8 1c1 1 3 0 3-2 0-5 2-12 1-17 0-2 2-10-5-11h-3l-4 3z"/><path class="au" d="M312 617l-1 9c0 3-1 16 1 17l8 1a2 2 0 002 0 39 39 0 001-6 4 4 0 000-2l-1-1c0-2-2-3-3-2l-1 2c0 1 0 0 0 0v3l-1 2-1 2v-1a7 7 0 000-4l1-5 2-3 1-8c0-1 0-5-2-6h-2c-2 0-3 0-4 2z"/><path class="bd" d="M315 615c-2 1-2 5-2 7-1 4-2 4-2 9a17 17 0 001 7l1 1-1-2c-1-5 0-9 1-13s0-6 2-9z"/><path class="as" d="M356 577v-27c1-2 5-1 6-1 6 0 6 22 5 27 0 4-8 2-10 1a8 8 0 01-1 0zm11-1c1-6 2-27-5-28-1 0-5 0-6 2-2 3-1 23 0 27a5 5 0 001 0c3 1 10 3 10-1z"/><path class="az" d="M357 577c3 1 10 3 10-1 1-5 2-27-5-27s-7-2-7 13l1 15a7 7 0 001 0z"/><path class="ba" d="M357 577a7 7 0 01-1 0l-1-15v-5c2-3 1-3 0-3 0-6 1-5 7-5 3 0 5 5 5 11-1-1-2 0-2 1 0 2-3 6-3 4v-4c3-6-4-3-3-1 2 5 4 5 2 11 4 6-2 2-1 6a1 1 0 010 1l-3-1zm10-1l1-7c-1 3 0 3-5 2-1-1 1 2-1 4-1 1-1 2 1 3 2 0 4 0 4-2z"/><path class="bc" d="M357 550c-3 4 0 3-1 5v4a58 58 0 001 11v-13-2c0-3-2-1 0-5z"/><path class="av" d="M368 591c2-8-3-13-11-11-3 1-3 3-2 6 0 3-2 4 0 6 2 3 9 3 12 1zm-13 2c-3-2 0-4-1-7s-1-5 3-6c8-3 13 3 11 11l-1 2c-3 2-9 2-12 0z"/><path class="aw" d="M367 594c-3 1-16 1-13-6 2-3-3-7 6-8 7-2 10 7 7 14z"/><path class="ax" d="M359 594c-4 0-6-2-5-6 2-3-3-7 4-8-1 2-2 3 4 3 3 0 0-2-1-4a7 7 0 015 2 4 4 0 01-2 5c-3 1-1 7-5 8z"/><path class="be" d="M364 585a10 10 0 00-3 5l-3 3h1c3-1 3-3 3-5l2-3z"/><path class="av" d="M366 615c2-4 1-7 1-11v-7l-6-1c-5 1-5 1-5 5v8l1 13c0 5 8 2 10 1l-1-8zm-9 7l-2-13v-8c1-3 0-4 4-5 1 0 7-1 8 1v7c1 4 1 7-1 11l1 8c-2 1-10 4-10-1z"/><path class="aw" d="M367 623c-3 1-11 4-10-1s-2-9-2-13l1-8c0-2-1-5 5-5 5 0 7-1 6 5 0 3 1 10-1 14l1 8z"/><path class="ax" d="M362 625c-3 0-6 0-5-3l-2-13 1-8c0-2-1-5 5-5h2c2 1 2 2 1 3-2 3 1 12 0 13-2 1-2 2-3 0l-4-4c-3-2 6 8 4 10-3 3 1 5 1 7z"/><path class="be" d="M358 613l2 4c0 1-1 5 1 5-2-2 1-3 1-5l-4-4z"/><path class="av" d="M357 670c1 2 8 1 10 0s0-9 0-10l-8-2c-6-1-3 11-2 12zm10-9c1 2 2 9 0 10-2 0-9 2-10-1-2-4-3-14 2-12 2 1 8 0 8 3z"/><path class="aw" d="M359 659h5c1 1 3 0 3 2 1 3 2 4 1 9l-6 1c-1 1-5 0-5-2-3-8-1-12 2-10z"/><path class="ax" d="M365 670h-3c-1 1-4 1-5-1-2-7-1-10 1-11 1 1 3 2 5 1 2 0 3 7 2 8-1 0-2 2 0 1v2z"/><path class="be" d="M358 662c-2-1-1 3-1 4a8 8 0 002 4l-1-3v-5z"/><path class="as" d="M341 676a12 12 0 001-4c1-6 0-7-1-12 0-7 4-11 10-5 1 1 3 3 2 5v7l-1 7c0 3-8 2-10 2a3 3 0 00-1 0zm11-2c1-3 2-3 2-7v-7c0-2-1-4-3-5-6-6-11-2-10 5l1 12a15 15 0 01-1 4h1c2 1 10 1 10-2z"/><path class="ay" d="M342 676c2 0 10 1 10-2 0-2 2-2 1-9s2-5-2-10c-4-4-9-4-10 2 0 4 2 8 1 14l-1 5z"/><path class="au" d="M342 676h8l-1-1 1-6c1-3-1-7 1-9 5-4-7-7-8-5-3 3-1 4-2 6 1 3 2 6 1 10l-1 5z"/><path class="bd" d="M344 655c-4 3-1 2-1 4l-1 4a47 47 0 001 9v-11a13 13 0 001-2c0-2-2 0 0-4z"/><path class="av" d="M310 598c0 2 0 6 2 7l10 1c2-1 2-6 2-7a70 70 0 01-1-11c0-5 2-8 0-13-1-1-6-2-8-1l-3 1c-2 1-1 6-1 9v6a53 53 0 00-1 8zm1-14c0-3-1-8 1-9l3-1c2-1 7-1 8 1 3 5 1 8 1 13a74 74 0 000 11c0 1 1 7-2 7l-10-1c-2 0-2-5-2-7a41 41 0 011-8v-6z"/><path class="aw" d="M311 590l1-5-1-4c0-3-1-6 3-6 2-1 1-2 5-1 4 0 3 0 5 3 1 4-1 6-1 11l1 11a23 23 0 010 6c-1 2-4 1-5 1h-3c-5 0-6 0-6-6l1-10z"/><path class="ax" d="M311 583v1c2 6 2 7-1 10v6c0 5 1 6 4 6 0-4 3-8 2-11v-6l3-2c1-3-1-6-1-9 0-2-2-3-4-3-4 0-3 3-3 6a15 15 0 000 2zm13 22c-1 2-4 1-5 1h-3l1-9c0-10 3-6 3-11 1-6-2-5-1-9 3-1 4 7 4 8-1 7-4 10 0 16a6 6 0 011 2v2z"/><path class="be" d="M314 605c-3-1-3-1-3-4l2-8a17 17 0 000-5l-1 5-1 6c0 2-1 7 3 6z"/><path class="av" d="M337 525c0-2 1-6-2-7l-10-1c-2 0-1 6-1 7a68 68 0 010 11c0 5-2 8 1 13 1 1 6 2 7 1l3-1c2-2 1-6 1-9s-1-3 1-6a54 54 0 000-8zm-1 14c0 3 1 8-1 9l-3 1c-1 1-7 1-8-1-2-5 0-8 0-13a75 75 0 000-11c-1-1-1-7 1-7h11c2 1 1 6 1 8a41 41 0 010 8l-1 6z"/><path class="aw" d="M337 533l-1 5v4c0 3 1 6-3 6-2 1 0 2-5 1-3 0-3 0-4-3-2-4 0-6 0-11v-11a22 22 0 010-6c0-2 3-1 5-1h2c6 0 6 0 6 6v10z"/><path class="ax" d="M336 540v-1c-2-6-1-7 1-10v-6c0-5 0-6-4-6 0 4-3 8-1 11v6l-3 2c-2 3 0 6 0 9 0 2 2 3 4 3 4 0 3-3 3-7a15 15 0 000-2zm-12-22c0-2 3-1 5-1h2c1 3-1 7-1 9 0 10-2 6-3 11s2 5 1 9c-2 1-3-7-3-8 0-7 3-10-1-16a6 6 0 010-2v-2z"/><path class="be" d="M334 518c2 1 3 1 2 4l-1 8a17 17 0 000 5l1-5 1-6c1-2 1-7-3-6z"/><path class="as" d="M339 581c2 7 1 16 13 11l1-11c3-5 2-6 1-11v-3c0-3-4-4-7-3-5 0-7 1-7 6l-1 10a2 2 0 000 1zm1-11c0-5 2-6 7-7 3 0 7 0 7 4v3c1 5 2 7 0 11-2 3 0 11-2 12-12 4-11-5-13-12a1 1 0 010-1l1-10z"/><path class="ay" d="M339 580c3-8-2-14 4-16 4-1 12-2 11 5 0 1 3 7-1 12-1 2 1 11-1 12-13 4-11-6-13-12a4 4 0 010-1z"/><path class="au" d="M339 579c2 1 0 6 2 7 4 2 10-2 12 1v-3l-7-4c-4-2 0-2 2-4 9-7 7-15-5-12-5 2-2 6-3 13a19 19 0 007-3l4-2-3 3a29 29 0 01-8 3l-1 1zm15 1c-6 0-2-4 1-4a9 9 0 01-1 4zm-12 11a10 10 0 01-1-2c1-2 5-3 8 1 3 2-3 5-8 1z"/><path class="bd" d="M342 565c-2-1-2 5-2 5a22 22 0 010 4v4l1-4v-7l1-2z"/><path class="ay" d="M353 564l-8 8 3-1c1-3 3 0 5-1-2 1-3-1-5 1h6c-4 2-4-1-7 1l-3 1a6 6 0 01-4 2l4-2c3-5 5-6 9-9zm-13 11h-1 1z"/><path class="as" d="M358 656c-3-2-3-11-3-14l5-9c3-5 1-5 5-4 6 0 4 8 4 11-1 4 0 14-2 17h-6a5 5 0 01-3-1zm9 1c2-3 1-13 2-17 0-3 2-10-2-12h-5l-6 12c-2 3-1 12 1 15 1 2 2 2 4 2h6z"/><path class="ay" d="M361 657h6c2-2 2-9 2-11v-9c1-4 1-9-4-9-2 0-2-1-4 4-2 2-6 8-6 10 0 4-1 15 6 15z"/><path class="au" d="M362 629a14 14 0 00-1 3c-2 2-6 8-6 10 0 3-1 12 4 15 3 0 4 0 5-7v-9l-1-12z"/><path class="bd" d="M360 635c-3 3-6 14-3 18v-1c-2-4 1-13 3-17z"/><path class="as" d="M358 637l5 4c2 3 9 4 3 2-3-1-3-3-5-4-3-2-3-1 3-3l-5 1h-1zM324 658v13c0 3-3 3-5 2l-7-1c-2 0-1-16-1-18 1-4-1-8 4-9l9 1v12zm-7-13c-7 0-5 4-5 10-1 2-2 17 0 17l7 1c1 1 5 1 5-2v-13-12l-7-1z"/><path class="ay" d="M324 646l-9-1c-3 0-3 3-3 7l-1 12c0 2-1 8 1 8l7 1c1 1 5 1 5-2a175 175 0 010-18v-7z"/><path class="au" d="M312 652l1-4c1 0 1-2 5-2 2 0 4 0 5 2v13c-2 3-6 6-2 7 2 0 4 2 0 4-3 1-3 1-5-1l-3 1a8 8 0 01-1 0l-1-8 1-12zm1 1a1 1 0 011 1h1a8 8 0 010-2c1-5-2 1-2 1zm8 13c-1 1 0 1 0 0a2 2 0 001-2c-2-1-1 2-2 2z"/><path class="bd" d="M312 658l1 12v-1c1-4 0-7-1-11z"/><path class="ay" d="M320 646a6 6 0 01-2 1l-1 5c0-1-1-3 1-4l2-2z"/><path class="as" d="M369 532v13c0 3-4 3-6 3l-7-1c-2-1 0-16 0-19 0-4-2-8 3-8h9l1 12zm-7-12c-8 0-6 3-6 10v16l7 1c2 1 5 1 5-2v-13-12h-6z"/><path class="ay" d="M368 520h-9c-4 1-3 2-3 7l-1 11 1 8 7 2c1 0 6 0 5-2a175 175 0 011-18l-1-8z"/><path class="au" d="M356 526l1-4s1-2 5-2c3 0 4 0 5 3v12c-2 3-6 6-1 7 1 0 3 3-1 4-3 2-2 1-5-1l-2 2a8 8 0 01-2-1l-1-8 1-11v-1zm1 1a1 1 0 011 2s1 1 1-1a8 8 0 011-2c1-5-3 1-2 1zm9 14c2-1 1-3 1-3-2-1-2 2-2 3h1z"/><path class="bd" d="M357 532c-2 0 0 11 0 12v-1-11z"/><path class="ay" d="M364 520a6 6 0 01-1 1c-2 2-2 5-2 5l1-4 3-2h-1zM358 637l5 4c2 3 9 4 3 2-3-1-3-3-5-4-3-2-3-1 3-3l-5 1-1-1v1z"/><path class="h" d="M999 343c0 4 3 9 7 10-1 3-2 7-1 11s4 6 8 6c-3 6 2 14 8 16l3 9c2 3 6 3 9 1a10 10 0 0012 7l4 7c2 2 6 2 7-1a7 7 0 007 7 21 21 0 014-1l11 5c5 1 5-4 10-5 3-2 7 1 10 2s9-2 8-5c3 1 7 3 11 3s8-4 7-8c3 4 10 0 10-5a9 9 0 0014-9 7 7 0 108-13 7 7 0 007-12c3-1 5-2 6-4s1-6-2-6c8-1 12-12 7-18a8 8 0 104-15 9 9 0 00-4-18c2-4-2-10-7-10a7 7 0 00-6-12c4-5-1-14-7-14 1-3-1-6-4-8s-6-1-9-1l-4-10c-2-3-7-2-9 1-2-7-12-11-18-7-3-6-13-6-15 0-6-7-19-5-24 2-5-5-15-3-17 4-6-4-16 1-18 8-5-3-13 2-13 8a13 13 0 00-8 16c-3 1-4 6-5 10a4 4 0 01-2 4c-2 1-5 3-6 9l2 10c0 1-9 5-2 14l-3 12z"/><path class="f" d="M1161 276c-1-3-4-5-7-5 1-3-1-6-4-8s-6-1-9-1l-4-10c-2-3-7-2-9 1-2-7-12-11-18-7-3-6-13-6-15 0-6-6-19-5-24 2-5-5-15-3-17 4-6-4-16 1-18 8-5-3-13 2-13 8a13 13 0 00-8 16c-3 1-4 6-5 10a4 4 0 01-2 4c-2 1-5 3-6 9l2 10c0 1-9 5-2 14l-3 12c0 4 3 9 7 10-1 3-2 7-1 10s4 7 8 7c-3 6 2 14 8 16 1 3 1 6 3 8s6 4 9 2a10 10 0 0012 7l4 7c2 2 6 1 7-1a7 7 0 007 7 21 21 0 014-1l11 5c5 1 5-4 10-6 3-1 7 2 11 3s8-2 7-6c3 2 7 4 11 4a21 21 0 001-4 4 4 0 000-2l-4-3-6-6c-4-2-8-1-12-1s-9-3-8-7c1-5 9-3 13-6a4 4 0 00-4-3c1-3 4-4 7-5s6-5 4-7c-2-3-7 0-9-3-2-2 0-5 3-6l9-1c3 0 6-3 5-6-1-4-9-3-10-7 0-2 2-5 1-7s-4-2-6-1l-6 5a7 7 0 01-5-12l8-2c3-1 5-3 3-6l-6-2a26 26 0 0114-12c-3-1-3-6 0-8s6-3 9-3c8-1 22-2 28-7-7-8 6-14 14-16z"/><path class="g" d="M1042 374l-6-7-9-15c-1-2-1-7 2-6-2-3-3-9 0-9a15 15 0 01-10-11c-1-3-1-6 1-8l3-3a8 8 0 002-8l4-3-1-3a4 4 0 000-7l2-4c2-6 11-10 17-6 3-4-1-10 2-13 2-3 6-1 10-1s7-2 11-4c5-1 10 0 15 2 4 2 9 4 11 9s2 10-2 13l-8 2-16 1a10 10 0 00-5 1 6 6 0 00-2 7 8 8 0 007 5c-1 3-4 5-7 6l-10 2c-3 2-5 5-3 8a8 8 0 016 2 22 22 0 00-6 11 102 102 0 0020 12l-5 4c-2 1-4 3-4 5s2 4 3 2l-1 8c-1 3-3 4-5 6-5 3-11 5-16 2z"/><path class="g" d="M1139 273l-2-1-4-3-5-2c-1-1-4-2-4-4l1-3a3 3 0 00-2-2 14 14 0 00-10 0h-4l-1-2c-1-3-3-4-5-5a18 18 0 00-7 1c-4 0-10 0-11 5a1 1 0 001 1h1a5 5 0 012 1c3 1 6 3 6 6a7 7 0 000 2c1 2 3 2 4 2l4-1c3 1 3 5 2 8s-4 5-4 8a25 25 0 006 2l-3 3c-1 1-2 4-1 5 1 2 5 1 6-1s4-4 7-3a10 10 0 013 1 14 14 0 007 1 4 4 0 003-1c2-2-1-8 2-9 1-1 3 0 5 1a5 5 0 003-10zM1069 336c-2 1-2 4-1 5a7 7 0 002 1c3 1 5 4 7 7v5l-3 1a5 5 0 00-2 7 25 25 0 012 2v6l-4 8a11 11 0 01-2 3l-6 3h-13a26 26 0 00-5-2c-2 0-4 1-4 3-1 2 1 4 3 4l7 1a4 4 0 012 1l1 5a7 7 0 0013 4 22 22 0 005 7c2 1 5 2 7 1s4-4 3-6l-4-4a7 7 0 010-10 7 7 0 013-1l5-2a4 4 0 000-3 17 17 0 00-2-7c3-1 7-3 9-6s0-9-4-9l-4-1v-3l2-4c0-3-5-5-7-8l-1-5c-1-4-6-5-9-3zM1009 342a3 3 0 000 2l3 1c1 0 3 2 3 4a32 32 0 010 7 16 16 0 001 8c1 2 3 4 6 4l1 5a7 7 0 002 4 3 3 0 004 0c1-2 0-4-1-5l-3-4v-6c0-3-2-5-3-8s-2-5 0-7a4 4 0 001-2 3 3 0 00-1-2c-2-6-11-9-13-1zM1026 273a6 6 0 003 1v2l-3 1a6 6 0 00-3 4l-2 6a4 4 0 000 2c1 2 3 2 4 0a7 7 0 001-4 8 8 0 012-4c3-3 9-1 12-4v-6c0-2 2-4 4-3s5-1 7-3c1-1 3-2 2-4a3 3 0 00-1-1c-2-2-5-1-8 1s-4 4-7 4c-5 0-10 2-11 8z"/><path class="ar" d="M368 709l-1-10v-12l-1-10a13 13 0 00-7-7c-7-4-14-1-22-1a75 75 0 01-11-1 33 33 0 00-6 0 39 39 0 00-5 1 23 23 0 01-6 0h-17a3 3 0 00-1-1h-36l-12 1a31 31 0 00-6 0 34 34 0 01-7 0 38 38 0 00-7-1h-15a12 12 0 00-5 1 7 7 0 01-1 2l-1 8c-1 2-4 5-6 4a7 7 0 011 2 22 22 0 01-1 5c0 4 2 7 3 10a2 2 0 01-1 2v1a2 2 0 010 2 10 10 0 01-1 4 28 28 0 00-1 4 11 11 0 000 4 18 18 0 001 5 5 5 0 005 0 22 22 0 0110-1l11 1 25 1h25l50-1h37a8 8 0 006-2 8 8 0 002-5v-2c0 1 0 0 0 0a3 3 0 001-4z"/><path class="as" d="M237 668c-5 0-9-2-9 3l-1 6c0 3 8 2 10 3 2 0 12 0 12-2 0-1 1-8-1-9-2-2-6-1-8-1zm0 0h11c2 2 1 8 1 10 0 3-10 2-12 2s-10 1-10-3l1-5c0-6 4-4 9-4z"/><path class="at" d="M237 668c-5 0-10-2-9 4 0 6-5 8 8 8 2 0 13 0 13-2v-7c0-2 0-3-3-3a9 9 0 00-4 0 40 40 0 01-5 0z"/><path class="au" d="M237 668h-8a3 3 0 000 3v4c2 2 1 3 6 3 1 0 7 1 9-1s3 6 4-1c1-2 0-6-1-8h-1a9 9 0 00-4 0 40 40 0 01-5 0zm7 2v1h-3l3-1zm2 5v1c-2-2 0-1 0-1zm-17 0l3 4-3-1v-2z"/><path class="av" d="M283 672l1 9s5 3 5 0v-12c-1-1-7-4-6 3zm0 0c-2-6 4-5 6-3v12c0 3-4 1-5 0l-1-9z"/><path class="aw" d="M283 672v6l1 3c2 0 2 2 5 1l1-7c0-2 0-6-2-7-4-2-6 0-5 4z"/><path class="ax" d="M290 672l-2-4c-3-1-5-1-5 1a13 13 0 010 1l1 7c0 3 1 2 2 3a2 2 0 003-1v-4a20 20 0 001-3z"/><path class="av" d="M196 700c0 1-2 8-1 9 0 0 4 4 5 1 1-2 3-9 2-11 0-1-6-6-6 1zm0 0c0-6 5-4 6-2s-1 10-2 12c-1 3-4 0-5-1s0-8 1-9z"/><path class="aw" d="M196 700l-1 6v3l4 2 3-7v-6c-4-3-6-2-6 2z"/><path class="ax" d="M202 702v-4c-3-2-5-3-6-1a15 15 0 010 2v6c-1 3 0 2 1 3a2 2 0 003 0l1-3a20 20 0 001-3z"/><path class="as" d="M287 710c-7 1-8-1-15-1-3 0 0-16 6-12h4l8 1-1 8-2 4zm0 0l1-4c1-2 2-6 1-7l-3-1-8-1c-5-3-9 11-6 12 7 0 8 2 15 1z"/><path class="ay" d="M287 710c-7 1-9-2-15-1-3 0 1-16 7-12h7c4 1 4 0 3 7-1 2 0 4-2 6z"/><path class="au" d="M271 706c0-4 3-12 8-9h7c2 1 4 0 4 2a1 1 0 01-1 0c-4 0-3 3-2 3a3 3 0 002 0v2a30 30 0 01-1 5 5 5 0 01-2-2c-1-1-2-7-2 1-4 1-3-4-3-5 0-7-1-3-3 0-4 6 1-4 1-4-1-2-3 3-3 3-2 5-4 5-5 4z"/><path class="av" d="M318 711c-3 0-10 2-9-4l1-5c-1-4 2-3 6-3 2-1 11-3 12-1 0 3 1 9-2 11a30 30 0 01-4 1l-4 1zm0 0l4-1 5-2v-10c0-2-11 1-13 1-7 1-2 2-4 7-2 7 4 5 8 5z"/><path class="aw" d="M318 711c-2 0-11 2-8-5 1-4-3-7 4-7 3 0 13-3 14 0 1 13 0 8-8 11a4 4 0 01-2 1z"/><path class="ax" d="M317 699l3-1a6 6 0 010 3c-1 1 3 3 5-3a3 3 0 000-1l3 2v2a19 19 0 00-1 4c-1 2-4 5-8 3-1 0-9 4-6-1-2-3-2-4 1-6-1-2 0 1 3-2z"/><path class="av" d="M361 695c-3 0-10 2-9-3l1-5c-1-4 2-3 5-4 2 0 12-3 12 0 1 2 2 9-1 10a31 31 0 01-4 1l-4 1zm0 0l4-1 5-1v-10c0-2-11 1-13 1-7 0-3 1-4 6-2 7 3 5 8 5z"/><path class="aw" d="M361 695c-2 0-11 3-8-5 1-4-4-6 4-6 3-1 13-4 13-1 1 13 0 9-8 12a4 4 0 01-1 0z"/><path class="ax" d="M359 683l4-1a5 5 0 010 3c-1 1 3 4 4-3h1l2 1v2a19 19 0 00-1 4c0 3-4 5-7 4-1-1-10 3-7-2-1-2-1-3 2-5-1-3 0 0 2-3z"/><path class="as" d="M236 706c3-7 4-9-7-9-7-1-6 1-6 6-1 2-1 2 1 3 2 2 10 1 12 0zm0 0c-2 1-11 2-12 1a1 1 0 010-1c-2-1-2-1-2-3 1-5 0-7 7-7 11 1 11 3 7 10z"/><path class="az" d="M236 706c1-4 5-9-3-9-12-1-9 0-11 7l2 2c1 2 10 1 12 0z"/><path class="ba" d="M238 701c0-2 0-4-5-4-10-1-10 0-10 5 7 1 3 3 9 1l2-1c1 2 3 1 4-1zm-5-3c1 0 2 2 0 2-8-1-6-3 0-2z"/><path class="as" d="M367 707c3-7 4-8-6-9-8 0-6 1-7 6l1 4c2 1 10 0 12-1zm0 0c-2 2-11 2-12 1-2-2-2-2-1-4 0-5-1-7 7-6 10 0 10 2 6 9z"/><path class="az" d="M367 707c2-4 5-8-2-9-13-1-10 0-11 7-1 1 1 3 2 3 0 1 10 1 11-1z"/><path class="ba" d="M369 702c1-2 0-3-4-4-11-1-10 0-11 5a1 1 0 001 0c6 1 2 3 8 2l2-1c1 1 3 0 4-2zm-5-2c1 0 2 1 0 1-7 0-5-2 0-1z"/><path class="as" d="M292 702h14c2-2-2-5-5-5h-4c-6 0-3 1-6 3-1 1 0 1 1 2zm0 0c-1-1-2-1-1-2 2-2 0-3 6-3h4c4 0 8 4 5 5h-14z"/><path class="ay" d="M292 702c7 1 18 1 14-3-4-3-5-2-9-2-7 0-3 1-6 3-1 1 0 1 1 2z"/><path class="au" d="M307 701l-1-2c-4-3-5-2-9-2-6 0-4 1-6 3h8c7 4 1-2 6 0a4 4 0 002 1z"/><path class="av" d="M234 684c-3 2-6-2-6 3l-1 5c0 2 5 2 7 2 3 1 6 1 7-3l-1-8c-1-1-5 1-6 1zm0 0c1 0 6-3 7-1v8c-1 5-3 4-7 3-2 0-7 1-7-2l1-5c0-5 3-2 6-3z"/><path class="ax" d="M234 684c-3 2-6-2-6 4 0 2-5 6 5 6 2 0 9 4 8-7-1-3 1-6-6-3h-1z"/><path class="aw" d="M234 684c-3 1-5-1-6 2a5 5 0 010 1v1l-1 3c2 2 9 0 11 2 1 1 2-1 3-3a18 18 0 000-3 3 3 0 00-4-1c-2 1-2-1-3-2z"/><path class="as" d="M220 710c-7 1-8-1-14-1-4 0 0-15 6-12h3l7 1c1 2-1 6-1 8l-1 4zm0 0l1-4 1-7-4-1-7-1c-5-3-8 11-5 12 6 0 7 2 14 1z"/><path class="az" d="M220 710c-7 1-9-2-14-1-3 0 0-16 6-12h6c5 1 5 0 3 7l-1 6z"/><path class="ba" d="M206 700c1-3 3-5 6-3h6c4 1 5 0 4 5a7 7 0 01-2-1l-5 2c-2 4-2 1-3 3 0 1-5 0-4-3l-2-3zm15 4a17 17 0 00-3 0c-2 0-1 1-2 3 0 1 0 3 3 1a12 12 0 002 0v-4z"/><path class="bb" d="M341 695l-14-1-2-7c1-6 10-5 15-5 2 0 12 0 12 4l-1 6-6 2-4 1zm0 0l4-1 7-2a55 55 0 000-6c0-5-17-5-20-4-8 1-9 6-5 12 0 2 12 2 14 1z"/><path class="az" d="M341 695c-2 1-14 0-14-1 0 0-9-12 7-12 4 0 18 0 18 4-1 7 2 6-6 7l-5 2z"/><path class="ba" d="M326 692c-2-3-3-9 6-10l1 1a3 3 0 004-1c4 0 13 0 14 3-2 1 4 5-8 7-4 1-2-1-2-2 2-5-2 1-3 2-5 3-4-5-8-1-2 1-3 2-4 1z"/><path class="as" d="M291 709c4 1 13 4 17 2 2-1-2-6-5-7h-5c-8-2-4-1-8 3l1 2zm0 0l-1-2c3-4 0-5 8-4l5 1c4 1 8 7 4 8s-12-1-16-3z"/><path class="ay" d="M291 709c8 3 21 5 17-1-4-5-5-4-10-5-8-1-4 1-8 4l1 2z"/><path class="au" d="M307 708c-3-5-4-4-9-5h-2a2 2 0 01-1 1 3 3 0 00-3 3c2 3 7-3 11 0 0 3-5 1-6 1 0 2 10 2 10 2v-2z"/><path class="as" d="M354 679c4 1 13 2 13-2 1-3-6-10-9-10l-3 1c-6 0-3 1-3 7l2 4zm0 0l-2-4c-1-6-4-7 3-8h3c3 0 11 8 9 11s-8 2-13 1z"/><path class="ay" d="M354 679c8 2 19 2 11-7-7-7-6-4-10-4-7 0-3 2-3 7l2 4z"/><path class="au" d="M364 671c-6-6-5-3-9-3h-2v1c-2 1 0 5 0 6 4 5 3-7 8-3 3 5-2 4-3 4 2 3 8-1 8 0l-2-5z"/><path class="av" d="M295 681l-4-2c-2-1 0 2 0 2l-1 2 3-1h2a3 3 0 001-1h-1zm0 0a1 1 0 001 0c2 0 0 2-2 1l-3 1c-2 1-1-1 0-2-1-1-2-3 0-2l4 2z"/><path class="aw" d="M295 681l-4-2c-2-1 0 2 0 2l-1 2 3-1h2s3-1 1-1a1 1 0 01-1 0z"/><path class="av" d="M294 683v1c-2 3-2 6-5 3-1-1-3-2 0-4s-1 2 3 0h2s0-1 0 0zm0 0a3 3 0 00-1 0c-1 1-3 2-4 0 0 0-2 1 0 3s2 4 3 0l2-3zm0 0z"/><path class="aw" d="M294 683h-1c-1 0-4 2-3 0 0 0-4 2-1 3 0 0 2 4 4 0a21 21 0 011-3z"/><path class="av" d="M265 681h7c4 0-1 2-3 2l-4-2zm0 0c4 1 5 2 8 0a4 4 0 00-1 0h-7z"/><path class="ay" d="M265 681h8c-3 3-4 1-8 0 0 1 0 0 0 0z"/><path class="av" d="M204 703c1 1-1 6-1 8-1 4-3-1-2-3l2-5h1zm0 0h-1c-2 5-3 5-1 9a4 4 0 000-1l2-8z"/><path class="ay" d="M204 703c1 1-1 6-1 7l-1 2c-2-4 0-5 1-9h1z"/><path class="av" d="M312 696c1 0 2 0 1 2s-4-1-8-1c-2 0-5-1 1-1h6zm0 0a22 22 0 01-6 0c-6-1-3 1-1 2l6 1c3 1 4-4 1-3z"/><path class="ay" d="M312 696s2-1 1 2-4-1-8-1c-2 0-5-2 1-1a18 18 0 006 0z"/><path class="av" d="M307 702a22 22 0 00-3 1l4 4a2 2 0 001 0l-2-5zm0 0c1 0 4 8 0 4-1-2-7-3 0-4z"/><path class="ay" d="M307 702l-3 1 2 2c2 1 3 4 3 1l-2-4z"/><path class="av" d="M366 709a21 21 0 00-2 1c1 1 2 0 4 3l-2-4zm0 0c2-1 4 8 1 4-2-2-7-4-1-4z"/><path class="ay" d="M366 709l-3 1 2 1c3 1 3 4 4 2l-3-4z"/><path class="av" d="M302 714l1 3h2c1-1 8-3 5-4h-7l-1 1zm0 0c2-2 4-1 7-1 3 1-1 2-3 3l-3 1-1-3z"/><path class="aw" d="M302 714l1 3 5-1c0-1 4-3 1-3-2 0-6-2-7 1z"/><path class="as" d="M213 695l8-1 7 1c-1 2-14 2-16 1-2 0-2-1 1-1zm0 0c-2 1-3 0-1 1s15 0 15-1h-4a24 24 0 00-3-1l-7 1z"/><path class="az" d="M213 695l8-1a18 18 0 004 1c3 0 4 1-2 1h-11s-3 0 0-1h1z"/><path class="av" d="M241 697a23 23 0 00-3-1l1 5a2 2 0 000 1l2-5zm0 0c1 1-3 9-3 3 0-2-3-7 3-3z"/><path class="ay" d="M241 697l-3-1v2c1 2 0 5 2 3l1-4z"/><path class="av" d="M237 710a21 21 0 003 1l-1-7c-1 0-3 5-2 6zm0 0c-2-1 2-11 2-5 0 4 4 9-2 5z"/><path class="ay" d="M237 710l3 1-1-3c-1-2 1-6-1-4 0 0-2 5-1 6z"/><path class="bb" d="M230 683l3-2 5-1c1 0 3 0 1 1a51 51 0 01-6 3h-3a1 1 0 010-1zm0 0c1 2 3 1 3 0l6-2a7 7 0 00-1 0h-5l-3 2z"/><path class="az" d="M230 683l3-2 5-1s4 0 0 2a14 14 0 01-2 1l-3 1a3 3 0 01-1 0l-2-1z"/><path class="as" d="M231 695l4 1c2 0 2 1-1 1 0-1 1-1-1-1 0 0-5 0-4-1h1a1 1 0 011 0zm0 0h-2c-2 1 5 1 5 1a2 2 0 002 0h-1l-4-1z"/><path class="ay" d="M231 695l4 1c1 0 2 1-1 1l-1-1h-3c-2 0-1-2 0-1z"/><path class="as" d="M206 710c1-1 3 1 5 1s2 1-1 1l-2-1s-5 0-3-1h1zm0 0h-1c-2 1 5 1 5 1a2 2 0 002 0h-1l-5-1z"/><path class="ay" d="M206 710c1-1 3 1 5 1 1 0 2 1-1 1l-2-1h-2c-2 0-1-2 0-1z"/><path class="av" d="M205 695a43 43 0 000 5l3-4c1-1-1-1-2-1h-2zm4 1zm-4-1h3l1 1-4 4v-5z"/><path class="aw" d="M205 695l-1 3c0 1 0 4 1 2l4-4-2-1h-2z"/><path class="av" d="M265 696h3l1 1a9 9 0 003 0l-1 4-4-4s-3 0-2-1zm0 0l4 2 2 2 1-3a9 9 0 01-3 0l-1-1h-3zm6 4"/><path class="aw" d="M265 696h2l2 1a5 5 0 003 0v3c-1 2-2-2-3-2a10 10 0 00-4-1v-1z"/><path class="av" d="M267 694l4 2h1l-1-1c-2-2-1-3-4-1zm0 0a3 3 0 011 0c1-1 1-2 2 0l3 2h-2c-1 1-3-1-4-2z"/><path class="aw" d="M267 694l3 2c2 0 1-1 2 1v-2c-2 0-2-3-3-2l-2 1z"/><path class="as" d="M242 681v3l2-3h-2zm0 0h1c3-1 0 1 0 1l-1 3v-4z"/><path class="ay" d="M242 681v3l1-2c1-1 2-1 0-1h-1z"/><path class="as" d="M227 681v3c0-1 0-2 2-3h-2zm0 3v-3l1-1c3 0 0 2 0 2l-1 2v-3z"/><path class="ay" d="M227 681v2c0 3 1-1 1-1 1-1 2-2 0-2l-1 1z"/><path class="av" d="M241 693c0 1-2 2 1 3 2 1-1-3-1-3zm0 0c1-1 2 2 2 2 1 1 0 2-1 2-3-2-1-3-1-4z"/><path class="aw" d="M241 693c0 1-2 2 1 3l1-1-2-2z"/><path class="as" d="M288 697l3-4c1-2 1-1 2 1l2 1-3 3c-1 1-2 0-3-1h-1zm0 0h1l3 1 2-3-1-1c-1-2-1-2-2-1l-3 4z"/><path class="ay" d="M288 697l3-4c1-1 1 0 2 1l1 1c1 1-2 1-2 2h-3-1z"/><path class="as" d="M270 710c2 2 1 5 3 2 0-1 3-1 2-2-1 0-1 1-3-1l-2 1zm0 0c-1 0 0-2 2-1l3 1c2 1-1 1-2 2-2 3-1 0-3-2z"/><path class="ay" d="M270 710c2 1 1 5 3 2 1-1 4 0 2-2-1-1-1 1-3-1-2-1-3 1-2 1z"/><path class="as" d="M288 710h4c4 1 5 3 3 2l-4-1c-2 0-3 1-3-1zm0 0l1 1h4l3 1a18 18 0 00-4-2h-4z"/><path class="ay" d="M288 710h4s5 1 3 2a7 7 0 00-2 0l-4-1-1-1z"/><path class="av" d="M328 710h4a10 10 0 002 1c2 0 1 4 0 4s-1-3-4-4l-2-1zm0 0c-1 1 2 1 4 2l2 2v-3a9 9 0 01-2 0l-2-1h-2zm6 4"/><path class="aw" d="M328 710h2l2 1a5 5 0 002 0c2 0 0 2 0 3 0 2-2-2-2-2a10 10 0 00-4-1v-1z"/><path class="av" d="M352 694l-1 2c1 1-1 1-2 1s-9 0-6-1l7-3a7 7 0 012 1zm0 0h-1c-2-2-4 0-7 1-3 2 2 2 4 2l3-1 1-2z"/><path class="aw" d="M352 694l-1 2c-2 2-2 1-5 1-1 0-6-1-2-2 2 0 5-3 7-1h1z"/><path class="av" d="M343 711l7-1c4-1 0 2-2 2l-5-1zm0 0c5 1 5 1 8-1a5 5 0 00-1 0l-7 1z"/><path class="ay" d="M343 711l7-1h1c-3 3-4 1-8 1 0 1 0 0 0 0z"/><path class="av" d="M346 681h7c4 0 0 2-2 2l-5-1v-1zm0 0v1c5 1 5 2 9-1a4 4 0 00-2 0h-7z"/><path class="ay" d="M346 681h9c-4 3-5 1-9 1v-1z"/><path class="av" d="M370 697h-7c-4 0 1-2 3-2l4 2zm0 0c-4-1-5-2-8 0a4 4 0 001 0h7z"/><path class="ay" d="M370 697h-7-1c3-3 4-1 8-1v1z"/><path class="as" d="M222 711h14c2-1-2-4-5-4l-4 1c-6 0-3 0-6 2l1 1zm0 0l-1-1c2-2 0-3 6-3h4c3 0 8 3 4 4h-13z"/><path class="az" d="M222 711c6 1 18 1 14-2-4-2-5-2-9-2-6 0-3 1-6 3l1 1z"/><path class="ba" d="M237 710l-1-1c-4-2-5-1-9-2-6 0-4 1-6 3l8-1c6 4 1-1 6 1a4 4 0 002 0z"/><path class="bb" d="M322 695l3-1 3 2 1 1a36 36 0 01-5 0l-2-1a1 1 0 010-1zm0 0c0 2 2 1 2 2l5-1a5 5 0 00-1 0c-1-1-2-2-3-1h-3z"/><path class="az" d="M322 695h3c1-1 2 1 3 1 0 0 3 1 0 1a10 10 0 01-2 0h-2a2 2 0 01-1 0c-1-1-2-1-1-2z"/><path class="bb" d="M324 691l-1 2c-1 2 1 0 1 0l2 1-1-2v-1a2 2 0 00-1-1v1zm0 0a1 1 0 000-1l1 1a1 1 0 010 1l1 1c0 2-1 1-2 1 0 0-2 1-1-1l1-2z"/><path class="az" d="M324 691l-1 2c-1 2 1 1 1 1h2l-1-2v-1l-1-1a1 1 0 010 1z"/><path class="bb" d="M322 682l4 1 3-1 1-1a42 42 0 00-5 0l-3 1zm0 0l3-1h5a5 5 0 01-1 1l-3 1-4-1z"/><path class="az" d="M322 682l3 1c1 1 3-1 4-1 0 0 3-1 0-1a12 12 0 00-2 0h-2a3 3 0 00-1 0l-2 1z"/><path class="av" d="M321 697a21 21 0 00-3-1l-4 1a6 6 0 004 1l3-1zm0 0l-3 1a6 6 0 01-4-1l4-1a9 9 0 013 1z"/><path class="aw" d="M321 697l-2-1a3 3 0 00-1 0 15 15 0 00-4 1l2 1a4 4 0 002 0l3-1z"/><path class="av" d="M330 706a25 25 0 00-2 2l5 2a2 2 0 001 0l-4-4zm0 0c2-1 7 6 2 4-2-1-7-1-2-4z"/><path class="ay" d="M330 706l-2 2 2 1c2 0 4 3 4 0l-4-3z"/><path class="bb" d="M253 682c-6 0-9-1-10 6-1 2-1 8 4 7h12c7 0 10-2 9-9 0-4-3-4-7-4a31 31 0 00-8 0zm0 0h8c4 0 7 0 8 3 0 8-2 10-10 10h-12c-5 2-5-4-5-7 1-7 5-7 11-6z"/><path class="az" d="M253 682h-8c-4 2-4 16 2 13h10c1-1 12 3 11-9 0-2 0-4-4-4h-11z"/><path class="ba" d="M253 682a8 8 0 01-1 0c-3 5-3 1-3 0a12 12 0 00-4 0 3 3 0 00-1 1c0 5 0 12 3 10 2-2 8 1 8-1 0-7 2-9 3-11a18 18 0 00-5 1zm15 8s-2-1-4 3c-2 3-6 1-4-1l1-2c-4 5-5 0-4-1 0-1-1-4 1-7h6c4 1 4 2 5 4a13 13 0 01-1 4z"/><path class="bc" d="M246 683l3-1v1c0 2 0 2 2 2a5 5 0 002-2c0 2-2 3-4 3l-1-3a6 6 0 01-2 0zm3-1z"/><path class="bb" d="M211 666c-7 0-10-1-11 6 0 3 0 9 4 7h13c7 0 9-2 9-9 0-4-4-3-7-4a30 30 0 00-8 0zm0 0h8c4 0 7 0 7 4 1 7-2 10-9 9l-4 1h-9c-4 1-5-5-4-8 1-7 4-6 11-6z"/><path class="az" d="M211 666h-8c-4 2-5 16 1 13 3-1 7 2 11 0 1-1 12 3 11-8 0-3 0-4-4-5h-11z"/><path class="ba" d="M211 666a12 12 0 01-2 0c-2 5-3 2-2 0a12 12 0 00-4 0 3 3 0 00-1 2c-1 4 0 12 3 9 2-2 8 2 8-1 0-6 1-9 2-10a18 18 0 00-5 0zm15 8c-1 1-2-1-5 3-2 3-5 1-3-1 0-1 4-7 0-2s-5 0-4-1 0-4 2-7h6c4 1 4 2 4 5a14 14 0 010 3z"/><path class="bc" d="M203 667c1 0 3-2 4-1a7 7 0 010 2l2 1a4 4 0 001-1l-3 2c-2 0-2-2-1-3a6 6 0 01-3 0zm3 0z"/><path class="bb" d="M279 696c-7-1-9-1-9-7-1-4 0-5 4-7h9l7 7c1 1 0 5-3 6l-8 1zm0 0a41 41 0 007-1c4 0 6-4 4-6s-4-6-7-7h-9c-5 2-5 3-5 7 1 6 3 7 10 7z"/><path class="az" d="M279 696c-4 0-6 0-8-2-1-1-2-9 0-10 5-3 4-2 11-2 3 0 5 5 8 7v4c-1 3-7 3-11 3z"/><path class="ba" d="M270 692c-1-3-1-7 1-8 5-3 4-2 11-2a3 3 0 012 0c0 2 0 4 2 4l1-1a17 17 0 003 4c-3 7-6 2-9 3-3 2-4-1-7 0h-4zm5-8c-4 0-3 5-1 2h2l-1-2z"/><path class="bc" d="M276 683c2-1 5-2 6-1l2 3 2 1c-2 0-4 0-4-2s-5-1-6-1z"/><path class="bb" d="M359 724c-8 0-9 0-10-6 0-4 0-5 4-7h9l7 7c2 1 0 5-3 6h-7zm0 0a40 40 0 006 0c5 0 6-5 5-6-3-2-5-7-7-7h-10c-4 2-5 3-4 7 0 6 2 7 10 6z"/><path class="az" d="M359 724c-5 0-6 1-9-1-1-1-2-9 0-10 6-4 4-2 11-2 4-1 5 5 8 7v4c-1 3-6 2-10 2z"/><path class="ba" d="M349 721c0-3-1-7 1-8 6-4 4-2 11-3a3 3 0 012 1c1 1 0 4 2 3h1a17 17 0 003 4c-3 7-5 2-9 3h-11zm5-8c-4 0-2 5-1 2l3-1-2-1z"/><path class="bc" d="M356 712c1-1 4-2 6-1s0 2 1 3l2 1c-2 0-3 0-4-2 0-2-4-1-5-1z"/><path class="bb" d="M309 682c-6 0-15-2-16 6 0 4 1 7 5 7 5-1 20 1 23-1 2 0 6-12-3-12h-9zm0 0a78 78 0 0110-1c8 1 5 11 3 13-3 3-19 0-24 1-6 1-6-7-3-11s10-2 14-2z"/><path class="az" d="M309 682s-10-1-13 1c-5 3-4 13 2 12 4-1 22 2 24-1s4-12-3-12h-10z"/><path class="ba" d="M297 687c6-2 12 1 4 0 0 0-6 2-4 0 0-1 0 0 0 0zm12-5s-10-1-13 1a8 8 0 00-3 7 3 3 0 003 2h6c6 0 8-2 12-4 3-3 9 0 7 0-5 0-10 0-10 5h11c2-4 3-11-3-11h-10z"/><path class="bc" d="M304 691l7-3c2-2 6-3 8-2a5 5 0 001 1h-1c-2-1-5 0-6 1-4 2-4 3-9 3z"/><path class="as" d="M294 669c4-2 6-1 10-2 2 0 14-1 16 1v8c1 4-2 3-6 3l-12 2c-6-1-11 0-11-7 0-3-1-4 3-5zm0 0c-4 1-3 2-3 6 1 6 6 5 11 5l12-1c4 0 7 1 6-3l-1-8c-1-2-11-1-13-1l-12 2z"/><path class="ay" d="M294 669c3-2 5-1 8-1 3-1 16-2 17 0 2 1 0 6 1 8 1 1 0 3-2 3-5 0-12 2-16 1-3 0-10 2-11-5v-2c0-3 0-3 3-4z"/><path class="au" d="M294 669c3-2 5-1 8-1 3-1 16-2 17 0 2 1 0 6 1 8a2 2 0 010 2 39 39 0 01-6 1 4 4 0 01-2 0l-1-1c-2 0-3-2-1-3l1-1h4l2-1 1-1h-1a7 7 0 01-3 1h-5l-3 2-8 1-7-1v-2c0-3 0-3 3-4z"/><path class="bd" d="M291 672c2-3 5-2 8-3l8-2a17 17 0 018 2h1l-3-1c-5-1-8 0-13 1l-9 3z"/><path class="as" d="M254 714c0 2 2 9-2 10-5 0-26 1-27-5 0-1 0-6 2-6 2-2 23-1 26 0a9 9 0 011 1zm0 0a5 5 0 00-1-1c-3-1-24-2-27-1l-1 7c0 7 22 6 28 5 4-1 2-8 1-10z"/><path class="az" d="M254 714c1 2 2 9-1 10-5 0-28 1-28-5 0-8-1-7 13-7l15 1a6 6 0 011 1z"/><path class="ba" d="M254 714l1 2a1 1 0 01-1 1c-4-1-1 4-7 0-6 3-5 1-10-1-3-1-6 6 0 3 3-2 2 0 5 0 2 0-2 2-4 3-2 0-2 1-1 2-6 0-12-2-12-5 0-6 0-7 5-7h3a2 2 0 001 0h4l15 1a6 6 0 011 1zm1 5c-1-1-2-2-4-1-2 3-4 1-4 2 1 5 2 3-1 4h7c1 0 2-2 2-5z"/><path class="bc" d="M226 714c4-4 3 0 6-1l3-1a58 58 0 0111 1h-12a16 16 0 01-3 1c-2 0 0-2-5 0z"/><path class="av" d="M270 724c1-3 2-11-2-13h-6c-3 0-4-1-5 2-3 8 3 13 11 12zm0 0l-2 1c-8 2-14-4-11-12 1-3 2-3 5-2s5-2 8 1 2 8 0 12z"/><path class="aw" d="M270 724c2-3 2-16-5-13-4 1-8-4-9 5-1 8 8 11 14 8z"/><path class="ax" d="M271 715c-1-3-3-6-6-4-3 1-7-3-9 3 2 0 4-2 4 5 0 3-3 0-4-1a7 7 0 002 4 4 4 0 004-2c2-3 8-1 9-5z"/><path class="be" d="M261 720a10 10 0 016-3l3-2-1 1-4 3-4 1z"/><path class="av" d="M300 723c1-2 3-10-1-10l-14-1h-7c-4 1-5 0-5 5 0 2-1 6 1 6h6c4 1 8 1 11-1 0 0 8 2 9 1zm0 0h-9l-10 1-8-1c-2-1 0-7 0-8 0-4 2-3 5-3h7l14 1c5 0 2 8 1 10z"/><path class="aw" d="M300 723c1-3 3-10-1-10l-14-1h-7c-2 0-5-1-5 5 0 5-1 7 5 7 2-1 10 1 13-1h9z"/><path class="ax" d="M301 718c1-2 1-5-2-5l-14-1h-7c-2 0-5-1-5 5v3l3 1c3-3 12 0 13-1 1-2 2-1 0-3-4-2-3 0-4-3-3-4 8 5 9 4 3-3 6 0 7 0z"/><path class="be" d="M290 714l3 3c1 0 5-2 6 0-2-1-3 1-6 1l-3-4z"/><path class="av" d="M335 715l2 8s9 2 10 0c0-2 1-9-1-10-1-1-12-4-11 2zm0 0c-2-5 8-4 11-2 3 1 2 8 1 10s-7 1-10 0c-2 0-2-6-2-8z"/><path class="aw" d="M335 715l1 5 1 3c4 1 5 2 9 1 2 0 1-5 2-6 0-2 0-5-2-6-8-2-12 0-11 3z"/><path class="ax" d="M347 721v-3c1-1 0-4-2-5-6-2-10-1-10 1l1 5c0 2 6 3 7 2s2-2 2 0h2z"/><path class="be" d="M338 714l4-1a8 8 0 014 2l-3-1h-5z"/><path class="as" d="M353 698c0 2 1 9-2 10l-7 1h-8c-2 1-3-1-5-2-5-6-2-10 5-10 6 1 7 2 13 1a12 12 0 003-1l1 1zm0 0l-1-1a14 14 0 01-3 1c-6 1-7 0-12-1-8 0-12 4-6 10 2 2 3 3 5 3h8c4 0 4-1 7-2 3 0 2-8 2-10z"/><path class="ay" d="M353 698c0 2 1 10-2 10-2 0-3 2-10 2s-5 1-10-3c-4-4-3-9 2-10 5 0 8 2 15 1l4-1z"/><path class="au" d="M353 698l-1 8-1-1-6 1c-3 1-6-1-8 1-5 5-7-7-6-8 4-3 4-1 6-2 3 1 6 2 11 1l4-1z"/><path class="bd" d="M331 700c4-3 3-1 5-1l3-1a46 46 0 0110 1h-11a13 13 0 01-2 1c-3 0-1-2-5 0z"/><path class="av" d="M266 667c-3 2-3 1-6 1-2 0-7-1-8 1l-2 3c-1 1 0 6 2 7 4 3 7 1 12 1a69 69 0 0111 0c1 0 7 1 7-1v-11c-1-2-6-1-8-1a53 53 0 00-8 0zm0 0a41 41 0 018 0c2 0 7-1 8 1l1 11c-1 2-6 2-8 1a75 75 0 00-11 0c-5 0-8 2-13 0-1-1-2-7-1-8l1-3c2-2 7-1 9-1 3 0 3 1 6-1z"/><path class="aw" d="M266 667l-4 1h-4c-3 0-7-1-7 3 0 2-2 0-1 5 0 3 0 3 3 4 4 2 7 0 11 0h11a22 22 0 006 0c2 0 1-3 1-5v-3c0-5 0-5-6-5h-10z"/><path class="ax" d="M260 668a15 15 0 00-2 0c-3 0-7-1-7 3 0 2 2 4 3 4 3 0 6 2 9 0l3-3h5c3 2 8-1 11-2 0-3-1-3-6-3h-6c-3 2-4 3-10 1zm20 12a6 6 0 01-3 0c-6-4-9-1-15-1-2 0-9-1-9-3 4-1 4 2 10 1 5-1 0-3 10-3 2 0 6-2 9-1v2c0 2 2 4-1 5z"/><path class="be" d="M281 670c0-2-1-3-4-2l-7 1a17 17 0 01-6 0l5-1 7-1c3 0 6-1 5 3z"/><path class="av" d="M210 694c3-2 2-1 6-1 2 0 7 1 8-1l1-3c1-1 1-7-1-7-5-3-7-1-12-1a69 69 0 01-11 0c-2 0-7-1-8 1l1 10c1 2 6 2 8 2a52 52 0 008 0zm0 0a41 41 0 01-8 0c-2 0-7 1-8-1l-1-11c1-2 6-2 8-2a75 75 0 0011 1c5-1 8-2 12 0 2 1 3 7 2 8l-2 3c-1 2-6 1-8 1-4 0-3-1-6 1z"/><path class="aw" d="M210 694c2-2 1-1 4-1h4c3 0 6 1 7-3l1-5-3-4c-5-2-7 0-11 0h-11a23 23 0 00-6 0c-3 0-1 3-1 4v3c0 6 0 6 6 6h10z"/><path class="ax" d="M216 693a15 15 0 002 0c3 0 6 1 7-3l-3-4c-4 0-6-2-9 0-1 0-1 2-3 2l-6 1c-2-2-7 1-10 1 0 4 1 4 6 4h5c3-2 5-3 11-1zm-20-12a6 6 0 012 0c6 4 10 1 16 1 1 0 9 1 9 3-4 1-4-2-10-1-5 1 0 3-10 3-2 0-7 2-9 1v-2c0-2-2-5 1-5h1z"/><path class="be" d="M195 691c0 2 1 3 3 2l8-1a17 17 0 016 0h-6l-6 2c-2 1-6 0-5-3z"/><path class="as" d="M257 696l-11 1c-5 0-5 2-6 7 0 3 0 7 4 7h3c5 1 6 1 11-1 2-2 10 0 11-2 4-12-5-10-12-12zm0 0c8 1 17 0 12 12 0 2-8 0-11 2-5 3-6 2-11 1h-3c-4 0-5-4-4-7 1-5 2-8 6-8h11z"/><path class="ay" d="M257 696c-9 2-14-2-16 4-1 4-2 12 4 10 1 0 8 4 13 0 2-2 10 0 11-2 4-12-5-11-11-12a4 4 0 00-1 0z"/><path class="au" d="M256 696h-1a29 29 0 01-4 8 20 20 0 01-3 3l2-3a19 19 0 003-8c-6 1-11-1-12 4-3 11 4 14 11 5 2-2 3-7 5-3l3 7h4-1c-2-1 1-8-1-11-1-2-5 0-6-2zm-3 16c0-3 3-8 4-2a9 9 0 01-4 2zm15-14c4 5 1 10-2 8-3-3-3-8-1-9a10 10 0 012 1z"/><path class="bd" d="M242 699c-2-2 4-2 5-2a23 23 0 003 0c1-1 4-2 5-1l-4 2h-7l-2 1z"/><path class="ay" d="M241 709l8-8c3-2 2-3 3-5a6 6 0 01-2 5l-2 2c-2 4 1 3 0 7 1-4-1-3-1-5a1 1 0 010-1c-2 3 1 4-1 6 1-3-1-4 1-6l2-3-8 8zm11-13z"/><path class="as" d="M334 717v6c-3 2-13 1-17 2-4 0-11 2-12-3 0-4 0-3 4-6l9-4c4-1 12-1 15 2a5 5 0 011 3zm0 0l-2-4c-3-2-13-3-16-1l-11 7v4c2 5 8 3 12 2s14 0 17-2v-6z"/><path class="ay" d="M334 717v6c-2 2-9 2-11 2-5 0-4-1-9 1-4 0-9 0-9-4 0-3-1-3 3-5 3-1 8-6 10-6 5 0 16-1 16 6z"/><path class="au" d="M305 719a14 14 0 013-2c3-1 8-6 10-6 4 0 13-1 15 4 0 3 1 4-6 5h-10l-11-1z"/><path class="bd" d="M311 716c4-3 15-6 18-3l1 1-1-1c-4-2-13 1-18 3z"/><path class="as" d="M313 714l5 5c3 2 3 9 2 3l-5-4c-2-4 0-3-2 2l1-5-1-1zM322 680v-9c0-5 4-3 8-4h19l1 7c0 3 1 6-2 6h-26zm0 0h26c2 0 2-3 1-5l-1-7c0-2-14 0-16 0-7 0-10-2-10 5v7z"/><path class="ay" d="M322 680v-9c1-4 3-3 7-3l12-1c1 0 7-1 8 1l1 7c0 1 1 5-2 5a173 173 0 00-18 0h-8z"/><path class="au" d="M328 668h1l12-1c1 0 7-1 8 1a8 8 0 010 1l-2 3c3 2 3 2 2 5-2 4-5 2-5 0-1-4-4 0-6 2h-13c-3-1-3-3-3-5 0-4 2-4 2-5l4-1zm0 4a8 8 0 012-1l1-1a1 1 0 01-2-1s-6 3-1 3zm15 5c-1 0-4-1-3 1a2 2 0 003-1s0-1 0 0z"/><path class="bd" d="M334 668l12 1h-1c-4 1-7 0-11-1z"/><path class="ay" d="M322 676a6 6 0 002-2l5-1h-1l-4 1-2 2c0-1 0 1 0 0z"/><path class="as" d="M197 725l-1-9c1-5 5-3 9-3 2-1 18-2 18 0l1 7c1 2 1 5-2 5h-25zm0 0h25c3 0 2-3 2-5l-1-7h-17c-6 0-10-2-10 5l1 7z"/><path class="ay" d="M197 725l-1-9c0-4 3-3 7-3l12-1 8 1 1 7c1 1 1 5-2 5a175 175 0 00-18 0h-7z"/><path class="au" d="M203 713l12-1 8 1a8 8 0 010 1l-1 3c2 3 2 2 1 5-2 4-4 2-4 0-1-4-4 0-7 2h-13c-2-1-2-3-2-5 0-4 2-4 2-5l4-1zm0 4a8 8 0 012-1v-1a2 2 0 01-1-1s-7 4-1 3zm14 5s-3-1-2 1a2 2 0 002-1c1 0 1 0 0 0z"/><path class="bd" d="M209 713l12 1h-2c-4 1-6 0-10-1z"/><path class="ay" d="M196 721a6 6 0 002-2l5-1-4 1c-1 1-2 3-3 2zM313 714l5 5c3 2 3 9 2 3l-5-4c-2-4 0-3-2 2l1-5-1-1z"/></g></svg>