<svg xmlns="http://www.w3.org/2000/svg" xmlns:xlink="http://www.w3.org/1999/xlink" viewBox="0 0 1501 1001"><defs><radialGradient id="a" cx="1217.1" cy="1237.2" r="51.8" gradientTransform="matrix(1 0 0 -1 -145 1445)" gradientUnits="userSpaceOnUse"><stop offset="0" stop-color="#c0a373"/><stop offset="1" stop-color="#fff" stop-opacity="0"/></radialGradient><linearGradient id="b" x1="1394.2" y1="982.5" x2="1394.2" y2="887.8" gradientTransform="matrix(1 0 0 -1 -146 1444)" gradientUnits="userSpaceOnUse"><stop offset="0" stop-color="#a0edf0"/><stop offset="1" stop-color="#45dbe2"/></linearGradient><style>.c{isolation:isolate}.b{fill:#70b344;stroke:#5f732e}.aa,.at,.b,.t,.u,.x,.y{stroke-miterlimit:10}.c{opacity:.25}.d{fill:#5c4328}.aa,.d,.e,.f,.g,.h,.i,.j,.k,.l,.m,.n,.o,.p,.q,.x,.y{fill-rule:evenodd}.e{fill:#544730}.f{fill:#877657}.g{fill:#ae9c87}.h{fill:#68543c}.i{fill:#9d8264}.j{fill:#b49871}.k{fill:#8f7e5f}.l{fill:#857c68}.m{fill:#a59b84}.n{fill:#67604f}.o{fill:#bdb29a}.p{fill:#c1b09a}.q{fill:#cdb186}.s{fill:#ddc02c}.t,.u{fill:#3f2b0f}.aa,.at,.t,.u,.x,.y{stroke:#1d150c}.u{stroke-width:1.14px}.x,.y{fill:#571c10}.y{stroke-width:1.04px}.aa{fill:#c0a373}.ab{fill:#78a015}.ac,.aw{fill:#7ebb15}.ad{fill:#94d31a}.ae{fill:#897d6f}.af{fill:#635a52}.ah{fill:#91887b}.al{fill:#8ab550}.am{fill:#97c261}.an{fill:#a9d171}.ao{fill:#b3db7b}.ap{fill:#dcf5f5}.aq{fill:#f2ffff}.ar{fill:#fff}.as{fill:#fddfb3}.at{fill:#1d150c}.au{fill:#81a653}.az{mix-blend-mode:multiply}.aw{mix-blend-mode:screen}.ax{fill:#bdbdbd}.ay{fill:#d9d9d9}.az{fill:#cfcfcf}.ba{fill:#cbcbcb}.bc{fill:#c6c6c6}.bd{fill:#e8e8e8}</style></defs><g style="isolation:isolate"><path class="b" d="M1001 501h250v250h-250zM1251 251h250v250h-250zM1001 251h250v250h-250zM1001 1h250v250h-250zM1251 1h250v250h-250zM751 251h250v250H751zM751 1h250v250H751zM751 501h250v250H751zM501 251h250v250H501zM251 251h250v250H251zM501 501h250v250H501zM251 501h250v250H251zM751 751h250v250H751zM251 751h250v250H251zM1001 751h250v250h-250zM501 1h250v250H501zM1251 501h250v250h-250zM1251 751h250v250h-250zM501 751h250v250H501zM251 1h250v250H251zM1 1h250v250H1zM1 751h250v250H1zM1 251h250v250H1zM1 501h250v250H1z"/><use class="c" transform="rotate(27 162 2430) scale(.09)" xlink:href="#c"/><path class="d" d="M1266 319l4-10 5-10c2-3 4-6 4-10a13 13 0 00-3-10c-4-6-12-7-19-10a75 75 0 01-9-6 33 33 0 00-5-3 40 40 0 00-6-1 22 22 0 01-5-3l-5-3-10-5a4 4 0 00-1-1l-21-11-10-6c-4-2-7-4-11-4a4 4 0 00-1 0 31 31 0 00-5-3 34 34 0 01-5-3 37 37 0 00-7-5l-6-3-7-3-5-1a6 6 0 01-1 1l-5 6c-2 2-6 3-7 1h-1a7 7 0 010 3 22 22 0 01-2 3l-3 11a2 2 0 01-2 1v1a2 2 0 01-1 2 10 10 0 01-3 3 29 29 0 00-3 3 12 12 0 00-1 3 19 19 0 00-1 5 5 5 0 004 3 22 22 0 0110 3l9 6 21 12 23 11 44 23 22 11 11 6a8 8 0 006 1 8 8 0 004-4l1-2h1a3 3 0 002-2z"/><path class="e" d="M1168 222c-4-3-7-6-9-1l-3 5c-2 2 6 5 8 6 1 1 10 6 11 4 1-1 4-7 3-8-1-3-5-3-7-5zm0 0l3 1c3 1 6 2 8 5 1 1-3 7-4 9s-10-3-12-4-9-4-8-7l4-5c2-5 5-2 9 1z"/><path class="f" d="M1168 222c-3-2-7-6-9-1-2 6-8 5 4 11 1 1 11 7 12 5l3-6c1-3 1-3-1-5a9 9 0 00-4-2 43 43 0 01-5-2z"/><path class="g" d="M1168 222l-6-4a3 3 0 00-2 3s-2 2-1 4c0 2-1 3 3 5 1 0 6 4 8 3s1 6 5 1c1-1 3-5 2-7v-1a9 9 0 00-4-2 42 42 0 01-5-2zm6 5c2 0 0 1-1 1l-2-1h3zm0 5l-1 1c-1-2 1-1 1-1zm-16-7l1 4c0 1-3-1-2-2l1-2z"/><path class="h" d="M1208 246c-1 1-4 8-3 9 0 0 3 4 4 2s6-8 5-10c0-1-4-7-6-1zm0 0c1-6 6-2 7 0l-5 11c-2 3-5-1-6-2l4-9z"/><path class="i" d="M1208 246l-3 6v3c1 1 1 3 3 3l4-6c1-1 3-5 2-6-2-4-5-4-6 0z"/><path class="j" d="M1214 250v-4c-2-3-3-4-5-2a15 15 0 01-1 1l-2 6c-1 3 1 3 1 4a2 2 0 003 0l2-2a21 21 0 002-3z"/><path class="h" d="M1118 231l-5 8s1 5 3 3c2-1 8-7 8-9 0-1-3-7-6-2zm0 0c2-5 6-1 6 2 0 2-6 8-7 9-3 2-4-1-5-3l6-8z"/><path class="i" d="M1118 231l-4 5-2 3c1 2 1 3 4 4l5-5 3-5c-2-5-4-5-6-2z"/><path class="j" d="M1123 236l1-3c-1-4-3-5-5-4a16 16 0 01-1 2l-3 5c-2 3 0 2 0 3a2 2 0 002 2l3-3a20 20 0 003-2z"/><path class="e" d="M1194 282c-7-2-7-4-13-7-3-2 7-14 11-8l3 2 7 4-5 6c-1 2-1 3-3 3zm0 0l3-3 4-6-3-2c-1-2-5-3-6-4-3-5-13 6-10 7 5 4 5 6 12 8z"/><path class="k" d="M1194 282c-7-2-7-5-12-8-3-1 7-14 11-7l5 3c4 3 5 2 0 8-1 2-2 4-4 4z"/><path class="g" d="M1182 272c1-4 8-10 11-5l6 3c2 2 3 2 2 4-4-2-4 0-3 1a3 3 0 001 1l-1 2a29 29 0 01-2 4 5 5 0 01-2-3c0-1 2-7-2 0-4-1 0-5 0-5 4-7 0-3-2-2-7 4 2-3 2-3-1-2-4 1-5 1-3 3-5 3-5 2z"/><path class="h" d="M1222 297c-3-1-10-3-7-7l3-4c1-4 3-2 7-1 1 1 11 3 10 6 0 2-3 8-5 8a31 31 0 01-5-1l-3-1zm0 0l4 1 4 1c2-1 5-7 5-9 1-2-10-4-12-5-7-2-3 1-7 4-4 5 1 6 6 8z"/><path class="i" d="M1222 297c-2-1-12-3-6-8 3-3 0-7 7-4 3 1 13 3 12 6-5 12-4 8-12 7a5 5 0 01-1-1z"/><path class="j" d="M1226 286l3 1a5 5 0 01-2 2c0 1 2 5 6 0v-1c2 1 3 2 2 3l-1 2a19 19 0 00-2 3c-2 2-6 2-8 0-1-1-11-2-6-5 0-3 0-4 4-4 0-3 0 1 4-1z"/><path class="h" d="M1267 303c-3-1-10-3-7-7l3-4c1-4 3-2 7-1 2 1 12 3 10 5 0 2-3 9-5 9a30 30 0 01-4-1l-4-1zm0 0l4 1 4 1c2-1 5-8 5-9 1-2-10-4-12-5-7-3-3 0-7 4-4 5 1 6 6 8z"/><path class="i" d="M1267 303c-2-1-12-3-6-8 3-3 0-7 7-4 3 1 13 3 12 5-5 12-4 8-12 7a4 4 0 01-1 0z"/><path class="j" d="M1271 292l3 1a6 6 0 01-2 2s2 4 6-1l2 2-1 2a19 19 0 00-2 3c-2 3-6 3-8 0-1 0-11-1-6-4 0-3 0-4 4-4 1-3 0 0 4-1z"/><path class="e" d="M1150 255c6-5 8-6-1-11-6-4-6-2-9 2v4c1 3 8 5 10 5zm0 0c-2 1-10-3-10-5a1 1 0 01-1 0c-1-2 0-2 1-4 3-4 2-6 9-2 9 5 8 6 1 11z"/><path class="l" d="M1150 255c3-3 9-5 2-9-10-7-8-4-13 1l1 3c0 2 8 6 10 5z"/><path class="m" d="M1155 252c1-2 1-4-3-6-9-6-9-5-11-1a1 1 0 000 1c6 3 1 4 7 5h2c1 2 3 2 5 1zm-4-5v1c-7-4-4-4 0-1z"/><path class="e" d="M1267 316c5-4 7-5-2-11-6-3-6-1-9 3v3c1 3 8 6 11 5zm0 0c-3 1-11-3-11-4v-4c3-4 3-7 9-3 9 5 8 7 2 11z"/><path class="l" d="M1267 316c3-2 8-5 1-9-10-6-8-4-13 2l1 3c0 1 8 5 11 4z"/><path class="m" d="M1271 313c1-2 1-3-3-6-9-5-9-4-11 0 6 4 1 4 7 6h7zm-4-4v1c-7-4-4-5 1-1z"/><path class="e" d="M1202 277c3 2 10 7 13 7 2-1 0-5-2-7l-4-1c-6-3-3-2-7 0v1zm0 0v-2c3-1 1-3 7 1l4 1c3 2 5 7 1 7s-9-4-12-7z"/><path class="k" d="M1202 277c5 5 16 10 14 4-2-4-3-4-7-5-6-4-4-1-7-1v2z"/><path class="g" d="M1216 283v-2c-2-4-3-3-7-5-6-4-4-2-7-1l7 4c4 7 2-2 5 3l2 1z"/><path class="h" d="M1159 235c-4 0-5-4-7 0l-3 4c-1 2 4 4 5 5 3 2 5 4 7 0l4-7c0-2-5-2-6-2zm0 0c1 0 6 0 6 2l-3 7c-3 4-5 2-8 0-1-1-7-3-5-6l3-3c2-4 3-1 7 0z"/><path class="j" d="M1159 235c-4 0-5-5-8 1 0 1-7 3 2 7 2 1 6 8 10-2 2-3 5-5-3-6h-1z"/><path class="i" d="M1159 235c-3 0-4-4-6-1a5 5 0 01-1 1l-1 1-2 2c1 2 9 4 9 7l4-1a18 18 0 001-3 3 3 0 00-2-2c-2-1-2-2-2-4z"/><path class="e" d="M1134 252l-12-8c-3-2 7-14 11-8l3 2 6 4-5 6-3 4zm0 0l3-4 4-6-2-2c-2-1-5-2-6-4-4-5-13 6-11 8l12 8z"/><path class="l" d="M1134 252c-6-2-7-6-12-8-2-1 8-14 11-7l6 3c3 2 4 1-1 7l-4 5z"/><path class="m" d="M1127 236c2-2 5-2 6 1l6 3c2 2 4 1 1 5a7 7 0 01-2-1c-1-2-4-2-5-1-4 3-2 0-4 1-1 1-4-2-2-4v-4zm11 11a16 16 0 00-2-2c-2-1-2 1-4 2 0 1-1 3 2 3a13 13 0 002 0l2-3z"/><path class="n" d="M1248 294l-11-7c-1-2 0-6 1-8 4-5 12 1 16 3 2 1 10 5 8 8l-2 5c-1 1-6-1-7-1h-5zm0 0h5l7 2a55 55 0 002-5c3-5-13-12-15-13-8-3-11 1-10 9-1 1 10 6 11 7z"/><path class="l" d="M1248 294c-1-1-12-6-11-7 0 0-2-15 12-8 3 1 16 8 13 12-3 6 0 6-8 4l-6-1z"/><path class="m" d="M1237 284c0-3 1-9 10-6v1a3 3 0 004 1c4 2 11 6 12 9-3 0 1 7-11 3-4-1-2-2-1-3 4-4-3 0-3 1-6 0-2-7-7-5l-4-1z"/><path class="e" d="M1198 283c3 3 10 10 14 10 2 0 1-7-1-9l-4-2c-7-5-4-3-9-1v2zm0 0v-2c5-2 2-4 9 0l4 3c3 2 4 10 0 9s-10-6-13-10z"/><path class="k" d="M1198 283c5 6 17 15 15 7-1-6-2-5-6-8-7-5-4-2-9-1v2z"/><path class="g" d="M1213 289c-1-5-2-5-6-7l-2-2a2 2 0 01-1 0 3 3 0 00-4 1c0 4 7 2 10 6-2 3-5-1-6-1-1 1 7 5 7 5 1 1 2 0 2-2z"/><path class="e" d="M1268 286c3 2 10 7 12 4 2-2-1-12-3-13l-3-1c-6-3-4-1-6 5v5zm0 0v-5c2-6 0-8 6-6l3 2c3 1 6 12 3 14s-9-2-12-5z"/><path class="k" d="M1268 286c6 5 15 9 12-2-2-9-3-7-6-8-6-3-4 0-6 5v5z"/><path class="g" d="M1280 283c-2-8-3-6-6-7l-2-1-1 1c-2 0-2 4-2 5 1 6 5-4 8 1 0 6-3 3-4 3 0 3 7 3 7 3v-5z"/><path class="h" d="M1214 260l-2-3c-1-2-1 1-1 2l-2 1h3l2 1a3 3 0 001 0l-1-1zm0 0a1 1 0 001 1h-2l-3-1c-3 0 0-1 0-2 0 0 1-3 2-1l2 3z"/><path class="i" d="M1214 260l-2-3c-1-2-2 1-2 1l-1 2h3l1 1h2a1 1 0 01-1-1z"/><path class="h" d="M1213 261l-1 1c-3 2-5 5-5 1-1-2-2-3 0-4s-1 2 4 2h2zm0 0a3 3 0 00-2 0s-4 0-3-1c0 0-2 0-1 1s0 5 3 3l3-3zm0 0z"/><path class="i" d="M1213 261h-2s-4 0-3-1-3-1-2 1c1 1 1 6 4 3a21 21 0 013-3z"/><path class="h" d="M1187 246c1-1 6 3 7 3 4 2-2 2-3 1l-4-4zm0 0v1c4 3 4 4 8 3a4 4 0 00-1 0l-7-4z"/><path class="k" d="M1187 246l7 3 1 1c-4 1-4-1-8-3v-1z"/><path class="h" d="M1123 238l-4 6c-3 3-2-2 0-3l4-3zm0 0h-1c-3 3-4 3-4 7a4 4 0 000-1c1-1 5-4 5-6z"/><path class="k" d="M1123 238l-4 6-2 1c0-4 2-4 5-7h1z"/><path class="h" d="M1222 281c2 1 2 2 0 3s-3-3-6-5c-1-1-3-3 1 0l5 2zm0 0a21 21 0 01-5-3c-5-3-3 0-1 2l4 3c3 3 6-1 2-2z"/><path class="k" d="M1222 281c1 0 3 1 1 2-2 3-4-2-7-4-2-1-3-4 1-1a18 18 0 005 3z"/><path class="h" d="M1215 285a21 21 0 00-3-1c1 2 2 1 2 5l1-4zm0 0c1 0 0 8-1 3-1-2-5-6 1-3z"/><path class="k" d="M1215 285l-3-1 1 2c2 2 1 5 2 3v-4z"/><path class="h" d="M1265 318a21 21 0 00-3-1c1 2 2 1 3 5v-4zm0 0c2 0 0 8-1 3-1-2-5-6 1-3z"/><path class="k" d="M1265 318l-3-1 1 2c2 2 1 5 2 3v-4z"/><path class="h" d="M1205 293v3l2 1c1 0 8 1 6-1l-6-4a5 5 0 00-2 1zm0 0c3-2 5 1 7 2 3 2-2 2-4 1h-3v-3z"/><path class="i" d="M1205 293v3l5 1s5 0 2-2c-2-1-4-4-7-2z"/><path class="e" d="M1135 235l8 3 5 4c-1 1-13-5-14-6-2-2-2-2 1-1zm0 0h-1c1 2 13 7 14 7l-4-3a25 25 0 00-2-1l-7-3z"/><path class="l" d="M1135 235l8 3a18 18 0 003 3c3 1 3 2-2 0-2-1-10-4-11-6 0 0-1-1 1-1l1 1z"/><path class="h" d="M1159 249a23 23 0 00-2-2l-2 5a2 2 0 000 1l4-4zm0 0c1 2-6 7-4 3 1-3 1-8 4-3z"/><path class="k" d="M1159 249l-2-2-1 2c0 3-3 4 0 4l3-4z"/><path class="h" d="M1150 259a22 22 0 002 3c1-3-1-3 1-7a4 4 0 001 0c-1-1-4 3-4 4zm0 0c-1-1 6-9 4-3-2 3-1 10-4 3z"/><path class="k" d="M1150 259l2 3v-3c1-3 4-5 1-4 0 0-4 3-3 4z"/><path class="n" d="M1155 232l4-1 5 2c1 1 2 2 0 2a52 52 0 01-6-1s-3 0-3-2zm0 0a446 446 0 0010 2 6 6 0 00-1 0c-2-1-4-3-5-2h-4z"/><path class="l" d="M1155 232h4c2-1 3 1 5 1 0 0 3 2-1 1a12 12 0 01-2 0h-3a3 3 0 01-1 0l-2-2z"/><path class="e" d="M1151 243l4 3c1 1 0 2-2 0l-1-1s-4-2-3-3l1 1a1 1 0 011 0zm0 0l-2-1c-2 0 4 3 4 4l2 1-1-1-3-3z"/><path class="k" d="M1151 243l3 3c1 0 2 2-1 0l-1-1a24 24 0 00-2-1c-2-1-1-2 0-1z"/><path class="e" d="M1122 245l4 3c2 1 1 2-1 1l-2-2s-4-2-2-2h1zm0 0h-1l4 3 2 1-1-1-4-3z"/><path class="k" d="M1122 245l4 3c1 0 1 2-1 0l-1-1a24 24 0 00-2-1c-2-1-1-2 0-1z"/><path class="h" d="M1128 231a44 44 0 00-3 5c1 0 3-3 6-2 1-1-2-2-2-2l-1-1zm3 3zm-3-3l2 1c2 1 1 2 1 2l-6 2c-2 1 3-5 3-5z"/><path class="i" d="M1128 231l-2 3s-2 3 0 2l5-2s1-1-1-2l-2-1z"/><path class="h" d="M1181 260c1-1 1 0 2 1l1 1a10 10 0 002 2c2 1-1 3-2 3-1-1 1-2-2-5l-1-2zm0 0l3 3v4l2-3a9 9 0 01-2-1l-1-2c-1-1-1-2-2-1zm3 7"/><path class="i" d="M1181 260c1-1 1 0 2 1l1 1 2 2c1 1-1 2-1 2-1 2-1-2-1-3a10 10 0 00-3-2v-1z"/><path class="h" d="M1183 259l3 3 1 1-1-2c0-2 1-2-2-2zm0 0a3 3 0 011 0c2 0 2-1 2 1l2 3c-1 2-2 0-2 0l-3-4z"/><path class="i" d="M1183 259l2 3 2 2v-2c-1 0 0-3-2-3h-2z"/><path class="e" d="M1167 236l-1 3s1-2 3-2l-2-1zm-1 3l1-3h1c3 1 0 2 0 2s-2 2-3 1c0 0 1-4 2-3z"/><path class="k" d="M1167 236c-1-1-1 1-1 2l2-1c1 0 2 0 1-1h-2z"/><path class="e" d="M1154 229c-1-1-1 1-2 2a1 1 0 000 1l4-2-2-1zm-2 3l2-3h1c3 1 0 1 0 1l-3 2s1-4 2-3z"/><path class="k" d="M1154 229c-1-1-1 1-2 2-1 2 3-1 3-1 1 0 2 0 0-1h-1z"/><path class="h" d="M1161 246c0 1-3 1-1 3s1-3 1-3zm0 0l1 3a1 1 0 01-2 1c-2-3 0-3 1-4z"/><path class="i" d="M1161 246c0 1-3 1-1 4l1-1v-3z"/><path class="e" d="M1201 271l4-2c2-1 2 0 2 2v2h-3c-1 1-2 0-2-1l-1-1zm0 0l1 1s1 2 2 1l3-1v-1c-1-2 0-2-2-2l-4 2z"/><path class="k" d="M1201 271l4-2c2-1 1 0 2 2v1l-3 1c-1 1-2-1-2-1l-1-1z"/><path class="e" d="M1178 275c2 2-1 4 2 3 2-1 4 1 3-1l-2-2c-1-2-3-1-3 0zm0 0c0-1 1-2 3 0l3 2c1 2-3 0-4 1-3 2 0-1-2-3z"/><path class="k" d="M1178 275c2 2-1 5 2 3 2-1 4 1 4-1-1-1-2 0-3-2s-3-1-3 0z"/><path class="e" d="M1195 283l3 2c4 2 4 4 2 2l-3-2c-2-1-3-1-2-2zm0 0v1l4 2 2 2a18 18 0 00-3-3c-2-1-2-3-3-2z"/><path class="k" d="M1195 283c1-1 1 1 3 2l3 3a7 7 0 00-2-2l-4-2v-1z"/><path class="h" d="M1230 301c1-1 2 0 3 1l1 1a10 10 0 002 2c1 1-2 3-2 3l-2-5-2-2zm0 0l3 3 1 4s2-2 1-3a8 8 0 01-1-1l-2-2-2-1zm4 7"/><path class="i" d="M1230 301c1-1 1 0 2 1l2 1 1 2c1 1-1 2-1 3-1 1-1-3-1-3a10 10 0 00-3-3v-1z"/><path class="h" d="M1259 298l-2 2-2-1c-1 0-8-4-5-4l7 1a7 7 0 012 2zm0 0v-1c-2-2-5-1-8-2-3 0 2 3 3 3l3 2 2-2z"/><path class="i" d="M1259 298l-2 2-5-2c0-1-5-3-1-3 2 1 6 0 8 2v1z"/><path class="h" d="M1243 309c1-1 6 2 7 2 4 1-1 2-3 1l-4-3zm0 0c4 3 4 3 8 3a5 5 0 00-1-1c-1 0-6-3-7-2z"/><path class="k" d="M1243 309c1-1 5 2 7 2l1 1c-4 1-4-1-8-3z"/><path class="h" d="M1260 284c1-1 5 2 6 3 4 2-1 2-3 0l-4-3h1zm0 0s-1 0 0 0c3 3 3 4 7 4a4 4 0 00-1-1c-1-1-5-4-6-3z"/><path class="k" d="M1260 284c1-1 5 2 6 3l1 1c-4 1-4-1-7-4-1 0 0 0 0 0z"/><path class="h" d="M1274 309c-1 1-6-3-7-3-3-2 2-2 4-1l3 4zm0 0v-1c-3-2-3-3-7-3a3 3 0 000 1l7 3z"/><path class="k" d="M1274 309c-1 1-5-2-6-3l-2-1c5-1 5 1 8 3v1z"/><path class="e" d="M1135 253c3 2 10 7 13 7 2 0 0-4-3-6l-3-1c-6-3-3-2-7-1v1zm0 0v-1c3-1 1-2 7 1l4 1c2 2 5 6 2 6s-9-4-13-7z"/><path class="l" d="M1135 253c6 4 16 9 14 5s-3-3-7-5c-6-3-3-1-7-1v1z"/><path class="m" d="M1149 259v-1c-2-4-3-3-7-5-6-3-4-2-6-1l6 3c5 6 2-1 5 3a4 4 0 002 1z"/><path class="n" d="M1231 285l4 1 2 2c1 0 2 2 0 2a36 36 0 01-4-3l-2-2zm0 0l2 2 5 2a5 5 0 00-1 0l-2-3-4-1z"/><path class="l" d="M1231 285l3 1c2 0 2 2 3 2 0 0 2 3-1 1a10 10 0 01-1-1l-2-1a2 2 0 01-1 0l-1-2z"/><path class="n" d="M1236 282l-2 2c-2 1 0 0 1 1l1 1v-2-2a2 2 0 000-1v1zm0 0v3c0 2-1 0-1 0-1 0-3 0-2-1l3-2z"/><path class="l" d="M1236 282l-3 2c-1 1 2 1 2 1l1 1v-3-1z"/><path class="n" d="M1238 274l3 2 3 1c1 0 3 0 1-1a40 40 0 00-4-2h-3zm0 0h3l5 3a5 5 0 01-1 0l-4-1-3-2z"/><path class="l" d="M1238 274l2 2 4 1s4 0 0-1a11 11 0 00-1-1l-2-1a3 3 0 00-1-1l-2 1z"/><path class="h" d="M1230 286a23 23 0 00-2-2l-4-1a6 6 0 003 3h3zm0 0h-3a6 6 0 01-3-3l4 1a9 9 0 012 2z"/><path class="i" d="M1230 286l-1-1a3 3 0 00-1-1 15 15 0 00-4-1l1 2a4 4 0 002 1h3z"/><path class="h" d="M1234 299a24 24 0 00-3 0l4 4a2 2 0 000 1c1-1 0-5-1-5zm0 0c2 0 3 8 0 4-1-2-6-4 0-4z"/><path class="k" d="M1234 299h-3l2 2c2 1 2 4 3 2l-2-4z"/><path class="n" d="M1177 241c-6-2-8-5-12 1-2 2-5 8 0 8 3 1 4 4 8 5 2 0 1-1 3 1 6 4 10 2 13-4 1-4-2-4-5-6a31 31 0 00-7-5zm0 0l7 4c3 2 6 3 5 7-3 7-7 8-13 4l-3-1c-4-1-5-4-8-4-5-1-2-7-1-9 5-6 7-4 13-1z"/><path class="l" d="M1177 241l-7-3c-5 0-12 12-5 13 3 0 5 4 9 4 2 0 9 9 14-2 1-2 2-4-2-6l-9-6z"/><path class="m" d="M1177 241a10 10 0 01-1 0c-5 3-4 0-3-1a12 12 0 00-3-2 3 3 0 00-2 1c-3 4-5 11-2 10s7 5 8 2c3-5 6-7 7-8a18 18 0 00-4-2zm9 15s-1-2-5 0c-3 2-5-1-3-2 1-1 7-5 2-2-6 3-5-2-3-3 0 0 1-3 4-5l5 3c4 2 3 4 2 6a14 14 0 01-2 3z"/><path class="o" d="M1170 239l3 1-1 1c0 2 0 2 2 2a5 5 0 002 0l-4 1c-2-1-1-3 0-4a6 6 0 01-2-1zm3 1z"/><path class="n" d="M1146 208c-6-3-8-5-12 1-1 2-4 7 0 8l8 4 4 2c6 3 9 2 12-4 2-4-2-5-4-7a31 31 0 00-8-4zm0 0l8 4c3 2 6 3 4 7-2 6-6 8-12 4l-4-2-8-4c-5-1-2-6 0-9 4-5 7-3 12 0z"/><path class="l" d="M1146 208s-4-3-7-3c-4 0-11 12-5 12 4 0 5 4 10 5 1 0 9 8 14-3 1-2 2-3-2-5l-10-6z"/><path class="m" d="M1146 208a9 9 0 01-1-1c-4 4-3 1-2-1a12 12 0 00-4-1 3 3 0 00-2 0c-2 4-5 11-1 10 3 0 6 6 8 3 2-6 5-8 6-8a18 18 0 00-4-2zm10 15c-1 0-1-2-5 0s-6-1-3-3c1 0 7-4 1-1s-4-2-3-3c1 0 1-3 5-6l5 4c4 2 3 3 2 5a14 14 0 01-2 4z"/><path class="o" d="M1139 206h4l-1 2c-1 1-1 2 1 2a5 5 0 002-1c-1 2-3 2-4 1v-3a6 6 0 01-2-1zm3 1z"/><path class="n" d="M1194 266c-7-4-8-4-6-10 2-4 2-5 7-4l8 4c2 1 2 7 3 9s-2 4-5 4l-7-3zm0 0a41 41 0 005 3c5 1 8-2 7-4l-2-10-9-4c-5 0-6 1-7 5-2 6-1 7 6 10z"/><path class="l" d="M1194 266c-4-2-6-2-7-6-1-1 2-8 4-8 7-1 5 0 11 3 3 1 2 7 4 10 1 1 0 2-2 3-2 3-7 0-10-2z"/><path class="m" d="M1187 258l4-6c7-1 5 0 11 3a3 3 0 012 1c-1 2-2 3 0 4h1a17 17 0 001 5c-6 5-6-1-9-1-4 0-3-3-7-3-2-1-3-1-3-3zm8-4c-4-2-5 3-2 1l2 1v-2z"/><path class="o" d="M1197 253l6 2c1 1-2 2-1 4l2 1c-2-1-3-1-2-3 0-2-4-3-5-4z"/><path class="n" d="M1251 328c-7-4-8-4-5-10 1-4 2-5 6-4l9 4 2 9c1 2-2 4-5 4l-7-3zm0 0a41 41 0 006 3c4 1 8-2 7-4-1-3-1-8-3-10l-9-4c-4 0-5 1-7 4-2 7-1 8 6 11z"/><path class="l" d="M1251 328c-4-2-6-3-7-6 0-1 2-8 5-8 6-1 4 0 11 3 3 1 2 7 4 10l-2 3c-3 3-7 0-11-2z"/><path class="m" d="M1245 320c0-2 2-6 4-6 6-1 4 0 11 3a3 3 0 011 1c0 2-2 3 0 4h1a18 18 0 002 5c-7 5-6-1-10-1-3-1-3-3-7-4l-3-2zm7-4c-3-2-4 3-2 1l3 1-1-2z"/><path class="o" d="M1254 315l6 2v4l1 1c-2-1-3-1-2-3s-4-3-5-4z"/><path class="n" d="M1226 268c-5-3-12-9-17-2-1 3-2 6 2 8 4 1 17 11 21 10 1 0 11-8 3-12l-9-4zm0 0a79 79 0 019 4c7 3 0 12-3 12-3 2-17-8-22-10s-1-9 3-11 10 2 13 5z"/><path class="l" d="M1226 268s-8-6-11-6c-7 1-10 11-4 12 4 1 18 12 21 10 4-2 9-9 3-12 0-1-8-5-9-4z"/><path class="m" d="M1214 266c5 1 10 6 3 3 0 0-6-2-4-3h1zm12 1s-8-5-11-5a8 8 0 00-7 5 3 3 0 003 4l5 2c4 3 7 2 12 2 4-1 8 4 6 3-4-2-8-4-11 0l10 6c3-3 8-9 2-12 0-1-8-5-9-4z"/><path class="o" d="M1218 273l8 1c2-1 6 0 7 2a5 5 0 001 1l-1-1c-1-1-4-2-6-1-4 0-5 0-9-2z"/><path class="e" d="M1219 249c4 0 5 2 9 3 3 1 14 5 14 8l-3 7c-1 4-4 2-7 1l-12-5c-4-3-10-4-6-11 1-3 1-4 5-3zm0 0c-4-1-4 1-6 4-1 6 3 7 8 10l11 4c3 1 6 4 7 0l3-7c0-2-10-6-12-7l-11-4z"/><path class="k" d="M1219 249c3 0 5 1 8 3 3 1 14 5 15 8l-3 7c0 2-1 3-3 2l-16-6c-2-2-9-4-7-10l1-2c2-2 2-3 5-2z"/><path class="g" d="M1219 249c3 0 5 1 8 3 3 1 14 5 15 8l-3 7a2 2 0 01-1 2 40 40 0 01-6-2l-2-1v-1c-2-1-1-3 0-3h2c1 1 0 0 0 0l3 1h4c1-1-1-1-1-1a7 7 0 01-3-1l-5-1h-3c-3 0-6-2-8-3s-5-2-5-4v-2c2-2 2-3 5-2z"/><path class="p" d="M1215 250c3-1 5 1 8 1 4 1 5 0 9 2a17 17 0 016 5v1l-2-2c-4-3-7-4-12-5l-9-2z"/><path class="e" d="M1163 271c-1 2-2 9-6 8-5-2-24-11-22-17 1-1 2-5 4-5 3 0 21 10 24 12a8 8 0 010 2zm0 0a5 5 0 000-2c-3-2-21-12-24-12-2 0-4 4-4 5-3 6 17 15 22 17 4 1 5-6 6-8z"/><path class="l" d="M1163 271c-1 2-3 9-6 8-5-2-25-11-22-17 4-7 2-7 15 0l13 7a6 6 0 010 2z"/><path class="m" d="M1163 271l-1 2a1 1 0 01-1 0c-3-3-2 4-6-2-6-1-5-3-9-7-1-2-7 3 0 3 3 0 1 1 4 3h-5c-1-1-2 1-2 2-5-3-10-7-8-10 3-5 2-7 8-4 0 1-1 1 2 1a3 3 0 001 0l4 3 13 7a7 7 0 010 2zm-2 5c0-2-1-3-3-2-3 1-4-2-4-1-1 5 0 4-3 3l6 3c2 1 3-1 4-3z"/><path class="o" d="M1138 258c5-1 3 1 5 2l4 1a58 58 0 019 5l-11-5-2-1c-3-1 0-2-5-2z"/><path class="h" d="M1173 287c2-3 6-9 4-12-1-2-3-1-6-3s-3-3-5 0c-6 5-3 12 4 14zm0 0l-3-1c-8-1-11-9-5-15 3-2 4-1 7 1s5 0 6 4-3 8-5 11z"/><path class="i" d="M1173 287c3-2 9-14 1-14-4 0-5-7-10 1-5 6 2 13 9 13z"/><path class="j" d="M1177 280c1-4 1-7-3-7s-5-6-9-1c2 1 4 0 1 5-2 3-2-1-3-2a7 7 0 00-1 5 4 4 0 005 0c3-2 7 2 10 0z"/><path class="q" d="M1167 279a10 10 0 016 1l3-1c-2 2-3 1-6 1l-3-1z"/><path class="h" d="M1200 300c1-2 7-8 3-10l-12-7-6-3c-4-1-4-2-7 2 0 2-3 5-2 6l6 3c3 2 6 4 10 4 0 0 6 5 8 5zm0 0c-1 1-7-4-8-4-4-1-7-2-10-5l-6-3 3-8c2-3 3-1 6 0l7 3 11 7c4 2-2 8-3 10z"/><path class="i" d="M1200 300c1-2 7-8 3-10l-12-7-6-3c-2-1-4-3-7 2-2 5-4 6 1 8 3 1 9 6 13 5 1 1 7 6 8 5z"/><path class="j" d="M1203 296c1-2 3-5 0-6-4-1-7-5-12-7l-6-3c-2-1-4-3-7 2l-1 2c0 2 1 3 2 3 4-1 11 6 12 5s2 0 1-3c-2-3-2-1-2-4 0-5 5 8 7 7 4-1 4 3 6 4z"/><path class="q" d="M1194 287l2 4c2 0 6 1 5 3-1-2-3-1-5-2l-2-5z"/><path class="h" d="M1234 309c0 1-2 7-1 8 0 0 6 6 8 4 1-1 5-7 4-9 0-1-9-9-11-3zm0 0c0-6 9 0 11 3 2 2-2 8-3 9-2 2-7-2-9-4-2-1 1-7 1-8z"/><path class="i" d="M1234 309l-1 5v3l7 5c2 0 4-4 4-5 1-1 3-4 1-6-6-5-10-6-11-2z"/><path class="j" d="M1242 320l2-3c1-1 2-4 0-5-5-5-8-6-9-4l-1 5c-2 2 3 6 5 5h1c-1 1 0 2 2 2z"/><path class="q" d="M1238 309l4 1a8 8 0 012 4l-2-2c-2-1-2-3-4-3z"/><path class="e" d="M1258 301c-1 3-4 10-7 9l-6-2-7-4c-2 0-2-2-3-4-3-8 3-10 9-6l10 6a12 12 0 004 1zm0 0a15 15 0 01-4-1l-10-6c-6-4-12-2-9 6 0 2 1 4 3 5l7 3 6 2c4 1 6-6 7-9z"/><path class="k" d="M1258 301c-1 2-4 10-7 9l-8-3c-6-3-6-1-8-7s1-10 6-8l12 8 5 1z"/><path class="g" d="M1258 301l-4 8-1-2-5-2c-4 0-5-4-9-2-6 2-2-10-1-10 5-1 4 1 6 1l9 6 5 1z"/><path class="p" d="M1238 294c5-2 2 0 4 1l4 1a47 47 0 018 5l-10-5h-2c-2-2 1-2-4-2z"/><path class="h" d="M1195 235c-4 0-3-1-6-3-2-1-6-4-8-2l-2 2c-1 1-4 5-3 7 4 4 7 4 11 6a70 70 0 0110 5c1 1 6 4 7 2l4-9c0-2-4-4-6-5a51 51 0 00-7-3zm0 0a41 41 0 017 3c2 1 7 2 6 5l-4 9c-1 2-6-1-7-2a74 74 0 00-10-5c-4-2-8-2-11-6-1-2 1-7 3-7l2-3c2-1 6 2 8 3l6 3z"/><path class="i" d="M1195 235l-4-2-4-2c-2-1-5-4-7 0-1 1-2 0-3 4-1 3-2 3 0 5 3 4 7 3 10 5l10 5a22 22 0 005 3c3 1 3-2 4-4l1-2c2-5 2-5-3-8l-9-4z"/><path class="j" d="M1189 232a15 15 0 00-2-1c-2-1-5-3-7 0-1 2-1 4 1 5 3 2 4 4 8 4l3-1c2 0 4 1 5 3 2 2 8 1 11 3 1-3 0-4-4-6l-5-3c-4 1-5 1-10-3v-1zm12 20a6 6 0 01-2-1c-3-6-8-5-14-8-1 0-7-5-6-7 4 1 3 4 8 6 5 1 2-3 11 2 2 1 7 1 9 3l-1 2c-1 2-1 5-4 4z"/><path class="q" d="M1207 244c0-2 0-3-2-4-3-1-5 0-8-2a17 17 0 01-5-3l5 2 6 2c2 1 7 2 4 5z"/><path class="h" d="M1133 232l6 2c1 2 5 5 7 3 2 0 1-1 3-2s3-5 2-7c-3-4-6-4-11-6a70 70 0 01-9-5c-1-1-6-4-7-2l-4 9c-1 2 4 4 5 5a53 53 0 008 3zm0 0a41 41 0 01-8-3c-1-1-6-3-6-5l4-10c2-1 7 2 8 2a74 74 0 009 6c5 2 8 1 12 6 1 2-1 7-3 7l-2 3c-3 1-7-2-8-3l-6-3z"/><path class="i" d="M1133 232c3 0 2 0 4 2l3 2c3 1 6 3 8 0l3-4c1-3 1-3-1-5-3-4-6-3-10-5l-9-5a22 22 0 00-6-3c-2-1-2 2-3 4l-1 2c-2 5-3 5 3 8l9 4z"/><path class="j" d="M1139 235a15 15 0 001 1c3 1 6 3 8 0l-1-5c-3-2-5-4-8-4l-3 1c-2-1-5-1-6-3s-7-2-10-3c-1 3-1 4 4 6l5 3c3-1 5-1 9 3l1 1zm-12-20a6 6 0 011 1c4 6 8 5 14 8 1 0 8 5 6 6-4 0-2-3-8-5-5-1-2 3-11-2-1-1-6-1-8-3l1-2c1-2 1-5 3-4l2 1z"/><path class="q" d="M1121 223c-1 2-1 3 2 4l8 2a17 17 0 014 3l-5-2-6-2c-2-1-6-2-3-5z"/><path class="e" d="M1174 256l-10-4c-4-2-6-1-9 3-2 3-3 6 1 8l2 1c4 3 5 5 10 5 3-1 10 5 11 3 9-8 1-11-5-16zm0 0c6 5 14 8 5 17-2 1-8-4-11-4-5 0-6-1-10-4l-3-2c-3-1-2-5 0-8 3-4 5-6 9-3s5 3 10 4z"/><path class="k" d="M1174 256c-9-2-12-8-16-4-3 3-8 10-1 12 1 0 5 6 11 5 2-1 9 5 11 3 9-9 0-12-5-16z"/><path class="g" d="M1173 256l-1-1a29 29 0 01-7 6l-4 1 3-2a19 19 0 006-5c-6-2-9-7-13-3-8 9-2 14 8 10 3-1 6-5 6 0v7l3 2c-2-2 4-7 4-11 0-2-5-2-5-4zm-10 12c1-2 6-5 4 1a9 9 0 01-4-1zm19-5c2 6-4 9-5 6-1-4 1-8 3-8a10 10 0 012 2z"/><path class="p" d="M1159 252c-1-3 5 0 5 0a21 21 0 003 2l5 1h-5l-6-3h-2z"/><path class="k" d="M1153 260l11-3c4-1 3-2 5-3a6 6 0 01-4 3l-3 2c-3 2 0 3-3 6l2-6c-3 1-1 3-3 5 2-2 0-4 3-5l3-2-11 3zm16-6z"/><path class="e" d="M1232 310c0 1-1 5-3 6-3 0-12-6-15-7-4-1-11-3-9-8 1-4 0-2 6-3h10c3 1 11 5 12 9a5 5 0 01-1 3zm0 0v-4c-1-4-10-8-13-9l-13 1-2 4c-1 5 6 6 9 7 4 2 13 7 16 7 2 0 3-5 3-6z"/><path class="k" d="M1232 310c-1 1-1 5-3 6l-10-4-9-4c-3-1-7-3-5-7 1-2 0-3 5-3h11c4 2 15 6 11 12z"/><path class="g" d="M1206 298a14 14 0 014 0h11c4 2 12 5 12 10-1 2-1 4-8 2l-9-5-9-6-1-1z"/><path class="p" d="M1213 299c4-1 15 1 17 5v1-1c-3-4-12-5-17-5z"/><path class="e" d="M1216 298l1 7c2 3-1 9 0 3 1-3-1-4-1-6-1-4 0-3-3 1-4 3 2-3 2-4l1-1zM1239 272l4-9c3-3 5 0 9 1 2 1 16 7 16 9l-2 7c-1 2-2 5-5 4l-11-6c-1-1-12-5-11-6zm0 0c-1 1 9 5 11 5l12 6c2 2 3-2 4-4l2-6-15-8c-6-2-8-6-11 1l-3 6z"/><path class="k" d="M1239 272c2-3 1-6 4-9s4-1 7 1l11 5 7 4-2 6c0 2-2 6-5 5a177 177 0 00-16-8c0-1-7-3-6-4z"/><path class="g" d="M1250 264l11 5 7 4a8 8 0 010 1l-3 2c1 3 1 3-1 5-3 3-5 0-4-1 1-5-4-3-7-2l-11-6c-2-2-1-3 0-5 2-4 4-3 4-4l4 1zm-2 3a8 8 0 012 0h1l-1-1c0-1-7-1-2 1zm11 11c-1 0-3-2-3 1a2 2 0 002 0l1-1z"/><path class="p" d="M1255 267c1-1 9 5 10 6h-1l-9-6z"/><path class="k" d="M1241 268a6 6 0 002-1c2-1 4 1 5 1h-1l-4-1-3 1h1z"/><path class="e" d="M1107 254l4-8c2-4 5-1 9 1l16 8-2 7c-1 2-2 6-5 4l-12-6s-11-5-10-6zm0 0c-1 1 9 5 10 6l12 6c3 1 4-2 4-4l3-7-15-7c-6-3-8-7-12 0l-2 6z"/><path class="k" d="M1107 254c1-2 1-5 4-8s4-2 7 0l11 5 7 4-2 7c-1 2-2 5-5 4a175 175 0 00-16-8c-1 0-7-3-6-4z"/><path class="g" d="M1118 246l11 5 7 4a8 8 0 01-1 2l-2 1c1 4 1 4-1 6-4 2-5-1-5-2 2-4-3-2-6-2l-11-6c-2-2-1-3 0-5 1-4 3-3 4-3h4zm-2 4a8 8 0 012 0c2 0 1-1 1-1l-1-1s-7 0-2 2zm11 11c-1-1-3-2-4 0 0 0 2 2 3 0h1z"/><path class="p" d="M1123 249l10 6h-1c-4-1-6-3-9-6z"/><path class="k" d="M1108 251a6 6 0 002-1c3-1 5 1 6 1h-1s-2-2-4-1l-3 1zM1216 298l1 7c2 3-1 9 0 3 1-3-1-4-1-6-1-4 0-3-3 1-4 3 2-3 2-4v-1h1z"/><use class="c" transform="rotate(-40 482 37) scale(.09)" xlink:href="#c"/><path class="d" d="M256 241l-7-8-8-9-7-7a13 13 0 00-10-1c-8 2-12 8-17 13a75 75 0 01-9 7 34 34 0 00-5 3 39 39 0 00-3 5 22 22 0 01-5 4l-5 4-8 6a3 3 0 00-1 1l-19 15-9 8-8 8a4 4 0 000 1 31 31 0 00-5 3 35 35 0 01-5 4 37 37 0 00-7 4l-5 5-6 5-3 4a7 7 0 011 2l4 6c0 3 0 7-3 7l1 1a7 7 0 012 1 23 23 0 012 4l9 6a2 2 0 011 2v1a2 2 0 012 1 10 10 0 011 4 28 28 0 002 4 11 11 0 002 2 18 18 0 005 4 5 5 0 004-3 22 22 0 016-8l10-6c7-4 13-10 19-15l19-16 38-33 19-16 10-8a8 8 0 003-5 8 8 0 00-2-5 70 70 0 00-2-2 3 3 0 00-1-3z"/><path class="e" d="M129 293c-4 3-8 5-4 9l3 5c2 2 7-4 9-5 1-1 9-7 8-9-1-1-5-7-7-7-3 1-5 4-6 5zm0 0l2-2 7-5c2 0 6 5 7 7 2 2-6 8-8 9s-7 7-9 5l-4-5c-3-4 1-6 5-9z"/><path class="f" d="M129 293c-3 3-8 5-4 9s1 9 11 1c2-2 11-8 9-10l-4-5c-2-2-2-2-5-1a8 8 0 00-3 3 41 41 0 01-4 3z"/><path class="g" d="M129 293l-6 5a3 3 0 002 3s1 2 3 2c2 1 2 2 6-1 1-1 7-4 6-6 0-2 6 2 3-4-1-2-4-5-6-5h-1a8 8 0 00-3 3 41 41 0 01-4 3zm7-3c1-1 1 1 1 1l-2 2c-1-1 1-3 1-3zm5 2v1c-2 0 0-1 0-1zm-13 12l4 1c1 0-2 2-3 1l-1-2z"/><path class="h" d="M167 266l6 7c1 0 6-1 4-4l-7-9c-1 0-8 2-3 6zm0 0c-5-3 0-6 2-6 3 0 7 7 9 9 1 3-3 3-5 4l-6-7z"/><path class="i" d="M167 266l4 5 2 2c2-1 4-1 5-3l-4-6-5-4c-5 1-5 4-2 6z"/><path class="j" d="M172 262l-3-2c-3 1-5 2-4 4a15 15 0 011 1l5 5c2 2 2 0 3 1a2 2 0 002-3l-2-3a20 20 0 00-2-3z"/><path class="h" d="M118 344l5 7s6 1 5-2c-1-2-4-9-6-10-1-1-8-1-4 5zm0 0c-4-5 2-6 4-6 2 1 5 9 6 11 1 3-3 3-5 3l-5-8z"/><path class="i" d="M118 344l3 5 2 3c2-1 3 0 5-2l-2-6-4-5c-5-1-6 2-4 5z"/><path class="j" d="M124 341l-2-3c-4 0-5 1-5 3l1 2 3 5c2 3 2 1 4 2a2 2 0 002-2l-1-4a20 20 0 00-2-3z"/><path class="e" d="M195 293l-12 9c-3 2-10-12-4-14 2 0 2 0 3-2l7-4 4 7 2 4zm0 0l-2-4-4-6-3 1-6 5c-7 1 0 14 2 12 6-4 8-3 13-8z"/><path class="k" d="M195 293c-5 5-8 5-12 8-3 3-10-12-3-13l6-4c3-2 3-3 6 4 1 1 3 3 3 5z"/><path class="g" d="M180 301c-3-4-6-12 0-12l6-5c2-1 3-2 4-1a2 2 0 01-1 1c-3 2 0 3 0 3a3 3 0 002-1l1 2a30 30 0 013 3 5 5 0 01-3 1c-1 0-6-5-1 1-2 3-4-1-5-2-5-5-3-1-3 2l-1-3c-3-1-1 4-1 5 1 4 0 6-1 6z"/><path class="h" d="M219 273c-2 3-6 9-9 3l-3-4c-3-2 0-3 2-6 2-1 7-10 9-8s7 6 6 9a30 30 0 01-3 3c-1 2 0 2-2 3zm0 0c2-1 0 0 2-3l3-4c0-2-5-7-6-8-2-1-8 8-9 9-5 6-1 3 1 8 2 7 6 2 9-2z"/><path class="i" d="M219 273c-1 2-7 10-9 2-2-4-7-3-1-8 2-2 7-11 9-9 9 10 6 7 2 14a5 5 0 01-1 1z"/><path class="j" d="M210 265l3-3a6 6 0 011 3c0 1 4 0 2-6l2-1 2 2a19 19 0 002 3c1 3 0 7-4 8-1 0-5 9-6 3-3-1-3-1-2-5-3-1 0 0 0-4z"/><path class="h" d="M242 234c-2 2-7 8-9 3l-3-4c-3-2 0-4 2-6 1-2 7-10 9-8 2 1 7 6 6 8a32 32 0 01-3 4l-2 3zm0 0l2-3 3-4c0-2-5-7-6-8-2-1-8 7-10 9-5 5-1 3 1 8 3 6 6 2 10-2z"/><path class="i" d="M242 234c-2 1-7 9-10 2-1-4-6-3-1-8 3-2 8-11 10-9 9 9 6 7 2 14a4 4 0 01-1 1z"/><path class="j" d="M233 226l2-3a6 6 0 012 3s4 0 1-6c1-1 2-2 3-1l2 1a18 18 0 001 4c2 3 0 7-3 8-1 0-5 8-6 3-3-1-4-2-3-6-2-1 1 1 1-3z"/><path class="e" d="M153 323c-3-8-3-9-11-3-6 4-4 5-1 9 1 2 1 2 3 2 3 0 8-6 9-8zm0 0c-1 2-7 8-9 8-3 0-3 0-4-2-2-4-4-5 2-9 8-6 9-5 11 3z"/><path class="l" d="M153 323c-1-4-2-10-8-6-10 7-7 7-4 13l3 1c1 0 9-6 9-8z"/><path class="m" d="M151 318c-1-2-2-3-6-1-9 7-8 7-5 11a1 1 0 001 0c5-4 3 0 7-4 2-2 0-3 1-3 2 1 3-1 2-3zm-5 1c0-1 2 0 1 1-7 4-6 2-1-1z"/><path class="e" d="M254 239c-2-7-2-9-11-2-5 4-3 4-1 9l3 1c3 0 9-5 9-8zm0 0c0 3-7 9-8 8a1 1 0 01-1 1c-2 0-2-1-3-2-3-5-5-5 1-10 8-6 9-4 11 3z"/><path class="l" d="M254 239c-1-3-1-9-8-5-10 7-7 6-3 13h3c1 1 8-5 8-8z"/><path class="m" d="M253 234c-1-2-3-2-7 0-8 6-7 7-5 11a1 1 0 001-1c6-3 4 1 8-4l1-2 2-4zm-6 1c1 0 2 0 1 1-6 5-6 2-1-1z"/><path class="e" d="M193 284c3-2 10-7 11-10 0-2-5-2-7 0l-3 3c-5 4-2 2-3 6l2 1zm0 0l-2-1c0-3-2-2 3-7l3-2c3-2 9-2 7 1s-8 7-11 9z"/><path class="k" d="M193 284c6-4 15-11 9-11-5-1-5 1-8 4-5 4-2 3-3 6l2 1z"/><path class="g" d="M204 273h-2c-5-1-5 1-8 4-5 4-2 3-3 6 3-1 6-5 6-5 8-1 0-3 5-4a4 4 0 002-1z"/><path class="h" d="M137 308c-1 3-5 2-2 6l2 4c2 2 5-2 7-3 3-2 5-3 3-7l-6-6-4 6zm0 0c1-2 3-6 5-6l5 6c3 4 0 6-3 7-1 1-5 5-7 3l-2-4c-3-4 0-4 2-6z"/><path class="j" d="M137 308c-1 3-6 2-2 6 1 1 1 8 8 2 1-1 9-3 2-11-3-2-3-6-7 1l-1 2z"/><path class="i" d="M137 308c-1 2-5 2-3 5a5 5 0 011 1l1 3c3 0 8-6 10-5 2 0 1-2 1-4a19 19 0 00-2-3 1 1 0 00-1 0 3 3 0 00-3 2c-1 2-2 1-3 0a6 6 0 00-1 1z"/><path class="e" d="M143 336c-4 5-6 4-11 8-3 2-10-11-4-13l3-1c1-1 5-5 7-4l4 6 1 4zm0 0l-2-4-3-6-4 2-6 4c-5 1 1 14 4 12 4-4 6-3 11-8z"/><path class="l" d="M143 336c-4 5-7 5-11 8-3 2-10-12-3-13l5-3c4-2 3-4 7 3l2 5z"/><path class="m" d="M126 337c-1-3 0-5 3-6l5-3c3-2 3-3 5 1a7 7 0 01-1 0c-2 1-3 4-3 5v4c0 1-4 3-5 1l-4-2zm15-6a16 16 0 00-3 1c-2 2 0 2 0 4 0 1 2 3 4-1a13 13 0 000-1l-1-3z"/><path class="n" d="M226 248c-1 1-9 7-11 7-1 0-5-2-6-4-3-5 5-11 8-13 2-2 9-7 12-5l3 5-4 6-2 4zm0 0l2-4c0-1 5-5 4-6a57 57 0 00-3-5c-3-4-16 8-18 10-6 6-3 11 4 12 1 1 10-6 11-7z"/><path class="l" d="M226 248c-1 0-10 8-11 7 0 0-14-4-2-14 2-2 13-11 16-8 4 6 5 3 0 9l-3 6z"/><path class="m" d="M213 254c-3-1-8-5-2-11h2a3 3 0 002-3c3-3 10-8 13-7-1 2 6 1-2 11-3 3-3 0-3-1-2-5-1 3-1 3-2 6-6 0-7 5 0 2-1 3-2 3z"/><path class="e" d="M197 290c4-2 13-6 14-9s-5-4-8-3l-4 3c-7 4-4 3-4 7 0 2 0 2 2 2zm0 0l-2-1c0-5-3-4 4-8l4-3c3-2 11 0 8 4s-10 6-14 8z"/><path class="k" d="M197 290c8-3 20-10 12-12-6-1-6 1-10 3-7 4-3 3-4 7 0 2 0 2 2 2z"/><path class="g" d="M209 278c-6-1-6 1-10 3l-2 1a2 2 0 01-1 1 2 2 0 000 4c4 2 4-6 9-7 2 3-3 4-3 5 1 2 8-5 8-5l-1-2z"/><path class="e" d="M226 226c4-2 11-6 9-9-1-3-11-4-13-3l-3 3c-4 4-1 3 3 8l4 1zm0 0l-4-1c-4-5-7-4-3-8l2-3c3-2 14 0 15 3s-6 7-10 9z"/><path class="k" d="M226 226c8-3 15-10 4-12-10-1-8 1-11 3-5 4 0 3 3 8l4 1z"/><path class="g" d="M229 214c-9-1-7 1-10 3a14 14 0 00-1 1l1 1c-1 2 3 4 4 4 6 2-2-6 4-7 5 3 1 4 0 5 4 2 6-5 6-5l-4-2z"/><path class="h" d="M182 266l-4 1c-2 0 1 1 1 2l1 2 1-3c1-2 1-1 2-1a3 3 0 000-2l-1 1zm0 0a1 1 0 001-1c1-1 1 1-1 2a1 1 0 010 1l-1 2c-2 2-2 0-2-1-1-1-3-2-1-2l4-1z"/><path class="i" d="M182 266l-4 1c-2 0 1 2 1 2s0 3 1 1l2-2c0-1-1-1 1-1v-1a1 1 0 01-1 0z"/><path class="h" d="M183 267v2c1 3 3 6-2 5-1 0-3 0-2-2s1 1 2-3l2-2s-1 0 0 0zm0 0a3 3 0 00-1 2c0 1-1 4-3 2 0 1-1 2 1 2s5 2 4-2l-1-3zm0 0z"/><path class="i" d="M183 267l-1 2s-1 3-3 2c0 0-1 3 1 2 1 0 5 2 4-2a22 22 0 01-1-3v-1z"/><path class="h" d="M159 285c-1-1 4-4 5-5 3-2 1 2-1 4l-4 1zm0 0s0 1 0 0c4-2 5-1 6-5a4 4 0 00-1 1l-5 4z"/><path class="k" d="M159 285l5-4c0-1 1-2 2-1-2 4-3 3-7 6v-1z"/><path class="h" d="M126 342c2 0 4 5 4 6 3 3-2 1-3-2l-1-4zm0 0c2 4 1 5 5 7a4 4 0 00-1-1c-1-1-2-6-4-6z"/><path class="k" d="M126 342c2 0 3 4 4 6l1 1c-4-2-3-3-5-7z"/><path class="h" d="M205 267c1-2 2-2 2 0s-4 2-7 4c-1 1-4 2 0-1l5-3zm0 0a22 22 0 01-5 3c-5 3-2 3 1 2l5-3c3-1 1-5-1-2z"/><path class="k" d="M205 267c0-1 1-2 2 0 1 3-4 2-7 5-1 1-5 1 0-2a18 18 0 005-3z"/><path class="h" d="M205 275a22 22 0 00-2 2h6c0-1-3-3-4-2zm0 0c1-2 8 3 3 2-3 0-8 2-3-2z"/><path class="k" d="M205 275l-2 2h3c2-1 4 1 3-1l-4-1z"/><path class="h" d="M255 241a21 21 0 00-2 3l6-1-4-2zm0 0c0-1 8 3 3 3-3-1-8 2-3-3z"/><path class="k" d="M255 241l-2 3 2-1c3 0 5 2 4 0l-4-2z"/><path class="h" d="M209 287l2 1 2-2s4-6 1-5l-5 4a6 6 0 000 2zm0 0v-1c-1-2 2-3 4-4 3-2 1 2 0 3-1 2 0 2-2 3l-2-1z"/><path class="i" d="M209 287s1-1 2 1l3-4c1-1 2-5-1-2-1 1-5 2-4 4v1z"/><path class="e" d="M128 329l6-6 6-3-12 11c-2 1-2 0 0-2zm0 0c-1 2-2 2 0 2 3-1 12-10 12-11l-4 3a24 24 0 00-3 1l-5 5z"/><path class="l" d="M128 329l6-6a19 19 0 004-2c2-2 3-2-1 2-1 2-7 8-9 8 0 0-2 1-1-1l1-1z"/><path class="h" d="M151 313a23 23 0 00-3 1c1 1 2 0 4 3a2 2 0 000 1c1-1 0-5-1-5zm0 0c1 0 3 8 0 4-1-2-7-4 0-4z"/><path class="k" d="M151 313l-3 1 2 1c2 1 2 4 3 2l-2-4z"/><path class="h" d="M156 325a22 22 0 003-1l-5-4a3 3 0 000-1c-1 1 1 6 2 6zm0 0c-2 0-5-10-1-5 2 3 8 5 1 5z"/><path class="k" d="M156 325l3-1-2-2c-3-1-4-5-4-2l3 5z"/><path class="n" d="M134 309l1-4 3-3c1-1 2-2 1 0a51 51 0 01-2 6l-3 2a1 1 0 010-1zm0 0c1 1 2-1 2-2l3-6a7 7 0 00-1 1l-3 3-1 4z"/><path class="l" d="M134 309l1-3c-1-2 2-3 3-4 0 0 3-3 1 1a13 13 0 01-1 2l-2 2a3 3 0 010 2h-2z"/><path class="e" d="M142 318l4-3c2-1 2 1 0 2l-2 1s-4 3-4 1l2-1zm0 0l-1 1 4-3 2-1h-1l-4 3z"/><path class="k" d="M142 318l4-3s2 0 0 2h-2a25 25 0 00-2 2c-2 1-2-1 0-1z"/><path class="e" d="M133 345l4-3c2-1 2 1 0 2l-2 1s-4 3-3 1l1-1zm0 0l-1 1 4-3 2-1-1 1-4 2z"/><path class="k" d="M133 345l4-2c1-1 2-1 0 1h-2l-2 2c-2 1-2-1 0-1z"/><path class="h" d="M122 334a44 44 0 003 5v-6c0-2-1 0-2 1h-1zm3-1zm-3 1l2-1c1-2 2-1 2 0v5c0 3-4-3-4-4z"/><path class="i" d="M122 334l2 3 1 1v-5c0-1 0-2-1 0l-2 1z"/><path class="h" d="M169 297c0-2 0-2 2-3h2a10 10 0 002-1c1-1 2 3 2 3h-6l-2 1zm0 0l4-2 3 1-1-3a8 8 0 01-2 1l-2 1c-2 0-2 0-2 2zm7-1"/><path class="i" d="M169 297c0-2 0-2 2-2l2-1 1-1c1-1 2 2 2 2 1 2-2 0-3 0a10 10 0 00-4 2z"/><path class="h" d="M169 294l4-1 2-1h-3c-2 0-2-1-3 1zm0 0a3 3 0 010-1l2-2h4c1 1-1 1-1 2l-5 1z"/><path class="i" d="M169 294l4-1 2-1h-2c-1 1-3-2-3 0l-1 2z"/><path class="e" d="M142 300c-1 1 1 2 2 2l-1-3a2 2 0 000-1l-1 2zm2 2l-2-2v-1c2-2 1 1 1 1l1 3s-4-3-2-3z"/><path class="k" d="M142 300l1 2c2 2 0-2 0-2v-1l-1 1z"/><path class="e" d="M130 309c-1 1 1 2 2 3l-1-4-1 1zm2 3l-2-3 1-1c1-2 1 1 1 1v3s-3-2-2-3z"/><path class="k" d="M130 309c-1 1 1 2 1 3 2 1 0-3 0-3v-1l-1 1z"/><path class="h" d="M148 310c1 0 0 3 3 1 2 0-2-2-3-2a4 4 0 000 1zm0-1v1a1 1 0 010-1l3 1a1 1 0 010 2c-3 1-2-1-3-2z"/><path class="i" d="M148 310c1 0 0 3 3 2 1 0 2-1 0-2l-3-1v1z"/><path class="e" d="M187 282v-4c-1-2 0-2 2-2l2 1-1 3c1 2-1 2-2 2 0 0-1 2-1 0zm0 0h1l2-1 1-4h-2c-2 0-2-1-2 1v4z"/><path class="k" d="M187 282v-4c0-2 0-1 2-1h1v3l-2 2h-1z"/><path class="e" d="M181 304c3 0 5 3 4 0 0-2 2-3 0-3l-3 2-1 1zm0 0c0 1-1-1 1-2l3-2c3 0 0 3 0 4 1 4 0 0-4 0z"/><path class="k" d="M181 304c3 0 5 3 4 0 0-2 3-3 1-3-2-1-1 1-4 1l-1 2z"/><path class="e" d="M196 292l2-2c4-2 6-1 4 0l-3 2c-2 1-3 2-3 0zm0 0l1 1 3-3 2-1a18 18 0 00-3 2c-2 1-4 0-3 1z"/><path class="k" d="M196 292c-1-1 1 0 2-2l4-1a7 7 0 00-2 1l-3 3-1-1z"/><path class="h" d="M226 267c0-1 0-2 2-2l2-1a10 10 0 002-1c1-1 2 3 2 3h-6l-2 1zm0 0l4-1h3l-1-2a9 9 0 01-2 1h-2l-2 2zm7-1"/><path class="i" d="M226 267l1-2h3l1-2c1-1 2 2 2 3h-3a10 10 0 00-4 1z"/><path class="h" d="M234 239l1 2-1 2c-1 1-7 6-6 3l4-6a7 7 0 012-1zm0 0h-1c-2 1-3 4-4 6-2 4 2 0 4-1l2-3-1-2z"/><path class="i" d="M234 239l1 2c-1 3-1 2-4 4 0 1-4 3-2 0 1-1 2-6 5-6z"/><path class="h" d="M238 258l5-6c2-3 1 2-1 4l-4 2zm0 0h1c3-3 4-2 5-6a5 5 0 00-1 1l-5 5z"/><path class="k" d="M238 258l5-5 1-1c-1 4-2 4-5 6h-1z"/><path class="h" d="M221 233l6-5c3-3 1 2-1 3l-4 2h-1zm0 0h1c4-2 5-1 6-5a4 4 0 00-1 0l-6 5z"/><path class="k" d="M221 233l6-5h1c-1 4-3 3-6 5h-1z"/><path class="h" d="M250 230c1 1-4 4-5 5-3 2-1-3 1-4l4-2v1zm0 0v-1c-4 2-5 2-6 6a4 4 0 001-1l5-4z"/><path class="k" d="M250 230l-5 4-2 1c2-4 3-4 7-6v1z"/><path class="e" d="M145 336l11-9c1-2-4-2-6 0l-3 3c-5 4-2 2-3 5l1 1zm0 0l-1-1c0-3-2-1 3-6l3-2c3-2 8-3 6 0s-7 7-11 9z"/><path class="l" d="M145 336c6-4 15-11 10-11-5 1-5 2-8 5-5 4-2 2-3 5l1 1z"/><path class="m" d="M156 326l-1-1c-5 1-5 2-8 5-5 4-2 2-3 5l6-5c7-2 0-2 4-3a4 4 0 002-1z"/><path class="n" d="M212 260l1-3 4-2c1-1 2 0 1 1a35 35 0 01-4 3s-1 2-2 1zm0 0c1 1 2-1 2-1l4-4a5 5 0 00-1 1l-3 1-2 3z"/><path class="l" d="M212 260l2-3 3-1s3-1 0 1a11 11 0 01-1 1l-2 1-1 1h-1z"/><path class="n" d="M211 255l1 2c0 2 0 0 1-1h1l-2-1-1-1a2 2 0 00-1 0l1 1zm0 0a1 1 0 00-1-1h2a1 1 0 010 1h2c1 1-1 1-1 2 0 0-1 2-2 0v-2z"/><path class="l" d="M211 255v2c1 2 2-1 2-1h1l-2-1-1-1h-1a1 1 0 011 0z"/><path class="n" d="M204 249l3-1 2-4v-1a43 43 0 00-4 4s-2 1-1 2zm0 0c-1-1 1-2 1-2l4-4a6 6 0 010 1l-2 4-3 1z"/><path class="l" d="M204 249l3-1 2-4s2-2-1 0a11 11 0 00-1 1l-2 2a3 3 0 00-1 0v2z"/><path class="h" d="M212 261a21 21 0 00-3 2l-2 3a6 6 0 003-2c1 0 4-4 2-3zm0 0c2-1 0 2-1 3a6 6 0 01-4 2l2-3a9 9 0 013-2z"/><path class="i" d="M212 261a18 18 0 00-2 1l-1 1a15 15 0 00-2 2h2a4 4 0 002-1l1-3z"/><path class="h" d="M226 263a23 23 0 00-1 2l5-2h-4zm0 0c0-2 8 0 3 1-2 0-6 4-3-1z"/><path class="k" d="M226 263l-1 3 2-1c2-2 5-1 3-2h-4z"/><path class="n" d="M150 293c-4 4-7 6-4 12 2 2 6 6 8 3l7-6 3-3c5-4 6-8 1-13-3-2-5 0-8 2a31 31 0 00-7 5zm0 0l7-5c3-2 5-5 8-2 5 5 5 9-1 13l-3 3-7 6c-2 4-6-1-8-3-4-6-1-8 4-12z"/><path class="l" d="M150 293c0 1-4 3-5 6-2 3 6 14 9 9 2-3 6-3 8-7 1-2 11-5 3-14-1-2-2-3-6-1l-9 7z"/><path class="m" d="M150 293a10 10 0 01-1 1c2 5-1 3-2 2a13 13 0 00-2 3 3 3 0 00-1 1c3 4 8 9 9 6 0-3 7-4 5-7-4-4-4-7-4-9a18 18 0 00-4 3zm17-3c0 1-2 1-1 5 0 4-4 4-4 2l-1-3c1 7-3 4-3 2 0 0-3-2-4-6l5-4c4-2 5-1 6 1a14 14 0 012 3z"/><path class="o" d="M146 299l2-3 1 1h2a4 4 0 000-2c1 1 0 3-1 4s-2-1-3-2l-2 2zm2-2z"/><path class="n" d="M108 308c-5 5-8 6-4 12 1 2 5 7 7 3l7-6 3-3c6-4 6-8 1-13-3-2-5 0-8 2a31 31 0 00-6 5zm0 0l6-5c3-2 5-5 8-2 5 5 5 9-1 14l-2 2-7 6c-3 4-7-1-9-3-3-6 0-8 5-12z"/><path class="l" d="M108 308l-6 6c-2 4 7 15 10 9 1-3 5-3 7-7 1-2 12-5 4-14-2-2-3-3-6-1l-9 7z"/><path class="m" d="M108 308a9 9 0 01-1 1c1 5-2 4-2 2a12 12 0 00-3 3 3 3 0 000 2c3 3 8 9 8 5 1-3 8-4 6-6-4-5-5-8-5-10a17 17 0 00-3 3zm17-3c-1 1-2 1-2 5 1 4-3 4-3 2 0-1-2-9-1-2 0 6-4 3-4 1 0 0-3-2-3-6l5-3c3-3 4-2 6 0a14 14 0 012 3z"/><path class="o" d="M103 314l2-3 1 1h2a4 4 0 001-2l-1 4c-2 1-3-1-3-2a6 6 0 01-2 2zm2-2z"/><path class="n" d="M179 287c-5 5-7 6-11 1-3-3-3-4-1-8l7-6c2-1 7 1 10 1 1 0 3 4 1 7l-6 5zm0 0a40 40 0 005-4c3-4 2-8 0-8-3 0-8-2-10-1-2 0-7 5-7 6-3 4-2 6 1 8 4 5 6 4 11-1z"/><path class="l" d="M179 287c-3 3-4 4-7 4-2 0-7-5-7-7 3-7 3-4 8-9 2-3 7 1 11 0l2 3c1 3-3 6-7 9z"/><path class="m" d="M170 290c-2-2-5-5-5-7 3-6 3-3 8-8a3 3 0 011-1c2 1 3 3 4 1l1-1a17 17 0 005 1c1 8-4 5-5 8-2 3-4 2-6 5-1 2-2 2-3 2zm-1-9c-3 3 1 6 0 2l2-2h-2z"/><path class="o" d="M169 279c1-1 2-4 4-4s2 2 3 1h2c-1 1-3 2-4 0s-4 2-5 3z"/><path class="n" d="M259 258c-6 5-7 6-12 1-2-3-3-4-1-8l7-6 10 1c2 0 3 4 1 7l-5 5zm0 0a40 40 0 005-4c3-4 1-8-1-8-3 0-8-2-10-1l-7 6c-2 5-2 6 1 8 5 5 6 4 12-1z"/><path class="l" d="M259 258c-4 3-5 4-8 4-1 0-7-5-6-7 2-7 2-4 7-9 2-3 7 1 11 0l2 3c1 3-3 6-6 9z"/><path class="m" d="M249 261c-2-1-5-5-4-6 2-7 2-4 7-9a3 3 0 012-1c1 1 2 3 3 1l1-1a17 17 0 005 1c2 8-3 5-5 8s-4 2-6 5c0 2-2 2-3 2zm-1-9c-3 3 2 6 1 3l1-2-2-1z"/><path class="o" d="M248 250c1-1 2-4 4-4s2 2 3 1h3c-2 1-3 2-5 0s-4 2-5 3z"/><path class="n" d="M194 258c-5 4-13 7-8 15 1 2 5 4 7 1 4-3 17-11 18-15 0-1-4-14-11-8l-6 7zm0 0a80 80 0 017-7c6-5 11 5 10 8 0 3-14 12-18 16s-9-2-9-7c0-4 6-8 10-10z"/><path class="l" d="M194 258s-9 5-10 8c-2 6 6 13 9 9s19-13 18-17-5-12-10-7l-7 7z"/><path class="m" d="M188 269c3-5 9-7 3-2 0 0-4 5-4 2h1zm6-11s-9 5-10 8a8 8 0 002 8 3 3 0 004-1l4-4c5-3 6-6 7-10s7-6 5-4c-3 2-7 5-4 10l9-7c-1-5-5-11-10-7l-7 7z"/><path class="o" d="M195 267c3-3 3-3 4-7 0-2 3-5 5-6a5 5 0 001 0l-1 1c-2 0-3 3-4 5-1 4-1 4-5 7z"/><path class="e" d="M173 257l7-7c2-2 10-11 13-10l5 5c4 3 0 5-2 7l-9 9c-4 3-8 8-12 2-3-2-4-3-2-6zm0 0c-2 4 0 4 2 7 5 4 8 0 12-3l9-9c2-3 5-4 2-6l-5-6c-2-1-10 7-11 8l-9 9z"/><path class="k" d="M173 257l6-6c2-2 11-11 13-11s4 5 6 6c2 0 2 2 1 3-4 4-8 10-12 12-2 1-7 8-12 3l-1-2c-2-2-2-2-1-5z"/><path class="g" d="M173 257l6-6c2-2 11-11 13-11s4 5 6 6a2 2 0 011 1 40 40 0 01-4 5l-1 1h-1c-2 1-4 0-3-1v-2c1-1 0 0 0 0l3-3 1-1v-2c-1-1-1 1-1 1a7 7 0 01-2 2l-3 4-2 3c0 2-3 5-5 6s-4 4-6 3l-1-1c-2-2-2-2-1-5z"/><path class="p" d="M173 261c0-3 3-5 4-7 2-3 2-4 6-7a17 17 0 016-4h1l-2 2c-4 2-7 5-9 9-3 3-5 3-6 7z"/><path class="e" d="M172 317c2 2 8 6 5 9-3 4-19 18-24 13 0 0-4-3-3-5 1-3 17-15 20-17a7 7 0 012 0zm0 0a5 5 0 00-2 0c-3 1-19 14-20 17-1 2 2 5 3 6 5 5 21-10 24-14 3-3-3-7-5-9z"/><path class="l" d="M172 317c2 2 8 6 5 9-3 4-20 18-24 14-5-6-5-5 5-14l12-9a6 6 0 012 0z"/><path class="m" d="M172 317l2 2a1 1 0 01-1 1c-3 1 3 3-4 4-3 6-4 4-9 6-3 1 0 8 2 2 1-3 2-1 4-3 1-1 0 3-2 5-1 1 0 2 1 2-5 3-10 6-12 4-4-5-5-5 0-9l2-2 3-3 12-9a7 7 0 012 0zm4 4c-2-1-3 0-3 1 0 4-3 4-3 4 5 3 4 2 2 5l5-5c1-2 1-3-1-5z"/><path class="o" d="M151 335c1-5 2-2 3-4l3-3a58 58 0 019-6l-10 8-1 2c-2 1-2-1-4 3z"/><path class="h" d="M191 314c-2-3-6-9-10-8-2 0-2 2-5 4s-3 2-2 5c3 8 10 8 15 2zm0 0l-2 3c-4 6-13 6-16-2-1-3 1-4 3-5s3-5 6-4 7 5 9 8z"/><path class="i" d="M191 314c-1-3-9-13-13-6-1 3-8 2-3 10 4 6 13 3 16-4z"/><path class="j" d="M186 307c-3-2-6-3-8 1-1 3-7 2-4 8 1-2 1-4 5 1 2 3-2 2-3 2a7 7 0 004 2 4 4 0 002-4c0-3 5-6 4-10z"/><path class="q" d="M181 317a10 10 0 013-5v-4l1 1c1 2 0 3-1 5l-3 3z"/><path class="h" d="M213 295c-1-2-4-10-7-7-4 3-8 4-12 8l-5 5c-3 3-4 2 0 6l4 5 5-5 8-7 7-5zm0 0l-7 5c-2 4-4 5-8 8l-5 4-6-6c-2-3 0-4 2-6l5-5c4-3 8-4 12-8 3-2 6 6 7 8z"/><path class="i" d="M213 295c-1-3-4-10-7-7l-12 8c-3 2-3 1-5 5-2 1-5 2-1 7 4 4 4 6 8 1 2-2 9-5 10-9l7-5z"/><path class="j" d="M211 290c-2-2-3-4-5-2l-12 8c-3 2-3 1-5 5-2 1-5 2-1 7l2 2 3-1c1-4 10-8 9-9 0-2 1-3-2-2h-5c-4-2 10-2 10-4 1-4 4-3 6-4z"/><path class="q" d="M199 295l5-1c1-1 3-4 4-3-2 0-2 3-3 4h-6z"/><path class="h" d="M235 266l6 5c1 0 9-4 8-6s-5-8-7-8c-1 0-12 6-7 9zm0 0c-5-2 3-8 7-9 3-1 7 5 7 7 1 3-5 6-7 7s-6-4-7-5z"/><path class="i" d="M235 266l4 4 3 1 7-5c1-2-2-5-3-6 0-1-3-4-5-3-7 4-9 7-6 9z"/><path class="j" d="M248 263l-2-2c-1-2-3-4-5-3-6 3-8 6-7 8l4 2c2 2 7-1 7-3-1 0 0-3 1-1 0 2 1 1 2-1z"/><path class="q" d="M236 263c-1-1 3-3 3-3a8 8 0 014-1l-2 1-5 3z"/><path class="e" d="M237 241c2 2 7 7 5 10l-4 5-6 5-5 1c-8-1-8-6-2-10 4-3 5-3 9-8a12 12 0 003-3zm0 0a14 14 0 01-3 3l-10 7c-6 5-6 11 3 11 2 1 4 1 5-1l6-5c3-2 2-3 4-5 2-3-3-8-5-10z"/><path class="k" d="M237 241c2 2 7 8 5 10-1 1 0 3-6 7s-3 4-9 4-9-4-5-8c3-4 7-4 12-9l3-4z"/><path class="g" d="M237 241l5 7h-1l-4 4c-2 3-6 4-6 7 0 6-10-1-9-3 1-4 2-3 3-5l9-6 3-4z"/><path class="p" d="M222 257c1-5 2-2 3-4l2-2a47 47 0 018-6l-8 7-2 2c-1 1-1-1-3 3z"/><path class="h" d="M151 274c-1 3-1 2-4 4-2 2-6 4-6 6l1 3c0 1 4 6 6 5 5-1 6-4 10-8a69 69 0 018-6c1-1 6-4 5-6l-7-7c-2-1-6 2-7 3a53 53 0 00-6 6zm0 0a41 41 0 016-6c1-1 5-5 7-4l7 8c1 2-3 5-5 6a74 74 0 00-8 7c-4 3-5 7-10 8-2 0-6-4-6-6l-1-3c0-2 4-5 6-6 3-2 3-1 4-4z"/><path class="i" d="M151 274l-3 3-3 2c-2 2-5 4-3 7 1 2-1 2 2 5 3 2 3 2 5 1 5-1 5-5 9-7l8-7a23 23 0 005-4c1-2-1-3-2-4l-2-3c-4-3-4-4-9 0l-7 7z"/><path class="j" d="M147 278a16 16 0 00-2 1c-2 2-5 4-3 7 1 1 4 2 5 1 2-2 5-2 7-5v-4l4-4c3-1 5-6 7-8-2-2-3-2-6 1l-5 4c-1 3-1 5-7 7zm23-3a6 6 0 01-2 1c-7 1-8 5-13 10-1 1-7 5-8 3 2-3 4-1 8-6 3-3-2-2 6-9l6-6 2 2c1 1 3 2 2 4z"/><path class="q" d="M164 266c-1-1-2-1-4 1s-2 4-5 6a17 17 0 01-4 4l3-5 4-4c1-1 5-5 6-2z"/><path class="h" d="M125 330c1-3 1-2 4-4 2-2 6-4 6-6l-1-3c0-1-4-6-6-5-5 1-6 4-10 7a69 69 0 01-8 7c-1 1-6 4-5 6l7 7c2 1 6-2 7-3a52 52 0 006-6zm0 0a41 41 0 01-6 6c-1 1-5 5-7 3l-7-7c-1-2 3-5 5-6a73 73 0 008-7c4-3 5-7 10-8 2 0 6 4 6 5l1 3c0 3-4 5-6 7l-4 4z"/><path class="i" d="M125 330c1-3 0-2 3-3l3-3c2-2 5-3 3-6-1-2 1-2-2-5-3-2-3-2-5-1-5 1-5 4-9 7l-8 7a22 22 0 00-5 4c-1 2 1 3 2 4l2 2c4 4 4 5 8 1l8-7z"/><path class="j" d="M129 326a13 13 0 002-2c2-2 5-3 3-6-2-2-4-2-5-2-2 3-6 3-7 6v4l-5 4c-2 0-4 6-7 8 3 2 3 2 7-1l5-4c1-3 1-5 7-7zm-23 3a6 6 0 012-1c7-1 8-5 13-10 1-1 7-5 8-3-2 3-4 1-8 5-3 4 2 3-6 10l-6 6-2-2c-1-1-3-2-2-4l1-1z"/><path class="q" d="M112 338c1 1 2 1 4-1s2-4 5-6a17 17 0 014-4l-3 5-4 4c-1 1-5 5-6 2z"/><path class="e" d="M162 302c-2 4-4 4-7 7s-3 5 0 9c1 3 4 6 7 3l2-2c5-2 6-2 8-7 1-3 8-7 8-9-5-12-11-5-17-2a2 2 0 00-1 1zm0 0a1 1 0 011-1c6-4 13-10 17 2 1 2-7 6-8 9-2 5-3 5-7 8l-3 1c-3 3-6 0-8-3-2-4-3-6 1-9l7-7z"/><path class="k" d="M162 302c-5 7-12 7-9 13 1 4 6 11 10 5 1-1 8-2 9-8 1-3 8-7 8-9-5-12-11-5-17-2a4 4 0 00-1 1z"/><path class="g" d="M162 302l-1 1a28 28 0 013 9 20 20 0 01-1 4v-4a19 19 0 00-3-8c-4 5-9 6-7 11 5 11 12 8 12-3 0-4-3-7 2-5l7 3 2-3c-3 1-4-6-8-7-2-1-4 3-6 2zm8 14c-2-2-3-7 2-3a9 9 0 01-2 3zm2-20c6 1 7 7 4 7-5 0-7-4-7-6a10 10 0 013-1z"/><path class="p" d="M153 314c-3-1 2-5 3-5a22 22 0 002-3l3-3-2 4-5 5c-1 1-2 1-1 2z"/><path class="k" d="M159 322c-1-5-1-7 1-12 1-3-1-3-1-5a6 6 0 011 5v3c1 4 3 1 5 5l-4-4c-1 4 2 3 2 5 0-2-3-2-3-5v-3c-2 5-1 6-1 11zm0-17z"/><path class="e" d="M235 269l4 4c-1 4-10 9-12 12s-7 9-11 5c-3-3-2-1 0-7 1-2 2-7 4-9s8-8 12-7a5 5 0 013 2zm0 0c-1-2-2-2-4-2-4 0-11 6-13 9l-4 12 3 3c4 3 8-3 10-6 3-3 11-8 12-12 1-1-3-4-4-4z"/><path class="k" d="M235 269l4 4c0 2-6 7-7 8-4 4-4 2-7 7-2 3-6 5-9 2-2-2-3-1-1-5 1-3 3-10 5-11 3-3 11-11 15-5z"/><path class="g" d="M214 288a14 14 0 011-3c1-3 3-10 5-11 2-2 9-9 13-7 2 2 4 3-1 8-3 4-4 2-7 6l-10 7z"/><path class="p" d="M217 282c1-4 7-14 12-14h1-1c-5 2-9 10-12 14z"/><path class="e" d="M217 279l7 2c3-1 8 4 3 0h-6c-4-2-2-2 0 3l-2-4-2-1zM202 248l-6-7c-2-4 1-6 4-8 2-2 13-13 15-12l5 5c2 1 4 3 2 5l-10 9c-1 1-9 9-10 8zm0 0l10-8 10-9c2-2-1-4-2-5l-6-5-12 11c-5 4-9 5-4 11l4 5z"/><path class="k" d="M202 248c-1-3-4-4-6-7s0-5 3-7l9-8 6-5 6 5c1 1 4 4 2 5a173 173 0 00-14 12l-6 5z"/><path class="g" d="M199 234l9-8c1-1 5-6 6-5a8 8 0 012 1v3c4 1 4 0 4 3 2 4-2 4-3 3-3-2-3 2-4 6l-9 8c-3 1-4 0-5-2-3-3-2-5-2-5l2-4zm2 3a8 8 0 011-2v-1a1 1 0 01-1 1s-3 6 1 2zm15-5c-1 0-3 2-1 3 0 0 2-1 1-3 1 0 0-1 0 0z"/><path class="p" d="M204 231c-1-1 8-7 10-8l-1 1c-3 4-6 5-9 7z"/><path class="k" d="M200 245a6 6 0 000-3c0-2 2-4 3-4h-1l-2 4v3z"/><path class="e" d="M135 363c-2-3-5-4-6-7-3-4 1-5 4-8 2-2 13-13 14-12l6 5c2 1 4 4 2 6l-10 8c-1 1-9 9-10 8zm0 0c1 1 8-7 9-8l11-9c2-1-1-4-2-5-3-1-4-4-6-5l-13 11c-4 4-8 5-4 11l5 5z"/><path class="k" d="M135 363l-6-7c-2-3 0-4 3-7l9-8 6-5 6 5c1 1 4 4 2 5a176 176 0 00-14 12c0 1-5 6-6 5z"/><path class="g" d="M132 349l9-8 6-5a9 9 0 012 1v3c3 1 3 0 4 3 1 4-2 5-3 4-3-3-3 2-4 5l-10 8c-2 1-3 0-5-2-3-3-1-5-1-5l2-4zm2 3a8 8 0 011-2v-1a1 1 0 01-1 1c-1 0-3 6 0 2zm15-5c-1 0-3 2-1 3a2 2 0 001-3s0-1 0 0z"/><path class="p" d="M137 346c-1-1 8-7 9-7v1l-9 6z"/><path class="k" d="M132 360a6 6 0 001-2c0-3 2-4 2-5v1s-2 1-2 3v3h-1zM217 279l7 2c3-1 8 4 3 0h-6c-4-2-2-2 0 3l-2-4-2-1z"/><path d="M113 607c4-2 10 2 19 8l25 13c10 6 9 7 19 14l38 21c6 4 11 9 18 11 1 0 5 1 6 4 1 2-1 6-2 7-7 13-12 27-21 39-5 8-18 27-27 46-4 10-11 18-15 28l-4 5c-4 1-10-4-13-7-6-5-16-11-36-22-16-9-17-7-27-14-12-9-11-12-20-17-14-7-25-4-28-10-1-4 1-8 4-12l22-36c10-16 6-13 20-34 7-11 14-20 15-28a91 91 0 017-16z" fill="#ffe161"/><path class="s" d="M106 767a2 2 0 01-2-2l1-1 1-2 1-3a3 3 0 011-1l2-5v2a6 6 0 001-2 2 2 0 001 1 2 2 0 001 0l-3-2a4 4 0 011 0l1-2 1-1v-1l2-2a31 31 0 001-3v-1a2 2 0 012-1l1-3 1-3a3 3 0 013-2 42 42 0 012-7l1-4 2-6 1 5 1-1v-2a1 1 0 011 0 4 4 0 010-1 56 56 0 002-5h1c0-2 0-2 2-2v-1l1-1a2 2 0 010-1l1-2 2-4a1 1 0 011-2 2 2 0 011 0l1-3v-1a1 1 0 011-1l1-2v-1a1 1 0 011-1 33 33 0 002-3 2 2 0 010-1 10 10 0 001-5l3 1v-1a2 2 0 00-1 0 5 5 0 011 0c0-3 1-5 2-5 1-1 1-3 3-3a23 23 0 010-3l1-1 1-3 1-2 2-2v-1h-7l8-2 2-3h-1l2-2a21 21 0 012-4v-1a29 29 0 002-4 55 55 0 013-5 16 16 0 001-3l4 1a19 19 0 01-1 5l-2 2-1 2a29 29 0 01-2 3 1 1 0 010 2 13 13 0 00-2 2v1h-1a14 14 0 00-1 3 7 7 0 01-2 3 14 14 0 01-1 2l-1 4h-2v1l-1 1 1 1h-1l-1 5v3l-2-2a8 8 0 000 1v2a2 2 0 01-2 0 10 10 0 00-1 4h-1l-2 4a29 29 0 01-3 5 14 14 0 00-1 2 31 31 0 01-2 5h-1v1l-1 3h-1l-3 6v1c-2 3-2 4-4 4l-2 4v2l-1 2-1 1-1 2-1 1a2 2 0 01-1 0l-1 1a60 60 0 00-1 6 2 2 0 010 2l-2 4-1-2a2 2 0 01-1 0v2l-3 5-1 2-2 4a5 5 0 01-1 1l-1 2h-1l-1 4a17 17 0 01-2 5l-1-1-1 3-1 1h1l-1 2a2 2 0 01-2 0zm18-32h-2a2 2 0 001 1 2 2 0 001 0 1 1 0 000-1zm-3-1l1 1a2 2 0 010-1 2 2 0 00-1 0zm40-63v-1a1 1 0 010 1zm5-18a1 1 0 000 1 1 1 0 010-1z"/><path class="s" d="M94 762a20 20 0 011-2 2 2 0 012-2l2-4c1-4 2-6 4-7a12 12 0 011-3l2-2v-1l1-2 2-3a2 2 0 010-2 2 2 0 012-1l2-5v-2 1a8 8 0 012-2 3 3 0 010-1 9 9 0 011-2l2-3 1-1v-1a2 2 0 011-2l3-5h1a4 4 0 011-2l1-2a3 3 0 010-1v-1l2-1h1v-1c1-5 2-9 4-10 0-2 1-3 2-3l2-5 1-3a1 1 0 010-1 5 5 0 001 0 7 7 0 010-1l4-7a2 2 0 011 0 3 3 0 010-1l1-1a17 17 0 002-2v-1a11 11 0 011-4 4 4 0 010-1v-1h1l1-1v-1l2-2a8 8 0 011-2 2 2 0 012-2l3-8 1-1a2 2 0 012 0l1-6a2 2 0 001-1c-1-1 0-1 1-2h3v2l-5 11-3 6v2l-1 10-2-8v1-2a31 31 0 00-2 4l-1 1-1 1a4 4 0 01-1 1 11 11 0 00-1 4l-2 4-1 2a6 6 0 010 2l-4 6v-3 1a4 4 0 010 2h-1l-2 3-1 3v1a2 2 0 000 1v1a1 1 0 01-1 1 3 3 0 01-1 0v1l-1 1v1l-1 1-1 1a18 18 0 00-1 5l-5 10 1-2a7 7 0 01-1 2l-3 3-3 5-4 5 1 1a4 4 0 01-1 0 6 6 0 00-1 3 3 3 0 01-1 0l-2 7-1 1v2h-1a3 3 0 01-1 0l-1 2a22 22 0 01-2 4l-2 6 1 8-3-6-2 5h-1l-1 5-2-1v1zm30-52zm2 1l-1-1a2 2 0 001 1zm13-31zM89 756a2 2 0 01-1 0v-1h-1v-1a1 1 0 011-1v-1l2-2a3 3 0 011-2l2-7h1l1-3 1-1a5 5 0 010-1 1 1 0 010-1 15 15 0 014-4 29 29 0 002-4 1 1 0 011-1l2-3-1-1 2-1a31 31 0 003-6 2 2 0 010-1 8 8 0 010-1v-1l2-5h1v1l2-3v-2h1a16 16 0 002-6v-1l1 1h1v-1a12 12 0 010-2l2-2a3 3 0 011 0 11 11 0 001-4 2 2 0 011-2 17 17 0 010-2 2 2 0 012-1l1-1a2 2 0 011-2 30 30 0 011-3 5 5 0 011-2h1v-1h-1l1-3a4 4 0 011-1 6 6 0 002-2l1-2a7 7 0 002-4 5 5 0 011-2 13 13 0 001-2h1l3-3a35 35 0 002-10v-10h1l2 6a2 2 0 012-1v-1a27 27 0 013-6l1-1 4-7v3a3 3 0 011 0l1 2v1l-1 2-2 2h-1a23 23 0 00-3 6 4 4 0 010 2 12 12 0 01-1 3l-4 8v-2l-1 4-1 1v4l-1 1v-1l-1-1a5 5 0 010 2h-1a2 2 0 01-1 0l-1 1a9 9 0 01-3 5v1a8 8 0 01-3 3 2 2 0 000 1v1a24 24 0 01-1 3l-2 7-1-1-1 2h-1c0 2-1 2-2 3a14 14 0 01-2 7 18 18 0 00-1 2h-1a15 15 0 00-1 2 1 1 0 010 1l-2-1v1a18 18 0 01-1 2v1a2 2 0 010 1l-1 2a44 44 0 01-4 6h-1v1a3 3 0 010 2 2 2 0 01-1 0 37 37 0 01-3 8v1l-1 1-1 3a1 1 0 01-1 1 30 30 0 01-2 3v1a3 3 0 010 1l-1 1a4 4 0 01-1 0l-2 3h-1v1l-2 5-1 1-2 6h-1a41 41 0 00-1 4v1l-2 1zm60-115v-1 1zm9-11a2 2 0 002 1z"/><path class="s" d="M80 750a3 3 0 01-2-3h2a3 3 0 011-1v-1a15 15 0 011-2 22 22 0 011-5l2-3h1a2 2 0 011-1v-1a12 12 0 013-5l1-2v-1a1 1 0 011-1l1-2a3 3 0 011-2 20 20 0 012-4v-2l1-4h1v0-2h1l1 1h1l1-3a2 2 0 010-1l2-3a5 5 0 012-2l1-2 2-3 1-2h-1l2-5a4 4 0 010-2l2-5h1v3h1l1-2 1-5h1l1-3 2-4 1-1v-1a5 5 0 010-2h1v-1-2h2a8 8 0 001-2h2l-1-1h-1l1-1v-1a2 2 0 011-1l1-2v-1a1 1 0 011-1l2-3 1-1 1-1 1-1a25 25 0 002-5 18 18 0 011-2 2 2 0 011-2 8 8 0 011-1 4 4 0 001-2l1-2a2 2 0 011-1 17 17 0 011-4l1-1a3 3 0 010-1 17 17 0 010-3l1-3 2 4a3 3 0 011 1h1a13 13 0 01-1 2 4 4 0 01-1 1v1l-2 5v1a2 2 0 01-1 0v1a6 6 0 01-2 3 3 3 0 00-1 3h-1v1a28 28 0 01-3 6l-1 1-1 1v1a2 2 0 01-1 0l-1 2a27 27 0 01-2 3l-1 2-1 2-1 1-3 4v2l-1 2-1 3-1 1-1 1a23 23 0 01-2 5v2a31 31 0 00-1 5v1h-3v-1 1h-1a3 3 0 010 1 40 40 0 01-3 8v1l-1 3h-1a9 9 0 01-1 2h-1a6 6 0 00-1 2 6 6 0 010 1h-1a2 2 0 010 1v1a37 37 0 00-2 5l-2 6-1-3-2 3a14 14 0 00-1 4h-1l-2 3a17 17 0 01-2 4v1a11 11 0 00-3 5v1h-1a2 2 0 01-1 1h-1a20 20 0 00-1 6 3 3 0 010 1h-1a42 42 0 00-1 4v1h-2a2 2 0 01-2 0zm3-6a3 3 0 001 1 2 2 0 001 0zm23-43a2 2 0 001 1 3 3 0 001 0zm30-51a2 2 0 001 0zM71 742l-2-1a3 3 0 012-2 16 16 0 011-2 6 6 0 002-3l3 1a2 2 0 00-1-1 2 2 0 00-2 0 4 4 0 001-1l-1-1 1-1v-1l4-4a13 13 0 011-2v-1l1-3a35 35 0 013-5 6 6 0 001-1l1 1a2 2 0 002 0l-3-1a11 11 0 001-3l2-2a16 16 0 001-4 2 2 0 011-2l1-1a12 12 0 010-2h3a22 22 0 001-5 2 2 0 010-1 49 49 0 011-3 1 1 0 012-1l1-4v1a6 6 0 012-1 2 2 0 000-1 1 1 0 010-1l1-1 3-4v-1a4 4 0 011-3 16 16 0 003-5 19 19 0 010-3l2 1a9 9 0 011-2 21 21 0 002-5h-1l2-2v-1a5 5 0 012-2 16 16 0 013-5v-1l2-1a20 20 0 002-5l1-6 1 2a10 10 0 012-3l1-1v-2a7 7 0 011-2 3 3 0 011-1 34 34 0 013-5l1-1 1-3a48 48 0 012-5h1a8 8 0 001 0l3 1c0 2-1 2-2 2v1l-2 3-1 4-2 2-1 1a3 3 0 000 1l-1 1v1l-1 3-1 4h-2l-2 3v1a11 11 0 01-2 4l-2 3-1 1a2 2 0 01-1 1 17 17 0 00-1 3 3 3 0 010 1v1a2 2 0 01-2 0l-1 1c1 1 0 2-1 2a23 23 0 01-2 6v2s-1 3-3 3h-1a33 33 0 01-3 7v1h-1l-2 4a4 4 0 01-1 3 5 5 0 00-2 2 4 4 0 01-3 4v1a20 20 0 01-1 6l-3 3a3 3 0 01-1 1 3 3 0 01-1 1 16 16 0 01-1 4l-2 4h-1a10 10 0 01-1 1 4 4 0 010 1 13 13 0 01-1 2 2 2 0 01-1 1l-2 4a1 1 0 010 1l-1 2a9 9 0 000 2l-1 6-2-4-1 2h-1a2 2 0 010 1l-1 3a8 8 0 01-1 3 12 12 0 00-2 3l-2 7zm33-58a2 2 0 00-2-1l2 1zm37-66h-1zM65 737a3 3 0 01-1 0v1c0 1-1 4-3 4a3 3 0 01-2-1 2 2 0 01-1-2h1a9 9 0 001-4l1-11h1l1 7h1a2 2 0 011-1l1-2a14 14 0 001-5h2v-1a2 2 0 00-2 0 7 7 0 012-2v-1h-4l-1-1h8a10 10 0 002-2v-1a38 38 0 002-5 11 11 0 010-2h1a7 7 0 000-1 3 3 0 011 0 11 11 0 001-3l1-2 1-3c1-2 2-4 4-4l1-3 1-2a6 6 0 010-2l2-2v-2a1 1 0 010-1 4 4 0 012-2h1a2 2 0 011-2l1-2 1-3 2-3v-1l1-1 1-2a3 3 0 011-2 2 2 0 012-1v-2l3-5h1l1-3a1 1 0 010-1 54 54 0 001-4h2v-1a2 2 0 00-1 1 1 1 0 000-1 3 3 0 012 0v-1a6 6 0 012-2 15 15 0 000-4l-1-3h1l2 1a38 38 0 002-5 1 1 0 011-2h2l1-6v-1a1 1 0 012-1 5 5 0 012-2 2 2 0 001-1 4 4 0 010-2 40 40 0 012-4 2 2 0 001 1 2 2 0 002 0v-1l-3-1v-1a2 2 0 012 0 2 2 0 011 3 29 29 0 01-1 3v2a4 4 0 01-2 3c-1 1-2 1-2 4h-1l-2 4c-1 4-1 5-3 5v1l-3 4a16 16 0 01-1 3l-1 3h-1a5 5 0 000 1v1h-2a1 1 0 001 0h-1a2 2 0 010 1l-1 2a34 34 0 01-2 5l-2 3v1l-2 4a1 1 0 01-1 1h-1l-2 9v-3h-1v1l-2 4h-1a54 54 0 00-1 5v1l-2-1a1 1 0 000 1h-1l-1 3-1 3a2 2 0 01-1 1l-2 5a1 1 0 010 1 1 1 0 01-2 1 7 7 0 00-2 2 26 26 0 010 3l-1 2a13 13 0 01-2 3 3 3 0 010 1 18 18 0 01-1 1 5 5 0 01-1 2l-1 3c0 3-1 3-2 3a9 9 0 01-1 2 11 11 0 01-3 2l-2 2a16 16 0 01-1 5 23 23 0 00-1 4l-1 11h-1l-1-7zm-4 3a2 2 0 00-1-1l1 1a2 2 0 000-1zm17-32a2 2 0 001 1 2 2 0 001 0z"/><path class="s" d="M56 731a2 2 0 01-1-3v-2h1l2-5v-2l1-1a3 3 0 010-1v-1h1a3 3 0 011 0 13 13 0 001-6h4a2 2 0 00-1 0 2 2 0 00-1 0 6 6 0 001-1l1-4a10 10 0 002-2 14 14 0 011-2h1l1-2a3 3 0 010-1v-2l2-5v-1h1l1-3 2-4v-1l1-5h1l1 3 2-5 2-3v-1l-1-3 2 2h1a2 2 0 011-1 2 2 0 010-1 4 4 0 011 0c0-2 1-3 2-3l1-1a80 80 0 011-5 2 2 0 010-1l1-1c0-2 1-3 2-3a13 13 0 011-2 18 18 0 002-6l1-8h1l1 5a3 3 0 010-1 1 1 0 011 0 25 25 0 001-3 3 3 0 010-2l1-3 1 1h1v-1a20 20 0 003-7h1l1-2a30 30 0 012-3l2-3 1-3a6 6 0 011-2 8 8 0 012-4 6 6 0 001-1v-1c1-2 1-4 3-3a3 3 0 012 2 1 1 0 011 0v1h-1l-1 1a1 1 0 01-1 1 8 8 0 01-1 2 6 6 0 00-1 4v7h-1l-1-4h-1a11 11 0 01-1 2l-1 2-1 2v1a74 74 0 00-2 5 2 2 0 01-2 1 20 20 0 01-1 3 8 8 0 00-1 3h-1l-1 1a19 19 0 01-1 3l-2 4a2 2 0 01-1 0 5 5 0 00-1 2 3 3 0 01-1 1 19 19 0 01-2 4 9 9 0 00-1 4h-1v1a19 19 0 00-1 2l-1 1a67 67 0 00-1 6l-1 6-1-3-1 1h-1a4 4 0 01-3 3 8 8 0 01-1 2 2 2 0 010 1h-1l-2 7a1 1 0 01-1 1 3 3 0 01-2 2l-1 2-1 2-1 3v-1l-1 1-1 5-1 3-3 2v1a12 12 0 01-2 3 11 11 0 000 2v1h-2a7 7 0 01-1 1 15 15 0 01-1 4l-2 3v1a6 6 0 01-1 1h-1v1l-1 5-1 1v2h-1a2 2 0 01-2 1zm4-12h-1 1zm8-11zm-2-1zm5-5zm2-4l1 1a2 2 0 00-1-1zm20-38a2 2 0 001 0zm10-16a2 2 0 00-1 0 2 2 0 002 1 2 2 0 00-1-1zm18-36a2 2 0 00-1 0l1 1zm3 0zM158 800a22 22 0 011-2 2 2 0 012-1v-1l2-3c1-4 2-6 4-7a12 12 0 011-4l2-2 1-3 1-2a2 2 0 011-3 2 2 0 012 0l2-5v-2a8 8 0 012-2 3 3 0 010-1 8 8 0 011-1l2-4h1v-2a2 2 0 011-1l3-6v1a1 1 0 011 0 4 4 0 011-2l1-2a3 3 0 010-1l-1-1h1c0-1 1-2 2-1h1v-1c0-6 2-9 4-10 0-2 1-3 2-3l2-5 1-3a1 1 0 010-1h1a8 8 0 010-1l4-7a2 2 0 011-1l1-1a16 16 0 001-3 11 11 0 012-5 4 4 0 010-1h1a2 2 0 010-1h1v-1l1-2a9 9 0 012-3 2 2 0 012-1l3-8 1-1a2 2 0 012-1l2-5h-1a2 2 0 001-1c-1-1 0-2 1-2l3-1v3l-5 11-3 6v2l-1 9-2-7v1-2a31 31 0 00-2 3v1l-1 1-1 1a4 4 0 01-1 1 11 11 0 00-1 4l-2 4-1 1a6 6 0 010 2l-4 7v-3 1a4 4 0 01-1 2 76 76 0 01-3 6v-1 2a2 2 0 000 1v1a1 1 0 01-1 1 3 3 0 01-1 0l-1 1v1c0 1 0 0 0 0l-1 2-1 1a18 18 0 00-1 5l-5 9v-1a7 7 0 01-1 2l-2 3v-1l-2 4-1 2-4 5h1a4 4 0 01-1 1 6 6 0 00-1 2 3 3 0 01-1 1l-2 6-1 2v1l-1 1a3 3 0 01-1 0l-1 2a22 22 0 01-2 4c-2 2-2 3-2 5v9l-3-7-1 6h-1l-2 4h-1v1zm30-51zm1 0a3 3 0 001 0zm14-30zM152 793a2 2 0 01-1-1h-1v-2a1 1 0 011-1l2-3a3 3 0 011-1l2-7h1a1 1 0 010-1l1-2 1-2a1 1 0 010-1 15 15 0 014-4v-1a28 28 0 002-3 1 1 0 011-1v-1l2-3h-2l3-2a30 30 0 003-6 2 2 0 010-1v-1-1l3-5v2l2-3c-1-1 0-2 1-2v-1l2-6h2a14 14 0 011-2c0-2 1-2 2-2a11 11 0 002-5 2 2 0 010-2 16 16 0 011-1 2 2 0 011-2l1-1a2 2 0 011-1 28 28 0 011-3 5 5 0 012-3v-1l1-2a4 4 0 011-1 6 6 0 001-2l1-3a7 7 0 003-3 5 5 0 011-2 11 11 0 000-2h2c0-2 1-3 2-3v-1a35 35 0 002-10l1-11 2 8a2 2 0 012-2 26 26 0 013-7l1-1 5-7-1 4a3 3 0 011 0s2 0 1 2a3 3 0 000 1l-1 2c0 1-1 2-3 2a26 26 0 00-3 5 4 4 0 010 2 13 13 0 01-1 4l-4 8v-2l-1 3-1 2v5l-2-3a5 5 0 010 2h-1a2 2 0 01-1 1 4 4 0 00-1 0v1a9 9 0 01-3 4v2a8 8 0 01-3 3 2 2 0 000 1v1a25 25 0 01-1 2l-2 9-1-4-1 4-1-1c0 2-1 3-2 3a13 13 0 01-2 7 16 16 0 00-2 2 16 16 0 00-1 3h-2a18 18 0 01-1 3v1a2 2 0 01-1 0h1l-1 2a44 44 0 01-4 6l-1 1v2a4 4 0 01-1 1 35 35 0 01-1 3l-2 4v1l-1 2-2 3-1 1a31 31 0 01-2 3 3 3 0 011 1v1h-1a4 4 0 01-2 0 35 35 0 00-2 3v2l-2 5h-1l-2 7-1-1a37 37 0 00-2 5l-1 2zm60-116v1-1zm9-10a2 2 0 002 0z"/><path class="s" d="M140 790a3 3 0 01-1-3h2a3 3 0 011 0v-1a15 15 0 011-3 21 21 0 011-4l2-4a2 2 0 012-1 12 12 0 012-5l1-3a1 1 0 011-1l2-3a3 3 0 011-1 20 20 0 012-5v-2l1-4 1 1v-2l2 1h1l1-3a2 2 0 010-2c0-2 1-2 2-2a5 5 0 012-3v-1l3-3 1-3-1 1 2-5a3 3 0 010-2l3-7v4a4 4 0 011 0v-2l2-4 2-3 2-5 1-1a4 4 0 010-2v-1h1v-2-1l1 1a7 7 0 002-3l2 1v-1h-1a1 1 0 00-1 0 14 14 0 000-1l1-1a2 2 0 011-1l1-2v-1a1 1 0 011-1v-1l1-2 2-2h1l1-1a26 26 0 002-6v-2l2-1a8 8 0 011-1 4 4 0 001-3l1-2a2 2 0 011 0 16 16 0 011-4l1-2a3 3 0 010-1 16 16 0 010-2l1-4 2 4a3 3 0 011 1l1 1a8 8 0 01-1 1 4 4 0 01-1 1v2l-2 4v1a2 2 0 01-1 1 6 6 0 01-2 4 3 3 0 00-1 3h-1a27 27 0 01-3 6l-1 1a4 4 0 010 1l-1 1v1a2 2 0 01-1 0l-1 2a30 30 0 01-2 3l-1 2-1 2-1 1-3 4-1 2v2l-1 3-1 1v-1l-1 2a23 23 0 01-2 5l-1 1a31 31 0 00-1 5v2l-2-1-1 1a39 39 0 01-3 9l-2 5v-2a10 10 0 01-1 2h-1a6 6 0 00-1 2v2l-1-1a2 2 0 01-1 1v1a37 37 0 00-2 5l-1 8-1-5-1 1-2 3a13 13 0 00-1 4h-1l-1 2a17 17 0 01-2 4v1h-1a11 11 0 00-2 5v1h-1a2 2 0 01-2 1 20 20 0 00-1 6 3 3 0 010 1h-1a41 41 0 00-1 5h-2a2 2 0 01-3 0zm4-5a2 2 0 001 0 2 2 0 001 0zm23-43a2 2 0 001 1 3 3 0 001 0zm30-52a2 2 0 010 1 3 3 0 001 0zM132 782l-2-1a3 3 0 013-2 18 18 0 011-2 6 6 0 001-2h3a2 2 0 00-1-1 2 2 0 00-2 0 4 4 0 001-1h-1l1-2v-1l4-4a14 14 0 011-2l1-1 1-2a34 34 0 012-6h1a5 5 0 000-1l1 2a2 2 0 002 0l-3-2a11 11 0 001-3l2-1a16 16 0 001-5 2 2 0 012-1v-1a12 12 0 010-3h3a22 22 0 002-4 2 2 0 010-1v-1a34 34 0 011-3 1 1 0 011-1l2-4v1a6 6 0 011-1 2 2 0 001-1 1 1 0 010-1v-1l3-4v-1a4 4 0 012-2 16 16 0 002-6 21 21 0 010-2h2a10 10 0 011-2 21 21 0 002-5h-1l2-2 1-1a5 5 0 011-2 14 14 0 011-2 14 14 0 012-3l2-2a20 20 0 002-4 1 1 0 010-1l1-6 1 3a10 10 0 012-3l1-2 1-1a8 8 0 011-3 4 4 0 011-1 34 34 0 012-5l1-1 1-3a49 49 0 012-5h1a9 9 0 001 0l3 1c0 2-1 3-2 3l-2 3-1 4-2 2v1a3 3 0 00-1 1l-1 1v1l-1 3-1 4h-2l-1 3-1 1a11 11 0 01-1 4l-3 3-1 1a2 2 0 01-1 1 16 16 0 00-1 3 4 4 0 010 1h1l-1 1a2 2 0 01-2 0l-1 1v2a23 23 0 01-3 6v2l-3 4a33 33 0 01-4 6v1l-3 4a4 4 0 01-1 3 5 5 0 00-2 2 4 4 0 01-3 4v1a20 20 0 01-1 6l-2 3a3 3 0 01-2 1 3 3 0 01-1 1 15 15 0 01-1 4l-2 4h-1a10 10 0 010 1 5 5 0 01-1 1 13 13 0 01-1 2 2 2 0 01-1 1l-1 4a1 1 0 010 1l-1 2a10 10 0 00-1 2l-1 6-2-4-1 2a2 2 0 010 1l-2 3a8 8 0 01-1 3 12 12 0 00-1 3l-3 7zm33-58a2 2 0 00-1 0h1zm37-66z"/><path class="s" d="M130 771l-1-1a3 3 0 01-1 1c0 2-1 5-3 5a3 3 0 01-2-1 2 2 0 010-3l1 1a8 8 0 001-4l1-13 2 9a2 2 0 012-1v-3a14 14 0 001-4 1 1 0 010-1l2 1v-1a2 2 0 00-2 0l1-1 2-2-6-1 8-1a10 10 0 003-2 36 36 0 001-5 14 14 0 010-2h1l1-1a12 12 0 002-4l1-2v-2c1-3 3-4 4-4l1-3 1-2v-1a5 5 0 011-1l1-2 1-2a1 1 0 010-1 4 4 0 012-2 2 2 0 011-2 2 2 0 011 0v-2l2-3 1-3v-1l1-1 1-2a3 3 0 011-2 2 2 0 012-1l1-2 2-5h1l1-3a1 1 0 010-1l1-1 1-4 2 1a3 3 0 010-1 2 2 0 00-2 0 3 3 0 012-1 5 5 0 012-2 14 14 0 001-4l-1-4 2 2a37 37 0 003-6 1 1 0 010-1l1-1 1 1 2-6v-1a1 1 0 011-1 5 5 0 012-2 2 2 0 001-2 4 4 0 011-2l1-2v-2l2 1a2 2 0 002 0l-4-2a2 2 0 013 0 2 2 0 011 2l-1 2v2l-1 2a4 4 0 01-2 3l-2 4h-1l-1 4-3 5h-1c-1 4-2 5-3 5a15 15 0 010 3l-2 3a3 3 0 00-1 1h-2v1a1 1 0 001 0 2 2 0 01-1 1l-1 2a34 34 0 01-1 5l-2 3-1 1 1-1-2 4-1 1a2 2 0 01-1 1l-3 10v-5a2 2 0 01-1 1v1l-2 4a51 51 0 00-2 5h-2v1l-2 3-1 3a2 2 0 010 1l-2 5a1 1 0 01-1 1 2 2 0 01-2 1 7 7 0 00-1 2 27 27 0 01-1 2 1 1 0 010 1l-1 2a13 13 0 01-1 3 2 2 0 01-1 0 15 15 0 01-1 2 4 4 0 010 1l-1 4-2 3a8 8 0 01-2 2 10 10 0 01-2 2l-2 2a15 15 0 01-1 5 24 24 0 00-1 4l-2 12zm-5 2a2 2 0 00-1 0l2 1a2 2 0 00-1-1zm17-32a2 2 0 001 1 2 2 0 002 1z"/><path class="s" d="M116 771a2 2 0 01-1-2l1-3 1 1 1-5 1-2a4 4 0 010-1h1a3 3 0 010-1v-1h1a3 3 0 011 0 13 13 0 001-6 2 2 0 010-1l4 1a2 2 0 00-2-1 8 8 0 011-1l1-3a10 10 0 002-2 14 14 0 011-3v1l2-2a2 2 0 010-2v-1l2-6a2 2 0 010-1l1 1v-1a1 1 0 000 1v-1l1-2 2-4v-2l1-5 2 4 2-6 2-3-1-4 2 2h1a2 2 0 011-1 4 4 0 011-1l2-3 1-4 1-2a2 2 0 010-1l3-3a13 13 0 011-3 17 17 0 002-5l1-10 1 7a5 5 0 011-1 1 1 0 011-1 23 23 0 001-3 3 3 0 010-2l1-3 1 2a13 13 0 011-2 20 20 0 002-7l2 1 1-2h-1a30 30 0 012-4l2-3 1-2 2-3a8 8 0 012-3 6 6 0 000-2h1c1-3 1-4 3-4a3 3 0 012 2 1 1 0 010 1l-1 2a1 1 0 01-1 0 1 1 0 010 1 8 8 0 01-1 1 6 6 0 00-2 4v9l-2-6a13 13 0 01-1 3l-1 1-1 2-1 2-1 2-1 2-1 2a20 20 0 01-1 3 8 8 0 00-1 2l-1 1h-1a9 9 0 01-1 1 18 18 0 010 2l-2 4a2 2 0 01-1 0v1a5 5 0 00-1 1 3 3 0 01-1 2 19 19 0 01-2 4 9 9 0 00-1 4h-2a17 17 0 00-1 3 65 65 0 00-2 7l-1 6-1-3h-1a5 5 0 01-1 1 4 4 0 01-2 2 9 9 0 01-1 3 2 2 0 01-1 1 98 98 0 00-2 7 1 1 0 01-2 1 3 3 0 01-1 1l-1 2-1 2-1 3h-1l-2 5 1 1-2 3-2 2a12 12 0 01-2 3 11 11 0 000 3v1h-1-1a6 6 0 01-1 1 15 15 0 01-1 4l-2 3a6 6 0 01-1 1 1 1 0 01-1 1v1l-1 4-1 2a1 1 0 01-1 1v1a2 2 0 01-3 0zm4-12h1a1 1 0 01-1 0zm8-11l1 1zm-2-1a1 1 0 001 1h1zm6-5zm2-3h1a2 2 0 00-1 0zm20-39a3 3 0 001 1zm10-15a2 2 0 00-2-1h1a3 3 0 000 1 3 3 0 001 0zm18-36a2 2 0 00-1 0h1zm3 0z"/><path class="t" d="M1043 155l1-3h7v3h-8z"/><path class="u" d="M1068 155v-3h7v3h-7zM1096 155l1-3h7v3h-8z"/><path class="t" d="M1123 178h3v7h-3v-7z"/><path stroke-width="1.3" stroke="#1d150c" fill="#3f2b0f" stroke-miterlimit="10" d="M1123 204l4 1v8h-4v-9z"/><path class="u" d="M1124 232h3v7h-3v-7z"/><path class="t" d="M1020 238h-2v-7h2v7z"/><path class="u" d="M1020 213h-3v-7h3v7zM1020 185h-3v-7h3v7z"/><path stroke-width="1.4" stroke="#1d150c" fill="#3f2b0f" stroke-miterlimit="10" d="M1102 258v4h-8v-4h8z"/><path class="u" d="M1075 259v3h-7v-3h7zM1049 259v2h-7v-2h7z"/><path class="x" d="M1022 257v2l1 1 2-1 2 1h2l1-1 1-1v-5h-5l-4 4zM1031 254v5l4 1h4l1-1 1-1-1-4a15 15 0 00-1-1h-8zM1049 254v5h4l1 1h3l2-1 1-1v-5h-9l-2 1z"/><path class="x" d="M1040 254v5l1 1 3-1h4l1-1v-5l-7-1-2 2zM1077 254v5h8l1-1-1-3 1-1-7-2-2 2zM1066 254v4l1 1 1 1h6l1-1h2v-6h-7l-4 1z"/><path class="x" d="M1059 254l-1 2v2l1 1 2 1h5a10 10 0 000-2v-4l-3-1zM1092 254v4l1 1h8l2-1v-5l-8-1-3 2zM1103 254v4l1 1h11l2-1v-2l1-3-11-1-4 2z"/><path class="x" d="M1085 254l-1 1v3l1 1h7a10 10 0 000-1v-4l-3-1z"/><path class="y" d="M1123 258h-2l-2 1h-1l-1-1v-4l-1-1 2-1z"/><path class="x" d="M1031 249v3l1 2v1l3-1h5l1-1v-5l-8-1-2 2z"/><path class="x" d="M1040 249v4l1 1h8l2-1-1-4a14 14 0 00-1-1h-8zM1072 249l-1 2v2l1 1h11v-1h1l-1-3 1-1-10-2-2 2z"/><path class="x" d="M1059 248v5l1 1v1h8l1-1h2v-2l1-3-10-1h-3z"/><path class="x" d="M1050 248l-1 3v2l1 1h9a8 8 0 000-1v-5h-4zM1027 253l1 1h4v-5l-1-1-4 5zM1091 248v5l1 1h7l1-1h1l1-5h-11z"/><path class="x" d="M1101 249v5h11l1-1v-6h-9l-3 2zM1082 249v5h8l1-2v-4l-7-1-2 2z"/><path class="x" d="M1117 253h-2-2l-1 1v-3l-1-2v-1l2-1zM1036 244v5h8l2-2-1-4-7-1-2 2z"/><path class="x" d="M1045 244v5h8l1-1 1-1v-3a15 15 0 00-1-2l-9 1zM1077 244l-1 2v1l1 1 1 1h7l1-1h1l-1-3 1-2-8-2-2 3z"/><path class="x" d="M1063 244v4l1 1h10l2-1v-2l1-3-10-1-4 2z"/><path class="x" d="M1054 244a13 13 0 010 1v2l1 1h3l3 1h2l1-1a8 8 0 00-1-1v-3l-4-1zM1107 244l-1 2v3l-2-1a6 6 0 01-2 1 5 5 0 00-1-1h-2a7 7 0 01-1-1v-4l5-2zM1086 247l1 1 2 1h8l1-1v-5l-6-1-5 1-1 2v2z"/><path class="x" d="M1113 247l-1 1-1 1-3-1h-1l-1-2 1-3 1-1 5 5zM1032 247v2h1l2-1 1 1 1-1v-5h-1l-4 4zM1038 241v3h8l1-1v-5l-5-1-4 4zM1047 239v5h8l1-1 1-1-1-3a14 14 0 00-1-2l-8 1zM1065 238v5l1 1h7l1-1h1l1-5h-11z"/><path class="x" d="M1056 239v5h8l1-2v-4l-7-1-2 2zM1108 243l-1 1h-3-1l-1-1v-1l-1-2 1-2v-1l6 5z"/><path class="x" d="M1093 238v5l2 1h6v-1h1l-1-3 1-2-7-2-2 2zM1082 239v4h1l1 1h7l2-1v-5l-7-1-4 2z"/><path class="x" d="M1075 239l-1 1v3l1 1h7a10 10 0 000-2v-3l-3-1zM1057 233v5l1 1h7l1-1h1l1-5h-11z"/><path class="x" d="M1067 233v6h11l1-1v-6h-9l-3 1z"/><path class="x" d="M1078 233v5l1 1 3-1 1 1h2l1-1 1-1v-5l-7-1-2 2zM1048 234v5h8l1-2v-4l-8-1-1 2zM1087 233v5l4 1h4l1-1 1-1v-4a14 14 0 00-1-1h-9z"/><path class="x" d="M1102 238h-2-3v-2l-1-2v-1l2-1zM1042 238l1 1h5v-7h-1l-5 6zM1048 232v1h5l1-1v-5l-1-1-5 6zM1054 228v5h3l1 1h2l1-1 1-1v-5h-7l-1 1z"/><path class="x" d="M1062 228l-1 2 1 2v1h10l1-1v-5l-8-1-3 2zM1073 228v5h8l1-1v-5l-8-1-1 2zM1082 228v5h9l1-2-1-3a14 14 0 00-1-2l-8 1z"/><path class="x" d="M1097 232l-1 1h-1-3l-1-1v-5h1z"/><path class="x" d="M1092 227l-1 1h-3-1l-1-1v-1l-1-2 1-1 1-2 5 6z"/><path class="x" d="M1078 223l-1 2v1l1 1 1 1h6v-1h1l-1-3 1-2-7-1-1 2zM1067 223v5h8l2-1v-5l-7-1-3 2z"/><path class="x" d="M1059 223v5h3l2 1h2l1-1a10 10 0 000-1v-4l-4-1zM1053 227v1h6v-5l-1-2-5 6zM1080 218v5h-3a6 6 0 01-1 0 5 5 0 00-1 0h-3a5 5 0 010-1v-4l4-2z"/><path class="x" d="M1063 222l1 1h4l2 1h1l1-1v-5l-5-2-3 1-1 2v3zM1058 222l1 1h4v-6h-1l-4 5zM1086 222v1h-5l-1-2v-3l1-1 6 4-1 1z"/><path class="x" d="M1077 217l-2 1-1 1h-2l-3-1h-1v-5l1-1 8 1zM1068 217l-1 1h-4l-1-1 6-6v6z"/><path class="x" d="M1082 217l-1 2-3-1h-1l-1-1v-4l1-1 5 4v1z"/><path class="x" d="M1077 212l-1 1h-4v-2l-1-4 4 2 2 3z"/><path class="x" d="M1067 212l1 1h4v-4l-1-2-4 4v1zM1122 156v-2h-8l-1 1v5h6l3-4z"/><path class="x" d="M1114 159v-4l-1-1h-9l-1 1 1 4a14 14 0 001 1h8zM1095 159v-4l-1-1h-3l-1-1-3 1h-1l-1 1-1 5h10l1-1z"/><path class="x" d="M1104 159v-5h-8l-1 1v5l8 1 1-2zM1067 159v-5h-7l-1 1h-1l1 3-1 2 7 1 2-2zM1078 159v-4l-1-1h-8l-2 1v5l8 1 3-2z"/><path class="x" d="M1085 159l1-2v-2l-1-1h-3l-2-1h-2v1a11 11 0 000 1v4l3 1zM1052 159v-4h-1v-1h-8l-1 1-1 1v4l8 1 3-2z"/><path class="x" d="M1042 160v-5h-1l-1-1h-10l-3 1v5l10 1 5-1zM1060 160v-2-3l-1-1h-7a11 11 0 000 2v3l3 1z"/><path class="y" d="M1021 155h6v4l1 1-2 1z"/><path class="x" d="M1113 164v-3l-1-2h-7l-2 1v5l8 1 2-2z"/><path class="x" d="M1104 164v-4l-1-1h-8l-2 1 1 4a15 15 0 001 1h8zM1072 164l1-2v-2l-1-1h-10v1h-2l1 3v2l9 1 2-2z"/><path class="x" d="M1086 165v-5l-1-1h-3l-2-1h-4l-1 1-2 1v2l-1 3 10 1 4-1z"/><path class="x" d="M1095 166v-3-3l-1-1h-9a7 7 0 001 2v4h4zM1117 160l-1-1h-4v6h1l4-5zM1053 165v-5h-1l-3-1h-4l-1 1-1 1v4h10zM1043 165v-5h-11l-1 1v5l9 1 3-2zM1062 165v-5l-1-1-3 1-1-1h-2l-1 1-1 1v5h8l1-1z"/><path class="x" d="M1027 160h5v2l1 2v1l-2 1zM1108 170v-5l-1-1h-6l-1 1-1 1v5h7l2-1zM1099 170v-6h-8l-1 1-1 1v3a15 15 0 001 2h9zM1068 170v-5h-10v5l7 2 3-2zM1081 170v-5h-1l-1-1h-9l-2 1v5l9 1 4-1z"/><path class="x" d="M1090 170a13 13 0 010-2v-2l-1-1h-3l-2-1h-3v1a7 7 0 000 1v4l4 1zM1038 170v-5h2a6 6 0 012 0 5 5 0 001 0h2a5 5 0 011 1v4l-5 2zM1058 166l-1-1h-2l-3-1h-5l-1 1v5l6 1h5l1-3v-2zM1031 166l1-1h5l1 2-1 3-1 1-5-4v-1zM1113 166l-1-1h-4l-1 1v4h1l5-4zM1107 172l-1-2v-1h-6l-2 1-1 1v5h6l4-4z"/><path class="x" d="M1098 175v-5l-1-1h-7l-1 1-2 1 1 3a14 14 0 001 2h8zM1079 175v-5h-1l-3-1h-4l-1 1-1 1-1 4h11z"/><path class="x" d="M1088 175v-5l-1-1-3 1-1-1h-2l-1 1-1 1v5h8l1-1zM1037 171l1-1h2l1-1 1 1v1l1 3v1l-1 1-6-5z"/><path class="x" d="M1051 175v-5h-8l-1 1 1 2-1 2 7 2 2-2zM1062 175v-4l-1-1-1-1h-7l-2 1v5l8 1 3-1z"/><path class="x" d="M1069 175l1-2v-3l-1-1h-7a11 11 0 000 2v4l3 1zM1087 180v-5h-1l-3-1h-4l-1 1-1 1v4h10z"/><path class="x" d="M1077 180v-5h-10l-2 1v5l9 1 3-2z"/><path class="x" d="M1066 180v-5h-8l-1 1v5l7 1 2-2zM1096 180v-5l-1-1-2 1-2-1h-2l-1 1-1 1v5h8l1-1zM1057 180v-5h-9l-1 1v4a14 14 0 002 1h8z"/><path class="x" d="M1042 176l1-1h4v3l1 1v2h-1zM1102 176l-1-2h-4l-1 1v6h1l5-5zM1096 181v-1h-5l-1 1v5l1 1 5-6zM1090 185v-4l-1-1h-2l-1-1-2 1h-1l-1 1v5h7l1-1z"/><path class="x" d="M1082 185l1-2v-2l-1-1h-10l-1 1v6h8l3-2zM1071 185v-5h-8l-1 2v4l8 1 1-2z"/><path class="x" d="M1063 186v-5l-1-1h-7l-2 1-1 1 1 3a14 14 0 001 2h8z"/><path class="x" d="M1047 181h2l2-1h1l1 1v5l-1 1z"/><path class="x" d="M1052 186l1-1h4l1 1v1l1 2-1 1v2l-6-5z"/><path class="x" d="M1067 191v-5l-2-1h-6v1h-1l1 3-1 2 7 2 2-2zM1078 190v-4l-1-1h-8l-2 1v5l7 1 4-2z"/><path class="x" d="M1085 190l1-1v-3l-1-1h-7-1a11 11 0 001 1v4l3 1z"/><path class="x" d="M1091 186v-1h-5v4l-1 1 1 2 5-6zM1064 195v-4l1-1h2a6 6 0 011 0 5 5 0 001 0h3a7 7 0 010 1v4l-4 2z"/><path class="x" d="M1081 191l-1-1h-8v5l5 2 3-1 1-2v-3zM1086 191v-1h-5v6h1l4-5zM1058 191v-1h4l2 1v4l-1 1-5-4v-1z"/><path class="x" d="M1067 196l2-1h7l1 2v3l-2 1-8-1z"/><path class="x" d="M1076 196l1-1h4l1 1-5 6-1-3v-3zM1063 196v-1h4l1 1v4l-1 1-4-4v-1z"/><path class="x" d="M1067 201l1-1h3l1 1v2l1 3-4-2-2-3z"/><path class="x" d="M1077 201l-1-1h-4v5l1 1 4-4v-1zM1122 257h2l1-1v-6l-1-1-1-1h-5v5l4 4zM1119 248h6v-7l-1-2-1-1-4 1a15 15 0 00-1 1v8zM1119 230h5v-4l1-1v-3l-1-1-1-1-5-1v10l1 1z"/><path class="x" d="M1119 239h5l1-1-1-3 1-1v-2l-1-1-1-1h-5v7l1 2zM1119 202h5v-8l-1-1-2 1-2-1-2 7 2 2zM1119 213h4l1-1 1-1v-6l-1-1v-2h-5l-1 7 1 4z"/><path class="x" d="M1119 220l2 1h2l2-1v-7a11 11 0 00-2 0h-4l-1 3zM1119 187h4l1-1v-8l-1-1-1-1h-4l-1 8 2 3z"/><path class="x" d="M1119 177h4l1-2v-11l-1-2h-2l-3-1-1 11 2 5zM1119 195h4l1-1v-3l1-2v-2h-1a10 10 0 00-1 0h-4l-1 3z"/><path class="y" d="M1123 156l1 1v4l-1 1h-4l-1 1-1-2z"/><path class="x" d="M1114 248h3l2-1h1l-1-3 1-2v-1l-1-1-1-2h-5v8l1 2z"/><path class="x" d="M1114 239h5v-1l1-3v-4l-1-1-1-2-4 1a14 14 0 00-1 1v8zM1114 207l2 1h2l1-1v-11l-1-1-2 1-2-1-2 10 2 2z"/><path class="x" d="M1113 220h5l1-1h1v-9l-1-2h-2l-3-1-1 10v3z"/><path class="x" d="M1113 229l3 1h2l1-1v-8-1a7 7 0 00-1 0h-5v4zM1118 252l1-1v-4h-5l-1 1 5 4zM1113 188h5l1-1v-7l-1-1v-1l-5-1v11z"/><path class="x" d="M1114 178h5v-11l-1-1h-6v9l2 3zM1114 197h5v-8l-1-1h-5l-1 8 2 1z"/><path class="x" d="M1118 162v2l1 2v1h-3l-2 1h-1l-1-2zM1109 243h5v-8l-1-1h-5l-1 7 2 2zM1109 234h5v-9l-2-1h-3a15 15 0 00-2 1l1 9zM1109 203h4l1-2v-7l-1-1v-1l-3 1-2-1-1 8 2 3zM1109 216h4l1-1v-10l-1-2h-5l-1 9 2 4z"/><path class="x" d="M1109 225a13 13 0 011 0h2l1-1 1-2v-6l-1-1a8 8 0 00-1 1h-3l-1 4zM1109 172l2 1h3v2a6 6 0 010 2 5 5 0 000 1v1l-1 1a7 7 0 010 1h-5l-2-5zM1112 193l1-1 1-2v-8l-1-1h-5l-1 6 1 5 2 1h2z"/><path class="x" d="M1112 166l1 1 1 1-1 3v1l-1 1-3-1-2-1 5-5zM1113 247h1v-4l-1-1h-5v1l5 4zM1106 241h3v-8l-1-1h-5l-1 6 4 3z"/><path class="x" d="M1104 233h4l1-1v-9l-2-1-3 1a14 14 0 00-2 1l1 8zM1103 214h5l1-1v-7l-1-1v-1l-5-1v11z"/><path class="x" d="M1104 223h5v-8l-2-1h-4l-1 7 2 2zM1108 171l1 2v3l-1 1h-1l-2 1-1-1h-2l6-6z"/><path class="x" d="M1104 186h4l1-2v-5l-1-1v-1l-3 1-2-1-2 7 3 2zM1104 197h4l1-1v-8l-1-2h-5l-1 8 2 3z"/><path class="x" d="M1104 204l1 1h3l1-1v-7a11 11 0 00-1 0h-4l-1 3zM1098 222h5l1-1v-7l-1-1v-1l-5-1v11z"/><path class="x" d="M1099 212h5v-11l-1-1h-6v9l2 3z"/><path class="x" d="M1098 201h5l1-1-1-3 1-1v-2l-1-1-1-1h-5v7l1 2zM1099 231h5v-8l-2-1h-4l-1 8 2 1zM1098 192h5l1-4v-4l-1-1-1-1h-4a14 14 0 00-1 1v9z"/><path class="x" d="M1103 177v5h-2l-2 1h-1l-1-2zM1103 237l1-1v-5h-7v1l6 5zM1097 231h1v-5l-1-1h-4l-1 1 5 5zM1093 225h5v-3l1-1v-2l-1-1-1-1h-5v7l1 1z"/><path class="x" d="M1093 217l2 1 2-1h1v-10l-1-1h-5l-1 8 2 3zM1093 206h5v-8l-1-1h-5l-1 8 2 1zM1093 197h5v-9l-1-1-4 1a14 14 0 00-2 1l1 8z"/><path class="x" d="M1097 182l1 1v4l-1 1h-5v-1z"/><path class="x" d="M1092 187l1 1v5h-2l-2 1-1-1h-2l6-6z"/><path class="x" d="M1088 202h5v-8h-1v-1l-3 1-2-1-1 7 2 2zM1088 213h4l1-1v-8l-1-2h-5l-1 7 2 4z"/><path class="x" d="M1088 220h5v-3l1-2v-2l-1-1a11 11 0 00-1 1h-4l-1 3zM1092 226h1v-6h-5l-2 1 6 5zM1083 199h5v3a6 6 0 010 1 5 5 0 000 1v3a5 5 0 01-1 0h-4l-2-4z"/><path class="x" d="M1087 216l1-1v-2l1-2v-3l-1-1h-5l-1 5v3l2 1h3zM1087 221l1-1v-4h-5l-1 1 5 4zM1087 193h1v5l-2 1h-3l-1-1 4-5h1z"/><path class="x" d="M1082 202l1 2 1 1v3l-1 2v1h-5l-1-1 1-8zM1082 211l1 1v4l-1 1-6-6h6z"/><path class="x" d="M1082 197l2 1-1 3v1l-1 1h-4l-1-1 4-5h1z"/><path class="x" d="M1077 202l1 1v4h-2l-3 1 1-4 3-2z"/><path class="x" d="M1077 212l1-1v-4h-4l-2 1 4 4h1zM1021 156h-2v8l1 1h5l1-5-5-4zM1024 165h-5v9l1 1h4a14 14 0 002-1l-1-9zM1024 183h-4l-1 1v8l1 1v1h5v-9l-1-2z"/><path class="x" d="M1024 174h-5v8l1 2h5l1-8-2-2zM1024 212l-2-1h-1l-1 1-1 1v6h1v1h5l1-7-2-1z"/><path class="x" d="M1024 201h-5v8l1 2h2l3 1 1-8-2-3z"/><path class="x" d="M1024 193h-5v3l-1 2v2l1 1a11 11 0 001 0h4l1-4zM1025 227h-5l-1 1v6l1 1v2h6v-7l-1-3zM1025 237h-4l-1 1-1 1v8l1 2v2h3l3 1v-11l-1-4zM1025 219h-2-4v8a11 11 0 002-1h4l1-3z"/><path class="y" d="M1020 257v-1-1-4h6v1z"/><path class="x" d="M1029 166h-5v8l1 1h5l1-8-2-1zM1029 175h-5v9l2 1 3-1a14 14 0 002-1l-1-8zM1029 206h-4l-1 2v8l1 1v1l3-1 2 1 1-9-2-3zM1031 193h-6l-1 1v10l1 1 1 1h4l1-9v-4z"/><path class="x" d="M1031 184h-3-3l-1 3v6a7 7 0 002 0h5l-1-4zM1025 161l-1 1v4l1 1h5v-1l-5-5zM1030 225h-5v4l-1 2v3l1 1 1 1h5v-9l-1-2z"/><path class="x" d="M1030 235h-4l-1 1v10l1 1h5l1-9-2-3zM1030 216h-5l-1 1 1 3v4l1 2 5-1 1-7-2-2z"/><path class="x" d="M1026 252l-1-1v-1-4h6v1zM1035 170h-3l-2 1h-1l1 3v5l1 1h5l1-8-2-2z"/><path class="x" d="M1035 179h-5v9l1 2 4-1a14 14 0 001-1v-8zM1035 211l-2-1h-2l-1 1v9l1 1 3-1 1 1 2-8-2-2z"/><path class="x" d="M1035 198h-4l-1 1h-1v8l1 1v2h3l3 1v-10l-1-3z"/><path class="x" d="M1035 189a13 13 0 01-2-1h-2l-1 1v9a7 7 0 001 0h4l1-4zM1035 241h-4l-1-1v-2a6 6 0 010-1 5 5 0 000-1v-3a6 6 0 011 0h4l2 4z"/><path class="x" d="M1031 220l-1 1v3l-1 3v4l1 1 1 1h4l2-7-1-5-2-1h-3zM1031 247l-1-1v-5h5l1 1-4 5h-1zM1031 166l-1 1v4h5l1-1-5-4zM1037 172h-2l-1 1 1 3-1 1v2l1 1 1 1h5v-5l-4-4zM1040 181h-5l-1 4v4l1 1 1 1h4a15 15 0 001-2v-8zM1040 199h-5v4l-1 2v3l1 1 1 1h5v-9l-1-2z"/><path class="x" d="M1040 190h-5l-1 1 1 3v4l1 2h5l1-8-2-2zM1036 242l-1-1v-2-3h5l2 1-6 5zM1040 228l-2-1h-2l-1 1v7l1 1h4l2-7-2-1z"/><path class="x" d="M1040 217h-5v3l-1 1v3l1 1v2h3l3 1v-8l-1-3z"/><path class="x" d="M1040 209h-2-3l-1 2v6a11 11 0 002 0h4l1-4zM1045 191h-5v4l-1 2v2l1 2 1 1h5v-9l-1-2z"/><path class="x" d="M1045 201h-4l-1 1v10l1 1h5l1-9-2-3z"/><path class="x" d="M1045 212h-2l-3 1v7l1 2h5l1-8-2-2zM1045 182h-5l-1 1 1 3v4l1 1h5l1-7-2-2z"/><path class="x" d="M1045 221h-4l-1 1v8l2 2 3-1a13 13 0 002-1l-1-8z"/><path class="x" d="M1041 237l-1-1v-1-3l1-1h5v1zM1041 176l-1 1-1 1 1 2-1 1 1 1 1 1h5v-2l-5-5z"/><path class="x" d="M1046 182l-1 1v4l1 2h5l1-2-6-5z"/><path class="x" d="M1051 188h-5l-1 1v6l1 1h5v-8zM1050 196h-5v11l1 1h6v-9l-2-3z"/><path class="x" d="M1051 207h-5l-1 1 1 3-1 1v2l1 1 1 1h5v-7l-1-2zM1051 216h-6v8l1 1 1 1h4a15 15 0 001-1v-9z"/><path class="x" d="M1046 231v-2-3h2l2-1h1l1 2z"/><path class="x" d="M1051 226l-1-1 1-2-1-2 1-1h5l1 1-5 6zM1056 212l-2-1h-2l-1 1v8h5l2-6-2-2z"/><path class="x" d="M1056 201h-4l-1 1h-1v8l1 1 1 1h4l1-8-1-3z"/><path class="x" d="M1056 193h-2-3l-1 1v7a11 11 0 002 0h4l1-4zM1051 187h-1v6h6l1-1-6-5zM1060 215l-2-1h-3v-2a6 6 0 010-2 5 5 0 000-1v-2h1a7 7 0 010-1h5l1 5z"/><path class="x" d="M1057 198h-1l-1 2v6h6l1-4-1-4h-4zM1057 192l-2 1v1l1 1-1 1 1 1 1 1h4v-2l-4-4zM1057 221l-1-1-1-1 1-3v-1l1-1h3l2 2-5 5z"/><path class="x" d="M1062 211l-2-1v-7h1l1-1h3l2 1-1 8zM1061 202h-1v-5l1-1 6 6h-6zM1061 216l-1-1v-4h7l-5 5h-1z"/><path class="x" d="M1066 211h-1v-4l1-1h5l-2 3-3 2zM1066 202l-1 1v3h6l-4-4h-1z"/><path style="isolation:isolate" opacity=".1" fill="url(#a)" d="M1020 156h104v103h-104z"/><path class="aa" d="M1021 258l6-5 6-6 7-7 9-9 10-9 10-11 3-3-1-1-3 3-11 10-9 9-9 10-7 6-6 6-6 6v2zM1021 156l5 6 6 6 6 7 10 9 9 9 11 11 3 3 1-1-3-3-11-11-9-9-9-9-7-7-6-6c-3-2-4-5-5-6h-2z"/><path class="aa" d="M1122 155l-6 6-6 5-7 7-9 9-9 10-10 10-4 3 2 1 3-2 10-11 10-9 9-10 7-6 6-6 6-6v-2zM1124 258l-6-6c-3-2-3-4-5-6l-7-8-9-9-10-9-10-10-3-3-1 1 2 3 11 11 9 9 10 9 6 7 6 6 6 6h2z"/><path class="aa" d="M1074 209h-4v-4h4v1a6 6 0 010 3z"/><path class="ab" d="M338 603c0 5 3 9 7 10-1 4-2 7-1 11s4 6 8 6c-2 6 2 14 9 16l3 9c2 3 6 3 8 1a10 10 0 0012 8c1 2 2 5 4 6s6 2 7 0a7 7 0 007 6 22 22 0 014 0c4 0 7 4 11 4 5 1 6-4 10-5s7 1 11 2 8-2 7-5c4 2 7 3 11 3s8-4 7-8c4 4 11 0 10-5a9 9 0 0015-9 7 7 0 107-13 7 7 0 008-12c2 0 5-1 6-4s0-5-2-6c7-1 12-12 7-18a8 8 0 104-15 9 9 0 00-4-17c2-5-3-11-8-11a7 7 0 00-6-11c5-5 0-15-7-15 2-3 0-6-3-8s-7-1-10-1c0-3-1-7-4-9s-7-3-8 0c-3-7-12-11-19-7-2-6-12-6-15 0-6-6-18-5-23 2-5-5-16-2-17 5-7-5-17 0-18 8-6-3-14 1-14 7a13 13 0 00-8 16c-3 1-4 6-4 11a4 4 0 01-3 3c-2 1-5 4-6 10l2 9c0 1-8 5-2 14l-3 12z"/><path class="ac" d="M501 536c-2-3-5-5-8-5 2-3-1-6-3-8s-7-1-10-1c0-3-1-7-4-9s-7-3-8 0c-3-7-12-11-19-7-2-6-12-6-15 0-6-6-18-5-24 2-4-5-15-2-16 5-7-5-17 0-18 8-6-3-14 1-14 7a13 13 0 00-8 16c-3 1-4 6-4 11a4 4 0 01-3 3c-2 1-5 4-6 10l2 9c0 1-8 5-2 14l-3 12c0 4 3 9 7 10-1 3-2 7-1 11s4 6 8 6c-2 6 2 14 9 16l3 9c2 3 6 3 8 1a10 10 0 0012 8c1 2 2 5 4 6s6 2 7 0a7 7 0 007 6 22 22 0 014 0c4 0 7 4 11 4 5 1 6-4 10-5s7 1 11 2 8-2 7-5c4 2 7 3 11 3a22 22 0 001-4 4 4 0 000-2l-3-3c-3-1-4-4-7-6s-8 0-12 0-9-3-8-7c2-5 9-3 14-6a4 4 0 00-4-4c0-3 4-4 6-5s6-4 4-7c-2-2-6 0-9-2-2-2 0-6 3-7l9-1c3-1 6-3 5-5-1-5-9-4-10-8 0-2 2-4 1-6 0-3-4-3-6-1l-6 4a7 7 0 01-5-12l8-1c3 0 5-4 3-6l-6-3a26 26 0 0114-11c-3-2-2-7 0-9s6-2 10-3c8-1 21-1 28-6-7-9 6-14 13-17z"/><path class="ad" d="M381 634l-5-7-9-14c-2-3-2-7 1-7-2-3-3-8 1-9a15 15 0 01-11-11c0-3 0-6 2-8l3-3a8 8 0 001-8l5-2-2-4a4 4 0 000-6l2-5c2-6 11-10 18-6 3-4-2-10 1-13s7 0 10 0c4 0 8-3 11-4 5-2 10-1 15 1s9 5 11 9 2 10-1 13c-3 2-6 2-9 2l-15 1a10 10 0 00-5 1 6 6 0 00-2 7 8 8 0 006 5c0 3-4 5-7 6l-10 2c-3 1-5 5-3 8a8 8 0 016 2 22 22 0 00-6 11 103 103 0 0021 12l-6 4c-2 1-4 3-4 5s2 4 4 3l-1 8-6 5c-5 3-10 5-16 2z"/><path class="ad" d="M479 533l-2-1-5-3-5-2c-2-1-3-2-3-4v-3a3 3 0 00-2-2 14 14 0 00-10 0c-1 1-3 2-4 1l-1-3c0-2-2-4-5-5a18 18 0 00-7 1c-3 1-9 0-10 5a1 1 0 000 1l2 1a5 5 0 012 0c2 2 6 3 6 6a7 7 0 000 3l4 1h4c3 1 2 5 1 7s-4 5-3 8a25 25 0 005 2l-3 4-1 4c2 2 5 1 7 0s4-4 6-4a10 10 0 013 1 14 14 0 007 1 4 4 0 003-1c2-2 0-7 2-9l5 1a5 5 0 004-10zM408 596c-1 1-2 4 0 5a8 8 0 002 1c3 1 5 5 6 7s2 4 1 5l-3 1a5 5 0 00-2 7 25 25 0 012 2c1 2 0 5-1 7l-3 7a11 11 0 01-3 4l-5 2h-14a26 26 0 00-5-1c-1-1-3 0-4 2s2 4 4 5h6a4 4 0 012 1c2 1 1 3 1 5a7 7 0 0013 5 22 22 0 005 6c2 2 5 2 8 2s4-5 3-7l-4-4a7 7 0 010-9 7 7 0 013-2l4-2a4 4 0 001-2 17 17 0 00-3-7c4-2 7-4 9-7s0-9-4-9h-4v-4l2-3c1-4-5-6-6-9l-1-5c-1-4-7-5-10-3zM348 603a3 3 0 000 1l3 1c2 0 3 2 3 5v6a16 16 0 001 8l6 5 1 5a7 7 0 003 4 3 3 0 004-1c1-2 0-4-1-5l-3-4-1-6c0-3-1-5-3-8s-1-5 0-7a4 4 0 001-1 3 3 0 000-3c-3-6-12-9-14 0zM366 533a6 6 0 003 1c1 1 0 2-1 2l-3 2a6 6 0 00-2 3l-2 6a4 4 0 000 2c0 2 2 2 4 1a7 7 0 001-5 8 8 0 011-4c3-3 10 0 12-4l1-6c0-2 1-4 3-3 3 1 5-1 7-3 2-1 3-2 3-4a3 3 0 00-1-1c-3-2-6-1-8 1s-5 4-8 4c-5 0-10 2-10 8z"/><path class="ac" d="M401 344c1-7 4-13 10-16s13-2 18 2c4-5 9-9 16-10s13 2 16 9c9 1 16 13 12 22a34 34 0 00-1 4l-1 4c0 4-3 7-5 10-6 7-14 12-22 15-9 3-19 4-28 0-7-3-13-10-14-18l1-8-2-14z"/><path class="ad" d="M409 373c0-5-2-9-1-14 1-7 4-13 10-16s13-2 17 3c4-6 10-10 16-11s14 3 17 9a15 15 0 016 3c1-9-5-18-13-19-3-6-10-10-16-9s-12 5-16 10c-5-4-12-5-18-2s-9 9-10 16c-1 5 1 9 2 14l-1 8a21 21 0 007 14 33 33 0 000-6z"/><path class="ac" d="M498 472c8-1 15-9 14-17a14 14 0 007-25c4-2 5-8 3-12s-5-7-10-9a37 37 0 00-37 4 17 17 0 01-3 2 40 40 0 01-5 1c-6 2-10 9-10 15s3 13 6 19c3 7 10 7 15 11 7 5 11 12 20 11z"/><path class="ab" d="M519 430c4-2 5-8 3-12s-5-7-10-9a36 36 0 00-11-3 17 17 0 017 8c2 4 1 9-3 12a14 14 0 01-7 24c1 8-5 16-13 17 4 3 7 5 13 5 8-1 15-9 14-17a14 14 0 007-25z"/><path class="ac" d="M346 425a16 16 0 002 17 27 27 0 00-9 19c0 6 2 13 7 15 5 3 12 1 17 0-2 3-1 8 2 11a18 18 0 009 6 23 23 0 0016-1c5-3 9-7 9-13 5 2 11 1 15-2s7-8 9-13c2-6 3-13 1-20s-7-11-13-13v-11c-2-3-5-5-9-6-7-3-14-6-22-6s-11 5-18 8c-6 3-12 2-16 9z"/><path class="ab" d="M411 422v1a9 9 0 000-2v1zM423 455c-2 5-4 10-9 13s-10 5-15 2c0 6-4 11-9 13a23 23 0 01-16 1 18 18 0 01-9-6c-3-3-4-7-2-11-5 2-12 3-17 1-3-2-6-6-6-10a25 25 0 00-1 3c0 6 2 13 7 15 5 3 12 1 17 0-2 3-1 8 2 11a18 18 0 009 6 23 23 0 0016-1c5-3 9-7 9-13 5 2 11 1 15-2s7-8 9-13a34 34 0 002-15 37 37 0 01-2 6zM348 434a15 15 0 01-3-6 16 16 0 000 9 26 26 0 013-3z"/><path class="ac" d="M353 352l-4 6c-1 2 1 4 3 5a25 25 0 00-14 18 37 37 0 000 13c1 4 4 10 8 10a10 10 0 013-1c2 1 3 4 3 6a18 18 0 0031 7 5 5 0 012-2c2-1 3 0 4 1a23 23 0 0036-13 23 23 0 00-4-40c3-3 3-8 2-11s-5-7-9-9a25 25 0 00-14-2 20 20 0 01-5 1 20 20 0 01-4-2 24 24 0 00-20 4c-4 2-4 4-8 4-4 1-7 2-10 5z"/><path class="ab" d="M435 381a24 24 0 00-9-16 22 22 0 011 5 24 24 0 01-10 22 23 23 0 01-30 15 24 24 0 01-5-3c-2-1-3-2-4-1a5 5 0 00-3 2 18 18 0 01-17 6 17 17 0 01-6-2 18 18 0 0031 7 5 5 0 012-2c2-1 3 0 4 1a23 23 0 0035-13 24 24 0 0011-21z"/><path class="ad" d="M358 372c-6 0-10 7-9 13s7 9 13 9a7 7 0 005-2 8 8 0 002-5 37 37 0 00-1-7 9 9 0 009-7c1-2 1-6 4-7h5c3 0 4-2 5-4s2-5 1-7c-1-3-5-3-8-3h-14c-7 0-7 3-9 8-2 4-6 7-3 12z"/><path class="ac" d="M434 416l-6 2c-1 1-3 4-1 6a25 25 0 00-23 5 36 36 0 00-8 10c-2 4-4 10 0 13a9 9 0 012 1c1 2 0 4-1 6a18 18 0 0020 26 5 5 0 013-1l2 4a23 23 0 0035 12 23 23 0 0023-33c4 0 7-4 9-8s0-8-2-11a25 25 0 00-9-11 20 20 0 01-4-3 20 20 0 01-3-3 24 24 0 00-17-11c-5 0-6 1-9-1-4-2-6-3-11-3z"/><path class="ab" d="M479 490a24 24 0 003-17 22 22 0 01-2 4 24 24 0 01-22 10 23 23 0 01-35-12l-2-4a5 5 0 00-3 0 18 18 0 01-18-6 17 17 0 01-3-6 18 18 0 0020 25 5 5 0 013 0l2 4a23 23 0 0035 12 24 24 0 0022-10z"/><path class="ad" d="M427 442c-4-3-12-1-15 4s0 12 4 16c2 1 4 2 6 1a8 8 0 003-3 38 38 0 005-6 9 9 0 0011 1c3-1 5-4 8-3 2 0 2 2 4 3 2 2 4 1 6 0s5-2 5-4c1-3-2-6-4-8l-11-9c-6-4-7-2-12 1-4 2-9 1-10 7z"/><path class="ac" d="M461 346l-6 2c-1 1-3 4-1 6a25 25 0 00-23 5 37 37 0 00-8 10c-2 4-3 10 0 13a10 10 0 012 1c2 2 0 4-1 6a18 18 0 0020 25 5 5 0 013 0l2 4a23 23 0 0035 12 23 23 0 0023-33c4-1 7-4 9-8s0-8-2-12a25 25 0 00-9-10 13 13 0 01-7-6 24 24 0 00-17-11c-5 0-6 1-9-1-4-2-6-3-11-3z"/><path class="ab" d="M506 420a24 24 0 003-18 22 22 0 01-2 5 24 24 0 01-22 10 23 23 0 01-35-12l-2-4a5 5 0 00-3 0 18 18 0 01-18-6 17 17 0 01-3-6 18 18 0 0020 25 5 5 0 013 0l2 4a23 23 0 0035 12 24 24 0 0022-10z"/><path class="ad" d="M452 365c-4-4-12-2-15 4s0 12 4 15c2 2 4 2 6 2a8 8 0 004-3 37 37 0 004-6 9 9 0 0011 1c3-1 5-4 8-3 2 0 2 2 4 3h6c2-1 5-2 5-4 1-3-2-6-4-8l-11-9c-5-4-7-2-12 0-4 3-9 2-10 8z"/><path class="ac" d="M379 399a19 19 0 00-6 6c-3 5-1 12 1 18-8 2-10 13-5 19s13 7 21 5a24 24 0 0037-4l3-3a9 9 0 014 0c4 0 8-2 10-6a22 22 0 004-11 26 26 0 010-6l2-4a17 17 0 00-2-16 21 21 0 00-15-8 19 19 0 00-16-10c-9-1-12 5-18 11-4 5-14 6-20 9z"/><path class="ad" d="M384 433c-2-6-3-13 0-18a19 19 0 016-6c6-4 15-5 20-10 5-6 9-11 18-11a19 19 0 0116 10 22 22 0 017 2 18 18 0 00-3-6 21 21 0 00-15-7 19 19 0 00-15-11c-10 0-13 5-19 11-4 5-14 6-20 10a19 19 0 00-6 6c-3 5-1 12 1 18-8 2-10 13-5 19a16 16 0 008 5c0-5 2-11 7-12z"/><path class="ab" d="M448 397a18 18 0 00-2-2 15 15 0 01-1 6l-2 4a26 26 0 00-1 6 22 22 0 01-3 12 13 13 0 01-11 5 9 9 0 00-3 1c-2 0-3 1-3 3a24 24 0 01-34 6 24 24 0 01-4-3c-6 2-13 2-17-2a13 13 0 002 9c4 6 13 7 21 5a24 24 0 0034 0 24 24 0 003-4l3-3a9 9 0 014 0 13 13 0 0010-5 21 21 0 004-12 25 25 0 010-6 44 44 0 012-4 17 17 0 00-2-16z"/><path class="ac" d="M427 390c-6 3-11 7-13 12s0 13 5 15c0 4-1 8 2 11 2 3 5 4 9 4 5 1 11 0 13-5a15 15 0 0025-7 33 33 0 011-5l2-3a10 10 0 00-8-15 12 12 0 00-6-9c-5-3-9-1-13 0-6 0-11 0-17 2z"/><path class="ab" d="M471 402a10 10 0 00-5-4 10 10 0 01-1 3l-1 3a32 32 0 00-2 4 15 15 0 01-24 7c-2 5-9 6-14 5a20 20 0 01-5-1c0 3 0 7 2 9 2 3 5 4 9 4 5 1 11 0 13-5a15 15 0 0025-7 33 33 0 011-5l2-3a10 10 0 000-10z"/><path class="ae" d="M1106 761a59 59 0 00-6-3c-8-2-23-11-31-11-2 0-10 2-15 15-3 6-3 14-2 21 1 14 13 61 15 67 3 8 6 17 12 22h7l-1-2c-5-12-13-50 5-54a52 52 0 018-4c7-2 13-4 19-8l2-1h1c-1-5-3-10-6-14-5-6-13-5-20-6-5 0-9 1-11 4s-3-1-2-2c1-3 4-2 6-5 2-2 2-5 4-6 2-2 5 0 9-2 6-3 15 5 20 8a35 35 0 014 2 118 118 0 00-18-21z"/><path class="af" d="M1120 803h-1zM1119 803l-2 1z"/><path d="M1040 742c-10 5-18 13-27 19-8 6-18 12-25 20l-2 2c13-7 20-7 34-12l15-9c-6 19-2 52 5 68 1-5 3-11 1-25-2-9-4-24-2-29 2-10 11-20 17-28 8-10 16-4 20-2a148 148 0 0021 8l-5-4c-15-11-35-17-52-8z" fill="#bab2a8"/><path class="ah" d="M1076 746c-4-2-12-8-20 2-6 8-15 18-17 28-2 5 0 20 2 29 2 14 0 20-1 25-7-16-11-49-5-68l-15 9c-14 5-21 5-34 12-6 7-7 15-7 24 0 14-1 42 4 49a20 20 0 003 3c-2-5 1-10 4-16 6-11 11-22 22-30l7-12v-1 1c-1 10-8 21-13 29l-9 15c-3 7-4 12-3 19a61 61 0 006 2c0-7 5-13 11-16 4-3 9-4 14-6 3-1 6-3 9-2 10 0 12 5 18 12 3 2 6-2 8-6l5-5c-4-15-12-48-13-60-1-7-1-15 2-21 6-13 13-15 15-15 8 0 23 9 31 11a59 59 0 016 3l-8-7a150 150 0 01-22-8z"/><path class="af" d="M1021 782c-5 2-10 2-15 6-3 2-3 5-4 8-2 5-6 7-9 11-5 7-6 17-7 26-1 5-4 15 3 18a1 1 0 001 0v-1c4-10 10-20 17-28 4-6 11-14 12-21 1-1 3-12 7-18 2-3-3-2-5-1z"/><path class="ae" d="M1019 801l-7 12c-11 8-16 19-22 30-3 6-6 11-4 16a30 30 0 008 5c-1-7 0-12 4-19l8-14c5-9 12-20 13-30v-1 1z"/><path class="af" d="M1065 844l-5 4c-2 4-6 8-8 6-6-7-8-12-18-12-3-1-6 1-9 2-5 2-10 3-14 6-6 3-11 9-11 16l2 1c6-10 18-10 29-10 5 1 10 2 14 5 3 4 9 6 12 4 5-2 8 3 11 7l11-1c-6-5-9-14-12-21l-2-7zM1124 782a40 40 0 00-4-2c-5-3-14-11-20-9-4 3-7 1-9 2l-4 7c-2 2-5 2-6 5-1 1 0 4 2 2s6-4 11-4c7 1 15-1 20 6 3 4 5 9 6 14h-1l-2 1c-6 4-12 6-19 8a52 52 0 00-8 4c-18 4-10 42-4 54v2l9-2a72 72 0 0014-4c13-19 13-62 14-62l6-5 1 1 1 2c4 11 9 33 8 47a20 20 0 005-4s1-10-2-23c-3-14-14-34-18-40z"/><path d="M1131 802l-1-2-1-1-6 5c-1 0-1 43-14 62 9-3 19-1 24-4 6-3 10-7 9-9 1-14-7-40-11-51z" fill="#4f463f"/><path class="ae" d="M1057 866c-3 2-9 0-12-4-4-3-9-4-14-5-11 0-23 0-29 10a423 423 0 0067 6c-4-4-7-9-12-7z"/><path class="ah" d="M1123 798c-1 0-4-2-6-1-4 1-8 4-18 5-7 1-14 0-20 5l-4 5c-2 6-5 6-6 8-1 4 2 9 1 13h2c3-6 7-13 12-17 4-3 7-5 18-6 7 0 11-3 17-4 8-2 7-6 12-6-2-1-4-3-8-2z"/><path d="M1238 445c8-5 19-25 60-3 24 14 10 54 30 49 27-7 48 24 21 49s-38 20-66 7c-10-5-16-8-31-6s-20 23-49 26-74-30-52-48 25-29 19-46 28-42 43-28 18 4 25 0z" fill="#45dbe2"/><path d="M1298 535c-11 0-42-7-50-5s-31 7-38 20-54 5-56-11 5 2 18-20c11-20 12-28 11-34a6 6 0 01-3-3c-1-4 4-10 12-13s16-1 17 3a6 6 0 01-1 5h1c11 0 39-19 46-15s-19 11-10 18 31-7 38 0-19 7-13 13 23 2 26 6-6 5-2 9 9-2 14 2-23 5-18 11 20 14 8 14zm44-14c-1-5-10-7-20-4s-15 10-14 15 11 7 20 4 16-10 14-15z" transform="translate(1 1)" fill="url(#b)"/><path class="al" d="M1279 510c3-5 0-12-6-15s-14 0-15 4l8 5c-1 0-8-4-9-3-1 0-2 9 6 14a11 11 0 0016-5z"/><path class="am" d="M1257 501a32 32 0 014 2l5 1-4-3a23 23 0 01-3-2 1 1 0 010-1c1-3 9-5 14-3 5 3 8 10 5 15a11 11 0 01-6 5 10 10 0 01-9-1c-7-4-7-11-6-13z"/><path class="an" d="M1258 502l2 1c5 2 6 2 7 1l-4-4a36 36 0 01-4-2c2-2 9-4 14-2 5 3 7 9 5 14a10 10 0 01-6 5 10 10 0 01-8-1c-7-4-7-10-6-12z"/><path class="ao" d="M1261 498c3-1 8-3 11-1 5 2 7 8 5 12a9 9 0 01-6 5 8 8 0 01-7-1 11 11 0 01-5-9h1c4 2 6 3 8 1 1-3-1-4-5-6l-2-1z"/><path class="al" d="M1284 476c3-3 2-8-1-11-4-3-10-2-11 0l4 4-5-3c-1 0-3 6 2 11a8 8 0 0011-1z"/><path class="am" d="M1271 466l2 2 3 2c1-1 0-1-2-3a17 17 0 01-2-2c2-2 7-2 10 0a8 8 0 012 11 8 8 0 01-6 2 7 7 0 01-5-2c-4-4-3-9-2-10z"/><path class="an" d="M1271 467l2 1c2 2 3 3 4 2 0-1 0-2-2-3l-2-2c1-2 6-2 9 0a7 7 0 011 10 7 7 0 01-5 3 7 7 0 01-5-2c-3-3-3-8-2-9z"/><path class="ao" d="M1274 465c2-1 6-1 8 1a6 6 0 011 9 6 6 0 01-5 2 6 6 0 01-4-2 8 8 0 01-3-7l1 1c3 2 4 3 5 2 2-2 0-3-2-5a13 13 0 01-1-1z"/><path class="al" d="M1204 520a12 12 0 0016 0c5-4 4-13 1-15-1 0-6 6-7 5 0 0 6-6 5-7 0-1-8-5-15 1-5 4-4 12 0 16z"/><path class="am" d="M1219 503a35 35 0 01-3 3c-3 3-3 4-3 5 1 0 2 0 5-3a23 23 0 013-2c2 2 3 10-1 14a11 11 0 01-16 0 12 12 0 01-3-8 9 9 0 013-8c6-5 13-2 15-1z"/><path class="an" d="M1218 503l-2 3c-3 3-4 4-3 5s2 0 5-2l3-3c2 2 2 10-2 14a10 10 0 01-14-1 11 11 0 01-3-7 9 9 0 013-7 11 11 0 0113-2z"/><path class="ao" d="M1221 508c0 3 0 8-2 11a9 9 0 01-13-1 10 10 0 01-3-6 8 8 0 013-6 10 10 0 0110-2l-1 1c-3 3-4 5-3 6v1c2 2 4 0 7-2z"/><path class="al" d="M1218 485a8 8 0 00-6 9c1 4 7 7 9 6 1-1-1-6-1-6l3 6s6-4 5-10c-1-4-6-7-10-5z"/><path class="am" d="M1223 499a23 23 0 01-1-2l-2-4v4a15 15 0 011 3c-3 0-8-2-9-6a8 8 0 016-9 8 8 0 016 0 7 7 0 013 5c1 6-3 9-4 9z"/><path class="an" d="M1223 499l-1-2-2-4v6c-2 1-6-2-7-5a7 7 0 015-9 8 8 0 016 1 6 6 0 013 4 8 8 0 01-4 9z"/><path class="ao" d="M1219 499c-2-1-5-3-5-5a6 6 0 014-8 7 7 0 015 1 5 5 0 013 3 7 7 0 01-2 7l-1-1c-1-3-1-4-3-4-2 1-2 3-1 5v2z"/><path class="ap" d="M1222 508a8 8 0 01-5-3 7 7 0 0110 1 8 8 0 01-5 2zM1212 507a8 8 0 01-5-3 7 7 0 0110 1 8 8 0 01-5 2zM1215 510a3 3 0 112 5 8 8 0 01-2-5z"/><path class="ap" d="M1215 500a3 3 0 112 5 8 8 0 01-2-5z"/><path class="ap" d="M1223 504a8 8 0 01-6 1 8 8 0 012-5l6-2a8 8 0 01-2 6zM1215 510a8 8 0 01-5 2 7 7 0 017-7 8 8 0 01-2 5z"/><path class="ap" d="M1219 510a8 8 0 01-2-5 7 7 0 017 8 8 8 0 01-5-3zM1212 503a8 8 0 01-1-6 7 7 0 016 8 8 8 0 01-5-2z"/><path class="aq" d="M1222 506a8 8 0 01-5-1 6 6 0 019-3 8 8 0 01-4 4zM1213 508a7 7 0 01-5 0 7 7 0 014-4 8 8 0 015 1 7 7 0 01-4 3zM1216 510a3 3 0 114 4 7 7 0 01-4-4z"/><path class="aq" d="M1214 501a3 3 0 113 4 7 7 0 01-3-4z"/><path class="ar" d="M1221 502a7 7 0 01-4 3 6 6 0 114-3z"/><path class="ar" d="M1217 510a7 7 0 01-4 3 6 6 0 114-3z"/><path class="ar" d="M1220 509a7 7 0 01-3-4 6 6 0 018 5 7 7 0 01-5-1zM1212 505a7 7 0 01-3-4 6 6 0 018 4 7 7 0 01-5 0z"/><path class="as" d="M1218 504a2 2 0 01-1 1 2 2 0 010-1 1 1 0 111 0zM1217 506a2 2 0 01-1 1 2 2 0 010-1 2 2 0 011-1 2 2 0 010 1z"/><path class="as" d="M1218 506a2 2 0 01-1-1 1 1 0 012 1 2 2 0 01-1 0zM1216 505a2 2 0 01-1-1 1 1 0 012 1 2 2 0 01-1 0z"/><path class="as" d="M1218 505a2 2 0 01-1 0 1 1 0 012-1 2 2 0 01-1 1zM1216 506a2 2 0 01-1 0 1 1 0 012-1 2 2 0 01-1 1z"/><path class="as" d="M1217 506a2 2 0 010-1 1 1 0 011 2 2 2 0 01-1-1z"/><path class="as" d="M1217 504a2 2 0 010-1 1 1 0 010 2 2 2 0 010-1z"/><path class="at" d="M1218 505a1 1 0 01-1 0 1 1 0 011-1 1 1 0 010 1zM1217 506a1 1 0 010-1 1 1 0 010 1zM1218 506v-1a1 1 0 010 1zM1217 505a1 1 0 01-1-1 1 1 0 011 1z"/><path class="at" d="M1218 505a1 1 0 01-1 0 1 1 0 011 0zM1217 505a1 1 0 01-1 0 1 1 0 011 0z"/><path class="at" d="M1217 506a1 1 0 010-1 1 1 0 011 1 1 1 0 01-1 0zM1217 505a1 1 0 010-1 1 1 0 010 1z"/><path class="al" d="M1150 551l11-8s-3 8-7 12a21 21 0 01-9 5 21 21 0 015-9z"/><path class="am" d="M1149 553c7-8 2 1 2 1s9-6 1 2a13 13 0 01-6 3 16 16 0 013-6z"/><path class="an" d="M1149 554c6-8 1 1 1 1s9-6 1 1a11 11 0 01-5 3 14 14 0 013-5z"/><path class="am" d="M1151 553l-1 2 2-1a68 68 0 00-6 5l5-6z"/><path class="al" d="M1148 545c5-2 13-2 13-2s-6 5-11 7a21 21 0 01-10 1 21 21 0 018-6z"/><path class="am" d="M1145 547c10-5 2 1 2 1s11-1 0 3a13 13 0 01-7 0 16 16 0 015-4z"/><path class="an" d="M1145 547c9-4 0 2 0 2s11-2 1 1a11 11 0 01-5 1 14 14 0 014-4z"/><path class="am" d="M1147 547l-1 1 2 1a67 67 0 00-8 2l7-4z"/><path class="al" d="M1157 557c0-6 3-14 3-14v14a29 29 0 01-3 9 29 29 0 010-9z"/><path class="am" d="M1157 559c0-11 1 0 1 0s3-11 1 1a17 17 0 01-2 6 21 21 0 010-7z"/><path class="an" d="M1157 560c0-10 1 0 1 0s2-10 1 0a15 15 0 01-2 5 19 19 0 010-5z"/><path class="am" d="M1158 558v0l-1 7a60 60 0 001-7z"/><path class="al" d="M1151 540c3 0 7 4 7 4l-8 1c-3 0-5-4-5-4s3-2 6-1z"/><path class="am" d="M1149 540c7 0 0 2 0 2s6 4-1 2a6 6 0 01-3-3 8 8 0 014-1z"/><path class="an" d="M1149 540c6 0-1 2-1 2s6 3 0 2a5 5 0 01-2-3 7 7 0 013-1z"/><path class="am" d="M1150 541l-1 1 1 1a24 24 0 00-5-2 14 14 0 005 0z"/><path class="al" d="M1159 552l1-9 5 7c1 3-2 6-2 6s-3-1-4-4z"/><path class="am" d="M1160 553c-2-6 2-1 2-1s1-7 2 0a6 6 0 01-1 4 8 8 0 01-3-3z"/><path class="an" d="M1161 553c-3-5 1 0 1 0s1-7 2-1a5 5 0 01-1 4 7 7 0 01-2-3z"/><path class="am" d="M1161 552h2a25 25 0 000 4 14 14 0 00-2-4z"/><path class="al" d="M1159 536v8l-4-7a11 11 0 011-6 11 11 0 013 5z"/><path class="am" d="M1158 535c2 6-1 0-1 0s-1 7-2 0a7 7 0 011-4 9 9 0 012 4z"/><path class="an" d="M1158 535c2 5-1 0-1 0s-1 6-2 0a6 6 0 011-3 8 8 0 012 3z"/><path class="am" d="M1157 536v-1l-1 1a34 34 0 000-5 20 20 0 001 5z"/><path class="al" d="M1152 536l7 8-9-5a20 20 0 01-5-7 20 20 0 017 4z"/><path class="am" d="M1150 535c7 5 0 1 0 1s5 7-2 1a12 12 0 01-3-4 15 15 0 015 2z"/><path class="an" d="M1150 535c6 4-1 0-1 0s5 7-1 2a11 11 0 01-2-4 13 13 0 014 2z"/><path class="am" d="M1150 536h-1l1 1-5-4a42 42 0 005 3z"/><path class="au" d="M1150 548a10 10 0 004-1 13 13 0 002-1 14 14 0 00-1 1 11 11 0 00-3 5 10 10 0 005-3 17 17 0 001-2 28 28 0 000 3 15 15 0 000 5 15 15 0 002-5v-1a5 5 0 001 1 5 5 0 001-3 9 9 0 00-2-3v-1l-1 1a13 13 0 000-4 6 6 0 00-2-3 6 6 0 000 3 9 9 0 001 2 19 19 0 00-2-2 10 10 0 00-4-2 10 10 0 003 3v1a4 4 0 00-3 1 5 5 0 002 1l-1 1a10 10 0 00-3 3zm9-4zm0 0z"/><path class="at" d="M1163 543c-2 1-4 2-5 1s-1-3 1-5 3-2 4-1 1 3 0 5z"/><path class="at" d="M1162 543c-1 1-3 2-4 1s-1-3 1-4 3-2 4-2 1 3-1 5z"/><path class="at" d="M1163 541a2 2 0 110-3 2 2 0 010 3z"/><path class="at" d="M1162 539l3-4-3 4s0 1 0 0z"/><path class="al" d="M1175 568l-12-11s3 9 7 14a24 24 0 008 8 24 24 0 00-3-11z"/><path class="am" d="M1176 571c-6-11-3 0-3 0s-9-8-1 3a15 15 0 006 4 18 18 0 00-2-7z"/><path class="an" d="M1176 571c-6-10-2 2-2 2s-9-9-2 0a13 13 0 005 4 16 16 0 00-1-6z"/><path class="am" d="M1174 570v2l-2-1a80 80 0 016 7l-4-8z"/><path class="al" d="M1179 562l-15-6s6 8 11 11a24 24 0 0012 3 24 24 0 00-8-8z"/><path class="am" d="M1181 564c-10-8-2 2-2 2s-12-4 0 2a15 15 0 007 2 18 18 0 00-5-6z"/><path class="an" d="M1181 564c-9-6-1 2-1 2s-12-4-1 2a13 13 0 006 1 16 16 0 00-4-5z"/><path class="am" d="M1179 564l1 2h-2a81 81 0 018 4l-7-6z"/><path class="al" d="M1166 573v-16l-4 16a33 33 0 001 11 33 33 0 003-11z"/><path class="am" d="M1166 576c1-12-2-1-2-1s-1-13-2 1a20 20 0 001 7 25 25 0 003-7z"/><path class="an" d="M1166 576c1-11-2 1-2 1s-1-13-1-1a17 17 0 001 6 21 21 0 002-6z"/><path class="am" d="M1165 574l-1 2v-2l-1 9h1a69 69 0 011-9z"/><path class="al" d="M1176 555c-4 0-9 3-9 3s5 3 9 3 7-3 7-3-3-3-7-3z"/><path class="am" d="M1178 555c-8-1-1 3-1 3s-7 3 1 2a7 7 0 004-2 9 9 0 00-4-3z"/><path class="an" d="M1178 556c-7-1 0 2 0 2s-7 3 0 2a6 6 0 004-2 8 8 0 00-4-2z"/><path class="am" d="M1177 557l1 1h-1a29 29 0 015 0l-5-1z"/><path class="al" d="M1164 567l1-10s-5 4-6 7v7s3-1 5-4z"/><path class="am" d="M1163 568c4-6-2-1-2-1s0-8-3-1a7 7 0 001 5 9 9 0 004-3z"/><path class="an" d="M1162 568c4-5-2 0-2 0s1-8-2-2a6 6 0 001 5 8 8 0 003-3z"/><path class="am" d="M1162 567h-1l-1-1a28 28 0 01-1 5l3-4z"/><path class="al" d="M1168 549l-2 10 6-8a12 12 0 000-7 12 12 0 00-4 5z"/><path class="am" d="M1169 548c-4 6 1 1 1 1s0 7 2 0a8 8 0 000-5 10 10 0 00-3 4z"/><path class="an" d="M1169 548c-3 5 2 0 2 0s-1 7 1 1a7 7 0 000-4 9 9 0 00-3 3z"/><path class="am" d="M1170 549v-1 1a41 41 0 012-4 23 23 0 01-2 4z"/><path class="al" d="M1176 551c-5 2-11 8-11 8l13-5a23 23 0 007-6 23 23 0 00-9 3z"/><path class="am" d="M1178 550c-9 4 0 1 0 1s-8 7 2 1a14 14 0 004-4 18 18 0 00-6 2z"/><path class="an" d="M1178 550c-8 3 1 1 1 1s-8 6 1 1a12 12 0 003-4 15 15 0 00-5 2z"/><path class="am" d="M1177 551h2l-1 1 6-4a47 47 0 01-7 3z"/><path class="au" d="M1172 560l-1-1a5 5 0 003-1 5 5 0 00-3-2h1a11 11 0 003-3 11 11 0 00-4 1 23 23 0 00-3 2 11 11 0 001-2 7 7 0 000-3 6 6 0 00-2 3 14 14 0 00-1 4l-1-1v1a11 11 0 00-3 3 5 5 0 000 4 6 6 0 002-2v2a17 17 0 001 6 17 17 0 001-6 35 35 0 000-4 20 20 0 002 4 11 11 0 004 3 12 12 0 00-2-5 17 17 0 00-1-2 17 17 0 002 2 11 11 0 005 1 12 12 0 00-4-4zm-6-2zm0 0z"/><path class="at" d="M1162 556c2 2 4 3 5 2s2-3 0-5-3-3-5-2-1 3 0 5z"/><path class="at" d="M1163 556c1 2 3 3 4 2s1-3 0-5-3-3-4-2-1 3 0 5z"/><path class="at" d="M1162 554a2 2 0 101-3 2 2 0 00-1 3z"/><path class="at" d="M1163 552l-2-5 3 5h-1zM1162 562c2 0 4 0 4-2s-1-2-3-3-4 1-4 2 1 3 3 3z"/><path class="at" d="M1162 562l4-2c0-1-1-2-3-2l-4 1 3 3z"/><path class="at" d="M1160 561a1 1 0 10-1-2 2 2 0 001 2z"/><path class="at" d="M1160 559l-4-1 4 1c1 0 0 1 0 0z"/><path class="ac" d="M845 431c14-13 31-6 68 11s49 18 60 19 43 29 61 32 22 5 22 5l5 11s-5 12-46 14-62-4-93 15-58 19-94 12-52-9-60-12 15-14 50-11 46-4 41-7-14 2-38 0-64-17-64-17 74-59 88-72z"/><path d="M1034 493c-18-3-51-31-61-32s-23-1-60-18l-20-9c2 0 34 18 43 25 10 8 11 17 28 22a43 43 0 0129 25c2 7-25 4-43 12s-33 24-49 30a108 108 0 0022-10c30-19 50-13 92-15s47-14 47-14l-6-11-22-5z" style="mix-blend-mode:multiply" fill="#7ebb15"/><path class="aw" d="M853 494c14-4-7-6-20-11s-17-11-1-11 15-6 11-10-10-14 3-15 10-11 10-16c0-4 4-6 5-6a24 24 0 00-16 6c-14 13-88 72-88 72s19-8 34-9 48 4 62 0zM876 528c1-12-15-11-27-9 5-1 8-1 10 1 5 3-6 10-41 7-20-2-36 1-45 4a242 242 0 0150 3c27 5 51 6 53-6z"/><path class="ax" d="M492 523l50-4 30 12h12l79 30 57-12 22-12 16-8v-6l-42-33-49-19-39-18-22-4-34 18-34 24-33 10-13 14v8z"/><path class="ay" d="M492 517l50-4 30 11h12l79 31 57-12 22-12 16-8-2-8-40-31-49-19-39-18-22-4-34 18-34 24-33 10-13 14v8z"/><path class="ax" d="M538 485l12 11 31 3 40 12 23 12 40-3 29-16 21-6 1-14-10-9-63-20-27-12-31-3-36 14-16 13-14 7v11z"/><path class="ay" d="M538 479l12 11 31 3 40 12 23 12 40-3 29-16 21-6 1-8-10-15-63-21-27-11-31-3-36 14-16 13-14 7v11z"/><path class="az" d="M647 490l-20-7-15 3v3l12 6 19 3 7 5h7l9-3 2-5-13-4-8-1zM595 453l-14 2-5 5 1 5 8 1 3-4 7-2 3-4-3-3z"/><path class="ax" d="M607 466l3-19 13-14 2-8 30-3 33 5 28 1 6 7 2 6 7 37-7 4-13 2-28-4-34 4-22-10-17-3-3-5z"/><path class="ba" d="M625 425l1 10 31 14 29-9 8 3 12-3 3-3h4l9-2-6-7-28-1-33-5-30 3z"/><path fill="#898989" d="M686 440l-29 9 2 13-2 6v7l-4 7-4 2 34-4-2-18 2-7-3-2 3 1 3-10v-4z"/><path class="ba" d="M712 480l-2-5-10-3-4-6-1-7 6-9-9 8-1 15-8 7 28 4 13-2-12-2z"/><path class="bc" d="M627 474l4-10 1-8 3-3 1-5 1 1 1 8-1 7 2 4-2 4 1 7-11-5z"/><path class="ba" d="M619 443l2-4 5-4-1-10-2 8-13 14-3 19 4-18 8-5z"/><path class="bd" d="M643 436l13 7 11-2 8-1 1-3-8-7-9 2-6-4-9 3-1 5z"/><path class="az" d="M666 431l-7 1-6-4-9 3-1 5 1 1 2-3 7-2 5 1 8-2z"/><path class="ax" d="M640 490l-21-7-14 3v3l12 6 19 3 14 5 9-3 1-5v-2l-12-2-8-1z"/><path class="bd" d="M640 488l-21-7-14 4v2l12 6 19 3 14 5 9-3 1-5-12-4-8-1z"/><path class="ax" d="M595 454l-17 1-6 3v2l2 4 7 1 3-3 7-2 4-5v-1z"/><path class="bd" d="M592 451l-14 2-6 5 2 5 7 1 3-4 7-2 4-4-3-3z"/><path class="ax" d="M709 514l-20 12-9 2v4l10 5 22 2 12-11 9-2 3-10v-4l-11 2-8 4-7-1-1-3z"/><path class="bd" d="M708 512l-19 11-9 2v4l10 5 22 2 12-11 9-2 3-11-11-2-8 5-7-2-2-1z"/><path class="az" d="M581 493v6l29 9-29-8-31-4v-6zM644 517v6l34 1 11-1 11-6 10 1 7-3 8-5 9-7h6l-6-5 1-14-1 8-21 6-29 16-40 3zM747 515l-11-1v-2l-3 11-9 2-12 11v3l10-4 7-2 7-4 7-9 4-3v-2zM649 484l29-2 18 2h15l-28-4-2-18 2-7-3-2 3 1 3-10v-4l-29 9 2 13-2 6v7l-4 7-4 2z"/><path style="mix-blend-mode:multiply" fill="#c6c6c6" d="M694 443l8 1-1 6-6 9 1 7 4 6 10 3 2 5 12 2h10l-3-4-7-37-2-6-9 2h-4l-3 3-12 3z"/><path class="az" d="M653 428l-5 5v4l5 4-10-5 1-5 9-3z"/><path class="bc" d="M619 443l1 8 2 6v6l1 10h1l2-12v-9l3-5 1-4 3-4 4 1-11-5-5 4-2 4z"/><path class="az" d="M572 524v7l16 1 2-5-6-3h-12z"/></g></svg>