<svg xmlns="http://www.w3.org/2000/svg" viewBox="0 0 1501 1001"><defs><radialGradient id="b" cx="557.1" cy="1377.9" r="51.8" gradientTransform="matrix(0 1 1 0 -823 -211)" gradientUnits="userSpaceOnUse"><stop offset="0" stop-color="#c0a373"/><stop offset="1" stop-color="#fff" stop-opacity="0"/></radialGradient><linearGradient id="a" x1="1130.1" y1="753.2" x2="1130.1" y2="658.5" gradientTransform="matrix(1 0 0 -1 -146 1444)" gradientUnits="userSpaceOnUse"><stop offset="0" stop-color="#a0edf0"/><stop offset="1" stop-color="#45dbe2"/></linearGradient><style>.e{isolation:isolate}.b{fill:#70b344;stroke:#5f732e}.aj,.ak,.an,.ao,.aq,.b,.x{stroke-miterlimit:10}.d{fill:#ddc02c}.e{opacity:.25}.aa,.f{fill:#7ebb15}.g{fill:#94d31a}.h{fill:#78a015}.i{fill:#897d6f}.j{fill:#635a52}.l{fill:#91887b}.p{fill:#8ab550}.q{fill:#97c261}.r{fill:#a9d171}.s{fill:#b3db7b}.t{fill:#dcf5f5}.u{fill:#f2ffff}.v{fill:#fff}.w{fill:#fddfb3}.x{fill:#1d150c}.aj,.ak,.an,.ao,.aq,.x{stroke:#1d150c}.y{fill:#81a653}.ad{mix-blend-mode:multiply}.aa{mix-blend-mode:screen}.ab{fill:#bdbdbd}.ac{fill:#d9d9d9}.ad{fill:#cfcfcf}.ae{fill:#cbcbcb}.ag{fill:#c6c6c6}.ah{fill:#e8e8e8}.aj,.ak{fill:#3f2b0f}.ak{stroke-width:1.14px}.an,.ao{fill:#571c10}.an,.ao,.aq,.ar,.as,.at,.au,.av,.aw,.ax,.ay,.az,.ba,.bb,.bc,.bd,.be{fill-rule:evenodd}.ao{stroke-width:1.04px}.aq{fill:#c0a373}.ar{fill:#5c4328}.as{fill:#544730}.at{fill:#877657}.au{fill:#ae9c87}.av{fill:#68543c}.aw{fill:#9d8264}.ax{fill:#b49871}.ay{fill:#8f7e5f}.az{fill:#857c68}.ba{fill:#a59b84}.bb{fill:#67604f}.bc{fill:#bdb29a}.bd{fill:#c1b09a}.be{fill:#cdb186}</style></defs><g style="isolation:isolate"><path class="b" d="M1001 501h250v250h-250zM1251 251h250v250h-250zM1001 251h250v250h-250zM1001 1h250v250h-250zM1251 1h250v250h-250zM751 251h250v250H751zM751 1h250v250H751zM751 501h250v250H751zM501 251h250v250H501zM251 251h250v250H251zM501 501h250v250H501zM251 501h250v250H251zM751 751h250v250H751zM251 751h250v250H251zM1001 751h250v250h-250zM501 1h250v250H501zM1251 501h250v250h-250zM1251 751h250v250h-250zM501 751h250v250H501zM251 1h250v250H251zM1 1h250v250H1zM1 751h250v250H1zM1 251h250v250H1zM1 501h250v250H1z"/><path d="M902 203c2-4 9-3 20-3 17 0 14-2 28-1 12 0 11 1 23 2h65c2-1 5-2 7 0s2 6 2 7c0 15 3 30 2 45-1 9-3 32 0 53 1 10-2 21 0 31 0 2 1 5-1 7-3 3-10 1-14 0l-43-1c-18 1-18 3-30 2-15-2-15-5-26-4-16 1-24 9-29 4-3-2-3-6-3-11l1-43c2-19-1-14 1-40 0-13 1-24-1-31l-2-13v-4z" fill="#ffe161"/><path class="d" d="M976 345a2 2 0 01-2-1v-1l-1-2v-5a3 3 0 010-1l-1-5 1 2a7 7 0 000-2 2 2 0 001 0 2 2 0 002 0h-4a3 3 0 010-1l1-3v-1l1-3a33 33 0 00-1-4 2 2 0 01-1 0v-1a2 2 0 011-1v-3l-1-3a3 3 0 011-3v-1a41 41 0 01-1-7l-1-3-2-6 4 3v-3a3 3 0 01-1-1 53 53 0 000-6l1-3v-1-1a2 2 0 010-1v-2l-1-5a1 1 0 010-1 2 2 0 011-1l-1-3v-1a1 1 0 010-1v-2-2c0-1 0 0 0 0a1 1 0 010-1v-4a2 2 0 010-1 10 10 0 00-2-4l3-1-1-1v-6l1-3a24 24 0 01-1-3h-1v-2-2-3a3 3 0 011-2l-1-1-6 3 6-6v-6a21 21 0 010-4v-1a29 29 0 000-4 56 56 0 01-1-6h1a16 16 0 00-1-3l3-1a19 19 0 012 5l-1 3v1a28 28 0 011 4 1 1 0 010 2 14 14 0 00-1 3h1v1a14 14 0 000 3 7 7 0 01-1 4 14 14 0 011 2l1 4v1h-1v2h1l-1 1 2 5 1 2h-2a7 7 0 000 1h1l-1 1a2 2 0 01-1 1 10 10 0 002 5h-2l1 4a30 30 0 010 6 14 14 0 000 2 30 30 0 010 6v1l1 3-1 1 1 6v1a2 2 0 010 1l-1 5v4l1 2a2 2 0 010 2v3l-1 2a2 2 0 01-1 1l1 1a61 61 0 001 6 2 2 0 011 1v4l-1-1a2 2 0 01-1 1v8l1 2v5a5 5 0 010 1l-1 2 1 4a17 17 0 011 5h-1v6a2 2 0 01-1 2zm-1-37l-1 1a2 2 0 001 0 2 2 0 001 0 1 1 0 00-1-1zm-3 1h1a3 3 0 010-1 2 2 0 00-1 1zm3-76zm-4-17z"/><path class="d" d="M963 346a24 24 0 010-3 2 2 0 011-1v-1-4c-1-4-2-6-1-8a12 12 0 010-4v-2-1-3-2a2 2 0 01-1-3 2 2 0 011-1l-1-6-1-1h1a8 8 0 010-3 3 3 0 010-1 7 7 0 010-1v-5-2a2 2 0 010-1v-7a4 4 0 011-2v-3a3 3 0 01-1 0v-1l1-2v-1c-2-5-2-9-1-11v-4l-1-5v-3a2 2 0 01-1-1h1a9 9 0 010-1c-2-5-1-7 0-8a2 2 0 010-1v-1a16 16 0 000-4 11 11 0 01-1-5 4 4 0 010-1 2 2 0 010-1v-2-2a8 8 0 010-3 2 2 0 011-3l-1-8v-1a2 2 0 011-2 56 56 0 00-1-5v-3l2-3 1 3c2 5 2 9 2 12v6l1 2 4 9-5-5-1-1a31 31 0 000 4v2a4 4 0 010 2 11 11 0 000 4l1 4v2a6 6 0 010 2v7l-1-2v1a4 4 0 011 2h-1l1 4v3-1 2a2 2 0 001 1 1 1 0 010 2 2 2 0 01-1 0v2l1 1v2l-1 1a18 18 0 002 5l1 11-1-2a7 7 0 010 2l-1 4v12a4 4 0 010 1 6 6 0 000 3 2 2 0 010 1l1 6v3l1 1h-1a3 3 0 010 1l-1 2h1a22 22 0 010 5c0 2-1 3 1 5l4 7-5-4 2 6h-2l1 5-1 1zm0-60zm2 0h-1a2 2 0 001 0zm-4-33zM956 344a2 2 0 01-1 0h-1-1v-1a1 1 0 010-2v-3a3 3 0 010-2v-1l-1-6v-1-3-2a1 1 0 010-1 15 15 0 011-5 5 5 0 010-1 29 29 0 000-4 1 1 0 010-1v-1-3h-1-1l2-2v-1a30 30 0 00-1-6 2 2 0 01-1-1v-1-1l-1-6h1v-4-1a16 16 0 00-1-6l1-1v-1 1a12 12 0 010-2l1-3v-1a11 11 0 00-1-4 2 2 0 01-1-2v-2a2 2 0 011-1v-1-1a2 2 0 010-1v-1-3a5 5 0 010-3l-1-1v-2a4 4 0 010-2 5 5 0 000-2 3 3 0 010-3 7 7 0 001-4 5 5 0 01-1-2 12 12 0 000-2v-1h1v-4h0a35 35 0 00-3-10l-4-9 5 5a2 2 0 010-1 2 2 0 010-2h1a27 27 0 01-1-7l1-2v-7l1 2a2 2 0 011 0l2 1a6 6 0 010 1v2l-1 3a24 24 0 000 6 4 4 0 011 2 12 12 0 011 3v9l-1-1 1 4v1l2 4-2-1v1a5 5 0 011 1l-1 1a2 2 0 01-1 1v1a9 9 0 010 5 3 3 0 000 1v1a8 8 0 010 4 2 2 0 00-1 1l1 1a23 23 0 011 2l2 8h-1l-1-1 1 2v1h-1l-1 3a13 13 0 012 7 18 18 0 000 3h-1a15 15 0 001 3l-2 1a18 18 0 011 3v1a2 2 0 010 1v2a44 44 0 010 7v1a3 3 0 010 2 32 32 0 011 4v7l1 3v1a1 1 0 01-1 1 33 33 0 010 4 3 3 0 011 1v1a4 4 0 01-1 1l-1 3v2l1 5v1l1 7v7zm-7-130h1v-1a2 2 0 00-1 1zm3-14h1a2 2 0 001 0z"/><path class="d" d="M944 343a3 3 0 01-2-2l1-1a3 3 0 011-1v-1a15 15 0 01-1-3 21 21 0 01-1-4v-4a2 2 0 010-2 12 12 0 010-6v-3a1 1 0 010-1v-3a3 3 0 010-2 20 20 0 01-1-5v-2l-1-3h1l-1-1v-1-1h2v-3a2 2 0 01-1-1l1-4a5 5 0 010-3v-1-4h1l-1-3v1l-1-5a4 4 0 01-1-2l-1-6 2 2h1l-1-2v-5l-1-3v-6-1a5 5 0 01-1-2v-1-2l1-1a8 8 0 000-2l2-1h-2v-1-1a2 2 0 010-1v-1-2h-1a1 1 0 011-2v-3a2 2 0 010-2l1-1a4 4 0 010-1v-1a25 25 0 00-1-6 18 18 0 010-1 2 2 0 010-3 8 8 0 010-1 4 4 0 000-3v-2-1a17 17 0 01-1-4v-1a3 3 0 010-1 17 17 0 01-1-3l-1-3 4 2a3 3 0 011 1h1a13 13 0 010 1 5 5 0 010 2v2l1 4h1v1a2 2 0 01-1 1 6 6 0 010 4 3 3 0 001 3h-1v1a27 27 0 011 7v1a5 5 0 010 1h-1v2a2 2 0 010 1v2a28 28 0 010 3v6l-1 5v1l1 1v2l1 3-1 1v2a23 23 0 011 6v1a31 31 0 002 4v2h-2v2a40 40 0 012 9v5-1h-1v1a10 10 0 010 1v1a6 6 0 000 2v1l-1 1a2 2 0 011 0v1a36 36 0 001 6l2 6h-1l-2-2v4a14 14 0 001 4h-1v3a17 17 0 010 5v1a11 11 0 001 5v1h-1 1v1a2 2 0 01-1 1v1a20 20 0 001 5 3 3 0 011 1h-1v1a40 40 0 001 4v1h-1a3 3 0 01-2 2zm1-7a2 2 0 002 0zm-2-48a2 2 0 001 0 3 3 0 001 0zm0-60a2 2 0 001 0zM933 340l-2 1a3 3 0 011-3 16 16 0 010-2 6 6 0 000-3l3-2a2 2 0 00-2 0 2 2 0 00-1 1 4 4 0 000-2l-1 1v-2-1l1-6a14 14 0 010-2v-1l-1-3a34 34 0 010-6 5 5 0 000-1 2 2 0 002 1 2 2 0 001-1h-3a11 11 0 000-3l1-2a16 16 0 00-2-4v-1a2 2 0 011-2v-1a12 12 0 01-2-2l3-1a22 22 0 00-1-5 2 2 0 01-1-1v-1-2l-1-1a1 1 0 011-1v-4 1a6 6 0 010-2 2 2 0 001-1 1 1 0 01-1-1v-1l1-5h-1v-1a4 4 0 010-3 16 16 0 000-6 20 20 0 01-2-2l3-1a10 10 0 01-1-2 21 21 0 00-1-5v-2-2a5 5 0 011-2 15 15 0 010-2 14 14 0 010-4 3 3 0 010-3 20 20 0 000-5l-3-5 3 1a10 10 0 010-3v-2-2a7 7 0 01-1-3 3 3 0 011-1 33 33 0 010-6v-1l-1-3a49 49 0 01-1-5v-1h1a6 6 0 000-1h4c1 2 0 3-1 3v4l1 1v11l1 2 1 5h-2v4l1 1a11 11 0 010 4v6a2 2 0 01-1 1 17 17 0 000 3 4 4 0 011 0l1 1h-1a2 2 0 01-1 2v3a23 23 0 011 6v1l1 1-1 5a33 33 0 010 7l1 1h-1v5a4 4 0 010 3 5 5 0 000 3 4 4 0 01-1 5h1v1a20 20 0 011 5v4a17 17 0 00-1 3 16 16 0 011 4v4l-1 1a11 11 0 010 1 5 5 0 011 2 14 14 0 010 2 2 2 0 010 1v4a1 1 0 011 1v2a10 10 0 000 3l3 5-4-3v3a2 2 0 010 1v3a8 8 0 011 3 12 12 0 000 4l2 7zm-1-66a2 2 0 00-1 0h2a3 3 0 00-1 0zm-1-76zM926 339h-1a3 3 0 010 1v5a3 3 0 01-3 1 2 2 0 01-1-2h1a9 9 0 00-1-4l-5-10h1l4 5a2 2 0 011-2v-2a14 14 0 00-2-5l2-1-1-1a2 2 0 00-1 1 7 7 0 010-3l-4 1 6-4a10 10 0 001-3 37 37 0 00-2-5 3 3 0 010-1 12 12 0 01-1-1l1-1a5 5 0 000-1 11 11 0 000-4v-2l-1-2v-1l1-5v-3-2-1a6 6 0 01-1-1v-3-2a1 1 0 010-1 4 4 0 010-3 2 2 0 010-2h1l-1-2v-4-3a2 2 0 010-2l-1-3a3 3 0 011-1v-1a2 2 0 010-2v-2-5-4-1l-1-1v-3l1-1a1 1 0 00-1 1v-1a3 3 0 011-1 6 6 0 010-4 15 15 0 00-1-3l-2-2v-1l2 1 1-1a39 39 0 00-1-6 1 1 0 010-1v-1h1l-2-6v-1a1 1 0 011-1v-1a5 5 0 011-2 2 2 0 000-2 4 4 0 01-1-2l-1-3v-1h1a2 2 0 001 0 2 2 0 002-1h-4v-1a2 2 0 012-1 2 2 0 012 2 43 43 0 010 3l1 3a4 4 0 010 3v4l-1 1 1 4v12a17 17 0 011 3v4a4 4 0 000 1l-2 1a1 1 0 001 0 3 3 0 01-1 1l1 2v1a32 32 0 011 4v10a2 2 0 01-1 1v1l3 8-2-2v6a52 52 0 001 5v1h-2a1 1 0 000 1h1v7a2 2 0 010 1l1 5v1a1 1 0 01-1 2 7 7 0 000 2v1a26 26 0 010 2 1 1 0 010 1l1 2a13 13 0 010 3 2 2 0 010 1 16 16 0 010 2 4 4 0 010 1l1 4v3a9 9 0 01-1 2v1a11 11 0 01-1 3l-1 2a15 15 0 012 5 23 23 0 001 4l4 10-4-5zm-3 4a2 2 0 00-1 1h2a2 2 0 00-1 0zm-2-36a2 2 0 002 1 2 2 0 002-1z"/><path class="d" d="M914 339a2 2 0 01-2-2v-2-1l-1-5v-2a3 3 0 010-1 3 3 0 01-1-1v-1h1a3 3 0 010-1h1a13 13 0 00-2-6h-1l4-1a2 2 0 00-1 0 2 2 0 00-1 0 7 7 0 000-1v-4a10 10 0 000-3 15 15 0 010-2h1v-3a3 3 0 01-1-1v-1l-2-6v-1h1v-3l-1-4-1-2-1-4v-1l3 3v-1l-1-5v-4l-2-2v-1l2 1 1-1a2 2 0 010-1 4 4 0 010-1v-1l1-3v-1l-1-3-1-2a2 2 0 010-1v-1-4a16 16 0 010-2 17 17 0 00-1-6l-3-7 1-1 3 4v-1a1 1 0 011-1 26 26 0 00-1-3 3 3 0 01-1-2l-1-3h1l1 1h1l-1-2a20 20 0 00-1-7l1-1v-2a31 31 0 01-1-4l1-3v-3a6 6 0 010-3 8 8 0 01-1-4 6 6 0 000-1v-1c0-3 0-4 2-5a3 3 0 012 1 1 1 0 011 1v2c0 1 0 0 0 0a1 1 0 01-1 1 9 9 0 010 2 6 6 0 001 4l4 7h-1l-3-3v1a11 11 0 010 2l-1 2v2h1v6a2 2 0 010 2 20 20 0 010 4 9 9 0 001 2v1h-1v2a17 17 0 010 2v4a2 2 0 010 1 6 6 0 000 2 3 3 0 010 2 18 18 0 010 4 9 9 0 001 4v1h-1v1a19 19 0 001 2l-1 1a67 67 0 003 6l2 5-1 1-2-2v1h-1a5 5 0 010 1 4 4 0 01-1 3 8 8 0 011 3 2 2 0 01-1 1l2 7a1 1 0 01-1 2 3 3 0 01-1 2v2l1 2v4l1 5h1l-1 4v3a12 12 0 01-1 4 12 12 0 001 2h1v1h-1v1a7 7 0 01-1 1 15 15 0 011 4v4a7 7 0 010 2v1l1 5v2a1 1 0 010 1v1a2 2 0 01-1 2zm-2-13a2 2 0 00-1 0h1zm1-14v1h1a2 2 0 000-1zm-2 1h1v-1h-1v1zm2-7zm0-5h1a2 2 0 00-1 0zm-2-43a3 3 0 001 0zm1-18a2 2 0 00-2 0h1a2 2 0 001 0zm-3-40a2 2 0 00-1 0h2zm3-2zM1038 347a24 24 0 010-2 2 2 0 011-2v-5c-2-4-2-6-1-8a12 12 0 010-4v-2a1 1 0 01-1-1v-2l1-3a2 2 0 01-2-2 2 2 0 012-2l-1-5-1-2h1a7 7 0 010-2 3 3 0 010-1 7 7 0 010-2v-4-1-1a2 2 0 010-2v-6a4 4 0 011-3l-1-2a3 3 0 010-1h-1c0-1 0-2 2-3v-1l-2-10 1-4-1-6-1-3a5 5 0 000-1 7 7 0 011-1c-2-4-1-7-1-8a2 2 0 011-1v-1a17 17 0 000-3v-1a11 11 0 01-1-5 4 4 0 01-1-1 2 2 0 011-1v-1a2 2 0 010-1v-2a8 8 0 010-3 2 2 0 011-2l-1-9-1-1a2 2 0 012-1l-1-6a2 2 0 00-1-1v-2l3-3 1 3 2 12-1 6 1 2 5 9-6-5-1-1a29 29 0 001 4v2h-1v1a4 4 0 010 1 11 11 0 001 4l1 5v1a6 6 0 010 2v7l-1-2v1a4 4 0 011 2h-1v4l1 3v1a2 2 0 000 1h1a1 1 0 010 2 2 2 0 01-1 0v6a18 18 0 001 5h1v11-1a7 7 0 010 2l-1 3v13a6 6 0 000 3 3 3 0 010 1l1 7v2l1 1-1 1a3 3 0 01-1 0v2a22 22 0 010 5l1 6 5 7-5-4 1 5-1 1 1 5h-1v1zm0-59v-1a3 3 0 000 1zm1-1zm-4-33h1zM1028 344a2 2 0 01-1 0h-1v-1a1 1 0 010-2v-3a3 3 0 010-3l-2-6 1-1v-3-2a1 1 0 010-1 15 15 0 011-5v-1a29 29 0 000-4 1 1 0 010-1v-1-3h-2l2-2a30 30 0 00-1-7 2 2 0 01-1-1 10 10 0 010-1v-1l-1-6 1 1 1-3-1-2v-1l-1-6 2-1v-1a13 13 0 01-1-1l1-3a3 3 0 010-1 11 11 0 00-1-4 2 2 0 010-2l-1-2a2 2 0 011-2v-1a2 2 0 010-2v-3a5 5 0 010-3v-1h-1v-2a4 4 0 010-2 6 6 0 000-2v-3a7 7 0 001-4 5 5 0 01-1-3 10 10 0 000-2h1l1-4a35 35 0 00-3-10l-6-10 6 6a2 2 0 010-1 2 2 0 011-2 26 26 0 01-1-8l1-1v-8l1 3a3 3 0 011 0s2-1 2 1v3l-1 3a25 25 0 000 6 4 4 0 011 2 13 13 0 011 3v10l-1-2 1 4v1l2 5-2-2a5 5 0 011 2l-1 1a2 2 0 01-1 1v1a9 9 0 010 5v2a8 8 0 010 4 2 2 0 00-1 1l1 1 1 2 2 8-2-2 1 3h-1l-1 4a13 13 0 012 7 18 18 0 00-1 3 16 16 0 001 2 2 2 0 010 1l-2 1a18 18 0 011 3v3a42 42 0 010 8v3a33 33 0 011 4v7l1 3a1 1 0 01-1 2 32 32 0 010 4 3 3 0 011 1v1a4 4 0 01-1 1l-1 3v2l1 5v1l1 7h-1a38 38 0 001 4v3zm-6-130h1v-1a2 2 0 00-1 1zm3-14a2 2 0 002-1z"/><path class="d" d="M1017 347a3 3 0 01-3-2h2a3 3 0 011-1v-1a14 14 0 01-1-3 21 21 0 01-1-5v-4a2 2 0 010-1 12 12 0 010-6v-4a1 1 0 010-1v-3a3 3 0 010-2 20 20 0 01-1-4v-2l-1-4h1l-1-1v-1h2v-4a2 2 0 01-1-1l1-3a5 5 0 010-3v-2l1-4-1-2v1l-1-6a3 3 0 01-1-2l-1-6 2 3a3 3 0 011-1l-1-2v-4l-1-4v-5-1a4 4 0 01-1-2v-1-3h1a7 7 0 000-3l2-1h-2a1 1 0 000 1 14 14 0 000-2v-1a2 2 0 010-1v-2l-1-1a1 1 0 011-1v-1-3a2 2 0 010-2h1a3 3 0 010-1v-1a26 26 0 00-1-6 20 20 0 01-1-2 2 2 0 011-2 7 7 0 010-1 4 4 0 000-3v-2a2 2 0 010-1 16 16 0 01-1-4v-2a3 3 0 010-1 16 16 0 01-1-2l-1-4 4 3a3 3 0 011 1l1-1a9 9 0 010 2 4 4 0 010 1v2l1 5h1v1a2 2 0 01-1 1 6 6 0 010 4 3 3 0 001 3h-1v1a27 27 0 010 7v1a4 4 0 010 1v2a2 2 0 01-1 0l1 3a30 30 0 010 3v5l-1 1v5a46 46 0 010 2l1 2v6a23 23 0 011 5v1a33 33 0 001 5l2 2h-4v1a4 4 0 010 1 40 40 0 012 9h1v5l-1-1a12 12 0 010 2 6 6 0 000 3v1h-1a2 2 0 010 1l1 1a37 37 0 001 5l2 8-3-4v1l-1 4a13 13 0 002 4h-1v3a17 17 0 010 4v1a11 11 0 001 6v1h-1v1a2 2 0 01-1 1 20 20 0 002 6 3 3 0 010 1 37 37 0 001 5l-2 1a2 2 0 01-2 1zm1-6a2 2 0 001-1zm-2-49a2 2 0 001 0 3 3 0 001 0zm0-59a2 2 0 001 0zM1006 344l-2 1a3 3 0 011-3 16 16 0 010-2 6 6 0 000-4l3-1a2 2 0 00-2 0 2 2 0 00-1 1 4 4 0 000-2l-1 1v-2-1l1-6a15 15 0 010-2v-1l-1-3a34 34 0 010-6 6 6 0 000-1 2 2 0 002 1 2 2 0 002-1h-4a11 11 0 000-3l1-2a16 16 0 00-2-5 2 2 0 011-2v-1a12 12 0 01-2-2l3-1a23 23 0 00-1-5 2 2 0 01-1-1v-1a44 44 0 010-3 1 1 0 010-1v-4 1a6 6 0 011-2 2 2 0 000-1 1 1 0 01-1-1v-1l1-5v-1a4 4 0 010-3 16 16 0 00-1-6 24 24 0 01-1-2l2-1a10 10 0 010-2 21 21 0 00-1-5h-1v-2-2a5 5 0 011-2 15 15 0 010-2 13 13 0 010-4 3 3 0 011-3 20 20 0 00-1-5l-2-5 2 1a10 10 0 010-3v-2-2a7 7 0 010-3 4 4 0 010-1 33 33 0 010-6v-1l-1-3a47 47 0 010-5v-1h1a7 7 0 00-1-1h4c1 2 0 3-1 3l1 4v8a4 4 0 000 1v3l1 2 1 5h-2l1 4v1a11 11 0 010 4v5a2 2 0 01-1 2 16 16 0 001 3l1 1a2 2 0 01-2 2v1a3 3 0 010 2 23 23 0 011 6 5 5 0 000 1l1 1s1 3-1 5a33 33 0 010 7l1 1h-1v5a4 4 0 010 3 5 5 0 000 3 4 4 0 010 5v1a20 20 0 012 5l-1 4a19 19 0 00-1 3 16 16 0 011 4v5a11 11 0 010 1 4 4 0 010 2 13 13 0 010 2 2 2 0 010 1v4a1 1 0 011 1v2a10 10 0 000 3l3 5-4-3v3a2 2 0 010 1v3a8 8 0 011 3 12 12 0 000 4l2 7zm-1-66a3 3 0 00-1 0h2a3 3 0 00-1 0zm-1-76zM998 336a2 2 0 01-1 1c1 2 2 4 0 5a3 3 0 01-2 1 2 2 0 01-2-2h1a8 8 0 00-1-4l-5-12 6 7a2 2 0 011-2l-1-3a14 14 0 00-1-4 1 1 0 01-1-1h2v-1a2 2 0 00-2 1v-1l1-2-6 2 7-5v-1a10 10 0 001-2v-1a37 37 0 00-1-4 3 3 0 010-1 13 13 0 01-1-2h1a8 8 0 000-1 3 3 0 010-1 11 11 0 000-3l-1-2v-3c-1-3 0-4 1-6v-2l-1-3a6 6 0 010-2v-2-2a1 1 0 01-1-1 4 4 0 011-3 2 2 0 010-2 2 2 0 010-1v-5l-1-3v-1-1-3a3 3 0 010-2 2 2 0 011-2v-2-5-4a1 1 0 01-1-1v-1l-1-4h2a3 3 0 010-1 2 2 0 00-1 1 3 3 0 011-2 6 6 0 010-3 14 14 0 00-1-3l-3-3h3a37 37 0 00-1-6 1 1 0 010-1v-1l1-1-1-6a1 1 0 011-2 5 5 0 010-3 2 2 0 000-1 4 4 0 010-2l-1-3v-2a2 2 0 001 1 2 2 0 002-2h-4a2 2 0 012-1 2 2 0 012 2l1 1v2l1 2a4 4 0 010 4v4h-1a1 1 0 010 1l1 4c0 4 1 5-1 5v7a16 16 0 011 2v4a4 4 0 000 2l-1 1h-1 1a2 2 0 010 1v2h1a33 33 0 010 5v5h1v5a2 2 0 01-1 1v1l3 9-3-3v6a52 52 0 002 5l-3 1h1v5l1 3v6a1 1 0 010 1c1 1 0 2-1 2a6 6 0 000 2 24 24 0 011 3v2a13 13 0 010 4 2 2 0 010 1 16 16 0 010 2 4 4 0 010 1l1 4v3a8 8 0 01-1 2 11 11 0 010 4l-1 2a15 15 0 011 5 23 23 0 002 4l4 11zm-2 4a2 2 0 00-1 1l1-1zm-2-36a2 2 0 002 1 2 2 0 001-1z"/><path class="d" d="M987 343a2 2 0 01-2-2l-1-2h1l-1-5v-2a4 4 0 01-1-1h1v-1a3 3 0 01-1 0v-2a3 3 0 011-1 13 13 0 00-2-5l3-2a2 2 0 00-2 1 6 6 0 001-1v-4a10 10 0 000-3 14 14 0 010-3l1-2a3 3 0 01-1-1l-1-2-1-6 1-1-1-3v-4l-1-1-2-6 4 3-1-6v-4l-3-2h4a2 2 0 010-2 4 4 0 010-1l1-4a73 73 0 01-2-6 2 2 0 010-1l1-4a13 13 0 01-1-3 17 17 0 00-1-5l-3-9 4 5a5 5 0 010-2 1 1 0 011 0 23 23 0 00-1-4 3 3 0 01-1-1l-1-4 3 2a14 14 0 01-1-2 20 20 0 00-1-8h1v-2a31 31 0 01-1-4l1-4-1-2 1-3a8 8 0 01-1-4 5 5 0 000-2c0-3-1-5 1-5a2 2 0 013 1h1v1l-1 1a1 1 0 010 1 1 1 0 000 1 8 8 0 010 2 6 6 0 001 4l4 7-5-3a13 13 0 010 2v5l1 1v5a2 2 0 010 2 20 20 0 010 3 8 8 0 001 3l-1 1v1a7 7 0 01-1 0 17 17 0 011 3v4a2 2 0 010 1 5 5 0 000 2 3 3 0 01-1 2 19 19 0 011 4 9 9 0 001 4l-1 1a17 17 0 001 3h-1a65 65 0 002 7l3 6-3-3v1h-1a5 5 0 010 1l-1 4a9 9 0 010 3 2 2 0 010 1l1 6 1 1a1 1 0 01-1 2 3 3 0 01-1 2v2l1 2v3h-1l1 6h1v3l-1 3a12 12 0 010 5 10 10 0 001 1l1 1-1 1h-1a6 6 0 01-1 2 15 15 0 012 4v4a7 7 0 01-1 1 3 3 0 010 1l1 1 1 5v3a2 2 0 01-2 2zm-2-13l-1 1 1-1zm1-13a2 2 0 001 0zm-3 0a1 1 0 001 0h1zm3-7zm0-4h1a2 2 0 00-1 0zm-2-43a2 2 0 001 0 3 3 0 000-1zm1-19a2 2 0 00-2 1 3 3 0 001 0 3 3 0 001-1zm-3-40a2 2 0 00-1 1l2-1zm3-2v1-1z"/><path class="f" d="M374 584c1-6 4-12 10-15s13-2 18 2c3-5 9-9 16-10s13 2 16 8c9 2 16 13 12 22a35 35 0 00-1 5l-1 4-5 10c-6 7-14 11-23 14-9 4-19 5-27 1-8-3-14-10-14-18l1-9c-1-4-3-9-2-14z"/><path class="g" d="M382 614l-2-15c1-6 5-12 10-15s14-2 18 2c4-5 10-9 16-10s14 2 16 8a15 15 0 017 3c1-8-5-17-13-19-3-6-10-9-17-8s-12 5-16 10c-4-4-12-5-17-2s-9 9-10 15c-1 5 1 10 1 15v8a21 21 0 007 14 34 34 0 000-6z"/><path class="f" d="M471 712c8 0 15-8 14-16a14 14 0 007-25c4-3 5-8 3-12s-6-7-10-9a37 37 0 00-37 3 17 17 0 01-4 2 38 38 0 01-4 2c-6 1-10 8-10 15s3 12 5 18c4 8 10 7 16 12 7 5 11 11 20 10z"/><path class="h" d="M492 671c4-3 5-8 3-12s-6-7-10-9a36 36 0 00-12-4 17 17 0 018 8c2 4 1 10-3 12a14 14 0 01-7 25c1 8-5 15-13 17 4 3 7 5 13 4 8 0 15-8 14-17a14 14 0 007-24z"/><path class="f" d="M319 665a16 16 0 002 18 27 27 0 00-9 19c0 6 2 12 7 15s11 1 17-1c-2 4-1 8 1 11a18 18 0 0010 6 23 23 0 0016-1c5-2 9-7 9-12 5 2 11 1 15-3s7-8 9-13c2-6 2-13 0-19s-7-12-13-13c1-4 2-8 0-11-1-4-5-5-8-7-7-2-14-5-22-5s-12 4-18 8c-6 3-12 1-16 8z"/><path class="h" d="M383 663h1a9 9 0 000-2l-1 2zM396 696c-2 5-5 10-9 13s-10 4-15 2c0 6-4 10-9 13a23 23 0 01-16 1 18 18 0 01-10-6c-2-3-3-8-1-11-6 1-12 3-17 0-4-2-6-6-7-10a27 27 0 000 4c0 6 2 12 7 15s11 1 17-1c-2 4-1 8 1 11a18 18 0 0010 6 23 23 0 0016-1c5-2 9-7 9-12 5 2 11 1 15-2s7-9 9-14a34 34 0 001-15 37 37 0 01-1 7zM321 674a15 15 0 01-3-6 16 16 0 000 9 26 26 0 013-3z"/><path class="f" d="M326 593c-2 1-4 3-4 5s1 5 3 5a25 25 0 00-15 19 37 37 0 001 13c1 4 3 9 8 9a10 10 0 013 0c2 1 2 3 3 5a18 18 0 0031 7 5 5 0 012-2l4 2a23 23 0 0033-7 24 24 0 002-6 23 23 0 00-4-40c3-3 4-8 2-12s-5-6-8-8a25 25 0 00-14-2 19 19 0 01-5 0 20 20 0 01-4-1 24 24 0 00-20 4l-8 4c-4 1-7 2-10 5z"/><path class="h" d="M407 622a24 24 0 00-8-16 22 22 0 011 5 24 24 0 01-10 21 23 23 0 01-35 13c-2-1-3-2-5-1a5 5 0 00-2 2 18 18 0 01-18 6 17 17 0 01-5-3 18 18 0 0031 7 5 5 0 012-2l4 2a23 23 0 0035-13 24 24 0 0010-21z"/><path class="g" d="M331 613c-6 0-10 6-9 12s7 10 13 10a7 7 0 005-3 8 8 0 001-4 37 37 0 000-8 9 9 0 009-6c1-3 1-7 4-8l5 1 5-5c1-2 2-4 1-6-1-3-5-3-8-3h-14c-7 0-7 3-9 8-2 4-6 7-3 12z"/><path class="f" d="M406 657c-2 0-4 0-6 2s-2 4 0 6a25 25 0 00-24 5 36 36 0 00-7 10c-2 4-4 10 0 12a10 10 0 012 2c1 2 0 4-1 6a18 18 0 0019 25 5 5 0 013 0c2 0 2 2 3 4a23 23 0 0035 12 23 23 0 0023-34c4 0 7-3 8-7s1-8-1-12a25 25 0 00-9-10 12 12 0 01-7-7 24 24 0 00-18-10l-8-1c-4-2-7-4-12-3z"/><path class="h" d="M451 731a24 24 0 004-18 22 22 0 01-3 5 24 24 0 01-21 10 23 23 0 01-35-13c-1-1-1-3-3-3a5 5 0 00-3 0 18 18 0 01-17-7 17 17 0 01-3-5 18 18 0 0019 25 5 5 0 013 0c2 0 2 2 3 4a23 23 0 0035 12 24 24 0 0021-10z"/><path class="g" d="M400 683c-5-4-12-2-15 4s-1 12 4 15l6 2a8 8 0 003-3 37 37 0 005-6 9 9 0 0011 1c2-2 5-5 8-4l3 4h7c2-1 4-2 5-5s-2-5-4-7l-11-9c-6-5-7-2-12 0-4 2-9 2-10 8z"/><path class="f" d="M434 587c-3 0-5 0-7 2s-2 4 0 5a25 25 0 00-23 6 37 37 0 00-8 10c-2 4-4 9 0 12a10 10 0 012 2c1 2 0 4-1 6a18 18 0 0019 25 5 5 0 013 0c2 0 2 2 3 4a23 23 0 0035 12 23 23 0 0023-34c4 0 7-3 8-7s1-8-1-12a25 25 0 00-9-10 12 12 0 01-7-7 24 24 0 00-18-10l-8-1c-4-2-7-4-11-3z"/><path class="h" d="M479 661a24 24 0 003-18 22 22 0 01-3 5 24 24 0 01-21 10 23 23 0 01-35-13c-1-1-1-3-3-3a5 5 0 00-2 0 18 18 0 01-18-7 17 17 0 01-3-5 18 18 0 0020 25 5 5 0 012 0c2 0 2 2 3 4a23 23 0 0035 12 24 24 0 0022-10z"/><path class="g" d="M425 606c-5-4-12-2-15 3s-1 13 4 16l6 2a8 8 0 003-3 37 37 0 005-6 9 9 0 0011 1c3-2 5-5 8-4l4 4h6c2 0 5-3 5-5 1-3-2-5-4-7l-11-9c-6-5-7-3-12 0-4 2-9 2-10 8z"/><path class="f" d="M352 640a19 19 0 00-6 6c-3 5-2 12 0 17-7 3-9 13-4 19s13 8 20 5a24 24 0 0035 0 24 24 0 003-3c0-1 1-3 3-3a9 9 0 013 0 13 13 0 0011-6 22 22 0 004-11 26 26 0 010-6l2-4a17 17 0 00-2-17 21 21 0 00-15-8 19 19 0 00-16-10c-9 0-13 5-18 11-5 5-14 6-20 10z"/><path class="g" d="M357 673c-2-6-4-12-1-18a19 19 0 017-5c6-4 15-5 19-10 6-6 9-12 19-11a19 19 0 0116 10 22 22 0 017 2 18 18 0 00-3-6 21 21 0 00-15-8 19 19 0 00-16-10c-9-1-13 5-18 11-5 5-14 6-20 10a19 19 0 00-6 6c-3 5-2 12 0 17-7 3-9 13-4 19a15 15 0 008 6c-1-5 2-11 7-13z"/><path class="h" d="M421 637a19 19 0 00-2-2 15 15 0 01-2 7l-1 4a26 26 0 00-1 6 22 22 0 01-4 12 13 13 0 01-10 5 9 9 0 00-4 0l-3 3a24 24 0 01-34 7 25 25 0 01-3-3c-6 2-13 1-18-2a13 13 0 003 8c4 6 13 8 20 5a24 24 0 0035 0 25 25 0 003-3c0-1 1-3 3-3a9 9 0 013 0 13 13 0 0011-6 22 22 0 003-11 25 25 0 011-6l2-4a17 17 0 00-2-17z"/><path class="f" d="M399 631c-5 2-10 6-12 12s-1 12 5 15c-1 4-1 8 1 11 3 3 6 3 9 4 6 0 12-1 14-6a15 15 0 0021-1 15 15 0 003-5 33 33 0 012-5l2-3a10 10 0 00-9-15 12 12 0 00-6-10c-4-2-8 0-12 0l-18 3z"/><path class="h" d="M444 643a10 10 0 00-5-4 10 10 0 01-1 2l-2 3a32 32 0 00-1 5 15 15 0 01-25 7c-2 5-8 6-13 5a19 19 0 01-6-1c0 3 0 7 2 9s6 3 10 4c5 0 11-1 13-6a15 15 0 0024-6 35 35 0 012-5l2-3a10 10 0 000-10z"/><path class="i" d="M159 632a58 58 0 00-6-3c-8-2-23-11-31-11-3 0-10 2-15 14-3 7-3 15-2 22 1 14 13 61 15 67 3 8 6 17 12 22h7l-1-2c-5-12-13-50 5-54a53 53 0 018-4c7-2 13-4 19-8l1-1h2c-1-5-3-10-6-14-5-7-13-5-20-6-5 0-10 1-12 4s-2-1-1-2c1-3 3-3 5-5s2-5 5-7l9-2c6-2 15 6 20 9a34 34 0 014 2 118 118 0 00-18-21z"/><path class="j" d="M173 674h-1zM171 674l-1 1z"/><path d="M92 613c-9 5-18 13-26 19-9 6-18 12-25 20l-2 1c13-6 20-6 34-11l15-9c-6 19-2 52 5 68 1-5 3-11 1-25-2-9-4-24-2-29 2-10 10-20 17-28 8-10 16-4 19-2a148 148 0 0022 8l-5-4c-16-11-35-17-53-8z" fill="#bab2a8"/><path class="l" d="M128 617c-3-2-11-8-19 2-6 8-15 18-17 28-2 5 0 20 2 29 2 14 0 20-1 25-7-16-11-49-5-68l-15 9c-14 5-21 5-34 11-6 7-7 16-7 25 0 14-2 42 4 49a20 20 0 002 2c-1-4 1-9 4-15 6-12 12-22 23-30l7-12v-1 1c-1 10-8 21-13 29l-9 15c-3 7-4 12-3 19a61 61 0 006 2c0-7 5-13 11-16 4-3 9-4 13-6l10-3c10 1 12 6 18 12 2 3 6-1 8-5l5-5c-4-15-12-48-13-60-1-7-1-15 2-22 5-12 12-14 15-14 8 0 23 9 31 11a58 58 0 016 3l-9-7a149 149 0 01-22-8z"/><path class="j" d="M74 653c-5 2-11 2-15 6-3 2-3 5-5 8-1 4-5 7-8 11-5 7-6 17-7 26-1 5-4 15 3 18a1 1 0 001-1c3-11 10-20 17-29 4-5 11-13 12-20 0-2 2-12 6-19 2-2-2-1-4 0z"/><path class="i" d="M71 672l-6 12c-11 8-17 18-23 30-3 6-5 11-4 15a30 30 0 009 6c-1-7 0-12 3-19l9-15c4-8 12-19 13-29v-1l-1 1z"/><path class="j" d="M118 714l-5 5c-2 4-6 8-8 5-6-6-8-11-18-12l-10 3c-4 2-9 3-13 6-6 3-11 9-11 16h1c7-10 19-9 29-9 6 1 10 2 14 5 4 4 10 6 13 4 4-2 7 3 11 7l11-1c-6-5-9-14-12-22l-2-7zM177 653a36 36 0 00-4-2c-5-3-14-12-20-9l-9 2-5 7c-2 2-4 2-5 5-1 1-1 4 2 2s6-4 11-4c7 1 15-1 20 6 3 4 5 9 6 13l-1 1h-1l-1 1c-6 4-12 6-19 8a52 52 0 00-8 4c-18 4-10 42-5 54l1 2 9-2a72 72 0 0014-4c12-19 13-62 13-62 1-2 5-4 7-5l1 1 1 2c4 11 9 33 8 47a20 20 0 005-4s1-10-2-23c-3-15-15-34-18-40z"/><path d="M184 673l-1-2-1-1c-2 1-6 3-7 5 0 0-1 43-13 62 9-3 19-1 24-4 6-3 9-7 9-9 0-15-7-40-11-51z" fill="#4f463f"/><path class="i" d="M110 737c-3 2-9 0-13-4-4-3-8-4-14-5-10-1-22-1-29 9a427 427 0 0067 6c-3-3-7-8-11-6z"/><path class="l" d="M176 669c-2 0-5-2-6-1-4 1-8 4-19 5-6 1-13 0-19 4l-4 6c-2 6-6 5-6 8-2 4 2 9 1 12l1 1c4-6 7-13 13-17 4-3 7-5 17-6 8 0 12-3 18-4 8-2 6-6 11-7-2-1-3-2-7-1z"/><path d="M974 674c8-5 19-25 60-2 24 14 10 53 30 48 27-7 47 24 21 50s-38 20-66 6c-10-5-16-8-31-6s-20 23-49 26-74-30-52-48 25-28 19-46 28-42 43-27 18 3 25-1z" fill="#45dbe2"/><path d="M1034 765c-12 0-42-7-50-6s-31 8-38 20-54 6-56-11 5 2 18-20c11-20 12-28 11-33a6 6 0 01-3-4c-1-4 4-10 12-12s16-2 17 3a6 6 0 01-1 5h1c11 0 39-20 46-16s-19 11-10 18 31-7 38 1-19 7-13 13 23 1 26 6-6 5-2 8 9-2 14 2-23 5-18 11 20 15 8 15zm44-15c-1-5-10-6-20-3s-15 9-14 14 11 7 20 4 16-10 14-15z" transform="translate(1 1)" fill="url(#a)"/><path class="p" d="M1015 740c2-6 0-13-6-16s-14 1-15 4l8 5-9-3c-1 0-2 9 6 14a11 11 0 0016-4z"/><path class="q" d="M993 731a32 32 0 014 1c4 2 5 2 5 1l-4-3a24 24 0 01-4-2c2-3 10-6 15-3 5 2 8 9 5 14a11 11 0 01-6 6 10 10 0 01-9-1c-7-5-7-12-6-14z"/><path class="r" d="M993 731l3 1 6 2h1c0-2-1-3-4-4a37 37 0 01-4-2c2-3 9-5 13-3 6 3 8 9 6 14a10 10 0 01-6 5 10 10 0 01-8-1c-7-3-7-10-7-12z"/><path class="s" d="M997 728c3-2 8-3 11-2 5 3 7 8 5 12a9 9 0 01-6 5 8 8 0 01-7-1 11 11 0 01-5-9l1 1c4 2 6 2 7 1l1-1c1-2-1-4-5-6h-2z"/><path class="p" d="M1020 705a8 8 0 00-1-11c-4-3-10-2-11 0 0 1 5 4 4 5s-5-4-5-4c-1 0-3 6 2 11a8 8 0 0011 0z"/><path class="q" d="M1007 696l2 1 3 2-2-3a17 17 0 01-2-2c2-2 7-2 10 0a8 8 0 012 11 8 8 0 01-6 3 7 7 0 01-5-2c-4-4-3-9-2-10z"/><path class="r" d="M1007 696l2 2c2 1 3 2 4 1l-2-3-2-2c1-1 6-2 9 1a7 7 0 011 10 7 7 0 01-5 2 7 7 0 01-5-2c-3-3-3-7-2-9z"/><path class="s" d="M1010 694l8 1a6 6 0 011 9 6 6 0 01-5 2 6 6 0 01-4-1 8 8 0 01-3-7h1c3 2 4 3 5 2h1c1-2-1-3-3-5a13 13 0 01-1-1z"/><path class="p" d="M940 749a12 12 0 0016 1c5-4 4-14 1-16l-7 6 5-7c0-2-8-6-15 0-5 4-4 12 0 16z"/><path class="q" d="M955 733a31 31 0 01-3 2l-3 5h1l4-2a24 24 0 013-3c2 2 3 11-1 14a11 11 0 01-16 0 12 12 0 01-3-8 9 9 0 013-7c6-6 13-3 15-1z"/><path class="r" d="M954 733l-2 2c-3 3-4 4-3 5s2 0 5-2a36 36 0 013-2c2 2 2 9-2 13a10 10 0 01-14 0 11 11 0 01-3-8 9 9 0 013-7 11 11 0 0113-1z"/><path class="s" d="M957 738c0 2 0 7-2 10a9 9 0 01-13 0 10 10 0 01-3-7 8 8 0 013-6 10 10 0 0110-2l-1 1c-3 4-4 5-3 7 2 2 4 1 7-2l2-1z"/><path class="p" d="M954 714a8 8 0 00-6 10c1 4 7 6 9 5l-1-6 3 6s6-3 5-10c-1-4-6-6-10-5z"/><path class="q" d="M959 729a22 22 0 01-1-3l-2-3v3a16 16 0 011 3c-3 1-8-2-9-5a8 8 0 016-10 8 8 0 016 1 7 7 0 013 4c1 6-3 9-4 9z"/><path class="r" d="M959 728l-1-2-2-4v4a22 22 0 010 3c-2 0-6-2-7-6a7 7 0 015-9 8 8 0 016 1 6 6 0 013 4 8 8 0 01-4 9z"/><path class="s" d="M955 728c-2-1-5-2-5-5a6 6 0 014-8 7 7 0 015 1 5 5 0 013 4 7 7 0 01-2 7l-1-1c-1-3-1-4-3-4s-2 2-1 5v1z"/><path class="t" d="M958 737a8 8 0 01-5-3 7 7 0 0110 1 8 8 0 01-5 2zM948 736a8 8 0 01-5-2 7 7 0 0110 0 8 8 0 01-5 2z"/><path class="t" d="M951 739a8 8 0 012-5 7 7 0 01-1 10 8 8 0 01-1-5zM951 729a8 8 0 013-5 7 7 0 01-1 10 8 8 0 01-2-5z"/><path class="t" d="M959 733a8 8 0 01-6 1 8 8 0 012-5c3-2 6-1 6-1a8 8 0 01-2 5zM951 739a8 8 0 01-5 2 7 7 0 017-7 8 8 0 01-2 5z"/><path class="t" d="M955 740a8 8 0 01-2-6 7 7 0 017 8 8 8 0 01-5-2zM948 732a8 8 0 01-1-5 7 7 0 016 7 8 8 0 01-5-2z"/><path class="u" d="M958 735a7 7 0 01-5-1 6 6 0 019-2 8 8 0 01-4 3zM949 738a7 7 0 01-5-1 6 6 0 019-3 7 7 0 01-4 4z"/><path class="u" d="M952 739a7 7 0 011-5 6 6 0 013 9 7 7 0 01-4-4zM950 731a8 8 0 011-6 6 6 0 012 9 7 7 0 01-3-3z"/><path class="v" d="M957 731a3 3 0 111-5 7 7 0 01-1 5zM953 739a3 3 0 110-5 7 7 0 010 5z"/><path class="v" d="M956 739a7 7 0 01-3-5 6 6 0 018 5 7 7 0 01-5 0zM948 734a7 7 0 01-3-4 6 6 0 018 4 7 7 0 01-5 0z"/><path class="w" d="M954 734a2 2 0 01-1 0 2 2 0 010-1 2 2 0 011 0 2 2 0 010 1zM953 735a2 2 0 01-1 1 2 2 0 010-1 2 2 0 011-1 2 2 0 010 1z"/><path class="w" d="M954 735a2 2 0 01-1-1 1 1 0 012 1 2 2 0 01-1 0zM952 734a2 2 0 01-1-1 1 1 0 012 1 2 2 0 01-1 0z"/><path class="w" d="M954 735a2 2 0 01-1-1 1 1 0 012 0 2 2 0 01-1 1zM952 735a2 2 0 01-1 0 1 1 0 012-1 2 2 0 01-1 1z"/><path class="w" d="M953 735a2 2 0 010-1 1 1 0 011 2 2 2 0 01-1-1z"/><path class="w" d="M953 734a2 2 0 010-2 1 1 0 010 2z"/><path class="x" d="M954 734a1 1 0 01-1 0 1 1 0 011-1 1 1 0 010 1zM953 735a1 1 0 010-1 1 1 0 010 1z"/><path class="x" d="M954 735a1 1 0 01-1-1 1 1 0 011 0 1 1 0 010 1zM953 734a1 1 0 01-1 0 1 1 0 011 0z"/><path class="x" d="M954 735a1 1 0 01-1-1 1 1 0 011 0 1 1 0 010 1z"/><path class="x" d="M953 735a1 1 0 01-1 0 1 1 0 011-1 1 1 0 010 1z"/><path class="x" d="M953 735a1 1 0 010-1 1 1 0 011 1v1a1 1 0 01-1-1zM953 734a1 1 0 010-1 1 1 0 010 1z"/><path class="p" d="M886 780l11-8s-3 8-7 12a21 21 0 01-9 5 21 21 0 015-9z"/><path class="q" d="M885 783c7-9 2 0 2 0s9-5 1 3a13 13 0 01-6 3 16 16 0 013-6z"/><path class="r" d="M885 783c6-8 1 2 1 2s9-6 1 1a11 11 0 01-5 2 14 14 0 013-5z"/><path class="q" d="M887 783l-1 1 2-1a68 68 0 00-6 5l5-5z"/><path class="p" d="M884 775l13-3s-6 6-11 7a21 21 0 01-10 2 21 21 0 018-6z"/><path class="q" d="M881 776c10-5 2 2 2 2s11-2 0 2a13 13 0 01-7 0 16 16 0 015-4z"/><path class="r" d="M881 776c9-4 0 2 0 2s11-1 1 2a11 11 0 01-5 0 14 14 0 014-4z"/><path class="q" d="M883 777l-1 1h2a72 72 0 00-8 2l7-3z"/><path class="p" d="M893 786c0-5 3-13 3-13v13a29 29 0 01-3 10 29 29 0 010-10z"/><path class="q" d="M893 789c0-11 1-1 1-1s3-11 1 1a17 17 0 01-2 6 22 22 0 010-6z"/><path class="r" d="M893 789c0-10 1 0 1 0s2-10 1 0a15 15 0 01-2 5 19 19 0 010-5z"/><path class="q" d="M894 787v0l-1 8a62 62 0 001-8z"/><path class="p" d="M887 769l7 4s-5 2-8 1l-5-3s3-3 6-2z"/><path class="q" d="M885 769c7 0 0 2 0 2s6 4-1 2a6 6 0 01-3-2 8 8 0 014-2z"/><path class="r" d="M885 769c6 0-1 2-1 2s6 4 0 2a5 5 0 01-2-2 7 7 0 013-2z"/><path class="q" d="M886 771h-1l1 1a25 25 0 00-5-1 14 14 0 005 0z"/><path class="p" d="M895 781l1-8s4 4 4 7l-1 6s-3-2-4-5z"/><path class="q" d="M896 783c-2-6 2-1 2-1s1-7 2 0a6 6 0 01-1 4 8 8 0 01-3-3z"/><path class="r" d="M897 783c-3-6 1-1 1-1s1-6 2 0a5 5 0 01-1 3 7 7 0 01-2-2z"/><path class="q" d="M897 781l1 1 1-1a25 25 0 000 4 14 14 0 00-2-4z"/><path class="p" d="M895 765v9l-4-8a11 11 0 011-6 11 11 0 013 5z"/><path class="q" d="M894 764c2 6-1 1-1 1s-1 6-2-1a7 7 0 011-3 9 9 0 012 3z"/><path class="r" d="M894 764c2 5-1 0-1 0s-1 6-2 0a6 6 0 011-3 8 8 0 012 3z"/><path class="q" d="M893 765v-1l-1 1a34 34 0 000-4 20 20 0 001 4z"/><path class="p" d="M888 765l7 9-9-6a20 20 0 01-5-6 20 20 0 017 3z"/><path class="q" d="M886 764c7 5 0 2 0 2s5 7-2 0a13 13 0 01-3-4 15 15 0 015 2z"/><path class="r" d="M886 764c6 5-1 1-1 1s5 7-1 1a11 11 0 01-3-4 13 13 0 015 2z"/><path class="q" d="M886 766l-1-1 1 1-5-4a41 41 0 005 4z"/><path class="y" d="M886 777a10 10 0 004-1 13 13 0 002-1 14 14 0 00-1 2 11 11 0 00-3 4 10 10 0 004-2 17 17 0 002-3 26 26 0 000 4 15 15 0 000 5 15 15 0 001-5v-2a5 5 0 002 2 5 5 0 001-4 9 9 0 00-2-3h-1a13 13 0 000-4 6 6 0 00-2-2 6 6 0 000 3 9 9 0 001 2 20 20 0 00-2-3 10 10 0 00-4-2 10 10 0 002 4h1a4 4 0 00-3 1 5 5 0 002 2h-1a10 10 0 00-3 3zm9-4zm0 0z"/><path class="x" d="M899 772c-2 2-4 2-5 1s-1-3 1-4 3-3 4-2 1 3 0 5z"/><path class="x" d="M898 772c-1 2-3 2-4 1s-1-2 1-4 3-2 4-1 0 2-1 4z"/><path class="x" d="M899 770a2 2 0 110-2 2 2 0 010 2z"/><path class="x" d="M898 769l3-4-3 3v1z"/><path class="p" d="M911 797l-12-11s3 9 7 14a24 24 0 008 8 24 24 0 00-3-11z"/><path class="q" d="M912 800c-6-11-3 1-3 1s-9-9-1 2a15 15 0 006 4 18 18 0 00-2-7z"/><path class="r" d="M912 800c-6-9-2 2-2 2s-9-9-2 1a13 13 0 005 4 16 16 0 00-1-7z"/><path class="q" d="M910 800v1l-2-1a79 79 0 016 7l-4-7z"/><path class="p" d="M915 791l-15-5s6 7 11 10a24 24 0 0012 4 24 24 0 00-8-9z"/><path class="q" d="M917 793c-10-7-2 2-2 2s-12-4 0 3a15 15 0 007 1 18 18 0 00-5-6z"/><path class="r" d="M917 794c-9-7-1 2-1 2s-12-4-1 1a13 13 0 006 2 16 16 0 00-4-5z"/><path class="q" d="M915 794l1 1h-2a77 77 0 017 4h1l-7-5z"/><path class="p" d="M902 802v-15l-4 15a33 33 0 001 11 33 33 0 003-11z"/><path class="q" d="M902 805c1-12-2-1-2-1s-1-12-2 1a20 20 0 001 7 25 25 0 003-7z"/><path class="r" d="M901 806c2-11-1 0-1 0s-1-12-1-1a17 17 0 000 7 22 22 0 002-6z"/><path class="q" d="M901 803l-1 2v-2l-1 9a71 71 0 012-9z"/><path class="p" d="M912 784c-4 0-9 3-9 3s5 3 9 3 7-3 7-3-3-3-7-3z"/><path class="q" d="M914 785c-8-1-1 2-1 2s-7 3 1 3a7 7 0 004-3 9 9 0 00-4-2z"/><path class="r" d="M914 785c-7-1 0 2 0 2s-7 3 0 2a6 6 0 004-2 8 8 0 00-4-2z"/><path class="q" d="M913 786l1 1-1 1a28 28 0 015-1l-5-1z"/><path class="p" d="M900 796l1-9s-5 3-7 7 0 7 0 7 4-2 6-5z"/><path class="q" d="M899 798c4-7-2-2-2-2s0-8-3 0a7 7 0 001 4 9 9 0 004-2z"/><path class="r" d="M898 798c4-6-2-1-2-1s1-8-2-1a6 6 0 001 4 8 8 0 003-2z"/><path class="q" d="M898 796h-1l-1-1a27 27 0 01-1 5l3-4z"/><path class="p" d="M904 779c-2 3-2 9-2 9l6-8a12 12 0 000-7 13 13 0 00-4 6z"/><path class="q" d="M905 777c-4 7 1 1 1 1s0 8 2 0a8 8 0 000-4 10 10 0 00-3 3z"/><path class="r" d="M905 777c-3 6 2 0 2 0s-1 8 1 1a7 7 0 000-4 9 9 0 00-3 3z"/><path class="q" d="M906 779v-1 1a40 40 0 012-5 23 23 0 01-2 5z"/><path class="p" d="M912 780c-5 2-11 8-11 8l12-5a23 23 0 007-6 23 23 0 00-8 3z"/><path class="q" d="M914 779c-9 4 0 2 0 2s-8 7 2 1a14 14 0 004-5 18 18 0 00-6 2z"/><path class="r" d="M914 779c-8 4 1 1 1 1s-8 6 1 1a12 12 0 003-3 15 15 0 00-5 1z"/><path class="q" d="M913 781l2-1-1 1 6-4a47 47 0 01-7 4z"/><path class="y" d="M908 789a10 10 0 00-1 0 5 5 0 003-2 5 5 0 00-3-1l1-1a12 12 0 003-3 11 11 0 00-4 2 22 22 0 00-3 2 10 10 0 001-2 7 7 0 000-4 6 6 0 00-2 3 15 15 0 00-1 4h-1a11 11 0 00-3 3 5 5 0 000 4 6 6 0 002-1v2a17 17 0 001 5 17 17 0 001-5 35 35 0 000-4 19 19 0 002 3 11 11 0 004 4 12 12 0 00-2-6 15 15 0 00-1-2 15 15 0 002 2 11 11 0 005 1 12 12 0 00-4-4zm-6-1zm0-1z"/><path class="x" d="M898 785c2 2 4 4 5 3s2-4 0-6-3-3-5-2-1 3 0 5z"/><path class="x" d="M899 785l4 3v-5l-4-3v5z"/><path class="x" d="M898 783a2 2 0 101-3 2 2 0 00-1 3z"/><path class="x" d="M899 782l-2-5 3 4-1 1zM898 791c2 1 4 0 4-1s-1-3-3-3-4 0-5 1 2 3 4 3z"/><path class="x" d="M898 791l4-1c0-1-1-3-3-3l-4 1c0 1 1 3 3 3z"/><path class="x" d="M896 790a1 1 0 10-1-2 2 2 0 001 2z"/><path class="x" d="M896 789l-4-2 4 1v1z"/><path class="f" d="M205 317c14-13 31-6 68 11s49 18 60 19 43 28 61 32l22 5 6 11s-6 11-47 14-62-4-93 15-58 19-94 12-52-9-60-12 15-14 50-11 46-4 41-8-14 3-38 0-64-17-64-17 74-58 88-71z"/><path d="M394 379c-18-4-51-31-61-32s-23-1-60-19l-20-9c2 1 34 19 43 26 10 8 11 17 28 21a43 43 0 0129 26c2 7-25 4-43 12s-33 23-49 30a108 108 0 0022-10c30-19 50-13 92-15s47-14 47-14l-6-11-22-5z" style="mix-blend-mode:multiply" fill="#7ebb15"/><path class="aa" d="M213 380c14-4-7-6-20-11s-17-11-1-11 15-6 11-10-10-14 3-15 10-12 10-16 4-6 5-7a24 24 0 00-16 7c-14 13-88 71-88 71s19-8 34-8 48 4 62 0zM236 414c1-12-15-12-27-9 5-1 8-1 10 1 5 3-6 10-41 7-20-2-36 1-45 4a242 242 0 0150 3c27 5 51 6 53-6z"/><path class="ab" d="M607 532l49-4 30 12h12l80 30 57-11 22-13 16-8v-6l-42-33-50-19-39-18-21-3-35 17-33 24-33 10-13 14v8z"/><path class="ac" d="M607 526l49-4 30 12h12l80 30 57-11 22-13 16-8-2-8-40-31-50-19-39-18-21-4-35 18-33 24-33 10-13 14v8z"/><path class="ab" d="M653 494l11 11 32 3 40 12 23 12 39-3 29-16 22-6 1-14-11-9-62-20-28-12-30-3-36 14-16 13-14 7v11z"/><path class="ac" d="M653 488l11 11 32 3 40 12 23 12 39-3 29-16 22-6 1-8-11-15-62-21-28-11-30-3-36 14-16 13-14 7v11z"/><path class="ad" d="M762 499l-21-7-14 4v2l11 6 19 3 8 5h7l9-3 1-5-13-4-7-1zM710 462l-15 3-5 4 2 5 7 1 3-4 7-2 4-4-3-3z"/><path class="ab" d="M721 475l4-19 13-14 2-8 29-3 34 5 27 1 7 7 2 6 7 37-7 4-13 2-28-4-34 4-22-10-17-3-4-5z"/><path class="ae" d="M740 434l1 10 30 15 30-10 8 3 11-3 4-3h4l9-2-7-7-27-1-34-5-29 3z"/><path fill="#898989" d="M801 449l-30 10 2 12-2 6v7l-3 7-4 2 34-4-2-18 2-7-3-2 3 1 3-10v-4z"/><path class="ae" d="M826 489l-2-5-9-3-4-6-2-7 6-9-8 8-1 15-8 7 28 4 13-2-13-2z"/><path class="ag" d="M742 483l4-10v-8l3-3 1-5 1 1 2 8-1 7 1 4-1 4 1 7-11-5z"/><path class="ae" d="M734 452l1-4 6-4-1-10-2 8-13 14-4 19 5-18 8-5z"/><path class="ah" d="M757 445l14 7 11-2 8-1 1-3-8-6-9 2-7-5-9 3-1 5z"/><path class="ad" d="M781 440l-7 2-7-5-9 3-1 5 2 1 1-3 8-2 4 1 9-2z"/><path class="ab" d="M755 499l-21-7-14 4v2l11 6 19 3 15 5 9-3 1-5v-2l-13-2-7-1z"/><path class="ah" d="M755 497l-21-7-14 4v2l11 6 19 3 15 5 9-3 1-5-13-4-7-1z"/><path class="ab" d="M709 463l-17 1-5 3v2l1 4 8 1 3-3 7-2 3-4v-2z"/><path class="ah" d="M707 460l-15 2-5 5 1 5 8 1 3-4 7-2 3-4-2-3z"/><path class="ab" d="M824 523l-20 12-9 3v3l10 5 22 2 12-10 9-3 3-10v-3l-11 1-8 4-7-1-1-3z"/><path class="ah" d="M823 521l-19 11-9 2v4l10 5 22 2 12-11 9-2 3-10-11-3-8 5-7-2-2-1z"/><path class="ad" d="M696 502v6l29 9-29-8-32-4v-6zM759 526v6l34 1 11-1 11-6 10 1 7-3 8-5 9-7h6l-6-5 1-14-1 8-22 6-29 16-39 3zM861 524l-10-1v-1l-3 10-9 2-12 11v3l9-4 7-2 8-4 7-9 4-3-1-2zM764 493l29-2 17 2h16l-28-4-2-18 2-7-3-2 3 1 3-10v-4l-30 10 2 12-2 6v7l-3 7-4 2z"/><path style="mix-blend-mode:multiply" fill="#c6c6c6" d="M809 452l8 1-2 6-6 9 2 7 4 6 9 3 2 5 13 2h10l-3-4-7-37-2-6-9 2h-4l-4 3-11 3z"/><path class="ad" d="M767 437l-4 5v4l4 4-10-5 1-5 9-3z"/><path class="ag" d="M734 452l1 9 2 5v16h1l2-12v-9l3-5 2-4 3-4 4 1-11-5-6 4-1 4z"/><path class="ad" d="M686 534v6l17 1 2-5-7-2h-12z"/><path class="aj" d="M552 287l1-2 2 1 3 1 1 1v2l-7-3z"/><path class="ak" d="M574 297l2-2h1l3 2 2 1-1 2-7-3zM600 309l1-2h2l3 2 2 1-1 2-7-3z"/><path class="aj" d="M615 342l2 1-1 1-1 3-1 2-2-1 3-6z"/><path stroke-width="1.3" fill="#3f2b0f" stroke="#1d150c" stroke-miterlimit="10" d="M603 366l3 2-1 1-1 4-1 2-3-2 3-7z"/><path class="ak" d="M592 391l2 2v1l-2 3-1 2-2-1 3-7z"/><path class="aj" d="M496 352l-2-1v-1l2-3 1-2 2 1-3 6z"/><path class="ak" d="M506 330l-3-2 1-1 1-3 1-2 3 1-3 7zM518 304l-3-1 1-2 2-3v-1l3 1-3 6z"/><path stroke-width="1.4" fill="#3f2b0f" stroke="#1d150c" stroke-miterlimit="10" d="M561 406l-2 3-2-1-3-1-2-1 1-4 8 4z"/><path class="ak" d="M537 395l-2 2h-1l-3-2-2-1 1-2 7 3zM513 383l-2 3-1-1-3-1-2-1 1-3 7 3z"/><path class="an" d="M489 370l-1 2v1l3 1 1 1 2 1h1l2-1 2-4-5-3-5 2z"/><path class="an" d="M498 372l-1 1v1l-1 1v1l4 2 3 2h1l2-1 1-3a15 15 0 00-1-2l-7-3zM515 379l-1 2v1l-1 1 1 1 2 2 1 1 3 1h1l2-1 2-4-9-4h-1z"/><path class="an" d="M506 375l-1 3v3l3 1 1 1h4l2-4-6-4h-3zM540 391l-1 2v2l-1 1 2 1 5 2h1l1-3 1-1-5-5-3 1z"/><path class="an" d="M530 387l-1 4v1l2 1 1 1 3 1h4v-2l2-2-7-4h-4zM524 384l-1 1-1 2v1l1 1 1 1 2 1 2 1a11 11 0 001-2l1-3-2-2zM554 397l-2 4 1 1v1h1l2 1 3 2h2l1-1 1-1 1-3-6-4h-4z"/><path class="an" d="M563 402l-1 3v2h1l2 1 2 1 4 2h1l2 1 1-1 1-1 1-3-9-5h-5zM547 394a17 17 0 01-1 2l-1 2v1l2 1h1l2 2h2a11 11 0 000-1l2-4-3-2z"/><path class="ao" d="M580 414h-2l-2-1h-1v-1l1-2v-3h2z"/><path class="an" d="M501 367l-1 3-1 2v1l3 1h1l2 1h3l2-5-7-3h-2z"/><path class="an" d="M509 371l-1 1v2l-1 1v1l4 2 3 1h3l1-4a15 15 0 00-1-1l-7-4zM538 384l-2 2v2l-1 1 2 1 7 3h3v-3l1-1-7-5h-3z"/><path class="an" d="M526 378l-2 5v1l1 1h1l2 1 3 2h5v-2l2-2-8-5-4-1z"/><path class="an" d="M518 374l-2 2-1 2 1 1 2 2h1l2 1 2 1h1a8 8 0 000-1l2-4-4-2zM495 369v1l1 1h2l1 1 1-1 2-4h-1l-6 2zM555 392l-1 1v2l-1 1 1 1 3 2 1 1 2 1 2-1h1l2-4-8-4h-2z"/><path class="an" d="M564 396l-1 2-1 2v1l2 1 2 1h1l2 1 2 1h2l2-5-7-4h-4zM547 388l-1 3-1 2v1l3 1h1l2 1h3l2-5-7-4-2 1z"/><path class="an" d="M577 407h-2l-2-1h-1v-1l1-2v-2l1-1h1zM508 364l-2 3v3l3 1h1l2 1h2l2-5-6-4-2 1z"/><path class="an" d="M516 368l-1 1-1 2v2l3 2 4 1h2l1-4a15 15 0 000-2l-8-3zM544 381l-1 2-1 2v1l2 1 6 3v-1l1 1h1v-3l1-2-6-4h-3z"/><path class="an" d="M532 376l-2 4 1 1v1h2l2 1 3 2h4l1-2 1-2-8-5h-4z"/><path class="an" d="M524 372a16 16 0 01-1 1l-1 2v1l2 2h1l2 1 3 1a9 9 0 001-1l1-3-3-3zM571 394l-1 3-1 1-1 1-1-1a6 6 0 01-2-1l-1-1h-1l-1-1a6 6 0 010-1l2-3h5z"/><path class="an" d="M551 389v1l3 2 2 1 3 1 1 1h2v-1l2-4-5-3-5-2-2 2-1 2zM575 400l-1 1h-1l-2-2-1-1v-1l1-3h2l3 6h-1zM502 366v1l1 1h1l1 1h1l1-1 2-4h-1l-6 2zM510 363l-1 2 1 1 2 1 2 1h4l2-4-5-3-5 2z"/><path class="an" d="M519 364v2l-1 1-1 1v1l4 2 3 1 1 1 2-1 1-3a15 15 0 00-1-2l-7-4zM536 372l-1 1v1l-1 2 1 1 2 2h1l3 2 1-1h2l2-4-8-4h-2z"/><path class="an" d="M528 368l-2 3v2l3 1 1 1 2 1h2l2-5-6-4-2 1zM573 394h-2l-2-1h-1l-1-1 1-1v-3h1l1-2 3 8z"/><path class="an" d="M562 384l-2 2v1l-1 1 2 1 5 3 1-1 1-2 1-2-5-4-2 1z"/><path class="an" d="M552 380l-2 3v2h2l1 1 3 2h3l1-1v-1l2-3-7-4-3 1z"/><path class="an" d="M545 376l-1 2-1 2v1l1 1h1l2 2h2a11 11 0 001-1l2-3-3-3zM531 364l-1 1-1 1v3l3 2h1l3 2 1-1h1l3-4-9-4h-1z"/><path class="an" d="M540 368l-1 2-1 2v1l1 1 3 1h1l1 1 3 1h2l2-5-8-4h-3z"/><path class="an" d="M550 373l-1 2-1 2v1l3 1 1 1 2 1h1l2-1 2-4-7-4-2 1zM522 360l-1 3-1 2h1l3 1 1 1 1 1h3l2-5-6-4-3 1z"/><path class="an" d="M558 376l-1 2v1l-1 1v1l4 2 3 2h1l2-1 1-3a13 13 0 00-1-2l-7-3z"/><path class="an" d="M570 387h-1l-1-1h-2l-1-1 1-2v-2l1-1h1zM516 361v2l1 1h1l1 1h1l1-1 2-5h-1l-6 2zM523 359v1l2 1 2 1h2l2-5-1-1-7 3z"/><path class="an" d="M530 358v1l-1 1-1 2 1 1 2 1 1 1 2 1 1-1h1l2-4-6-3h-2z"/><path class="an" d="M537 361l-1 2-1 2v1h2l2 2h1l2 1 2 1h2l2-5-7-4h-4z"/><path class="an" d="M547 366l-1 2-1 2 1 1 3 1 1 1h1l2 1 1-1 2-4-6-4-3 1z"/><path class="an" d="M556 369l-1 2-1 1v2l3 2 4 2h1l1-1 1-3a15 15 0 000-2l-8-4z"/><path class="an" d="M568 380h-1l-2-1h-1l-1-1v-2l1-2v-1h2zM565 373h-1l-2-1h-2v-2l1-3 2-2 3 8z"/><path class="an" d="M554 363l-1 2-1 1v1l1 1 5 3 1-1h1v-2l2-2-6-4-2 1z"/><path class="an" d="M544 359l-2 3 1 1v1h1l2 1 2 2h3l1-1 1-1 1-3-7-4-3 1z"/><path class="an" d="M537 355l-1 2-1 2v1l2 1 1 1 1 1h3a10 10 0 000-1l2-4-3-2z"/><path class="an" d="M530 356v1l1 2 2 1h1l1-1 1-2 1-2v-2l-7 3zM558 360l-1 2-1 2h-1l-1-1a6 6 0 01-2 0 5 5 0 00-1-1l-1-1h-1a7 7 0 010-1l2-4h5z"/><path class="an" d="M541 356v1l2 1 2 2h1l2 1h1v-1l2-4-4-3-3-1-2 2-1 2z"/><path class="an" d="M536 354l1 1v1h2l1 1h1v-1l2-4-1-1-6 3zM562 366l-1 1-1-1-2-1-1-1v-1l1-3 2-1 3 6-1 1zM556 358h-3l-3-1-2-2v-2l1-3h2l7 4z"/><path class="an" d="M548 354h-3l-2-1-1-2 8-3-1 3-1 3zM560 360l-1 1-3-2-1-1 1-3 1-1 1-1 2 6v1z"/><path class="an" d="M558 353l-1 1-3-2h-1l1-2 1-3 2 3 1 3z"/><path class="an" d="M549 349l1 1 2 2h1l1-1 1-3v-2l-5 2-1 1zM623 322l1-2-1-1-3-1-1-1h-1l-1-1-2 1-2 4 5 3 5-2z"/><path class="an" d="M614 321v-2l1-1v-2l-3-2-3-2h-2l-1 1-1 3a15 15 0 000 2l8 3zM597 313v-1l1-2 1-1-1-1-3-2-1-1-2-1-2 1h-1l-2 4 8 4h2z"/><path class="an" d="M605 317l1-3 1-2v-1l-3-1h-1l-2-1h-3l-2 5 7 4 2-1zM571 301l1-2 1-1v-1l-1-1-5-3-1 1h-1v2l-2 2 6 4 2-1zM581 305l2-3v-1l-1-1-1-1h-2l-2-2h-3l-1 1v1l-2 3 7 4 3-1z"/><path class="an" d="M588 309l1-2 1-2v-1l-2-1-1-1-1-1-2-1-1 1a11 11 0 000 1l-2 3 3 3zM558 295l1-4v-1l-2-1-1-1-3-1-1-1-2 1-1 1-2 3 7 4h4z"/><path class="an" d="M548 291l2-4-1-1v-1l-2-1-2-1-4-2h-4l-1 1-2 3 10 5 4 1zM565 298a17 17 0 011-1l1-2-1-2-1-1h-1l-2-1-2-1a11 11 0 00-1 1l-1 4 2 2z"/><path class="ao" d="M532 278h1l1 1h2l1 1-1 2v2l-1 1h-1z"/><path class="an" d="M611 325l1-3 1-2h-1l-3-1-1-1-1-1h-3l-2 5 6 4 3-1z"/><path class="an" d="M603 321v-1l1-2v-2l-3-1-3-2h-3l-1 4a15 15 0 000 2l8 3zM574 308l1-2 1-1v-2l-2-1-7-3h-2v3l-2 1 8 6 3-1z"/><path class="an" d="M585 315l3-6-1-1-2-1-1-1-4-2h-3l-1 1v1l-2 2 8 5 3 2z"/><path class="an" d="M594 319l1-3 1-2v-1l-2-1-1-1-2-1-2-1h-1a8 8 0 000 1l-3 5 4 1zM616 323v-1h-1l-1-1-1-1h-1v1l-2 4v1l6-3zM556 300l1-1 1-1 1-2-1-1-3-1-1-1-3-1h-2l-2 4 8 4h1z"/><path class="an" d="M547 296l1-2 1-2v-1h-1l-3-2h-1l-1-1-2-1h-2l-3 5 8 4h3zM565 304l1-2 1-3h-1l-2-1-2-1-1-1h-1l-2 1-2 4 7 4 2-1z"/><path class="an" d="M534 285h1l1 1h2l1 1v2l-1 2v1h-2zM604 328l1-2 1-3-3-1-1-1-2-1h-3l-2 5 7 4 2-1z"/><path class="an" d="M596 324l1-1v-2l1-1v-1l-3-1-4-2h-3l-1 4a15 15 0 001 2l7 3zM568 311l1-2v-1l1-2-2-1-6-2h-2v3l-2 1 7 5 3-1z"/><path class="an" d="M580 316l1-3v-2h-1l-1-1-2-1-3-2h-4l-1 1v1l-2 2 8 5h5z"/><path class="an" d="M588 320a14 14 0 011-1l1-2-1-1-2-1-1-1-2-1-2-1h-1a6 6 0 000 1l-2 3 4 3zM540 298l1-2 1-2h1l2 1a6 6 0 011 0 4 4 0 001 1h1l1 1a6 6 0 010 1l-1 4h-5z"/><path class="an" d="M560 303v-1l-2-1-3-2-2-1-2-1h-1l-1 1-1 4 5 4 5 1 1-1 1-3zM536 292l1-1 2 1 2 1 1 1v1l-2 3-2 1-2-6v-1zM610 326v-1h-1l-2-1-1-1-1 1-2 4 1 1 6-3zM602 329l1-2-1-1-3-1h-1l-1-1h-3l-2 5 4 2 6-2z"/><path class="an" d="M593 328v-1l1-2v-2l-3-2-3-1h-3l-1 4a15 15 0 000 2l8 3zM576 320v-1l1-1 1-2-1-1-3-1-1-1-2-1h-3l-2 4 8 4h2z"/><path class="an" d="M584 324l1-2 1-3h-1l-2-1-2-1-1-1h-1l-2 1-2 4 7 4 2-1zM539 298h1l2 1h2v3l-1 2v1l-2 1-3-8z"/><path class="an" d="M550 308l1-1 1-2v-1l-1-1-5-2h-2v3l-2 1 6 4 2-1z"/><path class="an" d="M560 313l2-4-1-1v-1h-1l-2-1-2-1-2-1h-1l-1 1-1 1-1 3 7 4h3z"/><path class="an" d="M567 316l1-1 1-3v-1l-2-1h-1l-1-1-2-1h-1a11 11 0 000 1l-2 4 3 2zM581 328l1-1v-1l1-2-1-1-2-1-1-1-3-1h-3l-2 4 8 4h2z"/><path class="an" d="M572 324l1-2 1-2v-1h-1l-3-2h-1l-2-1-2-1h-2l-2 5 7 4h4z"/><path class="an" d="M562 319l1-2 1-2-1-1-3-1-1-1h-4l-2 4 6 4 3-1zM589 332l1-2 1-3-3-1-1-1-2-1h-1l-2 1-2 4 7 4 2-1z"/><path class="an" d="M554 316v-1l1-2v-2l-3-2-3-1-2-1-1 1-1 3a13 13 0 000 2l8 4z"/><path class="an" d="M542 305l2 1h1l1 1 1 1-1 1-1 2v1h-2zM596 331v-2h-1l-2-1-1-1h-1v1l-3 5 1 1 7-3z"/><path class="an" d="M589 333v-1l-3-1-2-1-1 1-2 4 1 1 7-3zM581 335l1-2v-1l1-2v-1l-2-1-1-1h-4l-2 5 6 3h1zM574 331l1-2 1-2v-1h-1l-3-1-1-1-1-1-2-1h-2l-3 5 8 5 3-1z"/><path class="an" d="M564 327l1-3 1-2v-1l-3-1h-1l-2-1h-3l-2 5 7 4 2-1z"/><path class="an" d="M556 323l1-1 1-2v-2l-3-2-4-1h-3l-1 4a15 15 0 001 2l7 3z"/><path class="an" d="M544 312h1l1 1 2 1h1v1l-1 2v3l-2-1z"/><path class="an" d="M547 319h1l2 1h2v3l-1 2-1 1-1 1-3-8z"/><path class="an" d="M558 329l1-1 1-2v-1l-1-1-6-2h-1l-1 3-1 1 5 4 3-1z"/><path class="an" d="M568 334l1-4v-2h-2l-1-1-3-1-1-1h-2v1l-1 1-1 3 6 4h4z"/><path class="an" d="M575 337l1-1 1-3-1-1-1-1h-1l-2-1-2-1a9 9 0 00-1 1l-1 4 2 2z"/><path class="an" d="M582 336v-1l-2-1-2-1-1-1v2l-1 2-1 1v2l7-3zM553 332l2-2v-2h1l2 1a6 6 0 011 0 5 5 0 001 1h1l1 1a7 7 0 011 1l-2 4h-5z"/><path class="an" d="M570 336v-1l-1-1-2-1-2-1-1-1-1 1-2 4 3 3 4 1 1-2 1-2z"/><path class="an" d="M575 338v-1h-1l-1-1-1-1h-1l-1 1-2 4 1 1 6-3zM549 326h3l2 1 1 1v2l-2 2-1 1-3-6v-1zM556 335l2-1h1l3 2 2 1v2l-1 3-2 1-7-5z"/><path class="an" d="M564 339l1-1 2 1h2v2l-7 3 1-3 1-2zM552 332h1l3 1v2l-1 2v2h-1l-3-6 1-1z"/><path class="an" d="M554 339l1-1 3 2v1l-1 2v3l-3-3v-4z"/><path class="an" d="M563 343l-1-1-3-1v-1l-1 2-1 3v1l5-2 1-1zM579 413l3 1 1-3 1-1 1-2v-3l-5-2-3 5 2 5z"/><path class="an" d="M581 404l1 1h2l1 1h1l1-3 2-4v-3l-4-1a13 13 0 00-2 1l-3 7zM588 387l2 1 1 1h3l1-3 1-1 1-3v-2l-5-3-4 9v1z"/><path class="an" d="M585 396l2 1h3l1-3 1-1v-1l1-2-1-1-4-2-4 6 1 3zM601 362l1 1 2 1h1l1-2 2-5v-1l-3-1-1-1-4 5 1 3z"/><path class="an" d="M596 372l4 1h1l1-2 1-1 1-3v-3l-1-1-3-2-4 7v4z"/><path class="an" d="M593 379l1 1 2 1 2-1 1-1v-1l1-2 1-2a10 10 0 00-1-1l-4-1-2 2zM607 348l3 2h1l1-1 1-1v-2l2-2v-3l-1-1-1-1-3-1-4 7 1 3z"/><path class="an" d="M611 339l4 1h1v-1l1-2 1-2 2-3 1-2v-2l-1-1-1-1-2-1-6 9v5zM603 355l2 1 2 1h1l1-2 1-1 1-1 1-2-1-1a10 10 0 00-1 0l-3-2-3 3z"/><path class="ao" d="M624 322v1l-1 1-1 2v1h-3l-2-1h-1v-2z"/><path class="an" d="M577 401l2 1 2 1h1l1-3 1-1v-2l1-1-1-2-4-2-4 7 1 2z"/><path class="an" d="M580 393l2 1h1l1 1h1l2-3 2-4v-1l-1-2-3-1a13 13 0 00-2 1l-3 7zM594 365l1 1 2 1h1l1-2 4-7-1-1v-1l-2-1-2-1-5 7 1 4z"/><path class="an" d="M587 376l5 2h1l1-1 1-1 1-2 1-3v-4l-1-1-3-2-5 8-1 4z"/><path class="an" d="M583 384l3 2 2 1 1-1 1-2v-1l2-2 1-2v-1a7 7 0 00-2 0l-4-2-1 4zM578 407h1l1-1v-2l1-1-1-1-4-2v1l2 6zM601 347l2 1h1l1 1 1-1 2-2 1-1 1-3v-2l-1-1-4-2-4 8v2z"/><path class="an" d="M606 338l2 1 1 1h1l1-1 1-3 1-1v-2l1-2 1-1-1-1-5-2-4 7 1 4zM597 355l3 1 2 1h1l1-3 1-1v-5l-4-2-4 7v2z"/><path class="an" d="M617 325v1l-1 1-1 2v1h-1l-2-1h-1l-2-1 1-1zM574 395l2 1h3l1-3 1-1v-2l1-1-1-1-4-2-4 6 1 3z"/><path class="an" d="M577 386l2 1 1 1h2l2-3 2-3v-2l-1-1-3-1a13 13 0 00-2 0l-4 8zM591 358l1 1 2 1h1l1-1 3-7v-1l-3-1-1-1-5 6 1 3z"/><path class="an" d="M585 370l4 2 1-1h1v-2l1-2 2-3v-4l-1-1-3-1-5 8v4z"/><path class="an" d="M581 378a13 13 0 011 1l2 1h2l1-2v-1l2-2 1-3h-1a7 7 0 00-1-1l-3-1-2 3zM604 331l2 1 1 1 1 1-1 1a6 6 0 01-1 2 5 5 0 000 1h-1v1l-1 1a6 6 0 01-1 0l-3-2v-5z"/><path class="an" d="M598 351h1l2-3 1-2 2-3v-2l-1-1-3-2-4 5-2 5 2 2 2 1zM609 327l1 1v1l-2 2v1h-2l-3-1v-2l6-3v1zM575 400h1l1-1v-1l1-1v-1l-1-1-4-2v1l2 6zM572 392l2 1h1l1-3 1-1v-2l1-1-1-2-4-2-3 5 2 5z"/><path class="an" d="M573 383l2 1h1l1 1h1l2-4 2-3v-1l-1-2-3-1a13 13 0 00-2 1l-3 7zM581 366l1 1h2l1 1 1-1 2-2 1-1 1-3v-1l-1-1-4-3-4 9v1z"/><path class="an" d="M577 375l3 1h3l1-3v-1l1-2v-2l-5-2-3 6v3zM603 330l1 1-1 2-1 1-1 1h-1l-2-1-1-1-1-1 7-3z"/><path class="an" d="M593 341l2 1 2 1h1v-2l3-5v-1l-3-1-1-1-5 5 1 3z"/><path class="an" d="M589 351l3 1h2l1-2 1-1 1-3v-3l-2-1-2-2-4 7v4z"/><path class="an" d="M585 358l2 1 2 1 1-1 1-1 1-1 1-2 1-2a11 11 0 00-2-1l-3-1-3 2zM573 371l1 1 2 1 1 1 1-1 2-3 1-1 1-3v-1l-1-1-4-3-4 9v1z"/><path class="an" d="M578 362l1 1 2 1h1l1-1 1-3v-1l1-1 1-2 1-1-1-2-5-2-4 8 1 3z"/><path class="an" d="M582 352l2 1 3 1 1-3 1-1 1-2v-1l-1-2-4-2-4 7 1 2zM569 380l3 1 2 1 1-1 1-3v-1l1-1v-3l-5-2-3 7v2z"/><path class="an" d="M586 344l1 1h2l1 1h1l1-3 2-4v-3l-4-1a15 15 0 00-2 1l-3 7z"/><path class="an" d="M596 332v2l-1 2v1h-1l-2-1h-1l-2-1v-1zM571 387l1-1 1-1v-1l1-1v-1l-1-1-4-2-1 1 3 7zM568 379h1l1-2 1-2v-2l-4-2-2 1 3 7z"/><path class="an" d="M567 372h1l2 1 1 1 1-1 1-2 1-1 1-2-1-1v-1l-4-2-3 6v2z"/><path class="an" d="M570 365l2 1 2 1h1l1-1 1-3v-1l1-2 1-2v-2l-5-2-4 7v4z"/><path class="an" d="M575 355l2 1 2 1 1-1 1-3 1-1 1-1v-1l-1-2-4-2-4 6 1 3z"/><path class="an" d="M578 347h2l1 1h2l2-3 2-3v-1l-1-2-3-1a13 13 0 00-2 0l-3 8z"/><path class="an" d="M589 335l-1 2v1l-1 1v1l-2-1-2-1h-1v-1z"/><path class="an" d="M582 337l1 2-1 2-1 1h-4l-1-1-1-2 7-2z"/><path class="an" d="M572 348l2 1 1 1h2v-1l3-5v-2h-3l-1-2-5 6 1 2z"/><path class="an" d="M568 358l3 2h1l1-1 1-1 1-2 1-2v-3l-1-1h-1l-2-2-4 7v3z"/><path class="an" d="M564 365l2 1 2 1h1l1-2 1-1 1-1 1-2v-1a10 10 0 00-2 0l-3-2-3 3z"/><path class="an" d="M566 372l1 1 1-2 1-2v-1l-1-1-2-1-2-1h-2l4 7zM569 344l2 1 2 1 1 1-2 2a6 6 0 010 1 5 5 0 00-1 1v1l-1 1a5 5 0 01-1 0l-4-2 1-5zM565 361h2l1-2 1-1 1-2v-2l-1-1-4-2-3 4-1 3 2 2 2 1z"/><path class="an" d="M563 366l1-1h1v-2l1-1-1-1-4-2v1l2 6zM575 340l1 1v1l-2 2-1 1h-1l-3-1v-2l6-3v1zM567 346v4l-1 2-1 2-1 1h-2l-3-2v-2l4-7z"/><path class="an" d="M563 354l1 1-1 2-1 2-1 1-3-8 2 1 3 1zM569 342l1 2-2 2v1h-1l-2-1-2-1-1-1 6-2h1z"/><path class="an" d="M562 344l1 1-1 3-1 1-2-1-3-1 3-2 3-1z"/><path class="an" d="M558 353h2l1-3v-1l-1-1-3-1h-1l2 6zM532 279l-3-1-1 3-1 1-1 2v3l5 2 3-5-2-5z"/><path class="an" d="M530 288l-1-1h-2l-1-1h-1l-1 4-2 3v3l4 1a15 15 0 002-1l3-7zM523 305l-2-1h-1l-2-1-1 1-1 2-1 1-1 3v3l5 2 4-9v-1z"/><path class="an" d="M526 296l-2-1h-3l-1 3-1 1v2l-1 1 1 1 4 2 4-6-1-3zM511 330l-2-1h-2l-1-1-1 2-2 5v1l3 1 1 1 5-5-1-3z"/><path class="an" d="M515 320l-4-1h-1l-1 2-1 1-1 3v3l1 1 3 2 4-7v-4z"/><path class="an" d="M518 314l-1-1-2-1h-2l-1 1v1l-1 2-1 2a10 10 0 001 1l4 1 2-2zM504 344l-3-2-1 1h-1l-1 1v2l-2 3v2l1 1 1 1 3 1 4-7-1-3z"/><path class="an" d="M500 353l-4-1h-1v1l-1 2-1 2-2 4-1 1v2l1 1 1 1 2 1 6-9v-5zM508 337l-2-1-2-1h-1l-1 2-1 1-1 1-1 2 1 1a11 11 0 001 0l3 2 3-3z"/><path class="ao" d="M488 370v-1-1l1-2v-1h1l2 1h3v2z"/><path class="an" d="M534 291l-2-1-2-1h-1l-1 3-1 1v2l-1 1 1 2 4 2 4-7-1-2z"/><path class="an" d="M531 299l-2-1h-1l-1-1h-1l-2 4-2 3v1l1 2 3 1a13 13 0 002-1l3-7zM517 328l-1-2h-2l-1-1-1 2-4 8h1v1l2 1 2 1 5-7-1-3z"/><path class="an" d="M524 316l-5-2h-1l-1 1-1 1-1 2-1 4v4h1l3 2 5-8 1-4z"/><path class="an" d="M528 308l-3-2-2-1-1 1-1 2v1l-2 2-1 2v1a8 8 0 002 0l4 2 1-4zM533 285h-1l-1 1v2l-1 1 1 1 4 2v-1l-2-6zM510 345l-2-1h-1l-1-1-1 1-2 3-1 1-1 2v2l1 1 4 2 4-8v-2z"/><path class="an" d="M505 354l-2-1-1-1h-1l-1 2-1 2-1 1v2l-1 2-1 1 1 1 5 2 4-7-1-4zM514 337l-3-1-2-1h-1l-1 3-1 1v5l4 2 4-7v-2z"/><path class="an" d="M495 367v-1-1l1-2v-1h1l2 1h1l2 1-1 1zM537 298l-2-2h-3l-1 3-1 1v2l-1 1 1 1 4 2 4-6-1-2z"/><path class="an" d="M534 306l-2-1-1-1h-2l-2 3-1 4-1 1 1 1 3 1a13 13 0 002 0l4-8zM520 334l-1-1-2-1h-1l-1 2-3 6v1l3 1 1 1 5-6-1-3z"/><path class="an" d="M526 322l-4-2-1 1h-1v2l-1 2-2 3v4l1 1 3 1 5-8v-4z"/><path class="an" d="M530 314a14 14 0 01-1-1l-2-1h-2l-1 2v1l-2 3-1 2a6 6 0 002 1l3 1 2-3zM508 361l-3-1-1-1-1-1 1-1a6 6 0 011-2l1-1v-1l1-1a5 5 0 011 0l3 2v5z"/><path class="an" d="M513 341h-1l-2 3-1 2-2 3v3h1l3 2 4-5 2-5-2-2-2-1zM502 365l-1-1v-1l2-2v-1h2l3 1v2l-6 3v-1zM536 292h-1l-1 1v1l-1 1v1l1 1 4 2v-1l-2-6zM539 300l-2-1-1 1-1 2-1 2v1l-1 1 1 2 4 2 3-5-2-5z"/><path class="an" d="M538 309l-2-1h-1l-1-1h-1l-2 4-2 3v1l1 2 3 1a15 15 0 002-1l3-7zM530 326l-1-1h-2l-1-1-1 1-2 2-1 1-1 3v1l1 2 4 2 4-8v-2z"/><path class="an" d="M534 318l-3-2h-3l-1 3v1l-1 2v2l5 2 3-6v-2zM508 363l-1-2 1-2 1-1 1-1 1 1h2l1 1 1 1-7 3z"/><path class="an" d="M518 352l-2-2h-1l-2-1v2l-3 5v1l3 1 2 1 4-5-1-2z"/><path class="an" d="M522 342l-3-2h-2l-1 2-1 1-1 3v3l1 1h1l2 2 4-7v-3zM526 335l-2-1-2-1h-1l-1 1-1 1-1 2-1 2a11 11 0 002 1l3 1 3-2zM538 321l-1-1-2-1h-2l-2 3-1 1-1 3v1l1 1 4 3 4-9v-1z"/><path class="an" d="M533 330l-1-1-2-1h-1l-1 1-1 3v1l-1 1-1 3h-1l1 2 5 2 4-8-1-3z"/><path class="an" d="M529 340l-2-1-3-1-1 3-1 1-1 2v1l1 2 4 2 4-7-1-2zM542 312l-3-1-2-1-1 1-1 3v1l-1 1v3l5 2 3-6v-3z"/><path class="an" d="M525 348l-1-1h-2l-1-1h-1l-1 4-2 3v3l4 1a13 13 0 002-1l3-7z"/><path class="an" d="M515 360v-1-1l1-2v-1h1l2 1h2l1 1v1zM540 306h-1l-1 1v1l-1 1v1l1 1 4 2 1-1-3-6zM543 313h-1l-1 2-1 2v2l4 2 2-1-3-7z"/><path class="an" d="M544 320h-1l-2-1-1-1-1 1-1 2-1 1-1 2 1 1v1l4 2 3-6v-2z"/><path class="an" d="M541 327l-2-1-2-1h-1l-1 2-1 2v1l-1 2-1 2v2l5 2 4-7v-4z"/><path class="an" d="M536 337l-2-1-2-1-1 1-1 3-1 1-1 1v2l1 1 4 2 4-6-1-3z"/><path class="an" d="M533 346l-2-1-1-1h-2l-2 3-2 3v2l1 1 3 1a15 15 0 002 0l3-8z"/><path class="an" d="M522 358v-1l1-2v-2h3l2 1h1v2z"/><path class="an" d="M529 355l-1-1 1-2 1-2h4l1 1 1 2-7 3z"/><path class="an" d="M539 344l-2-1-1-1h-2v1l-3 5v2h3l2 2 4-6-1-2z"/><path class="an" d="M543 334l-3-2-1 1h-1l-1 1-1 2-1 2v3l1 1 1 1 2 1 5-7-1-3z"/><path class="an" d="M547 327l-2-1-2-1h-1l-1 2-1 1-1 1-1 2v1a10 10 0 002 0l3 2 3-3z"/><path class="an" d="M545 320h-1l-1 1-1 2v1l1 1 2 1 2 1h2l-4-7zM542 348l-2-1-2-1-1-1 2-1a6 6 0 010-2 5 5 0 001-1v-1l1-1a7 7 0 011 0l4 2-1 5zM546 331h-2l-1 2-1 2-1 1v2l1 1 4 2 3-4 1-3-2-2-2-1z"/><path class="an" d="M548 326l-1 1h-1v2l-1 1v1h1l4 2v-1l-2-6zM536 352l-1-1v-1l2-2 1-1h1l3 1v2l-6 3v-1zM544 346v-3l1-3 1-2h3l3 1v2l-4 7z"/><path class="an" d="M548 338l-1-1 1-2 1-2 1-1 3 8-2-1-3-1zM542 350l-1-2 2-2v-1h1l2 1 2 1 1 1-6 2h-1z"/><path class="an" d="M549 348l-1-1 1-3 1-1 2 1 3 1-3 2-3 1z"/><path class="an" d="M553 339h-2l-1 3v1l1 1 3 1h1l-2-6z"/><path transform="rotate(-65 555 346)" style="isolation:isolate" opacity=".1" fill="url(#b)" d="M503 294h103v104H503z"/><path class="aq" d="M488 371l8-2 8-3 9-3 12-5 12-4 14-5 4-1v-2l-4 1-14 5-13 5-12 4-9 3-8 3-8 2-1 2zM531 278l2 8 3 8 3 9 4 12 5 13 5 14 1 4 2-1-1-4-5-14-5-12-4-12-3-10-3-7-3-8-1-1zM623 321l-7 2-8 3-10 3-12 5-12 4-14 5-4 2 1 1 4-1 14-5 12-4 12-5 9-3 8-3 8-2 1-2zM581 414l-2-7-3-8-3-10-5-12-4-12-5-14-1-4-2 1 1 4 5 14 4 12 5 12 3 9 3 8 2 8 2 1z"/><path class="aq" d="M557 349l-4-2 2-4c1-1 3 1 4 2l-1 2a6 6 0 01-1 2z"/><path class="ar" d="M981 669l-11-1h-11l-11-1a13 13 0 01-7-7c-3-7-1-14-1-21a75 75 0 00-1-12 34 34 0 010-5 39 39 0 011-6 23 23 0 000-6v-6l-1-11a3 3 0 010-1v-24l-1-12 1-11a4 4 0 011-1 31 31 0 01-1-6 34 34 0 000-6 38 38 0 01-1-8v-7l1-8 1-5a7 7 0 001 0l8-2c2-1 5-4 4-6a8 8 0 003 1 22 22 0 004-1c4 0 7 2 10 3a2 2 0 002-1h2a2 2 0 001 0 10 10 0 004-1 30 30 0 014-1 12 12 0 014-1 19 19 0 015 2 5 5 0 010 5 22 22 0 00-1 10l1 11 1 24v113a8 8 0 01-2 6 8 8 0 01-5 2h-2c1 0 0 0 0 0a3 3 0 01-3 1z"/><path class="as" d="M938 541l1 8c1 2 8 1 10 1s1-10 1-12 0-10-2-10l-6 1c-5 0-4 4-4 9zm4-12l6-1c3 0 2 8 2 10s1 12-1 12-9 1-10-1c-2-2-1-5-1-8v-3c0-5-2-9 4-9z"/><path class="at" d="M938 538c0-5-2-9 4-9s8-5 8 8c0 2 1 13-1 13h-7c-3 0-3 0-4-3a9 9 0 010-4 41 41 0 000-5z"/><path class="au" d="M938 543a9 9 0 000 4v1c2 1 7 2 8 1 7-1 0-3 2-4s0-8 0-9c0-5-1-4-3-6h-4a3 3 0 00-3 0v8a41 41 0 010 5zm2 2l1-3v3s-1 2-1 0zm6 2h-1s0-2 1 0zm2-17l1 3c0-2-2-2-3-3h2z"/><path class="av" d="M940 590h11c3 0 0-5 0-5l-9-1c-7-1-3 5-2 6zm12-5c0 1 2 5-1 5-2 1-10 2-12 0s-3-8 3-6l10 1z"/><path class="aw" d="M942 584h6l3 1c1 2 2 3 1 5l-7 1-6-1c-2-5-1-7 3-6z"/><path class="ax" d="M943 591l-4-1c-2-3-1-5 0-6a13 13 0 002 0l6 1c4 0 2 1 3 2a2 2 0 010 3h-4a22 22 0 01-3 1z"/><path class="av" d="M969 503c2 1 9-2 11-2 3-2-1-5-1-6l-9 2c-7 0-2 6-1 6zm10-7c1 1 4 4 1 5-2 1-10 3-12 2s-4-6 2-6c1-1 8-3 9-1z"/><path class="aw" d="M970 497l6-2 3 1 2 4-7 3h-6c-3-4-2-6 2-6z"/><path class="ax" d="M972 503h-4c-2-3-3-5-1-6a17 17 0 002 0l6-1c3 0 2 1 3 2a2 2 0 010 3l-3 1a20 20 0 01-3 1z"/><path class="as" d="M976 590l-7 1-1-8-1-4c-3-6 12-9 12-6 1 7 3 8 2 15l-5 2zm3-17c0-3-14 1-11 6v8l1 3 7-1 5-1-2-15z"/><path class="ay" d="M981 588c1-7-2-9-2-15 0-3-16 1-11 7v7c1 4-1 4 7 3 2-1 4 0 6-2z"/><path class="au" d="M977 572c-4 0-13 3-9 8v7c1 2 0 4 2 4a2 2 0 000-1c0-4 2-3 3-2a3 3 0 010 2h2a31 31 0 004-1 5 5 0 00-1-2c-1-1-7-2 1-2 0-4-4-3-5-3-8 0-3-1-1-3 7-4-3 1-3 1-2-1 3-3 3-3 4-3 5-4 4-5z"/><path class="av" d="M981 623a31 31 0 01-1 4c-2 3-8 2-11 2-2-1 0-10 1-12 0-4-1-7 3-6l5-1c5-1 4 6 3 9v4zm-4-12c-5 2-6-3-7 4 0 2-3 13-1 13h10l1-5 1-4c1-5 2-10-4-8z"/><path class="aw" d="M981 619c0-2 3-11-4-8-4 1-7-3-7 4 0 3-3 13-1 13 13 1 9 1 12-7a5 5 0 000-2z"/><path class="ax" d="M970 618l-1 3a6 6 0 003 0c0-1 3 3-3 5h-1l1 3h3a18 18 0 014-1c2-1 4-5 3-8 0-1 3-9-1-7-3-1-4-1-6 2-3-1 1 0-2 3z"/><path class="av" d="M965 666a31 31 0 01-1 4c-1 3-8 2-10 1-3 0 0-10 0-12 1-3 0-6 4-5l5-1c5-1 4 6 3 9l-1 4zm-3-12c-5 1-6-3-7 4 0 2-3 13-1 13h10l1-5 1-4c1-5 2-10-4-8z"/><path class="aw" d="M966 662c0-2 3-11-5-8-3 1-6-3-6 4 0 3-4 13-1 13 13 1 9 0 12-8a4 4 0 000-1z"/><path class="ax" d="M954 660v4a6 6 0 002 0c1-1 4 3-3 5l1 2 2 1a19 19 0 014-2c3 0 5-4 4-7-1-1 3-10-2-7-2-1-3-1-5 2-3-1 0 0-3 2z"/><path class="as" d="M977 525c-2-2-2-2-4-1-5 0-6-1-6 6 0 11 2 10 9 7 1-2 2-10 1-12zm-10 5c-1-7 1-6 6-7l4 2c1 1 1 10-1 12-7 4-9 4-9-7z"/><path class="az" d="M976 537c-4 1-8 5-9-3-1-12 0-9 7-11l3 2c1 1 1 10-1 12z"/><path class="ba" d="M973 535c-1-1 0 0 1-2 1-6-1-2-2-9-5 0-6 0-5 10 1 5 2 5 4 5 2-1 3-3 2-4zm-3-1c0 2-1 1-1 0-1-6 0-8 1 0z"/><path class="as" d="M979 656l-4-1c-5 1-6-1-6 7 1 10 2 9 9 6 2-2 2-10 1-12zm-10 6c-1-8 1-7 6-7 2-1 2-1 4 1 1 1 1 10-1 12-7 4-8 4-9-6z"/><path class="az" d="M978 668c-3 2-8 5-9-2-1-13 0-10 8-12l2 2c1 1 1 10-1 12z"/><path class="ba" d="M973 670c2-1 3-3 2-4l1-2c1-6-1-2-2-8a1 1 0 000-1c-5 1-6 0-5 11 1 4 2 5 4 4zm-1-5c0 2-1 1-1 0-1-6 1-7 1 0z"/><path class="as" d="M971 592c-3 3-3 0-3 6v4c0 3 3 7 4 5 2-3 1-11 1-15h-2zm2 15c-2 3-5-1-5-5v-4c0-7 0-4 3-6 1-1 1 0 2 1v14z"/><path class="ay" d="M973 593c1 7 1 18-3 14-3-4-2-5-2-9 0-7 1-3 3-6 1-1 1 0 2 1z"/><path class="au" d="M972 608l-2-1c-3-4-2-5-2-9 0-6 1-4 3-6l-1 8c5 7-2 1 1 6a4 4 0 011 2z"/><path class="av" d="M953 541l8 1c5-1 4-4 3-7 0-2 1-7-2-7l-5 1c-4 0-1 3-3 6 0 1-2 5-1 6zm4-12l5-1c3 0 2 5 3 7 1 4 1 6-4 7h-8c-1-1 1-6 1-7 2-3-1-6 3-6z"/><path class="ax" d="M955 535c1-3-3-6 4-6 1 0 6-5 5 5 0 2 5 9-6 8-4-1-7 2-4-6l1-1z"/><path class="aw" d="M955 535c1-3-2-5 1-6a5 5 0 001 0h2l2-1c2 2 0 9 3 11 1 1-2 2-3 3a19 19 0 01-3 0 1 1 0 01-1 0 3 3 0 010-4c0-1-1-2-3-2a6 6 0 011-1z"/><path class="as" d="M976 522c-1 0-6 2-7 1-2 0-2-6-2-7v-3c-3-6 12-10 12-6 0 6 2 7 1 14l-4 1zm3-15c0-3-15 0-12 5l1 7 1 4 7-1 4-1c1-7-1-8-1-14z"/><path class="az" d="M980 521c1-7-1-9-1-14 0-3-16 0-12 6l1 6c1 4-1 5 7 3l5-1z"/><path class="ba" d="M970 507l4 2c2-1 3 4 2 4-2 1 2 1-3 3-1 0-2 3-1 5a7 7 0 010 2c-5 1-4 0-4-4l-1-6c-1-3 0-5 3-6zm5 15h3a13 13 0 001-2c1-3-1-3-2-3-2 1-3 0-3 2a16 16 0 000 3z"/><path class="bb" d="M965 646l-2 6-6 1c-4 0-4-10-4-12 0-5-1-14 5-15l7 2 1 13-1 5zm0-18c-6-4-11-3-12 5-1 3-1 20 4 20a55 55 0 006 0l2-7 1-5c1-1 1-13-1-13z"/><path class="az" d="M966 641c1-1 0-13-1-13 0 0-12-9-12 7 0 4 0 18 4 18 7-1 6 2 7-6l2-6z"/><path class="ba" d="M963 627c-3-2-9-3-10 6l1 1a3 3 0 01-1 4c0 4 0 13 3 14 1-2 5 4 7-8 1-4-1-2-2-2-5 2 1-2 2-3 3-5-5-4-1-8l1-4z"/><path class="as" d="M977 591c-3 4-4 0-3 8l1 5c1 3 6 7 7 4 2-3-1-12-2-17h-3zm6 17c-2 4-8-1-8-4l-1-5c-1-8 0-5 3-8h3c1 5 4 13 3 17z"/><path class="ay" d="M980 591c3 8 5 22-1 18-5-4-4-5-5-10-1-8 1-4 3-8h3z"/><path class="au" d="M978 608c-4-3-3-4-4-9v-2a2 2 0 000-1 2 2 0 013-3c4 2-2 7 1 11 3 0 1-5 1-6 2 0 2 9 2 10h-3z"/><path class="as" d="M946 653c-6 0-7-3-7 3l-1 4c0 2 8 9 11 8 4 0 2-9 1-13l-4-2zm4 15c-4 2-12-6-12-9v-3c1-6 2-3 8-3l4 2c1 5 3 11 0 13z"/><path class="ay" d="M950 655c3 8 2 19-7 11-7-7-4-6-4-10 0-7 2-3 7-3l4 2z"/><path class="au" d="M942 665c-6-6-3-5-3-9v-2h1c1-2 5 0 6 0 5 4-7 3-3 8 5 3 4-2 4-3 4 2 0 8 0 8l-5-2z"/><path class="av" d="M952 597a3 3 0 001-1v-2l1-3-2 1c-1 0-3-2-2 0l2 4v1zm0-1l-2-4c-2-2 1-1 2 0 1-1 3-2 2 0l-1 3-1 2a1 1 0 000-1z"/><path class="aw" d="M952 596l-2-4c-2-2 2 0 2 0l2-1-1 3v2l-1 1a1 1 0 000-1z"/><path class="av" d="M953 596v-1l1-2c2-4-1-1 0-3s2-1 3 0c4 3 0 3-2 5h-2v1zm0-1h1l3-2c4-1 1-2-1-3s-2 0-2 0c2 1 0 3 0 4a3 3 0 00-1 1zm0 0z"/><path class="aw" d="M953 596l1-2s2-4 0-3c0 0 1-4 2-1 1 1 5 2 1 4a22 22 0 00-3 1h-1z"/><path class="av" d="M952 566l1 4c1 2-2 7-2 3v-7h1zm0 7a4 4 0 000 1c2-3 1-4 0-8h-1l1 7z"/><path class="ay" d="M952 566c-2 0-1 5-1 7l1 1c2-3 1-4 0-8z"/><path class="av" d="M973 504l5-2c2-1 7 1 3 2-1 0-7 2-7 0h-1zm8-1a4 4 0 001 0c-4-2-4-1-8 1-1 0-1 0 0 0 1 1 5 0 7-1z"/><path class="ay" d="M974 504l6-1h2c-4-2-5-1-8 1-1 0 0 0 0 0z"/><path class="av" d="M967 607c-1-6 1-3 1-1 0 4 3 7 1 8s-2 0-2-1v-6zm3 5l-2-6c0-2-2-5-2 1a22 22 0 011 6c-1 3 4 2 3-1z"/><path class="ay" d="M967 613s-1 2 2 1-1-4-1-8c0-2-2-5-1 1a18 18 0 010 6z"/><path class="av" d="M978 609a2 2 0 00-1 0l-3-4a20 20 0 00-1 3c1 1 4 2 5 1zm-1-1c4 4-4 1-4 0 1-7 2-1 4 0z"/><path class="ay" d="M973 608l1-3 1 2c1 2 4 2 2 3l-4-2z"/><path class="av" d="M985 669a2 2 0 00-1 0c-3-2-2-3-3-4a21 21 0 00-1 2c0 1 4 3 5 2zm-1-1c4 3-5 1-4-1 0-6 2-1 4 1z"/><path class="ay" d="M980 667l1-3 1 2c1 3 4 3 2 4l-4-3z"/><path class="av" d="M983 604l1 7c1 2 3-4 3-5v-2l-2-1-2 1zm4 0v3c-1 1-2 6-3 3 0-3-2-6 1-7l2 1z"/><path class="aw" d="M985 603l2 1c1 2 0 2-1 5 0 0-2 4-2 1 0-2-2-6 1-7z"/><path class="as" d="M967 513l-1 16-1-7v-8c1-3 1-3 2-1zm-2 1v7a24 24 0 000 3l1 4v-15c0-2 0-1-1 1z"/><path class="az" d="M965 514v8a18 18 0 010 4c0 3 1 4 1-2v-11s0-3-1 0v1z"/><path class="av" d="M972 540l-6-1a23 23 0 001 2c1 1 5 0 5-1zm-1-1c5 0-3 4-4 2-3-5 1-2 4-2z"/><path class="ay" d="M967 541l-1-2h2c3 1 5 0 4 1 0 1-4 2-5 1z"/><path class="av" d="M974 540a3 3 0 001 0c4-1 4 1 6 1a23 23 0 00-1-3c-1-1-6 1-6 2zm2 0c-7 0 3-4 4-2 5 6-1 2-4 2z"/><path class="ay" d="M980 538l1 3-2-1c-3-1-7 1-5-1 1 0 5-2 6-1z"/><path class="bb" d="M954 531v3a51 51 0 01-2 6c-1 2-2 0-1-1v-5l3-3zm-3 3v5a7 7 0 000 1l3-6v-3l-3 3z"/><path class="az" d="M954 531l-3 3v5s0 4 1 0a13 13 0 001-2l1-3a3 3 0 000-1v-2z"/><path class="as" d="M965 531v-1c1-1 2 3 2 3v2c1 3-1 3-1 1l-1-5zm1 5l1 1a2 2 0 00-1-2s0-7-1-5v1l1 5z"/><path class="ay" d="M965 532l1 4c0 1 1 2 1-1l-1-1v-3c0-2-1-1-1 0v1z"/><path class="as" d="M980 507v-1c1-2 1 3 1 3l1 2c1 2-1 3-1 1l-1-5zm1 5v1a2 2 0 000-2c0-1 0-7-1-5v1l1 5z"/><path class="ay" d="M980 507c-1 1 1 3 1 5 0 1 1 2 1-1l-1-2v-2c0-2-2-1-1 0z"/><path class="av" d="M965 505v2c0 1 0 3 1 2l4-3a45 45 0 00-5-1zm1 4zm5-3c-2 2-3 1-5 4l-1-2v-3s7 0 6 1z"/><path class="aw" d="M965 505h3c1 0 4 0 2 1l-4 3c0 1-1 1-1-1v-3z"/><path class="av" d="M968 568l3 4c0 1-3 2-4 1a9 9 0 000-3l-1-1 1-3 1 2zm-1-2l-1 3 1 1a9 9 0 011 3l3-1-3-2-2-4zm4 6"/><path class="aw" d="M967 566c-2 1-1 1-1 2l1 2a5 5 0 011 2c0 2 2 1 3 0l-2-2a10 10 0 01-2-4z"/><path class="av" d="M965 568c-2 3-1 2 1 4 0 0 0 2 1 1l-1-1c1-1-1-3-1-4zm2 4v2l-3-3v-2a3 3 0 011-1l2 4z"/><path class="aw" d="M965 568l2 3v2c0 1-1 1-1-1 0-1-3-1-2-3l1-1z"/><path class="as" d="M952 543v2l3-2h-3zm3 0l-2 2s-2 2-2-1c0 0 1 1 1-1h3z"/><path class="ay" d="M952 543h2c3 0-2 1-2 1 0 1-1 2-1 0l1-1z"/><path class="as" d="M951 528v2l3-2h-3zm3 0h1l-3 1s-2 3-1 0v-1h4z"/><path class="ay" d="M951 528h3l-2 1c-1 1-1 2-1 0v-1z"/><path class="av" d="M963 542s4 3 4 1c-1-3-3-1-4-1zm0 0l4 1c0 1 0 2-1 1l-3-2c1 0 3-2 4 1z"/><path class="aw" d="M963 542c1 0 2-2 4 1l-1 1-3-2z"/><path class="as" d="M968 590v3c-2 1-1 2-2 3l-2-2c-1-1-2-1 0-2l3-3c1-1 1 1 1 1zm-4 2c-1 1-1 1 1 2l1 1 2-3v-2s0-2-1-1l-3 3z"/><path class="ay" d="M967 589l-3 3c-2 1-1 1 0 2l2 1c1 1 0-2 2-2s0-3 0-3l-1-1z"/><path class="as" d="M980 573l1 3c1 1 0-2 2-2 3-2-1-1-2-4-1 0-2 1-1 3zm3 1c-1 0-1 4-3 2v-3c-1-2 1-3 1-3 2 3 5 2 2 4z"/><path class="ay" d="M981 571c1 2 5 1 2 3-2 0-1 3-2 2l-1-3c-1-2 1-3 1-2z"/><path class="as" d="M982 592l1 3c0 3-2 2-2-3v-3c2 0 1 1 1 3zm-1 0a18 18 0 001 4v-2-5h-1v4z"/><path class="ay" d="M981 589v3c0 1 1 6 2 4a7 7 0 01-1-2v-5h-1z"/><path class="av" d="M982 631c1 3 4 3 4 4 0 0-4 2-4 0a10 10 0 00-1-2l-1-2 1-3 1 3zm-1 0l1 2a9 9 0 010 2h3l-2-2-2-5v3zm4 4"/><path class="aw" d="M981 628v3l1 2a6 6 0 010 2h3c2 0-2-2-2-2a10 10 0 01-2-4v-1z"/><path class="av" d="M964 651l3-7c1-3 1 5 1 6l-1 2-2 1a7 7 0 01-1-2zm3 1l1-3c0-2 0-7-2-4-1 3-3 5-1 7v1l2-1z"/><path class="aw" d="M965 653l2-1c2-2 1-2 1-5 0-1-1-6-2-2 0 2-3 5-1 7v1z"/><path class="av" d="M982 644l1 5c0 2-3 6-2 2l1-7zm-1 7a5 5 0 000 1c2-3 2-3 1-8l-1 7z"/><path class="ay" d="M982 644l-1 7v1c3-3 2-4 1-8 1 0 0 0 0 0z"/><path class="av" d="M953 647l1 5c0 2-2 6-2 3v-8h1zm-1 8a4 4 0 000 1c3-4 2-4 1-9h-1v8z"/><path class="ay" d="M952 647v9c3-4 1-5 1-9h-1z"/><path class="av" d="M968 671l-2-4c0-2 3-7 3-3l-1 7zm0-7a4 4 0 000-1c-2 3-1 4 0 8v-7z"/><path class="ay" d="M968 671v-7-1c-3 3-1 4 0 8 0 1 0 0 0 0z"/><path class="as" d="M980 522c-2 3-2 0-2 6v4c0 3 2 6 3 5v-15h-1zm2 14c-1 4-4-1-4-4v-4c0-7 0-4 2-6h1c1 4 2 11 1 14z"/><path class="az" d="M981 523c1 6 1 18-2 14-2-4-1-5-1-9 0-7 0-3 2-6 1-1 1 0 1 1z"/><path class="ba" d="M981 537l-2-1c-2-3-1-4-1-8 0-6 0-4 2-6v8c3 6-2 1 0 5a4 4 0 011 2z"/><path class="bb" d="M966 623c2 0 2 2 2 2a37 37 0 010 5l-2-1-1-3 1-4a1 1 0 010 1zm-1 3l2 3a5 5 0 000 1v-5c-1 0 1-2-1-2l-1 3z"/><path class="az" d="M966 623l-1 3 2 3s1 3 0 0a10 10 0 001-2v-2a2 2 0 00-1-1c0-1 0-2-1-1z"/><path class="bb" d="M961 625a2 2 0 001 1h1l2 1-1-2v-1l-2 1h-1zm1 0l2-1c2-1 1 1 1 1 0 1 1 2-1 2l-2-1-1-1a1 1 0 001 0z"/><path class="az" d="M962 625l2-1c2-1 0 1 0 1l1 2-2-1h-1l-1-1a1 1 0 001 0z"/><path class="bb" d="M953 623l-1 3a42 42 0 000 5c0 2 1 0 1-1l1-3-1-4zm1 4l-1 3a6 6 0 01-1 1v-5l1-3 1 4z"/><path class="az" d="M953 623l1 3c1 1-1 3-1 4 0 0-1 3-1 0a11 11 0 010-2v-2a3 3 0 010-1l1-2z"/><path class="av" d="M969 619a6 6 0 00-1-4l-1 4a20 20 0 001 3l1-3zm-2 0l1-4a6 6 0 011 4l-1 3a9 9 0 01-1-3z"/><path class="aw" d="M968 622l-1-2a3 3 0 010-1 15 15 0 011-4l1 2a4 4 0 010 2l-1 3z"/><path class="av" d="M981 634l-2-5a21 21 0 00-2 2c0 1 3 4 4 3zm0-1c2 5-5-1-4-2 3-6 3 0 4 2z"/><path class="ay" d="M977 631l2-2 1 2c0 2 3 4 0 4l-3-4z"/><path class="bb" d="M953 562c0 4-1 7 3 7 7 1 10-2 9-9l1-4c0-3-2-5 0-8 1-5-5-5-8-4-7 1-6 4-6 10a30 30 0 001 8zm5-19c3 0 9 0 8 5v8 4c0 8-3 10-10 10-4-1-3-4-4-8v-8c0-6-1-10 6-11z"/><path class="az" d="M952 554l1-8c1-4 15-4 13 2-2 3 1 6-1 10 0 1 4 12-8 12-2-1-4-1-4-5l-1-11z"/><path class="ba" d="M952 554a18 18 0 000 5c1-1 4-3 10-3 3 0-1-6 1-8 3-3-5-3-9-3a3 3 0 00-1 1 13 13 0 00-1 4c2 0 5 0 0 3a9 9 0 010 1zm9 15a14 14 0 01-4 1c-2-1-4-1-4-5l-1-6c4-2 7-1 7-1 1-1 7 0 1 4l2-1c3-2 4 2 1 4s-2 4-3 4z"/><path class="bc" d="M953 547a6 6 0 010 2l3 1-2 4a5 5 0 001-2c1-2 0-2-1-2h-2l1-3zm0 3z"/><path class="bb" d="M936 520c1 4 0 7 4 7 7 1 10-2 9-9v-4-9c2-4-4-4-7-4-7 1-6 4-6 11a31 31 0 000 8zm6-19c3 0 9 0 8 4v9 4c0 7-3 10-10 9-4 0-3-3-4-7v-8c0-7-1-10 6-11z"/><path class="az" d="M936 512l1-8c1-4 15-5 13 1-2 3 1 7-1 11 0 1 4 12-8 11-3 0-4 0-4-4l-1-11z"/><path class="ba" d="M936 512a18 18 0 000 4c1-1 4-2 10-2 3 0-1-6 1-8 3-3-5-4-9-3a3 3 0 00-1 1 12 12 0 00-1 4c2-1 5 0 0 2a12 12 0 010 2zm5 15c-2 0-4 0-4-4l-1-6 7-2c1-1 7 0 1 4-5 4 2 0 2 0 3-2 4 1 1 3-3 3-2 4-3 5a14 14 0 01-3 0z"/><path class="bc" d="M937 505a6 6 0 010 2c1 0 3-1 3 1s-1 3-2 3a5 5 0 001-1c1-2 0-2-1-2h-2l1-3zm0 3z"/><path class="bb" d="M966 588c-1 3-5 4-6 3l-7-7v-9c2-4 3-5 7-4 6 0 6 2 6 9v8zm-6-18c-4 0-6 0-7 5l-1 9c1 3 6 5 8 7 1 2 5 0 6-4a40 40 0 000-7c0-7 0-9-6-10z"/><path class="az" d="M966 580c0-4 1-6-2-8-1-1-8-2-10 0-3 5-1 4-2 11 0 3 6 5 8 8h3c4-1 3-7 3-11z"/><path class="ba" d="M962 571c1 1 2 2 1 4-2 3 1 4 0 7s4 6-3 9a17 17 0 00-4-3v-1c0-2-2-2-3-2a3 3 0 01-1-2c1-7-1-6 2-11 1-2 6-2 8-1zm-7 5l1 1 1-2c3-2-2-3-2 1z"/><path class="bc" d="M953 577v6c1 1 2 0 3 2l1 2c0-2 0-4-2-4s-2-4-2-6z"/><path class="bb" d="M995 667c-1 3-5 4-6 3l-7-7v-9c2-4 3-4 7-4 6 0 6 2 6 9v8zm-6-17c-4-1-5 0-7 4v10l7 6c2 2 6 0 6-4a40 40 0 000-7c1-7 0-9-6-9z"/><path class="az" d="M996 659c0-4 0-6-2-8-1-1-9-2-10 0-3 6-2 4-2 11 0 3 5 5 7 8h4c3-1 3-6 3-11z"/><path class="ba" d="M992 650a3 3 0 010 4v7c-1 3 4 6-3 9a17 17 0 00-4-3l1-1c0-2-2-2-4-2a3 3 0 010-2c0-7-1-5 2-11 1-2 5-1 8-1zm-6 6v-2c3-1-2-3-2 1l2 1z"/><path class="bc" d="M983 657c-1 1-2 4-1 6s2 0 3 1l1 2c0-2 0-4-2-4s-1-4-1-5z"/><path class="bb" d="M953 619c-1 9 11 5 12 3 2-3 0-18 0-23 1-4-3-5-6-5-9 1-6 10-6 16v9zm2-23c3-3 11-3 11 3-1 5 2 21-1 24-2 2-12 5-13-3a80 80 0 011-10c0-4-2-11 2-14z"/><path class="az" d="M953 610v-12c4-6 14-5 13 1-1 4 2 22-1 24-4 2-13 4-13-3l1-10z"/><path class="ba" d="M958 598s-1 0 0 0c2-2 0 4 0 4 0 8-2 2 0-4zm-6 22c0 6 8 5 12 3v-11c-6 0-5 5-5 10 0 2-3-4-1-7 3-4 5-6 4-12l1-5a3 3 0 00-2-4 8 8 0 00-8 4v12l-1 10z"/><path class="bc" d="M961 605c-1 4 0 4-3 7-1 2-2 6-1 8a5 5 0 011 1v-1c-1-2 0-4 1-6 2-4 3-4 2-9z"/><path class="as" d="M945 592c7 0 6 5 6 11 1 4 0 8-1 12 0 4 1 7-3 7l-8-1c-2-1-1-14-1-16l1-10c2-4 2-3 6-3zm-7 15c0 2-1 12 1 14h8c3 1 2-2 3-6l1-12c0-4 1-10-5-11-4 0-5-1-7 3l-1 12z"/><path class="ay" d="M939 595l-1 8c0 3-1 16 1 17 1 2 6 0 8 1 1 1 3 0 3-2 0-5 2-12 1-16 0-3 2-10-5-11h-3c-2 0-3 0-4 3z"/><path class="au" d="M939 595l-1 8c0 3-1 16 1 17 1 2 6 0 8 1a2 2 0 002 0 41 41 0 001-6 4 4 0 000-2l-1-1c0-1-2-3-3-1l-1 1v4l-1 2-1 1v-1a7 7 0 001-3v-5l2-3 1-8c0-2 0-5-2-7h-2c-2 0-3 0-4 3z"/><path class="bd" d="M942 592c-2 2-2 5-2 8l-2 8a17 17 0 001 8l1 1-1-3c-1-5 0-8 1-13 1-4 0-6 2-9z"/><path class="as" d="M983 554v-27l6-1c6 1 6 22 5 27 0 4-8 2-10 2a7 7 0 01-1-1zm11-1c1-5 2-27-5-27-1 0-5-1-6 1-2 3-1 24 0 27a5 5 0 001 1c3 1 10 2 10-2z"/><path class="az" d="M984 555c3 0 10 2 10-2 1-5 2-27-5-27s-7-1-7 13l1 15a6 6 0 001 1z"/><path class="ba" d="M984 555a7 7 0 01-1-1l-1-15v-4a2 2 0 000-1c2-3 1-2 0-3 0-6 1-5 7-5 3 0 5 6 5 12h-2c0 3-3 7-2 5 0-3-2-2-1-5 3-6-4-3-3-1 2 5 4 5 2 11 4 6-2 3-1 6a1 1 0 010 1h-3zm10-2l1-7c-1 4 0 3-5 2-1 0 1 2-1 4-1 2-1 3 1 4 2 0 4-1 4-3z"/><path class="bc" d="M984 527c-3 4 0 3-1 6v3a57 57 0 001 11v-12-3c0-2-2 0 0-5z"/><path class="av" d="M995 569c2-8-3-14-11-11-3 1-3 2-2 5 0 3-2 4 0 6 2 4 9 3 12 2zm-13 2c-3-3 0-5-1-8s-1-4 3-6c8-2 13 4 11 11l-1 3c-3 1-9 2-12 0z"/><path class="aw" d="M994 571c-3 2-16 2-13-5 2-4-3-8 6-9 7-1 10 8 7 14z"/><path class="ax" d="M986 572c-4-1-6-3-5-6 2-3-3-7 4-9-1 2-2 3 4 3 3 0 0-2-1-3a7 7 0 015 2 4 4 0 01-2 4c-3 2-1 7-5 9z"/><path class="be" d="M991 562a10 10 0 00-3 6l-3 2a1 1 0 001 0c3-1 3-2 3-4l2-4z"/><path class="av" d="M993 592c2-3 1-7 1-11v-6c-1-2-5-1-6-1-5 0-5 1-5 5v7l1 14c0 4 8 1 10 1 1-1-1-9-1-9zm-9 8l-2-14v-7c1-3 0-5 4-5h8v7c1 4 1 7-1 11 1 1 2 8 1 9-2 1-10 3-10-1z"/><path class="aw" d="M994 601c-3 1-11 3-10-1s-2-9-2-14l1-7c0-3-1-5 5-5 5 0 7-2 6 4 0 3 1 11-1 14 1 1 2 8 1 9z"/><path class="ax" d="M989 602c-3 1-6 0-5-2l-2-14 1-7c0-3-1-5 5-5h2c2 1 2 2 1 3-2 3 1 12 0 12-2 1-2 3-3 0l-4-4c-3-2 6 9 4 10-2 3 1 5 1 7z"/><path class="be" d="M985 591l2 3c0 1-1 5 1 6-2-2 1-4 1-6l-4-3z"/><path class="av" d="M984 647c1 2 8 1 10 0 2 0 0-9 0-9l-8-2c-6-2-3 10-2 11zm10-9c1 3 2 9 0 10s-9 2-10-1c-2-3-3-14 2-11 2 0 8 0 8 2z"/><path class="aw" d="M986 636l5 1 3 1c1 3 2 5 1 9l-6 2c-2 0-5 0-6-2-2-8 0-12 3-11z"/><path class="ax" d="M992 648h-3c-1 0-4 0-5-2-2-6-1-10 1-10l5 1c2 0 3 6 2 7-1 0-2 2 0 1v3z"/><path class="be" d="M985 639c-2 0-1 4-1 4a8 8 0 002 4l-1-3v-5z"/><path class="as" d="M968 653a12 12 0 001-3c1-6 0-7-1-13 0-7 4-10 10-5 1 2 3 3 2 5v8l-1 7c0 3-8 2-10 2a4 4 0 00-1-1zm11-1c1-3 2-3 2-7v-8c0-2-1-3-3-5-6-6-11-2-10 5l1 13a15 15 0 01-1 3l1 1c2 0 10 1 10-2z"/><path class="ay" d="M969 654c2 0 10 1 10-2 0-2 2-3 2-10s1-5-3-10c-4-4-9-3-10 2 0 5 2 8 1 15l-1 4z"/><path class="au" d="M969 654l8-1-1-1 1-6c1-3-1-6 1-8 5-5-7-7-8-6-3 4-1 4-2 6 1 3 2 6 1 11l-1 4z"/><path class="bd" d="M971 632c-4 4-1 3-1 5l-1 3a47 47 0 001 10v-11l1-2c0-3-2-1 0-5z"/><path class="av" d="M937 575c0 2 0 7 2 8h10c2 0 2-6 2-7a70 70 0 01-1-11c0-5 2-8 0-12-1-2-6-2-8-1l-3 1c-2 1-1 6-1 8v6a52 52 0 00-1 8zm1-14c0-2-1-7 1-9l3-1c2-1 7 0 8 1 3 5 1 8 1 13a75 75 0 000 11c0 2 1 7-2 8l-10-1c-2-1-2-6-2-8a41 41 0 011-8v-6z"/><path class="aw" d="M938 567l1-4-1-4c0-3-1-6 3-7 2 0 1-2 5-1s3 0 5 3c1 4-1 7-1 11l1 11a22 22 0 010 6c-1 3-4 1-5 1h-3c-5 0-6 0-6-6l1-10z"/><path class="ax" d="M938 561c2 6 2 7-1 11v5c0 5 1 6 4 6 0-3 3-8 2-10v-6c0-2 2-2 3-3 1-3-1-6-1-9l-4-3c-4 1-3 4-3 7a16 16 0 000 2zm13 21c-1 3-4 1-5 1h-3l1-9c0-10 3-5 3-10 1-6-2-6-1-10 2 0 4 7 4 9-1 6-4 10 0 15a6 6 0 011 3v1z"/><path class="be" d="M941 582c-3 0-3-1-3-3l2-8a17 17 0 000-6l-1 6-1 6c0 3-1 6 3 5z"/><path class="av" d="M964 503c0-2 1-7-2-8l-10-1c-2 1-1 6-1 8a68 68 0 010 11c0 5-2 8 1 12 1 2 6 2 7 1l3-1c2-1 1-6 1-8 0-4-1-3 1-6a53 53 0 000-8zm-1 14c0 2 1 7-1 8l-3 2c-1 1-7 0-8-2-2-4 0-7 0-12a74 74 0 000-11c-1-2-1-7 1-8l11 1c2 1 1 6 1 8a41 41 0 010 8l-1 6z"/><path class="aw" d="M964 511l-1 4v4c0 3 1 6-3 7l-5 1c-3-1-3 0-4-3-2-4 0-7 0-11v-11a23 23 0 010-6c0-3 3-1 5-1h3c5 0 5 0 5 6v10z"/><path class="ax" d="M963 517v-1c-2-5-1-7 1-10v-5c0-5 0-6-4-6 0 3-3 8-1 10v6l-3 3c-2 3 0 5 0 9l4 3c4-1 3-4 3-7a15 15 0 000-2zm-12-21c0-3 3-1 5-1h2c1 2-1 7-1 9 0 10-2 5-3 10-1 6 2 6 1 10-2 0-3-7-3-9 1-6 3-10-1-16a6 6 0 010-2v-1z"/><path class="be" d="M961 496c2 0 3 1 2 3l-1 8a17 17 0 000 6l1-6 1-6c1-2 1-6-3-5z"/><path class="as" d="M966 558c2 7 1 16 13 12l1-12c3-4 2-5 1-10v-3c0-4-4-4-7-4-5 1-7 2-7 6l-1 10a2 2 0 000 1zm1-11c0-4 2-6 7-6 3-1 7 0 7 4v3c1 5 2 6 0 11-2 2 0 10-2 11-12 4-11-4-13-12l1-11z"/><path class="ay" d="M966 558c3-9-2-14 4-16 5-1 12-2 11 4 0 1 3 8-1 13-1 2 1 10-1 11-13 4-11-5-13-11a4 4 0 010-1z"/><path class="au" d="M966 557c2 1 0 5 2 6 4 2 10-1 12 1a1 1 0 000 1v-4l-7-3c-4-2 0-3 2-5 9-7 7-15-5-11-5 1-2 6-3 12a19 19 0 007-3l4-2-3 3a28 28 0 01-8 4l-1 1zm15 1c-6-1-2-4 1-4a9 9 0 01-1 4zm-12 11a10 10 0 01-1-3c1-2 5-2 9 1 2 3-4 6-8 2z"/><path class="bd" d="M969 543c-2-2-2 4-2 5a24 24 0 010 3v5l1-4v-7l1-2z"/><path class="ay" d="M980 542l-8 8 3-2c1-2 3 0 5-1-2 2-3-1-5 1 2 0 2 2 6 1-4 1-4-2-7 0l-3 2a6 6 0 01-4 2c2-1 2 0 4-3l8-8zm-13 11h-1 1z"/><path class="as" d="M985 634c-3-3-3-11-3-15l5-9c3-4 1-4 5-4 6 1 4 8 4 11-1 4 0 14-2 18h-6a5 5 0 01-3-1zm9 1c2-3 1-14 2-17 0-4 2-10-2-12h-5l-6 11c-2 3-1 13 1 16l4 2h6z"/><path class="ay" d="M988 635h6c2-2 2-9 2-11v-10c1-3 1-8-4-8-2 0-2-2-4 3-2 3-6 8-6 10 0 5-1 16 6 16z"/><path class="au" d="M989 606a14 14 0 00-1 3c-2 3-6 8-6 10 0 4-1 13 4 15 3 0 4 1 5-6v-10l-1-11z"/><path class="bd" d="M987 612c-3 4-6 15-3 18l1 1-1-1c-2-4 1-13 3-18z"/><path class="as" d="M985 614l5 5c2 2 8 3 3 1-3 0-3-3-5-4-3-2-3-1 3-2l-5 1-1-1zM951 635v14c0 3-3 2-5 2l-7-1c-2-1-1-16-1-19 1-4-1-7 4-8h9v12zm-7-12c-7 0-5 3-5 10-1 2-2 16 0 16l7 2c1 0 5 0 5-2v-14-12h-7z"/><path class="ay" d="M951 623h-9c-4 1-3 3-3 7l-1 12 1 8 7 1c1 0 5 1 5-2a175 175 0 010-18v-8z"/><path class="au" d="M939 629l1-4c1 0 1-2 5-2 2 0 4 0 5 3v13c-2 2-6 5-2 6 2 0 4 3 0 5-3 1-3 1-5-2l-3 2a8 8 0 01-1 0c-2-1-1-7-1-8l1-12v-1zm1 2a1 1 0 011 1l1-1a8 8 0 010-2c1-5-2 1-2 2zm8 13c-1 1 0 0 0 0a2 2 0 001-3c-2-1-1 2-2 3z"/><path class="bd" d="M939 636l1 11v-1c1-4 0-7-1-10z"/><path class="ay" d="M947 623a6 6 0 01-2 2l-1 5v-1s-1-3 1-4l2-2z"/><path class="as" d="M996 510v13c0 3-4 3-6 2l-7-1c-2 0 0-16 0-18 0-4-2-8 3-9h9l1 13zm-7-13c-8 0-6 4-6 10v17l7 1c2 0 5 1 5-2v-13-13h-6z"/><path class="ay" d="M995 497h-9c-4 1-3 3-3 7l-1 12 1 8 7 1c1 1 6 1 5-2a175 175 0 011-18l-1-8z"/><path class="au" d="M983 504l1-4s1-3 5-2c3 0 4 0 5 2v13c-2 2-6 6-1 6 1 1 3 3-1 5-3 1-2 1-5-1l-2 1a8 8 0 01-2 0l-1-8 1-12zm2 1a1 1 0 010 1h1a8 8 0 011-2c1-6-3 1-2 1zm8 13a2 2 0 001-3c-2 0-2 2-2 3h1z"/><path class="bd" d="M984 510c-2 0 0 10 0 12v-2-10z"/><path class="ay" d="M991 497a6 6 0 01-1 2c-2 1-2 4-2 5v-1l1-4 3-2h-1zM985 614l5 5c2 2 8 3 3 1-3 0-3-3-5-4-3-2-3-1 3-2l-5 1-1-1z"/><path class="h" d="M1161 502c0 4 2 9 7 10-1 3-2 7-1 11s4 6 7 6c-2 6 2 14 9 16 0 3 1 6 3 8s6 4 9 2a10 10 0 0012 7l4 7c2 2 5 1 7-1a6 6 0 007 7 22 22 0 013-1l12 5c4 1 5-4 10-6 3-1 7 2 10 3s9-2 7-5l12 3c4 0 7-4 7-8 3 4 10 0 9-5a9 9 0 0015-9 7 7 0 107-13 7 7 0 008-12c2-1 5-2 6-4s0-6-2-6c8-1 12-12 7-18a8 8 0 104-15 9 9 0 00-4-18c2-4-2-10-7-10a7 7 0 00-7-12c5-5 0-14-6-14 1-3-1-6-4-8s-6-1-10-1c0-3-1-7-3-10s-7-2-9 1c-2-7-12-11-18-7-3-6-13-6-15 0-7-6-19-5-24 2-5-5-15-3-17 4-6-4-16 1-18 8-5-3-13 2-14 8a13 13 0 00-7 16c-3 1-5 6-5 10a4 4 0 01-2 4c-3 1-6 3-6 9l2 10c0 1-9 5-2 14l-3 12z"/><path class="f" d="M1323 435c-1-3-4-5-7-5 1-3-1-6-4-8s-6-1-10-1c0-3-1-7-3-10s-8-2-9 1c-2-7-12-11-18-7-3-6-13-6-15 0-7-7-19-5-24 2-5-5-15-3-17 4-6-4-17 1-18 8-5-3-13 2-14 8a13 13 0 00-7 16c-3 1-5 6-5 10a4 4 0 01-2 4c-3 1-6 3-6 9-1 4 2 9 2 10s-9 5-2 14l-3 12c0 4 2 9 7 10-1 3-2 7-1 10s4 7 7 7c-2 6 2 14 9 16 0 3 1 6 3 8s6 4 9 2a10 10 0 0012 7l4 7c2 2 5 1 7-1a6 6 0 007 7 22 22 0 013-1l12 5c4 1 5-4 10-6 3-1 7 2 10 2s9-1 7-5c4 2 8 4 12 4a21 21 0 001-4 4 4 0 00-1-2c0-2-2-2-3-3l-6-6c-4-2-8-1-12-1s-10-3-8-7c1-5 9-3 13-6a4 4 0 00-4-3c0-3 4-4 7-5s5-5 4-7c-2-3-7 0-9-3-2-2 0-5 3-6l8-1c3 0 6-3 6-6-2-4-10-3-10-7l1-7c-1-2-4-2-6-1l-6 5a7 7 0 01-6-12l8-2c2-1 5-3 4-6l-6-2a26 26 0 0114-12c-3-1-3-6 0-8s6-3 9-3c8-1 22-2 28-7-7-8 6-14 13-16z"/><path class="g" d="M1204 533l-6-7-9-15c-1-2-1-7 1-6-1-3-2-9 1-9a15 15 0 01-10-11c-1-3-1-6 1-8l3-3a8 8 0 002-8l4-3-1-3a4 4 0 00-1-7c2-1 2-2 2-4 3-6 12-10 18-6 3-4-1-10 2-13 2-3 6-1 10-1s7-2 11-4c5-1 10 0 15 2 4 2 8 4 11 9s2 10-2 13l-9 2-15 1a10 10 0 00-5 1 6 6 0 00-2 7 8 8 0 007 5c-1 3-4 5-8 6l-9 2c-3 1-5 5-4 8a8 8 0 017 2 22 22 0 00-7 11 102 102 0 0021 12l-6 4-4 5c-1 2 3 4 4 3l-1 7c-1 3-3 4-6 6-4 3-10 5-15 2z"/><path class="g" d="M1301 432l-2-1-4-3-6-2c-2-1-3-2-3-4l1-3a3 3 0 00-2-2 14 14 0 00-10 0h-5v-2c-1-3-3-4-5-5a18 18 0 00-7 1c-4 0-10 0-11 5a1 1 0 001 1h1a5 5 0 012 1c3 1 6 3 6 6a7 7 0 000 2c1 2 3 2 4 2l4-1c3 1 3 5 1 8s-3 5-3 8a24 24 0 006 2l-3 3c-1 1-2 4-1 5 1 2 4 1 6-1s4-4 6-3a10 10 0 014 1 14 14 0 007 1 4 4 0 002-1c3-2 0-7 3-9 1-1 3 0 4 1a5 5 0 004-10zM1231 495c-2 1-3 4-1 5a7 7 0 002 1c3 1 5 4 7 7v5l-3 1a5 5 0 00-2 7 25 25 0 012 2c1 2 0 4-1 6l-3 8a11 11 0 01-2 3c-2 2-4 2-6 2-4 1-9 2-13 1a26 26 0 00-5-2c-2 0-4 1-4 3-1 2 1 4 3 4l7 1a4 4 0 012 1l1 5a7 7 0 0013 4 22 22 0 005 7c2 1 5 2 7 1s4-4 3-6l-4-4a7 7 0 010-10 7 7 0 013-2c2 0 4 0 5-2a4 4 0 000-2 17 17 0 00-2-7c3-1 7-3 8-6s0-9-3-9l-5-1v-3l2-4c1-3-4-5-6-8l-1-6c-1-3-6-4-9-2zM1171 501a2 2 0 000 2l2 1c2 0 4 2 4 4a32 32 0 010 7 16 16 0 001 8c1 2 3 4 5 4l2 5a7 7 0 002 4 3 3 0 004 0c1-2 0-4-1-5l-3-5v-5l-3-8c-1-3-2-5 0-7a4 4 0 001-2 3 3 0 00-1-2c-2-6-11-9-13-1zM1188 432a6 6 0 003 1l-1 2-3 1a6 6 0 00-2 4l-2 6a4 4 0 000 2c1 2 3 2 4 0a7 7 0 001-4 8 8 0 012-4c2-3 9-1 11-4l1-6c0-2 2-4 3-3 3 1 6-1 8-3l2-4a3 3 0 00-1-1c-2-2-6-1-8 1s-5 4-7 4c-5 0-10 1-11 8z"/><path class="ar" d="M1228 702v-22c0-4 0-7-2-11a13 13 0 00-6-7c-7-3-15-1-22-1a75 75 0 01-11 0 34 34 0 00-6-1 39 39 0 00-6 1 22 22 0 01-5 1l-7-1h-11a3 3 0 00-1 0l-24-1h-12l-11 1a4 4 0 00-1 1 31 31 0 00-5-1 34 34 0 01-7 0 37 37 0 00-7-1h-8l-7 1-6 1a7 7 0 010 1l-1 8c-1 2-4 5-6 4h-1a7 7 0 011 3 22 22 0 010 4c0 4 2 7 3 10a2 2 0 01-1 3v1a2 2 0 010 1 10 10 0 01-2 4 30 30 0 00-1 4 12 12 0 000 4 18 18 0 002 5 5 5 0 005 0 22 22 0 0110-1l11 1 24 1h75l25-1h13a8 8 0 005-2 8 8 0 002-5l1-2c0 1 0 0 0 0a3 3 0 000-3z"/><path class="as" d="M1097 660c-5 0-8-2-8 4l-1 6c0 2 8 2 10 2 1 0 11 0 12-2l-1-9c-3-2-6-1-8-1zm0 0h4c2 0 5-1 8 1 2 1 1 8 1 9 0 3-10 2-12 2s-10 1-10-2v-6c0-6 4-4 9-4z"/><path class="at" d="M1097 660c-4 0-9-2-8 4 0 6-6 8 8 8 2 0 13 1 13-2v-6c0-3-1-3-3-4a9 9 0 00-5 0 42 42 0 01-5 0z"/><path class="au" d="M1097 660h-7a3 3 0 00-1 3l1 4c2 2 0 3 5 3 2 0 8 2 9 0s3 5 5-2c0-1 0-6-2-8a9 9 0 00-5 0 43 43 0 01-5 0zm8 2v1h-3l3-1zm2 5v1c-2-2 0-1 0-1zm-17 1c0 1 1 3 3 3l-4-1c0-1 0-3 1-2z"/><path class="av" d="M1143 664l1 9c1 0 5 3 6 0 0-2 1-10-1-12 0-1-6-4-6 3zm0 0c-1-6 5-5 6-3 2 1 1 10 1 12 0 3-4 1-6 0l-1-9z"/><path class="aw" d="M1143 664l1 6 1 3c1 1 2 2 4 1l1-7-1-6c-4-3-6-1-6 3z"/><path class="ax" d="M1150 664l-1-3c-3-2-5-2-6 0a13 13 0 011 2v6c0 3 2 2 3 3a2 2 0 002-1l1-3a20 20 0 000-4z"/><path class="av" d="M1056 692l-1 9s4 4 5 1c1-2 4-9 3-11 0-1-6-6-7 1zm0 0c0-6 6-4 7-2s-1 10-2 12c-1 3-5 0-6-1s1-7 1-9z"/><path class="aw" d="M1056 692l-1 6v3c2 1 2 3 5 2l2-6c1-2 2-6 1-7-4-3-6-2-7 2z"/><path class="ax" d="M1063 694v-4c-3-2-5-2-6-1a15 15 0 010 2l-1 6c-1 4 1 2 2 4a2 2 0 002-1l2-3a19 19 0 001-3z"/><path class="as" d="M1148 702c-7 1-8-1-15-1-4 0 0-15 6-12h4c1 0 7 0 7 2 1 1-1 6-1 7l-1 4zm0 0l1-4 1-7-4-1-7-1c-6-3-9 12-6 12 7 0 8 2 15 1z"/><path class="ay" d="M1148 702c-7 1-9-1-15-1-3 0 0-16 6-12l7 1c5 1 5-1 3 7l-1 5z"/><path class="au" d="M1132 699c0-5 3-13 8-10l6 1 4 1a2 2 0 010 1c-4-1-3 2-2 2a3 3 0 002 0l-1 3a30 30 0 010 4 5 5 0 01-3-1c-1-1-2-8-1 0-4 1-3-4-3-5 0-7-1-2-3 0-4 7 1-3 1-4-2-2-3 3-4 4-2 4-3 5-4 4z"/><path class="av" d="M1179 703c-3 0-10 2-9-4v-5c0-3 3-2 6-3 2 0 12-3 12 0 1 2 2 9-1 10a30 30 0 01-4 1l-4 1zm0 0l4-1 5-2v-9c0-2-11 0-13 1-7 0-3 1-4 6-2 7 3 5 8 5z"/><path class="aw" d="M1179 703c-2 0-11 3-8-5 1-4-4-6 4-7 3 0 13-3 13 0 1 13 0 9-8 12a4 4 0 01-1 0z"/><path class="ax" d="M1177 691l4-1a6 6 0 01-1 3c0 1 4 3 5-3h1l2 1v2a19 19 0 00-1 4c0 3-4 5-7 4-1-1-10 3-7-2-1-3-2-3 2-6-1-2 0 1 2-2z"/><path class="av" d="M1222 687c-3 1-10 2-9-3v-5c0-4 2-3 6-4 2 0 12-3 12 0 0 2 1 9-1 10a33 33 0 01-4 1l-4 1zm0 0l4-1 4-1c2-1 1-9 1-10-1-2-11 1-13 1-8 1-3 2-4 7-3 6 3 5 8 4z"/><path class="aw" d="M1222 687c-2 0-12 3-9-4 2-4-3-7 5-7 3 0 13-4 13-1 1 13 0 9-8 12a4 4 0 01-1 0z"/><path class="ax" d="M1220 676l4-1a5 5 0 01-1 2c0 1 3 4 5-3l3 1v3a19 19 0 00-1 3c0 3-4 5-7 4-1 0-10 3-7-1-2-3-2-4 2-6-1-3 0 1 2-2z"/><path class="as" d="M1096 698c4-7 4-9-6-9-7-1-6 1-7 6 0 2 0 2 2 3 2 2 9 1 11 0zm0 0c-2 2-10 2-11 1l-2-4c1-5-1-7 7-6 10 0 10 2 6 9z"/><path class="az" d="M1096 698c2-4 6-8-2-9-12-1-10 0-11 7l2 3c0 1 10 1 11-1z"/><path class="ba" d="M1099 693c0-2-1-4-5-4-11-1-10 0-11 5a1 1 0 001 0c6 1 3 3 8 2 3-1 2-2 3-1s3 0 4-2zm-5-2v1c-8-1-6-2 0-1z"/><path class="as" d="M1228 699c3-7 4-8-7-9-7 0-6 2-6 6-1 2-1 2 1 4s10 1 12-1zm0 0c-2 2-11 2-12 1l-2-4c1-5 0-6 7-6 11 1 11 2 7 9z"/><path class="az" d="M1228 699c1-3 5-8-3-9-12-1-9 1-11 8l2 2c1 1 10 1 12-1z"/><path class="ba" d="M1230 694c0-2 0-3-5-4-10-1-10 0-10 5a1 1 0 000 1c7 0 3 2 9 1 2 0 1-2 2-1s3 0 4-2zm-5-2c1 0 2 1 0 1-8 0-6-2 0-1z"/><path class="as" d="M1152 694h15c2-1-2-5-5-5h-4c-6 0-4 1-6 4v1zm0 0v-1c2-3-1-4 6-4h4c3 0 8 4 4 5h-14z"/><path class="ay" d="M1152 694c7 1 19 1 15-3-4-3-5-2-9-2-7 0-4 1-6 4v1z"/><path class="au" d="M1168 693l-1-2c-4-3-5-2-9-2-7 0-4 1-6 3h7c7 4 2-2 7 0a4 4 0 002 1z"/><path class="av" d="M1095 676c-4 2-6-1-6 3l-1 5c0 3 5 2 6 2 4 1 7 2 7-3v-8c-1-1-5 1-6 1zm0 0c1 0 5-2 6-1l1 8c-1 5-4 4-8 4-1-1-7 0-7-3l1-5c1-4 3-1 7-3z"/><path class="ax" d="M1095 676c-3 2-7-2-6 4 0 2-5 7 5 6 1 0 8 4 7-7 0-3 2-6-5-3h-1z"/><path class="aw" d="M1095 676c-3 2-6-1-6 2a5 5 0 010 1v1l-1 3c1 2 9 0 11 2 1 2 2-1 2-2a18 18 0 000-4 3 3 0 00-3 0c-2 0-2-1-3-3z"/><path class="as" d="M1081 702c-7 1-8-1-14-1-4 0 0-15 5-12h4c1 0 6 0 7 2l-1 7-1 4zm0 0l1-4 1-7-4-1-7-1c-5-3-8 12-5 12 6 0 7 2 14 1z"/><path class="az" d="M1081 702c-7 2-9-1-14-1-4 0 0-16 6-12l6 1c4 1 4-1 3 7l-1 5z"/><path class="ba" d="M1067 692c1-3 3-4 6-3l6 1c4 0 4-1 4 4a7 7 0 01-2 0c-2-1-5 0-6 1-1 5-2 1-2 3-1 1-5 0-4-2l-2-4zm15 4a17 17 0 00-3 0c-2 0-1 1-2 3-1 1 0 3 3 2a14 14 0 002-1v-3z"/><path class="bb" d="M1201 688c-2 0-12 0-13-2-1-1-3-5-2-7 0-6 10-5 15-5 2 0 11 1 11 4v6l-7 2-4 2zm0 0l4-2 7-2a55 55 0 000-6c1-5-17-4-20-4-7 1-9 7-4 13l13 1z"/><path class="az" d="M1201 688l-13-1s-9-13 7-13c3 0 18 0 17 4 0 7 2 6-5 8l-6 2z"/><path class="ba" d="M1187 684c-2-3-3-9 5-10l2 1a3 3 0 004-1c4 0 12 0 14 3-2 1 4 6-8 7-5 1-3-1-2-2 2-5-3 2-3 2-5 3-5-5-8-1-2 1-3 2-4 1z"/><path class="as" d="M1151 701c5 2 14 4 17 2 3-1-1-6-5-7h-4c-8-1-5 0-8 3v2zm0 0v-2c3-3 0-5 8-3h4c4 1 9 7 5 8s-12-1-17-3z"/><path class="ay" d="M1151 701c8 3 22 5 17-1-3-5-4-3-9-4-8-2-5 0-8 3v2z"/><path class="au" d="M1168 700c-3-5-5-3-9-4l-2-1a2 2 0 01-2 1 3 3 0 00-2 3c2 3 7-3 11 0 0 4-5 2-6 2 0 2 9 1 9 1 1 1 1-1 1-2z"/><path class="as" d="M1215 671c4 1 12 3 13-1 0-3-6-11-9-11l-4 1c-6 0-3 1-2 7l2 4zm0 0c-2-1-2-2-2-4-1-6-4-7 2-7l4-1c3 0 11 8 9 12s-9 2-13 0z"/><path class="ay" d="M1215 671c8 3 18 2 10-7-6-7-6-4-10-4-6 0-2 2-2 7l2 4z"/><path class="au" d="M1225 664c-6-7-6-4-10-4h-1l-1 1c-1 1 0 5 1 6 4 5 3-6 8-3 2 5-2 4-3 4 1 4 7 0 7 0l-1-4z"/><path class="av" d="M1156 673l-4-1c-2-2 0 1 0 2l-1 1 2-1h2a3 3 0 002-1h-1zm0 0c2 0 0 2-1 1a1 1 0 01-1 1c-3 0-1 0-2 1-3 1-1-2-1-3 0 0-1-3 1-2 3 3 1 1 4 2z"/><path class="aw" d="M1156 673c-3-1-1 1-4-2-2-1-1 2-1 3v2l3-2h1c1 1 3-1 1-1z"/><path class="av" d="M1155 675l-1 1c-1 3-1 7-4 3-1-1-3-2-1-3s0 2 4 0l2-1zm0 0a3 3 0 00-1 0c-1 1-4 3-4 1 0 0-2 1-1 2s3 4 4 1l2-4zm0 0z"/><path class="aw" d="M1155 675h-2l-3 1c0-1-3 1-1 2 1 1 3 5 4 1a21 21 0 012-4z"/><path class="av" d="M1125 673h8c4 0-1 2-3 2l-5-1v-1zm0 0v1c5 1 5 2 9-1a4 4 0 00-1 0h-8z"/><path class="ay" d="M1125 673h9c-4 3-5 1-9 1v-1z"/><path class="av" d="M1064 696l-1 7c0 4-2-1-1-3l2-4zm0 0c-2 4-3 4-1 8a4 4 0 000-1c0-2 2-6 1-7z"/><path class="ay" d="M1064 696l-1 6v2c-2-4-1-4 1-8z"/><path class="av" d="M1172 688c2 0 3 1 2 2s-5-1-8-1c-2 0-5-1 1-1h5zm0 0a22 22 0 01-5 0c-7-1-4 2-1 2l5 1c4 1 5-4 1-3z"/><path class="ay" d="M1172 688c1 0 3 0 2 2-1 3-4-1-8-1-2 1-5-2 1-1a18 18 0 005 0z"/><path class="av" d="M1167 695a21 21 0 00-2 1c1 1 2 0 4 3l-2-4zm0 0c2-1 4 8 1 4-2-2-7-4-1-4z"/><path class="ay" d="M1167 695l-3 1 2 1c3 1 3 4 4 2l-3-4z"/><path class="av" d="M1227 701a20 20 0 00-3 1c2 1 2 0 5 3a2 2 0 000 1c1-1-1-5-2-5zm0 0c2-1 4 8 1 4-2-2-7-3-1-4z"/><path class="ay" d="M1227 701l-3 1 2 1c2 1 3 4 3 2l-2-4z"/><path class="av" d="M1162 706l2 3h2c1 0 7-3 5-4h-7l-2 1zm0 0h1c1-2 4-1 6 0 4 0-1 2-2 2l-3 1c0-2-1-1-2-3z"/><path class="aw" d="M1162 706c1 1 2 1 2 3l5-1s4-2 0-3c-1 0-5-1-6 1h-1z"/><path class="as" d="M1073 687h9c2 1 7 0 6 1l-15 1c-2-1-2-1 0-2zm0 0c-2 1-2 1 0 1h15l-5-1a24 24 0 00-2 0h-8z"/><path class="az" d="M1073 687h9a19 19 0 004 0c3 0 4 1-2 1h-12s-2 0 0-1h1z"/><path class="av" d="M1101 689a23 23 0 00-2-1l1 5a2 2 0 000 1s2-4 1-5zm0 0c2 1-2 9-2 4 0-3-3-8 2-4z"/><path class="ay" d="M1101 689l-3-1 1 2c1 2-1 5 1 4 0 0 2-4 1-5z"/><path class="av" d="M1098 702a23 23 0 003 1c-1-2-2-2-2-6a3 3 0 000-1c-1 0-2 5-1 6zm0 0c-2-1 2-11 2-4 0 3 3 9-2 4z"/><path class="ay" d="M1098 702s2 2 3 1l-1-2c-1-3 0-7-2-5v6z"/><path class="bb" d="M1090 676l4-3 4-1c2 0 3 1 1 2a51 51 0 01-5 2h-4zm0 0h4l6-3a7 7 0 00-1 0h-5l-4 3z"/><path class="az" d="M1090 676l4-3h4s4-1 0 1a13 13 0 01-2 1l-2 1a3 3 0 01-1 0h-3z"/><path class="as" d="M1091 687l5 1c2 0 1 2-1 1l-2-1s-5 0-3-1h1zm0 0h-1c-2 1 4 1 5 1a2 2 0 002 1l-1-1-5-1z"/><path class="ay" d="M1091 687l5 1c1 0 2 1-1 1l-2-1a24 24 0 00-2 0c-2 0-1-1 0-1z"/><path class="as" d="M1067 702l5 1c1 0 1 2-1 1l-2-1s-5 0-4-1h2zm0 0h-1c-2 1 4 1 5 1a2 2 0 002 1l-1-1-5-1z"/><path class="ay" d="M1067 702l5 1c1 0 2 1-1 1l-2-1a24 24 0 00-2 0c-2 0-2-1 0-1z"/><path class="av" d="M1065 687a45 45 0 000 6c1-1 1-4 4-5 1-1-2-1-2-1h-2zm4 1zm-4-1h3c2 0 2 1 1 1l-3 5c-2 2-1-6-1-6z"/><path class="aw" d="M1065 687v3c0 1 0 4 1 2l3-4s1-1-1-1h-3z"/><path class="av" d="M1126 688h2l2 1a9 9 0 002 0c2 0 1 4 0 4l-4-3s-3-1-2-2zm0 0c-1 1 2 1 4 2l2 3v-3a9 9 0 01-2-1l-2-1h-3zm6 5"/><path class="aw" d="M1126 688h2l2 1a6 6 0 002 0c2 0 0 3 0 3 0 2-2-1-2-2a10 10 0 00-4-1v-1z"/><path class="av" d="M1127 687c2 0 4 2 5 1l1 1c1-1-1-1-2-2-1-2 0-2-3-1zm0 0a3 3 0 011-1h3c1 3 2 1 2 2 1 2-1 0-1 0-1 1-4-1-5-1z"/><path class="aw" d="M1127 687l4 1 2 1s1-1-1-1c-1 0-1-4-3-3l-2 2z"/><path class="as" d="M1103 673v4c0-1 0-2 2-3a3 3 0 000-1h-2zm0 4v-4h1c3 0 0 1 0 1l-2 3 1-4z"/><path class="ay" d="M1103 673l-1 3c0 2 2-2 2-2 1-1 2-1 0-1h-1z"/><path class="as" d="M1088 673l-1 3 2-3a2 2 0 001 0h-2zm-1 3l1-3h1c3-1 0 1 0 1l-2 3s0-5 1-4z"/><path class="ay" d="M1088 673l-1 3c0 2 2-2 2-2 1-1 2-1 0-1h-1z"/><path class="av" d="M1101 685c1 1-1 2 2 3 2 1-1-3-1-3a3 3 0 00-1 0zm1 0h-1a1 1 0 011 0l2 2c0 2-1 2-2 2-3-1 0-3-1-4z"/><path class="aw" d="M1101 685c1 1-2 2 2 4l1-1-2-3h-1z"/><path class="as" d="M1148 689l4-4c1-1 1-1 2 1l1 1c0 1-2 1-2 3-1 1-2 0-3-1h-2zm0 0h2l2 1 3-3-1-1c-1-1-1-2-2 0l-4 3z"/><path class="ay" d="M1148 689l4-4c1-1 1 0 2 1l1 1c1 1-2 1-3 3s-2-1-2-1h-2z"/><path class="as" d="M1130 702c3 2 2 5 3 2 1-1 4 0 3-2h-6zm0 0s0-2 2 0 3-1 4 0c2 2-2 2-2 2-2 4-1 0-4-2z"/><path class="ay" d="M1130 702c3 2 2 6 4 2 0-1 3 0 2-2h-6z"/><path class="as" d="M1149 702h3c5 1 6 3 3 2h-3c-2-1-4 0-3-2zm0 0v1l5 1h2a18 18 0 00-4-1l-3-1z"/><path class="ay" d="M1149 702l3 1 4 1a7 7 0 00-2 0l-5-1v-1z"/><path class="av" d="M1188 702h3l2 1a9 9 0 002 0c2 0 0 4 0 4l-4-4s-4 0-3-1zm0 0l5 2 2 3v-4a8 8 0 01-2 0l-2-1h-3zm7 5"/><path class="aw" d="M1188 702h3l2 1h2c2 0 0 3 0 3 0 2-2-2-3-2a10 10 0 00-3-1l-1-1z"/><path class="av" d="M1212 686v3h-2c-1 0-9 0-7-1l7-3a7 7 0 012 1zm0 0c-2-1-5 1-7 2-4 1 2 1 3 1h4v-3z"/><path class="aw" d="M1212 686v3h-6s-5 0-1-2c1 0 5-3 7-1z"/><path class="av" d="M1204 703l7-1c4-1 0 2-3 2h-4v-1zm0 0v1c4 0 5 1 8-2a5 5 0 00-1 0l-7 1z"/><path class="ay" d="M1204 703l6-1h2c-3 3-4 2-8 2v-1z"/><path class="av" d="M1207 673h7c4 0 0 3-3 2l-4-1v-1zm0 0v1c4 1 5 2 8 0a4 4 0 00-1-1h-7z"/><path class="ay" d="M1207 673h7l2 1c-4 2-5 1-9 0v-1z"/><path class="av" d="M1231 689l-7 1c-4 0 0-3 3-2l4 1zm0 0c-5-1-5-2-8 0a4 4 0 001 0h7z"/><path class="ay" d="M1231 689h-7-2c4-3 5-1 9 0z"/><path class="as" d="M1082 703h14c2-1-2-3-4-3h-4c-6 0-4 0-6 2v1zm0 0v-1c2-2-1-2 6-2h4c3 0 7 2 4 3h-14z"/><path class="az" d="M1082 703c7 1 19 1 14-2-3-2-4-1-8-1-7 0-4 0-6 2v1z"/><path class="ba" d="M1097 703l-1-2c-3-2-4-1-8-1-7 0-4 0-6 2h7c7 3 2-2 6 0a4 4 0 002 1z"/><path class="bb" d="M1182 688l3-1c1-1 3 0 4 1s2 1 0 1a36 36 0 01-4 0l-3-1zm0 0l3 1h5a5 5 0 00-1-1l-3-1-4 1z"/><path class="az" d="M1182 688l3-1c1-1 3 1 4 1 0 0 3 1-1 1a10 10 0 01-1 0h-2a2 2 0 01-1 0l-2-1z"/><path class="bb" d="M1185 683l-1 3h2v-1l-1-2a2 2 0 000-1v1zm0 0v1a1 1 0 011 0v2h-3l2-3z"/><path class="az" d="M1185 683l-1 3h2v-3s-2-2-1 0z"/><path class="bb" d="M1183 675h3c1 1 3 0 4-1s2-1 1-1a44 44 0 00-6 0l-2 1a1 1 0 000 1zm0 0c0-2 2-2 2-2l6 1a5 5 0 01-1 0c-1 0-3 2-4 1h-3z"/><path class="az" d="M1183 675h3c1 1 3-1 4-1 0 0 3-1-1-1a10 10 0 00-1 0h-3a3 3 0 00-1 0l-1 2z"/><path class="av" d="M1182 689a21 21 0 00-3-1l-4 1a6 6 0 003 1l4-1zm0 0l-4 1a6 6 0 01-3-1l3-1a9 9 0 014 1z"/><path class="aw" d="M1182 689l-2-1a3 3 0 00-2 0 15 15 0 00-3 1l1 1a4 4 0 003 0l3-1z"/><path class="av" d="M1191 699a25 25 0 00-2 1l5 2-3-3zm0 0c1-1 6 6 2 3-2-1-8-1-2-3z"/><path class="ay" d="M1191 699l-3 2h3c2 0 4 3 3 1 0-1-2-4-3-3z"/><path class="bb" d="M1114 674c-7 0-10-1-11 6 0 3 0 9 4 7h13c7 0 10-2 9-9 0-4-4-3-7-4a30 30 0 00-8 0zm0 0h8c4 0 7 0 7 4 1 7-2 10-9 9l-4 1h-9c-4 1-5-5-4-8 1-7 4-6 11-6z"/><path class="az" d="M1114 674h-8c-4 2-5 16 1 13 3-1 7 2 11 0 1-1 12 3 11-8 0-3 0-4-4-5h-11z"/><path class="ba" d="M1114 674a12 12 0 01-2 0c-2 5-3 2-2 0a12 12 0 00-4 0 3 3 0 00-1 2c-1 4 0 12 3 9 2-2 8 2 8-1 0-6 1-9 2-10a18 18 0 00-4 0zm15 8c-1 1-2-1-5 3-2 3-5 1-3-1 0-1 4-7 0-2s-5 0-4-1l2-7h6c4 1 4 2 4 5a14 14 0 010 3z"/><path class="bc" d="M1107 675l3-1v2c0 1 0 2 2 1a4 4 0 001-1c0 1-1 2-3 2s-1-2-1-3a6 6 0 01-2 0zm3 0z"/><path class="bb" d="M1071 658c-6 0-9-1-10 6-1 3-1 9 4 8 3-2 5 0 9 0l4-1c7 1 9-2 9-9-1-4-4-3-7-4a31 31 0 00-9 0zm0 0h9c3 1 7 0 7 4 1 7-2 10-9 10h-13c-5 1-5-5-4-8 1-7 4-6 10-6z"/><path class="az" d="M1071 658l-7 1c-4 1-5 15 1 13 3-2 6 1 10-1 2 0 12 4 12-8 0-3 0-4-4-4l-12-1z"/><path class="ba" d="M1071 658a12 12 0 01-1 0c-2 5-3 2-3 0a12 12 0 00-3 1 3 3 0 00-2 1c0 5 0 12 3 9 2-2 9 2 8-1 0-6 2-9 3-10a18 18 0 00-5 0zm16 8c-1 1-3 0-5 3s-5 2-4-1l1-2c-4 6-5 1-4-1 0 0-1-3 1-7l7 1c4 0 4 2 4 4a14 14 0 010 4z"/><path class="bc" d="M1064 659l3-1v2c0 1 1 2 2 1a4 4 0 002-1l-3 2c-2 0-2-2-2-3a6 6 0 01-2 0zm3 0z"/><path class="bb" d="M1140 688c-7 0-9 0-10-7 0-3 0-5 5-6l9-1 7 8c1 1 0 4-3 5l-8 1zm0 0a41 41 0 006 0c5-1 7-5 5-7l-7-7h-10c-4 2-4 3-4 7 1 7 2 7 10 7z"/><path class="az" d="M1140 688c-5 0-6 0-9-2-1-1-2-9 0-10 6-3 5-2 12-2 3 0 5 5 8 8v3c-2 3-7 3-11 3z"/><path class="ba" d="M1131 684v-8c6-3 5-2 12-2a3 3 0 012 0c0 2-1 4 2 4a17 17 0 004 4c-4 6-6 1-9 2-3 2-4-1-8 1l-3-1zm5-7c-5 0-3 5-1 2l2-1-1-1z"/><path class="bc" d="M1137 675c1-1 4-2 6-1s0 3 1 3l2 1c-2 0-3 0-3-2s-5-1-6-1z"/><path class="bb" d="M1219 717c-7 0-9-1-9-7 0-4 0-5 4-7h9l7 7c1 2 0 5-3 6l-8 1zm0 0a40 40 0 007 0c4-1 6-5 4-7s-4-6-7-7h-9c-5 2-5 3-5 7 1 6 3 7 10 7z"/><path class="az" d="M1219 717c-4 0-6 0-8-2-1-1-2-9 0-10 5-3 4-2 11-2 3 0 5 5 8 7v4c-1 3-7 3-11 3z"/><path class="ba" d="M1210 713c-1-3-1-7 1-8 5-3 4-2 11-2a3 3 0 012 0c0 2 0 4 2 4l1-1a17 17 0 003 4c-3 7-6 2-9 3-3 2-4-1-7 0h-4zm5-8c-4 0-2 5-1 2h2l-1-2z"/><path class="bc" d="M1216 704c2-1 5-2 6-1l2 3 2 1c-2 0-4 0-4-2s-5-1-6-1z"/><path class="bb" d="M1170 674c-6 1-15-2-16 7 0 3 1 6 5 6 5-1 20 2 23 0 1-1 6-13-3-13h-9zm0 0a78 78 0 0110 0c7 0 4 11 3 13-3 2-20 0-24 0-6 1-7-7-4-11 3-3 10-2 15-2z"/><path class="az" d="M1170 674c-1 0-10-1-13 1-5 3-4 13 2 12 4-1 22 3 24-1 2-3 4-12-3-12h-10z"/><path class="ba" d="M1158 679c5-2 12 1 4 1 0 0-6 1-5-1h1zm12-5c-1 0-10-1-13 1a8 8 0 00-3 7 3 3 0 003 2h6c5 0 8-1 12-4 3-2 9 0 6 0-4 0-9 0-9 5h11c2-3 3-11-3-11h-10z"/><path class="bc" d="M1165 683l7-3c2-1 6-3 8-1a5 5 0 001 0h-1c-2-1-5 0-6 1-4 2-4 3-9 3z"/><path class="as" d="M1154 661l10-1c3-1 15-2 16 0l1 8c1 4-3 3-6 4l-13 1c-5 0-11 1-11-7 1-3 0-4 3-5zm0 0c-3 1-2 2-2 7 1 6 6 4 10 5s8-1 13-2c3 0 7 1 6-3l-1-7c-1-2-11-1-13-1l-13 1z"/><path class="ay" d="M1154 661l9-1c3 0 16-2 17 0l1 8c1 2 0 3-2 3l-17 2c-2-1-10 1-10-5v-3c0-2 0-3 2-4z"/><path class="au" d="M1154 661l9-1c3 0 16-2 17 0l1 8a2 2 0 010 2 41 41 0 01-6 1h-3c-2-1-3-3-2-4l2-1c1-1 0 0 0 0h3l2-1h2l-1-1a7 7 0 01-4 1h-5c-1 2-2 1-3 2s-6 2-8 1l-6-1v-2c0-2 0-3 2-4z"/><path class="bd" d="M1152 664c1-3 5-2 7-3 4-1 4-2 9-2a17 17 0 017 2h1-2c-5-1-9-1-13 1-4 1-6 0-9 2z"/><path class="as" d="M1115 706c0 2 2 10-2 10-5 1-26 1-27-5l1-6c3-2 23-1 27 0a8 8 0 011 1zm0 0a6 6 0 00-1-1c-3-1-24-2-27 0-2 1-1 5-1 6 0 7 22 6 27 5 4 0 2-8 2-10z"/><path class="az" d="M1115 706c0 3 2 10-2 10-5 1-27 2-27-5s-1-7 13-7l15 1a7 7 0 011 1z"/><path class="ba" d="M1115 706v2a1 1 0 01-1 1c-3-1 0 4-6 0-6 3-6 1-11-1-2-1-5 6 1 3h5c2 0-2 2-5 3v2c-6 0-12-2-12-5 0-6-1-7 5-7 0 1 0 2 3 0h5l15 1a7 7 0 011 1zm1 6c-1-2-3-3-4-1-2 2-4 0-4 1 1 5 2 4-2 5l7-1c2 0 3-2 3-4z"/><path class="bc" d="M1087 706c4-3 3 0 5-1h4a57 57 0 0111 1h-12a16 16 0 01-3 0c-3 0 0-2-5 0z"/><path class="av" d="M1131 716c1-3 2-11-2-13h-6c-3 0-4-1-5 3-3 7 3 13 10 11zm0 0l-3 1c-7 2-14-3-11-11 1-4 3-3 6-3s5-2 7 1 2 9 1 12z"/><path class="aw" d="M1131 716c2-3 2-16-6-13-3 2-7-4-8 5-1 8 8 11 14 8z"/><path class="ax" d="M1132 707c-1-3-3-5-7-4-3 1-6-3-8 3 2 0 3-2 3 5 0 3-2 0-3-1a7 7 0 002 5 4 4 0 004-2c2-3 7-2 9-6z"/><path class="be" d="M1122 712a10 10 0 016-2l2-3v1c-1 3-2 2-4 3l-4 1z"/><path class="av" d="M1161 715c0-2 3-10-1-10l-14-1h-8c-3 1-4 0-4 5 0 2-1 6 1 7h6l11-1h9zm0 0h-9c-4 2-7 1-11 1h-7v-9c0-3 2-3 4-3h8l14 1c4 0 1 8 1 10z"/><path class="aw" d="M1161 715c1-2 3-10-1-10l-14-1h-8c-2 1-4-1-4 5s-2 8 4 7c3-1 11 1 14-1h9z"/><path class="ax" d="M1162 711c0-3 0-6-2-6l-14-1h-8c-2 1-4-1-4 5v3l2 1c4-2 13 0 13-1 1-2 3-1 0-3s-2 0-4-3 8 5 10 4c3-3 5 0 7 1z"/><path class="be" d="M1150 707l4 2c1 0 5-2 6 0-2-1-4 1-6 1l-4-3z"/><path class="av" d="M1196 707l2 8s9 3 9 0c1-2 2-8 0-10-1 0-13-3-11 2zm0 0c-3-5 8-4 11-2 3 1 2 8 1 10-1 3-8 1-10 0-2 0-2-6-2-8z"/><path class="aw" d="M1196 707l1 6 1 2c3 1 5 2 9 1l1-6c1-1 1-5-2-5-7-2-11-1-10 2z"/><path class="ax" d="M1208 714v-4c0-1 0-4-2-5-7-2-10-1-10 1l1 5c0 3 6 4 7 2 0-1 2-2 1 0l3 1z"/><path class="be" d="M1199 706c-1-1 4-1 4-1a8 8 0 014 2h-3l-5-1z"/><path class="as" d="M1213 690c1 2 1 10-2 10-2 1-2 2-7 2h-7c-2 0-3-2-5-3-6-6-2-10 5-9h12a12 12 0 004 0zm0 0a15 15 0 01-4 0h-12c-7-1-11 4-5 9 2 2 3 3 5 3h7c5 0 5-1 7-2 4 0 3-8 2-10z"/><path class="ay" d="M1213 690c1 2 1 10-2 10-2 0-2 2-9 2s-5 2-10-3c-4-4-4-9 2-9h19z"/><path class="au" d="M1213 690v9l-1-2-6 1c-3 1-6-1-9 1-4 5-6-6-5-7 4-3 4-2 6-2h10l5-1z"/><path class="bd" d="M1192 692c3-3 2 0 5-1h3a47 47 0 019 0l-10 1h-3c-2 0 0-2-4 0z"/><path class="av" d="M1127 660h-6c-3 0-7-1-9 1l-1 3c-1 1 0 7 1 8 5 2 8 0 13 0a70 70 0 0111 0c1 0 7 1 7-1l-1-10c-1-2-5-2-7-2a54 54 0 00-8 1zm0 0a42 42 0 018-1c2 0 7-1 7 2l1 10c0 2-6 2-7 2a74 74 0 00-11-1c-5 1-8 2-13 0-2-1-2-7-1-8l1-3c1-2 6-1 9-1h6z"/><path class="aw" d="M1127 660h-9c-3 0-6-1-6 3-1 2-2 1-1 5 0 3 0 3 3 4 4 2 6 0 11 0h11a22 22 0 006 0c2 0 1-3 1-4v-3c0-5 0-6-6-6l-10 1z"/><path class="ax" d="M1120 660a15 15 0 00-2 0c-3 0-6-1-6 3 0 2 1 4 3 4 3 0 6 2 9 0l2-2h6c3 1 7-2 11-2 0-4-1-4-6-4h-6c-3 2-4 3-10 1h-1zm20 12a6 6 0 01-2 0c-6-4-9-1-16-1-1 1-9-1-8-3 4-1 3 2 9 1 5-1 1-3 11-3 2 0 6-2 9-1v3c0 1 1 4-1 4z"/><path class="be" d="M1142 662c-1-2-1-2-4-2l-8 1a17 17 0 01-5 0h5l6-2c2-1 7 0 6 3z"/><path class="av" d="M1071 686c2-2 2-1 6-1 2 0 7 1 8-1l1-3c1-1 0-6-1-7-5-3-8-1-13-1a68 68 0 01-11 0l-7 1 1 11c1 2 5 1 7 1a53 53 0 009 0zm0 0a41 41 0 01-9 0c-2 0-7 1-7-1l-1-11c0-2 6-1 7-1a74 74 0 0011 0c5 0 8-2 13 0 2 1 2 7 1 8l-1 3c-1 2-6 2-8 1l-6 1z"/><path class="aw" d="M1071 686l4-1h4c3 0 6 1 7-3v-5c0-3 0-3-3-4-4-2-6 0-11 0h-11a23 23 0 00-6 0c-2 1-1 3-1 5v3c0 5 0 5 6 5h11z"/><path class="ax" d="M1077 685a13 13 0 002 0c3 0 6 1 7-3l-3-4c-4 0-7-2-10 0 0 0 0 2-2 3h-6c-3-1-7 1-11 2 1 3 1 3 6 3h6c3-2 4-3 10-1h1zm-20-12a6 6 0 012 1c6 3 9 1 16 0 1 0 9 1 8 3-3 1-3-2-9-1-5 1-1 3-11 3-2 0-6 2-9 1v-2c0-2-1-4 1-5h2z"/><path class="be" d="M1056 683c0 2 0 3 3 2l8-1a17 17 0 015 0l-5 1-6 1c-2 0-7 1-5-3z"/><path class="as" d="M1117 688l-10 1c-5 0-6 2-6 7-1 3 0 7 4 7h3c5 1 6 2 10-1 3-2 11 0 12-2 4-11-5-10-12-12a2 2 0 00-1 0zm0 0a1 1 0 011 0c8 1 16 1 12 12-1 3-9 1-12 2-4 3-5 2-10 1h-3c-4 0-5-4-4-7 0-5 1-7 6-7l10-1z"/><path class="ay" d="M1117 688c-8 3-13-2-15 4-2 4-3 12 4 11 1-1 8 3 12-1 2-1 11 0 12-2 4-12-5-11-12-12a4 4 0 00-1 0z"/><path class="au" d="M1117 688h-2a29 29 0 01-3 9 20 20 0 01-3 2l2-3a19 19 0 003-7c-6 1-11-2-12 3-4 12 4 14 11 5 2-2 3-7 5-3l3 7h3c-2-1 1-7-1-11-1-2-5 0-6-2zm-4 16c1-3 4-7 5-1a9 9 0 01-4 1zm15-14c4 5 1 10-1 8-4-3-3-7-1-9a10 10 0 012 1z"/><path class="bd" d="M1102 691c-1-2 5-2 6-2a22 22 0 003 0c1 0 3-2 4 0l-4 1h-7l-2 1z"/><path class="ay" d="M1102 701l8-8c2-2 1-3 2-5a6 6 0 01-2 5l-1 3c-2 3 1 2-1 6v-5c-2 2 1 3-1 5 1-2-1-4 1-6l2-3-9 8zm10-13z"/><path class="as" d="M1194 709v7c-3 2-13 0-17 1-3 0-11 3-11-3 0-4-1-3 4-5l9-5c4-1 12-1 14 2a5 5 0 011 3zm0 0l-1-4c-3-2-13-2-16-1l-11 7v4c1 5 8 3 11 2 4 0 14 1 17-1 2-1 1-6 0-7z"/><path class="ay" d="M1194 709c0 2 2 6 0 7l-11 1-9 1c-3 1-8 0-8-4 0-3-2-3 3-5l10-5c4 0 16-2 15 5z"/><path class="au" d="M1166 711a14 14 0 013-2l10-5c4 0 13-1 15 3 0 3 1 4-7 6-5 1-4-1-9-1-1 1-11 0-11-1z"/><path class="bd" d="M1172 708c3-3 14-6 18-3l1 1-1-1c-5-2-13 2-18 3z"/><path class="as" d="M1174 706l4 6c3 1 4 8 2 2l-4-4c-2-3-1-3-2 2l1-4-1-2zM1183 672l-1-9c1-5 5-3 9-3 2 0 18-2 18 0l1 7c1 2 1 6-2 6h-13c-1 0-12 1-12-1zm0 0h25c3 0 3-3 2-5l-1-7h-17c-6 0-10-2-10 6l1 6z"/><path class="ay" d="M1183 672l-1-9c1-4 3-3 7-3l12-1 8 1 1 7c1 1 1 5-2 5a175 175 0 00-18 1l-7-1z"/><path class="au" d="M1189 660l12-1 8 1a8 8 0 011 1l-2 3c2 3 3 2 1 5-1 4-4 2-4 1-1-5-4-1-7 1h-12c-3-1-3-2-3-5 0-4 2-4 2-5l4-1zm0 4a8 8 0 012-1v-1a1 1 0 01-1 0c0-1-6 3-1 2zm14 5s-3 0-2 2c0 0 2 1 2-1v-1z"/><path class="bd" d="M1195 661c0-2 11 0 12 0h-12z"/><path class="ay" d="M1183 668a6 6 0 001-1c2-2 5-2 5-2l-4 1-2 3v-1z"/><path class="as" d="M1057 717v-9c1-4 4-3 8-3 3 0 18-2 19 0l1 7c1 2 1 6-2 6h-14s-12 1-12-1zm0 0c0 2 11 0 12 0h14c3 0 2-3 2-5l-2-7h-16c-7 0-10-2-10 6v6z"/><path class="ay" d="M1057 717v-9c1-4 3-3 7-3l12-1 8 1 1 7c0 1 1 6-2 5a175 175 0 00-18 1l-8-1z"/><path class="au" d="M1063 705h1l12-1 8 1a8 8 0 010 2l-1 2c2 3 2 2 1 5-2 4-4 2-5 1 0-5-4-1-6 1h-13c-3-1-2-2-2-5-1-4 2-4 1-5s3-1 4-1zm0 4a8 8 0 012-1c2 0 1-1 1-1a1 1 0 01-1 0c-1-1-7 3-2 2zm15 5c-1 0-4 0-3 2 0 0 3 1 3-1v-1z"/><path class="bd" d="M1070 706c-1-2 10 0 11 0h-11z"/><path class="ay" d="M1057 713a6 6 0 002-1c1-2 4-2 5-2h-1l-4 1c0 2-2 3-2 3v-1zM1174 706l4 6c3 1 4 8 2 2l-4-4c-2-3-1-3-2 2l1-4-1-2z"/></g></svg>