<svg xmlns="http://www.w3.org/2000/svg" xmlns:xlink="http://www.w3.org/1999/xlink" viewBox="0 0 1501 1001"><defs><radialGradient id="a" cx="703" cy="1239.2" r="51.8" gradientTransform="matrix(1 0 0 -1 -145 1445)" gradientUnits="userSpaceOnUse"><stop offset="0" stop-color="#c0a373"/><stop offset="1" stop-color="#fff" stop-opacity="0"/></radialGradient><linearGradient id="b" x1="1063.4" y1="1253.1" x2="1063.4" y2="1158.5" gradientTransform="matrix(1 0 0 -1 -146 1444)" gradientUnits="userSpaceOnUse"><stop offset="0" stop-color="#a0edf0"/><stop offset="1" stop-color="#45dbe2"/></linearGradient><style>.c{isolation:isolate}.b{fill:#70b344;stroke:#5f732e}.aa,.at,.b,.t,.u,.x,.y{stroke-miterlimit:10}.c{opacity:.25}.d{fill:#5c4328}.aa,.d,.e,.f,.g,.h,.i,.j,.k,.l,.m,.n,.o,.p,.q,.x,.y{fill-rule:evenodd}.e{fill:#544730}.f{fill:#877657}.g{fill:#ae9c87}.h{fill:#68543c}.i{fill:#9d8264}.j{fill:#b49871}.k{fill:#8f7e5f}.l{fill:#857c68}.m{fill:#a59b84}.n{fill:#67604f}.o{fill:#bdb29a}.p{fill:#c1b09a}.q{fill:#cdb186}.s{fill:#ddc02c}.t,.u{fill:#3f2b0f}.aa,.at,.t,.u,.x,.y{stroke:#1d150c}.u{stroke-width:1.14px}.x,.y{fill:#571c10}.y{stroke-width:1.04px}.aa{fill:#c0a373}.ab{fill:#78a015}.ac,.aw{fill:#7ebb15}.ad{fill:#94d31a}.ae{fill:#897d6f}.af{fill:#635a52}.ah{fill:#91887b}.al{fill:#8ab550}.am{fill:#97c261}.an{fill:#a9d171}.ao{fill:#b3db7b}.ap{fill:#dcf5f5}.aq{fill:#f2ffff}.ar{fill:#fff}.as{fill:#fddfb3}.at{fill:#1d150c}.au{fill:#81a653}.az{mix-blend-mode:multiply}.aw{mix-blend-mode:screen}.ax{fill:#bdbdbd}.ay{fill:#d9d9d9}.az{fill:#cfcfcf}.ba{fill:#cbcbcb}.bc{fill:#c6c6c6}.bd{fill:#e8e8e8}</style></defs><g style="isolation:isolate"><path class="b" d="M1001 501h250v250h-250zM1251 251h250v250h-250zM1001 251h250v250h-250zM1001 1h250v250h-250zM1251 1h250v250h-250zM751 251h250v250H751zM751 1h250v250H751zM751 501h250v250H751zM501 251h250v250H501zM251 251h250v250H251zM501 501h250v250H501zM251 501h250v250H251zM751 751h250v250H751zM251 751h250v250H251zM1001 751h250v250h-250zM501 1h250v250H501zM1251 501h250v250h-250zM1251 751h250v250h-250zM501 751h250v250H501zM251 1h250v250H251zM1 1h250v250H1zM1 751h250v250H1zM1 251h250v250H1zM1 501h250v250H1z"/><use class="c" transform="rotate(-45 1207 -617) scale(.09)" xlink:href="#c"/><path class="d" d="M939 579l-7-7-9-9c-2-2-4-5-7-6a13 13 0 00-11-1c-7 3-10 10-15 15a77 77 0 01-9 8 33 33 0 00-4 3 40 40 0 00-4 5 23 23 0 01-3 4l-5 5-8 7a4 4 0 00-1 0l-18 17-8 8-8 9a4 4 0 000 1 30 30 0 00-4 4 34 34 0 01-5 4 38 38 0 00-6 4l-5 6-5 5a12 12 0 00-3 5 6 6 0 010 1l5 7c1 2 1 6-2 7a7 7 0 013 1 23 23 0 013 4l9 5a2 2 0 011 2v1a2 2 0 012 1 10 10 0 012 4 29 29 0 002 3 12 12 0 002 3 19 19 0 005 3 5 5 0 004-4 22 22 0 016-8l9-6 17-17 18-18 36-35 17-17 9-9a8 8 0 003-6 8 8 0 00-2-5l-2-1c1 0 0 0 0 0a3 3 0 00-2-3z"/><path class="e" d="M817 641c-4 3-8 5-4 9l4 4c2 2 7-4 8-5 2-1 9-8 8-9l-7-7c-3 1-5 4-7 6zm0 0l2-2 6-6c3 0 7 5 8 6 2 2-6 9-7 10-2 2-7 8-9 5l-4-4c-4-4 0-6 4-9z"/><path class="f" d="M817 641c-3 3-8 5-4 9 5 4 2 9 12 0 1-2 9-9 8-11l-5-5h-4a8 8 0 00-3 3 40 40 0 01-4 4z"/><path class="g" d="M817 641l-5 5a3 3 0 001 3l4 2c2 0 2 2 5-2 1-1 7-4 6-6 0-2 6 1 3-5l-7-4a8 8 0 00-3 3 40 40 0 01-4 4zm7-4v1l-2 2 2-3zm4 2l1 1c-2 0-1-1 0-1zm-11 13h4c1 1-2 2-3 1l-1-1z"/><path class="h" d="M852 611l7 6c1 0 6-1 4-4-1-2-6-8-8-8-1 0-8 2-3 6zm0 0c-5-3 0-6 2-6 3 0 8 6 9 8 2 2-2 4-3 4-2 1-6-5-8-6z"/><path class="i" d="M852 611l5 4 3 2 4-3-5-5c-1-2-3-4-5-4-5 1-5 4-2 6z"/><path class="j" d="M858 607l-4-2c-3 1-4 2-4 4a17 17 0 012 1l5 4c2 3 2 1 3 1a2 2 0 002-3l-2-3a21 21 0 00-2-2z"/><path class="h" d="M810 692l5 7c1 0 6 0 5-2s-4-9-6-10c-1-1-8 0-4 5zm0 0c-4-4 1-6 3-6 3 1 6 9 7 11s-3 3-4 3c-2 0-5-6-6-8z"/><path class="i" d="M810 692l3 5 3 3c2-1 3 0 4-2 1-1-2-6-3-7 0-1-2-4-4-4-5 0-6 2-3 5z"/><path class="j" d="M816 689l-3-2c-3 0-5 1-5 3a15 15 0 012 1l4 5c1 3 2 1 3 1a2 2 0 002-1l-1-4a21 21 0 00-2-3z"/><path class="e" d="M882 635c-4 6-6 5-11 10-3 3-11-11-4-13l3-2c0-1 5-5 6-4l4 5 2 4zm0 0c0-2 0-2-2-3l-4-6-3 2c-2 1-4 4-6 4-6 2 2 15 4 13 5-5 7-4 11-10z"/><path class="k" d="M882 635c-4 6-7 6-11 10-2 2-11-12-4-13l5-4c4-3 3-4 7 2 2 2 3 3 3 5z"/><path class="g" d="M868 644c-3-3-6-11-1-12l5-4c3-2 3-3 4-2-3 3 0 4 1 4a3 3 0 001-1l1 1a30 30 0 013 4 5 5 0 01-3 1c-1-1-6-4 0 1-2 3-5-1-6-2-5-5-3 0-2 2 2 8-2-3-2-3-2 0 0 5 0 5 1 5 1 6-1 6z"/><path class="h" d="M905 614c-2 3-6 9-9 4-1-3 0-2-3-4s0-4 2-7c1-1 6-10 8-8 2 1 7 5 7 8a30 30 0 01-3 4l-2 3zm0 0l2-3 2-5c1-2-5-6-6-7-2-1-7 8-9 10-4 6 0 3 2 8 3 6 6 1 9-3z"/><path class="i" d="M905 614c-1 1-6 10-9 3-2-4-7-3-2-8 2-3 7-12 9-10 10 9 6 6 3 14a5 5 0 01-1 1z"/><path class="j" d="M896 607l2-3a6 6 0 011 2c1 1 5 0 2-6a3 3 0 00-1 0c2-1 2-2 3-1l2 1a19 19 0 002 4c1 2 0 6-3 8-1 0-4 9-6 3-3 0-3-1-3-5-2-1 1 1 1-3z"/><path class="h" d="M925 573c-2 3-6 9-9 4l-3-4c-3-2-1-4 1-7 2-1 7-10 9-8 1 1 7 5 6 8a30 30 0 01-2 4l-2 3zm0 0l2-3 2-5c0-2-5-6-6-7-2-1-8 8-9 10-5 6-1 3 2 8 3 6 5 1 9-3z"/><path class="i" d="M925 573c-2 1-6 10-10 3-1-4-6-3-1-8 2-3 7-12 9-10 10 9 6 6 2 14a4 4 0 010 1z"/><path class="j" d="M915 566l2-3a6 6 0 012 2c0 1 4 0 1-6 1-1 2-2 3-1l1 1a19 19 0 002 4c2 2 1 6-2 8-1 0-5 9-6 3-3 0-4-1-3-5-3-1 1 1 0-3z"/><path class="e" d="M843 668c-3-7-3-8-11-2-6 5-4 5-1 10l4 1c2 0 7-6 8-9zm0 0c-1 3-7 9-8 9-3 1-3 0-4-1-3-4-5-5 1-10 7-6 8-5 11 2z"/><path class="l" d="M843 668c-2-3-2-9-8-4-10 8-7 7-3 13h3c1 1 8-6 8-9z"/><path class="m" d="M841 663c-1-1-3-2-6 1-9 7-8 7-5 11a1 1 0 001-1c5-4 4 1 7-4 2-2 0-3 1-3 2 0 2-2 2-4zm-5 2s2 0 0 1c-5 5-5 2 0-1z"/><path class="e" d="M937 577c-2-7-3-9-11-2-5 5-3 5 0 10l3 1c3 0 8-6 8-9zm0 0c0 3-6 9-7 9a1 1 0 01-1 0l-3-1c-3-4-5-5 0-10 8-6 9-5 11 2z"/><path class="l" d="M937 577c-1-3-2-9-8-4-9 8-6 7-2 13h3c1 1 7-6 7-9z"/><path class="m" d="M935 572c-1-1-2-2-6 1-8 7-7 7-4 11a1 1 0 001-1c5-4 4 1 7-4l1-3c2 0 2-2 1-4zm-5 2c1 0 2 0 1 1-6 5-6 2-1-1z"/><path class="e" d="M880 627c3-3 9-8 10-11 0-2-5-2-7 0l-2 3c-5 5-3 3-3 7l2 1zm0 0l-2-1c0-4-2-2 3-7l2-3c3-2 9-3 7 1s-7 7-10 10z"/><path class="k" d="M880 627c6-4 14-13 8-12-5 0-4 1-7 4-5 5-2 3-3 7l2 1z"/><path class="g" d="M890 615h-2c-5 0-4 1-7 4-5 5-3 3-3 7l5-6c9-2 0-3 5-4a4 4 0 002-1z"/><path class="h" d="M826 654c-1 4-5 3-2 7l3 4c2 2 5-3 6-4 3-2 5-3 3-7l-6-5-4 5zm0 0c1-1 2-6 4-5l6 5c3 4 1 6-3 8-1 1-5 5-6 3l-3-4c-3-4 1-3 2-7z"/><path class="j" d="M826 654c-1 4-6 3-1 7 1 1 1 8 8 1 1-1 9-3 0-10-2-3-3-6-6 1l-1 1z"/><path class="i" d="M826 654c-1 3-4 3-3 6a5 5 0 011 1h1l1 3c3 0 7-6 9-6s1-2 0-4a18 18 0 00-2-2 3 3 0 00-3 2h-4z"/><path class="e" d="M834 683c-4 5-6 4-10 9-3 2-11-11-5-13l3-2c1-1 5-5 6-4l4 6c2 1 2 2 2 4zm0 0c0-2 0-3-2-4l-4-6c-1-1-3 1-3 2-2 1-4 4-6 4-5 2 2 14 4 12 5-4 7-3 11-8z"/><path class="l" d="M834 683c-3 5-7 5-10 9-3 2-11-12-4-13l5-4c3-3 2-4 6 3 2 1 3 3 3 5z"/><path class="m" d="M818 685c-1-3-1-6 2-6l5-4c3-2 2-3 5 0a7 7 0 01-2 1l-2 5c2 5-1 2 0 4 0 1-4 3-5 1l-4-1zm13-8a16 16 0 00-2 2c-2 2 0 2 1 4 0 1 2 2 3-1a12 12 0 000-2l-2-2z"/><path class="n" d="M910 588c-1 1-8 8-10 8l-7-3c-3-5 4-11 7-14 2-2 9-8 11-6l4 4c1 1-2 5-3 7l-2 4zm0 0l2-4 4-7a53 53 0 00-4-4c-4-4-16 9-18 11-5 6-2 11 6 12 1 1 9-7 10-8z"/><path class="l" d="M910 588c0 1-9 9-10 8 0 0-15-2-4-14 3-2 13-12 16-9 4 6 5 3 1 9l-3 6z"/><path class="m" d="M897 596c-3-2-8-5-2-12h1a3 3 0 002-3c3-4 10-9 13-8-1 2 6 1-1 11-3 3-3 0-3-1-3-5-1 3-1 4-1 6-7 0-7 5 0 2 0 3-2 4z"/><path class="e" d="M884 632c4-2 13-6 14-10 1-2-6-3-9-2l-3 3c-7 5-4 3-4 8l2 1zm0 0l-2-1c0-5-3-3 4-8l3-3c3-2 11-1 9 3s-10 7-14 9z"/><path class="k" d="M884 632c8-3 19-11 12-12s-6 0-10 3c-7 5-3 4-4 8l2 1z"/><path class="g" d="M895 620c-6-1-6 1-9 3l-2 1a2 2 0 01-1 2 3 3 0 000 4c4 1 4-7 9-8 2 2-3 4-4 5 2 2 8-5 8-5l-1-2z"/><path class="e" d="M909 567c3-3 10-7 8-11-2-2-12-3-14-1l-2 3c-4 4-1 3 3 7l5 2zm0 0l-5-2c-5-4-7-2-3-7l2-3c2-2 13-2 14 2s-5 7-8 10z"/><path class="k" d="M909 567c7-4 14-12 2-13-10-1-7 1-10 4-5 4-1 3 3 7l5 2z"/><path class="g" d="M910 554c-8 0-6 1-9 4a14 14 0 00-1 1l1 1c-1 2 3 4 4 4 6 1-3-6 4-8 5 2 1 5 0 5 4 2 5-5 5-5l-4-2z"/><path class="h" d="M868 609l-4 2c-2 0 1 1 1 1l1 2 1-2 1-2a3 3 0 001-1h-1zm0 0v2l-2 3c-1 2-1-1-1-1-1-1-4-2-1-2l4-2z"/><path class="i" d="M868 609l-4 2c-3 0 1 1 1 1 0 1 0 3 1 2l1-3 1-1v-1z"/><path class="h" d="M868 611l1 2c1 2 3 5-1 4-2 0-4 1-3-1s1 1 2-3l1-2zm0 0a3 3 0 000 1c0 1-1 4-3 3 0 0-1 2 1 2s5 1 3-2l-1-4zm0 0z"/><path class="i" d="M868 611v1c0 1-1 4-3 3 0 0-1 3 1 2 1 0 5 2 4-2a22 22 0 01-2-4z"/><path class="h" d="M846 631c-1-2 4-5 5-6 3-3 1 2-1 4l-4 2zm0 0c4-3 5-2 6-6a4 4 0 00-1 0c-1 2-5 4-5 6z"/><path class="k" d="M846 631c0-2 4-4 5-5l1-1c-1 4-2 3-6 6z"/><path class="h" d="M818 689l5 6c2 3-3 1-4-1l-1-4v-1zm0 0v1c2 4 1 5 5 6a4 4 0 00-1-1c-1-1-2-5-4-6z"/><path class="k" d="M818 689l4 6 1 2c-4-2-3-3-5-7v-1z"/><path class="h" d="M890 608c1-1 2-1 2 1s-3 2-6 5c-1 1-4 2 0-2l4-4zm0 0a22 22 0 01-4 4c-5 4-1 4 1 2l4-3c3-1 1-6-1-3z"/><path class="k" d="M890 608c1 0 1-2 2 0 2 3-3 3-6 6-1 1-5 2 0-2a18 18 0 004-4z"/><path class="h" d="M891 616a23 23 0 00-1 3l5-1-4-2zm0 0c1-1 8 3 3 3-2 0-7 2-3-3z"/><path class="k" d="M891 616l-1 3h2c2-1 5 1 3-1l-4-2z"/><path class="h" d="M938 579a21 21 0 00-1 3l5-1a2 2 0 001 0l-5-2zm0 0c1-1 8 3 3 2-2 0-7 3-3-2z"/><path class="k" d="M938 579s-2 2-1 3l2-1c2-1 5 1 3-1 0 0-3-2-4-1z"/><path class="h" d="M896 628l2 1 2-1c0-1 3-7 1-6l-5 4a5 5 0 000 2zm0 0c-1-3 2-4 4-5 3-2 1 2 0 3 0 2 0 2-2 3l-2-1z"/><path class="i" d="M896 628l2 1 3-4s2-5-1-2c-1 1-5 2-4 5z"/><path class="e" d="M819 677l5-6c1 0 5-5 6-4l-11 11c-2 1-2 1 0-1zm0 0c-1 2-2 2 0 1s11-10 10-11l-3 3a24 24 0 00-2 1l-5 6z"/><path class="l" d="M819 677l5-6a18 18 0 004-3c2-2 3-2-1 2l-8 8s-2 2-1 0l1-1z"/><path class="h" d="M840 659a23 23 0 00-3 1c2 1 2 0 5 3l-2-4zm0 0c1-1 4 8 1 4-2-2-7-3-1-4z"/><path class="k" d="M840 659l-3 1 2 1c2 1 3 4 3 2l-2-4z"/><path class="h" d="M846 670a21 21 0 003-1c-2-1-2 0-5-3a3 3 0 00-1-1l3 5zm0 0c-1 1-6-9-1-4 2 2 9 4 1 4z"/><path class="k" d="M846 670l4-1-3-1c-3-1-4-5-4-2 0 0 2 5 3 4z"/><path class="n" d="M823 657v-4c0-2 2-3 3-4s2-2 2 0a49 49 0 01-3 6l-2 2zm0 0l2-3 3-6a7 7 0 00-1 1l-4 3v5z"/><path class="l" d="M823 657v-4c0-2 3-3 3-4 0 0 3-3 1 1a13 13 0 01-1 2l-1 2a3 3 0 010 2l-2 1z"/><path class="e" d="M831 665l4-3c1-1 3 0 0 1l-1 1s-4 3-4 1h1zm0 0c-1 2 3-2 4-2l1-1h-1l-4 3z"/><path class="k" d="M831 665l4-3c1-1 3-1 0 1l-1 1a23 23 0 00-2 1c-2 2-2 0-1 0z"/><path class="e" d="M825 692l4-3c2-1 2 0 0 2l-2 1s-4 3-3 1l1-1zm0 0l-1 1 4-3 2-1h-1l-4 3z"/><path class="k" d="M825 692c0-1 3-1 3-3 1 0 3 0 1 1l-2 1-2 2c-2 1-2 0 0-1z"/><path class="h" d="M813 683a44 44 0 004 3c0-1-2-3-1-6l-2 2-1 1zm3-3zm-3 3l2-2 1-1 1 6c0 3-4-3-4-3z"/><path class="i" d="M813 683l2 2s2 3 2 1l-1-6-1 1-2 2z"/><path class="h" d="M857 641c-1-1 0-1 1-2l2-1a9 9 0 002-1c1-1 3 3 3 3h-6l-2 1zm0 0l4-2 3 1-2-3a8 8 0 01-2 2h-2l-1 2zm7-1"/><path class="i" d="M857 641l1-2 2-1 2-1c1-1 2 2 2 2 1 2-2 0-3 1a10 10 0 00-4 1z"/><path class="h" d="M857 639l4-2 1-1h-2c-2 0-2-1-3 2zm0 0a3 3 0 010-2c0-1 0-2 2-1h3c2 0-1 1-1 1l-4 2z"/><path class="i" d="M857 639l4-1c1-1-1-1 1-2h-1c-1 1-3-1-4 1v2z"/><path class="e" d="M830 647l2 2-1-4a2 2 0 001 0l-2 2zm0 0l1-2c1-2 1 1 1 1v3l-2-2z"/><path class="k" d="M830 647l2 2v-3c0-1 0-2-1-1l-1 2z"/><path class="e" d="M819 657l2 2-1-3a2 2 0 000-1l-1 2zm2 2l-2-2 1-1c1-3 1 0 1 0v4l-2-3z"/><path class="k" d="M819 657l2 2-1-3c0-1 1-2 0 0l-1 1z"/><path class="h" d="M837 656c1 0 0 3 3 1 2-1-2-2-3-2a4 4 0 000 1zm0-1v1a1 1 0 010-1l4 1a1 1 0 010 2c-3 1-3-1-4-2z"/><path class="i" d="M837 656c1 0 0 3 4 2 0-1 1-2-1-2l-3-1v1z"/><path class="e" d="M873 626v-5c0-2 0-2 2-2l2 1v3c0 2-1 2-2 2 0 0-1 2-2 1zm0 0l2-1 2-1v-4h-2c-2 0-2-1-2 1v5z"/><path class="k" d="M873 626v-5c0-2 1-1 2-1h2v3c1 1-2 2-2 2l-2 1z"/><path class="e" d="M870 648c3-1 4 2 4-1-1-1 2-3 0-3l-3 2c-2 1-1 2-1 2zm0 0s-1-2 1-2 2-2 3-2c2-1 0 2 0 3 1 4-1 1-4 1z"/><path class="k" d="M870 648c2-1 5 3 4-1-1-1 2-3 0-3l-3 2c-2 0-1 2-1 2z"/><path class="e" d="M883 635c-1-1 2-2 3-2 4-3 5-3 3-1l-3 2c-2 1-2 2-3 1zm0 0h1l4-3 2-1a18 18 0 00-4 2l-3 2z"/><path class="k" d="M883 635l3-2s5-4 4-2a8 8 0 00-2 1l-4 3h-1z"/><path class="h" d="M911 607l2-2 2-1a9 9 0 002-1c1-1 3 3 2 3h-5l-3 1zm0 0c1 1 3-1 5-2l3 1-2-3a8 8 0 01-2 2h-2l-2 2zm8-1"/><path class="i" d="M911 607l2-2 2-1 2-1c1-1 1 2 2 2 1 2-3 0-3 1a10 10 0 00-4 1h-1z"/><path class="h" d="M917 579l2 2-2 2s-6 6-5 3l3-6a7 7 0 012-1zm0 0c-3 1-3 3-4 6-2 4 2 0 3-1l2-3-1-2z"/><path class="i" d="M917 579l2 2-4 4s-4 4-2 0c0-1 1-6 4-6z"/><path class="h" d="M923 597c-1-1 3-5 4-6 3-3 2 2 0 3l-4 3zm0 0c4-3 5-3 5-6a5 5 0 00-1 0l-4 6z"/><path class="k" d="M923 597c-1-1 3-4 4-5l1-2c0 5-2 4-5 7 0 1 0 0 0 0z"/><path class="h" d="M904 574c0-2 4-5 5-6 3-3 2 2 0 4l-5 2zm0 0h1c4-3 4-2 5-6a4 4 0 00-1 0c-1 2-5 4-5 6z"/><path class="k" d="M904 574c0-2 4-4 5-5 0-1 1-2 2-1-1 4-3 4-6 6h-1z"/><path class="h" d="M933 568l-5 5c-3 3-2-2 0-3l4-2h1zm0 0h-1c-4 2-4 2-5 6a4 4 0 000-1l6-5z"/><path class="k" d="M933 568l-5 5-2 1c1-5 3-4 6-6h1z"/><path class="e" d="M836 682c3-2 9-7 10-10 1-2-3-1-5 1l-3 3c-5 4-2 2-3 6h1zm0 0h-1c0-3-2-2 3-6l3-3c2-2 7-4 5 0s-6 7-10 9z"/><path class="l" d="M836 682c6-4 14-12 9-11-4 1-4 2-7 5-5 4-2 3-3 6h1z"/><path class="m" d="M847 671h-2c-4 1-4 2-7 5-5 4-2 3-3 5l5-5c8-2 0-2 5-4a4 4 0 002-1z"/><path class="n" d="M897 601l1-3 4-2c1-1 2 0 1 1a34 34 0 01-4 3s-1 2-2 1zm0 0c1 1 2-1 2-1l4-4a5 5 0 00-1 1l-4 1-1 3z"/><path class="l" d="M897 601l1-3 4-2s2-1 0 1a10 10 0 01-1 2l-2 1-1 1h-1z"/><path class="n" d="M895 596l1 3c1 1 1-1 1-1l2-1-2-1-1-1a2 2 0 00-1 0v1zm0 0h1l2 1c2 0 0 1-1 1l-1 1-1-3z"/><path class="l" d="M895 596l1 3c1 1 1-1 1-1l1-1-1-1-1-1s-2 0-1 1z"/><path class="n" d="M888 591l3-2 2-3c1-1 1-2-1-1a42 42 0 00-3 3c0 1-2 2-1 3zm0 0c-1-1 1-2 1-3l4-3a6 6 0 010 1l-2 3-3 2z"/><path class="l" d="M888 591l3-2 2-3s1-3-1 0a13 13 0 00-2 1l-1 1a3 3 0 00-1 1v2z"/><path class="h" d="M897 602a21 21 0 00-2 2l-2 3a6 6 0 003-1c0-1 3-5 1-4zm0 0c2-1 0 2-1 4a6 6 0 01-3 1l1-3a9 9 0 013-2z"/><path class="i" d="M897 602l-2 1-1 1a15 15 0 00-1 3h1a4 4 0 002-2c2-2 2-3 1-3z"/><path class="h" d="M911 603a21 21 0 00-1 3l5-3a2 2 0 001 0h-5zm0 0c0-2 8 0 4 1-3 1-7 5-4-1z"/><path class="k" d="M911 603l-1 3 2-1c2-2 5-1 3-3l-4 1z"/><path class="n" d="M838 639c-4 5-7 6-3 12 1 2 6 6 8 2l6-6 3-3c5-5 5-8 0-13-3-2-5 1-8 3a30 30 0 00-6 5zm0 0l6-6c3-2 5-5 8-2 5 5 6 9 0 13l-2 3-7 6c-2 5-7 0-8-2-4-6-2-7 3-12z"/><path class="l" d="M838 639l-5 6c-2 4 8 14 10 8 1-3 5-3 7-7 1-2 11-6 3-14-2-2-3-3-6 0l-9 7z"/><path class="m" d="M838 639a10 10 0 01-1 1c2 5-1 4-2 2a12 12 0 00-2 3 3 3 0 000 2c3 3 9 8 9 5s7-5 5-7c-5-5-6-8-6-9a18 18 0 00-3 3zm17-4s-2 0-1 5c0 3-3 4-4 2 0-1-2-8-1-2s-3 3-3 2-3-2-4-6l5-4c3-3 4-2 6 0a14 14 0 012 3z"/><path class="o" d="M834 645l1-3 2 1h2a5 5 0 000-2v4c-2 1-3-1-4-2l-1 2zm2-2z"/><path class="n" d="M797 658c-5 4-8 6-3 11 1 2 5 7 8 3 1-4 4-4 6-6 2-3 0-2 3-4 5-4 5-8-1-12-2-3-4 0-7 2a31 31 0 00-6 6zm0 0l6-6c3-2 5-5 8-3 5 5 5 9 0 14l-3 3-6 6c-2 4-7 0-9-3-4-5-1-7 4-11z"/><path class="l" d="M797 658l-5 5c-2 4 7 15 10 9 1-3 5-4 7-8 1-1 11-6 2-14-2-1-3-3-6 0l-8 8z"/><path class="m" d="M797 658a10 10 0 01-1 0c2 6-1 4-2 2a12 12 0 00-2 4 3 3 0 000 1c3 4 8 9 8 5 1-3 7-5 5-7-4-4-5-7-5-9a18 18 0 00-3 4zm17-5c-1 1-2 1-2 5 1 4-3 5-3 2 0-1-2-8-1-2 1 7-3 4-4 2l-4-6 5-4c3-3 4-1 6 0a14 14 0 013 3z"/><path class="o" d="M792 663l2-3 1 2c1 1 2 1 2-1a5 5 0 001-2c1 1 0 3-1 4s-2 0-3-1l-2 1zm2-2z"/><path class="n" d="M867 631c-6 5-7 6-12 2-3-3-3-4-1-8l6-7 10 1c2 0 3 3 2 6l-5 6zm0 0a40 40 0 004-5c3-4 1-8-1-8h-10l-7 7c-2 4-1 5 2 8 5 4 6 3 12-2z"/><path class="l" d="M867 631c-4 3-4 4-8 4-1 0-7-4-7-7 2-6 2-4 7-9 2-2 7 0 11 0l2 2c2 4-2 7-5 10z"/><path class="m" d="M857 635c-2-2-5-5-5-7 2-6 2-4 7-9a3 3 0 012-1c1 1 2 3 3 1l1-1a17 17 0 005 1c2 7-3 5-4 8-2 3-4 2-6 5 0 2-1 3-3 3zm-1-9c-3 3 2 5 0 2l2-2h-2z"/><path class="o" d="M856 624c0-2 1-5 3-5s2 2 4 1h2c-2 1-3 2-5 0s-4 3-4 4z"/><path class="n" d="M943 596c-5 5-6 6-11 2-3-3-3-4-2-8l7-7 10 1c1 0 3 3 2 6l-6 6zm0 0a40 40 0 005-5c3-4 1-8-1-8h-10c-2 0-6 5-7 7-2 4-1 5 2 8 5 4 6 3 11-2z"/><path class="l" d="M943 596c-3 3-4 4-7 4-1 0-7-4-7-7 2-6 2-4 7-9 2-3 7 0 11 0 1-1 2 1 2 2 1 3-3 7-6 10z"/><path class="m" d="M934 600c-2-2-5-5-5-7 2-6 2-4 7-9a3 3 0 011-1c2 1 3 3 4 1l1-1a17 17 0 005 1c2 7-3 5-5 8-1 3-3 2-5 5 0 2-2 3-3 3zm-2-9c-3 3 2 5 1 2l1-2h-1z"/><path class="o" d="M932 589c1-2 2-5 4-5s2 2 3 1h2c-1 1-2 2-4 0s-4 3-5 4z"/><path class="n" d="M878 600c-4 5-12 9-6 16 2 2 5 4 7 1 3-4 16-13 17-17 0-1-5-13-11-7l-7 7zm0 0a79 79 0 017-7c6-5 11 4 11 7 0 4-13 13-16 17-4 5-10-1-10-5-1-5 5-9 8-12z"/><path class="l" d="M878 600l-8 9c-2 7 6 13 9 8 3-4 18-14 17-17-1-4-6-12-11-7l-7 7z"/><path class="m" d="M873 612c3-5 9-8 3-2 0 0-3 5-3 3v-1zm5-12l-8 9a8 8 0 002 8 3 3 0 004-1l4-4c4-4 5-7 6-11s7-6 5-5c-3 3-7 7-3 10 1 1 6-5 8-7-2-4-6-11-11-6l-7 7z"/><path class="o" d="M881 610l3-7c0-3 2-6 5-7a5 5 0 001 0l-1 1c-2 0-3 3-4 5-1 4 0 5-4 8z"/><path class="e" d="M858 602l6-8c2-2 10-12 12-11 2 0 4 3 6 5 4 2 1 4-2 7l-8 9c-4 4-7 9-12 3-3-2-4-2-2-5zm0 0c-1 3 0 3 3 6 5 4 7-1 11-4s5-6 8-9c2-3 5-5 2-7l-6-5c-2-1-9 8-10 9l-8 10z"/><path class="k" d="M858 602c1-4 3-5 6-7 1-2 10-12 12-12s4 4 6 5 2 2 1 4l-11 12c-2 2-6 8-11 4l-2-2c-2-1-2-2-1-4z"/><path class="g" d="M858 602c1-4 3-5 6-7 1-2 10-12 12-12s4 4 6 5a2 2 0 011 1 41 41 0 01-3 6l-2 1h-1c-1 1-3 0-3-1v-2h1l2-3 1-1v-2c-1-1-1 1-1 1a7 7 0 01-2 2l-3 4-1 4-5 6c-2 1-4 4-6 4l-1-2c-2-1-2-2-1-4z"/><path class="p" d="M858 605l4-7c2-3 1-4 5-7a17 17 0 016-4l1-1-2 2c-4 2-7 5-9 9l-5 8z"/><path class="e" d="M862 662c1 1 8 5 5 8-3 4-18 19-22 15-1-1-5-3-4-5 1-3 16-17 19-19a9 9 0 012 1zm0 0a6 6 0 00-2-1c-3 2-18 16-19 19-1 2 2 4 3 5 5 5 20-11 23-15 3-3-4-7-5-8z"/><path class="l" d="M862 662c2 1 8 5 5 8-3 4-18 20-22 15-6-5-6-4 4-14l11-10a6 6 0 012 1z"/><path class="m" d="M862 662l2 1a1 1 0 01-1 1c-3 2 3 3-4 4-3 6-4 5-9 7-2 1 1 8 3 2 1-3 1-1 3-3s1 2-1 4c-1 1 0 3 2 3-5 4-10 7-12 4-5-4-6-4-2-8 1 0 1 1 2-2a3 3 0 001-1l3-3 11-10a6 6 0 012 1zm4 3c-2-1-3 0-3 2 0 3-3 3-2 3 4 3 3 2 2 5l4-5c2-2 1-4-1-5z"/><path class="o" d="M842 681c0-5 2-2 3-4l2-4a56 56 0 019-6l-9 8-2 2c-2 2-1-1-3 4z"/><path class="h" d="M880 657c-2-3-6-9-10-8-3 1-2 3-5 5s-3 2-2 5c4 8 11 7 16 1zm0 0l-1 3c-4 6-12 7-16-1-2-3 0-4 2-5s2-6 6-5 8 5 9 8z"/><path class="i" d="M880 657c-1-3-10-12-13-5-1 3-8 2-2 10 4 6 13 2 15-5z"/><path class="j" d="M874 651c-2-2-6-3-7 1-1 3-7 2-4 8 2-2 1-4 6 1 2 2-2 2-3 2a7 7 0 004 2 4 4 0 002-5c-1-3 4-6 2-9z"/><path class="q" d="M871 661a10 10 0 012-6v-4l1 1c1 3 0 3-1 5l-2 4z"/><path class="h" d="M901 636c-1-2-5-10-8-7l-11 9-5 6c-3 3-3 3 0 6 1 2 4 5 5 4l5-4c3-3 6-5 7-9l7-5zm0 0l-7 6c-1 3-4 5-7 8l-5 5c-1 1-5-5-6-6-2-3-1-3 1-6l5-5 11-9c3-3 7 5 8 7z"/><path class="i" d="M901 636c-2-3-5-10-8-7l-11 9-5 5c-1 2-4 3 0 7s4 6 8 2c2-2 8-7 9-11l7-5z"/><path class="j" d="M898 632c-1-3-3-5-5-3l-11 9c-3 3-3 2-5 6-1 1-4 2 0 7l2 2 3-2c1-4 9-8 9-9-1-2 0-3-3-2h-5c-4-1 10-2 10-4 0-4 4-3 5-4z"/><path class="q" d="M887 637l5-1c0-1 2-5 4-4-3 1-2 3-4 5h-5z"/><path class="h" d="M920 606l7 4s8-5 7-7-5-7-7-7-12 7-7 10zm0 0c-5-2 3-9 6-10s8 5 8 7c2 2-4 5-7 7-2 1-6-4-7-4z"/><path class="i" d="M920 606c2 0 3 2 4 3l3 1 7-6c1-1-2-4-3-5-1-2-3-4-5-3-7 4-9 8-6 10z"/><path class="j" d="M933 602l-2-3c-1-1-3-3-5-2-6 3-8 6-7 8l5 3c1 1 6-2 6-4 0-1 0-3 1-1 1 1 2 0 2-1z"/><path class="q" d="M921 602l3-3a8 8 0 014-1l-2 1-5 3z"/><path class="e" d="M920 581c2 1 8 6 6 9l-4 5-5 6-5 1c-8 0-9-6-3-10 4-3 5-3 9-8a12 12 0 002-3zm0 0a15 15 0 01-2 3l-9 8c-6 5-5 11 3 11 2 0 4 0 5-2l6-5c3-3 2-4 3-6 2-3-4-8-6-9z"/><path class="k" d="M920 581c2 1 8 6 6 9-1 1 0 3-5 7s-3 5-9 5-9-3-5-8c2-3 6-4 10-9l3-4z"/><path class="g" d="M920 581l6 6h-1l-4 5c-1 3-5 3-5 7 0 6-10-1-10-2 1-5 2-4 3-6 3-1 6-3 8-7l3-3z"/><path class="p" d="M907 598c0-5 1-3 2-5l2-2a47 47 0 018-6l-8 7-1 2c-2 2-2-1-3 4z"/><path class="h" d="M837 620c-1 3-1 2-4 5-1 1-5 4-5 6l2 3 5 5c6-2 6-5 10-9a69 69 0 018-7c1-1 5-5 4-7l-8-6c-2-1-5 3-6 4a52 52 0 00-6 6zm0 0a41 41 0 016-6c1-2 4-5 6-5l8 7c2 2-3 6-4 7a75 75 0 00-8 7c-4 4-4 7-9 9-2 0-6-3-7-5l-1-3c-1-2 4-5 5-7 3-2 3-1 4-4z"/><path class="i" d="M837 620c-1 3 0 2-2 3l-3 3c-2 2-5 4-3 7 1 1-1 1 3 4 3 2 2 2 5 1 4-2 5-5 8-8l8-7a23 23 0 004-5c1-2-1-3-2-4l-3-2c-3-3-4-4-8 0l-7 8z"/><path class="j" d="M833 625a17 17 0 00-1 1c-2 2-5 4-3 7 2 1 4 2 5 1 3-3 6-3 7-7v-3c1-1 2-4 4-4 2-1 4-7 6-9-2-2-3-2-7 1l-4 4c0 4-1 6-6 8l-1 1zm23-5a6 6 0 01-2 1c-7 1-7 5-11 10-1 1-8 6-9 4 2-3 4-1 8-6 3-4-2-2 5-10l6-7 1 2c1 1 4 2 3 4z"/><path class="q" d="M850 611c-2-1-3-1-4 1l-5 7a17 17 0 01-4 4l4-5 3-5c1-2 4-5 6-2z"/><path class="h" d="M816 678c1-3 1-3 4-5 1-1 5-4 5-6l-2-3-5-5c-6 2-6 5-10 9a69 69 0 01-8 7c-1 1-5 5-4 6l8 7c2 1 5-3 6-4a53 53 0 006-6zm0 0a41 41 0 01-6 6c-1 2-4 5-6 4l-8-6c-2-2 3-6 4-7a75 75 0 008-7c3-4 4-7 9-9 2-1 6 3 7 5l1 3c1 2-4 5-5 6-3 3-3 2-4 5z"/><path class="i" d="M816 678l2-4 3-2c2-2 5-4 3-7-1-2 1-1-3-4-3-2-2-2-5-1-4 2-5 5-8 8l-8 7a23 23 0 00-4 5c-1 2 1 3 2 4l3 2c3 3 4 4 8 0l7-8z"/><path class="j" d="M820 673a15 15 0 001-1c2-2 5-4 3-7-2-1-4-2-5-1-3 2-6 3-7 6v4c-1 2-2 4-4 4-2 1-4 7-6 9 2 2 3 2 7-2l4-4c0-3 1-5 6-8h1zm-23 5a6 6 0 012-1c7-1 7-6 11-10 1-2 8-6 9-4-2 3-4 1-8 6-3 4 2 2-5 9-1 2-3 6-6 7l-1-1c-1-1-4-2-3-4l1-2z"/><path class="q" d="M803 687c2 1 3 1 4-1l5-7a17 17 0 014-4l-4 5-3 5c-1 2-4 5-6 2z"/><path class="e" d="M851 647l-7 8c-3 4-3 5 0 9 2 2 5 5 8 2l2-2c4-3 6-3 7-8 1-3 8-8 7-9-5-12-11-5-17-1a2 2 0 000 1zm0 0a1 1 0 010-1c6-4 12-11 17 1 1 2-6 6-7 9-1 5-2 6-7 8l-2 2c-3 3-6 1-8-2-3-4-4-6 0-10l7-7z"/><path class="k" d="M851 647c-4 7-12 8-9 14 2 4 7 10 11 4 0-1 7-3 8-9 1-2 8-7 7-9-5-12-11-4-17-1a4 4 0 000 1z"/><path class="g" d="M850 647v1a28 28 0 013 9 20 20 0 010 4l-1-4a19 19 0 00-3-7c-4 5-9 6-7 11 6 10 13 7 12-5 0-3-3-6 1-5l8 3 2-3c-3 1-5-6-9-7-2-1-4 4-6 3zm9 14c-2-2-3-8 2-4a9 9 0 01-2 4zm1-20c6 0 8 6 5 6-5 0-8-3-7-5a10 10 0 012-1z"/><path class="p" d="M842 659c-2 0 2-4 3-4a22 22 0 002-3c0-1 1-4 3-4v1l-2 3-5 5-1 2z"/><path class="k" d="M849 667v-11c0-3-1-3-2-5a6 6 0 012 4l1 3c1 4 3 1 4 5-2-3-3-2-4-3v-1c0 4 3 2 3 5-1-2-3-2-3-5l-1-3v11zm-2-16v-1z"/><path class="e" d="M921 608l4 4c-1 4-9 10-11 13s-6 10-11 6c-2-3-2-1 0-7 0-2 1-7 3-9 2-3 8-9 12-9a5 5 0 013 2zm0 0l-4-2c-4 1-11 7-13 10l-3 13 3 3c5 2 8-4 10-6 2-4 10-10 11-14l-4-4z"/><path class="k" d="M921 608l4 4c0 3-5 7-7 9l-6 7c-2 3-6 6-9 3-1-2-2-1-1-6 1-2 2-9 4-10 3-3 10-12 15-7z"/><path class="g" d="M901 629a14 14 0 011-4c1-2 2-9 4-10 2-3 8-10 13-8 2 2 3 2-1 8l-7 7-9 7z"/><path class="p" d="M904 623c0-5 6-15 10-15h1c-5 2-9 11-11 15z"/><path class="e" d="M904 620l7 1c3-1 8 3 3 0h-6c-4-1-3-1 0 3 2 4-3-3-3-3l-1-1zM886 590c-2-3-5-4-6-7-3-4 1-5 3-8 2-2 12-14 13-13l6 4c2 1 5 4 3 6l-10 9c0 1-8 10-9 9zm0 0l9-9 10-9c1-2-1-4-3-5l-6-5-12 12c-4 5-8 6-3 11l5 5z"/><path class="k" d="M886 590l-6-7c-2-3-1-4 2-7l8-9 6-5c2 1 4 4 6 4 2 1 5 4 3 6a174 174 0 00-13 13l-6 5z"/><path class="g" d="M882 577v-1l8-9 6-5a8 8 0 012 1v3c4 0 4 0 5 3 1 4-2 4-3 3-3-2-3 3-4 6l-9 9c-2 1-3 0-5-2-3-3-1-4-2-5s1-2 2-3zm3 2a8 8 0 011-2l-1-1a1 1 0 01-1 1s-2 7 1 2zm14-6c-1 0-3 2-1 3 0 0 2-1 1-3 0 0 0-1 0 0z"/><path class="p" d="M887 573c-1-1 7-8 9-8l-1 1-8 7z"/><path class="k" d="M883 587a6 6 0 000-2c0-3 2-5 3-5-1 1-3 2-2 4v3h-1z"/><path class="e" d="M828 710c-2-3-5-4-6-7-3-3 1-5 3-8 2-2 12-14 14-13l5 4c2 1 5 4 3 6l-10 9c0 1-8 10-9 9zm0 0l9-9 10-9c1-2-1-4-3-5l-6-5-11 12c-5 5-9 6-4 11l5 5z"/><path class="k" d="M828 710c-2-3-4-3-6-7s-1-4 2-7l8-8 6-6 6 5c2 0 5 3 3 5a174 174 0 00-13 13c-1 0-5 6-6 5z"/><path class="g" d="M824 697v-1l8-8 6-6a8 8 0 012 1v3c4 1 4 0 5 3 1 4-2 4-3 3-3-2-3 3-4 6l-9 9c-2 1-3 0-5-2-3-3-1-4-2-4l2-4zm3 2a8 8 0 011-2l-1-1a2 2 0 01-1 1s-2 7 1 2zm14-6c-1 0-3 2-1 3 0 0 2-1 1-3 0 0 0-1 0 0z"/><path class="p" d="M829 693c-1-1 8-7 9-8l-1 1-8 7z"/><path class="k" d="M825 707a6 6 0 000-2c0-3 2-4 3-5v1c-1 0-3 1-2 3v3h-1zM904 620l7 1c3-1 8 3 3 0h-6c-4-1-3-1 0 3 2 4-3-3-3-3l-1-1z"/><use class="c" transform="rotate(-40 474 -77) scale(.09)" xlink:href="#c"/><path class="d" d="M327 208l-7-7-7-9-8-7a13 13 0 00-10-1c-7 2-11 8-17 13a77 77 0 01-9 7 34 34 0 00-4 3 40 40 0 00-4 5 22 22 0 01-4 3l-5 4-9 7a3 3 0 00-1 0l-18 16-10 7-8 8a4 4 0 000 1 31 31 0 00-5 4 35 35 0 01-5 3 36 36 0 00-6 4l-6 5-5 6a12 12 0 00-4 4 6 6 0 011 1l4 7c1 2 0 6-2 7a7 7 0 012 2 22 22 0 013 3c2 3 5 5 8 6a2 2 0 011 3l1 1a2 2 0 011 1 10 10 0 011 4 29 29 0 002 3 12 12 0 002 3 19 19 0 005 3 5 5 0 004-3 22 22 0 017-7l9-6 19-16 19-16 38-32 20-16 9-8a8 8 0 003-5 8 8 0 00-2-6 47 47 0 00-1-1 3 3 0 00-2-4z"/><path class="e" d="M200 261c-3 3-7 4-4 8l3 5c2 2 8-3 9-5 2-1 9-7 8-8-1-2-4-7-6-7-3 0-5 3-7 5zm0 0l3-2c2-2 4-5 7-5 2-1 6 5 7 7s-7 8-8 9c-2 1-8 7-10 4l-3-5c-4-4 0-5 4-8z"/><path class="f" d="M200 261c-3 3-8 4-4 8 4 5 1 10 12 1 1-1 10-7 8-9l-4-6c-2-1-2-2-4 0a9 9 0 00-4 3 40 40 0 01-4 3z"/><path class="g" d="M200 261c-2 2-5 3-5 5a3 3 0 001 2l3 3c3 0 3 2 6-1 1-1 7-4 7-6 0-3 5 2 3-5l-7-5v1a9 9 0 00-4 3 41 41 0 01-4 3zm8-4v2l-2 1 2-3zm4 3l1 1c-3 0-1-1-1-1zm-13 12h5c1 1-3 2-4 2l-1-2z"/><path class="h" d="M238 234l7 6s5-1 4-3l-8-9c-1 0-8 1-3 6zm0 0c-5-4 0-6 3-6 2 0 7 7 8 9s-3 3-4 3c-1 1-6-5-7-6z"/><path class="i" d="M238 234l4 5c1 0 2 2 3 1 2 0 3 0 4-2 1-1-3-5-4-6s-3-4-5-4c-4 1-5 3-2 6z"/><path class="j" d="M244 230l-4-2c-3 1-4 2-4 4a15 15 0 011 1l5 4c2 3 2 1 4 1a2 2 0 001-2l-1-3a20 20 0 00-2-3z"/><path class="h" d="M189 312l5 7c1 0 6 0 5-2l-5-11c-1 0-8 0-5 6zm0 0c-3-5 2-7 4-6 3 1 6 9 6 11 1 3-3 2-4 2-2 0-5-6-6-7z"/><path class="i" d="M189 312c2 1 2 3 3 5l2 2c2 0 4 1 5-1 1-1-2-6-2-7-1-1-2-5-4-5-5 0-6 2-4 6z"/><path class="j" d="M196 309l-3-3c-3 0-5 1-5 3a15 15 0 011 1l4 6c1 3 2 1 3 1a2 2 0 002-2l-1-3a20 20 0 00-1-3z"/><path class="e" d="M266 260c-5 6-7 5-12 9-3 3-10-12-3-13l3-2c1-1 5-5 7-4l4 6 1 4zm0 0l-2-4-3-6-4 2c-2 1-4 4-6 4-6 2 1 15 3 13 5-4 7-3 12-9z"/><path class="k" d="M266 260c-4 6-8 5-12 9-3 2-10-12-2-13l5-4c4-2 3-4 7 3l2 5z"/><path class="g" d="M251 268c-2-3-5-11 1-12l5-4c2-1 3-3 4-1-4 3-1 4 0 3a3 3 0 002-1l1 2a29 29 0 012 4 5 5 0 01-3 1c-1-1-6-5 0 1-3 3-5-1-6-2-5-6-3-1-2 2 1 7-2-3-2-3-2-1-1 4-1 4 1 5 1 6-1 6z"/><path class="h" d="M290 241c-2 2-6 8-9 3-1-3 0-2-3-4-2-2 0-4 3-6 1-2 7-10 9-8 1 1 6 6 5 8a30 30 0 01-2 4l-3 3zm0 0l3-3 2-4c1-2-4-7-6-8-1-1-7 7-9 9-5 5-1 3 1 8 3 6 6 2 9-2z"/><path class="i" d="M290 241c-1 1-6 9-9 2-1-4-7-3-1-8 2-2 8-11 10-9 9 9 5 7 1 14a5 5 0 01-1 1z"/><path class="j" d="M282 233l2-3a5 5 0 011 2c0 1 5 1 2-5 1-1 2-2 3-1l1 1a19 19 0 002 4c1 3 0 7-3 8-1 0-6 8-6 3-3-1-4-2-3-6-2-1 1 1 1-3z"/><path class="h" d="M313 202c-2 2-6 8-9 3-1-3 0-2-3-4-3-3 0-4 3-7 1-1 7-10 9-8 1 2 6 6 5 9a29 29 0 01-2 3l-3 4zm0 0l2-4 3-4c0-2-5-7-6-7-1-2-8 7-9 9-5 5-1 3 1 7 3 7 6 2 9-1z"/><path class="i" d="M313 202c-1 1-7 9-9 1-2-4-7-2-1-8 2-2 8-10 9-9 10 10 6 7 2 15a4 4 0 01-1 1z"/><path class="j" d="M304 194l3-3a6 6 0 011 2c0 1 5 1 2-5v-1l2-1 2 2a19 19 0 002 4c1 2 0 6-4 7-1 1-5 9-6 3-3-1-3-1-2-5-3-1 1 0 0-3z"/><path class="e" d="M224 290c-2-7-2-9-11-2-6 4-3 4-1 9l3 1c3 0 8-5 9-8zm0 0c0 3-7 9-8 8a1 1 0 01-1 0c-2 1-2 0-3-1-3-5-5-5 1-10 8-6 9-5 11 3z"/><path class="l" d="M224 290c-1-3-1-9-8-5-10 7-7 6-3 13h3c1 1 8-5 8-8z"/><path class="m" d="M222 285c-1-2-2-2-6 0-9 6-7 6-5 11a1 1 0 001-1c5-3 4 1 7-4l1-2c2 0 3-2 2-4zm-5 1c1 0 2 0 1 1-6 5-6 2-1-1z"/><path class="e" d="M325 207c-2-7-2-9-10-3-6 5-4 5-1 9 0 2 1 2 3 2 3 0 8-6 8-8zm0 0c0 3-7 9-8 8-3 0-3 0-4-2-2-4-4-5 2-9 8-6 9-5 10 3z"/><path class="l" d="M325 207c-1-4-1-10-7-5-10 7-7 6-4 13h3c1 1 8-6 8-8z"/><path class="m" d="M324 202c-1-2-3-3-6 0-9 6-8 6-5 10a1 1 0 001 0c5-4 3 1 7-4 2-2 0-3 1-2 2 0 2-2 2-4zm-5 1s2 0 0 1c-6 5-5 2 0-1z"/><path class="e" d="M264 252c4-2 10-7 11-10 1-2-4-2-6 0l-3 2c-5 4-3 3-3 7l1 1zm0 0l-1-1c0-4-3-2 3-7l3-3c2-2 8-2 6 1s-7 8-11 10z"/><path class="k" d="M264 252c7-4 16-12 10-12-5 0-5 2-8 4-6 5-3 3-3 7l1 1z"/><path class="g" d="M275 241l-2-1c-4 0-4 2-7 4-6 4-3 3-3 6l5-5c9-1 0-2 5-3a4 4 0 002-1z"/><path class="h" d="M209 275c-2 3-6 2-3 6l2 4c2 2 6-2 7-2 3-2 6-3 3-7l-5-6c-2 0-4 4-4 5zm0 0c0-1 2-6 4-5l5 6c3 4 1 5-3 7-1 1-5 5-7 3-1-2 0-3-2-5-3-3 1-3 3-6z"/><path class="j" d="M209 275c-2 3-7 2-2 7 1 1 0 8 7 1 1-1 10-2 2-10-3-3-3-6-7 1v1z"/><path class="i" d="M209 275c-2 3-5 2-4 5a5 5 0 011 1l1 1 1 3c2 0 7-6 10-6v-4a18 18 0 00-2-2 3 3 0 00-3 2c-1 1-3 0-4-1v1z"/><path class="e" d="M215 304c-5 5-7 4-12 8-3 2-10-12-3-13l3-2s5-4 6-3l4 6 2 4zm0 0l-2-4-4-6-3 1c-2 1-4 4-6 4-6 1 1 14 3 13 5-4 7-3 12-8z"/><path class="l" d="M215 304c-5 5-8 4-12 8-2 2-10-12-3-13l5-4c4-2 3-3 7 4 1 1 3 3 3 5z"/><path class="m" d="M198 305c-1-3-1-6 2-6l5-4c4-1 3-3 6 1a7 7 0 01-2 1c-2 1-3 4-3 5 2 4-1 2 0 4 0 1-4 3-5 0l-3-1zm14-7a16 16 0 00-3 2c-1 2 1 2 1 4 0 1 2 2 3-1a15 15 0 001-2l-2-2z"/><path class="n" d="M298 215l-11 8-7-4c-3-5 5-11 9-14 1-1 9-7 11-4l3 4c1 1-3 5-3 6l-2 4zm0 0l2-4 4-6a57 57 0 00-4-4c-3-4-16 7-18 9-5 6-3 11 5 13 1 1 10-7 11-8z"/><path class="l" d="M298 215l-11 8s-15-4-3-14c3-2 14-12 16-8 4 6 5 3 0 9l-2 5z"/><path class="m" d="M284 222c-3-2-8-5-2-12h2a3 3 0 002-3c4-3 10-8 13-7-1 2 7 2-2 11-2 4-2 1-3-1-1-5 0 3-1 4-1 6-6-1-7 4 0 3-1 4-2 4z"/><path class="e" d="M268 258c4-2 13-6 15-10 0-2-6-4-9-2l-4 3c-6 4-3 2-4 7l2 2zm0 0l-2-2c0-4-3-3 4-8l4-2c4-2 11 0 9 3s-10 7-15 9z"/><path class="k" d="M268 258c8-3 20-10 12-12-6-2-6 0-10 3-7 4-3 3-4 7l2 2z"/><path class="g" d="M280 246c-6-2-6 0-10 3l-1 1a2 2 0 01-1 1 2 2 0 000 4c3 1 3-7 9-7 2 2-3 4-4 5 1 1 8-5 8-5l-1-2z"/><path class="e" d="M298 194c3-2 11-6 8-10-1-2-11-4-13-2l-2 3c-4 4-2 3 3 7l4 2zm0 0c-2 0-4 0-5-2-4-4-7-3-3-7l3-3c2-2 14-1 14 3s-5 7-9 9z"/><path class="k" d="M298 194c7-3 15-11 3-12-9-2-7 0-10 3-5 4-1 3 2 7l5 2z"/><path class="g" d="M300 182c-8-2-7 0-9 3a14 14 0 00-2 1l1 1c-1 2 3 4 4 4 6 1-2-7 4-7 6 2 1 4 1 5 3 2 5-5 5-5l-4-2z"/><path class="h" d="M254 234l-5 1 2 1v2l1-2 2-2a3 3 0 001-1l-1 1zm0 0a1 1 0 000-1c1-2 1 1-1 2l-1 3c-1 2-2-1-2-2 0 0-3-1-1-2h5z"/><path class="i" d="M254 234l-5 1c-2 0 1 1 1 1l1 2 2-3h1v-2a1 1 0 010 1z"/><path class="h" d="M254 235a3 3 0 010 2c1 3 3 5-1 4-2 0-4 1-3-2s1 2 3-2l1-2zm0 0a3 3 0 00-1 1c0 1-1 4-2 3-1 0-1 2 1 2s4 2 3-2l-1-4zm0 0z"/><path class="i" d="M254 235l-1 1c0 1-1 4-2 3s-2 3 1 2c1 0 5 2 3-2a21 21 0 01-1-4z"/><path class="h" d="M230 253l6-5c3-3 1 2-1 3-1 1-4 3-5 2zm0 0h1c4-2 4-2 6-5a4 4 0 00-1 0c-1 1-6 3-6 5z"/><path class="k" d="M230 253l5-5 2-1c-1 5-3 4-6 6h-1z"/><path class="h" d="M198 309l4 6c2 4-3 1-3-1l-2-5h1zm0 0l-1 1c2 4 1 5 5 7a3 3 0 000-1l-4-7z"/><path class="k" d="M198 309l3 6 1 2c-4-2-3-3-5-7l1-1z"/><path class="h" d="M276 234c1-1 2-1 2 1s-4 2-6 4c-2 1-5 2 0-1l4-4zm0 0a22 22 0 01-4 4c-6 3-2 3 0 2l5-3c3-1 1-6-1-3z"/><path class="k" d="M276 234s1-2 2 0c1 3-3 3-6 5-2 2-6 2 0-1a18 18 0 004-4z"/><path class="h" d="M276 242a21 21 0 00-1 3l5-1a2 2 0 001 1l-5-3zm0 0c1-1 8 4 3 3-2-1-7 2-3-3z"/><path class="k" d="M276 242l-1 3h2c2-1 5 1 3-1l-4-2z"/><path class="h" d="M326 209a22 22 0 00-1 2h5c0-1-3-3-4-2zm0 0c1-2 8 3 3 2-2 0-7 2-3-2z"/><path class="k" d="M326 209l-2 2h3c2-1 5 1 3-1 0 0-3-2-4-1z"/><path class="h" d="M280 254l2 2 2-2c1 0 4-6 2-6l-6 4a5 5 0 000 2zm0 0c0-3 3-3 5-5 3-2 0 3 0 4l-2 2-3-1z"/><path class="i" d="M280 254l3 1 3-4s2-4-1-2c-2 1-6 2-5 5z"/><path class="e" d="M199 297l7-6 5-3c1 1-9 10-11 10-2 1-2 1-1-1zm0 0v1c3-1 12-9 12-10l-4 2a24 24 0 00-2 2l-6 5z"/><path class="l" d="M199 297l7-6a19 19 0 003-2c2-2 4-2-1 2-1 1-7 7-9 7 0 0-2 2 0 0v-1z"/><path class="h" d="M222 281a22 22 0 00-3 0l4 4a2 2 0 001 0l-2-4zm0 0c2-1 4 8 1 4-2-2-7-4-1-4z"/><path class="k" d="M222 281h-3l2 2c2 1 3 4 3 2l-2-4z"/><path class="h" d="M228 293a22 22 0 003-1l-6-4a4 4 0 000-1c-1 1 1 5 3 6zm0 0c-2 0-6-10-2-5 3 2 9 5 2 5z"/><path class="k" d="M228 293l3-1-3-2c-2-1-3-5-3-2l3 5z"/><path class="n" d="M205 277l1-4 3-3c1-1 3-2 2 0a49 49 0 01-3 5s-1 3-3 2zm0 0c2 1 2-2 3-2l2-6a7 7 0 00-1 1l-3 3-1 4z"/><path class="l" d="M205 277l1-4 3-3s3-3 1 1a12 12 0 01-1 2l-1 2a3 3 0 01-1 1c0 1-1 2-2 1z"/><path class="e" d="M213 286l4-3c1-1 2 0 0 1l-2 1s-4 3-3 1h1zm0 0h-1c-1 2 4-2 4-2l2-1h-1l-4 3z"/><path class="k" d="M213 286c0-2 3-2 4-3s3 0 0 1l-2 1-2 1c-1 2-2 0 0 0z"/><path class="e" d="M204 313l4-3c1-1 2 0 0 1l-1 1s-4 3-4 1h1zm0 0h-1c-1 2 4-2 5-2l1-1h-1l-4 3z"/><path class="k" d="M204 313c0-2 3-2 4-3s3 0 0 1l-2 1a25 25 0 00-2 1c-1 2-2 0 0 0z"/><path class="h" d="M193 302a44 44 0 004 4c0-1-2-3 0-6l-3 1-1 1zm4-2zm-4 2l2-2h2v6c0 2-4-4-4-4z"/><path class="i" d="M193 302l2 3 2 1v-6h-2l-2 2z"/><path class="h" d="M240 264l2-2h2a9 9 0 002-1c1-1 3 2 2 3h-5-3zm0 0l5-1h3s-1-3-2-2a9 9 0 01-2 1h-2l-2 2zm8-1"/><path class="i" d="M240 264l2-2h2l2-1c1-1 2 2 2 2h-3a10 10 0 00-4 1h-1z"/><path class="h" d="M240 262l5-2h-1c-2-1-2-2-3 1zm0 0a3 3 0 011-1c0-2 0-3 2-2h3c1 1-1 1-1 1-1 2-3 2-5 2z"/><path class="i" d="M240 262l4-1 2-1h-1c-1 0-3-2-4 0l-1 2z"/><path class="e" d="M213 267c-1 1 1 2 2 3v-3a3 3 0 000-1l-2 1zm2 3l-2-3 1-1c2-2 1 1 1 1v3c0 1-3-2-2-3z"/><path class="k" d="M213 267c-1 1 1 2 2 3v-3c0-1 0-2-1-1l-1 1z"/><path class="e" d="M201 277l2 2v-3a3 3 0 000-1l-2 2zm2 2l-2-2 1-1c2-2 1 1 1 1v3l-2-3z"/><path class="k" d="M201 277l2 2v-2c0-1 0-3-1-1l-1 1z"/><path class="h" d="M220 277c1 1 0 3 3 2 2-1-3-2-3-2zm0 0l3 1a1 1 0 010 2c-3 1-3-2-3-3z"/><path class="i" d="M220 277c1 1-1 3 3 2v-1l-3-1z"/><path class="e" d="M258 250v-5c0-2 0-1 2-1l2 1v3l-2 1-2 1zm0 0l1-1c1 0 3 0 2-1l1-3-2-1-2 1v5z"/><path class="k" d="M258 250v-5c0-2 1-1 2-1l2 1v3c1 2-3 1-3 1l-1 1z"/><path class="e" d="M253 272c3-1 4 3 3-1 0-1 3-2 1-2l-3 1c-2 1-2 2-1 2zm0 0c-1 0-1-2 1-2s2-2 3-2c2 0 0 2 0 3 0 4-1 1-4 1z"/><path class="k" d="M253 272c2-1 4 3 4-1-1-1 2-2 0-3-1 0-1 2-3 2s-2 2-1 2z"/><path class="e" d="M267 260c-1-1 1-1 3-2 4-3 5-2 3-1l-3 2c-2 1-2 3-3 1zm0 0h1l4-2 2-2a18 18 0 00-4 2l-3 2z"/><path class="k" d="M267 260c-1-1 1-1 3-2 0 0 5-3 4-1a8 8 0 00-2 1l-4 3-1-1z"/><path class="h" d="M297 235c0-2 1-2 2-2l2-1a10 10 0 002-1c1-1 3 3 2 3h-5l-3 1zm0 0l5-2 3 1-2-3a9 9 0 01-2 1l-2 1c-1 0-2 0-2 2zm8-1"/><path class="i" d="M297 235c0-2 1-2 2-2l2-1 2-1c1-1 1 2 2 2 1 2-3 0-3 0a10 10 0 00-4 2h-1z"/><path class="h" d="M305 207l2 2-2 2s-6 6-6 3l4-6a7 7 0 012-1zm0 0c-3 0-3 3-5 6-1 3 3 0 4-1l2-3-1-2z"/><path class="i" d="M305 207l1 2c0 2-1 2-3 4-1 0-5 3-3 0 1-2 2-6 5-6z"/><path class="h" d="M310 226c-1-1 3-5 4-6 3-3 1 2 0 3l-4 3zm0 0c4-3 4-3 5-6a4 4 0 00-1 0c-1 1-4 4-4 6z"/><path class="k" d="M310 226c-1-1 3-4 4-6l1-1c0 4-2 4-5 7z"/><path class="h" d="M293 201c-1-2 4-5 5-5 3-3 1 2-1 3l-4 2zm0 0c4-2 5-2 6-6a4 4 0 00-1 1c-1 1-5 3-5 5z"/><path class="k" d="M293 201c0-2 4-4 5-5l2-1c-2 5-3 4-7 6z"/><path class="h" d="M322 197l-6 5c-3 3-1-2 1-3l4-2h1zm0 0h-1c-4 2-5 2-6 5a4 4 0 001 0l6-5z"/><path class="k" d="M322 197l-6 5-1 1c1-5 3-4 6-6h1z"/><path class="e" d="M217 304c3-2 9-7 10-10 1-2-3-1-5 1l-3 2c-5 4-3 3-4 6l2 1zm0 0l-2-1c1-3-2-2 4-6l2-3c3-2 8-2 6 1s-7 7-10 9z"/><path class="l" d="M217 304c5-4 14-12 9-11-4 0-4 2-7 4-6 4-3 3-4 6l2 1z"/><path class="m" d="M228 293h-2c-4 0-4 2-7 4-5 4-3 3-4 6 3-1 6-5 6-5 7-2 0-2 5-4a4 4 0 002-1z"/><path class="n" d="M283 227l2-3 3-1c1-1 3 0 1 1a35 35 0 01-3 3h-3zm0 0h3l4-4a5 5 0 00-1 0l-4 2-2 2z"/><path class="l" d="M283 227l2-2c0-2 3-1 3-2 0 0 3-1 1 1a11 11 0 01-2 1l-1 2h-3z"/><path class="n" d="M282 222l1 3 1-1h1l-1-1-1-1a2 2 0 00-2-1l1 1zm0 0h1l2 1c2 1 0 1-1 1 0 1-1 3-1 1l-1-3z"/><path class="l" d="M282 222l1 3c0 2 1-1 1-1s2 0 1-1l-2-1h-1z"/><path class="n" d="M275 217l3-2 2-3v-1a43 43 0 00-4 3s-2 2-1 3zm0 0c-1-1 1-2 1-3l5-3a6 6 0 01-1 1l-2 3-3 2z"/><path class="l" d="M275 217l3-2 2-3s2-3-1 0a12 12 0 00-1 1l-2 1a3 3 0 00-1 1v2z"/><path class="h" d="M283 229a21 21 0 00-2 1l-2 3a6 6 0 003-1s3-4 1-3zm0 0c2-2 0 2-1 3a6 6 0 01-3 1l2-3a9 9 0 012-1z"/><path class="i" d="M283 229l-1 1h-1a15 15 0 00-2 3h1a4 4 0 002-1c2-3 3-4 1-3z"/><path class="h" d="M297 230a24 24 0 00-1 3c2 0 2-2 5-2a2 2 0 001 0l-5-1zm0 0c0-1 9 1 4 2-3 0-7 4-4-2z"/><path class="k" d="M297 230l-1 3 2-1c2-1 5 0 3-2h-4z"/><path class="n" d="M222 261c-5 4-8 5-4 11 1 3 5 7 7 3 2-3 5-3 7-5l3-3c6-4 6-8 1-13-3-3-5 0-8 2a31 31 0 00-6 5zm0 0c2-3 3-4 6-5 3-2 5-5 8-2 5 5 5 9-1 13l-2 3c-3 2-5 2-7 5-3 5-7 0-9-3-3-6 0-7 5-11z"/><path class="l" d="M222 261l-6 5c-2 4 7 15 10 9 1-3 5-3 7-7 1-1 12-5 4-14-2-1-3-2-6 0l-9 7z"/><path class="m" d="M222 261a10 10 0 01-1 1c1 5-2 3-2 1a12 12 0 00-3 3 3 3 0 000 2c3 4 8 9 8 5 1-3 8-4 6-6-4-5-5-8-5-9a18 18 0 00-3 3zm17-4c-1 1-2 1-2 6 1 3-3 4-3 1 0-1-2-8-1-2 0 7-4 4-4 2 0-1-3-2-3-7l5-3c3-2 4-1 6 1a13 13 0 012 2z"/><path class="o" d="M217 266l2-3 1 2c1 1 1 1 2-1a4 4 0 001-2l-1 4c-2 1-3 0-3-1l-2 1zm2-2z"/><path class="n" d="M179 276c-5 4-8 5-4 11 1 3 5 7 8 3 2-3 4-3 7-5l2-3c6-4 6-8 1-13-2-3-4 0-7 2a31 31 0 00-7 5zm0 0c2-3 4-3 7-5s5-5 8-2c5 5 4 9-1 13l-3 3-7 6c-3 4-7-1-8-4-4-5-1-7 4-11z"/><path class="l" d="M179 276l-5 5c-2 4 6 15 9 9 2-2 6-3 8-6 0-2 11-6 3-14-2-2-3-3-6-1l-9 7z"/><path class="m" d="M179 276a8 8 0 01-1 1c2 5-1 3-2 1a12 12 0 00-2 3 3 3 0 00-1 2c3 4 8 9 9 6 0-3 7-5 5-7-4-4-5-8-4-9a17 17 0 00-4 3zm17-3s-2 0-1 5c0 3-4 4-4 1 0-1-2-8-1-2 1 7-3 4-4 2l-3-6 5-4c3-2 4-1 6 1a14 14 0 012 3z"/><path class="o" d="M174 281l2-2 1 1h2a5 5 0 001-2c1 1 0 3-1 3-1 2-3 0-3-1a6 6 0 01-2 1zm2-2z"/><path class="n" d="M251 255c-6 4-7 5-12 1-2-3-3-4-1-8l7-6c2-1 7 1 10 1 2 0 3 3 1 6l-5 6zm0 0a39 39 0 005-5c3-3 1-7-1-7l-10-2-7 7c-2 4-2 5 1 8 5 4 6 4 12-1z"/><path class="l" d="M251 255c-4 3-5 4-8 4-1 0-7-6-6-8 2-6 2-4 7-9 2-2 7 1 11 1 1 0 2 1 2 3 1 3-3 6-6 9z"/><path class="m" d="M241 258c-2-2-5-5-4-7 2-6 2-4 7-9a3 3 0 012-1c1 1 2 3 3 2l1-1a18 18 0 005 1c2 7-3 5-5 8-1 3-4 1-6 5 0 1-1 2-3 2zm-1-9c-3 2 2 5 1 2l1-2h-2z"/><path class="o" d="M240 247l4-5c1-1 2 2 4 2l2-1c-2 1-3 2-5 1s-4 2-5 3z"/><path class="n" d="M330 226c-6 4-7 5-11 1-3-3-4-4-1-8l6-6c2-1 7 1 10 1 2 0 3 4 2 6l-6 6zm0 0a40 40 0 005-5c3-3 2-7-1-7l-10-2-7 7c-2 4-1 5 1 8 5 5 7 4 12-1z"/><path class="l" d="M330 226c-3 3-4 4-8 4-1 0-7-5-6-8 2-6 2-4 7-9 3-2 8 1 11 1l3 3c1 3-4 6-7 9z"/><path class="m" d="M321 229c-3-2-6-5-5-7 2-6 2-4 7-9a3 3 0 012 0c1 0 2 2 4 1v-1a18 18 0 005 1c2 7-3 5-5 8-1 3-4 2-5 5l-3 2zm-1-9c-4 3 1 5 0 2l1-2h-1z"/><path class="o" d="M320 218c0-2 2-4 4-5s1 2 3 2l2-1c-2 2-3 2-4 1s-5 2-5 3z"/><path class="n" d="M265 225c-4 4-13 8-8 15 2 3 5 5 7 2 4-4 17-12 18-15 1-2-3-14-10-8l-7 6zm0 0a77 77 0 017-7c6-4 11 6 11 8-1 4-15 13-18 16-4 5-10-2-10-6 0-5 7-8 10-11z"/><path class="l" d="M265 225s-8 6-9 9c-2 6 5 13 9 8 2-3 18-12 18-16-1-4-5-12-11-8l-7 7z"/><path class="m" d="M259 236c3-4 9-6 3-2 0 0-3 6-4 3l1-1zm6-11s-8 6-9 9a8 8 0 002 7 3 3 0 004 0c1-2-1-1 4-4 4-3 5-6 6-11 1-3 8-5 6-4-3 3-8 6-4 10 1 1 6-5 8-7-1-4-5-11-10-7l-7 7z"/><path class="o" d="M267 235l3-7c1-2 3-6 5-6a5 5 0 002 0h-1c-2 1-4 3-4 5-2 4-1 5-5 8z"/><path class="e" d="M244 225l8-8c1-1 10-10 12-9 2 0 4 4 6 5 3 3 0 4-3 7l-9 9c-4 3-8 7-12 2-2-3-3-3-2-6zm0 0c-1 3 0 3 3 7 4 3 7 0 11-3l9-9c2-3 5-4 2-7l-5-5c-2-1-9 7-11 8l-9 9z"/><path class="k" d="M244 225l7-7c2-2 10-11 13-10 2 0 4 4 6 5v4l-12 12c-2 1-7 7-11 3l-2-2c-1-2-2-3-1-5z"/><path class="g" d="M244 225l7-7c2-2 10-11 13-10 2 0 4 4 6 5a2 2 0 011 1 40 40 0 01-4 6l-2 1h-1c-1 1-4 0-3-1v-2l1-1 2-2 1-2 1-1h-1a7 7 0 01-3 3l-3 4-1 3-6 6-6 3-1-1c-1-2-2-3-1-5z"/><path class="p" d="M245 229c-1-3 2-5 3-7 3-4 2-4 6-7a17 17 0 017-4l-2 1c-4 2-7 5-9 9s-5 4-5 8z"/><path class="e" d="M243 285c2 1 8 6 5 8-3 4-19 19-23 14l-4-5 21-18a7 7 0 011 1zm0 0a5 5 0 00-1-1c-3 2-20 15-21 18-1 1 2 4 3 5 5 5 21-9 25-13 2-3-4-8-6-9z"/><path class="l" d="M243 285c2 1 8 6 5 8-3 4-19 19-24 14-5-6-5-4 6-14l12-9a6 6 0 011 1z"/><path class="m" d="M243 285l2 1a1 1 0 010 1c-4 2 2 4-5 5-3 5-4 4-9 6-2 0 0 7 3 1 1-2 1 0 3-2s0 2-1 4c-1 1-1 2 1 2-5 4-10 7-12 4-4-4-5-5-1-9 1 1 1 2 2-1a3 3 0 000-1l4-3 12-9a7 7 0 011 1zm5 4c-2-1-4-1-4 1 0 3-3 3-2 4 4 3 3 1 1 4l6-5c1-1 0-3-1-4z"/><path class="o" d="M222 303c1-6 2-3 4-4 1-2 0-2 2-3a59 59 0 019-7l-9 8-2 3c-2 1-2-2-4 3z"/><path class="h" d="M262 282c-1-3-5-9-10-9l-4 5c-2 2-4 2-3 5 3 7 11 7 16 1zm0 0l-1 2c-5 7-13 7-16-1-1-4 0-4 3-6s2-5 6-4 7 6 8 9z"/><path class="i" d="M262 282c-1-4-9-13-12-6-2 3-8 2-4 9 5 7 13 4 16-3z"/><path class="j" d="M257 275c-3-2-6-3-8 1-1 3-7 2-4 8 2-2 1-4 6 1 2 2-2 1-4 1a7 7 0 005 3 4 4 0 002-5c-1-3 5-5 3-9z"/><path class="q" d="M253 285a10 10 0 012-6l1-3v1c1 2 0 3-1 5l-2 3z"/><path class="h" d="M284 262c-1-2-4-9-7-7l-11 8-6 5c-3 3-3 3 0 7 1 1 3 5 5 4l5-4c3-2 6-4 7-8 0 0 7-3 7-5zm0 0c1 1-6 5-6 6l-8 7c-2 2-4 5-6 5s-5-5-6-6c-1-3 0-4 2-6l6-5 11-8c4-3 6 5 7 7z"/><path class="i" d="M284 262c-1-2-4-10-7-7l-11 8-6 5c-1 2-4 3 0 7 3 4 3 7 8 2 1-2 8-6 9-9 1-1 8-5 7-6z"/><path class="j" d="M282 258c-1-2-3-5-5-3l-11 8-6 5c-1 2-4 3 0 7l1 2c2 1 3 0 3-1 1-4 10-7 10-8-1-3 0-3-2-3h-5c-4-1 9-1 9-3 1-4 5-3 6-4z"/><path class="q" d="M271 262h4c1-1 3-5 5-4v1c-3 0-2 2-4 4l-5-1z"/><path class="h" d="M306 234c1 0 5 5 7 4 0 0 8-3 7-6-1-2-4-7-7-7-1 0-12 5-7 9zm0 0c-5-2 4-8 7-9s7 5 8 7-6 5-8 7c-2 1-6-4-7-5z"/><path class="i" d="M306 234c2 1 2 3 4 3 1 1 2 2 3 1 3-1 5-2 7-5 1-1-2-4-2-5-1-2-3-4-5-3-8 3-10 7-7 9z"/><path class="j" d="M319 231l-2-3c0-1-2-3-4-2-7 2-9 5-8 7l4 3c2 2 7-1 7-3 0-1 0-3 1-1 1 1 2 0 2-1z"/><path class="q" d="M308 231c-1-1 2-3 2-4a8 8 0 015-1l-3 2-4 3z"/><path class="e" d="M308 209c2 2 8 7 5 9l-4 6-5 5-6 1c-8-1-8-7-2-11l10-7a12 12 0 002-3zm0 0a15 15 0 01-2 3l-10 7c-6 4-6 10 2 11l6-1 5-5c4-3 3-4 5-6s-4-7-6-9z"/><path class="k" d="M308 209c2 1 8 7 5 9-1 2 0 3-6 7s-2 5-9 5c-6 0-8-4-5-9l12-8 3-4z"/><path class="g" d="M308 209c1 1 5 4 6 7h-2l-4 4c-2 3-6 3-6 7 0 6-9-1-9-3 1-4 2-3 3-5l9-6 3-4z"/><path class="p" d="M293 225c1-5 2-3 3-4l2-3a47 47 0 018-5l-8 7-1 2c-2 1-2-2-4 3z"/><path class="h" d="M222 242c-1 3-1 2-4 4-2 1-6 4-6 6l2 3c1 1 3 5 5 5 5-1 6-4 10-8a70 70 0 019-7c1 0 5-4 4-5l-7-8c-2-1-5 3-7 4a53 53 0 00-6 6zm0 0a41 41 0 016-6c2-2 5-5 7-4l8 8c1 2-4 5-5 6a74 74 0 00-9 6c-3 4-4 7-10 8-2 1-6-3-6-5l-1-3c0-2 4-5 6-6 3-2 3-1 4-4z"/><path class="i" d="M222 242l-2 3-4 2c-2 2-5 3-3 7 1 1-1 1 3 4 2 3 2 3 5 2 4-2 5-5 8-8l9-6a22 22 0 004-4c2-2-1-4-2-5l-2-2c-3-4-4-4-8 0l-8 7z"/><path class="j" d="M218 246a14 14 0 00-2 1c-2 2-5 3-3 7 2 1 4 2 5 1 3-2 6-3 7-6l1-3c1-1 2-4 4-4 3-1 4-6 7-8-2-3-3-3-7 1l-4 3c-1 4-2 5-7 8h-1zm23-3a6 6 0 01-2 1c-7 1-8 5-12 9-1 1-8 5-9 3 2-3 4-1 8-5 3-4-2-3 6-9l6-7 2 2c1 1 4 3 2 4z"/><path class="q" d="M236 234c-2-1-3-2-5 0l-5 7a17 17 0 01-4 3l4-4 4-5c2-2 4-5 6-1z"/><path class="h" d="M196 298l5-5c1-1 6-3 5-6l-1-3c0-2-4-5-5-5-6 1-7 5-10 8a69 69 0 01-9 7c-1 1-5 4-5 6l8 7c2 1 5-3 6-4a52 52 0 006-5zm0 0a40 40 0 01-6 5c-1 2-4 5-7 4l-7-7c-1-2 4-6 5-7a74 74 0 008-6c4-4 5-7 11-8 2-1 5 3 5 5l1 3c1 3-3 5-5 6l-5 5z"/><path class="i" d="M196 298l3-4 3-2c3-2 6-3 4-7l-3-4c-2-2-2-2-5-1-4 1-5 4-8 7l-9 7a22 22 0 00-4 4c-2 2 1 3 2 4l2 2c3 4 3 4 8 1l7-7z"/><path class="j" d="M201 293a14 14 0 001-1c3-2 6-3 4-7-2-1-4-2-5-1-3 2-6 3-8 6v4c-1 2-2 3-4 3-3 1-5 6-7 9 2 2 3 2 7-1l4-4c1-4 1-5 7-8h1zm-23 4a6 6 0 012-1c6-1 7-6 12-10 1-1 7-5 8-3-2 3-4 1-7 5-4 4 1 3-7 9-1 2-3 6-6 7l-1-2c-1-1-4-2-2-4l1-1z"/><path class="q" d="M183 305c2 2 2 2 4 0l5-6a17 17 0 015-4l-4 4-4 5c-1 2-5 5-6 1z"/><path class="e" d="M234 269l-8 8c-4 3-3 5 0 9 2 3 5 5 7 3l3-2c4-3 6-3 7-8 1-3 9-7 8-8-4-12-10-5-17-2zm0 0c7-4 13-10 17 2 1 2-6 6-7 9-2 5-4 5-8 7l-2 2c-3 3-6 0-8-3-3-4-3-7 0-10l8-7z"/><path class="k" d="M234 269c-5 8-12 8-10 14 2 4 6 10 10 5 1-1 8-3 10-8 0-3 8-7 7-9-4-12-11-5-17-2z"/><path class="g" d="M233 270l-1 1a29 29 0 013 8v4l-1-4a19 19 0 00-3-7c-4 5-9 6-7 11 5 11 12 7 12-4 0-3-2-7 2-5l7 3 3-2h-1c-2 1-4-6-8-8-2-1-4 4-6 3zm8 14c-2-2-2-8 2-4a9 9 0 01-2 4zm2-20c7 1 8 7 5 7-5 0-8-4-7-6a10 10 0 012-1z"/><path class="p" d="M224 281c-2 0 3-4 3-4a22 22 0 002-3c1-1 2-3 4-3h-1l-2 4c-2 3-3 3-5 4l-1 2z"/><path class="k" d="M230 290l1-12c1-3 0-3-1-5a6 6 0 011 4l1 4c0 3 3 1 4 5l-4-4c0 3 3 2 3 5-1-3-4-2-3-5l-1-4-1 12zm0-17z"/><path class="e" d="M306 236c1 1 5 4 4 5-1 3-9 9-12 12-2 3-6 9-11 5-2-3-1-2 0-7 1-2 2-8 4-9 2-3 9-8 13-8a5 5 0 012 2zm0 0l-3-2c-4 0-12 6-13 9l-5 13 3 3c4 2 8-3 10-6l13-12-5-5z"/><path class="k" d="M306 236c1 1 5 4 4 5 0 2-5 6-7 8l-7 6c-2 3-6 6-9 3-1-2-2-1 0-6 1-2 2-9 4-10 3-3 11-11 15-6z"/><path class="g" d="M286 256a13 13 0 011-4c1-2 2-9 4-10 3-3 9-9 13-7 3 2 4 2-1 8-3 4-3 2-7 6l-9 7z"/><path class="p" d="M288 250c1-5 7-14 12-14h1-1c-5 1-9 10-12 14z"/><path class="e" d="M289 247l7 1c3 0 8 4 3 1l-6-1c-4-1-3-1-1 3 2 5-2-3-2-3l-1-1zM274 215l-7-7c-2-4 2-5 5-8 2-1 12-12 14-12l5 5c2 1 5 4 2 6l-10 9-9 7zm0 0l9-8 10-8c2-2 0-4-2-5l-5-5c-1-1-11 9-13 11-5 4-9 5-4 10l5 5z"/><path class="k" d="M274 215c-2-2-5-3-7-7s1-4 4-7l8-8c2-1 6-5 7-4l5 4c2 1 5 4 2 6a174 174 0 00-13 12l-6 4z"/><path class="g" d="M270 202l1-1 8-8c2-1 6-5 7-4a7 7 0 011 1l1 3c3 0 3 0 4 3 1 4-2 4-3 3-4-3-4 2-4 5l-10 8c-3 1-3 0-5-1-3-4-1-5-2-5l2-4zm3 3a8 8 0 011-2v-1a1 1 0 01-2 0s-3 7 1 3zm14-6c0 1-3 2-1 3 1 1 3 0 2-2l-1-1z"/><path class="p" d="M276 198l9-7-1 1-8 6z"/><path class="k" d="M271 212a6 6 0 000-2c0-2 2-4 3-4-1 1-3 1-3 3v3c0-1 0 1 0 0z"/><path class="e" d="M206 330l-6-6c-2-4 2-6 5-8 1-2 12-13 14-12l5 4c2 2 5 4 2 6l-10 9c-1 0-9 9-10 7zm0 0c1 1 9-7 10-7l10-9c2-2 0-4-2-5l-5-5c-1-1-12 9-13 11-5 4-9 5-4 11l4 4z"/><path class="k" d="M206 330c-1-2-4-3-6-7s0-4 4-6l8-8c2-2 6-6 7-5l5 5c1 0 4 3 2 5a176 176 0 00-13 12c-1 0-6 5-7 4z"/><path class="g" d="M203 317h1l8-8c2-2 6-6 7-5a8 8 0 011 1v3c4 0 4 0 5 3 1 4-2 4-3 3-4-3-4 2-5 5l-9 9c-3 1-4-1-5-2-3-3-1-5-2-5l2-4zm3 3a8 8 0 011-2c1-1 0-1-1-1a1 1 0 01-1 1s-3 6 1 2zm14-6c0 1-3 3-1 4a2 2 0 002-3l-1-1z"/><path class="p" d="M208 314c-1-1 8-7 10-8l-1 1-9 7z"/><path class="k" d="M204 328a6 6 0 000-3c0-2 2-4 3-4-1 1-3 2-3 4v3zM289 247l7 1c3 0 8 4 3 1l-6-1c-4-1-3-1-1 3 2 5-2-3-2-3l-2-1h1z"/><path d="M517 770c2-4 9-3 20-3h28l24 3h43c7 1 14 2 21 1h7c2 1 3 6 3 7-1 15 2 30 0 45-1 9-3 32-1 53 1 11-2 21-1 32 1 1 1 4-1 6-3 4-10 2-14 1-8-2-19-2-43-2-18-1-18 2-30 0-15-1-15-5-26-4-15 0-24 8-29 3a6246 6246 0 01-1-54c2-18 0-14 2-39 1-13 2-24 0-32l-2-13v-4z" fill="#ffe161"/><path class="s" d="M588 914a2 2 0 01-2-2l-1-3v-4a3 3 0 010-1v-5l1 1a7 7 0 00-1-2 2 2 0 002 1 2 2 0 001 0l-3-1v-3-1h1v-3a31 31 0 00-1-4v-1a2 2 0 011-1l-1-4v-3a3 3 0 011-2 1 1 0 010-1 42 42 0 01-1-7l-1-4-1-6 3 4v-3a1 1 0 010-1v-1l-1-5v-1l1-2h1v-1-1a3 3 0 010-1l-1-2v-5a1 1 0 010-2 2 2 0 011 0v-1l-1-2v-1a1 1 0 010-2v-2-1a1 1 0 010-2 33 33 0 001-3 2 2 0 01-1-1 10 10 0 00-2-5l3-1a2 2 0 00-1 0h1c-2-3-2-5 0-6v-4a22 22 0 01-1-2v-2-2-3a3 3 0 010-3v-1l-6 4 6-6v-6a20 20 0 010-4v-1a29 29 0 000-4 56 56 0 010-6 16 16 0 00-1-4l4-1a18 18 0 011 5v5a28 28 0 010 4 1 1 0 010 1 13 13 0 00-1 4h1v1a14 14 0 000 3 7 7 0 01-1 3 14 14 0 011 3l1 3v1l-1 1v3l1 5 1 2h-2a8 8 0 000 1h1v1a2 2 0 01-2 1 10 10 0 002 4l-1 1v4a30 30 0 010 6 13 13 0 000 2 29 29 0 010 6v1l1 3h-1v7a2 2 0 011 0 2 2 0 01-1 1c0 3 1 5-1 5v5l1 2v5l-1 2v2a62 62 0 001 6 2 2 0 011 1v4l-1-1a2 2 0 01-1 1v8l1 2v4h-1a5 5 0 011 1 2 2 0 01-1 2v1l1 4a17 17 0 010 5h-1v5h1v1a2 2 0 01-2 2zm0-37h-1a2 2 0 001 1 2 2 0 001-1 1 1 0 00-1 0zm-3 1h1a2 2 0 010-1 2 2 0 00-1 1zm5-76zm-4-17z"/><path class="s" d="M575 914a21 21 0 010-2 2 2 0 011-2v-1-12a12 12 0 01-1-4l1-2h-1v-3l1-3a2 2 0 01-2-2 2 2 0 012-1l-1-6-1-2h1a8 8 0 010-2 3 3 0 010-1 7 7 0 010-1 1 1 0 010-1l1-4v-1l-1-1a2 2 0 010-2v-6h1a4 4 0 011-2l-1-3-1-1 1-3a3 3 0 011 0v-1l-2-10 1-4-1-5v-4a1 1 0 01-1 0v-1h1a7 7 0 010-1v-8a2 2 0 010-1l1-1a16 16 0 000-3h-1v-1a11 11 0 01-1-5v-1a2 2 0 011-1v-1a2 2 0 010-1v-2a9 9 0 010-3 2 2 0 011-2l-1-9v-1a2 2 0 011-1l-1-6v-3l3-2v2l2 12v8l4 9-5-5-1-1a31 31 0 000 4v3a4 4 0 010 1 11 11 0 001 4v6a6 6 0 010 2v8l-1-3v1a4 4 0 011 2h-1a1 1 0 010 1v3l1 3v1a2 2 0 001 1v1a1 1 0 010 1 3 3 0 01-1 0v3c0 1 0 0 0 0v3a18 18 0 001 5l1 11-1-1a7 7 0 010 2l-1 3v13a5 5 0 010 1 6 6 0 000 2 2 2 0 010 1v7l1 2v2a2 2 0 01-1 0v3a22 22 0 010 5l1 5 5 7-6-4 2 6h-2l1 5h-1v1zm1-59h1a2 2 0 00-1 0zm2 0h-1a3 3 0 001 0zm-3-34zM568 912a2 2 0 01-1 0h-1-1a13 13 0 010-1 1 1 0 010-2v-3a3 3 0 011-2l-2-7h1a1 1 0 010-1l-1-3v-1-1a1 1 0 010-1 15 15 0 011-5 29 29 0 000-5 1 1 0 010-1l1-1v-3h-1-1l2-2a31 31 0 00-1-7 2 2 0 01-1-1v-1-6h1v-3l-1-2h1a16 16 0 00-2-7l2-1a12 12 0 010-2v-3a2 2 0 011 0 11 11 0 00-1-5 2 2 0 01-1-2v-2a2 2 0 011-1v-2a2 2 0 010-1v-3a6 6 0 010-3v-1-1 1l-1-3a3 3 0 011-1 6 6 0 000-3 3 3 0 010-3 7 7 0 000-4 5 5 0 010-2 14 14 0 000-2l1-1v-3-1a35 35 0 00-2-10l-5-9 5 5a2 2 0 011-2v-1a27 27 0 010-7v-9h1l1 2 2 1 1 1h-1l1 3-1 2h-1a24 24 0 000 6v1a4 4 0 011 1 12 12 0 011 4v9l-1-1 1 3v2l2 3v1l-2-1a5 5 0 011 2h-1-1a2 2 0 010 1 3 3 0 000 1 9 9 0 01-1 5 3 3 0 000 1v1a8 8 0 010 4 2 2 0 000 1v1a23 23 0 011 3l2 7h-1v-1h-1l1 2v1h-1l-1 3a13 13 0 011 8 18 18 0 000 2 15 15 0 001 3l-2 1a18 18 0 010 3v1a2 2 0 010 1h1v2a43 43 0 01-1 7v1a3 3 0 011 2 3 3 0 010 1 36 36 0 010 3v8l1 3a1 1 0 01-1 1 31 31 0 010 4 3 3 0 011 1v1h-1a4 4 0 01-1 1v5l1 5-1 1v1l2 6h-1v5h1l-1 2zm-4-130h1a2 2 0 00-1 0zm4-14a2 2 0 001 0z"/><path class="s" d="M557 911a3 3 0 01-3-2l1-1a3 3 0 011-1v-1a16 16 0 010-3 21 21 0 01-2-4v-4a2 2 0 011-2 12 12 0 010-6l-1-3a1 1 0 011-1v-3a3 3 0 010-2 20 20 0 01-1-5v-2l-1-3h1l-1-1v-1-1h3l-1-3a2 2 0 01-1-1l1-4a5 5 0 011-3l-1-1 1-4v-3l-1 1-1-5a4 4 0 010-2l-1-6 2 2h1l-1-2v-5l-1-3v-6h1l-1-1a5 5 0 01-1-2v-1h1l-1-2 1-1a8 8 0 000-2l2-1h-1v-1 1h-1v-1-1a2 2 0 010-1v-1-2-1a1 1 0 010-1h1a4 4 0 000-1l-1-2a2 2 0 011-2v-1-1l1-1a26 26 0 00-1-6l-1-2a2 2 0 011-2 8 8 0 010-1 4 4 0 000-3v-2-1a18 18 0 010-4l-1-1v-1a16 16 0 01-1-3l-1-3h1l3 2a3 3 0 011 1h1a13 13 0 010 1 4 4 0 010 2v2l1 4h1v1a2 2 0 01-1 1 6 6 0 010 4 3 3 0 000 3v1a28 28 0 010 7v1a5 5 0 010 1v2a2 2 0 01-1 1v2a30 30 0 010 3v7l-1 4v1l1 1a23 23 0 011 5l-1 1v2a23 23 0 011 6v1a30 30 0 001 5l1 1-2 1h-1v1a40 40 0 012 9v1l1 3-1 1v-1h-1v1a10 10 0 010 1v1a6 6 0 000 2l1 1h-1v2a38 38 0 001 6l2 6-1 1-2-3-1 4a14 14 0 001 4v3a17 17 0 010 5v1a12 12 0 000 5v2a2 2 0 01-1 1v1a20 20 0 001 5 3 3 0 011 1l-1 1a40 40 0 001 4v1h-1a2 2 0 01-2 2zm0-7a3 3 0 001 0 2 2 0 001 0zm-1-48a2 2 0 001 0 2 2 0 001 0zm2-60a2 2 0 001 0zM545 908l-2 1a3 3 0 011-3 15 15 0 010-3 6 6 0 000-3l3-1a2 2 0 00-1 0 2 2 0 00-2 1 4 4 0 000-2h-1v-1-1l2-6a15 15 0 010-2v-1l-1-3a34 34 0 01-1-6h1a5 5 0 000-1 2 2 0 002 1 2 2 0 001-1h-3a11 11 0 000-3c0-1-1-2 1-3a16 16 0 00-2-4 2 2 0 011-2v-1a12 12 0 01-2-3l3-1a22 22 0 00-1-4 1 1 0 010-1 7 7 0 01-1-1v-2-1a2 2 0 010-1v-5l1 1a6 6 0 010-1 2 2 0 000-2v-1-6a4 4 0 010-3 17 17 0 000-6 19 19 0 01-1-2l2-1a9 9 0 010-2 21 21 0 00-1-6l-1 1v-3a13 13 0 001-1 5 5 0 010-3 15 15 0 010-2 14 14 0 010-3v-1a3 3 0 011-2 20 20 0 000-5l-3-6 2 2a10 10 0 010-4l1-1v-2a7 7 0 01-1-3 4 4 0 011-2 32 32 0 010-5v-1l-1-3a49 49 0 010-6h1a7 7 0 000-1l3-1v16a4 4 0 000 1v2l1 3 1 4-2 1v5a11 11 0 011 4l-1 4v1a2 2 0 010 1 16 16 0 000 4 4 4 0 011 0v1a2 2 0 01-2 2l1 3a23 23 0 010 6l1 2-1 4v1a32 32 0 010 7v6a4 4 0 010 3 5 5 0 00-1 3 4 4 0 010 5v1a20 20 0 012 5l-1 4a3 3 0 010 2 3 3 0 01-1 1 16 16 0 011 4v4l-1 1a11 11 0 010 1 4 4 0 011 1 13 13 0 010 3 2 2 0 01-1 1l1 4a1 1 0 010 1v2a10 10 0 001 3l2 5-4-3v3a2 2 0 011 1v3a8 8 0 010 3 12 12 0 000 3l2 8zm1-67a2 2 0 00-2 1l2-1zm1-75a2 2 0 00-1 0h1zM538 907h-1v6a3 3 0 01-2 1 2 2 0 01-2-2l1-1a9 9 0 00-1-4l-4-10 4 5a2 2 0 011-1v-1-2a14 14 0 00-2-4 1 1 0 010-1h2v-1a2 2 0 00-2 1v-1a7 7 0 011-2v-1h-1l-3 2h-1v-1l6-4a10 10 0 001-3 36 36 0 00-1-5 11 11 0 01-1-2h1a6 6 0 000-1 3 3 0 010-1 12 12 0 000-3v-3l-1-2 2-6-1-2v-3a6 6 0 010-2v-2-2a1 1 0 01-1-1 4 4 0 011-3 2 2 0 010-2 2 2 0 010-1v-5-4a2 2 0 010-1v-1l-1-2a3 3 0 011-2 2 2 0 010-2h1v-2l-1-5h1v-1l-1-3a1 1 0 010-1v-1l-1-4h2v-1h-1a2 2 0 000 1 3 3 0 010-2 6 6 0 011-3 15 15 0 00-1-4l-2-2h2a39 39 0 000-6 1 1 0 010-2v-1l-1-6a1 1 0 011-2 5 5 0 011-3 2 2 0 000-1v-1a4 4 0 01-1-1v-3-2a2 2 0 001 0 2 2 0 002 0v-1h-3-1a2 2 0 012-1 2 2 0 012 1l1 2v2l1 2a4 4 0 01-1 4v4h-1l1 5v6l-1 6a14 14 0 011 2v4a5 5 0 000 2l-1 1h-1 1a2 2 0 010 1v2a34 34 0 011 5v5-1 6a1 1 0 010 1h-1 1l2 8v1h-1l-1-2a2 2 0 01-1 0l1 1v5h-1a53 53 0 002 5l-2 1v4l1 4v6a1 1 0 010 1 1 1 0 01-1 2 7 7 0 000 2 26 26 0 010 3l1 2a13 13 0 010 4 18 18 0 010 2 5 5 0 010 2l1 3-1 4a8 8 0 010 2 11 11 0 01-1 4l-1 2a16 16 0 012 5 23 23 0 001 4l3 10-4-5zm-3 4a2 2 0 00-1 0h2a2 2 0 00-1 0zm-1-36a2 2 0 002 0 2 2 0 001 0z"/><path class="s" d="M527 906a2 2 0 01-3-2v-2l1-1-1-5-1-2v-1h0a4 4 0 010-1v-1a3 3 0 011-1 13 13 0 00-2-5v-1l3-1a2 2 0 00-2 0 7 7 0 001 0v-4-1a11 11 0 000-2 13 13 0 010-3l1-2a3 3 0 01-1-1v-2l-1-6h-1a2 2 0 010-1h1a143 143 0 01-1-7v-1l-2-5h1l2 2h1l-1-6-1-4-2-2h3a2 2 0 011-2 4 4 0 010-1l1-4a83 83 0 01-2-6 2 2 0 010-1l1-4a14 14 0 01-1-3 18 18 0 00-1-5l-2-8 3 3a3 3 0 011-1v-1a24 24 0 00-1-3 3 3 0 01-1-2v-2-1l2 1v-2a20 20 0 00-1-7h1v-1-1a29 29 0 01-1-4l1-4v-5-1a8 8 0 01-1-3 6 6 0 000-2v-1c0-2 0-4 2-4a2 2 0 013 1v2a1 1 0 01-1 1 1 1 0 010 1 9 9 0 010 1 6 6 0 001 5l3 6-3-2h-1a11 11 0 010 2v6l1 2v3a2 2 0 01-1 1v1a20 20 0 011 3 9 9 0 000 3v1h-1v1a19 19 0 010 3l1 4a2 2 0 01-1 1 5 5 0 000 1 3 3 0 010 2v1a19 19 0 010 4 9 9 0 001 4l-1 1a17 17 0 000 3 66 66 0 002 7l2 5-3-2 1 1h-1v1a7 7 0 01-1 0 4 4 0 010 4 8 8 0 010 2 2 2 0 010 1v1l1 6v1a1 1 0 01-1 1v1a3 3 0 01-1 1l1 3v5h-1l2 5v4l-1 3a12 12 0 010 4 11 11 0 001 2v2h-1a7 7 0 01-1 2 16 16 0 012 4l-1 3a7 7 0 010 2v2l1 4v2h1a1 1 0 01-1 1v1a2 2 0 01-1 2zm-3-13zm2-13a1 1 0 001 0zm-2 0h0zm2-7zm0-4h1a2 2 0 00-1 0zm-1-43a3 3 0 001-1zm1-19a2 2 0 00-1 0v1a3 3 0 001 0 2 2 0 001-1 2 2 0 00-1 0zm-1-40h-1 1zm2-2zM650 917v-2a2 2 0 011-2v-5c-1-3-2-6-1-8a12 12 0 010-4v-2-3-3a2 2 0 01-1-2 2 2 0 012-1l-1-6-1-2h1a8 8 0 010-2 3 3 0 010-1 9 9 0 010-1 1 1 0 010-1v-4-1-1a2 2 0 010-2v-6a4 4 0 011-2v-3a3 3 0 01-1 0v-1l1-3h1v-1c-3-5-3-8-2-10v-4l-1-5v-4-1a8 8 0 011-1c-2-4-1-6 0-8a2 2 0 010-1v-1a16 16 0 000-3v-1a11 11 0 01-1-5v-1a2 2 0 010-1v-1a2 2 0 010-1v-2a8 8 0 011-3 2 2 0 011-2l-2-9v-1a2 2 0 012-1l-1-6a2 2 0 00-1-1l1-2 2-2 1 2 2 12-1 7 1 2 4 8-5-5v1-1l-1-1a29 29 0 000 4v3a4 4 0 010 1 10 10 0 000 4l1 5v2a6 6 0 010 2v7l-1-2a4 4 0 011 2l-1 1v6h1v1a2 2 0 000 1h1v1a1 1 0 01-1 1 2 2 0 010 1v4l-1 1a18 18 0 002 6l1 10-1-1a7 7 0 010 2l-1 4v-1 4a151 151 0 00-1 9h1a3 3 0 010 1 6 6 0 00-1 3 2 2 0 010 1l1 6v2l1 1-1 1v3a22 22 0 010 5c-1 2-1 3 1 5l4 7-5-4 1 6h-1a49 49 0 001 5h-2v1zm1-59zm2 0h-1a2 2 0 001 0zm-3-34zM640 914a2 2 0 01-1-1l-1 1a14 14 0 010-2 1 1 0 010-1v-4a3 3 0 011-2l-2-6 1-1a1 1 0 010-1l-1-2v-2a1 1 0 010-1 15 15 0 011-5v-1a28 28 0 000-4 1 1 0 010-1l1-1v-4l-2 1 2-3a30 30 0 00-1-6 2 2 0 01-1-1v-1-7l1 1v-5-1l-2-6 2-1v-1a14 14 0 010-1v-3a3 3 0 011-1 11 11 0 00-1-4 2 2 0 01-1-2 19 19 0 010-2 2 2 0 011-2v-1a2 2 0 010-2 30 30 0 010-3 5 5 0 010-3v-1h-1v-2a4 4 0 010-2 6 6 0 001-2v-3a7 7 0 000-4 5 5 0 010-3 11 11 0 000-2h1v-4c0-3-1-7-3-10l-5-10 6 6a2 2 0 010-1 2 2 0 011-2 26 26 0 010-8v-9l1 3a3 3 0 011 0s2-1 2 1v3l-1 3a25 25 0 000 6 4 4 0 011 2 13 13 0 011 3v10l-1-2 1 4v1l2 5-3-2a5 5 0 011 2l-1 1a2 2 0 01-1 1h1v1a9 9 0 01-1 5v2a8 8 0 010 4 2 2 0 000 1v1l1 2 2 9-2-3 1 3-1 1-1 3a13 13 0 011 7 18 18 0 000 3h-1a15 15 0 001 3 3 3 0 011 0l-2 1a18 18 0 010 3v1a2 2 0 010 1v2a44 44 0 010 7v3a33 33 0 011 4v11a1 1 0 010 1 32 32 0 010 4 3 3 0 011 1v1h-1a4 4 0 01-1 1v11l2 7h-1a38 38 0 000 5h1l-1 2zm-3-130h1v-1a2 2 0 00-1 1zm3-14a2 2 0 002-1z"/><path class="s" d="M629 917a3 3 0 01-3-2h2v-1a3 3 0 011-1v-1a15 15 0 01-1-3 21 21 0 01-1-4v-4a2 2 0 011-2 12 12 0 010-6l-1-3a1 1 0 011-1v-3a3 3 0 010-2 20 20 0 01-1-4v-1-2l-1-4 1 1-1-1v-2h2v-3a2 2 0 01-1-1l1-4a5 5 0 010-3v-1l1-4-1-3v1l-1-5a3 3 0 01-1-2v-7l2 3a3 3 0 011 0l-1-2v-5l-1-3v-6-1a4 4 0 01-1-2l1-1a23 23 0 00-1-2l1-1a7 7 0 000-2l2-1h-1a1 1 0 00-1 0v-1-1a2 2 0 010-1v-3a1 1 0 010-2v-3a2 2 0 011-2v-1a3 3 0 010-1v-1a26 26 0 000-6 20 20 0 01-1-1 2 2 0 011-3 7 7 0 010-1 4 4 0 000-2v-3a16 16 0 01-1-5v-1a3 3 0 010-1 17 17 0 01-1-2l-1-4 4 2a3 3 0 011 1h1a9 9 0 010 2 4 4 0 010 1v2l1 4 1 1a2 2 0 01-1 1v1a6 6 0 010 3 3 3 0 000 4h-1 1v1a27 27 0 010 6v2l-1 2h1-1a2 2 0 010 1v2a30 30 0 010 4v6l-1 4v1l1 2v7a23 23 0 011 6l-1 1a32 32 0 002 5l1 1-3 1v1a39 39 0 012 9v1l1 4-2-1a12 12 0 010 3 6 6 0 000 2l1 1-2 1a2 2 0 011 1v1a36 36 0 001 5l2 8-4-4 1 1-1 3a14 14 0 001 4h-1l1 3a16 16 0 010 5l-1 1a11 11 0 001 6v1a2 2 0 01-1 2 20 20 0 001 5 3 3 0 011 2h-1a41 41 0 001 5h-2a3 3 0 01-2 2zm1-7a2 2 0 001 0 2 2 0 001 0zm-1-48a2 2 0 001 0 3 3 0 001 0zm1-60a2 2 0 011 1 2 2 0 000-1zM618 914h-2a3 3 0 011-3 16 16 0 010-2 6 6 0 000-3l3-1a2 2 0 00-1-1 2 2 0 00-2 1 4 4 0 000-1h-1v-2l1-1 1-5a13 13 0 010-2v-1l-1-3a34 34 0 010-6 6 6 0 000-1 2 2 0 002 0 2 2 0 001-1h-3a11 11 0 000-3l1-2a16 16 0 00-2-4 2 2 0 011-2v-1a12 12 0 01-1-3l2-1a22 22 0 00-1-5 2 2 0 010-1l-1-2v-1a1 1 0 011-2l-1-4 1 1a6 6 0 010-2 2 2 0 000-1 1 1 0 010-1l1-6h-1a4 4 0 010-4 16 16 0 000-5 24 24 0 01-1-3h2a10 10 0 010-2 21 21 0 00-1-6h-1l1-2a13 13 0 000-1 6 6 0 010-3 17 17 0 010-2 14 14 0 011-4 3 3 0 010-2 21 21 0 000-5l-2-6 2 2a10 10 0 010-4v-2-2a7 7 0 010-2 4 4 0 010-2 32 32 0 010-5v-1l-1-3a49 49 0 010-6h1a7 7 0 000-1l4-1-1 4v4l1 4-1 3 1-1v8l1 4-2 1a41 41 0 001 5 11 11 0 010 3l-1 4v2a2 2 0 010 1 16 16 0 000 3 4 4 0 011 1v1a2 2 0 01-1 1l-1 1a3 3 0 011 3 23 23 0 010 6l1 1-1 5a33 33 0 010 7 3 3 0 000 1v6a4 4 0 010 3 5 5 0 00-1 3 4 4 0 010 4v1a20 20 0 012 6l-1 4a18 18 0 00-1 3 16 16 0 011 4v4l-1 1a11 11 0 010 1 4 4 0 011 1 13 13 0 010 2 2 2 0 01-1 2l1 4a1 1 0 010 1v2a10 10 0 001 2l2 6-4-3v3a2 2 0 011 0v4a8 8 0 010 3 12 12 0 000 3l2 8zm1-67a3 3 0 00-1 0h2a3 3 0 00-1 0zm1-75a2 2 0 00-1 0h1z"/><path class="s" d="M611 905h-1a3 3 0 010 1c0 2 1 4-1 5a3 3 0 01-2 1 2 2 0 01-2-2h2a8 8 0 00-1-4l-5-12 5 7a2 2 0 011-2v-2a14 14 0 00-2-5l2-1-1-1a2 2 0 00-1 1l1-3-6 2 7-5a10 10 0 001-3 37 37 0 00-1-5 2 2 0 01-1-1 13 13 0 010-2h1v-1a3 3 0 010-1 11 11 0 000-3v-2l-1-3 1-5v-3-2-1a6 6 0 010-1v-3-2a1 1 0 01-1-1 4 4 0 011-3 2 2 0 010-2v-6l-1-3v-1l1-1-1-3a3 3 0 011-2 2 2 0 010-2v-2-5h1l-1-4v-1-1l-1-3 2-1a2 2 0 00-2 0 3 3 0 011-1 6 6 0 011-4 14 14 0 00-1-3l-3-3h3a38 38 0 000-6 1 1 0 01-1-1v-1h1l-1-7a1 1 0 011-2 5 5 0 011-2 2 2 0 000-2 4 4 0 01-1-2v-3l-1-2a2 2 0 002 1 2 2 0 002-1h-4a2 2 0 012-2 2 2 0 012 2v3l1 3a4 4 0 010 3v4l-1 1 1 4c0 4 1 5-1 6v6a16 16 0 011 3v3a2 2 0 010 1 3 3 0 000 1l-2 1a1 1 0 001 0 2 2 0 010 1v3a34 34 0 011 4v10a2 2 0 01-1 1v1l3 9-3-3a2 2 0 010 1v5a53 53 0 002 6h-3l1 1a1 1 0 000-1 1 1 0 000 1v7a2 2 0 010 1h1-1l1 6-1 2a7 7 0 00-1 3 25 25 0 011 2 1 1 0 010 1v2a13 13 0 010 3 2 2 0 010 1 16 16 0 011 2 4 4 0 01-1 1l1 4v3a8 8 0 010 3 10 10 0 01-1 3l-1 2a15 15 0 011 5 23 23 0 001 4l5 12zm-3 4a2 2 0 00-1 1l2-1a2 2 0 00-1 0zm-1-36a2 2 0 002 1 2 2 0 001-1z"/><path class="s" d="M599 912a2 2 0 01-2-2v-2l-1-5v-4a3 3 0 010-1h-1l1-1a3 3 0 011-1 13 13 0 00-2-5v-1l3-1a2 2 0 00-2 0 5 5 0 001 0v-1l-1-3a11 11 0 000-3 13 13 0 010-3h1v-2a3 3 0 010-1l-1-2-1-6a2 2 0 010-1h1v-3l-1-4v-1l-2-6 4 3a61 61 0 01-1-6l-1-4-3-3 4 1a2 2 0 011-2 4 4 0 010-1l1-4-1-4a18 18 0 01-1-2 2 2 0 010-1l1-4a14 14 0 01-1-3 18 18 0 00-1-6l-3-9 4 5a5 5 0 010-1 1 1 0 011 0 24 24 0 00-1-4 3 3 0 01-1-2l-1-3 3 1a12 12 0 010-2 21 21 0 00-2-7h2v-2h-1a31 31 0 010-4l1-4-1-2 1-4a8 8 0 01-1-3 6 6 0 000-2v-1 1c0-3 0-5 2-5a2 2 0 012 1 1 1 0 011 0v2a1 1 0 01-1 1 2 2 0 010 1 9 9 0 010 2 6 6 0 001 4l4 7-5-4a12 12 0 010 3v6a134 134 0 001 5 2 2 0 01-1 2 20 20 0 011 3 9 9 0 000 3l-1 1v1a19 19 0 010 3v4a2 2 0 010 1 5 5 0 000 2 3 3 0 01-1 2 19 19 0 011 4 9 9 0 001 4l-2 1a18 18 0 001 3 69 69 0 002 7l2 6-3-3 1 1h-2a5 5 0 010 1 4 4 0 01-1 4 9 9 0 011 3 2 2 0 010 1l1 6v1a1 1 0 01-1 1 3 3 0 01-1 2v3l1 2v3h-1l1 6h1v3l-1 3a12 12 0 010 4 12 12 0 001 2v1l-1 1a6 6 0 01-1 2 15 15 0 011 4v3a6 6 0 010 2 2 2 0 010 1v1l1 5v3a2 2 0 01-2 2zm-2-13zm2-13zm-3 0a1 1 0 001 0h1zm2-7h1zm1-4h1a2 2 0 00-1 0zm-1-43a2 2 0 001-1zm1-19a2 2 0 00-1 1 3 3 0 002-1 2 2 0 00-1 0zm-2-40a2 2 0 000 1l1-1zm3-2v1-1z"/><path class="t" d="M529 153l1-3h7v3h-8z"/><path class="u" d="M554 153v-3h7v3h-7zM582 153l1-3h7v3h-8z"/><path class="t" d="M609 176h3v7h-3v-7z"/><path stroke-width="1.3" stroke="#1d150c" fill="#3f2b0f" stroke-miterlimit="10" d="M609 202l4 1v8h-4v-9z"/><path class="u" d="M610 230h3v7h-3v-7z"/><path class="t" d="M506 236h-2v-7h2v7z"/><path class="u" d="M506 211h-3v-7h3v7zM506 183h-3v-7h3v7z"/><path stroke-width="1.4" stroke="#1d150c" fill="#3f2b0f" stroke-miterlimit="10" d="M588 256v4h-8v-4h8z"/><path class="u" d="M561 257v3h-7v-3h7zM535 256v3h-7v-3h7z"/><path class="x" d="M508 255v2l1 1 2-1 2 1h2l1-1 1-1v-5h-6l-3 4zM517 252v5l4 1h4l1-1 1-1-1-4a13 13 0 00-1-1h-8zM535 252v5h4l1 1h3l1-1 1-1 1-5h-10l-1 1z"/><path class="x" d="M526 252v5l1 1 3-1h4l1-1v-5l-7-1-2 2zM563 252v5h8v-1h1l-1-3 1-1-7-2-2 2zM552 252v4l1 1h2l2 1h3l1-1 2-1v-5h-8l-3 1z"/><path class="x" d="M545 252l-1 2v2l1 1 2 1h5a10 10 0 000-2v-4l-3-1zM578 252v4l1 1h8l1-1 1-1v-4l-8-1-3 2z"/><path class="x" d="M588 252v4l1 1h12l2-1v-2l1-3-11-1-5 2zM571 252l-1 1v3l1 1h7a11 11 0 000-1v-4l-3-1z"/><path class="y" d="M609 256h-2l-2 1h-1l-1-1v-4l-1-1 2-1z"/><path class="x" d="M517 247v3l1 2v1l3-1h4l2-1v-5l-8-1-2 2z"/><path class="x" d="M526 247v4l1 1h8l2-1-1-4a14 14 0 00-1-1h-8zM558 247l-1 2v2l1 1h10l1-1h1l-1-3v-1l-9-2-2 2z"/><path class="x" d="M545 246v5l1 1v1h8l1-1h2v-3l1-3h-10-3z"/><path class="x" d="M536 246l-1 3v2l1 1h9a7 7 0 000-1v-5h-4zM513 251l1 1h4v-5l-1-1-4 5zM577 246v5l1 1h7l1-1h1l1-5h-11z"/><path class="x" d="M587 246v6h11l1-1v-6h-9l-3 1zM568 247v5h8l1-2v-4l-8-1-1 2z"/><path class="x" d="M603 251h-2-3v-2l-1-2v-1l2-1zM522 242v5h8l1-2v-4l-7-1-2 2zM531 242v5h8l1-1 1-1v-3a13 13 0 00-1-2l-9 1zM562 242v4l2 1h7l1-1h1l-1-3v-2l-7-2-3 3zM549 242v4l1 1h10l2-1v-5l-9-1-4 2z"/><path class="x" d="M540 242a15 15 0 010 1v2l1 1h3l2 1h3v-1a7 7 0 000-1v-3l-4-1zM593 242l-1 2v3l-2-1a6 6 0 01-2 1 5 5 0 00-1-1l-1 1-1-1a6 6 0 01-1-1v-4l5-2zM572 245l1 1 2 1h8l1-1v-5l-6-1-5 1-1 2v2z"/><path class="x" d="M599 245l-1 1-1 1-3-1h-1l-1-2 1-3 1-1 5 5zM518 245v2h1l2-1 1 1 1-1v-5h-1l-4 4zM524 239v3h8l1-1v-5l-6-1-3 4z"/><path class="x" d="M533 237l-1 1v2l1 1v1h8l1-1 1-1-1-3a13 13 0 00-1-2l-8 1zM551 236v5l1 1h7l1-1h1l1-5h-11z"/><path class="x" d="M542 237v5h8l1-2v-4l-8-1-1 2zM594 241l-2 1h-2-1l-1-1v-1l-1-2 1-1v-2l6 5z"/><path class="x" d="M579 236v5l2 1h6v-1h1l-1-3 1-2-7-2-2 2zM568 237v4l1 1h8l2-1v-5l-8-1-3 2z"/><path class="x" d="M561 237l-1 1v3l1 1h7a11 11 0 000-2v-3l-3-1zM543 231v5l1 1h7l1-1h1v-5h-10z"/><path class="x" d="M553 231v5h1l3 1 2-1h1l3 1 1-1h1v-6h-9l-3 1z"/><path class="x" d="M564 231v5l1 1 3-1h4l1-1v-5l-7-1-2 2zM534 232v5h8l1-2v-4l-8-1-1 2zM573 231v5h9l1-1v-4a14 14 0 00-1-1h-9z"/><path class="x" d="M588 236h-2-3v-2l-1-2v-1l2-1zM528 236l1 1h5v-7h-1l-5 6zM534 230v1h5l1-1v-5l-1-1-5 6zM540 226v5h3l1 1h2l1-1 1-1v-5h-7l-1 1z"/><path class="x" d="M548 226l-1 2v2l1 1h10l1-1v-5l-8-1-3 2zM559 226v5h8l1-1v-5l-8-1-1 2zM568 226v5h9l1-2-1-3a14 14 0 00-1-2l-8 1z"/><path class="x" d="M583 230h-2l-2 1h-1l-1-1v-5h1z"/><path class="x" d="M578 225l-1 1h-3-1l-1-1v-1l-1-2 1-1v-2l6 6z"/><path class="x" d="M563 221v4l2 1h6v-1h1l-1-3 1-2-7-1-2 2zM552 221v4l1 1h8l2-1v-5l-7-1-4 2z"/><path class="x" d="M545 221v5h3l2 1h2l1-1a11 11 0 00-1-1v-4l-3-1zM539 225v1h6v-5l-1-2-5 6zM566 216v4l-1 1h-2a6 6 0 01-1 0 5 5 0 00-1 0h-3a6 6 0 010-1v-4l4-2z"/><path class="x" d="M549 220l1 1h4l2 1h1l1-1v-5l-5-2-3 1-1 2v3zM544 220l1 1h4v-6h-1l-4 5zM572 220v1h-5l-1-2v-3l1-1 5 4v1z"/><path class="x" d="M563 215l-2 1-1 1h-3l-2-1h-1l-1-2 1-3 1-1 8 1z"/><path class="x" d="M554 215l-1 1h-4l-1-1 6-6v6zM568 215l-1 2-4-1-1-1v-4l1-1 5 4v1z"/><path class="x" d="M563 210l-1 1h-4v-2l-1-4 4 2 2 3z"/><path class="x" d="M553 210l1 1h4v-4l-1-2-4 4v1zM608 154v-2h-8l-1 1v5h6l3-4z"/><path class="x" d="M600 157v-4l-1-1h-9l-1 1 1 4a14 14 0 001 1h8zM581 157v-4l-1-1h-3l-1-1-3 1h-1l-1 1-1 5h10l1-1z"/><path class="x" d="M590 157v-5h-8l-1 1v5l7 1 2-2zM553 157v-5h-7l-1 1h-1l1 3-1 2 7 1 2-2zM564 157v-4l-1-1h-8l-2 1v5l7 1 4-2z"/><path class="x" d="M571 157l1-2v-2l-1-1h-3l-2-1h-2v1a10 10 0 000 1v4l3 1zM538 157v-4h-1v-1h-8l-1 1-1 1v4l8 1 3-2z"/><path class="x" d="M528 158v-4l-2-1v-1h-11l-2 1v2l-1 3 11 1 5-1zM546 158v-2-3l-1-1h-7a11 11 0 000 2v3l3 1z"/><path class="y" d="M507 153h6v4l1 1-2 1z"/><path class="x" d="M599 162v-3l-1-2h-7l-2 1v5l8 1 2-2z"/><path class="x" d="M590 162v-4l-1-1h-8l-2 1 1 4a14 14 0 001 1h8zM558 162l1-2v-2l-1-1h-10l-1 1h-1l1 3v2l9 1 2-2z"/><path class="x" d="M571 163v-5l-1-1h-2l-2-1h-4l-1 1-2 1v2l-1 3 10 1 3-1z"/><path class="x" d="M580 164l1-3v-3l-1-1h-9a7 7 0 000 2v4h4zM603 158l-1-1h-4v6h1l4-5zM539 163v-5h-1l-3-1h-4l-1 1-1 1-1 4h11z"/><path class="x" d="M529 163v-5h-11l-1 1v5l9 1 3-2zM548 163v-5l-1-1-3 1-1-1h-2l-1 1-1 1v5h8l1-1z"/><path class="x" d="M513 158h5v2l1 2v1l-2 1zM594 168v-5l-1-1h-6l-1 1-1 1v5h7l2-1zM585 168v-6h-8l-1 1-1 1v3a13 13 0 001 2h9zM554 168v-5h-10l-1 1 1 2-1 2 8 2 3-2zM567 168v-5h-1l-1-1h-9l-2 1v5l9 1 4-1z"/><path class="x" d="M576 168a16 16 0 010-2v-2l-1-1h-8a8 8 0 000 1v4l4 1zM523 168l1-3v-2h2a6 6 0 012 0 4 4 0 001 0h2a6 6 0 011 1v4l-5 2zM544 164l-1-1-2-1h-8l-1 1v5l6 1h5l1-3v-2z"/><path class="x" d="M517 164l1-1 1-1 3 1h1l1 2-1 3-1 1-5-4v-1zM598 164v-1h-5v5h1l4-4zM592 170v-2l-1-1h-6l-1 1-1 1v4l6 1 3-4z"/><path class="x" d="M584 173v-5l-1-1h-7l-1 1-2 1 1 3a13 13 0 001 2h8zM565 173v-5h-1l-3-1h-4l-1 1-1 1-1 4h11z"/><path class="x" d="M574 173v-5l-1-1-3 1-1-1h-2l-1 1-1 1v5h7l2-1zM522 168l2-1 2 1 1-1 1 1v1l1 3-1 1v1l-6-5z"/><path class="x" d="M537 173v-5h-8l-1 1 1 2-1 2 7 2 2-2zM548 173v-4l-1-1-1-1h-7l-2 1v5l8 1 3-1z"/><path class="x" d="M555 173l1-2v-3l-1-1h-7a11 11 0 000 2v4l3 1zM573 178v-5h-1l-3-1h-4l-1 1-1 1v4h10z"/><path class="x" d="M563 178v-5h-11l-1 1v5l9 1 3-2z"/><path class="x" d="M552 178v-5h-8l-1 1v5l7 1 2-2zM582 178v-5l-1-1-3 1-1-1h-2l-1 1-1 1v5h8l1-1zM543 178v-5h-9l-1 1v4a14 14 0 001 1h9z"/><path class="x" d="M528 174v-1h5v3l1 1v2h-2zM588 174l-1-2h-4l-1 1v6h1l5-5zM582 179v-1h-5l-1 1v5l1 1 5-6zM576 183v-4l-1-1h-2l-1-1-2 1h-1l-1 1v5h7l1-1z"/><path class="x" d="M568 183l1-2-1-2v-1h-10l-1 1v6h8l3-2zM557 183v-5h-8l-1 2v4l8 1 1-2zM548 184v-6h-8l-1 1-1 1 1 3a15 15 0 001 2h8z"/><path class="x" d="M533 179h2l2-1h1l1 1v5l-1 1z"/><path class="x" d="M538 184l1-1h4l1 1v1l1 2-1 1v2l-6-5z"/><path class="x" d="M553 189v-5l-2-1h-6v1h-1l1 3-1 2 7 2 2-2zM564 188v-4l-1-1h-8l-2 1v5l7 1 4-2z"/><path class="x" d="M571 188v-1-4h-8a11 11 0 001 2v3l3 1zM577 184v-1h-6v5l1 2 5-6zM550 193v-4l1-1h2a6 6 0 011 0 4 4 0 001 0h3a6 6 0 010 1v4l-4 2z"/><path class="x" d="M567 189l-1-1h-8v5l5 2 3-1 1-2v-3zM572 189l-1-1h-4v6h1l4-5zM544 189v-1h4l1 1 1 1v3l-1 1-5-4v-1z"/><path class="x" d="M553 194l2-1h7v5l-1 1-8-1zM562 194l1-1h4l1 1-6 6v-6z"/><path class="x" d="M548 194l1-1h4l1 1v4l-1 1-5-4v-1z"/><path class="x" d="M553 199l1-1h3l1 1v2l1 3-4-2-2-3z"/><path class="x" d="M563 199l-1-1h-4v5l1 1 4-4v-1zM608 255h2l1-1-1-2 1-2v-2l-1-1-1-1h-5v5l4 4zM605 246h5l1-4v-4l-1-1-1-1-4 1a14 14 0 00-1 1v8zM605 228h5v-4l1-1v-3l-1-1-1-1-5-1v9l1 2z"/><path class="x" d="M605 237h5l1-1-1-3v-4l-1-1h-5l-1 7 2 2zM605 200h5v-8l-1-1-3 1-1-1-2 7 2 2zM605 211h4l1-1v-2l1-2v-3l-1-1v-2h-6v7l1 4z"/><path class="x" d="M605 218l2 1h2l1-1 1-2v-5a11 11 0 00-2 0h-4l-1 3zM605 185h4l1-1v-8l-1-1-1-1h-4l-1 8 2 3z"/><path class="x" d="M605 175h4l1-2v-11l-1-2h-2l-3-1-1 11 2 5zM605 193h4l1-1v-7a11 11 0 00-1 0h-4l-1 3z"/><path class="y" d="M609 154v2l1 2v1l-1 1h-4l-1 1-1-2z"/><path class="x" d="M600 246h3l2-1h1l-1-3v-4l-1-2h-5l-1 8 2 2z"/><path class="x" d="M600 237h4l1-1 1-3v-4l-1-1-1-2-4 1a14 14 0 00-1 1v8zM600 205l2 1h2l1-1v-11h-1v-1l-3 1-1-1-2 10 2 2z"/><path class="x" d="M599 218h5l1-1h1v-8l-1-1v-2h-2l-3-1-1 10v3z"/><path class="x" d="M599 227l3 1h2l1-1v-8-1a8 8 0 00-1 0h-5v4zM604 250l1-1v-4h-5l-1 1 5 4zM599 186h5l1-1v-7l-1-1v-1l-5-1v11z"/><path class="x" d="M600 176h5v-11l-1-1h-6v9l2 3zM600 195h5v-8l-2-1h-4l-1 8 2 1z"/><path class="x" d="M604 160v2l1 2v1h-3l-2 1h-1l-1-2zM595 241h5v-8l-2-1h-4l-1 7 2 2zM595 232h5v-9l-2-1h-3a14 14 0 00-2 1l1 9zM595 201h4l1-2v-7l-1-1v-1l-3 1-2-1-2 8 3 3zM595 214h4l1-1v-10l-1-2h-5l-1 9 2 4z"/><path class="x" d="M595 223a13 13 0 011 0h2l1-1 1-2v-6l-1-1a7 7 0 00-1 1h-3l-1 4zM595 170l2 1h3l-1 2a6 6 0 011 2 5 5 0 00-1 1v2a6 6 0 01-1 1h-4l-2-5zM598 191l1-1 1-2v-8l-1-1h-5l-1 6 1 5 2 1h2z"/><path class="x" d="M598 164l1 1 1 1-1 3v1l-2 1-3-1-1-1 5-5zM598 245h2v-1l-1-2 1-1-1-1h-5v1l4 4zM592 239h3v-8l-1-1h-5l-1 6 4 3z"/><path class="x" d="M590 231h4l1-1v-9l-2-1-3 1a14 14 0 00-2 1l1 8zM589 212h5l1-1v-7l-1-1v-1l-5-1v11z"/><path class="x" d="M590 221h5v-8l-2-1h-4l-1 7 2 2zM594 169l1 2v3l-1 1h-1l-2 1-1-1h-2l5-6z"/><path class="x" d="M589 184h5l1-2v-5l-1-1v-1l-3 1-2-1-2 7 2 2zM590 195h4l1-1v-8l-1-2h-5l-1 8 2 3z"/><path class="x" d="M590 202l1 1h3l1-1v-7a11 11 0 00-1 0h-4l-1 3zM584 220h5l1-1v-7l-1-1v-1l-5-1v11z"/><path class="x" d="M584 210h6v-11l-1-1h-6v9l1 3z"/><path class="x" d="M584 199h5l1-1-1-3 1-1v-2l-1-1-1-1h-5v7l1 2zM585 229h5v-8l-2-1h-4l-1 8 2 1zM584 190h5l1-4v-4l-1-1-1-1h-4a14 14 0 00-1 1v9z"/><path class="x" d="M589 175v5h-2l-2 1h-1l-1-2zM589 235l1-1v-5h-7v1l6 5zM583 229h1v-5l-1-1h-5l-1 1 6 5zM579 223h5v-3l1-1v-2l-1-1-1-1h-5v7l1 1z"/><path class="x" d="M579 215l2 1 2-1h1v-10l-1-1h-5l-1 8 2 3zM579 204h5v-8l-1-1h-5l-1 8 2 1zM579 195h5v-9l-2-1-3 1a14 14 0 00-2 1l1 8z"/><path class="x" d="M583 180l1 1v4l-1 1h-5v-1z"/><path class="x" d="M578 185l1 1v4l-1 1h-1l-2 1-1-1-2-1 6-5z"/><path class="x" d="M574 200h5v-8h-1v-1l-3 1-2-1-1 7 2 2zM574 211h4l1-1v-8l-1-2h-5l-1 7 2 4z"/><path class="x" d="M574 218h5v-3l1-2v-2l-1-1a11 11 0 00-1 1h-4l-1 3zM578 224h1v-6h-5l-2 1 6 5zM569 197h5v3a6 6 0 010 1 5 5 0 000 1v3a6 6 0 01-1 0h-4l-2-4z"/><path class="x" d="M573 214l1-1v-4l1-2v-1l-1-1h-5l-2 5 1 3 2 1h3zM573 219l1-1v-4h-6v1l5 4zM573 191h1v5l-2 1h-3l-1-1 4-5h1z"/><path class="x" d="M568 200l1 2 1 1v3l-1 2v1h-5l-1-1 1-8zM568 209l1 1v4l-1 1-6-6h6z"/><path class="x" d="M568 195l2 1-1 3v1l-1 1h-4l-1-1 4-5h1z"/><path class="x" d="M563 200l1 1v4h-2l-4 1 2-4 3-2z"/><path class="x" d="M563 210l1-1v-4h-4l-2 1 4 4h1zM507 154h-2v8l1 1h5l1-5-5-4zM510 163h-5v9l1 1h4a15 15 0 001-2v-8zM510 181h-4l-1 1v3l-1 2 1 3v1l1 1h5v-9l-1-2z"/><path class="x" d="M510 172h-5v8l1 2h5l1-8-2-2zM510 210l-2-1h-1l-1 1-1 1v6h1v1h5l1-7-2-1z"/><path class="x" d="M510 199h-5v8l1 2h2l3 1 1-8-2-3z"/><path class="x" d="M510 191h-2-3v3l-1 2v2l1 1a10 10 0 001 0h4l1-4zM511 225h-5l-1 1v7l1 2h5l1-7-1-3zM511 235h-4l-1 1-1 1v10l1 2h2l3 1 1-11-1-4zM511 217h-2-4v8a11 11 0 002-1h4l1-3z"/><path class="y" d="M506 255v-1-1-4h6v1z"/><path class="x" d="M515 164h-5v8l1 1h5l1-8-2-1zM515 173h-5v9l1 1 4-1a14 14 0 002-1l-1-8zM515 204h-5v10l1 1v1l3-1 2 1 1-9-2-3zM517 191h-6l-1 1v9l1 2v1h5l1-9v-4z"/><path class="x" d="M517 182h-3-3l-1 3v6a7 7 0 002 0h5l-1-4zM511 159l-1 1v4l1 1h5v-1l-5-5zM516 223h-5v1l-1 3v5l1 1 1 1h5v-9l-1-2z"/><path class="x" d="M516 233h-4l-1 1v10l1 1h5l1-9-2-3zM516 214h-5l-1 1 1 3-1 1v2l1 1 1 2 5-1v-7l-1-2z"/><path class="x" d="M511 250v-1-1-4h5l1 1zM521 168h-3l-2 1h-1l1 3-1 2v1l1 2 1 1h5v-8l-1-2z"/><path class="x" d="M521 177h-5v1l-1 4v3l1 1 1 2 4-1a15 15 0 001-1v-8zM521 209l-2-1h-2l-1 1v10h1l2-1 2 1 2-8-2-2z"/><path class="x" d="M521 196h-4l-1 1h-1v9l1 2h2l3 1 1-9-1-4z"/><path class="x" d="M521 187a16 16 0 01-2-1h-2l-1 1v9a8 8 0 001 0h4l1-4zM521 239h-5v-3a5 5 0 010-1 5 5 0 000-1v-3a5 5 0 011 0h4l2 4z"/><path class="x" d="M517 218l-1 1v3l-1 3v4l1 1 1 1h4l1-7v-5l-2-1h-3zM517 245l-1-1v-5h5l1 1-4 5h-1zM517 164l-1 1v4h5l1-1-5-4zM523 170h-2l-1 1 1 3-1 1v2l1 1 1 1h5v-5l-4-4zM526 179h-6v8l1 1 1 1h4a14 14 0 001-2v-8zM526 197h-5v4l-1 2v3l1 1 1 1h5v-9l-1-2z"/><path class="x" d="M526 188h-5l-1 1 1 3-1 1v2l1 1 1 2h5v-8l-1-2zM522 240l-1-1v-2l-1-2 1-1h5l1 1-5 5zM526 226l-2-1h-2l-1 1v7l1 1h4l2-7-2-1z"/><path class="x" d="M526 215h-5l-1 1v6l1 1v2h3l3 1v-8l-1-3z"/><path class="x" d="M526 207h-2-3l-1 2v6a11 11 0 002 0h4l1-4zM531 189h-5v4l-1 2v2l1 2 1 1h5v-9l-1-2z"/><path class="x" d="M531 199h-4l-1 1v10l1 1h5l1-9-2-3z"/><path class="x" d="M531 210h-3l-2 1v7l1 2h5l1-8-2-2zM531 180h-5l-1 1 1 3-1 1v2l1 1 1 1h5v-7l-1-2z"/><path class="x" d="M531 219h-4l-1 1v8l1 2 4-1a14 14 0 001-1v-8z"/><path class="x" d="M527 235l-1-1v-1-3l1-1h5v1zM527 174l-2 1v1l1 2-1 1 1 1 1 1h5v-2l-5-5z"/><path class="x" d="M532 180l-1 1v4l1 2h5l1-2-6-5z"/><path class="x" d="M536 186h-4l-1 1v6l1 1h5v-7l-1-1zM536 194h-5v11l1 1h6v-9l-2-3z"/><path class="x" d="M537 205h-5l-1 1v6l1 1 1 1h4l1-7-1-2zM537 214h-6v8l1 1 1 1h3a14 14 0 002-1v-9z"/><path class="x" d="M532 229v-2-3h2l2-1h1l1 2z"/><path class="x" d="M537 224l-1-1v-2-2l1-1h5l1 1-5 6zM542 210l-2-1h-2l-1 1v8h5l2-6-2-2z"/><path class="x" d="M541 199h-4v1h-1v8l1 1h2l3 1 1-8-2-3z"/><path class="x" d="M542 191h-2-3l-1 1v7a11 11 0 002 0h3l2-3zM537 185h-1v6h6l1-1-6-5zM546 213l-2-1h-3v-2a5 5 0 010-2 5 5 0 000-1v-2h1a5 5 0 010-1h4l2 5z"/><path class="x" d="M542 195l-1 1v8h5l2-4-1-4-2-1h-3zM543 190l-2 1v3l1 1h5v-1l-4-4zM543 218h-2v-1l1-3v-1l1-1h3l2 2-5 5v-1z"/><path class="x" d="M547 209l-1-1v-7h1l1-1h3l1 1v8zM547 200h-1v-5l1-1 6 6h-6zM547 214l-1-1v-4h6l-4 5h-1z"/><path class="x" d="M552 209h-1v-4l1-1h5l-2 3-3 2zM552 200h-1v4h6l-4-4h-1z"/><path style="isolation:isolate" opacity=".1" fill="url(#a)" d="M505 154h104v103H505z"/><path class="aa" d="M507 256l6-5 6-6 7-7 9-9 10-9 10-11 3-3-1-1-3 3-11 10-9 9-9 10-7 6-6 6-6 6v2zM506 154l6 6 6 6 6 7 10 9 9 9 11 11 2 3 2-1-3-3-11-11-9-9-9-9-7-7-6-6c-3-2-4-5-5-6h-2z"/><path class="aa" d="M608 153l-6 6-6 5-7 7-9 9-9 10-11 10-3 3 2 1 3-2 10-11 10-9 9-10 7-6 6-6 6-6v-2zM610 256l-6-6-6-6-6-8-10-9-9-9-10-10-3-3-1 1 2 3 11 11 9 9 10 9 6 7 6 6 6 6h2z"/><path class="aa" d="M560 207h-4v-4h4v1a6 6 0 010 3z"/><path class="ab" d="M1147 667c0 4 2 8 7 9-1 4-2 8-1 11s4 7 8 6c-3 7 1 14 8 16 1 3 1 7 3 9s6 3 9 1a10 10 0 0012 8c1 2 2 5 4 6s5 2 7 0a7 7 0 007 6 23 23 0 013 0c5 0 7 4 12 4 5 1 5-3 10-5 3-1 7 1 10 2s9-2 8-5c3 2 7 4 11 3s8-4 7-7c3 3 10-1 10-5a9 9 0 0014-10 7 7 0 107-12 7 7 0 008-13c2 0 5-1 6-3s1-6-2-7c8-1 12-11 7-18a8 8 0 104-15 9 9 0 00-4-17c2-5-2-11-7-10a7 7 0 00-6-12c4-5-1-15-7-14 1-3-1-7-4-8l-9-2c-1-3-2-7-4-9s-7-3-9 0c-2-7-12-10-18-7-3-5-13-5-15 0-6-6-19-5-24 3-5-6-15-3-17 4-6-4-16 0-18 8-5-3-13 1-13 7a13 13 0 00-8 16c-3 2-5 7-5 11a4 4 0 01-2 3c-2 1-6 4-6 10l2 9s-9 5-2 14c-2 4-3 8-3 13z"/><path class="ac" d="M1309 600c-1-3-4-6-7-5 1-3-1-7-4-8l-9-2c-1-3-2-7-4-9s-7-3-9 0c-2-7-12-10-18-7-3-5-13-5-15 0-7-6-19-5-24 3-5-6-15-3-17 4-6-4-16 0-18 8-5-3-13 1-13 7a13 13 0 00-8 16c-3 2-5 7-5 11a4 4 0 01-2 3c-2 1-6 4-6 10l2 9c0 1-9 5-2 14l-3 12c0 4 2 9 7 10-1 4-2 7-1 11s4 7 8 6c-3 6 1 14 8 16l3 9c2 3 6 3 9 1a10 10 0 0012 8c1 2 2 5 4 6s5 2 7 0a7 7 0 007 6 23 23 0 013 0c5 0 7 4 12 4 5 1 5-4 10-5 3-1 7 1 10 2s9-2 8-5c3 2 7 3 11 3a23 23 0 001-4 4 4 0 000-2l-4-3-6-5c-4-3-8-1-12-1s-10-3-8-7c1-5 9-3 13-6a4 4 0 00-4-4c0-3 4-4 7-5s6-4 4-7c-2-2-7 0-9-2s0-6 3-7h8c2 0 6-3 6-6-2-4-10-4-10-8l1-6c-1-2-4-2-6-1l-6 4a7 7 0 01-5-12l7-1c2 0 5-4 4-6l-6-3a26 26 0 0114-11c-3-2-3-6 0-9s6-2 9-3c8-1 22-1 28-6-7-9 6-14 13-17z"/><path class="ad" d="M1190 697l-6-6-9-15c-1-3-1-7 1-7-1-3-2-8 1-9a15 15 0 01-10-10c-1-3-1-7 1-9l3-3a8 8 0 002-8l4-2-1-4a4 4 0 00-1-6l3-4c2-7 11-10 17-7 3-3-1-10 2-13 2-2 6 0 10 0s7-3 11-4c5-2 10 0 15 2 4 1 9 4 11 8s2 10-2 13c-2 2-5 2-8 2l-16 1a10 10 0 00-5 1 6 6 0 00-2 8 8 8 0 007 4c-1 4-4 5-7 6l-10 2c-3 1-5 6-3 9a8 8 0 016 1 22 22 0 00-6 12 102 102 0 0020 12l-5 4c-2 1-4 2-4 4s2 4 3 3l-1 8-5 5c-5 4-11 6-16 2z"/><path class="ad" d="M1287 597l-2-1-4-4-5-2c-1-1-4-2-4-4l1-3a3 3 0 00-2-2 14 14 0 00-10 1h-4l-1-3c-1-2-3-4-5-4a18 18 0 00-7 0c-4 1-10 0-11 5a1 1 0 001 2h1a5 5 0 012 1c3 1 6 3 6 6a7 7 0 000 2l4 1h4c3 1 3 5 1 7s-3 5-3 8a25 25 0 006 2l-3 4c-1 1-2 3-1 4 1 2 5 1 6 0s4-4 7-4a10 10 0 013 1 14 14 0 007 1 4 4 0 003-1c2-2-1-7 2-8h4a5 5 0 004-9zM1217 660c-2 1-2 3-1 5a8 8 0 002 1c3 1 5 4 7 7v4l-3 1a5 5 0 00-2 7 28 28 0 012 3c1 1 0 4-1 6l-3 7a11 11 0 01-2 4l-6 2c-4 1-9 2-13 0a26 26 0 00-5-1l-4 2c-1 2 1 4 3 5h7a4 4 0 012 1l1 6a7 7 0 0013 4 22 22 0 005 6c2 2 5 3 7 2s4-4 3-7l-4-3a7 7 0 010-10 7 7 0 013-2c2 0 4 0 5-2a4 4 0 000-2 17 17 0 00-2-7c3-2 7-4 9-7s-1-8-4-9h-4v-4l2-3c0-4-5-5-7-9l-1-5c-1-4-6-4-9-2zM1157 666a3 3 0 000 1l3 1c1 0 3 3 3 5a31 31 0 010 6 16 16 0 001 8c1 3 3 5 6 5l1 5a7 7 0 002 4 3 3 0 004-1c1-1 0-3-1-5l-3-4v-6c0-3-2-5-3-7s-2-6 0-8a4 4 0 001-1 3 3 0 00-1-2c-2-6-11-10-13-1zM1174 596a6 6 0 003 1c1 1 0 2-1 3l-3 1a6 6 0 00-2 3l-2 6a4 4 0 000 3h4a7 7 0 001-4 8 8 0 012-5c3-3 9 0 12-4v-5c0-2 2-4 3-4 3 1 6-1 8-2 1-1 3-3 2-5a3 3 0 00-1-1c-2-2-6 0-8 1s-4 4-7 4c-5 1-10 2-11 8z"/><path class="ac" d="M496 389c0-6 4-12 10-15s13-3 17 2c4-5 10-10 16-10s14 2 16 8c10 2 16 13 13 22a36 36 0 00-2 4v4c-1 4-3 8-6 11-5 6-13 11-22 14s-19 5-28 1c-7-3-13-10-13-18v-9c0-5-2-9-1-14z"/><path class="ad" d="M504 419l-2-15c1-6 5-12 10-15s14-2 18 2c4-5 9-9 16-10s14 2 16 8a15 15 0 017 3c1-8-5-17-14-19-2-6-9-9-16-8s-12 5-16 10c-4-5-12-5-17-2s-10 9-10 15c-1 5 1 9 1 14v9a21 21 0 006 13 35 35 0 001-5z"/><path class="ac" d="M593 517c8-1 15-9 14-17a14 14 0 007-24c3-3 4-8 3-12s-6-7-10-9a37 37 0 00-37 3 18 18 0 01-4 2 38 38 0 01-4 1c-7 2-10 9-10 16s2 12 5 18c3 8 10 7 16 12 7 4 10 11 20 10z"/><path class="ab" d="M614 476c3-3 4-8 3-12s-6-7-10-9a36 36 0 00-12-4 17 17 0 018 8c1 4 0 10-3 12a14 14 0 01-7 25c1 8-5 15-13 17 3 3 7 5 13 4 8-1 15-9 14-17a14 14 0 007-24z"/><path class="ac" d="M441 470a16 16 0 002 18 27 27 0 00-9 19c-1 6 2 12 7 15s11 1 17-1c-2 4-1 8 1 11a18 18 0 0010 6 23 23 0 0016-1c5-2 8-7 9-12 5 2 11 1 15-3s7-8 9-13c2-6 2-13 0-19s-7-12-13-14c1-3 2-7 0-11-1-3-5-4-8-6-7-3-14-5-22-5s-12 4-19 7c-5 3-11 2-15 9z"/><path class="ab" d="M505 468h1a9 9 0 00-1-2v2zM518 501c-2 5-5 9-9 13s-10 4-15 2c-1 5-4 10-9 13a23 23 0 01-16 1 18 18 0 01-10-6c-2-4-3-8-1-11-6 1-12 3-17 0-4-2-6-6-7-10a26 26 0 000 4c-1 6 2 12 7 15s11 1 17-1c-2 4-1 8 1 11a18 18 0 0010 6 23 23 0 0016-1c5-2 8-7 9-12 5 2 11 1 15-3s7-8 8-13a34 34 0 002-15 38 38 0 01-1 7zM443 479a15 15 0 01-3-6 16 16 0 000 9 26 26 0 013-3z"/><path class="ac" d="M447 398c-1 1-3 3-3 5s1 5 3 5a25 25 0 00-15 19 37 37 0 001 13c1 4 3 9 8 9a10 10 0 013 0c2 1 2 3 3 5a18 18 0 0031 7 5 5 0 012-2l4 2a23 23 0 0032-7 23 23 0 003-6 23 23 0 00-4-41c3-2 4-7 2-11s-5-6-8-8a25 25 0 00-14-2 20 20 0 01-5 0 20 20 0 01-4-1 24 24 0 00-21 3l-7 5c-5 1-7 1-11 5z"/><path class="ab" d="M529 427a24 24 0 00-9-16 22 22 0 012 5 24 24 0 01-11 21 23 23 0 01-35 13l-4-2a5 5 0 00-2 2 18 18 0 01-18 7 17 17 0 01-5-3 18 18 0 0031 7 5 5 0 012-2l4 2a23 23 0 0032-7 24 24 0 003-6 24 24 0 0010-21z"/><path class="ad" d="M453 418c-6 0-11 6-9 12s7 10 13 10c2-1 4-1 5-3a8 8 0 001-4 38 38 0 000-8 9 9 0 009-6c1-3 1-7 4-8l5 1 5-5c1-2 2-4 1-6-2-3-5-3-8-3h-14c-7 0-7 2-9 8-2 4-7 7-3 12z"/><path class="ac" d="M528 462c-2 0-4 0-6 2s-2 4-1 5a25 25 0 00-23 5 37 37 0 00-7 11c-3 4-4 9 0 12a10 10 0 012 2c1 2 0 4-1 6a18 18 0 0019 25 5 5 0 013 0c2 0 2 2 3 3a23 23 0 0029 16 23 23 0 006-3 23 23 0 0022-34c4 0 8-3 9-7s1-8-1-12a25 25 0 00-10-11 20 20 0 01-3-2 21 21 0 01-3-4 24 24 0 00-18-10l-9-1c-4-2-6-4-11-3z"/><path class="ab" d="M573 536a24 24 0 003-18 22 22 0 01-2 5 24 24 0 01-21 10 23 23 0 01-35-13c-1-1-1-3-3-3a5 5 0 00-3 0 18 18 0 01-17-7 17 17 0 01-3-5 18 18 0 0019 25 5 5 0 013 0c2 0 2 2 3 3a23 23 0 0029 16 23 23 0 006-3 24 24 0 0021-10z"/><path class="ad" d="M522 488c-5-4-13-2-15 3s-1 13 4 16l5 2a8 8 0 004-3 37 37 0 005-6 9 9 0 0011 1c2-2 5-5 7-4l4 4h7c2-1 4-2 5-5 0-3-2-5-5-7l-11-9c-5-5-7-2-11 0s-10 2-10 8z"/><path class="ac" d="M555 392c-2 0-4 0-6 2s-2 4-1 5a25 25 0 00-23 5 37 37 0 00-7 11c-3 4-4 9 0 12a10 10 0 012 2c1 1 0 4-1 6a18 18 0 0019 25 5 5 0 013 0c2 0 2 2 3 3a23 23 0 0035 13 23 23 0 0023-34c4 0 7-3 8-7a17 17 0 00-1-12 25 25 0 00-10-11 12 12 0 01-6-6 24 24 0 00-18-10c-4 0-5 0-8-2-4-2-7-3-12-2z"/><path class="ab" d="M600 466a24 24 0 004-18 22 22 0 01-3 5 24 24 0 01-21 10 23 23 0 01-35-13l-3-4a5 5 0 00-3 1 18 18 0 01-17-7 17 17 0 01-3-5 18 18 0 0019 25 5 5 0 013 0c2 0 2 2 3 3a23 23 0 0029 16 23 23 0 006-3 24 24 0 0021-10z"/><path class="ad" d="M547 410c-5-3-12-1-15 4s-1 12 4 16c2 1 4 2 6 1a8 8 0 003-2 36 36 0 005-7 9 9 0 0011 2c2-2 5-5 8-4l3 4h7c2 0 4-3 5-5 1-3-2-6-5-8l-10-8c-6-5-7-3-12 0-4 2-9 1-10 7z"/><path class="ac" d="M474 445a18 18 0 00-6 6c-4 5-2 11 0 17-7 3-9 13-5 19s14 8 21 5a24 24 0 0037-3l3-3a9 9 0 014-1c4 1 8-2 10-5a22 22 0 004-12 26 26 0 011-6l2-4a17 17 0 00-3-16 21 21 0 00-15-8 19 19 0 00-15-10c-10-1-13 5-18 11-5 5-14 6-20 10z"/><path class="ad" d="M479 478c-2-6-4-12-1-18a19 19 0 016-5c6-4 16-5 20-10 6-6 9-12 19-11a19 19 0 0115 10 22 22 0 018 2 18 18 0 00-3-6 21 21 0 00-15-8 19 19 0 00-16-10c-9-1-13 5-18 11-5 5-14 6-20 10a19 19 0 00-6 5c-4 6-2 12 0 18-7 3-9 13-5 19a16 16 0 009 6c-1-5 2-11 7-13z"/><path class="ab" d="M542 442a18 18 0 00-2-2 15 15 0 01-1 7l-2 4a26 26 0 000 6 21 21 0 01-4 11 13 13 0 01-10 6 9 9 0 00-4 0l-3 3a24 24 0 01-37 4c-6 2-13 1-18-2a13 13 0 002 8c5 6 14 8 21 5a24 24 0 0034 0 24 24 0 003-3l3-3a9 9 0 014 0 13 13 0 0011-6 21 21 0 003-11 26 26 0 011-6l2-4a17 17 0 00-3-17z"/><path class="ac" d="M521 436c-5 2-10 6-12 12s-1 12 4 15c0 4 0 8 2 11 2 2 6 3 9 4 5 0 12-1 14-6a15 15 0 0024-6 33 33 0 012-5l1-3a10 10 0 00-3-14 10 10 0 00-5-1 12 12 0 00-6-10c-4-2-8 0-13 0-6 1-11 0-17 3z"/><path class="ab" d="M566 448a10 10 0 00-5-4 10 10 0 01-1 2l-2 3a33 33 0 00-1 5 15 15 0 01-25 7c-2 4-8 5-13 5a20 20 0 01-6-1c0 3 0 6 2 9s6 3 9 4c5 0 12-1 14-6a15 15 0 0024-6 32 32 0 012-5l2-3a10 10 0 000-10z"/><path class="ae" d="M1054 450a57 57 0 00-6-2c-7-3-22-12-30-12-3 0-10 2-16 15-3 6-2 15-2 22 1 13 13 61 16 67 2 7 6 16 11 22l8-1-1-2c-5-12-14-49 5-54a53 53 0 018-4c6-2 13-4 19-8h1v-1h1l-5-14c-5-6-13-5-21-5-5-1-9 1-11 3s-2 0-2-2c1-3 4-2 6-5 2-2 2-5 5-6 2-2 4 0 8-2 7-3 15 5 21 8a37 37 0 013 2 118 118 0 00-18-21z"/><path class="af" d="M1068 492h-1zM1067 493h-1z"/><path d="M988 432c-9 4-18 12-27 18-8 7-17 12-25 20l-1 2c12-7 20-6 33-12l15-9c-5 19-2 52 6 68 1-5 2-10 0-25-1-9-3-24-2-29 3-10 11-20 18-28 8-10 16-4 19-2a150 150 0 0022 8l-6-4c-15-11-34-17-52-7z" fill="#bab2a8"/><path class="ah" d="M1024 435c-3-2-12-8-20 2-6 8-14 18-17 28-1 5 1 20 2 29 2 15 1 20 0 25-8-16-11-49-6-68l-15 9c-13 6-21 5-33 12-6 7-7 15-7 24-1 14-2 42 4 49a21 21 0 002 3c-2-5 1-10 4-16 6-11 12-22 22-30l7-12h1c-1 10-9 21-14 30-3 5-6 9-8 15-3 6-5 11-3 18a61 61 0 006 2c0-7 5-13 10-16l14-6 10-2c10 0 12 5 17 12 3 2 7-2 8-6 1-2 3-3 6-4-5-16-13-49-14-60 0-7-1-16 2-22 6-13 13-15 16-15 8 0 23 9 30 12a56 56 0 016 2l-8-7a148 148 0 01-22-8z"/><path class="af" d="M970 471c-5 2-11 2-15 6-3 2-3 5-5 9l-8 10c-6 7-6 17-7 26-1 5-4 15 3 18a1 1 0 001 0c3-11 9-21 16-29 5-6 12-14 13-21 0-1 2-12 6-18 2-3-2-2-4-1z"/><path class="ae" d="M967 490l-7 12c-10 8-16 19-22 30-3 6-6 11-4 16a30 30 0 009 5c-2-7 0-12 3-18l8-15c5-9 13-20 14-30h-1z"/><path class="af" d="M1014 533c-3 1-5 2-6 4-1 4-5 8-8 6-5-7-7-12-17-12l-10 2-14 6c-5 3-10 9-10 16l1 1c6-10 19-10 29-10 5 1 10 2 14 6 4 3 9 5 13 3s7 3 11 7h10c-5-6-8-15-11-22l-2-7zM1072 471a36 36 0 00-3-2c-5-3-14-11-20-8-5 2-7 0-9 2-3 1-3 4-5 6-2 3-5 2-6 5 0 2 0 4 2 2s7-4 11-3c8 0 16-1 21 5l5 14h-1v1h-1c-6 4-13 6-19 8a52 52 0 00-8 4c-19 5-10 42-5 54l1 2 8-1a72 72 0 0014-5c13-19 14-62 14-62 1-2 5-4 7-5l1 1v2c4 11 10 33 9 48a20 20 0 005-5s0-9-3-23-14-34-18-40z"/><path d="M1079 491v-2l-1-1c-2 1-6 3-7 5 0 0-1 44-14 62 9-3 19-1 25-3 5-4 9-7 8-10 1-14-7-40-11-51z" fill="#4f463f"/><path class="ae" d="M1006 555c-4 2-9 0-13-3-4-4-9-5-14-6-10 0-23 0-29 10a431 431 0 0067 6c-4-4-7-9-11-7z"/><path class="ah" d="M1072 487c-2 0-5-2-7-1-4 1-7 5-18 6-7 0-14 0-19 4-2 1-3 3-4 6-2 5-6 5-7 7-1 4 2 10 2 13h1c3-6 7-13 12-17 4-2 8-5 18-5 8-1 12-4 17-5 8-2 7-5 12-6-2-1-4-3-7-2z"/><path d="M907 174c8-5 19-25 60-2 24 14 10 53 30 48 28-7 48 24 21 50s-38 20-66 6c-9-5-15-8-31-6s-20 24-49 26-74-30-52-48 25-28 19-46 29-42 43-27 19 3 25-1z" fill="#45dbe2"/><path d="M967 265c-11 0-42-7-50-6s-31 8-38 20-54 6-56-11 6 2 18-20c11-20 12-28 12-33a6 6 0 01-4-4c-1-4 4-10 12-12s16-2 18 3a6 6 0 01-1 5c11 0 39-20 46-16s-19 12-10 18 32-7 38 1-19 7-13 13 23 1 26 6-6 5-2 8 9-2 14 2-23 5-18 11 20 15 8 15zm44-15c-1-5-10-6-20-3s-15 9-13 14 10 7 20 4 15-10 13-15z" transform="translate(1 1)" fill="url(#b)"/><path class="al" d="M948 240c3-6 0-13-6-16-5-3-14 1-15 4l8 5c-1 1-8-3-9-3s-2 9 6 14a11 11 0 0016-4z"/><path class="am" d="M926 231a36 36 0 014 1c4 2 5 2 5 1l-4-3a25 25 0 01-3-2c1-3 9-6 14-3 6 3 8 9 5 14a11 11 0 01-6 6 10 10 0 01-8-1c-8-5-7-12-7-13z"/><path class="an" d="M927 231l3 1c4 2 5 3 6 2 1-2-1-3-4-4a35 35 0 01-4-2c2-3 9-5 14-3 5 3 7 9 5 14a10 10 0 01-6 5 10 10 0 01-8-1c-6-3-7-10-6-12z"/><path class="ao" d="M931 228c2-2 7-3 10-2 5 3 7 8 5 12a9 9 0 01-6 5 8 8 0 01-6-1 11 11 0 01-6-9l1 1c5 2 6 2 8 1v-1c1-2-1-4-5-6h-1z"/><path class="al" d="M953 205a8 8 0 00-1-11c-3-3-10-2-11 0 0 1 5 4 4 5s-5-4-5-4c-1 1-3 6 2 11a8 8 0 0011 0z"/><path class="am" d="M940 196a24 24 0 012 1l4 2-2-3a17 17 0 01-2-2c1-2 7-2 10 0a8 8 0 011 11 7 7 0 01-5 3 7 7 0 01-6-2c-4-4-3-9-2-10z"/><path class="an" d="M940 196l2 2c3 2 3 2 4 1l-2-3-2-2c1-1 6-2 9 1a7 7 0 012 10 7 7 0 01-5 2 7 7 0 01-5-1c-4-4-3-8-3-10z"/><path class="ao" d="M944 194l7 1a6 6 0 011 9 6 6 0 01-4 2 6 6 0 01-5-1 8 8 0 01-2-7c3 2 4 3 5 2h1c1-2 0-3-2-5l-1-1z"/><path class="al" d="M873 250a12 12 0 0017 0c4-4 3-14 0-16l-7 6 6-7c0-2-9-6-16 0-5 4-4 12 0 17z"/><path class="am" d="M888 233a31 31 0 01-2 2c-3 4-4 4-3 5l4-2a22 22 0 013-3c3 2 3 11-1 14a11 11 0 01-15 0 12 12 0 01-4-8 9 9 0 013-7c7-6 14-3 15-1z"/><path class="an" d="M887 233l-2 2c-3 3-3 4-3 5 2 2 3 1 5-2a34 34 0 013-2c2 2 2 9-1 13a10 10 0 01-15 0 11 11 0 01-3-8 9 9 0 013-7 11 11 0 0113-1z"/><path class="ao" d="M890 238c0 2 0 7-2 10a9 9 0 01-13 0 10 10 0 01-3-7 8 8 0 013-6 10 10 0 0110-2l-1 1c-3 4-4 5-3 7h1c2 2 3 1 6-2z"/><path class="al" d="M887 214a8 8 0 00-6 10c1 4 7 7 9 5l-1-6 3 6c1 0 6-3 5-10-1-4-6-6-10-5z"/><path class="am" d="M892 229a22 22 0 01-1-3l-2-3v3a15 15 0 011 3c-2 1-7-2-8-5a8 8 0 015-10 8 8 0 016 1 7 7 0 013 4c1 6-3 9-4 9z"/><path class="an" d="M892 228v-2c-1-3-2-4-3-3v3l1 3c-2 0-7-2-8-6a7 7 0 015-8 8 8 0 016 0 6 6 0 013 4 8 8 0 01-4 9z"/><path class="ao" d="M888 228c-1-1-4-2-5-5a6 6 0 014-8 7 7 0 015 1 5 5 0 013 4 7 7 0 01-2 7v-1c-2-3-2-4-4-4s-2 2-1 5v1z"/><path class="ap" d="M891 237a8 8 0 01-5-3 7 7 0 0110 1 8 8 0 01-5 2zM881 236a8 8 0 01-5-2 7 7 0 0110 0 8 8 0 01-5 2z"/><path class="ap" d="M884 239a8 8 0 012-5 7 7 0 010 10 8 8 0 01-2-5zM884 229a8 8 0 013-5 7 7 0 01-1 10 8 8 0 01-2-5z"/><path class="ap" d="M892 233a8 8 0 01-6 1 8 8 0 013-5l5-1a8 8 0 01-2 5zM884 240a8 8 0 01-5 1 7 7 0 017-7 8 8 0 01-2 6z"/><path class="ap" d="M888 240a8 8 0 01-2-6 7 7 0 017 8 8 8 0 01-5-2zM881 232a8 8 0 01-1-5 7 7 0 016 7 8 8 0 01-5-2z"/><path class="aq" d="M892 235a8 8 0 01-6-1 6 6 0 019-2 8 8 0 01-3 3zM883 238a7 7 0 01-6-1 6 6 0 019-3 8 8 0 01-3 4z"/><path class="aq" d="M886 240a8 8 0 010-6 6 6 0 013 9 7 7 0 01-3-3zM883 231a7 7 0 011-6 6 6 0 012 9 7 7 0 01-3-3z"/><path class="ar" d="M891 231a7 7 0 01-5 3 6 6 0 015-8 7 7 0 010 5zM886 240a7 7 0 01-4 3 6 6 0 014-9 7 7 0 010 6z"/><path class="ar" d="M889 239a7 7 0 01-3-5 6 6 0 019 5 7 7 0 01-6 0zM881 234a7 7 0 01-3-4 6 6 0 018 4 8 8 0 01-5 0z"/><path class="as" d="M887 234a2 2 0 01-1 0 1 1 0 011-1 2 2 0 010 1zM886 236a2 2 0 01-1 0 2 2 0 011-1 2 2 0 010-1 2 2 0 010 2z"/><path class="as" d="M887 235a2 2 0 01-1-1 1 1 0 012 1 2 2 0 01-1 0zM885 234a2 2 0 010-1 1 1 0 011 1 2 2 0 01-1 0z"/><path class="as" d="M888 235a2 2 0 01-2-1 1 1 0 012 0 2 2 0 010 1zM886 235a2 2 0 01-1 0 1 1 0 011-1 2 2 0 010 1z"/><path class="as" d="M886 236a2 2 0 010-2 1 1 0 011 2 2 2 0 01-1 0z"/><path class="as" d="M886 234a2 2 0 010-1 1 1 0 011 1 1 1 0 01-1 0z"/><path class="at" d="M887 234a1 1 0 01-1 0 1 1 0 011-1 1 1 0 010 1zM886 235a1 1 0 010-1 1 1 0 010 1z"/><path class="at" d="M887 235a1 1 0 01-1-1 1 1 0 011 0 1 1 0 010 1zM886 234a1 1 0 01-1 0 1 1 0 011 0z"/><path class="at" d="M887 235a1 1 0 01-1-1 1 1 0 011 0 1 1 0 011 0 1 1 0 01-1 1z"/><path class="at" d="M886 235a1 1 0 01-1 0 1 1 0 011-1 1 1 0 010 1z"/><path class="at" d="M886 235a1 1 0 010-1 1 1 0 011 1v1a1 1 0 01-1-1zM886 234a1 1 0 010-1 1 1 0 011 1h-1z"/><path class="al" d="M819 280c4-4 12-8 12-8s-4 8-8 12a21 21 0 01-8 5 21 21 0 014-9z"/><path class="am" d="M818 283c7-9 2 1 2 1s9-6 1 2a13 13 0 01-6 3 16 16 0 013-6z"/><path class="an" d="M818 283c6-8 1 2 1 2s9-6 1 1a11 11 0 01-5 2 14 14 0 013-5z"/><path class="am" d="M820 283l-1 1 2-1a70 70 0 00-6 5 41 41 0 005-5z"/><path class="al" d="M817 275l13-3s-6 6-11 8a21 21 0 01-10 1 21 21 0 018-6z"/><path class="am" d="M814 276c10-5 2 2 2 2s11-2 0 2a13 13 0 01-7 0 16 16 0 015-4z"/><path class="an" d="M814 276c9-4 1 2 1 2s10-1 1 2a11 11 0 01-6 0 14 14 0 014-4z"/><path class="am" d="M816 277l-1 1h2a72 72 0 00-7 2l6-3z"/><path class="al" d="M826 286c0-5 3-13 3-13v13a29 29 0 01-2 10 29 29 0 01-1-10z"/><path class="am" d="M826 289c0-11 1-1 1-1s3-11 2 1a18 18 0 01-2 6 22 22 0 01-1-6z"/><path class="an" d="M826 289c0-10 1 1 1 1s3-11 1-1a15 15 0 01-1 5 19 19 0 01-1-5z"/><path class="am" d="M827 287v2l1-2-1 8a60 60 0 000-8z"/><path class="al" d="M820 269l8 4s-6 2-9 1l-5-3s3-3 6-2z"/><path class="am" d="M818 269c7 0 1 2 1 2s5 4-1 2a6 6 0 01-4-2 8 8 0 014-2z"/><path class="an" d="M818 269c6 0 0 2 0 2s5 4 0 2a5 5 0 01-3-2 7 7 0 013-2z"/><path class="am" d="M819 271h-1l1 1a24 24 0 00-4-1 14 14 0 004 0z"/><path class="al" d="M829 281v-8l5 7c1 3-1 6-1 6s-3-2-4-5z"/><path class="am" d="M830 283c-3-6 1-1 1-1s1-7 3 0a6 6 0 01-2 4 8 8 0 01-2-3z"/><path class="an" d="M830 283c-3-6 2-1 2-1s0-6 1 0a6 6 0 01-1 3 7 7 0 01-2-2z"/><path class="am" d="M831 281v1l1-1a23 23 0 001 4h-1a14 14 0 00-1-4z"/><path class="al" d="M828 266v8l-4-8a11 11 0 011-6 11 11 0 013 6z"/><path class="am" d="M827 264c2 6-1 1-1 1s-1 6-2-1a7 7 0 011-3 9 9 0 012 3z"/><path class="an" d="M827 264c2 5-1 0-1 0s-1 6-1 0a6 6 0 010-3 8 8 0 012 3z"/><path class="am" d="M827 265l-1-1v1a32 32 0 00-1-4 20 20 0 002 4z"/><path class="al" d="M821 265l8 9s-7-3-10-6a20 20 0 01-5-6 20 20 0 017 3z"/><path class="am" d="M819 264c8 5 0 2 0 2s6 7-2 0a12 12 0 01-3-4 15 15 0 015 2z"/><path class="an" d="M819 264c6 5-1 1-1 1s6 7-1 1a11 11 0 01-2-4 13 13 0 014 2z"/><path class="am" d="M820 266l-2-1 1 1-4-4a41 41 0 005 4z"/><path class="au" d="M819 277a10 10 0 005-1 14 14 0 001-1 13 13 0 00-1 2 11 11 0 00-2 4 10 10 0 004-2 16 16 0 002-3 28 28 0 00-1 4 15 15 0 000 5 15 15 0 002-5v-2a5 5 0 001 2 5 5 0 001-3 9 9 0 00-2-3v-1h-1a13 13 0 000-4 5 5 0 00-1-2 6 6 0 00-1 3 9 9 0 001 2 20 20 0 00-2-3 9 9 0 00-4-2 10 10 0 003 4 4 4 0 00-3 1 5 5 0 003 2h-1a10 10 0 00-4 3zm9-3zm1-1z"/><path class="at" d="M832 272c-2 2-4 2-5 1s-1-3 1-4 3-3 4-2 1 3 0 5z"/><path class="at" d="M831 272c-1 2-3 2-4 1s0-2 1-4 3-2 4-1 1 2-1 4z"/><path class="at" d="M832 270a2 2 0 110-2 2 2 0 010 2z"/><path class="at" d="M832 269l2-4-3 3 1 1z"/><path class="al" d="M844 297l-11-11s2 9 6 15a24 24 0 008 7 24 24 0 00-3-11z"/><path class="am" d="M845 300c-6-11-2 1-2 1s-10-9-2 2a15 15 0 006 4 18 18 0 00-2-7z"/><path class="an" d="M845 301c-5-10-1 1-1 1s-10-8-3 1a13 13 0 006 4 16 16 0 00-2-6z"/><path class="am" d="M843 300v1l-1-1a80 80 0 015 7l-4-7z"/><path class="al" d="M848 291c-5-3-15-5-15-5s6 7 12 10a24 24 0 0011 4 24 24 0 00-8-9z"/><path class="am" d="M850 293c-10-7-2 2-2 2s-12-4 0 3a15 15 0 007 1 18 18 0 00-5-6z"/><path class="an" d="M850 294c-9-7 0 2 0 2s-12-4-2 1a13 13 0 006 2 16 16 0 00-4-5z"/><path class="am" d="M848 294l1 1h-2a81 81 0 018 4l-7-5z"/><path class="al" d="M836 302l-1-15s-3 9-3 15a33 33 0 001 11 33 33 0 003-11z"/><path class="am" d="M835 306c2-13-2-2-2-2s-1-12-1 1a20 20 0 001 7 25 25 0 002-6z"/><path class="an" d="M835 306c1-11-2 0-2 0s-1-12-1-1a17 17 0 001 7 21 21 0 002-6z"/><path class="am" d="M834 304l-1 1v-2 9a70 70 0 011-8z"/><path class="al" d="M845 284l-9 3 9 3c3 0 7-3 7-3s-3-3-7-3z"/><path class="am" d="M847 285c-7-1 0 2 0 2s-8 3 0 3a7 7 0 004-3 9 9 0 00-4-2z"/><path class="an" d="M847 285c-6-1 1 2 1 2s-8 3-1 2a6 6 0 004-2 8 8 0 00-4-2z"/><path class="am" d="M846 286l1 1-1 1a28 28 0 015-1l-5-1z"/><path class="al" d="M833 296c2-3 1-9 1-9s-5 3-6 7v7s4-1 5-5z"/><path class="am" d="M832 298c4-7-2-2-2-2s0-8-3 0a7 7 0 001 4 9 9 0 004-2z"/><path class="an" d="M832 298c3-6-2-1-2-1s0-8-2-1a6 6 0 000 4 8 8 0 004-2z"/><path class="am" d="M831 296l-1 1v-2a29 29 0 01-2 5l3-4z"/><path class="al" d="M837 279l-1 9s4-4 5-8a13 13 0 000-7 12 12 0 00-4 6z"/><path class="am" d="M838 277c-3 7 1 1 1 1s0 8 2 0a8 8 0 000-4 10 10 0 00-3 3z"/><path class="an" d="M838 277c-3 6 2 0 2 0s-1 8 1 1a7 7 0 000-4 9 9 0 00-3 3z"/><path class="am" d="M839 279l1-1v1a39 39 0 011-5 23 23 0 01-2 5z"/><path class="al" d="M845 280c-5 2-10 8-10 8l12-5a23 23 0 007-6 23 23 0 00-9 3z"/><path class="am" d="M847 279c-9 4 0 2 0 2s-8 7 2 1a14 14 0 004-5 18 18 0 00-6 2z"/><path class="an" d="M848 279c-9 4 1 1 1 1s-8 7 0 1a12 12 0 004-3 15 15 0 00-5 1z"/><path class="am" d="M847 281l1-1-1 1 6-3a47 47 0 01-6 3z"/><path class="au" d="M841 289a8 8 0 00-1 0 5 5 0 003-2 5 5 0 00-3-1 8 8 0 001-1 12 12 0 003-3 11 11 0 00-4 2 21 21 0 00-3 2 11 11 0 001-2 7 7 0 000-4 6 6 0 00-2 3 15 15 0 00-1 4h-1 1-1v1a11 11 0 00-2 3 5 5 0 000 3 6 6 0 002-1 20 20 0 00-1 2 17 17 0 001 5 17 17 0 001-5 31 31 0 000-4 20 20 0 002 3 11 11 0 004 4 12 12 0 00-2-6 16 16 0 00-1-2 15 15 0 002 2 11 11 0 005 1 11 11 0 00-4-4zm-6-1zm0-1z"/><path class="at" d="M832 285c1 3 3 4 4 3s2-4 1-6-4-3-5-2-2 3 0 5z"/><path class="at" d="M832 285c1 2 3 4 4 3s2-3 0-5-3-3-4-3-1 3 0 5z"/><path class="at" d="M831 283a2 2 0 101-3 2 2 0 00-1 3z"/><path class="at" d="M832 282l-2-5 3 4-1 1zM831 291c2 1 4 0 4-1s-1-3-3-3-4 0-4 1 1 3 3 3z"/><path class="at" d="M831 291l4-1c0-1-1-3-3-3l-4 1c0 1 1 3 3 3z"/><path class="at" d="M830 290a1 1 0 10-2-2 2 2 0 001 2z"/><path class="at" d="M829 289l-4-2 4 1v1z"/><path class="ac" d="M210 588c14-12 31-6 68 12s49 17 60 18 43 29 61 32 22 5 22 5l6 12s-6 11-47 13-62-4-93 15-58 19-94 13-52-9-60-13 15-14 50-11 46-3 41-7-14 2-38 0-64-17-64-17 74-59 88-72z"/><path d="M399 650c-18-3-50-31-61-32s-23-1-60-18l-20-9c2 0 34 18 43 26 10 7 11 16 28 21a43 43 0 0129 25c2 7-25 4-43 12s-33 24-49 31a108 108 0 0022-11c30-19 50-12 92-15s47-13 47-13l-6-12-22-5z" style="mix-blend-mode:multiply" fill="#7ebb15"/><path class="aw" d="M218 651c14-4-7-6-20-10s-17-11-1-12 15-6 11-9-10-15 3-15 10-12 10-16 5-7 5-7a24 24 0 00-16 6c-14 13-88 72-88 72s19-8 34-9 48 5 62 0zM241 685c1-12-15-11-27-9 5-1 8-1 10 1 5 4-6 11-41 7-20-2-36 1-45 4a242 242 0 0150 4c27 4 51 5 53-7z"/><path class="ax" d="M1219 373l49-4 30 12h12l79 30 58-11 21-13 16-8v-6l-42-33-49-19-39-18-22-3-34 17-33 24-34 10-12 14v8z"/><path class="ay" d="M1219 367l49-4 30 12h12l79 30 58-11 21-13 16-8-2-8-40-31-49-19-39-18-22-4-34 18-33 24-34 10-12 14v8z"/><path class="ax" d="M1265 335l11 11 32 3 40 12 22 12 40-3 29-16 21-6 2-14-11-9-63-20-27-12-30-3-37 14-16 13-13 7v11z"/><path class="ay" d="M1265 329l11 11 32 3 40 12 22 12 40-3 29-16 21-6 2-8-11-15-63-21-27-11-30-3-37 14-16 13-13 7v11z"/><path class="az" d="M1374 340l-21-7-15 4v2l12 6 19 3 7 5h8l9-3 1-5-13-4-7-1zM1322 303l-15 3-5 4 1 5 8 1 3-4 7-2 3-4-2-3z"/><path class="ax" d="M1333 316l4-19 13-14 1-8 30-3 33 5 28 1 6 7 3 6 7 37-7 4-14 2-28-4-34 4-22-10-16-3-4-5z"/><path class="ba" d="M1351 275l2 10 30 15 29-10 9 3 11-3 4-3h3l9-2-6-7-28-1-33-5-30 3z"/><path fill="#898989" d="M1412 290l-29 10 2 12-2 6v7l-3 7-5 2 34-4-2-18 2-7-3-2 3 1 3-10v-4z"/><path class="ba" d="M1438 330l-2-5-10-3-3-6-2-7 6-9-9 8-1 15-8 7 28 4 14-2-13-2z"/><path class="bc" d="M1353 324l5-10v-8l3-3 1-5 1 1 1 8v7l1 4-1 4 1 7-12-5z"/><path class="ba" d="M1346 293l1-4 6-4-2-10-1 8-13 14-4 19 5-18 8-5z"/><path class="bd" d="M1369 286l13 7 12-2 8-1v-3l-8-6-8 2-7-5-9 3-1 5z"/><path class="az" d="M1392 281l-6 2-7-5-9 3-1 5 1 1 2-3 7-2 5 1 8-2z"/><path class="ax" d="M1367 340l-21-7-15 4v2l12 6 19 3 14 5 10-3 1-5v-2l-13-2-7-1z"/><path class="bd" d="M1367 338l-21-7-15 4v2l12 6 19 3 14 5 10-3 1-5-13-4-7-1z"/><path class="ax" d="M1321 304l-17 1-6 3v2l2 4 8 1 3-3 7-2 3-4v-2z"/><path class="bd" d="M1318 301l-14 2-6 5 2 5 8 1 3-4 7-2 3-4-3-3z"/><path class="ax" d="M1435 364l-20 12-9 3v3l10 5 22 2 13-10 8-3 3-10v-3l-11 1-8 4-6-1-2-3z"/><path class="bd" d="M1434 362l-19 11-9 2v4l10 5 22 2 13-11 8-2 3-10-11-3-8 5-6-2-3-1z"/><path class="az" d="M1308 343v6l28 9-28-8-32-4v-6zM1370 367v6l35 1 10-1 11-6 10 1 7-3 8-5 9-7h7l-7-5 2-14-2 8-21 6-29 16-40 3zM1473 365l-11-1v-1l-3 10-8 2-13 11v3l10-4 7-2 7-4 8-9 3-3v-2zM1375 334l30-2 17 2h15l-28-4-2-18 2-7-3-2 3 1 3-10v-4l-29 10 2 12-2 6v7l-3 7-5 2z"/><path style="mix-blend-mode:multiply" fill="#c6c6c6" d="M1421 293l7 1-1 6-6 9 2 7 3 6 10 3 2 5 13 2h9l-2-4-7-37-3-6-9 2h-3l-4 3-11 3z"/><path class="az" d="M1379 278l-5 5v4l5 4-10-5 1-5 9-3z"/><path class="bc" d="M1346 293v9l3 5-1 6 1 10h1l2-12v-9l3-5 2-4 2-4 5 1-11-5-6 4-1 4z"/><path class="az" d="M1298 375v6l16 1 2-5-6-2h-12z"/></g></svg>