<svg xmlns="http://www.w3.org/2000/svg" xmlns:xlink="http://www.w3.org/1999/xlink" viewBox="0 0 1501 1001"><defs><radialGradient id="a" cx="303.4" cy="1121.3" r="51.8" gradientTransform="matrix(1 0 0 -1 -145 1445)" gradientUnits="userSpaceOnUse"><stop offset="0" stop-color="#c0a373"/><stop offset="1" stop-color="#fff" stop-opacity="0"/></radialGradient><linearGradient id="b" x1="1144.2" y1="1130.9" x2="1144.2" y2="1036.2" gradientTransform="matrix(1 0 0 -1 -146 1444)" gradientUnits="userSpaceOnUse"><stop offset="0" stop-color="#a0edf0"/><stop offset="1" stop-color="#45dbe2"/></linearGradient><style>.c{isolation:isolate}.b{fill:#70b344;stroke:#5f732e}.aa,.at,.b,.t,.u,.x,.y{stroke-miterlimit:10}.c{opacity:.25}.d{fill:#5c4328}.aa,.d,.e,.f,.g,.h,.i,.j,.k,.l,.m,.n,.o,.p,.q,.x,.y{fill-rule:evenodd}.e{fill:#544730}.f{fill:#877657}.g{fill:#ae9c87}.h{fill:#68543c}.i{fill:#9d8264}.j{fill:#b49871}.k{fill:#8f7e5f}.l{fill:#857c68}.m{fill:#a59b84}.n{fill:#67604f}.o{fill:#bdb29a}.p{fill:#c1b09a}.q{fill:#cdb186}.s{fill:#ddc02c}.t,.u{fill:#3f2b0f}.aa,.at,.t,.u,.x,.y{stroke:#1d150c}.u{stroke-width:1.14px}.x,.y{fill:#571c10}.y{stroke-width:1.04px}.aa{fill:#c0a373}.ab{fill:#78a015}.ac,.aw{fill:#7ebb15}.ad{fill:#94d31a}.ae{fill:#897d6f}.af{fill:#635a52}.ah{fill:#91887b}.al{fill:#8ab550}.am{fill:#97c261}.an{fill:#a9d171}.ao{fill:#b3db7b}.ap{fill:#dcf5f5}.aq{fill:#f2ffff}.ar{fill:#fff}.as{fill:#fddfb3}.at{fill:#1d150c}.au{fill:#81a653}.az{mix-blend-mode:multiply}.aw{mix-blend-mode:screen}.ax{fill:#bdbdbd}.ay{fill:#d9d9d9}.az{fill:#cfcfcf}.ba{fill:#cbcbcb}.bc{fill:#c6c6c6}.bd{fill:#e8e8e8}</style></defs><g style="isolation:isolate"><path class="b" d="M1001 501h250v250h-250zM1251 251h250v250h-250zM1001 251h250v250h-250zM1001 1h250v250h-250zM1251 1h250v250h-250zM751 251h250v250H751zM751 1h250v250H751zM751 501h250v250H751zM501 251h250v250H501zM251 251h250v250H251zM501 501h250v250H501zM251 501h250v250H251zM751 751h250v250H751zM251 751h250v250H251zM1001 751h250v250h-250zM501 1h250v250H501zM1251 501h250v250h-250zM1251 751h250v250h-250zM501 751h250v250H501zM251 1h250v250H251zM1 1h250v250H1zM1 751h250v250H1zM1 251h250v250H1zM1 501h250v250H1z"/><use class="c" transform="rotate(48 -42 416) scale(.09)" xlink:href="#c"/><path class="d" d="M384 340l8-7 9-8 7-7a13 13 0 002-10c-2-7-9-12-13-17a77 77 0 01-7-9 33 33 0 00-3-5 40 40 0 00-5-4 23 23 0 01-3-4l-4-5-6-9a3 3 0 00-1-1l-15-19-7-9-8-9a4 4 0 00-1 0 31 31 0 00-3-5 35 35 0 01-4-5 37 37 0 00-4-6l-5-6-5-6a12 12 0 00-4-3 6 6 0 01-1 1l-7 4c-2 0-6 0-7-3a8 8 0 01-2 2 23 23 0 01-3 3l-7 8a2 2 0 01-2 1l-1 1a2 2 0 01-1 1 10 10 0 01-4 1 29 29 0 00-4 2 12 12 0 00-3 2 18 18 0 00-3 5 5 5 0 003 4 22 22 0 018 7l5 9 15 19 16 20 31 39 16 19 8 10a8 8 0 005 3 8 8 0 005-2 63 63 0 002-1 3 3 0 003-1z"/><path class="e" d="M335 211c-3-3-5-7-9-4l-5 3c-2 2 4 8 5 9s7 9 8 8c2-1 7-4 7-6 0-3-3-5-5-7zm0 0l2 3c1 2 4 4 4 7 1 2-5 6-7 7s-7-7-8-9c-2-1-7-7-5-9l5-3c4-4 6 0 9 4z"/><path class="f" d="M335 211c-3-3-5-8-9-4s-9 1-1 11c1 2 7 11 9 9 2 0 4-2 6-4 2-1 2-2 0-4a9 9 0 00-2-4 40 40 0 01-3-4z"/><path class="g" d="M335 211l-5-5a3 3 0 00-3 1l-3 3c0 3-2 2 1 6 1 1 4 7 6 7s-2 5 5 3l5-7h-1a9 9 0 00-2-4 40 40 0 01-3-4zm3 8h-1l-2-2 3 2zm-3 4v1-1zm-11-13c-1 2-2 3-1 4-1 1-2-2-1-3l2-1z"/><path class="h" d="M361 250l-7 6s1 6 3 4c2-1 9-5 9-7 1-1-1-8-5-3zm0 0c3-5 6 0 6 2 0 3-7 7-9 9-3 1-4-3-4-5l7-6z"/><path class="i" d="M361 250l-5 4-2 2c1 2 0 3 2 5l6-4c2-1 5-3 5-5-1-5-4-5-6-2z"/><path class="j" d="M365 255l2-3c-1-3-2-5-4-4a15 15 0 01-1 1l-5 5c-3 2-1 2-1 3a2 2 0 003 2l3-2a21 21 0 003-2z"/><path class="h" d="M284 199l-7 5c-1 0-1 6 2 5l10-5c1-1 1-8-5-5zm0 0c5-3 6 2 5 5 0 2-8 5-10 5-3 1-3-3-3-5l8-5z"/><path class="i" d="M284 199l-5 3-3 2c0 2 0 3 2 5l6-2c2-1 5-2 5-4 1-5-2-6-5-4z"/><path class="j" d="M287 206l2-3c1-3 0-5-2-5l-2 1-5 4c-3 1-1 2-2 3a2 2 0 002 2l4-1a21 21 0 003-1z"/><path class="e" d="M334 277c-6-5-5-7-9-12-2-3 12-10 13-3l2 3c1 1 5 6 4 7l-6 4-4 1zm0 0l4-2 6-3c1-1-2-3-2-4-1-2-4-4-4-6-1-6-15 0-13 3 4 5 3 7 9 12z"/><path class="k" d="M334 277c-6-5-5-8-9-12-2-3 13-10 13-2l4 5c2 4 4 3-3 7l-5 2z"/><path class="g" d="M326 262c3-2 12-5 12 1l4 5c2 3 3 3 1 4-3-3-4-1-3 0a3 3 0 001 2l-2 1a30 30 0 01-4 2 5 5 0 01-1-3c1-1 5-6-1 0-3-3 2-5 2-6 6-4 1-2-2-2-7 1 4-2 4-2 0-2-4-1-5 0-4 0-6 0-6-2z"/><path class="h" d="M353 302c-3-2-9-7-3-9l4-3c2-3 3 0 6 2 1 2 10 8 8 10-2 1-6 6-9 5a32 32 0 01-3-3l-3-2zm0 0l3 2 4 3 8-6c1-1-8-8-9-9-5-6-3-1-8 1-7 2-2 5 2 9z"/><path class="i" d="M353 302c-2-2-10-7-2-10 4-1 3-6 8 0 2 2 11 8 9 9-10 9-7 6-15 2a5 5 0 010-1z"/><path class="j" d="M361 293l2 3a6 6 0 01-2 1c-1 0-1 4 5 2h1l1 2-2 2a19 19 0 00-4 2c-2 1-6-1-7-4 0-1-9-5-3-6 1-3 1-4 5-2 2-3 0 0 4 0z"/><path class="h" d="M391 325c-2-2-8-6-3-9l5-2c2-3 3 0 6 2 1 1 10 7 8 9s-7 7-9 6a32 32 0 01-4-3l-3-3zm0 0l4 3 3 3c2 0 8-5 8-6 2-2-7-8-8-10-6-5-3-1-8 1-7 3-2 6 1 9z"/><path class="i" d="M391 325c-1-1-9-7-1-9 4-1 3-7 8-1 2 2 10 8 8 10-9 9-7 6-14 1a4 4 0 01-1-1z"/><path class="j" d="M399 317l3 2a6 6 0 01-2 1c-1 1-1 5 5 2h1v3l-1 2a19 19 0 00-4 1c-2 2-6 0-7-3-1-1-9-6-3-6 1-3 1-4 5-3 1-2 0 1 3 1z"/><path class="e" d="M305 234c7-2 9-2 3-10-5-6-5-4-9-2-2 1-2 1-2 4 0 2 5 8 8 8zm0 0c-3 0-9-7-8-8l1-4c5-2 5-5 10 1 6 9 5 10-3 11z"/><path class="l" d="M305 234c3-1 9-1 5-7-7-10-6-7-13-4v3c-1 1 5 8 8 8z"/><path class="m" d="M310 233c1-1 2-3 0-6-6-9-6-8-10-5 3 6-1 4 4 8l2 1c0 2 2 2 4 2zm-1-5s0 2-1 0c-5-6-2-6 1 0z"/><path class="e" d="M386 338c7-2 9-3 3-11-5-6-5-4-9-1-2 0-2 1-2 3 0 3 5 8 8 9zm0 0c-3-1-9-8-8-9l1-4c5-2 6-4 10 2 6 8 5 9-3 11z"/><path class="l" d="M386 338c3-1 9-1 5-8-7-10-6-7-13-4v3c-1 1 5 9 8 9z"/><path class="m" d="M391 336c2-1 2-2 0-6-6-9-6-8-10-5a1 1 0 000 1c3 5-1 3 4 7l2 1c0 2 2 3 4 2zm-1-5s0 2-1 1c-5-7-2-6 1-1z"/><path class="e" d="M342 276c2 3 7 10 10 11 2 0 2-5 0-7l-2-3c-4-5-3-3-7-3l-1 2zm0 0l1-2c4 0 2-2 7 3l3 3c2 3 2 8-2 7s-7-8-9-11z"/><path class="k" d="M342 276c4 6 11 15 12 9 0-5-2-5-4-8-4-5-3-2-7-3l-1 2z"/><path class="g" d="M353 287l1-2c0-5-2-5-4-8-4-5-3-3-6-3l5 6c1 8 2-1 3 5a4 4 0 001 2z"/><path class="h" d="M320 219c-3-1-2-5-6-2l-4 2c-2 1 2 5 2 7 2 3 3 5 7 3l6-5c0-2-4-4-5-5zm0 0c1 1 6 3 5 5l-6 5c-4 3-5 0-7-3-1-2-5-6-2-7l4-3c4-2 3 1 6 3z"/><path class="j" d="M320 219c-3-1-2-6-7-2-1 1-7 1-1 8 1 1 2 9 10 2 3-3 6-3 0-7l-2-1z"/><path class="i" d="M320 219c-2-1-2-5-5-3a5 5 0 01-1 1h-1l-3 1c0 3 6 8 6 10-1 2 2 1 4 1a19 19 0 002-2 1 1 0 000-1 3 3 0 00-1-3c-2-1-1-2 0-3a5 5 0 00-1-1z"/><path class="e" d="M291 225c-5-5-4-7-8-12-2-3 12-10 13-3l2 3 4 6-7 4-4 2zm0 0l4-2 6-4-1-3c-1-2-4-4-4-6-1-6-14 1-12 3 3 5 2 7 7 12z"/><path class="l" d="M291 225c-5-5-4-8-8-12-2-2 13-10 13-2l4 5c2 3 3 3-3 6l-6 3z"/><path class="m" d="M291 208c2-1 5-1 5 3l4 5c2 3 3 3-1 5a7 7 0 01-1-2c-1-2-4-3-5-3-4 2-1-1-4 0-1 0-2-4 0-5l1-3zm6 14a16 16 0 00-2-3c-1-1-2 1-4 1-1 0-2 2 1 3a15 15 0 002 1l3-2z"/><path class="n" d="M378 310c-1-2-7-10-7-12 0-1 2-5 4-6 5-3 10 5 13 9 1 2 7 9 4 11l-4 4-6-4-4-2zm0 0l4 2 6 4a56 56 0 005-3c3-4-8-17-10-19-5-5-11-3-13 5v-1c0 2 7 10 8 12z"/><path class="l" d="M378 310c-1-1-8-11-7-12 0 0 4-14 14-2 2 3 11 14 7 16-5 4-3 6-9 1l-5-3z"/><path class="m" d="M372 296c1-3 5-8 11-2v2a3 3 0 003 2c3 4 8 10 7 13-2-1-2 7-11-1-3-3 0-3 1-4h-3c-6-2 0-7-5-8-2 0-3-1-3-2z"/><path class="e" d="M336 279c2 4 6 13 9 15 3 1 4-6 3-8l-3-4c-4-7-2-4-7-5l-2 2zm0 0l2-2c4 1 3-3 7 4l3 4c2 4 0 11-4 9s-6-10-8-15z"/><path class="k" d="M336 279c3 8 10 20 12 13 1-6 0-6-3-10-4-8-3-4-7-5l-2 2z"/><path class="g" d="M348 291c1-5 0-5-3-9l-1-2a2 2 0 01-1-1 3 3 0 00-4 0c-1 3 6 4 7 9-3 2-4-3-5-4-2 1 5 8 5 8 0 1 1 1 2-1z"/><path class="e" d="M399 310c2 4 6 11 10 9 2-1 4-11 2-13l-2-3c-4-4-3-1-8 3l-2 4zm0 0l2-4c5-4 4-7 8-3l3 3c1 2 0 13-4 14s-7-6-9-10z"/><path class="k" d="M399 310c3 8 11 15 13 4 1-10-1-8-3-11-4-5-3 0-8 3l-2 4z"/><path class="g" d="M412 313c1-9-1-7-3-10a15 15 0 00-1-1l-2 1c-1-1-4 3-4 3-1 7 7-1 7 5-2 5-4 1-5 0-1 4 5 6 5 6 1 1 2-1 3-4z"/><path class="h" d="M361 265l-1-4c0-2-1 1-2 1l-2 1 2 1 2 2a3 3 0 001 0v-1zm0 0a1 1 0 000 1c2 1-1 1-2-1l-2-2c-3-1 0-1 1-1 0-1 2-3 2-1l1 4z"/><path class="i" d="M361 265l-1-4c0-2-2 1-2 1s-3 0-2 1l3 2 1 1h1a1 1 0 010-1z"/><path class="h" d="M359 266a3 3 0 01-1 0c-3 0-6 3-5-2 0-1 0-3 2-2s-2 1 2 2l2 2s0-1 0 0zm0 0a3 3 0 00-1-1c-1 0-4-1-3-3 0 0-2-1-2 1s-2 4 2 3h4zm0 0z"/><path class="i" d="M359 266l-1-1c-1 0-4-2-2-3 0 0-3-1-3 1 0 1-2 5 2 4a21 21 0 014-1z"/><path class="h" d="M342 241l5 6c2 3-3 1-4-1l-1-4v-1zm0 0v1c2 4 1 5 5 6a4 4 0 00-1-1l-4-6z"/><path class="k" d="M342 241l4 6 1 1c-4-1-3-3-5-6v-1z"/><path class="h" d="M286 208l-6 4c-3 2-1-3 1-4l5-1v1zm0 0v-1c-5 2-5 1-7 5a4 4 0 001-1l6-3z"/><path class="k" d="M286 208l-6 3-2 1c2-4 4-3 8-5v1z"/><path class="h" d="M360 288c1 1 1 2-1 2s-2-4-4-7c-1-1-2-5 1 0l4 5zm0 0a21 21 0 01-4-5c-3-6-3-2-2 0l3 6c1 3 6 1 3-1z"/><path class="k" d="M360 288s2 1-1 2-2-4-4-7c-2-1-2-5 1 0a18 18 0 004 5z"/><path class="h" d="M352 288a21 21 0 00-3-2v5a3 3 0 000 1l3-4zm0 0c1 0-4 8-3 3 0-3-2-8 3-3z"/><path class="k" d="M352 288l-3-2v2c1 3-1 5 1 4l2-4z"/><path class="h" d="M384 338a21 21 0 00-2-1v5l2-4zm0 0c1 1-4 8-3 3 1-2-1-7 3-3z"/><path class="k" d="M384 338l-3-2 1 3c0 2-2 5 0 3 1 0 3-3 2-4z"/><path class="h" d="M339 291c0 1 1 1-1 3l2 2s6 4 5 1l-4-6a6 6 0 00-2 0zm0 0h1c2 0 3 3 4 5 2 3-2 0-3 0l-3-2c2-2 1-1 1-3z"/><path class="i" d="M339 291c0 1 1 1-1 3l4 3s5 2 2-1c-1-1-2-6-4-5h-1z"/><path class="e" d="M299 210l5 6 4 6c-2 0-10-10-11-12s0-2 2 0zm0 0c-2-2-2-2-2 0l10 11-2-4a23 23 0 00-1-2c-2-2-4-3-5-6z"/><path class="l" d="M299 210l5 6a18 18 0 002 3c2 3 2 4-2 0l-7-9s-1-2 1-1l1 1z"/><path class="h" d="M314 233a24 24 0 00-1-3c-1 1 0 2-3 4l4-1zm0 0c1 1-8 3-4 0 2-1 4-7 4 0z"/><path class="k" d="M314 233l-1-3-1 2c-1 2-4 2-2 3l4-2z"/><path class="h" d="M302 238a21 21 0 001 3l4-5a3 3 0 001-1l-6 3zm0 0c0-2 10-5 5-1-3 2-5 8-5 1z"/><path class="k" d="M302 238l1 3 2-2c1-3 5-4 2-4l-5 3z"/><path class="n" d="M318 216l4 1c2 0 3 2 4 3s1 2-1 1a50 50 0 01-5-2l-2-3zm0 0l2 2 6 3a6 6 0 00-1-1l-3-3-4-1z"/><path class="l" d="M318 216c1-1 3 1 4 1 2-1 2 2 4 3 0 0 2 3-1 1a13 13 0 01-3-1l-2-2a3 3 0 01-1 0l-1-2z"/><path class="e" d="M310 224l2 4c1 2 0 2-1 0l-1-2s-3-4-1-4v1a1 1 0 011 1zm0 0l-1-1c-2-1 2 4 2 4l1 2v-1l-2-4z"/><path class="k" d="M310 224l2 4c1 0 0 2-1 0l-1-2-1-2c-2-2 0-2 0-1z"/><path class="e" d="M283 214l2 4c1 1 0 2-1 0l-1-2s-3-4-1-3l1 1zm0 0l-1-1c-2-1 2 4 2 5l1 1v-1l-2-4z"/><path class="k" d="M283 214l2 4c1 1 1 3-1 0l-1-2a24 24 0 00-1-2c-1-1 0-2 0 0z"/><path class="h" d="M294 203a43 43 0 00-5 4c1 0 4-2 6 0l-1-3v-1zm1 4zm-1-4l1 3v1h-6c-2 0 4-4 5-4z"/><path class="i" d="M294 203l-3 2c-1 0-3 2-1 2h5v-1l-1-3z"/><path class="h" d="M330 251c2 0 2 1 2 2l1 2a10 10 0 001 2c1 1-3 3-3 2v-5l-1-3zm0 0l2 5-1 3 3-2a8 8 0 01-2-2v-2l-2-2zm1 8"/><path class="i" d="M330 251c2 0 1 1 2 2l1 2 1 2c1 1-2 2-3 2v-3a10 10 0 00-1-4v-1z"/><path class="h" d="M333 251l1 5 1 1v-2c0-2 1-2-2-3zm0 0a3 3 0 011 1c1 0 2 0 1 2v3c-1 1-1-1-1-1l-1-5z"/><path class="i" d="M333 251v4l1 2c1 0 2 0 1-1s2-3 0-4l-2-1z"/><path class="e" d="M328 224c-1-1-2 1-3 2l4-1a2 2 0 000 1l-1-2zm-3 2l3-2 1 1c2 2-1 1-1 1h-3s2-3 3-2z"/><path class="k" d="M328 224c-1-1-2 1-3 1-2 2 3 0 3 0h1l-1-1z"/><path class="e" d="M319 212c-1-1-2 1-3 2l3-1a3 3 0 001 1l-1-2zm-3 2l3-2 1 1c2 1-1 1-1 1h-3c-1 0 2-3 3-2z"/><path class="k" d="M319 212c-1-1-2 1-3 1-2 2 3 0 3 0h1l-1-1z"/><path class="h" d="M318 230c-1 1-3 0-2 3 1 2 2-2 2-3zm0 0l-1 3a1 1 0 01-2 0c-1-3 2-2 3-3z"/><path class="i" d="M318 230c-1 1-3 0-2 3 0 1 1 2 1 0l1-3z"/><path class="e" d="M344 269h5c2 0 1 1 1 3l-1 2-3-1-1-2-1-2zm0 0c-1 1 1 1 1 2l1 2h3l1-1-1-2-5-1z"/><path class="k" d="M344 269l5 1c2-1 1 0 1 2v1h-4c-2 1-1-2-1-2l-1-2z"/><path class="e" d="M322 264c1 3-3 4 1 3 1 0 3 3 3 1 0-1-2-1-2-3s-2-2-2-1zm0 0c0-1 2-2 2 1s2 2 2 3c0 2-2-1-3-1-4 1-1 0-1-3z"/><path class="k" d="M322 264c1 2-3 4 1 3 1 0 2 3 3 1 0-1-2-1-2-3s-2-2-2-1z"/><path class="e" d="M334 278c1-1 1 2 2 3 3 4 2 5 0 3l-1-3c-1-2-3-2-1-3zm0 0l-1 1 3 4 1 2a18 18 0 00-1-4l-2-3z"/><path class="k" d="M334 278c1-1 1 2 2 3 0 0 3 5 1 4a7 7 0 00-1-2l-3-4 1-1z"/><path class="h" d="M359 309l2 2v2a9 9 0 001 2c1 1-3 2-3 2v-6-2zm0 0l1 4-1 3 3-1a8 8 0 01-1-2v-2l-2-2zm0 7"/><path class="i" d="M359 309l2 2v2l1 1c1 1-2 2-2 2-2 1 0-2 0-3a10 10 0 00-2-4h1z"/><path class="h" d="M386 317l-2 2-2-2s-5-6-3-6l7 4a7 7 0 010 2zm0 0c0-3-3-3-6-5-3-1 1 3 2 4 1 2 0 2 2 2l2-1z"/><path class="i" d="M386 317l-2 2-4-4c0-1-3-5 1-3 1 1 5 2 5 5z"/><path class="h" d="M367 321c2 0 5 4 6 5 3 3-2 1-3 0l-3-5zm0 0v1c3 3 3 4 6 5a5 5 0 000-1c-1-1-4-5-6-5z"/><path class="k" d="M367 321l5 5 2 1c-5 0-4-2-7-5v-1z"/><path class="h" d="M393 305l5 6c2 3-3 1-4-1l-2-5h1zm0 0l-1 1c2 4 2 4 6 6a4 4 0 00-1-1l-4-6z"/><path class="k" d="M393 305l4 5 1 2c-4-1-4-3-6-6l1-1z"/><path class="h" d="M396 334c-2 0-5-5-5-6-3-3 2-1 3 1l2 5zm0 0v-1c-2-4-2-4-6-6a4 4 0 001 1c1 2 3 6 5 6z"/><path class="k" d="M396 334c-2 0-4-4-5-5l-1-2c5 1 4 3 6 6v1z"/><path class="e" d="M291 227l10 11c1 0 1-4-1-6l-2-3c-4-5-3-3-6-3-1-1-1 0-1 1zm0 0l1-2c3 1 2-1 6 4l2 3c2 2 3 8 0 6s-6-8-9-11z"/><path class="l" d="M291 227c4 6 11 15 11 9-1-4-2-4-4-7-4-5-3-3-6-4l-1 2z"/><path class="m" d="M301 238l1-2c-1-4-2-4-4-7-4-5-3-3-6-3l5 5c2 8 2 0 4 5a4 4 0 000 2z"/><path class="n" d="M366 295c2 0 2 1 3 2l1 3v1a37 37 0 01-3-3c0-1-2-2-1-3zm0 0a1218 1218 0 004 7 5 5 0 000-2l-1-3-3-2z"/><path class="l" d="M366 295l3 2 1 3s1 3-1 0a10 10 0 01-1-1l-1-1-1-1v-2z"/><path class="n" d="M372 294l-3 1c-2 0 0 0 1 1v1l1-2 1-1a2 2 0 000-1v1zm0 0v1a1 1 0 01-1 0v2c-1 1-1-1-2-1 0 0-2-1 0-1l2-1z"/><path class="l" d="M372 294l-3 1c-2 0 0 1 0 1l1 1 1-2h1v-1z"/><path class="n" d="M377 287l1 3 4 3c1 1 2 1 1-1a42 42 0 00-3-4c-1 0-2-2-3-1zm0 0a480 480 0 006 6 5 5 0 01-1-1l-4-2-1-3z"/><path class="l" d="M377 287l1 3 4 2s2 2 0 0a12 12 0 00-1-2l-1-2a3 3 0 00-1-1h-2z"/><path class="h" d="M365 295a21 21 0 00-2-3l-2-2a6 6 0 001 3c0 1 4 4 3 2zm0 0c1 2-2 0-3-1a6 6 0 01-2-4l3 2a9 9 0 012 3z"/><path class="i" d="M365 295l-1-2-1-1a15 15 0 00-2-2v2a4 4 0 001 2l3 1z"/><path class="h" d="M363 309a23 23 0 00-3-1c1 2 2 1 2 5l1-4zm0 0c2 0-1 8-1 3-1-2-4-6 1-3z"/><path class="k" d="M363 309l-3-1 1 2c1 2 0 5 2 3v-4z"/><path class="n" d="M334 233c-4-5-5-8-11-5-3 2-7 6-3 8 3 2 3 5 5 7l3 3c4 6 8 6 13 1 2-2 0-5-2-8a31 31 0 00-5-6zm0 0c3 2 3 4 5 6 2 3 5 6 2 8-5 5-9 5-13-1l-3-3-6-7c-4-2 1-6 4-8 6-3 7 0 11 5z"/><path class="l" d="M334 233l-5-6c-4-2-15 6-10 9 3 2 3 6 7 8 2 1 5 12 14 4 2-2 3-3 1-6l-7-9z"/><path class="m" d="M334 233a8 8 0 01-1-1c-5 1-3-2-1-2a12 12 0 00-3-3 3 3 0 00-2 0c-4 2-9 8-6 8 3 1 5 8 7 6 4-4 8-5 9-5a17 17 0 00-3-3zm3 17c-1 0-1-2-5-2-4 1-4-3-2-3l3-1c-7 0-4-4-2-4 0 0 2-3 6-3l4 5c2 3 1 4-1 6a14 14 0 01-3 2z"/><path class="o" d="M329 228l3 2-2 1c-1 1-1 1 1 2a4 4 0 002 1l-4-1c-1-2 0-3 1-4a6 6 0 01-1-1zm2 2z"/><path class="n" d="M320 190c-4-5-5-8-11-5-3 2-7 6-4 8l6 7 3 3c4 6 7 6 12 1 3-2 1-4-1-7a31 31 0 00-5-7zm0 0l5 6c2 3 4 6 2 8-6 5-9 5-14-1l-2-3-6-6c-4-3 1-7 3-9 6-3 8 0 12 5z"/><path class="l" d="M320 190l-5-6c-4-2-15 6-10 9 3 2 3 6 7 8 1 1 5 12 14 4 2-2 3-3 0-6l-6-9z"/><path class="m" d="M320 190a11 11 0 01-1-1c-5 1-3-2-2-2a12 12 0 00-2-3 3 3 0 00-2 0c-4 2-9 8-6 8 3 1 4 8 6 6 5-4 8-5 10-5a18 18 0 00-3-3zm3 17c-1 0-1-2-5-2-4 1-5-3-2-3 1 0 9-2 2-1-6 0-3-4-1-4l6-3 3 5c3 3 2 4 0 6a13 13 0 01-3 2z"/><path class="o" d="M315 185s3 1 2 2l-1 1v2a4 4 0 002 1c-1 1-3 0-4-1-1-2 1-3 2-3a6 6 0 01-1-2zm2 2z"/><path class="n" d="M340 262c-5-6-6-7-1-12 3-2 4-3 8 0l6 7-2 10c0 1-3 2-6 1l-5-6zm0 0a40 40 0 004 5c3 3 7 2 8 0 0-4 2-8 1-10 0-2-5-7-6-8-4-2-6-2-8 1-5 5-4 6 1 12z"/><path class="l" d="M340 262c-3-4-5-4-4-8 0-1 5-7 7-6 6 2 4 2 9 7 2 3-1 8-1 12l-2 2c-4 1-7-4-9-7z"/><path class="m" d="M337 252c1-2 5-5 6-4 6 2 4 2 9 7a3 3 0 011 2c-1 1-3 2-1 4a17 17 0 00-1 6c-7 1-5-4-8-6-3-1-1-4-4-5-2-1-2-2-2-4zm9 0c-3-4-6 1-3 0l2 1 1-1z"/><path class="o" d="M348 252c1 0 4 2 4 4s-2 1-1 3v2c-1-2-2-3 0-4s-2-4-3-5z"/><path class="n" d="M367 342c-5-6-6-7-1-12 3-2 4-3 8 0l6 6-2 10c0 2-3 3-6 2l-5-6zm0 0a40 40 0 004 5c3 3 8 2 8 0 0-4 2-8 1-11l-6-7c-4-2-5-2-8 1-5 5-4 6 1 12z"/><path class="l" d="M367 342c-3-4-4-5-4-8 0-1 5-7 8-6 6 2 4 2 8 7 3 3-1 8 0 11l-3 3c-4 0-6-4-9-7z"/><path class="m" d="M364 332c2-2 5-5 7-4 6 2 4 2 8 7a3 3 0 011 2c-1 1-3 2-1 4a17 17 0 000 5c-8 2-5-3-8-5-3-1-2-4-5-6-2 0-2-2-2-3zm9-1c-3-3-6 2-2 1l2 1v-1z"/><path class="o" d="M375 332c2 0 4 2 4 4s-2 1-1 3v2c-1-2-2-3 0-4s-2-5-3-5z"/><path class="n" d="M369 277c-4-5-7-13-15-9-3 2-5 5-2 8 4 3 11 17 15 18 1 1 14-3 8-10l-6-7zm0 0a79 79 0 017 7c4 6-6 11-9 10-3 0-12-14-15-18-5-4 2-9 6-9 5 0 8 6 11 10z"/><path class="l" d="M369 277s-6-9-9-10c-6-2-13 6-8 9 3 3 12 19 16 18 4 0 12-4 7-10l-6-7z"/><path class="m" d="M358 271c4 3 6 9 2 3 0 0-6-4-3-4l1 1zm11 6s-6-9-9-10a8 8 0 00-7 2 3 3 0 000 4l4 4c3 5 6 6 11 7 3 1 5 7 3 6-2-4-5-8-9-5-1 1 4 7 7 9 4-1 10-5 6-10l-6-7z"/><path class="o" d="M359 278c3 3 3 3 7 4 2 1 6 3 6 5a6 6 0 000 2l-1-2-4-4c-4-1-5-1-8-5z"/><path class="e" d="M370 256l7 7c2 2 10 11 9 13 0 2-4 4-5 6-3 3-4 0-7-3l-9-9c-3-4-7-8-1-12 2-3 3-4 6-2zm0 0c-4-1-4 0-7 3-4 4 0 7 3 11l8 9c3 2 4 5 6 2l6-5c1-2-7-9-8-11l-8-9z"/><path class="k" d="M370 256l6 7c2 2 11 11 10 13 0 2-4 4-5 6h-4l-12-12c-1-2-7-7-2-12l2-1c2-2 2-2 5-1z"/><path class="g" d="M370 256l6 7c2 2 11 11 10 13 0 2-4 4-5 6a2 2 0 01-2 1 40 40 0 01-5-4l-1-2v-1c-1-1 0-4 1-3h3c2 0 0 1 0 1l2 2 2 1 1 1-1-1a7 7 0 01-2-3l-3-3-4-1-6-6-3-6 2-1c2-2 2-2 5-1z"/><path class="p" d="M366 256c3 0 4 3 6 4 4 3 5 2 7 6a17 17 0 014 7v1l-1-3c-2-4-5-7-9-9-3-2-4-5-7-6z"/><path class="e" d="M310 254c-2 1-6 7-9 5-4-4-18-20-13-24 1-1 4-4 5-3 3 1 15 17 17 20a9 9 0 010 2zm0 0a5 5 0 000-2c-2-3-14-19-17-21-2-1-5 3-6 3-4 5 10 21 14 25 3 3 7-3 9-5z"/><path class="l" d="M310 254c-2 2-6 7-9 5-4-4-18-20-13-24 6-5 4-6 13 5l9 12a7 7 0 010 2z"/><path class="m" d="M310 254l-2 2a1 1 0 01-1-1c-1-3-3 3-4-4-6-4-4-5-6-10-1-2-8 0-2 3 3 1 1 1 3 4 1 1-3 0-5-2-1-1-2-1-2 1-3-5-6-10-3-12 4-4 5-5 8-1 0 1-1 1 2 2a3 3 0 000 1l3 3 9 12a6 6 0 010 2zm-4 4c0-2 0-3-2-3-3-1-3-3-3-3-4 4-2 4-5 2l5 5c1 1 3 0 5-1z"/><path class="o" d="M292 232c5 1 2 2 4 4l3 2a58 58 0 016 9l-8-9-2-2c-1-2 2-1-3-4z"/><path class="h" d="M312 273c3-2 9-6 9-10-1-2-3-2-4-5s-2-3-5-2c-8 2-8 10-2 15zm0 0l-2-2c-7-5-6-13 2-16 3-1 4 1 5 3s5 3 4 7-5 6-9 8z"/><path class="i" d="M312 273c4-1 14-9 7-13-4-1-2-8-10-3-7 4-3 13 3 16z"/><path class="j" d="M319 268c2-3 3-6 0-8-3-1-2-7-8-4 1 1 3 1-2 5-2 2-1-2-1-3a7 7 0 00-3 4 4 4 0 005 2c3 0 5 5 9 4z"/><path class="q" d="M309 263a10 10 0 016 3h3v1c-3 1-4 0-5-1l-4-3z"/><path class="h" d="M331 295c2-1 10-3 7-7l-7-11-5-6c-3-3-3-3-7 0-1 1-5 2-4 4l4 5 7 8 5 7zm0 0c-1 1-4-6-5-7-4-1-5-4-8-7l-4-6 6-6c3-2 4 0 6 2l5 6 8 11c2 4-6 7-8 7z"/><path class="i" d="M331 295c3-1 10-4 8-7l-8-11-5-6c-2-1-2-4-7-1-4 4-7 4-2 8 2 2 5 9 9 10 1 1 4 8 5 7z"/><path class="j" d="M336 293c2-1 4-3 3-5l-8-11-5-6c-2-1-2-4-7-1l-2 2c-1 2 0 3 1 3 4 1 7 10 8 10 2-1 3 0 3-2v-5c1-4 1 9 3 9 4 1 3 5 4 6z"/><path class="q" d="M332 282v4c1 1 4 3 3 5 0-3-3-2-4-4l1-5z"/><path class="h" d="M359 318c0 1-5 5-4 6 0 1 3 9 6 8 1-1 7-4 7-7 0-1-5-12-9-7zm0 0c3-5 8 3 9 7 1 3-5 7-7 7-3 1-5-5-7-8-1-2 4-5 5-6z"/><path class="i" d="M359 318c-1 1-3 2-3 4-1 1-2 1-1 2 1 3 1 5 5 8 1 1 4-2 5-3 1 0 4-2 3-5-3-7-7-9-9-6z"/><path class="j" d="M362 331l3-2c1-1 3-3 2-5-2-6-5-8-7-7l-3 4c-2 1 1 7 3 7 1-1 3 0 1 1-1 0-1 1 1 2z"/><path class="q" d="M362 319c1-1 3 3 4 3a8 8 0 010 4l-1-2c-1-2-1-4-3-5z"/><path class="e" d="M384 321c-2 1-7 7-9 4l-6-4-4-6c-2-1-2-3-1-5 0-8 6-8 10-2l7 10a12 12 0 003 2 3 3 0 000 1zm0 0v-1a14 14 0 01-3-2l-7-10c-4-7-10-7-11 2l1 6 5 5 5 5c3 2 8-4 10-5z"/><path class="k" d="M384 321c-1 1-7 7-9 5s-3-1-7-7-5-3-5-9c1-6 5-9 9-5l9 12 3 3z"/><path class="g" d="M384 321l-7 5v-2l-4-4c-3-2-3-6-7-6-6 0 2-10 3-9 5 1 4 2 5 3 2 3 3 6 7 9l3 3z"/><path class="p" d="M369 305c5 1 2 2 3 3l3 2a46 46 0 015 8l-7-8-1-1c-2-2 1-2-3-4z"/><path class="h" d="M353 234l-4-4c-1-2-4-7-6-6l-3 1c-2 0-5 3-5 5 1 5 4 6 8 10a69 69 0 016 9c1 1 4 6 6 5l7-7c1-2-2-6-3-7a53 53 0 00-6-6zm0 0a41 41 0 016 6c1 1 5 5 4 7l-8 7c-2 1-5-4-6-5a74 74 0 00-7-9c-3-3-6-4-7-10-1-2 3-6 5-6l3-1c3 0 5 4 6 6 2 3 1 3 4 5z"/><path class="i" d="M353 234l-3-3-2-3c-2-3-3-6-7-4-1 1-1-1-4 3-3 2-3 2-2 5 2 4 5 5 7 8l7 9a23 23 0 004 5c2 1 3-2 4-2l2-2c4-4 5-4 1-9-1-1-5-7-7-7z"/><path class="j" d="M349 229a15 15 0 00-1-1c-2-3-3-6-7-4-1 2-2 4-1 5 2 3 2 6 6 7l3 1c1 1 4 2 4 4 1 3 6 5 8 7 2-2 2-3-1-7l-3-4c-4-1-6-1-8-7v-1zm3 24a6 6 0 01-1-3c-1-6-5-8-10-12-1-1-4-8-2-9 3 3 0 4 5 8 3 4 2-1 9 7l6 6-2 2c-1 0-2 3-4 2z"/><path class="q" d="M361 247c1-1 1-2-1-4l-6-5a17 17 0 01-3-5l4 4 5 4c2 1 4 5 1 6z"/><path class="h" d="M298 207c3 1 2 1 4 4 1 2 4 6 6 6l3-1c1 0 5-4 5-6-1-5-4-6-7-10a69 69 0 01-7-8c-1-2-4-6-6-5l-7 7c-1 2 2 5 3 6a53 53 0 006 7zm0 0a41 41 0 01-6-6c-1-2-5-5-3-7l7-8c2-1 5 4 6 5a74 74 0 007 9c3 4 6 5 7 10 1 2-3 6-5 6l-3 1c-2 0-5-4-6-6-2-3-1-3-4-4z"/><path class="i" d="M298 207l3 2 2 4c2 2 3 5 7 3 1-1 1 1 4-2s3-3 2-5c-2-5-5-6-7-9-2-2-6-6-7-9a22 22 0 00-4-4c-2-2-3 1-4 2l-2 2c-4 3-5 3-1 8l7 8z"/><path class="j" d="M302 211a14 14 0 001 2c2 2 3 5 7 3 1-2 2-4 1-5-2-3-2-6-5-7h-4l-4-5c0-3-6-4-8-7-2 2-2 3 1 7l3 4c4 1 6 2 8 8zm-3-23a6 6 0 011 2c1 7 5 8 10 12 1 1 4 8 2 9-3-2 0-4-5-8-3-3-2 2-9-6l-6-6 2-2c1-1 2-4 4-2l1 1z"/><path class="q" d="M291 193c-2 2-2 2 0 4l6 6a17 17 0 013 4l-4-4-4-4c-1-2-5-5-1-6z"/><path class="e" d="M325 244c-4-2-4-3-7-7s-5-3-9 0c-3 1-6 4-3 7l2 2c2 5 2 6 7 8 3 1 7 8 8 8 12-4 6-10 3-17a2 2 0 00-1-1zm0 0a1 1 0 011 1c3 7 9 13-3 17-2 1-5-7-8-8-5-2-5-3-8-8l-1-2c-3-3 0-6 3-8 4-2 6-3 9 1l7 7z"/><path class="k" d="M325 244c-7-4-7-12-13-9-4 1-11 6-5 10 1 1 2 8 8 9 2 1 7 9 8 8 13-4 6-11 3-17a5 5 0 00-1-1z"/><path class="g" d="M325 244l-1-1a29 29 0 01-9 3l-4-1h4a19 19 0 008-3c-5-4-6-9-11-7-11 4-8 12 3 12 4 0 7-2 5 2l-3 7 2 2c0-3 7-4 8-8 1-2-3-4-2-6zm-14 7c2-1 7-2 3 3a9 9 0 01-3-3zm19 3c-1 6-7 8-7 4 1-5 4-7 6-6a10 10 0 011 2z"/><path class="p" d="M314 235c0-3 4 2 4 3a23 23 0 003 2l3 3-4-2-5-5c0-1 0-2-1-1z"/><path class="k" d="M305 241c5-1 7-1 12 1 3 1 3-1 5-1a6 6 0 01-5 1h-3c-4 1-1 3-5 5l4-4c-4-1-2 2-5 2 2 0 2-3 5-3h3c-5-2-6-1-11-2zm17 0z"/><path class="e" d="M357 318l-5 4c-3-1-9-10-12-13-2-2-9-6-4-10 3-3 1-2 6 0 3 0 8 2 10 4s7 8 7 12a5 5 0 01-2 3zm0 0l2-4c0-4-6-11-9-13l-12-5-4 3c-2 4 4 8 6 11 3 2 9 11 12 12l5-4z"/><path class="k" d="M357 318l-5 4-8-8-6-6c-3-3-6-7-2-10 2-1 1-2 5 0l11 4c3 4 11 12 5 16z"/><path class="g" d="M338 297a14 14 0 013 1l11 4c2 3 8 10 6 14-2 2-2 3-8-1l-6-8-6-9v-1z"/><path class="p" d="M344 300c4 0 14 7 13 12v1-1c-1-5-9-10-13-12z"/><path class="e" d="M347 300l-2 7c1 3-4 8-1 3 2-2 0-4 1-6 1-4 2-3-3-1l4-2 1-1zM379 286c2-3 4-5 7-6 4-3 5 1 7 4 2 2 13 13 12 14l-5 6c-1 2-4 4-6 2l-8-11-7-9zm0 0l7 9 9 11c1 2 4-1 5-2 1-3 4-4 5-6l-11-13c-4-4-5-9-11-4l-4 5z"/><path class="k" d="M379 286c2-2 3-4 7-6s4 0 6 3l8 9 5 6-5 6c-1 1-4 4-6 2q-5-8-11-14l-4-6z"/><path class="g" d="M392 283l8 9 5 6a8 8 0 01-1 2h-3c-1 3 0 3-3 4-4 1-5-2-4-3 3-3-2-3-5-4l-8-10c-1-3 1-3 2-5 4-3 5-1 5-1l4 2zm-3 2a8 8 0 012 1h1a2 2 0 010-1c0-1-7-4-3 0zm5 15c0-1-2-3-3-1 0 0 1 2 3 1v-1z"/><path class="p" d="M396 288l7 9h-1l-6-9z"/><path class="k" d="M382 283a6 6 0 002 0c2 0 4 3 4 3-1 0-2-3-4-2l-3-1h1z"/><path class="e" d="M265 216c3-2 4-5 7-6 4-2 5 1 8 4 1 2 12 13 11 15l-4 5c-2 2-4 4-6 2l-9-10c0-1-8-9-7-10zm0 0c-1 1 7 9 7 9l9 11c2 2 4 0 5-2l5-5c1-1-9-12-11-13-4-5-4-9-10-4l-5 4z"/><path class="k" d="M265 216c3-2 3-4 7-6s4 0 7 3l8 9c1 2 5 6 4 7l-5 5c0 1-4 4-5 2a177 177 0 00-12-14s-5-5-4-6z"/><path class="g" d="M278 213h1l8 9c1 2 5 6 4 7a9 9 0 01-1 1h-3c-1 4 0 4-3 5-4 1-4-2-3-4 3-3-2-3-5-4l-8-10c-1-2 0-3 2-5 3-2 4-1 5-1l3 2zm-3 2a8 8 0 012 1h1a1 1 0 010-1s-7-3-3 0zm6 15c-1-1-2-3-4-1 0 0 1 2 3 1h1z"/><path class="p" d="M282 218c1-1 6 9 7 10l-1-1-6-9z"/><path class="k" d="M268 213a6 6 0 002 1c2 0 4 2 5 3l-1-1s-1-2-3-2h-3v-1zM347 300l-2 7c1 3-4 8-1 3 2-2 0-4 1-6 1-4 2-3-3-1l4-2 1-1z"/><use class="c" transform="rotate(-40 719 -128) scale(.09)" xlink:href="#c"/><path class="d" d="M418 354l-7-7-8-9c-2-3-4-6-7-7a13 13 0 00-10-2c-8 2-12 9-17 14a74 74 0 01-9 7 34 34 0 00-5 3 39 39 0 00-4 5 23 23 0 01-4 3l-5 4-9 7-19 15-9 8-8 8a4 4 0 00-1 1 31 31 0 00-4 3 35 35 0 01-6 4 36 36 0 00-6 4l-5 5-6 5a12 12 0 00-3 5 7 7 0 010 1l5 7c0 2 0 6-3 7a7 7 0 012 2 23 23 0 013 3c2 3 6 4 9 6a2 2 0 011 3 2 2 0 011 1 10 10 0 012 5 29 29 0 002 3 11 11 0 002 3 18 18 0 004 3 5 5 0 004-3 22 22 0 017-8l10-6 19-15 19-16 38-32 19-16 9-8a8 8 0 003-6 8 8 0 00-1-5 70 70 0 00-2-2 3 3 0 00-1-3z"/><path class="e" d="M291 407c-4 3-8 4-5 8l4 5c1 2 7-4 9-5 1-1 9-7 8-8-1-2-5-7-7-7-3 0-5 3-7 5zm0 0l2-2c2-2 4-5 7-5 2-1 6 5 7 6 1 2-7 8-8 9-2 2-8 8-10 5l-3-5c-3-4 1-5 5-8z"/><path class="f" d="M291 407c-4 2-8 4-5 8 5 4 2 10 12 1 2-1 10-8 9-10l-4-5c-2-2-3-2-5 0a8 8 0 00-3 2 42 42 0 01-4 4z"/><path class="g" d="M291 407l-6 5a3 3 0 002 2l3 3c2 0 2 2 6-1 1-1 6-4 6-7 0-2 6 2 3-4l-6-5-1 1a8 8 0 00-3 2 42 42 0 01-4 4zm7-4v1l-2 2 2-3zm4 3h1c-3 1-1 0 0 0zm-12 12h4c1 1-3 2-3 1l-1-1z"/><path class="h" d="M328 380l7 6s5-1 4-3-6-9-8-9c-1 0-8 1-3 6zm0 0c-4-4 1-7 3-6 2 0 7 7 8 8 2 3-2 4-4 4-1 1-5-5-7-6z"/><path class="i" d="M328 380l5 4 2 2c2-1 3 0 5-2l-4-6c-1-2-4-5-5-4-5 1-6 3-3 6z"/><path class="j" d="M334 376l-3-2c-4 0-5 2-4 4a15 15 0 011 1l5 4c2 3 2 1 3 1a2 2 0 002-2l-2-4a21 21 0 00-2-2z"/><path class="h" d="M280 457l5 8s5 0 4-2c0-2-3-10-5-11-1 0-8 0-4 5zm0 0c-4-4 1-6 4-5 2 0 5 8 6 10 1 3-3 3-5 3l-5-8z"/><path class="i" d="M280 457l3 6 2 2 5-1-3-7c0-2-2-5-4-5-4 0-6 2-3 5z"/><path class="j" d="M286 455l-3-3c-3 0-5 1-4 3l1 1 3 6c2 3 2 1 3 1a2 2 0 002-2l-1-3a20 20 0 00-1-3z"/><path class="e" d="M357 406c-5 6-7 5-13 9-2 2-10-12-3-13 2 0 2-1 3-2s6-5 7-4l4 6 2 4zm0 0l-2-4-4-6c-1-1-3 1-4 2-2 1-4 4-6 4-6 2 1 15 3 13 5-4 7-3 13-9z"/><path class="k" d="M357 406c-5 6-9 5-13 9-2 2-10-12-2-13l5-4c4-2 3-4 7 3 1 2 3 3 3 5z"/><path class="g" d="M342 414c-3-3-6-12 0-12l5-4c3-2 3-3 4-1-3 3-1 3 0 3a3 3 0 002-1l1 2a31 31 0 012 4 5 5 0 01-2 0c-2 0-7-4-1 2-3 3-5-2-5-2-5-6-3-1-3 2 1 7-1-4-2-4-2 0 0 4 0 5 1 4 0 6-1 6z"/><path class="h" d="M381 387c-2 2-7 8-9 3l-3-4c-3-3 0-4 2-7 1-1 7-9 9-7 2 1 7 6 6 8a30 30 0 01-3 4l-2 3zm0 0l2-4 3-4-6-7c-2-2-8 7-10 9-5 5-1 3 1 8 3 6 6 1 10-2z"/><path class="i" d="M381 387c-2 1-7 9-10 2-1-4-6-3-1-8 3-3 8-11 10-9 9 9 6 6 2 14a5 5 0 01-1 1z"/><path class="j" d="M372 379l2-3a6 6 0 012 2c0 1 4 1 1-5 1-1 2-2 3-1l2 1a19 19 0 001 4c2 2 0 6-3 7-1 1-5 9-6 4-3-1-4-2-3-6-2-1 1 1 1-3z"/><path class="h" d="M404 347c-2 3-7 9-9 4l-3-5c-3-2-1-3 2-6 1-1 7-10 9-8 1 2 7 6 6 9a31 31 0 01-3 3l-2 3zm0 0l2-3 2-4c1-2-4-7-5-8-2-1-8 8-10 9-5 6-1 3 1 8 3 7 6 2 10-2z"/><path class="i" d="M404 347c-2 2-7 10-10 2-1-4-7-3-1-8 2-2 8-11 10-9 9 10 6 7 1 14a4 4 0 010 1z"/><path class="j" d="M395 340l2-3a6 6 0 011 2c1 1 5 1 2-6l3-1 1 2a18 18 0 002 4c1 2 0 6-3 7-1 0-5 9-6 3-3-1-4-1-3-5-2-1 1 0 1-3z"/><path class="e" d="M314 436c-2-7-2-9-10-3-6 5-4 5-2 9 1 2 1 2 4 2 2 0 8-6 8-8zm0 0c0 3-7 9-8 8l-4-1c-2-5-5-5 1-10 9-6 10-5 11 3z"/><path class="l" d="M314 436c-1-4-1-9-7-5-10 7-7 6-4 13h3c1 1 8-6 8-8z"/><path class="m" d="M313 431c-1-2-3-3-6 0-9 6-8 6-5 10 6-3 4 1 8-4 1-2 0-3 1-2 2 0 2-2 2-4zm-5 1s2 0 0 1c-6 5-6 2 0-1z"/><path class="e" d="M416 353c-2-8-3-9-11-3-6 4-4 5-1 9 1 2 1 2 3 2 3 0 8-6 9-8zm0 0c-1 3-7 8-8 8a1 1 0 01-1 0c-2 0-2 0-3-2-3-4-5-5 1-9 8-6 9-5 11 3z"/><path class="l" d="M416 353c-1-4-1-10-8-5-10 7-7 6-4 12l4 1c1 0 8-6 8-8z"/><path class="m" d="M414 348c-1-2-2-3-6 0-9 6-8 6-5 10a1 1 0 001 0c5-4 4 0 7-4 2-2 1-3 1-3 2 1 3-1 2-3zm-5 1c1 0 2 0 1 1-6 5-6 2-1-1z"/><path class="e" d="M355 397c3-2 10-6 11-9 0-2-5-2-7-1l-3 3c-5 4-3 3-3 6l2 1zm0 0h-2c0-4-2-3 3-7l3-3c2-2 8-2 7 1s-8 7-11 9z"/><path class="k" d="M355 397c6-3 15-11 9-11-5 0-5 1-8 4-5 4-2 3-3 7h2z"/><path class="g" d="M366 387l-2-1c-5 0-5 1-8 4-5 4-2 3-3 6l6-5c8-1-1-3 5-4a4 4 0 002 0z"/><path class="h" d="M299 421c-2 3-5 2-3 6l3 4c1 2 5-2 6-3 4-1 6-2 3-6l-5-6-4 5zm0 0l4-6 6 6c2 5 0 6-4 8-1 0-5 5-7 2l-2-4c-3-4 1-3 3-6z"/><path class="j" d="M299 421c-1 3-6 2-2 7 1 1 1 7 8 1 1-1 9-2 1-10-2-3-3-6-6 0l-1 2z"/><path class="i" d="M299 421c-1 2-5 2-3 5a5 5 0 010 1l1 1 1 3c3 0 7-6 10-6v-4a19 19 0 00-2-2 3 3 0 00-3 1c-1 2-2 1-4 0a5 5 0 000 1z"/><path class="e" d="M305 450c-5 5-7 4-11 8-3 2-10-12-4-13l3-2 6-4 4 6 2 5zm0 0l-2-4-4-6-3 1c-2 1-4 4-6 4-6 1 1 14 3 12 5-3 7-2 12-7z"/><path class="l" d="M305 450c-4 5-8 4-12 8-2 2-10-13-2-13l5-4c3-2 3-3 6 3l3 6z"/><path class="m" d="M288 451c-1-3 0-6 3-6l5-4c3-2 3-3 5 1a7 7 0 01-2 1c-1 1-3 4-2 5 1 4-1 1-1 4 1 1-3 2-4 0l-4-1zm14-7a16 16 0 00-2 2c-2 1 0 1 0 4 0 1 2 2 3-1a13 13 0 001-2l-2-3z"/><path class="n" d="M388 361c-2 1-9 8-11 8l-6-5c-4-5 4-10 8-13 2-1 9-7 11-4l4 4-4 6-2 4zm0 0l2-4 4-6a54 54 0 00-3-4c-4-4-16 7-19 9-5 6-2 11 5 13 1 1 10-7 11-8z"/><path class="l" d="M388 361l-11 8s-15-4-2-15c2-2 13-11 15-7 4 5 6 3 1 9l-3 5z"/><path class="m" d="M375 368c-4-2-8-5-2-12h1a3 3 0 002-3c4-3 10-8 13-7-1 2 7 2-1 11-3 3-3 1-3-1-2-5-1 3-1 4-2 5-7-1-7 4l-2 4z"/><path class="e" d="M358 404c5-2 14-6 15-10 1-2-6-4-8-2l-4 2c-7 4-4 3-4 8-1 1 0 1 1 2zm0 0l-2-2c1-5-2-3 5-8l4-2c3-2 10-1 8 3s-10 7-15 9z"/><path class="k" d="M358 404c8-3 20-11 13-12-6-2-6 0-10 2-7 4-4 4-5 8l2 2z"/><path class="g" d="M370 392c-5-2-5 0-9 2l-2 1a2 2 0 01-1 2 2 2 0 000 4c4 1 4-7 9-7 2 2-3 4-4 5 1 1 8-5 8-5 1 0 1-1-1-2z"/><path class="e" d="M388 340c4-2 11-6 9-10-2-3-11-4-13-2l-3 3c-4 4-1 2 3 7l4 2zm0 0l-4-2c-5-4-8-3-3-8l2-2c3-2 14-1 15 3s-6 7-10 9z"/><path class="k" d="M388 340c7-3 15-11 3-13-9-1-7 1-10 3-5 5-1 4 3 8l4 2z"/><path class="g" d="M391 327c-9-1-7 1-10 3a14 14 0 00-1 2v1c-1 1 4 4 4 4 7 1-2-7 5-7 5 2 0 4 0 5 3 1 5-5 5-5 2-1-1-2-3-3z"/><path class="h" d="M344 379l-4 1c-2 1 1 1 1 2v2l2-2 1-2a3 3 0 001-1h-1zm0 0c2-2 1 1 0 2l-2 2c-1 3-1 0-1-1-1 0-4-2-1-2l4-1z"/><path class="i" d="M344 379l-4 1c-3 0 1 2 1 2s0 3 1 2l1-3 1-1c1 0 2-3 0-1z"/><path class="h" d="M345 381h-1a3 3 0 011 1c0 3 3 6-2 5-1 0-3 1-3-2s1 2 3-2l1-2zm-1 0a3 3 0 000 1c-1 1-2 4-3 3 0 0-1 2 1 2s4 1 3-2l-1-4zm0 0z"/><path class="i" d="M345 381l-1 1c-1 1-2 4-3 2 0 0-1 3 1 3 1 0 5 2 3-2l-1-4z"/><path class="h" d="M321 399c-1-2 4-5 5-5 3-3 1 2-1 3l-4 2zm0 0c4-2 5-2 6-6a4 4 0 00-1 1c-1 1-5 3-5 5z"/><path class="k" d="M321 399c-1-2 4-4 5-5l1-1c-1 5-2 4-6 6z"/><path class="h" d="M288 455l4 6c2 4-2 1-3-1 0-1-2-4-1-5zm0 0v1c1 4 1 5 4 6a4 4 0 000-1c-1-1-2-5-4-6z"/><path class="k" d="M288 455l4 6v2c-4-2-3-4-4-7v-1z"/><path class="h" d="M366 380c2-1 2-1 3 1 0 2-4 2-7 4-2 1-5 2 0-1l4-4zm0 0a21 21 0 01-4 3c-6 4-2 4 0 2l5-2c4-2 1-6-1-3z"/><path class="k" d="M366 380c1-1 2-2 3 0 1 3-4 2-7 5-1 1-5 1 0-2a18 18 0 004-3z"/><path class="h" d="M367 388a23 23 0 00-2 2h5a2 2 0 001 0l-4-2zm0 0c0-1 8 3 3 3-3-1-8 2-3-3z"/><path class="k" d="M367 388l-2 3 2-1c3 0 5 2 4 0l-4-2z"/><path class="h" d="M416 355a20 20 0 00-1 2h5a2 2 0 001 0c0-1-4-3-5-2zm0 0c1-2 9 3 4 2-3 0-8 2-4-2z"/><path class="k" d="M416 355l-1 2h2c2-1 5 1 4-1 0 0-4-2-5-1z"/><path class="h" d="M370 400l3 1 2-1c0-1 4-7 1-6l-6 4a5 5 0 000 2zm0 0c0-3 3-3 5-5 3-2 1 2 0 4l-2 2-3-1z"/><path class="i" d="M370 400l3 1 3-4s2-4-1-2c-1 1-5 2-5 5z"/><path class="e" d="M290 443l6-6c1 0 5-5 6-4l-12 11c-2 1-2 1 0-1zm0 0c-2 2-2 2 0 1s12-10 11-11l-4 3a21 21 0 00-2 1l-5 5z"/><path class="l" d="M290 443l6-6a18 18 0 003-2c3-2 4-2 0 2l-9 7s-2 1-1-1h1z"/><path class="h" d="M312 426a23 23 0 00-2 1l4 4c1-1-1-4-2-5zm0 0c2 0 4 8 1 4-2-2-7-3-1-4z"/><path class="k" d="M312 426l-3 1 2 2c2 1 3 4 3 1l-2-4z"/><path class="h" d="M318 438a22 22 0 003-1c-2-1-2 0-5-4a3 3 0 00-1 0l3 5zm0 0c-2 1-6-9-1-4 2 2 8 4 1 4z"/><path class="k" d="M318 438h3l-2-2c-3-2-4-5-4-2 0 0 2 5 3 4z"/><path class="n" d="M295 423l1-4 3-4h2a52 52 0 01-3 6l-2 2a1 1 0 01-1 0zm0 0c2 0 3-2 3-2l3-6a7 7 0 00-1 1l-4 3-1 4z"/><path class="l" d="M295 423l1-4c0-2 3-2 4-4 0 0 2-2 0 1a14 14 0 01-1 3l-1 2a3 3 0 01-1 1l-2 1z"/><path class="e" d="M303 431l4-2c1-1 3 0 0 1l-1 1s-4 3-4 1h1a1 1 0 010-1zm0 0l-1 1c-1 2 5-2 5-2l1-1-5 2z"/><path class="k" d="M303 431l4-2c1-1 3-1 0 1l-1 1-2 1h-1z"/><path class="e" d="M295 458l4-2c2-1 2 0 0 1l-2 1s-4 3-4 1h1a1 1 0 011-1zm0 0l-1 1c-1 2 4-2 4-2l2-1h-1l-4 2z"/><path class="k" d="M295 458l4-2c0-1 2-1 0 1l-2 1-2 1h-1z"/><path class="h" d="M283 448a44 44 0 004 4v-6l-2 1-2 1zm4-2zm-4 2l3-2h1v6l-4-4z"/><path class="i" d="M283 448l2 3 2 1v-6h-1l-3 2z"/><path class="h" d="M330 410l2-2h2a9 9 0 002-2c2-1 3 3 3 4-1 0-3-2-6-1l-3 1zm0 0c1 1 3-1 5-1h3s-1-3-2-2a8 8 0 01-2 1h-2l-2 2zm8-1"/><path class="i" d="M330 410l2-2h2l2-1 2 2h-3a10 10 0 00-4 1h-1z"/><path class="h" d="M331 408l4-2 1-1-2 1c-2-1-2-2-3 1zm0 0a3 3 0 010-2c1-1 0-2 2-1h3c2 1-1 1-1 1l-4 2z"/><path class="i" d="M331 408l4-1c1-1-1-1 1-1 1 0 0-2-1-1s-3-1-4 1v2z"/><path class="e" d="M303 413l2 3v-4l-2 1zm2 3l-2-3 1-1c2-2 1 1 1 1l1 3c-1 0-4-2-3-3z"/><path class="k" d="M303 413c-1 1 1 2 2 3v-3c0-1 1-2-1-1 0 1 1 1-1 1z"/><path class="e" d="M292 423l1 2v-3a2 2 0 000-1l-2 2zm0 0v-1c2-3 1 0 1 0l1 4c-1 0-4-3-2-3z"/><path class="k" d="M292 423l1 2v-3c0-1 1-2-1-1v2z"/><path class="h" d="M310 423c1 0 0 3 3 2 2-1-3-2-3-2zm0 0h3a1 1 0 010 2c-3 1-2-1-3-2z"/><path class="i" d="M310 423c1 1 0 3 3 2v-1l-3-1z"/><path class="e" d="M348 396v-5c0-2 1-1 3-1h2l-1 4-2 1-2 1zm0 0c1 1 1-1 2-1l2-1v-3l-1-1-2 1-1 5z"/><path class="k" d="M348 396l1-5c-1-2 0-1 2-1h1v4c1 1-2 1-2 1l-2 1z"/><path class="e" d="M343 418c3-1 4 3 4-1 0-1 2-3 0-3-1 0 0 2-3 2-2 0-1 2-1 2zm0 0s-1-2 1-2 2-2 3-2c3 0 0 2 0 3 1 4-1 1-4 1z"/><path class="k" d="M343 418c3-1 5 3 4-1 0-1 2-3 0-3-1 0 0 2-3 2-2 0-1 2-1 2z"/><path class="e" d="M357 406l3-2c4-3 6-2 3-1l-3 2c-2 1-2 3-3 1zm0 0h1l4-2 2-2a18 18 0 00-4 2l-3 2z"/><path class="k" d="M357 406l3-2s5-3 4-1a7 7 0 00-2 1l-4 2h-1z"/><path class="h" d="M387 380l2-2h2a9 9 0 002-1c2-1 3 3 2 3h-5-3zm0 0c1 1 3-1 5-1l3 1s-1-4-2-3a8 8 0 01-2 1l-2 1-2 1zm8 0"/><path class="i" d="M387 380l2-2h2l2-1c1-1 2 2 2 2 1 2-2 0-3 0a10 10 0 00-4 2l-1-1z"/><path class="h" d="M396 353l1 2-1 2c-1 0-7 5-6 3l3-7a7 7 0 013 0zm0 0h-1c-3 0-3 3-4 6-2 3 2-1 3-2 2-1 2 0 3-2-2-1-1-1-1-2z"/><path class="i" d="M396 353s-1 1 1 2l-4 4s-5 3-2-1c1-1 2-5 4-5h1z"/><path class="h" d="M400 371c-1-1 4-4 5-5 2-3 1 2-1 3l-4 3v-1zm0 0s0 1 0 0c4-2 5-2 6-6a5 5 0 00-1 1l-5 5z"/><path class="k" d="M400 371l4-5 2-1c-1 4-3 4-6 7v-1z"/><path class="h" d="M383 346l6-5c3-2 1 3-1 4l-5 2v-1zm0 0l1 1c4-2 4-2 6-6a4 4 0 00-1 1l-6 4z"/><path class="k" d="M383 346l5-4 2-1c-1 4-3 4-6 6l-1-1z"/><path class="h" d="M412 343l-5 5c-3 3-2-2 0-3 1-1 4-3 5-2zm0 0h-1c-4 2-4 1-6 5a4 4 0 001 0l6-5z"/><path class="k" d="M412 343l-5 5h-2c1-4 3-3 6-5h1z"/><path class="e" d="M307 449c3-2 10-6 11-9 0-2-4-1-6 0l-3 3c-5 4-3 3-3 6h1zm0 0h-1c0-3-2-2 3-6l3-3c2-2 8-2 6 0l-11 9z"/><path class="l" d="M307 449c6-3 15-11 9-10-4 0-4 1-7 4-5 4-2 3-3 6h1z"/><path class="m" d="M318 439h-2c-4 0-4 1-7 4-5 4-3 3-3 6l5-5c8-2 0-3 5-4a5 5 0 002-1z"/><path class="n" d="M373 373c1-1 2-1 2-3l4-1c1 0 2-1 1 1a37 37 0 01-4 3h-3zm0 0c1 1 3 0 3-1l4-3a6 6 0 00-1 0l-4 1c0 2-1 2-2 3z"/><path class="l" d="M373 373l2-2c0-2 3-1 4-2 0 0 3-1 0 1a10 10 0 01-1 1l-2 2h-1-2z"/><path class="n" d="M372 368l1 3c1 1 1-1 1-1l2-1h-2l-1-1a2 2 0 00-1-1v1zm0 0h1a1 1 0 011 0l1 1c2 1 0 1-1 1l-1 1-1-3z"/><path class="l" d="M372 368l1 3 1-1 2-1-2-1h-1-1z"/><path class="n" d="M366 363l3-2 2-3c1-1 1-2-1-1a43 43 0 00-3 3l-2 2 1 1zm0 0c-1-2 0-3 1-3l4-3a5 5 0 010 1l-2 3c-2 0-2 1-3 2z"/><path class="l" d="M366 363l2-2c2 0 2-2 3-3 0 0 1-3-1-1a11 11 0 00-2 2l-1 1a3 3 0 00-1 1v2z"/><path class="h" d="M374 375a23 23 0 00-3 1l-2 3a6 6 0 003-1l2-3zm0 0l-2 3a6 6 0 01-3 1l2-3a9 9 0 013-1z"/><path class="i" d="M374 375a19 19 0 00-2 0l-1 1a15 15 0 00-2 3h1a4 4 0 003-2l1-2z"/><path class="h" d="M387 376a24 24 0 000 3c2-1 1-2 5-2 0-1-4-2-5-1zm0 0c1-2 9 0 4 1-3 1-7 5-4-1z"/><path class="k" d="M387 376v3l2-1c2-1 5 0 3-2h-5z"/><path class="n" d="M312 407c-5 4-8 5-4 11 1 2 5 7 8 3l7-6 2-3c6-4 6-7 1-12-2-3-4 0-7 2a31 31 0 00-7 5zm0 0l7-6c3-2 5-4 8-1 5 5 4 9-1 13l-3 3c-2 2-5 2-7 5-3 4-7 0-8-3-4-6-1-7 4-11z"/><path class="l" d="M312 407l-5 5c-2 4 6 15 9 9 1-3 6-3 8-7 0-1 11-5 3-14-2-1-3-3-6 0l-9 7z"/><path class="m" d="M312 407a10 10 0 01-1 0c2 6-1 4-2 2a13 13 0 00-2 3 3 3 0 00-1 2c3 4 8 9 9 5 0-3 7-4 5-6-4-5-5-8-4-9a18 18 0 00-4 3zm17-4c0 1-2 1-1 5 0 4-4 5-4 2 0-1-2-8-1-2 1 7-3 3-4 2l-3-7 5-3c3-3 4-1 6 0a14 14 0 012 3z"/><path class="o" d="M307 412l2-3 1 1c1 2 2 2 2 0a5 5 0 001-2c1 1 0 3-1 4s-3-1-3-1a6 6 0 01-2 1zm2-2z"/><path class="n" d="M269 422c-4 4-7 5-4 11 2 2 6 7 8 3 2-3 5-3 7-5l3-3c5-4 6-8 1-13-3-3-5 0-8 2a31 31 0 00-7 5zm0 0l7-5c3-2 5-5 8-2 5 5 5 9-1 13l-3 3c-2 2-5 2-7 5-2 4-6 0-8-3-3-6-1-7 4-11z"/><path class="l" d="M269 422l-5 5c-2 4 6 15 9 9 2-3 6-3 8-7 1-1 11-5 3-14-1-1-2-2-6 0l-9 7z"/><path class="m" d="M269 422a11 11 0 01-1 1c2 5-1 3-2 1a12 12 0 00-2 3 3 3 0 000 2c2 4 8 9 8 5 1-3 7-4 6-6-5-5-5-8-5-9a18 18 0 00-4 3zm18-4c-1 1-3 1-2 6 0 3-3 4-4 1 0-1-1-8-1-2 1 7-3 4-3 2 0-1-3-2-4-7l5-3c4-2 5-1 6 0a14 14 0 013 3z"/><path class="o" d="M265 427l2-3 1 2c1 1 1 1 2-1a5 5 0 000-2c1 1 0 3-1 4s-2 0-3-1a6 6 0 01-1 1zm2-2z"/><path class="n" d="M341 400c-6 5-7 6-11 1-3-2-3-3-1-7 0-2 5-6 6-6 3-1 7 1 10 1 2 0 3 3 2 6l-6 5zm0 0a41 41 0 005-4c3-3 2-7 0-8-4 0-8-2-11-1l-7 7c-2 4-1 5 1 8 5 4 7 4 12-2z"/><path class="l" d="M341 400c-3 3-4 5-8 4-1 0-7-5-6-7 2-6 2-4 7-9 3-2 8 1 12 1l2 2c1 4-4 7-7 9z"/><path class="m" d="M332 404c-2-2-5-5-5-7 2-6 2-4 7-9a3 3 0 012-1c1 1 2 3 4 1a17 17 0 005 1c2 7-3 5-5 8-1 3-4 1-5 5l-3 2zm-1-9c-4 2 1 5 0 2l1-2h-1z"/><path class="o" d="M331 393c0-2 2-5 4-5s1 2 3 2l2-1c-2 1-3 2-4 1s-4 2-5 3z"/><path class="n" d="M420 372c-5 4-7 5-11 1-3-3-3-4-1-8l7-6c2-1 7 1 10 1 1 0 3 3 1 6l-6 6zm0 0a41 41 0 005-5c3-3 2-7 0-7l-10-2c-2 1-7 5-7 7-3 4-2 5 1 8 4 4 6 4 11-1z"/><path class="l" d="M420 372c-3 2-4 4-7 4-1-1-7-6-7-8 3-6 3-4 8-9 2-2 7 1 11 1l2 2c1 4-3 7-7 10z"/><path class="m" d="M411 375c-2-2-5-5-5-7 3-6 3-4 8-9a3 3 0 011-1c2 1 3 3 4 2l1-1a17 17 0 005 1c1 7-4 5-5 8-2 3-4 1-6 5l-3 2zm-1-9c-3 2 1 5 1 2-1-1 0-2 1-2h-2z"/><path class="o" d="M410 364c1-2 2-5 4-5s2 2 3 2l2-1c-1 1-2 2-4 1s-4 2-5 3z"/><path class="n" d="M355 371c-4 4-13 8-8 15 2 3 5 5 8 2 3-4 17-12 18-16 0-1-4-13-11-7l-7 6zm0 0a80 80 0 018-7c6-5 10 5 10 8 0 4-15 12-18 16-4 4-9-2-9-6 0-5 6-8 9-11z"/><path class="l" d="M355 371l-9 8c-2 7 6 13 9 9s19-13 18-16c-1-4-5-12-10-8l-8 7z"/><path class="m" d="M349 382c3-5 10-7 4-2-1 0-4 5-4 3v-1zm6-11l-9 8a8 8 0 002 8 3 3 0 004 0l4-4c5-3 5-6 7-11 1-4 7-6 5-4-3 3-7 6-4 10 1 1 7-5 9-7-1-4-5-11-10-7l-8 7z"/><path class="o" d="M357 381l4-7c0-3 2-6 5-6a5 5 0 001-1l-1 1-4 5c-1 4-1 5-5 8z"/><path class="e" d="M335 371c2-4 4-5 7-8 2-2 10-11 12-10l6 6c3 2 0 4-2 7l-9 9c-5 3-8 7-13 2-2-3-3-3-1-6zm0 0c-2 3-1 3 2 7 5 3 8-1 11-4l9-9c3-2 6-4 3-6-2-1-4-5-6-5-2-1-9 6-10 8-3 3-7 5-9 9z"/><path class="k" d="M335 371l6-7c2-2 11-11 13-11l6 6c1 1 2 2 0 4l-11 11c-3 2-7 8-12 4l-2-3c-1-1-2-2 0-4z"/><path class="g" d="M335 371l6-7c2-2 11-11 13-11l6 6a2 2 0 011 1 39 39 0 01-4 5l-2 1-1 1c-1 1-3 0-3-2l1-2c1-2 0 0 0 0l2-2 1-2 1-1h-1a7 7 0 01-2 3l-4 3-1 4-5 6-6 3-2-1c-1-2-2-3 0-5z"/><path class="p" d="M335 374c-1-2 2-4 4-6l5-8a17 17 0 017-3 3 3 0 011 0l-3 1c-4 2-6 5-9 9l-5 7z"/><path class="e" d="M334 431c1 1 7 5 5 8-4 4-20 18-24 14-1-1-4-4-3-6l20-17a8 8 0 012 1zm0 0a5 5 0 00-2-1c-3 2-19 14-21 17 0 2 3 5 4 6 4 5 20-10 24-14 3-3-3-7-5-8z"/><path class="l" d="M334 431c2 1 7 6 5 8-4 4-20 19-24 14-5-6-6-5 5-14l12-9a6 6 0 012 1z"/><path class="m" d="M334 431l2 1a1 1 0 01-1 1c-3 2 3 4-4 4-3 6-5 5-10 6-2 1 0 8 3 2l4-3c1-1 0 3-2 5-1 1 0 2 1 2-5 4-10 6-12 4-4-4-5-5-1-9 1 1 1 2 3-1a2 2 0 000-1l3-3 12-9a6 6 0 012 1zm4 3c-2 0-3 0-3 2-1 3-3 3-3 3 4 4 4 2 2 5l5-5c1-1 0-3-1-5z"/><path class="o" d="M313 449c0-6 1-3 3-5l2-3a58 58 0 019-6l-9 8-2 2c-2 2-1-1-3 4z"/><path class="h" d="M352 428c-1-3-5-9-9-9-3 1-2 3-5 4s-4 2-2 5c2 8 10 8 15 2zm0 0l-1 2c-5 7-13 7-16-1-1-4 0-4 3-6s2-5 6-4 7 5 8 9z"/><path class="i" d="M352 428c0-4-9-14-12-7-2 4-8 2-3 10 4 7 12 3 15-3z"/><path class="j" d="M347 421c-2-2-5-3-7 0s-7 3-4 8c1-1 1-3 5 2 2 2-2 1-3 1a7 7 0 004 3 4 4 0 002-5c-1-3 5-5 3-9z"/><path class="q" d="M343 431a10 10 0 013-6v-4l1 1c1 3-1 4-2 5l-2 4z"/><path class="h" d="M375 408c-1-2-4-10-8-7l-11 8-5 5c-2 3-4 3-1 7 1 1 3 4 5 4l5-4c3-2 6-4 8-8 0 0 7-3 7-5zm0 0l-7 5c-2 4-5 6-8 8l-5 4-6-5c-2-4-1-4 1-6l6-5 11-8c4-3 7 5 8 7z"/><path class="i" d="M375 408c-1-2-5-10-8-7l-11 8-6 5c-1 2-4 2 0 7 3 4 4 6 8 2 2-2 9-6 10-10l7-5z"/><path class="j" d="M373 404c-2-3-4-5-6-3l-11 8-6 5c-1 2-4 2 0 7l2 2 3-1c1-4 9-8 9-9 0-2 1-2-2-2h-5c-4-1 9-1 10-3 0-5 4-3 6-4z"/><path class="q" d="M361 408h5c0-1 2-5 4-4l-4 4h-5z"/><path class="h" d="M397 380l6 4s8-4 7-6c0-2-4-8-6-7-2 0-12 5-7 9zm0 0c-6-3 3-9 6-10 4-1 7 6 8 8s-5 5-8 6c-2 1-5-4-6-4z"/><path class="i" d="M397 380l4 3s1 2 2 1l8-5-3-6c-1-1-3-3-5-2-7 3-9 7-6 9z"/><path class="j" d="M410 377l-2-3c-1-1-3-4-5-3-6 3-8 6-7 8l4 3c1 2 7-1 6-4 0 0 0-2 2 0l2-1z"/><path class="q" d="M398 377c-1-1 2-3 3-4a8 8 0 014-1l-3 2-4 3z"/><path class="e" d="M399 355c1 1 7 7 5 9l-4 6-6 4c-2 2-3 2-6 1-8 0-7-6-2-10l10-7a12 12 0 002-3zm0 0h-1a15 15 0 01-2 3l-10 7c-6 4-6 10 2 11l6-1 6-5 4-6c2-2-3-7-5-9z"/><path class="k" d="M399 355c1 1 7 7 5 9s-1 3-6 7-3 5-10 5c-6-1-8-5-4-9 3-3 7-4 11-9l3-3z"/><path class="g" d="M399 355l5 7-1-1-4 5c-2 3-6 3-6 6-1 7-10-1-10-2 1-5 3-4 4-5 2-2 5-3 8-7l3-3z"/><path class="p" d="M384 371c0-5 1-3 3-4 1-1 0-2 2-3a47 47 0 018-5l-8 7-2 2c-2 1-1-2-3 3z"/><path class="h" d="M313 387l-4 5c-2 1-6 3-6 6l1 3c0 2 4 5 5 5 6-1 7-5 10-8a69 69 0 019-7c1-1 6-4 5-6l-8-7c-1-1-5 3-6 4a54 54 0 00-6 5zm0 0a41 41 0 016-5c1-2 4-5 7-4l7 7c1 2-4 6-5 7a74 74 0 00-8 6c-4 4-5 7-10 8-2 1-6-3-6-5l-1-3c-1-3 4-5 5-6l5-5z"/><path class="i" d="M313 387l-3 4-3 2c-3 2-6 3-4 7l3 4c3 2 2 2 5 1 4-1 5-4 8-7l9-7a22 22 0 004-4c2-2-1-3-2-4l-2-2c-3-4-3-4-8-1l-7 7z"/><path class="j" d="M308 392a15 15 0 00-1 1c-3 2-6 3-4 7 2 1 4 2 5 1 3-2 6-3 8-6v-4c1-2 2-3 4-3 3-1 5-6 7-9-2-2-3-2-7 1l-4 4c-1 4-1 5-7 8h-1zm23-3a6 6 0 01-2 0c-6 1-7 6-12 10-1 1-7 5-8 3 2-3 4-1 7-5 4-4-1-3 7-9 1-1 3-6 6-7l1 2c1 1 4 2 3 4z"/><path class="q" d="M326 380c-2-2-2-2-4 0l-5 6a17 17 0 01-5 4l4-4 4-5c1-2 5-5 6-1z"/><path class="h" d="M287 444c1-3 1-3 4-5 2-1 6-4 6-6l-2-3c-1-1-3-5-5-5-5 1-6 4-10 8a70 70 0 01-8 7c-2 0-6 4-5 5l7 8c2 1 5-3 7-4a53 53 0 006-5zm0 0a41 41 0 01-6 5c-2 2-5 5-7 4l-8-8c-1-2 4-5 5-6a74 74 0 009-6c4-4 4-7 10-8 2-1 6 3 6 5l1 3c0 2-4 5-6 6-3 2-3 2-4 5z"/><path class="i" d="M287 444l2-4 4-2c2-2 5-3 3-7-1-1 1-1-2-4s-3-3-6-2c-4 2-5 5-8 8l-9 6a22 22 0 00-4 5c-2 1 1 3 2 4l2 2c3 4 4 4 8 0l8-6z"/><path class="j" d="M291 439a14 14 0 002-1c2-2 5-3 3-7-2-1-4-2-5-1-3 2-6 3-7 6v3c-1 1-3 4-5 4-3 1-4 6-7 8 2 3 3 3 7-1l4-3c1-4 2-5 8-8zm-23 3a6 6 0 012-1c7-1 8-5 12-9 1-1 8-5 9-3-2 3-4 1-8 5-3 4 2 3-6 9l-6 7-2-2c-1-1-4-3-2-4l1-2z"/><path class="q" d="M273 451c2 1 3 2 5 0l5-7a17 17 0 014-3l-4 4-4 5c-2 2-4 5-6 1z"/><path class="e" d="M324 415l-7 7c-3 3-3 6-1 10 2 2 5 5 8 2l2-1c4-3 6-3 8-8 1-3 8-7 7-8-4-12-10-6-17-2zm0 0c7-4 13-10 18 2 0 2-7 5-8 8-2 5-3 6-8 8l-2 2c-3 3-6 0-8-3-3-4-3-7 0-10l8-7z"/><path class="k" d="M324 415c-5 7-12 7-9 13 1 4 6 11 10 6 0-1 8-3 9-9 0-2 8-7 7-8-4-12-10-5-16-2a4 4 0 00-1 0z"/><path class="g" d="M324 416l-1 1a28 28 0 012 8 20 20 0 010 4l-1-4a19 19 0 00-2-7c-5 5-10 5-7 10 4 11 12 8 12-3 0-3-3-7 1-5 2 1 5 3 8 3l2-2c-3 1-5-6-8-8-2-1-4 4-6 3zm7 14c-2-3-2-8 3-4a9 9 0 01-3 4zm3-20c6 1 7 7 4 7-5 0-7-4-7-6a11 11 0 013-1z"/><path class="p" d="M315 427c-3-1 2-4 2-5a22 22 0 003-2c0-1 1-3 3-3l-3 3c-1 3-3 4-5 5v2z"/><path class="k" d="M320 436l1-12c1-3 0-3-1-5a6 6 0 012 4v3c1 4 3 2 4 6-1-4-3-2-4-4 0 3 3 2 3 5-1-3-3-3-3-6 0-1 0-4-1-3l-1 12zm0-17z"/><path class="e" d="M397 382l4 5c-1 3-10 9-12 12-3 2-7 9-11 5-3-3-2-2 0-7l3-10c3-2 9-7 13-7a5 5 0 013 2zm0 0l-4-2c-4 0-12 6-13 9l-4 12 3 4c4 2 8-4 10-6 2-3 11-9 12-12 0-2-4-4-4-5z"/><path class="k" d="M397 382c0 1 4 3 4 5l-8 8-6 6c-2 3-7 6-9 3-2-2-3-1-1-6l4-11c4-2 11-10 16-5z"/><path class="g" d="M376 401a14 14 0 011-3l4-11c3-2 9-8 14-7 2 3 3 3-1 9l-8 6-9 6z"/><path class="p" d="M379 395c1-4 7-14 12-14l1 1h-1c-5 1-10 9-12 13z"/><path class="e" d="M379 392l7 2c3-1 8 4 3 1-2-2-4 0-6-1-4-1-3-2 0 3 1 4-2-4-3-4l-1-1zM364 361c-2-3-5-4-6-7-3-4 1-5 4-8 2-2 13-13 14-12l6 5c1 1 4 4 2 6l-11 8c0 1-8 9-9 8zm0 0c1 1 8-7 9-8l11-8c2-2-1-5-2-6l-6-4c-1-1-11 9-13 10-4 5-9 5-4 11l5 5z"/><path class="k" d="M364 361l-6-7c-2-3 0-4 3-7l9-8 6-5 6 5c1 1 4 4 2 6a176 176 0 00-14 11c-1 1-5 6-6 5z"/><path class="g" d="M361 348v-1l9-8 6-5a8 8 0 012 2v2c3 1 3 1 4 4 1 4-2 4-3 3-3-3-3 2-4 5l-10 8c-2 1-3 0-5-2-3-3-1-4-1-5l2-3zm2 3a8 8 0 011-2v-1a1 1 0 01-1 0c-1 0-3 7 0 3zm15-6c-1 1-3 2-1 3 0 0 2-1 1-2v-1z"/><path class="p" d="M366 344c-1-1 8-6 9-7l-1 1c-2 3-5 4-8 6z"/><path class="k" d="M361 358a6 6 0 000-2c0-3 3-4 3-5v1s-2 1-2 3v3h-1z"/><path class="e" d="M297 476c-2-2-5-4-6-7-3-4 1-5 4-8 2-1 13-13 14-12l5 5c2 1 5 4 3 6l-11 9-9 7zm0 0c1 1 8-7 9-8l10-8c2-2 0-4-2-6l-5-4c-1-1-11 9-13 11-4 4-9 4-4 10l5 5z"/><path class="k" d="M297 476c-2-2-4-3-6-7s0-4 3-7l9-8c1-1 5-5 6-4l5 4c2 1 5 4 2 6a176 176 0 00-13 12l-6 4z"/><path class="g" d="M293 463l1-1 9-8c1-1 5-5 6-4a9 9 0 011 1l1 2c3 1 3 1 4 4 1 4-2 4-3 3-3-3-4 2-4 5l-10 8c-2 1-3 0-5-1-3-4-1-5-1-6l2-3zm3 3a8 8 0 011-2v-1a1 1 0 01-1 0c-1 0-3 7 0 3zm14-6c0 1-2 2-1 3a2 2 0 002-2l-1-1z"/><path class="p" d="M299 459c-1-1 8-6 9-7l-1 1c-2 3-5 4-8 6z"/><path class="k" d="M294 473a6 6 0 000-2c0-2 3-4 3-4s-3 1-2 3c0 2 0 4-1 3zM379 392l7 2c3-1 8 4 3 1-2-2-4 0-6-1-4-1-3-2 0 3 1 4-2-4-3-4h-1v-1z"/><path d="M279 656c2-4 9-3 20-2h28c12 0 12 1 23 2l44 1c7 0 14 2 21 0 2 0 5-1 7 1s2 5 2 7c0 15 3 30 1 45-1 9-3 32-1 53 1 10-2 21-1 31 0 2 1 5-1 7-3 3-10 1-15 0-7-2-19-2-42-2-18 0-18 2-30 1-15-2-16-5-26-5-16 1-24 8-29 4-3-3-3-7-2-12l1-43c2-18 0-14 2-39 1-13 2-24 0-32l-2-13v-4z" fill="#ffe161"/><path class="s" d="M350 800a2 2 0 01-2-1l-1-1v-2-4a3 3 0 010-1l-1-6 2 2a7 7 0 00-1-2 2 2 0 002 0 2 2 0 001 0h-4a3 3 0 011-1 24 24 0 000-3v-1l1-3a33 33 0 00-1-3v-1h-1l1-1a2 2 0 011-1l-1-3v-3a3 3 0 011-3 4 4 0 010-1 41 41 0 01-1-6l-1-4-1-6 3 3v-3a3 3 0 01-1-1v-6l1-3v-1-1a2 2 0 010-1v-2-5a1 1 0 01-1-1 2 2 0 011-1v-3l-1-1a1 1 0 011-1v-2l-1-2a1 1 0 011-1 33 33 0 000-4 2 2 0 010-1 10 10 0 00-2-4l3-1-1-1v-6l1-3a25 25 0 01-1-3v-2l-1-2v-3a3 3 0 011-2v-1l-6 3 5-6 1-3h-1v-3a21 21 0 011-4v-1a28 28 0 000-4l-1-6h1a16 16 0 00-1-3l3-1a19 19 0 012 5l-1 3v2a30 30 0 010 3 1 1 0 011 0 1 1 0 010 2 14 14 0 00-1 3l1 1a14 14 0 00-1 3 7 7 0 010 4 14 14 0 011 2v5h-1v2l1 1a15 15 0 001 5l1 3-2-1a8 8 0 000 1h1v1a2 2 0 01-2 2 10 10 0 002 4h-1v4a29 29 0 010 6 14 14 0 000 3h-1a29 29 0 011 5v1l1 4h-1v7a2 2 0 010 1l-1 5v5l1 1v5l-1 3a2 2 0 01-1 0v1a63 63 0 002 6 2 2 0 010 1l1 4-1-1a2 2 0 01-1 1v10l1 4-1 1a5 5 0 010 1 2 2 0 010 2l-1 1 2 3a17 17 0 010 5h-1v6a2 2 0 01-1 2zm0-37l-1 1a2 2 0 001 0 1 1 0 000-1zm-3 1h1a2 2 0 010-1 2 2 0 00-1 1zm4-75a1 1 0 001-1 1 1 0 010 1zm-3-18z"/><path class="s" d="M337 801a21 21 0 010-3 2 2 0 011-2v-4c-1-4-2-6-1-8a12 12 0 010-4v-2a1 1 0 010-1v-3-2a2 2 0 01-1-3 2 2 0 012-1l-1-6-1-1h1a8 8 0 010-3 3 3 0 010-1 7 7 0 010-1 1 1 0 010-1v-4-2a2 2 0 010-1v-7h1a4 4 0 010-2v-3a3 3 0 01-1 0v-1l1-2a2 2 0 011 0v-1c-3-5-2-9-2-11l1-4-1-5-1-3a1 1 0 010-1 7 7 0 011-1c-2-5-1-7 0-8a2 2 0 010-1v-2a17 17 0 000-3 11 11 0 01-1-5 4 4 0 010-1v-1a2 2 0 011 0v-2l-1-3a8 8 0 011-2 2 2 0 011-3l-1-8v-2a2 2 0 011-1l-1-5v-3l3-3v3l2 12-1 6 1 2 4 9-5-5v-1h-1a31 31 0 000 4v2a4 4 0 010 2 11 11 0 001 4v6a6 6 0 010 2v7l-1-2v1a4 4 0 011 2h-1v4l1 3v-1 2a2 2 0 001 1 1 1 0 010 2 2 2 0 01-1 0v5l-1 1a18 18 0 002 5l1 11-1-2a7 7 0 010 2l-1 4v12a4 4 0 010 1 6 6 0 00-1 3 3 3 0 010 1l1 6v2l1 1v1h-1a3 3 0 010 1v2a22 22 0 010 5l1 5 4 7-5-4 2 6h-2l1 5-1 1zm1-60h1a3 3 0 00-1 0zm2 0h-1a2 2 0 001 0zm-3-33v-1a1 1 0 000 1zM329 799a2 2 0 01-1-1l-1 1v-1-1a1 1 0 010-1v-1-3a3 3 0 010-2l-1-6v-1a1 1 0 011-1l-1-2v-2-1a15 15 0 011-5v-1a29 29 0 000-4 1 1 0 010-1v-1-3-1 1l-1-1 2-2a30 30 0 00-1-6 2 2 0 01-1-1v-1-7 1h1v-1-2-1l-1-2h1a16 16 0 00-2-6v-1h2v-1a12 12 0 010-2v-3h1a11 11 0 00-1-4v-1a2 2 0 01-1-1v-2a2 2 0 011-2v-1a2 2 0 010-2v-3a5 5 0 010-3v-1h-1v-3a4 4 0 010-1 6 6 0 001-3 3 3 0 010-2 7 7 0 000-5 5 5 0 010-2 14 14 0 000-2h1v-4-1a35 35 0 00-3-9l-4-9v-1l5 5a2 2 0 010-2 27 27 0 011-8v-9l1 2h1l2 1v4l-1 2v1a24 24 0 000 6 4 4 0 011 2 13 13 0 011 3v9h-1v-1l1 4v1l1 4-2-1a5 5 0 011 2h-1v1a2 2 0 01-1 1 9 9 0 010 6 3 3 0 000 1 8 8 0 010 4 2 2 0 000 1v2l1 2 1 7-1-1v3l-1 1v3a14 14 0 011 7 18 18 0 000 2v1h-1a15 15 0 001 2 2 2 0 011 1h-2v1a18 18 0 010 2v4a43 43 0 010 7v1a3 3 0 010 2 2 2 0 010 1 33 33 0 011 4v10a1 1 0 010 1v1a29 29 0 010 3 3 3 0 010 1l1 1-1 1a4 4 0 01-1 0v12l1 6v1a40 40 0 000 4v2zm-3-131h1a2 2 0 00-1 0zm3-13h1a2 2 0 001-1z"/><path class="s" d="M318 797a3 3 0 01-2-1v-1h1a3 3 0 011-1v-1a15 15 0 01-1-3 21 21 0 01-1-5v-4a2 2 0 011-1 12 12 0 010-6l-1-3v-1a1 1 0 011-1v-3a3 3 0 010-1v-1a21 21 0 01-1-4v-2l-1-4h1l-1-1v-1h2v-3-1a2 2 0 01-1-1l1-3v-1a5 5 0 010-2v-2l1-3v-1l-1-2v1l-1-6a4 4 0 01-1-2v-5-1l2 3h1v-1l-1-2v-5l-1-3v-6a5 5 0 01-1-2v-1-1-2h1a8 8 0 000-3l2-1h-2v-1-1a2 2 0 010-1v-2-1a1 1 0 010-1v-1-3a3 3 0 011-2v-1-1a25 25 0 000-6l-1-2a2 2 0 011-2 8 8 0 010-2 4 4 0 000-2v-3a17 17 0 01-1-5v-1a3 3 0 010-1 16 16 0 01-1-2l-1-4h1l3 2a3 3 0 011 1h1a11 11 0 010 2 4 4 0 010 1v2l1 5h1v1a2 2 0 01-1 1 6 6 0 010 4 3 3 0 000 2v2a27 27 0 010 7v1a5 5 0 010 1l-1 1h1l-1 1v2a30 30 0 010 4v6l-1 4v1l1 2v8a23 23 0 010 5v1a31 31 0 002 5l1 1v1h-3v2a40 40 0 012 8v5h-1a10 10 0 010 2 6 6 0 000 2v2h-1a2 2 0 011 1v1a36 36 0 001 5l1 7-2-3v1l-1 4a14 14 0 001 3v1h-1l1 3a17 17 0 010 4v1h-1a12 12 0 001 6v1a2 2 0 01-1 2 20 20 0 001 6 3 3 0 011 1h-1a40 40 0 001 5l-1 1h-1a2 2 0 01-2 1zm1-6a3 3 0 001 0 2 2 0 001-1zm-1-49a2 2 0 001 0 3 3 0 001 0zm1-59a2 2 0 011 0zM307 795h-2a3 3 0 011-3 16 16 0 010-2 6 6 0 000-3l3-1a2 2 0 00-2-1 2 2 0 00-1 1 4 4 0 000-1h-1v-2-1c0-3 1-5 2-5a16 16 0 01-1-3v-1-2a33 33 0 01-1-6h1a5 5 0 000-1 2 2 0 001 0 2 2 0 002-1h-4a11 11 0 000-3l1-2a16 16 0 00-1-4v-1a2 2 0 010-1 1 1 0 001-2 12 12 0 01-2-2l3-1a22 22 0 00-1-5 2 2 0 01-1-1 7 7 0 010-1 36 36 0 010-3 1 1 0 010-1v-4 1a6 6 0 011-2 2 2 0 000-1 1 1 0 010-1v-1-6a4 4 0 010-3 16 16 0 00-1-5 22 22 0 01-1-3l3-1a10 10 0 01-1-1 21 21 0 000-6h-1v-2-2a5 5 0 011-2 17 17 0 010-2 13 13 0 010-4 3 3 0 011-3 21 21 0 000-4 1 1 0 01-1-1l-2-5 2 1a10 10 0 010-3l1-2-1-2a7 7 0 010-3 4 4 0 010-1 33 33 0 010-6v-1-3a47 47 0 010-5h1a7 7 0 00-1-1l4-1c1 2 0 3-1 4v3l1 1v11l1 2-1 1 1 4h-1v6a11 11 0 011 3l-1 4v2a2 2 0 010 1 18 18 0 000 3 3 3 0 010 1h1v1a2 2 0 01-2 1v3a23 23 0 011 6 5 5 0 000 1l1 1-1 5a32 32 0 010 7 4 4 0 000 1v1l-1 4a4 4 0 011 4 5 5 0 00-1 3 4 4 0 010 4v1a20 20 0 012 5l-1 4a3 3 0 01-1 2 3 3 0 010 2 16 16 0 011 3v5h-1a11 11 0 010 1 4 4 0 011 2 13 13 0 010 2 2 2 0 01-1 1l1 4a1 1 0 010 1v2a9 9 0 001 3l2 6-4-3v2a2 2 0 010 1l1 3a8 8 0 010 4 13 13 0 000 3l2 7zm0-67a3 3 0 00-1 0h2a3 3 0 00-1 0zm1-76zM300 793h-1a3 3 0 010 1c0 2 1 4-1 5a3 3 0 01-2 1 2 2 0 01-1-2h1a9 9 0 00-1-4l-5-10v-1h1l4 6v-1a2 2 0 011-1v-2a14 14 0 00-2-5l2-1v-1h-1a2 2 0 00-1 1 7 7 0 011-3h-1l-4 1 6-4a10 10 0 001-3 36 36 0 00-1-5 3 3 0 010-1 12 12 0 01-1-1v-1h1v-1a3 3 0 010-1 11 11 0 000-3v-2l-1-3 1-5h1l-1-3v-2-1a6 6 0 010-1v-3-2a1 1 0 01-1-1 4 4 0 011-3 2 2 0 010-2v-6l-1-3v-1a2 2 0 010-1h1l-1-3a3 3 0 010-1v-1a2 2 0 011-2v-1-6h1l-1-4v-1l-1-1v-3l1-1h0a1 1 0 00-1 0 3 3 0 011-1 6 6 0 011-4 14 14 0 00-1-3l-3-2v-1h3a40 40 0 000-6 1 1 0 01-1-1v-1h1l-1-6v-1a1 1 0 011-1v-1a5 5 0 011-2 2 2 0 000-2 4 4 0 01-1-2v-3l-1-1h1a2 2 0 001 0 2 2 0 002-1h-3l-1-1a2 2 0 012-1 2 2 0 012 2v2l1 1v3a4 4 0 010 3v5h-1l1 5v5h-1l1 1-1 5a16 16 0 011 3v3a2 2 0 010 1 5 5 0 000 1l-2 1 1 1a1 1 0 000-1 3 3 0 010 1v3a35 35 0 011 4v10a1 1 0 01-1 1v1l3 8h-1l-1-2h-1a1 1 0 010 1v5a50 50 0 002 5v1h-2v1-1a1 1 0 000 1v7a2 2 0 011 1v6a1 1 0 01-1 2 7 7 0 000 2v1a27 27 0 010 2v1l1 2a13 13 0 010 3 3 3 0 010 1 16 16 0 010 2 4 4 0 01-1 1l1 4v3a8 8 0 01-1 2v1a11 11 0 010 3l-1 2a15 15 0 011 5 23 23 0 001 4l4 10-4-5zm-3 4a2 2 0 00-1 1l2-1a3 3 0 00-1 0zm-1-36a2 2 0 002 1 2 2 0 001-1z"/><path class="s" d="M288 792a2 2 0 01-2-1v-3l-1-5v-2a4 4 0 010-1v-1l-1-1h1a3 3 0 011-1 13 13 0 00-2-6l3-1a2 2 0 00-1-1 2 2 0 00-1 1 5 5 0 001-1v-1l-1-3a11 11 0 001-3 13 13 0 010-2v-1-2a3 3 0 010-1l-1-2-1-5v-1h1v-1a2 2 0 000 1 3 3 0 000-1v-3l-1-4a12 12 0 010-1l-2-5 3 2h1l-1-6-1-3-2-3h3a2 2 0 011-1 2 2 0 010-1 4 4 0 010-1l1-3v-1a98 98 0 01-2-5 2 2 0 010-2v-4a13 13 0 010-2 17 17 0 00-1-6l-2-8 3 3a5 5 0 011 0 1 1 0 010-1 24 24 0 00-1-3v-1a3 3 0 01-1-1v-3h2v-1a20 20 0 00-2-7l1-1h1v-2h-1a31 31 0 010-4l1-4v-2a6 6 0 010-3 8 8 0 01-1-4 5 5 0 000-2c0-3 0-5 2-5a3 3 0 013 1v3a1 1 0 01-1 0v1a9 9 0 010 2 6 6 0 001 4l3 6v1l-3-3h-1a12 12 0 010 2v6a77 77 0 001 5 2 2 0 01-1 2 19 19 0 011 3 9 9 0 000 3v1l-1 1v1a19 19 0 010 2l1 4a2 2 0 01-1 1 5 5 0 000 2 3 3 0 010 2 20 20 0 010 4 9 9 0 001 4v1h-1a19 19 0 000 3v1a65 65 0 002 6l2 5v1l-3-2h0v1a5 5 0 01-1 1 4 4 0 010 3 9 9 0 010 3 2 2 0 010 1l1 6v1a1 1 0 01-1 2 3 3 0 01-1 2v2l1 2v3l-1 1 1 5h1v3l-1 3a12 12 0 010 5 11 11 0 001 2v1l-1 1a7 7 0 01-1 1 15 15 0 011 4v4a6 6 0 010 1v2l1 5v3a2 2 0 01-1 2zm-2-12zm2-14a2 2 0 001 0zm-2 0a1 1 0 000 1v-1 1zm1-7h1-1zm1-4h1a2 2 0 00-1 0zm-1-43a3 3 0 001 0zm1-19a2 2 0 00-1 1 2 2 0 001 0 1 1 0 100-1zm-1-40h-1a2 2 0 000 1h1zm2-1zM412 804a21 21 0 010-3 2 2 0 011-2l-1-1 1-3c-2-4-2-6-1-8a12 12 0 010-4v-2a1 1 0 010-1v-3-2a2 2 0 01-1-3 2 2 0 011-1l-1-6v-1h1a8 8 0 010-3 3 3 0 010-1 6 6 0 010-1v-5-2a2 2 0 010-1v-7a4 4 0 011-2v-3a3 3 0 01-1 0v-1l1-2v-1c-2-5-2-9-1-11v-4l-1-5v-3a2 2 0 010-1 7 7 0 010-1v-8a2 2 0 011-1v-2a16 16 0 000-3 11 11 0 01-1-5 4 4 0 010-1v-3-3a8 8 0 010-2 2 2 0 011-3l-1-8v-2a2 2 0 012-1l-1-5h-1a2 2 0 000-1v-2l3-3 1 3c1 5 2 9 1 11v7l1 2 4 9-5-5-1-1a31 31 0 000 4v2a4 4 0 010 2 11 11 0 000 4l1 4v2a6 6 0 010 2v7l-1-2v1a4 4 0 010 2v7-1l1 2a2 2 0 000 1h1a1 1 0 01-1 2v5l-1 1a18 18 0 002 5l1 11-1-2a7 7 0 010 2l-1 4v6l-1 6h1a5 5 0 010 1 6 6 0 00-1 3 2 2 0 010 1l1 6v3l1 1h-1v3a22 22 0 010 5c-1 2-1 3 1 5l4 7-5-4 1 6h-1l1 5-2 1zm1-60zm1 0a2 2 0 001 0zm-3-33h1v-1a3 3 0 00-1 1zM402 800a2 2 0 01-1 0h-1v-1a1 1 0 010-2v-3a3 3 0 010-2l-1-7a1 1 0 011-1l-1-3v-1-1a1 1 0 010-1 15 15 0 011-5v-1a31 31 0 000-4 1 1 0 010-1l1-1v-3h-2l2-2a30 30 0 00-1-7 2 2 0 01-1-1v-1-1l-1-6 2 2v-4l-1-2h1l-2-7 2-1a11 11 0 010-2v-3a2 2 0 011 0 11 11 0 00-1-5 2 2 0 01-1-2 18 18 0 010-2 2 2 0 011-1v-2a2 2 0 010-1v-3a5 5 0 010-3v-2h-1v-2a4 4 0 010-1 6 6 0 001-3v-3a7 7 0 000-4 5 5 0 010-2 11 11 0 000-2l1-1v-4a36 36 0 00-3-10l-5-10 6 6a2 2 0 010-1 2 2 0 011-2 26 26 0 010-7v-10l1 3a3 3 0 011 0l2 1v4l-1 2a25 25 0 000 7 4 4 0 011 1 13 13 0 011 4v10l-1-2 1 3v2l2 4-3-1a5 5 0 011 2h-1a2 2 0 01-1 1 2 2 0 000 1h1a9 9 0 01-1 5v2a8 8 0 010 4 2 2 0 000 1v1a24 24 0 011 3l2 8-2-3 1 4h-2v3a14 14 0 011 8 17 17 0 000 2h-1a15 15 0 001 3 2 2 0 011 0l-2 1a18 18 0 010 3v1a2 2 0 010 1v2a43 43 0 010 7v3a2 2 0 010 1 31 31 0 011 3v11a1 1 0 010 1 30 30 0 010 4 3 3 0 011 1v1h-1a5 5 0 01-1 1v6l1 5-1 1 2 6h-1a42 42 0 000 5h1l-1 2zm-3-130h1v-1a2 2 0 00-1 1zm3-14v1a2 2 0 002-1z"/><path class="s" d="M391 803a3 3 0 01-3-2h2a3 3 0 011-1l-1-1a15 15 0 010-3 21 21 0 01-1-5v-4a2 2 0 011-1 12 12 0 010-6l-1-3v-1a1 1 0 011-1l-1-3a3 3 0 011-2 20 20 0 01-1-4l-1-2-1-4h1v-1l-1-1h3v-4a2 2 0 01-1-1l1-3a5 5 0 010-3v-2l1-4-1-2v1l-1-6a4 4 0 01-1-2l-1-6 3 3a3 3 0 011 0l-1-3-1-4h1l-1-4v-5-1a4 4 0 01-1-2v-1a21 21 0 000-3h1a7 7 0 000-3h2v-1h-2a1 1 0 000 1v-2-1a2 2 0 010-1v-2-1a1 1 0 010-1v-1-3a2 2 0 011-2v-1-1a25 25 0 000-6l-1-2a2 2 0 011-2 7 7 0 010-1 4 4 0 000-3v-2a2 2 0 010-1 16 16 0 01-1-4v-2a3 3 0 010-1 15 15 0 01-1-2l-1-4 4 3a3 3 0 011 1l1-1a9 9 0 010 2 4 4 0 010 1v2l1 5v1a2 2 0 01-1 1h1a6 6 0 010 4 3 3 0 000 3h-1l1 1a27 27 0 010 7v1a4 4 0 010 1l-1 1v4a28 28 0 010 3v5l-1 1v7l1 2v6a22 22 0 010 6 32 32 0 002 5l1 2h-3v1a4 4 0 010 1 40 40 0 011 9h1v5l-1-1a11 11 0 010 2 6 6 0 000 3v1h-1a2 2 0 010 1v1a38 38 0 001 6l2 7-3-4v5a14 14 0 001 4h-1v3a17 17 0 010 4v1a11 11 0 001 6v1h-1v1a2 2 0 01-1 1 20 20 0 002 6 3 3 0 010 1 37 37 0 001 5l-2 1a3 3 0 01-2 1zm1-6a3 3 0 001-1zm-1-49a2 2 0 001 0 3 3 0 001 0zm1-59a2 2 0 011 0zM380 800l-2 1a3 3 0 011-3 15 15 0 010-3 6 6 0 000-3l3-1a2 2 0 00-1 0 2 2 0 00-2 1 4 4 0 000-2l-1 1v-2-1l2-6a15 15 0 01-1-2v-1-3a34 34 0 01-1-6h1a5 5 0 000-1 2 2 0 002 1 2 2 0 001-1h-3a11 11 0 000-3v-3a16 16 0 00-1-4 2 2 0 011-2v-1a12 12 0 01-2-3h3a22 22 0 00-1-5 2 2 0 01-1-1v-1a40 40 0 010-3 1 1 0 010-1v-4h1a6 6 0 010-1 2 2 0 000-1 1 1 0 010-1v-1-5-1a4 4 0 010-3 16 16 0 000-6 20 20 0 01-2-2l3-1a10 10 0 01-1-2 21 21 0 000-5 1 1 0 010-1l-1 1v-3-1a5 5 0 011-3 15 15 0 010-1 14 14 0 010-4v-1a3 3 0 011-2 20 20 0 000-5l-3-6 2 2a10 10 0 010-4l1-1v-2a7 7 0 01-1-3 4 4 0 011-1 34 34 0 010-6v-1l-1-3a47 47 0 010-6h1a6 6 0 000-1h3c1 2 1 3-1 3l1 4v8a4 4 0 000 1v2a1 1 0 000 1l1 2h-1l2 5h-2a41 41 0 000 5 12 12 0 011 4l-1 4v1a2 2 0 010 2 16 16 0 000 3 4 4 0 011 0v1a2 2 0 01-2 2v3a23 23 0 011 6v1l1 1-1 5a32 32 0 010 7v6a4 4 0 010 3 5 5 0 00-1 3 4 4 0 010 5v1a19 19 0 012 5l-1 4a17 17 0 00-1 3 16 16 0 011 4v4l-1 1a11 11 0 010 1 4 4 0 011 2 13 13 0 010 2 2 2 0 01-1 1l1 4a1 1 0 010 1v2a10 10 0 001 3l2 6-4-3v2a2 2 0 010 1l1 3a8 8 0 010 3 12 12 0 000 4l2 7zm0-67a2 2 0 00-1 1l2-1zm1-75h1zM372 791a2 2 0 01-1 1c1 2 2 5 0 6a3 3 0 01-2 0 2 2 0 01-2-2h1a8 8 0 00-1-4l-5-12 6 7a2 2 0 011-2l-1-2a14 14 0 00-1-5l2-1-1-1a2 2 0 00-1 2v-1l1-3-6 2 7-5a10 10 0 001-3 36 36 0 00-1-5 2 2 0 01-1 0 13 13 0 010-2h1a9 9 0 000-1 3 3 0 010-1 12 12 0 000-4l-1-2v-3c-1-2 0-4 1-5v-3-2-1a5 5 0 01-1-1v-3-2a4 4 0 010-3 2 2 0 010-3 2 2 0 011 0l-1-2v-3-4-2-2a3 3 0 010-2 2 2 0 011-2v-2-6-3a1 1 0 01-1-1v-2-3h1a4 4 0 010-1 2 2 0 00-1 1 3 3 0 011-2 5 5 0 010-3 14 14 0 00-1-4l-3-3 4 1a38 38 0 00-1-6 1 1 0 010-2v-1h1l-1-6v-1a1 1 0 011-1 5 5 0 010-3 2 2 0 000-2 4 4 0 010-2l-1-3v-2a2 2 0 002 1 2 2 0 002-1h-4a2 2 0 012-1 2 2 0 012 1v4l1 2a4 4 0 010 4v4h-1l1 5c0 3 1 5-1 5v7a15 15 0 011 2v4a4 4 0 000 2h-2v1a1 1 0 001-1 2 2 0 000 1 2 2 0 010 1v2a32 32 0 011 5v5-1 6a2 2 0 01-1 1l3 10-3-4a2 2 0 010 1v6a50 50 0 002 5l-3 1h1a1 1 0 00-1 0l1 1v8l1 5a1 1 0 010 1l-1 1a6 6 0 00-1 3 25 25 0 011 3v2a13 13 0 010 4 16 16 0 010 2 4 4 0 010 2l1 3v4a9 9 0 01-1 2 10 10 0 01-1 3v3a15 15 0 011 4 23 23 0 001 5l4 11zm-2 5a2 2 0 00-1 0h1zm-1-36a2 2 0 002 0 2 2 0 001 0z"/><path class="s" d="M361 799a2 2 0 01-2-2l-1-3h1l-1-5v-2a4 4 0 01-1-1h1v-1l-1-1h1a3 3 0 011-1 13 13 0 00-2-6l3-1a2 2 0 00-2 0 6 6 0 000-1l1-1c-2-2-1-3-1-3a10 10 0 000-3 14 14 0 010-2h1v-3a3 3 0 010-1l-1-2-1-5v-1h1a3 3 0 010-1 1 1 0 000 1v-1a143 143 0 01-2-8l-2-6 4 4-1-7v-3l-3-3 4 1v-1a2 2 0 011-1 2 2 0 000-1 4 4 0 010-1c0-1-1-3 1-4a69 69 0 01-2-5 2 2 0 010-2v-4a13 13 0 010-2 17 17 0 00-1-6l-3-9 4 5a5 5 0 010-1 1 1 0 011-1 24 24 0 00-1-3 3 3 0 01-1-2l-1-4 3 2a13 13 0 010-2 21 21 0 00-2-7l2-1v-2h-1a29 29 0 010-4l1-3-1-3 1-3a8 8 0 01-1-4 5 5 0 000-2c0-3 0-4 2-5a3 3 0 012 1 1 1 0 011 0v2l-1 1a1 1 0 010 1 9 9 0 010 2 6 6 0 001 4l4 8-5-4a13 13 0 010 3v8l1 2a2 2 0 01-1 2 19 19 0 011 4 9 9 0 000 2v1h-1a7 7 0 000 1 8 8 0 010 1 18 18 0 010 2v4a2 2 0 010 1 5 5 0 000 2 3 3 0 01-1 2 19 19 0 011 4 9 9 0 001 5h-2a17 17 0 001 3v1a66 66 0 002 6l2 6-3-2-1 1a6 6 0 010 1l-1 3a8 8 0 011 3 2 2 0 01-1 1l2 7a1 1 0 01-1 2 3 3 0 01-1 2v5l1 2-1 1 1 5h1v4l-1 3a12 12 0 010 4 11 11 0 001 2v1h-1v1a6 6 0 01-1 1 15 15 0 011 4v4a6 6 0 010 2 1 1 0 01-1 0l1 2 1 4v2a1 1 0 010 1v1a2 2 0 01-2 2zm-2-13a2 2 0 00-1 0h1zm1-14l1 1a2 2 0 000-1zm-2 0a1 1 0 001 1v-1zm2-6l1-1h-1zm0-5h2a3 3 0 00-1 0 3 3 0 00-1 0zm0-43a2 2 0 001 0zm1-18a2 2 0 00-2 0h1a3 3 0 001 0zm-2-41a2 2 0 00-1 1h2zm3-1z"/><path class="t" d="M130 270v-2h7v2h-7z"/><path class="u" d="M154 270l1-3h7v3h-8zM183 270v-3h7v3h-7z"/><path class="t" d="M210 293l2 1v7h-2v-8z"/><path stroke-width="1.3" stroke="#1d150c" fill="#3f2b0f" stroke-miterlimit="10" d="M210 320h3v8h-3v-8z"/><path class="u" d="M210 348h3v7h-3v-7z"/><path class="t" d="M106 354l-2-1v-7h2v8z"/><path class="u" d="M106 329h-3v-7h3v7zM106 301l-3-1v-7h3v8z"/><path stroke-width="1.4" stroke="#1d150c" fill="#3f2b0f" stroke-miterlimit="10" d="M188 374v4h-8v-4h8z"/><path class="u" d="M162 375l-1 3h-7v-3h8zM135 374v3h-7v-3h7z"/><path class="x" d="M108 373v2h8l1-1v-5h-5l-4 4zM117 370v5h9l1-1v-4a14 14 0 00-2-1h-8zM135 370v4l1 1h3l2 1 3-1h1l1-1v-5h-9l-2 1z"/><path class="x" d="M126 370v5h8l2-1-1-5-7-1-2 2zM164 370l-1 2v2l1 1h7v-1h1l-1-3 1-2-7-1-1 2z"/><path class="x" d="M153 370v5h8l2-1v-2l1-3-8-1-3 2z"/><path class="x" d="M145 370v5h3l2 1h2l1-1a10 10 0 000-1v-4l-4-1zM178 370v4h1l1 1h7l2-1v-5l-7-1-4 2zM189 370v4h1l1 1h10l2-1v-2l1-3-11-1-4 2z"/><path class="x" d="M171 370v5h8a11 11 0 00-1-2v-3l-3-1z"/><path class="y" d="M209 374h-2-4v-5l1-1z"/><path class="x" d="M118 365v5h8l1-1v-5l-8-1-1 2zM127 365v5h9l1-1-1-4a14 14 0 00-1-1h-8zM158 365v5h10l1-1h1l-1-3 1-1-9-2-3 2zM145 364v5l1 1h2l2 1h4l1-1 2-1h1v-5l-9-1-4 1z"/><path class="x" d="M136 363v7h9a7 7 0 000-1v-5h-4zM113 369l1 1h4l1-1v-5h-1l-5 5zM177 364v5h1l3 1h4l2-1 1-1v-4h-11z"/><path class="x" d="M187 364v5h11l1-1v-5l-9-1-3 2zM168 364v5l1 1 3-1 1 1h2l1-1 1-1v-5h-7l-2 1z"/><path class="x" d="M204 369h-2-4v-4l-1-1 2-1zM122 359v3l1 2v1h6l1-1 2-1v-5h-8l-2 1z"/><path class="x" d="M131 359v5l1 1h7l1-1 2-1-1-3a14 14 0 00-1-2h-8zM163 359l-1 2v2l1 1h9l1-1-1-2 1-2-8-2-2 2z"/><path class="x" d="M150 360v4h1v1h9l2-1v-2l1-3-10-1-3 2z"/><path class="x" d="M141 359a15 15 0 01-1 2v2l1 1h3l3 1h2l1-1a8 8 0 000-1v-4h-4zM193 359v5h-3a6 6 0 01-1 0 5 5 0 00-1 0h-3a5 5 0 010-1v-4l4-2z"/><path class="x" d="M172 363l1 1 3 1h7l1-1 1-1v-4l-7-1h-5l-1 3v2zM199 363l-1 1-1 1-2-1h-2v-5l1-1 5 4v1zM118 363l1 1h4v-5h-1l-4 4zM124 357v2l1 1h6l1-1 1-1v-4l-5-1-4 4zM133 354v6h8l1-1 1-1-1-3a13 13 0 00-1-2h-8zM151 354v5h1l3 1h5l1-1 1-1v-4h-11z"/><path class="x" d="M142 354v5l1 1 3-1 1 1h2l1-1 2-1-1-5h-7l-2 1zM194 359l-1 1h-4l-1-1v-5l1-1 5 5zM180 354l-1 2v3h9v-1l-1-2 1-2-7-2-1 2z"/><path class="x" d="M169 355v4l1 1h7l2-1v-2l1-3-8-1-3 2z"/><path class="x" d="M161 354v6h8a11 11 0 000-2v-3l-4-2zM143 349v5h1l3 1h4l2-1 1-1v-4h-11z"/><path class="x" d="M153 349v5h11l1-1v-5l-9-1-3 2z"/><path class="x" d="M164 349v3l1 2h7l2-1v-5l-8-1-2 2zM134 349v5l1 1 3-1 1 1h2l1-1 1-1v-5h-7l-2 1z"/><path class="x" d="M173 349v4l1 1h8l2-1-1-4a14 14 0 00-1-1h-8z"/><path class="x" d="M189 353l-1 1h-4l-1-1v-3l-1-2h2zM128 353l1 2h4l1-1 1-1v-5h-2l-5 5z"/><path class="x" d="M134 348l1 1h4l2-1v-5l-2-1-5 6z"/><path class="x" d="M140 344v4l1 1h2l1 1 3-1 1-1v-5h-7l-1 1zM148 344v5h10l2-1v-6h-9l-3 2z"/><path class="x" d="M159 344v5h8l1-2v-4l-7-1-2 2zM168 343v6h8l1-1 1-1v-3a14 14 0 00-2-2h-8z"/><path class="x" d="M183 348h-2l-2 1h-1v-3l-1-2v-1h2z"/><path class="x" d="M178 343l-1 1h-2-2l-1-1v-4l1-2 6 6zM164 338l-1 3v1l1 1 1 1h6v-1h1v-5l-6-2-2 2z"/><path class="x" d="M153 339v4l1 1h8l1-1v-2l1-3-8-1-3 2z"/><path class="x" d="M145 339v4l1 1h7a11 11 0 000-1v-4l-4-1zM139 343v1h6v-5l-1-2-5 6zM166 334v5h-2a6 6 0 01-2 0 5 5 0 00-1 0h-2a5 5 0 01-1-1v-4l5-2z"/><path class="x" d="M149 338l1 1h8v-5l-4-2-4 1-1 2v3zM144 338l1 1h4v-6h-1l-4 5zM172 338v1h-4l-1-1-1-1v-3l2-1 5 4-1 1z"/><path class="x" d="M163 333l-1 1h-8v-5l1-1 8 1zM154 333v1h-5l-1-1 6-6v6zM168 333l-1 1h-4v-6l5 4v1z"/><path class="x" d="M163 328v1h-4l-1-1v-5l3 2 2 3zM154 328v1h4v-6l-4 4v1zM209 272l-1-2v-1l-3 1-2-1h-1l-1 1-2 1v5h6l4-4z"/><path class="x" d="M200 275v-5h-1l-3-1h-4l-1 1-1 1v4a14 14 0 001 1h8zM181 275v-3l1-2h-5l-1-1h-3l-1 1-1 1v5h9l1-1z"/><path class="x" d="M190 275v-6l-3 1h-5l-1 1v5l8 1 1-2zM153 275v-5h-8v5l6 2 2-2zM164 275v-4l-1-1v-1h-7l-1 1h-1l-1 1v5h8l3-1z"/><path class="x" d="M172 275v-2-2l-1-1-2-1h-5a10 10 0 000 2v4l3 1zM138 275v-4l-1-1h-8l-1 1v2l-1 3 8 1 3-2z"/><path class="x" d="M128 275v-4l-1-1h-11l-2 1-1 1v4l11 1 4-2zM146 275v-1-3l-1-1h-7a11 11 0 000 1v4l4 1z"/><path class="y" d="M108 271h2l2-1h1v3l1 2v1l-2 1z"/><path class="x" d="M199 280v-5l-1-1-3 1h-4l-1 1v5l7 1 2-2zM190 280v-5h-9l-1 1v4a15 15 0 001 1h9zM159 280v-5h-11l-1 1 1 3-1 1 9 2 3-2zM172 281v-5l-1-1-1-1h-7l-2 1h-2v6h13z"/><path class="x" d="M181 281v-3-2l-1-1h-8a7 7 0 000 1v5h4zM203 276v-1h-5v5l1 1 4-5zM139 281v-3l1-2-2-1h-7l-1 1h-1v5h10zM129 281v-6h-10l-1 1v6h8l3-1z"/><path class="x" d="M149 280v-2l-1-3h-8l-1 2v4l8 1 2-2zM113 276h2l2-1 1 1v2l1 2v1l-1 1zM194 285v-5h-8l-1 2v4l8 1 1-2zM185 286v-6h-8l-1 1-1 1 1 3a15 15 0 001 2l8-1z"/><path class="x" d="M154 286v-5l-2-1h-7v1h-1v5l8 2 2-2zM167 285v-4l-1-1h-9l-2 1-1 1v4l9 1 4-2z"/><path class="x" d="M176 286a15 15 0 010-2v-3h-4l-2-1h-3v1a8 8 0 000 1v3l4 1zM124 285v-4l1-1 2 1a6 6 0 011-1 5 5 0 001 1h3a5 5 0 010 1v4l-5 2z"/><path class="x" d="M144 282l-1-1-2-1h-8l-1 1v5l6 1 6-1v-4zM118 282v-1l2-1 2 1h1l1 2v3l-2 1-5-5h1zM199 282l-1-2h-1l-1 1-2-1v1l-1 1v4h1l5-4zM193 288l-1-3h-7l-2 1v5l6 1 4-4z"/><path class="x" d="M184 291v-5l-1-1h-7l-1 1-1 1v3a13 13 0 001 2l8-1zM165 291v-3l1-2-2-1h-7l-1 1h-1v5h10z"/><path class="x" d="M174 290v-5h-8l-1 2v4l8 1 1-2zM123 286l1-1h4v1l1 1v3l-1 2-6-5zM137 291v-5h-8v5l6 2 2-2zM148 290v-4l-1-1h-8l-1 1-1 1v4l8 1 3-2z"/><path class="x" d="M156 291v-2-3l-1-1h-7a11 11 0 000 2v3l3 1zM174 296v-5l-2-1h-7l-1 1h-1v5h11z"/><path class="x" d="M163 296l1-3-1-2h-1l-3-1-1 1h-2l-2-1-1 1h-1v6h8l3-1zM152 296v-5l-1-1-3 1h-4l-1 1v5l8 1 1-2zM183 295v-2l-1-3h-7l-2 2v4l8 1 2-2zM143 296v-5h-9l-1 1 1 4a14 14 0 001 1h8z"/><path class="x" d="M128 291h6v5l-1 1zM188 291l-1-1h-4l-1 1v6h1l5-6z"/><path class="x" d="M183 297l-1-1h-5l-1 1v5l2 1 5-6z"/><path class="x" d="M176 301v-3l1-2h-4l-1-1h-2l-1 1-1 1v5h7l1-1z"/><path class="x" d="M169 301v-4l-1-1h-10l-1 1v5l9 1 3-2z"/><path class="x" d="M158 301v-2l-1-3h-7l-2 1v5l8 1 2-2z"/><path class="x" d="M149 301v-4l-1-1h-8l-2 2 1 3a14 14 0 001 2l8-1z"/><path class="x" d="M133 297l1-1 2 1 1-1h1l1 1v3l1 2h-2z"/><path class="x" d="M139 302l1-1h4v1l1 1v3l-1 2-6-6z"/><path class="x" d="M153 306v-4l-2-1h-5l-1 1h-1l1 3-1 2 7 1 2-2zM164 306v-4l-1-1h-8l-1 1-1 1v4l8 1 3-2z"/><path class="x" d="M172 306v-2-2l-1-1h-3l-2-1h-2v1a11 11 0 000 1v4l3 1z"/><path class="x" d="M178 302l-1-1h-5v3l-1 2 2 2 5-6zM150 311v-4l1-1h2a6 6 0 011 0 5 5 0 001 0h3a5 5 0 011 1v4l-5 2zM167 307v-1h-4l-2-1h-1l-1 1v5l4 2 4-1v-5z"/><path class="x" d="M173 307l-1-1h-4l-1 1v5h1l5-5zM144 307l1-1h5v5l-1 1-5-4v-1zM154 312l1-1 1-1h3l2 1h1l1 2v3l-2 1-8-1z"/><path class="x" d="M163 312v-1h4l1 1-5 6v-6zM149 312l1-2 3 1h1v6l-5-4v-1zM154 317v-1h4v2l1 4-4-2-1-3z"/><path class="x" d="M163 317l-1-1h-3l-1 1 1 3v2l4-4v-1zM208 373h3v-8l-2-1h-4l-1 5 4 4zM206 364h5v-8l-1-1-1-1-3 1a14 14 0 00-2 1l1 8zM205 346h5l1-1v-8l-1-1v-1h-5v11z"/><path class="x" d="M206 355h5v-8l-2-1h-4l-1 7 2 2zM205 318h5v-9h-1l-2 1-2-1-2 7 2 2z"/><path class="x" d="M206 328h4l1-1v-7l-1-2h-2l-3-1-1 8 2 3z"/><path class="x" d="M206 336h5v-7-1a11 11 0 00-2 0h-3l-1 4zM205 303h4l1-1v-2l1-2v-3l-1-1-1-2h-5l-1 7 2 4zM205 292h4l1-1v-11l-1-2h-2l-3-1-1 11 2 4z"/><path class="x" d="M205 310l2 1h2l1-1 1-2v-5h-1a10 10 0 00-1 0h-4l-1 3z"/><path class="y" d="M209 272l1 1v4l-1 1h-5v-1z"/><path class="x" d="M201 363h5v-8l-2-1h-4l-1 8 2 1z"/><path class="x" d="M200 355h5l1-1v-7l-1-2-1-1-3 1a14 14 0 00-2 1v8zM200 323h5l1-2v-8l-1-1v-1l-3 1-2-1-2 9 2 3zM199 336h6l1-1v-9l-1-2-1-1h-4l-1 9v4z"/><path class="x" d="M199 345l3 1h2l1-1v-4l1-2v-2l-1-1a7 7 0 00-1 0h-5l1 4zM204 368l1-1 1-1-1-1 1-1-1-1h-5v1l4 4zM200 304h4l1-1v-3l1-2-1-2v-2l-1-1h-5v9l1 2z"/><path class="x" d="M200 294h4l1-1v-10l-1-1h-6v9l2 3zM200 313h5v-8l-1-1h-5l-1 7 2 2z"/><path class="x" d="M204 277l1 1v4l-1 1h-3l-2 1v-2zM195 359h3l2-1v-7l-1-2h-5l-1 8 2 2z"/><path class="x" d="M195 350h4l1-1v-8l-1-2-4 1a14 14 0 00-1 1v8zM195 318l2 1h2l1-1v-8l-1-1v-1l-3 1-1-1-2 8 2 2z"/><path class="x" d="M195 332h4l1-1v-10l-1-2h-2l-3-1-1 10 2 4z"/><path class="x" d="M195 341a13 13 0 011 0h3l1-1v-8-1a8 8 0 00-2 0h-3l-1 4zM195 288h4l1 1v2a6 6 0 010 1 5 5 0 000 1v2l-1 1a7 7 0 010 1h-4l-2-5z"/><path class="x" d="M199 309l1-1v-11l-1-1h-4l-2 7 1 5 2 1h3zM199 282l1 1v3l-1 2h-4l-1-1 4-5h1zM199 363l1-1v-4h-6v1l5 4zM193 357h2v-8l-1-1h-5v5l4 4zM190 348h5v-9l-1-1-4 1a15 15 0 00-1 1v8zM190 330h4l1-1v-3l1-2-1-2v-2l-1-1h-5v9l1 2z"/><path class="x" d="M190 339h5v-8l-1-1h-5l-1 7 2 2zM194 287l1 1v5h-2l-2 1-1-1h-2l6-6z"/><path class="x" d="M190 302h5v-8h-1v-1l-3 1-2-1-1 7 2 2zM190 313h4l1-1v-8l-1-2h-5l-1 7 2 4z"/><path class="x" d="M190 320h5v-3l1-2v-2l-1-1a11 11 0 00-1 1h-4l-1 3zM185 338h4l1-1v-3l1-1-1-3v-1l-1-1-5-1v9l1 2z"/><path class="x" d="M185 328h4l1-1v-10l-1-1h-6v9l2 3z"/><path class="x" d="M185 317h2l3-1v-7l-2-2h-4l-1 8 2 2zM185 347h5v-8l-1-1h-5l-1 7 2 2z"/><path class="x" d="M184 308h5l1-1v-7l-1-1-1-1h-3a14 14 0 00-2 1v8z"/><path class="x" d="M189 293v2l1 1v1l-1 1h-4l-1 1-1-2zM189 353l1-1v-5h-6l-1 1 6 5zM184 347l1-1v-4l-1-1h-5l-1 1 6 5zM179 341h5l1-1v-6h-1l-1-1h-4v8zM179 333h5v-1l1-3-1-1v-2l1-3h-1v-2h-6v9l1 3z"/><path class="x" d="M179 322h5l1-1-1-3v-4l-1-1h-5l-1 7 2 2zM179 313h5v-9l-1-1-4 1a14 14 0 00-1 1v8z"/><path class="x" d="M184 298v5h-2l-2 1h-2v-1z"/><path class="x" d="M178 303l1 1v5h-5l-2-1 6-5zM174 317l2 1h2l1-1v-7l-1-1h-4l-2 7 2 1z"/><path class="x" d="M174 328h5l1-1v-6l-1-1v-2h-3l-3-1v8l1 3z"/><path class="x" d="M174 336h5l1-2v-5-1a11 11 0 00-2 0h-4l-1 4zM178 342h1l1-2v-4h-6l-2 1 6 5zM170 315h5l-1 3a6 6 0 011 1 5 5 0 00-1 1v2a6 6 0 01-1 1h-4l-2-5z"/><path class="x" d="M173 332l1-1 1-2v-5l-1-1h-5l-1 5 1 3 2 1h2zM173 337l1-1v-4h-5l-1 1 5 4zM173 309h1l1 2-1 2v1l-2 1h-3l-1-2 4-5 1 1z"/><path class="x" d="M168 318l2 1v7l-1 1h-4l-2-1 1-8zM168 327l1 1v1l1 3-2 1-5-6h5zM169 313l1 1v3l-1 1h-6l5-5h1z"/><path class="x" d="M163 318h2v4l-1 1h-5l2-3 2-2zM164 328l1-1v-4h-7l5 5h1zM108 272h-3v8l2 1h4l1-5-4-4zM111 281h-6v8l1 1 1 1 3-1a15 15 0 002-1l-1-8zM111 299h-5l-1 1v7l1 2v1h5v-11z"/><path class="x" d="M110 290h-5v8l2 1h4l1-7-2-2zM111 327h-5v9l3-1 2 1 2-7-2-2zM110 317h-5v8l1 2h5l1-7-2-3z"/><path class="x" d="M111 309h-2-4v8a11 11 0 002 0h3l1-4zM111 342h-4l-1 1v2l-1 2v3l1 1 1 2h5l1-8-2-3zM111 353h-4l-1 1v11l1 2h2l3 1 1-11-2-4z"/><path class="x" d="M111 335l-2-1h-2l-1 1-1 2v5h1a11 11 0 001 0h4l1-3z"/><path class="y" d="M107 373l-1-1v-1-3l1-1h5v1z"/><path class="x" d="M115 282h-5v8l2 1h4l1-8-2-1z"/><path class="x" d="M116 291l-2-1h-3l-1 1v8l1 1 1 1 3-1a14 14 0 002-1v-8zM116 322h-5v12l3-1 2 1 2-9-2-3zM117 309h-6l-1 1v9l1 2 1 1h4l1-9v-4z"/><path class="x" d="M117 300l-3-1h-2l-1 1v4l-1 2v2l1 1a8 8 0 001 0h5l-1-4zM112 277l-1 1-1 1 1 1-1 1 1 1h5v-1l-4-4zM116 341h-4l-1 1v3l-1 1 1 3v2l1 1h5v-9l-1-2z"/><path class="x" d="M116 351h-4l-1 1v10l1 1h5l1-9-2-3zM116 332h-5v8l1 1h5l1-7-2-2z"/><path class="x" d="M112 368l-1-1v-2-2l1-1h3l2-1v2zM121 286h-3l-2 1v7l1 2h5l1-8-2-2z"/><path class="x" d="M121 295h-4l-1 1v8l1 2 4-1a15 15 0 001-1v-8zM121 327l-2-1h-2l-1 1v8l1 1v1l3-1 1 1 2-8-2-2z"/><path class="x" d="M121 314h-5v10l1 2h2l3 1 1-10-2-3z"/><path class="x" d="M121 304a13 13 0 01-1 0h-3l-1 1v9a7 7 0 002 0h3l1-4zM121 357h-4l-1-1v-2a5 5 0 010-1 5 5 0 000-2v-2a5 5 0 011-1h4l2 5zM117 336l-1 1v11h5l2-6-1-5-2-1h-3zM117 363l-1-1v-3l1-2h4l1 1-4 5h-1zM117 282l-1 1v4h6v-1l-5-4zM123 288h-2v8l1 1h5v-5l-4-4z"/><path class="x" d="M126 297h-5v9l1 1 4-1a14 14 0 001-1v-8zM126 315h-4l-1 1v3l-1 2 1 2v2l1 1h5v-9l-1-2z"/><path class="x" d="M126 306h-5v8l1 1h5l1-7-2-2zM122 358l-1-1v-3-2h2l2-1 1 1h2l-6 6z"/><path class="x" d="M126 343h-5v8h1v1l3-1 2 1 1-7-2-2zM126 333h-5v8l1 2h5l1-7-2-3zM126 325h-2-3v3l-1 2v2l1 1a11 11 0 001-1h4l1-3zM131 307h-4l-1 1v3l-1 1 1 3v1l1 1 5 1v-10l-1-1z"/><path class="x" d="M131 317h-5v11l1 1h6v-9l-2-3z"/><path class="x" d="M131 328h-5v8l2 2h4l1-8-2-2zM131 298h-5v8l1 1h5l1-7-2-2z"/><path class="x" d="M132 337h-5l-1 1v7l1 1 1 1h3a13 13 0 002-1l-1-9z"/><path class="x" d="M127 353v-1-2l-1-1v-1l1-1h4l1-1 1 2zM127 292l-1 1v5h6l1-1-6-5zM132 298l-1 1v4l1 1h5l1-1-6-5zM137 304h-5l-1 1v5l1 1v1h5v-8zM137 312h-5v1l-1 3 1 1v2l-1 3h1v1h6v-8l-1-3zM137 323h-5l-1 1 1 3v4l1 1h5l1-8-2-1zM137 332h-5v9l1 1 4-1a15 15 0 001-1v-8z"/><path class="x" d="M133 347l-1-1v-1-3h2l2-1h2v1z"/><path class="x" d="M138 342l-1-1v-2-3h5l2 1-6 5zM142 328l-2-1h-2l-1 1v7l1 1h4l2-7-2-1z"/><path class="x" d="M142 317h-5l-1 1v6l1 1v2h3l3 1v-8l-1-3z"/><path class="x" d="M142 309h-2-3l-1 2v6a11 11 0 002 0h4l1-4zM138 303h-1l-1 2v4h6l2-1-6-5zM146 330h-4l-1-1 1-2a5 5 0 01-1-1 5 5 0 001-1v-3a7 7 0 011 0h4l2 5z"/><path class="x" d="M143 313l-1 1-1 2v5l1 1h5l1-5-1-3-2-1h-2zM143 308l-1 1v4h5v-1l-4-4zM143 336h-1l-1-2 1-2v-1l2-1h3l1 2-5 5v-1z"/><path class="x" d="M148 327l-2-1v-7l1-1h4l2 1-1 8zM148 318l-1-1v-1l-1-3 1-1 6 6h-5zM147 332l-1-1v-3l1-1h6l-5 5h-1z"/><path class="x" d="M153 327h-2v-4l1-1h5l-2 3-2 2zM152 317l-1 1v4h6l-4-5h-1z"/><path style="isolation:isolate" opacity=".1" fill="url(#a)" d="M106 272h104v103H106z"/><path class="aa" d="M108 374l6-6 5-5 8-7 9-9 9-10 10-10 4-3-2-1-3 2-10 11-10 9-9 10-7 6-6 6-6 6v2zM107 272l5 6 6 6 7 7 9 9 9 9 11 11 3 3 1-2-3-3-10-10-10-9-9-9-7-8-5-6-6-6h-2zM209 271l-6 5-6 6-7 7-9 9-10 9-10 11-3 3 1 1 3-3 11-10 9-9 9-10 7-6 6-6 6-6v-2zM210 373l-5-6-6-6-7-7-9-9-9-9-11-10-3-4-1 2 3 3 10 10 9 10 10 9 6 7 6 6 6 6h2z"/><path class="aa" d="M160 325h-4v-5h4l1 2a6 6 0 01-1 3z"/><path class="ab" d="M591 223c0 4 2 8 7 9-1 4-2 8-1 11s4 7 7 6c-2 7 2 15 9 16 0 3 1 7 3 9s6 4 9 1a10 10 0 0012 8c1 2 2 5 4 6s5 2 7 0a7 7 0 007 6 21 21 0 013 0c5 0 7 4 12 4 4 1 5-3 10-5 3-1 7 1 10 2s9-2 7-5c4 2 8 4 12 3s7-4 7-7c3 3 10-1 9-5a9 9 0 0015-10 7 7 0 107-12 7 7 0 008-13c2 0 5-1 6-3s1-6-2-7c8-1 12-11 7-18a8 8 0 104-15 9 9 0 00-4-17c2-5-2-11-7-10a7 7 0 00-6-12c4-5-1-15-7-14 1-3-1-7-4-8l-9-1-4-10c-2-3-7-2-9 1-2-8-12-11-18-7-3-6-13-6-15 0-7-7-19-6-24 2-5-6-15-3-17 4-6-4-17 0-18 8-5-3-13 1-14 8a13 13 0 00-8 15c-2 2-4 7-4 11a4 4 0 01-2 3c-3 1-6 4-6 10-1 4 2 9 2 9s-9 6-2 15l-3 12z"/><path class="ac" d="M753 156c-1-3-4-5-7-5 1-3-1-7-4-8l-10-1c0-4-1-7-3-10s-8-3-9 0c-2-7-12-10-18-6-3-6-13-6-15 0-7-7-19-6-24 2-5-6-15-3-17 4-6-4-16 0-18 8-5-3-13 1-14 7a13 13 0 00-7 16c-3 2-5 7-5 11a4 4 0 01-2 3c-3 1-6 4-6 10l2 9s-9 5-2 15c-2 3-3 7-3 12s2 8 7 9c-1 4-2 7-1 11s4 7 7 6c-2 7 2 14 9 16 0 3 1 7 3 9s6 3 9 1a10 10 0 0012 8c1 2 2 5 4 6s5 2 7 0a7 7 0 007 6 21 21 0 013 0c5 0 7 4 12 4 4 1 5-3 10-5 3-1 7 1 10 2s9-2 7-5c4 2 8 4 12 3a22 22 0 001-4 4 4 0 000-2l-4-2-6-6c-4-2-8-1-12-1s-10-3-8-7c1-5 9-3 13-6a4 4 0 00-4-4c1-3 4-4 7-5s6-4 4-7c-2-2-7 0-9-2s0-6 3-7h8c2 0 6-3 6-6-2-4-10-4-10-8l1-6c-1-2-4-2-6-1l-6 4a7 7 0 01-5-12l7-1c2 0 5-4 4-6l-6-3a26 26 0 0114-11c-3-2-3-6 0-9s6-2 9-3c8-1 22-1 28-6-7-9 6-14 13-17z"/><path class="ad" d="M634 253c-3-1-4-4-6-6l-9-15c-1-2-1-7 1-7-1-3-2-8 1-8a15 15 0 01-10-11c-1-3-1-7 1-9l3-3a8 8 0 002-7l4-3-1-4a4 4 0 00-1-6c2-1 2-3 2-4 3-7 12-10 18-7 3-3-2-10 2-13 2-2 6 0 10 0s7-3 11-4c5-1 10 0 15 2 4 1 8 4 11 8s2 10-2 13c-2 2-6 2-9 2l-15 1a10 10 0 00-5 1 6 6 0 00-2 8 8 8 0 007 4c-1 4-4 6-8 6l-9 3c-3 2-5 5-4 8a8 8 0 017 1 22 22 0 00-7 12 103 103 0 0021 12l-6 4-4 4c-1 2 3 4 4 3l-1 8c-1 2-3 4-6 5-4 4-10 6-15 2z"/><path class="ad" d="M731 153l-2-1-4-4-6-2-3-3 1-4a3 3 0 00-2-2 14 14 0 00-10 1h-5v-3c-1-2-3-4-5-4a18 18 0 00-7 0c-4 1-10 0-11 5a1 1 0 001 2h1a5 5 0 012 1c3 1 6 3 6 6a7 7 0 000 2c1 1 3 2 4 1h4c3 1 3 5 1 7s-3 5-3 8a25 25 0 006 2l-3 4c-1 1-2 3-1 4 1 3 4 2 6 0s4-4 6-4a10 10 0 014 1 14 14 0 007 2 4 4 0 003-1c2-3-1-8 2-9h4a5 5 0 004-9zM661 216c-2 1-3 4-1 5a7 7 0 002 1c3 1 5 4 7 7v4l-3 1a5 5 0 00-2 7 25 25 0 012 3c1 2 0 4-1 6l-3 7a11 11 0 01-2 4l-6 2c-4 1-9 2-13 0a26 26 0 00-5-1l-5 2c0 2 2 4 4 5h7a4 4 0 012 1l1 6a7 7 0 0013 4 22 22 0 005 6c2 2 5 3 7 2s4-4 3-7l-4-3a7 7 0 013-12c2 0 4 0 5-2a4 4 0 000-2 17 17 0 00-2-7c3-2 7-3 8-7s0-8-4-9h-4v-4c0-2 2-2 2-3 1-4-4-5-6-9l-1-5c-1-4-6-4-9-2zM601 222a3 3 0 000 1l2 1c2 1 4 3 4 5v6a16 16 0 001 8c1 3 3 5 5 5l2 5a7 7 0 002 4 3 3 0 004-1c1-1 0-3-1-5l-3-4v-6l-3-7c-1-2-2-6 0-8a4 4 0 001-1 3 3 0 00-1-2c-2-6-11-10-13-1zM618 152a6 6 0 003 1c1 1 0 2-1 3l-3 1a6 6 0 00-2 3l-2 6a4 4 0 000 3h4a7 7 0 001-4 8 8 0 012-5c2-3 9 0 11-4l1-5c0-2 2-4 3-4 3 1 6-1 8-2l2-4a3 3 0 00-1-2c-2-1-6 0-8 1s-5 4-7 4c-5 1-10 2-11 8z"/><path class="ac" d="M1068 650c1-6 4-12 10-15s13-2 17 2c4-5 10-9 16-10s14 2 17 8c9 2 16 14 12 23a38 38 0 00-2 4v4l-5 10c-6 7-14 12-23 15s-19 4-28 0c-7-3-13-10-13-18v-8c0-5-2-10-1-15z"/><path class="ad" d="M1076 680l-2-15c1-6 5-12 10-15s14-2 18 2c4-5 10-9 16-10s14 2 16 8a15 15 0 017 4c1-9-5-18-13-20-3-6-10-9-17-8s-12 5-16 10c-4-4-12-5-17-2s-9 9-10 15 1 10 1 15v8a21 21 0 007 14 35 35 0 000-6z"/><path class="ac" d="M1165 779c8-1 15-9 14-17a14 14 0 007-25c4-2 5-8 3-12s-6-7-10-9a37 37 0 00-37 3 17 17 0 01-3 3 41 41 0 01-5 1c-6 2-10 9-10 15s3 13 5 19c4 7 10 7 16 11 7 5 11 12 20 11z"/><path class="ab" d="M1186 737c4-2 5-8 3-12s-6-7-10-9a36 36 0 00-12-3 17 17 0 018 7c2 5 1 10-3 12a14 14 0 01-7 25c1 8-5 15-13 17 4 3 7 5 13 4 8 0 15-8 14-16a14 14 0 007-25z"/><path class="ac" d="M1013 732a16 16 0 002 17 27 27 0 00-9 19c0 6 2 12 7 15s11 1 17 0c-2 3-1 7 1 11a18 18 0 0010 6 23 23 0 0016-1c5-3 9-8 9-13 5 2 11 1 15-2s7-8 9-13c2-7 2-13 0-20s-7-11-13-13c1-4 2-8 0-11-1-3-5-5-8-6-7-3-14-6-22-6s-12 4-18 8c-6 3-12 1-16 9z"/><path class="ab" d="M1077 729h1a10 10 0 000-2l-1 2zM1090 762c-2 5-5 10-9 13s-10 4-15 2c0 6-4 10-9 13a23 23 0 01-16 1 18 18 0 01-10-6c-2-3-3-8-1-11-6 2-12 3-17 0-4-2-6-5-7-10a25 25 0 000 4c0 6 2 12 7 15s11 1 17 0c-2 3-1 7 1 11a18 18 0 0010 6 23 23 0 0016-1c5-3 9-8 9-13 5 2 11 1 15-2s7-8 9-13a33 33 0 001-16 38 38 0 01-1 7zM1015 740a15 15 0 01-3-5 16 16 0 000 8 26 26 0 013-3z"/><path class="ac" d="M1020 659c-2 2-4 3-4 5s1 5 3 5a25 25 0 00-15 19 37 37 0 001 13c1 4 3 10 8 9a10 10 0 013 0c2 1 2 3 3 5a18 18 0 0031 7 5 5 0 012-2l4 2a23 23 0 0035-13 23 23 0 00-4-40c3-3 4-8 2-12s-5-6-8-8a25 25 0 00-14-2 20 20 0 01-5 0 19 19 0 01-4-1 24 24 0 00-21 4l-7 4c-4 1-7 2-10 5z"/><path class="ab" d="M1101 688a24 24 0 00-8-16 23 23 0 011 5 24 24 0 01-10 21 23 23 0 01-35 13c-2-1-3-2-5-1a5 5 0 00-2 2 18 18 0 01-18 6 17 17 0 01-5-2 18 18 0 0031 7 5 5 0 012-2c1-1 3 0 4 1a23 23 0 0035-13 23 23 0 0010-21z"/><path class="ad" d="M1025 679c-6 0-10 7-9 12s7 10 13 10c2 0 4-1 5-3a8 8 0 001-4 38 38 0 000-8 9 9 0 009-6c1-3 1-7 4-7h5c2 0 4-2 5-4s2-5 1-7c-1-3-5-3-8-3h-14c-7 0-7 3-9 8-2 4-6 7-3 12z"/><path class="ac" d="M1100 723l-6 2c-2 1-2 4 0 6a25 25 0 00-24 5 37 37 0 00-7 10c-2 4-4 10 0 12a10 10 0 012 2c1 2 0 4-1 6a18 18 0 0019 25 5 5 0 013 0l3 4a23 23 0 0035 12 23 23 0 0023-33c4-1 7-4 8-8s1-8-1-12a25 25 0 00-10-10 20 20 0 01-3-3 21 21 0 01-3-3 24 24 0 00-18-11l-8-1c-4-2-7-3-12-3z"/><path class="ab" d="M1145 797a24 24 0 004-18 22 22 0 01-3 5 24 24 0 01-21 10 23 23 0 01-35-12c-1-2-1-4-3-4a5 5 0 00-3 0 18 18 0 01-17-6 17 17 0 01-3-6 18 18 0 0019 25 5 5 0 013 0l3 4a23 23 0 0035 12 24 24 0 0021-10z"/><path class="ad" d="M1094 749c-5-4-12-2-15 4s-1 12 4 15c2 2 4 2 6 2a8 8 0 003-3 37 37 0 005-6 9 9 0 0011 1c2-1 5-4 8-3l3 3h7l5-4c1-3-2-6-5-8l-10-9c-6-4-7-2-12 0-4 3-9 2-10 8z"/><path class="ac" d="M1127 653l-6 2c-2 1-2 4 0 6a25 25 0 00-24 5 37 37 0 00-7 10c-2 4-4 10 0 12a10 10 0 012 2c1 2 0 4-1 6a18 18 0 0020 25 5 5 0 012 0l3 4a23 23 0 0029 15 24 24 0 006-3 23 23 0 0023-34c4 0 7-3 8-7s1-8-1-12a25 25 0 00-9-10 13 13 0 01-7-7 24 24 0 00-18-10l-8-1c-4-2-7-4-12-3z"/><path class="ab" d="M1172 727a24 24 0 004-18 22 22 0 01-3 5 24 24 0 01-21 10 23 23 0 01-35-13c-1-1-1-3-3-3a5 5 0 00-3 0 18 18 0 01-17-7 17 17 0 01-3-5 18 18 0 0019 25 5 5 0 013 0l3 4a23 23 0 0029 15 24 24 0 006-3 24 24 0 0021-10z"/><path class="ad" d="M1119 672c-5-4-12-2-15 4s-1 12 4 15a7 7 0 006 2 8 8 0 003-3 37 37 0 005-6 9 9 0 0011 1c2-2 5-5 8-4l4 4h6c2-1 4-2 5-5s-2-5-4-7l-11-9c-6-5-7-2-12 0-4 2-9 2-10 8z"/><path class="ac" d="M1046 706a18 18 0 00-6 6c-3 5-2 12 0 18-7 2-9 12-4 18s13 8 20 6a24 24 0 0035 0 25 25 0 003-4c0-1 1-3 3-3a9 9 0 013 0 13 13 0 0011-6 21 21 0 003-11 26 26 0 011-6l2-4a17 17 0 00-2-17 21 21 0 00-15-7 19 19 0 00-16-11c-9 0-13 5-18 11-5 5-14 6-20 10z"/><path class="ad" d="M1051 739c-2-5-4-12-1-17a19 19 0 017-6c6-4 15-5 19-10 6-6 9-12 19-11a19 19 0 0116 10 22 22 0 017 2 18 18 0 00-3-6 21 21 0 00-15-8 19 19 0 00-16-10c-9-1-13 5-18 11-5 5-14 6-20 10a19 19 0 00-6 6c-3 5-2 12 0 18-7 2-9 13-4 19a16 16 0 008 5c-1-5 2-11 7-13z"/><path class="ab" d="M1115 704a17 17 0 00-2-3 15 15 0 01-2 7l-1 4a26 26 0 00-1 6 21 21 0 01-4 12 13 13 0 01-10 5 9 9 0 00-4 0l-3 3a24 24 0 01-37 4c-6 2-13 1-18-2a13 13 0 003 9c4 6 13 7 20 5a24 24 0 0038-4l3-3a9 9 0 013 0 13 13 0 0011-6 21 21 0 003-11 26 26 0 011-6l2-4a17 17 0 00-2-16z"/><path class="ac" d="M1093 697c-5 2-10 6-12 12s-1 12 5 15c-1 4-1 8 1 11 3 3 6 4 9 4 6 0 12-1 14-5a15 15 0 0024-7 33 33 0 012-5l2-3a10 10 0 00-9-15 12 12 0 00-6-10c-4-2-8 0-12 0l-18 3z"/><path class="ab" d="M1138 709a10 10 0 00-5-4 10 10 0 01-1 2l-2 3a33 33 0 00-1 5 15 15 0 01-25 7c-2 5-8 6-13 5a20 20 0 01-6-1c0 3 0 7 2 9s6 4 9 4c6 0 12-1 14-5a15 15 0 0021-1 15 15 0 003-6 33 33 0 012-5l2-3a10 10 0 000-10z"/><path class="ae" d="M1284 535a57 57 0 00-6-2c-8-3-23-12-31-12-2 0-10 2-15 15-3 6-3 15-2 22 1 13 13 61 15 67 3 7 6 16 12 22l7-1-1-2c-5-12-13-49 5-54a52 52 0 018-4c7-2 13-4 19-8h1l1-1h1c-1-5-3-10-6-14-5-6-13-5-20-5-5-1-9 1-11 3s-3 0-2-2c1-3 3-2 6-5 1-2 2-5 4-6 2-2 5 0 9-2 6-3 15 5 20 8a37 37 0 014 2 118 118 0 00-18-21z"/><path class="af" d="M1298 577h-1zM1297 578h-2z"/><path d="M1218 517c-10 5-19 12-27 18-8 7-18 12-25 20l-2 2c13-7 20-6 34-12l15-9c-6 19-2 52 5 68 1-5 3-10 1-25-2-9-4-24-2-29 2-10 11-20 17-28 8-10 16-4 20-2a148 148 0 0021 8l-5-4c-16-11-35-17-52-7z" fill="#bab2a8"/><path class="ah" d="M1254 520c-4-2-12-8-20 2-6 8-15 18-17 28-2 5 0 20 2 29 2 15 0 20-1 25-7-16-11-49-5-68l-15 9c-14 6-21 5-34 12-6 7-7 15-7 24 0 14-1 42 4 49a21 21 0 002 3c-1-5 1-10 5-16 5-11 11-22 22-30l7-12c-1 10-8 21-13 30l-9 15c-3 6-4 11-3 18a61 61 0 006 2c0-7 5-13 11-16 4-3 9-4 14-6l9-2c10 0 12 5 18 12 2 2 6-2 8-6l5-4c-4-16-12-49-13-60-1-7-1-16 2-22 5-13 13-15 15-15 8 0 23 9 31 12a57 57 0 016 2l-9-7a148 148 0 01-21-8z"/><path class="af" d="M1199 556c-5 2-11 2-15 6-3 2-3 5-4 9-2 4-6 6-9 10-5 7-6 17-7 26-1 5-4 15 3 18a1 1 0 001 0 1 1 0 000-1c4-10 10-20 17-28 4-6 11-14 12-21 1-1 2-12 7-18 1-3-3-2-5-1z"/><path class="ae" d="M1197 575l-7 12c-11 8-17 19-22 30-4 6-6 11-5 16a30 30 0 009 5c-1-7 0-12 3-18l9-15c5-9 12-20 13-30z"/><path class="af" d="M1243 618l-5 4c-2 4-6 8-8 6-6-7-8-12-18-12l-9 2c-5 2-10 3-14 6-6 3-11 9-11 16l1 1c7-10 19-10 29-10 6 1 11 2 15 6 3 3 9 5 12 3 4-2 8 3 11 7h11c-6-6-9-15-12-22l-2-7zM1302 556a38 38 0 00-4-2c-5-3-14-11-20-8-4 2-7 0-9 2-2 1-2 4-4 6-2 3-5 2-6 5-1 2 0 4 2 2s6-4 11-3c7 0 15-1 20 5 3 4 5 9 6 14h-1l-1 1h-1c-6 4-12 6-19 8a52 52 0 00-8 4c-18 5-10 42-5 54l1 2 9-1a72 72 0 0014-5c13-18 13-62 14-62l6-5 1 1 1 2c4 11 9 33 8 48a20 20 0 005-5s1-9-2-23-15-34-18-40z"/><path d="M1309 576l-1-2-1-1-7 5s-1 44-13 62c9-3 19-1 24-3 6-4 10-7 9-10 1-14-7-40-11-51z" fill="#4f463f"/><path class="ae" d="M1235 640c-3 2-9 0-12-3-4-4-9-5-15-6-10 0-22 0-29 10h1a427 427 0 0067 6c-4-4-7-9-12-7z"/><path class="ah" d="M1301 572c-1 0-5-2-6-1-4 1-8 5-18 6-7 0-14 0-20 4-2 1-2 3-4 6-2 5-5 5-6 7-1 4 2 10 1 13h2c3-6 6-13 12-17 4-2 7-5 18-5 7-1 11-4 17-5 8-2 6-5 11-6-1-1-3-3-7-2z"/><path d="M988 297c8-6 19-26 60-3 24 14 10 54 30 48 27-6 48 25 21 50s-38 20-66 6c-10-4-16-8-31-6s-20 24-49 27-74-31-52-49 25-28 19-46 28-42 43-27 18 4 25 0z" fill="#45dbe2"/><path d="M1048 387c-11 0-42-7-50-5s-31 7-38 19-54 6-56-11 5 2 18-20c11-20 12-27 11-33a6 6 0 01-3-3c-1-5 4-10 12-13s16-1 17 3a6 6 0 01-1 5h1c11 0 38-19 46-15s-19 11-10 17 31-7 38 1-19 7-13 13 23 2 26 6-6 5-2 8 9-2 14 2-23 6-18 11 20 15 8 15zm44-14c-1-6-10-7-20-4s-15 10-14 15 11 6 20 3 16-9 14-14z" transform="translate(1 1)" fill="url(#b)"/><path class="al" d="M1029 362c3-6 0-13-6-16-6-2-14 1-15 4l8 5c-1 1-8-3-9-3-1 1-2 10 6 15a11 11 0 0016-5z"/><path class="am" d="M1007 353a32 32 0 014 1l5 2-4-4a23 23 0 01-4-2 1 1 0 011 0c1-3 9-5 14-3 5 3 8 9 5 15a11 11 0 01-6 5 10 10 0 01-9-1c-7-4-7-12-6-13z"/><path class="an" d="M1008 354l2 1c5 2 6 2 7 1 0-2-1-2-4-4a36 36 0 01-4-2c2-2 9-5 14-2 5 2 7 8 5 13a10 10 0 01-6 5 10 10 0 01-8 0c-7-4-7-10-6-12z"/><path class="ao" d="M1011 350c3-2 8-3 11-1 5 2 7 7 5 12a9 9 0 01-6 4 8 8 0 01-7-1 11 11 0 01-5-9l1 1c4 2 6 3 8 1v-1c1-2-1-3-5-5l-2-1z"/><path class="al" d="M1034 328a8 8 0 00-1-12c-4-3-10-2-11 0l4 5-5-3c-1 0-3 6 2 10a8 8 0 0011 0z"/><path class="am" d="M1021 318l2 2 3 1-2-2a17 17 0 01-2-2v-1c2-1 7-2 10 1a8 8 0 012 10 8 8 0 01-6 3 7 7 0 01-5-2c-4-4-3-9-2-10z"/><path class="an" d="M1021 319l2 1 4 2-2-4-2-2c1-1 6-1 9 1a7 7 0 011 10 7 7 0 01-5 3 7 7 0 01-5-2c-3-4-3-8-2-9z"/><path class="ao" d="M1024 317c2-1 6-1 8 1a6 6 0 011 8 6 6 0 01-5 3 6 6 0 01-4-2 8 8 0 01-3-7l1 1c3 2 4 2 5 1 2-1 0-3-2-4l-1-1z"/><path class="al" d="M954 372a12 12 0 0016 0c5-4 4-13 1-15-1-1-6 6-7 5 0-1 6-6 5-7 0-1-8-6-15 0-5 5-4 12 0 17z"/><path class="am" d="M969 355a33 33 0 01-3 3l-3 4c1 1 2 0 5-2a24 24 0 013-3c2 3 3 11-1 15a11 11 0 01-16-1 12 12 0 01-3-8 9 9 0 013-7c6-5 13-2 15-1z"/><path class="an" d="M968 355l-2 2c-3 4-4 4-3 5v1c1 1 2 0 5-3a36 36 0 013-2c2 2 2 10-2 13a10 10 0 01-14 0 11 11 0 01-3-8 9 9 0 013-7 11 11 0 0113-1z"/><path class="ao" d="M971 360c0 3 0 8-2 10a9 9 0 01-13 0 10 10 0 01-3-7 8 8 0 013-6 10 10 0 0110-2l-1 1c-3 4-4 5-3 7v1c2 2 4 0 7-3l2-1z"/><path class="al" d="M968 336a8 8 0 00-6 10c1 4 7 7 9 6 1-1-1-6-1-6l3 5s6-3 5-9c-1-5-6-7-10-6z"/><path class="am" d="M973 351a24 24 0 01-1-3l-2-3v3a15 15 0 011 3c-3 1-8-2-9-5a8 8 0 016-10 8 8 0 016 1 7 7 0 013 5c1 5-3 8-4 9z"/><path class="an" d="M973 350l-1-2-2-3v6c-2 0-6-2-7-5a7 7 0 015-9 8 8 0 016 0 6 6 0 013 5 8 8 0 01-4 8z"/><path class="ao" d="M969 350c-2 0-5-2-5-4a6 6 0 014-8 7 7 0 015 0 5 5 0 013 4 7 7 0 01-2 7l-1-1c-1-3-1-4-3-4-2 1-2 2-1 5v1z"/><path class="ap" d="M972 359a8 8 0 01-5-2 7 7 0 0110 0 8 8 0 01-5 2zM962 359a8 8 0 01-5-3 7 7 0 0110 1 8 8 0 01-5 2zM965 362a8 8 0 012-5 7 7 0 010 10 8 8 0 01-2-5z"/><path class="ap" d="M965 352a8 8 0 013-5 7 7 0 01-1 10 8 8 0 01-2-5z"/><path class="ap" d="M973 355a8 8 0 01-6 2 8 8 0 012-5l6-2a8 8 0 01-2 5zM965 362a8 8 0 01-5 1 7 7 0 017-6 8 8 0 01-2 5z"/><path class="ap" d="M969 362a8 8 0 01-2-5 7 7 0 017 7 8 8 0 01-5-2zM962 354a8 8 0 01-1-5 7 7 0 016 8 8 8 0 01-5-3z"/><path class="aq" d="M972 358a8 8 0 01-5-1 6 6 0 019-3 8 8 0 01-4 4zM963 360a7 7 0 01-5-1 6 6 0 019-2 8 8 0 01-4 3z"/><path class="aq" d="M966 362a7 7 0 011-5 6 6 0 013 9 7 7 0 01-4-4zM964 353a8 8 0 011-5 6 6 0 012 9 7 7 0 01-3-4z"/><path class="ar" d="M971 354a7 7 0 01-4 3 6 6 0 015-8 8 8 0 01-1 5zM967 362a7 7 0 01-4 3 6 6 0 014-8 8 8 0 010 5z"/><path class="ar" d="M970 361a7 7 0 01-3-4 6 6 0 018 4 7 7 0 01-5 0zM962 356a7 7 0 01-3-4 7 7 0 015 1 8 8 0 013 4 8 8 0 01-5-1z"/><path class="as" d="M968 356a2 2 0 01-1 1 2 2 0 010-1 2 2 0 011-1 2 2 0 010 1z"/><path class="as" d="M967 358a2 2 0 01-1 0 2 2 0 010-1 1 1 0 111 1z"/><path class="as" d="M968 358a2 2 0 01-1-1 1 1 0 012 0 1 1 0 010 1 2 2 0 01-1 0z"/><path class="as" d="M966 357a2 2 0 01-1-1 1 1 0 012 0 2 2 0 010 1 2 2 0 01-1 0z"/><path class="as" d="M968 357a2 2 0 01-1 0 1 1 0 012-1 2 2 0 01-1 1z"/><path class="as" d="M966 357a2 2 0 01-1 0 1 1 0 012 0 2 2 0 01-1 0zM967 358a2 2 0 010-1 1 1 0 011 1v1a2 2 0 01-1-1z"/><path class="as" d="M967 356a2 2 0 010-1 1 1 0 010 2 2 2 0 010-1z"/><path class="at" d="M968 356a1 1 0 01-1 1 1 1 0 011-1zM967 357a1 1 0 010 1 1 1 0 010-1z"/><path class="at" d="M968 357a1 1 0 01-1 0 1 1 0 011 0zM967 357a1 1 0 01-1-1 1 1 0 011 1z"/><path class="at" d="M968 357a1 1 0 01-1 0 1 1 0 011-1v1zM967 357a1 1 0 01-1 0 1 1 0 011 0z"/><path class="at" d="M967 357a1 1 0 011 1 1 1 0 01-1-1zM967 356a1 1 0 010 1 1 1 0 010-1z"/><path class="al" d="M900 403l11-8s-3 7-7 11a21 21 0 01-9 5 21 21 0 015-8z"/><path class="am" d="M899 405c7-9 2 1 2 1s9-6 1 2a13 13 0 01-6 3 16 16 0 013-6z"/><path class="an" d="M899 405c6-7 1 2 1 2s9-6 1 1a11 11 0 01-5 2 14 14 0 013-5z"/><path class="am" d="M901 405l-1 1h2a68 68 0 00-6 5l5-6z"/><path class="al" d="M898 397l13-3s-6 6-11 8a21 21 0 01-10 1 21 21 0 018-6z"/><path class="am" d="M895 398c10-5 2 2 2 2s11-1 0 2a13 13 0 01-7 1 16 16 0 015-5z"/><path class="an" d="M895 399c9-5 0 2 0 2s11-2 1 1a11 11 0 01-5 0 14 14 0 014-3z"/><path class="am" d="M897 399l-1 1h2a72 72 0 00-7 3l-1-1 7-3z"/><path class="al" d="M907 408c0-5 3-13 3-13v13a29 29 0 01-3 10 29 29 0 010-10z"/><path class="am" d="M907 411c0-11 1-1 1-1s3-10 1 1a17 17 0 01-2 6 21 21 0 010-6z"/><path class="an" d="M907 411c0-9 1 1 1 1s2-11 1-1a15 15 0 01-2 6 19 19 0 010-6z"/><path class="am" d="M908 410v0l-1 7a60 60 0 001-7z"/><path class="al" d="M901 391l7 4s-5 2-8 1l-5-3 6-2z"/><path class="am" d="M899 391c7 1 0 3 0 3s6 3-1 2a6 6 0 01-3-3 8 8 0 014-2z"/><path class="an" d="M899 392c6 0-1 1-1 1s6 4 0 2a5 5 0 01-2-2 7 7 0 013-1z"/><path class="am" d="M900 393h-1l1 1a24 24 0 00-5-1 14 14 0 005 0z"/><path class="al" d="M909 403l1-8s4 4 4 7l-1 6s-3-2-4-5z"/><path class="am" d="M910 405c-2-6 2-1 2-1s1-7 2 0a6 6 0 01-1 4 8 8 0 01-3-3z"/><path class="an" d="M911 405c-3-5 1 0 1 0s1-7 2-1a5 5 0 01-1 3 7 7 0 01-2-2z"/><path class="am" d="M911 404h1l1-1a25 25 0 000 5 14 14 0 00-2-4z"/><path class="al" d="M909 388v8l-4-8a11 11 0 011-6 11 11 0 013 6z"/><path class="am" d="M908 386c2 6-1 1-1 1s-1 7-2 0a7 7 0 011-4 9 9 0 012 3z"/><path class="an" d="M908 386c2 6-1 0-1 0s-1 7-2 1a6 6 0 011-4 8 8 0 012 3z"/><path class="am" d="M907 387h-1a34 34 0 000-4 20 20 0 001 4z"/><path class="al" d="M902 388l7 8-9-6a20 20 0 01-5-6 20 20 0 017 4z"/><path class="am" d="M900 386c7 6 0 2 0 2s5 7-2 0a12 12 0 01-3-4 15 15 0 015 2z"/><path class="an" d="M900 386c6 5-1 1-1 1s5 7-1 1a11 11 0 01-2-3 13 13 0 014 1z"/><path class="am" d="M900 388h-1l1 1-5-5a42 42 0 005 4z"/><path class="au" d="M900 399a10 10 0 004 0 13 13 0 002-1 15 15 0 00-1 1 11 11 0 00-3 4 10 10 0 005-2 17 17 0 001-3 28 28 0 000 4 15 15 0 000 5 15 15 0 002-5v-2a5 5 0 001 2 5 5 0 001-3 9 9 0 00-2-3v-1h-1a13 13 0 000-3 6 6 0 00-2-3 6 6 0 000 3 9 9 0 001 2 20 20 0 00-2-2 10 10 0 00-4-2 10 10 0 003 3 4 4 0 00-3 1 5 5 0 002 2h-1a10 10 0 00-3 3zm9-3zm0 0z"/><path class="at" d="M913 394c-2 2-4 2-5 2s-1-3 1-5 3-2 4-1 1 3 0 4z"/><path class="at" d="M912 394c-1 2-3 2-4 2s-1-3 1-5 3-2 4-1 1 3-1 4z"/><path class="at" d="M913 392a2 2 0 110-2 2 2 0 010 2zM912 391l3-4-3 4z"/><path class="al" d="M925 419l-12-11s3 10 7 15a24 24 0 008 7 24 24 0 00-3-11z"/><path class="am" d="M926 422c-6-11-3 1-3 1s-9-9-1 2a15 15 0 006 5 18 18 0 00-2-8z"/><path class="an" d="M926 423c-6-10-2 1-2 1s-9-8-2 1a13 13 0 006 4 16 16 0 00-2-6z"/><path class="am" d="M924 422v1h-2a81 81 0 016 6l-4-7z"/><path class="al" d="M929 414c-6-4-15-6-15-6s6 7 11 11a24 24 0 0012 3 24 24 0 00-8-8z"/><path class="am" d="M931 416c-10-8-2 1-2 1s-12-4 0 3a15 15 0 007 1 18 18 0 00-5-5z"/><path class="an" d="M931 416c-9-7-1 2-1 2s-12-4-1 2a13 13 0 006 1 16 16 0 00-4-5z"/><path class="am" d="M929 416l1 1h-2a79 79 0 018 4l-7-5z"/><path class="al" d="M916 425v-16l-4 15a33 33 0 001 11 33 33 0 003-10z"/><path class="am" d="M916 428c1-13-2-1-2-1s-1-13-2 0a20 20 0 001 8 25 25 0 003-7z"/><path class="an" d="M916 428c1-11-2 0-2 0s-1-12-1 0a17 17 0 001 6 21 21 0 002-6z"/><path class="am" d="M915 426l-1 1v-1l-1 8h1a69 69 0 011-8z"/><path class="al" d="M926 407c-4 0-9 3-9 3s5 3 9 3 7-3 7-3-3-3-7-3z"/><path class="am" d="M928 407c-8-1-1 2-1 2s-7 4 1 3a7 7 0 004-3 9 9 0 00-4-2z"/><path class="an" d="M928 407c-7-1 0 2 0 2s-7 3 0 3a6 6 0 004-3 8 8 0 00-4-2z"/><path class="am" d="M927 409h1l-1 1a28 28 0 015 0v-1h-5z"/><path class="al" d="M914 418l1-9s-5 4-6 7v7s3-1 5-5z"/><path class="am" d="M913 420c4-6-2-2-2-2s0-8-3 0a7 7 0 001 5 9 9 0 004-3z"/><path class="an" d="M912 420c4-6-2-1-2-1s1-7-2-1a6 6 0 001 4 8 8 0 003-2z"/><path class="am" d="M912 418l-1 1-1-1a27 27 0 01-1 4v1l3-5z"/><path class="al" d="M918 401l-2 9 6-7a12 12 0 000-7 13 13 0 00-4 5z"/><path class="am" d="M919 399c-4 7 1 2 1 2s0 7 2 0a8 8 0 000-5 10 10 0 00-3 3z"/><path class="an" d="M919 399c-3 6 2 1 2 1s-1 7 1 0a7 7 0 000-4 9 9 0 00-3 3z"/><path class="am" d="M920 401v-1 1a42 42 0 012-5 22 22 0 01-2 5z"/><path class="al" d="M926 402l-11 8 13-4a23 23 0 007-7 23 23 0 00-9 3z"/><path class="am" d="M928 401c-9 5 0 2 0 2s-8 7 2 1a14 14 0 004-4 18 18 0 00-6 1z"/><path class="an" d="M928 401c-8 4 1 1 1 1s-8 7 1 2a12 12 0 003-4 15 15 0 00-5 1z"/><path class="am" d="M927 403h2s-2 0-1 1l6-4a47 47 0 01-7 3z"/><path class="au" d="M922 412l-1-1a5 5 0 003-1 5 5 0 00-3-2h1a12 12 0 003-4 11 11 0 00-4 2 22 22 0 00-3 2 11 11 0 001-2 7 7 0 000-3 6 6 0 00-2 2 14 14 0 00-1 4h-1v1a11 11 0 00-3 3 5 5 0 000 3 6 6 0 002-1v2a17 17 0 001 6 17 17 0 001-6 35 35 0 000-4 19 19 0 002 3 11 11 0 004 4 12 12 0 00-2-6 18 18 0 00-1-1 15 15 0 002 1 11 11 0 005 2 12 12 0 00-4-4zm-6-2zm0 0z"/><path class="at" d="M912 408c2 2 4 3 5 2s2-3 0-5-3-4-5-3-1 4 0 6z"/><path class="at" d="M913 408c1 2 3 3 4 2s1-3 0-5-3-3-4-2-1 3 0 5z"/><path class="at" d="M912 405a2 2 0 101-2 2 2 0 00-1 2z"/><path class="at" d="M913 404l-2-5 3 5h-1zM912 414l4-2c0-1-1-3-3-3s-4 0-4 2 1 2 3 3z"/><path class="at" d="M912 413c2 1 4 0 4-1l-3-3c-2-1-4 1-4 2l3 2z"/><path class="at" d="M910 412a1 1 0 10-1-1 2 2 0 001 1z"/><path class="at" d="M910 411l-4-1 4 1c1 0 0 0 0 0z"/><path class="ac" d="M1279 269c14-13 31-7 68 11s49 17 60 18 43 29 61 32 23 5 23 5l5 12s-5 11-47 13-62-4-92 15-59 19-95 13-52-9-60-13 15-14 50-11 46-3 41-7-13 2-38 0-64-17-64-17 74-58 88-71z"/><path d="M1469 330c-19-3-51-31-62-32s-23-1-60-18l-19-9c1 1 34 18 43 26 9 7 11 16 28 21a43 43 0 0128 25c3 7-25 5-42 12s-33 24-49 31a108 108 0 0021-11c30-19 51-12 92-15s47-13 47-13l-5-12-22-5z" style="mix-blend-mode:multiply" fill="#7ebb15"/><path class="aw" d="M1287 332c14-5-7-6-20-11s-17-11-1-12 16-6 11-9-10-15 4-15 10-12 9-16c0-4 5-7 5-7a24 24 0 00-16 7c-14 13-88 71-88 71s19-8 34-8 48 4 62 0zM1310 366c2-12-14-12-27-10 5 0 8-1 10 1 5 4-5 11-41 8-20-2-36 0-45 4a242 242 0 0150 3c28 4 52 6 53-6z"/><path class="ax" d="M571 644l49-4 31 12h12l79 30 57-11 22-13 16-8v-6l-42-33-49-19-40-18-21-3-34 17-34 24-33 10-13 14v8z"/><path class="ay" d="M571 638l49-4 31 12h12l79 30 57-11 22-13 16-8-2-8-40-31-49-19-40-18-21-4-34 18-34 24-33 10-13 14v8z"/><path class="ax" d="M617 606l12 11 31 3 40 12 23 12 40-3 28-16 22-6 1-14-11-9-62-20-28-12-30-3-36 14-16 13-14 7v11z"/><path class="ay" d="M617 600l12 11 31 3 40 12 23 12 40-3 28-16 22-6 1-8-11-15-62-21-28-11-30-3-36 14-16 13-14 7v11z"/><path class="az" d="M726 611l-21-7-14 4v2l11 6 19 3 8 5h7l9-3 1-5-13-4-7-1zM674 574l-14 3-6 4 2 5 7 1 3-4 8-2 3-4-3-3z"/><path class="ax" d="M686 587l3-19 13-14 2-8 30-3 33 5 28 1 6 7 2 6 7 37-7 4-13 2-28-4-34 4-22-10-17-3-3-5z"/><path class="ba" d="M704 546l1 10 31 15 29-10 8 3 11-3 4-3h4l9-2-6-7-28-1-33-5-30 3z"/><path fill="#898989" d="M765 561l-29 10 1 12-1 6v7l-4 7-4 2 34-4-2-18 2-7-3-2 3 1 3-10v-4z"/><path class="ba" d="M791 601l-3-5-9-3-4-6-2-7 6-9-8 8-1 15-8 7 28 4 13-2-12-2z"/><path class="bc" d="M706 595l4-10 1-8 2-3 2-5 1 1 1 8-1 7 2 4-2 4 1 7-11-5z"/><path class="ba" d="M698 564l2-4 5-4-1-10-2 8-13 14-3 19 4-18 8-5z"/><path class="bd" d="M721 557l14 7 11-2 8-1 1-3-8-6-9 2-6-5-9 3-2 5z"/><path class="az" d="M745 552l-7 2-6-5-9 3-2 5 2 1 2-3 7-2 4 1 9-2z"/><path class="ax" d="M719 611l-21-7-14 4v2l11 6 19 3 15 5 9-3 1-5v-2l-13-2-7-1z"/><path class="bd" d="M719 609l-21-7-14 4v2l11 6 19 3 15 5 9-3 1-5-13-4-7-1z"/><path class="ax" d="M674 575l-18 1-5 3v2l2 4 7 1 3-3 7-2 4-4v-2z"/><path class="bd" d="M671 572l-15 2-5 5 2 5 7 1 3-4 7-2 4-4-3-3z"/><path class="ax" d="M788 635l-20 12-9 3v3l10 5 22 2 12-10 9-3 3-10v-3l-11 1-8 4-7-1-1-3z"/><path class="bd" d="M787 633l-19 11-9 2v4l10 5 22 2 12-11 9-2 3-10-11-3-8 5-7-2-2-1z"/><path class="az" d="M660 614v6l29 9-29-8-31-4v-6zM723 638v6l34 1 11-1 11-6 10 1 7-3 8-5 9-7h6l-6-5 1-14-1 8-22 6-28 16-40 3zM825 636l-10-1v-1l-3 10-9 2-12 11v3l9-4 8-2 7-4 7-9 4-3-1-2zM728 605l29-2 18 2h15l-28-4-2-18 2-7-3-2 3 1 3-10v-4l-29 10 1 12-1 6v7l-4 7-4 2z"/><path style="mix-blend-mode:multiply" fill="#c6c6c6" d="M773 564l8 1-2 6-6 9 2 7 4 6 9 3 3 5 12 2h10l-3-4-7-37-2-6-9 2h-4l-4 3-11 3z"/><path class="az" d="M732 549l-5 5v4l5 4-11-5 2-5 9-3z"/><path class="bc" d="M698 564l1 9 2 5v16h2l1-12v-9l3-5 2-4 3-4 4 1-11-5-5 4-2 4z"/><path class="az" d="M651 646v6l16 1 2-5-6-2h-12z"/></g></svg>