<svg xmlns="http://www.w3.org/2000/svg" xmlns:xlink="http://www.w3.org/1999/xlink" viewBox="0 0 1501 1001"><defs><radialGradient id="a" cx="1311.7" cy="855.7" r="51.8" gradientTransform="matrix(1 0 0 -1 -145 1445)" gradientUnits="userSpaceOnUse"><stop offset="0" stop-color="#c0a373"/><stop offset="1" stop-color="#fff" stop-opacity="0"/></radialGradient><linearGradient id="b" x1="1284.7" y1="1296.5" x2="1284.7" y2="1201.9" gradientTransform="matrix(1 0 0 -1 -146 1444)" gradientUnits="userSpaceOnUse"><stop offset="0" stop-color="#a0edf0"/><stop offset="1" stop-color="#45dbe2"/></linearGradient><style>.c{isolation:isolate}.b{fill:#70b344;stroke:#5f732e}.aa,.at,.b,.t,.u,.x,.y{stroke-miterlimit:10}.c{opacity:.25}.d{fill:#5c4328}.aa,.d,.e,.f,.g,.h,.i,.j,.k,.l,.m,.n,.o,.p,.q,.x,.y{fill-rule:evenodd}.e{fill:#544730}.f{fill:#877657}.g{fill:#ae9c87}.h{fill:#68543c}.i{fill:#9d8264}.j{fill:#b49871}.k{fill:#8f7e5f}.l{fill:#857c68}.m{fill:#a59b84}.n{fill:#67604f}.o{fill:#bdb29a}.p{fill:#c1b09a}.q{fill:#cdb186}.s{fill:#ddc02c}.t,.u{fill:#3f2b0f}.aa,.at,.t,.u,.x,.y{stroke:#1d150c}.u{stroke-width:1.14px}.x,.y{fill:#571c10}.y{stroke-width:1.04px}.aa{fill:#c0a373}.ab{fill:#78a015}.ac,.aw{fill:#7ebb15}.ad{fill:#94d31a}.ae{fill:#897d6f}.af{fill:#635a52}.ah{fill:#91887b}.al{fill:#8ab550}.am{fill:#97c261}.an{fill:#a9d171}.ao{fill:#b3db7b}.ap{fill:#dcf5f5}.aq{fill:#f2ffff}.ar{fill:#fff}.as{fill:#fddfb3}.at{fill:#1d150c}.au{fill:#81a653}.az{mix-blend-mode:multiply}.aw{mix-blend-mode:screen}.ax{fill:#bdbdbd}.ay{fill:#d9d9d9}.az{fill:#cfcfcf}.ba{fill:#cbcbcb}.bc{fill:#c6c6c6}.bd{fill:#e8e8e8}</style></defs><g style="isolation:isolate"><path class="b" d="M1001 501h250v250h-250zM1251 251h250v250h-250zM1001 251h250v250h-250zM1001 1h250v250h-250zM1251 1h250v250h-250zM751 251h250v250H751zM751 1h250v250H751zM751 501h250v250H751zM501 251h250v250H501zM251 251h250v250H251zM501 501h250v250H501zM251 501h250v250H251zM751 751h250v250H751zM251 751h250v250H251zM1001 751h250v250h-250zM501 1h250v250H501zM1251 501h250v250h-250zM1251 751h250v250h-250zM501 751h250v250H501zM251 1h250v250H251zM1 1h250v250H1zM1 751h250v250H1zM1 251h250v250H1zM1 501h250v250H1z"/><use class="c" transform="rotate(-42 517 -286) scale(.09)" xlink:href="#c"/><path class="d" d="M488 189l-7-8-8-8-8-7a13 13 0 00-10-1c-7 2-11 9-17 14a76 76 0 01-8 7 32 32 0 00-5 3 39 39 0 00-3 5 22 22 0 01-4 4l-5 4-9 7a4 4 0 00-1 0l-18 16-9 8c-3 3-6 5-7 9a4 4 0 00-1 0 31 31 0 00-4 4 34 34 0 01-5 4 37 37 0 00-7 4l-5 5-5 6a12 12 0 00-4 4 7 7 0 011 1l5 7c0 2 0 6-2 7a8 8 0 012 2 22 22 0 013 3c2 3 5 4 8 6a2 2 0 011 2l1 1a2 2 0 011 1 10 10 0 012 4 29 29 0 002 4 12 12 0 002 2 18 18 0 005 3 5 5 0 003-3 22 22 0 017-7l9-7 19-16 18-16 37-34 19-17 9-8a8 8 0 003-5 8 8 0 00-2-6l-1-1a3 3 0 00-2-3z"/><path class="e" d="M363 245c-4 3-8 5-4 9l3 5c2 2 7-4 9-6 1-1 9-7 8-8-1-2-5-7-7-7l-7 5zm0 0l2-2c2-2 4-5 7-5 2-1 6 5 7 6 1 2-6 9-8 10-1 1-7 7-9 5l-3-5c-4-4 0-6 4-9z"/><path class="f" d="M363 245c-4 3-8 5-4 9s1 9 11 0c2-1 10-8 9-9l-5-6h-4a9 9 0 00-3 3 42 42 0 01-4 3z"/><path class="g" d="M363 245l-6 6a3 3 0 002 2l3 2c2 1 2 2 6-1 1-1 7-4 6-6 0-2 6 1 3-5-1-1-4-4-7-4a9 9 0 00-3 3 42 42 0 01-4 3zm7-3v1s-1 2-2 1l2-2zm4 2l1 1c-3 0-1-1 0-1zm-12 12h4c1 1-2 3-3 2l-1-2z"/><path class="h" d="M399 217l7 6c1 0 6-1 4-3l-8-9c-1 0-8 2-3 6zm0 0c-4-3 0-6 3-6 2 0 7 7 8 8 2 3-2 4-3 4-2 1-6-5-8-6z"/><path class="i" d="M399 217l5 5 2 1c2 0 4 0 5-2l-4-6-5-4c-5 1-6 4-3 6z"/><path class="j" d="M405 213l-3-2c-4 1-5 2-4 4a17 17 0 011 1l5 4c2 3 2 1 3 1a2 2 0 002-2l-2-3a22 22 0 00-2-3z"/><path class="h" d="M353 296l6 8s5 0 4-3l-5-10c-1 0-9 0-5 5zm0 0c-4-4 2-6 4-5 3 0 6 8 7 10 1 3-3 3-5 3l-6-8z"/><path class="i" d="M353 296l4 6 2 2c2 0 3 0 5-2l-3-6-4-5c-5 0-6 2-4 5z"/><path class="j" d="M360 293l-3-2c-4 0-5 1-5 3a17 17 0 011 1l4 5c2 3 2 1 3 2a2 2 0 002-2l-1-4a21 21 0 00-1-3z"/><path class="e" d="M429 243l-12 9c-3 2-11-12-4-13l3-2c1-1 5-5 7-4l4 6 2 4zm0 0l-2-4-4-6-4 2c-2 1-4 4-6 4-6 2 1 15 3 13l13-9z"/><path class="k" d="M429 243l-12 9c-3 2-11-12-3-13l5-5c4-2 3-3 7 3l3 6z"/><path class="g" d="M414 251c-3-3-6-12 0-12l5-5c2-1 3-2 4-1a2 2 0 010 1c-4 2-1 3 0 3a3 3 0 002-1l1 2a29 29 0 012 3 5 5 0 01-2 1c-2 0-7-4-1 1-2 4-5-1-5-2-5-5-3 0-3 2 2 8-2-3-2-3-2 0 0 4 0 5 1 4 0 6-1 6z"/><path class="h" d="M452 222c-2 3-6 9-9 4-1-3 0-2-3-4-3-3 0-4 2-7 1-1 7-10 9-8s7 6 6 9a31 31 0 01-3 3c-1 2 0 2-2 3zm0 0c2-1 0 0 2-3l3-4c0-2-5-7-6-8-2-1-8 8-9 10-5 5-1 3 1 7 3 7 6 2 9-2z"/><path class="i" d="M452 222c-1 2-6 10-9 3-2-4-7-3-2-8 3-3 8-12 10-10 9 9 6 7 2 14a5 5 0 01-1 1z"/><path class="j" d="M443 215l2-3a6 6 0 012 2c0 1 4 1 1-5v-1l3-1 1 2a19 19 0 002 3c2 3 0 7-3 8-1 0-5 9-6 4-3-1-3-2-2-6-3-1 0 1 0-3z"/><path class="h" d="M473 182c-2 3-6 9-8 4l-3-4c-3-3-1-4 2-7 1-1 6-10 8-8s7 6 6 8a31 31 0 01-2 4l-3 3zm0 0l3-3 2-4c0-2-5-7-6-8-2-1-8 8-9 10-5 5-1 3 1 7 3 7 6 2 9-2z"/><path class="i" d="M473 182c-1 2-6 10-9 2-1-3-7-2-1-8 2-2 7-11 9-9 10 9 6 7 2 14a4 4 0 01-1 1z"/><path class="j" d="M464 175l3-3a6 6 0 011 2c0 1 5 0 2-6h-1l3-1 2 2a19 19 0 002 3c1 3 0 7-3 8-1 0-5 9-6 3-3-1-4-1-3-5-2-1 1 0 0-3z"/><path class="e" d="M387 274c-2-7-2-9-11-3-5 5-3 5 0 10l3 1c3 0 8-6 8-8zm0 0c0 3-6 9-8 8-3 1-3 0-4-1-2-4-5-5 1-10 8-6 9-5 11 3z"/><path class="l" d="M387 274c-1-4-1-10-7-5-10 7-7 7-4 13h3c1 1 8-6 8-8z"/><path class="m" d="M386 269c-1-2-3-3-6 0-9 6-8 7-5 11a1 1 0 001-1c5-3 3 1 7-4 1-2 0-3 1-2 2 0 2-2 2-4zm-6 1c1 0 2 0 1 1-6 5-6 2-1-1z"/><path class="e" d="M486 187c-2-7-3-9-11-2-5 4-3 5-1 9 1 1 1 2 4 1 2 0 7-5 8-8zm0 0c0 3-7 9-8 9-3 0-3 0-4-2-3-4-5-5 1-9 8-7 9-6 11 2z"/><path class="l" d="M486 187c-1-4-2-9-8-5-10 8-7 7-3 13l3 1c1 0 8-6 8-9z"/><path class="m" d="M484 182c-1-2-2-2-6 0-8 7-7 7-5 11a1 1 0 001 0c5-4 4 0 8-5v-2c2 0 3-2 2-4zm-5 2c1-1 2-1 1 1-6 4-6 2-1-1z"/><path class="e" d="M426 234c4-2 10-7 11-10 0-2-5-2-7 0l-3 2c-4 5-2 3-2 7l1 1zm0 0l-1-1c0-4-3-2 2-7l3-2c3-3 9-3 7 0l-11 10z"/><path class="k" d="M426 234c6-4 15-12 9-12-5 0-4 2-8 4-5 5-2 3-2 7l1 1z"/><path class="g" d="M437 223l-2-1c-5 0-4 2-8 4-5 5-2 4-2 7l5-6c8-1 0-2 5-3a4 4 0 002-1z"/><path class="h" d="M372 259c-2 3-6 3-3 6l3 4c1 2 5-2 6-2 3-2 6-3 3-7l-6-6-3 5zm0 0c0-1 2-6 4-5l5 5c3 4 1 6-3 8-1 1-5 5-7 3l-2-5c-3-3 1-3 3-6z"/><path class="j" d="M372 259c-2 3-7 3-2 7 1 1 1 8 7 1 2-1 10-3 2-10-3-3-3-6-7 1v1z"/><path class="i" d="M372 259c-2 3-5 3-4 5a5 5 0 011 1l1 1 1 3c2 0 7-6 10-6v-4a19 19 0 00-2-2 1 1 0 00-1 0 3 3 0 00-2 2h-4z"/><path class="e" d="M379 288c-5 5-7 4-12 8-2 3-10-11-4-13l3-1c1-1 5-5 6-4l5 6 2 4zm0 0l-2-4-5-6c-1-1-2 1-3 2l-6 4c-5 1 2 14 4 12 5-4 7-3 12-8z"/><path class="l" d="M379 288c-5 5-8 4-12 8-2 2-10-12-3-12l5-5c4-2 3-3 7 4l3 5z"/><path class="m" d="M362 289c-1-2-1-5 2-5l5-5c3-1 3-3 5 1a7 7 0 01-1 1c-2 1-3 4-3 5 2 4-1 2 0 4 0 1-4 3-5 1l-4-2zm14-7a15 15 0 00-3 2c-2 2 0 2 1 4 0 1 2 2 3-1a13 13 0 001-2l-2-2z"/><path class="n" d="M458 196c-1 2-8 8-10 8s-6-2-7-4c-3-5 5-10 8-13 2-2 9-8 11-5l4 4-4 6-2 4zm0 0l2-4c0-2 5-5 4-6a55 55 0 00-3-4c-4-4-16 8-18 10-5 6-3 11 5 13l10-9z"/><path class="l" d="M458 196c0 1-9 9-10 8 0 0-15-3-3-14 2-2 13-12 15-8 5 6 6 3 1 9l-3 5z"/><path class="m" d="M445 204c-3-2-8-5-2-12h2a3 3 0 002-3c3-3 9-9 12-8-1 2 7 2-1 11-3 4-2 1-3 0-2-5-1 3-1 3-1 6-6 0-7 5l-2 4z"/><path class="e" d="M430 240c4-2 13-6 14-10 1-2-5-4-8-2l-4 3c-6 4-3 3-4 7l2 2zm0 0c-1 0-2 0-2-2 0-4-3-3 4-7l4-3c3-2 11-1 8 3s-9 7-14 9z"/><path class="k" d="M430 240c8-3 20-11 12-13-6-1-6 1-10 4-7 4-3 3-4 7l2 2z"/><path class="g" d="M442 227c-6-1-6 1-10 4l-2 1a2 2 0 010 1 2 2 0 000 4c4 1 3-7 9-7 2 2-3 4-4 5 1 1 8-5 8-5l-1-3z"/><path class="e" d="M458 175c3-2 10-6 8-10-1-2-11-3-13-2l-2 3c-5 4-2 3 3 8l4 1zm0 0l-5-1c-4-5-7-3-3-8l2-3c3-2 14-1 15 3s-5 7-9 9z"/><path class="k" d="M458 175c7-3 14-11 3-12-10-1-8 0-11 3-4 4 0 3 3 8l5 1z"/><path class="g" d="M460 163c-9-1-7 1-10 3a15 15 0 00-1 1l1 2c-1 1 3 3 4 3 6 1-2-6 4-7 5 2 1 4 1 5 3 2 5-5 5-5l-4-2z"/><path class="h" d="M415 216l-4 1c-2 1 1 1 1 2l1 2 1-2 1-2a3 3 0 001-2l-1 1zm0 0c2-2 1 1 0 2l-1 2c-2 3-2 0-2-1-1 0-4-2-1-2l4-1z"/><path class="i" d="M415 216l-4 1c-3 0 1 2 1 2s0 3 1 2l1-3 1-1c1 0 2-3 0-1z"/><path class="h" d="M416 218a3 3 0 010 1c1 3 3 6-2 5-1 0-3 1-2-2s1 2 2-2l1-2h1zm0 0a3 3 0 00-1 1c0 1-1 4-3 3 0 0-1 2 1 2s5 1 4-2l-1-4zm0 0z"/><path class="i" d="M416 218l-1 1s-1 4-3 2c0 0-1 3 1 3 1 0 5 2 4-2a22 22 0 01-1-4z"/><path class="h" d="M392 236l5-5c3-3 2 2 0 4l-5 2a1 1 0 010-1zm0 0l1 1c4-3 4-2 6-6a4 4 0 00-1 0l-6 5z"/><path class="k" d="M392 236l5-4c1-1 1-2 2-1-1 4-3 3-6 6l-1-1z"/><path class="h" d="M362 294l4 6c2 3-2 1-3-1l-2-5h1zm0 0h-1c2 4 1 5 5 7a4 4 0 000-1l-4-6z"/><path class="k" d="M362 294l4 5v2c-4-1-3-3-5-7h1z"/><path class="h" d="M437 216c2-1 2-1 3 1s-4 2-7 4c-1 1-4 2 0-1l4-4zm0 0a21 21 0 01-4 4c-5 3-1 3 1 1l5-2c3-2 0-6-2-3z"/><path class="k" d="M437 216c1 0 2-2 3 0 1 3-4 3-7 5-1 2-5 2 0-1a18 18 0 004-4z"/><path class="h" d="M438 224a19 19 0 00-1 3l5-1-4-2zm0 0c1-1 8 3 3 3-3-1-7 2-3-3z"/><path class="k" d="M438 224l-2 3 3-1c2 0 5 2 3 0 0-1-3-3-4-2z"/><path class="h" d="M487 189a22 22 0 00-2 2h6l-4-2zm0 0c0-1 8 3 3 2-3 0-8 3-3-2z"/><path class="k" d="M487 189l-2 3 2-1c3 0 5 1 4-1l-4-1z"/><path class="h" d="M442 236l3 1 2-1c0-1 3-7 1-6l-6 4a5 5 0 000 2zm0 0c0-3 3-4 5-5 3-2 0 2 0 4l-2 2-3-1z"/><path class="i" d="M442 236l3 1 3-4s1-5-1-2c-2 1-6 2-5 5z"/><path class="e" d="M363 281l6-6c1-1 5-4 6-3l-12 11c-2 1-2 0 0-2zm0 0c-1 2-2 2 0 2 2-1 12-10 11-11l-4 3a21 21 0 00-2 1l-5 5z"/><path class="l" d="M363 281l6-6a19 19 0 003-2c2-2 4-2 0 2-1 1-7 8-9 8 0 0-2 1-1-1l1-1z"/><path class="h" d="M385 264a22 22 0 00-3 1l5 4c1-1-1-4-2-5zm0 0c2 0 4 8 1 4-2-2-7-3-1-4z"/><path class="k" d="M385 264l-3 1 2 2c2 1 3 4 3 1l-2-4z"/><path class="h" d="M391 276a21 21 0 003-1l-5-4a4 4 0 00-1 0l3 5zm0 0c-2 1-6-9-1-5 2 3 8 5 1 5z"/><path class="k" d="M391 276l3-1-2-2c-3-1-4-4-4-2l3 5z"/><path class="n" d="M368 261l1-4 3-3c1-1 2-2 1 0a49 49 0 01-2 5c-1 1-1 3-3 2zm0 0c1 1 2-1 3-2l2-6a6 6 0 00-1 1l-3 3-1 4z"/><path class="l" d="M368 261l1-4c-1-1 2-2 3-3 0 0 3-3 1 1a12 12 0 01-1 2l-1 2a3 3 0 01-1 1c0 1-1 2-2 1z"/><path class="e" d="M376 270l4-3c1-1 3 0 0 1l-1 1-4 2 1-1zm0 0h-1c-1 2 4-2 5-2l1-1h-1l-4 3z"/><path class="k" d="M376 270l4-3c1-1 3-1 0 1l-2 1-2 1c-1 2-1 0 0 0z"/><path class="e" d="M368 297l4-3c1-1 3 0 0 2h-1l-4 2 1-1zm0 0l-1 1 5-3 1-1h-1l-4 3z"/><path class="k" d="M368 297l4-3c1-1 3 0 0 1l-1 1a24 24 0 00-2 2c-2 1-2-1-1-1z"/><path class="h" d="M357 287a44 44 0 004 4c0-1-2-4-1-6l-2 1-1 1zm3-2zm-3 2l2-2h2v6c0 2-4-4-4-4z"/><path class="i" d="M357 287l2 2c0 1 2 3 2 1l-1-5h-1l-2 2z"/><path class="h" d="M403 247c-1-1 0-1 1-2h2a10 10 0 002-2c2-1 3 3 3 4-1 0-3-2-6 0h-2zm0 0l4-1h3s-1-3-2-2a9 9 0 01-2 1h-2l-2 2zm7-1"/><path class="i" d="M403 247l1-2h2l2-1c1-1 2 1 2 2h-3a10 10 0 00-4 1c0 1 0 1 0 0z"/><path class="h" d="M403 245l4-2h-1c-2-1-2-2-3 1zm0 0a3 3 0 010-1c0-2 0-2 2-2h3c2 1-1 1-1 1 0 2-3 2-4 2z"/><path class="i" d="M403 245l4-1c1-1-1-1 1-1 1 0 0-2-1-1s-3-1-4 1v2z"/><path class="e" d="M376 251c-1 1 1 2 2 3l-1-4-1 1zm2 3l-2-3v-1c2-2 1 1 1 1l1 3c0 1-4-2-2-3z"/><path class="k" d="M376 251c-1 1 1 2 1 3 2 2 0-3 0-3v-1l-1 1z"/><path class="e" d="M364 261c-1 1 1 2 2 3v-4l-2 1zm2 3l-2-3 1-1c2-2 1 1 1 1v3s-3-2-2-3z"/><path class="k" d="M364 261c-1 1 1 2 2 2v-2c0-1 0-2-1-1l-1 1z"/><path class="h" d="M383 261c1 0 0 3 3 2 2-1-3-2-3-2zm0 0h3a1 1 0 010 2c-3 1-3-1-3-2z"/><path class="i" d="M383 261c1 1-1 3 3 2v-2l-3-1v1z"/><path class="e" d="M420 233v-5c0-2 0-2 2-2l2 1v3c0 2-2 2-2 2l-2 1zm0 0l1-1 2-1 1-4h-2c-2 0-2-1-2 1v5z"/><path class="k" d="M420 233v-5c0-2 0-1 2-1h2c2 0-1 2 0 3s-2 2-2 2l-2 1z"/><path class="e" d="M416 255c3-1 4 2 3-1 0-1 2-3 0-3l-2 2c-2 0-2 2-1 2zm0 0c-1 0-2-2 1-2s1-2 2-2c3-1 0 2 0 3 1 4 0 1-3 1z"/><path class="k" d="M416 255c2-1 4 3 3-1 0-1 3-3 1-3s-1 1-3 2c-2 0-2 2-1 2z"/><path class="e" d="M429 242l3-2c4-3 6-2 3-1-1 1-1 2-3 2-2 2-2 3-3 1zm0 0l1 1 4-3 2-2a18 18 0 00-4 2l-3 2z"/><path class="k" d="M429 242l3-2s5-3 4-1a8 8 0 00-2 1l-4 3-1-1z"/><path class="h" d="M458 216c0-2 1-2 2-2l2-1a9 9 0 002-1c1-1 3 3 2 3h-5l-3 1zm0 0c1 1 3-2 5-2l3 1-2-3a8 8 0 01-2 1l-2 1-2 2zm8-1"/><path class="i" d="M458 216c0-2 1-1 2-2l2-1 2-1c1-1 2 2 2 2 1 2-2 0-3 0a10 10 0 00-4 2h-1z"/><path class="h" d="M466 188c1 1-1 1 1 2l-1 2c-1 0-6 6-6 3l4-6a7 7 0 012-1zm0 0h-1c-2 0-3 3-4 6-2 3 2 0 4-1l2-3-1-2z"/><path class="i" d="M466 188l1 2-4 4s-4 3-2 0c1-2 2-6 4-6h1z"/><path class="h" d="M471 206c-1-1 3-4 4-5 3-3 1 1 0 3l-4 3v-1zm0 0s0 1 0 0c4-2 4-2 5-6a5 5 0 00-1 1l-4 5z"/><path class="k" d="M471 206c-1-1 3-4 4-5l1-1c0 4-2 4-5 6 0 1 0 0 0 0z"/><path class="h" d="M453 182l5-5c3-3 2 2 0 3-1 1-4 3-5 2zm0 0h1c3-2 4-2 5-6a4 4 0 000 1l-6 5z"/><path class="k" d="M453 182l5-5 2-1c-1 5-3 4-6 6h-1z"/><path class="h" d="M482 178l-5 5c-3 2-2-2 0-4l5-2v1zm0 0l-1-1c-4 3-4 2-6 6a4 4 0 001-1l6-4z"/><path class="k" d="M482 178l-5 4-2 1c1-4 3-4 6-6l1 1z"/><path class="e" d="M381 288l10-10c1-2-4-1-6 0l-3 3c-4 4-2 3-3 6l2 1zm0 0l-2-1c1-3-2-2 3-6l3-3c2-2 8-3 6 0l-10 10z"/><path class="l" d="M381 288c5-4 14-12 8-11-4 0-4 1-7 4-5 4-2 3-3 6l2 1z"/><path class="m" d="M391 277h-2c-4 0-4 1-7 4-5 4-2 3-3 6l5-6c8-2 0-2 5-3a4 4 0 002-1z"/><path class="n" d="M444 209l2-3 3-1h2a35 35 0 01-4 3c0 1-2 2-3 1zm0 0c1 1 3-1 3-1l4-3a5 5 0 00-1 0l-4 1c0 2-1 2-2 3z"/><path class="l" d="M444 209l2-3 4-1s2-1 0 1a10 10 0 01-2 1l-1 1-1 1h-2z"/><path class="n" d="M443 204l1 3 1-1 1-1-1-1c-2 0-1 0-1-1a2 2 0 00-2 0l1 1zm0 0a1 1 0 000-1l1 1 2 1c2 0 0 1-1 1l-1 1-1-3z"/><path class="l" d="M443 204l1 3 1-1 1-1-2-1v-1h-1a1 1 0 010 1z"/><path class="n" d="M436 199l3-2 2-3v-1a40 40 0 00-4 3s-2 2-1 3zm0 0c-1-1 1-2 1-3l4-3a6 6 0 010 1l-2 3-3 2z"/><path class="l" d="M436 199l3-2 2-3s2-3-1-1a12 12 0 00-1 2l-2 1a3 3 0 00-1 1v2z"/><path class="h" d="M445 210a22 22 0 00-3 2l-2 3a6 6 0 003-1c1-1 4-5 2-4zm0 0c2-1-1 2-2 4a6 6 0 01-3 1l2-3a9 9 0 013-2z"/><path class="i" d="M445 210a18 18 0 00-2 1l-1 1a15 15 0 00-2 3h1a4 4 0 002-2c3-2 3-3 2-3z"/><path class="h" d="M458 211a25 25 0 000 3l5-2-5-1zm0 0c0-1 9 1 4 2-3 0-6 4-4-2z"/><path class="k" d="M458 211v3l2-1c2-1 5 0 3-2h-5z"/><path class="n" d="M384 245c-5 4-8 5-4 11 2 2 6 7 8 3l7-6 3-3c5-4 5-8 0-13-3-2-5 0-8 2a31 31 0 00-6 6zm0 0l6-6c3-2 5-5 8-2 6 5 5 9 0 13l-3 3c-2 3-5 3-6 6-3 4-7 0-9-3-4-6-1-7 4-11z"/><path class="l" d="M384 245l-5 5c-2 4 7 15 9 9 2-3 6-3 8-7 1-2 11-6 3-14-2-2-3-3-6-1l-9 8z"/><path class="m" d="M384 245a9 9 0 01-1 0c2 6-1 4-2 2a12 12 0 00-2 3 3 3 0 00-1 2c3 4 9 9 9 5 1-3 7-4 5-7-4-4-5-7-5-9a18 18 0 00-3 4zm17-4s-2 0-1 5c0 3-4 4-4 2l-1-3c1 7-3 4-4 2l-3-6 5-4c3-2 4-1 6 1a14 14 0 012 3z"/><path class="o" d="M379 250l2-3 1 1c1 2 2 2 3 0a5 5 0 000-2c1 1 0 3-1 4s-2 0-3-1l-2 1zm2-2z"/><path class="n" d="M342 261c-5 5-8 6-4 12 2 2 6 6 8 2 2-3 5-3 7-5 1-3 0-2 3-3 5-5 5-8 0-13-3-3-5 0-8 2a30 30 0 00-6 5zm0 0c2-3 4-3 6-5 3-2 5-5 8-2 5 4 5 8 0 13l-3 3-7 6c-2 4-6-1-8-3-4-6-1-8 4-12z"/><path class="l" d="M342 261c0 1-4 3-5 6-2 4 7 14 9 8 2-3 6-3 8-7 0-1 11-5 3-14-2-1-3-3-6 0l-9 7z"/><path class="m" d="M342 261a11 11 0 01-1 1c2 5-1 3-2 2a12 12 0 00-2 3 3 3 0 00-1 1c3 4 9 9 9 6s7-5 5-7c-4-4-5-8-5-9a18 18 0 00-3 3zm17-4c0 1-2 1-1 5 0 4-4 5-4 2 0-1-2-8-1-2 1 7-3 4-4 2l-3-6 5-4c3-3 4-1 6 0a14 14 0 012 3z"/><path class="o" d="M337 267l2-3 1 1h2a5 5 0 001-2c1 1 0 3-1 4s-3-1-3-2l-2 2zm2-2z"/><path class="n" d="M413 237c-6 5-7 6-12 2-2-3-3-4-1-8l7-6c2-1 7 1 10 1 1 0 3 3 1 6l-5 5zm0 0a40 40 0 005-4c3-4 1-8-1-8l-10-1-7 7c-2 4-2 5 1 8 5 4 7 4 12-2z"/><path class="l" d="M413 237c-3 3-4 5-8 5-1 0-7-5-6-8 2-6 2-4 7-9 2-2 7 1 11 0l2 3c1 3-3 7-6 9z"/><path class="m" d="M404 241c-3-2-6-5-5-7 2-6 2-4 7-9a3 3 0 011-1c2 1 3 3 4 1h1a18 18 0 005 0c2 8-3 6-5 9-1 3-4 1-5 5a3 3 0 01-3 2zm-2-9c-3 3 2 5 1 2l1-2h-2z"/><path class="o" d="M402 230l4-5c2-1 2 2 3 2l2-1c-1 1-2 2-4 1s-4 2-5 3z"/><path class="n" d="M491 206c-5 5-7 6-11 1-3-2-3-3-1-8l6-6c2-1 7 1 10 1 2 0 3 3 2 6l-6 6zm0 0a40 40 0 005-5c3-3 1-7-1-7-3 0-8-2-10-1l-7 6c-2 5-1 6 1 8 5 5 7 4 12-1z"/><path class="l" d="M491 206c-3 3-4 4-7 4-2 0-8-5-7-7 2-6 2-4 7-9 2-3 8 0 11 0l2 2c1 4-3 7-6 10z"/><path class="m" d="M482 209c-2-1-5-4-5-6 2-6 2-4 7-9a3 3 0 012-1c1 1 2 3 4 1v-1a18 18 0 005 1c2 7-3 5-5 8-1 3-4 2-5 5a3 3 0 01-3 2zm-2-9c-3 3 2 6 1 3l1-3h-1z"/><path class="o" d="M480 198c1-1 3-4 5-4s1 2 3 1h2c-2 1-3 2-5 0s-4 2-5 3z"/><path class="n" d="M426 207c-4 5-13 8-7 16 1 2 5 4 7 1 4-4 17-12 18-16 0-1-5-13-11-7l-7 6zm0 0a81 81 0 017-7c6-5 11 5 11 8 0 4-14 13-17 16-4 5-10-1-10-5 0-5 6-9 9-12z"/><path class="l" d="M426 207c0 1-8 6-9 9-2 6 6 13 9 8 3-3 19-13 18-16-1-4-6-12-11-8l-7 7z"/><path class="m" d="M421 219c2-5 9-7 3-2 0 0-4 5-4 2h1zm5-12c0 1-8 6-9 9a8 8 0 002 8 3 3 0 004-1l4-4c5-3 5-6 7-11 0-3 7-5 5-4-3 3-7 6-4 10 1 1 7-5 9-7-2-4-6-11-11-7l-7 7z"/><path class="o" d="M428 217l3-7c1-2 3-6 5-6a5 5 0 002-1l-1 1c-2 1-4 3-4 5-1 4-1 5-5 8z"/><path class="e" d="M406 208l6-8c2-2 10-11 13-10l5 5c4 3 1 4-2 7l-8 9c-5 4-8 8-13 3-2-3-3-3-1-6zm0 0c-2 3-1 3 2 7 5 3 8-1 11-4l9-9c2-3 5-4 2-7l-5-5c-3-1-10 7-11 9-3 3-6 5-8 9z"/><path class="k" d="M406 208l5-7c2-2 11-11 13-11s4 4 6 5 2 3 1 4c-4 3-8 10-12 12-2 2-6 8-11 4l-2-2c-1-2-2-3 0-5z"/><path class="g" d="M406 208l5-7c2-2 11-11 13-11s4 4 6 5a2 2 0 012 2 39 39 0 01-4 5l-2 1h-1c-1 1-4 0-3-1v-2c0-1 1 0 0 0l3-3 1-1v-2c-1-1-1 1-1 1a7 7 0 01-2 2l-3 4-1 3-5 7c-1 2-4 3-7 3l-1-1c-1-2-2-3 0-5z"/><path class="p" d="M406 212c-1-3 2-5 3-7 3-4 2-5 6-8a17 17 0 016-3l1-1-2 2c-4 2-7 5-9 9-2 3-4 4-5 8z"/><path class="e" d="M406 268c2 1 8 5 6 8-4 4-19 19-23 15-1-1-5-4-4-6 1-3 17-16 20-18a8 8 0 011 1zm0 0a5 5 0 00-1-1c-3 2-19 15-20 18-1 2 2 5 3 6 5 5 20-10 24-15 3-3-4-7-6-8z"/><path class="l" d="M406 268c2 1 8 5 6 8-3 4-19 20-24 15-5-6-5-5 5-14l12-10a6 6 0 011 1z"/><path class="m" d="M406 268l2 1a1 1 0 010 1c-3 2 3 4-4 5-3 5-4 4-9 6-3 1 0 8 2 2 1-3 2-1 4-3 1-2 0 3-2 4-1 1 0 3 2 3-5 3-10 6-13 4-3-5-5-5 0-9l2-2 3-3 12-10a7 7 0 011 1zm5 3c-2 0-3 0-3 2l-3 4c5 3 4 1 2 4l5-5c1-1 0-3-1-5z"/><path class="o" d="M386 287c1-6 2-3 3-5l2-3a58 58 0 019-6l-9 8-1 2c-2 2-2-1-4 4z"/><path class="h" d="M425 264c-1-3-6-9-10-8l-4 4c-2 1-4 2-3 6 3 7 11 7 16 1zm0 0l-1 3c-5 6-13 7-16-1-2-4 0-4 2-6s3-5 7-4 7 5 8 8z"/><path class="i" d="M425 264c-1-3-9-13-13-6-1 4-8 3-3 10s13 3 16-4z"/><path class="j" d="M420 258c-3-2-6-3-8 0-1 3-7 3-4 8 2-1 1-3 6 2 2 2-2 1-4 1a7 7 0 005 3 4 4 0 002-5c-1-3 5-6 3-9z"/><path class="q" d="M416 268a10 10 0 012-6l1-4v1c1 3 0 3-1 5l-2 4z"/><path class="h" d="M447 244c-1-2-5-10-8-7l-11 9-5 5c-2 3-3 3 0 6 1 2 3 5 5 4l5-4c3-2 5-4 7-8l7-5zm0 0l-7 5c-2 4-4 6-7 8-2 2-4 5-6 5s-5-5-6-6c-2-3 0-3 2-6l5-5 11-8c4-3 7 5 8 7z"/><path class="i" d="M447 244c-1-3-5-10-8-7l-11 8c-3 3-3 2-5 6-2 1-4 2 0 7 3 3 3 6 7 1 2-2 9-6 10-10l7-5z"/><path class="j" d="M444 240c-1-3-3-5-5-3l-11 8c-3 3-3 2-5 6-2 1-4 2 0 7l1 2 3-1c1-5 10-8 9-9 0-3 1-3-2-3h-5c-4-1 10-1 10-3 0-4 4-3 5-4z"/><path class="q" d="M433 244h5c0-1 2-5 4-4-3 1-2 3-4 4h-5z"/><path class="h" d="M468 215l6 4c1 0 8-4 7-6 0-2-4-8-7-7-1 0-11 5-6 9zm0 0c-6-2 3-9 6-10s7 5 8 7c1 3-5 6-7 7s-6-3-7-4z"/><path class="i" d="M468 215l4 3c1 0 1 2 2 1l8-5c1-2-3-5-3-6-1-1-3-3-5-2-7 3-9 7-6 9z"/><path class="j" d="M480 211l-2-2c0-1-2-4-4-3-6 3-9 6-7 8l4 3c1 2 7-2 6-4 0 0 0-3 2 0l1-2z"/><path class="q" d="M469 212c-1-1 2-4 2-4a8 8 0 015-1l-3 1-4 4z"/><path class="e" d="M469 190c2 1 7 6 5 9l-4 6-5 4c-2 2-4 2-6 2-8-1-8-6-2-10l9-8a12 12 0 003-3zm0 0a15 15 0 01-3 3l-9 7c-6 5-6 11 2 11l6-1 5-5c4-3 3-4 4-6 3-2-3-8-5-9z"/><path class="k" d="M469 190c2 1 8 7 5 9-1 1 0 3-5 7s-3 5-10 5c-6 0-8-4-5-8s7-5 12-10l3-3z"/><path class="g" d="M469 190l6 6h-2l-4 5c-2 3-5 3-6 7 0 6-9-1-9-3 1-4 2-3 3-5 3-2 6-3 9-7l3-3z"/><path class="p" d="M455 206c0-5 1-2 2-4l2-3a48 48 0 018-5l-8 7-1 2c-2 1-2-1-3 3z"/><path class="h" d="M384 225c-1 3-1 3-4 5-2 1-6 4-5 6l1 3 5 5c6-2 7-5 10-8a69 69 0 018-7c1-1 6-5 5-6l-7-7c-2-1-6 2-7 3a53 53 0 00-6 6zm0 0a41 41 0 016-6c1-1 4-5 7-4l7 7c1 2-3 6-4 7a75 75 0 00-9 7c-3 3-4 7-10 8-2 1-5-3-6-5l-1-3c0-3 4-5 6-6 3-2 3-2 4-5z"/><path class="i" d="M384 225c-1 3 0 2-3 4l-3 2c-2 2-5 3-3 7 1 1-1 1 3 4 3 2 2 2 5 1 4-1 5-4 8-7l8-7a22 22 0 005-4c1-2-1-3-2-5l-3-2c-3-4-3-4-8 0l-7 7z"/><path class="j" d="M380 230a16 16 0 00-2 1c-2 2-5 3-3 7 2 1 4 2 5 1 3-2 6-3 7-6v-4l5-4 6-8c-2-3-3-2-7 1l-4 4c-1 4-1 5-7 8zm23-4a6 6 0 01-2 1c-7 1-8 5-12 10-1 1-7 5-9 3 3-3 4-1 8-5 3-4-2-3 6-10l6-6 2 1c1 2 3 3 2 5z"/><path class="q" d="M397 217c-2-1-2-1-4 1s-2 4-5 6a17 17 0 01-4 4l3-4 4-5c1-1 5-5 6-2z"/><path class="h" d="M360 282c1-3 1-2 4-4 2-2 6-4 5-7l-1-3c0-2-4-5-5-4-6 1-7 4-10 8a70 70 0 01-8 7c-1 1-6 4-5 6l8 7c1 1 5-3 6-4a54 54 0 006-6zm0 0a42 42 0 01-6 6c-1 2-4 5-7 4l-7-7c-1-2 3-6 4-6a76 76 0 009-7c3-4 4-7 10-9 2 0 5 4 6 5l1 3c0 3-4 6-6 7-3 2-3 1-4 4z"/><path class="i" d="M360 282l3-3 3-3c2-2 5-3 3-6-1-2 1-2-3-5-2-2-2-2-5-1-4 2-5 5-8 8l-8 7a22 22 0 00-5 4c-1 2 2 3 3 4l2 2c3 4 3 4 8 0l7-7z"/><path class="j" d="M364 278a14 14 0 002-2c2-2 5-3 3-6v-1l-5-1c-3 3-6 3-7 7v3c-1 1-3 4-5 4-2 1-4 6-6 9 2 2 3 2 7-2l4-3c1-4 1-6 7-8zm-23 4a6 6 0 012-1c7-1 8-6 12-11 1-1 8-5 9-3-3 3-4 1-8 6-3 4 2 2-6 9-1 1-3 6-6 7l-1-2c-1-1-4-2-3-4l1-1z"/><path class="q" d="M347 290c2 2 2 2 4 0l5-7a17 17 0 014-3l-3 4-4 5c-1 2-5 5-6 1z"/><path class="e" d="M396 253c-2 4-3 4-7 7s-3 6 0 9c2 3 5 6 8 3l2-2c4-2 6-3 7-8 1-3 8-7 8-8-5-12-11-5-17-2a2 2 0 00-1 1zm0 0a1 1 0 011-1c6-4 12-10 17 1 1 2-6 7-7 10-2 5-3 5-8 7l-2 2c-3 3-6 1-8-2-3-5-4-7 0-10l7-7z"/><path class="k" d="M396 253c-4 7-11 7-9 13 2 4 7 11 11 5 0-1 7-3 8-9 1-2 9-7 8-8-5-12-11-5-17-2a4 4 0 00-1 1z"/><path class="g" d="M396 253l-1 1a28 28 0 013 9v4l-1-4a19 19 0 00-3-8c-4 5-9 6-7 11 5 11 13 8 12-4 0-3-2-6 2-5l7 3 2-2c-2 1-4-6-8-8-2-1-4 4-6 3zm8 14c-2-2-2-8 2-4a9 9 0 01-2 4zm2-20c6 1 7 7 4 7-5 0-7-4-7-6a10 10 0 013-1z"/><path class="p" d="M387 265c-2-1 3-5 3-5a22 22 0 002-3l3-3-2 4-5 5-1 2z"/><path class="k" d="M393 273l1-12c1-3-1-3-1-5a6 6 0 011 5l1 3c1 4 3 1 4 5l-4-4c0 4 3 2 3 5-1-3-4-2-3-5l-1-3-1 11zm0-17z"/><path class="e" d="M468 217c1 1 4 3 4 5-1 3-9 9-12 12-2 3-6 9-10 5-3-2-2-1-1-6 1-3 2-8 4-10 2-3 8-8 12-8a5 5 0 013 2zm0 0l-4-2c-4 0-11 7-13 10l-3 12 3 3c4 3 7-3 10-6 2-3 10-9 11-12 1-2-3-4-4-5z"/><path class="k" d="M468 217c1 1 4 3 4 5s-5 6-7 8c-4 3-3 2-6 7-3 3-7 6-9 2-2-1-3 0-1-5 1-3 2-10 4-11 3-3 10-11 15-6z"/><path class="g" d="M448 237a14 14 0 011-3c1-3 2-10 4-11 2-3 8-9 13-7 2 2 3 2-1 8-3 4-4 2-7 6l-9 7z"/><path class="p" d="M450 231c1-4 7-14 12-14h1-1c-5 2-9 10-12 14z"/><path class="e" d="M450 228c1 0 5 2 8 1 3 0 8 4 3 1h-7c-3-1-2-2 0 3l-2-4-2-1zM434 197l-6-6c-3-4 1-6 4-9 2-1 12-13 14-12l5 5c2 1 5 3 3 5l-10 9c-1 1-9 9-10 8zm0 0c1 1 9-7 10-8l9-9c2-2 0-4-2-5l-5-5-13 12c-4 4-8 5-3 11l4 4z"/><path class="k" d="M434 197c-1-2-4-3-6-7s0-4 3-7l8-8 7-5 5 5c2 0 5 3 3 5a172 172 0 00-14 12c0 1-5 6-6 5z"/><path class="g" d="M431 184v-1l8-8 7-5a8 8 0 011 1l1 3c3 1 3 0 4 3 1 4-2 4-3 3-3-2-3 3-4 6l-9 8c-3 1-4 0-5-1-3-3-2-5-2-5l2-4zm2 3a8 8 0 011-2v-1a1 1 0 01-1 0c-1 0-3 7 0 3zm14-6s-2 2 0 3c0 0 2-1 1-3h-1z"/><path class="p" d="M436 180c-1-1 8-7 9-7l-1 1-8 6z"/><path class="k" d="M432 194a6 6 0 000-2c0-2 2-4 3-5l-1 1c0 1-2 1-2 3v3z"/><path class="e" d="M371 314c-2-2-5-3-6-6-3-4 1-5 4-8 2-2 12-13 14-13l5 5c2 1 5 4 2 6l-10 9s-8 9-9 7zm0 0c1 1 8-7 9-8l10-8c2-2 0-5-2-6l-6-4c-1-1-10 9-12 11-4 5-9 5-3 11l4 4z"/><path class="k" d="M371 314l-6-6c-2-3 0-4 3-7l8-8c2-2 5-6 6-5 2 0 4 3 6 4 1 1 4 4 2 6a178 178 0 00-13 12c-1 0-5 5-6 4z"/><path class="g" d="M367 301h1l8-8c2-2 5-6 6-5a9 9 0 012 1v2c4 1 4 0 5 4 1 3-2 4-3 3-4-3-4 2-4 5l-10 9c-2 1-3 0-5-2-3-3-1-5-2-5l2-4zm3 3a8 8 0 011-2v-1a1 1 0 01-2 1s-2 6 1 2zm14-6c0 1-3 2-1 3 1 1 3 0 2-2l-1-1z"/><path class="p" d="M372 298l10-8-1 1-9 7z"/><path class="k" d="M368 312a6 6 0 000-3c0-2 3-4 3-4l-2 4v3h-1zM450 228c1 0 5 2 8 1 3 0 8 4 3 1h-7c-3-1-2-2 0 3l-2-4-2-1z"/><use class="c" transform="rotate(-1 36971 -4113) scale(.09)" xlink:href="#c"/><path class="d" d="M261 727l-1-10v-12l-1-10a13 13 0 00-7-7c-7-3-15-1-22 0a75 75 0 01-11-1 34 34 0 00-6 0 40 40 0 00-5 1 23 23 0 01-6 0h-17a4 4 0 00-1 0h-36l-12 1a4 4 0 000 1 31 31 0 00-6-1 35 35 0 01-7 0 38 38 0 00-7-1l-8 1h-7a12 12 0 00-5 1 7 7 0 01-1 2l-1 8c-1 2-4 5-6 3v1a7 7 0 011 2 21 21 0 010 5c-1 3 1 7 2 10a2 2 0 010 2l-1 1a2 2 0 011 2 10 10 0 01-2 4 28 28 0 00-1 4 11 11 0 000 3 19 19 0 002 6 5 5 0 005 0 22 22 0 0110-2l11 1 24 1 25-1 50-1 25-1h13a8 8 0 005-2 8 8 0 002-5v-2a3 3 0 001-4z"/><path class="e" d="M129 688c-4 0-8-1-8 4l-1 6c0 3 8 2 10 2s12 0 12-2c0-1 1-8-1-9-3-2-6-1-8-1zm0 0h12c2 2 1 8 1 10 0 3-10 2-12 2s-10 1-10-2l1-6c0-5 4-4 8-4z"/><path class="f" d="M129 688c-4 0-9-1-8 4 0 6-5 8 8 8 2 0 13 1 13-2v-7c0-2-1-3-3-3a9 9 0 00-4 0 41 41 0 01-6 0z"/><path class="g" d="M129 688c-3 0-6-1-7 1a3 3 0 00-1 2l1 4c2 2 1 3 6 3h9c2-1 3 5 4-2 1-2 0-6-1-8h-1a9 9 0 00-4 0 41 41 0 01-6 0zm8 2v1h-3l3-1zm2 5v1c-2-2 0-1 0-1zm-17 1c1 1 1 3 3 3l-4-1c0-1 0-3 1-2z"/><path class="h" d="M176 691l1 9s5 3 5 0v-12c-1-1-7-4-6 3zm0 0c-2-6 4-5 6-3v12c0 3-4 1-5 0l-1-9z"/><path class="i" d="M176 691v6l1 3c2 1 2 2 5 1v-7c1-2 0-6-1-6-4-3-6-1-5 3z"/><path class="j" d="M183 691l-2-3c-3-2-5-2-5 0a18 18 0 010 2l1 6c0 4 1 2 2 3a2 2 0 003-1v-3a21 21 0 001-4z"/><path class="h" d="M89 721l-1 9s4 3 5 1 3-10 2-12c0-1-5-5-6 2zm0 0c0-6 5-4 7-2 1 2-2 10-2 12-1 3-5 0-6-1s1-8 1-9z"/><path class="i" d="M89 721l-1 6v3c2 1 2 2 5 2l2-7v-6c-3-4-6-2-6 2z"/><path class="j" d="M96 722l-1-3c-2-3-4-3-5-1a15 15 0 010 2l-1 6c-1 3 1 2 1 3a2 2 0 003 0l2-3a20 20 0 001-4z"/><path class="e" d="M181 729c-8 2-8-1-15-1-4 0 0-15 6-12l3 1c1 0 7-1 8 1l-1 7-1 4zm0 0l1-4 1-7-4-1-7-1c-6-2-9 12-6 12 7 0 7 2 15 1z"/><path class="k" d="M181 729c-7 2-9-1-15-1-3 0 0-16 6-11h7c4 1 5-1 3 7l-1 5z"/><path class="g" d="M165 726c-1-4 2-13 7-9h7l4 1a1 1 0 01-1 1c-4-1-2 2-2 2a3 3 0 003 1l-1 2a31 31 0 010 4 5 5 0 01-3-1c-1-1-2-8-1 0-4 1-3-4-3-5 0-7-2-2-3 0-4 7 1-3 0-3-1-2-3 2-3 3-2 4-3 5-4 4z"/><path class="h" d="M212 729c-3 1-10 3-9-3v-5c0-4 2-3 6-3 2-1 12-4 12-1 0 2 1 9-1 10a31 31 0 01-4 1l-4 1zm0 0l4-1 4-1c2-1 1-9 1-10-1-2-11 1-13 1-8 1-3 2-4 7-2 7 3 5 8 4z"/><path class="i" d="M212 729c-2 0-11 3-9-4 2-4-3-7 5-7 3 0 13-4 13-1 1 13 0 9-8 12a5 5 0 01-1 0z"/><path class="j" d="M210 718l4-1a6 6 0 01-1 2c0 1 3 4 5-3l3 1v2a19 19 0 00-1 4c0 3-4 5-7 4-1 0-10 4-7-1-2-3-2-4 1-6 0-3 1 1 3-2z"/><path class="h" d="M254 713c-3 1-10 2-9-3l1-5c-1-4 2-3 6-4 1 0 11-3 11 0 1 2 2 9-1 10a32 32 0 01-4 1l-4 1zm0 0l4-1 5-1v-10c0-2-11 1-13 1-7 1-3 2-4 7-2 6 3 5 8 4z"/><path class="i" d="M254 713c-2 0-11 3-8-4 1-4-3-7 4-7 3 0 13-4 13-1 2 13 0 9-7 12a4 4 0 01-2 0z"/><path class="j" d="M253 701l3-1a6 6 0 010 3c-1 1 3 4 5-3l2 1 1 2a18 18 0 00-1 4c-1 3-5 5-8 4-1-1-9 3-7-2-1-2-1-3 2-5-1-3 0 0 3-3z"/><path class="e" d="M129 726c3-7 4-9-6-9-8 0-6 1-7 6l2 4c2 1 9 0 11-1zm0 0c-2 2-11 2-11 1a1 1 0 01-1 0c-2-2-2-2-1-4 0-5-1-7 7-6 10 0 10 2 6 9z"/><path class="l" d="M129 726c2-4 5-8-2-9-13-1-10 0-11 8l2 2c0 1 10 1 11-1z"/><path class="m" d="M131 721c1-2 0-4-4-4-11-1-10 0-11 5a1 1 0 001 0c6 1 2 3 8 2l2-1c2 1 3 0 4-2zm-5-2c1 0 2 1 0 1-7 0-5-2 0-1z"/><path class="e" d="M261 725c3-7 3-9-7-9-7 0-6 1-7 6l2 4c2 1 10 0 12-1zm0 0c-2 2-11 2-12 1l-2-4c1-5-1-7 7-6 10 0 10 2 7 9z"/><path class="l" d="M261 725c1-4 5-8-3-9-12-1-10 1-11 8l2 2c0 1 10 1 12-1z"/><path class="m" d="M263 720c0-2-1-4-5-4-11-1-10 0-11 5a1 1 0 001 0c7 1 3 3 9 2 2-1 1-2 2-1s3 0 4-2zm-5-2v1c-8 0-6-2 0-1z"/><path class="e" d="M185 721h15c1-2-3-5-5-5h-4c-7 1-4 1-7 4l1 1zm0 0l-1-1c3-3 0-4 7-4h4c3 0 8 4 4 5h-14z"/><path class="k" d="M185 721c7 1 19 1 14-3-3-3-4-2-8-2-7 0-4 1-7 4l1 1z"/><path class="g" d="M200 720l-1-2c-3-3-4-2-8-2-7 0-4 1-6 3h7c7 4 2-2 6 0a4 4 0 002 1z"/><path class="h" d="M127 704c-3 2-6-1-6 3l-1 5c0 3 6 2 7 2 4 1 6 2 7-3l-1-8c-1-1-5 1-6 1zm0 0c1 0 6-3 7-1v8c0 5-3 4-7 4-1-1-7 0-7-3l1-5c0-4 3-1 6-3z"/><path class="j" d="M127 704c-3 2-6-2-6 5 0 1-4 6 5 5 2 0 9 4 8-7-1-3 1-6-6-3h-1z"/><path class="i" d="M127 704c-3 2-5-1-6 2a6 6 0 010 1v2l-1 2c2 2 9 0 11 2 1 2 2-1 3-2a20 20 0 000-4 3 3 0 00-4 0c-1 0-2-1-2-3a6 6 0 00-1 0z"/><path class="e" d="M114 731c-7 1-8-1-15-1-3 0 0-16 6-13l3 1 7 1v7l-1 5zm0 0l1-5v-7l-3-1h-7c-6-3-8 11-6 11l15 2z"/><path class="l" d="M114 731c-7 1-9-2-15-1-3 0 0-16 6-12h7c4 1 4-1 3 7l-1 6z"/><path class="m" d="M100 721c1-3 3-5 5-3h7c3 1 4 0 3 4a7 7 0 01-2 0c-2-1-4 1-5 2-2 4-2 0-2 3-1 1-5-1-4-3l-2-3zm15 3a16 16 0 00-3 0c-3 0-1 2-2 4-1 0 0 3 3 1a14 14 0 001-1l1-3z"/><path class="n" d="M234 714l-14-1-2-7c1-6 10-6 15-6 2 0 12 1 12 4v6l-7 2-4 2zm0 0l4-2 7-2a54 54 0 000-6c0-5-17-4-20-4-8 1-9 7-5 13l14 1z"/><path class="l" d="M234 714l-14-1s-9-12 7-13c3 0 18 0 18 4-1 7 2 6-6 8l-5 2z"/><path class="m" d="M219 711c-2-3-3-9 6-10h1a3 3 0 004-1c4 0 13 0 14 3-2 1 4 5-8 8-4 0-2-2-2-3 2-5-2 2-3 2-5 4-4-5-8-1-1 2-3 2-4 2z"/><path class="e" d="M184 728c4 2 14 4 17 2 2-1-2-6-5-7h-5c-7-1-4 0-7 3v2zm0 0l-1-2c4-3 0-5 8-4l5 1c4 1 9 7 5 8s-12-1-17-3z"/><path class="k" d="M184 728c8 3 22 5 17-1-4-5-5-4-10-4-8-2-4 0-7 3v2z"/><path class="g" d="M201 727c-4-5-5-4-10-4l-2-1a2 2 0 01-1 1 2 2 0 00-3 3c3 3 8-3 12 0 0 3-5 2-6 2 0 2 9 1 9 1l1-2z"/><path class="e" d="M247 697c4 1 13 2 13-2 1-3-6-10-9-10l-3 1c-6 0-3 1-3 7l2 4zm0 0l-2-4c-1-6-4-7 2-7l4-1c3 0 11 8 9 11s-8 2-13 1z"/><path class="k" d="M247 697c8 3 19 1 10-7-6-7-6-4-9-4-7 0-3 2-3 7l2 4z"/><path class="g" d="M257 689c-6-6-6-3-9-3h-2v1c-2 1 0 5 0 6 4 5 3-7 8-3 3 5-2 4-3 4 2 3 7-1 7-1 2 1 0-1-1-4z"/><path class="h" d="M188 700l-4-1c-2-2 0 1 0 2l-1 1c1 1 2 0 3-1h2a3 3 0 001-1h-1zm0 0a1 1 0 001 0c2 0 0 2-2 1l-3 2c-2 1-1-2 0-2-1-1-2-4 0-3 3 3 1 1 4 2z"/><path class="i" d="M188 700c-3-1-1 1-4-2-2-1 0 2 0 3l-1 2 3-2h2c0 1 3-1 1-1a1 1 0 01-1 0z"/><path class="h" d="M188 702h-1v1c-2 3-2 7-5 3-1-1-2-2 0-3s-1 2 3 0l2-1zm-1 0a3 3 0 00-1 0c-1 1-3 3-4 1 0 0-2 1 0 2s2 4 4 0l1-3zm0 0z"/><path class="i" d="M188 702h-2l-3 1c0-1-4 1-1 2 1 1 2 5 4 1a22 22 0 011-4z"/><path class="h" d="M158 701c0-2 6-1 7-1 4 0-1 3-3 2l-4-1zm0 0c4 1 5 2 8 0a4 4 0 00-1 0h-7z"/><path class="k" d="M158 701l7-1 1 1c-3 2-4 1-8 0z"/><path class="h" d="M97 724c1 1-1 6-1 7 0 4-2 0-1-3l2-4zm0 0h-1c-1 5-2 5 0 8a4 4 0 000-1c0-1 2-6 1-7z"/><path class="k" d="M97 724c1 1-1 6-1 7v2c-3-4-1-5 0-9h1z"/><path class="h" d="M205 715c2 0 2 0 1 2s-4-1-7-1c-2 0-5-1 0-1h6zm0 0a22 22 0 01-6 0c-6-1-3 1 0 2l5 1c3 1 4-4 1-3z"/><path class="k" d="M205 715c1 0 2-1 2 2-2 3-5-1-8-1s-5-2 0-1a18 18 0 006 0z"/><path class="h" d="M200 721a20 20 0 00-3 1l5 4c1-1-1-4-2-5zm0 0c2 0 4 8 1 4-2-2-7-3-1-4z"/><path class="k" d="M200 721l-3 1 2 2c2 1 3 4 3 1l-2-4z"/><path class="h" d="M260 727a21 21 0 00-3 1c2 1 2 0 5 3l-2-4zm0 0c1-1 4 7 1 4-2-2-7-4-1-4z"/><path class="k" d="M260 727l-3 1 2 1c2 1 3 4 3 2l-2-4z"/><path class="h" d="M195 733l2 3h2c1 0 7-3 5-4h-7l-2 1zm0 0h1c1-2 4-1 6-1 4 1-1 2-2 3l-3 1c0-2-1-2-2-3z"/><path class="i" d="M195 733c1 1 2 1 2 3l5-1c0-1 4-3 0-3-1 0-5-2-6 1h-1z"/><path class="e" d="M106 715h9l6 1c0 1-14 2-16 1s-1-1 1-2zm0 0c-2 1-3 1-1 2l16-1-5-1a24 24 0 00-3 0h-7z"/><path class="l" d="M106 715h8a18 18 0 005 0c3 0 4 1-2 2h-12s-2-1 0-1l1-1z"/><path class="h" d="M134 717a25 25 0 00-3-1l1 5a3 3 0 000 1l2-5zm0 0c1 1-2 9-2 4 0-3-3-8 2-4z"/><path class="k" d="M134 717l-3-1 1 2c1 2-1 5 1 4 0 0 2-4 1-5z"/><path class="h" d="M131 730a22 22 0 002 1l-1-6a4 4 0 000-1c-1 0-2 5-1 6zm0 0c-2-1 1-11 2-5 0 4 3 9-2 5z"/><path class="k" d="M131 730s2 2 3 1l-1-3c-1-2 0-6-2-4v6z"/><path class="n" d="M123 704l3-3 5-1c1 0 3 1 1 1a48 48 0 01-6 3h-3zm0 0h3l6-3a7 7 0 00-1 0h-5l-3 3z"/><path class="l" d="M123 704l3-3h5s4-1 0 1a14 14 0 01-2 1l-3 1a3 3 0 01-1 0h-2z"/><path class="e" d="M124 715l5 1c1 0 1 2-1 1h-2s-5-1-4-2h1a1 1 0 011 0zm0 0h-2c-1 1 5 1 5 1a2 2 0 002 0l-5-1z"/><path class="k" d="M124 715l4 1c1 0 3 1 0 1l-2-1h-3c-2 0-1-1 0-1z"/><path class="e" d="M100 731h5c1 0 1 2-1 1h-2s-5 0-4-1h2zm0 0h-1l4 1a2 2 0 002 0v-1h-5z"/><path class="k" d="M100 731h4c1 0 3 2 0 1h-2-3c-2 0-1-2 1-1z"/><path class="h" d="M98 716a45 45 0 000 5c1-1 1-3 4-5h-3l-1-1zm4 0zm-4 0h3c1-1 1 0 1 1-3 1-2 2-4 4v-5z"/><path class="i" d="M98 716v5c0-1 2-4 4-4 0 0 0-2-1-1h-3z"/><path class="h" d="M158 716l3-1 2 1a9 9 0 002 1c2 0 0 3 0 3l-4-3-3-1zm0 0c0 1 3 0 5 2l2 2v-3a8 8 0 01-2 0l-2-1h-3zm7 4"/><path class="i" d="M158 716l3-1 2 1a6 6 0 002 1v3l-3-2a10 10 0 00-3-2h-1z"/><path class="h" d="M160 714c1 1 3 2 4 1l2 1-2-1c-2-2-1-3-3-1zm0 0a3 3 0 011-1h2c2 3 3 1 3 3h-2l-4-2z"/><path class="i" d="M160 714l3 2h3l-1-1c-2 0-2-3-3-2l-2 1z"/><path class="e" d="M135 701v4l2-3a2 2 0 000-1h-2zm0 4v-4h1c3-1 1 1 1 1l-2 3v-4z"/><path class="k" d="M135 701v3l1-2c1-1 2-1 0-1h-1z"/><path class="e" d="M120 701v3s0-2 2-3h-2zm0 3v-3h1c3-1 0 1 0 1l-1 3v-4z"/><path class="k" d="M120 701v3l1-2c1-1 2-1 0-1h-1z"/><path class="h" d="M134 713c1 1-2 2 1 3 2 1 0-3-1-3zm0 0c1-1 2 2 2 2 1 1 0 2-1 2-3-1-1-3-1-4z"/><path class="i" d="M134 713c1 1-2 2 1 4 1 0 2 0 1-2l-2-2z"/><path class="e" d="M181 716l3-4c1-1 1-1 3 1l1 1-3 3-2-1h-2zm0 0h2s1 2 2 1l2-3-1-1c-1-1-1-2-2 0l-3 3z"/><path class="k" d="M181 716l3-4c1-1 1 0 3 1v1l-2 3c-1 2-2-1-2-1h-2z"/><path class="e" d="M163 730c3 1 1 5 3 2 1-2 4-1 3-2l-4-1c-1-1-2 0-2 1zm0 0s0-2 2-1h4c2 2-2 2-2 3-2 3-1 0-4-2z"/><path class="k" d="M163 730c2 1 2 5 3 2 1-2 4-1 3-2l-4-1c-1-1-2 1-2 1z"/><path class="e" d="M182 729l3 1c5 0 6 2 3 1h-3c-3-1-4 0-3-2zm0 0v1l5 1h2a18 18 0 00-4-1l-3-1z"/><path class="k" d="M182 729l3 1 4 1a7 7 0 00-2 0l-5-1v-1z"/><path class="h" d="M221 729l3-1 2 1a9 9 0 002 0v4c-2 0-1-2-5-3l-2-1zm0 0l4 1 3 3v-3a8 8 0 01-2-1l-2-1-3 1zm7 4"/><path class="i" d="M221 729c1-2 1-1 3-1l2 1a6 6 0 002 0v4l-3-3a10 10 0 00-3-1h-1z"/><path class="h" d="M245 712v3h-3s-8 1-6-1l7-3a7 7 0 012 1zm0 0c-3-1-5 1-8 2s2 1 4 1h3l1-3z"/><path class="i" d="M245 712v3h-6s-5 0-2-1c2-1 5-4 8-2z"/><path class="h" d="M236 729l8-1c3-1-1 2-3 2h-5v-1zm0 0l1 1c4 0 5 1 8-2a5 5 0 00-1 0l-8 1z"/><path class="k" d="M236 729l7-1h2c-3 3-4 2-8 2l-1-1z"/><path class="h" d="M239 700c1-2 6-1 7-1 4 0 0 2-2 2l-5-1zm0 0c5 1 5 2 9-1a4 4 0 00-2 0l-7 1z"/><path class="k" d="M239 700c1-2 6-1 7-1l2 1c-4 2-5 1-9 0z"/><path class="h" d="M264 715h-8c-4 1 1-2 3-2l5 2zm0 0l-1-1c-4 0-4-1-8 1a4 4 0 001 0h8z"/><path class="k" d="M264 715h-9c4-3 4-1 8-1l1 1z"/><path class="e" d="M115 732l14-1c2-1-2-3-4-3h-4c-7 0-4 0-6 2v2zm0 0l-1-2c3-2 0-2 7-2h4c3 0 7 2 4 3l-14 1z"/><path class="l" d="M115 732c7 0 19 0 14-3-3-2-4-1-8-1-7 0-4 1-6 2v2z"/><path class="m" d="M130 731l-1-2c-3-2-4-1-8-1-7 0-4 1-6 2h7c7 3 1-2 6 0a4 4 0 002 1z"/><path class="n" d="M215 714l3-1 4 1c2 0 2 1 0 1a37 37 0 01-5 0l-2-1zm0 0l2 1h5a6 6 0 000-1l-4-1-3 1z"/><path class="l" d="M215 714l3-1c1-1 3 1 4 1 0 0 2 1-1 1a9 9 0 01-2 0h-2a2 2 0 01-1 0l-1-1z"/><path class="n" d="M217 709l-1 3h2l1 1-1-2v-1a2 2 0 00-1-1s1 0 0 0zm0 0l1 1 1 2c1 2-1 1-1 0h-2l1-3z"/><path class="l" d="M217 709c0 2 1 1-1 3h3l-1-2-1-1z"/><path class="n" d="M215 701l4 1 3-1 1-2a40 40 0 00-5 1l-3 1zm0 0l3-1h5a7 7 0 01-1 0l-3 2-4-1z"/><path class="l" d="M215 701l3 1 4-2s3-1 0 0a11 11 0 00-2 0h-2a3 3 0 00-1 0l-2 1z"/><path class="h" d="M214 715a21 21 0 00-3 0l-3 1a6 6 0 003 1c1 0 5-1 3-2zm0 0c2 1-1 2-3 2a6 6 0 01-3-1l3-1h3z"/><path class="i" d="M214 715a19 19 0 00-2 0 3 3 0 00-1 0 15 15 0 00-3 1l1 1a4 4 0 002 0c4-1 5-1 3-2z"/><path class="h" d="M224 725a24 24 0 00-2 2l5 1a2 2 0 000 1l-3-4zm0 0c1-1 6 6 2 4-3-2-8-1-2-4z"/><path class="k" d="M224 725l-3 2h3c2 1 4 3 3 1l-3-3z"/><path class="n" d="M146 702c-6 0-9-1-10 6-1 2-1 9 4 7h13c7 0 9-3 8-10 0-4-3-3-7-3a30 30 0 00-8 0zm0 0h8c4 0 7-1 8 3 0 7-2 10-9 10h-13c-5 2-5-4-5-7 1-7 5-6 11-6z"/><path class="l" d="M146 702h-8c-4 2-4 16 2 13h10c2-1 12 3 12-9-1-2-1-4-5-4h-11z"/><path class="m" d="M146 702a12 12 0 01-1 0c-2 5-3 1-3 0a12 12 0 00-4 0 3 3 0 00-1 1c0 5 0 13 3 10 2-2 9 1 8-2 0-6 2-9 3-10a18 18 0 00-5 0zm15 8s-2-1-4 3c-2 3-5 1-4-1 1-1 4-8 1-3-4 6-5 1-4 0 0-1-1-4 1-8l6 1c4 0 4 2 5 4a14 14 0 01-1 4z"/><path class="o" d="M139 703l3-1v1c0 2 0 2 2 2a5 5 0 002-2c0 2-2 3-3 3-2 0-2-2-2-3a6 6 0 01-2 0zm3-1z"/><path class="n" d="M103 687c-6 0-9-1-10 6 0 2 0 9 4 7h13c7 0 9-3 9-10-1-4-4-3-7-3a30 30 0 00-9 0zm0 0h9c3 0 7-1 7 3 1 7-2 10-9 10H97c-4 2-5-4-4-7 1-7 4-7 10-6z"/><path class="l" d="M103 687h-7c-4 2-5 16 1 13h11c1-1 12 3 11-9 0-2 0-4-4-4h-12z"/><path class="m" d="M103 687a12 12 0 01-1 0c-2 5-3 1-2 0a12 12 0 00-4 0 3 3 0 00-2 1c0 5 1 12 4 10 2-2 8 1 8-2-1-6 1-9 2-10a18 18 0 00-5 0zm16 8c-1 0-2-1-5 3-2 3-5 1-4-1 1-1 4-8 1-3-4 6-5 1-4 0l1-8 7 1c4 0 4 2 4 4a14 14 0 010 4z"/><path class="o" d="M96 688c1-1 3-2 4-1a7 7 0 010 1l1 2a5 5 0 002-2c0 2-2 3-3 3-2 0-2-2-2-3a6 6 0 01-2 0zm3-1z"/><path class="n" d="M173 715c-8 0-9 0-10-6 0-4 0-5 4-7h9c2 0 5 5 7 7 1 1 0 4-3 5l-7 1zm0 0a40 40 0 006 0c5-1 6-5 4-7s-4-6-7-7l-9 1c-5 2-5 3-4 7 0 6 2 6 10 6z"/><path class="l" d="M173 715c-5 0-6 1-9-2-1 0-2-8 0-9 5-4 4-2 11-3 3 0 5 6 8 8v3c-1 3-6 3-10 3z"/><path class="m" d="M163 712c0-3-1-7 1-8 5-4 4-2 11-3a3 3 0 012 1c0 1 0 3 2 3h1a17 17 0 003 4c-3 6-6 1-9 3-3 1-4-2-7 0-2 1-3 0-4-1zm5-8c-4 0-2 5-1 2l2-1-1-1z"/><path class="o" d="M169 702c2-1 5-2 6 0s0 2 2 3l2 1c-2-1-4-1-4-3s-4-1-6-1z"/><path class="n" d="M252 742c-7 1-9 0-9-6-1-4 0-5 4-7h9l7 7c1 1 0 5-3 6h-8zm0 0a41 41 0 007 0c4 0 6-5 4-6-2-2-4-7-7-7h-9c-5 2-5 3-5 7 1 6 3 7 10 6z"/><path class="l" d="M252 742c-4 1-6 1-8-1-1-1-2-9 0-10 5-3 4-2 11-2 3-1 5 5 8 7v3c-1 4-6 3-11 3z"/><path class="m" d="M243 739c-1-3-1-7 1-8 5-3 4-2 11-2a3 3 0 012 0c0 1 0 4 2 3h1a18 18 0 003 4c-3 7-6 2-9 3h-11zm5-8c-4 0-3 5-1 2h2l-1-2z"/><path class="o" d="M249 730c2-1 5-2 6-1s0 2 2 3l2 1c-2 0-4 0-4-2s-5-1-6-1z"/><path class="n" d="M202 701c-6 0-15-2-16 7 0 3 1 6 5 6 5-1 21 1 24-1 1-1 5-13-4-13l-9 1zm0 0a80 80 0 0110-1c8 0 5 11 3 13-2 3-19 0-24 1-6 1-6-7-3-11 3-3 10-2 14-2z"/><path class="l" d="M202 701s-10-1-12 1c-6 3-4 13 1 12 4-1 22 2 24-1 2-4 4-13-3-13l-10 1z"/><path class="m" d="M191 706c5-2 11 1 3 0 0 0-6 2-4 0zm11-5s-10-1-12 1a8 8 0 00-4 7 3 3 0 004 2h5c6 0 8-2 12-5 3-2 9 1 7 1-4 0-9 0-9 5h11c1-4 2-12-4-12l-10 1z"/><path class="o" d="M197 710l7-3c2-2 6-3 8-2a5 5 0 002 1l-2-1-6 2c-4 2-4 3-9 3z"/><path class="e" d="M186 688l11-2c2 0 14-1 15 1l1 8c1 4-2 3-6 3l-12 2c-6 0-11 1-11-7 0-3-1-4 2-5zm0 0c-3 1-2 2-2 7 1 6 6 4 11 4l12-1c4-1 7 0 6-3l-1-8c-1-2-11-1-13-1l-13 2z"/><path class="k" d="M186 688l9-1c3-1 16-2 17 0l1 8c1 1 0 3-2 3l-16 2c-3-1-10 1-11-5v-3c0-2 0-3 2-4z"/><path class="g" d="M186 688l9-1c3-1 16-2 17 0l1 8a2 2 0 010 1 40 40 0 01-6 2 4 4 0 01-2 0l-1-1c-2 0-3-2-2-3l2-1h4l2-1 1-1h-1a7 7 0 01-4 1h-4l-3 2c-2 1-6 2-8 1l-7-1v-2c0-2 0-3 2-4z"/><path class="p" d="M184 691c1-3 5-2 7-3 4-1 4-2 9-2a17 17 0 018 1v1l-2-1c-5-1-9 0-13 2-4 1-6 0-9 2z"/><path class="e" d="M148 734c0 2 2 9-2 10-5 0-26 2-27-5l1-6h27a9 9 0 011 1zm0 0a6 6 0 00-1-1c-4-1-24-2-27 0-2 1-1 5-1 6 0 7 22 6 27 5 4-1 2-8 2-10z"/><path class="l" d="M148 734c0 2 2 9-2 10-5 0-27 2-27-5s-1-7 13-7l15 1a7 7 0 011 1z"/><path class="m" d="M148 734v2a1 1 0 01-1 0c-3 0 0 5-6 1-6 3-6 1-11-1-2-1-5 6 1 3h5c2 0-2 2-5 3v2c-6 0-12-1-12-5 0-6-1-7 5-7 0 1 0 2 3 0h5l15 1a7 7 0 011 1zm1 5c-1-1-3-2-4-1-2 3-4 1-4 2 1 5 2 3-2 4h7c2 0 3-2 3-5z"/><path class="o" d="M120 735c4-4 3-1 5-2h4a58 58 0 0111 0l-12 1a15 15 0 01-3 0c-3 0 0-2-5 1z"/><path class="h" d="M164 743c1-3 2-10-2-12-2-2-3 0-6 0s-4-1-5 2c-3 8 3 13 10 11zm0 0l-3 1c-7 3-14-3-11-11 1-3 3-3 6-2s5-3 7 0 2 9 1 12z"/><path class="i" d="M164 743c2-3 1-16-6-12-3 1-7-4-8 5-1 8 8 11 14 7z"/><path class="j" d="M165 735c-1-4-3-6-7-4-3 1-6-3-8 3 2 0 3-2 3 4 0 4-2 0-3 0a7 7 0 002 4 4 4 0 004-2c2-3 7-1 9-5z"/><path class="q" d="M155 740a10 10 0 016-3l2-2v1l-4 3-4 1z"/><path class="h" d="M194 742c0-2 3-10-1-10l-14-1-8 1c-3 0-4 0-4 5 0 1-1 5 1 6h6l11-1h9zm0 0h-9c-4 2-7 1-11 1h-7l-1-8c1-4 2-3 5-4h8l14 1c4 0 1 8 1 10z"/><path class="i" d="M194 742c1-3 3-10-1-10l-14-1h-8c-2 1-5 0-4 6 0 5-2 7 4 6 3 0 11 1 14-1h9z"/><path class="j" d="M195 737c0-2 0-5-2-5l-14-1h-8c-2 1-5 0-4 6v2c0 2 2 2 2 1 4-2 13 1 13 0 1-2 3-2 0-4s-2 0-4-3 8 5 10 4c3-3 5 0 7 0z"/><path class="q" d="M183 734l4 2c1 0 5-2 6 0h-1c-2-1-3 1-5 1l-4-3z"/><path class="h" d="M229 734l2 7s9 3 9 0c1-2 2-8 0-10-1 0-13-3-11 3zm0 0c-3-5 8-5 11-3 3 1 2 8 1 10-1 3-7 1-10 1-2-1-2-7-2-8z"/><path class="i" d="M229 734l1 5 1 2c3 1 5 2 9 1l1-6c1-1 1-5-2-5-8-2-11-1-10 3z"/><path class="j" d="M241 740v-4c0-1 0-4-2-5-7-1-10-1-10 2l1 4c0 3 6 4 7 2 0 0 2-2 1 0 0 2 1 1 3 1z"/><path class="q" d="M232 732c-1-1 3-1 4-1a8 8 0 014 2h-3l-5-1z"/><path class="e" d="M246 716c0 2 1 10-2 10-3 1-3 2-7 2h-7c-2 0-3-1-5-3-6-5-2-9 5-9h12a12 12 0 004-1 2 2 0 000 1zm0 0v-1a15 15 0 01-4 1h-12c-8-1-11 4-5 10 1 1 3 3 5 2h7c4 0 4-1 7-2 3 0 2-8 2-10z"/><path class="k" d="M246 716c0 2 1 10-2 10-2 0-2 2-9 2s-5 2-10-3c-5-3-4-8 2-9h14l5-1z"/><path class="g" d="M246 716v8l-1-1-6 1c-3 1-6-1-9 2-4 4-7-7-5-8 3-3 4-1 6-2h10l5-1z"/><path class="p" d="M225 719c3-4 2-1 4-2h3a47 47 0 0110 0l-11 1h-2c-2 0 0-2-4 1z"/><path class="h" d="M159 687l-6 1c-2 0-7-1-9 1l-1 3c-1 1 0 6 2 7 4 3 7 1 12 0a70 70 0 0111 0c1 1 7 1 7-1l-1-10c0-2-5-2-7-2a52 52 0 00-8 1zm0 0a41 41 0 018-1c2 0 7 0 8 2l1 10c-1 2-6 2-8 2a74 74 0 00-11 0c-5 0-8 2-13 0-2-1-2-7-1-8l1-3c1-2 6-2 9-1l6-1z"/><path class="i" d="M159 687l-5 1h-3c-4 0-7-1-7 3-1 2-2 0-1 5 0 3 0 3 3 4 4 2 7 0 11 0h11a23 23 0 006-1c2 0 1-3 1-4v-3c0-5 0-6-6-6l-10 1z"/><path class="j" d="M153 688a15 15 0 00-2 0c-4 0-7-1-7 3 0 2 2 4 3 4h9l2-3h6c3 1 8-2 11-2 0-3-1-4-6-4h-6c-3 3-4 4-10 2zm20 12a6 6 0 01-3-1c-6-3-9-1-15 0-2 0-9-1-9-3 4-1 4 2 10 1 5-1 0-3 10-4l9-1v3c0 1 2 4-1 4z"/><path class="q" d="M174 689c-1-2-1-2-4-2l-8 2a17 17 0 01-5 0l5-1 6-1c2 0 7-1 6 2z"/><path class="h" d="M103 714l6-1c2 1 7 1 8-1l1-3c0-1 1-6-1-7-5-2-7-1-12 0a70 70 0 01-11 0c-2 0-7-1-8 1l1 10c1 2 6 2 8 2a54 54 0 008-1zm0 0a41 41 0 01-8 1c-2 0-7 1-8-2l-1-10c1-2 6-2 8-2a74 74 0 0011 0c5 0 8-2 12 1 2 1 3 6 2 7l-1 3c-2 3-7 2-9 2h-6z"/><path class="i" d="M103 714l4-1 4 1c3 0 7 1 7-3 0-2 2-1 1-5s-1-4-3-5c-5-1-7 1-11 1l-11-1a22 22 0 00-6 1c-3 0-1 3-1 5v2c0 6 0 6 6 6l10-1z"/><path class="j" d="M109 714a15 15 0 002 0c3 0 7 1 7-3v-1l-3-4h-9c-1 1-1 3-3 3h-6c-2-1-7 2-10 2 0 4 1 4 6 4h5c4-3 5-4 11-2v1zm-20-12a6 6 0 012 0c6 4 10 1 16 0 2 0 9 1 9 3-4 1-4-2-10-1-5 1 0 4-10 4l-9 1v-2c0-2-2-5 1-5h1z"/><path class="q" d="M88 712c0 2 1 2 4 2l7-2a17 17 0 016 0l-5 1-7 2c-3 1-6 0-5-3z"/><path class="e" d="M150 716l-10 1c-4 0-6 2-6 7-1 3 0 7 4 7h3c4 0 6 1 10-1 3-2 11-1 12-2 4-12-5-11-13-12zm0 0c8 1 17 0 13 12-1 2-9 0-12 2-4 3-6 2-11 1h-2c-4 0-5-4-5-7 1-5 2-8 7-8h10z"/><path class="k" d="M150 716c-8 2-14-2-16 4-1 4-2 12 5 11 1-1 7 3 12-1 2-2 11 0 12-2 4-13-6-11-12-12a4 4 0 00-1 0z"/><path class="g" d="M149 716h-1a29 29 0 01-3 8l-3 3 2-3a19 19 0 003-8c-7 1-11-1-13 4-3 12 5 14 12 5 2-3 2-7 4-3l4 7h3c-2-1 1-8-1-11-1-2-6 0-7-2zm-3 16c0-3 4-8 5-2a9 9 0 01-5 2zm15-14c4 4 1 10-1 8-4-4-3-8-2-9a10 10 0 013 1z"/><path class="p" d="M135 719c-1-2 5-2 5-2a23 23 0 004 0c0-1 3-2 4-1l-4 1c-3 2-5 1-7 1l-2 1z"/><path class="k" d="M134 729l8-8c3-2 2-3 3-5a6 6 0 01-2 5l-2 2c-1 4 2 3 0 7v-5a1 1 0 010-1c-2 3 0 4-1 6 1-3-2-4 1-6l1-3-8 8zm11-13z"/><path class="e" d="M227 736l1 6c-3 2-14 1-18 2-3 0-10 2-11-3 0-4-1-3 4-6l9-5c3 0 12 0 14 3a5 5 0 011 3zm0 0l-1-4c-3-3-13-3-16-1l-11 7v4c2 5 8 2 12 2 3-1 14 0 17-2 1-1 0-5-1-6z"/><path class="k" d="M227 736c0 1 2 5 1 6l-11 1-10 1c-3 1-8 1-8-3 0-3-2-3 3-5 2-1 8-6 10-6 4 0 15-1 15 6z"/><path class="g" d="M199 738a14 14 0 013-2c2-1 8-6 10-6 4 0 13-1 15 3 0 3 1 5-7 6h-9l-11-1z"/><path class="p" d="M205 735c3-3 14-7 18-4l1 1h-1c-5-2-13 1-18 3z"/><path class="e" d="M207 733l4 5c3 2 4 8 2 3-1-3-3-3-4-5-2-3-1-3-2 3l1-5-1-1zM215 699v-10c0-4 4-3 8-3 3 0 18-2 18 0l2 7c0 2 1 6-2 6h-26zm0 0h12l14-1c2 0 2-3 1-5l-1-7h-17c-6 1-10-1-9 6v7z"/><path class="k" d="M215 699v-9c1-3 2-4 7-4l11-1 8 1 2 7c0 1 1 6-2 5a175 175 0 00-18 1h-8z"/><path class="g" d="M221 686h1l11-1 8 1a8 8 0 011 2l-2 2c2 3 3 2 1 5-1 4-4 2-4 1-1-5-4-1-6 1h-13c-3 0-3-2-3-4 0-4 2-5 2-5l4-2zm0 4a8 8 0 012-1c2 0 1-1 0-1a1 1 0 01-1 0s-6 3-1 2zm15 5c-1 0-4 0-3 2 0 0 2 1 3-1v-1z"/><path class="p" d="M227 687h12-12z"/><path class="k" d="M215 695a6 6 0 001-2c2-2 5-2 6-1h-1c-1 0-3-1-4 1l-2 2z"/><path class="e" d="M90 746v-9c1-5 4-3 8-4 3 0 18-2 19 0l1 7c1 2 1 6-2 6H90zm0 0h26c3 0 2-4 2-6l-2-7-16 1c-7 0-10-2-10 5v7z"/><path class="k" d="M90 746v-9c1-4 3-3 7-3l12-1h8l1 7c1 2 1 6-2 6a175 175 0 00-18 0h-8z"/><path class="g" d="M96 734h1l12-1h8a8 8 0 010 2l-1 2c2 3 2 2 1 5-2 4-4 2-5 1 0-4-4-1-6 1l-13 1c-2-1-2-3-2-5-1-4 1-4 1-5l4-1zm0 3a8 8 0 012 0l1-1a1 1 0 01-1-1c-1 0-7 3-2 2zm15 5c-1 0-3 0-3 2a2 2 0 003-1v-1z"/><path class="p" d="M103 734h11l-1 1-10-1z"/><path class="k" d="M90 742a6 6 0 002-2l5-1h-1l-4 1-2 2c0-1 0 1 0 0zM207 733l4 5c3 2 4 8 2 3-1-3-3-3-4-5-2-3-1-3-2 3l1-5-1-1z"/><path d="M279 656c2-4 9-3 20-2h28c12 0 12 1 23 2l44 1c7 0 14 2 21 0 2 0 5-1 7 1s2 5 2 7c0 15 3 30 1 45-1 9-3 32-1 53 1 10-2 21-1 31 0 2 1 5-1 7-3 3-10 1-15 0-7-2-19-2-42-2-18 0-18 2-30 1-15-2-16-5-26-5-16 1-24 8-29 4-3-3-3-7-2-12l1-43c2-18 0-14 2-39 1-13 2-24 0-32l-2-13v-4z" fill="#ffe161"/><path class="s" d="M350 800a2 2 0 01-2-1l-1-1v-2-4a3 3 0 010-1l-1-6 2 2a7 7 0 00-1-2 2 2 0 002 0 2 2 0 001 0h-4a3 3 0 011-1 24 24 0 000-3v-1l1-3a33 33 0 00-1-3v-1h-1l1-1a2 2 0 011-1l-1-3v-3a3 3 0 011-3 4 4 0 010-1 41 41 0 01-1-6l-1-4-1-6 3 3v-3a3 3 0 01-1-1v-6l1-3v-1-1a2 2 0 010-1v-2-5a1 1 0 01-1-1 2 2 0 011-1v-3l-1-1a1 1 0 011-1v-2l-1-2a1 1 0 011-1 33 33 0 000-4 2 2 0 010-1 10 10 0 00-2-4l3-1-1-1v-6l1-3a25 25 0 01-1-3v-2l-1-2v-3a3 3 0 011-2v-1l-6 3 5-6 1-3h-1v-3a21 21 0 011-4v-1a28 28 0 000-4l-1-6h1a16 16 0 00-1-3l3-1a19 19 0 012 5l-1 3v2a30 30 0 010 3 1 1 0 011 0 1 1 0 010 2 14 14 0 00-1 3l1 1a14 14 0 00-1 3 7 7 0 010 4 14 14 0 011 2v5h-1v2l1 1a15 15 0 001 5l1 3-2-1a8 8 0 000 1h1v1a2 2 0 01-2 2 10 10 0 002 4h-1v4a29 29 0 010 6 14 14 0 000 3h-1a29 29 0 011 5v1l1 4h-1v7a2 2 0 010 1l-1 5v5l1 1v5l-1 3a2 2 0 01-1 0v1a63 63 0 002 6 2 2 0 010 1l1 4-1-1a2 2 0 01-1 1v10l1 4-1 1a5 5 0 010 1 2 2 0 010 2l-1 1 2 3a17 17 0 010 5h-1v6a2 2 0 01-1 2zm0-37l-1 1a2 2 0 001 0 1 1 0 000-1zm-3 1h1a2 2 0 010-1 2 2 0 00-1 1zm4-75a1 1 0 001-1 1 1 0 010 1zm-3-18z"/><path class="s" d="M337 801a21 21 0 010-3 2 2 0 011-2v-4c-1-4-2-6-1-8a12 12 0 010-4v-2a1 1 0 010-1v-3-2a2 2 0 01-1-3 2 2 0 012-1l-1-6-1-1h1a8 8 0 010-3 3 3 0 010-1 7 7 0 010-1 1 1 0 010-1v-4-2a2 2 0 010-1v-7h1a4 4 0 010-2v-3a3 3 0 01-1 0v-1l1-2a2 2 0 011 0v-1c-3-5-2-9-2-11l1-4-1-5-1-3a1 1 0 010-1 7 7 0 011-1c-2-5-1-7 0-8a2 2 0 010-1v-2a17 17 0 000-3 11 11 0 01-1-5 4 4 0 010-1v-1a2 2 0 011 0v-2l-1-3a8 8 0 011-2 2 2 0 011-3l-1-8v-2a2 2 0 011-1l-1-5v-3l3-3v3l2 12-1 6 1 2 4 9-5-5v-1h-1a31 31 0 000 4v2a4 4 0 010 2 11 11 0 001 4v6a6 6 0 010 2v7l-1-2v1a4 4 0 011 2h-1v4l1 3v-1 2a2 2 0 001 1 1 1 0 010 2 2 2 0 01-1 0v5l-1 1a18 18 0 002 5l1 11-1-2a7 7 0 010 2l-1 4v12a4 4 0 010 1 6 6 0 00-1 3 3 3 0 010 1l1 6v2l1 1v1h-1a3 3 0 010 1v2a22 22 0 010 5l1 5 4 7-5-4 2 6h-2l1 5-1 1zm1-60h1a3 3 0 00-1 0zm2 0h-1a2 2 0 001 0zm-3-33v-1a1 1 0 000 1zM329 799a2 2 0 01-1-1l-1 1v-1-1a1 1 0 010-1v-1-3a3 3 0 010-2l-1-6v-1a1 1 0 011-1l-1-2v-2-1a15 15 0 011-5v-1a29 29 0 000-4 1 1 0 010-1v-1-3-1 1l-1-1 2-2a30 30 0 00-1-6 2 2 0 01-1-1v-1-7 1h1v-1-2-1l-1-2h1a16 16 0 00-2-6v-1h2v-1a12 12 0 010-2v-3h1a11 11 0 00-1-4v-1a2 2 0 01-1-1v-2a2 2 0 011-2v-1a2 2 0 010-2v-3a5 5 0 010-3v-1h-1v-3a4 4 0 010-1 6 6 0 001-3 3 3 0 010-2 7 7 0 000-5 5 5 0 010-2 14 14 0 000-2h1v-4-1a35 35 0 00-3-9l-4-9v-1l5 5a2 2 0 010-2 27 27 0 011-8v-9l1 2h1l2 1v4l-1 2v1a24 24 0 000 6 4 4 0 011 2 13 13 0 011 3v9h-1v-1l1 4v1l1 4-2-1a5 5 0 011 2h-1v1a2 2 0 01-1 1 9 9 0 010 6 3 3 0 000 1 8 8 0 010 4 2 2 0 000 1v2l1 2 1 7-1-1v3l-1 1v3a14 14 0 011 7 18 18 0 000 2v1h-1a15 15 0 001 2 2 2 0 011 1h-2v1a18 18 0 010 2v4a43 43 0 010 7v1a3 3 0 010 2 2 2 0 010 1 33 33 0 011 4v10a1 1 0 010 1v1a29 29 0 010 3 3 3 0 010 1l1 1-1 1a4 4 0 01-1 0v12l1 6v1a40 40 0 000 4v2zm-3-131h1a2 2 0 00-1 0zm3-13h1a2 2 0 001-1z"/><path class="s" d="M318 797a3 3 0 01-2-1v-1h1a3 3 0 011-1v-1a15 15 0 01-1-3 21 21 0 01-1-5v-4a2 2 0 011-1 12 12 0 010-6l-1-3v-1a1 1 0 011-1v-3a3 3 0 010-1v-1a21 21 0 01-1-4v-2l-1-4h1l-1-1v-1h2v-3-1a2 2 0 01-1-1l1-3v-1a5 5 0 010-2v-2l1-3v-1l-1-2v1l-1-6a4 4 0 01-1-2v-5-1l2 3h1v-1l-1-2v-5l-1-3v-6a5 5 0 01-1-2v-1-1-2h1a8 8 0 000-3l2-1h-2v-1-1a2 2 0 010-1v-2-1a1 1 0 010-1v-1-3a3 3 0 011-2v-1-1a25 25 0 000-6l-1-2a2 2 0 011-2 8 8 0 010-2 4 4 0 000-2v-3a17 17 0 01-1-5v-1a3 3 0 010-1 16 16 0 01-1-2l-1-4h1l3 2a3 3 0 011 1h1a11 11 0 010 2 4 4 0 010 1v2l1 5h1v1a2 2 0 01-1 1 6 6 0 010 4 3 3 0 000 2v2a27 27 0 010 7v1a5 5 0 010 1l-1 1h1l-1 1v2a30 30 0 010 4v6l-1 4v1l1 2v8a23 23 0 010 5v1a31 31 0 002 5l1 1v1h-3v2a40 40 0 012 8v5h-1a10 10 0 010 2 6 6 0 000 2v2h-1a2 2 0 011 1v1a36 36 0 001 5l1 7-2-3v1l-1 4a14 14 0 001 3v1h-1l1 3a17 17 0 010 4v1h-1a12 12 0 001 6v1a2 2 0 01-1 2 20 20 0 001 6 3 3 0 011 1h-1a40 40 0 001 5l-1 1h-1a2 2 0 01-2 1zm1-6a3 3 0 001 0 2 2 0 001-1zm-1-49a2 2 0 001 0 3 3 0 001 0zm1-59a2 2 0 011 0zM307 795h-2a3 3 0 011-3 16 16 0 010-2 6 6 0 000-3l3-1a2 2 0 00-2-1 2 2 0 00-1 1 4 4 0 000-1h-1v-2-1c0-3 1-5 2-5a16 16 0 01-1-3v-1-2a33 33 0 01-1-6h1a5 5 0 000-1 2 2 0 001 0 2 2 0 002-1h-4a11 11 0 000-3l1-2a16 16 0 00-1-4v-1a2 2 0 010-1 1 1 0 001-2 12 12 0 01-2-2l3-1a22 22 0 00-1-5 2 2 0 01-1-1 7 7 0 010-1 36 36 0 010-3 1 1 0 010-1v-4 1a6 6 0 011-2 2 2 0 000-1 1 1 0 010-1v-1-6a4 4 0 010-3 16 16 0 00-1-5 22 22 0 01-1-3l3-1a10 10 0 01-1-1 21 21 0 000-6h-1v-2-2a5 5 0 011-2 17 17 0 010-2 13 13 0 010-4 3 3 0 011-3 21 21 0 000-4 1 1 0 01-1-1l-2-5 2 1a10 10 0 010-3l1-2-1-2a7 7 0 010-3 4 4 0 010-1 33 33 0 010-6v-1-3a47 47 0 010-5h1a7 7 0 00-1-1l4-1c1 2 0 3-1 4v3l1 1v11l1 2-1 1 1 4h-1v6a11 11 0 011 3l-1 4v2a2 2 0 010 1 18 18 0 000 3 3 3 0 010 1h1v1a2 2 0 01-2 1v3a23 23 0 011 6 5 5 0 000 1l1 1-1 5a32 32 0 010 7 4 4 0 000 1v1l-1 4a4 4 0 011 4 5 5 0 00-1 3 4 4 0 010 4v1a20 20 0 012 5l-1 4a3 3 0 01-1 2 3 3 0 010 2 16 16 0 011 3v5h-1a11 11 0 010 1 4 4 0 011 2 13 13 0 010 2 2 2 0 01-1 1l1 4a1 1 0 010 1v2a9 9 0 001 3l2 6-4-3v2a2 2 0 010 1l1 3a8 8 0 010 4 13 13 0 000 3l2 7zm0-67a3 3 0 00-1 0h2a3 3 0 00-1 0zm1-76zM300 793h-1a3 3 0 010 1c0 2 1 4-1 5a3 3 0 01-2 1 2 2 0 01-1-2h1a9 9 0 00-1-4l-5-10v-1h1l4 6v-1a2 2 0 011-1v-2a14 14 0 00-2-5l2-1v-1h-1a2 2 0 00-1 1 7 7 0 011-3h-1l-4 1 6-4a10 10 0 001-3 36 36 0 00-1-5 3 3 0 010-1 12 12 0 01-1-1v-1h1v-1a3 3 0 010-1 11 11 0 000-3v-2l-1-3 1-5h1l-1-3v-2-1a6 6 0 010-1v-3-2a1 1 0 01-1-1 4 4 0 011-3 2 2 0 010-2v-6l-1-3v-1a2 2 0 010-1h1l-1-3a3 3 0 010-1v-1a2 2 0 011-2v-1-6h1l-1-4v-1l-1-1v-3l1-1h0a1 1 0 00-1 0 3 3 0 011-1 6 6 0 011-4 14 14 0 00-1-3l-3-2v-1h3a40 40 0 000-6 1 1 0 01-1-1v-1h1l-1-6v-1a1 1 0 011-1v-1a5 5 0 011-2 2 2 0 000-2 4 4 0 01-1-2v-3l-1-1h1a2 2 0 001 0 2 2 0 002-1h-3l-1-1a2 2 0 012-1 2 2 0 012 2v2l1 1v3a4 4 0 010 3v5h-1l1 5v5h-1l1 1-1 5a16 16 0 011 3v3a2 2 0 010 1 5 5 0 000 1l-2 1 1 1a1 1 0 000-1 3 3 0 010 1v3a35 35 0 011 4v10a1 1 0 01-1 1v1l3 8h-1l-1-2h-1a1 1 0 010 1v5a50 50 0 002 5v1h-2v1-1a1 1 0 000 1v7a2 2 0 011 1v6a1 1 0 01-1 2 7 7 0 000 2v1a27 27 0 010 2v1l1 2a13 13 0 010 3 3 3 0 010 1 16 16 0 010 2 4 4 0 01-1 1l1 4v3a8 8 0 01-1 2v1a11 11 0 010 3l-1 2a15 15 0 011 5 23 23 0 001 4l4 10-4-5zm-3 4a2 2 0 00-1 1l2-1a3 3 0 00-1 0zm-1-36a2 2 0 002 1 2 2 0 001-1z"/><path class="s" d="M288 792a2 2 0 01-2-1v-3l-1-5v-2a4 4 0 010-1v-1l-1-1h1a3 3 0 011-1 13 13 0 00-2-6l3-1a2 2 0 00-1-1 2 2 0 00-1 1 5 5 0 001-1v-1l-1-3a11 11 0 001-3 13 13 0 010-2v-1-2a3 3 0 010-1l-1-2-1-5v-1h1v-1a2 2 0 000 1 3 3 0 000-1v-3l-1-4a12 12 0 010-1l-2-5 3 2h1l-1-6-1-3-2-3h3a2 2 0 011-1 2 2 0 010-1 4 4 0 010-1l1-3v-1a98 98 0 01-2-5 2 2 0 010-2v-4a13 13 0 010-2 17 17 0 00-1-6l-2-8 3 3a5 5 0 011 0 1 1 0 010-1 24 24 0 00-1-3v-1a3 3 0 01-1-1v-3h2v-1a20 20 0 00-2-7l1-1h1v-2h-1a31 31 0 010-4l1-4v-2a6 6 0 010-3 8 8 0 01-1-4 5 5 0 000-2c0-3 0-5 2-5a3 3 0 013 1v3a1 1 0 01-1 0v1a9 9 0 010 2 6 6 0 001 4l3 6v1l-3-3h-1a12 12 0 010 2v6a77 77 0 001 5 2 2 0 01-1 2 19 19 0 011 3 9 9 0 000 3v1l-1 1v1a19 19 0 010 2l1 4a2 2 0 01-1 1 5 5 0 000 2 3 3 0 010 2 20 20 0 010 4 9 9 0 001 4v1h-1a19 19 0 000 3v1a65 65 0 002 6l2 5v1l-3-2h0v1a5 5 0 01-1 1 4 4 0 010 3 9 9 0 010 3 2 2 0 010 1l1 6v1a1 1 0 01-1 2 3 3 0 01-1 2v2l1 2v3l-1 1 1 5h1v3l-1 3a12 12 0 010 5 11 11 0 001 2v1l-1 1a7 7 0 01-1 1 15 15 0 011 4v4a6 6 0 010 1v2l1 5v3a2 2 0 01-1 2zm-2-12zm2-14a2 2 0 001 0zm-2 0a1 1 0 000 1v-1 1zm1-7h1-1zm1-4h1a2 2 0 00-1 0zm-1-43a3 3 0 001 0zm1-19a2 2 0 00-1 1 2 2 0 001 0 1 1 0 100-1zm-1-40h-1a2 2 0 000 1h1zm2-1zM412 804a21 21 0 010-3 2 2 0 011-2l-1-1 1-3c-2-4-2-6-1-8a12 12 0 010-4v-2a1 1 0 010-1v-3-2a2 2 0 01-1-3 2 2 0 011-1l-1-6v-1h1a8 8 0 010-3 3 3 0 010-1 6 6 0 010-1v-5-2a2 2 0 010-1v-7a4 4 0 011-2v-3a3 3 0 01-1 0v-1l1-2v-1c-2-5-2-9-1-11v-4l-1-5v-3a2 2 0 010-1 7 7 0 010-1v-8a2 2 0 011-1v-2a16 16 0 000-3 11 11 0 01-1-5 4 4 0 010-1v-3-3a8 8 0 010-2 2 2 0 011-3l-1-8v-2a2 2 0 012-1l-1-5h-1a2 2 0 000-1v-2l3-3 1 3c1 5 2 9 1 11v7l1 2 4 9-5-5-1-1a31 31 0 000 4v2a4 4 0 010 2 11 11 0 000 4l1 4v2a6 6 0 010 2v7l-1-2v1a4 4 0 010 2v7-1l1 2a2 2 0 000 1h1a1 1 0 01-1 2v5l-1 1a18 18 0 002 5l1 11-1-2a7 7 0 010 2l-1 4v6l-1 6h1a5 5 0 010 1 6 6 0 00-1 3 2 2 0 010 1l1 6v3l1 1h-1v3a22 22 0 010 5c-1 2-1 3 1 5l4 7-5-4 1 6h-1l1 5-2 1zm1-60zm1 0a2 2 0 001 0zm-3-33h1v-1a3 3 0 00-1 1zM402 800a2 2 0 01-1 0h-1v-1a1 1 0 010-2v-3a3 3 0 010-2l-1-7a1 1 0 011-1l-1-3v-1-1a1 1 0 010-1 15 15 0 011-5v-1a31 31 0 000-4 1 1 0 010-1l1-1v-3h-2l2-2a30 30 0 00-1-7 2 2 0 01-1-1v-1-1l-1-6 2 2v-4l-1-2h1l-2-7 2-1a11 11 0 010-2v-3a2 2 0 011 0 11 11 0 00-1-5 2 2 0 01-1-2 18 18 0 010-2 2 2 0 011-1v-2a2 2 0 010-1v-3a5 5 0 010-3v-2h-1v-2a4 4 0 010-1 6 6 0 001-3v-3a7 7 0 000-4 5 5 0 010-2 11 11 0 000-2l1-1v-4a36 36 0 00-3-10l-5-10 6 6a2 2 0 010-1 2 2 0 011-2 26 26 0 010-7v-10l1 3a3 3 0 011 0l2 1v4l-1 2a25 25 0 000 7 4 4 0 011 1 13 13 0 011 4v10l-1-2 1 3v2l2 4-3-1a5 5 0 011 2h-1a2 2 0 01-1 1 2 2 0 000 1h1a9 9 0 01-1 5v2a8 8 0 010 4 2 2 0 000 1v1a24 24 0 011 3l2 8-2-3 1 4h-2v3a14 14 0 011 8 17 17 0 000 2h-1a15 15 0 001 3 2 2 0 011 0l-2 1a18 18 0 010 3v1a2 2 0 010 1v2a43 43 0 010 7v3a2 2 0 010 1 31 31 0 011 3v11a1 1 0 010 1 30 30 0 010 4 3 3 0 011 1v1h-1a5 5 0 01-1 1v6l1 5-1 1 2 6h-1a42 42 0 000 5h1l-1 2zm-3-130h1v-1a2 2 0 00-1 1zm3-14v1a2 2 0 002-1z"/><path class="s" d="M391 803a3 3 0 01-3-2h2a3 3 0 011-1l-1-1a15 15 0 010-3 21 21 0 01-1-5v-4a2 2 0 011-1 12 12 0 010-6l-1-3v-1a1 1 0 011-1l-1-3a3 3 0 011-2 20 20 0 01-1-4l-1-2-1-4h1v-1l-1-1h3v-4a2 2 0 01-1-1l1-3a5 5 0 010-3v-2l1-4-1-2v1l-1-6a4 4 0 01-1-2l-1-6 3 3a3 3 0 011 0l-1-3-1-4h1l-1-4v-5-1a4 4 0 01-1-2v-1a21 21 0 000-3h1a7 7 0 000-3h2v-1h-2a1 1 0 000 1v-2-1a2 2 0 010-1v-2-1a1 1 0 010-1v-1-3a2 2 0 011-2v-1-1a25 25 0 000-6l-1-2a2 2 0 011-2 7 7 0 010-1 4 4 0 000-3v-2a2 2 0 010-1 16 16 0 01-1-4v-2a3 3 0 010-1 15 15 0 01-1-2l-1-4 4 3a3 3 0 011 1l1-1a9 9 0 010 2 4 4 0 010 1v2l1 5v1a2 2 0 01-1 1h1a6 6 0 010 4 3 3 0 000 3h-1l1 1a27 27 0 010 7v1a4 4 0 010 1l-1 1v4a28 28 0 010 3v5l-1 1v7l1 2v6a22 22 0 010 6 32 32 0 002 5l1 2h-3v1a4 4 0 010 1 40 40 0 011 9h1v5l-1-1a11 11 0 010 2 6 6 0 000 3v1h-1a2 2 0 010 1v1a38 38 0 001 6l2 7-3-4v5a14 14 0 001 4h-1v3a17 17 0 010 4v1a11 11 0 001 6v1h-1v1a2 2 0 01-1 1 20 20 0 002 6 3 3 0 010 1 37 37 0 001 5l-2 1a3 3 0 01-2 1zm1-6a3 3 0 001-1zm-1-49a2 2 0 001 0 3 3 0 001 0zm1-59a2 2 0 011 0zM380 800l-2 1a3 3 0 011-3 15 15 0 010-3 6 6 0 000-3l3-1a2 2 0 00-1 0 2 2 0 00-2 1 4 4 0 000-2l-1 1v-2-1l2-6a15 15 0 01-1-2v-1-3a34 34 0 01-1-6h1a5 5 0 000-1 2 2 0 002 1 2 2 0 001-1h-3a11 11 0 000-3v-3a16 16 0 00-1-4 2 2 0 011-2v-1a12 12 0 01-2-3h3a22 22 0 00-1-5 2 2 0 01-1-1v-1a40 40 0 010-3 1 1 0 010-1v-4h1a6 6 0 010-1 2 2 0 000-1 1 1 0 010-1v-1-5-1a4 4 0 010-3 16 16 0 000-6 20 20 0 01-2-2l3-1a10 10 0 01-1-2 21 21 0 000-5 1 1 0 010-1l-1 1v-3-1a5 5 0 011-3 15 15 0 010-1 14 14 0 010-4v-1a3 3 0 011-2 20 20 0 000-5l-3-6 2 2a10 10 0 010-4l1-1v-2a7 7 0 01-1-3 4 4 0 011-1 34 34 0 010-6v-1l-1-3a47 47 0 010-6h1a6 6 0 000-1h3c1 2 1 3-1 3l1 4v8a4 4 0 000 1v2a1 1 0 000 1l1 2h-1l2 5h-2a41 41 0 000 5 12 12 0 011 4l-1 4v1a2 2 0 010 2 16 16 0 000 3 4 4 0 011 0v1a2 2 0 01-2 2v3a23 23 0 011 6v1l1 1-1 5a32 32 0 010 7v6a4 4 0 010 3 5 5 0 00-1 3 4 4 0 010 5v1a19 19 0 012 5l-1 4a17 17 0 00-1 3 16 16 0 011 4v4l-1 1a11 11 0 010 1 4 4 0 011 2 13 13 0 010 2 2 2 0 01-1 1l1 4a1 1 0 010 1v2a10 10 0 001 3l2 6-4-3v2a2 2 0 010 1l1 3a8 8 0 010 3 12 12 0 000 4l2 7zm0-67a2 2 0 00-1 1l2-1zm1-75h1zM372 791a2 2 0 01-1 1c1 2 2 5 0 6a3 3 0 01-2 0 2 2 0 01-2-2h1a8 8 0 00-1-4l-5-12 6 7a2 2 0 011-2l-1-2a14 14 0 00-1-5l2-1-1-1a2 2 0 00-1 2v-1l1-3-6 2 7-5a10 10 0 001-3 36 36 0 00-1-5 2 2 0 01-1 0 13 13 0 010-2h1a9 9 0 000-1 3 3 0 010-1 12 12 0 000-4l-1-2v-3c-1-2 0-4 1-5v-3-2-1a5 5 0 01-1-1v-3-2a4 4 0 010-3 2 2 0 010-3 2 2 0 011 0l-1-2v-3-4-2-2a3 3 0 010-2 2 2 0 011-2v-2-6-3a1 1 0 01-1-1v-2-3h1a4 4 0 010-1 2 2 0 00-1 1 3 3 0 011-2 5 5 0 010-3 14 14 0 00-1-4l-3-3 4 1a38 38 0 00-1-6 1 1 0 010-2v-1h1l-1-6v-1a1 1 0 011-1 5 5 0 010-3 2 2 0 000-2 4 4 0 010-2l-1-3v-2a2 2 0 002 1 2 2 0 002-1h-4a2 2 0 012-1 2 2 0 012 1v4l1 2a4 4 0 010 4v4h-1l1 5c0 3 1 5-1 5v7a15 15 0 011 2v4a4 4 0 000 2h-2v1a1 1 0 001-1 2 2 0 000 1 2 2 0 010 1v2a32 32 0 011 5v5-1 6a2 2 0 01-1 1l3 10-3-4a2 2 0 010 1v6a50 50 0 002 5l-3 1h1a1 1 0 00-1 0l1 1v8l1 5a1 1 0 010 1l-1 1a6 6 0 00-1 3 25 25 0 011 3v2a13 13 0 010 4 16 16 0 010 2 4 4 0 010 2l1 3v4a9 9 0 01-1 2 10 10 0 01-1 3v3a15 15 0 011 4 23 23 0 001 5l4 11zm-2 5a2 2 0 00-1 0h1zm-1-36a2 2 0 002 0 2 2 0 001 0z"/><path class="s" d="M361 799a2 2 0 01-2-2l-1-3h1l-1-5v-2a4 4 0 01-1-1h1v-1l-1-1h1a3 3 0 011-1 13 13 0 00-2-6l3-1a2 2 0 00-2 0 6 6 0 000-1l1-1c-2-2-1-3-1-3a10 10 0 000-3 14 14 0 010-2h1v-3a3 3 0 010-1l-1-2-1-5v-1h1a3 3 0 010-1 1 1 0 000 1v-1a143 143 0 01-2-8l-2-6 4 4-1-7v-3l-3-3 4 1v-1a2 2 0 011-1 2 2 0 000-1 4 4 0 010-1c0-1-1-3 1-4a69 69 0 01-2-5 2 2 0 010-2v-4a13 13 0 010-2 17 17 0 00-1-6l-3-9 4 5a5 5 0 010-1 1 1 0 011-1 24 24 0 00-1-3 3 3 0 01-1-2l-1-4 3 2a13 13 0 010-2 21 21 0 00-2-7l2-1v-2h-1a29 29 0 010-4l1-3-1-3 1-3a8 8 0 01-1-4 5 5 0 000-2c0-3 0-4 2-5a3 3 0 012 1 1 1 0 011 0v2l-1 1a1 1 0 010 1 9 9 0 010 2 6 6 0 001 4l4 8-5-4a13 13 0 010 3v8l1 2a2 2 0 01-1 2 19 19 0 011 4 9 9 0 000 2v1h-1a7 7 0 000 1 8 8 0 010 1 18 18 0 010 2v4a2 2 0 010 1 5 5 0 000 2 3 3 0 01-1 2 19 19 0 011 4 9 9 0 001 5h-2a17 17 0 001 3v1a66 66 0 002 6l2 6-3-2-1 1a6 6 0 010 1l-1 3a8 8 0 011 3 2 2 0 01-1 1l2 7a1 1 0 01-1 2 3 3 0 01-1 2v5l1 2-1 1 1 5h1v4l-1 3a12 12 0 010 4 11 11 0 001 2v1h-1v1a6 6 0 01-1 1 15 15 0 011 4v4a6 6 0 010 2 1 1 0 01-1 0l1 2 1 4v2a1 1 0 010 1v1a2 2 0 01-2 2zm-2-13a2 2 0 00-1 0h1zm1-14l1 1a2 2 0 000-1zm-2 0a1 1 0 001 1v-1zm2-6l1-1h-1zm0-5h2a3 3 0 00-1 0 3 3 0 00-1 0zm0-43a2 2 0 001 0zm1-18a2 2 0 00-2 0h1a3 3 0 001 0zm-2-41a2 2 0 00-1 1h2zm3-1z"/><path class="t" d="M1138 536v-2h7v2h-7z"/><path class="u" d="M1163 536v-3h7v3h-7zM1191 536v-3h7v3h-7z"/><path class="t" d="M1218 559h2v7h-2v-7z"/><path stroke-width="1.3" stroke="#1d150c" fill="#3f2b0f" stroke-miterlimit="10" d="M1218 586h3v8h-3v-8z"/><path class="u" d="M1218 613l3 1v7h-3v-8z"/><path class="t" d="M1115 619h-2v-7h2v7z"/><path class="u" d="M1115 595l-3-1v-7h3v8zM1115 566h-3v-7h3v7z"/><path stroke-width="1.4" stroke="#1d150c" fill="#3f2b0f" stroke-miterlimit="10" d="M1197 640l-1 4h-8v-4h9z"/><path class="u" d="M1170 640v3h-7v-3h7zM1144 640l-1 3h-7v-3h8z"/><path class="x" d="M1116 638l1 3h7l2-1v-5l-6-1-4 4z"/><path class="x" d="M1125 636v4l1 1h8l2-2-1-3a14 14 0 00-1-2l-8 1zM1144 635v3l-1 2 2 1h7l1-1h1v-5h-10z"/><path class="x" d="M1135 636v5h8l1-2v-4l-8-1-1 2zM1172 635v5l1 1h6l1-1v-5l-6-2-2 2zM1161 636v4l1 1h8l1-1 1-1v-4l-8-1-3 2z"/><path class="x" d="M1153 636v4l1 1h7a11 11 0 000-1v-4l-3-1zM1187 635v4l1 1h2l1 1h3l2-1 1-1v-2l1-3h-8l-3 1z"/><path class="x" d="M1197 635v4l1 1h3l2 1h5l1-1 2-1h1v-5h-10l-5 1zM1179 635v4l1 1 1 1h5l1-1a11 11 0 000-1v-4l-4-1z"/><path class="y" d="M1218 639l-1 1h-2-3v-3l-1-1v-2h2z"/><path class="x" d="M1126 631v5h8l1-2v-4l-7-1-2 2zM1135 631v5h9l1-2v-3a15 15 0 00-1-2l-9 1zM1166 631v4l3 1h8v-1h1l-1-3 1-2-9-2-3 3zM1153 629v6l1 1h10l2-1v-5l-9-1h-4z"/><path class="x" d="M1144 629v5l1 1h3l2 1h3v-1a7 7 0 000-1v-5l-4 1zM1122 634v2h1l2-1 1 1 1-1v-5h-1l-4 4zM1186 630v3l-1 1 2 1h3l1 1h3l1-1 1-1v-5h-9l-1 1zM1196 630v5h10l1-1v-5l-8-1-3 2z"/><path class="x" d="M1176 630v3l1 2h8l1-1v-5l-8-1-2 2zM1212 634l-1 1h-1-3l-1-1v-5h1zM1131 625v5h8l1-1v-5l-8-1-1 2zM1140 625v5h9l1-1-1-4a14 14 0 00-1-1h-8z"/><path class="x" d="M1171 625v5h9v-1h1v-4l-8-2-2 2zM1158 625v4l1 1h2l2 1h4l2-1 1-1h1v-5h-9l-4 1z"/><path class="x" d="M1149 625a13 13 0 010 2v3h9a7 7 0 000-1v-4l-4-1zM1201 625v4l-1 1h-2a6 6 0 01-1 0 5 5 0 00-1 0h-3a5 5 0 010-1v-4l4-2z"/><path class="x" d="M1181 629v1h12v-5l-6-2-6 1v5zM1207 629v1h-4l-1-1-1-1v-3l2-1 5 4-1 1zM1126 629l1 1h4l1-1v-5h-1l-5 5zM1132 623v2l1 1 3-1h4l2-1v-5h-6l-4 4z"/><path class="x" d="M1141 620v4l1 1h8l1-1v-4a14 14 0 00-1-1h-8zM1160 620v3l-1 1 2 1h3l1 1 3-1h1l1-1v-5h-9l-1 1z"/><path class="x" d="M1150 620v3l1 2h8l1-1v-5l-8-1-2 2zM1202 624l-1 1h-2-2l-1-2v-3l1-2 6 6zM1188 620v5h7l1-1v-5l-6-1-2 2zM1177 620v4l1 1h8l1-1h1v-5l-8-1-3 2z"/><path class="x" d="M1169 620v4l1 1h3l2 1h2v-1a11 11 0 000-1v-4l-3-1zM1151 615v4l2 1h3l1 1 3-1h1l1-1v-5h-9l-2 1z"/><path class="x" d="M1162 615l-1 2 1 2v1h10l1-1v-5l-8-1-3 2zM1173 615v5h8l1-2v-4l-8-1-1 2zM1142 615v3l1 2h7l2-1v-5l-8-1-2 2zM1182 615v5h9l1-2-1-3a14 14 0 00-1-2l-8 1z"/><path class="x" d="M1197 619h-2l-2 1h-1l-1-1v-5h1zM1137 619l1 1h4l1-1v-5l-1-1-5 6z"/><path class="x" d="M1142 614l1 1h5l1-1v-5l-2-1-5 6z"/><path class="x" d="M1149 609v3l-1 2 1 1h6l1-1h1v-5h-8z"/><path class="x" d="M1156 609v5h2l3 1 1-1h2l2 1 1-1h1v-6h-9l-3 1z"/><path class="x" d="M1167 609v3l1 2v1l3-1h4l2-1v-5l-8-1-2 2z"/><path class="x" d="M1176 609v5h9l2-1-1-4a14 14 0 00-1-1h-8z"/><path class="x" d="M1192 614h-6v-4l-1-1 2-1z"/><path class="x" d="M1186 608l-1 1h-2-2l-1-1v-4l1-2 6 6z"/><path class="x" d="M1172 604v5h8v-1h1l-1-3 1-1-7-2-2 2zM1161 604v4l1 1v1h7l1-1h1l1-1v-4l-8-1-3 1z"/><path class="x" d="M1154 604l-1 2v2l1 1 2 1h5a11 11 0 000-2v-4l-3-1z"/><path class="x" d="M1147 608l1 1 2 1h3v-4l1-2-2-2-5 6zM1175 600v4l-1 1-2-1a6 6 0 01-1 1 5 5 0 00-1 0h-2l-1-1a6 6 0 01-1-1v-4l5-2zM1158 603v1l2 1h5l1-1v-5l-4-1-4 1v4z"/><path class="x" d="M1152 603l1 1h4l1-1v-4h-1l-5 4zM1181 603l-1 1-1 1-2-1h-2v-5l1-1 5 5zM1171 598l-1 2h-6l-1-1-1-1v-3l2-2 8 1z"/><path class="x" d="M1162 598v1h-2l-2 1-1-1 5-6v5zM1176 599l-1 1h-3l-1-1v-6l5 5v1zM1171 593v2h-3l-1-1v-2l-1-3 3 2 2 2z"/><path class="x" d="M1162 594l1 1h3l1-2-1-3v-1l-4 4v1zM1217 538v-3h-8l-1 2v4l5 1 4-4zM1208 541v-6h-9l-1 2v3a14 14 0 002 2l8-1zM1190 541v-5l-1-1h-8l-1 1h-1v5h11z"/><path class="x" d="M1199 540v-5h-8l-2 2 1 4 7 1 2-2zM1161 541l1-2v-2l-1-1h-8v5l7 2 1-2z"/><path class="x" d="M1172 540v-4l-1-1h-7l-2 1v2l-1 3 8 1 3-2z"/><path class="x" d="M1180 541v-2-4h-8a10 10 0 000 2v3l4 1zM1147 541v-4l-1-1h-2l-2-1h-3l-1 1-2 1v5l7 1 4-2zM1136 541v-4l-1-1h-11l-2 1v2l-1 3 11 1 4-2z"/><path class="x" d="M1154 541v-2-3l-2-1h-5l-1 1a11 11 0 001 1v4l3 1z"/><path class="y" d="M1116 537l1-1h4l1 1v5h-1z"/><path class="x" d="M1207 545v-5h-8l-1 2v4l8 1 1-2zM1198 546v-6h-8l-1 1-1 1 1 3a14 14 0 001 2h8zM1167 546v-5l-2-1h-8l-1 1h-1l1 3-1 2 9 2 3-2zM1180 547v-6l-1-1h-9l-2 1-1 1v4l9 1h4z"/><path class="x" d="M1189 547l1-3v-2l-1-1h-4l-2-1h-3v1a8 8 0 000 1v5l4-1zM1212 542l-1-1-1-1-1 1-2-1v1l-1 1v4h1l5-4zM1148 546v-4l-1-1h-3l-2-1-3 1h-1l-1 1v5h9l2-1z"/><path class="x" d="M1138 546v-4l-1-1h-10l-1 1v6h9l3-2zM1157 546v-5h-8l-1 1v5l7 1 2-2z"/><path class="x" d="M1121 542l1-1h4l1 1v5h-1zM1203 551v-3l-1-2h-7l-2 1v5l8 1 2-2z"/><path class="x" d="M1194 551v-4l-1-1h-8l-2 1 1 4a14 14 0 001 1h8zM1162 551l1-2v-2l-1-1h-8l-1 1h-1l1 3-1 2 8 1 2-2z"/><path class="x" d="M1175 551v-4l-1-1h-9l-2 1v2l-1 3 10 1 3-2z"/><path class="x" d="M1185 551a13 13 0 010-1v-3l-1-1h-9a8 8 0 000 2v3l4 1zM1132 551v-4l1-1h2a6 6 0 011 0 5 5 0 001 0h3a5 5 0 010 1v4l-4 2z"/><path class="x" d="M1153 547l-1-1h-11l-1 1v4l7 2 5-1 1-2v-3zM1126 547l1-1h3l2 1v4l-1 1-5-4v-1zM1207 547l-1-1h-4v6h1l4-5zM1201 553v-2h-8l-1 1v5h5l4-4zM1192 556v-5h-9l-1 1v4a15 15 0 002 1h8zM1174 556v-4l-1-1h-3l-2-1-3 1h-1l-1 1v5h9l2-1z"/><path class="x" d="M1183 556v-5h-8l-2 1 1 5 7 1 2-2zM1131 552l1-1h5v2l1 2-1 1-1 2-5-6z"/><path class="x" d="M1146 556v-4l-1-1h-7v1h-1l1 3-1 2 7 1 2-2z"/><path class="x" d="M1156 556v-5h-8l-2 1v2l-1 3 8 1 3-2z"/><path class="x" d="M1164 556v-2-3h-3l-2-1h-2l-1 1a11 11 0 000 1v4l4 1zM1182 561v-4l-1-1h-3l-2-1-2 1h-2l-1 1v5h9l2-1z"/><path class="x" d="M1172 561v-4l-1-1h-10l-1 1v6h9l3-2z"/><path class="x" d="M1161 561v-2l-1-3h-7l-2 2v4l8 1 2-2zM1191 561v-5h-8l-1 1v5l7 1 2-2z"/><path class="x" d="M1152 562v-5l-1-1h-7l-1 1-2 1 1 3a15 15 0 001 2h8z"/><path class="x" d="M1136 557h3l1-1h1l1 1v4l1 1-2 1zM1197 557l-1-1h-5l-1 1v5l2 1 5-6z"/><path class="x" d="M1191 562l-1-1h-4l-2 1v5l2 1 5-6z"/><path class="x" d="M1185 567v-5l-1-1h-6v1h-1v5h8zM1177 567v-5h-1l-3-1-2 1h-1l-3-1-1 1h-1v6h9l3-1z"/><path class="x" d="M1166 567v-5l-1-1-3 1h-4l-1 1v5l7 1 2-2zM1157 567v-5h-9l-1 1v4a13 13 0 002 1h8z"/><path class="x" d="M1142 563l1-1h4v2l1 2v2h-1z"/><path class="x" d="M1147 568l1-1h5v5l-1 2-6-6zM1161 572l1-2v-2l-1-1h-7l-1 1v4l6 2 2-2z"/><path class="x" d="M1172 572v-4l-1-1h-2l-1-1h-3l-2 1-1 1v2l-1 3h8l3-1z"/><path class="x" d="M1180 572v-2-2l-1-1-1-1h-6a9 9 0 000 2v4l4 1zM1186 568v-1l-2-1h-4v6l1 2 5-6zM1159 577v-6l2 1a6 6 0 012-1 5 5 0 001 1h2a5 5 0 011 1v4l-5 2z"/><path class="x" d="M1176 573l-1-1-2-1h-5l-1 1v5l4 1 4-1 1-2v-2zM1181 573l-1-1h-4v5h1l4-4zM1153 573v-1l1-1 3 1h1l1 2v3l-2 1-5-5h1z"/><path class="x" d="M1162 578l1-2h7v1l1 1v4l-1 1-8-1zM1171 578v-1h2l3-1 1 1-6 6v-5zM1157 577l1-1h3l1 1v6l-5-5v-1z"/><path class="x" d="M1162 583v-2h4l1 1v5l-3-2-2-2zM1171 582v-1h-4v6l4-4v-1zM1217 639h2v-8l-1-2-5 1-1 5 5 4z"/><path class="x" d="M1214 630h5v-9l-1-1h-4a13 13 0 00-1 1v9zM1214 611h3l1 1 1-2v-3l1-1-1-3v-1l-1-1h-5v9l1 1z"/><path class="x" d="M1214 621h3l2-1v-8l-1-1h-5l-1 8 2 2zM1214 583h5v-7l-1-1h-5l-1 6 2 2zM1214 594h4l1-1v-8l-1-1-1-1h-4l-1 8 2 3z"/><path class="x" d="M1214 602h4l1-1v-3l1-2v-2h-1a9 9 0 00-1 0h-4l-1 3zM1214 568h4v-1h1v-8l-1-1h-2l-3-1-1 8 2 3z"/><path class="x" d="M1213 558h4l1-1 1-1v-10l-1-2-1-1h-4l-1 11 1 4zM1213 576h5l1-1v-6-1a11 11 0 00-2 0h-3l-2 4z"/><path class="y" d="M1218 538v5h-2l-2 1h-2v-2z"/><path class="x" d="M1209 629h5v-8l-1-1h-5l-1 7 2 2zM1209 620h5v-9l-1-1h-4a14 14 0 00-1 2v8zM1209 589h5v-10l-1-1v-1l-3 1-2-1-1 9 2 3zM1208 602h5l1-1v-10l-1-2h-5l-1 9 1 4z"/><path class="x" d="M1207 611h6l1-1v-8a7 7 0 00-2 0h-4v4zM1213 634l1-1v-4l-1-1h-5v1l5 5zM1208 570h5v-2l1-3v-4l-1-1-1-1h-5v9l1 2z"/><path class="x" d="M1208 559l2 1 2-1h1v-10l-1-1h-5l-1 8 2 3zM1208 579h3l2-1h1l-1-3 1-2v-1l-1-1-1-2h-5v8l1 2z"/><path class="x" d="M1213 543v6h-5l-1-1zM1203 624h5l1-1-1-2 1-2v-2l-1-1-1-1h-5v8l1 1zM1203 615h5l1-4v-4l-1-1-1-1-4 1a13 13 0 00-1 1v8zM1203 584h5v-10h-1l-2 1-2-1-2 8 2 2zM1204 597h4v-1l1-1v-8l-1-2-1-1h-4l-1 9 2 4z"/><path class="x" d="M1203 606a15 15 0 012 1h2l1-1v-8-1a8 8 0 00-1 0h-4l-1 4zM1203 554h5v3a6 6 0 010 1 5 5 0 000 1v3a5 5 0 01-1 0h-4l-2-4z"/><path class="x" d="M1207 574h1v-3l1-3v-4l-1-2h-5l-1 7v5h5zM1207 548h1v5l-2 1h-3l-1-1 4-6 1 1zM1207 629l1-1v-4l-1-1h-4l-1 1 5 5zM1201 623h2l1-1-1-3 1-1v-2l-1-1-1-2-5 1v5l4 4z"/><path class="x" d="M1198 614h6v-8l-1-1-1-1h-4a14 14 0 00-1 1v9zM1198 595h3l2 1v-5l1-1v-3l-1-1-1-1h-5v9l1 1z"/><path class="x" d="M1198 605h3l2-1h1l-1-3 1-2v-1l-1-1-1-2h-5v8l1 2zM1203 553l1 1-1 2v3h-5l-1-1 5-6zM1198 567h5v-8h-5l-2 6 2 2zM1198 578h4l1-1h1v-6l-1-2v-1l-1-1h-4l-1 8 1 3z"/><path class="x" d="M1198 586h4l1-1 1-2v-5a11 11 0 00-2 0h-4l-1 3zM1193 604h5v-4l1-2v-3l-1-1-1-1h-5v9l1 2z"/><path class="x" d="M1193 593l2 1h2l1-1v-10l-1-1h-5l-1 8 2 3zM1193 582h5v-8l-1-1h-5l-1 8 2 1zM1193 613h3l2-1h1l-1-3 1-2v-1l-1-1-1-2h-5v8l1 2z"/><path class="x" d="M1193 574h4l1-1v-9l-1-1-4 1a14 14 0 00-1 1v8z"/><path class="x" d="M1197 558l1 1v4l-1 1h-5v-1zM1197 618l2-1v-1l-1-1 1-2h-1l-1-1h-5v1l5 5z"/><path class="x" d="M1192 613l1-1v-5l-1-1h-5l-1 2 6 5z"/><path class="x" d="M1188 606h3l1 1 1-1v-6l-1-1v-1h-5v7l1 1z"/><path class="x" d="M1188 599h4l1-1v-10l-1-1h-6v9l2 3z"/><path class="x" d="M1187 588h5l1-1v-6l-1-1-1-2h-4l-1 8 1 2z"/><path class="x" d="M1187 579h5l1-1v-7l-1-1-1-1h-3a14 14 0 00-2 1v8z"/><path class="x" d="M1192 564v5h-4l-1 1-1-2z"/><path class="x" d="M1187 569l1 1v4h-1l-1 1h-4l-1-1 5-6zM1182 583h5v-8h-5l-2 6 2 2zM1183 594h4v-1h1v-8l-1-1-1-1h-4l-1 8 2 3z"/><path class="x" d="M1183 602h4l1-1v-7a10 10 0 00-2 0h-3l-1 3zM1187 608l1-1v-5h-6l-1 1 6 5zM1178 580h2l2 1h1v2a6 6 0 010 1 5 5 0 000 2v1l-1 1a6 6 0 010 1h-4l-2-5z"/><path class="x" d="M1182 597h1v-8h-5l-2 4 1 4h5zM1182 603l1-1v-4h-1v-1h-5v1l5 5zM1181 574l2 1v1l-1 2v2l-1 1-3-1-2-1 5-5z"/><path class="x" d="M1177 584l1 1v7h-1l-1 1h-3l-1-1v-9zM1177 593h1v4l-1 1-6-5h6z"/><path class="x" d="M1177 579l1 1v4h-6l4-5h1zM1172 584h1v4h-3l-3 1 2-3 3-2z"/><path class="x" d="M1172 593l1-1v-3l-2-1-3 1h-1l4 4h1zM1116 537l-2 1h-1l1 3-1 2v1l1 1 1 2h5v-6l-4-4z"/><path class="x" d="M1119 546h-5v1l-1 4v3l1 1 1 2 4-1a14 14 0 001-1v-8zM1119 565h-5v4l-1 1v3l1 1 1 1h5v-9l-1-1z"/><path class="x" d="M1119 556h-5l-1 1 1 2v5l1 1h5l1-8-2-1zM1119 593h-5v8h1v1l3-1 1 1 2-7-2-2zM1119 582h-4l-1 1v2l-1 2v3l1 1v1l1 1h5v-8l-1-3z"/><path class="x" d="M1119 575l-2-1h-2l-1 1-1 2v5a11 11 0 002 0h4l1-3zM1119 608h-4l-1 1v8l1 1 1 1h4l1-8-2-3z"/><path class="x" d="M1119 618h-4l-1 1v11l1 2 1 1h4l1-10-2-5zM1119 600h-1-3l-1 1v7a10 10 0 001 0h4l1-3z"/><path class="y" d="M1115 639v-1-2l-1-2v-1h3l2-1h1l1 2z"/><path class="x" d="M1124 547h-5l-1 1 1 3v4l1 2 5-1 1-7-2-2z"/><path class="x" d="M1124 556h-5v9l1 1h4a14 14 0 001-1v-8zM1124 588l-2-1h-2l-1 1v10l1 1h4l2-9-2-2z"/><path class="x" d="M1125 574h-5l-1 1-1 1v8l1 1v2h3l3 1v-10-4z"/><path class="x" d="M1125 565h-3-2l-1 1v9a8 8 0 001-1h5v-4zM1120 543h-1v5h5l1-1-5-4zM1125 607h-5l-1 1v7l1 1v1h5v-10zM1124 617h-5v10l1 2h6v-9l-2-3zM1124 598h-5v8l2 1h4l1-8-2-1z"/><path class="x" d="M1120 633v-1-1l-1-2v-1h3l2-1h1l1 1zM1129 552h-5v8l2 1h4l1-7-2-2zM1130 561h-6v8l1 1 1 1 3-1a14 14 0 002-1l-1-8zM1130 592h-5l-1 2v7h1v1h5l2-8-2-2zM1129 579h-4l-1 1v10l1 1 1 1h4l1-9-2-4z"/><path class="x" d="M1130 570a13 13 0 01-2 0h-3v4l-1 2v3h1a7 7 0 001 0h3l1-4zM1129 622h-5l1-3a6 6 0 01-1-1 5 5 0 001-1v-2a5 5 0 011-1h4l2 5zM1126 602l-1 1-1 2v8l1 1h5l1-6-1-5-2-1h-2zM1126 628h-1l-1-2 1-2v-1l2-1h3l1 2-5 5v-1zM1126 547l-2 1v1l1 2-1 1h1l1 1h4v-1l-4-5zM1132 553l-3 1v7l1 2h5l1-6-4-4z"/><path class="x" d="M1135 562h-5l-1 1v8l2 2 3-1a14 14 0 002-1l-1-8zM1135 581h-5l-1 1v7l1 1v1h5v-10z"/><path class="x" d="M1134 572h-5v8l2 1h4l1-8-2-1zM1130 623l-1-1v-2-2h1l1-1h3l2 1-5 6z"/><path class="x" d="M1135 609h-5l-1 2v5l1 1v1l3-1h2l2-6-2-2zM1134 598h-4l-1 1v8l1 1 1 1h4l1-8-2-3z"/><path class="x" d="M1134 591l-1-1h-3l-1 1v7a11 11 0 001 0h4l1-3zM1140 573h-3l-2-1-1 2v7l1 1v1h5v-10z"/><path class="x" d="M1140 583h-6v10l1 1h6v-8l-1-3zM1140 594h-5l-1 1 1 3-1 1v2l1 1 1 1h5l1-8-2-1zM1139 563h-2l-3 1v8l2 1h4l1-8-2-2zM1140 603h-5v9l1 1 4-1a15 15 0 001-1v-8z"/><path class="x" d="M1135 618v-1-1-3h2l2-1h1l1 1zM1135 558l-1 1v5h7v-1l-6-5z"/><path class="x" d="M1141 563l-1 1v5l1 1h5l1-1-6-6zM1145 570h-5v3l-1 1v2l1 1 1 1h5v-7l-1-1z"/><path class="x" d="M1145 577h-4l-1 1v10l1 1h5l1-9-2-3z"/><path class="x" d="M1145 588h-2l-3 1v8l1 1h5l1-8-2-2z"/><path class="x" d="M1145 597h-4l-1 1v8l2 2 3-1a14 14 0 002-1l-1-8z"/><path class="x" d="M1141 613l-1-1v-1-3l1-1h5v1z"/><path class="x" d="M1146 608l-1-2v-2-1l1-1h1l2-1h1l2 1-6 6z"/><path class="x" d="M1150 593h-4l-1 2v6h1v1l3-1 2 1 1-7-2-2zM1150 582h-4l-1 1v8l1 2h5l1-8-2-3z"/><path class="x" d="M1150 575l-2-1h-2l-1 1v3l-1 2v2h1a11 11 0 001 0h4l1-3z"/><path class="x" d="M1146 569h-1v5h3l2 1 2-1-6-5zM1155 596h-4l-1-1v-2a6 6 0 010-1 5 5 0 000-1v-3a5 5 0 011 0h4l2 4z"/><path class="x" d="M1151 579h-1v4l-1 2v2h1l1 1h4l2-5-1-4h-5zM1151 574h-1v5h6v-1l-5-4zM1151 602l-1-1v-5h5l1 1-4 5h-1z"/><path class="x" d="M1156 593l-1-2-1-1v-3l1-2v-1l2-1h3l1 2-1 8z"/><path class="x" d="M1156 584l-1-1v-4l1-1 6 5-3 1h-3zM1156 597l-2-1 1-3 1-1h4l1 1-4 4h-1z"/><path class="x" d="M1161 593l-1-1v-4h2l4-1-2 4-3 2z"/><path class="x" d="M1161 583l-1 1v4h1l3-1h2l-4-4h-1z"/><path style="isolation:isolate" opacity=".1" fill="url(#a)" d="M1114 537h104v103h-104z"/><path class="aa" d="M1116 640l6-6 6-6 7-6 9-10 9-9 11-11 3-2-1-2-4 3-10 11-9 9-9 9-8 7-5 6c-2 3-5 4-6 5v2zM1115 538l6 6 5 5 7 8 9 9 10 9 10 10 3 3 1-1-2-3-11-10-9-10-10-9-6-7-6-6-6-6h-2zM1217 537l-6 5-6 6-7 6-9 10-9 9-11 11-3 3 1 1 4-3 10-11 9-9 9-9 7-7 6-6c2-3 5-4 6-5v-2zM1219 639l-6-6-6-6-6-7-10-9-9-9-11-11-2-3-2 1 3 4 11 10 9 9 9 9 7 7 6 6c3 2 4 5 5 6h2z"/><path class="aa" d="M1169 590h-4v-4h4v1a6 6 0 010 3z"/><path class="ab" d="M191 368c0 4 3 9 7 10-1 3-2 7-1 10s4 7 8 7c-2 6 2 14 8 16l4 8c2 2 6 4 8 2a10 10 0 0012 7l4 7c2 2 6 1 7-1a6 6 0 007 7 22 22 0 014-1l11 5c5 1 6-4 10-6 4-1 7 2 11 3s8-2 7-6c3 2 7 4 11 4s8-4 7-8c4 3 11 0 10-5a9 9 0 0015-9 7 7 0 107-13 7 7 0 007-12l7-4c2-2 0-6-3-6 8-2 12-12 8-18a8 8 0 104-15 9 9 0 00-4-18c2-4-3-10-8-10a7 7 0 00-6-12c4-5 0-14-7-14 2-3-1-6-3-8s-7-1-10-1c-1-3-1-7-4-10s-7-2-9 1c-2-7-11-11-18-7-2-6-12-6-15 0-6-7-18-5-24 2-4-5-15-3-16 4-7-4-17 1-18 8-6-3-14 2-14 8a13 13 0 00-8 16c-3 1-4 6-4 10a4 4 0 01-3 4c-2 1-5 3-6 9l2 10c0 1-8 5-2 14l-3 12z"/><path class="ac" d="M354 301c-2-3-5-5-8-5 1-3-1-7-4-8l-9-1c-1-4-1-7-4-10s-7-2-9 1c-2-7-11-11-18-7-2-6-12-6-15 0-6-7-18-5-24 2-4-5-15-3-16 4-7-4-17 1-18 8-6-3-14 2-14 8a13 13 0 00-8 16c-3 1-4 6-5 10a4 4 0 01-2 4c-2 1-5 3-6 9l2 10c0 1-8 5-2 14l-3 12c0 4 3 9 7 10-1 3-2 7-1 10s4 7 8 7c-2 6 2 14 8 16l4 8c2 2 6 4 8 2a10 10 0 0012 7l4 7c2 2 6 1 7-1a6 6 0 007 7 22 22 0 014-1l11 5c5 1 6-4 10-6 4-1 7 2 11 2s8-1 7-5c3 2 7 4 11 4a21 21 0 001-4 4 4 0 000-3l-3-2-7-6c-3-2-8-1-12-1s-9-3-8-7c1-5 9-3 14-6a4 4 0 00-4-3c0-3 3-5 6-6s6-4 4-6c-2-3-7 0-9-3-2-2 0-6 3-6l9-1c3 0 6-3 5-6-1-4-9-3-10-8 0-2 2-4 1-6s-4-2-6-1l-6 4a7 7 0 01-5-11c2-2 5-1 8-2s5-3 3-6l-6-2a26 26 0 0114-11c-3-2-3-7 0-9s6-3 9-3c9-1 22-2 29-7-8-8 6-14 13-16z"/><path class="ad" d="M234 398l-5-6-9-15c-2-2-2-7 1-6-2-3-3-9 1-9a15 15 0 01-11-11c-1-3 0-6 2-8l3-3a8 8 0 001-8l4-3-1-3a4 4 0 000-7l2-4c2-7 11-10 18-7 3-3-2-9 1-13 3-2 7 0 10 0 4 0 8-2 11-4 5-1 10 0 15 2 4 2 9 4 11 8s2 11-1 13l-9 3-15 1a10 10 0 00-5 1 6 6 0 00-2 7 8 8 0 006 5c-1 3-4 5-7 6l-10 2c-3 2-5 5-3 8a8 8 0 016 2 22 22 0 00-6 11 102 102 0 0021 12l-6 4c-2 1-4 2-4 5s2 4 4 2l-1 8-6 6c-5 3-11 5-16 1z"/><path class="ad" d="M332 298l-2-1-5-3-5-2c-2-1-3-2-3-4v-4a3 3 0 00-2-1 14 14 0 00-10 0h-4l-1-2c0-3-2-4-5-5a18 18 0 00-7 1c-3 0-10 0-10 5a1 1 0 000 1h2a5 5 0 012 1c2 1 6 3 6 6a7 7 0 000 2c0 2 2 2 4 2l4-1c3 1 2 5 1 8s-4 5-3 8a24 24 0 005 2l-3 3-1 5c2 2 5 1 7-1s4-4 6-3a10 10 0 013 1 14 14 0 007 1 4 4 0 003-1c2-2 0-8 2-9s3 0 5 1a5 5 0 003-10zM261 361c-1 1-2 4-1 5a7 7 0 003 1c3 1 5 4 6 7 1 1 2 3 0 4l-2 1a5 5 0 00-3 8 25 25 0 013 2c1 2 0 4-1 6l-3 8a11 11 0 01-3 3c-1 2-4 2-6 2-4 1-8 2-13 1a26 26 0 00-5-2l-4 3c-1 2 2 4 4 4l6 1a4 4 0 012 1c2 1 1 3 1 5a7 7 0 0013 4 22 22 0 005 7c2 1 5 2 8 1s4-4 2-6c0-2-2-3-4-4a7 7 0 014-12c1 0 3 0 4-2a4 4 0 000-2 17 17 0 00-2-7c4-1 7-3 9-6s0-9-4-9l-4-1v-3l2-4c0-3-5-5-6-8l-1-6c-1-3-7-4-10-2zM201 367a2 2 0 000 2l3 1c2 0 3 2 3 4a32 32 0 010 7 17 17 0 001 8c1 2 4 4 6 4l1 5a7 7 0 003 4 3 3 0 004-1l-1-4c-1-1-3-3-3-5l-1-5c0-3-2-5-3-8s-1-5 0-7a4 4 0 001-2 3 3 0 000-2c-3-6-12-9-14-1zM219 297a6 6 0 003 2l-1 2-3 1a6 6 0 00-2 4l-2 5a4 4 0 000 3c0 2 2 1 3 0a7 7 0 002-4 8 8 0 011-4c3-4 10-1 12-4l1-6c1-2 1-4 3-3 3 1 5-1 7-3l3-4a3 3 0 00-2-1c-2-2-5-1-7 1s-5 3-8 4c-5 0-10 1-10 7z"/><path class="ac" d="M818 206c1-7 4-13 10-16s13-2 17 3c4-6 10-10 16-11s14 3 17 9c9 1 15 13 12 22a38 38 0 00-1 4l-1 4-5 10c-6 7-14 12-23 15s-19 4-27 1c-8-4-14-11-14-19l1-8c-1-5-3-9-2-14z"/><path class="ad" d="M826 235l-2-14c1-7 5-13 10-16s14-2 18 3c4-6 10-10 16-11s14 3 16 9a15 15 0 017 3c1-8-5-18-13-19-3-6-10-10-17-9s-12 5-16 11c-4-5-12-6-17-3s-9 9-10 16c-1 5 1 9 1 14v8a21 21 0 007 14 35 35 0 000-6z"/><path class="ac" d="M915 334c8-1 15-9 14-17a14 14 0 007-25c4-2 5-8 3-12s-6-7-10-9a37 37 0 00-37 4 18 18 0 01-4 2 41 41 0 01-4 1c-6 2-10 9-10 15s3 13 5 19c4 7 10 7 16 11 7 5 11 12 20 11z"/><path class="ab" d="M936 292c4-2 5-8 3-12s-6-7-10-9a36 36 0 00-12-3 17 17 0 018 8c2 4 1 9-3 12a14 14 0 01-7 25c1 7-5 15-13 16 4 3 7 5 13 5 8-1 15-9 14-17a14 14 0 007-25z"/><path class="ac" d="M763 287a16 16 0 002 17 27 27 0 00-9 19c0 6 2 13 7 16 5 2 11 1 17-1-2 3-1 8 1 11a18 18 0 0010 6 23 23 0 0016-1c5-2 9-7 9-13 5 2 11 1 15-2s7-8 9-13c2-6 2-13 0-19s-7-12-13-14c1-4 2-8 0-11-1-3-5-5-8-6-7-3-14-5-22-5s-12 4-18 7-12 2-16 9z"/><path class="ab" d="M827 284l1 1a10 10 0 000-2l-1 1zM840 317c-2 5-5 10-9 13s-10 5-15 3c0 5-4 10-9 12a23 23 0 01-16 1 18 18 0 01-10-6c-2-3-3-7-1-11-6 2-12 4-17 1-4-2-6-6-7-10a26 26 0 000 3c0 6 2 13 7 16s11 1 17-1c-2 3-1 8 1 11a18 18 0 0010 6 23 23 0 0016-1c5-2 9-7 9-13 5 2 11 1 15-2s7-8 9-13a34 34 0 001-15 38 38 0 01-1 6zM765 296a15 15 0 01-3-6 16 16 0 000 9 26 26 0 013-3z"/><path class="ac" d="M770 215c-2 1-4 3-4 5s1 5 3 5a25 25 0 00-15 18 37 37 0 001 13c1 5 3 10 8 10a10 10 0 013 0c2 0 2 3 3 5a18 18 0 0031 7 6 6 0 012-2c1-1 3 0 4 1a23 23 0 0035-13 23 23 0 00-4-40c3-3 4-7 2-11s-5-7-8-9a25 25 0 00-14-2 20 20 0 01-5 1 20 20 0 01-4-1 24 24 0 00-20 3c-4 2-5 4-8 4-4 2-7 2-10 6z"/><path class="ab" d="M851 243a24 24 0 00-8-16 22 22 0 011 5 24 24 0 01-10 22 23 23 0 01-30 15 24 24 0 01-6-3l-4-1a5 5 0 00-2 2 18 18 0 01-18 6 17 17 0 01-5-2 18 18 0 0031 7 5 5 0 012-2c1-1 3 0 4 1a23 23 0 0035-12 24 24 0 0010-22z"/><path class="ad" d="M775 234c-6 1-10 7-9 13s7 10 13 9l5-2a8 8 0 001-4 38 38 0 000-8 9 9 0 009-6c1-3 1-7 4-8h5c2 0 4-2 5-4s2-4 1-6c-1-3-5-4-8-4h-14c-7 0-7 3-9 8-2 4-6 7-3 12z"/><path class="ac" d="M850 278l-6 2c-2 1-2 5 0 6a25 25 0 00-24 5 37 37 0 00-7 11c-2 3-4 9 0 12a10 10 0 012 2c1 1 0 4-1 5a18 18 0 0019 26 5 5 0 013-1l3 4a23 23 0 0029 15 23 23 0 006-2 23 23 0 0023-34c4 0 7-4 8-8s1-8-1-11a25 25 0 00-9-11 20 20 0 01-4-2 21 21 0 01-3-4 24 24 0 00-18-10c-4-1-5 0-8-2-4-2-7-3-12-3z"/><path class="ab" d="M895 353a24 24 0 004-18 22 22 0 01-3 4 24 24 0 01-21 10 23 23 0 01-35-12l-3-4a5 5 0 00-3 0 18 18 0 01-17-6 17 17 0 01-3-6 18 18 0 0019 26 5 5 0 013-1l3 4a23 23 0 0029 15 23 23 0 006-2 24 24 0 0021-10z"/><path class="ad" d="M844 304c-5-3-12-1-15 4s-1 12 4 16c2 1 4 2 6 1a8 8 0 003-2 37 37 0 005-7 9 9 0 0011 1c2-1 5-4 8-3l3 3c2 2 5 1 7 0s4-2 5-4c1-3-2-6-5-8l-10-9c-6-4-7-2-12 1-4 2-9 1-10 7z"/><path class="ac" d="M877 208l-6 2c-2 1-2 5 0 6a25 25 0 00-24 5 37 37 0 00-7 10c-2 4-4 10 0 13a10 10 0 012 1c1 2 0 4-1 6a18 18 0 0020 26 5 5 0 012-1l3 4a23 23 0 0029 15 24 24 0 006-3 23 23 0 0023-33c4 0 7-4 8-8s1-8-1-11a25 25 0 00-9-11 20 20 0 01-4-3 20 20 0 01-3-3 24 24 0 00-18-10c-4-1-5 0-8-2-4-2-7-3-12-3z"/><path class="ab" d="M922 282a24 24 0 004-17 22 22 0 01-3 4 24 24 0 01-21 10 23 23 0 01-35-12l-3-4a5 5 0 00-3 0 18 18 0 01-17-6 17 17 0 01-3-6 18 18 0 0020 26 5 5 0 012-1l3 4a23 23 0 0029 15 23 23 0 006-3 24 24 0 0021-10z"/><path class="ad" d="M869 227c-5-3-12-1-15 4s-1 12 4 16a7 7 0 006 1 8 8 0 003-3 37 37 0 005-6 9 9 0 0011 1c3-1 5-4 8-3l4 3c2 2 4 1 6 0s4-2 5-4c1-3-2-6-4-8l-11-9c-6-4-7-2-12 1-4 2-9 1-10 7z"/><path class="ac" d="M796 262a18 18 0 00-6 5c-3 5-2 12 0 18-7 2-9 13-4 19s13 7 20 5a24 24 0 0035 0 25 25 0 003-4l3-3a9 9 0 013 0 13 13 0 0011-5 21 21 0 003-12 26 26 0 011-6l2-4a17 17 0 00-2-16 21 21 0 00-15-8 19 19 0 00-16-10c-9-1-13 5-18 11-5 5-14 6-20 10z"/><path class="ad" d="M801 295c-2-6-4-13-1-18a19 19 0 017-6c6-4 15-5 19-10 6-6 9-11 19-11a19 19 0 0116 11 22 22 0 017 1 18 18 0 00-3-5 21 21 0 00-15-8 19 19 0 00-16-10c-9-1-13 5-18 11-5 5-14 6-20 9a19 19 0 00-6 6c-3 5-2 12 0 18-7 2-9 13-4 19a16 16 0 008 5c-1-5 2-10 7-12z"/><path class="ab" d="M865 259a18 18 0 00-2-2 15 15 0 01-2 7l-1 4a26 26 0 00-1 6 21 21 0 01-4 11 13 13 0 01-10 6 9 9 0 00-4 0l-3 3a24 24 0 01-34 6 25 25 0 01-3-3c-6 2-13 2-18-2a13 13 0 003 9c4 6 13 8 20 5a24 24 0 0035 0 24 24 0 003-4l3-3a9 9 0 013 0 13 13 0 0011-5 21 21 0 003-12 26 26 0 011-6l2-4a17 17 0 00-2-16z"/><path class="ac" d="M843 253c-5 2-10 6-12 11s-1 13 5 16c-1 3-1 7 1 10 3 3 6 4 9 4 6 1 12 0 14-5a15 15 0 0024-7 33 33 0 012-5l2-3a10 10 0 00-9-15 12 12 0 00-6-9c-4-2-8 0-12 0-6 1-12 0-18 3z"/><path class="ab" d="M888 265a10 10 0 00-5-5 10 10 0 01-1 3l-2 3a33 33 0 00-1 5 15 15 0 01-25 6c-2 5-8 6-13 6a20 20 0 01-6-2c0 4 0 7 2 9 2 3 6 4 9 4 6 1 12 0 14-5a15 15 0 0021-1 15 15 0 003-6 34 34 0 012-5l2-3a10 10 0 000-9z"/><path class="ae" d="M1239 687a59 59 0 00-6-2c-7-3-22-11-30-11-3 0-10 1-16 14-3 7-2 15-2 22 1 14 13 61 15 67 3 7 6 16 12 22l8-1-1-2c-6-11-14-49 5-54a54 54 0 017-3l20-9h1l1-1c-1-5-3-10-6-14-4-6-13-5-20-5-5 0-9 1-11 3s-2 0-2-2c1-3 4-2 6-4s2-6 5-7l8-2c6-3 15 5 21 8a34 34 0 013 2 118 118 0 00-18-21z"/><path class="af" d="M1253 729l-1 1zM1252 730h-1z"/><path d="M1173 669c-10 5-18 12-27 18-8 7-18 13-25 20l-1 2c12-6 20-6 33-12l15-9c-5 19-2 52 6 68 1-4 2-10 0-24-1-10-3-24-2-30 3-10 11-20 17-28 8-10 17-3 20-2a148 148 0 0022 8l-6-4c-15-11-34-16-52-7z" fill="#bab2a8"/><path class="ah" d="M1209 672c-3-1-12-7-20 2-6 8-14 18-17 28-1 6 1 20 2 30 2 14 1 20 0 24-8-16-12-49-6-68l-15 9c-13 6-21 6-33 12-6 7-7 15-8 25 0 14-1 41 5 48a20 20 0 002 3c-2-4 1-10 4-16 6-11 12-22 22-30l7-12h1c-1 10-9 21-14 30l-8 15c-3 6-5 11-4 18a61 61 0 007 2c-1-7 4-13 10-16 5-3 9-3 14-5 3-2 6-3 10-3 9 0 11 5 17 12 3 3 7-2 8-5s3-4 5-5c-4-15-12-49-13-60 0-7-1-15 2-22 6-13 13-14 16-14 8 0 23 8 30 11a58 58 0 016 2l-8-7a149 149 0 01-22-8z"/><path class="af" d="M1155 708c-5 2-11 3-15 6-3 3-4 6-5 9-2 4-6 6-9 10-5 7-5 17-7 26 0 5-3 15 3 18a1 1 0 001 0c4-11 10-20 17-29 5-5 11-14 13-21 0-1 2-12 6-18 2-3-3-1-4-1z"/><path class="ae" d="M1152 727l-7 12c-10 8-16 19-22 30-3 7-6 12-4 16a29 29 0 008 5c-1-7 1-12 4-18l8-15c5-9 13-20 14-30h-1z"/><path class="af" d="M1198 770c-2 1-4 2-5 5s-5 8-8 5c-6-7-8-12-17-12-4 0-7 1-10 3-5 2-9 2-14 5-6 4-11 9-10 17h1c6-10 18-10 29-9 5 0 10 1 14 5 4 3 9 5 13 4 4-2 7 2 11 6h10c-5-6-9-15-12-22l-2-7zM1257 708a36 36 0 00-3-2c-6-3-15-11-21-8l-8 2c-3 1-3 5-5 7s-5 1-6 4c0 2 0 4 2 2s6-3 11-3c7 0 16-1 20 5 3 4 5 9 6 14l-1 1h-1c-6 4-13 6-19 9a52 52 0 00-8 3c-19 5-11 43-5 54l1 2 8-1a72 72 0 0014-5c13-18 14-62 14-62 1-2 5-3 7-4h1v2c4 11 9 33 9 48a20 20 0 005-5s0-9-3-23-14-34-18-40z"/><path d="M1264 728v-2h-1c-2 1-6 2-7 4 0 0-1 44-14 62 9-3 19 0 24-3 6-3 10-7 9-10 1-14-7-40-11-51z" fill="#4f463f"/><path class="ae" d="M1191 793c-4 1-9-1-13-4-4-4-9-5-14-5-11-1-23-1-29 9a427 427 0 0067 6c-4-4-7-8-11-6z"/><path class="ah" d="M1257 724l-7-1c-4 1-8 5-18 6-7 0-14 0-19 4-3 2-3 3-4 6-3 5-6 5-7 8s2 9 2 12h1c3-6 7-13 12-17 4-2 8-4 18-5 7-1 12-4 17-5 8-1 7-5 12-6l-7-2z"/><path d="M1129 131c7-5 19-25 59-3 25 14 11 54 31 49 27-7 47 24 21 49s-38 20-66 7c-10-5-16-9-31-6s-21 23-50 26-74-30-51-49 25-28 18-46 29-41 44-27 18 4 25 0z" fill="#45dbe2"/><path d="M1189 221c-12 0-42-7-50-5s-32 7-38 20-55 5-56-11 5 2 17-21c11-19 12-27 12-33a6 6 0 01-3-3c-2-4 3-10 12-13s15-1 17 3a6 6 0 01-1 5h1c10 0 38-19 45-15s-19 11-10 18 32-7 39 0-20 7-14 13 23 2 26 6-6 5-2 9 10-2 15 2-23 5-19 11 21 14 9 14zm44-14c-2-5-11-7-20-4s-16 10-14 15 11 7 20 4 16-10 14-15z" transform="translate(1 1)" fill="url(#b)"/><path class="al" d="M1169 196c3-5 0-12-5-15-6-3-15 0-16 4l8 5s-8-4-9-3c-1 0-2 9 7 14a11 11 0 0015-5z"/><path class="am" d="M1148 187a35 35 0 013 2c4 1 5 2 6 1l-4-3a24 24 0 01-4-2v-1c1-2 9-5 14-3 6 3 8 10 6 15a11 11 0 01-7 5 10 10 0 01-8-1c-7-4-7-11-6-13z"/><path class="an" d="M1148 188l3 1c4 2 5 2 6 1s-1-2-4-4a37 37 0 01-3-2c1-2 8-4 13-2s8 9 5 14a10 10 0 01-6 5 10 10 0 01-8-1c-6-4-6-10-6-12z"/><path class="ao" d="M1152 184c2-1 7-3 10-1 5 2 7 8 5 12a9 9 0 01-5 5 8 8 0 01-7-1 11 11 0 01-6-9h1c5 2 7 3 8 1 2-3-1-4-4-6l-2-1z"/><path class="al" d="M1175 162a8 8 0 00-2-11c-3-3-10-2-11 0l5 4-6-3s-3 6 2 11a8 8 0 0011-1h1z"/><path class="am" d="M1161 152a24 24 0 013 2l3 2-2-3a17 17 0 01-2-2c1-2 7-2 10 0a8 8 0 011 11 8 8 0 01-5 2 7 7 0 01-5-2c-5-4-3-9-3-10z"/><path class="an" d="M1162 153l1 1 4 2c1-1 0-2-2-3l-2-2c2-1 7-2 10 0a7 7 0 011 10 7 7 0 01-5 3 7 7 0 01-5-2c-4-3-3-8-2-9z"/><path class="ao" d="M1165 151c2-1 5-1 7 1a6 6 0 011 9 6 6 0 01-4 2 6 6 0 01-5-2 8 8 0 01-2-7l1 1c3 2 4 3 5 2 1-2 0-3-2-5l-1-1z"/><path class="al" d="M1095 206a12 12 0 0016 0c4-4 4-13 1-15-2 0-7 6-7 5l5-7c0-1-8-5-16 1-4 4-4 12 1 16z"/><path class="am" d="M1109 189a31 31 0 01-2 3l-3 4v1c1 0 2 0 4-3a24 24 0 014-2c2 2 2 10-1 14a11 11 0 01-16 0 12 12 0 01-3-8 9 9 0 013-8c6-5 13-2 14-1z"/><path class="an" d="M1109 189l-2 3c-3 3-4 4-3 5s2 0 5-2a36 36 0 012-3c2 2 3 10-1 14a10 10 0 01-15-1 11 11 0 01-3-7 9 9 0 013-7 11 11 0 0114-2z"/><path class="ao" d="M1111 194c1 3 1 8-2 11a9 9 0 01-13-1 10 10 0 01-3-6 8 8 0 013-6 10 10 0 0110-2v1c-4 3-5 5-4 6l1 1c2 2 4 0 7-2l1-2z"/><path class="al" d="M1108 170a8 8 0 00-6 10c2 4 7 7 10 6l-1-6 2 6c1 0 6-4 5-10-1-4-6-7-10-6z"/><path class="am" d="M1113 185a22 22 0 010-2l-2-4v4a16 16 0 010 3c-2 0-7-2-8-6a8 8 0 015-9 8 8 0 016 0 7 7 0 014 5c1 5-3 9-5 9z"/><path class="an" d="M1114 185l-1-2-2-4c-2 0-1 1-1 4a24 24 0 011 2c-2 1-7-2-8-5a7 7 0 015-9 8 8 0 016 1 6 6 0 013 4 8 8 0 01-3 9z"/><path class="ao" d="M1110 185l-6-5a6 6 0 015-8 7 7 0 015 1 5 5 0 012 3 7 7 0 01-2 7v-1l-3-4h-1c-2 1-1 3-1 5l1 2z"/><path class="ap" d="M1113 194a8 8 0 01-5-3 7 7 0 0110 1 8 8 0 01-5 2zM1103 193a8 8 0 01-5-3 7 7 0 0110 1 8 8 0 01-5 2z"/><path class="ap" d="M1105 196a8 8 0 013-5 7 7 0 01-1 10 8 8 0 01-2-5zM1106 186a8 8 0 012-5 7 7 0 010 10 8 8 0 01-2-5z"/><path class="ap" d="M1113 190a8 8 0 01-5 1 8 8 0 012-5c2-2 5-2 5-2a8 8 0 01-2 6zM1105 196a8 8 0 01-5 2 7 7 0 018-7 8 8 0 01-3 5zM1109 196a8 8 0 01-1-5 7 7 0 016 8 8 8 0 01-5-3z"/><path class="ap" d="M1103 189a8 8 0 01-2-6 7 7 0 017 8 8 8 0 01-5-2z"/><path class="aq" d="M1113 192a7 7 0 01-5-1 6 6 0 019-3 8 8 0 01-4 4zM1104 194a7 7 0 01-5 0 6 6 0 019-3 8 8 0 01-4 3z"/><path class="aq" d="M1107 196a8 8 0 011-5 6 6 0 012 9 7 7 0 01-3-4zM1104 187a8 8 0 011-5 6 6 0 013 9 7 7 0 01-4-4z"/><path class="ar" d="M1112 188a7 7 0 01-4 3 6 6 0 014-8 8 8 0 010 5zM1107 196a7 7 0 01-4 3 6 6 0 015-8 7 7 0 01-1 5z"/><path class="ar" d="M1111 195a7 7 0 01-3-4 6 6 0 018 5 7 7 0 01-5-1zM1103 191a7 7 0 01-3-4 6 6 0 018 4 7 7 0 01-5 0z"/><path class="as" d="M1109 190a2 2 0 01-1 1 2 2 0 010-1 2 2 0 011-1 2 2 0 010 1zM1108 192a2 2 0 01-1 1 2 2 0 010-1 2 2 0 011-1 2 2 0 010 1z"/><path class="as" d="M1108 192a2 2 0 010-1 1 1 0 011 1 2 2 0 01-1 0zM1107 191a2 2 0 01-1-1 1 1 0 012 1 2 2 0 01-1 0z"/><path class="as" d="M1109 191a2 2 0 01-1 0 1 1 0 011-1h1a2 2 0 01-1 1zM1107 192a2 2 0 01-1 0 1 1 0 012-1 2 2 0 01-1 1z"/><path class="as" d="M1108 192a2 2 0 010-1 1 1 0 010 2 2 2 0 010-1zM1107 190a2 2 0 010-1 1 1 0 011 2 2 2 0 01-1-1z"/><path class="at" d="M1108 191a1 1 0 010-1 1 1 0 010 1zM1108 192a1 1 0 01-1 0 1 1 0 010-1 1 1 0 011 0 1 1 0 010 1z"/><path class="at" d="M1108 192a1 1 0 010-1 1 1 0 011 1 1 1 0 01-1 0zM1107 191a1 1 0 010-1 1 1 0 011 1 1 1 0 01-1 0z"/><path class="at" d="M1108 191a1 1 0 011 0 1 1 0 01-1 0zM1107 191a1 1 0 011 0 1 1 0 01-1 0zM1108 192a1 1 0 010-1 1 1 0 010 1z"/><path class="at" d="M1107 191a1 1 0 010-1 1 1 0 011 1 1 1 0 01-1 0z"/><path class="al" d="M1041 237c3-4 11-8 11-8s-4 8-8 12a21 21 0 01-8 5 21 21 0 015-9z"/><path class="am" d="M1039 239c7-8 2 1 2 1s10-6 1 2a13 13 0 01-6 3 16 16 0 013-6z"/><path class="an" d="M1039 240c6-8 1 1 1 1s9-6 2 1a11 11 0 01-5 3 14 14 0 012-5z"/><path class="am" d="M1041 239v1h1a68 68 0 00-5 5h-1l5-6z"/><path class="al" d="M1038 231c5-2 14-2 14-2s-7 5-12 7a21 21 0 01-10 1 21 21 0 018-6z"/><path class="am" d="M1036 233c10-5 1 1 1 1s11-1 0 3a13 13 0 01-6 0 16 16 0 015-4z"/><path class="an" d="M1036 233c8-4 0 2 0 2s11-2 1 1a11 11 0 01-6 1 14 14 0 015-4z"/><path class="am" d="M1038 233l-1 1 1 1a72 72 0 00-7 2l7-4z"/><path class="al" d="M1047 243l3-14 1 14a29 29 0 01-3 9 29 29 0 01-1-9z"/><path class="am" d="M1047 245c0-11 2 0 2 0s2-11 1 1a17 17 0 01-2 6 22 22 0 01-1-7z"/><path class="an" d="M1047 246c1-10 1 0 1 0s3-10 2 0a15 15 0 01-2 5 19 19 0 01-1-5z"/><path class="am" d="M1048 244v1l1-1-1 7a62 62 0 000-7z"/><path class="al" d="M1041 226c4 0 8 4 8 4l-8 1c-3 0-6-4-6-4s3-2 6-1z"/><path class="am" d="M1040 226c6 0 0 2 0 2s6 4-1 2a6 6 0 01-3-3 8 8 0 014-1z"/><path class="an" d="M1040 226c5 0-1 2-1 2s6 3 0 2a5 5 0 01-3-3 7 7 0 014-1z"/><path class="am" d="M1040 227v2a24 24 0 00-4-2 14 14 0 004 0z"/><path class="al" d="M1050 238v-9l5 7c1 3-1 6-1 6s-3-1-4-4z"/><path class="am" d="M1051 239c-3-6 2-1 2-1s1-7 2 0a6 6 0 01-1 4 8 8 0 01-3-3z"/><path class="an" d="M1051 239c-2-5 2 0 2 0s1-7 2-1a5 5 0 01-1 4 7 7 0 01-3-3z"/><path class="am" d="M1052 238h1a25 25 0 001 4 14 14 0 00-2-4z"/><path class="al" d="M1049 222v8s-3-4-3-7a11 11 0 010-6 11 11 0 013 5z"/><path class="am" d="M1049 221c2 6-2 0-2 0s0 7-1 0a7 7 0 010-4 9 9 0 013 4z"/><path class="an" d="M1048 220c2 6-1 0-1 0s0 7-1 1a6 6 0 011-3 8 8 0 011 2z"/><path class="am" d="M1048 222l-1-1v1a34 34 0 00-1-5h1a20 20 0 001 5z"/><path class="al" d="M1042 222l8 8-10-5a20 20 0 01-5-7 20 20 0 017 4z"/><path class="am" d="M1040 221c8 5 0 1 0 1s6 7-1 1a12 12 0 01-3-4 15 15 0 014 2z"/><path class="an" d="M1040 221c7 4-1 0-1 0s6 7 0 2a11 11 0 01-3-4 13 13 0 014 2z"/><path class="am" d="M1041 222h-1v1l-4-4a41 41 0 005 3z"/><path class="au" d="M1040 234a10 10 0 005-1 13 13 0 002-1 13 13 0 00-2 1 11 11 0 00-2 5 10 10 0 004-3 17 17 0 002-2 25 25 0 00-1 3 15 15 0 001 5 15 15 0 001-5v-1a5 5 0 002 1 5 5 0 000-3 9 9 0 00-2-3l1-1-1 1 1-1h-2a13 13 0 000-3 2 2 0 10-1 0 9 9 0 000 2 20 20 0 00-2-2 10 10 0 00-3-2 10 10 0 002 3 7 7 0 001 1 4 4 0 00-3 1 5 5 0 002 1l-1 1a10 10 0 00-4 3zm10-4zm0 0z"/><path class="at" d="M1053 229c-1 1-3 2-5 1s0-3 1-5 4-2 5-1 1 3-1 5z"/><path class="at" d="M1053 229c-2 1-4 2-5 1s0-3 1-4 4-3 4-2 1 3 0 5z"/><path class="at" d="M1054 227a2 2 0 11-1-3 2 2 0 011 3z"/><path class="at" d="M1053 225l3-4-4 4h1z"/><path class="al" d="M1065 254c-3-5-11-11-11-11s3 9 6 14a24 24 0 009 8 24 24 0 00-4-11z"/><path class="am" d="M1067 257c-7-11-3 0-3 0s-10-8-2 3a15 15 0 006 4 18 18 0 00-1-7z"/><path class="an" d="M1066 257c-5-10-1 2-1 2s-9-9-2 0a13 13 0 005 4 16 16 0 00-2-6z"/><path class="am" d="M1064 256v2l-1-1a79 79 0 015 7l-4-8z"/><path class="al" d="M1069 248l-15-6s7 8 12 11a24 24 0 0011 3 24 24 0 00-8-8z"/><path class="am" d="M1072 250c-11-8-3 2-3 2s-12-4 0 2a15 15 0 007 2 18 18 0 00-4-6z"/><path class="an" d="M1072 250c-9-6-1 2-1 2s-12-4-2 2a13 13 0 007 1 16 16 0 00-4-5z"/><path class="am" d="M1069 250l1 2h-2a77 77 0 018 4l-7-6z"/><path class="al" d="M1057 259l-1-16s-3 9-3 15a33 33 0 001 12 33 33 0 003-11z"/><path class="am" d="M1056 262c2-12-1-1-1-1s-1-13-2 1a20 20 0 001 7 25 25 0 002-7z"/><path class="an" d="M1056 262c2-11-2 1-2 1s0-13-1-1a17 17 0 001 6 22 22 0 002-6z"/><path class="am" d="M1055 260v2l-1-2v9a71 71 0 011-9z"/><path class="al" d="M1067 241c-4 0-10 3-10 3s6 3 10 3 6-3 6-3-3-3-6-3z"/><path class="am" d="M1068 241c-7-1 0 3 0 3s-8 3 0 2a7 7 0 005-2 9 9 0 00-5-3z"/><path class="an" d="M1069 242c-7-1 0 2 0 2s-7 3 0 2a6 6 0 003-2 8 8 0 00-3-2z"/><path class="am" d="M1067 243l1 1h-1a28 28 0 015 0l-5-1z"/><path class="al" d="M1055 253l1-10-7 7c-2 3 0 7 0 7s4-1 6-4z"/><path class="am" d="M1053 254c4-6-2-1-2-1s0-8-2-1a7 7 0 000 5 9 9 0 004-3z"/><path class="an" d="M1053 254c4-5-2 0-2 0s0-8-2-2a6 6 0 000 5 8 8 0 004-3z"/><path class="am" d="M1052 253h-1v-1a27 27 0 01-2 5l3-4z"/><path class="al" d="M1058 235l-1 10 5-8a12 12 0 001-7 13 13 0 00-5 5z"/><path class="am" d="M1059 234c-3 6 2 1 2 1s-1 7 2 0a8 8 0 000-5 10 10 0 00-4 4z"/><path class="an" d="M1060 234c-3 5 1 0 1 0s-1 7 1 1a7 7 0 000-4 9 9 0 00-2 3z"/><path class="am" d="M1060 235l1-1v1a40 40 0 011-4 23 23 0 01-2 4z"/><path class="al" d="M1066 237l-10 8 12-5a23 23 0 007-6 23 23 0 00-9 3z"/><path class="am" d="M1069 236c-10 4 0 1 0 1s-8 7 1 1a14 14 0 004-4 18 18 0 00-5 2z"/><path class="an" d="M1069 236c-8 3 1 1 1 1s-8 6 0 1a12 12 0 004-4 15 15 0 00-5 2z"/><path class="am" d="M1068 237h1l-1 1 6-4a47 47 0 01-6 3z"/><path class="au" d="M1063 246a10 10 0 00-1-1 5 5 0 003-1 5 5 0 00-4-2 8 8 0 001 0 12 12 0 003-3 11 11 0 00-4 1 22 22 0 00-3 2 10 10 0 001-2 7 7 0 001-3 6 6 0 00-3 3 15 15 0 000 4l-2-1 1 1-1-1v1a11 11 0 00-2 3 5 5 0 000 4 6 6 0 002-2v2a17 17 0 000 6 17 17 0 002-6 35 35 0 000-4 19 19 0 001 4 11 11 0 004 3 12 12 0 00-1-5 15 15 0 00-2-2 15 15 0 002 1 11 11 0 005 2 12 12 0 00-3-4zm-7-2zm0 0z"/><path class="at" d="M1053 242c1 2 3 3 5 2s1-3 0-5-4-3-5-2-1 3 0 5z"/><path class="at" d="M1053 242c2 2 4 3 5 2s1-3 0-5-4-3-5-2-1 3 0 5z"/><path class="at" d="M1053 240a2 2 0 100-3 2 2 0 000 3zM1054 238l-3-5 3 5zM1052 248l4-2-3-3c-2-1-4 1-4 2s1 3 3 3z"/><path class="at" d="M1053 248l3-2c0-1-1-2-3-2l-3 1 3 3z"/><path class="at" d="M1051 247a1 1 0 10-2-2 2 2 0 002 2z"/><path class="at" d="M1051 245l-5-1 5 1s0 1 0 0z"/><path class="ac" d="M624 506c14-13 31-6 68 11s49 17 59 19 44 28 62 31 22 5 22 5l5 12s-5 11-47 14-62-4-92 15-58 19-95 12-52-9-60-12 15-14 51-11 46-4 41-8-14 2-39 0-64-17-64-17 74-58 89-71z"/><path d="M813 567c-18-3-51-30-62-31s-23-1-59-19l-20-9c1 1 34 19 43 26s11 17 28 21a43 43 0 0128 26c3 7-25 4-42 11s-33 24-49 31a108 108 0 0021-10c30-19 51-13 92-15s47-14 47-14l-5-12-22-5z" style="mix-blend-mode:multiply" fill="#7ebb15"/><path class="aw" d="M632 569c14-4-7-6-21-11s-17-11-1-11 16-6 11-10-9-15 4-15 10-12 10-16c-1-4 4-6 5-7a24 24 0 00-17 7c-14 13-88 71-88 71s19-8 34-8 48 4 63 0zM654 603c2-12-14-12-27-9h11c5 4-6 11-41 8-21-2-37 1-45 4a242 242 0 0149 3c28 5 52 6 53-6z"/><path class="ax" d="M1204 396l49-4 30 12h12l80 30 57-11 22-13 16-8v-6l-42-33-50-19-39-18-21-3-35 17-33 24-33 10-13 15v7z"/><path class="ay" d="M1204 390l49-4 30 12h12l80 30 57-11 22-13 16-8-2-8-40-31-50-19-39-18-21-3-35 17-33 24-33 10-13 15v7z"/><path class="ax" d="M1250 358l11 11 32 3 40 12 23 12 39-3 29-16 22-6 1-14-11-9-62-20-28-11-30-4-36 14-16 14-14 6v11z"/><path class="ay" d="M1250 352l11 11 32 3 40 12 23 12 39-3 29-16 22-6 1-8-11-15-62-20-28-12-30-3-36 14-16 13-14 7v11z"/><path class="az" d="M1359 363l-21-7-14 4v2l11 6 19 3 8 5h7l9-3 1-5-13-4-7-1zM1307 326l-15 3-5 4 2 5 7 1 3-4 7-2 4-4-3-3z"/><path class="ax" d="M1318 339l4-19 13-14 2-7 29-3 34 4 27 1 7 7 2 6 7 38-7 3-13 2-28-4-34 4-22-10-17-3-4-5z"/><path class="ba" d="M1337 299l1 9 30 15 30-10 8 4 11-4 4-3h4l9-2-7-7-27-1-34-4-29 3z"/><path fill="#898989" d="M1398 313l-30 10 2 12-2 6v7l-3 7-4 2 34-4-2-18 2-6-3-3 3 1 3-10v-4z"/><path class="ba" d="M1423 353l-2-5-10-3-3-6-2-7 6-9-8 9-1 14-8 7 28 4 13-2-13-2z"/><path class="bc" d="M1339 347l4-10v-8l3-3 1-4h1l2 8-1 7 1 4-1 4 1 7-11-5z"/><path class="ba" d="M1331 316l1-4 6-4-1-9-2 7-13 14-4 19 5-17 8-6z"/><path class="bd" d="M1354 309l13 7 12-2 8-1 1-3-8-6-9 2-7-4-9 3-1 4z"/><path class="az" d="M1378 304l-7 2-7-4-9 3-1 4 2 1 1-3 8-2 4 2 9-3z"/><path class="ax" d="M1352 363l-21-7-14 4v2l11 6 19 3 15 5 9-3 1-5v-2l-13-2-7-1z"/><path class="bd" d="M1352 362l-21-8-14 4v2l11 6 19 3 15 5 9-3 1-5-13-3-7-1z"/><path class="ax" d="M1306 327l-17 1-5 3v2l1 5 8 1 3-4 7-2 3-4v-2z"/><path class="bd" d="M1304 324l-15 3-5 4 1 5 8 1 3-4 7-2 3-4-2-3z"/><path class="ax" d="M1421 387l-20 12-9 3v4l10 4 22 2 12-10 9-3 3-10v-3l-12 1-7 5-7-2-1-3z"/><path class="bd" d="M1420 385l-19 11-9 2v4l10 5 22 2 12-11 9-2 3-10-12-3-7 5-7-2-2-1z"/><path class="az" d="M1293 366v6l29 9-29-8-32-4v-6zM1356 390v6l34 1 11-1 11-6 10 1 7-3 7-5 10-7h6l-6-5 1-14-1 8-22 6-29 16-39 3zM1458 388h-10v-2l-3 10-9 2-12 11v3l9-4 7-1 8-4 7-10 4-2-1-3zM1361 357l29-2 17 2h16l-28-4-2-18 2-6-3-3 3 1 3-10v-4l-30 10 2 12-2 6v7l-3 7-4 2z"/><path style="mix-blend-mode:multiply" fill="#c6c6c6" d="M1406 317l8 1-2 5-6 9 2 7 3 6 10 3 2 5 13 2h10l-3-3-7-38-2-6-9 2h-4l-4 3-11 4z"/><path class="az" d="M1364 302l-4 4v4l4 4-10-5 1-4 9-3z"/><path class="bc" d="M1331 316l1 9 2 5v16h1l2-12v-9l3-5 2-4 3-4 4 1-11-5-6 4-1 4z"/><path class="az" d="M1283 398v6l17 1 2-5-7-2h-12z"/></g></svg>