<svg xmlns="http://www.w3.org/2000/svg" xmlns:xlink="http://www.w3.org/1999/xlink" viewBox="0 0 1501 1001"><defs><radialGradient id="a" cx="1338" cy="765.7" r="51.8" gradientTransform="matrix(1 0 0 -1 -145 1445)" gradientUnits="userSpaceOnUse"><stop offset="0" stop-color="#c0a373"/><stop offset="1" stop-color="#fff" stop-opacity="0"/></radialGradient><linearGradient id="b" x1="1284.7" y1="1296.5" x2="1284.7" y2="1201.9" gradientTransform="matrix(1 0 0 -1 -146 1444)" gradientUnits="userSpaceOnUse"><stop offset="0" stop-color="#a0edf0"/><stop offset="1" stop-color="#45dbe2"/></linearGradient><style>.c{isolation:isolate}.b{fill:#70b344;stroke:#5f732e}.aa,.at,.b,.t,.u,.x,.y{stroke-miterlimit:10}.c{opacity:.25}.d{fill:#5c4328}.aa,.d,.e,.f,.g,.h,.i,.j,.k,.l,.m,.n,.o,.p,.q,.x,.y{fill-rule:evenodd}.e{fill:#544730}.f{fill:#877657}.g{fill:#ae9c87}.h{fill:#68543c}.i{fill:#9d8264}.j{fill:#b49871}.k{fill:#8f7e5f}.l{fill:#857c68}.m{fill:#a59b84}.n{fill:#67604f}.o{fill:#bdb29a}.p{fill:#c1b09a}.q{fill:#cdb186}.s{fill:#ddc02c}.t,.u{fill:#3f2b0f}.aa,.at,.t,.u,.x,.y{stroke:#1d150c}.u{stroke-width:1.14px}.x,.y{fill:#571c10}.y{stroke-width:1.04px}.aa{fill:#c0a373}.ab{fill:#78a015}.ac,.aw{fill:#7ebb15}.ad{fill:#94d31a}.ae{fill:#897d6f}.af{fill:#635a52}.ah{fill:#91887b}.al{fill:#8ab550}.am{fill:#97c261}.an{fill:#a9d171}.ao{fill:#b3db7b}.ap{fill:#dcf5f5}.aq{fill:#f2ffff}.ar{fill:#fff}.as{fill:#fddfb3}.at{fill:#1d150c}.au{fill:#81a653}.az{mix-blend-mode:multiply}.aw{mix-blend-mode:screen}.ax{fill:#bdbdbd}.ay{fill:#d9d9d9}.az{fill:#cfcfcf}.ba{fill:#cbcbcb}.bc{fill:#c6c6c6}.bd{fill:#e8e8e8}</style></defs><g style="isolation:isolate"><path class="b" d="M1001 501h250v250h-250zM1251 251h250v250h-250zM1001 251h250v250h-250zM1001 1h250v250h-250zM1251 1h250v250h-250zM751 251h250v250H751zM751 1h250v250H751zM751 501h250v250H751zM501 251h250v250H501zM251 251h250v250H251zM501 501h250v250H501zM251 501h250v250H251zM751 751h250v250H751zM251 751h250v250H251zM1001 751h250v250h-250zM501 1h250v250H501zM1251 501h250v250h-250zM1251 751h250v250h-250zM501 751h250v250H501zM251 1h250v250H251zM1 1h250v250H1zM1 751h250v250H1zM1 251h250v250H1zM1 501h250v250H1z"/><use class="c" transform="rotate(48 -16 1450) scale(.09)" xlink:href="#c"/><path class="d" d="M1152 650l8-8 8-8 7-7a13 13 0 001-10c-2-8-9-11-14-17a77 77 0 01-7-8 33 33 0 00-4-5 39 39 0 00-5-3 23 23 0 01-3-4l-5-5-6-9a3 3 0 00-1-1l-16-18-8-9-8-7a4 4 0 00-1-1 32 32 0 00-4-4 34 34 0 01-4-5 37 37 0 00-4-6l-5-5-6-6a12 12 0 00-4-3 6 6 0 01-1 1l-7 4c-2 1-6 0-7-2a8 8 0 01-2 2 21 21 0 01-3 3c-3 2-4 6-6 9a2 2 0 01-2 1l-1 1a2 2 0 01-1 1 10 10 0 01-4 1 27 27 0 00-4 2 11 11 0 00-2 3 19 19 0 00-3 4 5 5 0 003 4 22 22 0 018 7l6 9 16 18 17 19 34 36 17 19 8 9a8 8 0 005 3 8 8 0 005-2l2-1a3 3 0 003-2z"/><path class="e" d="M1095 525c-3-4-5-8-9-4l-4 3c-2 2 4 8 5 9s7 9 9 8c1-1 6-5 6-7 0-3-3-5-5-6zm0 0l2 2c2 2 5 4 5 7 1 2-5 6-6 7-2 2-8-6-10-7-1-2-7-8-5-10l5-3c4-4 6 0 9 4z"/><path class="f" d="M1095 525c-3-3-5-8-9-4s-9 2 0 12c1 1 8 10 10 8l5-4c2-2 2-3 0-5a9 9 0 00-3-3 39 39 0 01-3-4z"/><path class="g" d="M1095 525c-2-2-3-5-5-5a3 3 0 00-3 1l-2 3c-1 3-2 3 1 6 1 1 4 7 7 7s-2 5 4 2l5-6-1-1a9 9 0 00-3-3 39 39 0 01-3-4zm4 7h-1l-2-1 3 1zm-3 5c-1-2 0 0 1 0zm-12-13v5c-1 1-3-3-2-3l2-2z"/><path class="h" d="M1123 562l-6 6c0 1 1 6 4 4 2-1 8-6 8-8 1-1-1-8-6-2zm0 0c4-5 7-1 7 2 0 2-7 7-9 9-3 1-4-3-4-4 0-2 5-6 6-7z"/><path class="i" d="M1123 562l-4 4-2 3 3 4 6-4c1-1 4-4 3-5-1-5-3-6-6-2z"/><path class="j" d="M1128 567c1-1 2-2 1-3 0-4-2-5-4-4a17 17 0 01-1 1l-4 5c-3 2 0 2-1 3a2 2 0 003 2l3-2a20 20 0 003-2z"/><path class="h" d="M1044 516l-7 5c0 1-1 6 2 5 2-1 9-4 10-6 1-1 0-8-5-4zm0 0c4-4 6 1 6 4-1 2-9 6-11 6-3 1-3-3-3-4 0-2 7-5 8-6z"/><path class="i" d="M1044 516l-5 3-3 2c1 2 0 4 2 5 1 1 5-2 6-2l5-4c1-5-2-6-5-4z"/><path class="j" d="M1047 522l2-2c1-4-1-6-3-5a15 15 0 01-1 1l-5 4c-3 1-1 2-2 3a2 2 0 002 2l4-1a20 20 0 003-2z"/><path class="e" d="M1098 591c-6-5-5-7-9-12-3-3 11-10 13-4 0 2 1 2 2 3 0 1 5 5 4 7l-6 4-4 2zm0 0l4-2 6-4c1-1-2-3-2-4l-5-6c-1-6-14 2-12 4 4 5 3 7 9 12z"/><path class="k" d="M1098 591c-6-5-5-8-9-12-3-3 12-11 13-3l4 5c2 4 4 3-3 7-2 1-3 3-5 3z"/><path class="g" d="M1090 576c3-3 11-6 12 0l4 5c2 3 3 3 1 4-3-3-3-1-3 0a3 3 0 001 2l-2 1a31 31 0 01-4 2 5 5 0 010-2c0-2 4-7-2-1-3-2 1-5 2-5 6-5 1-3-2-2-7 1 3-2 3-2 1-3-4-1-4-1-5 1-6 1-6-1z"/><path class="h" d="M1118 614c-2-2-8-6-3-9 2-1 2 0 4-3s3 0 6 2c2 2 10 7 9 9-2 2-6 7-9 6a31 31 0 01-3-2l-4-3zm0 0l4 2 4 3c2 0 7-5 7-6 2-2-7-8-9-9-6-5-3-1-8 1-6 3-1 6 2 9z"/><path class="i" d="M1118 614c-1-1-9-6-2-9 4-2 3-7 8-1 2 2 11 7 9 9-9 9-6 6-14 2a4 4 0 01-1-1z"/><path class="j" d="M1126 605l3 2a6 6 0 01-2 2c-1 0-1 4 5 1 1 1 2 2 1 3l-1 2a18 18 0 00-4 1c-2 2-6 1-7-3-1-1-9-4-4-6 1-3 2-3 5-2 2-3 0 0 4 0z"/><path class="h" d="M1159 635c-3-2-9-6-4-8l4-3c2-3 4-1 7 2 1 1 10 6 8 8s-6 7-9 6a32 32 0 01-3-2l-3-3zm0 0l3 3 4 2c2 0 7-5 8-6 1-2-8-8-10-9-5-5-3-1-8 1-6 3-1 6 3 9z"/><path class="i" d="M1159 635c-2-1-10-6-3-9 4-1 3-7 8-1 3 2 12 7 10 9-9 10-7 6-14 2a5 5 0 01-1-1z"/><path class="j" d="M1166 626l3 2a6 6 0 01-2 2c-1 0-1 5 5 1h1l1 3-2 2a19 19 0 00-4 2c-2 1-6 0-7-3 0-1-9-5-4-6 1-3 2-4 6-3 1-3-1 1 3 0z"/><path class="e" d="M1067 550c7-3 9-3 2-11-5-6-5-4-9-1-2 1-2 1-2 3 0 3 6 8 9 9zm0 0c-3-1-9-7-9-8a1 1 0 010-1l1-3c5-3 5-5 10 1 7 8 5 9-2 11z"/><path class="l" d="M1067 550c3-2 9-2 4-8-7-10-6-7-13-3v3c0 1 6 8 9 8z"/><path class="m" d="M1072 548c1-1 2-3-1-6-6-9-6-8-10-5a1 1 0 000 1c4 5 0 4 4 7 2 2 3 0 3 1 0 2 2 3 4 2zm-2-5s0 2-1 1c-5-6-2-6 1-1z"/><path class="e" d="M1154 648c7-2 9-3 2-11-5-5-5-3-9-1-2 1-2 1-2 4 1 2 6 7 9 8zm0 0c-3 0-9-7-9-8 0-3 0-3 2-4 4-3 4-5 9 1 7 8 5 9-2 11z"/><path class="l" d="M1154 648c3-1 9-2 5-8-8-10-7-7-13-3l-1 3c0 1 6 8 9 8z"/><path class="m" d="M1159 646c1-1 2-2 0-6-7-8-7-7-11-5a1 1 0 000 1c4 5 0 4 5 8h2c0 2 2 3 4 2zm-2-5c1 1 0 2-1 1-4-6-2-6 1-1z"/><path class="e" d="M1107 589c2 3 7 9 10 10 2 1 2-4 0-6l-3-3c-4-5-3-3-6-3l-1 2zm0 0v-2c4 0 3-2 7 3l3 2c2 3 3 9-1 7s-7-7-9-10z"/><path class="k" d="M1107 589c4 6 12 14 11 8 0-4-1-4-4-7-4-6-3-3-6-3l-1 2z"/><path class="g" d="M1118 599v-2c0-4-1-4-4-7-4-5-3-3-6-3l5 5c2 9 3 0 4 5a4 4 0 001 2z"/><path class="h" d="M1081 534c-3-2-3-5-6-2l-4 2c-2 2 2 5 3 6 2 4 3 6 7 3l5-5c1-2-4-3-5-4zm0 0c1 0 6 2 6 4l-6 5c-4 3-6 1-8-2 0-2-5-5-2-7l4-3c4-3 3 1 6 3z"/><path class="j" d="M1081 534c-3-1-2-6-7-2-1 1-8 1-1 8 1 1 3 9 10 1 3-3 7-3 0-6l-2-1z"/><path class="i" d="M1081 534c-3-1-2-5-5-3a5 5 0 01-1 0l-1 1-3 1c0 3 7 7 6 10h4a19 19 0 002-2 1 1 0 001 0 3 3 0 00-2-3c-2-1-1-2 0-4a6 6 0 00-1 0z"/><path class="e" d="M1053 541c-6-4-5-6-9-11-2-3 11-11 13-4l2 3 4 6-6 4-4 2zm0 0c2 0 2-1 3-2l6-4-1-3-5-6c-1-6-14 1-12 4 4 4 3 6 9 11z"/><path class="l" d="M1053 541c-6-4-5-8-9-11-2-3 12-11 13-3l4 4c2 4 3 3-3 7-2 1-3 3-5 3z"/><path class="m" d="M1051 524c3-1 5-1 6 3l4 4c2 4 3 3-1 6a7 7 0 01-1-2c-1-2-4-3-5-2-4 1-2-1-4-1-1 1-3-3-1-4l2-4zm7 14a16 16 0 00-2-3c-2-1-2 1-4 1-1 0-2 2 1 3a14 14 0 002 1l3-2z"/><path class="n" d="M1144 620c-1-1-8-8-8-10l4-7c5-3 11 5 14 8 1 2 7 9 5 11l-4 4-6-4-5-2zm0 0l4 2c1 0 5 5 7 4a57 57 0 004-4c4-3-8-15-10-17-6-5-11-3-13 5-1 1 7 9 8 10z"/><path class="l" d="M1144 620l-8-10s4-15 14-3c2 2 12 13 9 15-6 5-3 6-9 1l-6-3z"/><path class="m" d="M1137 607c1-3 5-8 11-2l1 2a3 3 0 003 2c3 3 8 9 8 12-3-1-2 7-12-1-3-3 0-2 1-3 5-2-3-1-3-1-6-1 0-6-5-7l-4-2z"/><path class="e" d="M1101 593c2 4 6 13 10 14 2 0 3-6 2-9l-3-4c-4-6-3-3-8-3l-1 2zm0 0l1-3c5 1 4-2 8 4l3 4c2 3 1 11-3 9s-7-10-9-14z"/><path class="k" d="M1101 593c3 8 11 19 12 12 1-6 0-6-3-11-4-7-3-3-8-3-1-1-1 0-1 2z"/><path class="g" d="M1113 604c1-6-1-6-3-10l-1-1a2 2 0 01-2-1 3 3 0 00-3 0c-2 4 6 4 7 9-3 2-4-3-5-4-2 1 5 8 5 8l2-1z"/><path class="e" d="M1166 620c2 3 6 10 10 8 2-2 3-11 1-13l-2-3c-5-4-3-1-8 3l-1 5zm0 0l1-5c4-4 3-7 8-3l2 2c2 3 2 14-2 15s-7-5-9-9z"/><path class="k" d="M1166 620c3 7 11 14 12 2 1-9-1-7-3-10-5-4-4 0-8 3l-1 5z"/><path class="g" d="M1178 622c1-9-1-7-3-10l-2-1-1 1c-2-1-4 3-4 4-1 6 7-2 8 4-3 5-4 1-5 0-2 4 5 5 5 6l2-4z"/><path class="h" d="M1124 577l-1-4c0-2-1 1-1 1l-2 1 2 1c2 1 1 1 1 2a3 3 0 002 0l-1-1zm0 0a1 1 0 001 1c2 1-1 1-2-1l-3-1c-2-1 1-2 1-2 1-1 2-4 2-1l1 4z"/><path class="i" d="M1124 577l-1-4c0-2-2 1-2 1s-2 0-1 1l2 2c1 0 1-1 1 1h2a1 1 0 01-1-1z"/><path class="h" d="M1123 578a3 3 0 01-2 0c-3 1-5 3-5-1 1-2 0-4 2-3s-1 1 3 3l2 1s0-1 0 0zm0 0a3 3 0 00-2-1s-3-1-2-2c0-1-2-2-2 1s-2 4 2 3l4-1zm0 0z"/><path class="i" d="M1123 578l-2-1s-3-1-2-2c0-1-3-2-2 1 0 1-2 5 2 3a21 21 0 014-1z"/><path class="h" d="M1104 555c1-1 4 4 5 5 3 3-2 1-3-1l-2-4zm0 0c2 4 2 5 6 6a4 4 0 00-1-1c-1-1-3-5-5-5z"/><path class="k" d="M1104 555c1-1 4 3 5 5l1 1c-5-1-4-3-6-6z"/><path class="h" d="M1046 524c1 2-4 4-5 5-4 2-1-3 1-4l4-1zm0 0c-4 2-5 1-7 5a4 4 0 001-1c2 0 6-2 6-4z"/><path class="k" d="M1046 524c1 2-4 3-5 4l-2 1c2-4 3-3 7-5z"/><path class="h" d="M1125 600c1 1 1 2-1 2s-2-4-4-7c-2-1-3-4 1 0l4 5zm0 0a22 22 0 01-4-5c-4-5-3-1-2 1l3 5c1 3 6 0 3-1z"/><path class="k" d="M1125 600s2 1-1 2-2-4-5-6c-1-2-1-6 2-1a18 18 0 004 5z"/><path class="h" d="M1117 600a22 22 0 00-3-1v5a2 2 0 000 1l3-5zm0 0c1 1-4 8-3 3 0-2-2-7 3-3z"/><path class="k" d="M1117 600l-3-2v3c1 2-1 5 1 3l2-4z"/><path class="h" d="M1152 649a22 22 0 00-3-2l1 6 2-4zm0 0c1 0-3 8-3 3 1-3-2-8 3-3z"/><path class="k" d="M1152 649l-3-2 1 2c0 3-1 5 1 4l1-4z"/><path class="h" d="M1105 604l-2 3 2 2c1 0 7 3 6 1l-4-6a5 5 0 00-2 0zm0 0c3 0 3 3 5 5 2 3-3 0-4 0l-2-2 1-3z"/><path class="i" d="M1105 604l-1 3 4 3s4 2 2-1c-1-1-3-6-5-5z"/><path class="e" d="M1059 525l6 6 4 6c-1 0-11-9-11-11-1-2-1-2 1-1zm0 0c-2-1-2-1-1 1l11 11-3-4a24 24 0 00-2-2l-5-6z"/><path class="l" d="M1059 525l6 6a18 18 0 002 4c2 2 2 3-2-1l-8-8s-1-2 1-1h1z"/><path class="h" d="M1076 547a21 21 0 00-1-2c-1 1 0 2-3 4a2 2 0 00-1 0c1 1 5-1 5-2zm0 0c1 2-8 5-4 1 2-2 4-7 4-1z"/><path class="k" d="M1076 547l-1-2-1 2c-1 2-4 2-2 3l4-3z"/><path class="h" d="M1064 553a22 22 0 001 3l4-5a3 3 0 001 0c-1-1-5 1-6 2zm0 0c0-1 10-5 5-1-2 2-4 9-5 1z"/><path class="k" d="M1064 553l1 4 2-3c1-2 5-4 2-4l-5 3z"/><path class="n" d="M1079 530l4 1 4 3c2 1 1 2 0 2a50 50 0 01-6-3s-3-1-2-3zm0 0a915 915 0 008 5 7 7 0 00-1-1l-3-3-4-1z"/><path class="l" d="M1079 530l4 1c1 0 2 3 4 3 0 0 2 3-1 1a14 14 0 01-3-1l-2-1a3 3 0 01-1-1l-1-2z"/><path class="e" d="M1071 539l3 4c2 2-1 2-2 0l-1-2s-3-4-1-4l1 1a1 1 0 010 1zm0 0l-1-1c-2-1 2 4 2 4l2 2-1-1-2-4z"/><path class="k" d="M1071 539l2 4c1 0 1 2-1 0 0-1 1-1-1-2l-1-2c-1-2 0-2 1 0z"/><path class="e" d="M1044 531l2 4c1 2 0 2-1 0l-1-2s-3-4-1-3v1a1 1 0 011 0zm0 0l-1-1c-2-1 2 4 2 4l1 2v-1l-2-4z"/><path class="k" d="M1044 531l2 4c1 0 1 2-1 0l-1-2a24 24 0 00-1-2c-2-1 0-2 0 0a2 2 0 001 0z"/><path class="h" d="M1054 519a43 43 0 00-4 4h6l-2-2v-2zm2 4zm-2-4l1 3c2 1 1 1 0 1h-5c-3 1 4-4 4-4z"/><path class="i" d="M1054 519l-3 3-1 1h5c1 0 2 0 0-1l-1-3z"/><path class="h" d="M1093 565c1 0 2 0 2 2l1 2a9 9 0 001 1c1 2-3 3-3 3v-6l-1-2zm0 0l2 4-1 4 3-2a9 9 0 01-1-2l-1-2c0-2-1-2-2-2zm1 8"/><path class="i" d="M1093 565c2 0 1 0 2 2l1 2 1 1c1 1-2 2-2 3-2 0 0-3 0-4a10 10 0 00-2-3v-1z"/><path class="h" d="M1096 565l1 4 1 2v-3c0-2 1-2-2-3zm0 0a3 3 0 011 0c1 1 2 1 1 2v4l-1-2-1-4z"/><path class="i" d="M1096 565l1 4 1 2v-2c-1-1 2-3 0-3l-2-1z"/><path class="e" d="M1089 538c-1-1-2 1-3 2l4-1a2 2 0 000 1l-1-2zm-3 2l3-2 1 1c2 1-1 1-1 1h-3l3-2z"/><path class="k" d="M1089 538c-1-1-2 1-2 2h2c1 0 2 0 1-1l-1-1z"/><path class="e" d="M1079 527c-1-1-2 1-2 1a1 1 0 000 1l3-1a2 2 0 001 0l-2-1zm-3 2l3-2h1c2 2-1 1-1 1l-3 1c0-1 3-4 3-2z"/><path class="k" d="M1079 527l-2 1c-2 2 2 0 2 0 1 0 2 1 1-1h-1z"/><path class="h" d="M1079 545c0 1-3 0-1 3 0 2 2-3 2-3a4 4 0 00-1 0zm1 0h-1a1 1 0 011 0l-1 3a1 1 0 01-2 0c-1-3 2-2 2-3z"/><path class="i" d="M1079 545c0 1-3 0-2 3h2l1-3h-1z"/><path class="e" d="M1108 582h5c2 0 1 0 1 2v2h-4l-1-2-1-2zm0 0c-1 1 1 1 1 2l1 2h3l1-2-1-2h-5z"/><path class="k" d="M1108 582h5c2 0 1 1 1 2v2h-4c-2 1-1-2-1-2l-1-2z"/><path class="e" d="M1086 578c1 3-3 4 0 3 2 0 4 3 4 1 0-1-2-1-2-3-1-2-2-2-2-1zm0 0s1-1 2 1l2 3c0 2-2 0-3 0-4 0-1-1-1-4z"/><path class="k" d="M1086 578c1 2-3 4 1 4 1-1 2 2 3 0 0-1-2-1-2-3s-2-2-2-1z"/><path class="e" d="M1099 592l2 2c2 4 2 6 0 3l-2-2c-1-2-2-3 0-3zm0 0l-1 1 3 3 1 2a17 17 0 00-2-4l-1-2z"/><path class="k" d="M1099 592l1 2 2 4a7 7 0 00-1-2l-3-3c-1-1 0-1 1-1z"/><path class="h" d="M1125 621c1-1 2 0 2 1l1 2a10 10 0 001 2c1 1-3 3-3 3v-6l-1-2zm0 0l1 4v3l3-2a8 8 0 01-2-2v-2l-2-1zm1 7"/><path class="i" d="M1125 621l2 1v2l2 2c1 1-2 2-3 2v-3a10 10 0 00-1-4z"/><path class="h" d="M1153 628c-1 0-1-1-2 1l-2-1c-1-1-6-6-3-6l6 4a7 7 0 011 2zm0 0v-1c-1-2-4-3-6-4-4-2 0 2 1 4l3 2 2-1z"/><path class="i" d="M1153 628l-2 1-4-4c-1 0-4-4 0-2 1 1 6 2 6 4a2 2 0 000 1z"/><path class="h" d="M1134 633c2-1 5 3 6 4 3 3-1 1-3 0l-3-4zm0 0c3 4 3 4 7 5a5 5 0 00-1-1c-1-1-4-4-6-4z"/><path class="k" d="M1134 633c1-1 5 3 6 4l1 1c-4 0-4-2-7-5z"/><path class="h" d="M1159 615l5 5c3 3-2 1-4 0l-2-5h1zm0 0l-1 1c3 3 2 4 6 5a4 4 0 000-1l-5-5z"/><path class="k" d="M1159 615l5 5 1 2c-5-1-4-3-6-6v-1z"/><path class="h" d="M1163 644l-5-6c-3-2 2-1 4 1l2 4-1 1zm0 0l1-1c-3-4-2-5-6-6a4 4 0 000 1l5 6z"/><path class="k" d="M1163 644l-4-5-1-2c4 1 3 3 6 6l-1 1z"/><path class="e" d="M1053 543c2 3 7 9 10 10 1 1 1-4-1-5l-3-3c-4-5-2-3-6-3v1zm0 0v-1c3 0 2-2 6 3l3 2c2 3 3 8 0 6l-9-10z"/><path class="l" d="M1053 543c4 6 12 14 11 9-1-4-2-4-5-7-4-5-3-3-6-3v1z"/><path class="m" d="M1064 553v-1c-1-4-2-4-5-7-4-5-3-3-5-3l5 5c2 7 2 0 4 5a4 4 0 001 1z"/><path class="n" d="M1132 606l3 2 1 3v2a36 36 0 01-4-4v-3zm0 0v3l4 4a5 5 0 000-1l-1-4c-2 0-2-1-3-2z"/><path class="l" d="M1132 606l2 2c2 0 1 3 2 4 0 0 1 2-1 0a10 10 0 01-1-1l-2-2v-1-2z"/><path class="n" d="M1137 605l-3 1 1 1 1 1v-1l1-1a2 2 0 001-1h-1zm0 0v1l-1 2c-1 2-1 0-1-1-1 0-3-1-1-1l3-1z"/><path class="l" d="M1137 605l-3 1c-2 0 1 1 1 1s0 2 1 1l1-2v-1z"/><path class="n" d="M1142 598l1 3 4 2h1a43 43 0 00-3-4c-1 0-2-2-3-1zm0 0a398 398 0 006 5 5 5 0 01-1 0l-3-2-2-3z"/><path class="l" d="M1142 598l1 3 4 2s3 2 0-1a10 10 0 00-1-1l-1-2a3 3 0 00-1-1h-2z"/><path class="h" d="M1130 607a22 22 0 00-1-3l-3-2a6 6 0 001 3c1 1 4 4 3 2zm0 0l-3-2a6 6 0 01-2-3l4 2 1 3z"/><path class="i" d="M1130 607l-1-2v-1a15 15 0 00-3-2v2a4 4 0 001 2l3 1z"/><path class="h" d="M1129 620a25 25 0 00-2 0l2 5v-5zm0 0c2 1 0 9-1 4 0-3-4-6 1-4z"/><path class="k" d="M1129 620h-3l1 2c2 2 1 5 2 3v-5z"/><path class="n" d="M1096 546c-5-4-6-7-12-3-2 1-6 5-3 8 4 2 4 4 6 6l3 3c5 5 8 5 13 0 3-2 0-4-2-7a30 30 0 00-5-7zm0 0l5 7c2 3 5 5 2 8-4 5-8 5-13-1l-3-3-6-6c-4-3 1-7 3-9 6-3 8-1 12 4z"/><path class="l" d="M1096 546l-6-5c-4-2-14 7-9 10 3 1 4 5 8 7 1 1 5 11 14 3 1-2 2-3 0-6l-7-9z"/><path class="m" d="M1096 546a9 9 0 01-1-1c-5 2-3-1-2-2a12 12 0 00-3-2 3 3 0 00-2 0c-3 3-8 8-5 9 3 0 5 7 7 5 4-5 8-5 9-5a18 18 0 00-3-4zm4 17c-1 0-1-2-5-1-4 0-5-3-2-4 1 0 8-2 2-1-7 1-4-3-2-3 1 0 2-3 6-4l4 5c2 3 1 4 0 6a14 14 0 01-3 2z"/><path class="o" d="M1090 542l3 2-1 1v2a5 5 0 002 0h-4c-1-2 1-3 2-4l-2-1zm2 2z"/><path class="n" d="M1079 504c-4-4-6-7-12-3-2 1-6 5-2 8l6 6 3 3c4 5 8 5 12 0 3-2 0-4-2-7a31 31 0 00-5-7zm0 0l6 7c2 3 4 5 2 8-5 5-9 5-14-1l-3-3c-2-2-2-4-5-6-5-3 0-7 2-9 6-3 8-1 12 4z"/><path class="l" d="M1079 504s-3-4-6-5c-3-2-14 7-8 10 3 1 3 5 7 7 1 1 6 11 14 3 2-2 3-3 0-6l-7-9z"/><path class="m" d="M1079 504a11 11 0 01-1-1c-5 2-3-1-2-2a12 12 0 00-3-2 3 3 0 00-1 0c-4 3-9 8-5 9 3 0 4 7 6 5 5-5 8-5 9-5a18 18 0 00-3-4zm4 17c-1 0-1-2-5-1-4 0-5-3-2-4 1 0 8-2 2-1s-3-3-2-3 2-3 7-4l3 5c3 3 2 4 0 6a13 13 0 01-3 2z"/><path class="o" d="M1074 500s3 1 2 2l-1 1c-1 1-1 1 1 2a5 5 0 002 0h-4c-2-2 0-3 1-4l-2-1zm2 2z"/><path class="n" d="M1103 575c-5-5-6-7-1-11 2-3 3-4 7-2l7 7-1 10c0 2-3 3-6 2l-6-6zm0 0a40 40 0 005 5c3 3 7 1 7-1 0-3 2-8 1-10l-7-7c-4-2-5-1-8 1-4 5-3 7 2 12z"/><path class="l" d="M1103 575c-3-3-4-4-4-7 0-2 5-8 7-7 6 2 4 2 9 7 3 2 0 7 0 11 0 1-1 2-3 2-3 1-6-3-9-6z"/><path class="m" d="M1100 566c1-2 4-6 6-5 6 2 4 2 9 7a3 3 0 011 2c-1 1-3 2-1 3l1 1a18 18 0 00-1 5c-7 2-5-3-8-5-3-1-2-4-5-5a3 3 0 01-2-3zm9-2c-3-3-6 2-3 1l2 1 1-2z"/><path class="o" d="M1111 564c1 1 4 2 4 4s-2 2-1 3v2c-1-1-2-2 0-4s-3-4-3-5z"/><path class="n" d="M1135 653c-5-5-6-6-1-11 2-3 3-3 7-1 2 0 6 5 7 6l-1 10c0 2-3 3-6 2l-6-6zm0 0a40 40 0 005 5c3 3 7 1 7-1 0-3 2-8 1-10l-7-7c-4-2-5-1-8 2-4 4-3 6 2 11z"/><path class="l" d="M1135 653c-3-3-4-4-4-7 0-2 5-8 7-7 6 2 4 2 9 7 3 2 0 8 0 11 0 1-1 2-3 2-3 2-6-3-9-6z"/><path class="m" d="M1132 644c1-2 4-5 6-5 6 2 4 2 9 7a3 3 0 011 2c-1 1-3 2-1 4h1a17 17 0 00-1 5c-7 2-5-3-8-5-3-1-2-3-5-5a3 3 0 01-2-3zm9-1c-3-4-6 1-3 0l2 1 1-1z"/><path class="o" d="M1143 643c1 0 4 2 4 4s-2 1-1 3v2c-1-2-2-3 0-4s-3-5-3-5z"/><path class="n" d="M1133 588c-4-4-8-12-15-7-3 2-5 5-2 7 4 4 13 17 16 18 2 0 14-5 8-11l-7-7zm0 0a80 80 0 017 7c5 6-5 11-7 11-4 0-13-14-17-17-5-4 1-10 6-10s8 6 11 9z"/><path class="l" d="M1133 588s-6-8-9-9c-6-2-13 6-8 10 4 2 13 18 17 17s12-6 7-11l-7-7z"/><path class="m" d="M1122 583c5 3 7 9 2 3 0 0-6-4-3-4l1 1zm11 5s-6-8-9-9a8 8 0 00-7 3 3 3 0 000 4c2 1 1-1 4 3 4 5 7 5 11 7 4 1 6 7 4 5-2-3-6-7-10-4l8 9c4-2 10-6 6-11l-7-7z"/><path class="o" d="M1124 590c3 3 3 3 7 4 2 0 5 2 6 5a6 6 0 000 1l-1-1c0-2-3-4-5-4-4-1-4-1-7-5z"/><path class="e" d="M1133 568l7 6c2 2 11 10 11 13l-6 5c-2 4-4 1-7-2l-9-8c-3-4-8-8-2-13 2-2 3-3 6-1zm0 0c-4-2-4-1-7 2-4 5 0 8 3 11l10 9c2 2 4 5 6 2l5-5c1-3-7-10-8-11l-9-8z"/><path class="k" d="M1133 568c3 1 4 3 6 6 2 1 12 10 12 12l-6 6c0 2-2 2-3 1l-13-11c-1-3-7-7-3-12l2-2c2-1 2-2 5 0z"/><path class="g" d="M1133 568c3 1 4 3 6 6 2 1 12 10 12 12l-6 6a3 3 0 01-1 2 40 40 0 01-5-4l-1-2-1-1c-1-1 0-3 2-3h2c2 0 0 1 0 1l2 2 2 1h1v-1a7 7 0 01-3-2l-4-3-3-1-6-5c-1-1-4-4-4-6l2-2c2-1 2-2 5 0z"/><path class="p" d="M1129 568c3-1 5 2 7 4 3 2 4 1 7 5a17 17 0 014 6v1l-1-2c-2-4-5-7-9-9s-4-4-8-5z"/><path class="e" d="M1073 569c-2 2-6 8-9 5-4-3-19-18-14-23 0-1 3-4 5-3 3 1 16 16 18 19a9 9 0 010 2zm0 0a5 5 0 000-2c-2-3-15-19-18-20-2 0-5 3-6 4-4 5 11 20 15 23 3 3 7-3 9-5z"/><path class="l" d="M1073 569c-2 2-6 8-9 5-4-3-19-19-14-23 5-5 4-6 13 5l10 11a7 7 0 010 2z"/><path class="m" d="M1073 569l-2 2a1 1 0 01-1-1c-2-3-3 3-4-4-6-3-5-4-6-9-1-2-8 0-2 3l3 3c1 2-3 0-5-1-1-1-2 0-2 1-4-5-7-10-4-12 4-4 4-5 8-1 0 1-1 1 2 2l3 4 10 11a6 6 0 010 2zm-4 4c1-1 0-3-2-3-3 0-3-3-3-2-3 4-2 3-5 1l5 5c2 2 4 1 5-1z"/><path class="o" d="M1054 548c5 1 2 2 4 4 1 1 2 0 3 2a58 58 0 017 9l-9-9-2-2c-1-2 2-2-3-4z"/><path class="h" d="M1076 587c3-1 9-5 8-10 0-2-2-1-4-4s-2-4-5-2c-8 3-7 11-1 15zm0 0l-2-1c-7-4-7-12 1-16 3-1 4 0 5 3s5 2 5 6-5 7-9 8z"/><path class="i" d="M1076 587c4 0 13-9 6-12-3-2-2-8-10-3-6 4-2 13 4 15z"/><path class="j" d="M1083 582c2-3 3-6-1-7-3-2-2-7-8-4 2 1 4 1-1 5-3 2-2-2-2-3a7 7 0 00-2 4 4 4 0 004 2c4-1 6 5 10 3z"/><path class="q" d="M1073 578a10 10 0 016 3h3l-1 1c-2 1-3-1-5-2l-3-2z"/><path class="h" d="M1097 609c2-1 9-4 7-7l-9-11-5-6c-3-3-3-3-7 0-1 1-4 3-4 5l4 5c3 3 5 6 8 7 0 0 4 7 6 7zm0 0c-1 1-5-6-6-7-4-1-5-4-8-7-1-2-4-4-4-6s4-5 5-5c3-2 4-1 6 1l5 5c4 4 5 8 9 11 3 4-5 7-7 8z"/><path class="i" d="M1097 609c2-1 10-5 7-8l-9-11-5-5c-2-1-3-4-7 0-4 3-6 4-2 8 2 2 6 8 10 9l6 7z"/><path class="j" d="M1101 607c2-2 4-4 3-6l-9-11-5-5c-2-1-3-4-7 0l-2 2 1 3c4 1 8 9 9 9 2-1 3 0 2-2v-6c1-4 2 10 4 10 4 1 3 4 4 6z"/><path class="q" d="M1096 595l1 5c1 1 5 3 3 4 0-2-2-2-4-3v-6z"/><path class="h" d="M1126 630l-4 6c0 1 4 9 6 7 2 0 8-4 7-7 0-1-6-11-9-6zm0 0c2-5 9 3 10 6s-6 7-7 8c-3 1-6-5-7-7s3-6 4-7z"/><path class="i" d="M1126 630c-1 1-3 2-3 4-1 1-2 1-1 3l5 7c1 1 5-3 6-3 1-1 3-3 2-5-3-7-7-9-9-6z"/><path class="j" d="M1129 643l3-2c1-1 4-3 3-5-3-6-6-8-8-7l-3 4c-2 2 2 7 4 6 0 0 2 0 0 2l1 2z"/><path class="q" d="M1129 631c1-1 3 2 4 3a8 8 0 011 4l-2-3-3-4z"/><path class="e" d="M1151 631c-2 2-7 7-9 5l-6-4-5-5-1-6c0-8 6-8 10-2 3 4 3 5 8 9a12 12 0 003 3zm0 0v-1a14 14 0 01-3-2l-8-9c-4-6-10-6-10 2 0 3-1 5 1 6l5 5c3 4 4 3 6 5s7-4 9-6z"/><path class="k" d="M1151 631c-1 2-7 8-9 5-2-1-3 0-7-5s-5-3-5-10c0-5 4-8 8-5l9 12 4 3z"/><path class="g" d="M1151 631l-7 6 1-2-5-4c-3-2-3-5-7-5-6 0 1-10 2-10 5 1 4 2 6 3l6 9 4 3z"/><path class="p" d="M1135 617c5 0 2 1 4 2l2 2a47 47 0 016 8l-7-8-2-1c-2-2 1-2-3-3z"/><path class="h" d="M1115 546c-3-1-2-1-4-4-2-1-4-6-7-5l-3 1c-2 0-5 4-4 6 1 5 4 6 8 9a69 69 0 017 9c1 1 4 5 6 4l7-7c1-2-3-6-4-7a53 53 0 00-6-6zm0 0a41 41 0 016 6c1 1 5 5 4 7l-7 7c-2 2-6-3-7-4a74 74 0 00-7-8c-3-4-6-5-8-10 0-2 4-6 5-6l3-1c3-1 5 3 7 5 2 3 1 3 4 4z"/><path class="i" d="M1115 546c-3-1-2 0-3-2l-3-4c-2-2-3-5-6-3-2 2-2 0-5 3-2 3-2 3-1 5 2 5 5 5 8 8l7 9a23 23 0 004 4c2 2 3-1 4-2l2-2c4-4 4-4 0-9l-7-7z"/><path class="j" d="M1111 542a14 14 0 00-2-2c-2-2-3-5-6-3l-1 1c-1 1-2 4-1 5 3 2 3 5 6 6l4 1c1 1 4 2 4 4 1 2 6 4 9 6 2-2 2-3-2-7l-3-4c-4 0-6-1-8-6v-1zm4 23a6 6 0 01-1-2c-2-7-6-8-11-12-1-1-5-7-3-8 3 2 1 4 6 7 4 4 2-1 9 6l7 6-2 2c-1 1-2 4-4 2z"/><path class="q" d="M1123 559c2-2 2-2 0-4l-7-5a17 17 0 01-4-4l5 4 5 3c2 1 5 5 1 6z"/><path class="h" d="M1058 522l5 4c1 2 4 6 6 6l3-1c2 0 5-4 5-6-2-5-5-6-9-10a69 69 0 01-7-8c0-1-4-5-6-4l-7 7c-1 2 3 5 4 7a54 54 0 006 5zm0 0a42 42 0 01-6-5c-1-2-5-5-4-7l7-8c2-1 6 4 7 5a75 75 0 007 8c3 4 6 5 8 10 0 2-3 6-5 6l-3 1c-3 1-5-4-7-6l-4-4z"/><path class="i" d="M1058 522l3 3 3 3c2 2 3 6 7 3 1-1 1 1 4-2 2-3 2-3 1-6-1-4-5-5-7-8l-8-8a23 23 0 00-4-4c-2-2-3 1-4 2l-2 2c-4 4-4 4 0 8l7 7z"/><path class="j" d="M1063 527a15 15 0 001 1c2 2 3 6 7 3 1-2 2-4 1-5-3-2-3-6-6-7h-4l-4-4c-1-3-6-4-8-7-3 3-3 3 1 7l4 4c3 1 5 1 7 7l1 1zm-5-23a6 6 0 011 2c2 7 6 7 11 12 1 1 5 7 3 8-3-2-1-4-6-8-4-3-2 2-9-5l-7-6 2-2c1-1 2-4 4-2l1 1z"/><path class="q" d="M1050 510c-1 1-2 2 1 4l6 4a17 17 0 014 5l-5-4-5-4c-2-2-5-4-1-5z"/><path class="e" d="M1088 558c-4-2-5-3-8-7s-5-2-9 1c-3 2-5 4-3 7l2 2c3 5 3 6 8 8 3 1 7 8 9 7 12-5 5-10 1-17a2 2 0 000-1zm0 0a1 1 0 010 1c4 7 11 12-1 17-2 1-6-6-9-7-5-2-5-3-8-7l-2-3c-3-3 0-6 3-8 4-2 6-3 9 0l8 7z"/><path class="k" d="M1088 558c-8-4-8-11-14-8-4 1-10 6-5 10 1 1 3 8 9 9 3 0 7 8 9 7 12-5 5-11 1-17a4 4 0 000-1z"/><path class="g" d="M1087 558a13 13 0 01-1-1 29 29 0 01-8 3 20 20 0 01-4 0l4-1a19 19 0 007-2c-5-5-6-10-11-7-11 5-7 12 4 12 3 0 7-3 5 1l-3 7 3 3c-1-3 6-5 7-9 1-2-4-4-3-6zm-14 8c3-1 8-2 4 3a9 9 0 01-4-3zm20 2c0 6-6 8-6 5 0-5 3-8 5-7a10 10 0 011 2z"/><path class="p" d="M1076 550c0-3 4 2 4 2a23 23 0 003 2l3 3-4-2-5-5h-1z"/><path class="k" d="M1067 556h12c3 1 3 0 5-1a6 6 0 01-4 2h-4c-3 1-1 3-5 5 4-2 2-3 4-5-3 0-2 3-5 3 3 0 2-3 5-3 2 0 5 0 4-1h-12zm17-1z"/><path class="e" d="M1124 630l-5 4c-3-1-9-9-12-12-3-2-10-6-6-10 3-3 2-2 7 0 3 0 8 1 10 3s8 8 7 12a5 5 0 01-1 3zm0 0l2-4c-1-4-7-11-10-12l-13-4-3 3c-2 4 4 8 6 10 4 2 10 10 13 11 2 1 4-3 5-4z"/><path class="k" d="M1124 630c-1 1-3 5-5 4-2 0-7-5-8-7l-7-6c-3-2-6-6-3-9 2-2 1-3 6-1 2 1 9 2 11 4 3 3 11 10 6 15z"/><path class="g" d="M1104 610a13 13 0 013 1c2 1 9 2 11 4 2 3 9 8 7 13-2 2-2 4-8-1-4-3-2-3-6-7l-7-9v-1z"/><path class="p" d="M1110 613c4 0 14 6 14 11v1-1c-2-5-10-9-14-11z"/><path class="e" d="M1113 613l-2 7c1 3-3 8 0 3v-6c1-4 2-3-3-1l4-2s0-2 1-1zM1144 596l6-6c4-3 5 1 8 4 2 2 13 12 13 14l-5 5c-1 2-4 5-6 3l-9-10c0-1-9-9-7-10zm0 0c-1 1 7 9 8 10l9 9c1 2 4 0 5-2l4-5c1-1-10-11-11-13-5-4-5-8-11-3l-4 4z"/><path class="k" d="M1144 596l6-6c3-2 4 0 7 3l8 8c2 2 6 6 5 7l-4 5c-1 2-4 5-6 2l-12-13s-5-5-4-6z"/><path class="g" d="M1157 593l8 8c2 2 6 6 5 7a8 8 0 01-1 1l-2 1c-1 3 0 3-3 4-4 1-5-2-4-3 3-4-2-3-5-4l-9-9c-1-3 0-4 2-5 3-3 5-2 5-2l4 2zm-3 2a7 7 0 012 1h1a1 1 0 01-1-1c0-1-6-3-2 0zm6 14c-1 0-2-2-3 0 0 0 1 2 2 1l1-1z"/><path class="p" d="M1160 598c1-1 7 8 8 9l-1-1-7-8z"/><path class="k" d="M1146 594a6 6 0 003 0c2 0 4 2 4 3v-1l-4-2h-3z"/><path class="e" d="M1026 534l6-7c4-2 6 2 8 4s14 13 13 14l-5 6c-1 1-3 4-5 2l-9-10-8-9zm0 0c-1 1 7 8 8 9l9 10c2 2 4-1 5-3l5-5-12-12c-4-5-5-9-11-4l-4 5z"/><path class="k" d="M1026 534l6-7c3-2 5 0 7 3l9 9 5 6-5 5c0 2-3 5-5 3a174 174 0 00-12-13l-5-6z"/><path class="g" d="M1039 530l9 9 5 6a8 8 0 01-1 1l-3 1c-1 3 0 3-3 4-4 1-4-2-4-3 3-3-2-3-5-4l-8-9c-2-3 0-3 1-5 3-3 5-2 5-2l4 2zm-3 3a8 8 0 012 1c1 1 1-1 1-1a2 2 0 010-1s-7-3-3 1zm6 14c0-1-2-3-3-1a2 2 0 003 1s1 0 0 0z"/><path class="p" d="M1043 535l7 9-1-1c-3-2-4-5-6-8z"/><path class="k" d="M1029 531a6 6 0 002 0c2 0 4 2 4 3-1-1-2-3-4-3h-3 1zM1113 613l-2 7c1 3-3 8 0 3v-6c1-4 2-3-3-1l4-2v-2l1 1z"/><use class="c" transform="rotate(-39 1347 -968) scale(.09)" xlink:href="#c"/><path class="d" d="M1066 555l-7-8-7-9-8-7a13 13 0 00-10-2c-7 2-11 8-17 13a76 76 0 01-9 7 34 34 0 00-5 3 39 39 0 00-3 5 23 23 0 01-5 3l-5 4-9 6a3 3 0 00-1 1l-19 14-9 8c-3 2-6 4-8 8a4 4 0 00-1 1 32 32 0 00-4 3 34 34 0 01-6 3 37 37 0 00-6 4l-6 5-5 5a12 12 0 00-4 4 6 6 0 011 2l4 7c0 2 0 6-3 6v1a7 7 0 012 1 22 22 0 013 4c2 3 5 4 8 6a2 2 0 011 3h1a2 2 0 011 1 10 10 0 011 5 30 30 0 002 3 12 12 0 002 3 19 19 0 005 3 5 5 0 004-3 22 22 0 016-7l10-6 19-14 20-16 39-31 20-16 9-8a8 8 0 003-5 8 8 0 00-1-5 63 63 0 00-2-2 3 3 0 00-1-3z"/><path class="e" d="M938 604c-4 3-8 4-5 8l3 5c2 2 8-3 9-4 2-1 10-7 9-9-1-1-5-7-7-7l-7 5zm0 0l2-2 7-5c2 0 6 6 7 7 1 2-7 8-8 9-2 1-8 7-10 5l-3-6c-3-4 1-5 5-8z"/><path class="f" d="M938 604c-4 3-9 4-5 8 4 5 1 10 12 2 1-2 10-8 9-10l-4-5c-2-2-3-2-5-1a8 8 0 00-3 3 42 42 0 01-4 3z"/><path class="g" d="M938 604c-3 2-6 3-6 5a3 3 0 001 3l3 2c3 1 2 2 6-1 1-1 7-4 7-6s6 2 3-4c-1-2-4-5-6-5h-1a8 8 0 00-3 3 43 43 0 01-4 3zm7-3v1l-2 2 2-3zm4 2l1 1c-3 0-1 0-1-1zm-13 12h5c0 1-3 3-4 2l-1-2z"/><path class="h" d="M976 578l6 6c1 1 6 0 4-3l-7-9c-1 0-8 1-3 6zm0 0c-5-3 0-6 3-6 2 0 7 7 8 9 1 3-3 3-4 4-2 0-6-6-7-7z"/><path class="i" d="M976 578l4 5 3 2 4-3-4-6-4-4c-5 1-6 4-3 6z"/><path class="j" d="M982 574l-3-2c-4 1-5 2-5 4a15 15 0 012 1l4 5c2 2 2 0 3 1a2 2 0 002-3l-1-3a22 22 0 00-2-3z"/><path class="h" d="M925 654l5 8s6 1 5-2l-5-11c-1 0-8 0-5 5zm0 0c-3-4 2-6 5-5 2 1 5 9 5 11 1 3-3 2-5 2l-5-8z"/><path class="i" d="M925 654l3 6 2 2c2 0 3 1 5-1 1-1-2-6-2-7-1-1-2-5-4-5-5 0-6 2-4 5z"/><path class="j" d="M932 652l-3-3c-3 0-5 1-5 3a17 17 0 011 1l4 6c1 3 2 1 3 1a2 2 0 002-1l-1-4a22 22 0 00-1-3z"/><path class="e" d="M1003 605c-5 6-7 5-12 9-3 2-10-12-3-13l3-2c1-1 6-5 7-4l4 6 1 4zm0 0l-1-4-4-6c-1-1-3 1-4 2l-6 4c-6 1 0 14 3 13 5-4 7-3 12-9z"/><path class="k" d="M1003 605c-4 6-8 5-12 9-3 2-10-13-2-13l5-4c4-2 4-4 7 3 1 2 3 3 2 5z"/><path class="g" d="M989 613c-3-4-6-12 0-12l5-4c3-2 3-3 5-1a2 2 0 01-1 0c-3 2-1 3 0 3a3 3 0 002-1l1 2a32 32 0 012 4 5 5 0 01-2 0c-2 0-7-4-1 2-3 3-5-2-5-2-5-6-3-1-3 1 1 8-1-3-2-3-2-1 0 4 0 5 1 4 0 6-1 6z"/><path class="h" d="M1028 586c-2 3-6 9-9 3l-3-4c-3-2 0-3 3-6 1-1 7-10 9-8 1 2 6 6 5 9a31 31 0 01-2 3l-3 3zm0 0l3-3 2-4c1-2-4-7-5-8-2-1-9 8-10 9-5 5-1 3 1 8 2 7 6 2 9-2z"/><path class="i" d="M1028 586c-1 2-7 10-9 2-2-4-7-3-1-8 2-2 8-11 10-9 9 10 5 7 1 15a4 4 0 01-1 0z"/><path class="j" d="M1020 578l2-3a6 6 0 011 3c0 1 5 1 2-6l3-1 1 2a18 18 0 002 4c1 2 0 6-3 7-1 0-6 9-7 3-3-1-3-1-2-5-2-2 1 0 1-4z"/><path class="h" d="M1052 548c-2 2-7 8-9 3-2-3 0-2-3-5-3-2 0-3 2-6 2-1 8-10 10-8 1 2 6 7 5 9a30 30 0 01-3 4l-2 3zm0 0l2-4 3-3c0-2-5-8-6-8-1-2-8 7-9 8-6 6-1 3 1 8 2 7 5 2 9-1z"/><path class="i" d="M1052 548c-2 1-7 9-10 1-1-4-6-3 0-8 2-2 8-10 10-8 8 9 5 7 1 14a4 4 0 01-1 1z"/><path class="j" d="M1043 540l3-3a6 6 0 011 2c0 1 4 1 2-5v-1h3l1 1a18 18 0 002 4c1 2-1 6-4 7-1 1-5 9-6 3-3-1-4-1-2-5-3-1 0 0 0-3z"/><path class="e" d="M960 634c-2-7-2-9-10-3-6 4-4 5-2 9 1 2 1 2 4 2 2 0 8-6 8-8zm0 0c0 3-7 8-8 8-3 0-3 0-4-2-2-4-5-5 2-9 8-6 9-5 10 3z"/><path class="l" d="M960 634c-1-4-1-9-7-5-10 6-7 6-4 12l3 1c1 1 8-6 8-8z"/><path class="m" d="M959 629c-1-2-2-3-6 0-9 6-8 6-5 10 6-4 4 0 8-4 2-2 0-3 1-2 2 0 2-2 2-4zm-5 1s2 0 1 1c-7 5-6 2-1-1z"/><path class="e" d="M1064 553c-2-7-2-9-11-3-5 5-3 5-1 9 1 2 1 2 3 2 3 0 8-5 9-8zm0 0c0 3-7 9-8 8a1 1 0 01-1 0l-3-1c-3-5-5-6 1-10 9-6 10-4 11 3z"/><path class="l" d="M1064 553c-1-3-1-9-7-5-11 7-8 6-5 13h4c1 1 8-5 8-8z"/><path class="m" d="M1063 548c-1-2-3-2-6 0-9 6-8 6-6 10a1 1 0 001 0c6-3 4 1 8-4l1-2 2-4zm-6 1c1 0 2 0 1 1-6 5-6 2-1-1z"/><path class="e" d="M1002 597c3-2 10-7 11-10 1-2-4-2-7 0l-3 2c-5 4-2 3-3 7l2 1zm0 0l-2-1c0-4-2-3 3-7l3-3c3-2 9-2 7 2s-8 6-11 9z"/><path class="k" d="M1002 597c6-4 15-11 9-12-4 0-4 2-8 4-5 4-2 3-3 7l2 1z"/><path class="g" d="M1013 586l-2-1c-4 0-4 2-8 4-5 4-2 3-3 6 3-1 6-5 6-5 8-1 0-2 5-3a4 4 0 002-1z"/><path class="h" d="M946 619c-2 3-6 2-3 5l2 5c2 2 5-2 7-3 3-1 5-2 3-7l-5-6c-2 0-4 4-4 6zm0 0c0-2 2-6 4-6l5 6c3 4 0 6-3 8-1 0-5 4-7 2l-2-5c-3-3 1-3 3-5z"/><path class="j" d="M946 619c-2 3-7 2-3 6 1 1 1 8 8 2 1-1 9-2 2-10-3-3-3-7-7 0v2z"/><path class="i" d="M946 619c-2 2-5 2-4 5a6 6 0 011 0v1l1 3c3 0 8-6 10-5 2 0 1-2 1-4a19 19 0 00-2-2 1 1 0 000-1 3 3 0 00-3 2c-1 2-3 1-4 0a4 4 0 000 1z"/><path class="e" d="M951 647c-5 6-7 4-12 8-3 2-9-12-3-13l3-2c1 0 5-4 6-3l4 6 2 4zm0 0l-2-4-4-6c-1-1-2 1-3 2l-6 4c-6 1 1 14 3 12 5-4 7-3 12-8z"/><path class="l" d="M951 647c-5 5-8 5-12 8-2 2-10-12-2-13l5-4c4-1 3-3 6 4 1 2 3 3 3 5z"/><path class="m" d="M934 648c-1-3 0-6 3-6l5-3c3-2 3-3 5 1a7 7 0 01-2 0c-2 1-3 4-2 5 1 5-2 2-1 4 1 1-4 3-5 1l-3-2zm14-6a16 16 0 00-3 1c-1 2 1 2 1 4 0 1 2 3 3-1a13 13 0 001-1l-2-3z"/><path class="n" d="M1036 561c-2 1-9 7-11 7s-6-3-6-4c-3-5 5-11 8-13 2-2 10-7 12-4l3 4-4 6-2 4zm0 0l2-4c1-1 5-5 4-6a54 54 0 00-3-5c-3-4-16 7-18 10-6 5-3 10 4 12 1 1 10-6 11-7z"/><path class="l" d="M1036 561c-1 1-10 8-11 7 0 0-15-4-2-14 2-2 13-11 16-7 4 5 5 3 0 9l-3 5z"/><path class="m" d="M1023 567c-4-1-8-5-2-11l1-1a3 3 0 003-3c3-2 10-7 13-6-1 2 6 2-2 11-3 3-3 0-3-1-2-5-1 3-1 3-2 6-7-1-7 5 0 2-1 3-2 3z"/><path class="e" d="M1005 603c5-2 14-6 15-9s-5-4-8-3l-4 3c-7 3-4 2-4 7-1 1 0 1 1 2zm0 0l-2-2c1-5-2-3 5-8l4-2c3-2 11 0 8 3s-10 7-15 9z"/><path class="k" d="M1005 603c9-3 21-10 13-12-6-2-6 0-10 3-7 3-3 3-4 7-1 1 0 1 1 2z"/><path class="g" d="M1018 591c-6-1-6 0-10 3l-2 1a2 2 0 01-1 1 3 3 0 000 4c4 1 4-7 9-7 2 3-3 4-4 5 2 2 9-5 9-5l-1-2z"/><path class="e" d="M1037 540c3-2 11-6 9-10-2-2-12-4-14-2l-2 2c-4 4-2 3 2 8l5 2zm0 0l-5-2c-4-5-7-4-2-8l2-3c2-1 14 0 14 4s-5 7-9 9z"/><path class="k" d="M1037 540c7-3 15-11 3-13-9-1-7 1-10 3-5 4-1 3 2 8l5 2z"/><path class="g" d="M1040 527c-9-1-7 1-10 3a15 15 0 00-1 1v2c-1 1 3 3 4 4 6 1-2-7 5-7 5 2 0 4 0 5 3 1 5-5 5-5 1-1-1-2-3-3z"/><path class="h" d="M991 578l-4 1c-2 0 1 1 1 2l1 2 1-3 2-1a3 3 0 001-2l-2 1zm0 0a1 1 0 001 0c1-2 1 1-1 1a1 1 0 010 1l-1 2c-1 2-2 0-2-1-1-1-3-2-1-2l4-1z"/><path class="i" d="M991 578l-4 1c-2 0 1 2 1 2s0 3 1 2l2-3 1-1v-1a1 1 0 01-1 0z"/><path class="h" d="M992 580a3 3 0 010 1c1 3 3 6-1 5-2 0-4 0-3-2s1 2 3-2l1-2zm0 0a3 3 0 00-1 1c0 1-1 4-2 2-1 1-2 2 0 2s5 2 4-1l-1-4zm0 0z"/><path class="i" d="M992 580l-1 1s-1 4-2 2c-1 0-2 3 0 3 1-1 5 2 4-2a22 22 0 01-1-4z"/><path class="h" d="M968 597c-1-1 4-4 5-5 3-3 1 2-1 3l-4 2zm0 0c4-2 5-1 6-5a4 4 0 00-1 0c-1 1-5 3-5 5z"/><path class="k" d="M968 597c-1-1 4-4 5-5h2c-2 4-3 3-7 5z"/><path class="h" d="M934 652l4 7c2 3-3 0-3-2l-1-4v-1zm0 0l-1 1c2 4 1 5 5 7a4 4 0 00-1-1l-3-7z"/><path class="k" d="M934 652l3 6 1 2c-4-2-3-3-5-7l1-1z"/><path class="h" d="M1014 579c1-1 2-1 2 1s-4 2-7 4c-1 1-4 2 0-1l5-4zm0 0a22 22 0 01-5 3c-5 4-1 4 1 3l5-3c3-1 1-6-1-3z"/><path class="k" d="M1014 579s1-2 2 1-4 2-6 4-6 2-1-1a18 18 0 005-4z"/><path class="h" d="M1014 587a23 23 0 00-2 3h6l-4-3zm0 0c1-1 8 4 3 3-3 0-8 2-3-3z"/><path class="k" d="M1014 587l-2 3h3c2-1 4 1 3-1l-4-2z"/><path class="h" d="M1065 555a22 22 0 00-2 3l5-1a2 2 0 001 1l-4-3zm0 0c0-1 8 4 3 3-3-1-8 2-3-3z"/><path class="k" d="M1065 555l-2 3 2-1c3 0 5 2 4 0l-4-2z"/><path class="h" d="M1017 600c1 0 1-1 3 1l2-2s4-6 1-5c0 0-5 2-5 4a5 5 0 00-1 2zm0 0v-1c0-2 3-3 5-4 3-2 1 2 0 3-1 2 0 2-2 3-1-2-1-1-3-1z"/><path class="i" d="M1017 600c1 0 2-1 3 1l3-4s2-5-1-2c-1 1-5 2-5 4v1z"/><path class="e" d="M936 640l6-6 6-3c0 1-10 10-12 10-2 1-2 1 0-1zm0 0c-2 2-2 2 0 1 2 0 12-9 12-10l-4 3a22 22 0 00-3 1l-5 5z"/><path class="l" d="M936 640l6-6a18 18 0 004-2c2-2 3-2-1 2l-9 8s-2 1-1-1l1-1z"/><path class="h" d="M959 624a23 23 0 00-3 1l4 4c1-1 0-4-1-5zm0 0c1 0 3 8 0 4-1-2-7-3 0-4z"/><path class="k" d="M959 624l-3 1 2 2c2 1 2 4 3 1l-2-4z"/><path class="h" d="M964 637a21 21 0 003-1l-5-5c-1 1 1 5 2 6zm0 0c-2 0-5-10-1-5 2 2 8 5 1 5z"/><path class="k" d="M964 637l3-1-2-2c-3-1-4-5-4-2l3 5z"/><path class="n" d="M942 620l1-4 3-3c1-1 3-2 2 0a49 49 0 01-3 6l-3 2v-1zm0 0c1 1 2-1 3-2l2-6a7 7 0 00-1 1l-3 3-1 4z"/><path class="l" d="M942 620l1-3c0-2 3-3 3-4 0 0 3-2 1 1a13 13 0 01-1 2l-1 2a3 3 0 01-1 2h-2z"/><path class="e" d="M950 629l4-3c2-2 2 1 0 2l-2 1s-4 3-4 1l2-1zm0 0l-1 1c-1 2 4-2 4-2l2-1h-1l-4 2z"/><path class="k" d="M950 629l4-2c0-1 2-1 0 1-1 0-1-1-2 1l-2 1c-2 1-2-1-1-1z"/><path class="e" d="M940 656l4-3c1-1 3 1 0 2l-2 1-3 1 1-1zm0 0l-1 1 5-3 1-1-1 1-4 2z"/><path class="k" d="M940 656l4-2c1-1 3-1 0 1h-2a21 21 0 00-2 2c-1 1-2-1 0-1z"/><path class="h" d="M929 645a44 44 0 004 4v-6l-2 1-2 1zm4-2zm-4 2l3-2h1v6c0 3-4-4-4-4z"/><path class="i" d="M929 645l2 3c1 0 2 3 2 1v-6h-1l-3 2z"/><path class="h" d="M977 609c0-2 1-2 2-3h2a9 9 0 002-1c1-1 3 3 2 3h-5l-3 1zm0 0l5-2 3 1-2-3a8 8 0 01-2 1l-2 1c-1 0-2 0-2 2zm8-1"/><path class="i" d="M977 609c0-2 1-2 2-2l2-1 2-1c1-1 2 2 2 3l-3-1a10 10 0 00-4 2h-1z"/><path class="h" d="M978 606l4-1 1-1h-2c-2-1-2-2-3 1zm0 0a3 3 0 010-1c0-2 0-2 2-2h3c2 1-1 1-1 2l-4 1z"/><path class="i" d="M978 606l3-1 2-1h-1c-1 1-3-2-4 0v2z"/><path class="e" d="M950 611c-1 1 1 2 2 3v-4l-2 1zm2 3l-2-3 1-1c2-2 1 1 1 1v3l-2-3z"/><path class="k" d="M950 611l2 2v-2c0-1 1-2-1-1l-1 1z"/><path class="e" d="M938 620c-1 1 1 2 2 3v-4l-2 1zm2 3l-2-3 1-1c2-2 1 1 1 1v3l-2-3z"/><path class="k" d="M938 620l1 2c2 2 1-2 1-2 0-1 0-2-1-1l-1 1z"/><path class="h" d="M957 621c1 0-1 3 2 2s-2-2-2-2zm0 0h3a1 1 0 010 2c-4 1-3-1-3-2z"/><path class="i" d="M957 621c0 1-1 3 2 2l1-1-3-2v1z"/><path class="e" d="M996 595v-5c0-2 0-2 2-1h2l-1 4c1 1-1 1-2 1l-1 1zm0 0l1-1 2-1 1-3-2-1c-2 0-2-1-2 1v5z"/><path class="k" d="M996 595v-5c0-2 0-1 2-1h1v4c0 2-2 1-2 1l-1 1z"/><path class="e" d="M990 617c3-1 4 3 3-1 0-1 3-3 1-3l-3 2c-2 0-2 1-1 2zm0 0c-1 0-1-2 1-2s2-2 3-2c3 0 0 2 0 3 0 4-1 1-4 1z"/><path class="k" d="M990 617c2-1 4 3 4-1-1-1 2-3 0-3l-3 2c-2 0-2 2-1 2z"/><path class="e" d="M1004 605l3-2c4-3 6-2 3-1-1 1-1 2-3 2-2 1-2 3-3 1zm0 0h1l4-2 2-1a18 18 0 00-4 1l-3 2z"/><path class="k" d="M1004 605l3-2s5-3 4-1a7 7 0 00-2 1l-4 2h-1z"/><path class="h" d="M1035 580l2-2h2a9 9 0 002-1c1-1 2 3 2 3h-5-3zm0 0l4-1 4 1s-1-4-2-3a9 9 0 01-2 1h-2l-2 2zm8 0"/><path class="i" d="M1035 580l2-2h2l2-1c1-1 1 2 2 2 1 2-3 0-3 0a10 10 0 00-4 2l-1-1z"/><path class="h" d="M1044 553l1 2-1 2c-1 0-7 5-6 3l4-7a7 7 0 012 0zm0 0h-1c-2 0-3 3-4 6-2 3 2-1 4-2l2-2-1-2z"/><path class="i" d="M1044 553l1 2-4 4s-5 3-2-1c1-1 2-5 4-5h1z"/><path class="h" d="M1048 572c-1-1 4-5 4-6 3-3 2 2 0 3l-4 3zm0 0c4-3 5-3 6-6a5 5 0 00-1 0c-1 2-5 4-5 6z"/><path class="k" d="M1048 572c-1-1 3-4 4-5l2-2c-1 5-3 4-6 7z"/><path class="h" d="M1032 546c-1-1 4-4 5-5 3-2 1 3-1 4l-4 2v-1zm0 0s0 1 0 0c4-2 5-1 6-5a4 4 0 00-1 1l-5 4z"/><path class="k" d="M1032 546c-1-1 4-3 5-4l1-1c-1 4-2 4-6 6v-1z"/><path class="h" d="M1060 544c1 1-4 4-5 4-3 3-1-2 1-3l4-2v1zm0 0v-1c-4 2-5 2-6 6a4 4 0 001-1l5-4z"/><path class="k" d="M1060 544c1 1-4 3-5 4l-1 1c1-5 2-4 6-6v1z"/><path class="e" d="M953 647c3-2 10-6 11-9 1-2-4-1-6 0l-3 3c-5 4-3 2-3 6h1zm0 0h-2c1-3-1-2 4-6l3-3c2-2 8-2 6 1s-8 6-11 8z"/><path class="l" d="M953 647c6-3 15-11 9-10-4 0-4 1-7 4-5 4-2 3-3 6h1z"/><path class="m" d="M964 637h-2c-4 0-4 1-7 4-5 4-3 3-3 5l5-5c8-1 0-2 5-3a4 4 0 002-1z"/><path class="n" d="M1021 573l2-3 4-1h1a37 37 0 01-4 3s-2 2-3 1zm0 0c1 1 2-1 3-1l4-3a5 5 0 00-1 0l-4 1-2 3z"/><path class="l" d="M1021 573l2-3 4-1s3-1 0 1a10 10 0 01-2 1l-1 1a2 2 0 01-1 1h-2z"/><path class="n" d="M1020 567l1 3c0 2 1 0 1-1h1l-1-1-1-1a2 2 0 00-1 0zm0 0h1a1 1 0 010 1h2c2 1 0 1-1 2 0 0-1 2-1 0l-1-3z"/><path class="l" d="M1020 567l1 3c0 2 1-1 1-1h1l-1-1-1-1h-1z"/><path class="n" d="M1014 562l3-1 2-4v-1a42 42 0 00-4 3l-2 3a1 1 0 001 0zm0 0c-1-1 1-2 1-3l4-3a6 6 0 010 1l-2 3-3 2z"/><path class="l" d="M1014 562l3-1 2-4s1-2-1 0a12 12 0 00-2 1l-1 1a3 3 0 00-1 1v2z"/><path class="h" d="M1022 574a21 21 0 00-3 1l-2 3a6 6 0 003-1s4-4 2-3zm0 0c2-1-1 2-2 3a6 6 0 01-3 2l2-3 3-2z"/><path class="i" d="M1022 574a17 17 0 00-2 1l-1 1a15 15 0 00-2 2h1a4 4 0 002-1l2-3z"/><path class="h" d="M1035 576a23 23 0 00-1 3c2-1 2-2 5-2a2 2 0 001 0c0-1-4-2-5-1zm0 0c0-2 9 1 4 1-3 1-7 5-4-1z"/><path class="k" d="M1035 576l-1 3 2-1c2-1 5 0 3-2h-4z"/><path class="n" d="M959 605c-5 4-8 5-4 11 1 2 5 7 7 3 2-3 5-3 7-5l3-3c6-4 6-8 1-13-2-3-4 0-7 2a31 31 0 00-7 5zm0 0c2-3 4-4 7-5 3-2 5-5 8-2 5 5 4 9-2 13l-2 3c-3 2-5 2-7 5-3 4-7 0-9-3-3-6 0-8 5-11z"/><path class="l" d="M959 605l-6 5c-2 4 6 15 9 9 2-3 6-3 8-7 1-1 12-5 4-13-1-2-2-3-6-1l-9 7z"/><path class="m" d="M959 605a9 9 0 01-1 0c1 6-1 4-2 2a12 12 0 00-3 3 3 3 0 000 2c3 3 8 9 8 5 1-3 8-4 6-6-4-5-5-8-5-9a18 18 0 00-3 3zm17-3s-2 0-2 5c1 3-3 4-3 1 0-1-2-8-1-2 0 7-4 4-4 2l-3-7 5-3c4-2 5-1 6 1a14 14 0 012 3z"/><path class="o" d="M954 610l2-3 1 1c1 2 1 2 2 0a4 4 0 001-2c1 1 0 3-1 4-2 1-3-1-3-2a6 6 0 01-2 2zm2-2z"/><path class="n" d="M916 619c-5 4-8 5-4 11 1 2 5 7 7 3 2-3 5-3 7-5l3-3c6-4 6-8 1-13-2-3-4 0-7 2a30 30 0 00-7 5zm0 0c2-3 4-4 7-5 3-2 5-5 8-2 5 5 4 9-2 13l-2 3c-3 2-5 2-7 5-3 4-7 0-9-3-3-6 0-7 5-11z"/><path class="l" d="M916 619l-6 5c-2 4 6 15 9 9 2-3 6-3 8-6 1-2 12-5 4-14-1-2-2-3-6-1l-9 7z"/><path class="m" d="M916 619a11 11 0 01-1 0c1 6-1 4-2 2a12 12 0 00-3 3 3 3 0 000 2c3 4 8 9 8 5 1-3 8-4 6-6-4-5-5-8-5-9a18 18 0 00-3 3zm17-3s-2 0-2 5c1 3-3 4-3 1 0-1-2-8-1-2 0 7-4 4-4 2l-3-7 5-3c4-2 5-1 6 1a14 14 0 012 3z"/><path class="o" d="M911 624l2-3 1 1c1 2 1 2 2 0a4 4 0 001-2c1 1 0 3-1 4-2 1-3-1-3-2a6 6 0 01-2 2zm2-2z"/><path class="n" d="M988 599c-6 5-7 6-11 1-3-3-3-4-1-8l7-6 10 2c1 0 3 3 1 6l-6 5zm0 0a40 40 0 005-4c3-3 2-8 0-8-3 0-8-2-10-1-2 0-7 4-7 6-3 4-2 5 0 8 5 5 7 4 12-1z"/><path class="l" d="M988 599c-3 3-4 4-8 4-1 0-7-5-6-8 3-6 2-4 8-8 2-3 7 1 11 0l2 3c1 4-4 7-7 9z"/><path class="m" d="M979 602c-2-2-5-5-5-7 3-6 2-4 8-8a3 3 0 011-1c2 1 3 3 4 1h1a17 17 0 005 0c1 8-4 5-5 8-2 3-4 2-6 5-1 2-2 2-3 2zm-1-9c-3 3 1 6 0 2l2-2h-2z"/><path class="o" d="M978 591c1-2 2-4 4-4l3 1h2c-1 1-3 2-4 0s-4 2-5 3z"/><path class="n" d="M1068 572c-6 5-7 6-11 1-3-3-3-4-1-8l7-6 10 2c1 0 3 3 1 6l-6 5zm0 0a40 40 0 005-4c3-3 2-8 0-8-3 0-8-2-10-1l-7 6c-3 4-2 5 0 8 5 5 7 4 12-1z"/><path class="l" d="M1068 572c-3 3-4 4-8 4-1 0-7-5-6-8 3-6 3-4 8-8 2-3 7 1 11 1l2 2c1 4-3 7-7 9z"/><path class="m" d="M1059 575c-2-2-5-5-5-7 3-6 3-4 8-8a3 3 0 012-1c1 1 2 3 3 1h1a17 17 0 005 1c1 7-4 5-5 7-2 3-4 2-6 5-1 2-2 2-3 2zm-1-9c-3 3 1 6 0 2l2-2h-2z"/><path class="o" d="M1058 564c1-2 2-4 4-4l3 1h2c-1 1-3 2-4 0s-4 2-5 3z"/><path class="n" d="M1003 570c-4 4-13 7-8 15 1 3 5 5 7 2 4-4 17-11 18-15 1-1-3-14-10-8l-7 6zm0 0a79 79 0 018-7c6-4 10 6 10 9s-15 12-18 15c-5 4-10-2-10-6 0-5 7-8 10-11z"/><path class="l" d="M1003 570s-8 5-9 8c-3 6 5 13 8 9s19-12 19-16c-1-4-5-12-10-8l-8 7z"/><path class="m" d="M997 581c3-5 9-7 3-2 0 0-3 5-4 3l1-1zm6-11s-8 5-9 8a8 8 0 001 8 3 3 0 004 0l5-4c4-3 5-6 6-11 2-3 8-5 6-4-3 3-8 6-4 10l8-7c0-4-4-11-9-7l-8 7z"/><path class="o" d="M1005 580l3-7c1-2 3-6 6-6a5 5 0 001 0h-1c-2 1-4 3-4 5l-5 8z"/><path class="e" d="M983 569l7-7c2-2 10-11 13-10l5 6c3 3 0 4-2 7l-10 8c-4 4-8 8-12 2-2-3-3-3-1-6zm0 0c-2 4-1 4 2 7 4 4 7 0 11-3l9-8c3-3 6-4 3-7l-5-5c-2-1-10 6-11 8l-9 8z"/><path class="k" d="M983 569c1-3 3-4 6-6 2-2 11-11 13-11l6 6c1 1 2 2 0 4-3 3-8 9-12 11-2 2-7 8-11 3l-2-2c-1-2-2-2 0-5z"/><path class="g" d="M983 569c1-3 3-4 6-6 2-2 11-11 13-11l6 6a3 3 0 011 2 39 39 0 01-4 4l-2 2h-1c-1 1-3 0-3-2l1-2c1-2 0 0 0 0l2-2 1-2 1-1h-1a7 7 0 01-2 3l-4 3-1 4-6 5c-2 1-4 4-6 3l-1-1c-1-2-2-2 0-5z"/><path class="p" d="M983 573c-1-3 2-5 4-7l5-7a17 17 0 017-3h1l-2 1c-5 2-7 5-10 9-2 3-4 3-5 7z"/><path class="e" d="M980 629c1 2 7 6 5 9-4 4-20 17-24 13-1-1-4-4-3-6s17-15 20-16a9 9 0 012 0zm0 0a5 5 0 00-2 0c-3 1-19 13-21 16-1 2 3 5 3 6 5 5 21-9 25-13 3-3-3-7-5-9z"/><path class="l" d="M980 629c2 2 8 6 5 9-4 3-20 18-24 13-5-6-6-5 5-14l12-8a6 6 0 012 0z"/><path class="m" d="M980 629l2 2a1 1 0 01-1 1c-3 1 3 3-4 4-3 5-5 4-10 5-2 1 0 8 3 2 1-2 1 0 4-2 1-2 0 3-2 4-1 1 0 2 1 3-5 3-10 6-12 3-4-5-5-5-1-9 1 1 1 2 3-1a3 3 0 000-1l3-3 12-8a6 6 0 012 0zm4 4c-2-1-3-1-3 1-1 4-3 3-3 4 4 3 4 2 2 5l5-5c1-1 0-3-1-5z"/><path class="o" d="M958 647c1-6 2-3 4-5l2-2a57 57 0 019-6l-9 7-2 2c-2 2-1-1-4 4z"/><path class="h" d="M999 627c-2-3-6-10-10-9-2 0-2 3-4 4s-4 2-3 5c3 8 10 8 15 2zm0 0l-2 2c-4 6-13 6-16-2-1-3 1-4 3-5s3-5 7-4 7 5 8 9z"/><path class="i" d="M999 627c-1-4-9-14-13-7-1 3-8 2-3 10 4 6 13 3 16-3z"/><path class="j" d="M994 620c-3-2-6-3-8 0-1 3-7 2-4 8 1-2 1-4 5 1 2 3-2 2-3 2a7 7 0 004 2 4 4 0 002-4c0-3 5-5 4-9z"/><path class="q" d="M989 629a10 10 0 013-5l1-4v1c1 3 0 3-1 5l-3 3z"/><path class="h" d="M1021 608c0-2-3-10-6-8l-12 8-6 5c-3 3-3 3 0 7l4 4 6-4c3-2 6-4 7-7 0 0 8-4 7-5zm0 0c1 1-6 4-6 5l-8 7-6 4-6-6c-1-3 0-3 2-5l6-5 11-8c4-2 7 6 7 8z"/><path class="i" d="M1021 608c0-3-3-10-7-8l-11 8-6 5c-1 2-4 2 0 7 3 4 3 6 7 2 2-2 9-6 11-9 0-1 7-4 6-5z"/><path class="j" d="M1020 603c-2-2-4-4-6-3l-11 8-6 5c-1 2-4 2 0 7l1 2 3-1c1-4 10-7 10-8-1-3 1-3-2-3h-5c-4-1 9-1 10-3 0-4 4-3 6-4z"/><path class="q" d="M1008 607h4c1-1 3-5 5-3-3 0-2 2-4 4l-5-1z"/><path class="h" d="M1044 580c1 0 5 5 6 4 1 0 9-3 8-6-1-1-4-7-7-7-1 0-12 5-7 9zm0 0c-5-3 4-8 7-9s7 5 8 7c0 3-6 5-8 7-2 1-6-4-7-5z"/><path class="i" d="M1044 580c2 1 2 3 4 3 1 1 2 2 3 1 3-1 4-1 7-5 1-1-2-4-2-5-1-1-3-4-5-3-8 3-10 7-7 9z"/><path class="j" d="M1057 577l-2-3c0-1-2-3-4-2-7 2-9 5-8 7l4 3c2 2 7-1 7-3 0-1 0-3 1-1 1 1 2 1 2-1z"/><path class="q" d="M1046 577c-1-1 2-3 2-4a8 8 0 015 0l-3 1-4 3z"/><path class="e" d="M1047 555c2 2 7 7 5 9s-1 3-5 6l-5 4c-2 2-4 2-6 1-8-1-8-6-2-10l10-7a12 12 0 003-3zm0 0a15 15 0 01-3 3l-10 7c-6 4-6 10 2 11l6-1 5-5 5-5c2-3-3-8-5-10z"/><path class="k" d="M1047 555c1 1 7 7 5 9s-1 3-6 7-3 5-10 4c-6 0-8-4-4-8 3-3 7-4 11-9l4-3z"/><path class="g" d="M1047 555l5 7h-1l-5 4c-1 3-5 3-6 6 0 7-9-1-9-2 1-5 3-4 4-5 2-2 5-3 8-7l4-3z"/><path class="p" d="M1032 570c0-5 1-2 3-4l2-2a47 47 0 018-5l-9 7-1 1c-2 2-2-1-3 3z"/><path class="h" d="M960 585c-1 3-1 3-4 5-2 1-6 3-6 6l1 3c0 2 4 5 5 5 6-1 7-5 10-8a69 69 0 019-7c1 0 6-3 5-5l-7-8c-2-1-5 3-7 4a53 53 0 00-6 5zm0 0a42 42 0 016-5c2-2 5-5 7-4l7 8c1 2-3 5-5 6a75 75 0 00-8 6c-4 4-5 7-11 8-2 0-5-4-5-5l-1-3c-1-3 4-5 6-7 3-1 3-1 4-4z"/><path class="i" d="M960 585c-1 3 0 2-3 4l-3 2c-2 2-6 3-4 6 1 2 0 2 3 5 2 2 2 2 5 1 4-1 5-4 9-7l8-6a23 23 0 005-4c2-2-1-3-2-5l-2-2c-3-4-4-4-8 0l-8 6z"/><path class="j" d="M956 590a14 14 0 00-2 1c-2 2-6 3-4 6a1 1 0 011 0c1 2 3 3 5 2l7-6v-3c1-1 3-4 5-4l7-8c-2-3-3-3-7 0l-5 4c-1 4-1 5-7 7v1zm23-3a6 6 0 01-2 1c-7 1-8 5-13 9-1 1-7 5-8 3 2-3 4-1 8-5 3-4-2-3 6-9l6-6 2 1c1 2 4 3 2 5z"/><path class="q" d="M974 578c-2-1-3-2-5 0l-5 7a17 17 0 01-4 3l4-4 4-5c2-2 4-5 6-1z"/><path class="h" d="M933 641c1-3 1-3 4-5 2-1 6-3 6-5l-1-4c0-2-4-5-6-5-5 1-6 5-10 8a69 69 0 01-8 7c-2 0-6 3-5 5l7 8c2 1 5-3 7-4a53 53 0 006-5zm0 0a41 41 0 01-6 5c-2 2-5 5-7 4l-8-8c-1-2 4-5 5-6a74 74 0 009-6c4-4 5-7 10-8 2 0 6 4 6 5l1 3c0 3-4 5-6 7-3 2-3 1-4 4z"/><path class="i" d="M933 641c1-3 0-2 2-3l4-3c2-2 5-3 3-6-1-2 1-2-2-5-3-2-2-2-5-1-5 1-5 4-9 7l-9 6a22 22 0 00-4 4c-2 2 1 3 2 5l2 2c3 4 3 4 8 1l8-7z"/><path class="j" d="M937 637a14 14 0 002-2c2-2 5-3 3-6-2-2-4-2-5-2-2 2-6 3-7 6v4c-1 2-3 3-5 3-3 1-4 6-7 8 2 3 3 3 7 0l4-4c1-4 2-5 8-7v-1zm-23 2a6 6 0 012-1c7 0 8-5 13-9 1-1 7-5 8-3-2 3-4 1-8 5-3 4 2 3-6 9l-6 6-2-1c-1-2-4-3-2-5l1-1z"/><path class="q" d="M919 648c2 1 3 2 4 0l6-6a17 17 0 014-4l-4 4-4 5c-2 2-5 5-6 1z"/><path class="e" d="M971 613c-3 4-4 4-8 7s-3 6 0 10c1 3 4 5 7 3l2-2c5-2 6-2 8-7 1-3 8-7 8-9-4-12-10-5-17-2zm0 0c7-4 13-10 17 2 1 2-6 6-8 9-2 5-3 5-7 7l-3 2c-3 3-6 0-8-3-2-4-3-7 1-10l8-7z"/><path class="k" d="M971 613c-5 8-12 7-10 14 1 4 6 10 10 5 1-1 8-2 9-8 1-3 9-7 8-9-4-12-11-5-17-2z"/><path class="g" d="M970 614l-1 1a28 28 0 013 9 19 19 0 01-1 3v-4a19 19 0 00-3-7c-4 5-9 5-7 10 4 11 12 8 12-3 0-3-2-7 2-5l7 3 2-2c-2 1-4-6-7-8-2-1-5 4-7 3zm8 14c-2-2-2-8 2-3a9 9 0 01-2 3zm3-20c6 1 7 8 4 7-6 0-8-4-7-6a10 10 0 012-1z"/><path class="p" d="M961 625c-3-1 2-4 3-5a21 21 0 002-2c1-1 2-3 4-3h-1l-2 4c-1 3-3 3-5 4-1 1-2 1-1 2z"/><path class="k" d="M967 634c-1-5-1-7 1-12 1-3-1-3-1-5a6 6 0 011 4l1 4c0 3 2 1 4 5l-4-4c-1 3 2 2 2 5 0-3-3-2-2-5l-1-4-1 12zm0-17z"/><path class="e" d="M1044 582c1 1 5 4 4 5-1 3-10 9-12 12-3 2-7 9-11 4-3-3-2-1 0-6 1-3 2-8 4-10s9-8 12-7a5 5 0 013 2zm0 0l-4-2c-3 0-11 6-13 9l-4 12 3 3c4 3 8-3 10-5 3-3 11-9 12-12 1-1-3-4-4-5z"/><path class="k" d="M1044 582c1 1 5 4 4 5 0 2-6 6-8 8l-6 6c-3 3-7 6-9 2-2-2-3-1-1-5 1-3 3-10 5-11 3-3 11-10 15-5z"/><path class="g" d="M1023 601a14 14 0 011-3c1-3 3-10 5-11 3-2 9-8 13-6 2 2 4 2-1 8-3 4-4 2-8 6l-9 6z"/><path class="p" d="M1026 595c1-4 7-14 12-14l1 1h-1c-5 1-9 9-12 13z"/><path class="e" d="M1026 592l7 2c3-1 8 4 3 1-2-2-4 0-6-1-3-1-2-2 0 3l-2-4-2-1zM1012 560l-6-7c-2-4 2-5 5-8 1-1 13-12 14-11l5 5c2 1 5 4 2 6l-10 8c-1 1-9 8-10 7zm0 0c1 1 9-6 10-7l10-9c2-1 0-4-2-5l-5-5-13 11c-5 4-9 4-4 10l4 5z"/><path class="k" d="M1012 560c-2-2-4-3-6-7s0-4 4-7l8-7c2-1 6-6 7-5l5 5c2 1 4 4 2 5a175 175 0 00-14 12c0 1-5 5-6 4z"/><path class="g" d="M1009 547l1-1 8-7c2-1 6-6 7-5a8 8 0 011 1l1 3c3 1 3 0 4 3 1 4-2 4-3 4-4-3-4 1-5 5l-10 7c-2 2-3 0-4-1-3-4-2-5-2-6l2-3zm3 3a8 8 0 011-2c1-1 0-1-1-1a1 1 0 01-1 0s-3 7 1 3zm14-5s-3 2-1 3c0 0 2-1 2-3h-1z"/><path class="p" d="M1014 543l10-7-1 1-9 6z"/><path class="k" d="M1009 557a6 6 0 001-2c0-2 2-4 3-4h-1c0 1-2 1-2 3v4l-1-1z"/><path class="e" d="M942 674l-6-7c-2-4 1-6 4-8 2-2 13-13 15-12l5 5c2 1 4 4 2 6l-10 8c-1 1-9 9-10 8zm0 0c1 1 8-7 9-8l11-8c2-2 0-4-2-6l-5-4c-1-1-12 9-13 10-5 4-9 5-4 11l4 5z"/><path class="k" d="M942 674l-6-7c-2-3 0-5 3-7l9-8 7-5 5 5c2 1 4 4 2 6a173 173 0 00-14 11l-6 5z"/><path class="g" d="M939 660l9-8 7-5a8 8 0 011 2v2c4 1 4 1 5 4 1 4-2 4-3 3-4-3-4 2-5 5l-10 8c-2 1-3 0-5-2-2-3-1-5-1-5l2-4zm2 3a8 8 0 011-2v-1a1 1 0 01-1 1s-3 6 0 2zm15-5c-1 1-3 2-1 3 0 0 2 0 1-2v-1z"/><path class="p" d="M944 657c-1-1 9-6 10-7l-1 1-9 6z"/><path class="k" d="M939 671a6 6 0 001-3c0-2 2-4 3-4l-1 1s-2 1-2 3v3h-1zM1026 592l7 2c3-1 8 4 3 1-2-2-4 0-6-1-3-1-2-2 0 3l-2-4-2-1z"/><path d="M586 732c2-3 9-3 20-2h28c12 0 11 1 23 2 14 2 18 1 44 1 7 0 14 2 21 0 1 0 5-1 7 1s2 6 2 7c0 15 2 30 1 45-1 9-4 32-2 53 1 10-2 21 0 31 0 2 1 5-1 7-3 3-11 1-15 0-7-2-19-2-42-2-18 0-18 2-30 1-15-2-16-5-26-5-16 1-24 8-29 4-3-2-3-7-3-12l2-42c2-19 0-15 1-40 1-13 3-24 1-31l-2-14v-4z" fill="#ffe161"/><path class="s" d="M656 876a2 2 0 01-2-1v-1-2-4a3 3 0 01-1-1v-5l1 1a7 7 0 000-2 2 2 0 001 1 2 2 0 001-1h-3a3 3 0 010-1 27 27 0 001-2v-2l1-3a33 33 0 00-1-3l-1-1a2 2 0 011-2v-3-3a3 3 0 011-3 43 43 0 01-2-7v-4l-1-6 3 3v-3h-1a3 3 0 010-1v-6l1-2v-1-1-1-2-6a1 1 0 01-1-1 2 2 0 011-1v-3l-1-1a1 1 0 011-1l-1-2v-1-1a1 1 0 011-1 33 33 0 000-3 2 2 0 010-2 11 11 0 00-2-4l3-1-1-1a2 2 0 000 1 4 4 0 010-1v-5l1-4a24 24 0 01-1-3v-1-3l-1-3a3 3 0 011-2v-1l-6 3 5-6 1-2v-1l-1 1v-3a21 21 0 011-4v-1a28 28 0 000-5l-1-5h1a16 16 0 00-1-4l3-1a19 19 0 012 5l-1 3v2a28 28 0 010 4h1a1 1 0 010 1 14 14 0 00-1 3v1h1a13 13 0 00-1 3 7 7 0 010 4 14 14 0 011 3v4h-1v3h1v1a15 15 0 001 4l1 3-2-1a6 6 0 000 1h1v1a2 2 0 01-2 2 10 10 0 002 4h-1v5a29 29 0 010 5 15 15 0 000 3h-1a30 30 0 011 5v1l1 4h-1v6a2 2 0 010 1 2 2 0 010 1l-1 5v5l1 1a2 2 0 010 2v4l-1 2a2 2 0 01-1 0v1a61 61 0 002 6 2 2 0 010 2l1 4-1-1a2 2 0 01-1 0v10l1 4-1 1a5 5 0 010 1 2 2 0 010 2l-1 1 2 4a17 17 0 010 5h-1v6a2 2 0 01-1 1zm1-36h-1a2 2 0 001 0zm-3 0h1a2 2 0 00-1 0zm4-75zm-4-18a1 1 0 001 1 1 1 0 01-1-1z"/><path class="s" d="M644 877a21 21 0 010-3 2 2 0 011-1v-5c-1-4-2-6-1-8a12 12 0 010-4v-2-1-3-2a2 2 0 01-1-3 2 2 0 011-1v-6l-1-1h1a8 8 0 010-3 3 3 0 010-1 7 7 0 010-1v-5-2a2 2 0 010-1v-7a4 4 0 011-2v-2a3 3 0 01-1-1v-1l1-2v-1c-2-5-2-9-1-11v-4l-1-5v-3a1 1 0 010-1 9 9 0 010-1v-8a2 2 0 011-1v-1a17 17 0 000-4 11 11 0 01-1-5 3 3 0 010-1 2 2 0 010-1v-2-2a8 8 0 011-3 2 2 0 011-3l-2-8v-1h1a2 2 0 011-2l-1-5-1-1 1-2 3-3v3l2 12-1 6 1 2 4 9-5-5v-1h-1a29 29 0 000 4v3a4 4 0 010 1 11 11 0 000 4l1 4v2a6 6 0 010 2v7l-1-2v1a4 4 0 011 2h-1a81 81 0 011 7v-1 2a2 2 0 000 1h1a1 1 0 01-1 2v5l-1 1a18 18 0 002 5l1 11-1-2a7 7 0 010 2l-1 4v6l-1 6 1 1a6 6 0 00-1 3 3 3 0 010 1l1 7v2h1v1h-1a2 2 0 010 1v2a22 22 0 010 5c0 2-1 4 1 6l4 7-5-4 1 5-1 1a49 49 0 001 4l-2 1 1 1zm1-60zm2 0h-1a3 3 0 001 0zm-3-33zM636 875a2 2 0 01-1 0h-1l-1-2a1 1 0 011-1v-3a3 3 0 010-2v-1l-1-6v-1-1-2-2a1 1 0 010-1 16 16 0 011-5v-1a27 27 0 000-4 1 1 0 010-1v-1-3h-1v-1l1-2a31 31 0 00-1-6 2 2 0 010-1v-1-1l-1-6 1 1v-5-1a16 16 0 00-1-6v-1 1l1-1h1v-1a14 14 0 01-1-1l1-3a3 3 0 010-1 11 11 0 000-4h-1a2 2 0 010-2v-2a2 2 0 010-2v-1a2 2 0 011-2l-1-3a6 6 0 011-3l-1-1v-2a4 4 0 010-2 6 6 0 000-2v-1a3 3 0 010-2 7 7 0 001-4 5 5 0 01-1-3 14 14 0 000-2h1l1-4v-1l-3-9-5-9h1l4 5a2 2 0 010-1 2 2 0 011-2 27 27 0 010-8v-1l1-7v-1l1 3a3 3 0 011 0s1-1 2 1a2 2 0 000 1v2l-1 3a24 24 0 000 6 4 4 0 011 2 13 13 0 010 3v9-1 4l1 1 1 4-2-1a5 5 0 011 2l-1 1a2 2 0 01-1 1v1a9 9 0 010 5 3 3 0 00-1 1h1v1a8 8 0 01-1 4 2 2 0 000 1l1 1v2l3 8h-1l-1-1 1 2h-1v1h-1v3a13 13 0 011 7 18 18 0 000 3h-1a14 14 0 001 3h0l-1 1a18 18 0 010 3v1a2 2 0 010 1v-1 3a44 44 0 010 7v1a3 3 0 010 2 35 35 0 011 4v10a1 1 0 010 2 31 31 0 010 4 3 3 0 010 1h1v1h-1a5 5 0 01-1 1v11l1 7a40 40 0 000 4v3zm-3-130l1-1h-1a2 2 0 000 1zm3-14a2 2 0 002-1z"/><path class="s" d="M625 873a3 3 0 01-3-1l2-1a3 3 0 010-1h1l-1-1a15 15 0 010-3 21 21 0 01-1-5v-4a2 2 0 010-1h1a12 12 0 010-6l-1-3a1 1 0 010-2v-2a3 3 0 011-2v-1a20 20 0 01-1-4l-1-2-1-4h1v-1l-1-1h3v-3-1a2 2 0 01-1-1l1-3v-1a5 5 0 010-2v-2l1-3v-1l-1-2v1l-1-6a4 4 0 01-1-2l-1-5 1-1 2 3v-1-2l-1-4h1l-1-4v-5-1a5 5 0 01-1-2v-1-3h1a8 8 0 000-2v-1h2v-1h-2v-1-1a2 2 0 010-1v-2-1a1 1 0 010-1 4 4 0 000-1v-3a2 2 0 011-2 4 4 0 010-1v-1a25 25 0 000-6l-1-2a2 2 0 011-2 8 8 0 010-1 4 4 0 000-3v-2a2 2 0 010-1 17 17 0 01-1-4v-2a3 3 0 01-1-1 16 16 0 010-2l-1-3v-1l4 3a3 3 0 011 0h1v1a13 13 0 010 1 5 5 0 010 1v2l1 5v1a2 2 0 01-1 1 6 6 0 011 4 3 3 0 000 3h-1v1h1a27 27 0 010 7v1a5 5 0 010 1l-1 1v3a28 28 0 010 4v6l-1 4v3a19 19 0 011 5v3a22 22 0 010 5v2a31 31 0 002 4l1 2h-3v1a3 3 0 010 1 40 40 0 012 9v4h-1a10 10 0 010 2 6 6 0 000 3v1h-1a2 2 0 010 1v1a38 38 0 001 5l2 7-3-3 1 1-1 4a13 13 0 001 3v1h-1v3a17 17 0 010 4v1a11 11 0 001 6v1h-1a2 2 0 010 2h-1a20 20 0 002 6 4 4 0 010 1 42 42 0 001 5l-2 1a2 2 0 01-2 1zm1-6a2 2 0 001-1zm-1-49a2 2 0 001 1 3 3 0 001-1zm1-59h1zM614 871h-2a3 3 0 011-3 16 16 0 010-2 6 6 0 00-1-3l4-1a2 2 0 00-2-1 2 2 0 00-1 1 4 4 0 000-1h-1v-2-1l1-5a16 16 0 010-3v-3a34 34 0 01-1-6h1a5 5 0 000-1 2 2 0 001 0 2 2 0 002-1h-4a11 11 0 000-3l1-2a16 16 0 00-1-4 2 2 0 010-2v-1a12 12 0 01-1-3l3-1a21 21 0 00-1-5 2 2 0 01-1-1 23 23 0 010-3 1 1 0 010-2v-4 1a6 6 0 011-2 2 2 0 000-1 1 1 0 010-1l-1-1h1v-5a4 4 0 010-4 16 16 0 00-1-5 20 20 0 01-1-3h2a10 10 0 010-2 21 21 0 00-1-6v-2a13 13 0 000-2 5 5 0 011-2 17 17 0 010-2 14 14 0 010-4 3 3 0 011-2 21 21 0 00-1-5 2 2 0 010-1l-2-5 2 1a10 10 0 010-3l1-2-1-2a7 7 0 010-2 4 4 0 010-2 34 34 0 010-5v-2-3a49 49 0 010-5h1a9 9 0 00-1-1l4-1c1 2 0 3-1 4v4h1v7-1 5l1 3h-1l1 4-1 1v4a2 2 0 010 1 11 11 0 011 3l-1 4v2a2 2 0 010 1 17 17 0 000 3 4 4 0 010 1h1v1a2 2 0 01-2 1v1a3 3 0 010 2v1a23 23 0 011 6l1 1-1 5a33 33 0 010 7 2 2 0 000 1v1l-1 4v1a4 4 0 010 3 5 5 0 000 3 4 4 0 010 4v1a20 20 0 012 6l-1 4a2 2 0 01-1 1 3 3 0 010 2 15 15 0 011 4v4l-1 1a9 9 0 010 1 5 5 0 011 1 14 14 0 010 2 2 2 0 01-1 2l1 4a1 1 0 010 1v1a10 10 0 001 3l2 6-4-3v3l1 4a8 8 0 010 3 13 13 0 000 3l2 8zm0-67a2 2 0 00-1 0h2a3 3 0 00-1 0zm1-75zM606 869a2 2 0 010 1c0 2 1 5-1 6a3 3 0 01-2 0 2 2 0 01-2-2h1a9 9 0 00-1-4l-4-10 5 5a2 2 0 011-2l-1-2a14 14 0 00-1-5l2-1-1-1a2 2 0 00-1 1 7 7 0 010-3l-4 1 6-4a10 10 0 001-3 37 37 0 00-1-5 2 2 0 01-1-1 11 11 0 010-1l1-1v-1a11 11 0 000-4v-2l-1-2v-1l1-5v-3-2-1a6 6 0 010-1l-1-3v-2a1 1 0 010-1 4 4 0 010-3 2 2 0 011-2l-1-2v-4h1l-1-3v-2-2a3 3 0 010-2 2 2 0 011-3v-1-6-3a1 1 0 010-1l-1-2v-3l1-1a2 2 0 00-1 1 1 1 0 000-1 3 3 0 011-1 6 6 0 011-3v-1a15 15 0 00-2-3l-2-2v-1l3 1v-1a39 39 0 00-1-5 1 1 0 010-2v-1h1l-1-6v-1a1 1 0 011-1 5 5 0 010-3 2 2 0 001-2 4 4 0 01-1-2v-3l-1-1h1a2 2 0 001 0 2 2 0 002-1h-4v-1a2 2 0 012-1 2 2 0 012 2v2l1 1v3a4 4 0 010 3v5h-1a1800 1800 0 011 10h-1l1 1-1 5a16 16 0 011 3v4a4 4 0 000 1l-2 1h1a1 1 0 00-1 0l1 1a1 1 0 000-1 2 2 0 000 1v3a34 34 0 011 5v5-1 5a1 1 0 01-1 2l3 8h-1l-1-2h-1a2 2 0 010 1v5a50 50 0 002 6h-3v1a1 1 0 001 0 1 1 0 00-1 0l1 1v6a2 2 0 010 1l1 6v1a1 1 0 01-1 1h-1a7 7 0 000 3 27 27 0 011 2v3a13 13 0 010 3 2 2 0 010 1 14 14 0 010 2 4 4 0 010 1l1 4v4a9 9 0 01-1 2 11 11 0 01-1 3l-1 2v1a16 16 0 012 4 22 22 0 001 5l4 9h-1l-4-5zm-2 5a2 2 0 00-1 0h1zm-1-37a2 2 0 002 1 2 2 0 001-1z"/><path class="s" d="M595 869a2 2 0 01-2-2v-3l-1-5v-2a3 3 0 010-1v-1h-1v-1h1a3 3 0 010-1h1a13 13 0 00-2-6l3-1a2 2 0 00-1 0 2 2 0 00-1 0 6 6 0 000-1h1v-1l-1-3a10 10 0 000-3 13 13 0 010-2h1v-3a3 3 0 010-1l-1-2-1-5v-1h1v-1l-1-2v-5l-1-1-1-5 3 2-1-5v-4l-2-2v-1l3 1v-1a2 2 0 011-1 4 4 0 010-2v-3l1-1a82 82 0 01-2-5 2 2 0 010-1v-5a14 14 0 010-2 17 17 0 00-1-6l-2-8 3 3a1 1 0 011-1 24 24 0 00-1-3 3 3 0 01-1-2l-1-3h1l2 1v-1-1a20 20 0 00-2-7h1l1-1v-2h-1a32 32 0 010-4v-3h1l-1-3a6 6 0 011-3 8 8 0 01-1-4 6 6 0 000-2c0-3 0-4 2-5a3 3 0 012 1 1 1 0 011 0v3a1 1 0 01-1 1 9 9 0 010 2 6 6 0 001 4l3 7-3-3h-1v1a11 11 0 010 2v6a84 84 0 001 4 2 2 0 01-1 2 21 21 0 011 4 8 8 0 000 2v1h-1v2a19 19 0 010 2v4a2 2 0 010 1 5 5 0 000 2 3 3 0 01-1 2 19 19 0 011 4 9 9 0 001 4v1h-1a18 18 0 000 3v1a63 63 0 002 6l2 5v1h-1l-2-2v1h-1a4 4 0 010 1 4 4 0 01-1 3 8 8 0 011 3 2 2 0 01-1 1l2 7a1 1 0 01-1 2 3 3 0 01-1 2v2l1 2v3l-1 1 1 5h1v4l-1 2v1a12 12 0 010 4 12 12 0 001 2v1h-1v1a7 7 0 01-1 1 15 15 0 011 4v4a6 6 0 010 2v1a640 640 0 011 7 1 1 0 010 1v1a2 2 0 01-2 1zm-2-13h-1 1zm1-14h1zm-2 1a1 1 0 001 0v-1l-1 1zm2-7l1-1h-1v1zm0-5h2a2 2 0 00-1 0 3 3 0 00-1 0zm0-43a3 3 0 001 0zm1-18a2 2 0 00-2 0h1a2 2 0 001 0zm-2-41a2 2 0 00-1 1h2zm3-1zM719 880a21 21 0 01-1-3 2 2 0 011-1v-1-12a12 12 0 010-4v-2a1 1 0 010-1v-3-2a2 2 0 01-1-3 2 2 0 011-1l-1-6-1-1h1a8 8 0 011-3 3 3 0 01-1-1 7 7 0 010-1 1 1 0 011 0v-5-2a2 2 0 010-1v-7a4 4 0 011-2l-1-2a3 3 0 010-1h-1v-1c0-1 0-2 2-2v-1c-2-5-2-9-1-11v-4l-1-5v-3a1 1 0 010-1 7 7 0 010-1v-8a2 2 0 010-1 3 3 0 011 0v-1a16 16 0 000-4 11 11 0 01-1-5 4 4 0 01-1-1h1a2 2 0 010-1v-2-2a9 9 0 010-3 2 2 0 011-3l-1-8v-1a2 2 0 011-2v-5h-1a2 2 0 000-1v-2l3-3 1 3 1 12v6l1 2 4 9-5-5h-1v-1a31 31 0 000 4v3a4 4 0 01-1 1 11 11 0 001 4l1 4-1 2a6 6 0 011 2v7l-1-2v1a4 4 0 010 2v8a2 2 0 001 1 1 1 0 010 2 2 2 0 01-1 0l1 2v3l-1 1a18 18 0 001 5h1v11-2a7 7 0 010 2l-1 4v4l-1 2v7h1a3 3 0 01-1 0 6 6 0 000 3 3 3 0 010 1l1 7v2l1 1-1 1a2 2 0 01-1 0v2a22 22 0 010 5l1 6 5 7-6-4 2 5-1 1 1 5h-2v1zm1-60zm1 0zm-3-33zM709 876a2 2 0 01-1 0h-1a14 14 0 01-1-1 1 1 0 011-2v-3a3 3 0 010-2l-2-7h1a1 1 0 010-1v-3-1-1a1 1 0 010-1 15 15 0 011-5 29 29 0 000-5 1 1 0 010-1v-4h-1l1-2a31 31 0 000-7 2 2 0 01-1-1v-1-1l-1-6 1 2v-6l-1-7h2v-1a11 11 0 01-1-2l1-3a11 11 0 000-5 2 2 0 01-1-1v-2a2 2 0 010-2v-2a2 2 0 011-1l-1-3a5 5 0 011-3l-1-1v-3a4 4 0 010-1 5 5 0 000-3v-3a7 7 0 001-4 5 5 0 01-1-2 10 10 0 000-2l1-1 1-3v-1a35 35 0 00-3-10l-5-10 6 6a2 2 0 01-1 0 2 2 0 011-2 26 26 0 010-8v-1l1-9 1 3a3 3 0 011 0l2 1v4l-1 2a25 25 0 000 7 4 4 0 011 2 13 13 0 010 3l1 10-1-2v3l1 2 2 4-3-1a5 5 0 011 2h-1a2 2 0 01-1 1v1a9 9 0 010 6v1a8 8 0 010 4 2 2 0 00-1 1l1 1a25 25 0 011 3l2 8-2-3v4h-1v3a14 14 0 011 8 16 16 0 000 2h-1a15 15 0 001 3 2 2 0 010 1h-2a19 19 0 011 3v1a2 2 0 010 1v2a41 41 0 010 7l-1 1 1 2v1a36 36 0 011 3v5a5 5 0 010 1v5a1 1 0 010 1 30 30 0 01-1 4 3 3 0 011 1v2a4 4 0 01-1 0l-1 4v1l1 1v6l1 6-1 1a42 42 0 001 4v2zm-3-130h1-1zm3-14v1a2 2 0 001-1z"/><path class="s" d="M698 880a3 3 0 01-3-2l2-1a3 3 0 010-1v-1a15 15 0 010-3 21 21 0 01-1-5v-4a2 2 0 010-1 12 12 0 010-6v-3a1 1 0 010-2v-2a3 3 0 011-2 20 20 0 01-1-5l-1-2-1-4 1 1v-1l-1-2h3l-1-3a2 2 0 010-2c-1-2 0-3 1-3a5 5 0 010-3v-2c0-2-1-3 1-3l-1-3v1l-1-6a3 3 0 01-1-2l-1-6 3 3v-3c-2-3-1-4-1-4v-9-1a4 4 0 01-1-2v-1l-1-2v-1h2a7 7 0 000-3h2v-1h-2a1 1 0 000 1l-1-2v-1a2 2 0 011-1v-2l-1-1a1 1 0 011-1v-1-3a2 2 0 011-2 4 4 0 010-1v-1a25 25 0 000-6 19 19 0 01-1-2 2 2 0 011-2 8 8 0 010-1 4 4 0 000-3l-1-2a2 2 0 011-1 16 16 0 01-1-4v-2a3 3 0 01-1 0 15 15 0 01-1-3l-1-4 5 3a3 3 0 011 1h1a9 9 0 010 1 4 4 0 01-1 2l1 1 1 5v1a2 2 0 01-1 1 6 6 0 010 4 3 3 0 001 3h-1v1a27 27 0 011 7v1a4 4 0 010 1h-1v2a2 2 0 010 1v2a28 28 0 010 3v5h-1v6a21 21 0 010 2l1 2v4h-1l1 2a23 23 0 010 6v1a33 33 0 002 4l1 2h-3v1a4 4 0 010 1 40 40 0 011 9v1l1 4-1-1a11 11 0 010 2h-1a6 6 0 001 3v1h-1a2 2 0 010 1v1a38 38 0 001 6l2 7-3-3v4a13 13 0 001 4h-1v3a17 17 0 010 4 1 1 0 000 1 11 11 0 000 6l1 1h-1v1a2 2 0 01-1 1 20 20 0 001 6 3 3 0 011 1 40 40 0 000 5l1 1h-2a3 3 0 01-2 1zm0-7a3 3 0 001 0 2 2 0 001-1zm0-49a2 2 0 001 1 3 3 0 001-1zm1-59a2 2 0 001 0zM687 876l-2 1a3 3 0 011-3 16 16 0 010-2 6 6 0 000-3l3-2a2 2 0 00-2 0 2 2 0 00-1 1 4 4 0 000-1h-1v-2-1l1-6a14 14 0 010-2v-1-3a33 33 0 01-1-6h1a5 5 0 000-1 2 2 0 001 1 2 2 0 002-1h-4a11 11 0 000-3l1-2a15 15 0 00-1-5 2 2 0 010-2v-1a12 12 0 01-1-2l3-1a23 23 0 00-1-5 2 2 0 01-1-1v-1a38 38 0 010-3 1 1 0 010-1v-4a6 6 0 011-1 2 2 0 000-1 1 1 0 01-1-1v-1h1v-6a4 4 0 010-3 16 16 0 00-1-6 20 20 0 01-1-2l2-1a10 10 0 010-2 21 21 0 00-1-5v-3-1a5 5 0 011-2 16 16 0 010-6 3 3 0 011-3 20 20 0 00-1-5l-2-5 2 1a10 10 0 010-3l1-2-1-2a7 7 0 010-3 4 4 0 010-1 34 34 0 010-6v-1-3a50 50 0 010-5v-1h1a7 7 0 00-1-1h4c1 2 0 3-1 3v4l1 1v7a4 4 0 000 1v3l1 2h-1l1 5h-1v5a11 11 0 010 4v6a2 2 0 010 1 16 16 0 000 3l1 1v1a2 2 0 01-2 1v1a3 3 0 010 2 23 23 0 011 6v1l1 1-1 5a33 33 0 010 7v2l-1 4a4 4 0 010 3 5 5 0 000 3 4 4 0 010 5v1a20 20 0 011 5v4a3 3 0 01-1 2 3 3 0 010 2 16 16 0 011 3v5h-1a9 9 0 010 1 4 4 0 010 2 14 14 0 011 2 2 2 0 01-1 1l1 4a1 1 0 010 1v2a10 10 0 000 3l3 6-4-3v2a2 2 0 010 1v3a8 8 0 011 3 12 12 0 000 4l1 7zm0-66a3 3 0 00-1 0h2a3 3 0 00-1 0zm1-76zM679 868a2 2 0 01-1 1v5a3 3 0 01-2 1 2 2 0 01-2-2l1-1a8 8 0 00-1-4l-5-11 6 7a2 2 0 011-3 24 24 0 01-1-2 14 14 0 00-1-4 1 1 0 01-1-1h3l-1-1a2 2 0 00-1 1 6 6 0 000-1v-3l-6 2 8-5a10 10 0 001-3 36 36 0 00-2-5 13 13 0 01-1-2h2a9 9 0 000-1h-1a3 3 0 010-1 12 12 0 000-4v-2-3c-1-2 0-4 1-5v-3l-1-2a5 5 0 010-2v-2-2a1 1 0 010-1 4 4 0 010-3 2 2 0 010-2 2 2 0 011-1l-1-2v-3-4-2-2a3 3 0 010-2 2 2 0 011-2v-2-6-3a1 1 0 01-1-1 137 137 0 01-1-5h2a4 4 0 010-1 2 2 0 00-1 1 3 3 0 011-2 6 6 0 010-3 14 14 0 00-1-4l-3-2h3a38 38 0 000-6 1 1 0 010-2v-1h1l-2-6a1 1 0 011-2 5 5 0 011-3 2 2 0 000-2 4 4 0 010-1l-1-3v-2a2 2 0 001 0 2 2 0 002-1h-3a2 2 0 011-1 2 2 0 012 1l1 2v2l1 2a4 4 0 01-1 4l1 4h-2a1800 1800 0 011 10v7a15 15 0 010 2l1 4a1 1 0 01-1 0 4 4 0 001 2h-2a1 1 0 000 1 1 1 0 001 0 2 2 0 00-1 0 2 2 0 010 1l1 2a34 34 0 011 5l-1 4v1l1-1v6a2 2 0 01-1 1v1l2 9-2-4a2 2 0 010 1v6a50 50 0 001 5l-2 1v1l1 4v9h1a1 1 0 010 1l-2 2a6 6 0 000 2 28 28 0 011 3v2a13 13 0 010 4 18 18 0 010 3 4 4 0 010 1l1 4v3a8 8 0 01-1 2 10 10 0 01-1 4l-1 2a16 16 0 012 5 23 23 0 001 4l4 11zm-3 4a2 2 0 00-1 0h2a3 3 0 00-1 0zm0-36a2 2 0 001 0 2 2 0 002 0z"/><path class="s" d="M668 875a2 2 0 01-2-2l-1-3h1l-1-5-1-2a4 4 0 010-1h1a3 3 0 01-1-1v-1a3 3 0 011-1 13 13 0 00-1-6 1 1 0 01-1 0l4-1a2 2 0 00-2 0 5 5 0 000-1h1c-2-3-1-3-1-4a10 10 0 000-3 14 14 0 010-2h1v-3a2 2 0 010-1l-1-2-1-5v-1h1a1 1 0 00-1 0 2 2 0 001 0 153 153 0 01-2-9l-2-5 4 3-1-6v-4l-3-3 4 1v-1a2 2 0 010-1 4 4 0 011-2v-3a65 65 0 01-1-6 2 2 0 010-2v-4a14 14 0 010-2 18 18 0 00-1-6l-3-9 4 5a5 5 0 010-1 2 2 0 011-1 24 24 0 00-1-3 3 3 0 01-1-2l-1-3 3 1a13 13 0 010-2 21 21 0 00-2-7l2-1-1-2a31 31 0 010-4v-3-3-3a8 8 0 010-4 6 6 0 000-2c0-3-1-4 1-5a3 3 0 013 1 1 1 0 010 1v2c0 1 0 0 0 0a1 1 0 010 1 8 8 0 010 2 6 6 0 000 4l5 8-5-4a13 13 0 010 3v10a2 2 0 010 2 19 19 0 010 4 9 9 0 001 2v1h-1v1a7 7 0 01-1 1 17 17 0 011 2v5a2 2 0 01-1 0h1a1 1 0 010 1 5 5 0 000 1 3 3 0 01-1 2 19 19 0 011 4 9 9 0 001 5h-2a18 18 0 001 4 63 63 0 002 6l2 7-3-3v1h-1a5 5 0 010 1l-1 3a9 9 0 011 3 2 2 0 01-1 1 72 72 0 001 8 1 1 0 010 1 3 3 0 01-1 2v5l1 3h-1l1 5h1v4l-1 3a12 12 0 01-1 4 10 10 0 001 2l1 1h-1v1a6 6 0 01-1 1 15 15 0 011 4v4a6 6 0 01-1 2l1 2v4l1 2a1 1 0 010 1v1a2 2 0 01-2 2zm-2-13h-1 1zm1-14l1 1a2 2 0 000-1zm-2 0a1 1 0 001 1v-1zm2-6h1-1zm0-5h1a2 2 0 00-1 0zm-1-43a2 2 0 001 0 3 3 0 001 0zm2-18a2 2 0 00-2 0 2 2 0 001 0 3 3 0 001 0zm-2-41a2 2 0 00-1 1h2zm3-1z"/><path class="t" d="M1164 626l1-2h6v2h-7z"/><path class="u" d="M1189 626v-3h7v3h-7zM1217 626v-3h7v3h-7z"/><path class="t" d="M1244 649h3v7h-3v-7z"/><path stroke-width="1.3" stroke="#1d150c" fill="#3f2b0f" stroke-miterlimit="10" d="M1244 676h3v8h-3v-8z"/><path class="u" d="M1244 703l3 1v7h-3v-8z"/><path class="t" d="M1141 709h-2v-7h2v7z"/><path class="u" d="M1141 685l-3-1v-7h3v8zM1141 656h-3v-7h3v7z"/><path stroke-width="1.4" stroke="#1d150c" fill="#3f2b0f" stroke-miterlimit="10" d="M1223 730l-1 4h-8v-4h9z"/><path class="u" d="M1196 730v3h-7v-3h7zM1170 730l-1 3h-6v-3h7z"/><path class="x" d="M1142 728l1 3h8l1-1v-5l-6-1-4 4z"/><path class="x" d="M1151 726v4l1 1h8l2-2-1-3a15 15 0 00-1-2l-8 1zM1170 725v5l1 1h7l1-1h1l1-5h-11z"/><path class="x" d="M1161 726v5h8l1-2v-4l-8-1-1 2zM1198 725v5l2 1h5l1-1h1l-1-3 1-2-7-2-2 2zM1187 726v4l1 1h8l2-1v-5l-8-1-3 2z"/><path class="x" d="M1180 726l-1 1v3l1 1h7a10 10 0 000-1v-4l-3-1zM1213 725v4l1 1h2l2 1h3l1-1 1-1h1v-5l-8-1-3 2z"/><path class="x" d="M1223 725v4l1 1h11l3-1v-5l-10-1-5 2zM1205 725v4l1 1 2 1h5v-1a11 11 0 000-1v-4l-3-1z"/><path class="y" d="M1244 729l-1 1h-4l-1-1v-2l-1-1v-2h2z"/><path class="x" d="M1152 721v2l1 3h7l2-2v-4l-8-1-2 2z"/><path class="x" d="M1161 721v4l1 1h8l2-2-1-3a14 14 0 00-1-2l-8 1zM1193 721l-1 2v1l1 1 2 1h8v-1h1v-5l-9-2-2 3z"/><path class="x" d="M1180 719v7h10l2-1v-2l1-3-10-1h-3z"/><path class="x" d="M1170 719v5l1 1h3l3 1h2l1-1a8 8 0 000-1v-5l-4 1zM1148 724l1 2 2-1 1 1 1-1v-5h-1l-4 4zM1212 720v4l1 1h3l1 1 3-1h1l1-1v-5h-9l-1 1zM1222 720v5h11l1-1v-5l-9-1-3 2zM1203 720v5h8l1-1v-5l-8-1-1 2z"/><path class="x" d="M1238 724l-1 1h-1-3v-3l-1-1v-2h2zM1157 715v5h8l1-1v-5l-7-1-2 2zM1166 715v5h9l1-1v-4a15 15 0 00-2-1h-8zM1197 715v5h9v-1h1v-4l-8-2-2 2zM1184 715v4l1 1h3l2 1h3l2-1h2v-6h-9l-4 1z"/><path class="x" d="M1175 715a13 13 0 010 2v2l1 1h8a8 8 0 000-1v-4l-4-1zM1228 715l-1 2v3h-2a6 6 0 01-2 0 5 5 0 00-1 0h-2a7 7 0 01-1-1v-4l5-2zM1207 719l1 1h11v-5l-6-2-5 1-1 2v3z"/><path class="x" d="M1233 719v1h-4l-1-1-1-1v-3l2-1 5 4-1 1zM1152 719l1 1h4l1-1v-5h-1l-5 5zM1158 713l1 2v1l3-1h5l1-1v-5h-6l-4 4z"/><path class="x" d="M1167 710v4l1 1h8l2-1-1-4a14 14 0 00-1-1h-8zM1186 710v4l1 1h3l1 1 3-1h1l1-1 1-5h-10l-1 1z"/><path class="x" d="M1177 710v5h8l1-1v-5l-8-1-1 2zM1229 714l-2 1h-2-2v-2l-1-2v-1l1-2 6 6z"/><path class="x" d="M1214 710v5h7l1-1h1l-1-3 1-2-7-1-2 2zM1203 710v4l1 1h8l1-1h1v-5l-8-1-3 2z"/><path class="x" d="M1196 710l-1 2v2l1 1h3l2 1h2v-1a11 11 0 000-1v-4l-3-1zM1178 705v3l-1 1 2 1h3l1 1 3-1h1l1-1v-5h-9l-1 1z"/><path class="x" d="M1188 705v5h10l2-1v-5l-9-1-3 2z"/><path class="x" d="M1199 705v5h8l1-2v-4l-7-1-2 2zM1169 705v5h8l1-1v-5l-8-1-1 2zM1208 705v5h9l1-2-1-3a14 14 0 00-1-2l-8 1z"/><path class="x" d="M1223 709h-2l-2 1h-1v-3l-1-2v-1h2zM1163 709l1 1h5v-6l-1-1-5 6zM1169 704v1h5l1-1v-5l-1-1-5 6zM1175 699v5l1 1h5l1-1h1v-5h-8z"/><path class="x" d="M1182 699v5h2l3 1 1-1h2l2 1 1-1h1v-6h-8l-4 1z"/><path class="x" d="M1193 699v3l1 2v1l3-1h5l1-1v-5l-8-1-2 2z"/><path class="x" d="M1202 699v4l1 1h8l2-1-1-4a14 14 0 00-1-1h-8z"/><path class="x" d="M1218 704h-2-3l-1-1v-4l1-1zM1213 698l-2 1h-2-2v-1l-1-3 1-1v-2l6 6z"/><path class="x" d="M1198 694v5h8v-1h1l-1-3 1-1-7-2-2 2zM1187 694v4l1 1 1 1h6l1-1h2v-5l-8-1-3 1z"/><path class="x" d="M1180 694l-1 2v2l1 1 2 1h5a10 10 0 000-2v-4l-3-1z"/><path class="x" d="M1174 698v1l2 1h3v-4l1-2-1-2-5 6zM1201 690v4l-1 1-2-1a6 6 0 01-1 1 5 5 0 00-1-1h-3a5 5 0 010-1v-4l4-2z"/><path class="x" d="M1184 693l1 1 1 1h6v-1l1-1v-4l-5-1-4 1v4zM1179 693v1h5v-5h-1l-4 4zM1207 693l-1 1-1 1-2-1h-2v-5l1-1 5 5z"/><path class="x" d="M1198 688l-2 2h-6l-1-1-1-1v-3l2-2 8 1z"/><path class="x" d="M1189 688l-1 1h-2l-2 1-1-1 5-6 1 2v3zM1202 689v1h-4v-1h-1v-5l1-1 4 5v1z"/><path class="x" d="M1198 683l-1 2h-3l-1-1v-2l-1-3 4 2 2 2z"/><path class="x" d="M1188 684l1 1h4v-2l-1-3v-1l-4 4v1zM1243 628v-3h-8l-1 2v4l5 1 4-4zM1234 631v-6h-9l-1 2 1 3a15 15 0 001 2l8-1zM1216 631v-5l-1-1h-7l-2 1h-1v5h11z"/><path class="x" d="M1225 630v-5h-8l-1 2v4l7 1 2-2zM1188 631v-5h-9l1 3-1 2 7 2 2-2zM1199 630v-4h-1l-1-1h-7l-2 1v5l7 1 4-2z"/><path class="x" d="M1206 631v-2-4h-8a11 11 0 001 2v3l3 1zM1173 631v-4l-1-1h-2l-2-1h-3l-1 1-1 1h-1v5h8l3-1z"/><path class="x" d="M1163 631v-4l-2-1h-11l-2 1v2l-1 3 11 1 5-2zM1180 631l1-2v-2l-1-1-2-1h-5v1a11 11 0 000 1v4l3 1z"/><path class="y" d="M1142 627l1-1h4l1 1v5h-1z"/><path class="x" d="M1234 635v-2l-1-3h-8l-1 2v4l8 1 2-2z"/><path class="x" d="M1225 636v-5l-1-1h-7l-1 1-2 1 1 3a15 15 0 001 2h8zM1193 636l1-3v-1l-1-1-2-1h-8l-1 1h-1l1 3-1 2 10 2 2-2z"/><path class="x" d="M1206 637v-6l-1-1h-9l-2 1v2l-1 3 9 1h4z"/><path class="x" d="M1215 637l1-3v-2l-1-1h-3l-3-1h-2l-1 1a7 7 0 000 1v5l4-1zM1238 632l-1-1-1-1-1 1-1-1-1 1v5h1l4-4zM1174 636v-4l-1-1h-3l-1-1-3 1h-1l-1 1-1 5h10l1-1z"/><path class="x" d="M1164 636v-4l-1-1h-10l-1 1v5l9 1 3-2zM1183 636v-5h-8l-1 1v5l7 1 2-2z"/><path class="x" d="M1148 632v-1h4l1 1v3l1 2h-2zM1229 641v-5h-8l-2 1 1 5 7 1 2-2z"/><path class="x" d="M1220 641v-5h-9l-1 1v4a15 15 0 001 1h9zM1189 641v-4l-1-1h-8l-1 1h-1l1 3-1 2 8 1 3-2z"/><path class="x" d="M1202 641v-4l-1-1h-10l-2 1v2l-1 3 10 1 4-2z"/><path class="x" d="M1211 641a13 13 0 010-1v-3l-1-1h-9a8 8 0 001 2v3l4 1zM1158 641l1-2v-3h2a6 6 0 011 0 5 5 0 002 0h2a5 5 0 011 1v4l-5 2zM1179 637l-1-1h-11v5l6 2 5-1 1-2v-3z"/><path class="x" d="M1152 637l1-1h3l2 1 1 1-1 3-1 1-5-4v-1zM1233 637v-1h-5v6h1l4-5zM1227 643v-2h-8l-1 1v5h5l4-4zM1218 646v-5h-9l-1 1 1 4a14 14 0 001 1h8zM1200 646v-4l-1-1h-3l-1-1-3 1h-2l-1 1v5h9l2-1z"/><path class="x" d="M1209 646v-5h-8l-1 1v5l7 1 2-2zM1157 642l1-1h5v2l1 2-1 1v2l-6-6z"/><path class="x" d="M1172 646v-5h-8v1h-1l1 3-1 2 7 1 2-2zM1183 646v-4l-1-1h-8l-2 1v5l7 1 4-2z"/><path class="x" d="M1190 646l1-2v-2l-1-1h-3l-2-1h-2l-1 1a11 11 0 001 1v4l3 1zM1208 651v-4l-1-1h-3l-1-1-3 1h-1l-1 1-1 5h10l1-1z"/><path class="x" d="M1198 651v-5h-11l-1 1v6h9l3-2z"/><path class="x" d="M1187 651v-5h-8l-1 2v4l7 1 2-2zM1217 651v-5h-8l-1 1v5l8 1 1-2zM1178 652v-6h-9l-1 2v3a13 13 0 001 2l9-1z"/><path class="x" d="M1163 647h2l2-1h1v3l1 2v1l-2 1zM1223 647l-1-1h-5v6l1 1 5-6zM1217 652v-1h-5l-1 1v5l1 1 5-6zM1211 657v-5l-1-1h-5l-1 1h-1v5h8z"/><path class="x" d="M1203 657l1-3-1-2h-1l-3-1-1 1h-2l-3-1v1h-1v6h8l3-1zM1192 657v-5l-1-1-3 1h-4l-1 1v5l8 1 1-2zM1183 657v-5h-9l-1 1 1 4a14 14 0 001 1h8z"/><path class="x" d="M1168 653l1-1h4l1 1v4l-1 1z"/><path class="x" d="M1173 658l1-1h5v1l1 3-1 1-1 2-5-6z"/><path class="x" d="M1188 662v-4l-1-1h-7l-1 1 1 3-1 1 7 2 2-2z"/><path class="x" d="M1198 662v-5h-2l-2-1h-3l-1 1h-2v3l-1 3h8l3-1z"/><path class="x" d="M1206 662v-2-3l-2-1h-6a11 11 0 000 2v4l4 1zM1212 658v-1l-2-1h-4v6l1 2 5-6zM1185 666v-4l1-1 2 1a6 6 0 011-1 5 5 0 001 1h3a5 5 0 010 1v4l-4 2z"/><path class="x" d="M1202 663l-1-1-2-1h-5l-1 1v5l5 1 3-1 1-2v-2zM1207 663l-1-1h-4v5h1l4-4zM1179 663v-1l2-1 2 1h1l1 2v3l-2 1-5-5h1z"/><path class="x" d="M1188 668l1-2h7l1 1v4l-1 2-8-1zM1197 668l1-1h2l2-1 1 1-6 6v-5z"/><path class="x" d="M1183 667l1-1h3l1 1h1v5l-1 1-5-5v-1z"/><path class="x" d="M1188 673l1-2h3l1 1v5l-3-2-2-2zM1198 672l-1-1h-4v6l5-4v-1zM1243 729h2l1-1-1-3v-4l-1-2h-5v6l4 4z"/><path class="x" d="M1240 720h4l1-1v-8l-1-1h-4a14 14 0 00-1 1v8zM1240 701h3l2 1v-5l1-1v-3l-1-1-1-1h-5v9l1 1z"/><path class="x" d="M1240 711h3l2-1v-8l-1-1h-5l-1 8 2 2zM1240 673h5v-7l-1-1h-4l-2 6 2 2zM1240 684h4l1-1v-2l1-1v-4l-1-1-1-1v-1h-5l-1 8 2 3z"/><path class="x" d="M1240 692h4l1-1 1-2v-5h-1a11 11 0 00-1 0h-4l-1 3zM1240 658h4l1-1v-8l-1-1h-2l-3-1-1 8 2 3z"/><path class="x" d="M1240 648h4v-1l1-1v-10l-1-2-1-1h-4l-1 11 2 4zM1240 666h4l1-1v-6-1a11 11 0 00-1 0h-4l-1 4z"/><path class="y" d="M1244 628v2l1 2v1h-3l-2 1h-1l-1-2z"/><path class="x" d="M1235 719h5l1-1-1-3v-4l-1-1h-5l-1 7 2 2zM1235 710h5v-9l-1-1h-4a14 14 0 00-1 2v8zM1235 679h5v-11l-1-1-3 1-1-1-2 9 2 3zM1234 692h5l1-1v-1l1-2v-5l-1-2v-1l-1-1h-5v13z"/><path class="x" d="M1234 701h5l1-1v-8a8 8 0 00-1 0h-5v4zM1239 724l1-1v-4l-1-1h-5v1l5 5zM1234 660h5l1-2v-7l-1-1v-1h-5v11z"/><path class="x" d="M1234 649l3 1 2-1v-1l1-3-1-1v-2l1-2-1-1v-1h-6v8l1 3zM1235 669h2l3-1v-7l-2-2h-4l-1 8 2 2z"/><path class="x" d="M1239 633v6h-5l-1-1zM1230 714h5v-8l-2-1h-4l-1 8 2 1zM1229 705h6v-8l-1-1-1-1-3 1a15 15 0 00-2 1v8zM1229 674h5l1-2v-7h-1v-1l-3 1-2-1-2 8 2 2zM1230 687h4l1-1v-9l-1-2-1-1h-4l-1 9 2 4z"/><path class="x" d="M1230 696a13 13 0 011 1h2l1-1v-4l1-2v-2l-1-1a8 8 0 00-1 0h-3l-1 4zM1230 644h4l1 1-1 2a6 6 0 011 1 5 5 0 00-1 1v3a7 7 0 01-1 0h-4l-2-4z"/><path class="x" d="M1233 664h1l1-3v-7l-1-2h-5l-1 7 1 5h4zM1233 638h1l1 2-1 2v1l-2 1h-3l-1-1 4-6 1 1zM1233 719l1-1 1-1-1-1 1-2h-1l-1-1h-4v1l4 5zM1227 713h3v-8l-2-2-4 1-1 5 4 4z"/><path class="x" d="M1225 704h5v-8l-1-1-1-1h-3a14 14 0 00-2 1l1 9zM1224 685h3l2 1 1-2v-7l-1-1v-1h-5v10z"/><path class="x" d="M1224 695h3l2-1h1v-6l-1-2-1-1h-5v8l1 2zM1229 643l1 1v4h-1l-1 1h-4l-1-1 5-6zM1224 657h5v-8h-5l-2 6 2 2zM1225 668h4v-1h1v-8l-1-1-1-1h-4l-1 8 2 3z"/><path class="x" d="M1225 676h4l1-1v-7a11 11 0 00-2 0h-3l-1 3zM1219 694h5l1-1v-8l-1-1v-1h-5v11z"/><path class="x" d="M1219 683l3 1h2v-2l1-3-1-1v-2l1-2-1-1v-1h-6v8l1 3zM1219 672h5l1-1-1-2v-5l-1-1h-5l-1 8 2 1zM1219 703h3l2-1h1v-6l-1-1-1-2h-5v8l1 2zM1219 663h5v-9l-1-1-4 1a14 14 0 00-1 1v8z"/><path class="x" d="M1224 648v6h-5l-1-1zM1223 708l2-1v-4l-2-1h-5v1l5 5z"/><path class="x" d="M1218 703l1-1v-5l-1-1h-5l-1 2 6 5z"/><path class="x" d="M1214 696h3l1 1 1-1v-3l1-1v-2l-1-1-1-1h-5v7l1 1z"/><path class="x" d="M1214 689h4l1-1v-10l-1-1h-5l-1 9 2 3z"/><path class="x" d="M1214 678h5v-8l-1-2h-5l-1 8 2 2z"/><path class="x" d="M1214 669h4l1-1v-8l-2-2-3 1a14 14 0 00-2 1l1 8z"/><path class="x" d="M1218 654v2l1 1v1l-1 1h-4l-1 1v-2z"/><path class="x" d="M1213 659l1 1v4h-1l-1 1h-3l-2-1 6-6z"/><path class="x" d="M1209 673h4l1-2v-5l-1-1v-1l-3 1h-2l-2 6 3 2zM1209 684h4l1-1v-8l-1-1-1-1h-4l-1 8 2 3z"/><path class="x" d="M1209 692h4l1-1v-7a11 11 0 00-1 0h-4l-1 3zM1213 698l1-1v-5h-5l-2 1 6 5zM1204 670h4l1 1v2a6 6 0 010 1 5 5 0 000 2v2a6 6 0 01-1 1h-4l-2-5z"/><path class="x" d="M1208 687h1v-4l1-2v-1l-1-1h-5l-2 4 1 4h5zM1208 693l1-1v-4l-1-1h-5v1l5 5zM1208 664l1 1v3l-1 2h-4l-1-1 4-5h1z"/><path class="x" d="M1203 674l1 1 1 1v3l-1 3-2 1h-3l-1-1 1-9zM1203 683h1v4l-1 1-6-5h6z"/><path class="x" d="M1203 669l2 1-1 3v1h-6l4-5h1zM1198 674h1v4h-3l-3 1 2-3 3-2z"/><path class="x" d="M1198 683l1-1v-3l-1-1-4 1h-1l4 4h1zM1142 627l-2 1v7l1 2h5v-6l-4-4z"/><path class="x" d="M1145 636h-4l-1 1v8l1 2 4-1a14 14 0 001-1v-8zM1145 655h-4l-1 1v3l-1 1 1 3v1l1 1h5v-9l-1-1z"/><path class="x" d="M1145 646h-5v8l1 1h5l1-8-2-1zM1145 683h-5v7l1 1v1l3-1 2 1 1-7-2-2zM1145 672h-4l-1 1v8l1 1v1h5l1-8-2-3z"/><path class="x" d="M1145 665l-2-1h-2l-1 1v3l-1 2v2h1a11 11 0 001 0h4l1-3zM1145 698h-4v1h-1v8l1 1 1 1h4l1-8-2-3z"/><path class="x" d="M1146 708h-4l-1 1-1 1v10l1 2 1 1h4l1-10-1-5zM1146 690h-2-3l-1 1v7a10 10 0 002 0h3l1-3z"/><path class="y" d="M1141 729v-1-2-3h2l2-1h1l1 2z"/><path class="x" d="M1150 637h-5v8l1 2 5-1 1-7-2-2z"/><path class="x" d="M1150 646h-5v9l1 1h4a15 15 0 001-1v-9zM1150 678l-2-1h-2l-1 1v10h1v1h4l2-9-2-2z"/><path class="x" d="M1151 664h-5l-1 1v3l-1 2v4l1 1 1 2h2l3 1 1-10-1-4z"/><path class="x" d="M1152 655h-3-3l-1 1v9a8 8 0 002-1h4v-4zM1146 633h-1v5h6v-1l-5-4zM1151 697h-5v1l-1 3v4l1 1 1 1h4v-10zM1151 707h-5v10l1 2h5l1-9-2-3zM1151 688h-5l-1 1 1 2-1 2v2l1 1 1 1h5v-8l-1-1z"/><path class="x" d="M1146 723v-1-1-3h2l2-1h1l1 1zM1156 642h-5l-1 1v6l1 1 1 1h5v-7l-1-2zM1156 651h-6v8l1 1 1 1h4a14 14 0 001-2v-8zM1156 682h-5v10h5l2-8-2-2zM1156 669h-4l-1 1-1 1v9l1 1 1 1h4l1-9-1-4z"/><path class="x" d="M1156 660a13 13 0 01-2 0h-3v4l-1 2v3h1a7 7 0 001 0h4l1-4zM1156 712h-5v-3a6 6 0 010-1 5 5 0 000-1v-2a6 6 0 011-1h4l2 5zM1152 692l-1 1v2l-1 3v5l1 1h5l1-6v-6h-5zM1152 718h-1v-5l2-1h3l1 2-4 5-1-1zM1152 637l-1 1v4l1 1h4v-1l-4-5zM1158 643l-2 1h-1v6l1 1 1 2h5v-6l-4-4z"/><path class="x" d="M1161 652h-5l-1 1v7l1 1 1 2 3-1a15 15 0 002-1v-8zM1161 671h-5v1l-1 3v4l1 1 1 1h4v-10z"/><path class="x" d="M1161 662h-5l-1 1 1 2-1 2v2l1 1 1 1h5v-8l-1-1zM1156 713l-1-1 1-2-1-2h1l1-1h4l1 1-5 6z"/><path class="x" d="M1161 699h-5v8l1 1 2-1h2l2-6-2-2zM1161 688h-4l-1 1h-1v8l1 1 1 1h4l1-8-1-3z"/><path class="x" d="M1161 681l-2-1h-2l-2 1v7a11 11 0 002 0h4l1-3zM1166 663h-3l-2-1v2l-1 3v4l1 1 1 1h4v-10z"/><path class="x" d="M1166 673h-5v10l1 1h5l1-8-2-3zM1166 684h-5v8l1 1h5l1-8-2-1zM1166 653h-3l-2 1h-1l1 3-1 2v1l1 2 1 1h5v-8l-1-2zM1166 693h-5v9l1 1 4-1a14 14 0 001-1v-8z"/><path class="x" d="M1162 708l-1-1v-1-3h3l1-1h2v1zM1162 648l-2 1v4l1 1h6v-1l-5-5z"/><path class="x" d="M1167 653l-1 1v5l1 1h5l1-1-6-6zM1171 660h-4l-1 1v2l-1 1 1 2v1l1 1h5v-7l-1-1z"/><path class="x" d="M1171 667h-4l-1 1v10l1 1h6v-9l-2-3z"/><path class="x" d="M1171 678h-2l-3 1v7l2 2h4l1-8-2-2z"/><path class="x" d="M1172 687h-5l-1 1v7l1 1 1 2 3-1a14 14 0 002-1v-8z"/><path class="x" d="M1167 703v-1-1l-1-2v-1l1-1h5l1 1z"/><path class="x" d="M1172 698l-1-2v-2-1l1-1h1l2-1h1l2 1-5 6z"/><path class="x" d="M1177 683h-5l-1 2v6h1v1l3-1 2 1 2-7-2-2zM1176 672h-4l-1 1v8l1 2h5l1-8-2-3z"/><path class="x" d="M1176 665l-1-1h-3l-1 1v7a11 11 0 001 0h4l1-3z"/><path class="x" d="M1172 659h-1v5h4l1 1 2-1-6-5zM1181 686h-4l-1-1v-2a6 6 0 010-1 5 5 0 000-1v-3a7 7 0 011 0h4l2 4z"/><path class="x" d="M1177 669h-1v8l1 1h4l2-5-1-4h-5zM1177 664h-1v5h6v-1l-5-4zM1177 692l-1-1v-3l1-2h4l1 1-4 5h-1z"/><path class="x" d="M1182 683l-1-2v-7l2-1h3l1 2-1 8z"/><path class="x" d="M1182 674l-1-1v-4l1-1 6 5h-3l-3 1zM1182 687l-1-1v-3l1-1h4l1 1-4 4h-1z"/><path class="x" d="M1187 683l-1-1v-3l1-1h2l3-1-2 4-3 2z"/><path class="x" d="M1187 673l-1 1v4h1l4-1h1l-4-4h-1z"/><path style="isolation:isolate" opacity=".1" fill="url(#a)" d="M1140 627h104v103h-104z"/><path class="aa" d="M1142 730l6-6 6-6 7-6 9-10 10-9 10-11 3-2-1-2-3 3-11 11-9 9-9 9-7 7-6 6c-2 3-5 4-6 5v2zM1141 628l6 6 6 5 6 8 10 9 9 9 10 10 3 3 2-1-3-3c-4-5-7-7-11-10l-9-10-9-9-7-7-6-6-5-6h-2z"/><path class="aa" d="M1243 627l-6 5-6 6-7 6-9 10-9 9-11 11-3 3 2 1 3-3 10-11 10-9 9-9 7-7 6-6 6-5v-2zM1245 729l-6-6-6-6-6-7-10-9-9-9-10-11-3-3-2 1 3 4 11 10 9 9 9 9 7 7 6 6c3 2 4 5 5 6h3z"/><path class="aa" d="M1195 680h-4v-4h4v1a6 6 0 010 3z"/><path class="ab" d="M254 261c0 5 3 9 7 10-1 4-2 7-1 11s4 6 8 6c-2 6 2 14 8 16l3 9c2 3 7 3 9 1a10 10 0 0012 8c1 2 2 5 4 6s6 2 7 0a7 7 0 007 6h4c4 0 7 4 11 4 5 1 5-4 10-5 4-1 7 1 11 2s8-2 7-5c3 2 7 3 11 3s8-4 7-8c3 4 11 0 10-5a9 9 0 0014-9 7 7 0 108-13 7 7 0 007-12c3 0 5-1 7-4s0-5-3-6c8-1 12-12 8-18a8 8 0 103-15 9 9 0 00-4-17c2-5-2-11-7-11a7 7 0 00-6-11c4-5 0-15-7-15 1-3-1-6-4-8s-6-1-9-1c-1-3-1-7-4-9s-7-3-9 0c-2-7-11-11-18-7-2-6-12-6-15 0-6-6-19-5-24 2-4-5-15-2-16 5-7-5-17 0-19 8-5-3-13 1-13 7a13 13 0 00-8 16c-3 1-4 6-5 11a4 4 0 01-2 3c-2 1-5 4-6 10l2 9c0 1-9 5-2 14l-3 12z"/><path class="ac" d="M416 194c-1-3-4-5-7-5 1-3-1-6-4-8s-6-1-9-1c-1-3-1-7-4-9s-7-3-9 0c-2-7-12-11-18-7-2-6-12-6-15 0-6-6-19-5-24 2-4-5-15-2-16 5-7-5-17 0-19 8-5-3-13 1-13 7a13 13 0 00-8 16c-3 1-4 6-5 11a4 4 0 01-2 3c-2 1-5 4-6 10l2 9c0 1-9 5-2 14l-3 12c0 4 3 9 7 10-1 3-2 7-1 11s4 6 8 6c-2 6 2 14 8 16l3 9c2 3 7 3 9 1a10 10 0 0012 8c1 2 2 5 4 6s6 2 7 0a7 7 0 007 6h4c4 0 7 4 11 4 5 1 5-4 10-5 4-1 7 1 11 2s8-2 7-5c3 2 7 3 11 3a22 22 0 001-4 4 4 0 000-2l-4-3-6-6c-4-2-8 0-12 0s-9-3-8-7c1-5 9-3 13-6a4 4 0 00-4-4c1-3 4-4 7-5s6-4 4-7c-2-2-7 0-9-2s0-6 3-7l9-1c3-1 6-3 5-5-1-4-9-4-10-8 0-2 2-4 1-6s-4-3-6-1l-6 4a7 7 0 01-5-12l8-1c3 0 5-4 3-6l-6-3a26 26 0 0114-11c-3-2-3-7 0-9s6-2 9-3c8-1 22-1 28-6-7-9 6-14 14-17z"/><path class="ad" d="M297 292l-5-7-9-14c-2-3-2-7 1-7-2-3-3-8 0-9a15 15 0 01-10-11c-1-3-1-6 1-8l4-3a8 8 0 001-8l4-3-1-3a4 4 0 000-6l2-5c2-6 11-10 17-6 3-4-1-10 2-13s7-1 10 0c4 0 7-3 11-4 5-2 10-1 15 1 4 2 9 5 11 9s2 10-2 13c-2 2-5 2-8 2l-16 1a10 10 0 00-4 1 6 6 0 00-3 7 8 8 0 007 5c-1 3-4 5-7 6l-10 2c-3 1-5 5-3 8a8 8 0 016 2 22 22 0 00-6 11 102 102 0 0020 12l-5 4c-2 1-4 3-4 5s2 4 4 3l-2 7c-1 3-3 4-5 6-5 3-11 5-16 2z"/><path class="ad" d="M394 191l-2-1-4-3-5-2c-1-1-4-2-3-4v-3a3 3 0 00-2-2 14 14 0 00-10 0c-1 1-3 2-4 1l-1-3-5-5a18 18 0 00-7 1c-3 1-10 0-10 5a1 1 0 000 1l1 1a5 5 0 012 0c3 2 6 3 6 6a7 7 0 001 3l3 1h5c2 1 2 5 1 7s-4 5-4 8a25 25 0 006 2l-3 4c-1 2-2 3-1 4 2 2 5 1 7 0s3-4 6-4a10 10 0 013 1 14 14 0 007 1 4 4 0 003-1c2-2-1-7 2-9l5 1a5 5 0 003-10zM324 254c-2 1-2 4-1 5a7 7 0 002 1c3 1 5 5 7 7v5l-3 1a5 5 0 00-2 7 27 27 0 012 2c2 2 1 5 0 7l-4 7a11 11 0 01-2 4l-6 2h-13a26 26 0 00-5-1c-2-1-4 0-4 2-1 2 1 4 3 5h7a4 4 0 012 1l1 5a7 7 0 0013 5 22 22 0 005 6c2 2 5 2 7 2s5-5 3-7l-4-4a7 7 0 010-9 7 7 0 013-2l5-2a4 4 0 000-2 18 18 0 00-2-7c3-2 7-4 9-7s0-9-4-9h-4v-4l2-3c0-4-5-6-6-9l-1-5c-1-4-7-5-10-3zM264 261a2 2 0 000 1l3 1c2 0 3 2 3 5a33 33 0 010 6 16 16 0 001 8c1 2 3 4 6 5l1 5a7 7 0 002 4 3 3 0 004-1c1-2 0-4-1-5l-2-4-1-6c0-3-2-5-3-8s-1-5 0-7a4 4 0 001-1 3 3 0 000-3c-3-6-12-9-14 0zM281 191a6 6 0 004 1l-1 2-3 2a6 6 0 00-2 3l-2 6a4 4 0 00-1 2c1 2 3 2 4 1a7 7 0 002-5 8 8 0 011-4c3-3 10 0 12-4v-6c0-2 2-4 4-3s5-1 7-3c1-1 3-2 2-4a3 3 0 00-1-1c-2-2-5-1-8 1s-4 4-7 4c-5 0-10 2-11 8z"/><path class="ac" d="M563 424c1-6 4-12 10-15s13-2 18 2c3-5 9-9 16-10s13 2 16 8c9 2 16 13 12 22a36 36 0 00-1 5l-1 4-5 10c-6 7-14 11-23 14-9 4-19 5-27 1-8-3-14-10-14-18l1-9c-1-4-3-9-2-14z"/><path class="ad" d="M571 454l-2-15c1-6 5-12 10-15s14-2 18 2c4-5 10-9 16-10s14 2 16 8a15 15 0 017 3c1-8-5-17-13-19-3-6-10-9-17-8s-12 5-16 10c-4-4-12-5-17-2s-9 9-10 15c-1 5 1 10 2 15l-1 8a21 21 0 007 14 35 35 0 000-6z"/><path class="ac" d="M660 553c8-1 15-9 14-17a14 14 0 007-25c4-3 5-8 3-12s-6-7-10-9a37 37 0 00-37 3 17 17 0 01-3 2 41 41 0 01-5 2c-6 2-10 8-10 15s3 13 5 18c4 8 10 7 16 12 7 5 11 12 20 11z"/><path class="ab" d="M681 511c4-3 5-8 3-12s-6-7-10-9a36 36 0 00-12-4 17 17 0 018 8c2 4 1 10-3 12a14 14 0 01-7 25c1 8-5 15-13 17 4 3 7 5 13 4 8 0 15-8 14-16a14 14 0 007-25z"/><path class="ac" d="M508 505a16 16 0 002 18 27 27 0 00-9 19c0 6 2 12 7 15s11 1 17-1c-2 4-1 8 1 11a18 18 0 0010 6 23 23 0 0016-1c5-2 9-7 9-12 5 2 11 1 15-2s7-8 9-13c2-7 2-13 0-20s-7-11-13-13c1-4 2-8 0-11-1-3-5-5-8-6-7-3-14-6-22-6s-12 4-18 8c-6 3-12 1-16 8z"/><path class="ab" d="M572 503h1a10 10 0 000-2l-1 2zM585 536c-2 5-5 10-9 13s-10 4-15 2c0 6-4 10-9 13a23 23 0 01-16 1 18 18 0 01-10-6c-2-3-3-8-1-11-6 1-12 3-17 0-4-2-6-6-7-10a25 25 0 000 4c0 6 2 12 7 15s11 1 17 0c-2 3-1 7 1 10a18 18 0 0010 6 23 23 0 0016-1c5-2 9-7 9-12 5 2 11 1 15-2s7-9 9-14a34 34 0 001-15 38 38 0 01-1 7zM510 514a16 16 0 01-3-6 17 17 0 000 9 27 27 0 013-3z"/><path class="ac" d="M515 433l-4 5c-1 2 1 5 3 5a25 25 0 00-14 19 37 37 0 000 13c1 4 4 9 8 9a10 10 0 013 0c2 1 2 3 3 5a18 18 0 0031 7 5 5 0 012-2l4 2a23 23 0 0035-13 23 23 0 00-4-40c3-3 4-8 2-12s-4-6-8-8a25 25 0 00-14-2 20 20 0 01-5 0 19 19 0 01-4-1 24 24 0 00-20 4l-8 4c-4 1-7 2-10 5z"/><path class="ab" d="M596 462a24 24 0 00-8-16 22 22 0 011 5 24 24 0 01-10 21 23 23 0 01-35 13c-2-1-3-2-5-1a5 5 0 00-2 2 18 18 0 01-18 6 17 17 0 01-5-3 18 18 0 0031 7 5 5 0 012-2l4 2a23 23 0 0035-13 24 24 0 0010-21z"/><path class="ad" d="M520 453c-6 0-10 7-9 12s7 10 13 10c2 0 4-1 5-3a8 8 0 001-4 37 37 0 000-8 9 9 0 009-6c1-3 1-7 4-8l5 1 5-5c1-2 2-4 1-6-1-3-5-3-8-3h-14c-7 0-7 3-9 8-2 4-6 7-3 12z"/><path class="ac" d="M595 497l-6 2c-2 1-2 4 0 6a25 25 0 00-24 5 36 36 0 00-7 10c-2 4-4 10 0 12a10 10 0 012 2c1 2 0 4-1 6a18 18 0 0020 25 5 5 0 012 0l3 4a23 23 0 0035 12 23 23 0 0023-34c4 0 7-3 8-7s1-8-1-12a25 25 0 00-9-10 20 20 0 01-4-3 21 21 0 01-3-4 24 24 0 00-18-10l-8-1c-4-2-7-4-12-3z"/><path class="ab" d="M640 571a24 24 0 004-18 22 22 0 01-3 5 24 24 0 01-21 10 23 23 0 01-35-13c-1-1-1-3-3-3a5 5 0 00-3 0 18 18 0 01-17-7 17 17 0 01-3-5 18 18 0 0019 25 5 5 0 013 0c2 0 2 2 3 4a23 23 0 0035 12 24 24 0 0021-10z"/><path class="ad" d="M589 523c-5-4-12-2-15 4s-1 12 4 15l6 2a8 8 0 003-3 36 36 0 005-6 9 9 0 0011 1c2-2 5-5 8-3l4 3h6l5-4c1-4-2-6-4-8l-11-9c-6-4-7-2-12 0-4 2-9 2-10 8z"/><path class="ac" d="M623 427c-3 0-5 0-7 2s-2 4 0 6a25 25 0 00-23 5 37 37 0 00-8 10c-2 4-4 10 0 12a10 10 0 012 2c1 2 0 4-1 6a18 18 0 0020 25 5 5 0 012 0c2 0 2 2 3 4a23 23 0 0029 15 24 24 0 006-3 23 23 0 0023-34c4 0 7-3 8-7s1-8-1-12a25 25 0 00-9-10 13 13 0 01-7-7 24 24 0 00-18-10l-8-1c-4-2-7-4-11-3z"/><path class="ab" d="M668 501a24 24 0 003-18 22 22 0 01-3 5 24 24 0 01-21 10 23 23 0 01-35-13c-1-1-1-3-3-3a5 5 0 00-2 0 18 18 0 01-18-7 17 17 0 01-3-5 18 18 0 0020 25 5 5 0 012 0c2 0 2 2 3 4a23 23 0 0029 15 24 24 0 006-3 24 24 0 0022-10z"/><path class="ad" d="M614 446c-5-4-12-2-15 3s-1 13 4 16a7 7 0 006 2 8 8 0 003-3 37 37 0 005-6 9 9 0 0011 1c3-2 5-5 8-4l4 4h6c2-1 4-2 5-5s-2-5-4-7l-11-9c-6-5-7-2-12 0-4 2-9 2-10 8z"/><path class="ac" d="M541 480a18 18 0 00-6 6c-3 5-2 12 0 17-7 3-9 13-4 19s13 8 20 5a24 24 0 0035 0 25 25 0 003-3c1-1 1-3 3-3a9 9 0 013 0 13 13 0 0011-6 21 21 0 004-11 26 26 0 010-6l2-4a17 17 0 00-2-17 21 21 0 00-15-7 19 19 0 00-16-11c-9 0-13 5-18 11-5 5-14 6-20 10z"/><path class="ad" d="M546 513c-2-6-4-12-1-18a19 19 0 017-5c6-4 15-5 20-10 5-6 8-12 18-11a19 19 0 0116 10 22 22 0 017 2 18 18 0 00-3-6 21 21 0 00-15-8 19 19 0 00-16-10c-9-1-13 5-18 11-5 5-14 6-20 10a19 19 0 00-6 6c-3 5-2 12 0 17-7 3-9 13-4 20a16 16 0 008 5c-1-5 2-11 7-13z"/><path class="ab" d="M610 478a18 18 0 00-2-3 15 15 0 01-2 7l-1 4a26 26 0 00-1 6 21 21 0 01-4 12 13 13 0 01-10 5 9 9 0 00-4 0l-3 3a24 24 0 01-34 7 24 24 0 01-3-3c-6 2-13 1-18-2a13 13 0 003 9c4 6 13 7 20 5a24 24 0 0035 0 24 24 0 003-4c0-1 1-3 3-3a9 9 0 013 0 13 13 0 0011-6 21 21 0 003-11 26 26 0 011-6l2-4a17 17 0 00-2-16z"/><path class="ac" d="M589 471c-6 2-11 6-13 12s0 12 5 15c-1 4-1 8 1 11 3 3 6 3 10 4 5 0 11-1 13-6a15 15 0 0025-6 35 35 0 011-5l2-3a10 10 0 00-9-15 12 12 0 00-6-10c-4-2-8 0-12 0-6 1-12 1-17 3z"/><path class="ab" d="M633 483a10 10 0 00-5-4 10 10 0 01-1 2l-2 3a32 32 0 00-1 5 15 15 0 01-25 7c-2 5-8 6-13 5a20 20 0 01-6-1c0 3 0 7 2 9s6 3 9 4c6 0 12-1 14-5a15 15 0 0025-7 33 33 0 011-5l2-3a10 10 0 000-10z"/><path class="ae" d="M1427 305a56 56 0 00-6-2c-7-3-22-11-30-11-3 0-10 1-16 14-3 7-2 15-2 22 1 14 13 61 16 67 2 8 6 16 11 22l8-1-1-2c-6-11-14-49 5-54a52 52 0 018-3l19-8 1-1 1-1-5-13c-5-7-13-6-21-6-5 0-9 1-11 3s-2 0-2-1c1-4 4-3 6-5s2-5 5-7l8-2c7-3 15 5 21 8a36 36 0 013 3 118 118 0 00-18-22z"/><path class="af" d="M1441 347l-1 1zM1440 348l-1 1z"/><path d="M1361 287c-10 5-18 12-27 19l-25 19-1 2c12-6 20-6 33-12l15-8c-5 19-2 51 6 67 1-4 2-10 0-24-1-10-3-24-2-30 3-10 11-19 17-27 8-10 17-4 20-3a148 148 0 0022 8l-6-4c-15-11-34-16-52-7z" fill="#bab2a8"/><path class="ah" d="M1397 290c-3-1-12-7-20 3-6 8-14 17-17 27-1 6 1 20 2 30 2 14 1 20 0 24-8-16-11-48-6-67l-15 8c-13 6-21 6-33 12-6 7-7 16-7 25-1 14-2 41 4 49a21 21 0 002 2c-2-4 1-9 4-15 6-12 12-23 22-31l7-12h1c-1 11-9 21-14 30l-8 15c-3 6-5 11-3 18v1a61 61 0 006 2c-1-7 4-13 10-17l14-5c3-2 6-3 10-3 10 0 11 6 17 12 3 3 7-2 8-5s3-4 6-5c-5-15-13-49-14-60 0-7-1-15 2-22 6-13 13-14 16-14 8 0 23 8 30 11a56 56 0 016 2l-8-7a148 148 0 01-22-8z"/><path class="af" d="M1343 326c-5 2-11 3-15 6-3 3-3 6-5 9l-8 10c-6 7-6 18-7 26-1 5-4 16 2 18a1 1 0 001 0c4-11 10-20 17-29 5-5 12-14 13-21 0-1 2-12 6-18 2-3-2-1-4-1z"/><path class="ae" d="M1340 345l-7 12c-10 8-16 19-22 31-3 6-6 11-4 15a30 30 0 009 6v-1c-2-7 0-12 3-18l8-15c5-9 13-19 14-30h-1z"/><path class="af" d="M1387 388c-3 1-5 2-6 5s-5 8-8 5c-6-6-7-12-17-12-4 0-7 1-10 3l-14 5c-6 4-11 10-10 17h1c6-10 18-10 29-9 5 0 10 1 14 5 4 3 9 5 13 4 4-2 7 2 11 6h10c-5-6-9-14-11-22l-2-7zM1445 327a38 38 0 00-3-3c-6-3-14-11-21-8l-8 2c-3 2-3 5-5 7s-5 1-6 4c0 2 0 4 2 2s6-3 11-3c8 0 16-1 21 5l5 14-1 1-1 1-19 8a52 52 0 00-8 3c-19 5-10 43-5 54l1 2 8-1a72 72 0 0014-4c13-19 14-63 14-63 1-2 5-3 7-4h1v2c4 11 9 33 9 48a20 20 0 005-5s0-9-3-23-14-34-18-39z"/><path d="M1452 346v-2h-1c-2 1-6 2-7 4 0 0-1 44-14 63 9-3 19-1 25-4 5-3 9-7 8-9 1-15-7-41-11-52z" fill="#4f463f"/><path class="ae" d="M1379 411c-4 1-9-1-13-4-4-4-9-5-14-5-10-1-23-1-29 9a427 427 0 0067 6c-4-4-7-8-11-6z"/><path class="ah" d="M1445 342l-7-1c-4 1-7 5-18 6-7 1-14 0-19 4l-4 6c-3 5-6 5-7 8-1 4 2 9 2 12h1c3-5 7-13 12-16 4-3 8-5 18-6 8-1 12-4 17-5 8-1 7-5 12-6l-7-2z"/><path d="M1129 131c7-5 19-25 59-3 25 14 11 54 31 49 27-7 47 24 21 49s-38 20-66 7c-10-5-16-9-31-6s-21 23-50 26-74-30-51-49 25-28 18-46 29-41 44-27 18 4 25 0z" fill="#45dbe2"/><path d="M1189 221c-12 0-42-7-50-5s-32 7-38 20-55 5-56-11 5 2 17-21c11-19 12-27 12-33a6 6 0 01-3-3c-2-4 3-10 12-13s15-1 17 3a6 6 0 01-1 5h1c10 0 38-19 45-15s-19 11-10 18 32-7 39 0-20 7-14 13 23 2 26 6-6 5-2 9 10-2 15 2-23 5-19 11 21 14 9 14zm44-14c-2-5-11-7-20-4s-16 10-14 15 11 7 20 4 16-10 14-15z" transform="translate(1 1)" fill="url(#b)"/><path class="al" d="M1169 196c3-5 0-12-5-15-6-3-15 0-16 4l8 5s-8-4-9-3c-1 0-2 9 7 14a11 11 0 0015-5z"/><path class="am" d="M1148 187a35 35 0 013 2c4 1 5 2 6 1l-4-3a24 24 0 01-4-2v-1c1-2 9-5 14-3 6 3 8 10 6 15a11 11 0 01-7 5 10 10 0 01-8-1c-7-4-7-11-6-13z"/><path class="an" d="M1148 188l3 1c4 2 5 2 6 1s-1-2-4-4a37 37 0 01-3-2c1-2 8-4 13-2s8 9 5 14a10 10 0 01-6 5 10 10 0 01-8-1c-6-4-6-10-6-12z"/><path class="ao" d="M1152 184c2-1 7-3 10-1 5 2 7 8 5 12a9 9 0 01-5 5 8 8 0 01-7-1 11 11 0 01-6-9h1c5 2 7 3 8 1 2-3-1-4-4-6l-2-1z"/><path class="al" d="M1175 162a8 8 0 00-2-11c-3-3-10-2-11 0l5 4-6-3s-3 6 2 11a8 8 0 0011-1h1z"/><path class="am" d="M1161 152a24 24 0 013 2l3 2-2-3a17 17 0 01-2-2c1-2 7-2 10 0a8 8 0 011 11 8 8 0 01-5 2 7 7 0 01-5-2c-5-4-3-9-3-10z"/><path class="an" d="M1162 153l1 1 4 2c1-1 0-2-2-3l-2-2c2-1 7-2 10 0a7 7 0 011 10 7 7 0 01-5 3 7 7 0 01-5-2c-4-3-3-8-2-9z"/><path class="ao" d="M1165 151c2-1 5-1 7 1a6 6 0 011 9 6 6 0 01-4 2 6 6 0 01-5-2 8 8 0 01-2-7l1 1c3 2 4 3 5 2 1-2 0-3-2-5l-1-1z"/><path class="al" d="M1095 206a12 12 0 0016 0c4-4 4-13 1-15-2 0-7 6-7 5l5-7c0-1-8-5-16 1-4 4-4 12 1 16z"/><path class="am" d="M1109 189a31 31 0 01-2 3l-3 4v1c1 0 2 0 4-3a24 24 0 014-2c2 2 2 10-1 14a11 11 0 01-16 0 12 12 0 01-3-8 9 9 0 013-8c6-5 13-2 14-1z"/><path class="an" d="M1109 189l-2 3c-3 3-4 4-3 5s2 0 5-2a36 36 0 012-3c2 2 3 10-1 14a10 10 0 01-15-1 11 11 0 01-3-7 9 9 0 013-7 11 11 0 0114-2z"/><path class="ao" d="M1111 194c1 3 1 8-2 11a9 9 0 01-13-1 10 10 0 01-3-6 8 8 0 013-6 10 10 0 0110-2v1c-4 3-5 5-4 6l1 1c2 2 4 0 7-2l1-2z"/><path class="al" d="M1108 170a8 8 0 00-6 10c2 4 7 7 10 6l-1-6 2 6c1 0 6-4 5-10-1-4-6-7-10-6z"/><path class="am" d="M1113 185a22 22 0 010-2l-2-4v4a16 16 0 010 3c-2 0-7-2-8-6a8 8 0 015-9 8 8 0 016 0 7 7 0 014 5c1 5-3 9-5 9z"/><path class="an" d="M1114 185l-1-2-2-4c-2 0-1 1-1 4a24 24 0 011 2c-2 1-7-2-8-5a7 7 0 015-9 8 8 0 016 1 6 6 0 013 4 8 8 0 01-3 9z"/><path class="ao" d="M1110 185l-6-5a6 6 0 015-8 7 7 0 015 1 5 5 0 012 3 7 7 0 01-2 7v-1l-3-4h-1c-2 1-1 3-1 5l1 2z"/><path class="ap" d="M1113 194a8 8 0 01-5-3 7 7 0 0110 1 8 8 0 01-5 2zM1103 193a8 8 0 01-5-3 7 7 0 0110 1 8 8 0 01-5 2z"/><path class="ap" d="M1105 196a8 8 0 013-5 7 7 0 01-1 10 8 8 0 01-2-5zM1106 186a8 8 0 012-5 7 7 0 010 10 8 8 0 01-2-5z"/><path class="ap" d="M1113 190a8 8 0 01-5 1 8 8 0 012-5c2-2 5-2 5-2a8 8 0 01-2 6zM1105 196a8 8 0 01-5 2 7 7 0 018-7 8 8 0 01-3 5zM1109 196a8 8 0 01-1-5 7 7 0 016 8 8 8 0 01-5-3z"/><path class="ap" d="M1103 189a8 8 0 01-2-6 7 7 0 017 8 8 8 0 01-5-2z"/><path class="aq" d="M1113 192a7 7 0 01-5-1 6 6 0 019-3 8 8 0 01-4 4zM1104 194a7 7 0 01-5 0 6 6 0 019-3 8 8 0 01-4 3z"/><path class="aq" d="M1107 196a8 8 0 011-5 6 6 0 012 9 7 7 0 01-3-4zM1104 187a8 8 0 011-5 6 6 0 013 9 7 7 0 01-4-4z"/><path class="ar" d="M1112 188a7 7 0 01-4 3 6 6 0 014-8 8 8 0 010 5zM1107 196a7 7 0 01-4 3 6 6 0 015-8 7 7 0 01-1 5z"/><path class="ar" d="M1111 195a7 7 0 01-3-4 6 6 0 018 5 7 7 0 01-5-1zM1103 191a7 7 0 01-3-4 6 6 0 018 4 7 7 0 01-5 0z"/><path class="as" d="M1109 190a2 2 0 01-1 1 2 2 0 010-1 2 2 0 011-1 2 2 0 010 1zM1108 192a2 2 0 01-1 1 2 2 0 010-1 2 2 0 011-1 2 2 0 010 1z"/><path class="as" d="M1108 192a2 2 0 010-1 1 1 0 011 1 2 2 0 01-1 0zM1107 191a2 2 0 01-1-1 1 1 0 012 1 2 2 0 01-1 0z"/><path class="as" d="M1109 191a2 2 0 01-1 0 1 1 0 011-1h1a2 2 0 01-1 1zM1107 192a2 2 0 01-1 0 1 1 0 012-1 2 2 0 01-1 1z"/><path class="as" d="M1108 192a2 2 0 010-1 1 1 0 010 2 2 2 0 010-1zM1107 190a2 2 0 010-1 1 1 0 011 2 2 2 0 01-1-1z"/><path class="at" d="M1108 191a1 1 0 010-1 1 1 0 010 1zM1108 192a1 1 0 01-1 0 1 1 0 010-1 1 1 0 011 0 1 1 0 010 1z"/><path class="at" d="M1108 192a1 1 0 010-1 1 1 0 011 1 1 1 0 01-1 0zM1107 191a1 1 0 010-1 1 1 0 011 1 1 1 0 01-1 0z"/><path class="at" d="M1108 191a1 1 0 011 0 1 1 0 01-1 0zM1107 191a1 1 0 011 0 1 1 0 01-1 0zM1108 192a1 1 0 010-1 1 1 0 010 1z"/><path class="at" d="M1107 191a1 1 0 010-1 1 1 0 011 1 1 1 0 01-1 0z"/><path class="al" d="M1041 237c3-4 11-8 11-8s-4 8-8 12a21 21 0 01-8 5 21 21 0 015-9z"/><path class="am" d="M1039 239c7-8 2 1 2 1s10-6 1 2a13 13 0 01-6 3 16 16 0 013-6z"/><path class="an" d="M1039 240c6-8 1 1 1 1s9-6 2 1a11 11 0 01-5 3 14 14 0 012-5z"/><path class="am" d="M1041 239v1h1a68 68 0 00-5 5h-1l5-6z"/><path class="al" d="M1038 231c5-2 14-2 14-2s-7 5-12 7a21 21 0 01-10 1 21 21 0 018-6z"/><path class="am" d="M1036 233c10-5 1 1 1 1s11-1 0 3a13 13 0 01-6 0 16 16 0 015-4z"/><path class="an" d="M1036 233c8-4 0 2 0 2s11-2 1 1a11 11 0 01-6 1 14 14 0 015-4z"/><path class="am" d="M1038 233l-1 1 1 1a72 72 0 00-7 2l7-4z"/><path class="al" d="M1047 243l3-14 1 14a29 29 0 01-3 9 29 29 0 01-1-9z"/><path class="am" d="M1047 245c0-11 2 0 2 0s2-11 1 1a17 17 0 01-2 6 22 22 0 01-1-7z"/><path class="an" d="M1047 246c1-10 1 0 1 0s3-10 2 0a15 15 0 01-2 5 19 19 0 01-1-5z"/><path class="am" d="M1048 244v1l1-1-1 7a62 62 0 000-7z"/><path class="al" d="M1041 226c4 0 8 4 8 4l-8 1c-3 0-6-4-6-4s3-2 6-1z"/><path class="am" d="M1040 226c6 0 0 2 0 2s6 4-1 2a6 6 0 01-3-3 8 8 0 014-1z"/><path class="an" d="M1040 226c5 0-1 2-1 2s6 3 0 2a5 5 0 01-3-3 7 7 0 014-1z"/><path class="am" d="M1040 227v2a24 24 0 00-4-2 14 14 0 004 0z"/><path class="al" d="M1050 238v-9l5 7c1 3-1 6-1 6s-3-1-4-4z"/><path class="am" d="M1051 239c-3-6 2-1 2-1s1-7 2 0a6 6 0 01-1 4 8 8 0 01-3-3z"/><path class="an" d="M1051 239c-2-5 2 0 2 0s1-7 2-1a5 5 0 01-1 4 7 7 0 01-3-3z"/><path class="am" d="M1052 238h1a25 25 0 001 4 14 14 0 00-2-4z"/><path class="al" d="M1049 222v8s-3-4-3-7a11 11 0 010-6 11 11 0 013 5z"/><path class="am" d="M1049 221c2 6-2 0-2 0s0 7-1 0a7 7 0 010-4 9 9 0 013 4z"/><path class="an" d="M1048 220c2 6-1 0-1 0s0 7-1 1a6 6 0 011-3 8 8 0 011 2z"/><path class="am" d="M1048 222l-1-1v1a34 34 0 00-1-5h1a20 20 0 001 5z"/><path class="al" d="M1042 222l8 8-10-5a20 20 0 01-5-7 20 20 0 017 4z"/><path class="am" d="M1040 221c8 5 0 1 0 1s6 7-1 1a12 12 0 01-3-4 15 15 0 014 2z"/><path class="an" d="M1040 221c7 4-1 0-1 0s6 7 0 2a11 11 0 01-3-4 13 13 0 014 2z"/><path class="am" d="M1041 222h-1v1l-4-4a41 41 0 005 3z"/><path class="au" d="M1040 234a10 10 0 005-1 13 13 0 002-1 13 13 0 00-2 1 11 11 0 00-2 5 10 10 0 004-3 17 17 0 002-2 25 25 0 00-1 3 15 15 0 001 5 15 15 0 001-5v-1a5 5 0 002 1 5 5 0 000-3 9 9 0 00-2-3l1-1-1 1 1-1h-2a13 13 0 000-3 2 2 0 10-1 0 9 9 0 000 2 20 20 0 00-2-2 10 10 0 00-3-2 10 10 0 002 3 7 7 0 001 1 4 4 0 00-3 1 5 5 0 002 1l-1 1a10 10 0 00-4 3zm10-4zm0 0z"/><path class="at" d="M1053 229c-1 1-3 2-5 1s0-3 1-5 4-2 5-1 1 3-1 5z"/><path class="at" d="M1053 229c-2 1-4 2-5 1s0-3 1-4 4-3 4-2 1 3 0 5z"/><path class="at" d="M1054 227a2 2 0 11-1-3 2 2 0 011 3z"/><path class="at" d="M1053 225l3-4-4 4h1z"/><path class="al" d="M1065 254c-3-5-11-11-11-11s3 9 6 14a24 24 0 009 8 24 24 0 00-4-11z"/><path class="am" d="M1067 257c-7-11-3 0-3 0s-10-8-2 3a15 15 0 006 4 18 18 0 00-1-7z"/><path class="an" d="M1066 257c-5-10-1 2-1 2s-9-9-2 0a13 13 0 005 4 16 16 0 00-2-6z"/><path class="am" d="M1064 256v2l-1-1a79 79 0 015 7l-4-8z"/><path class="al" d="M1069 248l-15-6s7 8 12 11a24 24 0 0011 3 24 24 0 00-8-8z"/><path class="am" d="M1072 250c-11-8-3 2-3 2s-12-4 0 2a15 15 0 007 2 18 18 0 00-4-6z"/><path class="an" d="M1072 250c-9-6-1 2-1 2s-12-4-2 2a13 13 0 007 1 16 16 0 00-4-5z"/><path class="am" d="M1069 250l1 2h-2a77 77 0 018 4l-7-6z"/><path class="al" d="M1057 259l-1-16s-3 9-3 15a33 33 0 001 12 33 33 0 003-11z"/><path class="am" d="M1056 262c2-12-1-1-1-1s-1-13-2 1a20 20 0 001 7 25 25 0 002-7z"/><path class="an" d="M1056 262c2-11-2 1-2 1s0-13-1-1a17 17 0 001 6 22 22 0 002-6z"/><path class="am" d="M1055 260v2l-1-2v9a71 71 0 011-9z"/><path class="al" d="M1067 241c-4 0-10 3-10 3s6 3 10 3 6-3 6-3-3-3-6-3z"/><path class="am" d="M1068 241c-7-1 0 3 0 3s-8 3 0 2a7 7 0 005-2 9 9 0 00-5-3z"/><path class="an" d="M1069 242c-7-1 0 2 0 2s-7 3 0 2a6 6 0 003-2 8 8 0 00-3-2z"/><path class="am" d="M1067 243l1 1h-1a28 28 0 015 0l-5-1z"/><path class="al" d="M1055 253l1-10-7 7c-2 3 0 7 0 7s4-1 6-4z"/><path class="am" d="M1053 254c4-6-2-1-2-1s0-8-2-1a7 7 0 000 5 9 9 0 004-3z"/><path class="an" d="M1053 254c4-5-2 0-2 0s0-8-2-2a6 6 0 000 5 8 8 0 004-3z"/><path class="am" d="M1052 253h-1v-1a27 27 0 01-2 5l3-4z"/><path class="al" d="M1058 235l-1 10 5-8a12 12 0 001-7 13 13 0 00-5 5z"/><path class="am" d="M1059 234c-3 6 2 1 2 1s-1 7 2 0a8 8 0 000-5 10 10 0 00-4 4z"/><path class="an" d="M1060 234c-3 5 1 0 1 0s-1 7 1 1a7 7 0 000-4 9 9 0 00-2 3z"/><path class="am" d="M1060 235l1-1v1a40 40 0 011-4 23 23 0 01-2 4z"/><path class="al" d="M1066 237l-10 8 12-5a23 23 0 007-6 23 23 0 00-9 3z"/><path class="am" d="M1069 236c-10 4 0 1 0 1s-8 7 1 1a14 14 0 004-4 18 18 0 00-5 2z"/><path class="an" d="M1069 236c-8 3 1 1 1 1s-8 6 0 1a12 12 0 004-4 15 15 0 00-5 2z"/><path class="am" d="M1068 237h1l-1 1 6-4a47 47 0 01-6 3z"/><path class="au" d="M1063 246a10 10 0 00-1-1 5 5 0 003-1 5 5 0 00-4-2 8 8 0 001 0 12 12 0 003-3 11 11 0 00-4 1 22 22 0 00-3 2 10 10 0 001-2 7 7 0 001-3 6 6 0 00-3 3 15 15 0 000 4l-2-1 1 1-1-1v1a11 11 0 00-2 3 5 5 0 000 4 6 6 0 002-2v2a17 17 0 000 6 17 17 0 002-6 35 35 0 000-4 19 19 0 001 4 11 11 0 004 3 12 12 0 00-1-5 15 15 0 00-2-2 15 15 0 002 1 11 11 0 005 2 12 12 0 00-3-4zm-7-2zm0 0z"/><path class="at" d="M1053 242c1 2 3 3 5 2s1-3 0-5-4-3-5-2-1 3 0 5z"/><path class="at" d="M1053 242c2 2 4 3 5 2s1-3 0-5-4-3-5-2-1 3 0 5z"/><path class="at" d="M1053 240a2 2 0 100-3 2 2 0 000 3zM1054 238l-3-5 3 5zM1052 248l4-2-3-3c-2-1-4 1-4 2s1 3 3 3z"/><path class="at" d="M1053 248l3-2c0-1-1-2-3-2l-3 1 3 3z"/><path class="at" d="M1051 247a1 1 0 10-2-2 2 2 0 002 2z"/><path class="at" d="M1051 245l-5-1 5 1s0 1 0 0z"/><path class="ac" d="M200 554c14-13 31-6 68 11s49 18 60 19 43 28 61 32l22 5 5 11s-5 11-46 14-62-4-93 15-58 19-94 12-53-9-60-12 15-14 50-11 46-4 41-7-14 2-38 0-64-18-64-18 74-58 88-71z"/><path d="M389 616c-18-4-51-31-61-32s-23-1-60-19l-20-9c2 1 34 19 43 26 10 8 11 17 28 21a43 43 0 0129 26c2 7-25 4-43 12s-33 23-49 30a108 108 0 0021-10c31-19 51-13 93-15s46-14 46-14l-5-11-22-5z" style="mix-blend-mode:multiply" fill="#7ebb15"/><path class="aw" d="M208 617c14-4-7-6-20-11s-18-11-1-11 15-6 10-10-9-14 4-15 10-12 10-16 4-6 5-7a24 24 0 00-16 7c-14 13-88 71-88 71s18-8 34-8 48 4 62 0zM231 651c1-12-15-12-27-9 5-1 8-1 10 1 5 3-6 10-41 7-20-2-36 1-45 4a242 242 0 0150 3c27 5 51 6 53-6z"/><path class="ax" d="M840 362l49-4 31 12h11l80 30 57-12 22-12 16-8v-6l-42-33-50-19-39-18-21-4-34 18-34 24-33 10-13 14v8z"/><path class="ay" d="M840 356l49-4 31 11h11l80 31 57-12 22-12 16-8-2-8-40-31-50-19-39-18-21-4-34 18-34 24-33 10-13 14v8z"/><path class="ax" d="M886 324l12 11 31 3 40 12 23 12 39-3 29-16 22-6 1-14-11-9-62-20-28-12-30-3-36 14-16 13-14 7v11z"/><path class="ay" d="M886 318l12 11 31 3 40 12 23 12 39-3 29-16 22-6 1-8-11-15-62-21-28-11-30-3-36 14-16 13-14 7v11z"/><path class="az" d="M995 329l-21-7-14 4v2l11 6 19 3 8 5h7l9-3 1-5-13-4-7-1zM943 292l-14 3-6 4 2 5 7 1 3-4 7-2 4-4-3-3z"/><path class="ax" d="M954 305l4-19 13-14 2-8 30-3 33 5 28 1 6 7 2 6 7 37-7 4-13 2-28-4-34 4-22-10-17-3-4-5z"/><path class="ba" d="M973 264l1 10 30 14 30-9 8 3 11-3 4-3h4l9-2-6-7-28-1-33-5-30 3z"/><path fill="#898989" d="M1034 279l-30 9 2 13-2 6v7l-3 7-4 2 34-4-2-18 2-7-3-2 3 1 3-10v-4z"/><path class="ba" d="M1060 319l-3-5-9-3-4-6-2-7 6-9-8 8-1 15-8 7 28 4 13-2-12-2z"/><path class="bc" d="M975 313l4-10 1-8 2-3 1-5 2 1 1 8-1 7 1 4-1 4 1 7-11-5z"/><path class="ba" d="M967 282l2-4 5-4-1-10-2 8-13 14-4 19 5-18 8-5z"/><path class="bd" d="M990 275l14 7 11-2 8-1 1-3-8-6-9 1-7-4-9 3-1 5z"/><path class="az" d="M1014 270l-7 1-7-4-9 3-1 5 2 1 1-3 8-2 4 1 9-2z"/><path class="ax" d="M988 329l-21-7-14 4v2l11 6 19 3 15 5 9-3 1-5v-2l-13-2-7-1z"/><path class="bd" d="M988 327l-21-7-14 4v2l11 6 19 3 15 5 9-3 1-5-13-4-7-1z"/><path class="ax" d="M943 293l-18 1-5 3v2l2 4 7 1 3-3 7-2 4-5v-1z"/><path class="bd" d="M940 290l-15 2-5 5 2 5 7 1 3-4 7-2 4-4-3-3z"/><path class="ax" d="M1057 353l-20 12-9 2v4l10 5 22 2 12-11 9-2 3-10v-4l-11 2-8 4-7-1-1-3z"/><path class="bd" d="M1056 351l-19 11-9 2v4l10 5 22 2 12-11 9-2 3-11-11-2-8 5-7-2-2-1z"/><path class="az" d="M929 332v6l29 9-29-8-31-4v-6zM992 356v6l34 1 11-1 11-6 10 1 7-3 8-5 9-7h6l-6-5 1-14-1 8-22 6-29 16-39 3zM1094 354l-10-1v-2l-3 11-9 2-12 11v3l9-4 8-2 7-4 7-9 4-3-1-2zM997 323l29-2 18 2h15l-28-4-2-18 2-7-3-2 3 1 3-10v-4l-30 9 2 13-2 6v7l-3 7-4 2z"/><path style="mix-blend-mode:multiply" fill="#c6c6c6" d="M1042 282l8 1-2 6-6 9 2 7 4 6 9 3 3 5 12 2h10l-3-4-7-37-2-6-9 2h-4l-4 3-11 3z"/><path class="az" d="M1000 267l-4 5v4l4 4-10-5 1-5 9-3z"/><path class="bc" d="M967 282l1 8 2 6v16h1l2-12v-9l3-5 2-4 3-4 4 1-11-5-5 4-2 4z"/><path class="az" d="M920 363v7l16 1 2-5-7-3h-11z"/></g></svg>