<svg xmlns="http://www.w3.org/2000/svg" xmlns:xlink="http://www.w3.org/1999/xlink" viewBox="0 0 1501 1001"><defs><radialGradient id="a" cx="350.7" cy="1003.6" r="51.8" gradientTransform="matrix(1 0 0 -1 -144 1453)" gradientUnits="userSpaceOnUse"><stop offset="0" stop-color="#c0a373"/><stop offset="1" stop-color="#fff" stop-opacity="0"/></radialGradient><linearGradient id="b" x1="1200.7" y1="1241" x2="1200.7" y2="1146.3" gradientTransform="matrix(1 0 0 -1 -146 1444)" gradientUnits="userSpaceOnUse"><stop offset="0" stop-color="#a0edf0"/><stop offset="1" stop-color="#45dbe2"/></linearGradient><style>.c{isolation:isolate}.b{fill:#70b344;stroke:#5f732e}.aa,.at,.b,.t,.u,.x,.y{stroke-miterlimit:10}.c{opacity:.25}.d{fill:#5c4328}.aa,.d,.e,.f,.g,.h,.i,.j,.k,.l,.m,.n,.o,.p,.q,.x,.y{fill-rule:evenodd}.e{fill:#544730}.f{fill:#877657}.g{fill:#ae9c87}.h{fill:#68543c}.i{fill:#9d8264}.j{fill:#b49871}.k{fill:#8f7e5f}.l{fill:#857c68}.m{fill:#a59b84}.n{fill:#67604f}.o{fill:#bdb29a}.p{fill:#c1b09a}.q{fill:#cdb186}.s{fill:#ddc02c}.t,.u{fill:#3f2b0f}.aa,.at,.t,.u,.x,.y{stroke:#1d150c}.u{stroke-width:1.14px}.x,.y{fill:#571c10}.y{stroke-width:1.04px}.aa{fill:#c0a373}.ab{fill:#78a015}.ac,.aw{fill:#7ebb15}.ad{fill:#94d31a}.ae{fill:#897d6f}.af{fill:#635a52}.ah{fill:#91887b}.al{fill:#8ab550}.am{fill:#97c261}.an{fill:#a9d171}.ao{fill:#b3db7b}.ap{fill:#dcf5f5}.aq{fill:#f2ffff}.ar{fill:#fff}.as{fill:#fddfb3}.at{fill:#1d150c}.au{fill:#81a653}.az{mix-blend-mode:multiply}.aw{mix-blend-mode:screen}.ax{fill:#bdbdbd}.ay{fill:#d9d9d9}.az{fill:#cfcfcf}.ba{fill:#cbcbcb}.bc{fill:#c6c6c6}.bd{fill:#e8e8e8}</style></defs><g style="isolation:isolate"><path class="b" d="M1001 501h250v250h-250zM1251 251h250v250h-250zM1001 251h250v250h-250zM1001 1h250v250h-250zM1251 1h250v250h-250zM751 251h250v250H751zM751 1h250v250H751zM751 501h250v250H751zM501 251h250v250H501zM251 251h250v250H251zM501 501h250v250H501zM251 501h250v250H251zM751 751h250v250H751zM251 751h250v250H251zM1001 751h250v250h-250zM501 1h250v250H501zM1251 501h250v250h-250zM1251 751h250v250h-250zM501 751h250v250H501zM251 1h250v250H251zM1 1h250v250H1zM1 751h250v250H1zM1 251h250v250H1zM1 501h250v250H1z"/><use class="c" transform="rotate(48 110 1414) scale(.09)" xlink:href="#c"/><path class="d" d="M1167 545l7-7 9-8 6-8a13 13 0 001-10c-2-7-9-11-14-17a75 75 0 01-7-8 33 33 0 00-3-5 38 38 0 00-5-3 23 23 0 01-4-4l-4-5-7-9a4 4 0 000-1l-16-18-8-9-9-7a4 4 0 00-1 0 32 32 0 00-3-5 34 34 0 01-4-5 37 37 0 00-5-6l-5-5-5-6c-2-1-3-3-5-3a6 6 0 01-1 1l-7 4c-2 1-6 1-6-2h-1a8 8 0 01-1 2 22 22 0 01-4 3c-3 2-4 6-5 9a2 2 0 01-3 1l-1 1a2 2 0 010 1 10 10 0 01-5 1 29 29 0 00-3 2 12 12 0 00-3 3 19 19 0 00-2 5 5 5 0 003 3 22 22 0 017 7l7 9c4 7 10 12 16 18l17 19 33 37 17 18 9 9a8 8 0 005 3 8 8 0 005-2 64 64 0 002-1 3 3 0 003-2z"/><path class="e" d="M1109 420c-3-4-4-7-8-4l-5 4c-2 1 4 7 5 8 1 2 8 9 9 8s7-5 7-7c-1-3-4-5-5-6zm0 0l3 3c1 1 4 3 5 6 0 2-5 6-7 7-2 2-8-6-9-7-1-2-7-8-5-10l5-3c4-4 5 0 8 4z"/><path class="f" d="M1109 420c-2-3-4-8-8-4s-10 2-1 12c2 1 8 10 10 8l5-4c2-2 2-3 1-5a9 9 0 00-3-3 40 40 0 01-4-4z"/><path class="g" d="M1109 420c-2-2-3-5-5-5a3 3 0 00-2 1l-3 3c0 3-2 3 2 6 1 1 4 7 6 7s-2 5 4 2c2-1 5-4 5-6v-1a9 9 0 00-3-3 40 40 0 01-4-4zm4 7c1 1-1 1-1 1l-2-2 3 1zm-2 5h-1c0-2 1 0 1 0zm-12-12c-1 1-2 2-1 4l-1-3 2-1z"/><path class="h" d="M1138 457l-6 6c0 1 1 6 3 4l9-8c0-1-2-7-6-2zm0 0c3-5 6 0 6 2s-7 8-9 9-3-3-3-4c-1-1 5-6 6-7z"/><path class="i" d="M1138 457l-5 4c0 1-2 2-1 3 0 2 0 3 2 4l6-4 4-5c-1-5-4-5-6-2z"/><path class="j" d="M1142 462l2-3c-1-4-2-5-4-4a16 16 0 01-1 1l-4 5c-3 2-1 2-1 4a2 2 0 002 1l3-2a20 20 0 003-2z"/><path class="h" d="M1058 411l-7 5c0 1 0 6 3 5 2-1 9-4 10-6 0-1 0-8-6-4zm0 0c5-4 7 2 6 4s-8 6-10 6c-3 1-3-3-3-4 0-2 6-5 7-6z"/><path class="i" d="M1058 411l-5 3-2 3c0 1 0 3 2 4l6-2 5-4c0-5-2-6-6-4z"/><path class="j" d="M1061 417c2 0 3-2 3-2 0-4-1-5-3-5a17 17 0 01-2 1l-5 4c-3 1-1 2-1 3a2 2 0 002 2l3-1a20 20 0 003-2z"/><path class="e" d="M1112 486l-9-12c-2-3 12-10 13-4l2 3c1 1 5 6 4 7l-6 4-4 2zm0 0l4-2 6-4-2-4c-1-1-4-3-4-6-2-6-15 2-13 4l9 12z"/><path class="k" d="M1112 486c-5-4-5-8-9-12-2-2 12-10 13-3l5 5c2 4 3 3-3 7-2 1-3 3-6 3z"/><path class="g" d="M1104 472c3-3 11-6 12-1l5 5c1 3 2 3 1 4a1 1 0 01-1 0c-2-3-3 0-3 0a3 3 0 001 2l-1 1a31 31 0 01-4 3 5 5 0 01-1-3c0-1 4-7-1-1-3-2 1-4 2-5 5-5 0-3-2-2-8 1 3-2 3-2 0-3-4-1-5-1h-6z"/><path class="h" d="M1133 509c-3-2-9-6-4-9 3-1 2 0 4-3 3-3 4 0 7 2 1 2 10 7 8 9-1 2-6 7-8 6a32 32 0 01-4-2l-3-3zm0 0l3 3 4 2c2 0 7-5 8-6 1-2-8-8-10-9-5-5-3-1-7 1-7 3-2 6 2 9z"/><path class="i" d="M1133 509c-1-1-10-6-2-9 4-1 2-7 8-1 2 2 11 7 9 9-9 10-7 6-14 2a5 5 0 01-1-1z"/><path class="j" d="M1140 500l3 2a6 6 0 01-2 2c-1 0 0 4 6 1 1 1 2 2 1 3l-2 2a19 19 0 00-3 2c-3 1-7 0-8-3 0-1-9-5-3-6 1-3 1-4 5-3 1-3 0 1 3 0z"/><path class="h" d="M1173 531c-2-2-8-6-3-9l4-3c2-3 3-1 6 2 1 1 10 6 8 8-1 2-6 7-8 6a30 30 0 01-4-2l-3-2zm0 0l3 2 4 2c2 0 7-5 8-6 1-2-8-8-9-9-6-5-3-1-8 1-6 3-2 6 2 10z"/><path class="i" d="M1173 531c-1-2-10-7-2-10 4-1 2-7 8-1 2 2 11 7 9 9-9 10-6 6-14 2a4 4 0 01-1 0z"/><path class="j" d="M1181 521l3 3a6 6 0 01-3 1c-1 0 0 5 6 2v-1l1 3-2 2a19 19 0 00-3 2c-2 1-7 0-8-3 0-1-9-5-3-6 1-3 1-4 5-3 2-2 0 1 4 0z"/><path class="e" d="M1081 445c7-3 9-3 2-11-4-6-5-3-9-1l-1 4c0 2 6 7 8 8zm0 0c-3 0-9-7-9-8 0-3 0-3 2-4 4-3 5-5 10 1 6 8 5 9-3 11z"/><path class="l" d="M1081 445c4-1 9-2 5-8-8-10-7-7-13-3v3c-1 1 6 8 8 8z"/><path class="m" d="M1086 443c2-1 2-3 0-6-7-9-7-7-11-5a1 1 0 000 1c4 5 0 4 5 7l2 1c0 2 2 3 4 2zm-1-5s0 2-1 1c-5-6-3-6 1-1z"/><path class="e" d="M1168 543c7-2 9-3 3-11-5-5-5-3-10-1l-1 4c0 2 6 8 8 8zm0 0c-3 0-9-7-8-8-1-3 0-3 1-4 4-3 5-5 10 1 6 8 5 9-3 11z"/><path class="l" d="M1168 543c4-1 10-2 5-8-7-10-7-7-13-3v3c-1 1 6 8 8 8z"/><path class="m" d="M1173 541c2-1 3-2 0-6-6-8-7-7-11-4a1 1 0 001 0c3 6-1 4 4 8 2 1 3 0 2 1 0 1 2 2 4 1zm-1-5c0 1 0 2-1 1-5-6-2-6 1-1z"/><path class="e" d="M1121 484c2 3 7 9 10 10 2 1 2-4 0-6l-2-3c-5-5-3-3-7-3l-1 2zm0 0l1-2c4 0 2-2 7 3l3 3c2 2 2 8-1 6l-10-10z"/><path class="k" d="M1121 484c4 6 12 14 12 8 0-4-2-4-4-7-5-5-3-2-7-3l-1 2z"/><path class="g" d="M1132 494l1-2c0-4-2-4-4-7-5-5-3-3-7-3l6 5c1 9 2 0 3 5a4 4 0 001 2z"/><path class="h" d="M1096 429c-4-1-3-5-7-2l-4 2c-2 2 3 5 3 7 2 3 3 5 7 2l6-5c0-2-4-3-5-4zm0 0c1 0 6 2 5 4l-6 6c-4 2-5 0-7-3-1-2-5-5-3-7l4-3c4-3 4 1 7 3z"/><path class="j" d="M1096 429c-4-1-3-6-7-2-1 1-8 1-1 8 1 1 2 9 10 1 2-2 6-3-1-6l-1-1z"/><path class="i" d="M1096 429c-3-1-3-5-6-3a5 5 0 01-1 1l-3 2c0 2 6 6 6 9-1 2 2 1 4 0a18 18 0 002-2 3 3 0 00-2-3v-4z"/><path class="e" d="M1067 436c-5-4-4-6-9-11-2-3 12-10 13-4l2 3c1 0 5 5 4 6l-6 4-4 2zm0 0l4-2 6-4c1-1-1-3-2-3-1-2-4-4-4-6-1-6-14 2-12 4 4 4 3 6 8 11z"/><path class="l" d="M1067 436c-5-4-5-7-8-11-3-2 12-11 12-3l4 5c2 3 4 2-3 6-1 1-3 3-5 3z"/><path class="m" d="M1065 419c3-1 6-1 6 3l4 5c2 3 3 2 0 5a7 7 0 01-1-2c-1-2-4-3-5-2h-4c-1 0-3-4-1-5l1-4zm8 14a17 17 0 00-2-3c-2-1-2 1-4 1-1 0-2 2 1 3a13 13 0 001 1l3-2z"/><path class="n" d="M1159 516c-2-2-8-9-8-11s2-6 4-7c5-3 10 5 13 8 2 2 8 9 5 11l-4 4-6-4-4-1zm0 0l4 2c2 1 5 4 6 3a55 55 0 004-3c4-4-8-16-10-18-6-5-11-2-12 5-1 1 7 9 8 11z"/><path class="l" d="M1159 516c-1-1-9-10-8-11 0 0 3-15 14-3 2 2 12 13 8 15-5 5-3 6-9 1l-5-2z"/><path class="m" d="M1152 502c1-3 4-8 11-2v2a3 3 0 003 2c3 3 9 9 8 12-2 0-2 7-11-1-4-3-1-2 1-3 4-2-3-1-4-1-6-1 0-6-5-7-2 0-3 0-3-2z"/><path class="e" d="M1115 488c2 4 6 13 10 14 3 1 4-6 2-9l-3-3c-4-7-3-4-7-4l-2 2zm0 0c0-2 1-3 2-2 4 0 3-3 8 3l2 4c2 4 1 11-3 9s-7-10-9-14z"/><path class="k" d="M1115 488c3 8 11 19 13 12 1-6-1-6-4-10-4-7-3-3-7-4-1 0-2 0-2 2z"/><path class="g" d="M1128 499c1-5-1-5-4-10l-1-1a2 2 0 01-1-1 3 3 0 00-4 0c-1 4 7 4 7 9-2 2-4-3-5-4-1 2 5 8 5 8 1 1 2 0 3-1z"/><path class="e" d="M1180 515c2 3 7 10 10 8 3-1 4-11 2-13l-3-2c-4-5-3-2-7 3l-2 4zm0 0c0-2 0-3 2-5 4-4 3-7 7-3l3 2c2 3 1 14-2 15s-8-5-10-9z"/><path class="k" d="M1180 515c4 7 11 14 13 2 0-9-1-7-4-10-4-4-3 0-7 3l-2 5z"/><path class="g" d="M1193 517c0-9-1-7-4-10a15 15 0 00-1-1l-1 1c-2-1-4 3-4 4-1 6 6-2 7 4-2 5-4 1-5 1-1 3 6 5 6 5l2-4z"/><path class="h" d="M1139 472l-1-4c-1-2-1 1-2 1l-2 1 2 1 2 2a3 3 0 002 0l-1-1zm0 0a1 1 0 000 1c2 1-1 1-2-1l-2-1c-3-1 0-2 1-2 0-1 2-3 2-1l1 4z"/><path class="i" d="M1139 472l-1-4c-1-2-2 1-2 1s-3 0-2 1l3 2 1 1h1a1 1 0 010-1z"/><path class="h" d="M1137 473a3 3 0 01-1 0c-3 1-6 3-5-1 0-2-1-4 2-3s-2 1 2 3l2 1zm0 0a3 3 0 00-1-1c-1 0-4-1-3-2 0-1-2-1-2 1s-1 4 2 3l4-1zm0 0z"/><path class="i" d="M1137 473l-1-1s-4-1-2-2c0-1-3-2-3 1 0 1-2 5 2 3a22 22 0 014-1z"/><path class="h" d="M1119 450c1-1 4 4 5 5 2 3-2 1-4-1l-2-4h1zm0 0h-1c3 4 2 5 6 6a4 4 0 000-1l-5-5z"/><path class="k" d="M1119 450c1-1 3 4 4 5l1 1c-4-1-3-2-6-6h1z"/><path class="h" d="M1061 419c0 2-5 4-6 5-3 2-1-3 1-4l5-1zm0 0c-5 2-5 1-7 5a4 4 0 001-1c1 0 6-2 6-4z"/><path class="k" d="M1061 419c0 2-5 4-6 4l-1 1c1-4 3-3 6-5h1z"/><path class="h" d="M1139 495c1 1 1 2-1 2s-2-4-4-7c-1-1-2-4 1 0l4 5zm0 0a22 22 0 01-3-5c-4-5-4-1-2 1s1 2 2 5c2 3 6 1 3-1z"/><path class="k" d="M1139 495c1 0 2 1 0 2-3 1-3-4-5-6s-2-6 1-1a18 18 0 004 5z"/><path class="h" d="M1131 495a20 20 0 00-3-1l1 5a2 2 0 000 1l2-5zm0 0c1 1-3 8-3 3 1-2-2-7 3-3z"/><path class="k" d="M1131 495s-2-2-3-1l1 2c0 2-1 5 1 3 0 0 2-3 1-4z"/><path class="h" d="M1166 544a20 20 0 00-2-2v6c1 0 3-3 2-4zm0 0c2 0-3 8-2 3 0-3-2-8 2-3z"/><path class="k" d="M1166 544l-2-2v2c1 3-1 5 1 4l1-4z"/><path class="h" d="M1119 499l-1 3 2 2s6 3 5 1l-4-6a6 6 0 00-2 0zm0 0c3 0 4 3 5 5 2 3-2 1-3 0-2-1-2 0-3-2l1-3z"/><path class="i" d="M1119 499l-1 3 4 3s5 2 2-1c-1-1-2-5-5-5z"/><path class="e" d="M1074 420l6 7 3 5c-1 1-10-9-11-11s-1-2 2-1zm0 0c-3-1-3-1-2 1l11 11-3-4a22 22 0 00-1-2l-6-6z"/><path class="l" d="M1074 420l5 7a19 19 0 003 3c2 2 2 3-2-1l-8-8s-1-2 1-1h1z"/><path class="h" d="M1091 443a22 22 0 00-1-3l-4 4c1 1 4 0 5-1zm0 0c0 1-8 4-4 0 2-1 3-7 4 0z"/><path class="k" d="M1091 443l-1-3-2 2c-1 2-4 3-1 3l4-2z"/><path class="h" d="M1079 449a21 21 0 001 2c2-1 0-2 4-5 0-1-5 1-5 3zm0 0c-1-2 9-6 5-2-3 2-5 9-5 2z"/><path class="k" d="M1079 449l1 3 1-3c2-2 5-4 2-4l-4 4z"/><path class="n" d="M1093 425l5 1 3 3c1 1 2 3 0 2a50 50 0 01-6-3l-2-2v-1zm0 0c0 2 2 3 3 3l6 3a8 8 0 00-1-1l-3-4-5-1z"/><path class="l" d="M1093 425l4 1c2 0 3 3 4 3 0 0 3 3-1 1a13 13 0 01-2-1l-2-1a3 3 0 01-2-1l-1-2z"/><path class="e" d="M1085 434l3 4c1 2 0 2-1 0l-1-2-2-3 1 1zm0 0l-1-1 3 4 1 2v-1l-3-4z"/><path class="k" d="M1085 434l3 4c1 0 0 2-1 0l-1-2-2-2c-1-2 1-2 1 0z"/><path class="e" d="M1058 426l3 4c2 2-1 2-2 0l-1-2s-3-4-1-3l1 1zm0 0l-1-1 3 4 1 2-1-1-2-4z"/><path class="k" d="M1058 426l2 4c1 1 1 2-1 0v-2a24 24 0 00-2-2c-1-1 0-2 1 0z"/><path class="h" d="M1068 414a43 43 0 00-4 4h6l-1-2-1-2zm2 4zm-2-4l2 3v1c-3-1-3 0-6 1-2 0 4-5 4-5z"/><path class="i" d="M1068 414l-3 3-1 1h6v-1l-2-3z"/><path class="h" d="M1108 460l2 2v2a9 9 0 002 2c1 1-3 2-4 2 0-1 2-2 0-5v-3zm0 0l1 4v4s3-1 2-2a9 9 0 01-1-2v-2l-2-2zm1 8"/><path class="i" d="M1108 460l2 2v2l1 2c1 1-1 1-2 2v-4a10 10 0 00-2-3l1-1z"/><path class="h" d="M1110 460l2 4v-1c1-2 2-2-1-3zm0 0a3 3 0 011 0l2 2v4c-1 1-1-1-1-1l-2-5z"/><path class="i" d="M1110 460l1 4 1 2 1-2c-1-1 1-3-1-3l-2-1z"/><path class="e" d="M1103 433l-2 2h3a2 2 0 001 0l-2-2zm-2 2l2-2 1 1c3 1 0 1 0 1h-4l3-2z"/><path class="k" d="M1103 433l-2 2h3c1 0 2 0 0-1l-1-1z"/><path class="e" d="M1094 422c-1-1-2 1-3 1a1 1 0 000 1l4-1-1-1zm-3 2l3-2h1c2 2-1 1-1 1l-3 1s2-4 3-2z"/><path class="k" d="M1094 422c-1-1-2 0-3 1-2 2 3 0 3 0 1 0 2 1 1-1h-1z"/><path class="h" d="M1094 440c0 1-3 0-2 3 1 2 2-3 2-3zm0 0v3a1 1 0 01-2 0c-1-3 1-2 2-3z"/><path class="i" d="M1094 440c-1 1-3 0-2 3h1l1-3z"/><path class="e" d="M1123 477h4c2 0 2 1 2 2l-1 2h-3c-2 0-2-1-2-2 0 0-2-2 0-2zm0 0v2l1 2h4v-2c0-2 1-2-1-2h-4z"/><path class="k" d="M1123 477h4c2 0 1 1 1 2v2h-3c-1 1-2-2-2-2v-2z"/><path class="e" d="M1100 473c1 3-2 4 1 4 2-1 3 2 3 0l-2-3c0-2-1-1-2-1zm0 0s2-1 2 1 2 2 2 3c1 3-2 0-3 0-4 0 0-1-1-4z"/><path class="k" d="M1100 473c1 2-3 5 1 4 1-1 3 2 3 0l-2-3c0-2-2-1-2-1z"/><path class="e" d="M1113 487c1-1 1 1 2 2 3 4 2 6 1 4l-2-3c-1-2-3-2-1-3zm0 0l-1 1 3 3 2 2a18 18 0 00-2-4c-1-1-1-3-2-2z"/><path class="k" d="M1113 487c1-1 1 1 2 2 0 0 3 5 1 4a7 7 0 00-1-2l-3-3 1-1z"/><path class="h" d="M1139 516l3 1v2a10 10 0 001 2c1 2-2 3-3 3v-6l-1-2zm0 0l2 4v3l2-1a9 9 0 01-1-2l-1-2c0-2 0-2-2-2zm2 7"/><path class="i" d="M1139 516l2 1 1 3 1 1c1 1-2 2-2 2v-3a10 10 0 00-2-4z"/><path class="h" d="M1168 523l-2 1c-1 1-2 0-3-1 0-1-5-6-3-6l7 4a7 7 0 011 2zm0 0l-1-1c0-2-3-3-6-4s1 3 2 4l2 2 3-1z"/><path class="i" d="M1168 523l-3 1-4-4s-3-4 0-2c2 1 6 2 6 4a2 2 0 001 1z"/><path class="h" d="M1149 528c1-1 5 3 6 4 3 3-2 2-4 0l-2-4zm0 0c3 4 2 5 6 5a5 5 0 00-1-1l-5-4z"/><path class="k" d="M1149 528c1-1 4 3 5 4 1 0 2 1 1 2-4-1-4-3-6-6z"/><path class="h" d="M1173 510c2 0 5 4 5 5 3 3-2 2-3 0l-2-5zm0 0v1c2 4 2 4 6 5a4 4 0 00-1 0c-1-2-3-6-5-6z"/><path class="k" d="M1173 510l5 5 1 2c-4-1-4-3-6-6v-1z"/><path class="h" d="M1178 539l-5-5c-3-3 2-2 3 0l2 5zm0 0v-1c-2-4-2-4-6-6a4 4 0 001 1c1 2 3 6 5 6z"/><path class="k" d="M1178 539l-5-5-1-2c4 1 4 3 6 6v1z"/><path class="e" d="M1067 438c3 3 7 9 10 10 2 1 1-3 0-5l-3-3c-5-5-3-3-6-3l-1 1zm0 0l1-1c3 0 1-2 6 3l3 2c2 3 3 8 0 6l-10-10z"/><path class="l" d="M1067 438c4 6 12 14 11 9 0-4-1-4-4-7-5-5-3-2-6-3l-1 1z"/><path class="m" d="M1078 449v-2c0-4-1-4-4-7-4-5-3-3-6-3l5 5c2 7 3 0 4 5a4 4 0 001 2z"/><path class="n" d="M1146 501l3 2 2 4c1 2 0 2-1 1a36 36 0 01-3-4s-2-1-1-2a1 1 0 010-1zm0 0a525 525 0 004 6l-1-4-3-2z"/><path class="l" d="M1146 501l3 2 1 4s1 2-1 0a10 10 0 01-1-1l-1-2-1-1v-2z"/><path class="n" d="M1151 500l-2 1c-2 1 0 1 1 1v2l1-2 1-1a2 2 0 000-1h-1zm0 0a1 1 0 001 0l-1 1v2c-1 2-2 0-2-1 0 0-2-1 0-1l2-1z"/><path class="l" d="M1151 500l-2 1c-2 0 0 1 0 1l1 1 1-1 1-1v-1a1 1 0 01-1 0z"/><path class="n" d="M1156 493l2 3 3 2h1a43 43 0 00-3-4s-1-2-3-1zm0 0a468 468 0 006 5 6 6 0 01-1 0l-3-2-2-3z"/><path class="l" d="M1156 493l2 3 3 2s3 2 1-1a12 12 0 00-2-1l-1-2a3 3 0 00-1-1h-2z"/><path class="h" d="M1145 502a21 21 0 00-2-3l-3-2a6 6 0 002 3c0 1 4 4 3 2zm0 0c1 2-2 0-3-1a6 6 0 01-2-4l3 2 2 3z"/><path class="i" d="M1145 502l-1-2-1-1a15 15 0 00-3-2v2a4 4 0 002 2l3 1z"/><path class="h" d="M1144 515a23 23 0 00-3 0c1 2 2 1 2 5 1 0 2-4 1-5zm0 0c1 1 0 9-1 4-1-2-5-6 1-4z"/><path class="k" d="M1144 515h-3l1 2c1 2 1 5 2 3v-5z"/><path class="n" d="M1110 441c-4-4-5-7-11-3-3 1-7 5-3 8l6 6 3 3c4 6 8 6 13 0 2-2 0-4-2-7a31 31 0 00-6-7zm0 0l6 7c2 3 5 5 2 8-5 5-9 5-13-1l-3-2-6-7c-4-3 0-7 3-8 5-4 7-1 11 3z"/><path class="l" d="M1110 441l-5-5c-4-2-15 7-9 10 3 1 3 5 7 7 2 1 6 12 14 3 2-2 3-3 0-6l-7-9z"/><path class="m" d="M1110 441a8 8 0 01-1-1c-5 2-3-1-1-1a12 12 0 00-3-3 3 3 0 00-2 0c-4 3-9 8-5 9 3 0 4 7 6 5 5-5 8-5 10-5a18 18 0 00-4-4zm4 17s0-2-5-1c-4 1-4-3-2-3 1-1 9-3 3-2-7 1-4-3-3-3s3-3 7-4l3 5c3 3 2 4 0 6a14 14 0 01-3 2z"/><path class="o" d="M1105 437l3 2-2 1c-1 1-1 1 1 2a4 4 0 002 0h-4c-1-2 0-3 1-4l-1-1zm2 2z"/><path class="n" d="M1094 399c-5-4-6-7-12-3-2 1-7 5-3 8l6 6 3 3c5 6 8 6 13 0 3-2 0-4-2-7a31 31 0 00-5-7zm0 0l5 7c2 3 5 5 2 8-5 5-9 5-13-1l-3-2-6-7c-4-3 0-7 3-8 6-4 7-1 12 3z"/><path class="l" d="M1094 399l-6-5c-4-2-15 7-9 10 3 1 4 5 7 7 2 1 6 12 14 3 2-2 3-3 1-6l-7-9z"/><path class="m" d="M1094 399a11 11 0 01-1-1c-6 2-4-1-2-1a12 12 0 00-3-3 3 3 0 00-2 0c-4 3-9 8-5 9 3 0 5 7 7 5 4-5 7-5 9-5a18 18 0 00-3-4zm4 17c-1 0-1-2-6-1-3 1-4-3-1-4 1 0 8-2 2-1-7 1-4-3-2-3 0 0 2-3 6-4l4 5c2 3 1 4-1 6a14 14 0 01-2 2z"/><path class="o" d="M1088 395l3 2-1 1c-2 1-2 1 0 2a5 5 0 002 0h-4c-1-2 1-3 1-4l-1-1zm2 2z"/><path class="n" d="M1118 470c-5-5-6-7-2-11 3-3 4-3 8-1l6 6c1 2-1 7-1 10 0 2-3 3-6 2l-5-6zm0 0a40 40 0 004 5c4 3 8 1 8-1l1-10-7-7c-4-2-6-1-8 2-4 4-4 6 2 11z"/><path class="l" d="M1118 470c-3-3-5-4-5-7 0-2 5-8 8-7 6 2 4 2 9 7 2 2-1 8 0 11l-3 2c-3 2-7-3-9-6z"/><path class="m" d="M1114 461c2-2 5-5 7-5 6 2 4 2 9 7a3 3 0 011 2c-1 1-3 2-1 3v1a18 18 0 000 5c-8 2-6-3-9-5-3-1-1-3-5-5l-2-3zm9-1c-3-4-5 1-2 0l2 1v-1z"/><path class="o" d="M1125 460c2 0 4 2 5 4s-2 1-2 3l1 2c-1-2-2-3-1-4s-2-5-3-5z"/><path class="n" d="M1150 548c-5-5-6-6-2-11 3-3 4-3 8-1l6 6c1 2-1 7-1 10 0 2-3 3-6 2l-5-6zm0 0a40 40 0 004 5c4 3 8 1 8-1l1-10-7-7c-4-2-6-1-8 2-4 4-4 6 2 11z"/><path class="l" d="M1150 548c-3-3-5-4-5-7 0-1 5-7 8-7 6 2 4 2 9 7 2 2-1 8 0 11l-3 3c-3 1-7-3-9-7z"/><path class="m" d="M1146 539c2-2 5-5 7-5 6 2 4 2 9 7a3 3 0 011 2c-1 1-3 2-2 4h1a17 17 0 000 5c-8 2-6-3-9-4-3-2-1-4-5-6a3 3 0 01-2-3zm9-1c-3-3-5 1-2 0l2 2v-2z"/><path class="o" d="M1157 538c2 0 4 2 5 4s-2 1-2 3l1 2c-1-2-2-3-1-4 2-2-2-5-3-5z"/><path class="n" d="M1148 483c-5-4-8-12-16-7-2 2-4 5-1 7 4 4 12 17 16 18 1 0 13-5 7-11l-6-7zm0 0a79 79 0 017 7c5 6-5 11-8 11-4 0-13-14-16-17-5-4 1-10 5-10 5 0 9 6 12 9z"/><path class="l" d="M1148 483c-1 0-6-8-9-9-6-1-13 6-8 10 3 2 13 18 16 17 4-1 12-6 8-11l-7-7z"/><path class="m" d="M1136 478c5 3 7 9 2 3 0 0-5-3-2-4v1zm12 5c-1 0-6-8-9-9a8 8 0 00-8 3 3 3 0 001 4c1 1 1-1 4 4 3 4 6 5 11 6 3 1 6 7 4 5-3-3-6-7-10-4-1 1 5 7 7 9 4-2 11-6 7-11l-7-7z"/><path class="o" d="M1138 485c3 3 3 3 7 4 2 0 6 2 6 5a6 6 0 001 1l-1-1-5-4c-4-1-5-1-8-5z"/><path class="e" d="M1147 463c4 2 5 4 8 7 2 1 11 9 10 12l-5 5c-2 4-4 1-7-2l-9-8c-4-4-8-8-3-13 3-2 3-3 6-1zm0 0c-3-2-3 0-7 2-3 5 1 8 4 12l9 8c3 2 4 5 7 2l5-5c1-2-7-10-9-11-3-3-5-6-9-8z"/><path class="k" d="M1147 463c3 1 4 3 7 6 2 2 11 10 11 12s-4 4-5 6-2 2-4 1l-12-11c-2-2-8-7-4-12l2-2c2-1 3-2 5 0z"/><path class="g" d="M1147 463c3 1 4 3 7 6 2 2 11 10 11 12s-4 4-5 6a2 2 0 01-1 2 41 41 0 01-6-4l-1-2v-1c-1-1 0-3 1-3l2 1c1 1 0 0 0 0l3 2 1 1h2c1-1-1-1-1-1a7 7 0 01-2-2l-4-3-3-1-7-5c-2-1-3-4-3-6l1-2c2-1 3-2 5 0z"/><path class="p" d="M1144 463c2-1 4 2 6 4 4 2 5 1 8 5a17 17 0 014 6v1l-2-2c-2-4-5-6-9-9l-7-5z"/><path class="e" d="M1087 464c-1 2-5 8-8 5-4-3-19-18-15-23 1-1 4-4 6-3l17 19a9 9 0 010 2zm0 0a6 6 0 001-1c-2-3-15-19-18-20-2-1-5 2-6 3-5 5 10 20 15 24 3 2 7-4 8-6z"/><path class="l" d="M1087 464c-1 2-5 8-8 5-4-3-20-19-15-23 6-5 4-6 14 5l9 11a7 7 0 010 2z"/><path class="m" d="M1087 464l-1 2a1 1 0 01-1-1c-2-3-4 3-5-4-6-3-4-4-6-9-1-2-8 1-2 3 3 1 1 1 3 3s-3 1-5-1c-1-1-2 0-2 1-4-5-6-10-4-12 4-4 5-5 9-1-1 1-1 1 1 2a2 2 0 001 0l3 4 9 11a6 6 0 010 2zm-3 4c0-1 0-3-2-3-3 0-3-3-4-2-3 4-1 3-4 2l5 4c1 2 3 1 5-1z"/><path class="o" d="M1068 444c6 0 3 1 5 3l3 2a58 58 0 016 9l-8-9-2-2c-2-2 1-1-4-3z"/><path class="h" d="M1091 483c3-2 9-6 8-10-1-3-3-2-4-5s-2-4-6-2c-7 3-7 11-1 15zm0 0l-3-2c-6-4-7-12 1-16 4-1 4 0 6 3s5 2 4 6-5 7-8 9z"/><path class="i" d="M1091 483c3-1 13-10 6-13-4-2-3-8-10-3-7 4-3 13 4 16z"/><path class="j" d="M1098 477c2-2 2-6-1-7-3-2-3-7-8-4 1 1 3 1-2 5-2 2-1-2-1-3a7 7 0 00-2 5 4 4 0 004 1c3 0 6 5 10 3z"/><path class="q" d="M1088 473a10 10 0 015 3h4l-1 1c-3 1-3 0-5-2-2 0-2 0-3-2z"/><path class="h" d="M1111 504c2-1 10-4 7-7-3-4-5-8-9-11l-5-6c-3-3-3-3-6 0-2 1-5 3-4 5l4 5c2 3 4 6 8 7l5 7zm0 0c-1 1-5-6-5-7-4-1-6-4-8-7l-5-5 6-6c3-2 3-1 6 1l5 5 8 11c3 4-5 7-7 8z"/><path class="i" d="M1111 504c3-1 10-5 7-7s-5-8-8-11l-6-6c-1-1-2-4-7 0-3 4-6 4-1 8 2 2 6 8 10 9 0 1 4 8 5 7z"/><path class="j" d="M1116 502c2-2 4-4 2-5l-8-11-6-6c-1-1-2-4-7 0l-2 2c0 1 0 3 2 3 4 1 8 9 9 9 2-1 2 0 2-2v-5c1-4 1 9 3 9 5 1 4 4 5 6z"/><path class="q" d="M1111 491v4c1 1 5 3 4 4 0-2-3-2-4-3v-5z"/><path class="h" d="M1141 525l-5 6c0 1 4 9 7 8 1-1 7-5 7-7s-6-12-9-7zm0 0c2-5 8 3 9 6s-5 7-7 8-6-5-7-7 4-6 5-7z"/><path class="i" d="M1141 525l-4 4-1 3c2 3 2 4 6 7 1 1 4-3 5-3 1-1 4-3 3-5-4-7-8-9-9-6z"/><path class="j" d="M1144 538l3-2c1-1 3-3 2-5-3-6-6-8-8-7l-2 4c-2 2 1 7 3 7 1-1 3 0 1 1l1 2z"/><path class="q" d="M1144 526l3 3a8 8 0 011 4l-1-3-3-4z"/><path class="e" d="M1165 526c-1 2-6 7-9 5-2-1-3-1-5-4l-5-5c-2-1-2-3-2-6 1-8 6-8 11-2l7 9a12 12 0 003 3c1 0 0 0 0 0zm0 0h1a15 15 0 01-3-3c-5-4-5-5-8-9-5-6-11-6-11 3 0 2 0 4 2 5l5 6c2 3 3 2 5 4 3 2 8-4 9-6z"/><path class="k" d="M1165 526c-1 2-6 8-9 6-1-2-3-1-7-6s-5-3-5-10c0-5 4-8 9-4 3 2 4 6 9 11l4 3z"/><path class="g" d="M1165 526l-6 6v-2l-5-4c-3-1-3-5-6-5-7 0 0-10 2-10 4 1 3 2 5 3 2 3 3 6 7 9l4 3z"/><path class="p" d="M1149 512c5 0 2 1 4 3l3 1a48 48 0 016 8l-8-8-2-1c-1-2 2-2-3-3z"/><path class="h" d="M1130 441c-3-1-3-1-5-4-1-1-4-6-6-5l-3 1c-1 0-5 4-5 6 1 5 5 6 8 9a70 70 0 017 9c1 1 5 5 6 4l7-7c1-2-2-6-4-7a54 54 0 00-5-6zm0 0a42 42 0 016 6c1 1 5 5 4 7l-8 7c-2 2-5-3-6-4a74 74 0 00-7-8c-4-4-7-5-8-10-1-2 3-6 5-6l3-1c2-1 5 3 6 5 2 3 2 3 5 4z"/><path class="i" d="M1130 441l-4-2-2-3c-2-3-4-6-7-3-2 1-1-1-4 2s-3 3-2 5c2 5 5 5 8 9l7 8a23 23 0 004 4c2 2 3-1 5-2l2-2c3-4 4-4 0-8l-7-8z"/><path class="j" d="M1125 437a14 14 0 00-1-1c-2-3-4-6-7-3-1 1-2 4-1 5l6 7h4l4 4c0 3 6 4 8 6 2-2 2-3-1-6l-4-5c-4 0-5-1-8-6v-1zm4 23a6 6 0 01-1-2c-1-7-5-8-10-12-1-1-5-7-3-8 3 2 1 4 5 7 4 4 3-1 10 6l6 6-1 2c-2 1-3 4-5 2z"/><path class="q" d="M1138 454c1-1 1-2-1-4-3-2-4-2-6-5a17 17 0 01-4-4l4 4 5 3c2 1 5 5 2 6z"/><path class="h" d="M1073 418c3 1 2 1 4 4 1 1 4 5 6 5l3-1c1 0 6-4 5-6-1-5-5-6-8-10a69 69 0 01-7-8c-1-1-4-5-6-4l-7 7c-1 2 2 5 4 7a52 52 0 006 6zm0 0a42 42 0 01-6-6c-2-2-5-5-4-7l7-8c2-1 5 4 6 5a75 75 0 007 8c4 4 7 5 8 10 1 2-3 6-5 6l-3 1c-2 1-5-4-6-5-2-3-1-3-4-4z"/><path class="i" d="M1073 418l3 2 2 3c2 3 4 6 7 3 2-1 2 1 4-2 3-3 3-3 2-6-2-4-5-4-8-8l-7-8a22 22 0 00-4-4c-2-2-3 1-4 2l-2 2c-4 4-4 4-1 8l8 8z"/><path class="j" d="M1077 422a16 16 0 001 1c2 3 4 6 7 3 1-2 2-4 1-5l-6-7h-3l-5-4c0-3-6-4-8-7-2 3-2 4 1 7l4 4c4 1 5 2 8 7v1zm-4-23a6 6 0 011 2c1 7 5 7 10 12 1 1 5 7 3 8-3-2-1-4-5-8-4-3-3 2-10-5l-6-6 1-2c2-1 3-4 5-2l1 1z"/><path class="q" d="M1064 405c-1 1-1 2 1 4 3 2 4 2 6 5a17 17 0 014 4l-4-4-5-4c-2-2-5-4-2-5z"/><path class="e" d="M1102 454l-7-7c-3-3-6-3-10 0-2 2-5 4-2 7l2 2c2 5 3 6 8 8 3 1 7 8 8 7 12-5 5-10 2-17a2 2 0 00-1 0zm0 0a1 1 0 011 0c4 7 10 13-2 17-1 1-6-6-9-7-5-2-5-3-8-7l-1-3c-3-2-1-5 2-8 4-2 7-3 10 0l7 8z"/><path class="k" d="M1102 454c-7-5-8-12-13-9-4 2-11 6-5 10 1 1 3 8 9 9 2 0 7 8 8 7 12-5 5-11 2-17a4 4 0 00-1 0z"/><path class="g" d="M1102 453l-1-1a29 29 0 01-9 3 20 20 0 01-4 0l4-1a19 19 0 008-2c-5-5-6-10-11-7-11 5-8 12 4 12 3 0 6-3 5 1-1 2-3 5-3 8l2 2c-1-3 6-5 8-9 0-2-4-4-3-6zm-14 9c2-2 8-3 4 2a9 9 0 01-4-2zm20 1c-1 6-7 8-7 5 0-5 4-8 6-7a10 10 0 011 2z"/><path class="p" d="M1090 445c0-3 4 2 5 2a22 22 0 002 3c1 0 4 1 4 3l-4-3-5-5h-2z"/><path class="k" d="M1082 451c5-1 6-1 11 1 4 0 4-1 6-2a6 6 0 01-5 2h-3c-4 1-1 3-5 5l4-4c-4 0-2 2-5 3v-1c2 0 2-3 5-3h3l-11-1zm17-1z"/><path class="e" d="M1138 525c0 1-3 5-4 4-4-1-10-9-13-11-3-3-9-7-5-11 3-3 1-2 7 0 2 0 7 1 9 3 3 2 8 8 8 12a5 5 0 01-2 3zm0 0l2-4c0-4-7-11-10-12l-12-4-3 3c-3 4 3 8 6 10s9 10 13 11c1 1 4-3 4-4z"/><path class="k" d="M1138 525c-1 1-3 5-4 4-3 0-7-5-9-7l-6-6c-3-2-6-6-3-9 2-2 1-3 5-1 3 1 10 2 11 4 3 3 12 11 6 15z"/><path class="g" d="M1118 505a14 14 0 013 1c3 1 10 2 11 4 3 3 9 9 8 13-2 2-3 4-9-1-4-3-2-3-6-7l-7-9v-1z"/><path class="p" d="M1124 508c5 0 14 6 14 11v1-1c-1-5-10-9-14-11z"/><path class="e" d="M1127 508c0 1-2 5-1 7 0 3-4 8-1 3l1-6c1-4 1-3-4 0l4-3 1-1zM1158 492l7-7c3-2 5 1 8 4 1 2 13 12 12 14l-4 5c-2 2-4 5-6 3l-9-10-8-9zm0 0c-1 1 7 8 8 9l9 10c2 2 4-1 5-3l5-5-11-13c-5-4-6-8-11-3l-5 5z"/><path class="k" d="M1158 492c2-2 3-5 7-7s4 0 7 3l8 9 5 6-5 5c0 2-3 5-5 3a176 176 0 00-12-13l-5-6z"/><path class="g" d="M1171 488h1l8 9 5 6a8 8 0 01-1 1l-3 1c0 3 0 3-3 4-4 1-4-2-3-3 2-3-2-3-6-4l-8-9c-1-3 0-4 1-5 4-3 5-2 5-2l4 2zm-3 2a8 8 0 012 1h1a1 1 0 010-1c0-1-7-3-3 0zm6 14s-2-2-3 0c0 0 1 2 3 1v-1z"/><path class="p" d="M1175 493c1-1 7 8 7 9l-1-1c-3-2-4-5-6-8z"/><path class="k" d="M1161 489a6 6 0 002 0c2 0 4 2 5 3l-1-1s-1-2-3-2h-3c1 0-1 0 0 0z"/><path class="e" d="M1040 429l7-7c4-2 5 2 8 4 2 2 13 13 12 14l-4 6c-1 2-4 4-6 2l-9-10c0-1-9-8-8-9zm0 0c-1 1 7 8 8 9l9 10c2 2 5-1 6-2l4-6c1-1-10-11-11-12-5-5-5-9-11-4l-5 5z"/><path class="k" d="M1040 429l7-7c3-3 4 0 7 3l8 9c1 1 6 5 5 6l-4 6c-1 1-4 4-6 2a174 174 0 00-12-13l-5-6z"/><path class="g" d="M1053 425l1 1 8 8c1 1 6 5 5 6a8 8 0 01-1 1l-2 1c-1 3-1 3-4 4-4 2-4-1-3-3 3-3-2-3-5-4l-9-9c-1-2 0-3 2-5 3-3 4-1 5-2s2 1 4 2zm-2 3a8 8 0 011 1c2 1 2 0 2-1a1 1 0 01-1-1s-7-3-2 1zm6 14c-1-1-2-3-4-1 0 0 1 3 3 1h1z"/><path class="p" d="M1057 430c1-1 7 8 8 9l-1-1-7-8z"/><path class="k" d="M1043 426a6 6 0 002 0c3 0 4 2 5 3h-1c0-1-1-3-3-3h-3c0-1 0 0 0 0zM1127 508c0 1-2 5-1 7 0 3-4 8-1 3l1-6c1-4 1-3-4 0l4-3 1-1z"/><use class="c" transform="rotate(-39 658 -122) scale(.09)" xlink:href="#c"/><path class="d" d="M388 309l-7-7-7-9c-2-3-4-6-7-7a13 13 0 00-10-2c-8 2-12 8-17 13a76 76 0 01-10 6 33 33 0 00-4 4 39 39 0 00-4 4 23 23 0 01-4 4l-6 4-8 6a3 3 0 00-1 0l-19 15-10 7-8 8a4 4 0 000 1 31 31 0 00-5 3 35 35 0 01-5 4 37 37 0 00-7 4l-5 5-6 5-4 4a7 7 0 011 1l4 7c1 2 0 6-2 7a8 8 0 012 2 22 22 0 012 3c2 4 6 5 9 7a2 2 0 011 2v1a2 2 0 011 1 10 10 0 012 4 30 30 0 001 4 12 12 0 002 3 19 19 0 005 3 5 5 0 004-3 22 22 0 017-7l9-6 20-15 19-16 39-31 20-15 10-8a8 8 0 003-5 8 8 0 00-2-6 63 63 0 00-1-2 3 3 0 00-2-3z"/><path class="e" d="M260 359c-4 3-8 4-5 8l4 5c1 2 7-3 9-5 1-1 9-6 8-8-1-1-5-7-7-7s-4 3-6 5zm0 0l3-2c1-2 4-5 6-5 3 0 6 5 7 7 2 2-7 8-8 9-2 1-8 7-10 4l-3-5c-3-4 1-5 5-8z"/><path class="f" d="M260 359c-3 2-8 4-5 8 5 4 1 10 12 1 2-1 10-7 9-9l-4-5c-2-2-2-2-5-1a8 8 0 00-3 2 42 42 0 01-4 4z"/><path class="g" d="M260 359l-6 5a3 3 0 002 2l3 3c2 0 2 2 6-1 1-1 7-4 6-6 0-2 6 2 3-4 0-2-4-5-6-6l-1 1a8 8 0 00-3 2 42 42 0 01-4 4zm7-4c1-1 1 1 1 2l-2 1 1-3zm5 3v1c-2 0 0-1 0-1zm-13 12h4c1 1-3 2-3 1l-1-1z"/><path class="h" d="M298 333l7 6s5-1 4-3l-8-9c-1 0-8 1-3 6zm0 0c-4-4 1-7 3-6 2 0 7 7 8 9 2 2-2 3-4 3-1 1-6-5-7-6z"/><path class="i" d="M298 333l4 4 3 2c2 0 3 0 4-2 1-1-3-5-3-6l-5-4c-5 1-6 3-3 6z"/><path class="j" d="M304 329l-3-2c-4 0-5 2-4 4a15 15 0 011 1l5 4c2 3 2 1 3 1a2 2 0 001-2l-1-3a22 22 0 00-2-3z"/><path class="h" d="M248 409l4 8c1 0 6 0 5-3 0-2-3-9-5-10-1 0-8-1-4 5zm0 0c-4-5 2-6 4-5 2 0 5 8 6 10 0 3-4 3-5 3-2 0-4-7-5-8z"/><path class="i" d="M248 409c1 2 1 4 3 5l2 3 5-1-3-7c0-2-2-5-3-5-5-1-7 2-4 5z"/><path class="j" d="M254 406l-2-2c-4-1-6 1-5 2a15 15 0 011 2l3 5c1 3 2 2 3 2a2 2 0 002-2l-1-3a21 21 0 00-1-4z"/><path class="e" d="M326 360c-5 5-7 4-13 8-2 3-9-12-2-13l3-2s5-4 6-3l4 6 2 4zm0 0l-2-4-4-6-3 1-6 5c-6 1 0 14 2 12 6-4 7-3 13-8z"/><path class="k" d="M326 360c-5 5-8 5-13 8-2 2-9-12-2-13l6-4c4-2 3-3 6 4 1 1 3 3 3 5z"/><path class="g" d="M311 367c-3-3-5-11 0-12l6-4c2-1 3-2 4-1a2 2 0 010 1c-4 2-1 3 0 3a3 3 0 001-1l1 2a31 31 0 013 3 5 5 0 01-3 1c-1 0-6-5-1 1-2 4-4-1-5-2-5-6-3-1-2 2 0 8-2-3-2-3-3-1-1 4-1 4 1 5 0 6-1 6z"/><path class="h" d="M351 341c-3 2-7 8-10 3l-2-4c-3-3 0-4 2-6 1-2 7-10 9-8 2 1 7 6 6 9a31 31 0 01-3 3l-2 3zm0 0l2-3 3-4c0-2-5-7-6-8-2-1-8 7-10 9-5 5-1 3 1 8 3 6 6 2 10-2z"/><path class="i" d="M351 341c-2 1-8 9-10 2-1-4-7-3-1-8 3-2 8-11 10-9 9 10 6 7 1 14a5 5 0 010 1z"/><path class="j" d="M342 333l2-3a6 6 0 012 3s4 0 2-6h-1l3-1 2 2a19 19 0 001 3c2 3 0 7-3 8-1 0-6 8-6 3-3-1-4-2-3-6-2-1 1 1 1-3z"/><path class="h" d="M374 302c-2 3-6 8-9 3-1-2 0-2-3-4-2-2 0-4 3-6 1-2 7-10 9-8s7 6 5 9a30 30 0 01-2 3l-3 3zm0 0l3-3 2-4c1-2-4-7-5-8-2-1-8 8-10 9-5 5-1 3 1 8 2 6 6 2 9-2z"/><path class="i" d="M374 302c-1 2-7 10-9 2-1-4-7-3-1-8 2-2 8-11 10-9 9 10 6 7 1 14a5 5 0 01-1 1z"/><path class="j" d="M366 294l2-3a6 6 0 011 3c0 1 5 0 2-6l3-1 1 2a18 18 0 002 4c1 2 0 6-3 7-1 0-6 9-7 3-3-1-3-2-2-5-2-2 1 0 1-4z"/><path class="e" d="M283 389c-2-8-2-9-11-3-6 4-4 4-1 9l3 1c3 1 8-5 9-7zm0 0c-1 2-7 8-9 8s-3-1-3-2c-3-5-5-5 1-10 8-5 9-4 11 4z"/><path class="l" d="M283 389c-1-4-1-10-8-6-10 7-7 6-4 13l3 1c1 0 9-6 9-8z"/><path class="m" d="M281 384c0-2-2-3-6-1-9 6-8 7-5 11a1 1 0 001 0c5-4 4 0 7-4 2-2 1-3 1-3 2 1 3-1 2-3zm-5 1c1-1 2 0 1 1-6 4-6 2-1-1z"/><path class="e" d="M386 308c-2-7-2-9-10-3-6 4-4 5-2 9 1 2 1 2 4 2 2 0 8-6 8-8zm0 0c0 3-7 8-8 8-3 0-3 0-4-2-2-4-5-5 2-9 8-6 9-5 10 3z"/><path class="l" d="M386 308c-1-4-1-10-7-5-10 6-7 6-4 12l3 1c1 1 8-6 8-8z"/><path class="m" d="M385 303c-1-2-2-3-6 0-9 5-8 6-5 10 6-4 4 0 8-4 2-2 0-3 1-3 2 1 2-1 2-3zm-5 1s2 0 1 1c-7 4-6 2-1-1z"/><path class="e" d="M324 351c3-2 10-6 11-9 1-2-4-3-6-1l-3 3c-5 4-3 2-3 6l1 1zm0 0l-1-1c0-3-3-2 3-6l3-3c2-2 8-2 6 1s-7 7-11 9z"/><path class="k" d="M324 351c6-3 16-11 10-11-5 0-5 1-8 4-6 4-3 3-3 6l1 1z"/><path class="g" d="M336 341l-2-1c-5 0-5 1-8 4-6 4-3 3-3 6l5-5c9-1 0-3 5-4a4 4 0 003 0z"/><path class="h" d="M268 373c-2 3-6 2-3 6l2 4c2 2 6-2 7-2 3-2 6-3 3-7l-5-6-4 5zm0 0c1-1 3-6 4-5l5 6c3 4 1 5-3 7-1 1-5 5-7 2l-2-4c-3-4 1-3 3-6z"/><path class="j" d="M268 373c-2 3-6 2-2 7 1 1 0 8 7 1 2-1 10-2 2-10-2-2-3-6-6 1l-1 1z"/><path class="i" d="M268 373c-1 3-5 2-3 5a6 6 0 010 1l1 1 1 3c2 0 7-6 10-5v-4a18 18 0 00-2-3 3 3 0 00-3 2c-1 1-2 0-4-1a5 5 0 000 1z"/><path class="e" d="M273 402c-5 5-7 4-12 8-2 2-9-12-3-13 2 0 2-1 3-2s6-4 7-3l4 6 1 4zm0 0l-2-4-3-6-4 1c-2 1-4 4-6 4-5 1 1 14 3 13 5-4 7-3 12-8z"/><path class="l" d="M273 402c-4 5-8 4-12 8-2 2-9-13-2-13l5-4c4-2 3-3 7 4l2 5z"/><path class="m" d="M256 403c-1-3 0-6 3-6l5-4c3-1 3-3 5 1a7 7 0 01-1 1c-2 1-3 4-3 5v4c0 1-4 2-5 0l-4-1zm15-7a16 16 0 00-3 2c-2 2 0 2 0 4 0 1 2 2 4-1a13 13 0 001-1l-2-3z"/><path class="n" d="M358 316c-1 1-9 7-11 7l-6-4c-3-6 5-11 9-13 2-2 9-7 11-5l4 5c0 1-4 4-4 6l-3 4zm0 0l3-4 4-6a56 56 0 00-4-5c-3-4-16 7-18 9-6 6-3 11 4 13 1 1 10-6 11-7z"/><path class="l" d="M358 316s-10 8-11 7c0 0-14-4-2-14 3-2 14-11 16-8 4 6 5 3 0 10l-3 5z"/><path class="m" d="M345 322c-3-2-8-5-2-12h2a3 3 0 002-3c4-3 10-8 13-7-1 2 7 2-2 11-3 4-2 1-3 0-1-5-1 2-1 3-2 6-6-1-7 4 0 3-1 4-2 4z"/><path class="e" d="M328 357c4-1 13-5 15-9 1-2-6-4-9-2l-4 2c-6 4-3 3-4 8l2 1zm0 0l-2-1c0-5-3-4 4-8l4-2c3-2 11 0 8 3s-10 7-14 8z"/><path class="k" d="M328 357c8-2 20-9 12-11-6-2-6 0-10 2-7 4-3 3-4 8l2 1z"/><path class="g" d="M340 346c-5-2-6 0-10 2l-2 1a2 2 0 010 1 2 2 0 00-1 4c4 2 4-6 10-6 2 2-3 4-4 4 1 2 8-4 8-4l-1-2z"/><path class="e" d="M359 294c4-2 11-6 9-9-1-3-11-4-13-3l-3 3c-4 4-1 3 3 7 1 2 2 2 4 2zm0 0l-4-1c-5-5-7-4-3-8l2-3c3-2 14 0 15 3s-6 7-10 9z"/><path class="k" d="M359 294c7-3 15-10 4-12-10-2-8 0-11 3-5 4-1 3 3 8l4 1z"/><path class="g" d="M362 282c-9-1-7 0-10 3a15 15 0 00-1 1l1 1c-1 2 3 4 3 4 7 2-1-6 5-7 5 3 1 4 0 5 4 2 6-5 6-5l-4-2z"/><path class="h" d="M314 333l-4 1c-2 0 0 1 1 1v2l2-2 1-1a3 3 0 001-2l-1 1zm0 0a1 1 0 000-1c2-1 1 1 0 2l-2 3c-1 2-1-1-2-1 0-1-3-2 0-3h4z"/><path class="i" d="M314 333l-4 1c-3 0 1 1 1 1 0 1 0 3 1 2s-1-1 1-2l1-1c1 0 2-3 0-2a1 1 0 010 1z"/><path class="h" d="M314 334a3 3 0 011 2c0 3 2 6-2 5-1-1-3 0-3-3s1 2 3-2l1-2zm0 0a3 3 0 000 2c-1 0-2 3-3 2 0 0-1 2 1 2s4 2 3-2l-1-4zm0 0z"/><path class="i" d="M314 334l-1 2s-1 3-2 2c0-1-2 3 1 2 1 0 5 2 3-2a22 22 0 01-1-4z"/><path class="h" d="M290 351l5-4c4-3 2 2 0 3l-5 2v-1zm0 0v1c4-2 5-2 7-6a4 4 0 00-1 1l-6 4z"/><path class="k" d="M290 351l5-4 2-1c-1 5-3 4-7 6v-1z"/><path class="h" d="M256 407c2 0 3 5 4 6 2 4-2 1-3-1l-1-5zm0 0c1 5 1 5 4 7a4 4 0 000-1c-1-1-2-5-4-6z"/><path class="k" d="M256 407l4 6v2c-4-2-3-4-4-8z"/><path class="h" d="M336 334c2-1 2-1 3 1 0 2-4 2-7 4-2 1-5 2 0-2l4-3zm0 0a21 21 0 01-4 3c-6 3-2 4 0 2l5-2c3-1 1-6-1-3z"/><path class="k" d="M336 334c1-1 2-2 3 0 1 3-4 2-7 5-2 1-5 1 0-2a18 18 0 004-3z"/><path class="h" d="M336 342a21 21 0 00-1 2h5a2 2 0 001 0l-5-2zm0 0c1-1 8 4 3 3-2-1-7 1-3-3z"/><path class="k" d="M336 342s-2 2-1 3l2-1c2 0 5 2 3 0 0 0-3-3-4-2z"/><path class="h" d="M387 310a21 21 0 00-2 2h6c0-1-3-3-4-2zm0 0c1-2 8 3 3 2-3 0-8 2-3-2z"/><path class="k" d="M387 310l-2 2h3c2 0 4 2 3-1 0 0-3-2-4-1z"/><path class="h" d="M340 354l2 2 2-2c1 0 4-6 2-6l-6 4a6 6 0 000 2zm0 0c0-3 2-3 5-5s0 3-1 4l-2 2-2-1z"/><path class="i" d="M340 354l2 1c3-1 2-1 3-3 1-1 3-5 0-3-2 1-6 2-5 5z"/><path class="e" d="M258 395l6-6 6-3c1 1-10 9-12 10s-2 1 0-1zm0 0c-1 2-2 2 0 1 3-1 12-9 12-10l-4 2a22 22 0 00-2 2l-6 4z"/><path class="l" d="M258 395l6-6a18 18 0 004-2c2-2 4-2-1 2-1 1-7 7-9 7 0 0-2 1-1-1h1z"/><path class="h" d="M281 379a23 23 0 00-3 1c2 1 2 0 4 3a2 2 0 001 1l-2-5zm0 0c2 0 4 8 1 4-2-2-7-4-1-4z"/><path class="k" d="M281 379l-3 1 2 1c2 1 3 4 3 2l-2-4z"/><path class="h" d="M286 391a21 21 0 003-1c-1-2-2 0-5-4l2 5zm0 0c-1 1-5-10-1-5 2 3 9 5 1 5z"/><path class="k" d="M286 391l4-1-3-1c-2-2-3-6-3-3l2 5z"/><path class="n" d="M264 375l1-4 4-3c2-1 2-2 1 0a51 51 0 01-3 5s-1 3-3 2zm0 0c2 1 3-2 3-2l3-6a7 7 0 00-1 1l-4 3-1 4z"/><path class="l" d="M264 375l1-4 4-3s3-3 0 1a12 12 0 01-1 2l-1 2a3 3 0 01-1 1c0 1-1 2-2 1z"/><path class="e" d="M272 384l4-3c1-1 2 1 0 2h-2l-3 2 1-1zm0 0h-1c-1 2 4-2 5-2l1-1h-1l-4 3z"/><path class="k" d="M272 384l4-3c1 0 3 0 0 1l-2 1-2 2c-1 1-2-1 0-1z"/><path class="e" d="M263 410l4-2c2-1 2 0 0 1l-2 1s-4 3-4 1h1a1 1 0 011-1zm0 0l-1 1c-1 2 4-2 4-2l2-1h-1l-4 2z"/><path class="k" d="M263 410l4-2c0-1 2 0 0 1l-2 1a21 21 0 00-2 1c-2 2-2 0-1 0a3 3 0 001-1z"/><path class="h" d="M252 400a44 44 0 003 4v-6l-2 1-1 1zm3-2zm-3 2c-1-1 1-1 2-2h2c-2 3 0 3 0 6 0 2-4-4-4-4z"/><path class="i" d="M252 400l2 2 1 2v-6h-1l-2 2z"/><path class="h" d="M300 363c0-1 0-2 2-2h2a9 9 0 002-1c1-1 2 2 2 3h-6-2zm0 0l4-1h3l-1-2a8 8 0 01-2 1h-2l-2 2zm7-1"/><path class="i" d="M300 363l2-2h2l1-1c1-1 2 2 2 2 1 2-2 0-3 0a10 10 0 00-4 1z"/><path class="h" d="M300 361l4-2h-1c-2-1-2-2-3 1zm0 0a3 3 0 010-2c1-1 1-2 2-1h4c1 1-1 1-1 1-1 2-4 2-5 2z"/><path class="i" d="M300 361l4-1 2-1-2-1c-1 1-3-1-3 1l-1 2z"/><path class="e" d="M273 366l1 2v-3a3 3 0 000-1l-1 2zm0 0v-1c2-3 1 0 1 0l1 4c-1 0-4-3-2-3z"/><path class="k" d="M273 366l1 2v-3c0-1 1-2-1 0v1z"/><path class="e" d="M260 375l2 2v-3a3 3 0 000-1l-2 2zm2 2l-2-2 1-1c2-3 1 1 1 1v3l-2-3z"/><path class="k" d="M260 375l2 2v-2c0-2 1-3-1-1l-1 1z"/><path class="h" d="M279 376c1 0 0 3 3 2 2-1-3-3-3-3a3 3 0 000 1zm0-1v1a1 1 0 010-1l3 1a1 1 0 010 2c-3 1-2-2-3-2z"/><path class="i" d="M279 376c1 0-1 3 3 2v-2l-3-1v1z"/><path class="e" d="M318 349v-4c0-2 1-2 2-2l2 1v3c0 2-2 2-3 2 1 0-1 2-1 0zm0 0l1-1h2l1-4h-2c-2-1-2-1-2 1v4z"/><path class="k" d="M318 349v-4c0-2 1-2 2-1h2l-1 3c1 2-2 2-2 2h-1z"/><path class="e" d="M312 371c3 0 4 3 4 0 0-2 2-3 0-3l-3 1c-2 1-1 2-1 2zm0 0s-1-1 1-2l3-2c3 0 0 3 0 4 0 3-1 0-4 0z"/><path class="k" d="M312 371c3 0 5 3 4 0 0-2 2-3 0-3-1-1 0 1-3 1-2 0-1 2-1 2z"/><path class="e" d="M327 359l2-1c4-3 6-2 4-1l-3 2c-2 1-3 2-3 0zm0 0l1 1 3-2 2-2a18 18 0 00-3 2l-3 1z"/><path class="k" d="M327 359c-1-1 1 0 2-1l4-2a7 7 0 00-2 2l-3 2c-1 1-1 0-1-1z"/><path class="h" d="M357 335l2-2 2-1a10 10 0 002-1c1-1 3 3 2 4-1 0-2-2-5-1l-3 1zm0 0c1 1 3-1 5-1h3s-1-3-2-2a9 9 0 01-2 1h-2l-2 2zm8-1"/><path class="i" d="M357 335c0-2 1-1 2-2h2l2-1c1-1 2 1 2 2h-3a10 10 0 00-4 1h-1z"/><path class="h" d="M366 307l2 2-2 3s-7 5-6 2l4-6a7 7 0 012-1zm0 0c-3 1-3 4-5 6-2 4 3 0 4-1l2-2-1-3z"/><path class="i" d="M366 307l1 3-4 3c0 1-4 3-2 0 1-1 2-6 5-6z"/><path class="h" d="M370 326l5-5c3-3 1 2-1 3 0 0-3 3-4 2zm0 0c4-2 5-2 6-6a5 5 0 00-1 1l-5 5z"/><path class="k" d="M370 326l5-5 1-1c-1 4-2 4-6 6 0 1 0 0 0 0z"/><path class="h" d="M354 301l5-5c3-3 2 2 0 3-1 1-4 3-5 2zm0 0c4-2 5-1 7-5a4 4 0 00-1 0c-2 1-6 3-6 5z"/><path class="k" d="M354 301l5-5h2c-1 4-3 3-7 5z"/><path class="h" d="M383 298l-6 5c-3 2-1-2 1-3 1-1 4-3 5-2zm0 0h-1c-4 2-5 1-6 5a4 4 0 001 0c1-1 6-3 6-5z"/><path class="k" d="M383 298l-6 5h-1c1-4 3-3 6-5h1z"/><path class="e" d="M275 402l11-9c1-2-4-2-6 0l-3 3c-5 4-2 2-3 5l1 1zm0 0l-1-1c0-3-2-1 3-6l3-2c3-2 8-3 6 0s-7 7-11 9z"/><path class="l" d="M275 402c6-4 15-11 10-11l-8 4c-5 5-2 3-3 6l1 1z"/><path class="m" d="M286 392l-1-1-8 4c-5 4-2 3-3 6l6-5c7-1 0-2 4-3a5 5 0 002-1z"/><path class="n" d="M343 327c1-1 2-1 2-3l4-1c1-1 2 0 1 1a36 36 0 01-4 3h-2a1 1 0 01-1 0zm0 0h3l4-4a5 5 0 00-1 0l-3 2-3 2z"/><path class="l" d="M343 327l2-2c1-2 3-1 4-2 0 0 3-1 0 1a12 12 0 01-1 2l-2 1h-1-2z"/><path class="n" d="M343 322v3c1 1 1-1 1-1h2l-2-1-1-1a2 2 0 00-1-1l1 1zm0 0a1 1 0 00-1 0h2l2 1c1 1-1 1-1 1l-2 1v-3z"/><path class="l" d="M343 322v3c1 1 2-1 2-1s2 0 1-1l-2-1h-1-1a1 1 0 011 0z"/><path class="n" d="M336 317l3-2 2-3v-1a42 42 0 00-4 3s-2 1-1 2a1 1 0 000 1zm0 0c-1-2 1-3 1-3l5-3a6 6 0 01-1 1l-2 3c-2 0-2 1-3 2z"/><path class="l" d="M336 317l3-2 2-3s2-3-1 0a11 11 0 00-1 1l-2 1a3 3 0 00-1 1v2z"/><path class="h" d="M344 329a21 21 0 00-3 1l-2 3a6 6 0 003-1c1-1 4-4 2-3zm0 0l-2 3a6 6 0 01-3 1l2-3a9 9 0 013-1z"/><path class="i" d="M344 329h-2l-1 1a15 15 0 00-2 3h1a4 4 0 002-1l2-3z"/><path class="h" d="M357 331a27 27 0 000 2l5-2h-5zm0 0c1-2 9 0 4 1-3 0-7 4-4-1z"/><path class="k" d="M357 331l-1 3 3-1c2-2 5-1 3-2h-5z"/><path class="n" d="M281 359c-5 4-8 5-4 11 1 3 5 8 8 4l7-6 3-3c5-4 6-7 1-12-3-3-5-1-8 1a31 31 0 00-7 5zm0 0l7-5c3-2 5-4 8-2 5 6 5 10-1 14l-3 2-7 6c-3 4-7-1-8-3-4-6-1-8 4-12z"/><path class="l" d="M281 359l-5 5c-2 4 6 15 9 10 1-3 6-3 8-7 0-1 11-5 3-14-1-2-2-3-5 0l-10 6z"/><path class="m" d="M281 359a11 11 0 01-1 1c2 5-1 3-2 2a12 12 0 00-2 2 3 3 0 00-1 2c3 4 8 10 9 6 0-3 7-4 5-6-4-5-4-8-4-10a18 18 0 00-4 3zm18-3c-1 1-3 1-2 5 0 4-4 5-4 2 0-1-1-8-1-2 1 6-3 3-3 1 0 0-3-2-4-6l6-3c3-3 4-2 5 0a14 14 0 013 3z"/><path class="o" d="M276 365l2-3 1 1h3a5 5 0 000-2c1 1 0 3-1 4s-2-1-3-2a6 6 0 01-2 2zm3-2z"/><path class="n" d="M238 373c-5 4-8 5-4 12 1 2 5 7 8 3l7-6 3-3c5-4 6-7 1-12-3-3-5 0-8 1a31 31 0 00-7 5zm0 0l7-5c3-2 5-4 8-1 5 5 5 9-1 13l-3 3c-2 2-5 2-7 5-3 4-7-1-8-3-4-6-1-8 4-12z"/><path class="l" d="M238 373l-5 5c-2 4 6 15 9 10 1-3 6-3 8-7 1-1 11-5 3-14-1-1-2-3-5 0l-10 6z"/><path class="m" d="M238 373a11 11 0 01-1 1c2 5-1 3-2 2a12 12 0 00-2 2 3 3 0 00-1 2c3 4 8 10 9 6 0-3 7-4 5-6-4-5-4-8-4-10a18 18 0 00-4 3zm18-3c-1 1-3 1-2 5 0 4-4 5-4 2 0-1-1-8-1-2 1 6-3 3-3 2s-3-3-4-7l6-3c3-3 4-1 5 0a14 14 0 013 3z"/><path class="o" d="M233 379l2-3 1 1h3a5 5 0 000-2c1 1 0 3-1 4s-2-1-3-2a6 6 0 01-2 2zm3-2z"/><path class="n" d="M311 354c-6 4-8 5-12 0-2-2-3-3-1-7l7-6c2-1 7 1 10 1 2 0 3 4 1 6l-5 6zm0 0a40 40 0 005-4c3-4 1-8-1-8l-10-2-7 7c-2 4-2 5 1 8 4 4 6 4 12-1z"/><path class="l" d="M311 354c-4 3-5 4-8 4-2 0-7-6-6-8 2-6 2-4 7-9 3-2 8 1 11 1 1 0 2 1 2 3 1 3-3 6-6 9z"/><path class="m" d="M301 357c-2-2-5-5-4-7 2-6 2-4 7-9a3 3 0 012-1c1 1 2 3 4 2v-1a17 17 0 005 1c2 8-3 5-5 8s-4 1-6 5l-3 2zm-1-9c-3 2 1 5 1 2l1-2h-2z"/><path class="o" d="M300 346c1-2 3-5 5-5s1 2 3 2l2-1c-2 2-3 2-5 1s-4 2-5 3z"/><path class="n" d="M391 327c-6 4-8 5-12 1-2-3-3-4-1-8l7-6c2-1 7 1 10 1 2 0 3 4 1 7l-5 5zm0 0a41 41 0 005-4c3-4 1-8-1-8-3 0-7-2-10-1l-7 6c-2 4-2 5 1 8 4 5 6 4 12-1z"/><path class="l" d="M391 327c-4 3-5 4-8 4-1 0-7-6-6-8 2-6 2-4 7-9 3-2 8 1 11 1 1 0 2 1 2 3 1 3-3 6-6 9z"/><path class="m" d="M381 330c-2-2-5-5-4-7 2-6 2-4 7-9a3 3 0 012 0c1 0 2 2 4 1v-1a17 17 0 005 1c2 8-3 5-5 8s-4 2-6 5l-3 2zm-1-9c-3 2 1 5 1 2l1-2h-2z"/><path class="o" d="M380 319l5-5c2-1 1 2 3 2h2c-2 1-3 2-5 0-1-1-4 2-5 3z"/><path class="n" d="M325 325c-4 4-13 7-8 14 2 3 5 5 8 2s17-11 18-14c0-2-4-14-10-8l-8 6zm0 0a79 79 0 018-7c6-5 10 6 10 8 0 4-15 12-18 16-4 4-10-2-10-7 1-5 7-8 10-10z"/><path class="l" d="M325 325s-8 5-9 8c-2 6 5 13 9 9 2-4 19-12 18-16s-5-12-10-8l-8 7z"/><path class="m" d="M319 336c3-5 10-7 3-2 0 0-3 5-3 2 0-1 0 0 0 0zm6-11s-8 5-9 8a8 8 0 002 8 3 3 0 004-1c1-1-1-1 4-4s5-6 7-10c1-4 7-5 5-4-3 3-7 6-4 10 1 1 7-5 9-7-1-4-5-11-10-7l-8 7z"/><path class="o" d="M327 334l4-6c0-3 2-6 5-6a5 5 0 001-1l-1 1-4 5c-1 4-1 5-5 7z"/><path class="e" d="M305 324c2-4 4-5 7-8 2-1 11-10 13-9l5 6c4 2 0 4-2 6l-9 9c-5 3-8 8-13 2-2-3-3-3-1-6zm0 0c-2 3 0 3 2 7 5 4 8 0 12-3l9-9c2-2 5-4 2-6l-5-6c-2 0-10 7-11 8l-9 9z"/><path class="k" d="M305 324l6-6c2-2 11-11 14-11 2 0 3 5 5 6s2 2 1 3l-12 12c-2 1-7 7-12 3l-2-2c-1-2-2-3 0-5z"/><path class="g" d="M305 324l6-6c2-2 11-11 14-11 2 0 3 5 5 6a3 3 0 012 1 39 39 0 01-5 5l-1 1-1 1c-2 0-4-1-3-2v-2c0-1 0 0 0 0l3-2 1-2v-1h-1a7 7 0 01-2 2l-3 4-2 3c0 2-3 5-5 6s-4 3-6 3l-2-1c-1-2-2-3 0-5z"/><path class="p" d="M305 328c0-3 3-5 4-7 2-3 2-4 6-7a17 17 0 017-3v-1l-2 2c-4 2-7 4-9 8-3 4-5 4-6 8z"/><path class="e" d="M302 384c2 1 8 6 5 8-3 4-20 18-24 14-1-1-4-4-3-6 1-3 18-15 21-17a10 10 0 011 1zm0 0a5 5 0 00-1-1c-3 2-20 14-21 17-1 2 2 5 3 6 4 5 21-9 24-13 3-3-3-8-5-9z"/><path class="l" d="M302 384c2 1 8 6 5 9s-20 18-24 13c-5-6-5-5 6-14l12-9a6 6 0 011 1z"/><path class="m" d="M302 384l2 1a1 1 0 010 1c-4 2 2 4-5 5-3 5-4 4-9 5-3 1 0 8 2 2 1-3 2-1 4-3 2-1 0 3-2 5-1 1 0 2 1 2-5 4-10 6-12 4-4-5-5-5 0-9l2-2 4-3 12-9a6 6 0 011 1zm4 4c-1-1-3-1-3 1 0 3-3 3-2 4 4 3 3 1 1 4l5-4c2-2 1-4-1-5z"/><path class="o" d="M281 401c1-5 2-2 3-4l3-3a57 57 0 019-6l-10 8-1 2c-3 2-2-1-4 3z"/><path class="h" d="M321 381c-1-3-5-9-9-8-3 0-2 2-5 4s-4 1-3 5c3 7 11 8 16 2zm0 0l-1 3c-5 6-13 6-16-2-1-4 0-4 3-6s2-5 6-4 7 6 8 9z"/><path class="i" d="M321 381c-1-3-9-13-12-6-2 3-8 1-4 9 4 7 13 4 16-3z"/><path class="j" d="M316 374c-2-2-5-3-7 1-2 3-7 2-5 7 2-1 1-3 6 2 2 3-2 1-4 1a7 7 0 005 3 4 4 0 002-4c-1-4 5-6 3-10z"/><path class="q" d="M312 384a10 10 0 013-5v-4l1 1-2 5-2 3z"/><path class="h" d="M344 362c-1-2-4-10-7-7l-12 8-5 5c-2 3-4 2-1 6 1 2 3 5 5 5l5-4c3-3 6-4 8-8 0 0 7-3 7-5zm0 0l-7 5c-2 4-5 6-8 8-2 1-4 4-6 4s-5-5-5-6c-2-3 0-4 1-6l6-4 12-8c3-3 6 5 7 7z"/><path class="i" d="M344 362c-1-2-4-10-7-7l-12 8c-3 2-3 1-5 5-2 1-5 2-1 7 3 4 3 6 8 2 2-2 9-6 10-10l7-5z"/><path class="j" d="M342 358c-1-3-3-5-5-3l-12 8c-3 2-3 1-5 5-2 1-5 2-1 7l2 2 3-1c1-4 9-8 9-9 0-2 1-2-2-2h-5c-4-2 10-1 10-3 1-5 4-3 6-4z"/><path class="q" d="M330 362h5c1-1 3-5 4-4v1c-2 0-2 2-4 3h-5z"/><path class="h" d="M367 334l6 5s8-3 7-6c0-2-4-8-6-7-1 0-12 5-7 8zm0 0c-5-2 3-8 7-9 3-1 6 6 7 8s-5 5-8 6c-2 1-5-4-6-5z"/><path class="i" d="M367 334l3 4c1 0 2 2 3 1l8-5c1-1-3-5-3-6s-3-3-5-2c-7 3-9 6-6 8z"/><path class="j" d="M380 332l-2-3c-1-1-3-4-5-3-6 3-8 6-7 8l4 3c1 2 7-1 6-4 0 0 0-2 2 0l2-1z"/><path class="q" d="M368 331l3-3a8 8 0 014-1l-3 1-4 3z"/><path class="e" d="M369 310c2 1 7 7 5 9s-1 3-4 5l-6 5-6 1c-8-1-7-7-1-10l10-8a12 12 0 002-2zm0 0a15 15 0 01-3 2c-4 5-5 4-10 7-6 4-6 10 2 11 3 1 5 1 6-1l6-4 4-6c3-2-3-8-5-9z"/><path class="k" d="M369 310c2 1 8 7 5 9-1 1 0 3-6 7s-3 5-10 4c-5 0-8-4-4-9 3-3 7-3 12-8l3-3z"/><path class="g" d="M369 310c1 1 5 4 5 7l-1-1-4 5c-2 2-6 3-6 6-1 6-10-1-9-3 1-4 2-3 3-5l9-6 3-3z"/><path class="p" d="M354 325c1-5 2-2 3-4l2-2a47 47 0 018-6l-8 7-2 2c-2 1-1-1-3 3z"/><path class="h" d="M283 340c-2 3-2 2-5 4-2 1-6 4-6 6l1 3c0 1 4 6 6 5 5-1 6-4 10-7a70 70 0 019-7c1-1 5-4 4-5l-7-8c-1-1-5 2-6 3a53 53 0 00-6 6zm0 0a41 41 0 016-6c1-1 5-4 7-3l7 7c1 2-4 6-5 7a75 75 0 00-9 6c-4 3-5 7-10 8-2 0-6-4-6-6l-1-3c0-2 4-5 6-6 3-2 3-1 5-4z"/><path class="i" d="M283 340l-3 3-4 2c-2 2-5 4-3 7 1 2-1 1 2 4s3 3 5 2c5-1 6-4 9-7l9-7a22 22 0 004-4c2-1-1-3-2-4l-2-2c-3-4-3-4-8-1l-7 7z"/><path class="j" d="M278 344a15 15 0 00-2 1c-2 2-5 4-3 7 2 1 4 2 5 1 3-2 6-2 7-5v-4l5-4c3 0 5-5 7-8-2-2-3-2-7 1l-4 4c-1 3-2 5-7 7h-1zm23-2a6 6 0 01-2 0c-7 1-8 5-12 10-1 1-8 5-9 3 2-3 4-1 8-5 3-4-2-3 6-9 2-2 4-6 7-7l1 2c1 1 4 3 2 4z"/><path class="q" d="M296 333c-2-2-2-2-4 0l-5 6a17 17 0 01-5 4l4-4 4-5c2-1 5-5 6-1z"/><path class="h" d="M255 395c1-3 1-2 4-4 2-1 6-3 6-6l-1-3c0-2-3-5-5-5-5 1-7 4-10 8a69 69 0 01-9 6c-1 1-6 4-5 6l7 7c2 1 5-2 7-3a53 53 0 006-6zm0 0a41 41 0 01-6 6c-2 1-5 5-7 3l-7-7c-1-2 3-5 5-6a75 75 0 009-7c3-3 4-6 10-7 2-1 5 3 5 5l1 3c1 3-4 5-6 6l-4 4z"/><path class="i" d="M255 395l3-3 3-2c3-2 6-3 4-7l-3-4c-2-3-2-3-5-2-4 2-5 5-8 7l-9 7a22 22 0 00-5 4c-1 2 1 3 2 4l2 2c3 4 4 5 8 1l8-7z"/><path class="j" d="M260 391a15 15 0 001-1c3-2 6-3 4-7-2-1-4-2-5-1-3 2-6 2-8 6v3c-1 1-2 4-4 4-3 1-5 6-8 8 3 2 3 2 7-1l5-3c1-4 1-6 7-8zm-24 3a6 6 0 012-1c7-1 8-5 13-10 1-1 8-4 9-2-3 3-4 0-8 5-4 3 1 3-7 9l-6 6-2-2c-1-1-3-2-2-4l1-1z"/><path class="q" d="M242 403c1 1 2 1 4-1l5-6a17 17 0 014-3l-3 4-4 5c-1 2-5 4-6 1z"/><path class="e" d="M293 368c-3 4-4 4-8 7s-3 5 0 9c2 3 4 6 7 3l3-1c4-3 6-3 7-8 2-3 9-6 8-8-4-12-10-5-17-2zm0 0c7-4 14-10 18 2 0 2-7 6-8 8-2 5-4 6-8 8-3 1-1 0-2 2-4 2-6 0-8-4-3-4-3-6 0-9l8-7z"/><path class="k" d="M293 368c-5 7-12 7-10 13 2 4 6 11 10 6 1-1 8-3 10-9 0-2 8-6 8-8-5-12-11-5-17-3a4 4 0 00-1 1z"/><path class="g" d="M293 369l-1 1a29 29 0 012 8 20 20 0 010 4l-1-4a19 19 0 00-2-7c-5 4-10 5-8 10 5 11 12 8 12-3 1-3-2-7 2-5l7 3 3-2c-3 1-5-6-8-8-2-1-4 4-6 2zm7 14c-2-3-2-8 2-4a9 9 0 01-2 4zm3-20c6 1 7 7 4 7-5 0-7-4-7-6a10 10 0 013-1z"/><path class="p" d="M283 380c-2-1 3-5 3-5a21 21 0 003-2c0-1 1-4 3-3l-3 3-5 5-1 2z"/><path class="k" d="M289 388l1-11c1-3 0-3-1-6a6 6 0 012 5v3c0 4 3 2 4 6-2-4-3-2-4-4 0 3 3 2 3 5-1-3-4-3-3-6l-1-3-1 11zm0-17z"/><path class="e" d="M367 337s4 3 4 5l-13 11c-2 3-7 9-11 5-2-3-2-2 0-7 1-2 2-7 4-9 3-3 9-8 13-7a5 5 0 013 2zm0 0l-4-2c-4 0-12 5-13 9l-5 12 3 3c4 3 8-3 10-6l13-11c0-2-4-5-4-5z"/><path class="k" d="M367 337c0 1 4 3 4 5l-8 7-7 7c-2 2-6 5-9 2-2-2-3-1-1-6 2-2 3-9 5-10 3-3 11-11 16-5z"/><path class="g" d="M345 356a14 14 0 012-4c1-2 2-9 4-10 3-3 9-9 14-7 2 2 3 3-2 9l-7 5-10 7z"/><path class="p" d="M348 350c1-5 8-14 12-14h2l-1 1c-5 1-10 9-13 13z"/><path class="e" d="M349 347s5 2 7 1c3 0 7 5 3 1l-7-1c-3-1-2-1 0 4l-2-4-1-1zM334 315l-6-7c-2-4 2-5 5-8 2-2 13-12 14-11l6 4c1 2 4 4 2 6l-11 9c-1 0-9 8-10 7zm0 0c1 1 9-7 10-8l10-8c2-2 0-4-2-5l-5-5c-1-1-11 9-13 10-5 5-9 5-4 11 2 2 3 2 4 5z"/><path class="k" d="M334 315c-1-3-4-4-6-7s1-4 4-7l9-8c1-1 5-5 6-4 2 1 4 4 6 4 1 1 4 4 1 6a175 175 0 00-13 12c-1 0-6 5-7 4z"/><path class="g" d="M331 302l1-1 9-8c1-1 5-5 6-4a8 8 0 012 1v3c3 0 3 0 4 3 1 4-2 4-3 3-3-3-4 2-4 5l-10 8c-3 1-4 0-5-2-3-3-1-4-2-5s2-2 2-4zm3 3a8 8 0 011-2v-1a1 1 0 01-2 0s-3 7 1 3zm14-6c0 1-2 2-1 3s3 0 2-2l-1-1z"/><path class="p" d="M337 298c-1-1 8-6 9-7l-1 1c-2 3-5 4-8 6z"/><path class="k" d="M332 312a6 6 0 000-2c0-3 2-4 3-5v1c-1 0-3 1-3 3v3z"/><path class="e" d="M264 428l-6-7c-2-4 2-5 5-8 2-1 13-12 14-11l6 5c1 1 4 4 1 6l-10 8c-1 1-9 9-10 7zm0 0c1 1 9-6 10-7l10-9c2-1 0-4-2-5l-5-5-13 11c-5 4-9 4-4 10l4 5z"/><path class="k" d="M264 428c-1-2-4-3-6-7s1-4 4-7l9-7c1-1 5-6 6-5l5 5c2 1 5 4 2 6a175 175 0 00-13 11c-1 1-6 5-7 4z"/><path class="g" d="M261 415l1-1 9-7 6-5a8 8 0 012 1v3c3 1 3 0 4 3 1 4-2 5-3 4-3-3-4 2-4 5l-10 7c-3 2-4 0-5-1-3-4-1-5-2-6s1-2 2-3zm3 3a8 8 0 011-2v-1a1 1 0 01-2 0s-3 7 1 3zm14-5s-3 2-1 3c0 0 3-1 2-3h-1z"/><path class="p" d="M267 412c-1-1 8-7 9-7l-1 1c-2 3-5 3-8 6z"/><path class="k" d="M262 425a6 6 0 000-2c0-2 2-4 3-4l-3 3v3zM349 347s5 2 7 1c3 0 7 5 3 1l-7-1c-3-1-2-1 0 4l-2-4-2-1h1z"/><path d="M32 679c1-4 9-3 20-2h28l23 2 44 1c7 0 14 2 21 0 1 0 5-1 7 1s2 6 2 7c-1 15 2 30 1 45-1 9-4 32-2 53 1 10-2 21 0 31l-1 7c-3 3-11 1-15 0-7-2-19-2-42-2-19 0-18 2-31 1-14-2-15-5-25-5-16 1-24 8-29 4-3-2-3-7-3-12l2-42c2-19-1-15 1-40 1-13 2-24 0-32l-2-13 1-4z" fill="#ffe161"/><path class="s" d="M102 823a2 2 0 01-2-1v-1-2l-1-4a3 3 0 010-1v-5l1 1a6 6 0 000-2 2 2 0 001 0 2 2 0 001 0h-3a4 4 0 010-1l1-3v-1l1-3a30 30 0 00-1-3l-1-1a2 2 0 011-2v-3l-1-3a3 3 0 012-3 4 4 0 010-1 42 42 0 01-2-6l-1-4-1-6 4 3-1-1v-2a5 5 0 010-1v-6l1-3v-1-1-3l-1-5a1 1 0 010-1 2 2 0 011-1l-1-3v-1a1 1 0 010-1v-2-1-1a1 1 0 011-1v-3a2 2 0 01-1-2 10 10 0 00-1-4l2-1v-1a2 2 0 00-1 1l1-1v-5-4a24 24 0 010-3h-1v-1-3-3a3 3 0 011-2l-1-1-5 3 5-6v-6a20 20 0 010-4v-1a28 28 0 000-4 57 57 0 010-6 16 16 0 00-1-3l4-1a19 19 0 011 5v5a29 29 0 010 3 1 1 0 010 1 1 1 0 010 1 13 13 0 000 3v1a14 14 0 000 3 7 7 0 01-1 4 14 14 0 011 2l1 4v1h-1v3a15 15 0 001 5l1 3-2-1a8 8 0 001 1v1a2 2 0 01-1 2 10 10 0 001 4h-1l1 5a29 29 0 01-1 5 14 14 0 000 3 29 29 0 010 5h1v5h-1l1 6v1a2 2 0 010 1l-1 5v11l-1 3v1a62 62 0 001 6 2 2 0 011 1v4l-1-1a2 2 0 01-1 1l1 2v13a5 5 0 010 1 2 2 0 01-1 2v1l1 3a17 17 0 010 5h-1l1 3v3a2 2 0 01-2 2zm0-36h-1a2 2 0 001 0 2 2 0 001 0 1 1 0 00-1 0zm-2 0h1a2 2 0 01-1-1 2 2 0 000 1zm4-75a1 1 0 000-1zm-4-18a1 1 0 000 1 2 2 0 010-1z"/><path class="s" d="M90 824a21 21 0 01-1-3 2 2 0 012-1l-1-1 1-4c-2-4-2-6-1-8a12 12 0 010-4v-2a1 1 0 010-1v-3-2a2 2 0 01-1-3 2 2 0 011-1l-1-6v-1a8 8 0 011-3 3 3 0 01-1-1 6 6 0 010-1 1 1 0 011 0v-5-2a2 2 0 010-1v-7a4 4 0 011-2l-1-3h-1v-1l2-2v-1c-2-5-2-9-1-11v-4l-1-5v-3a1 1 0 010-1 7 7 0 010-1v-8a2 2 0 010-1 2 2 0 011 0v-2a17 17 0 000-3 11 11 0 01-1-5 4 4 0 01-1-1l1-1v-2-3a8 8 0 010-2 2 2 0 012-3l-2-8v-2a2 2 0 012-1l-1-5-1-1v-3l3-2 1 3c1 5 2 9 1 11v7l1 2 4 9-5-5v-1h-1a31 31 0 000 3v3a4 4 0 010 2 11 11 0 000 4l1 4v2a6 6 0 010 2v7l-1-2v1a4 4 0 011 2h-1v7-1 2a2 2 0 001 1h1a1 1 0 01-1 2v5l-1 1a18 18 0 002 5v11-2a7 7 0 010 2l-1 4v6l-1 6h1a4 4 0 01-1 1 6 6 0 000 3 3 3 0 010 1l1 7v2l1 1h-1a3 3 0 010 1l-1 2a22 22 0 010 5l1 5 5 7-6-4 2 6h-1l1 5-2 1zm1-60zm1 0zm-3-33h1l-1-1a2 2 0 000 1zM82 822a2 2 0 01-1-1l-1 1-1-2a1 1 0 011-1v-1-3a3 3 0 010-2l-2-6v-1h1a1 1 0 010-1v-2l-1-2v-1a1 1 0 011 0 15 15 0 010-5v-1a28 28 0 001-4 1 1 0 010-1v-1-3-1l-1 1v-1l1-2a30 30 0 00-1-6 2 2 0 010-1v-1h-1v-7l1 1v-1-5a16 16 0 00-1-6v-1h1v-1a12 12 0 010-2l1-3a11 11 0 00-1-4v-1a2 2 0 010-1l-1-2a2 2 0 011-2v-1a2 2 0 010-2v-3a5 5 0 010-3v-1l-1-3a4 4 0 011-1 6 6 0 000-3 3 3 0 010-2 7 7 0 000-5 5 5 0 010-2 14 14 0 000-2h1v-4-1a35 35 0 00-2-9l-5-9 5 4a2 2 0 011-2 27 27 0 010-8v-9h1l1 2 2 1 1 1h-1v1l1 2-1 3h-1a24 24 0 000 6 4 4 0 011 2 13 13 0 011 3v9l-1-1 1 4v1l2 4-2-1a5 5 0 011 2h-1l-1 1a2 2 0 010 1 9 9 0 01-1 6 3 3 0 000 1h1a8 8 0 01-1 4 2 2 0 000 1v2l1 2 2 7h-1v-1h-1v1l1 2h-1v1l-1 2v1a13 13 0 011 7 18 18 0 000 2v1a15 15 0 001 2 2 2 0 010 1h-2v1a18 18 0 010 2v2a2 2 0 011 0v2a41 41 0 01-1 7v1l1 1a3 3 0 010 2 36 36 0 011 4v10a1 1 0 010 2 29 29 0 01-1 4 3 3 0 011 1v1a4 4 0 01-1 1l-1 3v1l1 1v6l1 7h-1l1 4v2l-1 1zm-3-130v-1a2 2 0 000 1zm3-14a2 2 0 001-1z"/><path class="s" d="M71 820a3 3 0 01-3-1v-1h2a3 3 0 010-1v-1a16 16 0 010-3 21 21 0 01-1-5v-4a2 2 0 010-1 12 12 0 010-6v-4a1 1 0 010-1v-3a3 3 0 010-1v-1a21 21 0 010-4l-1-2-1-4h1v-1l-1-1h3l-1-3v-1a2 2 0 010-1v-3l1-1a5 5 0 010-2v-2-3-1-2 1l-1-6a4 4 0 01-1-2l-1-5 1-1 2 3v-1-2l-1-4v-10a5 5 0 01-1-2v-1-1l-1-2h2a8 8 0 000-3l2-1h-2v-1l-1-1a2 2 0 011-1v-2l-1-1a1 1 0 011-1v-1-3a2 2 0 010-2h1v-1-1a25 25 0 000-6l-1-2a2 2 0 010-2h1a10 10 0 010-1 4 4 0 000-3l-1-3a2 2 0 011 0 17 17 0 01-1-4v-2a3 3 0 01-1-1 16 16 0 010-2l-1-3v-1l4 2a3 3 0 010 1h2a13 13 0 010 2 4 4 0 010 1v2l1 5a2 2 0 01-1 1v1a6 6 0 010 4 3 3 0 001 2v1h-1v1a27 27 0 011 6v2h-1v2a2 2 0 010 1h-1l1 2a30 30 0 010 4v5h-1v5a14 14 0 010 3 19 19 0 011 5v1h-1l1 2a23 23 0 010 5v1a31 31 0 002 5v2h-2v1a40 40 0 011 9v1l1 4h-1a10 10 0 010 2h-1a6 6 0 001 2v1l-1 1a2 2 0 010 1v1a38 38 0 001 5l2 7-3-3v4a14 14 0 001 4h-1v4a17 17 0 010 4v1a12 12 0 000 6h1l-1 1a2 2 0 01-1 2 20 20 0 002 6 3 3 0 010 1 39 39 0 000 5v1h-1a2 2 0 01-2 1zm0-6a2 2 0 001 0 2 2 0 001-1zm0-49a2 2 0 001 0 3 3 0 001 0zm1-59h1zM60 818h-3a3 3 0 012-3 16 16 0 010-2 6 6 0 00-1-3l4-1a2 2 0 00-2-1 2 2 0 00-1 1 4 4 0 000-1h-2l1-2v-1l1-5a14 14 0 010-3l-1-3a33 33 0 010-6 5 5 0 000-1 2 2 0 002 0 2 2 0 002-1h-4a11 11 0 000-3l1-2a16 16 0 00-1-4 2 2 0 010-2v-1a11 11 0 01-1-3l2-1a22 22 0 00-1-5 2 2 0 010-1 7 7 0 010-1l-1-2a1 1 0 011-2v-4 1a6 6 0 010-2 2 2 0 001-1 1 1 0 01-1-1v-1l1-5h-1v-1a4 4 0 011-3 16 16 0 00-1-5 21 21 0 01-1-3h2a10 10 0 010-2 21 21 0 00-1-6h-1l1-2v-2a5 5 0 011-2 15 15 0 01-1-2 13 13 0 011-4 3 3 0 010-3 21 21 0 000-4 1 1 0 010-1l-2-5 2 1a10 10 0 010-3v-2-2a7 7 0 010-3 3 3 0 010-1 32 32 0 010-5v-2l-1-3a49 49 0 010-5h1a7 7 0 000-1l4-1-1 4v4l1 3v11l1 4h-2l1 4v2a11 11 0 010 3v6a2 2 0 01-1 1 18 18 0 000 3 4 4 0 011 1h1l-1 1a2 2 0 01-1 1v4a23 23 0 011 5v2c0 1 1 4-1 5a32 32 0 010 7 4 4 0 000 1h1l-1 1v4a4 4 0 010 4 5 5 0 000 3 4 4 0 01-1 4v1h1a20 20 0 011 6v4a3 3 0 01-1 1 3 3 0 01-1 2 16 16 0 011 4v5a4 4 0 010 2 13 13 0 010 2 2 2 0 010 1v4a1 1 0 011 1v2a10 10 0 000 3l2 6-3-3-1 2v1a2 2 0 011 0v4a8 8 0 010 3 13 13 0 001 3l1 7zm0-67a2 2 0 00-1 0h2a3 3 0 00-1 0zm1-76zM52 816a2 2 0 01-1 1v6a3 3 0 01-2 0 2 2 0 01-2-2h1a9 9 0 00-1-4l-4-10v-1 1l4 5h1a2 2 0 011-2l-1-2a14 14 0 00-1-5l1-1h1l-1-1a2 2 0 00-1 1 7 7 0 010-3l-4 1 6-4a10 10 0 001-3 36 36 0 00-2-5 3 3 0 010-1 11 11 0 010-1v-1h1v-1h-1a3 3 0 011 0 12 12 0 000-4l-1-2v-3c-1-2 0-4 1-5v-3-2l-1-1a6 6 0 010-1v-3-2a1 1 0 010-1 4 4 0 010-3 2 2 0 010-2 2 2 0 011 0l-1-2v-4-3a2 2 0 010-2v-3a3 3 0 010-1v-1a2 2 0 011-2v-1-6-4a1 1 0 01-1 0v-1-1l-1-3h1l1-1a2 2 0 00-1 1v-1a3 3 0 011-1 6 6 0 010-4 14 14 0 00-1-3l-2-2v-1h3a39 39 0 00-1-6 1 1 0 010-1v-1h1l-1-6-1-1a1 1 0 011-1v-1a5 5 0 011-2 2 2 0 000-2 4 4 0 010-2l-1-3v-1a2 2 0 003-1h-3v-1a2 2 0 011-1 2 2 0 012 2 63 63 0 011 3l1 3a4 4 0 01-1 3v5h-1l1 5v11a16 16 0 010 3l1 3a2 2 0 01-1 1 5 5 0 000 1l-1 1a1 1 0 001 0h-1a2 2 0 010 1l1 3a34 34 0 011 4l-1 4v1h1v5a1 1 0 01-1 1v1l2 8-2-2a1 1 0 010 1v5a50 50 0 001 5v1h-2v1a1 1 0 000-1 1 1 0 000 1l1 4v3a2 2 0 010 1v6h1a1 1 0 01-2 2 7 7 0 000 3 24 24 0 011 2v3a13 13 0 010 3 2 2 0 010 1 18 18 0 010 2 5 5 0 010 1l1 4v3a8 8 0 01-1 2v1a11 11 0 01-1 3l-1 2a16 16 0 012 5 23 23 0 001 5l4 9h-1l-4-5zm-3 5a2 2 0 00-1 0h2a2 2 0 00-1 0zm0-37a2 2 0 001 1 2 2 0 002-1z"/><path class="s" d="M41 815a2 2 0 01-2-1l-1-3h1l-1-5-1-2a5 5 0 010-1h1v-1a4 4 0 01-1 0v-1a3 3 0 011-1 13 13 0 00-1-6h-1l4-1a2 2 0 00-1-1 2 2 0 00-1 1 5 5 0 000-1 6 6 0 011 0v-1c-2-2-1-3-1-3a11 11 0 000-3 13 13 0 010-2h1v-1-2a3 3 0 01-1-1v-2l-1-5v-1h1v-1a1 1 0 000 1v-1l-1-2v-5l-1-1-1-5 3 2-1-5v-4l-2-2v-1l2 1 1-1a2 2 0 010-1 4 4 0 011-1v-4-1a98 98 0 01-1-5 2 2 0 010-1v-5a14 14 0 010-2 18 18 0 00-1-6l-3-8h1l3 3a1 1 0 010-1 26 26 0 000-3 3 3 0 01-1-2l-1-3h1l1 1 1-1-1-1a20 20 0 00-1-7v-1h1v-2a29 29 0 010-4v-3-1-2a6 6 0 010-3 8 8 0 010-4 6 6 0 000-2c0-3-1-5 1-5a3 3 0 013 1v3a1 1 0 010 1 9 9 0 010 2 6 6 0 000 4l4 6v1h-1l-3-3a12 12 0 010 3v5a77 77 0 000 5 2 2 0 010 2 19 19 0 010 3 9 9 0 001 3v1h-1v1l-1 1a20 20 0 011 2v4a2 2 0 01-1 1h1a5 5 0 000 2 3 3 0 01-1 2 19 19 0 011 4 9 9 0 001 4l-1 1h1-2a17 17 0 001 3v1a65 65 0 002 6l2 5-1 1-2-2-1 1a5 5 0 010 1 4 4 0 01-1 3 8 8 0 011 3 2 2 0 01-1 1l1 7a1 1 0 010 2 3 3 0 01-1 2v4l1 3h-1v1l1 5h1v3l-1 3v1a12 12 0 01-1 4 11 11 0 001 2h1v1h-1v1a7 7 0 01-1 1 15 15 0 011 4v4a6 6 0 010 2 2 2 0 01-1 0l1 1 1 5v2a1 1 0 010 1 2 2 0 01-2 2zm-2-12a2 2 0 00-1 0h1zm1-14h1zm-2 1a2 2 0 001 0v-1h-1v1zm2-7l1-1h-1zm0-5h1a3 3 0 00-1 0zm-1-43a3 3 0 001 0 2 2 0 001 0zm2-18a2 2 0 00-2 0 2 2 0 001 0 2 2 0 001 0zm-2-41a2 2 0 00-1 1h1zm3-1h-1zM164 827a21 21 0 010-3 2 2 0 011-2v-12a12 12 0 01-1-4l1-2a1 1 0 01-1-1v-3l1-2a2 2 0 01-2-3 2 2 0 012-1l-1-6-1-1h1a8 8 0 010-3 3 3 0 010-1 7 7 0 010-1l1-5-1-2a2 2 0 010-1v-7h1a4 4 0 011-2l-1-3h-1v-1l1-2a2 2 0 011 0v-1c-2-5-2-9-2-11l1-4-1-5v-3a2 2 0 01-1-1h1a7 7 0 010-1v-8a2 2 0 010-1l1-2a16 16 0 000-3h-1a11 11 0 01-1-5 3 3 0 010-1v-1a2 2 0 011 0v-2-3a9 9 0 010-2 2 2 0 011-3l-1-8v-1a2 2 0 011-2l-1-5a2 2 0 000-1v-2l3-3v3c2 5 2 9 2 12v8l4 9-5-5v-1h-1a29 29 0 000 4v3a4 4 0 010 1 11 11 0 001 4v6a6 6 0 010 2v7l-1-2v1a4 4 0 011 2h-1v4l1 3v-1 2a2 2 0 001 1 1 1 0 010 2 2 2 0 01-1 0v6a18 18 0 001 5l1 11-1-2a7 7 0 010 2l-1 4v13a6 6 0 000 3 2 2 0 010 1v7l1 2v1a2 2 0 01-1 1v2a22 22 0 010 5l1 6 4 7-5-4 2 5-2 1 1 4-1 1v1zm1-60h1a2 2 0 00-1 0zm2 0h-1a3 3 0 001 0zm-3-33v-1a2 2 0 000 1zM155 823a2 2 0 01-1 0h-1a13 13 0 01-1-1 1 1 0 011-2v-3a3 3 0 010-2l-2-7h1a1 1 0 010-1v-3-1l-1-1a1 1 0 011-1 15 15 0 011-5 30 30 0 000-5 1 1 0 010-1v-1-3h-2l2-2a29 29 0 00-1-7 2 2 0 010-1v-1-1l-1-6 1 2v-6l-1-7 1-1a14 14 0 010-2l1-3a11 11 0 00-1-5 2 2 0 010-2 18 18 0 01-1-1 2 2 0 011-2v-2a2 2 0 011-1 30 30 0 01-1-3 5 5 0 010-3v-2 1l-1-3a4 4 0 011-1 6 6 0 000-3v-3a7 7 0 000-4 5 5 0 010-2 11 11 0 000-2l1-1c0-1-1-3 1-4h-1l-2-10-5-10 5 6a2 2 0 011-3 26 26 0 010-7v-2l1-8 1 3a3 3 0 011 0l2 1v4l-1 2a25 25 0 000 7 4 4 0 011 1 13 13 0 010 4v10l-1-2 1 3v2l2 4-2-1a5 5 0 011 2h-1a2 2 0 01-1 1 2 2 0 000 1 9 9 0 010 6l-1 1h1a8 8 0 01-1 4 2 2 0 000 1l1 1v3l2 8-2-3 1 4h-1v3a13 13 0 011 8 19 19 0 000 2h-1a15 15 0 001 3 3 3 0 010 1h-2a18 18 0 010 3l1 1a2 2 0 010 1v2a44 44 0 01-1 7v1l1 2a3 3 0 010 1 33 33 0 010 3l1 5v6a1 1 0 01-1 1 30 30 0 010 4 3 3 0 011 1v1a4 4 0 01-1 1l-1 4v2l1 5v1l1 6-1 1a38 38 0 001 4l-1 2zm-4-130h1a2 2 0 00-1 0zm4-14v1a2 2 0 001-1z"/><path class="s" d="M144 826a3 3 0 01-3-1l1-1a3 3 0 011-1v-1a16 16 0 010-3 21 21 0 01-2-5l1-4a2 2 0 010-1 12 12 0 010-6v-3a1 1 0 010-2v-3a3 3 0 010-1 20 20 0 010-5l-1-2-1-4h1v-1l-1-1h3l-1-4a2 2 0 010-1v-3a5 5 0 011-3v-5-3 1l-1-6a4 4 0 01-1-2l-1-6 2 3a3 3 0 011 0l-1-3v-4-9l-1-1a4 4 0 01-1-2v-1h1a21 21 0 00-1-3h1a7 7 0 000-3h2v-1h-1a1 1 0 00-1 1v-2-1a2 2 0 011-1l-1-2v-1a1 1 0 011-1v-1-3a2 2 0 010-2 3 3 0 011-1v-1a26 26 0 000-6l-1-2a2 2 0 010-2 7 7 0 011-1 4 4 0 000-3l-1-2a2 2 0 011-1 16 16 0 01-1-4v-2a3 3 0 01-1-1 16 16 0 01-1-2l-1-4 4 3a3 3 0 011 1l2-1a10 10 0 010 2 4 4 0 01-1 2v1l2 5v1a2 2 0 01-1 1 6 6 0 010 4 3 3 0 001 3h-1v1a27 27 0 010 7v1a4 4 0 010 1v2a2 2 0 01-1 1v2a28 28 0 011 3l-1 2 1 3h-1v1l-1 5a17 17 0 011 2v2l1 3-1 1v2a22 22 0 011 6 31 31 0 001 5l2 2h-4v1a3 3 0 010 1 40 40 0 012 9l1 5-1-1a11 11 0 010 2h-1a6 6 0 000 3l1 1h-1a2 2 0 010 1v1a38 38 0 001 6l2 7-3-4v5a14 14 0 001 4h-1v3a17 17 0 010 4 1 1 0 000 1 11 11 0 000 6 7 7 0 011 1h-1v1a2 2 0 01-1 1 20 20 0 001 6 3 3 0 011 1h-1a37 37 0 001 5v1h-1a2 2 0 01-2 1zm0-6a3 3 0 001 0 2 2 0 001-1zm-1-49a2 2 0 001 1 3 3 0 002-1zm2-59a2 2 0 001 0zM133 823l-3 1a3 3 0 012-3 15 15 0 010-3 6 6 0 00-1-3l4-1a2 2 0 00-2 0 2 2 0 00-1 1 4 4 0 000-2l-2 1 1-2v-1l1-6a15 15 0 010-2v-1l-1-3a34 34 0 010-6h1a5 5 0 00-1-1 2 2 0 002 1 2 2 0 002-1h-4a11 11 0 000-3l1-2a16 16 0 00-1-5 2 2 0 010-2v-1a12 12 0 01-1-3h3a22 22 0 00-1-5 2 2 0 01-1-1v-1l-1-2v-1a1 1 0 011-1v-4a6 6 0 011-1 2 2 0 000-1 1 1 0 01-1-1v-1l1-5v-1a4 4 0 010-3 16 16 0 00-1-6 21 21 0 01-1-2l2-1a10 10 0 010-2 21 21 0 00-1-5 1 1 0 010-1l-1 1 1-3a14 14 0 000-1 5 5 0 011-3 15 15 0 01-1-1 13 13 0 011-4v-1a3 3 0 010-2 21 21 0 000-5l-2-6 2 2a10 10 0 010-4v-1-2a7 7 0 010-3 4 4 0 010-1 35 35 0 010-6v-1l-1-3a47 47 0 010-6h1a7 7 0 000-1h4l-1 3v5l1 3v10l1 5h-2a41 41 0 001 5 11 11 0 010 4v5a2 2 0 01-1 2 16 16 0 000 3 4 4 0 011 0l1 1h-1a2 2 0 01-1 2v1a3 3 0 010 2 23 23 0 011 6v2s1 4-1 5a32 32 0 010 7l1 1h-1v5a4 4 0 010 3 5 5 0 000 3 4 4 0 01-1 5l1 1a19 19 0 011 5v4a3 3 0 01-1 2 3 3 0 01-1 1 16 16 0 011 4v5a11 11 0 010 1 4 4 0 010 2 13 13 0 010 2 2 2 0 010 1v4a1 1 0 011 1v2a10 10 0 000 3l2 5-3-3-1 3a2 2 0 011 1v3a8 8 0 010 3 12 12 0 001 4l1 7zm0-67a3 3 0 00-1 1h2a3 3 0 00-1 0zm1-75z"/><path class="s" d="M125 814h-1a3 3 0 010 1v6a3 3 0 01-3 0 2 2 0 01-1-2h1a8 8 0 00-1-4l-5-11 5 7a2 2 0 011-3v-2a14 14 0 00-2-5h2v-1a2 2 0 00-2 1v-1l1-3-6 2 7-5a10 10 0 001-3 36 36 0 00-1-5 13 13 0 01-1-2h1a9 9 0 000-1 3 3 0 010-1 12 12 0 000-4v-2l-1-2v-1l2-5-1-3v-2a6 6 0 010-2v-3-2a1 1 0 01-1 0 4 4 0 011-3 2 2 0 010-3 2 2 0 011 0l-1-2v-3-4-2-2a3 3 0 010-2 2 2 0 011-2v-2-6-3a1 1 0 01-1-1v-2l-1-3h2a4 4 0 010-1 2 2 0 00-1 1 3 3 0 011-2 5 5 0 010-3 14 14 0 00-1-4l-3-3 4 1a37 37 0 00-1-6 1 1 0 010-2v-1h1l-2-6v-1a1 1 0 011-1 5 5 0 011-3 2 2 0 000-2 4 4 0 010-2l-1-3v-2a2 2 0 002 1 2 2 0 001-1h-3a2 2 0 011-1 2 2 0 012 1 63 63 0 011 4l1 2a4 4 0 01-1 4l1 4h-1a1 1 0 01-1 0l1 5v12a15 15 0 011 2v4a2 2 0 01-1 0 3 3 0 001 2h-2v1a1 1 0 001-1v1a2 2 0 01-1 1l1 2a34 34 0 011 5l-1 4v1l1-1v6a1 1 0 01-1 1l2 10-2-4a2 2 0 010 1v6a50 50 0 001 5l-2 1v1l1 3v3a2 2 0 010 1v6a2 2 0 010 1l-1 1a7 7 0 000 3 24 24 0 011 3v2a13 13 0 010 4 16 16 0 010 2 4 4 0 010 2l1 3v4a8 8 0 01-1 2 10 10 0 01-1 3l-1 3a16 16 0 011 4 23 23 0 002 5l4 11zm-3 5a2 2 0 00-1 0h2a2 2 0 00-1 0zm-1-36a2 2 0 002 0 2 2 0 002 0z"/><path class="s" d="M114 822a2 2 0 01-3-2v-3h1l-1-5-1-2a4 4 0 010-1h1a4 4 0 01-1-1l-1-1h1a3 3 0 011-1 13 13 0 00-2-6l4-1a2 2 0 00-2 0 5 5 0 000-1v-4a11 11 0 000-3 13 13 0 010-2h1v-3a3 3 0 01-1-1v-2l-1-5v-1h-1 1v-1a153 153 0 01-1-8l-2-5 4 3-1-7v-3l-3-3 3 1 1-1a2 2 0 010-1v-1a4 4 0 010-1l1-4a65 65 0 01-2-5 2 2 0 011-2v-4a14 14 0 010-2 17 17 0 00-1-6l-3-9 4 5a5 5 0 010-1 1 1 0 010-1 24 24 0 000-3 3 3 0 01-1-2l-1-4 2 2a13 13 0 010-2 20 20 0 00-1-7l1-1v-2a31 31 0 010-4v-3-3-3a8 8 0 010-4 5 5 0 000-2c-1-3-1-4 1-5a3 3 0 013 1 1 1 0 010 1v2c0 1 0 0 0 0a1 1 0 010 1 9 9 0 010 2 6 6 0 000 4l4 8-4-4a13 13 0 010 3l-1 2v2h1v6a2 2 0 010 2 19 19 0 010 4 9 9 0 000 2l1 1h-1v1a8 8 0 01-1 1 19 19 0 011 2v4a2 2 0 01-1 1h1a5 5 0 000 2 3 3 0 01-1 2 19 19 0 011 4 9 9 0 001 5h-2a17 17 0 001 3l-1 1a68 68 0 002 6l3 6-3-2v1h-1a6 6 0 010 1l-1 3a8 8 0 010 3 2 2 0 010 1l1 7a1 1 0 01-1 2 3 3 0 01-1 2l1 2v3l1 3h-1l1 5h1l-1 4v3a12 12 0 01-1 4 10 10 0 001 2l1 1h-1v1a6 6 0 01-1 1 15 15 0 011 4l-1 4a6 6 0 010 2v2l1 4v2h1a1 1 0 01-1 1v1a2 2 0 01-1 2zm-3-13zm2-14v1a2 2 0 001-1zm-3 0a1 1 0 002 1v-1zm3-6zm0-5h1a2 2 0 00-1 0zm-1-43a3 3 0 001 0zm1-18a2 2 0 00-1 0 3 3 0 001 0 2 2 0 001 0 3 3 0 00-1 0zm-1-41a2 2 0 00-1 1h1zm2-1z"/><path class="t" d="M154 424l-1-2 1-1 3-2 1-1 2 2-6 4z"/><path class="u" d="M173 409l-1-2 1-1 3-2 2-1 1 2-6 4zM196 392l-1-2 1-1 3-2 1-1 2 2-6 4z"/><path class="t" d="M232 395l2-1 1 1 2 3 1 1-2 2-4-6z"/><path stroke-width="1.3" stroke="#1d150c" fill="#3f2b0f" stroke-miterlimit="10" d="M248 417l2-2 1 1 3 3 1 2-3 2-4-6z"/><path class="u" d="M264 439l3-2 1 1 2 3 1 2-2 2-5-6z"/><path class="t" d="M184 505l-2 1-1-1-2-3-1-2 2-1 4 6z"/><path class="u" d="M170 485l-3 1-1-1-2-2-1-2 2-2 5 6zM153 462l-3 2-1-2-2-2-1-2 3-2 4 6z"/><path stroke-width="1.4" stroke="#1d150c" fill="#3f2b0f" stroke-miterlimit="10" d="M262 473l2 3-1 1-3 2-2 2-2-3 6-5z"/><path class="u" d="M241 489l2 2-2 1-2 2-2 2-2-3 6-4zM220 504l1 3-1 1-3 2-1 1-2-2 6-5z"/><path class="x" d="M197 519l1 2h1l2-2 2-1 1-1 1-1v-1l-3-4-5 3v5z"/><path class="x" d="M202 512l1 1 1 1 1 1 1 1 3-2 3-3 1-1v-1l-3-3a14 14 0 00-1 0l-7 5zM217 501l1 1 1 1 1 1h1l3-1 1-1 2-2 1-1v-1l-3-4-7 5-1 2z"/><path class="x" d="M210 506l1 2 2 2h1l2-2 1-1 2-1v-1l1-1-3-4-7 4v2zM240 484l1 2 1 1 1 1 1-1 5-3v-2l-2-2v-1l-7 2v3z"/><path class="x" d="M231 491l3 3h2l1-1 1-1 3-2v-1l1-1v-1l-1-1-1-3-7 4-2 4z"/><path class="x" d="M225 495l1 2 1 2h1l2-1h1l2-1 1-2a10 10 0 000-1l-3-3-3 1zM252 475l2 3h2l1-1h2l2-2 1-1 1-2-1-1v-1l-2-2-7 4-1 3z"/><path class="x" d="M260 469l2 3h3l1-1 2-2 4-2 1-1 1-2v-1l-1-1-1-3-9 6-3 4zM246 479v2l2 2h1l2-1 2-1 2-1v-1a12 12 0 00-1-1l-2-3-3 1z"/><path class="y" d="M279 460v1l-2 1-1 1-1 1-1-1-1-1-1-1-1-1 1-2z"/><path class="x" d="M200 507l2 2 1 2h1l2-2 1-1 2-1 1-1v-1l-3-4-7 4v2z"/><path class="x" d="M207 502l1 1 1 1 1 1 1 1 3-2 3-3v-1l1-1-3-3a14 14 0 00-2 0l-6 5zM233 483v2l1 2h1l2-1 7-5v-1h1l-3-2v-2l-9 4v3z"/><path class="x" d="M221 490l4 4 1 1 1-1 1-1 2-1 3-2 1-1 1-2-1-2-2-2-8 5-3 2zM214 495l1 3 2 2h1l2-1 1-1 2-1 2-2a8 8 0 00-1-1l-3-4-3 3zM199 513h2l1-1 1-1v-1l-3-4-1 1v6zM248 471v2l1 1 1 1h2l2-2h1l3-2v-1l1-2-3-4-8 6v1z"/><path class="x" d="M256 465l1 2 1 2h1l1-1 3-1v-1l2-1 2-1v-1l1-1-4-5-7 5-1 3zM240 477l2 2 2 2 2-2 2-1 1-1 1-1v-2l-3-3-6 3-1 3z"/><path class="x" d="M272 459l-1 1-1 1-1 1-1 1-1-1-1-1-1-1-1-1 1-1zM201 500l1 2 2 2h1l2-2 1-1 1-1 1-1v-2l-2-3-7 4v2z"/><path class="x" d="M208 495l1 1 1 1v1l1 1 3-3 3-2 1-1v-2l-2-2a15 15 0 00-2-1l-7 5zM233 476l1 2 1 1 1 1 2-1 5-4v-1l1-1-3-2v-1l-7 3-1 3z"/><path class="x" d="M223 484l2 3h2l1-1 2-1 3-2 1-1 1-2v-1l-1-1-1-3-8 5-2 4z"/><path class="x" d="M215 489a13 13 0 011 2l1 1 1 1 2-2h1l2-1 2-2 1-1a8 8 0 00-1 0l-2-3-4 1zM257 458l2 2 1 2v1l-2 1-1 1a5 5 0 00-1 0l-1 1h-1a5 5 0 01-1 0l-2-3 2-4zM243 473l1 1 3-2 2-1 2-2 2-1v-2l-3-3-5 2-4 4 1 2 1 2z"/><path class="x" d="M264 457l1 2-1 1-2 1h-3l-2-3 1-2 6 1zM199 506h2l1-1 1-1 1-1v-1l-3-3h-1l-1 7zM200 497l2 2h1l2-2 1-1 2-1v-1l1-1-3-4-5 3-1 5z"/><path class="x" d="M206 490l1 1 1 1 1 1v1l4-2 3-3v-1l1-1-3-3a14 14 0 00-2-1l-6 6zM221 479l1 1v1l1 1h2l2-1 2-1 2-2v-1l1-1-3-4-7 5-1 2z"/><path class="x" d="M214 484l1 2 2 2 3-2 1-1 1-1 1-1v-1l-3-4-6 4v2zM258 457l-1 1-2 2-1 1h-1l-1-1-1-2-1-1v-2l8 1z"/><path class="x" d="M244 462l1 2 1 1v1l2-1 4-3v-1l1-1-2-2-1-1-6 2v3z"/><path class="x" d="M235 469l2 3h2l1-1 2-1 2-2 1-1 1-1v-1l-1-1-2-3-7 4-1 4z"/><path class="x" d="M229 473l1 2 1 2h1l2-1h1l1-1 2-2a10 10 0 00-1-1l-2-3-3 1zM211 479l1 2 1 1 1 1h1l3-2h1l2-2 1-1v-1l-3-4-7 5-1 1z"/><path class="x" d="M219 473l2 2 1 2h2l2-2 1-1 1-1 2-1 1-1v-1l-3-5-7 5-2 3z"/><path class="x" d="M228 467l2 2 1 2 1-1 2-1 2-1 1-1 1-1v-2l-3-4-6 4-1 3zM204 485l2 2 1 2h1l2-2 1-1 2-1v-1l1-2-3-3-7 4v2z"/><path class="x" d="M235 461l1 1 1 2 1 1h1l3-2 3-2 1-1v-2l-3-2a14 14 0 00-2-1l-6 5z"/><path class="x" d="M250 456v1h-1l-1 2h-2l-1-1-2-2-1-1 1-1zM202 491l1 1 1-1 1-1h2v-2l-3-4h-1l-1 7zM203 484h1l2-1 2-2v-1l-2-4h-2l-1 8z"/><path class="x" d="M206 477l1 1v1l1 2 1-1 2-1h1l2-1v-2l1-1-3-4-6 4v2z"/><path class="x" d="M212 472l1 2 1 2h1l1-1 3-1v-1l2-1 2-1v-1l1-1-3-5-8 5-1 3z"/><path class="x" d="M221 466l1 2 2 1h1l2-2h1l1-1 1-1v-2l-2-4-7 4v3z"/><path class="x" d="M228 460l1 1 1 2v1h1l3-2 3-2 1-1v-2l-2-2a13 13 0 00-2-1l-7 5z"/><path class="x" d="M243 455h-1l-1 1-1 1-1 1h-1l-1-2-1-1-1-1 1-1z"/><path class="x" d="M236 454l-1 1-2 1-1 1h-1l-1-1-1-1-1-1v-2l8 1z"/><path class="x" d="M221 459l1 1 1 2h3l4-4 1-1-2-2-1-2-6 3-1 3z"/><path class="x" d="M213 465l2 3 1 1h1l1-1 2-1 2-2 1-1 1-1-1-1v-1l-2-3-7 4-1 3z"/><path class="x" d="M207 470v1l2 2 1 1 2-1v-1l2-1 2-1v-1a11 11 0 00-1-1l-2-3-3 1z"/><path class="x" d="M204 477h1l2-1 2-1v-1h1l-1-1-2-2v-1l-2-1-1 8zM221 453l1 2 1 2v1l-1 1-1 1a5 5 0 00-1 0l-1 1h-1l-1 1a7 7 0 010-1l-3-3 3-4z"/><path class="x" d="M209 466l2 1 1-1 2-1 2-1 1-1v-2l-3-3-4 2-3 2 1 2 1 2z"/><path class="x" d="M205 470h1l1-1 1-1h1l1-1-1-1-2-3h-1l-1 7zM228 453v1l-1 1-2 1-1 1-1-1-2-3v-2l7 1v1zM218 454l-1 2-1 1-2 2-2 1h-1l-1-1-2-2v-2l7-4z"/><path class="x" d="M210 460v1l-1 1-2 1h-1l1-8 1 2 2 3zM222 452v1l-3 2h-2l-1-2-1-2v-1l6 1 1 1zM215 450v2l-3 2h-1l-1-2-2-2 3-1 4 1z"/><path class="x" d="M207 456h1l3-1v-2l-3-2-1-1v6zM218 378l-1-1h-1l-2 2h-1l-2 1-1 1v2l3 4 5-3v-6z"/><path class="x" d="M213 386l-1-1-1-2-1-1h-1l-3 2-3 2v1l-1 2 3 3a14 14 0 002 0l6-5zM198 397l-1-1-1-1-1-2h-1l-2 2-2 1-2 1v2l-1 1 3 4 7-6 1-1z"/><path class="x" d="M205 391l-1-2-2-1h-1l-2 2h-1l-1 1-1 1-1 2 3 4 7-4v-3zM175 414l-1-2-1-2h-1l-1 1-5 3v1l2 2 1 2 6-3v-2z"/><path class="x" d="M184 407l-2-3h-2l-1 1h-2l-2 2-1 1-1 2 1 2 2 2 6-4 2-3z"/><path class="x" d="M190 403l-1-2-1-2h-1l-2 1h-1l-2 1-1 1v1a9 9 0 001 1l2 3 3-1zM163 423l-2-3-1-1h-1l-1 1-1 1-3 2-1 1v2l1 1 1 3 7-4 1-3z"/><path class="x" d="M155 429l-2-3h-2l-2 1-2 1-3 3-2 1-1 2v1l1 1 2 3 9-6 2-4zM170 418l-1-1-2-2-1-1-1 1-1 1-2 1-2 1v1a13 13 0 001 1l2 3 4-1z"/><path class="y" d="M136 438l1-1 1-1 1-1 1-1h1l1 2 1 1 1 1v1z"/><path class="x" d="M215 390l-1-2-2-1h-1l-2 2h-1l-2 1v1l-1 2 3 4 7-4v-3z"/><path class="x" d="M208 396l-1-1-1-2-1-1-4 2-3 2v1l-1 2 3 2a16 16 0 002 1l6-5zM183 415l-1-2-1-2h-1l-2 1-7 4v2l2 2v2l9-4 1-3z"/><path class="x" d="M194 408l-3-5h-2l-2 1-1 1-3 3-1 1-1 1v2l2 3 8-5 3-2z"/><path class="x" d="M201 403l-1-3-1-2h-2l-2 1-1 1-2 1-2 1v1a7 7 0 001 1l3 4 3-3zM216 385l-1-1-1 1-1 1h-1v2l3 3h1v-6zM168 426l-1-1-1-1-1-1h-1l-3 1-1 1-2 2-1 1v1l2 4 8-5 1-2z"/><path class="x" d="M159 432l-1-2-1-1-1-1-1 1-2 2-1 1-2 1-2 1v1l-1 1 4 4 7-4 1-4zM175 421l-2-2-1-2h-1l-2 2-2 1-1 1-1 1v1l3 4 7-4v-2z"/><path class="x" d="M144 439v-1l1-1 1-1 1-1h1l1 2 2 1 1 1-1 1zM215 398l-2-2-2-2-3 2-1 1-1 1h-1v2l3 4 6-4 1-2z"/><path class="x" d="M208 403l-1-1-1-2h-1l-1-1-3 2-3 3-1 1v1l3 3a14 14 0 001 0l7-5zM182 422l-1-2-1-2h-1l-1 1-6 4v1h-1l3 2v2l8-3v-3z"/><path class="x" d="M193 414l-3-4h-2l-1 2-2 1-3 2-1 1-1 2 1 1 1 3 8-5 3-3z"/><path class="x" d="M200 409a15 15 0 01-1-2l-1-2h-1l-2 1-1 1-2 1-2 2a7 7 0 001 1l2 3 3-2zM158 440l-1-3-2-1v-1l2-1 1-1a5 5 0 001 0l1-1 1-1a6 6 0 011 1l3 3-3 4z"/><path class="x" d="M172 424h-1l-2 1-3 2-2 1-2 1v3l3 3 6-3 3-4v-2l-2-2zM151 440v-2l3-1 1-1 1 1 2 3v1h-7v-1zM216 392h-2l-1 1-1 1h-1l1 1 2 4 1-1 1-6zM215 400l-2-1h-1l-2 2h-1l-1 1-1 1-1 2 3 4 5-3 1-6z"/><path class="x" d="M209 408l-1-1-1-2v-1h-1l-3 2-3 2-1 1v2l2 2a14 14 0 002 1l6-5zM194 419v-1l-1-1-1-2h-2l-2 2-1 1-3 1v2l-1 1 3 4 8-6v-1z"/><path class="x" d="M202 413l-2-2-1-1h-1l-2 2h-2l-1 1-1 1v2l3 4 6-4 1-3zM158 441v-2l2-1 1-1h1l1 1 2 2v2l-8-1z"/><path class="x" d="M172 436l-1-2-1-1-1-1-2 1-4 3v1h-1l2 2 1 2 6-3 1-2z"/><path class="x" d="M180 429l-2-3h-2l-1 1h-2l-2 2-1 1-1 2 1 1v1l2 2 7-4 1-3z"/><path class="x" d="M187 425l-1-2-2-2h-1l-2 1-2 1-2 1v1a12 12 0 001 1l2 3 4-1zM204 418l-1-1-1-1-1-2-1 1-3 1-1 1-2 2-1 1v1l3 4 7-5 1-2z"/><path class="x" d="M196 424l-1-2-2-1-1-1-1 1-2 2h-1l-1 1-2 2h-1v2l3 4 7-5 2-3z"/><path class="x" d="M187 431l-2-2-1-2h-1l-2 2-1 1-2 1v1l-1 1 3 4 7-4v-2zM211 413l-1-2-2-2h-1l-2 2-1 1-2 1-1 2 3 4 7-4v-2z"/><path class="x" d="M180 436l-1-1-1-1-1-1-1-1-3 2-3 3v1l-1 1 3 3a14 14 0 002 0l6-5z"/><path class="x" d="M165 442v-1l1-1 2-1v-1l1 1 1 1 2 1 1 1-1 1zM213 406h-2l-1 1-1 1-1 1v1l4 4h1v-8z"/><path class="x" d="M212 414l-1-1-2 2-2 1v2l3 3h1l1-7z"/><path class="x" d="M210 421l-1-1-1-1-1-2h-1l-2 1-1 1-2 1v2l2 4 6-4 1-1z"/><path class="x" d="M203 425l-1-2-1-1h-2l-2 2-1 1-2 1-2 1v1l-1 1 4 4 7-4 1-4z"/><path class="x" d="M195 432l-2-2-2-2-3 2-1 1-1 1-1 1v2l3 3 6-3 1-3z"/><path class="x" d="M187 438v-2l-1-1-1-1h-1l-3 2-3 2-1 1v2l2 2a14 14 0 002 1l7-5z"/><path class="x" d="M172 443l1-1 1-1 1-1h2l1 1 1 1 1 1-1 2z"/><path class="x" d="M180 444v-1l2-2 1-1h1l1 1 2 2v3l-8-1z"/><path class="x" d="M194 439l-1-2-1-1-1-1-2 1-4 3v1l-1 1 3 2v1l6-2 1-3z"/><path class="x" d="M202 432l-2-3h-2l-1 1-1 1-3 2h-1v3l1 1 1 3 7-4 1-4z"/><path class="x" d="M209 428l-1-2-2-2h-1l-1 1h-1l-2 1-2 2a12 12 0 001 1l2 3 4-1z"/><path class="x" d="M211 421l-1-1-2 1-2 2v2l2 1 1 2 2 1v-8zM194 444l-1-2-1-1v-1l2-1 1-1a4 4 0 001-1l1-1h1a5 5 0 011 0l2 4-2 4z"/><path class="x" d="M206 431h-1l-2 1-2 1-2 1h-1v1l1 1 2 4 5-2 2-3-1-2-1-2z"/><path class="x" d="M210 428h-2l-1 1-1 1h-1l1 1 2 4 1-1 1-6zM187 445v-1l1-1 2-1 1-1 2 1 1 2v2h-7v-1zM198 443v-1l1-2 2-1 2-1h2l2 3v2l-7 4z"/><path class="x" d="M205 438v-1l1-1 2-2h1l-1 8-1-2-2-2zM194 446l-1-2 3-1h2l1 2 1 1 1 1h-7v-1z"/><path class="x" d="M201 447l-1-1 3-2h1l1 2 3 2h-4l-3-1z"/><path class="x" d="M208 441h-1l-3 2 1 2 2 2 1 1 1-6-1-1zM278 460l2-2-2-2-1-2-1-1-1-1h-2l-4 3 3 4 6 1z"/><path class="x" d="M270 455l2-1 1-1 1-1v-1l-2-3-2-3-1-1h-2l-2 3a13 13 0 00-1 1l5 7zM259 440l2-1 1-1 1-1v-1l-2-3v-1l-2-2-1-1h-1l-5 3 6 7 1 1z"/><path class="x" d="M265 447l2-2 2-1v-1l-2-2-1-1-1-2h-1l-2-1-3 3 3 7h3zM243 417l1-1 2-1v-2l-4-5h-1l-2 2h-2l3 7h3z"/><path class="x" d="M249 426l4-3v-2l-1-1-1-1-2-3h-1l-1-1h-1l-1 1-3 1 4 7 3 2z"/><path class="x" d="M254 432l1-1 2-1 1-2-1-1-1-1-1-2-1-1-1-1a10 10 0 00-1 1l-3 3 1 3zM234 405l3-2v-2l-1-1-1-2-2-2v-1l-2-1h-1l-1 1-3 2 4 7 4 1z"/><path class="x" d="M227 397l4-3v-2l-2-1-1-2-2-4-2-1-2-1-2 1-2 1 5 9 4 3zM238 411h2l2-2v-1l-1-2v-1l-1-1-2-2a9 9 0 00-1 1l-3 2 1 3z"/><path class="y" d="M219 378h1v1l2 2v2l-1 1-2 1-1 1-1-1z"/><path class="x" d="M266 457l2-2 2-1v-1l-2-2-1-2-1-1-1-1h-2l-3 3 3 6 3 1z"/><path class="x" d="M261 450l1-1 1-1 1-1 1-1-3-3-2-3-1-1h-2l-2 3a14 14 0 00-1 2l5 6zM242 424l2-1 1-1 1-1-1-1-5-7h-1l-1-1-2 3h-1l4 8 3 1z"/><path class="x" d="M249 436l4-4v-2l-1-1-1-2-2-3-1-1-2-1h-1l-1 1-3 2 5 8 3 3z"/><path class="x" d="M254 443l3-1 1-2 1-1-1-2-1-1-1-2-2-2h-1a8 8 0 000 1l-4 3 2 3zM272 458v-2l-1-1-1-1h-2l-3 2v1l7 1zM230 409l1-1h1l2-1v-2l-2-2-1-1-1-3h-2l-1-1-4 3 6 8h1z"/><path class="x" d="M224 401l2-1 1-1 1-1-1-1-2-3-1-2-2-2-2-1-4 3 5 8 3 1zM236 417l2-2 1-2-2-3v-1l-1-1-1-1h-2l-4 3 4 6 3 1z"/><path class="x" d="M218 385l1 1v1l2 1v2l-1 1-1 1-1 1-2-1zM259 456l2-1 1-2v-1l-2-2v-1l-1-1-1-1-2-1-4 3 4 7h3z"/><path class="x" d="M253 449l1-1 2-1h1v-1l-2-3-2-3-1-1h-2l-2 2a14 14 0 00-1 2l5 6zM235 424l2-1 1-1 1-1-1-2-4-5h-1l-1-1-2 2-2 1 4 7 3 1z"/><path class="x" d="M243 434l3-2v-2l-1-2-1-1-2-3-1-1-2-1h-1l-1 1-3 1 5 8 4 2z"/><path class="x" d="M248 442a13 13 0 011-1l2-1v-1l-1-2-1-1-1-2-1-2-1-1a8 8 0 00-1 1l-2 2 1 4zM217 400l2-2 1-1h1l1 2 1 1a4 4 0 001 1l1 1v1a5 5 0 010 1l-3 2-5-2z"/><path class="x" d="M232 414v-1l-1-3-1-2-2-3-1-1h-2l-4 2 3 6 4 4 2-1 2-1zM216 393l1-1 1 1 1 2 1 2-1 1-2 2-2-1v-6h1zM264 458l1-2h-1l-1-2v-1h-2l-3 3v1l6 1zM256 456l2-1v-1l-2-2-1-1-1-2h-1l-2-1-4 3 3 5h6z"/><path class="x" d="M248 451l2-1 1-1 1-1v-1l-2-3-2-3h-1l-2-1-2 3a14 14 0 00-1 2l5 6zM237 436l2-1 1-1h1v-2l-2-2v-2l-2-2h-1l-2-1-4 3 6 7 1 1z"/><path class="x" d="M243 443l2-1 2-2v-1l-2-2-1-1-1-1-1-1h-2l-3 2 3 7h3zM216 399l1 1 1 1 1 2v1l-1 1-1 1-1 1h-2l1-8z"/><path class="x" d="M221 413l1-1 2-1v-2l-4-5h-1l-2 2-2 1 3 6h3zM227 422l3-2 1-2-1-1-1-2-2-2-1-1-1-1h-1l-1 1-3 2 4 6 3 2z"/><path class="x" d="M232 428l1-1 2-1 1-1-1-2-1-1-1-1-1-2h-1a10 10 0 00-1 1l-3 2 1 3zM238 446l1-1 1-1 2-1v-1l-2-3v-1l-2-2-2-1h-1l-4 2 6 8 1 1z"/><path class="x" d="M232 437l2-1 2-1v-1l-1-1-1-2-1-1-1-1-2-3h-1l-5 3 5 7 3 1z"/><path class="x" d="M225 429l3-2 1-1v-1l-2-2v-2l-2-1v-1h-2l-4 3 4 6 2 1zM244 453l2-2 2-1-1-1-2-2v-1l-1-2-1-1h-2l-4 3 4 7h3z"/><path class="x" d="M220 422l1-1 2-1 1-1v-1l-2-3-2-3-1-1h-2l-3 3a14 14 0 000 1l5 7z"/><path class="x" d="M215 407l1 1 1 1 1 1v1l-2 1-1 2-1 1-1-1zM250 455l1-1-1-1-1-2-1-1h-1l-5 3 1 1 7 1z"/><path class="x" d="M243 454v-1l-2-2-1-2-1-1-4 3v2l8 1z"/><path class="x" d="M235 451l2-1h1l1-1v-2l-1-1v-2l-2-1h-1l-1-1-4 3 4 6h1z"/><path class="x" d="M231 445l2-1 1-1 1-1-1-1-2-3-1-2-2-2v-1h-2l-4 3 5 8 3 1z"/><path class="x" d="M224 436l2-1 2-2v-1l-2-2-1-1-1-2h-1l-1-1-4 3 4 7h2z"/><path class="x" d="M219 429l1-1 1-1h1l1-1-2-3-3-3-1-1h-1l-3 2a14 14 0 000 2l5 6z"/><path class="x" d="M213 414l1 1 1 1 1 1 1 1v1l-2 1-1 1-1 1-1-1z"/><path class="x" d="M212 421l2 1 1 2 1 1v1l-1 1-2 1-1 1h-1l1-8z"/><path class="x" d="M217 436l2-1 1-1 1-1-1-2-3-4h-1v-1l-2 2-2 1 3 6 2 1z"/><path class="x" d="M224 444l3-2v-2l-1-1v-2l-2-2-1-1-2-1v1h-2l-2 2 4 7 3 1z"/><path class="x" d="M228 450h2l2-2v-1l-1-2v-1l-1-1-1-2h-1a10 10 0 00-1 1l-3 2 1 3z"/><path class="x" d="M235 453l1-1-1-2-1-2-1-1-1 1-2 2h-2v2l7 1zM212 436l2-1 2-1h1l1 1 1 1a4 4 0 000 1v1l1 1a5 5 0 010 1l-3 3-4-3z"/><path class="x" d="M225 447l1-1-1-1-1-2-1-2-1-1h-2l-3 3 1 4 3 3 2-1 2-2z"/><path class="x" d="M228 452l1-2h-1l-1-1v-1l-1-1h-1l-4 3 1 1 6 1zM211 429h2l1 1 1 2v1l-1 1-2 2h-2l1-7zM213 439l2 1h1l2 3 1 2v1l-1 1-2 2h-2l-5-7z"/><path class="x" d="M218 447l1-1 2 2 1 2v1l-8-1 2-1 2-2zM210 435h2l2 3v1l-1 1-1 1-2 1h-1l1-6v-1zM209 442h1l2 3v1l-1 1-2 2-1-4 1-3z"/><path class="x" d="M215 450v-1l-2-3h-1l-3 2-1 1 6 1h1zM137 438l-2 2 2 3 1 1 1 1 1 1h1l4-3-3-4-5-1z"/><path class="x" d="M144 444h-1l-1 2h-1l-1 1 2 3 3 3 1 1h1l3-2a14 14 0 001-2l-6-7zM155 458l-1 1-1 1-1 1v1l2 3v1l2 2 1 1h1l4-2-5-8-2-1z"/><path class="x" d="M150 451l-2 2-2 1v1l2 2 1 1 1 2 1 1h1l4-3-4-7h-2zM172 481l-2 1-1 1-1 1 1 1 3 5h2l2-2h1l-2-7h-3z"/><path class="x" d="M166 473l-4 2v2l1 1 1 1 2 3 1 1h2l1-1 3-1-4-7-3-1z"/><path class="x" d="M161 466l-2 1-1 2-1 1 1 1 1 1 1 2 1 2a9 9 0 001-1l4-2-2-4zM181 493l-3 2v2l1 1v2l2 2 1 1 2 1h1l1-1 2-2-4-6-3-2z"/><path class="x" d="M187 501l-3 3v2l1 2 2 1 2 4 1 1 2 1h1l1-1 3-1-6-9-4-3zM177 487l-2 1-2 1v1l1 2v1l1 1 1 2h1a10 10 0 001-1l3-2-1-3z"/><path class="y" d="M196 520h-1l-1-1-1-2-1-1h1l1-2 1-1 1-1 2 1z"/><path class="x" d="M149 441l-2 2-2 1v1l2 2 1 2 1 1 1 1h1l4-3-4-6-2-1z"/><path class="x" d="M154 448l-1 1-1 1-1 1-1 1 2 3 3 3 1 1h1l3-3a14 14 0 000-1l-5-7zM173 474l-2 1-1 1-1 1 1 2 5 6h1v1l2-3h2l-4-8-3-1z"/><path class="x" d="M166 462l-4 4v2l1 1 1 2 2 3 1 1 2 1h1l1-1 2-2-5-8-2-3zM161 455l-3 2-2 1v1l1 2 1 1 1 2 2 2a7 7 0 001-1l4-3-3-2zM143 440v2l1 1 1 1v1l1-1 4-2-1-1-6-1zM185 489l-1 1h-2l-1 1v2l2 2v2l2 2h1l2 1 4-3-6-7-1-1z"/><path class="x" d="M191 497l-2 1-2 1v1l1 1 1 3 1 1 1 1 1 2 1 1h1l5-3-5-8-3-1zM179 482l-2 1-2 2v1l2 2 1 1 1 1 1 1h2l4-3-4-6h-3z"/><path class="x" d="M197 513l-1-1-1-1-1-1-1-1 1-1 1-1 1-1 1-1 1 1zM156 442l-2 1-2 2v1l2 2 1 1 1 2h1l2 1 3-3-3-7h-3z"/><path class="x" d="M162 449l-2 1-1 1-1 1h-1l3 3 2 4h3l2-2a15 15 0 001-2l-5-6zM180 474l-2 1-1 1-1 1 1 2 4 5h1v1h1l2-2 1-1-3-7-3-1z"/><path class="x" d="M172 464l-3 2v2l1 2 1 1 2 3 1 1 2 1h1l1-1 3-1-5-8-4-2z"/><path class="x" d="M167 456a13 13 0 01-2 1l-1 1-1 2 2 2 2 3 1 1 1 1a8 8 0 000-1l3-2-1-4zM198 499l-2 1-2 1h-1l-1-2-1-1a4 4 0 000-1l-1-1v-1a5 5 0 010-1l3-2 5 2z"/><path class="x" d="M183 484l-1 1 2 3 1 2 2 3 1 1h2l3-2-2-6-4-4-2 1-2 1zM199 506h-2l-1-1-1-2v-2l1-1 2-2 2 1-1 6v1zM150 440v3l1 1 1 1h2l3-3v-1l-7-1zM159 442l-2 1v1l2 2 1 1 1 2 1 1h1l4-3-2-5h-6z"/><path class="x" d="M166 447l-1 1-1 1-1 1-1 1 2 3 3 3h1l1 1 3-3a14 14 0 000-2l-5-6zM177 462l-1 1-1 1-1 1v1l2 2v2l2 2h1l1 1 4-3-5-7-2-1z"/><path class="x" d="M172 455l-2 1-2 2v1l2 2 1 1 1 1 1 1 1 1 4-3-4-7h-2zM199 499h-1l-2-2-1-1v-1l1-1 2-2h1l2-1-1 8z"/><path class="x" d="M194 485l-2 1-1 1-1 1 1 1 3 5h2l2-2 1-1-2-6h-3z"/><path class="x" d="M188 476l-4 3v1l1 2 1 1 2 2 1 1 1 1h1l1-1 3-2-4-6-3-2zM183 470l-1 1-2 1-1 1 1 2 1 1 1 2 1 1a12 12 0 001-1l3-2-1-3zM177 452l-2 1-1 1-1 1v1l2 3v1l2 2 1 1h1l5-2-6-8-1-1z"/><path class="x" d="M183 461l-2 1-2 1v2l2 2 1 1 1 2 1 2h1l1 1 5-4-5-7-3-1z"/><path class="x" d="M189 469l-2 2-2 2h1l2 3v1l1 1 1 1h2l4-3-4-6-3-1zM171 445l-2 2-2 1v1l2 2 1 2 1 1 1 1h2l3-3-4-6-2-1z"/><path class="x" d="M195 477h-1l-2 2h-1v1l2 3 2 3 1 1h2l2-2a14 14 0 001-2l-5-7z"/><path class="x" d="M200 492l-1-1v-1l-2-1v-2l1-1 2-1 1-1h1zM165 443l-1 2h1l1 2v1h2l4-3v-1l-7-1zM172 444v2l1 2 2 1 1 1 4-3v-2l-8-1z"/><path class="x" d="M179 447l-1 1-1 1-1 1v1l1 2v1l2 1 1 1h1l4-3-4-6h-2z"/><path class="x" d="M184 453l-2 1-2 2 1 1 1 3 1 1 1 1 1 2 1 1h1l5-3-5-8-3-1z"/><path class="x" d="M191 462l-3 1-1 2v1l2 2v1l1 2h1l2 1 4-3-4-7h-2z"/><path class="x" d="M196 469l-1 1-2 1-1 1 2 4 2 3h1l2 1 3-3a15 15 0 000-2l-5-6z"/><path class="x" d="M201 484l-1-1-1-2-1-1 2-2 1-1 1-1 1 1z"/><path class="x" d="M203 477l-2-1-1-1-1-2 1-1 1-2 1-1h2l-1 8z"/><path class="x" d="M198 463l-2 1-2 1v2l4 5h1l2-2 2-1-3-6h-2zM191 454l-3 2-1 2 1 1 1 2 2 2 1 1 1 1h1l1-1 3-2-4-6-3-2z"/><path class="x" d="M186 448l-1 1-2 1-1 1 1 2 1 1 1 1 1 2h1a11 11 0 001-1l3-2-1-3z"/><path class="x" d="M179 445v1l1 2 1 2 1 1 1-1 2-1 1-1 1-2-8-1zM203 462l-2 2-2 1h-1l-1-2-1-1a5 5 0 000-1l-1-1v-1h-1a7 7 0 011-1l3-3 4 3z"/><path class="x" d="M190 451l-1 1 1 1 1 2 1 2 1 1h2l3-3-2-4-2-3-2 1-2 2z"/><path class="x" d="M187 446l-1 2h1l1 2v1h2l3-3v-1l-6-1zM203 469h-2l-1-3-1-1 1-1 3-2h2l-1 7h-1zM202 459l-2-1h-1l-2-3-1-2v-1l1-1 2-2h2l4 8z"/><path class="x" d="M196 452h-1l-1-2-1-2v-1l8 1-2 2-3 2zM204 463h-1l-2-3v-1l2-2 2-1h1l-1 6-1 1zM206 456h-1l-3-3v-1l2-1 2-2 1 4-1 3z"/><path class="x" d="M200 448v2l1 2h2l2-2 1-1-5-1h-1z"/><path transform="rotate(-36 208 449)" style="isolation:isolate" opacity=".1" fill="url(#a)" d="M155 398h104v103H155z"/><path class="aa" d="M197 520l2-8 1-8 2-9 2-13 2-13 2-15 1-4h-2l-1 4-2 15-2 12-2 13-2 10-1 8-2 8 2 2zM136 439l8 1 8 2 10 1 13 2 13 2 14 2 5 1v-2l-4-1-15-2-13-2-13-2-9-1-9-2-8-1-1 1z"/><path class="aa" d="M218 378l-2 8-1 8-2 9-2 13-2 13-2 15-1 4h2l1-4 2-15 2-12 2-13 2-10 1-8 2-8-2-2zM280 459l-8-1-9-2-9-2-13-1-13-2-15-2-4-1v2l4 1 15 2 13 2 12 1 10 2 8 1 8 2 2-1z"/><path class="aa" d="M211 450l-4 2-2-4 3-2 1 1a6 6 0 012 3z"/><path class="ab" d="M346 250c0 4 2 9 7 10-1 3-2 7-1 10s4 7 7 6c-2 7 2 15 9 16 1 4 1 7 3 9s6 4 9 2a10 10 0 0012 7l4 7c2 2 5 1 7-1a7 7 0 007 7l3-1 12 5c4 0 5-4 10-6 3-1 7 1 10 2s9-1 7-5c4 2 8 4 12 4s7-4 7-8c3 3 10 0 10-5a9 9 0 0014-10 7 7 0 107-12 7 7 0 008-12c2-1 5-2 6-4s1-6-2-6c8-2 12-12 7-19a8 8 0 104-15 9 9 0 00-4-17c2-5-2-11-7-10a7 7 0 00-6-12c4-5-1-14-7-14 1-3-1-7-4-8l-9-1-4-10c-2-3-7-2-9 1-2-7-12-11-18-7-3-6-13-6-15 0-7-7-19-6-24 2-5-6-15-3-17 4-6-4-16 0-18 8-5-3-13 2-14 8a13 13 0 00-7 15c-3 2-5 7-5 11a4 4 0 01-2 3c-3 2-6 4-6 10l2 10c0 1-9 5-2 14l-3 12z"/><path class="ac" d="M508 183c-1-3-4-5-7-5 1-3-1-7-4-8l-9-1-4-10c-2-3-7-2-9 1-2-7-12-11-18-7-3-6-13-6-15 0-7-7-19-6-24 2-5-6-15-3-17 4-6-4-16 0-18 8-5-3-13 2-14 8a13 13 0 00-7 15c-3 2-5 7-5 11a4 4 0 01-2 3c-2 2-6 4-6 10l2 10c0 1-9 5-2 14l-3 12c0 4 2 9 7 9-1 4-2 8-1 11s4 7 8 6c-3 7 1 15 8 16 1 4 1 7 3 9s6 4 9 1a10 10 0 0012 8c1 2 2 5 4 6s5 2 7 0a7 7 0 007 6h3l12 5c4 0 5-4 10-6 3-1 7 1 10 2s9-1 7-5c4 2 8 4 12 3a23 23 0 001-3 4 4 0 00-1-3l-3-2-6-6c-4-2-8-1-12-1s-10-3-8-7c1-5 9-3 13-6a4 4 0 00-4-4c0-3 4-4 7-5s5-4 4-6c-2-3-7-1-9-3s0-6 3-7h8c3 0 6-3 6-6-2-4-10-3-10-8l1-6c-1-2-4-2-6-1l-6 4a7 7 0 01-6-11c3-2 6-1 8-2s5-3 4-6l-6-2a26 26 0 0114-12c-3-1-3-6 0-8s6-3 9-3c8-1 22-2 28-7-7-8 6-14 13-17z"/><path class="ad" d="M389 280c-3-1-4-4-6-6l-9-15c-1-2-1-7 1-6-1-3-2-9 1-9a15 15 0 01-10-11c-1-3-1-6 1-9l3-3a8 8 0 002-7l4-3-1-4a4 4 0 00-1-6l3-4c2-7 11-10 17-7 3-3-1-10 2-13 2-2 6 0 10 0s7-3 11-4c5-1 10 0 15 2 4 2 8 4 11 8s2 10-2 13c-2 2-5 2-9 3l-15 1a10 10 0 00-5 1 6 6 0 00-2 7 8 8 0 007 5c-1 3-4 5-8 5l-9 3c-3 2-5 5-3 8a8 8 0 016 2 22 22 0 00-6 11 102 102 0 0020 12l-6 4-4 4c-1 2 3 5 4 3l-1 8c-1 3-3 4-6 6-4 3-10 5-15 1z"/><path class="ad" d="M486 180l-2-1-4-4-5-1c-1 0-4-2-4-4l1-4a3 3 0 00-2-1 14 14 0 00-10 0h-4l-1-3-5-4a18 18 0 00-7 0c-4 1-10 1-11 6a1 1 0 001 1h1a5 5 0 012 1c3 1 6 3 6 6a7 7 0 000 2c1 2 3 2 4 1h4c3 1 3 5 1 8s-3 5-3 7a25 25 0 006 3l-3 3c-1 1-2 3-1 5s5 1 6-1 4-4 7-4a10 10 0 013 2 14 14 0 007 1 4 4 0 003-1c2-3-1-8 2-9h4a5 5 0 004-9zM416 243c-2 1-3 4-1 5a7 7 0 002 1c3 1 5 4 7 7v4l-3 1a5 5 0 00-2 7 27 27 0 012 3c1 2 0 4-1 6l-3 7a11 11 0 01-2 4l-6 2c-4 1-9 2-13 1a26 26 0 00-5-2l-4 2c-1 3 1 5 3 5l7 1a4 4 0 012 0l1 6a7 7 0 0013 4 22 22 0 005 6c2 2 5 3 7 2s4-4 3-6l-4-4a7 7 0 013-12c2 0 4 0 5-2a4 4 0 000-2 17 17 0 00-2-7c3-1 7-3 8-7s0-8-3-8l-5-1v-3l2-4c1-3-4-5-6-9l-1-5c-1-4-6-4-9-2zM356 249a2 2 0 000 1c0 2 1 1 2 1 2 1 4 3 4 5a33 33 0 010 7 16 16 0 001 8c1 2 3 4 5 4l2 5a7 7 0 002 4 3 3 0 004-1c1-1 0-3-1-5l-3-4v-6l-3-7c-1-2-2-6 0-8a4 4 0 001-1 3 3 0 00-1-2c-2-6-11-10-13-1zM373 179a6 6 0 003 1c1 1 0 3-1 3l-3 1a6 6 0 00-2 3l-2 6a4 4 0 000 3h4a7 7 0 001-4 8 8 0 012-4c2-4 9-1 12-5v-5c0-2 2-4 3-3 3 0 6-1 8-3 1-1 3-3 2-4a3 3 0 00-1-2c-2-1-6 0-8 2s-4 3-7 3c-5 1-10 2-11 8z"/><path class="ac" d="M1001 664c1-7 5-13 10-16s14-2 18 3c4-6 10-10 16-11s14 3 16 9c10 2 16 13 13 22a35 35 0 00-2 4v4c-1 4-3 8-6 11-6 6-14 11-22 14-9 3-19 4-28 1-7-3-13-11-14-19l1-8-2-14z"/><path class="ad" d="M1010 693c-1-5-3-9-2-14 1-6 4-12 10-15s13-3 18 2c4-5 9-10 16-10s13 2 16 8a15 15 0 016 3c2-8-4-18-13-19-2-6-10-9-16-9s-12 6-16 11c-4-5-12-6-18-3s-9 10-10 16l2 14-1 8a21 21 0 007 14 35 35 0 001-6z"/><path class="ac" d="M1099 792c8-1 15-9 13-17a14 14 0 007-25c4-2 5-7 3-12s-5-7-9-9a37 37 0 00-38 4 17 17 0 01-3 2 39 39 0 01-5 1c-6 2-9 9-9 16s2 12 5 18c3 7 10 7 16 11 6 5 10 12 20 11z"/><path class="ab" d="M1119 750c4-2 5-8 3-12s-5-7-9-9a36 36 0 00-12-3 17 17 0 017 8c2 4 1 10-3 12a14 14 0 01-7 25c1 7-5 15-12 16 3 3 7 6 12 5 9-1 15-9 14-17a14 14 0 007-25z"/><path class="ac" d="M947 745a16 16 0 001 18 27 27 0 00-9 18c0 6 2 13 8 16 5 2 11 1 16-1-1 4 0 8 2 11a18 18 0 0010 6 23 23 0 0016-1c4-2 8-7 9-13 4 3 10 1 15-2s7-8 8-13c2-6 3-13 1-19s-7-12-13-14c1-3 2-7 0-11-2-3-5-5-8-6-7-3-15-5-22-5-9 0-12 4-19 7-6 3-11 2-15 9z"/><path class="ab" d="M1011 743h1a9 9 0 00-1-2v2zM1023 775c-1 5-4 10-8 13s-11 5-15 3c-1 5-5 10-9 12a23 23 0 01-16 1 18 18 0 01-10-6c-2-3-3-7-2-11-5 2-11 4-16 1-4-2-6-6-7-10a27 27 0 00-1 3c0 6 2 13 8 16s11 1 16-1c-1 4 0 8 2 11a18 18 0 0010 6 23 23 0 0016-1c4-2 8-7 9-13 4 3 10 1 15-2s7-8 8-13a34 34 0 002-15 37 37 0 01-2 6zM948 754a15 15 0 01-3-6 16 16 0 000 9 26 26 0 013-3z"/><path class="ac" d="M953 673c-1 1-3 3-3 5s1 5 3 5a25 25 0 00-15 18 37 37 0 001 13c1 5 3 10 8 10a10 10 0 012 0c2 0 3 3 3 5a18 18 0 0031 7 5 5 0 012-2c2-1 3 0 5 1a23 23 0 0035-12 23 23 0 00-4-41c3-3 3-7 2-11s-5-7-9-9a25 25 0 00-14-2 19 19 0 01-4 1 20 20 0 01-5-1 24 24 0 00-20 3c-3 2-4 4-8 4-4 2-6 2-10 6z"/><path class="ab" d="M1035 701a24 24 0 00-9-16 22 22 0 011 5 24 24 0 01-10 22 23 23 0 01-35 12l-4-1a5 5 0 00-2 2 18 18 0 01-18 6 17 17 0 01-6-2 18 18 0 0031 7 5 5 0 012-2l5 1a23 23 0 0035-12 24 24 0 0010-22z"/><path class="ad" d="M959 692c-6 1-11 7-10 13s8 10 13 9a7 7 0 006-2 8 8 0 001-4 37 37 0 00-1-8 9 9 0 0010-6c1-3 1-7 4-8h5c2 0 4-2 5-4s1-4 1-6c-2-3-6-4-9-4h-14c-7 0-7 3-9 8-1 4-6 7-2 12z"/><path class="ac" d="M1034 737c-2 0-5 0-6 2s-2 4-1 5a25 25 0 00-23 5 36 36 0 00-8 11c-2 4-3 9 0 12a10 10 0 012 2c2 1 0 4-1 6a18 18 0 0020 25 5 5 0 013 0l2 3a23 23 0 0035 13 23 23 0 0023-34c4 0 8-4 9-7s0-9-1-12a25 25 0 00-10-11 20 20 0 01-4-2 20 20 0 01-2-4 24 24 0 00-18-10c-4-1-6 0-9-2-4-2-6-3-11-2z"/><path class="ab" d="M1079 811a24 24 0 003-18 22 22 0 01-2 4 24 24 0 01-22 10 23 23 0 01-32-6 24 24 0 01-3-6l-2-4a5 5 0 00-3 0 18 18 0 01-18-6 17 17 0 01-3-5 18 18 0 0020 25 5 5 0 013 0l2 3a23 23 0 0035 13 24 24 0 0022-10z"/><path class="ad" d="M1028 762c-5-3-13-1-16 4s0 12 5 16c1 1 3 2 5 1a8 8 0 004-2 37 37 0 004-7 9 9 0 0011 2c3-2 5-5 8-4l4 4h7c3 0 4-3 4-5 1-3-2-6-4-8l-11-8c-5-5-7-3-12 0-3 2-9 1-9 7z"/><path class="ac" d="M1061 666l-6 2c-2 1-2 5-1 6a25 25 0 00-23 5 37 37 0 00-8 11c-2 3-3 9 0 12a10 10 0 013 2c1 1 0 4-1 5a18 18 0 0019 26 5 5 0 013-1l2 4a23 23 0 0036 13 23 23 0 0022-34c4 0 8-4 9-8s0-8-1-11a25 25 0 00-10-11 12 12 0 01-6-6 24 24 0 00-18-10c-4-1-6 0-9-2-4-2-6-3-11-3z"/><path class="ab" d="M1106 741a24 24 0 003-18 22 22 0 01-2 4 24 24 0 01-21 10 23 23 0 01-36-12l-2-4a5 5 0 00-3 0 18 18 0 01-18-6 17 17 0 01-2-5 18 18 0 0019 25 5 5 0 013-1l2 4a23 23 0 0036 13 24 24 0 0021-10z"/><path class="ad" d="M1053 685c-5-3-13-1-15 4s-1 12 4 16c1 1 3 2 5 1a8 8 0 004-2 37 37 0 005-7 9 9 0 0011 1c2-1 5-4 7-3l4 3c2 2 5 1 7 0s4-2 5-4c0-3-2-6-5-8l-11-9c-5-4-7-2-12 1-3 2-9 1-9 7z"/><path class="ac" d="M980 720a18 18 0 00-7 5c-3 6-1 12 1 18-7 2-9 13-5 19s14 8 21 5a24 24 0 0034 0 23 23 0 003-4l3-3a9 9 0 014 0 13 13 0 0010-5 21 21 0 004-12 26 26 0 011-6l2-4a17 17 0 00-3-16 21 21 0 00-15-8 19 19 0 00-15-10c-10-1-13 5-19 11-4 5-13 6-19 10z"/><path class="ad" d="M985 753c-3-6-4-13-1-18a19 19 0 016-6c6-3 15-4 20-9 6-6 9-12 18-11a20 20 0 0116 10 22 22 0 017 2 18 18 0 00-3-6 21 21 0 00-15-8 19 19 0 00-15-10c-10-1-13 5-19 11-4 5-13 6-19 9a19 19 0 00-7 6c-3 5-1 12 1 18-7 3-9 13-5 19a15 15 0 009 6c-1-6 2-11 7-13z"/><path class="ab" d="M1048 717a19 19 0 00-2-2 15 15 0 01-1 7l-2 4a26 26 0 000 6 22 22 0 01-4 11 13 13 0 01-11 6 9 9 0 00-3 0c-2 0-2 2-3 3a24 24 0 01-34 6 25 25 0 01-4-3c-5 2-12 2-17-2a13 13 0 002 9c5 6 14 8 21 5a24 24 0 0034 0 23 23 0 003-3l3-4a9 9 0 014 0c4 0 8-2 10-5a22 22 0 004-12 25 25 0 011-6l1-4a17 17 0 00-2-16z"/><path class="ac" d="M1027 711c-5 2-10 6-13 11s0 13 5 16c0 3 0 8 2 11 2 2 6 3 9 3 5 1 12 0 14-5a15 15 0 0024-7 33 33 0 011-5l2-3a10 10 0 00-8-15 12 12 0 00-6-9c-5-2-8 0-13 0-6 1-11 0-17 3z"/><path class="ab" d="M1071 723a10 10 0 00-4-5 10 10 0 01-1 3l-2 3a32 32 0 00-2 5 15 15 0 01-24 7c-2 4-8 5-14 5a19 19 0 01-5-1c0 3 0 6 2 9s6 3 9 3c5 1 12 0 14-5a15 15 0 0024-7 33 33 0 012-5l1-3a10 10 0 000-9z"/><path class="ae" d="M1451 309a58 58 0 00-6-2c-7-3-22-12-30-12-3 0-10 2-16 15-3 6-2 15-2 22 1 13 13 61 15 67 3 7 6 16 12 22l8-1-1-2c-6-12-14-49 5-54a52 52 0 018-3c6-3 13-5 19-9h1v-1h1c-1-5-3-10-6-14-4-6-13-5-20-5-5-1-9 1-11 3s-2 0-2-2c1-3 4-2 6-5 2-2 2-5 5-6 2-2 4 0 8-2 6-3 15 5 21 8a36 36 0 013 2 118 118 0 00-18-21z"/><path class="af" d="M1465 351h-1zM1464 352h-1z"/><path d="M1385 291c-10 5-18 12-27 18-8 7-18 12-25 20l-1 2c12-7 20-6 33-12l15-9c-6 19-2 52 6 68 1-5 2-10 0-25-1-9-3-23-2-29 3-10 11-20 17-28 8-10 17-4 20-2a149 149 0 0022 8l-6-4c-15-11-34-17-52-7z" fill="#bab2a8"/><path class="ah" d="M1421 294c-3-2-12-8-20 2-6 8-14 18-17 28-1 6 1 20 2 29 2 15 1 20 0 25-8-16-12-49-6-68l-15 9c-13 6-21 6-33 12-6 7-7 15-8 24 0 14-1 42 5 49a21 21 0 002 3c-2-5 1-10 4-16 6-11 12-22 22-30l7-12h1c-1 10-9 21-14 30l-8 15c-3 6-5 11-4 18a59 59 0 007 2c-1-7 4-13 10-16l14-6 10-2c9 0 11 5 17 12 3 2 7-2 8-6l5-4c-4-16-12-49-13-60 0-7-1-16 2-22 6-13 13-15 16-15 8 0 23 9 30 12a58 58 0 016 2l-8-7a149 149 0 01-22-8z"/><path class="af" d="M1367 330c-5 2-11 2-15 6-3 2-4 5-5 9-2 4-6 6-9 10-5 7-5 17-7 26 0 5-3 15 3 18a1 1 0 001 0c4-11 10-21 17-29 5-6 11-14 13-21 0-1 2-12 6-18 2-3-3-2-4-1z"/><path class="ae" d="M1364 349l-7 12c-10 8-16 19-22 30-3 6-6 11-4 16a29 29 0 008 5c-1-7 1-12 4-18l8-15c5-9 13-20 14-30h-1z"/><path class="af" d="M1410 392c-2 1-4 2-5 5s-5 7-8 5c-6-7-8-12-17-12l-10 2-14 6c-6 3-11 9-10 16l1 1c6-10 18-10 29-9 5 0 10 1 14 5 4 3 9 5 13 3s7 3 11 7h10c-6-6-9-15-12-22l-2-7zM1469 330a34 34 0 00-3-2c-6-3-15-11-21-8-4 2-6 0-8 2-3 1-3 4-5 6-2 3-5 2-6 5 0 2 0 4 2 2s6-4 11-3c7 0 16-1 20 5 3 4 5 9 6 14h-1v1h-1l-19 8a52 52 0 00-8 4c-19 5-11 42-5 54l1 2 8-1a72 72 0 0014-5c13-18 14-62 14-62 1-2 5-4 7-5l1 1v2c4 11 9 33 9 48a20 20 0 005-5s0-9-3-23-14-34-18-40z"/><path d="M1476 350v-2l-1-1c-2 1-6 3-7 5 0 0-1 44-14 62 9-3 19-1 24-3 6-3 10-7 9-10 1-14-7-40-11-51z" fill="#4f463f"/><path class="ae" d="M1403 415c-4 1-9-1-13-4-4-4-9-5-14-5-11-1-23-1-29 9a427 427 0 0067 6c-4-4-7-9-11-6z"/><path class="ah" d="M1469 346c-2 0-5-2-7-1-4 1-8 5-18 6-7 0-14 0-19 4-3 1-3 3-4 6-3 5-6 5-7 8s2 9 2 12h1c3-6 7-13 12-17 4-2 8-4 18-5 7-1 12-4 17-5 8-1 7-5 12-6-2-1-4-3-7-2z"/><path d="M1045 186c7-5 19-25 59-2 25 14 11 53 31 48 27-7 47 25 21 50s-38 20-66 6c-10-5-16-8-31-6s-21 24-50 27-74-31-51-49 25-28 18-46 29-42 44-27 18 4 25-1z" fill="#45dbe2"/><path d="M1105 277c-12 0-42-7-50-6s-32 8-38 20-55 6-56-11 5 2 17-20c11-20 12-28 12-33a6 6 0 01-3-3c-2-5 4-11 12-13s15-2 17 3a6 6 0 01-1 5h1c10 0 38-20 45-15s-19 11-10 17 32-7 39 1-20 7-14 13 23 1 26 6-6 5-2 8 10-2 15 2-23 6-19 11 21 15 9 15zm44-15c-2-5-11-6-20-3s-16 10-14 15 11 6 20 3 16-9 14-15z" transform="translate(1 1)" fill="url(#b)"/><path class="al" d="M1085 252c3-6 0-13-5-16-6-2-15 1-16 4 1 1 9 4 8 5l-9-3c-1 1-2 10 7 14a11 11 0 0015-4z"/><path class="am" d="M1064 243a33 33 0 013 1l6 2-4-4a24 24 0 01-4-2c1-3 9-6 14-3 6 3 8 9 6 14a11 11 0 01-7 6 10 10 0 01-8-1c-7-4-7-12-6-13z"/><path class="an" d="M1064 243l3 2c4 1 5 2 6 1 1-2-1-2-4-4a37 37 0 01-3-2c1-2 8-5 13-3 5 3 8 9 5 14a10 10 0 01-6 5 10 10 0 01-8-1c-6-3-6-10-6-12z"/><path class="ao" d="M1068 240c2-2 7-3 10-1 5 2 7 7 5 12a9 9 0 01-5 4 9 9 0 01-7-1 11 11 0 01-6-9l1 1c5 2 7 2 8 1v-1c2-2-1-4-4-5l-2-1z"/><path class="al" d="M1091 217c2-3 2-8-2-11-3-3-10-2-11 0l5 5-6-4c0 1-3 6 2 11a8 8 0 0011 0z"/><path class="am" d="M1077 208l3 1 3 2-2-2a16 16 0 01-2-3c1-1 7-2 10 0a8 8 0 011 11 7 7 0 01-5 3 7 7 0 01-5-2c-5-4-3-9-3-10z"/><path class="an" d="M1078 209l1 1 4 2c1-1 0-2-2-4l-2-2c2-1 7-2 10 1a7 7 0 011 10 7 7 0 01-5 2 7 7 0 01-5-1c-4-4-3-8-2-9z"/><path class="ao" d="M1081 207h7a6 6 0 011 9 6 6 0 01-4 2 6 6 0 01-5-1 8 8 0 01-2-7h1c3 2 4 3 5 2 1-2 0-3-2-5a13 13 0 01-1 0z"/><path class="al" d="M1011 262a12 12 0 0016 0c4-4 4-14 1-16-2 0-7 6-7 6-1-1 5-7 5-7 0-1-8-6-15 0-5 4-5 12 0 17z"/><path class="am" d="M1025 245a35 35 0 01-2 3l-3 4c1 1 2 0 4-2a22 22 0 013-3h1c2 2 2 11-2 14a11 11 0 01-15 0 12 12 0 01-3-8 9 9 0 013-7c6-6 13-3 14-1z"/><path class="an" d="M1025 245l-2 2c-3 3-4 4-3 5v1c1 1 2 0 5-3a36 36 0 012-2c2 2 3 10-1 13a10 10 0 01-15 0 11 11 0 01-3-8 9 9 0 013-7 11 11 0 0114-1z"/><path class="ao" d="M1027 250c1 3 1 8-2 10a9 9 0 01-13 0 10 10 0 01-3-7 8 8 0 013-6 10 10 0 0110-2v1c-4 4-5 5-3 7 2 3 4 1 7-2z"/><path class="al" d="M1024 226a8 8 0 00-6 10c2 4 7 7 10 5 0 0-2-5-1-6s2 6 2 6c1 0 6-3 5-10-1-4-6-6-10-5z"/><path class="am" d="M1030 241a21 21 0 01-1-3l-2-3v3a15 15 0 010 3c-2 1-7-2-8-5a8 8 0 015-10 8 8 0 016 1 7 7 0 014 4c1 6-3 9-4 10z"/><path class="an" d="M1030 240l-1-2-2-3-1 3 1 3c-2 0-7-2-8-5a7 7 0 015-9 8 8 0 016 0 6 6 0 013 5 8 8 0 01-3 8z"/><path class="ao" d="M1026 240c-2 0-5-2-6-5a6 6 0 015-7 7 7 0 015 0 5 5 0 012 4 7 7 0 01-2 7v-1l-3-4h-1c-2 0-1 2-1 5l1 1z"/><path class="ap" d="M1029 249a8 8 0 01-5-2 7 7 0 0110 0 8 8 0 01-5 2zM1019 249a8 8 0 01-5-3 7 7 0 0110 1 8 8 0 01-5 2z"/><path class="ap" d="M1021 251a8 8 0 013-5 7 7 0 01-1 11 8 8 0 01-2-6z"/><path class="ap" d="M1022 241a8 8 0 013-4 7 7 0 01-1 10 8 8 0 01-2-6z"/><path class="ap" d="M1029 245a8 8 0 01-5 2 8 8 0 012-5c2-2 5-2 5-2a8 8 0 01-2 5z"/><path class="ap" d="M1022 252a8 8 0 01-6 1 7 7 0 018-7 8 8 0 01-2 6z"/><path class="ap" d="M1025 252a8 8 0 01-1-5 7 7 0 016 7 8 8 0 01-5-2zM1019 244a8 8 0 01-2-5 7 7 0 017 8 8 8 0 01-5-3z"/><path class="aq" d="M1029 247a7 7 0 01-5 0 6 6 0 019-3 7 7 0 01-4 3zM1020 250a8 8 0 01-5-1 6 6 0 019-2 7 7 0 01-4 3z"/><path class="aq" d="M1023 252a7 7 0 011-6 6 6 0 012 9 7 7 0 01-3-3z"/><path class="aq" d="M1020 243a7 7 0 011-5 6 6 0 013 9 7 7 0 01-4-4z"/><path class="ar" d="M1028 244a7 7 0 01-4 3 7 7 0 010-6 8 8 0 014-3 7 7 0 010 6z"/><path class="ar" d="M1023 252a7 7 0 01-4 3 6 6 0 015-9 7 7 0 01-1 6z"/><path class="ar" d="M1027 251a7 7 0 01-3-4 6 6 0 018 4 7 7 0 01-5 0zM1019 246a7 7 0 01-3-4 6 6 0 018 5 7 7 0 01-5-1z"/><path class="as" d="M1025 246a2 2 0 01-1 1 2 2 0 010-2 2 2 0 011 0 2 2 0 010 1zM1024 248a2 2 0 01-1 0 1 1 0 011-1 2 2 0 010 1z"/><path class="as" d="M1024 247a1 1 0 011 0 2 2 0 01-1 0zM1023 247a2 2 0 01-1-1 1 1 0 012 0 1 1 0 010 1 2 2 0 01-1 0z"/><path class="as" d="M1025 247a2 2 0 01-1 0 1 1 0 011-1 1 1 0 011 0 2 2 0 01-1 1zM1023 247a2 2 0 01-1 0 1 1 0 012-1v1a2 2 0 01-1 0zM1024 248a2 2 0 010-1 1 1 0 010 1z"/><path class="as" d="M1023 246a2 2 0 010-1 1 1 0 011 1 1 1 0 010 1 2 2 0 01-1-1z"/><path class="at" d="M1024 246a1 1 0 010 1 1 1 0 010-1zM1024 247a1 1 0 01-1 1 1 1 0 010-1 1 1 0 011 0zM1024 247a1 1 0 011 0 1 1 0 01-1 0z"/><path class="at" d="M1023 247a1 1 0 010-1 1 1 0 011 0v1a1 1 0 01-1 0zM1024 247a1 1 0 011-1 1 1 0 01-1 1z"/><path class="at" d="M1023 247a1 1 0 010-1 1 1 0 011 1 1 1 0 01-1 0zM1024 247a1 1 0 010 1 1 1 0 010-1zM1023 246a1 1 0 010-1 1 1 0 011 1h-1z"/><path class="al" d="M957 293c3-4 11-8 11-8s-4 7-8 11a21 21 0 01-8 5 21 21 0 015-8z"/><path class="am" d="M955 295c7-9 2 1 2 1s10-6 1 2a13 13 0 01-6 3 16 16 0 013-6z"/><path class="an" d="M955 295c6-7 1 2 1 2s9-6 2 1a11 11 0 01-5 2 14 14 0 012-5z"/><path class="am" d="M957 295v1h1a72 72 0 00-5 5h-1a42 42 0 005-6z"/><path class="al" d="M954 287l14-3s-7 6-12 8a21 21 0 01-10 1 21 21 0 018-6z"/><path class="am" d="M952 288c10-5 1 2 1 2s11-2 0 2a13 13 0 01-6 0 16 16 0 015-4z"/><path class="an" d="M952 289c8-5 0 1 0 1s11-1 1 2a11 11 0 01-6 0 14 14 0 015-3z"/><path class="am" d="M954 289l-1 1h1a69 69 0 00-7 2l7-3z"/><path class="al" d="M963 298l3-13 1 13a29 29 0 01-3 10 29 29 0 01-1-10z"/><path class="am" d="M963 301c0-11 2-1 2-1s2-11 1 1a18 18 0 01-2 6 22 22 0 01-1-6z"/><path class="an" d="M963 301c1-10 1 1 1 1s3-11 2-1a15 15 0 01-2 6 19 19 0 01-1-6z"/><path class="am" d="M964 299l1 2v-2l-1 8a60 60 0 000-8z"/><path class="al" d="M958 281l7 4s-5 2-8 1l-6-3s3-2 7-2z"/><path class="am" d="M956 281c6 0 0 2 0 2s6 4-1 2a6 6 0 01-3-2 8 8 0 014-2z"/><path class="an" d="M956 282c5 0-1 1-1 1s6 4 0 2a5 5 0 01-3-2 7 7 0 014-1z"/><path class="am" d="M956 283v1a24 24 0 00-4-1 14 14 0 004 0z"/><path class="al" d="M966 293v-8l5 7c1 3-1 6-1 6s-3-2-4-5z"/><path class="am" d="M967 295c-3-6 2-1 2-1s1-7 2 0a6 6 0 01-1 4 8 8 0 01-3-3z"/><path class="an" d="M967 295c-2-6 2 0 2 0s1-7 2-1a6 6 0 01-1 3 7 7 0 01-3-2z"/><path class="am" d="M968 293l1 1v-1a24 24 0 001 4v1a14 14 0 00-2-5z"/><path class="al" d="M965 278v8s-3-5-3-8a11 11 0 010-6 11 11 0 013 6z"/><path class="am" d="M965 276c2 6-2 1-2 1s0 7-1 0a7 7 0 010-4 8 8 0 013 3z"/><path class="an" d="M965 276c1 5-2 0-2 0s0 7-1 1a6 6 0 011-4 7 7 0 012 3z"/><path class="am" d="M964 277l-1-1v1a34 34 0 00-1-4h1a20 20 0 001 4z"/><path class="al" d="M959 277l7 9-10-6a20 20 0 01-5-6 20 20 0 018 3z"/><path class="am" d="M957 276c7 5-1 2-1 2s6 7-1 0a12 12 0 01-3-4 15 15 0 015 2z"/><path class="an" d="M956 276c7 5-1 1-1 1s6 7 0 1a10 10 0 01-3-4 13 13 0 014 2z"/><path class="am" d="M957 278l-1-1v1l-4-4a41 41 0 005 4z"/><path class="au" d="M956 289a10 10 0 005 0 14 14 0 002-1 13 13 0 00-2 1 11 11 0 00-2 4 10 10 0 004-2 17 17 0 002-3 28 28 0 00-1 4 15 15 0 001 5 15 15 0 001-5v-2a5 5 0 002 2 5 5 0 000-3 9 9 0 00-2-3l1-1h-1 1-2a13 13 0 000-4 5 5 0 00-1-2 6 6 0 000 3 9 9 0 000 2 20 20 0 00-2-3 9 9 0 00-3-1 10 10 0 002 3h1a4 4 0 00-3 1 5 5 0 002 2 8 8 0 00-1 0 10 10 0 00-4 3zm10-3zm0-1z"/><path class="at" d="M969 284c-1 2-3 2-5 1s0-3 1-4 4-2 5-2 1 4-1 5z"/><path class="at" d="M969 284c-2 2-4 2-5 1s0-2 1-4 4-2 5-1 0 3-1 4z"/><path class="at" d="M970 282a2 2 0 110-2 2 2 0 010 2z"/><path class="at" d="M969 281l3-4-4 4h1z"/><path class="al" d="M981 309c-3-5-11-11-11-11s3 10 6 15a24 24 0 009 7 24 24 0 00-4-11z"/><path class="am" d="M983 312c-7-11-3 1-3 1s-10-9-2 2a15 15 0 006 5 18 18 0 00-1-8z"/><path class="an" d="M982 313c-5-10-1 1-1 1s-9-8-2 1a13 13 0 005 4 16 16 0 00-2-6z"/><path class="am" d="M980 312v1l-1-1a80 80 0 015 7l-4-7z"/><path class="al" d="M985 303c-5-3-15-5-15-5s7 7 12 11a24 24 0 0011 3 24 24 0 00-8-9z"/><path class="am" d="M988 306c-11-8-3 1-3 1s-12-4 0 3a15 15 0 007 1 18 18 0 00-4-5z"/><path class="an" d="M988 306c-9-7-1 2-1 2s-12-4-2 1a13 13 0 007 2 16 16 0 00-4-5z"/><path class="am" d="M985 306l1 1h-2a80 80 0 018 4l-7-5z"/><path class="al" d="M973 314l-1-15s-3 9-3 15a33 33 0 001 11 33 33 0 003-11z"/><path class="am" d="M972 318c2-13-1-2-1-2s-1-12-2 1a20 20 0 001 8 25 25 0 002-7z"/><path class="an" d="M972 318c2-11-1 0-1 0s-1-12-2 0a17 17 0 001 6 21 21 0 002-6z"/><path class="am" d="M971 316v1s0-2-1-1v8a69 69 0 011-8z"/><path class="al" d="M983 296c-4 0-10 3-10 3s6 3 10 3 6-3 6-3-3-3-6-3z"/><path class="am" d="M985 297c-8-1-1 2-1 2s-7 4 1 3a7 7 0 004-3 9 9 0 00-4-2z"/><path class="an" d="M985 297c-7-1 0 2 0 2s-7 3 0 2a6 6 0 003-2 8 8 0 00-3-2z"/><path class="am" d="M983 299h1l-1 1a28 28 0 015-1h-5z"/><path class="al" d="M971 308l1-9s-5 3-7 7 0 7 0 7 4-1 6-5z"/><path class="am" d="M969 310c4-6-2-2-2-2s0-8-2 0a7 7 0 000 5 9 9 0 004-3z"/><path class="an" d="M969 310c4-6-2-1-2-1s0-8-2-1a6 6 0 000 4 8 8 0 004-2z"/><path class="am" d="M968 308l-1 1v-1a29 29 0 01-2 4l3-4z"/><path class="al" d="M974 291l-1 9s4-4 5-8a13 13 0 001-6 12 12 0 00-5 5z"/><path class="am" d="M975 289c-3 7 2 1 2 1s-1 8 2 0a8 8 0 000-4 10 10 0 00-4 3z"/><path class="an" d="M976 289c-3 6 1 0 1 0s-1 8 1 1a7 7 0 000-4 9 9 0 00-2 3z"/><path class="am" d="M976 291l1-1v1a39 39 0 012-5h-1a23 23 0 01-2 5z"/><path class="al" d="M982 292l-10 8s8-2 12-5a23 23 0 007-6 23 23 0 00-9 3z"/><path class="am" d="M985 291c-10 4 0 2 0 2s-8 7 1 1a14 14 0 004-4 18 18 0 00-5 1z"/><path class="an" d="M985 291c-8 4 1 1 1 1s-8 7 0 2a12 12 0 004-4 15 15 0 00-5 1z"/><path class="am" d="M984 293l1-1-1 2 6-4a47 47 0 01-6 3z"/><path class="au" d="M979 302a10 10 0 00-1-1 5 5 0 003-2 5 5 0 00-4-1h1a12 12 0 004-4 11 11 0 00-5 2 22 22 0 00-3 2 11 11 0 001-2 7 7 0 001-3 6 6 0 00-3 2 15 15 0 000 4h-2 1-1v1a11 11 0 00-2 3 5 5 0 000 3 6 6 0 002-1 20 20 0 000 2 17 17 0 000 6 17 17 0 002-6 31 31 0 000-4 20 20 0 001 3 11 11 0 004 4 12 12 0 00-1-6 17 17 0 00-2-1 16 16 0 002 1 11 11 0 005 2 12 12 0 00-3-4zm-7-2zm0 0z"/><path class="at" d="M969 298c1 2 3 3 5 2s1-3 0-6-4-3-5-2-1 3 0 6z"/><path class="at" d="M969 298c2 2 4 3 5 2s1-3 0-5-4-3-5-2-1 3 0 5z"/><path class="at" d="M969 295a2 2 0 100-2 2 2 0 000 2zM970 294l-3-5 3 5zM968 303c2 1 4 0 4-1s-1-3-3-3-4 0-4 1 1 3 3 3z"/><path class="at" d="M969 303l3-1c0-1-1-3-3-3l-3 1c0 1 1 3 3 3z"/><path class="at" d="M967 302a1 1 0 10-1-1 2 2 0 001 1zM967 301l-5-1 5 1z"/><path class="ac" d="M699 435c14-12 31-6 68 12s49 17 60 18 43 29 61 32 23 5 23 5l5 11s-6 12-47 14-62-4-92 15-59 19-95 13-52-9-60-13 15-14 50-11 46-3 41-7-13 2-38 0-64-17-64-17 74-59 88-72z"/><path d="M888 497c-18-3-50-31-61-32s-23-1-60-18l-19-9c1 0 34 18 43 25 9 8 11 17 28 22a43 43 0 0128 25c3 7-25 4-42 12s-34 24-49 31a108 108 0 0021-11c30-19 50-12 92-15s47-14 47-14l-5-11-23-5z" style="mix-blend-mode:multiply" fill="#7ebb15"/><path class="aw" d="M707 498c14-4-7-6-20-10s-17-11-1-12 16-6 11-9-10-15 4-15 10-12 9-16c0-4 5-7 5-7a24 24 0 00-16 6c-14 13-88 72-88 72s19-8 34-9 48 5 62 0zM730 532c2-12-14-11-27-9 5-1 8-1 10 1 5 4-6 11-41 7-20-2-36 1-45 4a242 242 0 0150 4c28 4 52 5 53-7z"/><path class="ax" d="M321 689l49-4 30 11h12l80 30 57-11 22-12 16-8v-6l-42-33-50-19-39-19-21-3-35 18-33 24-33 9-13 15v8z"/><path class="ay" d="M321 683l49-4 30 11h12l80 30 57-11 22-12 16-8-2-9-40-30-50-19-39-19-21-3-35 18-33 24-33 9-13 15v8z"/><path class="ax" d="M367 651l11 10 32 4 40 12 23 12 39-3 29-16 22-6 1-15-11-8-62-21-28-11-30-3-36 14-16 13-14 7v11z"/><path class="ay" d="M367 644l11 11 32 3 40 12 23 12 39-2 29-17 22-6 1-8-11-14-62-21-28-11-30-4-36 14-16 14-14 6v11z"/><path class="az" d="M476 656l-21-8-14 4v3l11 6 19 3 8 4h7l9-3 1-4-13-4-7-1zM424 619l-15 2-5 5 2 4 7 1 3-3 7-2 4-5-3-2z"/><path class="ax" d="M435 632l4-20 13-13 2-8 29-3 34 5h27l7 8 2 5 7 38-7 3-13 2-28-3-34 3-22-10-17-2-4-5z"/><path class="ba" d="M454 591l1 9 30 15 30-9 8 3 11-3 4-4 4 1 9-2-7-8h-27l-34-5-29 3z"/><path fill="#898989" d="M515 606l-30 9 2 13-2 6v7l-3 6-4 2 34-3-2-18 2-7-3-3 3 1 3-9v-4z"/><path class="ba" d="M540 646l-2-5-9-3-4-6-2-8 6-8-8 8-1 14-8 8 28 3 13-2-13-1z"/><path class="bc" d="M456 639l4-10v-7l3-4 1-4h1l2 9-1 7 1 4-1 3 1 7-11-5z"/><path class="ba" d="M448 609l1-4 6-5-1-9-2 8-13 13-4 20 5-18 8-5z"/><path class="bd" d="M471 601l14 7 11-2h8l1-3-8-7-9 2-7-4-9 3-1 4z"/><path class="az" d="M495 597l-7 1-7-4-9 3-1 4 2 1 1-3 8-2 4 2 9-2z"/><path class="ax" d="M469 656l-21-8-14 4v3l11 6 19 3 15 4 9-3 1-4v-2l-13-2-7-1z"/><path class="bd" d="M469 654l-21-8-14 4v3l11 6 19 3 15 4 9-2 1-5-13-4-7-1z"/><path class="ax" d="M423 619l-17 2-5 3v1l1 5 8 1 3-4 7-2 3-4v-2z"/><path class="bd" d="M421 616l-15 3-5 5 1 4 8 1 3-4 7-2 3-4-2-3z"/><path class="ax" d="M538 680l-20 12-9 2v4l10 5 22 1 12-10 9-2 3-11v-3l-11 1-8 5-7-2-1-2z"/><path class="bd" d="M537 678l-19 10-9 3v4l10 4 22 2 12-10 9-3 3-10-11-2-8 5-7-2-2-1z"/><path class="az" d="M410 658v7l29 8-29-7-31-5v-6zM473 682v7l34 1 11-2 11-6 10 2 7-3 8-5 9-8h6l-6-4 1-15-1 8-22 6-29 17-39 2zM575 680h-10v-2l-3 10-9 3-12 10v3l9-3 7-2 8-4 7-10 4-2-1-3zM478 649l29-2 17 2h16l-28-3-2-18 2-7-3-3 3 1 3-9v-4l-30 9 2 13-2 6v7l-3 6-4 2z"/><path style="mix-blend-mode:multiply" fill="#c6c6c6" d="M523 609l8 1-2 6-6 8 2 8 4 6 9 3 2 5 13 1 10 1-3-4-7-38-2-5-9 2-4-1-4 4-11 3z"/><path class="az" d="M481 594l-4 5v4l4 4-10-6 1-4 9-3z"/><path class="bc" d="M448 609l1 8 2 6v16h1l2-13v-8l3-5 2-5 3-3 4 1-11-6-6 5-1 4z"/><path class="az" d="M400 690v6l17 2 2-6-7-2h-12z"/></g></svg>