<svg xmlns="http://www.w3.org/2000/svg" xmlns:xlink="http://www.w3.org/1999/xlink" viewBox="0 0 1501 1001"><defs><radialGradient id="a" cx="245.4" cy="1023.9" r="51.8" gradientTransform="matrix(1 0 0 -1 -135 1519)" gradientUnits="userSpaceOnUse"><stop offset="0" stop-color="#c0a373"/><stop offset="1" stop-color="#fff" stop-opacity="0"/></radialGradient><linearGradient id="b" x1="895.7" y1="985.8" x2="895.7" y2="891.1" gradientTransform="matrix(1 0 0 -1 -146 1444)" gradientUnits="userSpaceOnUse"><stop offset="0" stop-color="#a0edf0"/><stop offset="1" stop-color="#45dbe2"/></linearGradient><style>.c{isolation:isolate}.b{fill:#70b344;stroke:#5f732e}.aa,.at,.b,.t,.u,.x,.y{stroke-miterlimit:10}.c{opacity:.25}.d{fill:#5c4328}.aa,.d,.e,.f,.g,.h,.i,.j,.k,.l,.m,.n,.o,.p,.q,.x,.y{fill-rule:evenodd}.e{fill:#544730}.f{fill:#877657}.g{fill:#ae9c87}.h{fill:#68543c}.i{fill:#9d8264}.j{fill:#b49871}.k{fill:#8f7e5f}.l{fill:#857c68}.m{fill:#a59b84}.n{fill:#67604f}.o{fill:#bdb29a}.p{fill:#c1b09a}.q{fill:#cdb186}.s{fill:#ddc02c}.t,.u{fill:#3f2b0f}.aa,.at,.t,.u,.x,.y{stroke:#1d150c}.u{stroke-width:1.14px}.x,.y{fill:#571c10}.y{stroke-width:1.04px}.aa{fill:#c0a373}.ab{fill:#78a015}.ac,.aw{fill:#7ebb15}.ad{fill:#94d31a}.ae{fill:#897d6f}.af{fill:#635a52}.ah{fill:#91887b}.al{fill:#8ab550}.am{fill:#97c261}.an{fill:#a9d171}.ao{fill:#b3db7b}.ap{fill:#dcf5f5}.aq{fill:#f2ffff}.ar{fill:#fff}.as{fill:#fddfb3}.at{fill:#1d150c}.au{fill:#81a653}.az{mix-blend-mode:multiply}.aw{mix-blend-mode:screen}.ax{fill:#bdbdbd}.ay{fill:#d9d9d9}.az{fill:#cfcfcf}.ba{fill:#cbcbcb}.bc{fill:#c6c6c6}.bd{fill:#e8e8e8}</style></defs><g style="isolation:isolate"><path class="b" d="M1001 501h250v250h-250zM1251 251h250v250h-250zM1001 251h250v250h-250zM1001 1h250v250h-250zM1251 1h250v250h-250zM751 251h250v250H751zM751 1h250v250H751zM751 501h250v250H751zM501 251h250v250H501zM251 251h250v250H251zM501 501h250v250H501zM251 501h250v250H251zM751 751h250v250H751zM251 751h250v250H251zM1001 751h250v250h-250zM501 1h250v250H501zM1251 501h250v250h-250zM1251 751h250v250h-250zM501 751h250v250H501zM251 1h250v250H251zM1 1h250v250H1zM1 751h250v250H1zM1 251h250v250H1zM1 501h250v250H1z"/><use class="c" transform="rotate(2 -22182 22291) scale(.09)" xlink:href="#c"/><path class="d" d="M854 749v-22l-1-11a13 13 0 00-6-7c-7-4-14-2-22-2a75 75 0 01-11-1 34 34 0 00-6 0 39 39 0 00-5 1 23 23 0 01-6 0l-6-1-11-1a3 3 0 00-1 0l-24-1-12-1-12 1a4 4 0 000 1 31 31 0 00-6-1 35 35 0 01-7-1 37 37 0 00-7-1h-7l-8 1a12 12 0 00-5 0 7 7 0 01-1 2l-1 8c-1 2-4 5-6 3l-1 1a7 7 0 011 2 22 22 0 010 5c-1 3 1 7 2 10a2 2 0 01-1 2v1a2 2 0 010 2 10 10 0 01-2 4 28 28 0 00-1 4 12 12 0 000 3 19 19 0 002 6 5 5 0 004 0 22 22 0 0110-1l12 2 24 1 25 1 50 1 25 1h12a8 8 0 006-2 8 8 0 002-5v-2c0 1 0 0 0 0a3 3 0 001-3z"/><path class="e" d="M725 703c-5 0-9-2-9 3l-1 6c0 3 8 3 10 3 1 0 11 1 12-1 0-2 1-9-1-10-2-2-6-1-8-1zm0 0h3c2 0 6-1 8 1 2 1 1 8 1 10s-10 1-12 1-10 0-10-3l1-6c0-5 4-3 9-3z"/><path class="f" d="M725 703c-5 0-9-2-9 3 0 6-6 8 8 9 2 0 13 1 13-1v-7c0-3 0-3-3-4a9 9 0 00-4 0 42 42 0 01-5 0z"/><path class="g" d="M725 703h-8a3 3 0 00-1 3l1 4c2 2 0 3 5 3 2 0 8 2 9 0s3 5 5-2c1-1 0-6-1-8h-1a9 9 0 00-4 0 42 42 0 01-5 0zm7 2v1h-3l3-1zm2 5v1c-2-2 0-1 0-1zm-17 0l2 4c1 1-3 0-3-2l1-2z"/><path class="h" d="M771 708v9c1 0 5 3 6 0v-11c-1-1-7-5-6 2zm0 0c-2-6 4-5 6-3v12c-1 3-4 1-6 0v-9z"/><path class="i" d="M771 708v9c2 1 3 2 5 1l1-7c1-1 1-5-1-6-4-2-6-1-5 3z"/><path class="j" d="M778 709l-1-4c-3-2-5-1-6 0a15 15 0 010 2l1 6c-1 4 1 2 2 3a2 2 0 002 0l1-4a22 22 0 001-3z"/><path class="h" d="M683 733l-2 9c0 1 4 4 5 2s4-10 3-12c0 0-5-5-6 1zm0 0c0-6 5-3 6-1s-1 10-2 12c-2 3-5 0-6-1s1-8 2-10z"/><path class="i" d="M683 733l-2 7v3c2 1 2 2 5 2l2-7c1-1 2-5 1-6-3-4-6-3-6 1z"/><path class="j" d="M689 736v-4c-2-3-4-3-5-1a17 17 0 01-1 1l-1 7c-1 3 1 2 2 3a2 2 0 002 0l2-3a21 21 0 001-3z"/><path class="e" d="M774 747l-15-2c-4 0 1-15 6-12l4 1 8 1-2 7-1 5zm0 0l1-5c0-1 2-6 1-7l-3-1-8-1c-5-3-9 12-6 12 7 0 7 2 15 2z"/><path class="k" d="M774 747c-7 1-9-2-15-2-3 0 1-16 7-11h7c4 1 4-1 3 7l-2 6z"/><path class="g" d="M758 743c0-5 3-13 8-9h7c2 1 4 0 4 2a2 2 0 01-1 0c-4 0-3 2-2 3a3 3 0 002 0v2a29 29 0 01-1 4 5 5 0 01-3-1c0-1-1-8-1 1-4 0-3-5-3-5 1-8-1-3-3-1-4 7 1-3 1-3-1-2-3 2-3 3-3 4-4 4-5 4z"/><path class="h" d="M805 748c-3 1-10 2-9-3l1-5c-1-4 2-3 6-4 2 0 12-2 12 0 0 3 1 9-2 11a29 29 0 01-4 0l-4 1zm0 0l4-1 5-1v-10c0-2-11 1-13 1-7 0-2 1-4 6-2 7 3 6 8 5z"/><path class="i" d="M805 748c-2 0-11 3-8-5 1-4-3-6 4-6 3 0 13-3 14-1 0 14-1 9-9 12a4 4 0 01-1 0z"/><path class="j" d="M804 736h3a6 6 0 010 2c-1 1 3 4 5-2v-1l3 1v3a19 19 0 00-2 4c0 2-4 4-7 3-1 0-10 3-7-2-1-2-1-3 2-5-1-3 0 0 3-3z"/><path class="h" d="M848 734c-3 0-10 2-9-4l1-5c-1-3 2-2 6-3 2 0 12-3 12 0 0 2 1 9-2 10a31 31 0 01-4 1l-4 1zm0 0l4-1 5-1 1-10c-1-2-11 0-13 1-8 0-3 1-5 6-2 7 3 5 8 5z"/><path class="i" d="M848 734c-2 0-11 2-8-5 2-4-3-7 4-7 4 0 14-2 14 0 0 13-1 9-9 12a4 4 0 01-1 0z"/><path class="j" d="M847 722h4a5 5 0 01-1 2c0 1 3 4 5-3l3 1v3a19 19 0 00-1 3c-1 3-5 5-8 4-1-1-10 3-7-2-1-3-1-3 2-6-1-2 1 1 3-2z"/><path class="e" d="M723 741c3-7 4-9-7-10-7 0-5 2-7 6l2 4c2 2 10 1 12 0zm0 0h-12l-2-4c1-5 0-7 7-6 11 1 11 3 7 10z"/><path class="l" d="M723 741c1-4 5-8-3-9-12-2-9 0-11 7l2 2h12z"/><path class="m" d="M725 736c0-2 0-4-5-4-10-2-10-1-10 4a1 1 0 000 1c7 0 3 2 9 1l2-1c1 2 3 1 4-1zm-5-3c1 0 2 2 0 1-8 0-6-2 0-1z"/><path class="e" d="M854 746c3-7 4-8-6-9-8-1-6 1-7 6-1 2-1 2 1 3 2 2 10 2 12 0zm0 0c-2 2-11 2-12 1l-2-4c1-5 0-7 8-6 10 1 10 2 6 9z"/><path class="l" d="M854 746c1-3 5-8-2-9-13-1-10 0-12 7l2 3c1 1 10 1 12-1z"/><path class="m" d="M856 741c1-2 0-3-4-4-11-1-10 0-11 5 7 1 3 3 9 2l2-1c1 1 3 0 4-2zm-5-2c1 0 2 1 0 1-7-1-6-2 0-1z"/><path class="e" d="M779 739h14c2-1-2-5-5-5h-4c-6 0-3 0-6 3-1 1 0 1 1 2zm0 0c-1-1-2-1-1-2 2-3 0-3 6-3h4c4 0 8 4 5 5s-10 1-14 0z"/><path class="k" d="M779 739c7 1 18 1 14-3-4-3-4-2-9-2-6 0-3 1-6 3-1 1 0 1 1 2z"/><path class="g" d="M794 738l-1-2c-4-3-4-2-9-2-6 0-3 1-6 3h8c7 4 1-2 6 0a4 4 0 002 1z"/><path class="h" d="M721 719c-3 1-5-2-6 3l-1 5c0 2 6 2 7 2 4 1 6 2 7-3v-8c-1-1-5 1-7 1zm0 0c2 0 6-3 7-1v8c-1 5-3 4-7 3-2 0-7 0-7-2l1-5c1-5 3-2 6-3z"/><path class="j" d="M721 719c-3 1-6-2-6 4 0 1-4 6 5 6 2 0 9 4 8-7 0-3 2-6-5-3h-2z"/><path class="i" d="M721 719c-2 1-5-1-6 2a5 5 0 010 1v1l-1 3c2 1 10 0 11 2s2-1 3-2a18 18 0 000-4 3 3 0 00-3 0c-2 0-3-1-3-3a5 5 0 00-1 0z"/><path class="e" d="M707 745l-14-2c-4 0 0-15 6-12l3 1 7 1c1 1-1 6-1 7l-1 5zm0 0l1-5 1-7-4-1-7-1c-5-3-8 11-5 12l14 2z"/><path class="l" d="M707 745c-7 1-9-2-14-2-4 0 0-16 6-11h7c4 1 4-1 2 7l-1 6z"/><path class="m" d="M693 734c2-3 4-4 6-2h6c4 1 5 0 4 4a7 7 0 01-2 0c-2-1-5 1-5 2-2 4-2 0-3 2 0 1-5 0-4-2l-2-4zm15 5a16 16 0 00-3-1c-2 0-1 2-2 3s0 3 3 2a13 13 0 002-1v-3z"/><path class="n" d="M828 734l-14-2-2-7c1-6 11-5 15-5 3 1 12 1 12 5l-1 5-6 2-4 2zm0 0l4-2c2-1 6 0 7-2a56 56 0 000-5c0-5-17-5-20-5-8 1-9 6-5 12 0 2 12 2 14 2z"/><path class="l" d="M828 734l-14-2s-8-12 8-12c3 0 17 0 17 5-1 7 2 6-6 7l-5 2z"/><path class="m" d="M813 730c-1-3-3-9 6-10l2 1a3 3 0 003-1c5 0 13 1 15 4-2 0 3 5-9 7-4 0-2-2-2-3 2-5-2 2-3 2-5 3-4-5-8-1l-4 1z"/><path class="e" d="M777 746c5 1 14 4 17 3 3-2-1-7-4-8h-5c-8-2-5-1-8 2v3zm0 0v-3c3-3 0-4 8-3l5 1c3 1 8 7 4 8s-12-1-17-3z"/><path class="k" d="M777 746c8 3 22 6 17-1-3-5-4-4-9-5-8-1-5 1-8 3v3z"/><path class="g" d="M794 745c-3-5-4-4-9-5h-2a2 2 0 01-2 1 3 3 0 00-2 2c2 4 7-2 11 1 0 3-5 1-6 1 0 2 9 2 9 2 1 1 1-1 1-2z"/><path class="e" d="M842 718c4 1 12 3 13-1 0-3-6-11-9-11l-3 1c-6 0-3 1-3 7l2 4zm0 0l-2-4c-1-6-4-7 3-8h3c3 0 11 8 9 12s-9 1-13 0z"/><path class="k" d="M842 718c7 3 18 2 10-7-6-7-5-5-9-5-7 0-3 2-3 8l2 4z"/><path class="g" d="M852 710c-6-6-6-4-9-4a13 13 0 00-2 0v2c-2 0 0 5 0 5 4 5 3-6 8-2 2 5-2 3-3 4 1 3 7 0 7 0l-1-5z"/><path class="h" d="M783 718l-4-2c-2-1 0 1-1 2v2l2-1h2a3 3 0 002-1h-1zm0 0c2 0 0 1-1 1a1 1 0 01-1 0l-2 1c-3 1-1-1-1-2s-1-4 1-2l4 2z"/><path class="i" d="M783 718l-4-2c-2-2-1 2-1 2v2l3-1h1c1 0 3-1 1-1z"/><path class="h" d="M782 720l-1 1c-1 2-2 6-4 2-1-1-3-2-1-3s0 2 4 0h2c0-1 0-1 0 0zm0 0a3 3 0 00-2 0s-3 2-3 0c-1 0-2 1-1 2s2 5 4 1l2-3zm0-1v1z"/><path class="i" d="M782 720h-2s-3 2-3 0c0 0-3 1-1 2 1 1 2 5 4 1a21 21 0 012-3v-1z"/><path class="h" d="M752 717h7c4 0 0 2-2 2l-5-2zm0 0c5 1 5 2 9 0a4 4 0 00-2 0h-7z"/><path class="k" d="M752 717h9c-4 3-5 1-9 0z"/><path class="h" d="M690 737c1 1 0 6-1 8 0 4-2-1-1-3l2-5zm0 0c-2 5-3 5-1 9a4 4 0 000-1c0-2 2-6 1-8z"/><path class="k" d="M690 737c1 1-1 6-1 7v2c-2-4-1-5 1-9z"/><path class="h" d="M799 734c1 0 2 0 1 2s-4-1-8-2c-2 0-4-1 1-1l6 1zm0 0a21 21 0 01-6-1c-6-1-3 2-1 2l6 1c3 1 4-3 1-2z"/><path class="k" d="M799 734s2-1 1 1c-1 3-4-1-8 0-2 0-5-3 1-2a18 18 0 006 1z"/><path class="h" d="M794 740a25 25 0 00-3 1c1 1 2 0 4 3l-1-4zm0 0c1-1 3 8 0 4-2-2-7-4 0-4z"/><path class="k" d="M794 740h-3l1 2c3 1 3 4 4 2l-2-4z"/><path class="h" d="M853 748a21 21 0 00-3 1c2 1 2 0 4 3a2 2 0 001 1l-2-5zm0 0c2-1 4 8 1 4-2-2-7-4-1-4z"/><path class="k" d="M853 748l-3 1 2 1c2 1 3 4 3 2l-2-4z"/><path class="h" d="M788 751l1 3h3s7-2 5-3c-1-1-6-2-7-1a5 5 0 00-2 1zm0 0c2-2 5-1 7 0 4 0-1 2-2 2l-3 1-2-3z"/><path class="i" d="M788 751l2 3 4-1c1 0 5-2 1-3-1 0-5-2-7 1z"/><path class="e" d="M700 729h8l7 1-16 1c-2-1-2-1 1-2zm0 0c-2 1-3 1-1 1h16l-5-1a22 22 0 00-3 0h-7z"/><path class="l" d="M700 729h8a19 19 0 004 1c3 0 4 1-2 1l-11-1s-2 0 0-1h1z"/><path class="h" d="M728 732a22 22 0 00-3-1l1 5a2 2 0 000 1l2-5zm0 0c1 1-3 9-3 4 1-3-2-8 3-4z"/><path class="k" d="M728 732l-3-1v2c1 2 0 5 1 4l2-5z"/><path class="h" d="M724 745a23 23 0 003 1c0-2-2-2-2-6a4 4 0 000-1s-2 5-1 6zm0 0c-2-1 2-11 2-5 0 4 3 10-2 5z"/><path class="k" d="M724 745l3 1-1-3c-1-2 1-6-1-4 0 0-2 5-1 6z"/><path class="n" d="M717 718l4-2 4-1c2 0 3 1 1 1a50 50 0 01-5 3c-1 0-3 1-4-1zm0 0c1 2 3 0 4 0l6-2a7 7 0 00-2 0h-4l-4 2z"/><path class="l" d="M717 718l4-2 4-1s4 0 0 2a13 13 0 01-2 1l-2 1a3 3 0 01-2 0l-2-1z"/><path class="e" d="M718 730c1-1 2 0 4 1 2 0 2 1-1 1 0-1 1-1-1-1 0 0-5 0-4-1h1zm0 0h-2l5 1a2 2 0 002 0h-1l-4-1z"/><path class="k" d="M718 730c1-1 3 1 4 1s2 1-1 1l-1-1a24 24 0 00-3 0c-2 0-1-2 0-1z"/><path class="e" d="M693 744c1-1 3 1 5 1 1 0 1 2-1 1l-2-1s-5 0-4-1h2zm0 0h-1c-2 1 4 1 4 1a2 2 0 002 1v-1l-5-1z"/><path class="k" d="M693 744c1-1 3 1 5 1 1 0 2 1-1 1l-2-1h-2c-2 0-2-2 0-1z"/><path class="h" d="M692 729a43 43 0 000 5c1 0 1-3 4-4l-3-1h-1zm4 1zm-4-1h3l1 1-4 4v-5z"/><path class="i" d="M692 729l-1 3c0 1 0 4 1 2l4-4-1-1h-3z"/><path class="h" d="M752 732h3l1 1a10 10 0 003 0l-1 4c-1 0 0-2-4-4l-2-1zm0 0l4 2 2 3s2-3 1-4a9 9 0 01-3 0l-1-1h-3zm6 5"/><path class="i" d="M752 732h3l1 1a6 6 0 003 0v3c-1 2-2-2-3-2a10 10 0 00-4-1v-1z"/><path class="h" d="M754 730l4 2 1 1c1-1-1-1-1-2-2-2-1-2-4-1zm0 0a3 3 0 011 0c1-1 2-2 2 0l3 2c0 2-2 0-2 0-1 1-3-1-4-2z"/><path class="i" d="M754 730l3 2 2 1v-1c-2-1-2-4-3-3l-2 1z"/><path class="e" d="M730 716l-1 3v1l2-3a3 3 0 001-1h-2zm-1 4l1-4h1c3 0 0 1 0 1l-2 3 1-4z"/><path class="k" d="M730 716l-1 3c0 2 2-2 2-2 1 0 2-1 0-1h-1z"/><path class="e" d="M715 715l-1 4 2-3a3 3 0 001-1h-2zm-1 4l1-4h1c3 0 0 1 0 1l-2 3s-1-4 1-4z"/><path class="k" d="M715 715l-1 3c0 3 2-2 2-2 1 0 2-1 0-1h-1z"/><path class="h" d="M728 728c1 1-2 2 1 3 2 1-1-3-1-3zm0 0c1-1 2 2 2 2 1 2 0 2-1 2-3-2-1-3-1-4z"/><path class="i" d="M728 728c0 1-2 2 1 4 0 0 2 0 1-1l-2-3z"/><path class="e" d="M775 733l3-3c1-2 1-1 3 0l1 2-3 2c-1 2-2 0-3 0 0 0-2 0-1-1zm0 0c-1 1 1 1 1 1h3l2-2-1-1c-1-2-1-2-2-1-1 3-2 2-3 3z"/><path class="k" d="M775 733l3-3c1-2 1-1 2 1l1 1c1 1-2 1-2 2h-3s-2 0-1-1z"/><path class="e" d="M756 746c3 2 1 5 3 2 1-1 4 0 3-2h-6zm0 0s0-2 2-1l4 1c2 2-2 2-2 2-3 4-1 0-4-2z"/><path class="k" d="M756 746c2 1 2 6 3 2 1-1 4 0 3-2h-4c-1-2-2 0-2 0z"/><path class="e" d="M775 747h3c5 1 6 3 3 2l-3-1c-3 0-4 1-3-1zm0 0v1h5l2 1a18 18 0 00-4-2h-3z"/><path class="k" d="M775 747h3s6 1 4 2a7 7 0 00-2-1h-5v-1z"/><path class="h" d="M814 748h3l2 1a9 9 0 002 0c2 0 0 4-1 4s0-2-3-4l-3-1zm0 0l4 2 2 2 1-3a8 8 0 01-2 0l-2-1h-3zm6 4"/><path class="i" d="M814 748h3l2 1h2c2 0 0 3 0 3-1 2-2-2-3-2a10 10 0 00-3-1l-1-1z"/><path class="h" d="M839 733l-1 2-2 1c-1 0-8 0-6-2l7-2a7 7 0 012 1zm0 0a1 1 0 01-1-1c-2-1-4 1-7 2s2 1 4 1h3l1-2z"/><path class="i" d="M839 733l-1 2h-5c-1 0-6 0-2-1 2-1 5-3 7-2l1 1z"/><path class="h" d="M830 750c0-2 6-1 7-1 4-1-1 2-3 2l-5-1h1zm0 0c4 0 5 1 8-1a5 5 0 00-1 0l-7 1z"/><path class="k" d="M830 750l6-1h2c-3 2-4 1-8 1-1 0-1 0 0 0z"/><path class="h" d="M834 720h7c4 0-1 2-3 2l-4-2zm0 0c4 1 5 2 8 0a4 4 0 00-1 0h-7z"/><path class="k" d="M834 720h8c-3 3-4 1-8 0z"/><path class="h" d="M857 736c0 2-6 0-7 0-4 0 1-2 3-2l4 2zm0 0c-4-1-4-2-8 0a4 4 0 001 0h7z"/><path class="k" d="M857 736h-7-1c3-3 4-1 8 0 1 0 0 0 0 0z"/><path class="e" d="M708 746h14c2-1-1-4-4-4h-4c-6 0-4 0-6 2v2zm0 0v-2c2-2-1-2 6-2h4c3 0 7 3 4 4s-10 0-14 0z"/><path class="l" d="M708 746c7 1 19 1 14-2-3-2-4-2-8-2-7 0-4 1-6 2v2z"/><path class="m" d="M723 745l-1-1c-3-2-4-2-8-2-7 0-4 1-6 2h7c7 4 2-1 6 1a4 4 0 002 0z"/><path class="n" d="M809 733l3-1 3 2 1 1a36 36 0 01-5 0s-2 0-2-2zm0 0l2 1h5a4 4 0 00-1 0l-3-2-3 1z"/><path class="l" d="M809 733l3-1 3 2s3 1 0 0a11 11 0 01-2 1h-2a2 2 0 01-1-1l-1-1z"/><path class="n" d="M811 729l-1 2h1l2 1-1-2v-1a2 2 0 00-1-1v1zm0 0a1 1 0 000-1l1 1 1 2c1 2-1 1-2 0h-1l1-2z"/><path class="l" d="M811 729l-1 2c-1 2 1 0 1 0l2 1-1-2v-1l-1-1a1 1 0 010 1z"/><path class="n" d="M810 720l3 1c1 1 3-1 4-1s2-1 0-1a40 40 0 00-5 0l-2 1zm0 0l2-1h6a6 6 0 01-1 1l-4 1-3-1z"/><path class="l" d="M810 720l3 1c1 1 3-1 4-1 0 0 3-1-1-1a11 11 0 00-2 0h-2a3 3 0 00-1 0l-1 1z"/><path class="h" d="M808 734a22 22 0 00-3 0s-4 0-3 1a6 6 0 003 1s5-1 3-2zm0 0c2 1-2 2-3 2a6 6 0 01-4-1l4-1a9 9 0 013 0z"/><path class="i" d="M808 734h-2a3 3 0 00-1 0 15 15 0 00-3 1h1a4 4 0 002 1c3-1 4-1 3-2z"/><path class="h" d="M817 744a24 24 0 00-2 2l5 2c1-1-2-4-3-4zm0 0c1 0 6 7 2 4-2-1-8-1-2-4z"/><path class="k" d="M817 744l-3 2 3 1c2 0 4 3 3 1l-3-4z"/><path class="n" d="M740 717c-6 0-9-1-10 6-1 3-1 9 4 7 3-1 5 1 9 1l4-1c7 1 9-1 9-8 0-4-4-4-7-4a31 31 0 00-9-1zm0 0l9 1c3 0 7 0 7 4 0 7-2 10-9 9h-13c-5 1-5-5-4-8 1-7 4-6 10-6z"/><path class="l" d="M740 717l-7 1c-4 1-5 15 1 13 3-2 6 1 10 0 2-1 12 3 12-9 0-2 0-3-4-4l-12-1z"/><path class="m" d="M740 717a12 12 0 01-1 0c-2 5-3 2-2 0a12 12 0 00-4 1 3 3 0 00-2 1c0 4 0 12 3 9 2-2 8 2 8-1 0-6 2-9 3-10a18 18 0 00-5 0zm16 9c-1 0-2-1-5 3-2 3-6 1-4-1 1-1 4-8 1-3-4 6-5 1-4-1l2-7 6 1c4 1 4 2 4 4a14 14 0 010 4z"/><path class="o" d="M733 718l4-1v2c0 1 0 2 1 1a4 4 0 002-1l-3 2c-2 0-2-2-1-3a6 6 0 01-3 0zm3 0z"/><path class="n" d="M699 700c-7 0-10-1-11 6 0 2-1 9 4 7 3-1 5 1 9 1l4-1c7 1 9-2 9-9 0-3-4-3-7-3a31 31 0 00-8-1zm0 0l8 1c4 0 7 0 7 3 1 8-2 10-9 10h-13c-5 1-5-5-4-8 1-7 4-6 11-6z"/><path class="l" d="M699 700h-8c-4 2-5 16 1 13 3-1 6 2 10 0 2 0 12 4 12-8 0-2 0-4-4-4l-11-1z"/><path class="m" d="M699 700a10 10 0 01-2 0c-2 5-3 2-2 0a13 13 0 00-4 0 3 3 0 00-1 2c-1 4-1 12 2 9 3-2 9 2 9-1 0-6 1-9 2-10a18 18 0 00-4 0zm15 9c-1 0-2-1-5 3-2 3-5 1-4-1 1-1 5-8 1-3-4 6-5 1-4-1l2-7 6 1c4 0 4 2 4 4a14 14 0 010 4z"/><path class="o" d="M691 701c1 0 3-2 4-1v2c0 1 0 2 2 1a4 4 0 001-1l-3 2c-2 0-2-2-1-3a6 6 0 01-3 0zm3 0z"/><path class="n" d="M766 732c-7 0-9-1-9-7 0-4 0-5 5-6h9l6 7c2 1 0 5-3 6h-8zm0 0a41 41 0 007 0c4 0 6-5 5-6l-7-8h-10c-4 2-5 3-4 7 0 7 2 7 9 7z"/><path class="l" d="M766 732c-4 0-6 0-8-2-1-1-2-9 0-10 6-3 4-2 12-2 3 0 5 6 7 8v4c-1 3-6 2-11 2z"/><path class="m" d="M757 728l1-8c6-3 4-2 12-2a3 3 0 011 1c1 1 0 3 2 3h1a17 17 0 003 4c-3 7-6 2-9 3s-4-2-7 0l-4-1zm5-7c-4-1-2 5-1 2l3-1-2-1z"/><path class="o" d="M764 719c1-1 4-2 6 0s0 2 1 3l2 1c-2 0-3-1-3-3l-6-1z"/><path class="n" d="M845 763c-8 0-9 0-10-7 0-3 1-4 5-6h9l7 8c1 1 0 4-3 5h-8zm0 0a41 41 0 006 0c5 0 7-4 5-6s-4-6-7-7h-9c-5 1-5 3-5 6 1 7 2 7 10 7z"/><path class="l" d="M845 763c-5 0-6 1-9-2-1-1-2-8 1-10 5-3 4-1 11-1 3-1 5 5 8 7v4c-2 3-7 2-11 2z"/><path class="m" d="M836 759c-1-2-1-7 1-8 5-3 4-1 11-1a3 3 0 012 0c0 2-1 4 2 3h1a18 18 0 003 4c-4 7-6 2-9 3h-8c-1 1-3 0-3-1zm5-7c-4 0-3 5-1 2l2-1-1-1z"/><path class="o" d="M842 750h6c1 1 0 2 2 3l1 1c-1 0-3 0-3-2s-5-2-6-2z"/><path class="n" d="M797 719c-6 1-15-3-16 6-1 3 0 7 4 7 5-1 20 2 23 0 2-1 7-13-2-13h-9zm0 0a79 79 0 0110 0c7 1 4 11 2 13-3 3-19 0-24 0-6 1-6-8-3-11 3-4 10-2 15-2z"/><path class="l" d="M797 719c-1 0-10-1-13 1-6 3-5 13 1 12 4-1 22 3 24 0 2-4 4-13-3-13h-9z"/><path class="m" d="M785 724c5-2 11 1 3 0 0 0-6 2-4 0h1zm12-5c-1 0-10-1-13 1a8 8 0 00-4 7 3 3 0 004 2h5c6 0 8-1 12-4 4-2 9 1 7 1-4 0-9-1-9 5h11c1-4 3-12-3-12h-10z"/><path class="o" d="M791 728l8-3c2-1 5-2 8-1a5 5 0 001 1l-2-1-6 1c-4 3-4 3-9 3z"/><path class="e" d="M782 706l10-1c2-1 14-2 16 1v8c1 4-3 3-6 3l-13 1c-5-1-11 0-10-7 0-4-1-4 3-5zm0 0c-4 1-3 2-3 6 1 6 5 5 10 5h13c3-1 7 0 6-3l-1-8c-1-2-11-1-13-1l-12 1z"/><path class="k" d="M782 706c3-2 5-1 8-1s16-1 17 1c2 1 0 5 1 8 1 1 0 3-2 3l-17 1c-2-1-10 1-10-6v-3c0-2 0-3 3-3z"/><path class="g" d="M782 706c3-2 5-1 8-1s16-1 17 1c2 1 0 5 1 8a2 2 0 010 1 39 39 0 01-6 1 4 4 0 01-2 0h-1c-2 0-3-3-2-3l2-1v-1h6l1-1h-1a7 7 0 01-4 0c1 0-5 0-4 1l-4 1-7 1c-2 0-6 0-7-2v-1c0-3 0-4 3-4z"/><path class="p" d="M779 708c2-2 5-1 7-2l9-2a17 17 0 018 2h1-16c-4 2-6 0-9 2z"/><path class="e" d="M741 750c0 2 1 9-2 9-5 1-27 1-27-5 0-2-1-6 1-7 3-1 23 1 27 1a9 9 0 011 2zm0 0a5 5 0 00-1-2c-4-1-24-2-27-1-2 1-2 5-2 7 1 6 22 6 28 5 4 0 2-7 2-9z"/><path class="l" d="M741 750c0 2 1 9-2 9-5 1-28 1-27-5 0-8-1-8 13-7l15 1a6 6 0 011 2z"/><path class="m" d="M741 750v2a1 1 0 01-1 0c-4-1 0 5-6 1-6 2-6 0-11-2-2-1-5 6 1 3h4c2 0-2 2-4 3-1 0-2 1-1 2-6-1-11-2-11-5 0-6-1-7 5-7h8l15 1a6 6 0 011 1zm0 5c-1-2-2-2-3-1-2 2-4 0-4 1 1 5 1 4-2 5l7-1c2 0 2-2 2-4z"/><path class="o" d="M713 749c4-4 3-1 5-1l4-1a58 58 0 0111 2l-12-1a16 16 0 01-3 1c-3 0 0-2-5 0z"/><path class="h" d="M756 760c2-3 3-11-1-13h-6c-3-1-4-1-6 2-3 8 3 13 11 12zm0 0l-2 1c-8 1-14-4-11-12 1-3 3-3 6-2s5-2 7 1 2 9 0 12z"/><path class="i" d="M756 760c2-3 3-16-5-13-3 1-7-4-8 5-2 8 7 11 13 8z"/><path class="j" d="M757 751c0-3-2-6-6-4-3 1-6-3-8 3 2 0 3-2 3 4 0 4-2 0-3-1a7 7 0 001 5 4 4 0 005-2c1-3 7-1 8-5z"/><path class="q" d="M748 756a10 10 0 015-3l3-2a1 1 0 010 1l-4 3-4 1z"/><path class="h" d="M786 760c1-2 4-10 0-10l-14-2h-8c-3 1-4 0-4 5v6l7 1c4 0 7 1 11-1 0 0 7 2 8 1zm0 0l-8-1c-4 2-7 1-11 1h-7l-1-9c1-3 3-3 5-3h8l14 2c4 0 1 8 0 10z"/><path class="i" d="M786 760c1-3 4-10 0-10l-14-2h-8c-2 1-4-1-5 5 0 6-1 8 5 7 3 0 10 1 14-1l8 1z"/><path class="j" d="M788 755c0-2 0-5-2-5l-14-2h-8c-2 1-4-1-5 5v3c1 1 2 2 3 1 3-2 12 1 13 0 1-2 2-2 0-3l-4-4c-2-3 8 6 10 5 3-3 5 0 7 0z"/><path class="q" d="M776 751l4 3c1-1 5-2 5 0-2-1-3 1-5 1l-4-4z"/><path class="h" d="M822 753l1 8c1 0 9 3 10 0 1-1 2-8 0-10-1 0-13-3-11 2zm0 0c-3-5 8-4 11-2s1 9 1 10c-1 3-8 1-11 0-2 0-1-6-1-8z"/><path class="i" d="M822 753v6c1 0 0 2 2 2 3 1 4 2 8 1 2 0 2-5 2-6 1-1 0-4-2-5-7-2-11-1-10 2z"/><path class="j" d="M833 760v-3c1-2 1-5-1-6-7-2-10-1-11 1 1 2 2 3 1 5 0 3 7 4 8 2 0 0 1-2 1 1h2z"/><path class="q" d="M825 752c-1-1 3-1 4-1a8 8 0 014 2h-3l-5-1z"/><path class="e" d="M840 736c0 3 0 10-3 11l-7 1h-7c-2 0-3-2-5-3-5-6-1-10 6-9l12 1a12 12 0 003-1 4 4 0 001 0zm0 0h-1a14 14 0 01-3 1l-12-1c-8-1-12 3-6 9 2 2 3 3 5 3h7l7-1c4-1 3-8 3-11z"/><path class="k" d="M840 736c0 2 0 11-3 11-2 0-2 2-9 1s-5 2-10-3c-4-4-3-9 2-10l15 2 4-1z"/><path class="g" d="M840 736l-1 9-1-1h-6c-3 1-6-1-9 1-4 5-6-7-5-8 4-2 4-1 6-1l11 1 4-1z"/><path class="p" d="M818 738c4-3 3 0 5-1h3a48 48 0 0110 1h-11a13 13 0 01-2 0c-3 0-1-2-5 0z"/><path class="h" d="M754 703c-3 2-3 1-6 1-2-1-7-2-8 1l-2 3c-1 2 0 6 1 7 5 2 8 1 13 1a68 68 0 0111 0c1 0 7 1 7-1v-10c-1-2-6-2-8-2a53 53 0 00-8 0zm0 0a41 41 0 018 0c2 0 7 0 8 2v10c0 2-6 2-8 2a75 75 0 00-10-1c-5 0-8 2-13-1-2-1-2-6-1-8l1-3c2-2 7-1 9 0l6-1z"/><path class="i" d="M754 703l-4 1-4-1c-3 0-7-1-7 3-1 2-2 1-1 5 0 4 0 4 3 5h22a22 22 0 006 0c2 0 1-3 1-4v-3c0-5 0-6-6-6h-10z"/><path class="j" d="M748 704a17 17 0 00-2-1c-3 0-7-1-7 3 0 2 1 4 3 5h9l2-3h6c3 2 8-1 11-1 0-3-1-4-6-4h-5c-4 2-5 3-11 1zm19 13a6 6 0 01-2-1c-6-4-9-1-16-1-1 0-9-1-8-3 4-1 3 2 9 1 5-1 1-3 11-3l9-1v3c0 1 1 4-1 4z"/><path class="q" d="M769 706c-1-2-1-2-4-2l-8 1a17 17 0 01-5 0l5-1 7-1c3-1 6 0 5 3z"/><path class="h" d="M697 728c3-2 3-1 6-1 2 1 7 2 8-1l2-3c1-2 0-6-1-7-5-2-8-1-13-1a68 68 0 01-11 0c-1 0-7-1-7 1v10c1 2 6 2 8 2a53 53 0 008 0zm0 0a41 41 0 01-8 0c-2 0-7 0-8-2v-10c0-2 6-2 7-2a74 74 0 0011 1c5 0 8-2 13 1 2 1 2 6 1 8l-1 3c-2 2-7 1-9 0l-6 1z"/><path class="i" d="M697 728l4-1 4 1c3 0 7 1 7-3 0-2 2-1 1-5 0-4 0-4-3-5h-22a22 22 0 00-6 0c-2 0-1 3-1 4v3c0 5 0 6 6 6h10z"/><path class="j" d="M703 727a14 14 0 002 1c3 0 7 1 7-3 0-2-1-4-3-5h-9l-2 3h-6c-3-2-8 1-11 1 0 3 1 4 6 4h5c4-2 5-3 11-1zm-19-12a6 6 0 012 0c6 4 9 1 16 1 1 0 9 1 8 4-4 0-4-2-9-2-5 1-1 3-11 3l-9 1v-3c0-1-1-4 1-4h2z"/><path class="q" d="M682 725c0 2 1 2 4 2l7-1a17 17 0 016 0l-5 1-7 1c-3 1-6 0-5-3z"/><path class="e" d="M744 731c-5 2-6 1-11 1s-5 2-6 7c0 3 0 7 4 7h3c4 1 6 2 10-1 3-1 11 1 12-1 4-11-4-11-12-13zm0 0c8 2 17 2 12 13-1 2-9 0-12 2-4 2-6 2-10 0h-3c-4 0-5-4-4-7 0-5 2-7 6-7l11-1z"/><path class="k" d="M744 731c-9 3-14-2-16 4-2 4-3 12 4 11 1 0 7 3 12 0 2-2 11 0 12-2 4-12-5-11-11-12a4 4 0 00-1-1z"/><path class="g" d="M743 732a13 13 0 01-1 0 28 28 0 01-4 8 20 20 0 01-3 3l2-4a19 19 0 003-7c-6 1-10-2-12 3-4 11 4 14 11 6 2-3 3-7 5-3l3 7h3c-2-1 1-8 0-11-1-2-6 0-7-3zm-4 15c1-3 4-7 5-1a9 9 0 01-5 1zm16-13c4 5 0 10-2 8-4-4-3-8-1-9a10 10 0 013 1z"/><path class="p" d="M729 734c-2-2 5-2 5-2a23 23 0 003 0h5l-4 1h-7l-2 1z"/><path class="k" d="M728 744l8-8c3-1 2-2 3-4a6 6 0 01-2 4l-2 3c-2 3 1 3-1 7v-6c-2 2 1 3-1 5 1-2-1-4 1-5l2-3-9 7zm11-12z"/><path class="e" d="M820 755v6c-3 2-13 1-17 1-4 1-11 3-11-3-1-4-1-3 4-5l9-5c3 0 12 0 14 3a5 5 0 011 3zm0 0l-1-4c-3-2-13-3-16-2l-12 7v4c2 5 9 3 12 3 4-1 14 1 17-1v-7z"/><path class="k" d="M820 755v7l-11 1h-9c-4 1-9 0-9-4 0-3-1-3 4-5l10-5c4 0 16-1 15 6z"/><path class="g" d="M792 756a13 13 0 013-2l10-5c4 0 13-1 15 4 0 3 0 4-7 5h-9l-12-1v-1z"/><path class="p" d="M798 753c3-3 14-5 18-2v1-1c-5-2-14 1-18 2z"/><path class="e" d="M800 751c1 1 2 5 4 6 3 2 3 8 2 3-1-3-3-3-4-5-2-3-1-3-3 2l1-4v-2zM810 718v-9c0-5 4-3 8-3 3 0 18-2 19 0l1 7c0 2 0 6-3 6l-13-1h-12zm0 0h12l13 1c3 0 3-4 2-6l-1-7h-16c-7 0-10-3-11 5l1 7z"/><path class="k" d="M810 718v-9c1-3 3-3 7-3l11-1 8 1 1 7c1 2 1 6-2 6a175 175 0 00-18-1h-7z"/><path class="g" d="M816 706h1l12-1 7 1a8 8 0 011 2l-2 2c2 3 3 3 1 5-2 4-4 2-4 1-1-5-4-1-7 1l-12-1c-3 0-3-2-3-4 0-4 2-4 2-5l4-1zm0 4a8 8 0 012-1l1-1a1 1 0 01-2-1s-6 3-1 3zm14 5s-3 0-2 2c0 0 2 1 2-1v-1z"/><path class="p" d="M822 706l12 1-1 1-11-2z"/><path class="k" d="M810 714a6 6 0 001-2l5-1c-1 0-3-1-4 1l-2 2z"/><path class="e" d="M683 759v-9c1-5 4-3 8-3 3 0 18-2 19 0l1 7c0 2 0 6-3 6h-13l-12-1zm0 0h12l13 1c3 0 3-4 2-6l-1-7h-16c-7 0-10-2-10 5v7z"/><path class="k" d="M683 759v-9c1-3 3-3 7-3l12-1 8 1v7c1 2 1 6-2 6a175 175 0 00-18-1h-7z"/><path class="g" d="M689 747h1l12-1 8 1a8 8 0 010 2l-2 2c2 3 3 3 1 6-1 3-4 1-4 0-1-5-4-1-7 1h-12c-3-1-3-3-3-5 0-4 2-4 2-5l4-1zm0 4a8 8 0 012-1c2 0 1-1 1-1a1 1 0 01-2-1s-6 3-1 3zm15 5c-1 0-4 0-3 2 0 0 2 1 3-1v-1z"/><path class="p" d="M696 748c-1-2 10 0 11 1h-1l-10-1z"/><path class="k" d="M683 755a6 6 0 001-2l6-1h-1l-4 1-2 2zM800 751c1 1 2 5 4 6 3 2 3 8 2 3-1-3-3-3-4-5-2-3-1-3-3 2l1-4v-2z"/><path d="M661 169c2-4 9-3 20-3h28l23 3h44c7 0 14 2 21 1h7c2 1 2 6 2 7 0 15 2 30 1 45-1 9-4 32-2 53 1 11-2 21 0 32 0 1 1 4-1 6-3 4-11 1-15 0l-42-2c-19 0-18 2-30 1-15-2-16-5-26-4-16 0-24 8-29 3-3-2-3-6-3-11l2-43c2-18 0-14 1-39 1-13 3-25 1-32-1-3-2-6-2-13v-4z" fill="#ffe161"/><path class="s" d="M731 313s-2 0-2-2v-1-2-4a3 3 0 01-1-1v-5l1 1a7 7 0 000-2 2 2 0 001 1 2 2 0 002 0l-4-1a26 26 0 001-3v-2l1-3a30 30 0 00-1-3l-1-1a2 2 0 011-1v-4-3a3 3 0 011-2 2 2 0 010-1 43 43 0 01-2-7v-4l-2-6 4 4v-2h-1v-1a2 2 0 010-1v-1-6l1-2v-1-1a2 2 0 010-1v-2-5a1 1 0 01-1-2 2 2 0 011 0v-1-2l-1-1a1 1 0 011-2l-1-2v-1a1 1 0 011-2 33 33 0 000-3 2 2 0 010-1 10 10 0 00-2-5l3-1h-1v-6l1-4a22 22 0 01-1-3v1-2l-1-2v-3a3 3 0 011-3v-1l-6 4 5-6 1-3h-1v-3a21 21 0 011-4v-1a29 29 0 000-4 56 56 0 01-1-6h1a17 17 0 00-1-4l3-1a19 19 0 012 5l-1 4v1a26 26 0 010 4 1 1 0 011 1 14 14 0 00-1 4v1a14 14 0 000 3 7 7 0 010 3 14 14 0 011 3v4l-1 1v2h1l-1 1a15 15 0 002 5l1 2h-2a6 6 0 000 1h1l-1 1a2 2 0 01-1 1 10 10 0 002 4l-2 1 1 4a30 30 0 010 6 15 15 0 00-1 2 30 30 0 011 6v1l1 3h-2l1 7a2 2 0 010 1v1l-1 4v5l1 2a2 2 0 010 2v3l-1 2a3 3 0 01-1 1v1a59 59 0 002 6 2 2 0 010 1l1 4-2-1a2 2 0 01-1 1l1 2v12a5 5 0 010 2 2 2 0 01-1 2l1 4a17 17 0 011 5h-1v6a2 2 0 01-2 2zm1-37h-1a2 2 0 001 1 2 2 0 000-1zm-3 0h1a2 2 0 00-1 0zm4-75zm-4-17a1 1 0 001 0 1 1 0 01-1 0z"/><path class="s" d="M719 313v-2a2 2 0 011-2v-5c-1-4-2-6-1-8a12 12 0 010-4v-2-1-2-3a2 2 0 01-1-2 2 2 0 011-2v-5l-1-2h1a7 7 0 010-2 3 3 0 010-1 7 7 0 010-1 1 1 0 010-1v-5-1a2 2 0 010-2v-6a4 4 0 011-3v-2a3 3 0 01-1-1l1-3v-1c-2-5-2-9-1-10v-4l-1-5v-4-1a8 8 0 010-1v-8a2 2 0 011-1v-1a16 16 0 000-3v-1a11 11 0 01-1-5 4 4 0 010-1 2 2 0 010-1v-1a2 2 0 010-1v-2a8 8 0 010-3 2 2 0 012-2l-2-9v-1a2 2 0 012-1l-1-6-1-1c-1-1 0-1 1-2l2-2 1 2 2 12-1 6 1 2 4 9-5-5-1-1a29 29 0 000 4v3a4 4 0 010 1 11 11 0 000 4l1 5v1a6 6 0 010 2v8l-1-3v1a4 4 0 011 2h-1v7l1 1a2 2 0 000 1l1 1a1 1 0 01-1 1v3c0 1 0 0 0 0v2l-1 1a18 18 0 002 5l1 11-1-1a7 7 0 010 2l-1 3v7l-1 6h1a6 6 0 00-1 3 3 3 0 010 1l1 7v2l1 1-1 1v2a22 22 0 010 5c-1 2-1 4 1 6l4 7-6-4 2 5-1 1a49 49 0 001 5h-2v1zm1-59a1 1 0 000-1 2 2 0 000 1zm2-1h-1a2 2 0 001 0zm-3-33a2 2 0 00-1 0zM711 311a2 2 0 01-1 0h-1l-1-1a1 1 0 011-2v-3a3 3 0 010-2l-1-7v-1-3-2a1 1 0 010-1 16 16 0 011-5v-1a30 30 0 000-4 1 1 0 010-1v-1-3h-1l1-2a31 31 0 00-1-7 2 2 0 010-1v-1-1l-1-5v-1l1 1v-6a16 16 0 00-1-6l1-1h1a13 13 0 01-1-2l1-3a11 11 0 000-5h-1a2 2 0 010-2v-2a2 2 0 010-1v-2a2 2 0 011-1v-1l-1-2a5 5 0 010-3v-1-1l-1-2a4 4 0 011-1 5 5 0 000-3 3 3 0 010-3 7 7 0 001-4 5 5 0 01-1-2 12 12 0 000-2v-1h1l1-4-3-10-5-9h1l4 5a2 2 0 010-1 2 2 0 011-2 27 27 0 010-7v-2l1-7 1 2a3 3 0 011 0l2 1v4l-1 2a24 24 0 000 6 4 4 0 011 2 13 13 0 010 4v9-2a65 65 0 011 6l1 3v1l-2-2v1a5 5 0 011 1v1h-1a2 2 0 01-1 1 2 2 0 000 1 9 9 0 010 5 3 3 0 000 1v1a8 8 0 010 4 2 2 0 00-1 1l1 1a25 25 0 011 3l1 7-1-1v3h-1v3a13 13 0 011 8 18 18 0 000 2h-1a16 16 0 001 3l-1 1h-1a18 18 0 011 3v1a2 2 0 010 1v2a44 44 0 010 7v1a3 3 0 010 2v1a33 33 0 011 3v5a4 4 0 010 1v5a1 1 0 010 1 31 31 0 010 4 3 3 0 010 1h1v1h-1a4 4 0 01-1 1v12l1 6a38 38 0 000 5v2zm-3-130h1l-1-1v1zm3-14a2 2 0 002 0z"/><path class="s" d="M700 310a3 3 0 01-3-2l2-1a3 3 0 010-1h1l-1-1a15 15 0 010-3 22 22 0 01-1-4v-4a2 2 0 010-2h1a12 12 0 010-6l-1-3a1 1 0 010-1h1l-1-3a3 3 0 011-2 20 20 0 01-1-5l-1-2-1-3 1-1v0l-1-1 1-1h2v-3a2 2 0 01-1-1l1-4a5 5 0 010-3v-1l1-4-1-3v1l-1-5a4 4 0 01-1-2l-1-6h1l2 2v-2l-1-5v-3-6-1a5 5 0 01-1-2v-1-2h-1l1-1h1a8 8 0 000-2l2-1h-2v-1-1a2 2 0 010-2v-2-1a1 1 0 010-1v-1-2a2 2 0 011-2v-1a4 4 0 010-1v-1a25 25 0 000-6l-1-2a2 2 0 011-2 8 8 0 010-1 4 4 0 000-3v-2-1a17 17 0 01-1-4v-1-1a3 3 0 01-1 0 16 16 0 010-3l-1-3 4 2a3 3 0 011 1h1a13 13 0 010 1 5 5 0 010 2v1l1 5v1a2 2 0 01-1 1h1a6 6 0 010 4 3 3 0 000 3l-1 1h1a27 27 0 010 7v1a4 4 0 010 1l-1 1v1a2 2 0 010 1v2a28 28 0 010 3v6l-1 5v2l1 2v6a22 22 0 010 6v1a31 31 0 002 5l1 1h-1l-2 1a3 3 0 010 1 40 40 0 012 9v5l-1-1v1a10 10 0 010 1v1a6 6 0 000 2 7 7 0 010 1h-1v2a37 37 0 001 6l2 6v0l-3-2v4a13 13 0 001 4h-1v3a17 17 0 010 5v1a11 11 0 001 5v1h-1v1a2 2 0 010 1l-1 1a20 20 0 002 5 3 3 0 010 1v1a44 44 0 001 4v1h-2a3 3 0 01-2 2zm1-7a2 2 0 001 0zm-1-48a2 2 0 001 0 3 3 0 001 0zm1-60h1zM689 307l-2 1a3 3 0 011-3 16 16 0 010-3 6 6 0 00-1-3l4-1a2 2 0 00-2 0 2 2 0 00-1 0 4 4 0 000-1h-1v-1-1l1-6a14 14 0 010-2v-1-3a34 34 0 01-1-6h1a6 6 0 000-1 2 2 0 001 1 2 2 0 002-1h-4a11 11 0 000-3l1-3a16 16 0 00-1-4 2 2 0 010-2v-1a12 12 0 01-1-3l3-1a22 22 0 00-1-4 2 2 0 01-1-1v-1a38 38 0 010-3 1 1 0 010-1v-5 1a6 6 0 011-1 2 2 0 000-2l-1-1h1v-5-1a4 4 0 010-3 16 16 0 00-1-6 20 20 0 01-1-2l2-1a10 10 0 010-2 21 21 0 00-1-6v1-3-1a5 5 0 011-3 15 15 0 010-2 13 13 0 010-3v-1a3 3 0 011-2 20 20 0 00-1-5l-2-6 2 2a10 10 0 010-4l1-1-1-2a7 7 0 010-3 4 4 0 010-2 35 35 0 010-5v-1-3a49 49 0 010-6h1a5 5 0 00-1-1l4-1c1 2 0 4-1 4v4h1v8a4 4 0 000 1v2l1 3h-1l1 4-1 1v5a11 11 0 010 4v5a2 2 0 01-1 1 16 16 0 001 4l1 1a2 2 0 01-2 2 3 3 0 010 3 23 23 0 011 6l1 2-1 4v1a33 33 0 010 7v1l-1 5a4 4 0 010 3 5 5 0 000 3 4 4 0 010 5v1a20 20 0 011 5v4a3 3 0 01-1 2 3 3 0 010 1 15 15 0 011 4v4l-1 1a11 11 0 010 1 5 5 0 010 1 14 14 0 011 3 2 2 0 01-1 1v4a1 1 0 011 1v2a10 10 0 000 3l3 5-4-3v3a2 2 0 010 1v3a8 8 0 011 3 12 12 0 000 3l1 8zm0-67a2 2 0 00-1 1l2-1a3 3 0 00-1 0zm1-75zM681 306v1c0 1 1 4-1 5a3 3 0 01-2 0 2 2 0 01-2-1v-1h1a9 9 0 00-1-4l-4-10 5 5a2 2 0 011-1v-1l-1-2a14 14 0 00-1-4 1 1 0 010-1h2v-1h-1a2 2 0 00-1 1v-1a7 7 0 010-2l-4 1v-1l6-4a10 10 0 001-3 37 37 0 00-1-5 2 2 0 01-1 0 11 11 0 010-2h1v-1a4 4 0 010-1 11 11 0 000-3v-3l-1-2 1-6v-3-2a5 5 0 010-2l-1-2v-2a1 1 0 010-1 4 4 0 010-3 2 2 0 011-2 2 2 0 010-1l-1-2v-3-4a2 2 0 010-1v-1-2a3 3 0 010-2 2 2 0 011-2v-2-5-1-3a1 1 0 010-1h-1v-1-4h1v-1a1 1 0 00-1 1 3 3 0 011-2 6 6 0 010-3 15 15 0 00-1-4l-2-2h3a39 39 0 00-1-6 1 1 0 010-2l1-1-1-6a1 1 0 011-2 5 5 0 010-3 2 2 0 001-1v-1a4 4 0 01-1-1l-1-3v-2h1a2 2 0 003 0l-1-1h-3a2 2 0 012-1 2 2 0 012 2v3l1 2a4 4 0 010 4v4h-1v1l1 4c0 4 1 5-1 5v7a17 17 0 011 2v4a4 4 0 000 2l-2 1a1 1 0 001 0 2 2 0 010 1v2a34 34 0 011 5v10a1 1 0 01-1 1l3 8-1 1v-1l-1-1h-1v6a50 50 0 001 5l-2 1a1 1 0 001 0 1 1 0 00-1 0l1 1v8l1 5a1 1 0 010 1 1 1 0 01-1 1h-1a7 7 0 000 3 27 27 0 011 3v2a13 13 0 010 4 16 16 0 010 2 5 5 0 010 2l1 3v4a9 9 0 01-1 2 11 11 0 01-1 3l-1 3a15 15 0 012 4 23 23 0 001 5l4 10h-1l-4-5zm-2 4a2 2 0 00-1 0h1zm-1-36a2 2 0 002 0 2 2 0 001 0z"/><path class="s" d="M670 305a2 2 0 01-2-2v-2-1l-1-5v-2-1a3 3 0 010-1h-1l1-1a3 3 0 010-1h1a13 13 0 00-2-5v-1l3-1a2 2 0 00-2 0 6 6 0 001 0 6 6 0 010-1l-1-4a10 10 0 000-2 13 13 0 010-3h1v-2-1l-1-2-1-6v-1h1l-1-3v-4l-1-2-1-4 3 2v-1l-1-5v-4l-2-2v-1l3 1a2 2 0 011-2 4 4 0 010-1v-4h1l-2-4v-2a2 2 0 010-1v-4a16 16 0 010-3 17 17 0 00-1-5l-2-8v-1l3 4a3 3 0 010-1 1 1 0 011-1 24 24 0 00-1-3 3 3 0 01-1-2l-1-3h1l2 1v-2a20 20 0 00-2-7h2v-1-1h-1a31 31 0 010-5v-3h1l-1-3a6 6 0 011-3 8 8 0 01-1-4 5 5 0 000-1v-1c0-2 0-4 2-5a3 3 0 012 1 1 1 0 011 1v2c0 1 0 0 0 0a1 1 0 01-1 1 2 2 0 010 1 9 9 0 010 1 6 6 0 001 4l3 7-3-2h-1a10 10 0 010 2v6l1 2v2a2 2 0 01-1 2v1a20 20 0 011 3 9 9 0 000 2v2h-1v1a20 20 0 010 2v6a5 5 0 000 1 3 3 0 01-1 2 18 18 0 011 5 9 9 0 001 4h-1v1a18 18 0 000 2v1a65 65 0 002 7l2 5h-1l-2-2v1h-1a5 5 0 010 1 4 4 0 01-1 4 8 8 0 011 2 2 2 0 01-1 1 73 73 0 002 8 1 1 0 01-1 1 3 3 0 01-1 2v2l1 3v3h-1l1 5h1v4l-1 3a12 12 0 010 4 12 12 0 001 2v1h-1v1a7 7 0 01-1 1v1a15 15 0 011 3v4a6 6 0 010 2v2l1 4v2a1 1 0 010 1v1a2 2 0 01-2 2zm-2-13h-1 1zm1-13h1zm-2 0a1 1 0 001 0v-1l-1 1zm2-7h1-1zm0-4h2a3 3 0 00-1 0 3 3 0 00-1 0zm0-44a2 2 0 001 0zm1-18a2 2 0 00-2 0h1a2 2 0 001 0zm-2-40a2 2 0 00-1 0h2zm3-2zM793 316a21 21 0 010-2 2 2 0 011-2v-1-12a12 12 0 010-4v-2a1 1 0 010-1v-2-3a2 2 0 01-1-2 2 2 0 011-2l-1-5-1-2h1a7 7 0 011-2 3 3 0 01-1-1 7 7 0 010-2 1 1 0 011 0v-4-1-1a2 2 0 010-2l-1-6h1a4 4 0 011-3l-1-2a3 3 0 010-1h-1c0-1 0-2 2-3v-1l-2-10h1v-4l-1-6v-3a4 4 0 000-1 7 7 0 010-1v-8a2 2 0 010-1 3 3 0 011 0v-1a17 17 0 000-3v-1a11 11 0 01-1-5 4 4 0 01-1-1 2 2 0 011-1v-2-2a8 8 0 010-3 2 2 0 011-2l-1-9v-1a2 2 0 011-1l-1-6a2 2 0 000-1v-2l3-2 1 2 1 12v6l1 2 4 9-6-5v-1a29 29 0 000 4v3a4 4 0 01-1 1 11 11 0 001 4v6a6 6 0 011 2v8l-2-3 1 1a4 4 0 010 2 1 1 0 010 1v7a2 2 0 001 1v1a1 1 0 010 1 2 2 0 01-1 0v3h1l-1 2v1a18 18 0 001 5h1v11-1a7 7 0 010 2l-2 3h1v4l-1 3v6h1a3 3 0 01-1 0 6 6 0 000 3 3 3 0 010 1l1 7v2l1 1-1 1a2 2 0 01-1 0v2a22 22 0 010 5l1 6 5 7-6-4 2 6h-1l1 5h-2v1zm2-59v-1a2 2 0 000 1zm1-1zm-3-33zM784 313a2 2 0 01-1-1l-1 1a14 14 0 01-1-2 1 1 0 011-1v-4a3 3 0 010-2l-2-7h1a1 1 0 010-1v-2-2a1 1 0 010-1l1-5v-1a29 29 0 000-4 1 1 0 010-1v-1-4l-1 1 1-3a31 31 0 00-1-6 2 2 0 010-1v-1-1l-1-7 1 2v-6l-1-7h2v-1a13 13 0 01-1-1l1-3a2 2 0 010-1 11 11 0 000-4 2 2 0 01-1-2v-2a2 2 0 010-2v-1a2 2 0 011-2l-1-3a5 5 0 011-3l-1-1v-3a3 3 0 010-1 6 6 0 000-3v-2a7 7 0 001-4 5 5 0 01-1-3 11 11 0 000-2h1l1-4v-1a35 35 0 00-3-9l-5-10 6 6a1 1 0 01-1-1 2 2 0 011-2 26 26 0 010-8v-1l1-8 1 3a3 3 0 011 0s2-1 2 1a2 2 0 000 1v2l-1 3a25 25 0 000 6 4 4 0 011 2 12 12 0 010 3l1 10-1-2v4l1 1 1 5-2-2a5 5 0 011 2l-1 1a2 2 0 01-1 1v1a9 9 0 010 5v2a8 8 0 01-1 4 2 2 0 000 1l1 1a25 25 0 011 2l1 8-2-2 1 3-1 1v3a13 13 0 011 7 18 18 0 000 3h-1a16 16 0 001 3l-2 1a18 18 0 011 3v3a44 44 0 010 8h-1l1 3a37 37 0 011 9v5a1 1 0 010 2 32 32 0 01-1 4 3 3 0 011 1v1a4 4 0 01-1 1 37 37 0 00-1 3v1l1 1v6l1 7h-1a38 38 0 001 4v3zm-3-130h1l-1-1a2 2 0 000 1zm3-14a2 2 0 001-1z"/><path class="s" d="M773 316a3 3 0 01-3-2l2-1a3 3 0 010-1v-1a14 14 0 010-3 20 20 0 01-1-4v-4a2 2 0 010-2 12 12 0 010-6v-3a1 1 0 010-1v-3a3 3 0 011-2 20 20 0 01-1-5l-1-2-1-4 1 1v-1l-1-2h3l-1-3a2 2 0 010-1c-1-3 0-4 1-4a5 5 0 010-3v-1c0-2-1-3 1-4l-1-3v1l-1-5a3 3 0 01-1-2l-1-7 3 3v-2c-2-4-1-4-1-5v-9-1a4 4 0 01-1-2h-1l1-1-1-2 2-1a7 7 0 00-1-2l3-1h-2v-1a1 1 0 000 1l-1-1v-1a2 2 0 011-2v-2l-1-1a1 1 0 011-1v-1-2a2 2 0 011-2v-1a4 4 0 010-1v-1a25 25 0 000-6l-1-1a2 2 0 011-3 6 6 0 010-1 4 4 0 000-3l-1-2a2 2 0 011 0 15 15 0 01-1-5v-1a3 3 0 01-1-1 15 15 0 010-2l-1-4 4 2a3 3 0 011 1h1a10 10 0 010 2 4 4 0 01-1 1l1 2 1 4v1a2 2 0 01-1 1 6 6 0 010 4 3 3 0 001 3l-1 1v1a27 27 0 011 6v1a5 5 0 010 1h-1v2a2 2 0 010 1v2a30 30 0 010 4v4h-1v8l1 2v5h-1l1 1a23 23 0 010 6v1a32 32 0 002 5l1 1-3 1v1a40 40 0 011 9v1l1 4-1-1a11 11 0 010 3h-1a6 6 0 001 2v1l-1 1a2 2 0 010 1v1a38 38 0 001 5l2 8-3-4v4a13 13 0 001 4h-1v3a17 17 0 010 5v1a11 11 0 000 6h1l-1 1a2 2 0 01-1 2 20 20 0 002 5 3 3 0 010 2 39 39 0 000 5h1-2a2 2 0 01-2 2zm0-7a3 3 0 001 0 2 2 0 001 0zm0-48a2 2 0 001 0 2 2 0 001 0zm1-60a2 2 0 010 1 2 2 0 001-1zM762 313h-2a3 3 0 011-3 16 16 0 010-2 6 6 0 00-1-3l4-1a2 2 0 00-2-1 2 2 0 00-1 1 4 4 0 000-1h-1v-2-1l1-5a16 16 0 010-3v-3a34 34 0 01-1-6h1a5 5 0 00-1-1 2 2 0 002 0 2 2 0 002-1h-4a11 11 0 000-3l1-2a16 16 0 00-1-4 2 2 0 010-2 1 1 0 000-1 12 12 0 01-1-3l3-1a23 23 0 00-1-5 2 2 0 01-1-1v-1-2a1 1 0 010-2v-4 1a6 6 0 011-2 2 2 0 000-1 1 1 0 01-1-1v-1l1-5a4 4 0 010-4 16 16 0 00-1-5 22 22 0 01-1-3h2a10 10 0 010-2 20 20 0 00-1-6h-1l1-2v-2a5 5 0 011-2 15 15 0 010-2 13 13 0 010-4 3 3 0 011-2 20 20 0 00-1-5 1 1 0 010-1l-2-5 2 1a10 10 0 010-3l1-2-1-2a7 7 0 010-2 4 4 0 010-2 35 35 0 010-5v-1-3a50 50 0 01-1-6h1a7 7 0 000-1l4-1c1 2 0 3-1 4v4h1v7-1 5l1 3h-1l1 4-1 1v5a11 11 0 010 3v6a2 2 0 01-1 1 17 17 0 001 3 4 4 0 010 1h1l-1 1a2 2 0 01-1 1v4a23 23 0 011 6l1 1-1 5h-1a33 33 0 011 7 3 3 0 000 1v1l-1 4v1a4 4 0 010 3 5 5 0 000 3 4 4 0 010 4v1a20 20 0 011 6v4a3 3 0 01-1 1 3 3 0 010 2 16 16 0 011 4v4l-1 1a9 9 0 010 1 4 4 0 010 1 13 13 0 011 2 2 2 0 01-1 2l1 4a1 1 0 010 1v1a9 9 0 000 3l3 6-4-3v7a8 8 0 011 3 12 12 0 000 3l1 8zm0-67a3 3 0 00-1 0h2a3 3 0 00-1 0zm1-75zM754 304a2 2 0 01-1 1v5a3 3 0 01-2 1 2 2 0 01-2-2h1a8 8 0 00-1-4l-5-12 6 7a2 2 0 011-2 25 25 0 01-1-3 14 14 0 00-1-4 1 1 0 01-1-1h3l-1-1a2 2 0 00-1 1 6 6 0 000-1v-2l-6 2 8-5a10 10 0 001-3v-1a37 37 0 00-2-4 2 2 0 010-1 11 11 0 01-1-2h2a9 9 0 000-1h-1a3 3 0 010-1 11 11 0 000-3v-2-3c-1-3 0-4 1-5v-3l-1-2v-1a5 5 0 010-1v-3-2a1 1 0 01-1-1 4 4 0 011-3 2 2 0 010-2 2 2 0 011 0l-1-3v-3-4-1-3a3 3 0 010-2 2 2 0 011-2v-2-5-4a1 1 0 01-1 0v-1a43 43 0 01-1-5h2a3 3 0 010-1 2 2 0 00-1 1 3 3 0 011-1 6 6 0 010-4 14 14 0 00-1-3l-3-3h4a38 38 0 00-1-6 1 1 0 010-1v-1l1-1-1-6h-1a1 1 0 011-2 5 5 0 011-3 2 2 0 000-1 4 4 0 010-2l-1-3v-2a2 2 0 002 1 2 2 0 001-2h-3a2 2 0 012-1 2 2 0 012 2v3l1 2a4 4 0 010 4v4l-1 1 1 4-1 6v6a15 15 0 011 3v3a2 2 0 01-1 0 4 4 0 001 2l-2 1a1 1 0 001 0 2 2 0 00-1 0 3 3 0 010 1l1 2a34 34 0 011 5l-1 4v1h1v5a1 1 0 01-1 1v1l2 9-2-3v6a51 51 0 001 5l-2 1v1l1 4v9l1 1-2 2a7 7 0 000 2 25 25 0 011 3v3a13 13 0 010 3 2 2 0 010 1 18 18 0 010 2 4 4 0 010 1l1 4v3a8 8 0 01-1 2 10 10 0 01-1 4l-1 2a16 16 0 012 5 23 23 0 001 4l4 12zm-3 4a2 2 0 00-1 1l2-1a2 2 0 00-1 0zm0-36a2 2 0 001 1 2 2 0 002-1z"/><path class="s" d="M743 311a2 2 0 01-2-2l-1-2h1l-1-6-1-2a4 4 0 010-1h1a3 3 0 01-1-1v-1a3 3 0 011-1 13 13 0 00-1-5l-1-1 4-1a2 2 0 00-2 0 8 8 0 011-1c-2-2-1-3-1-4a10 10 0 000-2 14 14 0 010-3h1v-2a3 3 0 01-1-1v-2l-1-6a2 2 0 010-1h1a1 1 0 00-1 0 2 2 0 001 0l-1-3a72 72 0 00-1-6l-2-5 4 3-1-6v-4l-3-3 4 1a2 2 0 010-2 4 4 0 011-1v-4a72 72 0 01-1-6 2 2 0 010-1v-4a14 14 0 010-3 18 18 0 00-1-6l-3-9 4 5a5 5 0 010-1 2 2 0 011 0 23 23 0 00-1-4 3 3 0 01-1-2l-1-3 3 1a13 13 0 010-2 20 20 0 00-2-7h1v-2a32 32 0 010-4v-4-2-4a8 8 0 010-3 6 6 0 000-2v-1c0-2-1-4 1-4a3 3 0 013 1v2a1 1 0 010 1 1 1 0 010 1 8 8 0 010 1 6 6 0 000 5l5 7-5-4a13 13 0 010 3v11a2 2 0 010 2 19 19 0 010 3 9 9 0 001 3l-1 1a7 7 0 01-1 1 18 18 0 011 3v4a2 2 0 01-1 1h1a5 5 0 000 1 3 3 0 01-1 2 19 19 0 011 5 9 9 0 001 4l-2 1a18 18 0 001 3 63 63 0 002 7l2 6-3-3v1h-1a6 6 0 010 1l-1 4a8 8 0 011 2 2 2 0 01-1 2 72 72 0 001 7 1 1 0 010 1 3 3 0 01-1 2v5l1 3h-1l1 6h1v3l-1 3a12 12 0 01-1 4 11 11 0 001 2l1 1-1 1a6 6 0 01-1 2 15 15 0 011 4v3a6 6 0 01-1 2 2 2 0 010 1v1l1 5 1 1v2a2 2 0 01-2 2zm-3-13h1-1zm2-13h1zm-2 0a1 1 0 001 0zm2-7h1-1zm0-4h1-1zm-1-43a3 3 0 001-1 3 3 0 001 0zm2-19a2 2 0 00-2 0v1a3 3 0 001 0 2 2 0 001-1 2 2 0 00-1 0zm-2-40a2 2 0 00-1 0h1zm3-2h-1z"/><path class="t" d="M57 470l-1-2 1-1 3-2 1-1 2 2-6 4z"/><path class="u" d="M77 455l-2-2 1-1 3-2 2-1 1 2-5 4zM99 439l-1-3 1-1 3-2 2-1 1 2-6 5z"/><path class="t" d="M135 441l2-1 1 1 2 3 1 2-2 1-4-6z"/><path stroke-width="1.3" stroke="#1d150c" fill="#3f2b0f" stroke-miterlimit="10" d="M151 463l3-2 1 1 2 3 1 2-2 2-5-6z"/><path class="u" d="M167 485l3-2 1 1 2 3 1 2-2 2-5-6z"/><path class="t" d="M88 551l-2 1-1-1-2-3-2-2 2-1 5 6z"/><path class="u" d="M73 531l-3 2-1-2-2-2-1-2 3-2 4 6zM56 508l-3 2v-2l-2-2-2-2 3-2 4 6z"/><path stroke-width="1.4" stroke="#1d150c" fill="#3f2b0f" stroke-miterlimit="10" d="M165 519l2 3-1 1-3 2-2 2-2-3 6-5z"/><path class="u" d="M144 535l2 2-1 1-3 2-2 2-1-3 5-4zM123 550l1 3-1 1-2 2-2 1-2-2 6-5z"/><path class="x" d="M100 565l2 2 3-2 1-1 1-1 1-1v-1l-3-4-4 3-1 5z"/><path class="x" d="M106 558v1l2 2 1 1 3-2 3-3 1-1v-1l-2-3a14 14 0 00-2 0l-7 5zM120 547l1 1 1 1 1 2 1-1 3-1 1-1 2-2 1-1v-1l-2-4-8 5-1 2z"/><path class="x" d="M113 552l2 2 1 2h1l2-2 1-1 2-1 1-1v-1l-3-4-7 4v2zM143 530l1 2 1 1 1 1 1-1 5-3v-2l-2-2v-1l-7 2v3z"/><path class="x" d="M134 537l3 3h2l1-1 1-1 3-2h1v-3l-1-1-1-3-7 4-2 4z"/><path class="x" d="M128 541l1 2 1 2h2l1-1h1l2-1 2-2a10 10 0 00-1-1l-3-3-3 1zM155 521l2 3h3l2-1 2-2 1-1 1-2-1-2-2-2-7 4-1 3z"/><path class="x" d="M163 515l3 3h2l1-1 2-2 4-2 1-1 1-2v-1l-1-1-1-3-9 6-3 4zM149 525l1 2 1 2h1l2-1h1l1-1 2-1v-1a11 11 0 00-1-1l-2-3-3 1z"/><path class="y" d="M182 506v1l-1 1-2 1-1 1h-1l-1-2-1-1-1-1 1-2z"/><path class="x" d="M103 553l2 2 1 2h1l2-2 2-1 1-1h1v-2l-3-4-6 4-1 2z"/><path class="x" d="M110 548l1 1 1 2h1l1 1 3-2 3-3 1-1v-1l-3-3a14 14 0 00-1 0l-7 5zM136 529l1 2 1 2h1l2-1 6-5 1-1-3-2v-2l-8 4-1 3z"/><path class="x" d="M124 536l4 4 1 1h1l1-2 2-1 3-2 1-1 1-2-1-2-2-2-8 5-3 2zM117 541l1 3 2 2h1l2-1 1-1 2-1 2-2a6 6 0 00-1-1l-3-4-2 3zM102 559h2l1-1 1-1v-1l-2-4-1 1-1 6zM151 517l1 2v1l1 1h2l2-2h2l2-2v-1l1-1-3-5-7 6-1 1z"/><path class="x" d="M159 511l1 2 1 2h2l3-2 1-1 1-1 2-1 1-1v-1l-3-5-8 5-1 3zM144 523l1 2 2 2 3-2 1-1 1-1 1-1v-2l-3-3-6 4v2z"/><path class="x" d="M175 505l-1 1-1 1-1 1-1 1h-1l-1-2-1-1-1-1 1-1zM104 546l1 2 2 2h1l2-2 1-1 2-1v-1l1-1-3-4-7 4v2z"/><path class="x" d="M111 541l1 1 1 1 1 1v1l3-3 4-2v-3l-2-2a14 14 0 00-2-1l-6 6zM136 522l1 2 1 1 1 1 2-1 5-4v-1h1v-1l-2-1-1-2-7 3-1 3z"/><path class="x" d="M126 530l2 3h2l2-1 1-1 3-2 1-1 1-2v-1l-1-1-1-2-8 4-2 4z"/><path class="x" d="M118 535a15 15 0 011 2l1 1 1 1 2-1 1-1 3-1 1-2h1a8 8 0 00-1-1l-2-3-4 2zM161 504l1 2 1 2v1l-2 1-1 1a5 5 0 00-1 0v1h-2a5 5 0 01-1 0l-2-3 2-4z"/><path class="x" d="M146 519l1 1 3-2 2-1 3-2 1-1v-2l-2-3-6 3-4 3 1 2 1 2zM168 503v2l-1 1-2 1h-3l-2-3 1-2 6 1h1zM102 552h2l2-1 1-1v-1l-3-4h-1l-1 7zM104 543l1 2h1l2-2 1-1 2-1v-1l1-1-3-4-5 3v5z"/><path class="x" d="M109 536l1 1 1 1 1 1 1 1 3-2 3-3v-1l1-1-3-3a15 15 0 00-2 0l-6 5zM124 525l1 1 1 1 1 1h1l2-1 2-1 2-2v-1l1-1-3-4-7 5-1 2z"/><path class="x" d="M117 530l1 2 2 2h1l2-2 1-1 1-1 1-1v-1l-2-4-7 4v2zM161 503v1l-2 2-2 1-1-1-2-2-1-1v-2l8 1z"/><path class="x" d="M147 508l1 2 1 1 1 1 1-1 5-3v-2l-2-2-1-1-6 2v3z"/><path class="x" d="M138 515l2 3h2l1-1 2-1 2-2h1l1-2v-1l-1-1-2-3-6 4-2 4z"/><path class="x" d="M132 519l1 2 1 2h1l2-1h1l2-1 1-2a12 12 0 00-1-1l-2-3-3 1zM114 525l1 2 1 1 1 1h1l3-2h1l2-2 1-1v-1l-2-4-8 5-1 1z"/><path class="x" d="M123 519l1 2 1 2h2l2-2 1-1 2-1 2-1v-1l1-1-4-5-7 5-1 3z"/><path class="x" d="M131 513l2 2 2 2 2-2 2-1 1-1 1-1v-2l-3-4-6 4-1 3zM107 531l2 2 1 2h1l2-2 2-1 1-1 1-1v-1l-3-4-7 4v2z"/><path class="x" d="M139 507v2l1 1 1 1h1l3-2 3-2 1-1v-2l-3-2a14 14 0 00-1-1l-7 5z"/><path class="x" d="M154 502l-1 1h-1l-1 2h-2l-1-1-1-1-1-1v-2zM105 538h2l2-2h1v-2l-3-4h-1l-1 8zM106 530h1l2-1 2-1 1-2-3-4h-2l-1 8z"/><path class="x" d="M109 523l1 1 1 1v2l2-1 2-1h1l1-1 1-2v-1l-3-4-6 5v1z"/><path class="x" d="M115 518l1 2 2 2 1-1 3-1 1-1 1-1 2-1 1-1v-1l-3-5-8 5-1 3z"/><path class="x" d="M124 512l1 2 2 1h1l2-2h1l2-1v-1l1-2-3-4-7 4v3z"/><path class="x" d="M131 506l1 1 1 2 1 1 3-2 4-2v-3l-2-2a14 14 0 00-2-1l-6 5z"/><path class="x" d="M146 501l-2 1-1 2h-2l-1-2-1-1-1-1 1-1z"/><path class="x" d="M139 500l-1 1-1 1-2 1h-1l-1-1-1-1-1-1v-2l8 1z"/><path class="x" d="M125 505l1 1 1 2h2l4-4 1-1-2-2-1-2-6 3v3zM116 511l2 4h2l1-1 2-1 2-2 1-1 1-1v-1l-1-1-2-3-7 4-1 3z"/><path class="x" d="M110 516l1 1 1 2 1 1 2-1 1-1 1-1 2-1v-1a14 14 0 00-1-1l-2-3-3 1z"/><path class="x" d="M107 523h1l2-1 2-1 1-1-1-1-1-2-1-1-2-1-1 8zM124 499l1 3 2 1v1l-2 1-1 1a5 5 0 00-1 0l-1 1h-1v1a6 6 0 01-1-1l-3-3 3-4z"/><path class="x" d="M113 512l1 1 1-1 2-1 2-1 1-1v-2l-3-3-4 2-3 2 1 2 2 2z"/><path class="x" d="M108 516h2l1-1 2-1v-2l-3-3h-1l-1 7zM131 499v1l-1 1-2 1-1 1-1-1-2-3v-2l7 1v1zM121 500l-1 2v1l-3 2-2 1h-1l-1-1-2-2v-2l8-4z"/><path class="x" d="M113 506l1 1-2 1-2 1h-1l1-8 2 2 1 3zM125 498v1l-3 2h-1l-2-2-1-2v-1l6 1 1 1zM118 496v2l-3 2h-1l-1-2-2-2 4-1 3 1z"/><path class="x" d="M110 502h2l2-1v-2l-2-2-1-1-1 6zM122 424l-2-1h-1l-2 2h-1l-2 2-1 2 3 4 5-3 1-6z"/><path class="x" d="M116 432l-1-1-1-2-1-1-4 2-3 2v1l-1 2 3 3a14 14 0 002 0l6-5zM101 443l-1-1v-1l-1-2h-2l-2 2-2 1-2 1v2l-1 1 3 4 7-6 1-1z"/><path class="x" d="M108 438l-1-3-2-1h-1l-2 2h-1l-1 1-1 1v2l3 4 6-4v-2zM78 460l-1-2-1-1v-1l-2 1-4 3v1h-1l2 2 1 2 6-2v-3z"/><path class="x" d="M87 453l-2-3h-2l-1 1h-2l-2 2-1 1-1 2v1l1 1 2 2 7-4 1-3z"/><path class="x" d="M93 449l-1-2-1-2h-1l-2 1h-1l-1 1-2 1v1a12 12 0 001 1l2 3 3-1zM67 469l-3-3-1-1h-1l-1 1-1 1-3 2-1 1v2l1 1 1 3 7-4 2-3z"/><path class="x" d="M58 475l-2-3h-2l-2 1-2 1-3 3-1 1-2 2v1l1 1 2 3 9-6 2-4zM73 464l-1-1-1-2-2-1-1 1-1 1-2 1-1 1-1 1a11 11 0 001 1l3 3 3-1z"/><path class="y" d="M39 484l1-1 1-1 1-1 1-1h1l1 2 2 1 1 1-1 1z"/><path class="x" d="M118 436l-1-2-2-1h-1l-2 2h-1l-2 1v1l-1 2 3 4 7-4v-3z"/><path class="x" d="M111 442l-1-1-1-2-1-1-3 2-3 2-1 1v2l2 2a14 14 0 002 1l6-5zM86 461l-1-2-1-2h-1l-2 1-6 4-1 1v1l2 2 1 2 8-4 1-3z"/><path class="x" d="M97 454l-3-5h-2l-2 1-1 1-3 3-1 1-1 1v1l1 1 1 3 8-5 3-2z"/><path class="x" d="M105 449l-2-3-1-2h-2l-2 1v1l-2 1-2 1-1 1a7 7 0 001 1l3 4 3-3zM120 431l-2-1v1l-2 1h-1v2l3 4 1-1 1-6zM71 472l-1-1-1-1-1-1h-1l-3 1-1 1-2 2-1 1v1l3 4 7-5 1-2z"/><path class="x" d="M62 478l-1-2-1-1h-2l-2 2-1 1-1 1-2 1-1 1v1l3 4 7-4 1-4zM78 467l-2-2-1-2h-1l-2 2-1 1-2 1v1l-1 1 3 4 7-4v-2z"/><path class="x" d="M47 485v-1l1-1 2-1v-1h1l1 2 2 1 1 1-1 1zM118 444l-2-2-1-2h-1l-2 2-2 1-1 1-1 1v1l3 4 6-4 1-2z"/><path class="x" d="M111 449l-1-1-1-1-1-1-1-1-3 2-3 3-1 1v1l3 3a14 14 0 001 0l7-5zM85 468l-1-2-1-2h-1l-1 1-6 4v1l2 2v2l8-3v-3z"/><path class="x" d="M96 460l-3-3-1-1-1 1-1 1-2 1-3 2-1 1-1 2 1 2 2 2 8-5 2-3zM103 455a13 13 0 010-2l-2-2h-1l-2 1-1 1-2 1-2 2a9 9 0 001 1l2 3 4-2zM61 486l-1-2-1-2v-1l1-1 1-1a5 5 0 001 0l1-1h1v-1a5 5 0 011 1l3 3-3 4z"/><path class="x" d="M75 470h-1l-2 1-3 2-2 1-1 1-1 2v1l3 3 6-3 4-3-1-2-2-3zM54 486v-1l1-1 2-1 1-1 1 1 2 3v1h-7v-1zM119 438h-2l-1 1-1 1v1l2 4 1-1 1-6zM118 447l-2-2-3 2-1 1-1 1h-1v2l3 4 4-3 1-5z"/><path class="x" d="M112 454v-1l-2-2v-1h-1l-3 2-3 2-1 1v2l2 3a14 14 0 002 0l7-5zM98 465l-1-1-1-1-1-2-1 1-3 1-1 1-2 1-1 2v1l2 4 8-5 1-2z"/><path class="x" d="M105 460l-2-3-1-1h-1l-2 2h-2l-1 1-1 1v2l3 4 7-4v-2zM61 487v-2l2-1 1-1h1l1 1 2 2v1l1 2-8-2z"/><path class="x" d="M75 482l-1-2-1-1-1-1-1 1-5 3v2l2 1v2l7-2v-3z"/><path class="x" d="M84 475l-3-3h-2l-1 1h-1l-3 2-1 1v3l1 1 1 2 7-4 2-3z"/><path class="x" d="M90 471l-1-2-2-2h-1l-1 1h-1l-2 1-2 1v1a11 11 0 001 1l3 3 3-1zM107 464l-1-1-1-1v-2l-2 1-2 1-2 1-2 2v1l-1 1 3 4 7-5 1-2z"/><path class="x" d="M99 470l-1-2-2-1v-1l-1 1-3 2-1 1-1 1-2 1h-1v2l3 4 8-4 1-4z"/><path class="x" d="M90 477l-1-2-2-2h-1l-2 2-1 1-2 1v1l-1 1 3 4 7-4v-2zM114 459l-1-2-2-2h-1l-2 2-1 1-1 1-1 1v1l2 4 7-4v-2z"/><path class="x" d="M83 482l-1-1-1-1-1-1v-1l-3 3-4 2v3l2 2a14 14 0 002 1l6-6z"/><path class="x" d="M68 488v-1l1-1 2-1 1-1v1l2 1 1 1 1 1-1 2zM117 452h-3l-1 1-1 1-1 1 1 1 3 4h1l1-8zM115 460l-1-1-2 2-2 1v2l3 4 1-1 1-7z"/><path class="x" d="M113 467l-1-1-1-1-1-2h-1l-2 2h-1l-2 1v2l2 4 6-4 1-1z"/><path class="x" d="M106 471l-1-1-1-2h-2l-2 2-1 1-1 1-3 1v2l3 4 7-4 1-4z"/><path class="x" d="M98 478l-2-2-1-2h-1l-2 2-2 1-1 1-1 1v2l3 4 6-4 1-3z"/><path class="x" d="M91 484l-1-2-1-1-1-1h-1l-3 2-3 2-1 1v2l3 2a14 14 0 001 1l7-5z"/><path class="x" d="M76 489v-1h1l1-2h2l1 1 2 2 1 1-1 1z"/><path class="x" d="M83 490v-1l2-2 1-1h1l1 1 2 2v1l1 2-8-1z"/><path class="x" d="M97 485l-1-2-1-1-1-1-1 1-5 3v2l2 2v1l7-2v-3z"/><path class="x" d="M106 479l-3-4h-2l-1 1-1 1-3 2-1 1v2l1 1 1 3 7-4 2-3z"/><path class="x" d="M112 474l-1-2-1-1-2-1-1 1h-1l-2 1-2 2a11 11 0 001 1l3 3 3-1z"/><path class="x" d="M114 467l-1-1-1 1-2 2h-1l1 2 1 1 1 2 2 1v-8zM97 490l-1-2-1-1v-1l2-1 1-1a5 5 0 001-1l1-1h1a5 5 0 011 0l2 4-2 4z"/><path class="x" d="M109 477h-1l-2 1-2 1-1 1h-1l-1 1 1 1 2 4 5-2 2-3-1-2-1-2zM113 474h-2l-1 1-1 1v1l3 4 1-7zM90 491v-1l1-1 2-1 1-1 2 1 1 3v1h-6l-1-1z"/><path class="x" d="M101 489v-1l1-2 2-1 2-1h3l1 3v2l-7 4z"/><path class="x" d="M108 484v-1l1-1 2-2 1 1v7l-2-1-2-3zM97 492v-2l2-1h2l1 2 2 1v2l-7-1v-1z"/><path class="x" d="M104 493l-1-1 3-2h1l1 2 3 2h-4l-3-1z"/><path class="x" d="M111 488l-1-1-2 2h-1l1 2 2 2 1 1 1-6h-1zM181 506l2-1v-1l-2-2-1-2-1-1-1-1h-2l-3 3 2 4 6 1z"/><path class="x" d="M174 501l1-1 1-1 1-1 1-1-3-3-2-3-1-1h-2l-2 3a15 15 0 00-1 1l5 7zM162 486l2-1 1-1 1-1v-1l-2-3v-1l-2-2-1-1h-1l-4 3 5 7 1 1z"/><path class="x" d="M168 493l2-1 2-2v-1l-2-2-1-1-1-2h-1l-1-1-4 3 4 7h2zM146 463l2-1 1-1 1-1-1-1-3-5h-2l-2 2h-2l3 7h3z"/><path class="x" d="M152 472l4-3v-1l-1-2-1-1-2-3h-1l-1-1h-1l-1 1-3 1 4 7 3 2z"/><path class="x" d="M157 478l1-1 2-1 1-2-1-1-1-1-1-2-1-1v-1a10 10 0 00-1 1l-4 3 2 3zM137 451l3-2v-2l-1-1-1-2-1-2-1-1-2-1-1 1h-1l-2 2 4 7 3 1z"/><path class="x" d="M131 443l3-2v-3l-1-1-2-2-2-4-1-1-2-1h-1l-1 1-3 1 6 9 4 3zM141 457h2l2-2v-1l-1-2-1-2-1-2h-1a11 11 0 00-1 1l-3 2 1 4z"/><path class="y" d="M122 424h1l1 2 1 1 1 1-1 1-1 1-1 1-1 1-2-1z"/><path class="x" d="M169 503l2-2 2-1v-1l-2-2-1-2-1-1-1-1h-1l-4 3 4 7h2z"/><path class="x" d="M164 496l1-1 1-1 1-1 1-1-2-3-3-3h-1l-1-1-3 3a14 14 0 000 2l5 6zM145 470h2l1-1 1-1-1-2-5-7h-1l-1-1-1 3h-2l4 9h3z"/><path class="x" d="M152 482l4-4v-2l-1-1-1-2-2-3-1-1-2-1h-1l-1 1-2 2 4 8 3 3zM157 489l3-1 1-2 1-1-1-2-1-1-1-2-2-2a7 7 0 00-1 1l-4 3 3 3zM175 504v-2l-1-1-1-1h-1l-4 3 7 1zM133 455l1-1h1l2-1v-2l-2-2v-1l-2-3h-2l-1-1-4 3 6 8h1z"/><path class="x" d="M127 447l2-1 2-1v-1l-1-1-1-3h-1l-1-2-1-2h-1l-1-1-5 4 5 7 3 1zM139 463l2-2 2-2h-1l-1-2-1-2-1-1-1-1h-2l-4 3 4 6 3 1z"/><path class="x" d="M121 431l1 1 1 1 1 1v2l-1 1-1 1-1 1h-2zM162 502l2-1 2-2v-1l-2-2-1-1-1-1-1-1h-2l-4 2 4 7h3z"/><path class="x" d="M156 495l2-1 1-1h1v-1l-2-3-2-3-1-1h-2l-2 2a14 14 0 00-1 2l5 7zM138 470l2-1 1-1 1-1-1-2-4-5h-1l-1-1-2 3h-1l3 7 3 1z"/><path class="x" d="M146 480l3-2v-2l-1-1-1-2-2-3-1-1-2-1h-1l-1 1-3 1 5 8 4 2z"/><path class="x" d="M151 488a15 15 0 011-1l2-1v-1l-1-2v-1l-2-2-1-2-1-1a8 8 0 00-1 1l-2 2 1 4zM120 446l2-2 2-1h1l1 2 1 1a5 5 0 000 1l1 1v1a7 7 0 010 1l-3 3-5-3z"/><path class="x" d="M135 460v-1l-1-3-1-2-2-2-1-2h-2l-3 2 2 6 4 4 2-1 2-1zM119 439l1-1 2 1 1 2v2l-1 1-2 2-2-1 1-6zM168 504v-2h-1l-1-1v-1l-1-1h-1l-3 3v1l7 1zM159 503l2-2v-1l-2-2-1-1-1-2h-1l-2-1-3 3 2 5 6 1z"/><path class="x" d="M152 497l1-1 1-1 1-1h1l-3-4-2-3h-1l-2-1-2 3a14 14 0 00-1 2l5 6zM140 482l2-1h1l1-1v-2l-2-2v-2l-2-2h-1l-1-1-4 3 5 7 1 1z"/><path class="x" d="M146 489l2-1 2-2-2-3-1-1-1-1-1-1h-1l-4 3 4 6h2zM119 445l1 1 1 2 1 1v2l-2 1-1 1h-2l1-8z"/><path class="x" d="M124 460l2-1 1-1 1-1-1-2-3-4h-1l-1-1-2 2-2 1 3 6 3 1z"/><path class="x" d="M130 468l4-2v-2l-1-1-1-2-2-2-1-1-1-1h-1l-1 1-3 2 4 7 3 1z"/><path class="x" d="M135 474l1-1 2-1 1-1-1-2-1-1-1-1-1-2a11 11 0 00-2 1l-3 2 2 3zM141 492l1-1 2-1 1-1v-1l-2-3v-1l-2-2-1-1h-2l-4 3 6 7 1 1z"/><path class="x" d="M135 483l2-1 2-1v-1l-1-1-1-2-1-1-1-1-1-2-1-1h-1l-5 3 5 7 3 1z"/><path class="x" d="M129 475l2-2 1-1v-1l-2-2v-2l-1-1-1-1h-2l-4 3 4 6 3 1zM147 499l2-2 2-1v-1l-2-2-1-1-1-2h-1l-2-1-4 3 4 7h3z"/><path class="x" d="M123 468l1-1 2-1 1-1v-1l-2-3-2-3-1-1h-2l-2 3a13 13 0 00-1 1l5 7z"/><path class="x" d="M118 453l1 1 2 1v2l-2 1-1 2-1 1-1-1zM153 501l1-1-1-1-1-2v-1h-2l-4 3v1l7 1zM146 500v-1l-1-2-2-2h-1l-4 2v2l8 1z"/><path class="x" d="M139 497l1-1h1l1-1v-2l-1-1v-1l-2-2h-1l-1-1-4 3 4 6h2z"/><path class="x" d="M134 491l2-1 2-1v-1l-1-1-1-3h-1l-1-2-2-2-1-1-5 3 5 8 3 1z"/><path class="x" d="M127 482l2-1 2-2v-1l-2-2-1-1-1-1v-1h-2l-4 2 4 7h2z"/><path class="x" d="M122 475l1-1 2-1h1v-1l-2-3-2-3-1-1h-2l-3 2a14 14 0 000 2l5 6z"/><path class="x" d="M117 460v1l1 1 1 1 1 1v1l-2 1-1 1-1 1-1-1z"/><path class="x" d="M115 467l2 1 1 2 1 1v1l-1 1-1 1-1 1h-2l1-8z"/><path class="x" d="M120 482l2-1 2-1v-3l-4-4-1-1-2 2-2 1 3 6 2 1z"/><path class="x" d="M127 490l3-2 1-1v-1l-1-1-1-2-2-2-1-1-2-1v1h-1l-3 2 4 7 3 1z"/><path class="x" d="M132 496h1l2-2v-3l-1-1-1-1-1-2h-1a12 12 0 00-1 1l-3 2 1 4z"/><path class="x" d="M138 499l1-1-1-2-1-2h-1v-1l-1 1-2 2h-1l-1 2 7 1zM115 482l2-1 2-1h1l1 1 1 1a5 5 0 000 1l1 1v2l-3 3-4-3z"/><path class="x" d="M128 494l1-2-1-1-1-2-1-2-1-1h-2l-3 3 1 4 3 3 2-1 2-1z"/><path class="x" d="M131 498l1-1-1-1-1-1v-1l-1-1-1 1-3 2v1l6 1zM115 475h1l1 1 1 2v2l-3 2h-2l1-7h1zM116 486h2l1 1 2 2 1 2v1l-1 1-2 2h-2l-4-7z"/><path class="x" d="M121 493l2-1 1 2 1 2v1l-8-1 2-1 2-2zM114 481h1l2 3v2l-2 1-2 1h-1l1-6 1-1zM112 488h1l2 3v1l-1 1-2 2-1-3 1-4z"/><path class="x" d="M118 496v-1l-2-3h-1l-3 3-1 1h7zM40 484l-2 2v1l2 2 1 1 1 1 1 1h2l3-3-2-4-6-1z"/><path class="x" d="M48 490h-2l-1 2h-1l-1 1 3 3 2 3 1 1h2l2-2a16 16 0 001-2l-5-7zM59 504l-2 1-1 1-1 1v1l2 3v1l2 2 1 1h1l4-2-5-8-1-1z"/><path class="x" d="M53 497l-2 2-2 1v1l2 2 1 2 1 1 1 1h2l3-3-4-7h-2zM75 527l-2 1-1 1-1 1 1 1 4 5h1l2-2h2l-3-7h-3z"/><path class="x" d="M69 519l-4 2v2l1 1 1 1 2 3 1 1h2l1-1 3-1-4-7-3-1z"/><path class="x" d="M64 512l-1 1-2 2-1 1 1 1 1 1 1 2 1 2a10 10 0 002-1l3-2-1-4zM84 539l-3 3v1l1 2 1 1 1 2 1 1 2 1h1l1-1 3-2-4-6-4-2z"/><path class="x" d="M91 547l-4 3v2l2 2 1 2 2 3 2 1 1 1h1l1-1 3-1-6-9-3-3zM80 533l-2 1-2 1v1l1 2v1l1 2 2 1a12 12 0 001-1l3-2-1-3z"/><path class="y" d="M99 566h-1v-1l-2-2v-1l1-2 2-1 1-1 1 1z"/><path class="x" d="M52 487l-2 2-2 2 2 2 1 2 1 1 1 1h1l4-3-4-6-2-1z"/><path class="x" d="M57 495h-1l-1 1-1 1-1 1 3 3 2 3 1 1h1l3-3a15 15 0 001-1l-6-7zM76 520l-2 1-1 1-1 1 1 2 5 6h1v1h1l2-2 1-1-4-8-3-1z"/><path class="x" d="M69 509l-4 3v2l1 1 1 2 2 3 1 1 2 1h1l1-1 3-2-5-8-3-2zM64 501l-3 2-1 1-1 1 1 2 1 1 1 2 2 2a7 7 0 001-1l4-3-3-2zM46 486v2l1 1 1 1 1 1v-1l4-2v-1l-7-1zM88 535l-1 1-1 1h-2v2l2 2v2l2 2h2l1 1 4-3-6-7-1-1z"/><path class="x" d="M94 543l-2 1-2 2 1 1 1 3 1 1 1 1 2 2v1h1l5-3-5-8-3-1zM82 528l-2 1-1 2v1l2 2v1l1 1 1 1h2l4-2-4-7h-3z"/><path class="x" d="M100 559l-1-1-1-1-1-1v-2l1-1 1-1 1-1 2 1zM59 488l-2 1-2 2v1l2 2 1 1 1 2h1l2 1 4-3-4-7h-3z"/><path class="x" d="M65 495l-1 1-2 1-1 1 2 4 2 3h1l2 1 2-3a14 14 0 001-2l-5-6zM83 520l-2 1-1 1-1 1 1 2 4 5h1l1 1 2-2 2-1-4-7-3-1z"/><path class="x" d="M75 510l-3 2v2l1 2 1 1 2 3 1 1 2 1h1l1-1 3-1-5-8-4-2z"/><path class="x" d="M70 502a15 15 0 01-1 1l-2 1v2l1 2v1l2 2 1 2h1a7 7 0 001-1l2-2-1-4zM101 545l-2 1-1 1h-1l-1-2-1-1a5 5 0 00-1-1l-1-1v-1a7 7 0 010-1l3-2 5 2z"/><path class="x" d="M86 530v2l1 2 1 2 2 3 1 1 1 1 1-1 3-2-2-6-4-4-2 1-2 1zM102 552h-1l-2-1v-2l-1-1 1-2 2-1h2l-1 7zM54 486l-1 2 1 1 1 1v1h2l3-3v-1l-6-1zM62 488l-2 1v1l2 2 1 2 1 1 1 1h2l3-3-2-5h-6z"/><path class="x" d="M70 493l-2 1-1 1-1 1v1l2 3 2 3 1 1h2l2-3a14 14 0 001-2l-5-6zM81 508l-2 1-1 1-1 1v1l2 3v1l2 2 1 1h1l4-3-5-7-1-1z"/><path class="x" d="M75 501l-2 1-2 2v1l2 2 1 1 1 2h1l2 1 3-3-4-7h-2zM102 545h-1l-1-2-1-1v-1l1-1 1-2h1l2-1-1 8z"/><path class="x" d="M97 531l-2 1-1 1-1 1 1 1 4 5h1l2-2 2-1-3-6h-3z"/><path class="x" d="M91 522l-4 3v1l1 2 1 1 2 2 1 1 1 1h1l1-1 3-1-4-7-3-2z"/><path class="x" d="M86 516l-1 1-2 1-1 1 1 2 1 1 1 2 1 1h1a11 11 0 001-1l3-2-1-3zM80 498l-1 1-1 1-2 1v1l2 3v1l2 3h3l4-2-6-8-1-1z"/><path class="x" d="M86 507l-2 1-2 1v1l1 1 1 2 1 1 1 2 1 2h1l1 1 5-4-5-7-3-1z"/><path class="x" d="M93 515l-3 2-1 2 2 3v1l1 1 1 1h2l4-3-4-6-2-1zM74 491l-2 2-2 1v1l2 2 1 2 1 1 1 1h2l4-3-4-6-3-1z"/><path class="x" d="M98 523h-1l-2 2h-1v1l2 3 2 3 1 1h2l3-2a14 14 0 000-2l-5-7z"/><path class="x" d="M103 538v-1l-1-1-1-1-1-1v-1l2-1 1-1 1-1 1 1zM68 489l-1 2 1 1 1 1 1 1h1l5-3-1-1-7-1z"/><path class="x" d="M75 490v2l1 2 2 1 1 1 4-3v-2l-8-1z"/><path class="x" d="M83 493l-2 1-1 1-1 1v1l1 2v1l2 1 1 1h1l4-3-4-6h-1z"/><path class="x" d="M87 499l-2 1-1 2h-1l1 1 1 3 1 1 1 1 2 2v1h2l4-3-5-7-3-2z"/><path class="x" d="M94 508l-2 1-2 2v1l2 2 1 1 1 2 2 1 4-3-4-7h-2z"/><path class="x" d="M99 515l-1 1-2 1v1h-1l2 4 3 3h1l1 1 3-3a14 14 0 000-2l-5-6z"/><path class="x" d="M105 530h-1l-1-1-1-2-1-1 2-2 1-1 1-1 1 1z"/><path class="x" d="M106 523h-2l-1-2-1-2 1-1 1-2h2l1-1-1 8z"/><path class="x" d="M101 509l-2 1-2 1v2l4 5h1l2-2 2-1-3-6h-2zM94 500l-3 3v2l1 2 2 2 1 1 2 1 2-1 2-2-4-6-3-2zM90 494l-2 1-2 1v3l1 1 1 2 1 1h1a11 11 0 001-1l3-2-1-3z"/><path class="x" d="M83 491l-1 1 1 2 1 2 1 1 1-1 2-1 2-1v-2l-7-1zM106 508l-2 2-2 1h-1l-1-2-1-1a5 5 0 000-1l-1-1v-1a6 6 0 010-1l3-3 4 3z"/><path class="x" d="M93 497l-1 1 1 2 1 1 1 2 1 1h2l3-3-1-4-3-3-2 1-2 2z"/><path class="x" d="M90 492l-1 2h1l1 2v1h2l3-3v-1l-6-1zM107 515h-3l-1-3v-2l3-2h2l-1 7zM105 505l-2-1h-1l-2-2-1-3v-1l1-1 2-2h2l4 8z"/><path class="x" d="M100 498h-2l-1-2-1-1v-2l8 1-2 2-2 2zM108 509h-2l-2-3v-1l2-2 2-1h1l-1 6v1zM109 502h-1l-2-3v-1l1-1 2-2 1 4-1 3z"/><path class="x" d="M103 494v2l2 2v1l1-1 3-2 1-1-6-1h-1z"/><path transform="rotate(-36 111 495)" style="isolation:isolate" opacity=".1" fill="url(#a)" d="M58 444h104v103H58z"/><path class="aa" d="M101 567l1-8 1-9 2-9 2-13 2-13 2-15 1-4h-2l-1 4-2 15-2 12-2 13-2 10-1 8-1 8 1 2zM39 485l8 1 8 2 10 1 13 2 13 2 15 2 4 1v-2l-4-1-15-2-13-2-13-1c-4-1-4-2-9-2l-8-2-8-1-2 1z"/><path class="aa" d="M121 424l-2 8-1 8-2 9-2 13-2 13-2 15-1 4h2l1-4 2-15 2-12 2-13 2-10 1-8 2-8-1-2zM183 505l-8-1-9-2-9-2-13-1-13-2-15-2-4-1v2l4 1 15 2 13 2 13 1 9 2 8 2 8 1 2-1z"/><path class="aa" d="M114 496l-4 2-2-4 3-2 1 1a6 6 0 012 3z"/><path class="ab" d="M259 282c0 5 3 9 7 10-1 4-2 7-1 11s4 6 8 6c-2 6 2 14 8 16l4 9c2 3 6 3 8 1a10 10 0 0012 8c1 2 2 5 4 6s6 2 7 0a7 7 0 007 6h4c4 0 7 4 11 4 5 1 6-4 10-5s7 1 11 2 8-2 7-5c3 2 7 3 11 3s8-4 7-8c4 4 11 0 10-5a9 9 0 0015-9 7 7 0 107-13 7 7 0 007-12c3 0 5-1 7-4s0-5-3-6c8-1 12-12 8-18a8 8 0 104-15 9 9 0 00-4-17c2-5-3-11-8-11a7 7 0 00-6-11c4-5 0-15-7-15 2-3-1-6-3-8s-7-1-10-1c-1-3-1-7-4-9s-7-3-9 0c-2-7-11-11-18-7-2-6-12-6-15 0-6-6-18-5-24 2-4-5-15-2-16 5-7-5-17 0-18 8-6-3-14 1-14 7a13 13 0 00-8 16c-3 1-4 6-4 11a4 4 0 01-3 3c-2 1-5 4-6 10l2 9c0 1-8 5-2 14l-3 12z"/><path class="ac" d="M422 215c-2-3-5-5-8-5 1-3-1-6-4-8s-6-1-9-1c-1-3-1-7-4-9s-7-3-9 0c-2-7-11-11-18-7-2-6-12-6-15 0-6-6-18-5-24 2-4-5-15-2-16 5-7-5-17 0-18 8-6-3-14 1-14 7a13 13 0 00-8 16c-3 1-4 6-4 11a4 4 0 01-3 3c-2 1-5 4-6 10l2 9c0 1-8 5-2 14l-3 12c0 4 3 9 7 10-1 3-2 7-1 11s4 6 8 6c-2 6 2 14 8 16l4 9c2 3 6 3 8 1a10 10 0 0012 8c1 2 2 5 4 6s6 2 7 0a7 7 0 007 6h4c4 0 7 4 11 4 5 1 6-4 10-5s7 1 11 2 8-2 7-5c3 2 7 3 11 3a23 23 0 001-4 4 4 0 000-2l-3-3c-3-1-4-4-7-6s-8 0-12 0-9-3-8-7c1-5 9-3 14-6a4 4 0 00-4-4c0-3 3-4 6-5s6-4 4-7c-2-2-6 0-9-2-2-2 0-6 3-7l9-1c3-1 6-3 5-5-1-5-9-4-10-8 0-2 2-4 1-6 0-3-4-3-6-1l-6 4a7 7 0 01-5-12l8-1c3 0 5-4 3-6l-6-3a26 26 0 0114-11c-3-2-3-7 0-9s6-2 10-3c8-1 21-1 28-6-8-9 6-14 13-17z"/><path class="ad" d="M302 313l-5-7-9-14c-2-3-2-7 1-7-2-3-3-8 1-9a15 15 0 01-11-11c-1-3 0-6 2-8l3-3a8 8 0 001-8l4-3-1-3a4 4 0 000-6l2-5c2-6 11-10 18-6 3-4-2-10 1-13s7 0 10 0c4 0 8-3 11-4 5-2 10-1 15 1s9 5 11 9 2 10-1 13c-3 2-6 2-9 2l-15 1a10 10 0 00-5 1 6 6 0 00-2 7 8 8 0 006 5c0 3-4 5-7 6l-10 2c-3 1-5 5-3 8a8 8 0 016 2 22 22 0 00-6 11 102 102 0 0021 12l-6 4c-2 1-4 3-4 5s2 4 4 3l-1 8-6 5c-5 3-11 5-16 2z"/><path class="ad" d="M400 212l-2-1-5-3-5-2c-2-1-3-2-3-4v-3a3 3 0 00-2-2 14 14 0 00-10 0c-1 1-3 2-4 0l-1-2c0-2-2-4-5-5a18 18 0 00-7 1c-3 0-10 0-10 5a1 1 0 000 1l2 1a5 5 0 012 0c2 2 6 3 6 6a7 7 0 000 3l4 1h4c3 1 2 5 1 7s-4 5-3 8a25 25 0 005 2l-3 4-1 4c2 2 5 1 7 0s4-4 6-4a10 10 0 013 1 14 14 0 007 1 4 4 0 003-1c2-2 0-7 2-9l5 1a5 5 0 004-10zM329 275c-1 1-2 4-1 5a7 7 0 003 1c3 1 5 5 6 7s2 4 0 5l-2 1a5 5 0 00-3 7 25 25 0 013 2c1 2 0 5-1 7l-3 7a11 11 0 01-3 4l-6 2h-13a26 26 0 00-5-1c-1-1-3 0-4 2s2 4 4 5h6a4 4 0 012 1c2 1 1 3 1 5a7 7 0 0013 5 22 22 0 005 6c2 2 5 3 8 2s4-5 2-7c0-2-2-2-4-4a7 7 0 010-9 7 7 0 014-2l4-2a4 4 0 000-2 17 17 0 00-2-7c4-2 7-4 9-7s0-9-4-9h-4v-4l2-3c0-4-5-6-6-9l-1-5c-1-4-7-5-10-3zM269 282a2 2 0 000 1l3 1c2 0 3 2 3 5a33 33 0 010 6 16 16 0 001 8l6 5 1 5a7 7 0 003 4 3 3 0 004-1l-1-5-3-4-1-6c0-3-2-5-3-8s-1-5 0-7a4 4 0 001-1 3 3 0 000-3c-3-5-12-9-14 0zM287 212a6 6 0 003 1l-1 2-3 2a6 6 0 00-2 3l-2 6a4 4 0 000 2c0 2 2 2 3 1a7 7 0 002-5 8 8 0 011-4c3-3 10 0 12-4l1-6c1-2 1-4 3-3 3 1 5-1 7-3 2-1 3-2 3-4a3 3 0 00-2-1c-2-2-5-1-7 1s-5 4-8 4c-5 0-10 2-10 8z"/><path class="ac" d="M1129 655c1-6 4-12 10-15s13-2 18 2c4-5 9-9 16-10s13 2 16 8c9 2 16 14 12 23a36 36 0 00-1 4l-1 4c0 4-3 7-5 10-6 7-14 12-22 15-9 3-19 4-28 0-7-3-13-10-14-18l1-8c0-5-3-9-2-15z"/><path class="ad" d="M1137 685c0-5-2-9-1-14 0-7 4-13 10-16s13-2 17 3c4-6 10-10 16-11s14 3 17 9a15 15 0 016 3c1-9-5-18-13-19-3-6-10-10-16-9s-12 5-16 10c-5-4-12-5-18-2s-9 9-10 16c-1 5 1 9 2 14l-1 8a21 21 0 007 14 33 33 0 000-6z"/><path class="ac" d="M1226 784c8-1 15-9 14-17a14 14 0 007-25c4-2 5-8 3-12s-6-7-10-9a37 37 0 00-37 4 17 17 0 01-3 2 40 40 0 01-5 1c-6 2-10 9-10 15s3 13 5 19c4 7 11 7 16 11 7 5 11 12 20 11z"/><path class="ab" d="M1247 742c4-2 5-8 3-12s-6-7-10-9a36 36 0 00-11-3 17 17 0 017 8c2 4 1 9-3 12a14 14 0 01-7 24c1 8-5 16-13 17 4 3 7 5 13 5 8-1 15-9 14-17a14 14 0 007-25z"/><path class="ac" d="M1074 737a16 16 0 002 17 27 27 0 00-9 19c0 6 2 13 7 15 5 3 12 1 17 0-2 3-1 8 2 11a18 18 0 009 6 23 23 0 0016-1c5-3 9-8 9-13 5 2 11 1 15-2s7-8 9-13c2-7 2-13 0-20s-6-11-13-13c1-4 2-8 1-11-2-3-5-5-9-6-7-3-14-6-22-6s-11 5-18 8c-6 3-12 1-16 9z"/><path class="ab" d="M1138 734l1 1a9 9 0 000-2l-1 1zM1151 767c-2 5-4 10-9 13s-10 5-15 2c0 6-4 11-9 13a23 23 0 01-16 1 18 18 0 01-9-6c-3-3-4-7-2-11-5 2-12 3-17 1-3-2-6-6-7-11a27 27 0 000 4c0 6 2 13 7 15 5 3 12 1 17 0-2 3-1 8 2 11a18 18 0 009 6 23 23 0 0016-1c5-3 9-7 9-13 5 2 11 1 15-2s7-8 9-13a34 34 0 001-15 38 38 0 01-1 6zM1076 746a15 15 0 01-3-6 16 16 0 000 9 26 26 0 013-3z"/><path class="ac" d="M1081 664l-4 6c-1 2 1 4 3 4a25 25 0 00-14 19 37 37 0 000 13c1 4 4 10 8 10a10 10 0 013-1c2 1 3 4 3 6a18 18 0 0031 7 5 5 0 012-2c2-1 3 0 4 1a23 23 0 0033-7 23 23 0 002-6 23 23 0 00-4-40c3-3 4-8 3-12s-5-6-9-8a25 25 0 00-14-2 20 20 0 01-5 1 20 20 0 01-4-2 24 24 0 00-20 4l-8 4c-4 1-7 2-10 5z"/><path class="ab" d="M1163 693a24 24 0 00-9-16 22 22 0 011 5 24 24 0 01-10 21 23 23 0 01-30 16 24 24 0 01-5-3c-2-1-3-2-5-1a5 5 0 00-2 2 18 18 0 01-17 6 17 17 0 01-6-2 18 18 0 0031 7 5 5 0 012-2c2-1 3 0 4 1a23 23 0 0035-13 24 24 0 0011-21z"/><path class="ad" d="M1086 684c-6 0-10 7-9 13s7 9 13 9l5-2a8 8 0 002-5 38 38 0 00-1-7 9 9 0 009-7c1-2 1-6 4-7h5c3 0 4-2 5-4s2-5 1-7c-1-3-5-3-8-3h-14c-7 0-7 3-9 8-2 4-6 7-3 12z"/><path class="ac" d="M1162 728l-6 2c-1 1-3 4-1 6a25 25 0 00-23 5 37 37 0 00-8 10c-2 4-4 10 0 13a10 10 0 012 1c1 2 0 4-1 6a18 18 0 0020 25 5 5 0 013 0l2 4a23 23 0 0030 15 23 23 0 005-3 23 23 0 0023-33c4-1 7-4 9-8s0-8-2-12a25 25 0 00-9-10 20 20 0 01-4-3 20 20 0 01-3-3 24 24 0 00-18-11c-4 0-5 1-8-1-4-2-7-3-11-3z"/><path class="ab" d="M1207 802a24 24 0 003-18 22 22 0 01-2 5 24 24 0 01-22 10 23 23 0 01-35-12l-2-4a5 5 0 00-3 0 18 18 0 01-18-6 17 17 0 01-3-6 18 18 0 0020 25 5 5 0 013 0l2 4a23 23 0 0030 15 23 23 0 005-3 24 24 0 0022-10z"/><path class="ad" d="M1155 754c-4-4-12-1-15 4s-1 12 4 16c2 1 4 2 6 1a8 8 0 003-3 37 37 0 005-6 9 9 0 0011 1c3-1 5-4 8-3l4 3h6c2-1 5-2 5-4 1-3-2-6-4-8l-11-9c-6-4-7-2-12 1-4 2-9 1-10 7z"/><path class="ac" d="M1189 658l-6 2c-1 1-3 4-1 6a25 25 0 00-23 5 37 37 0 00-8 10c-2 4-4 10 0 13a10 10 0 012 1c2 2 0 4-1 6a18 18 0 0020 25 5 5 0 013 0l2 4a23 23 0 0030 15 24 24 0 005-3 23 23 0 0023-33c4-1 7-4 9-8a17 17 0 00-2-12 25 25 0 00-9-10 20 20 0 01-4-3 20 20 0 01-3-3 24 24 0 00-17-11l-9-1c-4-2-6-3-11-3z"/><path class="ab" d="M1234 732a24 24 0 003-18 22 22 0 01-2 5 24 24 0 01-22 10 23 23 0 01-35-12l-2-4a5 5 0 00-3 0 18 18 0 01-18-6 17 17 0 01-3-6 18 18 0 0020 25 5 5 0 013 0l2 4a23 23 0 0030 15 23 23 0 005-3 24 24 0 0022-10z"/><path class="ad" d="M1180 677c-4-4-12-2-15 4s0 12 4 15c2 2 4 2 6 2a8 8 0 004-3 37 37 0 004-6 9 9 0 0011 1c3-2 5-5 8-3 2 0 2 2 4 3h6c2-1 5-2 5-4 1-3-2-6-4-8l-11-9c-5-4-7-2-12 0-4 2-9 2-10 8z"/><path class="ac" d="M1107 711a18 18 0 00-6 6c-3 5-1 12 1 18-8 2-10 13-5 19s13 7 20 5a24 24 0 0038-4c1-1 1-3 3-3a9 9 0 013 0c5 0 8-2 11-6a22 22 0 004-11 26 26 0 010-6l2-4a17 17 0 00-2-16 21 21 0 00-15-8 19 19 0 00-16-10c-9-1-13 5-18 11-4 5-14 6-20 9z"/><path class="ad" d="M1112 745c-2-6-4-13 0-18a19 19 0 016-6c6-4 15-5 20-10 5-6 9-12 18-11a19 19 0 0116 10 22 22 0 017 2 18 18 0 00-3-6 21 21 0 00-15-7 19 19 0 00-15-11c-10 0-13 5-19 11-4 5-14 6-20 10a19 19 0 00-6 6c-3 5-1 12 1 18-8 2-10 13-5 19a16 16 0 008 5c0-5 2-11 7-12z"/><path class="ab" d="M1176 709a18 18 0 00-2-2 15 15 0 01-1 6l-2 4a27 27 0 00-1 6 21 21 0 01-4 12 13 13 0 01-10 5 9 9 0 00-4 0l-3 4a24 24 0 01-37 3c-6 2-13 2-18-2a13 13 0 003 9c4 6 13 7 20 5a24 24 0 0035 0 23 23 0 003-4l3-3a9 9 0 013 0 13 13 0 0011-5 21 21 0 004-12 26 26 0 010-6 44 44 0 012-4 17 17 0 00-2-16z"/><path class="ac" d="M1155 702c-6 3-11 6-13 12s0 13 5 15c0 4-1 8 2 11 2 3 5 4 9 4 5 0 11-1 13-5a15 15 0 0025-7 33 33 0 011-5l2-3a10 10 0 00-4-14 10 10 0 00-5-1 12 12 0 00-6-9c-4-3-8-1-12 0-6 0-11 0-17 2z"/><path class="ab" d="M1199 714a10 10 0 00-5-4 10 10 0 01-1 2l-2 3a33 33 0 00-1 5 15 15 0 01-24 7c-3 5-9 6-14 5a20 20 0 01-5-1c-1 3 0 7 2 9s5 4 9 4c5 1 11 0 13-5a15 15 0 0025-7 33 33 0 011-5l2-3a10 10 0 000-10z"/><path class="ae" d="M1150 179a58 58 0 00-6-2c-7-3-22-12-30-12-3 0-10 2-16 15-3 6-2 15-2 22 1 13 13 61 16 67 2 7 6 16 11 22l8-1-1-2c-6-12-14-49 5-54a53 53 0 018-4c6-2 13-4 19-8h1v-1h1c-1-5-3-10-6-14-4-6-13-5-20-5-5-1-9 1-11 3s-2 0-2-2c1-3 4-2 6-4s2-6 5-7c2-2 4 0 8-2 6-3 15 5 21 8a34 34 0 013 2 118 118 0 00-18-21z"/><path class="af" d="M1164 221h-1zM1163 222h-1z"/><path d="M1084 161c-10 5-18 12-27 18-8 7-17 12-25 20a21 21 0 00-1 2c12-7 20-6 33-12l15-9c-5 19-2 52 6 68 1-5 2-10 0-25-1-9-3-23-2-29 3-10 11-20 17-28 8-10 17-4 20-2a148 148 0 0022 8l-6-4c-15-11-34-17-52-7z" fill="#bab2a8"/><path class="ah" d="M1120 164c-3-2-12-8-20 2-6 8-14 18-17 28-1 6 1 20 2 29 2 15 1 20 0 25-8-16-11-49-6-68l-15 9c-13 6-21 5-33 12-6 7-7 15-8 24 0 14-1 42 5 49a20 20 0 002 3c-2-5 1-10 4-16 6-11 12-22 22-30l7-12h1c-1 10-9 21-14 30l-8 15c-3 6-5 11-4 18a61 61 0 007 2c-1-7 4-13 10-16l14-6 10-2c10 0 11 5 17 12 3 2 7-2 8-6l5-4c-4-16-12-49-13-60 0-7-1-16 2-22 6-13 13-15 16-15 8 0 23 9 30 12a59 59 0 016 2l-8-7a150 150 0 01-22-8z"/><path class="af" d="M1066 200c-5 2-11 2-15 6-3 2-3 5-5 9s-6 6-9 10c-5 7-5 17-7 26 0 5-3 15 3 18a1 1 0 001 0c4-11 10-21 17-29 5-6 12-14 13-21 0-1 2-12 6-18 2-3-2-2-4-1z"/><path class="ae" d="M1063 219l-7 12c-10 8-16 19-22 30-3 6-6 11-4 16a29 29 0 009 5c-2-7 0-12 3-18l8-15c5-9 13-20 14-30h-1z"/><path class="af" d="M1110 262c-3 1-5 2-6 5s-5 7-8 5c-6-7-7-12-17-12l-10 2-14 6c-6 3-11 9-10 16l1 1c6-10 18-10 29-9 5 0 10 1 14 5 4 3 9 5 13 3s7 3 11 7h10a92 92 0 01-14-29zM1168 200a37 37 0 00-3-2c-6-3-15-11-21-8-4 2-6 0-8 2-3 1-3 4-5 6-2 3-5 2-6 5 0 2 0 4 2 2s6-4 11-3c8 0 16-1 21 5l5 14h-1v1h-1c-6 4-13 6-19 8a52 52 0 00-8 4c-19 5-11 42-5 54l1 2 8-1a72 72 0 0014-5c13-19 14-62 14-62 1-2 5-4 7-5l1 1v2c4 11 9 33 9 48a20 20 0 005-5s0-9-3-23-14-34-18-40z"/><path d="M1175 220v-2l-1-1c-2 1-6 3-7 5 0 0-1 44-14 62 9-3 19-1 24-3 6-3 10-7 9-10 1-14-7-40-11-51z" fill="#4f463f"/><path class="ae" d="M1102 284c-4 2-9 0-13-3-4-4-9-5-14-5-11-1-23-1-29 9a427 427 0 0067 6c-4-4-7-9-11-7z"/><path class="ah" d="M1168 216c-2 0-5-2-7-1-4 1-7 5-18 6-7 0-14 0-19 4-3 1-3 3-4 6-3 5-6 5-7 8s2 9 2 12h1c3-6 7-13 12-17 4-2 8-4 18-5 7-1 12-4 17-5 8-2 7-5 12-6-2-1-4-3-7-2z"/><path d="M740 442c7-6 19-26 59-3 25 14 11 54 31 48 27-6 47 25 21 50s-38 20-66 6c-10-4-16-8-31-6s-21 24-50 27-74-30-51-49 25-28 18-46 29-42 44-27 18 4 25 0z" fill="#45dbe2"/><path d="M800 532c-12 0-42-7-50-5s-32 7-38 19-54 6-56-11 5 2 17-20c11-20 12-27 12-33a6 6 0 01-3-3c-2-5 4-10 12-13s15-1 17 3a6 6 0 01-1 5h1c10 0 38-19 46-15s-20 11-11 18 32-8 39 0-20 7-14 13 23 2 27 6-7 5-3 8 10-2 15 2-23 6-19 11 21 15 9 15zm44-14c-2-6-11-7-20-4s-16 10-14 15 11 6 20 3 16-9 14-14z" transform="translate(1 1)" fill="url(#b)"/><path class="al" d="M780 507c3-6 1-13-5-15-6-3-15 0-16 3l8 5-9-3c-1 1-2 10 7 15a11 11 0 0015-5z"/><path class="am" d="M759 498a35 35 0 013 1l6 2-4-3a24 24 0 01-4-3c1-3 9-5 14-3 6 3 8 9 6 15a11 11 0 01-7 5 10 10 0 01-8-1c-7-4-7-12-6-13z"/><path class="an" d="M759 499l3 1c4 2 5 2 6 1s0-2-4-4a36 36 0 01-3-2c1-2 8-5 13-2 5 2 8 8 5 13a10 10 0 01-6 6 10 10 0 01-8-1c-6-4-6-10-6-12z"/><path class="ao" d="M763 495c2-2 7-3 11-1s6 7 4 12a9 9 0 01-5 4 9 9 0 01-7-1 11 11 0 01-6-9l1 1c5 2 7 3 8 1v-1c2-2-1-3-4-5l-2-1z"/><path class="al" d="M786 473c2-4 2-9-2-12-3-2-10-2-11 0l5 5-6-3s-3 6 2 10a8 8 0 0012 0z"/><path class="am" d="M773 463l2 2 3 1-2-2a17 17 0 01-2-2v-1c1-1 7-2 10 1a8 8 0 011 10 7 7 0 01-5 3 7 7 0 01-5-2c-5-4-3-9-3-10z"/><path class="an" d="M773 464l1 1 4 2c1-1 0-2-2-4l-2-1c2-2 7-2 10 0a7 7 0 011 10 7 7 0 01-5 3 7 7 0 01-5-2c-4-4-3-8-2-9z"/><path class="ao" d="M776 462c2-1 5-1 7 1a6 6 0 011 9 6 6 0 01-4 2 6 6 0 01-4-2 8 8 0 01-3-7l1 1c3 2 4 2 5 1s0-3-2-4a13 13 0 01-1-1z"/><path class="al" d="M706 517a12 12 0 0016 0c4-4 4-13 1-15-2 0-7 6-7 5-1-1 5-6 5-7s-8-6-15 0c-5 5-5 12 0 17z"/><path class="am" d="M720 500l-2 3-3 4c1 1 2 0 4-2a23 23 0 013-3 1 1 0 011 0c2 3 2 11-2 15a11 11 0 01-15-1 12 12 0 01-3-8 9 9 0 013-7c6-5 13-2 14-1z"/><path class="an" d="M720 500l-2 2c-3 4-4 4-3 5v1c1 1 2 0 5-3l2-2c2 2 3 10-1 13a10 10 0 01-15 0 11 11 0 01-3-8 9 9 0 013-7 11 11 0 0114-1z"/><path class="ao" d="M722 505c1 3 1 8-2 10a9 9 0 01-13 0 10 10 0 01-2-6 8 8 0 012-6 10 10 0 0110-2c-4 4-5 5-3 7v1c2 2 4 0 7-3l1-1z"/><path class="al" d="M719 481a8 8 0 00-6 10c2 4 7 7 10 6l-1-6 2 5c1 1 6-3 5-9-1-5-5-7-10-6z"/><path class="am" d="M725 496a21 21 0 01-1-2l-2-4v3a16 16 0 010 3c-2 1-7-2-8-5a8 8 0 015-9 8 8 0 016 0 7 7 0 014 5c1 5-3 9-4 9z"/><path class="an" d="M725 495l-1-2-2-3-1 4a24 24 0 011 2c-2 0-7-2-8-5a7 7 0 015-9 8 8 0 016 0 6 6 0 013 5 8 8 0 01-3 8z"/><path class="ao" d="M721 495c-2 0-5-2-6-4a6 6 0 015-8 7 7 0 015 0 5 5 0 012 4 7 7 0 01-2 7v-1l-3-4h-1c-2 1-1 2-1 5l1 1z"/><path class="ap" d="M724 504a8 8 0 01-5-2 7 7 0 0110 0 8 8 0 01-5 2zM714 504a8 8 0 01-5-3 7 7 0 0110 1 8 8 0 01-5 2z"/><path class="ap" d="M716 507a8 8 0 013-5 7 7 0 01-1 10 8 8 0 01-2-5zM717 497a8 8 0 012-5 7 7 0 010 10 8 8 0 01-2-5z"/><path class="ap" d="M724 500a8 8 0 01-5 2 8 8 0 012-5c2-2 5-2 5-2a8 8 0 01-2 5zM717 507a8 8 0 01-6 1 7 7 0 018-6 8 8 0 01-2 5z"/><path class="ap" d="M720 507a8 8 0 01-1-5 7 7 0 016 7 8 8 0 01-5-2zM714 500a8 8 0 01-2-6 7 7 0 017 8 8 8 0 01-5-2z"/><path class="aq" d="M724 503a7 7 0 01-5-1 6 6 0 019-3 8 8 0 01-4 4zM715 505a7 7 0 01-5-1 6 6 0 019-2 7 7 0 01-4 3z"/><path class="aq" d="M718 507a7 7 0 011-5 6 6 0 012 9 7 7 0 01-3-4zM715 498a7 7 0 011-5 6 6 0 013 9 7 7 0 01-4-4z"/><path class="ar" d="M723 499a8 8 0 01-4 3 7 7 0 010-5 8 8 0 014-3 8 8 0 010 5zM718 507a8 8 0 01-4 3 7 7 0 011-5 8 8 0 014-3 7 7 0 01-1 5z"/><path class="ar" d="M722 506a7 7 0 01-3-4 6 6 0 018 4 7 7 0 01-5 0zM714 501a7 7 0 01-3-4 6 6 0 018 5 7 7 0 01-5-1z"/><path class="as" d="M720 501a1 1 0 110-1 2 2 0 010 1zM719 503a2 2 0 01-1 0 2 2 0 010-1 2 2 0 011 0 2 2 0 010 1z"/><path class="as" d="M719 503a2 2 0 010-1 1 1 0 011 0 1 1 0 010 1 2 2 0 01-1 0zM718 502a2 2 0 01-1-1 1 1 0 012 1 2 2 0 01-1 0z"/><path class="as" d="M720 502a2 2 0 01-1 0 1 1 0 011-1 1 1 0 011 0 2 2 0 01-1 1zM718 502a2 2 0 01-1 0 1 1 0 012 0 2 2 0 01-1 0zM719 503a2 2 0 010-1 1 1 0 010 1 1 1 0 010 1 2 2 0 010-1z"/><path class="as" d="M718 501a2 2 0 010-1 1 1 0 011 2 2 2 0 01-1-1z"/><path class="at" d="M719 501a1 1 0 010 1 1 1 0 010-1zM719 502a1 1 0 01-1 1 1 1 0 010-1 1 1 0 011 0zM719 502z"/><path class="at" d="M718 502a1 1 0 010-1 1 1 0 011 1 1 1 0 01-1 0z"/><path class="at" d="M719 502a1 1 0 010-1 1 1 0 011 0 1 1 0 01-1 1zM718 502a1 1 0 011 0 1 1 0 01-1 0zM719 502a1 1 0 010 1 1 1 0 010-1z"/><path class="at" d="M718 501a1 1 0 011 0 1 1 0 010 1 1 1 0 01-1-1z"/><path class="al" d="M652 548c3-4 11-8 11-8s-4 8-7 11a21 21 0 01-9 5 21 21 0 015-8z"/><path class="am" d="M650 550c7-9 2 1 2 1s10-6 1 2a13 13 0 01-6 3 16 16 0 013-6z"/><path class="an" d="M650 550c6-7 1 2 1 2s9-6 2 1a11 11 0 01-5 2 14 14 0 012-5z"/><path class="am" d="M652 550v1h1a72 72 0 00-5 5h-1a41 41 0 005-6z"/><path class="al" d="M649 542l14-3s-7 6-12 8a21 21 0 01-10 1 21 21 0 018-6z"/><path class="am" d="M647 543c10-5 1 2 1 2s11-1 0 2a13 13 0 01-6 1 16 16 0 015-5z"/><path class="an" d="M647 544c8-5 0 2 0 2s11-2 1 1a11 11 0 01-6 0 14 14 0 015-3z"/><path class="am" d="M649 544l-1 1h1a69 69 0 00-7 3v-1l7-3z"/><path class="al" d="M658 553l3-13 1 14a29 29 0 01-3 9 29 29 0 01-1-10z"/><path class="am" d="M658 556c0-11 2-1 2-1s2-10 1 1a18 18 0 01-2 6 22 22 0 01-1-6z"/><path class="an" d="M658 556c1-9 1 1 1 1s3-11 2-1a15 15 0 01-2 6 19 19 0 01-1-6z"/><path class="am" d="M659 555l1 1v-1l-1 7a62 62 0 000-7z"/><path class="al" d="M653 536l7 4-8 2c-3 0-6-4-6-4s3-2 7-2z"/><path class="am" d="M651 537c6 0 0 2 0 2s6 4-1 2a6 6 0 01-3-3 8 8 0 014-1z"/><path class="an" d="M651 537c5 0-1 1-1 1s6 4 0 2a5 5 0 01-3-2 7 7 0 014-1z"/><path class="am" d="M652 538l-1 1a24 24 0 00-4-1 14 14 0 005 0z"/><path class="al" d="M661 548v-8l5 7c1 3-1 6-1 6s-3-2-4-5z"/><path class="am" d="M662 550c-3-6 2-1 2-1s1-7 2 0a6 6 0 01-1 4 8 8 0 01-3-3z"/><path class="an" d="M662 550c-2-5 2 0 2 0s1-7 2-1a5 5 0 01-1 3 7 7 0 01-3-2z"/><path class="am" d="M663 549h1v-1a25 25 0 001 5 14 14 0 00-2-4z"/><path class="al" d="M660 533v8s-3-4-3-7a11 11 0 010-6 11 11 0 013 5z"/><path class="am" d="M660 531c2 6-2 1-2 1s0 7-1 0a7 7 0 010-4 9 9 0 013 3z"/><path class="an" d="M660 531c1 6-2 0-2 0s0 7-1 1a6 6 0 011-4 7 7 0 012 3z"/><path class="am" d="M659 532h-1v1a36 36 0 00-1-5h1a20 20 0 001 4z"/><path class="al" d="M654 533l7 8-10-6a20 20 0 01-5-6 20 20 0 018 4z"/><path class="am" d="M652 531c7 6-1 2-1 2s6 7-1 1a12 12 0 01-3-5 15 15 0 015 2z"/><path class="an" d="M651 531c7 5-1 1-1 1s6 7 0 1a10 10 0 01-3-3 13 13 0 014 1z"/><path class="am" d="M652 533h-1v1l-4-5a40 40 0 005 4z"/><path class="au" d="M651 544a10 10 0 005 0 14 14 0 002-1 13 13 0 00-2 1 11 11 0 00-2 5 10 10 0 004-3 16 16 0 002-3 26 26 0 00-1 4 15 15 0 001 5 15 15 0 001-5v-2a5 5 0 002 2 5 5 0 000-3 9 9 0 00-2-3l1-1-1 1v-1h1-2a13 13 0 000-3 5 5 0 00-1-3 6 6 0 000 3 9 9 0 000 2 20 20 0 00-2-2 9 9 0 00-3-2 10 10 0 002 3h1a4 4 0 00-3 1 5 5 0 002 2h-1a10 10 0 00-4 3zm10-3zm0 0z"/><path class="at" d="M664 539c-1 2-3 3-4 2s-1-3 0-5 4-2 5-1 1 3-1 4z"/><path class="at" d="M664 539c-2 2-4 2-5 2s0-3 1-5 4-2 5-1 0 3-1 4z"/><path class="at" d="M665 537a2 2 0 110-2 2 2 0 010 2z"/><path class="at" d="M664 536l3-4-3 4c-1 0 0 0 0 0z"/><path class="al" d="M676 565c-3-6-11-12-11-12s3 10 6 15a24 24 0 009 7 24 24 0 00-4-10z"/><path class="am" d="M678 568c-7-12-3 0-3 0s-10-9-2 2a15 15 0 006 5 18 18 0 00-1-7z"/><path class="an" d="M677 568c-5-10-1 1-1 1s-9-8-2 1a13 13 0 005 4 16 16 0 00-2-6z"/><path class="am" d="M675 567v2l-1-1a78 78 0 015 6l-4-7z"/><path class="al" d="M680 559c-5-4-15-6-15-6s7 8 12 11a24 24 0 0011 3 24 24 0 00-8-8z"/><path class="am" d="M683 561c-11-8-2 1-2 1s-13-3-1 3a15 15 0 007 1 18 18 0 00-4-5z"/><path class="an" d="M683 561c-9-7-1 2-1 2s-12-4-2 2a13 13 0 007 1 16 16 0 00-4-5z"/><path class="am" d="M680 561l1 2-2-1a79 79 0 018 4l-7-5z"/><path class="al" d="M668 570l-1-16s-3 9-3 15a33 33 0 001 11 33 33 0 003-10z"/><path class="am" d="M667 573c2-13-1-1-1-1s-1-13-2 1a20 20 0 001 7 25 25 0 002-7z"/><path class="an" d="M667 573c2-11-1 0-1 0s-1-12-2 0a17 17 0 001 6 22 22 0 002-6z"/><path class="am" d="M666 571v1l-1-1v8a71 71 0 011-8z"/><path class="al" d="M678 552c-4 0-10 3-10 3s6 3 10 3 6-3 6-3-3-3-6-3z"/><path class="am" d="M680 552c-8-1-1 3-1 3s-7 3 1 2a7 7 0 004-2 9 9 0 00-4-3z"/><path class="an" d="M680 552c-7-1 0 2 0 2s-7 3 0 3a6 6 0 003-3 8 8 0 00-3-2z"/><path class="am" d="M678 554h1l-1 1a28 28 0 015 0v-1h-5z"/><path class="al" d="M666 564l1-10-7 7c-2 3 0 7 0 7s4-1 6-4z"/><path class="am" d="M664 565c4-6-2-2-2-2s0-8-2 0a7 7 0 000 5 9 9 0 004-3z"/><path class="an" d="M664 565c4-5-2-1-2-1s0-7-2-1a6 6 0 000 4 8 8 0 004-2z"/><path class="am" d="M663 563l-1 1v-1a28 28 0 01-2 5l3-5z"/><path class="al" d="M669 546l-1 9 5-7a13 13 0 001-7 12 12 0 00-5 5z"/><path class="am" d="M671 544c-4 7 1 2 1 2s-1 7 2 0a8 8 0 000-5 10 10 0 00-3 3z"/><path class="an" d="M671 544c-3 6 1 1 1 1s-1 7 1 0a7 7 0 000-3 9 9 0 00-2 2z"/><path class="am" d="M671 546l1-1v1a41 41 0 012-5h-1a23 23 0 01-2 5z"/><path class="al" d="M677 547l-10 8 12-4a23 23 0 007-7 23 23 0 00-9 3z"/><path class="am" d="M680 546c-10 5 0 2 0 2s-8 7 1 1a14 14 0 005-4 18 18 0 00-6 1z"/><path class="an" d="M680 546c-8 4 1 1 1 1s-8 7 0 2a12 12 0 004-4 15 15 0 00-5 1z"/><path class="am" d="M679 548h1l-1 1 6-4a47 47 0 01-6 3z"/><path class="au" d="M674 557a9 9 0 00-1-1 5 5 0 003-1 5 5 0 00-4-2h1a12 12 0 004-4 11 11 0 00-5 2 23 23 0 00-3 2 11 11 0 001-2 7 7 0 001-3 6 6 0 00-2 2 15 15 0 00-1 4h-2 1v1l-1-1 1 1a11 11 0 00-3 3 5 5 0 000 3 6 6 0 002-1v2a17 17 0 000 6 17 17 0 002-6 31 31 0 000-4 20 20 0 001 3 12 12 0 005 4 12 12 0 00-2-5 16 16 0 00-2-2 16 16 0 002 1 11 11 0 006 2 12 12 0 00-4-4zm-7-2zm0 0z"/><path class="at" d="M664 553c1 2 3 3 5 2s1-3 0-5-4-4-5-3-1 4 0 6z"/><path class="at" d="M664 553c2 2 4 3 5 2s1-3 0-5-4-3-5-2-1 3 0 5z"/><path class="at" d="M664 550a2 2 0 100-2 2 2 0 000 2zM665 549l-3-5 3 5zM663 559l4-2c0-1-1-3-3-3s-4 0-4 2 1 2 3 3z"/><path class="at" d="M664 558c2 1 3 0 3-1l-3-3c-2-1-3 1-3 2l3 2z"/><path class="at" d="M662 557a1 1 0 10-1-1 2 2 0 001 1zM662 556l-5-1 5 1z"/><path class="ac" d="M1277 437c14-13 31-7 68 11s49 17 60 18 43 29 61 32 23 5 23 5l5 12s-6 11-47 13-62-4-92 15-59 19-95 13-52-9-60-13 15-14 50-11 46-3 41-7-13 2-38 0-64-17-64-17 74-59 88-71z"/><path d="M1466 498c-18-3-50-31-61-32s-23-1-60-18l-19-9c1 1 33 18 43 26 9 7 10 16 28 21a43 43 0 0128 25c3 7-25 5-43 12s-33 24-49 31a108 108 0 0022-11c30-19 50-12 92-15s47-13 47-13l-5-12-23-5z" style="mix-blend-mode:multiply" fill="#7ebb15"/><path class="aw" d="M1285 500c14-5-7-7-20-11s-17-11-1-12 16-6 11-9-10-15 3-15 10-12 10-16 5-7 5-7a24 24 0 00-16 7l-88 71s19-8 34-9 48 5 62 1zM1308 533c1-12-15-11-27-9 5 0 8-1 10 1 5 4-6 11-41 7-20-1-36 1-45 5a242 242 0 0150 3c28 4 52 6 53-7z"/><path class="ax" d="M308 662l49-4 31 11h11l80 30 57-11 22-12 16-8v-6l-42-33-50-19-39-19-21-3-34 18-34 24-33 10-13 14v8z"/><path class="ay" d="M308 656l49-4 31 11h11l80 30 57-11 22-12 16-8-2-9-40-30-50-19-39-19-21-3-34 18-34 24-33 10-13 14v8z"/><path class="ax" d="M354 624l12 11 31 3 40 12 23 12 39-3 29-16 22-6 1-14-11-9-62-21-28-11-30-3-36 14-16 13-14 7v11z"/><path class="ay" d="M354 617l12 11 31 3 40 13 23 11 39-2 29-17 22-6 1-7-11-15-62-21-28-11-30-3-36 14-16 13-14 7v10z"/><path class="az" d="M463 629l-21-7-14 3v3l11 6 19 3 8 5h7l9-3 1-5-13-4-7-1zM411 592l-14 2-6 5 2 5 7 1 3-4 7-2 4-4-3-3z"/><path class="ax" d="M422 605l4-20 13-13 2-8 30-3 33 5 28 1 6 7 2 6 7 37-7 3-13 3-28-4-34 4-22-11-17-2-4-5z"/><path class="ba" d="M441 564l1 9 31 15 29-9 8 3 11-3 4-4 4 1 9-2-6-7-28-1-33-5-30 3z"/><path fill="#898989" d="M502 579l-29 9 1 13-1 6v7l-4 6-4 3 34-4-2-18 2-7-3-3 3 2 3-10v-4z"/><path class="ba" d="M528 619l-3-5-9-3-4-6-2-8 6-8-8 8-1 14-8 8 28 4 13-3-12-1z"/><path class="bc" d="M443 612l4-10 1-7 2-4 2-4 1 1 1 8-1 7 1 4-1 4 1 7-11-6z"/><path class="ba" d="M435 582l2-4 5-5-1-9-2 8-13 13-4 20 5-18 8-5z"/><path class="bd" d="M458 575l14 6 11-1 8-1 1-3-8-7-9 2-7-4-8 3-2 5z"/><path class="az" d="M482 570l-7 1-7-4-8 3-2 5h2l1-3 8-2 4 2 9-2z"/><path class="ax" d="M456 629l-21-7-14 3v3l11 6 19 3 15 5 9-3 1-5v-2l-13-2-7-1z"/><path class="bd" d="M456 627l-21-7-14 3v3l11 6 19 3 15 5 9-3 1-5-13-4-7-1z"/><path class="ax" d="M411 593l-18 1-5 3v1l2 5 7 1 3-4 7-2 4-4v-1z"/><path class="bd" d="M408 590l-15 2-5 5 2 4 7 1 3-3 7-2 4-4-3-3z"/><path class="ax" d="M525 653l-20 12-9 2v4l10 5 22 2 12-11 9-2 3-11v-3l-11 1-8 5-7-2-1-2z"/><path class="bd" d="M524 651l-19 10-9 3v4l10 4 22 2 12-10 9-3 3-10-11-2-8 5-7-2-2-1z"/><path class="az" d="M397 631v7l29 9-29-8-31-4v-7zM460 655v7l34 1 11-2 11-6 10 2 7-3 8-5 9-7h6l-6-5 1-14-1 7-22 6-29 17-39 2zM562 654l-10-1v-2l-3 10-9 3-12 10v4l9-4 8-2 7-4 7-10 4-2-1-2zM465 623l29-3 18 3h15l-28-4-2-18 2-7-3-3 3 2 3-10v-4l-29 9 1 13-1 6v7l-4 6-4 3z"/><path style="mix-blend-mode:multiply" fill="#c6c6c6" d="M510 582l8 1-2 6-6 8 2 8 4 6 9 3 3 5 12 1 10 1-3-4-7-37-2-6-9 2-4-1-4 4-11 3z"/><path class="az" d="M468 567l-4 5v4l4 4-10-5 2-5 8-3z"/><path class="bc" d="M435 582l1 8 2 6v16h1l2-13v-8l3-5 2-5 3-3 4 1-11-6-5 5-2 4z"/><path class="az" d="M388 663v6l16 2 2-5-7-3h-11z"/><use class="c" transform="matrix(0 -.09 .09 0 1107 471)" xlink:href="#c"/><path class="d" d="M1157 294h-22l-10 1a13 13 0 00-8 7c-3 7-1 14-1 21a76 76 0 010 12 34 34 0 00-1 5 39 39 0 001 6 23 23 0 010 6v6l-1 11a3 3 0 000 1l-1 24v12l1 11a4 4 0 000 1 30 30 0 000 6 35 35 0 01-1 6 36 36 0 00-1 8l1 7v8a12 12 0 001 5 6 6 0 011 0c3 0 6 0 8 2 2 1 5 4 4 6a8 8 0 013-1 23 23 0 014 1c4 0 7-2 10-3a2 2 0 013 1h1a2 2 0 011 0 10 10 0 014 2 29 29 0 004 1 12 12 0 004 0 18 18 0 005-2 5 5 0 000-5 22 22 0 01-1-10l2-11 1-24v-75l1-25v-13a8 8 0 00-2-5 8 8 0 00-5-2h-2v-1a3 3 0 00-4 0z"/><path class="e" d="M1114 424c0 5-2 9 3 9h6c3 0 2-8 2-10 0-1 1-11-1-11h-9c-2 3-1 6-1 9zm0 0v-3-9l10-1c3 1 2 11 2 13s0 10-3 10l-6-1c-5 0-4-4-3-9z"/><path class="f" d="M1114 424c0 4-2 9 3 9 6-1 8 5 9-8 0-2 1-13-2-13l-7-1c-2 0-3 1-3 3a8 8 0 000 5 41 41 0 010 5z"/><path class="g" d="M1114 424v8a3 3 0 003 0l4-1c2-1 3 0 3-5 0-1 1-8-1-9s6-3-1-5l-8 2v1a8 8 0 000 4 41 41 0 010 5zm2-8l1 1v2l-1-3zm5-2l1 1c-2 2-1 0-1-1zm0 18c2-1 3-1 3-3 2 0 1 3-1 3h-2z"/><path class="h" d="M1118 378l9-1s3-5 0-5h-11c-1 0-5 7 2 6zm0 0c-6 1-5-4-3-6s10-1 12-1c3 1 1 5 0 6l-9 1z"/><path class="i" d="M1118 378h6l3-1c1-2 2-3 1-5l-7-1-6 1c-2 4-1 7 3 6z"/><path class="j" d="M1119 371l-4 1c-2 3-1 5 0 6a18 18 0 012 0l6-1c4 0 2-1 3-2a2 2 0 000-3l-4-1a20 20 0 00-3 0z"/><path class="h" d="M1145 465l9 2c0-1 4-4 1-6-2 0-9-3-11-2-1 0-6 6 1 6zm0 0c-6 0-4-5-2-6s10 1 12 2c3 1 0 4-1 6s-7-1-9-2z"/><path class="i" d="M1145 465l6 2h3c1-2 3-3 2-5l-6-2c-2-1-6-2-7-1-3 4-2 6 2 6z"/><path class="j" d="M1147 459h-4c-2 3-2 5-1 6a15 15 0 012 0l6 1c4 1 2-1 4-2a2 2 0 000-2l-4-2a20 20 0 00-3-1z"/><path class="e" d="M1157 374c1 7-1 8-2 15 0 3-15 0-12-6l1-4 1-8 7 1 5 2zm0 0l-5-1c-1-1-6-2-7-1l-1 3-1 8c-2 5 12 9 12 6l2-15z"/><path class="k" d="M1157 374c1 7-2 9-2 15 0 3-16-1-11-7v-7c1-4-1-4 7-3l6 2z"/><path class="g" d="M1153 390c-5 0-13-3-9-8v-7c1-2 0-4 2-4a2 2 0 010 1c0 4 2 3 3 2a3 3 0 000-2h2a31 31 0 014 1 5 5 0 01-1 2c-1 1-8 2 1 2 0 4-4 3-5 3-8-1-3 1-1 3 7 4-3-1-3-1-2 1 2 3 3 3 4 3 5 4 4 5z"/><path class="h" d="M1158 343c0 3 2 10-4 9l-5-1c-4 1-3-2-3-6 0-2-3-11 0-12 2 0 9-1 10 2a30 30 0 011 4l1 4zm0 0l-1-4-2-5h-9c-2 0 0 11 0 13 1 7 2 2 7 4 7 2 5-3 5-8z"/><path class="i" d="M1158 343c0 2 2 11-5 8-4-1-7 3-7-4 0-3-3-13 0-14 13 0 9 1 12 9a5 5 0 010 1z"/><path class="j" d="M1146 344l-1-3a6 6 0 013 0c1 1 3-3-3-5l1-3h2a18 18 0 004 1c3 1 5 5 3 8 0 1 4 9-1 7-3 1-4 1-6-2-2 1 1 0-2-3z"/><path class="h" d="M1143 300c0 3 2 10-4 9l-5-1c-4 1-3-2-3-6 0-2-3-11 0-12 2 0 9-1 10 2a29 29 0 011 4l1 4zm0 0l-1-4-2-5h-9c-2 0 0 11 0 13 1 7 2 2 7 4 7 2 5-3 5-8z"/><path class="i" d="M1143 300c0 2 2 11-5 8-4-1-7 3-7-4 0-3-3-13 0-13 13-1 9 0 12 8a4 4 0 010 1z"/><path class="j" d="M1131 301l-1-3a6 6 0 013 0c1 1 3-3-3-5l1-2 2-1a19 19 0 004 1c3 1 5 5 3 8 0 1 4 10-1 7-3 1-4 1-6-2-2 1 1 0-2-3z"/><path class="e" d="M1151 425c-6-3-8-4-9 7 0 7 2 6 7 6 1 1 2 1 3-1 2-2 1-10-1-12zm0 0c2 2 2 11 1 12l-4 2c-5-1-6 0-6-7 1-11 2-10 9-7z"/><path class="l" d="M1151 425c-3-1-8-5-8 3-2 12 0 9 7 11l2-2c1 0 1-10-1-12z"/><path class="m" d="M1147 423c-2 0-4 0-4 5-2 10-1 10 4 10a1 1 0 001 0c0-7 2-3 1-9 0-2-2-1-1-2 2-1 0-3-1-4zm-3 5c0-1 1-2 1 0 0 8-2 6-1 0z"/><path class="e" d="M1155 294c-7-3-9-4-9 6-1 8 1 6 6 7 2 1 2 0 3-1 2-2 1-10 0-12zm0 0c2 2 2 11 1 12a1 1 0 01-1 0c-1 2-1 2-3 2-5-1-7 0-7-8 1-10 3-10 10-6z"/><path class="l" d="M1155 294c-4-2-8-5-9 2-1 13 0 10 7 12l3-2c1-1 1-10-1-12z"/><path class="m" d="M1150 292c-2-1-4 0-4 4-1 11 0 10 5 11a1 1 0 000-1c1-6 3-2 2-8l-1-2c1-1 0-3-2-4zm-2 5c0-1 1-2 1 0-1 8-3 6-1 0z"/><path class="e" d="M1149 370c0-4 1-12-1-15-1-2-4 2-4 5v4c0 6 0 3 3 6h2zm0 0h-2c-3-2-3 0-3-6v-4c0-4 4-8 5-5s0 11 0 15z"/><path class="k" d="M1149 370c1-8 1-19-3-15-3 4-2 5-2 9 0 7 1 3 3 6h2z"/><path class="g" d="M1148 354l-2 1c-3 4-2 5-2 9 0 6 1 4 3 6l-1-8c5-7-2-1 1-6a4 4 0 001-2z"/><path class="h" d="M1130 427c1 3-2 6 3 6l5 1c2 0 2-6 2-7 1-3 1-6-3-7h-8c-1 2 1 6 1 7zm0 0c-1-1-3-6-1-7h8c5 1 4 3 3 7 0 2 0 7-2 7l-5-1c-5 0-2-3-3-6z"/><path class="j" d="M1130 427c1 3-2 6 4 6 1 0 6 5 6-5 0-2 4-9-7-8-3 0-6-2-4 5l1 2z"/><path class="i" d="M1130 427c1 3-1 5 2 6a5 5 0 011 0h1l3 1c1-2 0-9 2-11 1-1-1-2-3-3a18 18 0 00-3 0 3 3 0 00-1 3c1 2-1 3-2 3a5 5 0 000 1z"/><path class="e" d="M1156 441c1 7-1 8-2 14 0 4-15 0-12-6l1-3 1-7c1-1 6 1 7 1l5 1zm0 0l-5-1-7-1-1 4v7c-3 5 11 8 11 5l2-14z"/><path class="l" d="M1156 441c1 7-2 9-2 14 0 3-16 0-11-6v-6c1-5-1-5 7-3l6 1z"/><path class="m" d="M1145 455c-2-1-4-4-2-6v-6c1-4 0-5 4-4a7 7 0 010 2c-1 2 1 5 2 5 4 2 0 2 3 3 1 0-1 5-3 4l-4 2zm5-15a17 17 0 00-1 3c0 2 2 1 4 2 0 0 3 0 1-3a14 14 0 00-1-2h-3z"/><path class="n" d="M1143 321c0 2 0 11-2 13l-7 2c-6-1-5-11-4-15 0-2 0-12 4-12l5 1 2 6 2 5zm0 0l-2-5-2-7h-5c-5 0-5 17-5 20 1 8 6 9 13 5l1-13z"/><path class="l" d="M1143 321l-1 13s-13 8-13-8c0-3 0-17 5-17 7 1 5-2 7 6l2 6z"/><path class="m" d="M1139 335c-3 2-9 3-10-6l1-1a3 3 0 00-1-4c0-5 1-13 3-14 1 2 6-4 8 8 0 4-2 2-3 2-5-2 2 2 2 3 3 5-5 4-1 8 1 2 2 3 1 4z"/><path class="e" d="M1156 371c1-5 4-14 2-17-1-3-6 1-7 4l-1 5c-1 8 0 4 3 8h3zm0 0h-3c-3-3-4 0-3-8l1-5c1-3 7-8 8-4s-2 12-3 17z"/><path class="k" d="M1156 371c3-8 5-22-1-18-5 4-4 5-5 10-1 8 1 4 3 8h3z"/><path class="g" d="M1154 354c-4 3-3 4-4 9v2a2 2 0 010 1 3 3 0 003 3c4-2-2-7 1-11 3 0 1 5 1 6 2 0 2-9 2-9l-3-1z"/><path class="e" d="M1127 307c1-4 2-13-2-13-3-1-10 6-10 8v4c1 6 2 3 8 3l4-2zm0 0l-4 2c-7 0-7 3-8-3v-4c0-3 8-11 11-9s2 9 1 14z"/><path class="k" d="M1127 307c2-8 2-19-7-11-7 6-5 6-5 10 0 6 2 2 8 3l4-2z"/><path class="g" d="M1119 297c-6 5-4 5-4 9a15 15 0 000 1l2 1c0 2 5 0 5-1 5-4-6-2-2-8 5-2 3 3 4 3 3-1-1-7-1-7l-4 2z"/><path class="h" d="M1128 366l-2 4h2l2 1-1-3v-2a3 3 0 00-1-2v2zm0 0a1 1 0 000-1l1 2 1 3c1 2-1 1-2 0h-2l2-4z"/><path class="i" d="M1128 366l-2 4c-2 2 2 0 2 0s2 2 2 0l-1-3v-1l-1-1a1 1 0 010 1z"/><path class="h" d="M1129 366l2 1c2 2 6 2 2 5-1 0-2 2-3 0s2 1 0-3l-1-2v-1zm0 0a3 3 0 001 2c0 1 2 3 0 3 0 1 1 3 2 1s4-2 1-4l-4-2zm0 0z"/><path class="i" d="M1129 366l1 2s2 3 0 3c0 0 1 3 2 1 1-1 5-2 1-4a22 22 0 01-3-1h-1z"/><path class="h" d="M1127 396v-7c0-4 2 0 2 3l-1 4h-1zm0 0h1c1-4 2-5-1-8a4 4 0 000 1v7z"/><path class="k" d="M1127 396v-7l1-2c2 4 1 5 0 9h-1z"/><path class="h" d="M1149 458c1-2 6 0 7 0 4 1-1 3-3 2l-4-2zm0 0c4 2 4 3 8 1a4 4 0 00-1 0c-2 0-6-2-7-1z"/><path class="k" d="M1149 458c1-1 5 0 7 1h1c-4 2-4 0-8-1z"/><path class="h" d="M1143 349c0-1 0-2 2-1s-1 4-1 8c0 2-2 5-1-1v-6zm0 0a21 21 0 010 6c-1 6 1 3 1 1l2-6c1-3-4-4-3-1z"/><path class="k" d="M1143 349s-1-2 2-1-1 4-1 8c0 2-2 5-1-1a18 18 0 000-6z"/><path class="h" d="M1149 355a23 23 0 001 2l4-4c-1-1-4 1-5 2zm0 0c0-2 8-4 4-1-2 2-3 7-4 1z"/><path class="k" d="M1149 355l1 2 2-2c1-2 4-2 1-3l-4 3z"/><path class="h" d="M1157 295a19 19 0 000 2l4-4-4 2zm0 0c-1-2 7-4 4-1-2 2-4 7-4 1z"/><path class="k" d="M1157 295v3l2-2c1-2 4-3 2-3l-4 2z"/><path class="h" d="M1161 360l3-2v-2c-1-1-3-7-4-5l-1 7a5 5 0 002 2zm0 0v-1c-2-1-1-4-1-6 1-4 2 1 3 2v3l-2 2z"/><path class="i" d="M1161 360c1-1 1-2 3-2l-1-5c-1 0-3-4-3 0 0 1-2 5 1 6v1z"/><path class="e" d="M1140 448v-8l1-7 1 16c-1 2-1 2-2-1zm0 0c1 2 1 3 2 1l-1-16-1 5a24 24 0 000 3v7z"/><path class="l" d="M1140 448v-8a19 19 0 001-4c0-3 0-4 1 2v11s-1 2-1 0l-1-1z"/><path class="h" d="M1143 421a23 23 0 00-1 2l5-1a2 2 0 001 0c0-1-4-2-5-1zm0 0c1-2 8 2 3 2-2 0-7 3-3-2z"/><path class="k" d="M1143 421l-1 2h2c2-1 5 0 3-2h-4z"/><path class="h" d="M1156 424a22 22 0 001-3c-3 0-2 2-7 1 0 1 5 3 6 2zm0 0c-1 2-11-2-5-2 4 0 9-3 5 2z"/><path class="k" d="M1156 424l1-3-3 1c-3 1-6-1-4 1 0 0 5 2 6 1z"/><path class="n" d="M1129 431l-3-3v-5c0-1 0-3 1-1a51 51 0 012 6v3zm0 0v-3l-2-6a7 7 0 00-1 1l1 5 2 3z"/><path class="l" d="M1129 431l-2-3c-2-1 0-4-1-5 0 0 0-4 1 0a13 13 0 011 2l1 3a3 3 0 011 1l-1 2z"/><path class="e" d="M1141 431v-5c0-2 2-2 2 1-1 0-1-1-1 1 0 0 0 5-1 4v-1zm0 0v1l1-5a2 2 0 000-2v1c0 2-2 3-1 5z"/><path class="k" d="M1141 431c-1-1 1-3 1-5v5c0 2-2 1-1 0z"/><path class="e" d="M1155 455l1-5c0-2 2-1 1 1v2s-1 5-2 3v-1zm0 0v1c1 2 1-4 2-5a2 2 0 000-2l-1 1-1 5z"/><path class="k" d="M1155 455l1-5c0-1 1-2 1 1v2l-1 2c0 2-1 1 0 0a2 2 0 00-1 0z"/><path class="h" d="M1140 457a43 43 0 006-1c-1-1-4-1-5-3-1-1 0 1-1 2v2zm1-4zm-1 4v-3l1-2c2 3 3 2 5 4s-6 1-6 1z"/><path class="i" d="M1140 457h4s3 0 2-1l-5-4-1 1v4z"/><path class="h" d="M1142 396v-3l1-1a9 9 0 000-3c1-1 4 0 4 1l-3 4s-1 3-2 2zm0 0l2-4 3-2-3-1a9 9 0 01-1 3l-1 1v3zm5-6"/><path class="i" d="M1142 396v-3l1-1a5 5 0 000-3h4c1 1-2 2-3 3a10 10 0 00-1 4h-1z"/><path class="h" d="M1141 394c0-1 2-3 1-4l1-1c-1-1-1 1-2 1-2 2-2 1-1 4zm0 0a3 3 0 01-1-1v-2c3-2 1-2 2-3 2 0 0 2 1 2l-2 4z"/><path class="i" d="M1141 394l2-3v-2h-1c0 2-4 2-2 3l1 2z"/><path class="e" d="M1127 419h3l-3-2v2zm3 0h-3v-2c-1-2 1 0 1 0l3 2h-4z"/><path class="k" d="M1127 419h3c2 0-2-2-2-2-1 0-1-2-1 0v2z"/><path class="e" d="M1126 434h4l-3-2a3 3 0 00-1 0v2zm4 0h-4v-2c0-2 1 0 1 0l3 2h-4z"/><path class="k" d="M1126 434h3c2 0-2-1-2-2 0 0-1-2-1 0v2z"/><path class="h" d="M1139 420c1 0 2 2 3-1 1-2-3 1-3 1zm0 0a1 1 0 01-1 0l3-2c1-1 2 0 2 1-2 3-3 1-4 1z"/><path class="i" d="M1139 420c1 0 2 2 3-1l-1-1-2 2z"/><path class="e" d="M1143 373l-3-3c-2-1-1-1 0-2l2-2c1 1 0 2 2 3v3s0 2-1 1zm0 0c1 1 1-1 1-1v-3l-2-2-1 1c-2 1-2 1-1 2l3 3z"/><path class="k" d="M1143 373l-3-3c-2-1-1-1 0-2l2-1c1-1 0 2 2 2s0 3 0 3l-1 1z"/><path class="e" d="M1157 392c1-3 4-2 2-3s-1-4-2-3l-1 4c-1 1 0 2 1 2zm0 0s-2 0-1-3v-3c2-2 2 2 3 2 3 2 0 1-2 4z"/><path class="k" d="M1157 392c1-3 5-2 2-4-2 0-1-3-3-2v3c-1 2 0 3 1 3z"/><path class="e" d="M1157 373v-3c1-5 2-6 2-3l-1 3c0 2 1 4-1 3zm0 0h1v-5-2a18 18 0 00-1 4v3z"/><path class="k" d="M1157 373v-3c0-1 1-6 2-4a7 7 0 00-1 2v5h-1z"/><path class="h" d="M1157 334v-3l1-2a9 9 0 000-2c0-2 4 0 4 0l-4 4s0 4-1 3zm0 0l2-5 3-2h-3a9 9 0 01-1 2l-1 2v3zm5-7"/><path class="i" d="M1157 334v-3l1-2v-2h3c2 0-1 2-2 2a10 10 0 00-1 4l-1 1z"/><path class="h" d="M1141 309l3 1 1 2c0 1 0 9-2 6l-2-7a7 7 0 010-2zm0 0v1c-1 2 1 4 2 7s1-2 1-4v-3l-3-1z"/><path class="i" d="M1141 309l3 1v5c0 1 0 6-1 2-1-2-3-5-2-7v-1z"/><path class="h" d="M1159 318c-2 0-1-6-2-7 0-4 2 0 2 3v4zm0 0c0-4 1-5-1-8a5 5 0 000 1l1 7z"/><path class="k" d="M1159 318l-1-6v-2c2 3 1 4 1 8z"/><path class="h" d="M1129 315l-1-8c0-4 3 1 3 3l-2 5zm0 0v-1c1-4 2-4 0-8a4 4 0 000 1v8z"/><path class="k" d="M1129 315v-7-2c3 4 1 4 0 8v1z"/><path class="h" d="M1145 291v7c0 4-2-1-2-3l2-4zm0 0h-1c-1 4-1 5 1 8a4 4 0 000-1v-7z"/><path class="k" d="M1145 291v8c-3-3-1-4-1-8h1z"/><path class="e" d="M1157 440v-15c-1-1-4 2-4 5v4c0 6 1 4 3 6h1zm0 0h-1c-2-2-3 1-3-6v-4c0-3 3-8 4-4s0 10 0 14z"/><path class="l" d="M1157 440c1-7 1-19-2-14-3 3-2 4-2 8 0 7 1 3 3 6h1z"/><path class="m" d="M1156 425l-1 1c-3 3-2 4-2 8 0 6 1 4 2 6v-8c4-6-1-1 1-5a4 4 0 000-2z"/><path class="n" d="M1142 340v-4c-1-1 0-2 1-3s1-2 1-1a35 35 0 010 5l-1 3a1 1 0 01-1 0zm0 0c2-1 2-3 2-3v-5a6 6 0 00-1 1c0 1-2 2-1 3v4z"/><path class="l" d="M1142 340v-4c-1-1 1-2 1-3 0 0 1-3 1 0a10 10 0 010 2v2a2 2 0 010 1l-2 2z"/><path class="n" d="M1138 337l3 1v-1-2l-1 1h-2a2 2 0 00-1 1h1zm0 0c-2 0-1-1 1-1s1 0 1-1c2 0 1 1 1 2 0 0 1 2-1 1l-2-1z"/><path class="l" d="M1138 337l3 1v-1-2l-2 1h-1l-1 1a1 1 0 011 0z"/><path class="n" d="M1130 339v-4c1-1 0-2-1-4s-1-2-1 0a43 43 0 000 5l1 3h1zm0 0c-2-1-2-3-2-3l1-5c0 2 2 3 1 4v4z"/><path class="l" d="M1130 339v-4c1-1-1-2-1-4 0 0-1-3-1 1a13 13 0 000 2v2a3 3 0 000 1l2 2z"/><path class="h" d="M1144 340a21 21 0 00-1 3l1 3a6 6 0 001-3l-1-3zm0 0l1 3a6 6 0 01-1 4l-1-4 1-3z"/><path class="i" d="M1144 340l-1 2a3 3 0 000 1 15 15 0 001 4l1-2a4 4 0 000-2l-1-3z"/><path class="h" d="M1154 331a24 24 0 001 2l2-5-3 3zm0 0c-1-1 6-6 3-2-1 2-1 8-3 2z"/><path class="k" d="M1154 331l2 2v-2c0-2 3-4 1-4 0 1-4 3-3 4z"/><path class="n" d="M1128 408c0 6-1 9 6 10 2 1 8 1 7-4v-8-5c1-6-2-9-9-9-4 1-3 4-4 7a31 31 0 000 9zm0 0v-9c1-3 0-6 4-7 7 0 10 2 9 10l1 4c0 3-2 5-1 8 2 5-4 5-7 5-7-2-7-5-6-11z"/><path class="l" d="M1128 408v8c2 4 16 4 13-2-1-3 2-6 0-10-1-2 4-12-8-12-3 0-4 0-4 4l-1 12z"/><path class="m" d="M1128 408a9 9 0 010 1c5 2 1 3 0 3a12 12 0 000 4 3 3 0 001 1c5 0 13 0 10-3-2-2 2-8-1-8-6 0-9-2-10-3a18 18 0 000 5zm8-15c1 0 0 2 3 4s1 6-1 4l-2-1c5 4 0 5-1 4-1 0-4 1-7-1l1-7c0-4 1-4 4-4a14 14 0 013 1z"/><path class="o" d="M1129 415l-1-3h1c2 0 2-1 2-2a4 4 0 00-2-2c2 0 3 2 3 3 0 2-2 2-3 2a6 6 0 010 2zm-1-3z"/><path class="n" d="M1111 450c0 6-1 9 6 10 3 1 9 1 8-3v-13c0-7-3-10-10-9-3 0-3 3-3 7a31 31 0 00-1 8zm0 0l1-8c0-4-1-7 3-8 8 0 10 3 10 10v12c1 5-5 5-8 5-7-1-6-5-6-11z"/><path class="l" d="M1111 450l1 8c1 4 15 4 13-2v-10c-1-1 3-12-9-12-2 1-4 1-4 5l-1 11z"/><path class="m" d="M1111 450a9 9 0 010 1c5 3 2 3 0 3a12 12 0 001 4 3 3 0 001 1c5 0 12 0 10-3-2-2 1-8-2-8-6 0-9-2-10-3a18 18 0 000 5zm9-15c0 1-1 2 3 4 3 2 1 6-1 4-1 0-8-4-3-1 6 4 1 5-1 4 0 0-3 1-7-1l1-6c0-4 2-4 4-5a14 14 0 014 1z"/><path class="o" d="M1112 457l-1-3a6 6 0 012 0c2 0 2 0 1-2a4 4 0 00-1-2c1 0 3 2 2 4l-3 1a6 6 0 010 2zm0-3z"/><path class="n" d="M1142 382c0 7 0 9-7 9-3 0-5 0-6-4v-9l7-7c1-1 5 0 6 3v8zm0 0a40 40 0 000-7c0-4-5-6-6-4l-8 6 1 10c1 4 3 5 6 4 7 0 7-2 7-9z"/><path class="l" d="M1142 382c0 4 0 6-2 8-1 1-8 2-10 0-3-6-1-4-2-11 0-4 6-5 8-8h3c4 1 3 7 3 11z"/><path class="m" d="M1138 391c-2 0-7 1-8-1-3-6-1-4-2-11a3 3 0 011-2c1 0 3 0 3-2v-1a17 17 0 004-3c7 3 2 6 3 9s-2 4 0 7a3 3 0 01-1 4zm-7-5c0 4 5 2 2 1l-1-2-1 1z"/><path class="o" d="M1129 385v-6c1-1 2 0 3-2l1-2c0 2 0 4-3 4l-1 6z"/><path class="n" d="M1172 303c0 7 0 9-7 9-3 0-5 0-6-4v-9l7-7c1-1 5 0 6 3v8zm0 0a41 41 0 000-7c0-4-5-6-6-4-2 2-7 4-8 7l1 9c1 5 3 5 6 5 7-1 7-3 7-10z"/><path class="l" d="M1172 303c0 4 0 6-2 8-1 1-8 2-10 0-3-6-1-4-2-11 0-3 6-5 8-8h3c4 2 3 7 3 11z"/><path class="m" d="M1168 312c-2 1-7 1-8-1-3-6-1-4-2-11a3 3 0 011-2c1 0 3 0 3-2v-1a18 18 0 004-3c7 4 2 6 3 9s-2 4 0 7l-1 4zm-7-5c0 4 5 3 2 1l-1-2-1 1z"/><path class="o" d="M1159 306v-6c1-1 2 0 3-2l1-2c0 2 0 4-3 4l-1 6z"/><path class="n" d="M1129 352c0 6-3 14 6 16 3 0 7-1 7-5-1-5 2-20 0-23-1-2-13-7-13 2v10zm0 0a79 79 0 010-10c0-8 11-5 13-3 2 3-1 19 0 24 1 6-8 6-11 3-4-3-2-10-2-14z"/><path class="l" d="M1129 352v12c4 6 14 5 13-1-1-4 2-22-1-24s-12-4-12 3v10z"/><path class="m" d="M1134 364c-2-6 1-12 0-4 0 0 2 6 0 4-1 0 0 0 0 0zm-5-12v12a8 8 0 008 4 3 3 0 002-4l-1-5c1-6-1-8-3-12-2-3 0-9 0-7 0 4 0 10 5 10v-11c-3-2-11-4-11 3v10z"/><path class="o" d="M1137 357c0-4 0-4-2-7-2-2-3-6-2-8a6 6 0 001-2v2c-1 2 0 4 1 6 2 4 3 4 2 9z"/><path class="e" d="M1115 367l-1-10c0-3-1-15 1-16l8-1c4-1 3 3 4 7v12c0 5 1 11-6 11-4 0-4 0-6-3zm0 0c2 3 3 3 7 3 6-1 5-6 5-11l-1-12c0-4 1-7-3-6h-8c-2 1-1 12-1 14l1 12z"/><path class="k" d="M1115 367v-9c-1-3-2-15 0-17l8-1c2 0 3 0 3 3 0 4 2 12 1 16 0 3 2 10-5 11h-3c-2 0-3 0-4-3z"/><path class="g" d="M1115 367v-9c-1-3-2-15 0-17l8-1a2 2 0 012 0 40 40 0 011 7 4 4 0 010 2l-1 1c0 1-2 2-3 1l-1-2c-1-2 0 0 0 0v-3l-1-2v-1l-1 1a7 7 0 011 3v5l2 3 1 8c0 2 0 5-2 7h-2c-2 0-3 0-4-3z"/><path class="p" d="M1118 369c-2-1-2-4-2-7-1-4-2-4-2-9a17 17 0 012-7v-1l-1 3c-1 4 0 8 1 12s0 6 2 9z"/><path class="e" d="M1160 407c2 0 9-2 10 2 0 5 1 26-5 27l-7-1c-1-3 0-24 1-27a9 9 0 011-1zm0 0a6 6 0 00-1 1c-1 3-2 24-1 27 1 2 5 1 7 1 6 0 6-22 5-27 0-4-8-2-10-2z"/><path class="l" d="M1160 407c2 0 10-2 10 2 0 5 1 27-5 27-8 0-7 1-7-13l1-15a6 6 0 011-1z"/><path class="m" d="M1160 407h2a1 1 0 011 1c-1 3 4 0 0 6 2 6 1 6-1 11-1 2 6 5 3-1-2-3 0-1 0-5 0-2 2 2 2 5h3c-1 6-2 12-5 12-6 0-7 1-7-5v-8l1-15a6 6 0 011-1zm6-1c-2 1-3 2-1 4s0 4 1 4c5-1 3-2 4 2v-7c0-2-2-3-4-3z"/><path class="o" d="M1160 435c-4-4-1-3-1-6l-1-3a58 58 0 011-11v12l1 3c0 3-2 0 0 5z"/><path class="h" d="M1170 391c-3-1-10-2-13 2v6c0 3-1 4 3 5 7 3 12-3 11-10zm0 0l1 3c2 7-4 14-12 11-3-2-2-3-2-6s-2-5 1-7 9-2 12-1z"/><path class="i" d="M1170 391c-3-2-16-2-13 5 2 4-4 8 5 9 8 1 11-7 8-14z"/><path class="j" d="M1162 390c-4 1-6 3-5 6s-3 7 3 9c0-2-2-3 5-3 3 0 0 2-1 3a7 7 0 005-2 4 4 0 00-2-4c-3-1-1-7-5-9z"/><path class="q" d="M1166 400a10 10 0 01-2-6l-3-2h1c3 1 3 2 3 4l1 4z"/><path class="h" d="M1170 361c-2 0-10-3-10 1l-2 14 1 7c0 4-1 5 4 5 2 0 6 1 7-1v-6c0-4 1-7-1-11 0 0 2-8 1-9zm0 0c1 1 0 8-1 9 2 4 1 7 1 11v7h-8c-4 0-3-2-4-4v-8l2-14c0-4 8-1 10-1z"/><path class="i" d="M1170 361c-3 0-10-3-10 1l-2 14v8c1 2-1 4 6 4 5 0 7 2 6-4 0-3 1-11-1-14 1-1 2-8 1-9z"/><path class="j" d="M1165 360c-3 0-5 0-5 2l-2 14v8c1 2-1 4 5 4h3l1-2c-2-4 1-13 0-13-2-1-2-3-3 0l-4 4c-3 2 6-8 4-10-2-3 1-5 1-7z"/><path class="q" d="M1161 372l2-4c0-1-1-5 1-6-2 2 1 4 1 6l-4 4z"/><path class="h" d="M1163 326l7-2s3-8 0-9c-1-1-8-2-10 0 0 1-3 13 3 11zm0 0c-5 3-4-8-3-11s9-2 10-1c3 1 1 8 1 10-1 2-7 2-8 2z"/><path class="i" d="M1163 326l5-1 2-1c1-3 2-5 1-9l-6-1c-1-1-4-1-5 1-2 8-1 12 3 11z"/><path class="j" d="M1169 315l-3-1c-2 0-5 0-6 2-1 6-1 10 2 10l4-1c3 0 4-6 2-7 0 0-2-2 0-1 2 0 2-1 1-2z"/><path class="q" d="M1161 323l-1-4a8 8 0 012-4v3l-1 5z"/><path class="e" d="M1145 308c3 0 10-1 11 3l1 6v8c0 2-1 3-3 5-6 5-10 1-9-6l1-12a12 12 0 00-1-3 3 3 0 000-1zm0 0v1a15 15 0 010 3v12c-1 8 3 12 9 6 2-2 3-3 3-5v-8l-1-6c-1-4-8-3-11-3z"/><path class="k" d="M1145 308c2 0 11-1 11 3 0 2 2 2 1 9s2 5-3 10c-4 4-9 3-9-2-1-5 1-8 1-15l-1-4z"/><path class="g" d="M1145 308l9 1-1 1v6c1 3-1 6 2 8 4 5-7 7-8 6-3-4-2-4-2-6l1-11-1-4z"/><path class="p" d="M1147 330c-3-4 0-3-1-5v-3a47 47 0 011-10v11a12 12 0 010 2c0 3-2 1 0 5z"/><path class="h" d="M1114 395v6c0 2-1 7 1 8l3 1c1 1 7 1 7-1 3-5 1-7 1-12a70 70 0 010-11c1-2 1-7-1-8l-10 1c-2 1-2 6-2 7a52 52 0 001 9zm0 0a41 41 0 01-1-9c0-2 0-6 2-7l10-1c3 1 2 6 2 8a74 74 0 00-1 11c1 5 2 8 0 12-1 2-7 2-8 1l-3-1c-2-1-1-6-1-8v-6z"/><path class="i" d="M1114 395v8c0 3-1 6 3 7l5 1 4-3c2-4 0-7 0-11l1-11a23 23 0 000-6c-1-3-4-1-5-1h-3c-5 0-6 0-6 5l1 11z"/><path class="j" d="M1114 401a13 13 0 000 2c0 3-1 6 3 7l4-3c0-4 2-6 0-9 0-1-2-1-2-3v-6c1-2-2-7-2-10-3 0-4 0-4 5v6c3 3 3 4 1 10v1zm13-20a6 6 0 01-1 2c-4 6-1 10-1 16 1 1-1 9-3 8-1-3 2-3 1-9 0-5-3 0-3-11l-1-8h3c1 0 4-2 4 1l1 1z"/><path class="q" d="M1117 380c-3 0-3 0-3 3l2 8a17 17 0 01-1 6v-6l-1-6c0-2-1-7 3-5z"/><path class="h" d="M1139 451l-1-6c1-2 2-7 0-8l-3-1c-1-1-7-1-8 1-2 4-1 7 0 12a68 68 0 01-1 11c0 1-1 7 1 7h11c2-1 1-6 1-8a53 53 0 000-8zm0 0a41 41 0 011 8c0 2 0 7-2 8l-11 1c-2-1-1-6-1-8a74 74 0 000-11c0-5-2-8 1-13 1-1 6-2 8-1l3 1c2 2 1 7 1 9v6z"/><path class="i" d="M1139 451l-1-4 1-4c0-3 1-6-3-7-2 0-1-2-5-1-4 0-4 0-5 3v22a22 22 0 000 6c0 2 3 1 5 1h3c5 0 5 0 5-6v-10z"/><path class="j" d="M1139 445a15 15 0 000-2c0-3 1-6-3-7l-4 3c0 3-2 6-1 9l3 3v6c-1 2 2 7 2 10 3 0 3-1 3-6v-5c-2-3-3-5-1-11zm-13 20a6 6 0 011-3c3-5 1-9 0-15 0-2 1-9 4-9 0 4-2 4-2 10 1 5 3 0 3 10 0 2 2 7 1 9h-2c-2 0-4 2-5-1v-1z"/><path class="q" d="M1136 466c2 0 3-1 2-3l-1-8a17 17 0 010-6l1 6 1 6c0 2 1 7-3 5z"/><path class="e" d="M1142 404l1 11c0 5 2 5 7 6 3 0 7 0 6-4l1-3c1-5 1-6-1-10-2-3 0-11-1-12-12-4-11 5-13 12zm0 0c1-8 1-17 13-12 2 1 0 9 1 11 3 5 2 6 1 11v3c0 4-4 5-8 4-5-1-7-2-7-6v-11z"/><path class="k" d="M1142 404c2 9-2 14 4 16 4 2 12 3 10-4 0-1 4-8 0-12l-1-12c-13-4-11 5-13 11a4 4 0 000 1z"/><path class="g" d="M1142 405v1a29 29 0 019 4l2 3-3-2a19 19 0 00-7-3c0 6-2 11 3 12 11 4 14-4 5-11-2-2-7-3-3-5l7-3v-4a1 1 0 000 1c-1 2-7-1-11 0-2 1 0 6-2 7zm16 3c-3 0-8-3-1-4a9 9 0 011 4zm-14-14c5-5 10-1 8 1-3 4-7 3-9 1a10 10 0 011-3z"/><path class="p" d="M1145 419c-2 2-2-4-2-5a23 23 0 000-3c0-1-2-4-1-5l2 4v7l1 2z"/><path class="k" d="M1155 420l-8-8c-2-3-3-2-5-3a6 6 0 015 2l2 2c4 2 3-1 7 0l-5 1a1 1 0 01-1 0c3 2 4-1 6 1-3-1-4 1-6-1l-3-2c3 5 4 5 8 8zm-13-11z"/><path class="e" d="M1164 328h7c2 3 0 13 1 17 0 3 2 11-4 11-3 0-2 1-5-4l-4-9c-1-4-1-12 2-14a5 5 0 013-1zm0 0l-3 1c-3 3-3 13-2 16l6 11h5c5-1 3-8 2-11 0-4 1-14-1-17-1-2-5 0-7 0z"/><path class="k" d="M1164 328c2 0 6-2 7 0l1 11c0 5-1 3 1 9 0 3 0 8-5 8-2 0-2 2-4-3-1-3-6-8-6-10 1-4 0-16 6-15z"/><path class="g" d="M1166 356a14 14 0 01-2-3c-1-3-6-8-6-10 0-4 0-13 4-15 3 0 4-1 6 7 1 5-1 3-1 9l-1 11z"/><path class="p" d="M1163 350c-3-3-6-15-3-18l1-1-1 1c-2 5 2 13 3 18z"/><path class="e" d="M1161 348l6-4c1-3 8-4 2-2l-4 4c-4 2-3 1 2 2 4 2-4-1-5-1l-1 1zM1127 339h-9c-5-1-3-5-3-9 0-2-2-18 0-18l7-1c2-1 6-1 6 2v13l-1 13zm0 0v-13l1-13c0-3-4-2-6-2l-7 1v17c0 6-2 10 6 10h6z"/><path class="k" d="M1127 339h-9c-4-1-3-3-3-7v-12-8l7-1c2-1 6-1 6 2a176 176 0 000 18l-1 8z"/><path class="g" d="M1115 333v-1l-1-12 1-8a8 8 0 012 0l2 1c3-2 3-2 5-1 4 2 2 4 1 5-5 0-1 4 1 6v13c-1 3-2 2-5 2-4 1-4-2-5-2l-1-4zm4 0a8 8 0 01-1-2c0-2-1-1-1-1a1 1 0 010 1c-1 1 3 7 2 1zm5-15c0 1 0 3 2 3a2 2 0 00-1-3h-1z"/><path class="p" d="M1116 326c-2 0 0-10 0-12l1 2-1 10z"/><path class="k" d="M1123 339a6 6 0 00-1-2c-2-1-2-4-2-5v1l1 3 2 3c-1 0 1 0 0 0z"/><path class="e" d="M1170 465h-9c-4-1-3-5-3-8v-19l7-1c2-1 6-1 6 2v14c0 1 1 12-1 12zm0 0c2 0 1-11 1-12v-14c0-2-4-2-6-2l-7 1v17c0 6-2 10 6 10h6z"/><path class="k" d="M1170 465h-9c-4-1-3-3-3-7v-12-8l7-1c2 0 6-1 6 2a178 178 0 000 18l-1 8z"/><path class="g" d="M1158 459v-1-12-8a8 8 0 012 0l2 1c3-2 3-2 6-1 3 2 1 5 0 5-4 0-1 4 1 6v13c-1 3-2 2-5 3-4 0-4-3-4-2l-2-4zm4 0a8 8 0 01-1-2c0-2-1-1-1-1a1 1 0 010 1c0 1 3 7 2 2zm5-15c0 1 0 4 2 3 0 0 1-2-1-3h-1z"/><path class="p" d="M1159 452l1-12v2l-1 10z"/><path class="k" d="M1166 465a6 6 0 00-1-2c-2-1-2-4-2-5v1c1 0 0 3 2 4l2 2h-1zM1161 348l6-4c1-3 8-4 2-2l-4 4c-4 2-3 1 2 2 4 2-4-1-5-1l-1 1z"/></g></svg>