<svg xmlns="http://www.w3.org/2000/svg" xmlns:xlink="http://www.w3.org/1999/xlink" viewBox="0 0 1501 1001"><defs><radialGradient id="a" cx="392.2" cy="1223.2" r="51.8" gradientTransform="matrix(0 1 1 0 -1112 -146)" gradientUnits="userSpaceOnUse"><stop offset="0" stop-color="#c0a373"/><stop offset="1" stop-color="#fff" stop-opacity="0"/></radialGradient><linearGradient id="b" x1="1468.2" y1="997.3" x2="1468.2" y2="902.6" gradientTransform="matrix(1 0 0 -1 -146 1444)" gradientUnits="userSpaceOnUse"><stop offset="0" stop-color="#a0edf0"/><stop offset="1" stop-color="#45dbe2"/></linearGradient><style>.c{isolation:isolate}.b{fill:#70b344;stroke:#5f732e}.aa,.at,.b,.t,.u,.x,.y{stroke-miterlimit:10}.c{opacity:.25}.d{fill:#5c4328}.aa,.d,.e,.f,.g,.h,.i,.j,.k,.l,.m,.n,.o,.p,.q,.x,.y{fill-rule:evenodd}.e{fill:#544730}.f{fill:#877657}.g{fill:#ae9c87}.h{fill:#68543c}.i{fill:#9d8264}.j{fill:#b49871}.k{fill:#8f7e5f}.l{fill:#857c68}.m{fill:#a59b84}.n{fill:#67604f}.o{fill:#bdb29a}.p{fill:#c1b09a}.q{fill:#cdb186}.s{fill:#ddc02c}.t,.u{fill:#3f2b0f}.aa,.at,.t,.u,.x,.y{stroke:#1d150c}.u{stroke-width:1.14px}.x,.y{fill:#571c10}.y{stroke-width:1.04px}.aa{fill:#c0a373}.ab{fill:#78a015}.ac,.aw{fill:#7ebb15}.ad{fill:#94d31a}.ae{fill:#897d6f}.af{fill:#635a52}.ah{fill:#91887b}.al{fill:#8ab550}.am{fill:#97c261}.an{fill:#a9d171}.ao{fill:#b3db7b}.ap{fill:#dcf5f5}.aq{fill:#f2ffff}.ar{fill:#fff}.as{fill:#fddfb3}.at{fill:#1d150c}.au{fill:#81a653}.az{mix-blend-mode:multiply}.aw{mix-blend-mode:screen}.ax{fill:#bdbdbd}.ay{fill:#d9d9d9}.az{fill:#cfcfcf}.ba{fill:#cbcbcb}.bc{fill:#c6c6c6}.bd{fill:#e8e8e8}</style></defs><g style="isolation:isolate"><path class="b" d="M1001 501h250v250h-250zM1251 251h250v250h-250zM1001 251h250v250h-250zM1001 1h250v250h-250zM1251 1h250v250h-250zM751 251h250v250H751zM751 1h250v250H751zM751 501h250v250H751zM501 251h250v250H501zM251 251h250v250H251zM501 501h250v250H501zM251 501h250v250H251zM751 751h250v250H751zM251 751h250v250H251zM1001 751h250v250h-250zM501 1h250v250H501zM1251 501h250v250h-250zM1251 751h250v250h-250zM501 751h250v250H501zM251 1h250v250H251zM1 1h250v250H1zM1 751h250v250H1zM1 251h250v250H1zM1 501h250v250H1z"/><use class="c" transform="rotate(2 -22406 40668) scale(.09)" xlink:href="#c"/><path class="d" d="M1422 764l-1-10 1-12-1-10a13 13 0 00-7-8c-7-3-14-1-21-1a75 75 0 01-11-1 34 34 0 00-6-1 39 39 0 00-6 1 23 23 0 01-6 0h-6l-11-1a3 3 0 00-1 0l-24-1-12-1-11 1a4 4 0 00-1 0 31 31 0 00-6 0 34 34 0 01-6-1 37 37 0 00-7-1h-16a12 12 0 00-5 1 6 6 0 010 2l-2 8c-1 1-4 4-6 3a7 7 0 010 3 22 22 0 010 4l2 11a2 2 0 01-1 2v1a2 2 0 011 1 10 10 0 01-2 5 28 28 0 00-1 3 12 12 0 000 4 19 19 0 001 5 5 5 0 005 1 22 22 0 0110-1l11 1c8 2 16 1 24 2h25l50 2h25l13 1a8 8 0 005-2 8 8 0 003-5v-2a3 3 0 001-4z"/><path class="e" d="M1292 719c-5-1-8-2-9 3l-1 6c0 3 8 2 10 2s12 1 12-1v-9c-3-2-6-1-9-1zm0 0h3c3 0 6-1 9 1 2 1 1 7 0 9 0 3-10 2-12 2s-10 0-10-3l1-6c0-5 4-4 9-3z"/><path class="f" d="M1292 719c-4 0-9-2-9 3 1 6-5 8 8 8 2 1 13 2 13-1l1-7c0-2-1-2-3-3a9 9 0 00-5 0 42 42 0 01-5 0z"/><path class="g" d="M1292 719h-8a3 3 0 000 3l1 3c1 2 0 3 5 4 1 0 7 1 9-1s3 6 5-1l-2-8h-1a9 9 0 00-4 0 42 42 0 01-5 0zm8 2l-1 1h-2l3-1zm2 5l-1 1c-2-2 0-1 1-1zm-18 0c1 1 1 3 3 3l-3-1v-2z"/><path class="h" d="M1338 724l1 9s5 3 5 0v-12s-7-4-6 3zm0 0c-1-6 4-5 6-3s1 10 0 12c0 3-4 1-5 0l-1-9z"/><path class="i" d="M1338 724v6l1 3c2 1 2 2 5 1l1-7-1-6c-4-3-6-1-6 3z"/><path class="j" d="M1345 724l-1-3c-3-2-5-2-6 0a15 15 0 010 2l1 6c0 4 1 2 2 3a2 2 0 003-1l1-3a22 22 0 000-4z"/><path class="h" d="M1250 749c0 2-2 8-1 9 0 0 4 4 5 1l3-11c-1-1-6-6-7 1zm0 0c0-6 6-3 7-1s-2 10-3 12-4 0-5-2 1-7 1-9z"/><path class="i" d="M1250 749l-1 6v3c1 1 2 3 4 2l3-6c1-2 2-5 1-6-4-4-6-3-7 1z"/><path class="j" d="M1257 751v-3c-3-3-5-3-6-2a17 17 0 010 2l-1 7c-1 3 1 2 1 3a2 2 0 003 0l2-3a21 21 0 001-4z"/><path class="e" d="M1342 762c-8 1-9-1-15-1-4 0 0-16 6-12h4l7 2c1 1-1 6-1 7l-1 4zm0 0l1-4 1-7-4-1-7-1c-6-3-9 11-6 11 6 1 7 3 15 2z"/><path class="k" d="M1342 762c-8 1-10-2-15-1-4 0 0-16 6-12l7 1c5 1 5-1 3 7l-1 5z"/><path class="g" d="M1325 758c0-4 4-12 8-9l7 1c3 0 4 0 4 2-5-1-3 2-3 2a3 3 0 003 1l-1 2a29 29 0 01-1 4 5 5 0 01-2-1c-1-1-2-8-1 0-4 1-3-4-3-5 0-7-2-2-3 0-4 6 1-3 1-4-2-2-4 3-4 3-2 4-4 5-5 4z"/><path class="h" d="M1373 764c-4 0-11 2-9-4v-5c0-4 3-3 6-3 2 0 12-3 12 0 0 2 1 9-1 10a29 29 0 01-4 1l-4 1zm0 0l3-1 5-1c2-1 1-9 1-10-1-2-11 0-13 1-8 0-3 1-5 6-2 7 4 5 9 5z"/><path class="i" d="M1373 764c-2 0-12 2-9-5 2-4-3-7 5-7 3 0 13-3 13 0 1 13 0 9-8 12a5 5 0 01-1 0z"/><path class="j" d="M1371 752l4-1a6 6 0 01-1 3c0 1 3 4 5-3l3 1v2a18 18 0 00-1 4c-1 3-4 5-7 4-1-1-10 3-7-2-2-3-2-4 2-6-1-2 0 1 2-2z"/><path class="h" d="M1416 750c-3 0-11 2-9-4v-5c0-4 3-3 6-3 2 0 12-3 12 0 1 2 1 9-1 10a31 31 0 01-4 1l-4 1zm0 0l4-1 4-1c2-2 1-9 1-10 0-2-11 0-13 0-7 1-3 2-4 7-3 6 3 5 8 5z"/><path class="i" d="M1416 750c-2 0-12 2-9-5 2-4-3-7 5-7 3 0 13-3 13 0 1 13 0 9-8 12a4 4 0 01-1 0z"/><path class="j" d="M1414 738l4-1a5 5 0 01-1 3c0 1 3 3 5-3l3 1v2a19 19 0 00-1 4c0 3-4 5-7 3-1 0-10 4-7-1-2-3-2-4 2-6-1-2 0 1 2-2z"/><path class="e" d="M1290 756c3-7 4-8-6-9-7 0-6 1-7 6l1 4c2 1 10 1 12-1zm0 0c-2 2-11 2-12 1-2-2-2-2-1-4 1-5-1-7 7-6 10 1 10 2 6 9z"/><path class="l" d="M1290 756c2-3 5-8-2-9-12-1-10 0-11 7-1 1 1 3 2 3 0 1 9 1 11-1z"/><path class="m" d="M1292 752c1-2 0-4-4-5-11-1-10 0-11 5a1 1 0 001 0c6 1 2 3 8 2 3 0 2-2 3-1s2 0 3-1zm-4-3v1c-8-1-6-2 0-1z"/><path class="e" d="M1421 762c4-7 5-8-6-9-7-1-6 1-7 6 0 1 0 2 2 3 2 2 9 1 11 0zm0 0c-2 2-11 2-11 0a1 1 0 01-1 0c-2-1-1-2-1-3 1-5 0-7 7-7 10 1 10 3 6 10z"/><path class="l" d="M1421 762c2-4 6-8-2-9-12-2-10 0-11 7l2 2c0 2 10 2 11 0z"/><path class="m" d="M1424 757c0-2-1-3-5-4-11-1-10 0-11 4a1 1 0 001 1c6 1 2 3 8 2 3-1 2-2 3-1s3 0 4-2zm-5-2v1c-8-1-6-3 0-1z"/><path class="e" d="M1346 754c4 1 12 2 15 0 1-1-2-4-5-4h-4c-7 0-4 0-6 3v1zm0 0l-1-1c3-3 0-3 7-3h4c3 0 8 4 4 5s-10 0-14-1z"/><path class="k" d="M1346 754c7 2 19 2 14-2-3-3-4-2-8-2-7-1-4 0-7 3l1 1z"/><path class="g" d="M1361 754l-1-2c-3-3-4-2-8-2-7-1-4 0-6 3l7-1c7 5 2-2 6 1a4 4 0 002 1z"/><path class="h" d="M1289 735c-3 1-6-2-6 3l-1 4c0 3 5 2 6 3 4 0 7 1 7-3v-8c-1-1-5 0-6 1zm0 0c1-1 6-3 7-1v8c-1 5-4 4-8 3-1 0-7 0-7-3l2-4c0-5 2-2 6-3z"/><path class="j" d="M1289 735c-3 1-6-3-6 4 0 1-5 6 5 6 1 0 8 4 8-7-1-3 2-6-6-4l-1 1z"/><path class="i" d="M1289 735c-3 1-5-2-6 1a5 5 0 010 2v1l-1 3c2 1 9 0 11 2 1 1 2-1 3-3a18 18 0 000-3 3 3 0 00-4-1c-2 1-2-1-2-2a5 5 0 00-1 0z"/><path class="e" d="M1274 760c-7 1-8-1-14-1-3-1 1-16 6-12h4s6 0 7 2l-1 7-2 4zm0 0l1-4 2-7-4-1-7-1c-5-3-9 11-6 11 6 1 7 3 14 2z"/><path class="l" d="M1274 760c-7 1-9-2-14-2-3 1 1-15 7-11l6 1c4 1 4-1 3 7-1 1 0 4-2 5z"/><path class="m" d="M1261 750c1-3 3-5 6-3l6 1c3 1 4-1 3 4a7 7 0 01-2 0c-2-1-4 0-5 1-2 4-2 1-3 3 0 1-4-1-3-3l-2-3zm15 4a16 16 0 00-3 0c-3 0-1 1-3 3 0 1 0 3 3 2a13 13 0 002-1l1-3z"/><path class="n" d="M1395 749l-13-1c-1-1-3-6-2-8 1-5 10-4 15-4 2 0 11 1 11 4v6l-7 2-4 1zm0 0l4-1 7-2a56 56 0 001-6c0-5-17-5-20-4-8 0-10 6-5 12 0 1 12 2 13 1z"/><path class="l" d="M1395 749c-1 1-13 0-13-1 0 0-9-13 7-12 3 0 18 0 17 4 0 7 2 6-5 8l-6 1z"/><path class="m" d="M1381 746c-2-4-3-10 6-10l1 1a3 3 0 004-1c4 0 13 1 14 3-2 1 4 6-8 7-5 1-3-1-2-2 2-5-3 1-3 2-5 3-5-5-8-2l-4 2z"/><path class="e" d="M1345 761c4 2 13 5 17 3 2-1-2-6-5-7l-5-1c-7-1-4 0-8 3l1 2zm0 0c-1-1-2-1-1-2 4-3 0-4 8-3l5 1c4 1 8 7 4 8s-12-2-16-4z"/><path class="k" d="M1345 761c8 4 21 6 17 0-4-5-5-4-10-5-8-2-4 0-8 3l1 2z"/><path class="g" d="M1362 761c-4-5-5-4-10-5h-2a2 2 0 01-1 0 3 3 0 00-3 3c2 4 7-2 12 1-1 3-5 1-6 1-1 2 9 2 9 2l1-2z"/><path class="e" d="M1409 734c4 1 13 2 13-2 1-3-6-10-8-10h-4c-6 0-3 1-3 8l2 4zm0 0l-2-4c0-7-3-8 3-8l4-1c3 0 10 9 8 12s-8 2-13 1z"/><path class="k" d="M1409 734c8 2 19 2 11-7-6-8-6-5-10-5-6 0-2 2-3 8l2 4z"/><path class="g" d="M1420 726c-6-6-6-4-10-4a15 15 0 00-1 0l-1 1c-2 1 0 5 0 6 4 5 3-6 9-2 2 5-3 3-4 4 2 3 8-1 8-1l-1-4z"/><path class="h" d="M1350 734l-4-2v2l-1 2 3-1h2a3 3 0 001-1h-1zm0 0a1 1 0 001 0l-2 1-3 1c-2 1-1-2 0-2-1-1-2-4 0-2l4 2z"/><path class="i" d="M1350 734l-4-2c-2-2 0 2 0 2l-1 2 3-1h2l1-1a1 1 0 01-1 0z"/><path class="h" d="M1350 735h-1v2c-2 2-2 6-5 2-1-1-3-2 0-3s-1 2 3 0l2-1zm-1 0a3 3 0 00-1 1c-1 0-4 2-4 0 0 0-2 1 0 2s2 4 3 1l2-4zm0 0z"/><path class="i" d="M1350 735l-2 1s-4 2-3 0c0-1-4 1-1 2 0 1 2 5 3 1a21 21 0 012-4z"/><path class="h" d="M1320 733c0-2 6-1 7-1 4 0-1 3-3 2l-4-1zm0 0c4 1 5 2 8 0a4 4 0 00-1 0h-7z"/><path class="k" d="M1320 733h8c-3 3-4 1-8 0z"/><path class="h" d="M1258 753c1 1-1 6-1 7-1 4-2-1-2-3l3-4zm0 0h-1c-1 4-2 4-1 8a4 4 0 001-1c0-1 2-6 1-7z"/><path class="k" d="M1258 753c1 1-1 5-1 7l-1 2c-2-5 0-5 1-9h1z"/><path class="h" d="M1366 749c2 0 3 1 1 2s-4-1-7-1c-2 0-5-2 1-1h5zm0 0a21 21 0 01-5 0c-7-1-4 1-1 1l5 2c3 1 5-4 1-3z"/><path class="k" d="M1366 749c1 0 3 0 2 2-1 3-5-1-8-1-2 0-5-2 1-1a18 18 0 005 0z"/><path class="h" d="M1361 755a23 23 0 00-3 1l4 4a2 2 0 001 0l-2-5zm0 0c2 0 4 8 1 4-2-2-7-3-1-4z"/><path class="k" d="M1361 755l-3 1 2 2c2 1 3 4 3 1l-2-4z"/><path class="h" d="M1421 764a24 24 0 00-3 0l4 4-1-4zm0 0c1-1 3 8 0 4-2-2-7-4 0-4z"/><path class="k" d="M1421 764h-3l1 2c3 1 3 4 4 2l-2-4z"/><path class="h" d="M1356 767l1 3h2c1-1 8-3 5-4l-7-1a5 5 0 00-1 2zm0 0c2-3 4-1 7-1 3 1-1 2-3 3h-3l-1-2z"/><path class="i" d="M1356 767l1 3 5-1c0-1 4-3 1-3-2 0-6-2-7 1z"/><path class="e" d="M1267 745h9c2 1 7 0 6 1h-15c-2-1-2-1 0-1zm0 0c-2 0-2 0 0 1h15l-5-1a22 22 0 00-2 0h-8z"/><path class="l" d="M1267 745h9a19 19 0 004 0c3 0 4 1-2 2l-12-1s-2 0 0-1h1z"/><path class="h" d="M1295 748a22 22 0 00-3-1c0 2 2 1 1 5 1 0 3-3 2-4zm0 0c1 1-2 8-2 3 0-2-3-7 2-3z"/><path class="k" d="M1295 748s-2-2-3-1l1 2c1 2-1 5 1 3l1-4z"/><path class="h" d="M1291 761a23 23 0 003 1l-1-7-2 6zm0 0c-1-1 3-11 2-5 0 4 4 9-2 5z"/><path class="k" d="M1291 761l3 1v-3c-1-3 0-6-2-4 0 0-2 5-1 6z"/><path class="n" d="M1285 734l3-3h5c1 0 3 0 1 1a50 50 0 01-6 2h-3zm0 0h3l6-3a7 7 0 00-1 0h-5l-3 3z"/><path class="l" d="M1285 734l3-2c1-2 4 0 5-1 0 0 4 0 0 1a13 13 0 01-2 1l-3 1a3 3 0 01-1 1l-2-1z"/><path class="e" d="M1285 746h5c2 0 1 2-1 1h-2s-5-1-3-2l1 1zm0 0h-1l5 1a2 2 0 002 0h-1c-2-1-4-2-5-1z"/><path class="k" d="M1285 746h5c1 0 2 2-1 1h-2a24 24 0 00-2-1c-2 0-1-1 0 0z"/><path class="e" d="M1261 760h4c2 1 2 2-1 2 0-1 1-1-1-1 0 0-5 0-4-1h1a1 1 0 011 0zm0 0h-2l5 1a2 2 0 002 0h-1c-2 0-3-2-4-1z"/><path class="k" d="M1261 760c1-1 3 1 4 1h-1-2a24 24 0 00-2 0c-2-1-1-2 0-1z"/><path class="h" d="M1259 745a43 43 0 000 5c1-1 1-3 4-4 1-1-2-1-2-1h-2zm4 1zm-4-1h3c2 0 2 1 1 1l-3 4c-2 2-1-5-1-5z"/><path class="i" d="M1259 745v3s0 3 1 2l3-4s1-1-1-1h-3z"/><path class="h" d="M1319 748l3-1 2 1a9 9 0 002 1c2 0 0 4 0 4-1 0-1-3-4-4l-3-1zm0 0l5 2 2 2v-3a9 9 0 01-2 0l-2-1h-3zm7 4"/><path class="i" d="M1319 748l3-1 2 1a6 6 0 002 1v3c0 2-2-2-2-2a10 10 0 00-4-2h-1z"/><path class="h" d="M1321 746l5 2h1l-2-1c-1-2 0-3-3-1zm0 0a3 3 0 011-1c2 0 2-1 3 1l2 2h-1c-2 1-4-1-5-2z"/><path class="i" d="M1321 746l4 2h2l-1-1c-1 0-1-3-3-2l-2 1z"/><path class="e" d="M1297 732v3l2-3h-2zm0 3v-3h1c3-1 1 1 1 1l-2 3v-4z"/><path class="k" d="M1297 732v3l1-2 1-1h-2z"/><path class="e" d="M1282 731v3l2-3h-2zm0 3v-3h1c3-1 0 1 0 1l-1 3v-4z"/><path class="k" d="M1282 731v3l1-2c1-1 2-1 0-1h-1z"/><path class="h" d="M1296 744c0 1-2 2 1 3 2 1-1-3-1-3a3 3 0 00-1 0zm0 0a1 1 0 010-1l2 3-2 2c-3-2 0-3 0-4z"/><path class="i" d="M1296 744c0 1-3 2 1 3l1-1-2-3v1z"/><path class="e" d="M1342 749l4-3c1-2 1-1 2 0l1 2c0 1-2 0-3 2h-2l-2-1zm0 0h2l2 1c1-2 2-2 3-2l-1-2c-1-1-1-2-2 0l-4 3z"/><path class="k" d="M1342 749l4-3c1-2 1-1 2 0l1 1-3 3c-1 2-2-1-2-1h-2z"/><path class="e" d="M1324 762c3 1 1 5 3 2 1-1 4-1 2-2 0-1-1 1-3-1-2-1-2 1-2 1zm0 0c-1 0 0-2 2-1l3 1c2 1-1 1-2 2-2 3-1 0-3-2z"/><path class="k" d="M1324 762c2 1 1 5 3 2 1-1 4 0 2-2 0-1-1 1-3-1-2-1-3 1-2 1z"/><path class="e" d="M1342 762l4 1c5 0 5 2 3 1h-4c-2-1-3 0-3-2zm0 0l1 1 4 1h3a19 19 0 00-4-1l-4-1z"/><path class="k" d="M1342 762c1-1 2 1 4 1 0 0 5 1 3 2a7 7 0 00-2-1h-4l-1-2z"/><path class="h" d="M1382 764l2-1 2 1a9 9 0 002 1c2 0 1 4 0 4-1-1-1-3-4-4l-2-1zm0 0l4 2 2 2v-3a8 8 0 01-2-1l-2-1-2 1zm6 4"/><path class="i" d="M1382 764c1-2 1-1 2-1l2 1 2 1v3l-2-2a10 10 0 00-4-2s-1 0 0 0z"/><path class="h" d="M1406 748v3h-3s-8 0-6-1l7-3a7 7 0 012 1zm0 0c-2-1-5 1-7 2-4 1 2 1 3 1h4v-3z"/><path class="i" d="M1406 748v3h-6s-5-1-1-2c1 0 5-3 7-1z"/><path class="h" d="M1397 765l7-1c4 0 0 2-2 2l-5-1zm0 0v1c5 0 5 1 8-2a5 5 0 00-1 0l-7 1z"/><path class="k" d="M1397 765l7-1h2c-4 3-5 2-9 2v-1z"/><path class="h" d="M1401 735h7c4 0 0 3-2 2l-5-1v-1zm0 0v1c5 1 5 2 9 0a4 4 0 00-2 0l-7-1z"/><path class="k" d="M1401 735h7l2 1c-4 2-5 1-9 0v-1z"/><path class="h" d="M1425 752h-7c-4 0 0-2 2-2l5 2zm0 0c-5-2-5-2-8 0a4 4 0 001 0h7z"/><path class="k" d="M1425 752h-7-2c4-3 5-1 9 0z"/><path class="e" d="M1276 761c3 1 11 2 14 1 2-1-2-4-5-4h-4c-6 0-3 0-6 2l1 1zm0 0c-1 0-2 0-1-1 3-2 0-2 6-2h4c4 0 8 3 5 4s-10 0-14-1z"/><path class="l" d="M1276 761c7 2 18 2 14-1s-5-2-9-2c-6 0-3 0-6 2l1 1z"/><path class="m" d="M1291 761l-1-1c-4-3-5-2-9-2-6 0-3 0-6 2h8c7 4 1-2 6 0a4 4 0 002 1z"/><path class="n" d="M1376 749l3-1c1-1 3 1 4 1s2 1 0 1a34 34 0 01-5 0l-2-1zm0 0l3 1h5a5 5 0 00-1 0l-4-2-3 1z"/><path class="l" d="M1376 749l3-1c1-1 3 1 4 1 0 0 3 2-1 1a11 11 0 01-1 0h-2a2 2 0 01-2 0l-1-1z"/><path class="n" d="M1379 744l-1 3h2v-1l-1-2a2 2 0 000-1v1zm0 0l1 1v2h-3l2-3z"/><path class="l" d="M1379 744l-1 3h2v-3s-1-2-1 0z"/><path class="n" d="M1377 736l4 1 3-1c1 0 3-1 1-1a40 40 0 00-5-1c0 1-2 0-3 2zm0 0c0-2 2-1 3-1h5a6 6 0 01-1 0l-3 2-4-1z"/><path class="l" d="M1377 736l3 1 4-1s3-1 0-1a11 11 0 00-2 0h-2a3 3 0 00-1 0l-2 1z"/><path class="h" d="M1375 750a22 22 0 00-3-1l-3 1a6 6 0 003 1c1 0 6 0 3-1zm0 0l-3 1a6 6 0 01-3-1l3-1a9 9 0 013 1z"/><path class="i" d="M1375 750h-1a3 3 0 00-2-1 15 15 0 00-3 1l1 1a4 4 0 002 0c4 0 5-1 3-1z"/><path class="h" d="M1385 760a24 24 0 00-3 2l5 2a3 3 0 001 0l-3-4zm0 0c1-1 6 6 1 4-2-2-7-1-1-4z"/><path class="k" d="M1385 760l-3 2 2 1c3 0 4 3 4 0l-3-3z"/><path class="n" d="M1308 733c-6 0-9-1-11 6 0 2 0 8 4 7h13c7 1 10-2 9-9 0-3-3-3-7-3a31 31 0 00-8-1zm0 0h8c4 1 7 0 8 4 0 7-3 10-10 10h-4l-9-1c-4 2-4-4-4-7 1-7 5-6 11-6z"/><path class="l" d="M1308 733h-8c-4 2-5 16 1 13 3-1 7 2 11 0 1 0 12 4 11-8 0-2 0-4-4-4l-11-1z"/><path class="m" d="M1308 733a12 12 0 01-1 0c-3 5-3 2-3 0a12 12 0 00-4 0 3 3 0 00-1 1c-1 5 0 12 3 10 2-2 8 2 8-1 0-6 2-9 3-10a18 18 0 00-5 0zm15 9c-1 0-2-1-5 3-2 3-5 1-3-2 0 0 4-7 0-2-4 6-5 0-4-1l2-7 6 1c4 0 4 2 4 4a14 14 0 010 4z"/><path class="o" d="M1301 734l3-1v2l2 1a4 4 0 002-1l-4 2-1-3a6 6 0 01-2 0zm3 0z"/><path class="n" d="M1266 716c-6 0-9-1-10 5-1 3-1 9 3 8h13c7 1 10-2 9-9 0-4-3-3-7-4a31 31 0 00-8 0zm0 0h9c3 1 6 0 7 4 0 7-3 10-10 9l-4 1c-3 0-5-2-9-1-4 2-4-5-4-8 2-6 5-6 11-5z"/><path class="l" d="M1266 716h-8c-4 2-5 15 1 13 4-1 7 2 11 0 1 0 12 4 12-8 0-2 0-4-5-4l-11-1z"/><path class="m" d="M1266 716a10 10 0 01-1 0c-3 5-3 1-3 0a12 12 0 00-4 0 3 3 0 00-1 1c0 5 0 12 3 10 2-2 8 2 8-1 0-6 2-9 3-10a18 18 0 00-5 0zm15 9c-1 0-2-1-4 2-3 3-6 1-4-1 0 0 4-7 0-2-3 5-4 0-3-1 0-1-1-4 1-7l6 1c5 0 4 2 5 4a14 14 0 01-1 4z"/><path class="o" d="M1259 717l3-1v1c0 2 0 2 2 2a4 4 0 002-2c0 2-2 3-3 3-2 0-2-2-2-3a6 6 0 01-2 0zm3-1z"/><path class="n" d="M1334 748c-8-1-9-1-9-7-1-4 0-5 4-7h9l7 8c1 1 0 4-3 5l-8 1zm0 0a41 41 0 006 0c5-1 7-5 5-6-2-3-4-7-7-8h-9c-5 2-5 3-5 7 1 6 2 7 10 7z"/><path class="l" d="M1334 748c-5 0-6 0-9-2 0-1-2-9 1-10 5-3 4-2 11-2 3 0 5 6 8 8v3c-2 3-7 3-11 3z"/><path class="m" d="M1325 744c-1-3-1-7 1-8 5-3 4-2 11-2a3 3 0 012 0c0 2 0 4 2 4h1a17 17 0 003 4c-4 6-6 1-9 2-3 2-4-1-8 0h-3zm5-8c-4 0-3 5-1 2h2l-1-2z"/><path class="o" d="M1331 735c2-1 5-2 6-1s0 3 2 3l1 1c-1 0-3 0-3-2s-5-1-6-1z"/><path class="n" d="M1412 779c-7 0-9-1-9-7 0-4 0-5 4-6h10l6 7c1 1 0 5-3 6h-8zm0 0a40 40 0 007 0c4 0 6-5 5-6l-7-8h-10c-4 2-5 3-4 7 0 7 2 7 9 7z"/><path class="l" d="M1412 779c-4 0-6 0-8-2-1-1-2-9 0-10 6-3 4-2 11-2 4 0 5 6 8 8v4c-1 3-7 2-11 2z"/><path class="m" d="M1403 775l1-8c6-3 4-2 11-2a3 3 0 012 1c1 1 0 3 2 3h1a17 17 0 003 4c-3 7-6 2-9 3s-4-2-7 0l-4-1zm5-7c-4-1-2 5-1 2l3-1-2-1z"/><path class="o" d="M1410 766c1-1 4-2 6 0s0 2 1 3l2 1c-2 0-4-1-4-3l-5-1z"/><path class="n" d="M1364 735c-6 0-15-3-16 6 0 3 1 7 4 6 6 0 21 3 24 1 1-1 6-13-3-13h-9zm0 0a79 79 0 0110 0c8 0 4 11 3 13-3 2-20-1-24 0-6 0-6-8-3-11 3-4 10-2 14-2z"/><path class="l" d="M1364 735h-13c-5 4-4 14 1 13s23 3 25-1c2-3 4-12-3-12h-10z"/><path class="m" d="M1352 740c6-2 12 1 4 0 0 0-6 2-5 0l1-1zm12-5h-13a8 8 0 00-3 7 3 3 0 003 3l6-1c5 1 8-1 12-3 3-2 9 1 6 0-4 0-9 0-9 5l11 1c2-4 3-12-3-12h-10z"/><path class="o" d="M1359 743c4 0 4 0 7-2 2-2 6-3 8-1a5 5 0 001 0h-1c-2-1-5 0-6 1-4 2-4 3-9 2z"/><path class="e" d="M1349 721l10-1c3 0 15-1 16 2l1 7c1 4-3 3-7 4h-12c-6 0-11 1-11-6 0-4 0-5 3-6zm0 0c-3 2-3 3-3 7 1 6 6 5 11 5l12-1c4 0 7 1 6-3v-7c-1-2-12-2-14-2l-12 1z"/><path class="k" d="M1349 721h26v8c1 2 0 3-2 3-5 0-12 2-16 1-3 0-10 1-11-5v-3c0-2 0-3 3-4z"/><path class="g" d="M1349 721h26v8a2 2 0 011 2 39 39 0 01-7 1 4 4 0 01-2 0l-1-1c-1 0-2-2-1-3l2-1c2-1 0 0 0 0h3l2-1h1l-1-1a7 7 0 01-3 1h-5l-3 2-8 1c-2-1-5 0-7-2v-2c0-2 0-3 3-4z"/><path class="p" d="M1347 724c1-2 4-2 7-2 4-1 4-2 9-2a17 17 0 017 2h1-3c-4-2-8-1-12 0s-6 0-9 2z"/><path class="e" d="M1308 765c0 2 2 10-2 10-5 1-26 1-27-6 0-1 0-5 2-6s23 0 26 1a9 9 0 011 1zm0 0a5 5 0 00-1-1c-3-1-24-3-27-1l-1 6c0 7 22 7 27 6 4 0 3-8 2-10z"/><path class="l" d="M1308 765c1 3 2 10-2 10-5 1-27 1-27-6s-1-7 13-6l15 1a6 6 0 011 1z"/><path class="m" d="M1308 765l1 3a1 1 0 01-1 0c-4-1-1 4-7 0-6 2-6 1-10-2-3-1-6 6 0 4 3-2 2 0 5 0 2 0-2 2-5 2v3c-6-1-12-2-12-6 0-6 0-7 6-7 0 1-1 2 2 1a2 2 0 001-1l4 1 15 1a6 6 0 011 1zm1 6c-1-2-2-3-4-1s-4 0-4 1c1 5 2 4-2 4h7c2 0 3-2 3-4z"/><path class="o" d="M1280 765c5-4 3-1 6-1l3-1a58 58 0 0111 1h-12a16 16 0 01-3 1c-2-1 0-3-5 0z"/><path class="h" d="M1324 776c1-4 2-11-1-13s-4 0-7 0c-3-1-4-1-5 2-3 7 3 13 10 11zm0 0h-3c-7 2-13-3-10-11 1-4 2-3 5-3s6-2 8 2 1 8 0 12z"/><path class="i" d="M1324 776c2-4 2-16-5-13-3 1-7-4-9 4-1 8 7 12 14 9z"/><path class="j" d="M1325 767c-1-3-2-6-6-4-3 1-7-4-8 3 2-1 3-2 3 4-1 3-3 0-4-1a7 7 0 002 5 4 4 0 004-2c2-3 8-1 9-5z"/><path class="q" d="M1315 772a10 10 0 016-3l3-2a1 1 0 01-1 1c-1 2-2 2-4 2l-4 2z"/><path class="h" d="M1354 776c0-2 3-10-1-10l-14-2h-7c-4 1-5 0-5 5 0 2-1 5 1 6l6 1c4 0 7 1 11-1 0 0 8 2 9 1zm0 0c-1 1-8-1-9-1-4 2-7 1-11 1l-7-1v-8c0-4 2-3 5-3h7l14 1c5 1 2 9 1 11z"/><path class="i" d="M1354 776c1-3 3-10-1-10l-14-2h-7c-2 0-5-1-5 5 0 5-2 7 4 7 3-1 11 1 14-1 1 0 8 2 9 1z"/><path class="j" d="M1355 771c1-3 1-5-2-5l-14-2h-7c-2 0-5-1-5 5v3l3 1c3-2 12 1 12 0 1-2 3-2 0-3l-3-4c-3-3 8 6 9 4 3-3 5 1 7 1z"/><path class="q" d="M1344 767l3 2c1 0 5-1 6 1-2-2-4 1-6 0l-3-3z"/><path class="h" d="M1389 769l2 8s9 3 9 0c1-2 2-8 0-10-1-1-12-4-11 2zm0 0c-2-5 8-4 11-2 3 1 2 8 1 10-1 3-8 1-10 0-2 0-2-7-2-8z"/><path class="i" d="M1389 769l1 5 1 3c3 1 5 2 9 1l2-6c0-1 0-5-2-5-8-3-12-1-11 2z"/><path class="j" d="M1401 776v-4c0-1 0-4-2-5-6-2-10-1-10 1l1 5c0 2 6 4 7 2 0-1 2-2 1 0l3 1z"/><path class="q" d="M1392 768c0-2 4-1 4-1a8 8 0 014 2h-3c-2-1-3-2-5-1z"/><path class="e" d="M1407 752c0 2 1 10-2 10-3 1-3 2-7 2l-7-1c-3 0-4-1-5-3-6-5-2-9 5-9 5 1 6 2 12 1a12 12 0 004 0zm0 0a14 14 0 01-4 0c-6 1-7 0-12-1-7-1-11 4-6 10 2 1 3 3 6 3h7l7-1c3-1 3-8 2-11z"/><path class="k" d="M1407 752c0 2 1 10-2 10-2 0-2 2-9 2s-6 1-10-3c-5-5-4-9 2-10 4 0 8 2 14 1h5z"/><path class="g" d="M1407 752v9l-1-1h-6c-4 1-7-1-9 1-5 5-7-7-5-8 4-3 4-1 6-2 3 1 6 2 10 1h5z"/><path class="p" d="M1386 754c3-4 2-1 4-1l4-1a48 48 0 019 1h-11a13 13 0 01-2 1c-2 0 0-2-4 0z"/><path class="h" d="M1321 719h-6c-2 0-7-1-8 1l-1 3c-1 1-1 7 1 8 4 2 7 0 12 0a70 70 0 0111 1c2 0 7 1 7-1v-10c-1-2-6-2-7-2a52 52 0 00-9 0zm0 0a42 42 0 019 0c2 0 6-1 7 1l1 11c-1 2-6 2-8 1a75 75 0 00-11 0c-5 0-8 2-13-1v-8l1-3c1-2 6-1 8-1h6z"/><path class="i" d="M1321 719l-4 1-4-1c-3 0-6-1-7 3l-1 5c1 3 0 3 3 4 4 2 7 0 11 0l11 1a22 22 0 006 0c3 0 1-3 1-5v-2c0-6 0-6-5-6h-11z"/><path class="j" d="M1315 719a15 15 0 00-2 0c-3 0-6-1-7 3l3 4c4 0 6 2 9 1l3-3h6c2 1 7-1 10-1 0-4 0-4-5-4h-6c-3 2-4 3-10 1l-1-1zm20 13a6 6 0 01-3 0c-5-4-9-2-15-1-2 0-9-2-9-4 4-1 4 2 10 2 5-1 0-4 10-3 2 0 7-2 9-1v2c0 2 2 5-1 5z"/><path class="q" d="M1336 722c0-2 0-3-3-2l-8 1a17 17 0 01-6 0l6-1 6-1c2 0 7 0 5 3z"/><path class="h" d="M1265 744c3-2 2-1 6-1 2 0 7 1 8-1l1-3c1-1 1-6-1-7-4-3-7-1-12-1a68 68 0 01-11-1c-2 0-7 0-8 2l1 10c1 2 6 2 7 2a53 53 0 009 0zm0 0a41 41 0 01-9 0c-2 0-7 0-7-2l-1-10c1-3 6-2 8-2a75 75 0 0011 1c5 0 8-2 12 1 2 1 2 6 1 7l-1 3c-1 2-6 1-8 1-4 0-3-1-6 1z"/><path class="i" d="M1265 744c2-2 1-1 4-1h4c3 0 6 1 7-2l1-5c-1-4 0-4-3-5-4-2-7 0-11 0l-11-1a22 22 0 00-6 0c-3 1-1 3-1 5v3c-1 5 0 5 5 6h11z"/><path class="j" d="M1271 743a14 14 0 002 0c3 0 6 1 7-2v-1l-3-4c-4 0-6-2-9 0-1 0-1 2-3 2h-6c-2-1-7 2-10 2 0 3 0 3 5 4h6c3-3 4-3 10-1h1zm-20-13a6 6 0 013 1c5 4 9 1 15 1 2 0 9 1 9 3-4 1-4-2-10-1-5 0 0 3-11 3h-8v-2c0-2-2-4 1-5h1z"/><path class="q" d="M1250 740c0 2 0 3 3 3l8-2a17 17 0 016 1h-6l-6 1c-2 0-7 1-5-3z"/><path class="e" d="M1311 747l-10 1c-5 0-6 2-6 6-1 4-1 8 3 7l3 1c5 1 6 2 11-1l11-1c5-12-4-11-11-13a2 2 0 00-1 0zm0 0a1 1 0 011 0c7 2 16 1 11 13 0 2-8 0-11 2-5 2-6 1-11 0h-3c-4 0-4-4-4-8 1-5 2-7 7-7h10z"/><path class="k" d="M1311 747c-8 2-13-2-16 4-1 4-2 12 4 10 2 0 8 4 13 0 2-1 11 1 11-1 5-12-5-11-11-13a4 4 0 00-1 0z"/><path class="g" d="M1311 747a13 13 0 01-2 0 28 28 0 01-4 9 20 20 0 01-2 2l2-3a19 19 0 003-7c-7 0-11-2-13 3-3 11 4 14 12 5 2-2 2-7 4-2l4 7h3c-3-2 1-8-1-12-1-2-6 0-6-2zm-4 16c0-3 3-7 4-1a9 9 0 01-4 1zm15-13c4 4 1 10-1 8-4-4-3-8-1-9a10 10 0 012 1z"/><path class="p" d="M1296 750c-1-2 5-2 5-2a23 23 0 004 0h4l-4 1h-7l-2 1z"/><path class="k" d="M1295 760c3-4 4-5 9-8 2-2 1-3 2-5a6 6 0 01-2 5l-2 2c-1 4 2 3 0 7v-5-1c-3 3 0 4-2 6 2-2-1-4 2-6l1-3-8 8zm11-13z"/><path class="e" d="M1388 771l-1 6c-3 2-13 1-17 1-3 0-11 2-11-4 0-3 0-2 4-5 3-1 7-4 10-4s11 0 14 3a5 5 0 011 3zm0 0l-2-4c-3-3-13-3-16-2l-11 6v5c1 5 8 3 11 2 4 0 14 1 18-1v-6z"/><path class="k" d="M1388 771v6l-11 1-10 1c-3 0-8 0-8-5 0-2-2-2 3-4 3-1 8-5 11-5 4 0 15-1 15 6z"/><path class="g" d="M1359 772a14 14 0 013-2c3-1 8-5 11-5s12-1 14 4c0 3 1 4-6 5h-10l-11-2h-1z"/><path class="p" d="M1365 769c4-3 15-6 18-2h1-1c-4-2-13 1-18 2z"/><path class="e" d="M1367 767l5 6c2 1 3 8 1 2 0-2-3-2-4-4-2-3 0-3-2 2l1-4-1-2zM1377 733v-9c1-4 5-3 9-3 2 0 18-1 18 1l1 7c1 2 1 6-2 6l-14-1c-1 0-12 1-12-1zm0 0c0 2 11 1 12 1h14c2 0 2-3 2-5l-1-7-17-1c-6 1-10-2-10 6v6z"/><path class="k" d="M1377 733v-9c1-4 3-3 7-3h12l8 1 1 7c0 1 0 6-2 5a175 175 0 00-18 0c-1 0-8 1-8-1z"/><path class="g" d="M1384 721h12l8 1a8 8 0 010 2l-1 2c2 3 2 2 1 5-2 4-5 2-5 1 0-5-4-1-6 1l-13-1c-3-1-2-2-2-4-1-5 2-5 2-5l4-2zm0 4a8 8 0 012-1v-1a1 1 0 01-1 0s-7 3-1 2zm14 6c-1 0-3-1-3 1 0 1 3 2 3-1 0 0 1 0 0 0z"/><path class="p" d="M1390 722l12 1h-2c-4 1-6 0-10-1z"/><path class="k" d="M1377 730a6 6 0 002-2c1-2 4-2 5-1h-1s-2-1-4 1l-2 2z"/><path class="e" d="M1250 774v-9c1-4 5-3 9-3 2 0 18-1 18 1l1 7c1 2 1 6-2 6l-14-1s-12 1-12-1zm0 0c0 2 11 1 12 1h14c3 0 2-3 2-5l-1-7h-17c-6 0-10-3-10 5v6z"/><path class="k" d="M1250 774v-9c1-4 3-3 7-3h12l8 1 1 7c1 2 1 6-2 6a175 175 0 00-18-1c-1 0-8 1-8-1z"/><path class="g" d="M1257 762h12l8 1a8 8 0 010 2l-1 2c2 3 2 2 1 5-2 4-4 2-5 1 0-5-4-1-6 1l-13-1c-2-1-2-2-2-4 0-5 2-5 2-5l4-2zm0 4a8 8 0 012 0v-1a1 1 0 01-1-1s-7 3-1 2zm14 6c-1 0-3-1-3 1 0 1 3 2 3 0v-1z"/><path class="p" d="M1263 763l12 1h-1c-5 1-7 0-11-1z"/><path class="k" d="M1250 771a6 6 0 002-2c1-2 4-1 5-1h-1s-2-1-3 1l-3 2zM1367 767l5 6c2 1 3 8 1 2 0-2-3-2-4-4-2-3 0-3-2 2l1-4-1-2z"/><path d="M661 169c2-4 9-3 20-3h28l23 3h44c7 0 14 2 21 1h7c2 1 2 6 2 7 0 15 2 30 1 45-1 9-4 32-2 53 1 11-2 21 0 32 0 1 1 4-1 6-3 4-11 1-15 0l-42-2c-19 0-18 2-30 1-15-2-16-5-26-4-16 0-24 8-29 3-3-2-3-6-3-11l2-43c2-18 0-14 1-39 1-13 3-25 1-32-1-3-2-6-2-13v-4z" fill="#ffe161"/><path class="s" d="M731 313s-2 0-2-2v-1-2-4a3 3 0 01-1-1v-5l1 1a7 7 0 000-2 2 2 0 001 1 2 2 0 002 0l-4-1a26 26 0 001-3v-2l1-3a30 30 0 00-1-3l-1-1a2 2 0 011-1v-4-3a3 3 0 011-2 2 2 0 010-1 43 43 0 01-2-7v-4l-2-6 4 4v-2h-1v-1a2 2 0 010-1v-1-6l1-2v-1-1a2 2 0 010-1v-2-5a1 1 0 01-1-2 2 2 0 011 0v-1-2l-1-1a1 1 0 011-2l-1-2v-1a1 1 0 011-2 33 33 0 000-3 2 2 0 010-1 10 10 0 00-2-5l3-1h-1v-6l1-4a22 22 0 01-1-3v1-2l-1-2v-3a3 3 0 011-3v-1l-6 4 5-6 1-3h-1v-3a21 21 0 011-4v-1a29 29 0 000-4 56 56 0 01-1-6h1a17 17 0 00-1-4l3-1a19 19 0 012 5l-1 4v1a26 26 0 010 4 1 1 0 011 1 14 14 0 00-1 4v1a14 14 0 000 3 7 7 0 010 3 14 14 0 011 3v4l-1 1v2h1l-1 1a15 15 0 002 5l1 2h-2a6 6 0 000 1h1l-1 1a2 2 0 01-1 1 10 10 0 002 4l-2 1 1 4a30 30 0 010 6 15 15 0 00-1 2 30 30 0 011 6v1l1 3h-2l1 7a2 2 0 010 1v1l-1 4v5l1 2a2 2 0 010 2v3l-1 2a3 3 0 01-1 1v1a59 59 0 002 6 2 2 0 010 1l1 4-2-1a2 2 0 01-1 1l1 2v12a5 5 0 010 2 2 2 0 01-1 2l1 4a17 17 0 011 5h-1v6a2 2 0 01-2 2zm1-37h-1a2 2 0 001 1 2 2 0 000-1zm-3 0h1a2 2 0 00-1 0zm4-75zm-4-17a1 1 0 001 0 1 1 0 01-1 0z"/><path class="s" d="M719 313v-2a2 2 0 011-2v-5c-1-4-2-6-1-8a12 12 0 010-4v-2-1-2-3a2 2 0 01-1-2 2 2 0 011-2v-5l-1-2h1a7 7 0 010-2 3 3 0 010-1 7 7 0 010-1 1 1 0 010-1v-5-1a2 2 0 010-2v-6a4 4 0 011-3v-2a3 3 0 01-1-1l1-3v-1c-2-5-2-9-1-10v-4l-1-5v-4-1a8 8 0 010-1v-8a2 2 0 011-1v-1a16 16 0 000-3v-1a11 11 0 01-1-5 4 4 0 010-1 2 2 0 010-1v-1a2 2 0 010-1v-2a8 8 0 010-3 2 2 0 012-2l-2-9v-1a2 2 0 012-1l-1-6-1-1c-1-1 0-1 1-2l2-2 1 2 2 12-1 6 1 2 4 9-5-5-1-1a29 29 0 000 4v3a4 4 0 010 1 11 11 0 000 4l1 5v1a6 6 0 010 2v8l-1-3v1a4 4 0 011 2h-1v7l1 1a2 2 0 000 1l1 1a1 1 0 01-1 1v3c0 1 0 0 0 0v2l-1 1a18 18 0 002 5l1 11-1-1a7 7 0 010 2l-1 3v7l-1 6h1a6 6 0 00-1 3 3 3 0 010 1l1 7v2l1 1-1 1v2a22 22 0 010 5c-1 2-1 4 1 6l4 7-6-4 2 5-1 1a49 49 0 001 5h-2v1zm1-59a1 1 0 000-1 2 2 0 000 1zm2-1h-1a2 2 0 001 0zm-3-33a2 2 0 00-1 0zM711 311a2 2 0 01-1 0h-1l-1-1a1 1 0 011-2v-3a3 3 0 010-2l-1-7v-1-3-2a1 1 0 010-1 16 16 0 011-5v-1a30 30 0 000-4 1 1 0 010-1v-1-3h-1l1-2a31 31 0 00-1-7 2 2 0 010-1v-1-1l-1-5v-1l1 1v-6a16 16 0 00-1-6l1-1h1a13 13 0 01-1-2l1-3a11 11 0 000-5h-1a2 2 0 010-2v-2a2 2 0 010-1v-2a2 2 0 011-1v-1l-1-2a5 5 0 010-3v-1-1l-1-2a4 4 0 011-1 5 5 0 000-3 3 3 0 010-3 7 7 0 001-4 5 5 0 01-1-2 12 12 0 000-2v-1h1l1-4-3-10-5-9h1l4 5a2 2 0 010-1 2 2 0 011-2 27 27 0 010-7v-2l1-7 1 2a3 3 0 011 0l2 1v4l-1 2a24 24 0 000 6 4 4 0 011 2 13 13 0 010 4v9-2a65 65 0 011 6l1 3v1l-2-2v1a5 5 0 011 1v1h-1a2 2 0 01-1 1 2 2 0 000 1 9 9 0 010 5 3 3 0 000 1v1a8 8 0 010 4 2 2 0 00-1 1l1 1a25 25 0 011 3l1 7-1-1v3h-1v3a13 13 0 011 8 18 18 0 000 2h-1a16 16 0 001 3l-1 1h-1a18 18 0 011 3v1a2 2 0 010 1v2a44 44 0 010 7v1a3 3 0 010 2v1a33 33 0 011 3v5a4 4 0 010 1v5a1 1 0 010 1 31 31 0 010 4 3 3 0 010 1h1v1h-1a4 4 0 01-1 1v12l1 6a38 38 0 000 5v2zm-3-130h1l-1-1v1zm3-14a2 2 0 002 0z"/><path class="s" d="M700 310a3 3 0 01-3-2l2-1a3 3 0 010-1h1l-1-1a15 15 0 010-3 22 22 0 01-1-4v-4a2 2 0 010-2h1a12 12 0 010-6l-1-3a1 1 0 010-1h1l-1-3a3 3 0 011-2 20 20 0 01-1-5l-1-2-1-3 1-1v0l-1-1 1-1h2v-3a2 2 0 01-1-1l1-4a5 5 0 010-3v-1l1-4-1-3v1l-1-5a4 4 0 01-1-2l-1-6h1l2 2v-2l-1-5v-3-6-1a5 5 0 01-1-2v-1-2h-1l1-1h1a8 8 0 000-2l2-1h-2v-1-1a2 2 0 010-2v-2-1a1 1 0 010-1v-1-2a2 2 0 011-2v-1a4 4 0 010-1v-1a25 25 0 000-6l-1-2a2 2 0 011-2 8 8 0 010-1 4 4 0 000-3v-2-1a17 17 0 01-1-4v-1-1a3 3 0 01-1 0 16 16 0 010-3l-1-3 4 2a3 3 0 011 1h1a13 13 0 010 1 5 5 0 010 2v1l1 5v1a2 2 0 01-1 1h1a6 6 0 010 4 3 3 0 000 3l-1 1h1a27 27 0 010 7v1a4 4 0 010 1l-1 1v1a2 2 0 010 1v2a28 28 0 010 3v6l-1 5v2l1 2v6a22 22 0 010 6v1a31 31 0 002 5l1 1h-1l-2 1a3 3 0 010 1 40 40 0 012 9v5l-1-1v1a10 10 0 010 1v1a6 6 0 000 2 7 7 0 010 1h-1v2a37 37 0 001 6l2 6v0l-3-2v4a13 13 0 001 4h-1v3a17 17 0 010 5v1a11 11 0 001 5v1h-1v1a2 2 0 010 1l-1 1a20 20 0 002 5 3 3 0 010 1v1a44 44 0 001 4v1h-2a3 3 0 01-2 2zm1-7a2 2 0 001 0zm-1-48a2 2 0 001 0 3 3 0 001 0zm1-60h1zM689 307l-2 1a3 3 0 011-3 16 16 0 010-3 6 6 0 00-1-3l4-1a2 2 0 00-2 0 2 2 0 00-1 0 4 4 0 000-1h-1v-1-1l1-6a14 14 0 010-2v-1-3a34 34 0 01-1-6h1a6 6 0 000-1 2 2 0 001 1 2 2 0 002-1h-4a11 11 0 000-3l1-3a16 16 0 00-1-4 2 2 0 010-2v-1a12 12 0 01-1-3l3-1a22 22 0 00-1-4 2 2 0 01-1-1v-1a38 38 0 010-3 1 1 0 010-1v-5 1a6 6 0 011-1 2 2 0 000-2l-1-1h1v-5-1a4 4 0 010-3 16 16 0 00-1-6 20 20 0 01-1-2l2-1a10 10 0 010-2 21 21 0 00-1-6v1-3-1a5 5 0 011-3 15 15 0 010-2 13 13 0 010-3v-1a3 3 0 011-2 20 20 0 00-1-5l-2-6 2 2a10 10 0 010-4l1-1-1-2a7 7 0 010-3 4 4 0 010-2 35 35 0 010-5v-1-3a49 49 0 010-6h1a5 5 0 00-1-1l4-1c1 2 0 4-1 4v4h1v8a4 4 0 000 1v2l1 3h-1l1 4-1 1v5a11 11 0 010 4v5a2 2 0 01-1 1 16 16 0 001 4l1 1a2 2 0 01-2 2 3 3 0 010 3 23 23 0 011 6l1 2-1 4v1a33 33 0 010 7v1l-1 5a4 4 0 010 3 5 5 0 000 3 4 4 0 010 5v1a20 20 0 011 5v4a3 3 0 01-1 2 3 3 0 010 1 15 15 0 011 4v4l-1 1a11 11 0 010 1 5 5 0 010 1 14 14 0 011 3 2 2 0 01-1 1v4a1 1 0 011 1v2a10 10 0 000 3l3 5-4-3v3a2 2 0 010 1v3a8 8 0 011 3 12 12 0 000 3l1 8zm0-67a2 2 0 00-1 1l2-1a3 3 0 00-1 0zm1-75zM681 306v1c0 1 1 4-1 5a3 3 0 01-2 0 2 2 0 01-2-1v-1h1a9 9 0 00-1-4l-4-10 5 5a2 2 0 011-1v-1l-1-2a14 14 0 00-1-4 1 1 0 010-1h2v-1h-1a2 2 0 00-1 1v-1a7 7 0 010-2l-4 1v-1l6-4a10 10 0 001-3 37 37 0 00-1-5 2 2 0 01-1 0 11 11 0 010-2h1v-1a4 4 0 010-1 11 11 0 000-3v-3l-1-2 1-6v-3-2a5 5 0 010-2l-1-2v-2a1 1 0 010-1 4 4 0 010-3 2 2 0 011-2 2 2 0 010-1l-1-2v-3-4a2 2 0 010-1v-1-2a3 3 0 010-2 2 2 0 011-2v-2-5-1-3a1 1 0 010-1h-1v-1-4h1v-1a1 1 0 00-1 1 3 3 0 011-2 6 6 0 010-3 15 15 0 00-1-4l-2-2h3a39 39 0 00-1-6 1 1 0 010-2l1-1-1-6a1 1 0 011-2 5 5 0 010-3 2 2 0 001-1v-1a4 4 0 01-1-1l-1-3v-2h1a2 2 0 003 0l-1-1h-3a2 2 0 012-1 2 2 0 012 2v3l1 2a4 4 0 010 4v4h-1v1l1 4c0 4 1 5-1 5v7a17 17 0 011 2v4a4 4 0 000 2l-2 1a1 1 0 001 0 2 2 0 010 1v2a34 34 0 011 5v10a1 1 0 01-1 1l3 8-1 1v-1l-1-1h-1v6a50 50 0 001 5l-2 1a1 1 0 001 0 1 1 0 00-1 0l1 1v8l1 5a1 1 0 010 1 1 1 0 01-1 1h-1a7 7 0 000 3 27 27 0 011 3v2a13 13 0 010 4 16 16 0 010 2 5 5 0 010 2l1 3v4a9 9 0 01-1 2 11 11 0 01-1 3l-1 3a15 15 0 012 4 23 23 0 001 5l4 10h-1l-4-5zm-2 4a2 2 0 00-1 0h1zm-1-36a2 2 0 002 0 2 2 0 001 0z"/><path class="s" d="M670 305a2 2 0 01-2-2v-2-1l-1-5v-2-1a3 3 0 010-1h-1l1-1a3 3 0 010-1h1a13 13 0 00-2-5v-1l3-1a2 2 0 00-2 0 6 6 0 001 0 6 6 0 010-1l-1-4a10 10 0 000-2 13 13 0 010-3h1v-2-1l-1-2-1-6v-1h1l-1-3v-4l-1-2-1-4 3 2v-1l-1-5v-4l-2-2v-1l3 1a2 2 0 011-2 4 4 0 010-1v-4h1l-2-4v-2a2 2 0 010-1v-4a16 16 0 010-3 17 17 0 00-1-5l-2-8v-1l3 4a3 3 0 010-1 1 1 0 011-1 24 24 0 00-1-3 3 3 0 01-1-2l-1-3h1l2 1v-2a20 20 0 00-2-7h2v-1-1h-1a31 31 0 010-5v-3h1l-1-3a6 6 0 011-3 8 8 0 01-1-4 5 5 0 000-1v-1c0-2 0-4 2-5a3 3 0 012 1 1 1 0 011 1v2c0 1 0 0 0 0a1 1 0 01-1 1 2 2 0 010 1 9 9 0 010 1 6 6 0 001 4l3 7-3-2h-1a10 10 0 010 2v6l1 2v2a2 2 0 01-1 2v1a20 20 0 011 3 9 9 0 000 2v2h-1v1a20 20 0 010 2v6a5 5 0 000 1 3 3 0 01-1 2 18 18 0 011 5 9 9 0 001 4h-1v1a18 18 0 000 2v1a65 65 0 002 7l2 5h-1l-2-2v1h-1a5 5 0 010 1 4 4 0 01-1 4 8 8 0 011 2 2 2 0 01-1 1 73 73 0 002 8 1 1 0 01-1 1 3 3 0 01-1 2v2l1 3v3h-1l1 5h1v4l-1 3a12 12 0 010 4 12 12 0 001 2v1h-1v1a7 7 0 01-1 1v1a15 15 0 011 3v4a6 6 0 010 2v2l1 4v2a1 1 0 010 1v1a2 2 0 01-2 2zm-2-13h-1 1zm1-13h1zm-2 0a1 1 0 001 0v-1l-1 1zm2-7h1-1zm0-4h2a3 3 0 00-1 0 3 3 0 00-1 0zm0-44a2 2 0 001 0zm1-18a2 2 0 00-2 0h1a2 2 0 001 0zm-2-40a2 2 0 00-1 0h2zm3-2zM793 316a21 21 0 010-2 2 2 0 011-2v-1-12a12 12 0 010-4v-2a1 1 0 010-1v-2-3a2 2 0 01-1-2 2 2 0 011-2l-1-5-1-2h1a7 7 0 011-2 3 3 0 01-1-1 7 7 0 010-2 1 1 0 011 0v-4-1-1a2 2 0 010-2l-1-6h1a4 4 0 011-3l-1-2a3 3 0 010-1h-1c0-1 0-2 2-3v-1l-2-10h1v-4l-1-6v-3a4 4 0 000-1 7 7 0 010-1v-8a2 2 0 010-1 3 3 0 011 0v-1a17 17 0 000-3v-1a11 11 0 01-1-5 4 4 0 01-1-1 2 2 0 011-1v-2-2a8 8 0 010-3 2 2 0 011-2l-1-9v-1a2 2 0 011-1l-1-6a2 2 0 000-1v-2l3-2 1 2 1 12v6l1 2 4 9-6-5v-1a29 29 0 000 4v3a4 4 0 01-1 1 11 11 0 001 4v6a6 6 0 011 2v8l-2-3 1 1a4 4 0 010 2 1 1 0 010 1v7a2 2 0 001 1v1a1 1 0 010 1 2 2 0 01-1 0v3h1l-1 2v1a18 18 0 001 5h1v11-1a7 7 0 010 2l-2 3h1v4l-1 3v6h1a3 3 0 01-1 0 6 6 0 000 3 3 3 0 010 1l1 7v2l1 1-1 1a2 2 0 01-1 0v2a22 22 0 010 5l1 6 5 7-6-4 2 6h-1l1 5h-2v1zm2-59v-1a2 2 0 000 1zm1-1zm-3-33zM784 313a2 2 0 01-1-1l-1 1a14 14 0 01-1-2 1 1 0 011-1v-4a3 3 0 010-2l-2-7h1a1 1 0 010-1v-2-2a1 1 0 010-1l1-5v-1a29 29 0 000-4 1 1 0 010-1v-1-4l-1 1 1-3a31 31 0 00-1-6 2 2 0 010-1v-1-1l-1-7 1 2v-6l-1-7h2v-1a13 13 0 01-1-1l1-3a2 2 0 010-1 11 11 0 000-4 2 2 0 01-1-2v-2a2 2 0 010-2v-1a2 2 0 011-2l-1-3a5 5 0 011-3l-1-1v-3a3 3 0 010-1 6 6 0 000-3v-2a7 7 0 001-4 5 5 0 01-1-3 11 11 0 000-2h1l1-4v-1a35 35 0 00-3-9l-5-10 6 6a1 1 0 01-1-1 2 2 0 011-2 26 26 0 010-8v-1l1-8 1 3a3 3 0 011 0s2-1 2 1a2 2 0 000 1v2l-1 3a25 25 0 000 6 4 4 0 011 2 12 12 0 010 3l1 10-1-2v4l1 1 1 5-2-2a5 5 0 011 2l-1 1a2 2 0 01-1 1v1a9 9 0 010 5v2a8 8 0 01-1 4 2 2 0 000 1l1 1a25 25 0 011 2l1 8-2-2 1 3-1 1v3a13 13 0 011 7 18 18 0 000 3h-1a16 16 0 001 3l-2 1a18 18 0 011 3v3a44 44 0 010 8h-1l1 3a37 37 0 011 9v5a1 1 0 010 2 32 32 0 01-1 4 3 3 0 011 1v1a4 4 0 01-1 1 37 37 0 00-1 3v1l1 1v6l1 7h-1a38 38 0 001 4v3zm-3-130h1l-1-1a2 2 0 000 1zm3-14a2 2 0 001-1z"/><path class="s" d="M773 316a3 3 0 01-3-2l2-1a3 3 0 010-1v-1a14 14 0 010-3 20 20 0 01-1-4v-4a2 2 0 010-2 12 12 0 010-6v-3a1 1 0 010-1v-3a3 3 0 011-2 20 20 0 01-1-5l-1-2-1-4 1 1v-1l-1-2h3l-1-3a2 2 0 010-1c-1-3 0-4 1-4a5 5 0 010-3v-1c0-2-1-3 1-4l-1-3v1l-1-5a3 3 0 01-1-2l-1-7 3 3v-2c-2-4-1-4-1-5v-9-1a4 4 0 01-1-2h-1l1-1-1-2 2-1a7 7 0 00-1-2l3-1h-2v-1a1 1 0 000 1l-1-1v-1a2 2 0 011-2v-2l-1-1a1 1 0 011-1v-1-2a2 2 0 011-2v-1a4 4 0 010-1v-1a25 25 0 000-6l-1-1a2 2 0 011-3 6 6 0 010-1 4 4 0 000-3l-1-2a2 2 0 011 0 15 15 0 01-1-5v-1a3 3 0 01-1-1 15 15 0 010-2l-1-4 4 2a3 3 0 011 1h1a10 10 0 010 2 4 4 0 01-1 1l1 2 1 4v1a2 2 0 01-1 1 6 6 0 010 4 3 3 0 001 3l-1 1v1a27 27 0 011 6v1a5 5 0 010 1h-1v2a2 2 0 010 1v2a30 30 0 010 4v4h-1v8l1 2v5h-1l1 1a23 23 0 010 6v1a32 32 0 002 5l1 1-3 1v1a40 40 0 011 9v1l1 4-1-1a11 11 0 010 3h-1a6 6 0 001 2v1l-1 1a2 2 0 010 1v1a38 38 0 001 5l2 8-3-4v4a13 13 0 001 4h-1v3a17 17 0 010 5v1a11 11 0 000 6h1l-1 1a2 2 0 01-1 2 20 20 0 002 5 3 3 0 010 2 39 39 0 000 5h1-2a2 2 0 01-2 2zm0-7a3 3 0 001 0 2 2 0 001 0zm0-48a2 2 0 001 0 2 2 0 001 0zm1-60a2 2 0 010 1 2 2 0 001-1zM762 313h-2a3 3 0 011-3 16 16 0 010-2 6 6 0 00-1-3l4-1a2 2 0 00-2-1 2 2 0 00-1 1 4 4 0 000-1h-1v-2-1l1-5a16 16 0 010-3v-3a34 34 0 01-1-6h1a5 5 0 00-1-1 2 2 0 002 0 2 2 0 002-1h-4a11 11 0 000-3l1-2a16 16 0 00-1-4 2 2 0 010-2 1 1 0 000-1 12 12 0 01-1-3l3-1a23 23 0 00-1-5 2 2 0 01-1-1v-1-2a1 1 0 010-2v-4 1a6 6 0 011-2 2 2 0 000-1 1 1 0 01-1-1v-1l1-5a4 4 0 010-4 16 16 0 00-1-5 22 22 0 01-1-3h2a10 10 0 010-2 20 20 0 00-1-6h-1l1-2v-2a5 5 0 011-2 15 15 0 010-2 13 13 0 010-4 3 3 0 011-2 20 20 0 00-1-5 1 1 0 010-1l-2-5 2 1a10 10 0 010-3l1-2-1-2a7 7 0 010-2 4 4 0 010-2 35 35 0 010-5v-1-3a50 50 0 01-1-6h1a7 7 0 000-1l4-1c1 2 0 3-1 4v4h1v7-1 5l1 3h-1l1 4-1 1v5a11 11 0 010 3v6a2 2 0 01-1 1 17 17 0 001 3 4 4 0 010 1h1l-1 1a2 2 0 01-1 1v4a23 23 0 011 6l1 1-1 5h-1a33 33 0 011 7 3 3 0 000 1v1l-1 4v1a4 4 0 010 3 5 5 0 000 3 4 4 0 010 4v1a20 20 0 011 6v4a3 3 0 01-1 1 3 3 0 010 2 16 16 0 011 4v4l-1 1a9 9 0 010 1 4 4 0 010 1 13 13 0 011 2 2 2 0 01-1 2l1 4a1 1 0 010 1v1a9 9 0 000 3l3 6-4-3v7a8 8 0 011 3 12 12 0 000 3l1 8zm0-67a3 3 0 00-1 0h2a3 3 0 00-1 0zm1-75zM754 304a2 2 0 01-1 1v5a3 3 0 01-2 1 2 2 0 01-2-2h1a8 8 0 00-1-4l-5-12 6 7a2 2 0 011-2 25 25 0 01-1-3 14 14 0 00-1-4 1 1 0 01-1-1h3l-1-1a2 2 0 00-1 1 6 6 0 000-1v-2l-6 2 8-5a10 10 0 001-3v-1a37 37 0 00-2-4 2 2 0 010-1 11 11 0 01-1-2h2a9 9 0 000-1h-1a3 3 0 010-1 11 11 0 000-3v-2-3c-1-3 0-4 1-5v-3l-1-2v-1a5 5 0 010-1v-3-2a1 1 0 01-1-1 4 4 0 011-3 2 2 0 010-2 2 2 0 011 0l-1-3v-3-4-1-3a3 3 0 010-2 2 2 0 011-2v-2-5-4a1 1 0 01-1 0v-1a43 43 0 01-1-5h2a3 3 0 010-1 2 2 0 00-1 1 3 3 0 011-1 6 6 0 010-4 14 14 0 00-1-3l-3-3h4a38 38 0 00-1-6 1 1 0 010-1v-1l1-1-1-6h-1a1 1 0 011-2 5 5 0 011-3 2 2 0 000-1 4 4 0 010-2l-1-3v-2a2 2 0 002 1 2 2 0 001-2h-3a2 2 0 012-1 2 2 0 012 2v3l1 2a4 4 0 010 4v4l-1 1 1 4-1 6v6a15 15 0 011 3v3a2 2 0 01-1 0 4 4 0 001 2l-2 1a1 1 0 001 0 2 2 0 00-1 0 3 3 0 010 1l1 2a34 34 0 011 5l-1 4v1h1v5a1 1 0 01-1 1v1l2 9-2-3v6a51 51 0 001 5l-2 1v1l1 4v9l1 1-2 2a7 7 0 000 2 25 25 0 011 3v3a13 13 0 010 3 2 2 0 010 1 18 18 0 010 2 4 4 0 010 1l1 4v3a8 8 0 01-1 2 10 10 0 01-1 4l-1 2a16 16 0 012 5 23 23 0 001 4l4 12zm-3 4a2 2 0 00-1 1l2-1a2 2 0 00-1 0zm0-36a2 2 0 001 1 2 2 0 002-1z"/><path class="s" d="M743 311a2 2 0 01-2-2l-1-2h1l-1-6-1-2a4 4 0 010-1h1a3 3 0 01-1-1v-1a3 3 0 011-1 13 13 0 00-1-5l-1-1 4-1a2 2 0 00-2 0 8 8 0 011-1c-2-2-1-3-1-4a10 10 0 000-2 14 14 0 010-3h1v-2a3 3 0 01-1-1v-2l-1-6a2 2 0 010-1h1a1 1 0 00-1 0 2 2 0 001 0l-1-3a72 72 0 00-1-6l-2-5 4 3-1-6v-4l-3-3 4 1a2 2 0 010-2 4 4 0 011-1v-4a72 72 0 01-1-6 2 2 0 010-1v-4a14 14 0 010-3 18 18 0 00-1-6l-3-9 4 5a5 5 0 010-1 2 2 0 011 0 23 23 0 00-1-4 3 3 0 01-1-2l-1-3 3 1a13 13 0 010-2 20 20 0 00-2-7h1v-2a32 32 0 010-4v-4-2-4a8 8 0 010-3 6 6 0 000-2v-1c0-2-1-4 1-4a3 3 0 013 1v2a1 1 0 010 1 1 1 0 010 1 8 8 0 010 1 6 6 0 000 5l5 7-5-4a13 13 0 010 3v11a2 2 0 010 2 19 19 0 010 3 9 9 0 001 3l-1 1a7 7 0 01-1 1 18 18 0 011 3v4a2 2 0 01-1 1h1a5 5 0 000 1 3 3 0 01-1 2 19 19 0 011 5 9 9 0 001 4l-2 1a18 18 0 001 3 63 63 0 002 7l2 6-3-3v1h-1a6 6 0 010 1l-1 4a8 8 0 011 2 2 2 0 01-1 2 72 72 0 001 7 1 1 0 010 1 3 3 0 01-1 2v5l1 3h-1l1 6h1v3l-1 3a12 12 0 01-1 4 11 11 0 001 2l1 1-1 1a6 6 0 01-1 2 15 15 0 011 4v3a6 6 0 01-1 2 2 2 0 010 1v1l1 5 1 1v2a2 2 0 01-2 2zm-3-13h1-1zm2-13h1zm-2 0a1 1 0 001 0zm2-7h1-1zm0-4h1-1zm-1-43a3 3 0 001-1 3 3 0 001 0zm2-19a2 2 0 00-2 0v1a3 3 0 001 0 2 2 0 001-1 2 2 0 00-1 0zm-2-40a2 2 0 00-1 0h1zm3-2h-1z"/><path class="t" d="M98 188l1-2 2 1 3 1h2l-1 2-7-2z"/><path class="u" d="M122 195l1-3h1l4 1 2 1-1 3-7-2zM149 202l1-3 2 1 3 1h2l-1 3-7-2z"/><path class="t" d="M169 232l2 1v1l-1 3v2h-3l2-7z"/><path stroke-width="1.3" stroke="#1d150c" fill="#3f2b0f" stroke-miterlimit="10" d="M162 257l3 2v1l-1 4-1 2-3-1 2-8z"/><path class="u" d="M155 284l3 1-1 2v3l-1 2-3-1 2-7z"/><path class="t" d="M54 262l-2-1v-1l1-3 1-2h2l-2 7z"/><path class="u" d="M60 239l-3-1 1-2 1-3v-2l3 1-2 7zM68 211l-3-1v-1l1-3 1-2h3l-2 7z"/><path stroke-width="1.4" stroke="#1d150c" fill="#3f2b0f" stroke-miterlimit="10" d="M127 304l-1 3h-2l-4-1-2-1 1-3 8 2z"/><path class="u" d="M101 297l-1 3h-1l-3-1-2-1v-3l7 2zM76 290l-1 3-2-1-3-1h-2l1-3 7 2z"/><path class="x" d="M50 281v3l3 1h2l1 1h1l2-1 1-5-5-2-5 3z"/><path class="x" d="M59 281v3l-1 1v1l4 1 4 1h1l1-1 1-3a13 13 0 00-1-2l-8-2zM77 286v2l-1 2 1 1 3 1 1 1h4l1-1 2-4-9-3-2 1z"/><path class="x" d="M68 283v3l-1 2 1 1h3l1 1h4l2-5-7-3-3 1zM105 293l-1 2-1 2v1l2 1 5 1h1l1-1v-2l1-2-6-3-2 1z"/><path class="x" d="M94 290l-1 4v1l1 1h1l2 1 3 1h1l2-1 1-2 1-3-8-2h-3z"/><path class="x" d="M87 288l-1 2-1 2 1 2h1l1 1h2l2 1h1a11 11 0 000-2l1-4-3-1zM119 297l-1 4v1h1l1 1h2l3 1h3v-1l1-1 1-3-8-3-3 1z"/><path class="x" d="M129 300l-1 3 1 2 2 1h2l5 2h1l2-1h1v-2l2-2-10-4-5 1zM112 295l-1 1-1 3 1 1 1 1h1l2 1h3a10 10 0 000-1l1-4-3-2z"/><path class="y" d="M147 309h-2-2l-1-1v-4l1-2h1z"/><path class="x" d="M62 276l-1 3v3h3l1 1h3l2-1 1-4-7-3-2 1z"/><path class="x" d="M70 279v1l-1 2v2l4 1 3 1h2l1-1v-4a15 15 0 000-1l-8-2zM101 287l-1 2-1 1v2h2l8 3 1-1h1v-3l1-1-9-4-2 1z"/><path class="x" d="M88 282l-1 6v1h1l2 1h2l3 1h4v-1l1-1 1-3-9-3-4-1z"/><path class="x" d="M80 280l-2 2v4l2 1h1l3 1h3a9 9 0 000-1l1-5h-4zM56 279l1 1h1l1 1h2v-1l2-4-1-1-6 4zM119 291v2l-1 1v2l1 1 3 1h1l3 1h1l1-1 2-4-9-3h-2z"/><path class="x" d="M129 294l-1 2v3h1l3 1h1l2 1 2 1h1l1-1 2-5-9-3-3 1zM110 289v3l-1 2 1 1h3l1 1h3l1-1 2-4-8-3-2 1z"/><path class="x" d="M144 303h-1l-2-1h-2l-1-1 1-2v-3h1zM68 272l-1 3v3h3l1 1h3l2-1 1-4-7-3-2 1z"/><path class="x" d="M76 274v2l-1 2v2l4 1 4 1h1l1-1 1-4a13 13 0 00-1-2l-8-1zM107 283l-1 2-1 1v1l2 1 7 2h1v-3l1-2-7-4-2 2z"/><path class="x" d="M94 280l-1 3v1l1 1h2l2 1 3 1h4v-1l1-1 1-3-9-3-4 1z"/><path class="x" d="M85 277a13 13 0 01-1 1v4h2l2 1 2 1h3a8 8 0 000-1l1-4-4-2zM136 291l-1 2-1 2-1 1-1-1a6 6 0 01-2 0 4 4 0 00-1-1h-1l-1-1a6 6 0 010-1l1-4h5z"/><path class="x" d="M115 289v1l3 1 2 1 3 1h3l1-1 1-4-6-3h-5l-2 1v3zM140 296v1h-2l-2-1-1-1v-1l1-3 1-1 4 5-1 1zM62 275l1 1h1l1 1h2v-1l2-4-1-1-6 4zM70 270l-1 3h1l3 1h1l2 1h1l1-1 2-5-6-2-4 3z"/><path class="x" d="M79 270v1l-1 2v2l4 1 3 1h1l2-1v-3a15 15 0 000-2l-8-2zM97 275l-1 1v2l-1 1 1 1 3 1 1 1h6l1-5-9-2h-1z"/><path class="x" d="M88 273l-1 2v3h3l2 1h4l1-5-7-3-2 2zM137 290l-2 1-2-1h-1l-1-1v-3l1-1 1-2 4 7z"/><path class="x" d="M124 282l-1 2v3l1 1 6 1h1v-3l1-2-6-3-2 1z"/><path class="x" d="M114 280l-2 4 1 1h2l1 1 3 1h2l1-1h1v-2l1-2-7-3-3 1z"/><path class="x" d="M106 278l-1 1v4h2l1 1h2l2 1a11 11 0 000-2l1-3-3-2zM90 268v3l-1 1 1 1 3 1 1 1h5l2-5-9-2h-2z"/><path class="x" d="M100 271l-1 2v3h1l3 1h3l2 1h2l2-6-9-2-3 1z"/><path class="x" d="M111 273l-1 3v3h3l1 1h3l2-1 1-4-7-3-2 1zM81 266v2l-1 2 1 1h3l1 1h4l2-5-7-3-3 2z"/><path class="x" d="M119 276v1l-1 2v2l4 1 4 1h1l1-1 1-4a13 13 0 00-1-1l-8-2z"/><path class="x" d="M133 284h-2l-2-1h-1v-6h2zM75 268v1l1 1h2l1 1 1-1h1l1-6h-1l-6 4zM82 264v1l3 1 2 1 1-1 1-5-1-1-6 4z"/><path class="x" d="M89 262v1l-1 2v2l3 1 3 1 1-1h1l1-5-7-2-1 1z"/><path class="x" d="M96 264v2l-1 2v1h1l3 1h1l2 1h2l1 1 2-1 1-5-8-3-4 1z"/><path class="x" d="M107 267l-1 2v2l1 1 2 1h2l1 1h1l2-1 1-5-7-3-2 2z"/><path class="x" d="M116 269l-1 1v4l3 1 4 1h1l2-1v-3a15 15 0 00-1-2l-8-2z"/><path class="x" d="M129 277h-2-3v-3l1-2v-1h1z"/><path class="x" d="M126 271l-2 1-2-1h-1l-1-1v-4l1-1 1-1 4 7z"/><path class="x" d="M113 263l-1 2v3h1l6 2v-1h1v-3l1-1-6-4-2 2z"/><path class="x" d="M102 260l-1 4 1 1v1h2l1 1h6l1-1v-1l1-3-7-3-4 1z"/><path class="x" d="M95 258l-1 2v3l2 1h1l2 1 2 1v-1a11 11 0 000-1l1-4-3-2z"/><path class="x" d="M88 261v1h2l2 1h1l1-1v-2l1-2-1-2-6 5zM117 259l-1 3-1 1v1l-2-1a6 6 0 01-2 0 5 5 0 00-1 0v-1h-2a5 5 0 010-1l1-4 5-1z"/><path class="x" d="M99 258l1 1 1 1 2 1 2 1h2l1-1 1-4-4-3h-4l-1 2-1 2z"/><path class="x" d="M94 257l1 1 1 1h3v-1l2-4h-1l-6 3zM122 264l-1 1h-2l-2-1h-1v-2l1-3 1-1 4 6zM114 257l-2 1h-1l-3-1-2-1h-1v-2l1-3 2-1 7 3z"/><path class="x" d="M105 255l-1 1-1-1h-3v-1l6-5v3l-1 3zM118 259l-1 1-3-1v-1l-1-1 1-2 1-2v-1l4 6-1 1zM115 252l-1 1h-3l-1-1 1-2v-3l3 2 1 3z"/><path class="x" d="M106 250l1 1 2 1h1l1-1v-5l-5 3v1zM174 211v-3l-3-1h-1l-2-1h-1l-2 1-1 5 5 2 5-3z"/><path class="x" d="M165 211v-1l1-2v-2l-4-1-4-1h-1l-1 1-1 3a13 13 0 001 2l8 2zM147 206v-1l1-1v-2l-1-1-3-1-1-1h-4l-1 1-2 4 9 3 2-1z"/><path class="x" d="M156 209v-3l1-2-1-1h-3l-1-1h-4l-2 5 8 3 2-1zM120 199v-2l1-2v-1l-2-1-5-1h-1l-1 1v2l-1 2 6 3 3-1z"/><path class="x" d="M130 202l1-4v-1l-1-1h-1l-2-1-3-1h-1l-2 1-1 2-1 3 8 2h3z"/><path class="x" d="M138 204v-2l1-2v-1l-2-1-1-1h-2l-2-1h-1a10 10 0 000 2l-1 4 3 1zM105 195l1-4v-1h-1l-1-1h-2l-3-1h-3v2l-2 3 8 3 3-1z"/><path class="x" d="M95 193l1-4-1-2-2-1h-2l-4-1-2-1-2 1h-1v2l-2 2 11 4h4zM113 197v-1l1-3-1-1-1-1h-1l-2-1h-2-1a13 13 0 000 1l-1 4 3 2z"/><path class="y" d="M77 183h4l1 1v6h-2z"/><path class="x" d="M163 216v-3l1-2-1-1h-3l-1-1h-3l-2 1-1 4 7 3 3-1z"/><path class="x" d="M154 214v-2l1-2v-2l-4-1-3-1h-2l-1 1v4a14 14 0 000 1l8 2zM124 205l1-2v-3h-2l-8-2h-2v3l-1 1 9 4 3-1z"/><path class="x" d="M136 210l1-6v-1h-1l-2-1h-1l-4-1h-4v2l-2 3 9 3 4 1z"/><path class="x" d="M145 212l1-2v-4h-2l-1-1-3-1h-3a7 7 0 000 1l-1 5h4zM168 213l-1-1-2-1h-2v1l-2 4 1 1 6-4zM105 201v-2l1-1v-2l-1-1-3-1h-1l-3-1h-1l-1 1-2 4 9 3h2z"/><path class="x" d="M95 198l1-2v-3h-1l-3-1h-1l-2-1-2-1h-1l-1 1-2 5 9 3 3-1zM114 203v-3l1-2-1-1h-3l-1-1h-3l-1 1-1 4 7 3 2-1z"/><path class="x" d="M81 189l2 1h2l1 1-1 2v3h-1zM157 220v-3l1-2-1-1h-3l-1-1h-3l-2 1-1 4 7 3 3-1z"/><path class="x" d="M148 218v-2l1-2v-2l-4-1-3-1h-2l-1 1v4a13 13 0 000 2l8 1zM118 209v-2l1-1v-1l-2-1-6-2h-2v3l-1 2 7 4 3-2z"/><path class="x" d="M130 213l1-4v-1l-1-1h-2l-1-1-4-1h-3l-1 1v1l-2 3 9 3h4z"/><path class="x" d="M139 215a13 13 0 011-1v-4h-2l-1-1-3-1h-3a7 7 0 000 1l-1 4 4 2zM89 201v-2l1-2 1-1 2 1a5 5 0 011 0 5 5 0 001 1h2v1a5 5 0 011 1l-2 4h-4z"/><path class="x" d="M109 203v-1l-3-1-2-1-3-1h-3v1l-2 4 6 3h5l2-1v-3zM84 196v-1h2l2 1 1 1v1l-1 3-1 1-4-5 1-1zM162 217l-1-1-2-1h-2v1l-2 4 1 1 6-4zM154 222l1-3h-1l-3-1h-1l-2-1h-1l-1 1-1 5 5 2 4-3z"/><path class="x" d="M145 222l1-1v-4l-3-1-4-1h-1l-2 1v3a13 13 0 000 2l8 2zM127 217l1-1v-2l1-1-1-1-3-1-1-1h-6l-1 5 9 2h1z"/><path class="x" d="M136 219l1-2v-3h-3l-2-1h-4l-1 5 7 3 2-2zM87 202l2-1 2 1h1l1 1v3l-1 1-1 2-4-7z"/><path class="x" d="M100 210l1-2v-3l-1-1-6-1h-1v3l-1 2 6 3 2-1z"/><path class="x" d="M111 212l1-4-1-1h-2l-1-1-3-1h-2l-1 1h-1v2l-1 2 7 3 4-1z"/><path class="x" d="M118 215l1-2v-4h-2l-1-1h-2l-2-1a9 9 0 000 2l-1 3 3 2zM134 224v-1l1-2v-1l-1-1-3-1-1-1h-5l-2 5 9 2h2z"/><path class="x" d="M124 221l1-2v-3h-1l-3-1h-3l-2-1h-2l-2 6 9 2 3-1z"/><path class="x" d="M113 219l1-3v-3h-3l-1-1h-3l-2 1-1 4 7 3 2-1zM143 226v-2l1-2-1-1h-3l-1-1h-4l-2 5 8 3 2-2z"/><path class="x" d="M105 217v-2l1-2v-2l-4-1-4-1h-1l-1 1-1 4a15 15 0 001 1l8 2z"/><path class="x" d="M91 208h2l2 1h1v6h-2zM149 224v-1l-1-1h-2l-1-1-1 1h-1l-1 6h1l6-4zM142 228v-1l-3-1-2-1-1 1-1 5 1 1 6-4z"/><path class="x" d="M135 230l1-1v-4l-2-1h-1l-2-1-2 1-2 5 7 2 1-1z"/><path class="x" d="M128 228l1-2v-3h-1l-3-1h-1l-2-1h-2l-1-1-1 1-2 5 8 3 4-1z"/><path class="x" d="M117 225l1-2v-3l-3-1h-2l-1-1h-1l-2 1-1 5 7 3 2-2z"/><path class="x" d="M108 223l1-1v-2l1-1-1-1-3-1-4-1h-1l-2 1v3a13 13 0 001 2l8 2z"/><path class="x" d="M95 215h5v5l-1 1h-1z"/><path class="x" d="M98 221l2-1 2 1h1l1 1v4l-1 1-1 1-4-7z"/><path class="x" d="M111 229l1-2v-3h-1l-6-2v1h-1v3l-1 1 6 4 2-2z"/><path class="x" d="M122 232l1-4-1-1v-1h-2l-1-1h-6l-1 1v1l-1 3 7 3 4-1z"/><path class="x" d="M129 234l1-2v-3l-2-1h-1l-2-1-2-1v1a11 11 0 000 1l-1 4 3 2z"/><path class="x" d="M136 231v-1h-2l-2-1h-1l-1 1v2l-1 2 1 2 6-5zM107 233l1-3 1-1v-1l2 1a5 5 0 012 0 4 4 0 001 0v1h2a5 5 0 010 1l-1 4-5 1z"/><path class="x" d="M125 234l-1-1-1-1-2-1-2-1h-2l-1 1-1 4 4 3h4l1-2 1-2z"/><path class="x" d="M130 235l-1-1-1-1h-3v1l-2 4h1l6-3zM102 228l1-1h2l2 1h1v2l-1 3-1 1-4-6zM110 235l2-1h1l3 1 2 1h1v2l-1 3-2 1-7-3z"/><path class="x" d="M119 237l1-1 1 1h3v1l-6 5v-3l1-3zM106 233l1-1 3 1v1l1 1-1 2v2l-1 1-4-6 1-1zM109 240l1-1h3l1 1-1 2v3l-3-2-1-3z"/><path class="x" d="M118 242v-1l-3-1h-1l-1 1v5l5-3v-1zM147 308l2 1 1-1v-3l1-1v-3l-1-2-4-1-2 5 3 5z"/><path class="x" d="M146 299h2l2 1h2l1-4 1-3v-2l-1-1h-4a13 13 0 00-2 0l-1 8zM151 281h2l1 1h2l1-1v-3l1-1 1-2-1-2v-1l-5-1-2 8v2z"/><path class="x" d="M149 290l2 1h3v-1l1-2v-2l1-2v-1l-1-1-5-1-2 7 1 2zM159 254l2 1h2l1-1 2-6h-1v-1l-3-1-1-1-4 6 2 3z"/><path class="x" d="M156 264l4 1h2v-4l1-3v-2l-1-1h-1l-3-1-3 7 1 3z"/><path class="x" d="M154 272h2l2 1h1l1-2v-1l1-2v-2a10 10 0 00-1-1l-4-1-2 3zM162 239l4 1h1l1-1v-1l1-2 1-3v-1l-1-1v-1h-2l-2-1-3 7v3z"/><path class="x" d="M165 229l4 1h1l1-1v-2l1-2 1-4v-4l-1-1h-1l-3-1-3 10v4zM160 247h2l2 1h1l1-2v-1l1-2 1-2a10 10 0 00-2-1l-4-1-1 3z"/><path class="y" d="M175 211v1l-1 1v3h-6v-2z"/><path class="x" d="M142 297h2l3 1v-1l1-3v-1l1-2v-1l-1-1-5-2-2 8 1 2z"/><path class="x" d="M144 288l2 1h3l1-3 1-4v-3h-4a14 14 0 00-2 0l-2 8zM152 258l2 1h3l1-2 2-8v-2h-3l-2-1-4 9 1 3z"/><path class="x" d="M148 270l5 2 1-1 1-1v-1l1-2 1-4v-3l-1-1h-1l-3-1-3 8-1 4z"/><path class="x" d="M145 279l3 1 2 1 1-1 1-2v-1l1-3 1-2a7 7 0 00-2-1l-4-1-1 4zM144 302h2v-3l1-1v-1h-1l-4-1-1 1 3 5zM157 239l1 1h2l1 1 1-2 1-2 1-2 1-2-1-2v-1l-5-1-2 9v1z"/><path class="x" d="M160 229l2 1 2 1 1-1v-1l1-3v-2l1-3v-2l-6-1-2 8 1 3zM155 248l2 1h3v-1l1-2v-2l1-1v-1l-1-2-5-1-3 7 2 2z"/><path class="x" d="M168 215v5h-5l-1-1v-1zM138 291h2l3 1v-1l1-3v-1l1-2v-1l-1-1-5-2-2 8 1 2z"/><path class="x" d="M140 282h1l2 1h2l1-4 1-3v-1l-1-2h-3a13 13 0 00-2 0l-2 8zM148 252l2 1h3l1-2 2-6-1-1v-1h-3l-1-1-4 7 1 3z"/><path class="x" d="M145 265l4 1 1-1 1-1v-1l1-2 1-4v-3l-1-1h-1l-3-1-4 8 1 5z"/><path class="x" d="M143 273a13 13 0 011 1l2 1 1-1 1-2v-1l1-3 1-2a7 7 0 00-2-1l-3-1-2 4zM156 223l3 1h1l1 1-1 2a6 6 0 010 1 5 5 0 000 1v1l-1 1a6 6 0 01-1 1l-4-1-1-5z"/><path class="x" d="M155 243h1l1-2 1-3 1-3v-3h-1l-4-1-3 5-1 6 2 1h3zM161 218l1 1v1l-1 2v1l-2 1-3-1-1-2 6-4v1zM140 296h2v-3l1-1-1-1-5-1v1l3 5zM136 289h2l1-1v-2l1-2v-4l-5-1-2 5 3 5z"/><path class="x" d="M136 279l1 1h4l1-3 1-4v-1l-1-2h-4a16 16 0 00-1 1l-2 8zM140 261l2 1h1l2 1 1-1 1-3v-1l1-3v-1l-1-2-4-1-3 9v1z"/><path class="x" d="M138 270l3 1h3v-3l1-1v-3l-1-2-4-1-3 7 1 2zM156 222l1 1-1 2v2h-5l-1-1-1-1 7-4z"/><path class="x" d="M148 234l2 1 2 1h1v-2l2-5-1-1v-1h-3l-1-1-4 6 2 2z"/><path class="x" d="M145 245l4 1 1-1h1v-2l1-1v-6l-2-1-3-1-3 7 1 4z"/><path class="x" d="M143 252l2 1 2 1 1-1 1-2v-1l1-1 1-2-1-1a11 11 0 00-1 0l-4-1-2 3zM133 268h2l1 1h2l1-1 1-3v-1l1-2v-2l-1-1-4-1-3 8v2z"/><path class="x" d="M136 258l2 1h3v-1l1-3 1-1v-2l1-2v-1l-1-1-5-1-3 8 1 3z"/><path class="x" d="M139 248h2l3 1v-1l1-3v-1l1-2v-1l-1-2-5-1-2 7 1 3zM131 277l3 1h2l1-1v-2l1-2v-3l-1-1-4-1-3 7 1 2z"/><path class="x" d="M141 239h1l2 1h2l1-4 1-3v-2l-1-1h-3a13 13 0 00-2 0l-2 8z"/><path class="x" d="M150 225v1l-1 1v3l-1 1-2-1h-3v-2zM133 283h2v-1l1-2v-2l-1-1-5-1v1l3 6z"/><path class="x" d="M130 277l1-1 1-2v-4l-5-1-1 1 4 7z"/><path class="x" d="M127 269l2 1h1l2 1 1-1v-2l1-1 1-2-1-1v-1l-5-2-2 7v1z"/><path class="x" d="M129 262l3 1h2l1-1 1-3v-3l1-2v-2l-6-2-2 9v3z"/><path class="x" d="M132 251l3 1h3v-3l1-1v-3l-1-2-4-1-3 7 1 2z"/><path class="x" d="M134 243h2l2 1h2l1-4 1-4v-1l-1-1-4-1a14 14 0 00-2 1l-1 8z"/><path class="x" d="M143 229v2l-1 2v1h-6v-2z"/><path class="x" d="M137 233v1l-1 2v2h-4l-1-1-2-1 7-4z"/><path class="x" d="M129 245l2 1 1 1h1l1-2 1-5v-2h-3l-2-1-3 6 2 2z"/><path class="x" d="M126 256l4 1 1-1 1-1v-2l1-3v-3h-1l-1-1-3-1-3 7 1 4z"/><path class="x" d="M124 263l1 1 3 1 1-1 1-2 1-2v-2-1a11 11 0 00-1 0l-4-1-2 3z"/><path class="x" d="M126 270h1l1-2 1-2v-1h-1l-3-1-1-1-2 1 4 6zM125 242h2l2 1 1 1-1 2a5 5 0 010 1 4 4 0 00-1 1v2h-1a5 5 0 01-1 1l-4-2v-4z"/><path class="x" d="M124 259h1l1-2 1-2v-2l1-1-1-1h-1l-4-2-2 4v4l1 1 3 1z"/><path class="x" d="M122 264h2v-3l1-1v-1h-1l-4-1-1 1 3 5zM130 237h1v2l-1 2-1 1h-1l-3-1-1-1 5-4 1 1zM123 244l1 2v1l-1 3-1 2-1 1h-1l-3-1-1-1 3-8z"/><path class="x" d="M120 253l1 1v2l-1 2-1 1-4-7h2l3 1zM124 240l2 1-2 3v1h-1l-2-1h-2l-1-1 6-3z"/><path class="x" d="M118 243l1 1-1 3-1 1-2-1h-3l3-3 3-1z"/><path class="x" d="M116 252h1l1-3v-1h-1l-4-1h-1l3 5h1zM77 184l-3-1v1l-1 3v1l-1 2v1l1 1 5 2 2-5-3-5z"/><path class="x" d="M77 193h-1l-2-1h-2l-1 4-1 3v2l1 1h3a14 14 0 002 0l2-8zM72 211h-1l-2-1h-1l-1 1-1 2-1 2v5l5 1 2-8v-2z"/><path class="x" d="M74 202l-2-1h-2l-1 1v2l-1 2v4l5 1 3-7-2-2zM65 238l-2-1h-3l-1 1-1 6v1h3l2 1 3-5-1-3z"/><path class="x" d="M67 228l-3-1h-2v2l-1 2-1 3v1l1 1v1h1l3 1 3-7-1-3z"/><path class="x" d="M70 220h-2l-2-1h-2v2l-1 1v2l-1 2a11 11 0 002 1l3 1 2-3zM61 253l-4-1h-1l-1 2v2l-1 3v2l1 1h1l3 1 3-7-1-3zM58 263l-4-1h-1v1l-1 2v2l-2 4v4l1 1h1l3 1 4-10-1-4z"/><path class="x" d="M63 245h-1l-3-1h-1l-1 2v1l-1 2v2a11 11 0 001 1l4 1 2-3z"/><path class="y" d="M49 281v-1-1-2l1-1v-1l2 1h4v2z"/><path class="x" d="M82 195h-3l-2-1-1 1v3l-1 1v4l5 1 3-7-1-2z"/><path class="x" d="M79 204h-1l-2-1h-2l-1 4-1 3v1l1 2h4a13 13 0 001 0l2-8zM71 234l-2-1h-3l-1 2-2 8h1v1h3l1 2 4-9-1-3z"/><path class="x" d="M76 222l-6-2-1 1v1l-1 1v2l-1 4v4h2l3 1 3-8 1-4z"/><path class="x" d="M78 213l-3-1-2-1-1 1-1 2v1l-1 2v3a8 8 0 001 1l5 1v-4zM79 190h-1l-1 1v3l1 1 4 1v-1l-3-5zM67 253l-2-1h-1l-2-1-1 2-1 2-1 2v4l1 1 4 1 3-9v-1z"/><path class="x" d="M64 263l-2-1-2-1-1 1-1 1v3l-1 1v1l-1 3v1l1 1 5 1 3-8-1-3zM69 244l-3-1h-3v3l-1 2v2l1 2 4 1 3-7-1-2z"/><path class="x" d="M55 277v-1-1l1-2v-1h4l2 1v1zM86 201h-3l-2-1-1 1v3l-1 1v4l5 1 3-7-1-2z"/><path class="x" d="M83 210h-1l-2-1h-2l-1 4-1 3v1l1 2h4a14 14 0 001 0l2-8zM75 240l-2-1h-3v2l-2 6v2h3l2 1 3-7-1-3z"/><path class="x" d="M78 228l-4-2-1 1v1l-1 1v2l-1 4v3l1 1h1l3 1 3-8-1-4z"/><path class="x" d="M81 219a13 13 0 01-1-1l-3-1-1 1-1 2v1l-1 2v3a8 8 0 001 1l3 1 2-4zM67 269l-2-1h-2l-1-1 1-2a5 5 0 010-1 5 5 0 001-1v-2h1a7 7 0 010-1l4 1 1 5zM69 248l-1 1-1 2-1 3-1 3-1 1 1 2 5 1 3-5v-6l-2-1-2-1z"/><path class="x" d="M62 274l-1-1v-1l1-2 1-1 1-1 3 1 1 2-6 4v-1zM83 196h-1v1l-1 2v1l1 1 4 1 1-1-4-5zM87 203h-2l-1 3v2l-1 1v1l1 2 5 1 1-5-3-5z"/><path class="x" d="M88 213l-2-1h-3l-1 3-1 4v3h4a16 16 0 002-1l2-8zM83 230h-3l-1-1-1 1-1 3-1 1-1 3 1 1v1l5 2 2-9v-2z"/><path class="x" d="M85 222l-2-1h-3l-1 3v1l-1 2v1l1 2 5 1 3-7-2-2zM68 270l-1-1 1-2v-2h4l1 1 2 1-7 4z"/><path class="x" d="M76 258l-2-1-2-1h-1l-1 2-1 5v2h3l2 1 3-6-1-2z"/><path class="x" d="M78 247l-4-1-1 1-1 2v1l-1 3v3h1l1 1 3 1 3-7-1-4z"/><path class="x" d="M80 240l-1-1-3-1-1 1-1 2-1 2v3a11 11 0 001 0l4 1 2-3zM90 224h-1l-2-1h-1l-1 1-1 2-1 2-1 2 1 2v1l5 1 2-8v-2z"/><path class="x" d="M87 234l-2-1h-3v1l-1 3v1l-1 1v5l5 1 3-8-1-3z"/><path class="x" d="M85 244h-3l-2-1-1 1v3l-1 1v4l5 2 3-7-1-3zM92 215l-2-1h-3v1l-1 2v2l-1 1v2l1 1 5 1 3-7-2-2z"/><path class="x" d="M82 253h-1l-2-1h-2l-1 4-1 3v2l1 1h4a14 14 0 001 0l2-8z"/><path class="x" d="M74 267v-1-1-2l1-1v-1l2 1h3v2zM90 209h-2v3l-1 1v1l1 1 5 1 1-1-4-6z"/><path class="x" d="M94 215l-2 1v2l-1 2 1 2 4 1 2-1-4-7z"/><path class="x" d="M96 223l-1-1h-2l-1-1-1 1-1 2-1 1v3l1 1 5 2 1-7v-1z"/><path class="x" d="M94 230l-2-1h-3v1l-1 3v1l-1 2-1 2v1l1 1 5 2 3-9-1-3z"/><path class="x" d="M91 241l-2-1h-3l-1 3v1l-1 2v1l1 2 5 1 2-7-1-2z"/><path class="x" d="M89 249h-1l-2-1h-2l-1 4-1 4v1l1 1 3 1a14 14 0 002-1l2-8z"/><path class="x" d="M81 263l-1-1 1-1v-3h6v2z"/><path class="x" d="M87 259l-1-1 1-2v-2h5l1 1 1 1-7 4z"/><path class="x" d="M95 247l-2-1-2-1h-1v2l-2 5v1l1 1h2l2 1 3-6-1-2z"/><path class="x" d="M98 236l-4-1-1 1h-1v1l-1 2-1 3v1l1 2 2 1 3 1 2-7v-4z"/><path class="x" d="M100 229l-2-1-2-1-1 1-1 2v1l-1 1-1 2v1a11 11 0 002 0l4 1 2-3z"/><path class="x" d="M97 222h-1l-1 2v3h-1 2l2 1 2 1 2-1-5-6zM99 251l-3-1-1-1-1-1 1-2a5 5 0 010-1 5 5 0 000-1l1-2a5 5 0 011-1l4 2 1 4z"/><path class="x" d="M100 233h-2l-1 2v2l-1 2v2h1l4 2 3-4v-4l-2-1-2-1z"/><path class="x" d="M101 228h-1l-1 1v4h1l4 1v-1l-3-5zM93 255v-2l1-2v-1l2-1 3 2 1 1-6 4-1-1zM101 248l-1-2v-4l1-2 1-1h2l3 1 1 1-3 8z"/><path class="x" d="M103 239l-1-1 1-2v-2l1-1 5 7h-3l-3-1zM99 252l-1-1 1-3 1-1 3 1h2l1 1-6 3h-1z"/><path class="x" d="M105 249l-1-1 1-3 1-1 2 1h3l-2 3-4 1z"/><path class="x" d="M108 240h-1l-1 3v1h1l3 1h1l-2-5h-1z"/><path transform="rotate(-75 111 246)" style="isolation:isolate" opacity=".1" fill="url(#a)" d="M60 194h103v104H60z"/><path class="aa" d="M49 282l8-3 7-5 9-4 11-7 11-6 13-8 4-1-1-2-4 2-13 7-11 7-11 6-9 5-7 4-8 4v2zM76 184l3 7 5 7 4 9 7 11 6 11 7 13 2 4 2-1-2-4-7-13-7-11-6-11-5-9-4-7-4-7-2-1zM174 210l-7 3-7 5-9 4-11 7-11 6-13 7-4 2 1 2 4-2 13-7 11-7 11-6 9-5 7-4 7-4 1-2zM149 309l-4-7-4-8-5-8-6-11-7-12-7-13-2-3-2 1 2 3 8 13 6 12 7 11 4 8 4 8 4 7h2z"/><path class="aa" d="M113 249l-4-2c-1-1 1-3 2-4s3 1 4 2l-1 1a6 6 0 01-1 3z"/><path class="ab" d="M139 729c0 4 3 8 7 9-1 4-2 7-1 11s4 7 8 6c-2 7 2 14 8 16 1 3 2 7 4 9s6 3 8 1a10 10 0 0012 8c1 2 2 5 4 6s6 2 7 0a6 6 0 007 6 22 22 0 014 0c4 0 7 4 11 4 5 1 6-4 10-5s7 1 11 2 8-2 7-5c3 2 7 4 11 3s8-4 7-8c4 4 11 0 10-4a9 9 0 0015-10 7 7 0 107-12 7 7 0 007-13c3 0 6-1 7-3s0-6-2-7c7-1 11-12 7-18a8 8 0 104-15 9 9 0 00-4-17c2-5-3-11-8-10a7 7 0 00-6-12c4-5 0-15-7-14 2-3-1-7-3-8l-10-2c-1-3-1-7-4-9s-7-3-9 0c-2-7-11-10-18-7-2-5-12-5-15 0-6-6-18-5-24 3-4-6-15-3-16 4-7-4-17 0-18 8-6-3-14 1-14 7a13 13 0 00-8 16c-3 2-4 7-4 11a4 4 0 01-3 3c-2 1-5 4-6 10l2 9c0 1-8 5-2 14-1 4-3 8-3 13z"/><path class="ac" d="M302 662c-2-3-5-6-8-5 1-3-1-7-3-8l-10-2c-1-3-1-7-4-9s-7-3-9 0c-2-7-11-10-18-7-2-5-12-5-15 0-6-6-18-5-24 2-4-5-15-2-16 5-7-4-17 0-18 8-6-3-14 1-14 7a13 13 0 00-8 16c-3 1-4 7-4 11a4 4 0 01-3 3c-2 1-5 4-6 10l2 9c0 1-8 5-2 14l-3 12c0 4 3 9 7 10-1 4-2 7-1 11s4 7 8 6c-2 6 2 14 8 16l4 9c2 3 6 3 8 1a10 10 0 0012 8c1 2 2 5 4 6s6 2 7 0a6 6 0 007 6 22 22 0 014 0c4 0 7 4 11 4 5 1 6-4 10-5s7 1 11 2 8-2 7-5c3 2 7 3 11 3a22 22 0 001-4 4 4 0 000-2l-3-3-7-5c-3-3-8-1-12-1s-9-3-8-7c2-5 9-3 14-6a4 4 0 00-4-4c0-3 4-4 6-5s6-4 4-7c-2-2-6 0-9-2-2-2 0-6 3-7l9-1c3-1 6-2 5-5-1-4-9-4-10-8 0-2 2-4 1-6 0-2-4-3-6-1l-6 4a7 7 0 01-5-12l8-1c3 0 5-4 3-6l-6-2a26 26 0 0114-12c-3-1-3-6 0-9s6-2 10-3c7 0 21-1 28-6-8-8 6-14 13-17z"/><path class="ad" d="M182 759l-5-6-9-15c-2-3-2-7 1-7-2-3-3-8 1-9a15 15 0 01-11-10c-1-3 0-7 2-9l3-3a8 8 0 001-8l4-2-1-4a4 4 0 000-6l2-4c2-7 11-10 18-7 3-4-2-10 1-13 3-2 7 0 10 0 4 0 8-3 11-4 5-2 10 0 15 1 5 2 9 5 11 9s2 10-1 13c-3 2-6 2-9 2l-15 1a10 10 0 00-5 1 6 6 0 00-2 8 8 8 0 006 4c0 4-4 5-7 6l-10 2c-3 1-5 6-3 9a8 8 0 016 1 22 22 0 00-6 11 102 102 0 0021 13l-6 4c-2 1-4 2-4 4s2 4 4 3l-1 8-6 5c-5 4-10 5-16 2z"/><path class="ad" d="M280 659l-2-1-5-4-5-2c-2-1-3-2-3-4v-3a3 3 0 00-2-2 14 14 0 00-10 0c-1 1-3 2-4 1l-1-3c0-2-2-4-5-4a18 18 0 00-7 0c-3 1-10 0-10 5a1 1 0 000 2h2a5 5 0 012 0c2 2 6 4 6 7a7 7 0 000 2l4 1h4c3 1 2 5 1 7s-4 5-3 8a25 25 0 005 2c0 2-2 3-3 4s-1 3-1 4c2 2 5 1 7 0s4-4 6-4a10 10 0 013 1 14 14 0 007 1 4 4 0 003-1c2-2 0-7 2-8h5a5 5 0 003-9zM209 722c-1 1-2 3-1 5a7 7 0 003 1c3 1 5 4 6 7 1 1 2 3 0 4l-2 1a5 5 0 00-3 7 25 25 0 013 3c1 1 0 4-1 6l-3 7a11 11 0 01-3 4l-6 2c-4 1-8 2-13 0a26 26 0 00-5-1c-1 0-3 0-4 2s2 4 4 5h6a4 4 0 012 1c2 1 1 4 1 6a7 7 0 0013 4 22 22 0 005 6c2 2 5 3 8 2s4-4 2-7l-3-3a7 7 0 01-1-10 7 7 0 014-2l4-2a4 4 0 000-2 17 17 0 00-2-7c4-2 7-4 9-7s0-9-4-9h-4v-4l2-3c1-4-5-6-6-9l-1-5c-1-4-7-4-10-2zM149 728a3 3 0 000 1l3 1c2 0 3 3 3 5a32 32 0 010 6 16 16 0 001 8c2 3 4 4 6 5l1 5a7 7 0 003 4 3 3 0 004-1l-1-5c-1-1-3-2-3-4l-1-6c0-3-2-5-3-7s-1-6 0-8a4 4 0 001-1 3 3 0 000-2c-3-6-12-10-14-1zM167 658a6 6 0 003 1l-1 3-3 1a6 6 0 00-2 3l-2 6a4 4 0 000 3h3a7 7 0 002-4 8 8 0 011-5c3-3 10 0 12-4l1-5c1-2 1-4 3-4 3 1 5-1 7-2s3-3 3-5a3 3 0 00-2-1c-2-2-5 0-7 1s-5 4-8 4c-5 1-10 2-10 8z"/><path class="ac" d="M978 389c1-7 5-13 10-16s14-2 18 3c4-6 10-10 16-11s14 3 16 9c10 2 16 13 13 22a36 36 0 00-2 4v4c-1 4-3 8-6 11-6 6-14 11-22 14-9 3-19 4-28 1-7-3-13-11-14-19l1-8-2-14z"/><path class="ad" d="M987 418c-1-5-3-9-2-14 1-6 4-12 10-15s13-3 18 2c4-5 9-10 16-10s13 2 16 8a15 15 0 016 3c2-8-4-17-13-19-2-6-9-9-16-9s-12 6-16 11c-4-5-12-6-18-3s-9 10-10 16l2 14-1 9a21 21 0 007 13 35 35 0 001-6z"/><path class="ac" d="M1076 517c8-1 15-9 13-17a14 14 0 007-25c4-2 5-7 3-12s-5-7-9-9a37 37 0 00-38 4 18 18 0 01-3 2 41 41 0 01-5 1c-6 2-9 9-9 16s2 12 5 18c3 7 10 7 16 11 6 5 10 12 20 11z"/><path class="ab" d="M1096 475c4-2 5-7 3-12s-5-7-9-9a36 36 0 00-12-3 17 17 0 017 8c2 4 1 10-3 12a14 14 0 01-7 25c1 7-5 15-12 16 3 3 7 6 12 5 9-1 15-9 14-17a14 14 0 007-25z"/><path class="ac" d="M924 470a16 16 0 001 18 27 27 0 00-9 18c0 6 2 13 8 16 5 2 11 1 16-1-1 4 0 8 2 11a18 18 0 0010 6 23 23 0 0016-1c4-2 8-7 9-13 5 3 10 1 15-2s7-8 8-13c2-6 3-13 1-19s-7-12-13-14c1-3 2-7 0-11-2-3-5-5-8-6-7-3-15-5-22-5-9 0-12 4-19 7-6 3-11 2-15 9z"/><path class="ab" d="M988 468h1a9 9 0 00-1-2v2zM1000 500c-1 5-4 10-8 13s-10 5-15 3c-1 5-5 10-9 12a23 23 0 01-16 1 18 18 0 01-10-6c-2-3-3-7-2-11-5 2-11 4-16 1-4-2-6-6-7-10a27 27 0 00-1 3c0 6 2 13 8 16s11 1 16-1c-1 4 0 8 2 11a18 18 0 0010 6 23 23 0 0016-1c4-2 8-7 9-13 5 3 10 1 15-2s7-8 8-13a34 34 0 002-15 37 37 0 01-2 6zM925 479a16 16 0 01-3-6 16 16 0 000 9 27 27 0 013-3z"/><path class="ac" d="M930 398c-1 1-3 3-3 5s1 5 3 5a25 25 0 00-15 19 37 37 0 001 12c1 5 3 10 8 10a10 10 0 012 0c2 0 3 3 3 5a18 18 0 0031 7 5 5 0 012-2l5 1a23 23 0 0035-12 23 23 0 00-4-41c3-3 3-7 2-11s-5-7-9-8a25 25 0 00-14-3 20 20 0 01-4 1 20 20 0 01-5-1 24 24 0 00-20 3c-3 3-4 4-8 5s-6 1-10 5z"/><path class="ab" d="M1012 426a24 24 0 00-9-16 22 22 0 011 5 24 24 0 01-10 22 23 23 0 01-29 15 24 24 0 01-6-2l-4-2a5 5 0 00-2 2 18 18 0 01-18 7 17 17 0 01-6-3 18 18 0 0031 7 5 5 0 012-2l5 1a23 23 0 0032-7 23 23 0 003-5 24 24 0 0010-22z"/><path class="ad" d="M936 417c-6 1-11 7-10 13s8 10 14 9c2 0 4 0 5-2a8 8 0 001-4 37 37 0 00-1-8 9 9 0 0010-6c1-3 1-7 4-8h5c2 0 4-2 5-4s2-4 1-6c-2-3-6-4-9-4l-14 1c-7 0-6 2-9 7-1 4-6 7-2 12z"/><path class="ac" d="M1011 462c-2 0-4 0-6 2s-2 4-1 5a25 25 0 00-23 5 37 37 0 00-8 11c-2 4-3 9 0 12a10 10 0 012 2c2 1 0 4-1 6a18 18 0 0020 25 5 5 0 013 0l2 3a23 23 0 0030 15 23 23 0 005-2 23 23 0 0023-34c4 0 8-3 9-7s0-9-1-12a25 25 0 00-10-11 20 20 0 01-4-2 21 21 0 01-2-4 24 24 0 00-18-10c-4-1-6 0-9-2-4-2-6-3-11-2z"/><path class="ab" d="M1056 536a24 24 0 003-18 22 22 0 01-2 4 24 24 0 01-22 10 23 23 0 01-35-12l-2-4a5 5 0 00-3 0 18 18 0 01-18-6 17 17 0 01-2-5 18 18 0 0019 25 5 5 0 013 0l2 3a23 23 0 0030 15 23 23 0 005-2 24 24 0 0022-10z"/><path class="ad" d="M1005 487c-5-3-13-1-16 4s0 12 5 16c1 1 3 2 5 1a8 8 0 004-2 36 36 0 004-7 9 9 0 0011 2c3-2 5-5 8-4l4 4c2 1 4 0 7-1s4-2 4-4c1-3-2-6-4-8l-11-8c-5-5-7-3-12 0-3 2-9 1-9 7z"/><path class="ac" d="M1038 392c-2 0-4 0-6 2s-2 4-1 5a25 25 0 00-23 5 37 37 0 00-8 11c-2 4-3 9 0 12a10 10 0 013 2c1 1 0 4-1 6a18 18 0 0019 25 5 5 0 013 0l2 3a23 23 0 0030 15 24 24 0 006-2 23 23 0 0022-34c4 0 8-4 9-7s0-9-1-12a25 25 0 00-10-11 20 20 0 01-4-2 21 21 0 01-2-4 24 24 0 00-18-10c-4-1-6 0-9-2-4-2-6-3-11-2z"/><path class="ab" d="M1083 466a24 24 0 003-18 22 22 0 01-2 4 24 24 0 01-21 10 23 23 0 01-33-6 23 23 0 01-3-6l-2-4a5 5 0 00-3 0 18 18 0 01-18-6 17 17 0 01-2-5 18 18 0 0019 25 5 5 0 013 0l2 3a23 23 0 0030 15 23 23 0 006-2 24 24 0 0021-10z"/><path class="ad" d="M1030 410c-5-3-13-1-15 4s-1 12 4 16a7 7 0 005 1 8 8 0 004-2 38 38 0 005-7 9 9 0 0011 1c2-1 5-4 7-3l4 3c2 2 5 1 7 0s4-2 5-4c0-3-2-6-5-8l-11-9c-5-4-7-2-12 1-3 2-9 1-9 7z"/><path class="ac" d="M957 445a18 18 0 00-7 5c-3 6-1 12 1 18-7 2-9 13-5 19s14 8 21 5a24 24 0 0037-4l3-3a9 9 0 014 0 13 13 0 0010-5 21 21 0 004-12 26 26 0 011-6l2-4a17 17 0 00-3-16 21 21 0 00-15-8 19 19 0 00-15-10c-10-1-13 5-19 11-4 5-13 6-19 10z"/><path class="ad" d="M962 478c-3-6-4-13-1-18a19 19 0 016-6c6-3 15-4 20-9 6-6 9-12 19-12a20 20 0 0115 11 22 22 0 017 2 18 18 0 00-3-6 21 21 0 00-14-8 19 19 0 00-16-10c-10-1-13 5-19 11-4 5-13 6-19 9a19 19 0 00-7 6c-3 5-1 12 1 18-7 2-9 13-5 19a16 16 0 008 6c0-6 3-11 8-13z"/><path class="ab" d="M1025 442a18 18 0 00-2-2 15 15 0 01-1 7l-2 4a26 26 0 000 6 22 22 0 01-4 11 13 13 0 01-11 6 9 9 0 00-3 0c-2 0-2 2-3 3a24 24 0 01-38 4c-5 2-12 1-17-3a13 13 0 002 9c5 6 14 8 21 5a24 24 0 0034 0 24 24 0 003-3l3-4a9 9 0 014 0 13 13 0 0010-5 21 21 0 004-12 26 26 0 011-6l2-4a17 17 0 00-3-16z"/><path class="ac" d="M1004 436c-5 2-10 6-13 11s0 13 5 16c0 3 0 8 2 11 2 2 6 3 9 3 5 1 12 0 14-5a15 15 0 0024-7 33 33 0 012-5l1-3a10 10 0 00-8-15 12 12 0 00-6-9c-5-2-8 0-13 0-6 1-11 0-17 3z"/><path class="ab" d="M1048 448a10 10 0 00-4-5 10 10 0 01-1 3l-2 3a33 33 0 00-2 5 15 15 0 01-24 7c-2 4-8 5-14 5a20 20 0 01-5-1c0 3 0 6 2 9s6 3 9 3c5 1 12 0 14-5a15 15 0 0024-7 34 34 0 012-5l1-3a10 10 0 000-9z"/><path class="ae" d="M1208 699a57 57 0 00-7-3c-7-2-22-11-30-11-3 0-10 2-15 14-3 7-3 15-2 22 1 14 13 61 15 67 3 8 6 17 12 22h7l-1-2c-5-12-13-50 5-54a52 52 0 018-4c7-2 13-4 19-8l1-1 2-1c-1-4-3-9-6-13-5-7-13-5-20-6-5 0-10 1-12 4-2 2-2-1-1-2 1-3 3-3 5-5s2-5 5-7l9-2c6-2 15 6 20 9a40 40 0 014 2 118 118 0 00-18-21z"/><path class="af" d="M1222 741h-2zM1220 741l-1 1z"/><path d="M1141 680c-9 5-18 13-26 19-9 6-18 12-25 20l-2 1c13-6 20-6 34-11l15-9c-6 19-2 52 5 68 1-5 3-11 0-25-1-10-3-24-1-30 2-9 10-19 17-27 8-10 16-4 19-2a149 149 0 0022 8l-5-4c-16-11-35-17-53-8z" fill="#bab2a8"/><path class="ah" d="M1177 684c-3-2-11-8-19 2-7 8-15 18-17 27-2 6 0 20 1 30 2 14 1 20 0 25-7-16-11-49-5-68l-15 9c-14 5-21 5-34 11-6 7-7 16-7 25-1 14-2 42 4 49a21 21 0 002 2c-1-4 1-9 4-15 6-12 12-22 23-30l6-13h1v1c-1 10-9 21-13 29l-9 15c-3 7-4 12-3 19a61 61 0 006 2c0-7 5-13 11-16 4-3 9-4 13-6 4-1 6-3 10-3 10 1 12 6 18 12 2 3 6-1 8-5l5-5c-4-15-12-48-13-60-1-7-1-15 2-22 5-12 12-14 15-14 8 0 23 9 31 11a56 56 0 016 3l-9-7a149 149 0 01-22-8z"/><path class="af" d="M1123 720c-5 2-11 2-15 6-3 2-3 5-5 8-1 4-5 7-8 11-6 7-6 17-7 26-1 5-4 15 3 18a1 1 0 001-1c3-11 10-20 17-29 4-5 11-13 12-20 0-2 2-12 6-19 2-2-2-1-4 0z"/><path class="ae" d="M1120 739l-6 12c-11 8-17 18-23 30-3 6-5 11-4 15a30 30 0 009 6c-1-7 0-12 3-19l9-15c4-8 12-19 13-29v-1l-1 1z"/><path class="af" d="M1167 781l-5 5c-2 4-6 8-8 5-6-6-8-11-18-12-4 0-6 2-10 3-4 2-9 3-13 6-6 3-11 9-11 16h1c6-10 19-10 29-9 6 1 10 2 14 5 4 4 10 6 13 4 4-2 7 3 11 7l11-1c-6-5-9-14-12-22l-2-7zM1226 720a37 37 0 00-4-2c-5-3-14-12-20-9l-9 2c-3 2-3 5-5 7s-4 2-5 5c-1 1-1 4 2 1s6-3 11-3c7 1 15-1 20 6 3 4 5 9 6 13l-1 1h-1l-1 1c-6 4-12 6-19 8a51 51 0 00-8 4c-18 4-10 42-5 54l1 2 9-2a72 72 0 0013-4c13-19 14-62 14-62 1-2 5-4 7-5l1 1 1 1c4 12 9 34 8 48a20 20 0 005-4s1-10-2-23c-3-15-15-34-18-40z"/><path d="M1233 740l-1-2-1-1c-2 1-6 3-7 5 0 0-1 43-14 62 10-3 20-1 25-4 6-3 9-7 9-9 0-15-7-40-11-51z" fill="#4f463f"/><path class="ae" d="M1159 804c-3 2-9 0-13-4-4-3-8-4-14-5-10-1-22-1-29 9a431 431 0 0067 6c-4-3-7-8-11-6z"/><path class="ah" d="M1225 736c-2 0-5-2-6-1-4 1-8 4-19 5-6 1-13 0-19 5l-4 5c-2 6-6 5-6 8-2 4 2 9 1 13h1c4-6 7-13 13-17 3-3 7-5 17-6 8 0 12-3 18-4 8-2 6-6 11-7-2-1-4-2-7-1z"/><path d="M1312 430c8-5 19-25 60-2 24 14 10 53 30 48 27-7 48 24 21 49s-38 20-66 7c-10-5-16-8-31-6s-20 23-49 26-74-30-52-48 25-28 19-46 28-42 43-28 19 4 25 0z" fill="#45dbe2"/><path d="M1372 521c-11 0-42-8-50-6s-31 8-38 20-54 5-56-11 6 2 18-20c11-20 12-28 11-33a6 6 0 01-3-4c-1-4 4-10 12-13s16-1 17 4a6 6 0 01-1 5h1c11 0 39-20 46-16s-19 11-10 18 32-7 38 1-19 6-13 13 23 1 26 6-6 5-2 8 9-2 14 2-23 5-18 11 20 15 8 15zm44-15c-1-5-10-7-20-3s-15 9-13 14 10 7 20 4 15-10 13-15z" transform="translate(1 1)" fill="url(#b)"/><path class="al" d="M1353 495c3-5 0-12-6-15s-14 0-15 4l8 5-9-3c-1 0-2 9 6 14a11 11 0 0016-5z"/><path class="am" d="M1331 486a34 34 0 014 2c4 2 5 2 5 1 1-1 0-1-4-3a24 24 0 01-3-2c1-3 9-6 14-3 5 2 8 9 5 14a11 11 0 01-6 6 10 10 0 01-9-1c-7-5-7-12-6-14z"/><path class="an" d="M1332 487l2 1c5 2 6 3 7 2v-1l-4-3a36 36 0 01-4-2c2-3 9-5 14-3 5 3 7 9 5 14a10 10 0 01-6 5 10 10 0 01-8-1c-7-4-7-10-6-12z"/><path class="ao" d="M1336 483c2-1 7-2 10-1 5 3 7 8 5 12a9 9 0 01-6 5 8 8 0 01-7-1 11 11 0 01-5-9l1 1c5 1 6 2 8 0 1-3-1-4-5-6l-1-1z"/><path class="al" d="M1358 461a8 8 0 00-1-11c-4-3-10-2-11 0 0 1 5 4 4 5s-5-4-5-4c-1 0-3 6 2 11a8 8 0 0011-1z"/><path class="am" d="M1345 452a24 24 0 012 1l4 2-3-3a17 17 0 01-2-2c2-2 7-2 10 0a8 8 0 012 11 8 8 0 01-5 3 7 7 0 01-6-2c-4-4-3-9-2-10z"/><path class="an" d="M1345 452l2 1c2 2 3 3 4 2s0-1-2-3l-2-2c1-1 6-2 9 1a7 7 0 012 10 7 7 0 01-5 2 7 7 0 01-6-2c-3-3-3-7-2-9z"/><path class="ao" d="M1348 450l8 1a6 6 0 011 9 6 6 0 01-5 2 6 6 0 01-4-1 8 8 0 01-2-7c3 2 4 3 5 2h1c1-2-1-3-3-5l-1-1z"/><path class="al" d="M1278 505a12 12 0 0016 1c5-5 4-14 1-16-1 0-6 6-7 5 0 0 6-6 5-7 0-1-8-5-15 1-5 4-4 12 0 16z"/><path class="am" d="M1293 489a33 33 0 01-2 2c-3 4-4 4-3 5l4-3a24 24 0 013-2c2 2 3 10-1 14a11 11 0 01-16 0 12 12 0 01-3-8 9 9 0 013-8c6-5 13-2 15-1z"/><path class="an" d="M1292 489l-2 2c-3 3-4 4-3 5s2 0 5-2a36 36 0 013-3c2 3 2 10-1 14a10 10 0 01-15 0 11 11 0 01-3-8 9 9 0 013-7 11 11 0 0113-1z"/><path class="ao" d="M1295 494c0 2 0 7-2 10a9 9 0 01-13 0 10 10 0 01-3-7 8 8 0 013-6 10 10 0 0110-2l-1 1c-3 3-4 5-3 7 2 2 4 1 7-2l2-1z"/><path class="al" d="M1292 470a8 8 0 00-6 10c1 4 7 6 9 5l-1-6 3 6c1 0 6-4 5-10-1-4-6-7-10-5z"/><path class="am" d="M1297 484a22 22 0 01-1-2l-2-3v3a16 16 0 011 3c-3 1-8-2-9-6a8 8 0 016-9 8 8 0 016 1 7 7 0 013 4c1 6-3 9-4 9z"/><path class="an" d="M1297 484l-1-2-2-4v7c-2 0-6-2-7-6a7 7 0 015-9 8 8 0 016 1 6 6 0 013 4 8 8 0 01-4 9z"/><path class="ao" d="M1293 484c-2-1-5-3-5-5a6 6 0 014-8 7 7 0 015 1 5 5 0 013 4 7 7 0 01-2 7l-1-1c-1-3-1-5-3-4-2 0-2 2-1 4v2z"/><path class="ap" d="M1296 493a8 8 0 01-5-3 7 7 0 0110 1 8 8 0 01-5 2zM1286 492a8 8 0 01-5-2 7 7 0 0110 0 8 8 0 01-5 2zM1289 495a3 3 0 112 5 8 8 0 01-2-5z"/><path class="ap" d="M1289 485a3 3 0 112 5 8 8 0 01-2-5z"/><path class="ap" d="M1297 489a8 8 0 01-6 1 8 8 0 013-5c2-2 5-1 5-1a8 8 0 01-2 5zM1289 495a8 8 0 01-5 2 7 7 0 017-7 8 8 0 01-2 5z"/><path class="ap" d="M1293 496a8 8 0 01-2-6 7 7 0 017 8 8 8 0 01-5-2zM1286 488a8 8 0 01-1-5 7 7 0 016 7 8 8 0 01-5-2z"/><path class="aq" d="M1296 491a8 8 0 01-5-1 6 6 0 019-2 8 8 0 01-4 3zM1287 494a7 7 0 01-5-1 6 6 0 019-3 8 8 0 01-4 4zM1291 495a3 3 0 113 4 8 8 0 01-3-4z"/><path class="aq" d="M1288 486a3 3 0 113 4 8 8 0 01-3-4z"/><path class="ar" d="M1295 487a7 7 0 01-4 3 6 6 0 114-3z"/><path class="ar" d="M1291 495a7 7 0 01-4 3 6 6 0 114-3z"/><path class="ar" d="M1294 494a7 7 0 01-3-4 6 6 0 018 5 7 7 0 01-5-1zM1286 490a7 7 0 01-3-4 6 6 0 018 4 7 7 0 01-5 0z"/><path class="as" d="M1292 490a2 2 0 01-1 0 2 2 0 010-1 2 2 0 011 0 2 2 0 010 1zM1291 491a2 2 0 01-1 1 2 2 0 010-1 2 2 0 011-1 2 2 0 010 1z"/><path class="as" d="M1292 491a2 2 0 01-1-1 1 1 0 012 1 2 2 0 01-1 0zM1290 490a2 2 0 010-1 1 1 0 011 1 2 2 0 01-1 0z"/><path class="as" d="M1292 490a2 2 0 01-1 0 1 1 0 012 0 2 2 0 01-1 0zM1290 491a2 2 0 01-1 0 1 1 0 012-1 2 2 0 01-1 1z"/><path class="as" d="M1291 491a2 2 0 010-1 1 1 0 011 2 2 2 0 01-1-1z"/><path class="as" d="M1291 489a2 2 0 010-1 1 1 0 010 2 2 2 0 010-1z"/><path class="at" d="M1292 490a1 1 0 01-1 0 1 1 0 011-1 1 1 0 010 1zM1291 491a1 1 0 010-1 1 1 0 010 1z"/><path class="at" d="M1292 491a1 1 0 01-1-1 1 1 0 011 1zM1291 490a1 1 0 01-1 0 1 1 0 011 0z"/><path class="at" d="M1292 490a1 1 0 01-1 0 1 1 0 011 0zM1291 491a1 1 0 01-1 0 1 1 0 011-1 1 1 0 010 1z"/><path class="at" d="M1291 491a1 1 0 010-1 1 1 0 011 1 1 1 0 01-1 0zM1291 490z"/><path class="al" d="M1224 536c4-4 12-8 12-8s-4 8-8 12a21 21 0 01-9 5 21 21 0 015-9z"/><path class="am" d="M1223 539c7-9 2 0 2 0s9-6 1 2a13 13 0 01-6 3 16 16 0 013-5z"/><path class="an" d="M1223 539c6-8 1 1 1 1s9-6 1 1a11 11 0 01-5 3 14 14 0 013-5z"/><path class="am" d="M1225 538l-1 2 2-1a68 68 0 00-6 5l5-6z"/><path class="al" d="M1222 531l13-3-11 7a21 21 0 01-10 1 21 21 0 018-5z"/><path class="am" d="M1219 532c10-5 2 2 2 2s11-2 0 2a13 13 0 01-7 0 16 16 0 015-4z"/><path class="an" d="M1219 532c9-4 0 2 0 2s11-2 2 2a11 11 0 01-6 0 14 14 0 014-4z"/><path class="am" d="M1221 533l-1 1h2a72 72 0 00-7 2h-1l7-3z"/><path class="al" d="M1231 542c0-6 3-14 3-14v14a29 29 0 01-3 10 29 29 0 010-10z"/><path class="am" d="M1231 545c0-11 1-1 1-1s3-11 1 1a17 17 0 01-2 6 21 21 0 010-6z"/><path class="an" d="M1231 545c0-10 1 0 1 0s3-10 1 0a15 15 0 01-1 5 18 18 0 01-1-5z"/><path class="am" d="M1232 543v1l1-1-1 8h-1a60 60 0 001-8z"/><path class="al" d="M1225 525c3 0 7 4 7 4l-8 1c-3-1-5-4-5-4s3-2 6-1z"/><path class="am" d="M1223 525c7 0 0 2 0 2s6 4-1 2a6 6 0 01-3-3 8 8 0 014-1z"/><path class="an" d="M1223 525c6 0-1 2-1 2s6 4 1 2a5 5 0 01-3-3 7 7 0 013-1z"/><path class="am" d="M1224 527h-1l1 1a24 24 0 00-4-1v-1a14 14 0 004 1z"/><path class="al" d="M1234 537v-8l5 7c1 3-1 6-1 6s-4-2-4-5z"/><path class="am" d="M1234 538c-2-6 2-1 2-1s1-6 2 0a6 6 0 01-1 4 8 8 0 01-3-3z"/><path class="an" d="M1235 538c-3-5 1 0 1 0s1-7 2-1a5 5 0 01-1 4 7 7 0 01-2-3z"/><path class="am" d="M1236 537v1l1-1a25 25 0 000 4 14 14 0 00-1-4z"/><path class="al" d="M1233 521v8l-4-7a11 11 0 011-6 11 11 0 013 5z"/><path class="am" d="M1232 520c2 6-1 1-1 1s-1 6-2-1a7 7 0 011-4 9 9 0 012 4z"/><path class="an" d="M1232 520c2 5-1 0-1 0s-1 6-2 0a6 6 0 011-3 8 8 0 012 3z"/><path class="am" d="M1231 521v-1 1a34 34 0 00-1-4 20 20 0 001 4z"/><path class="al" d="M1226 521l8 9s-7-3-10-6a20 20 0 01-5-7 20 20 0 017 4z"/><path class="am" d="M1224 520c7 5 0 1 0 1s5 8-2 1a12 12 0 01-3-4 15 15 0 015 2z"/><path class="an" d="M1224 520c6 5-1 1-1 1s6 7-1 1a11 11 0 01-2-4 13 13 0 014 2z"/><path class="am" d="M1224 522l-1-1 1 1-5-4a42 42 0 005 4z"/><path class="au" d="M1224 533a10 10 0 004-1 13 13 0 002-1 13 13 0 00-1 2 11 11 0 00-3 4 10 10 0 005-2 17 17 0 001-3 26 26 0 000 3 15 15 0 000 5 15 15 0 002-4v-2a5 5 0 001 1 5 5 0 001-3 9 9 0 00-2-3h-1a13 13 0 000-4 2 2 0 10-2 1 9 9 0 001 2 20 20 0 00-2-3 10 10 0 00-4-2 10 10 0 003 4 4 4 0 00-3 1 5 5 0 002 2 10 10 0 00-4 3zm9-4zm0 0z"/><path class="at" d="M1237 528c-2 2-4 2-5 1s-1-3 1-5 3-2 4-1 1 3 0 5z"/><path class="at" d="M1236 528c-1 1-3 2-4 1s-1-3 1-4 3-2 4-1 1 2-1 4z"/><path class="at" d="M1237 526a2 2 0 110-2 2 2 0 010 2z"/><path class="at" d="M1236 525l3-4-3 3v1z"/><path class="al" d="M1249 553l-12-11s3 9 7 14a24 24 0 008 8 24 24 0 00-3-11z"/><path class="am" d="M1250 556c-6-11-3 1-3 1s-9-9-1 2a15 15 0 006 4 18 18 0 00-2-7z"/><path class="an" d="M1250 556c-5-9-2 2-2 2s-9-9-2 1a13 13 0 006 4 16 16 0 00-2-7z"/><path class="am" d="M1248 555v2l-2-1a81 81 0 016 7l-4-8z"/><path class="al" d="M1253 547l-15-5s6 7 11 10a24 24 0 0012 3 24 24 0 00-8-8z"/><path class="am" d="M1255 549c-10-7-2 2-2 2s-12-4 0 2a15 15 0 007 2 18 18 0 00-5-6z"/><path class="an" d="M1255 550c-9-7 0 2 0 2s-12-4-2 1a13 13 0 006 2 16 16 0 00-4-5z"/><path class="am" d="M1253 550l1 1h-2a79 79 0 018 4l-7-5z"/><path class="al" d="M1240 558v-16l-4 16a33 33 0 001 11 33 33 0 003-11z"/><path class="am" d="M1240 561c2-12-2-1-2-1s-1-12-2 1a20 20 0 001 7 25 25 0 003-7z"/><path class="an" d="M1240 561c1-10-2 1-2 1s-1-13-1-1a17 17 0 001 6 21 21 0 002-6z"/><path class="am" d="M1239 559l-1 2v-2l-1 9h1a69 69 0 011-9z"/><path class="al" d="M1250 540c-4 0-9 3-9 3s5 3 9 3 7-3 7-3-3-3-7-3z"/><path class="am" d="M1252 541c-8-2-1 2-1 2s-7 3 1 2a7 7 0 004-2 9 9 0 00-4-2z"/><path class="an" d="M1252 541c-6-1 0 2 0 2s-7 3 0 2a6 6 0 004-2 8 8 0 00-4-2z"/><path class="am" d="M1251 542l1 1-1 1a28 28 0 015-1l-5-1z"/><path class="al" d="M1238 552c2-3 1-10 1-10s-5 4-6 7v8s4-2 5-5z"/><path class="am" d="M1237 554c4-7-2-2-2-2s0-8-3-1a7 7 0 001 5 9 9 0 004-2z"/><path class="an" d="M1236 554c4-6-2-1-2-1s1-8-1-1a6 6 0 000 4 8 8 0 003-2z"/><path class="am" d="M1236 552h-1l-1-1a27 27 0 01-1 5l3-4z"/><path class="al" d="M1242 535l-2 9 6-8a12 12 0 000-7 13 13 0 00-4 6z"/><path class="am" d="M1243 533c-4 7 1 1 1 1s0 8 2 0a8 8 0 000-4 10 10 0 00-3 3z"/><path class="an" d="M1243 533c-3 6 2 0 2 0s-1 8 1 1a7 7 0 000-4 9 9 0 00-3 3z"/><path class="am" d="M1244 534l1 1a40 40 0 011-5 22 22 0 01-2 4z"/><path class="al" d="M1250 536c-5 2-11 8-11 8l13-5a23 23 0 007-6 23 23 0 00-9 3z"/><path class="am" d="M1252 535c-9 4 0 2 0 2s-8 6 2 1a14 14 0 004-5 18 18 0 00-6 2z"/><path class="an" d="M1252 535c-8 4 1 1 1 1s-7 6 1 1a12 12 0 004-3 15 15 0 00-6 1z"/><path class="am" d="M1251 536h2l-1 1 6-4a47 47 0 01-7 3z"/><path class="au" d="M1246 545h-1a5 5 0 003-2 5 5 0 00-3-1 9 9 0 001-1 12 12 0 003-3 11 11 0 00-4 1 22 22 0 00-3 3 11 11 0 001-2 7 7 0 000-4 6 6 0 00-2 3 15 15 0 00-1 4l-1-1v1a11 11 0 00-3 3 5 5 0 000 4 6 6 0 003-1l-1 2a17 17 0 001 5 17 17 0 001-5 35 35 0 000-4 19 19 0 002 3 11 11 0 004 4 12 12 0 00-2-6 15 15 0 00-1-2 15 15 0 002 2 11 11 0 005 1 12 12 0 00-4-4zm-6-1zm0-1z"/><path class="at" d="M1236 541l5 3c1 0 2-4 0-6s-3-3-5-2-1 3 0 5z"/><path class="at" d="M1237 541l4 3v-5l-4-3v5z"/><path class="at" d="M1236 539a2 2 0 101-3 2 2 0 00-1 3z"/><path class="at" d="M1237 538l-2-6 3 5-1 1zM1236 547c2 0 4 0 4-2s-1-2-3-3-4 1-4 2 1 3 3 3z"/><path class="at" d="M1236 547c2 0 4 0 4-2s-1-2-3-2l-4 1c0 1 1 3 3 3z"/><path class="at" d="M1234 546a2 2 0 001-3 2 2 0 00-2 1 2 2 0 001 2z"/><path class="at" d="M1234 545l-4-2 4 1v1z"/><path class="ac" d="M524 583c14-13 31-6 68 11s49 18 59 19 44 29 62 32 22 5 22 5l5 11s-5 12-47 14-62-4-92 15-58 19-95 12-52-9-60-12 15-14 51-11 46-3 41-7-14 2-39 0-64-17-64-17 74-59 89-72z"/><path d="M713 645c-18-3-51-31-62-32s-22-1-59-18l-20-9c1 0 34 18 43 25 9 8 11 17 28 22a43 43 0 0128 25c3 7-25 4-42 12s-33 23-49 30a108 108 0 0021-10c30-19 51-13 92-15s47-14 47-14l-5-11-22-5z" style="mix-blend-mode:multiply" fill="#7ebb15"/><path class="aw" d="M532 646c14-4-7-6-21-11s-17-11-1-11 16-6 11-10-9-14 4-15 10-11 10-16c-1-4 4-6 5-6a24 24 0 00-17 6c-14 13-88 72-88 72s19-8 34-9 48 4 63 0zM554 680c2-12-14-11-27-9 5-1 8-1 11 1 5 3-6 10-41 7-21-2-37 1-45 4a242 242 0 0149 3c28 5 52 6 53-6z"/><path class="ax" d="M221 392l50-4 30 12h12l79 30 57-11 22-13 16-8v-6l-42-33-49-19-39-18-22-3-34 17-34 24-33 10-13 15v7z"/><path class="ay" d="M221 386l50-4 30 12h12l79 30 57-11 22-13 16-8-2-8-40-31-49-19-39-18-22-3-34 17-34 24-33 10-13 15v7z"/><path class="ax" d="M267 354l12 11 31 3 40 13 23 11 40-2 28-17 22-6 1-14-10-8-63-21-27-11-31-4-36 14-16 14-14 6v11z"/><path class="ay" d="M267 348l12 11 31 3 40 12 23 12 40-3 28-16 22-6 1-8-10-15-63-20-27-12-31-3-36 14-16 13-14 7v11z"/><path class="az" d="M376 359l-21-7-14 4v3l12 5 19 3 7 5h7l9-3 1-5-12-3-8-2zM324 322l-14 3-6 4 2 5 8 1 3-4 7-2 3-4-3-3z"/><path class="ax" d="M336 335l3-19 13-13 2-8 30-3 33 4 28 1 6 7 2 6 7 38-7 3-13 2-28-4-34 4-22-10-17-3-3-5z"/><path class="ba" d="M354 295l1 9 31 15 29-10 8 4 11-4 4-3h4l9-2-6-7-28-1-33-4-30 3z"/><path fill="#898989" d="M415 309l-29 10 2 12-2 6v8l-4 6-4 2 34-4-2-18 2-6-3-3 3 1 3-9v-5z"/><path class="ba" d="M441 349l-2-4-10-4-4-6-2-7 7-8-9 8-1 14-8 7 28 4 13-2-12-2z"/><path class="bc" d="M356 343l4-10 1-7 2-4 2-4h1l1 8-1 7 2 4-2 4 1 7-11-5z"/><path class="ba" d="M348 312l2-3 5-5-1-9-2 8-13 13-3 19 4-17 8-6z"/><path class="bd" d="M371 305l14 7 11-2 8-1 1-3-8-6-9 2-6-4-9 3-2 4z"/><path class="az" d="M395 300l-7 2-6-4-9 3-2 4 2 1 2-3 7-2 5 2 8-3z"/><path class="ax" d="M369 359l-21-7-14 4v3l11 5 19 3 15 5 9-3 1-5v-1l-13-2-7-2z"/><path class="bd" d="M369 358l-21-8-14 4v3l11 6 19 2 15 5 9-3 1-4-13-4-7-1z"/><path class="ax" d="M324 323l-18 1-5 3v2l2 5 7 1 3-4 7-2 4-4v-2z"/><path class="bd" d="M321 320l-15 3-5 4 2 5 7 1 3-4 7-2 4-4-3-3z"/><path class="ax" d="M438 384l-20 11-9 3v4l10 4 22 2 12-10 9-3 3-10v-3l-11 1-8 5-7-2-1-2z"/><path class="bd" d="M437 382l-19 10-9 3v3l10 5 22 2 12-10 9-3 3-10-11-2-8 4-7-1-2-1z"/><path class="az" d="M310 362v6l29 9-29-7-31-5v-6zM373 386v6l34 1 11-1 11-6 10 2 7-4 8-4 9-8h6l-6-5 1-14-1 8-22 6-28 16-40 3zM475 384h-10v-2l-3 10-9 3-12 10v3l10-4 7-1 7-4 7-10 4-2-1-3zM378 353l29-2 18 2h15l-28-4-2-18 2-6-3-3 3 1 3-9v-5l-29 10 2 12-2 6v8l-4 6-4 2z"/><path style="mix-blend-mode:multiply" fill="#c6c6c6" d="M423 313l8 1-1 6-7 8 2 7 4 6 10 4 2 4 12 2h10l-3-3-7-38-2-6-9 2h-4l-4 3-11 4z"/><path class="az" d="M382 298l-5 4v4l5 4-11-5 2-4 9-3z"/><path class="bc" d="M348 312l1 9 2 6v15h2l1-12v-9l4-5 1-4 3-3h4l-11-5-5 5-2 3z"/><path class="az" d="M301 394v6l16 2 2-6-6-2h-12z"/><use class="c" transform="rotate(38 412 1861) scale(.09)" xlink:href="#c"/><path class="d" d="M1339 285l5-9 8-9 5-9a13 13 0 00-1-10c-3-7-11-10-17-14a76 76 0 01-8-7 33 33 0 00-4-4 40 40 0 00-6-3 22 22 0 01-4-3l-5-4-8-7a3 3 0 00-1-1l-19-15-9-7c-3-3-6-5-10-6a4 4 0 00-1-1 32 32 0 00-4-3 34 34 0 01-5-5 37 37 0 00-5-5l-6-4-6-5a12 12 0 00-5-2 7 7 0 01-1 1l-6 5c-2 1-6 2-7-1l-1 1a8 8 0 01-1 2 22 22 0 01-2 3c-3 3-3 7-5 10a2 2 0 01-2 1v1a2 2 0 01-1 2 10 10 0 01-4 2 29 29 0 00-3 2 12 12 0 00-2 3 18 18 0 00-2 5 5 5 0 003 3 22 22 0 019 5l8 8 19 16 20 15 39 31 20 15 10 7a8 8 0 006 2 8 8 0 004-3 34 34 0 002-1 3 3 0 003-2z"/><path class="e" d="M1261 171c-4-3-6-6-9-2l-5 4c-1 2 5 7 7 8 1 1 9 8 10 6 1-1 6-6 5-8-1-3-4-4-6-5zm0 0l2 2c2 2 5 3 6 6 1 2-4 7-5 8-1 2-9-5-10-6-2-1-9-5-7-8l4-4c4-4 6-1 10 2z"/><path class="f" d="M1261 171c-4-2-7-7-10-2s-9 3 2 11c2 2 10 9 11 7l4-5c2-2 2-3 0-5a9 9 0 00-3-2 43 43 0 01-4-4z"/><path class="g" d="M1261 171l-7-4a3 3 0 00-2 2l-2 4c1 2-1 2 3 5 1 1 5 6 7 5 2 0 0 6 5 2l4-7-1-1a9 9 0 00-3-2 43 43 0 01-4-4zm5 7h-1l-2-1 3 1zm-2 5h-1c0-2 1 0 1 0zm-14-10v4c0 1-3-2-2-3l2-1z"/><path class="h" d="M1295 203l-5 7c0 1 2 6 4 4s7-8 7-10c0-1-3-7-6-1zm0 0c2-6 6-2 6 1 1 2-5 8-7 10s-3-2-4-3c-1-2 4-7 5-8z"/><path class="i" d="M1295 203l-4 5-1 3c1 1 1 3 3 3 1 1 4-4 5-5s4-4 3-5c-2-5-4-5-6-1z"/><path class="j" d="M1300 207l1-3c-1-4-3-5-4-4a17 17 0 01-1 2l-4 6c-2 2 0 2 0 3a2 2 0 003 1l3-2a20 20 0 002-3z"/><path class="h" d="M1209 171l-7 7s1 5 4 4l9-8s-1-7-6-3zm0 0c3-4 6 1 6 3s-7 7-9 8c-3 2-3-2-4-4l7-7z"/><path class="i" d="M1209 171l-5 5-2 2 3 4 6-3 4-5c-1-5-3-6-6-3z"/><path class="j" d="M1213 177l2-3c-1-4-2-5-4-4a17 17 0 01-1 1l-5 5c-2 2 0 2-1 3a2 2 0 003 2l3-2a20 20 0 003-2z"/><path class="e" d="M1275 236c-7-4-6-6-11-10-3-3 9-12 12-6l2 2 6 6-6 5-3 3zm0 0l3-3 5-5-2-3c-2-2-5-3-5-5-3-6-14 4-12 5 5 5 5 7 11 11z"/><path class="k" d="M1275 236c-7-4-7-7-11-10-3-2 10-13 12-6l5 5c3 3 4 2-2 7l-4 4z"/><path class="g" d="M1264 223c3-3 10-8 12-3l5 5c2 2 3 2 2 4a1 1 0 010-1c-3-2-4 1-3 1a3 3 0 001 2l-2 1a30 30 0 01-3 3 5 5 0 01-1-2c0-2 3-7-1-1-4-1 0-5 0-5 5-6 1-3-2-2-7 2 3-3 3-3 0-2-4 1-5 1-4 2-5 1-6 0z"/><path class="h" d="M1299 255c-3-1-9-4-5-8l3-4c2-3 4 0 7 1 2 1 11 5 10 8-1 1-5 7-7 7a32 32 0 01-4-2c-3-1-3 0-4-2zm0 0l4 2 4 2c2 0 6-7 7-8 1-2-9-6-11-7-7-4-3 0-8 3-5 4 0 6 4 8z"/><path class="i" d="M1299 255c-2-1-11-4-4-8 4-3 2-8 8-3 2 2 12 5 11 7-8 11-6 7-14 5a4 4 0 01-1-1z"/><path class="j" d="M1305 245l3 2a6 6 0 01-2 1c-1 1 1 5 6 1l2 2-2 2a19 19 0 00-3 3c-2 2-6 1-8-2 0-1-10-3-4-5 0-3 0-4 4-4 1-2 0 1 4 0z"/><path class="h" d="M1342 269c-2-1-9-4-5-8l4-4c2-3 3 0 6 1 2 1 12 5 10 7-1 2-4 8-7 8a30 30 0 01-4-2l-4-2zm0 0l4 2 4 2 7-8c1-2-9-6-11-7-6-4-3 0-7 3-6 3-1 6 3 8z"/><path class="i" d="M1342 269c-1-1-10-4-4-9 4-2 2-7 8-2 3 2 12 5 11 7-7 11-6 7-14 5a4 4 0 01-1-1z"/><path class="j" d="M1348 259l4 2a6 6 0 01-3 1c0 1 1 5 6 1l2 2-1 2a19 19 0 00-4 3c-2 2-6 1-8-2 0-1-9-3-4-5 0-3 1-4 5-4 1-2 0 1 3 0z"/><path class="e" d="M1237 201c7-4 8-5 0-11-5-5-5-3-9 0l-1 4c1 3 7 7 10 7zm0 0c-3 0-10-5-10-7-1-2 0-3 1-4 4-3 4-6 9-1 8 7 7 8 0 12z"/><path class="l" d="M1237 201c3-2 9-4 3-9-9-8-7-5-13-1v3c0 1 8 7 10 7z"/><path class="m" d="M1241 198c2-1 2-3-1-6-8-7-8-6-11-3a1 1 0 000 1c5 5 1 4 6 7h3c0 2 2 2 3 1zm-2-5c1 1 1 2-1 1-5-5-3-5 1-1z"/><path class="e" d="M1340 282c6-3 8-4 0-11-5-4-5-2-9 1l-1 4c1 2 7 6 10 6zm0 0c-3 1-10-5-10-6-1-3-1-3 1-4 3-4 4-6 9-1 8 7 7 8 0 11z"/><path class="l" d="M1340 282c3-1 9-3 3-8-9-9-8-6-13-1v3c0 1 7 7 10 6z"/><path class="m" d="M1344 280c2-1 2-3-1-6-8-7-8-6-11-3a1 1 0 000 1c5 4 0 4 6 6l2 1c0 1 2 2 4 1zm-2-5s0 2-1 1c-6-5-3-5 1-1z"/><path class="e" d="M1283 232l12 9c2 0 1-5-1-7l-3-2c-6-4-4-2-7-2l-1 2zm0 0l1-2c3 0 1-2 7 2l3 2c3 2 4 8 0 7s-8-6-11-9z"/><path class="k" d="M1283 232c5 5 14 12 13 7s-2-5-5-7c-6-5-4-2-7-2l-1 2z"/><path class="g" d="M1296 241v-2c-1-5-2-5-5-7-6-4-4-2-7-2l6 5c3 8 3-1 5 4a4 4 0 001 2z"/><path class="h" d="M1248 183c-3-1-3-5-6-2-2 3-2 2-4 3-1 2 3 5 4 6 3 3 4 5 8 2 0-1 5-6 4-7l-6-2zm0 0c2 0 7 1 7 3l-5 6c-4 4-5 2-8-1-1-2-6-5-4-7l4-3c3-3 3 0 6 2z"/><path class="j" d="M1248 183c-3-1-3-6-7-1-1 1-7 2 1 8 1 1 4 8 10-1 2-3 5-4-2-6h-2z"/><path class="i" d="M1248 183c-2-1-3-5-5-3a6 6 0 01-1 1l-1 1-2 2c0 2 7 6 7 8s2 1 4 0a20 20 0 002-3 3 3 0 00-2-2c-2-1-1-3-1-4z"/><path class="e" d="M1222 195c-7-4-6-6-11-10-2-2 10-12 12-6l3 2c0 1 5 4 5 6l-6 5-3 3zm0 0l3-3 5-5-2-3-5-5c-3-5-14 4-12 6 5 4 5 6 11 10z"/><path class="l" d="M1222 195c-6-4-6-7-11-10-2-2 10-12 12-5l5 4c3 3 4 2-2 7l-4 4z"/><path class="m" d="M1217 178c3-1 5-1 6 2l5 4c2 2 4 2 0 5a7 7 0 01-1-1c-1-2-4-3-5-2-4 2-2-1-4 1-1 0-4-4-2-5l1-4zm9 13a15 15 0 00-2-3c-2-1-1 1-4 2 0 0-1 2 2 3a12 12 0 002 0l2-2z"/><path class="n" d="M1326 257c-2-1-10-7-10-9s1-6 3-7c4-4 11 2 14 5 2 2 9 7 7 10l-3 5-7-3-4-1zm0 0l4 1 7 3a57 57 0 003-5c4-3-10-14-13-15-7-4-11-1-11 7-1 1 8 8 10 9z"/><path class="l" d="M1326 257c-1-1-11-8-10-9 0 0 1-15 13-5 3 1 14 10 11 13-5 6-2 6-9 3l-5-2z"/><path class="m" d="M1316 245c1-3 4-9 11-4l1 1a3 3 0 003 2c4 3 10 8 10 11-2 0-1 7-11 1-4-2-1-3 0-3 4-3-3 0-4 0-6-1-1-7-6-6l-4-2z"/><path class="e" d="M1278 237c3 4 8 12 12 12 3 1 3-6 1-8l-4-4c-5-5-3-3-8-2l-1 2zm0 0l1-2c5-1 3-4 8 2l4 3c2 3 2 11-2 9s-8-8-11-12z"/><path class="k" d="M1278 237c4 7 14 17 14 10s-1-6-5-10c-5-6-3-2-8-2l-1 2z"/><path class="g" d="M1292 246c0-6-2-5-5-9l-1-1a2 2 0 01-2-1 2 2 0 00-3 1c-1 4 7 2 8 7-2 3-4-2-5-2-2 1 6 7 6 7 1 1 2 0 2-2z"/><path class="e" d="M1347 252c2 4 8 10 11 7 2-2 1-12-1-13l-3-2c-5-3-3-1-7 4v4zm0 0v-4c4-5 2-8 7-4l3 1c3 2 4 14 0 15s-8-4-10-8z"/><path class="k" d="M1347 252c4 7 13 13 12 1 0-9-2-7-5-9-5-4-3 0-7 4v4z"/><path class="g" d="M1359 252c-1-8-2-6-5-8a12 12 0 00-1-1l-1 1c-2-1-3 4-3 4 0 7 6-3 8 3-2 6-4 2-5 1-1 4 6 5 6 5l1-5z"/><path class="h" d="M1299 218l-2-4c-1-2-1 1-2 1l-2 1 3 1 2 1a3 3 0 002 1l-1-1zm0 0h-2l-3-1c-2-1 0-2 1-2 0-1 1-4 2-1l2 4z"/><path class="i" d="M1299 218l-2-4c-1-3-2 1-2 1 0 1-3 1-1 2l3 1h2z"/><path class="h" d="M1297 219h-1c-3 1-5 4-5 0 0-2-1-4 1-3s-1 1 3 2l2 1s0-1 0 0zm0 0a3 3 0 00-1-1c-1 0-4 0-3-2-1 0-3-1-2 1s-1 5 2 3l4-1zm0 0z"/><path class="i" d="M1297 219l-1-1c-1 0-4 0-3-2 0 0-3-1-2 1 0 1-1 6 2 3a21 21 0 014-1v-1z"/><path class="h" d="M1275 199c1-1 5 3 6 4 3 2-2 2-4 0l-3-4h1zm0 0s-1 0 0 0c2 4 2 5 6 5a4 4 0 00-1-1l-5-4z"/><path class="k" d="M1275 199c1-1 4 3 5 4l1 1c-4 0-4-2-7-5h1z"/><path class="h" d="M1213 179l-5 5c-3 3-2-2 0-3l5-2zm0 0h-1c-4 2-5 2-6 6a4 4 0 001-1c2-1 6-3 6-5z"/><path class="k" d="M1213 179l-5 5-2 1c1-4 3-4 6-6h1z"/><path class="h" d="M1303 240c1 1 1 2-1 2s-3-3-5-5c-1-2-3-4 1-1l5 4zm0 0a21 21 0 01-5-4c-4-4-3-1-1 1l3 4c2 3 6 0 3-1z"/><path class="k" d="M1303 240s2 1 0 2c-3 2-3-3-6-5-2-2-3-5 1-1a18 18 0 005 4z"/><path class="h" d="M1295 242a21 21 0 00-3-1l1 5 2-4zm0 0c1 0-2 8-2 3 0-2-3-7 2-3z"/><path class="k" d="M1295 242l-3-1 1 2c1 2-1 5 1 3l1-4z"/><path class="h" d="M1338 283a21 21 0 00-3-1c1 2 2 2 2 6 1 0 2-4 1-5zm0 0c2 1-2 9-2 4 0-3-3-7 2-4z"/><path class="k" d="M1338 283l-3-1 1 3c1 2 0 5 1 3 1 0 2-4 1-5z"/><path class="h" d="M1284 248l-1 3 2 1c1 0 7 3 6 0l-5-4a6 6 0 00-2 0zm0 0c3-1 4 2 6 4s-2 0-4 0l-3-1 1-3z"/><path class="i" d="M1284 248l-1 3c2 2 2 1 5 2 0 0 5 1 2-2-2-1-4-4-6-3z"/><path class="e" d="M1225 178l7 5c1 1 6 4 5 5l-13-9c-1-2-1-2 1-1zm0 0h-1c1 3 12 10 13 9l-4-3-2-2-6-4z"/><path class="l" d="M1225 178l7 5a18 18 0 003 3c2 2 3 3-2 0l-9-7s-2-2 0-1h1z"/><path class="h" d="M1246 197a21 21 0 00-2-3l-2 5 4-2zm0 0c1 1-7 5-4 1 2-2 2-7 4-1z"/><path class="k" d="M1246 197l-2-3-1 2c0 3-3 4-1 4l4-3z"/><path class="h" d="M1235 205a22 22 0 002 2c1-2 0-2 3-5a5 5 0 000-1l-5 4zm0 0c-1-2 8-8 5-2-2 2-3 9-5 2z"/><path class="k" d="M1235 205l2 3 1-3c1-3 4-5 1-4l-4 4z"/><path class="n" d="M1246 179h4l4 3c1 1 2 2 0 1a49 49 0 01-6-1l-2-2a1 1 0 010-1zm0 0c0 2 2 2 2 3l7 1a6 6 0 00-1-1c-1-1-3-3-4-2l-4-1z"/><path class="l" d="M1246 179l4 1c1-1 3 2 4 2 0 0 3 2-1 1a13 13 0 01-2-1h-3a3 3 0 01-1-1c-1 0-2-1-1-2z"/><path class="e" d="M1239 189l4 3c2 1 0 3-2 1l-1-2s-4-3-2-3l1 1zm0 0l-1-1c-2 0 3 4 3 4 1 1 1 2 2 1h-1l-3-4z"/><path class="k" d="M1239 189l3 3c1 1 1 3-1 1 0-1 1-1-1-2a23 23 0 00-2-2h1z"/><path class="e" d="M1211 186l3 3c1 1 0 3-1 1l-1-2s-4-3-2-3l1 1zm0 0l-1-1c-2 0 3 4 3 4l1 2v-1l-3-4z"/><path class="k" d="M1211 186l3 3c1 1 1 3-1 1l-1-2-2-2h1z"/><path class="h" d="M1219 173a42 42 0 00-3 5c1 0 2-2 5-2l-1-2-1-1zm2 3zm-2-3l2 2v1c-3 0-3 1-5 2-2 0 3-5 3-5z"/><path class="i" d="M1219 173l-2 3c-1 0-3 2-1 2l5-2v-1l-2-2z"/><path class="h" d="M1266 211l2 1 1 2a9 9 0 001 2c2 1-2 3-2 3-1-1 1-3-1-6l-1-2zm0 0c-1 1 1 2 2 4v3s3-1 2-2a8 8 0 01-1-2l-1-1-2-2zm2 7"/><path class="i" d="M1266 211l2 1 1 2 1 2c1 1-1 2-2 2v-3a10 10 0 00-2-3v-1z"/><path class="h" d="M1268 211l3 4v-1c0-3 1-3-2-3zm0 0a3 3 0 011 0c2 0 3 0 2 2l1 3c-1 1-1-1-1-1-2 0-2-3-3-4z"/><path class="i" d="M1268 211l2 3 1 2v-1c-1-1 1-4-1-4h-2z"/><path class="e" d="M1257 185l-2 3 3-1a2 2 0 001 0l-2-2zm-2 3l2-3 1 1c2 1-1 1-1 1s-2 2-3 1c0 0 2-4 3-3z"/><path class="k" d="M1257 185c-1-1-2 1-2 2-2 2 2 0 2 0 1 0 3 0 1-1l-1-1z"/><path class="e" d="M1245 176c-1-1-1 1-2 2l3-1a2 2 0 001 0l-2-1zm-2 2l2-2h1c3 1 0 1 0 1l-3 1s2-4 2-2z"/><path class="k" d="M1245 176l-2 2 3-1c1 0 2 0 0-1h-1z"/><path class="h" d="M1249 194c0 1-3 0-1 3 1 2 1-3 1-3zm0 0h-1a1 1 0 011 0v3h-2c-2-3 1-2 2-3z"/><path class="i" d="M1249 194c-1 1-3 0-2 3h2v-3z"/><path class="e" d="M1283 226l5-1c2-1 2 0 2 2v2h-4l-2-2-1-1zm0 0l1 1 2 2 3-1v-1c0-2 1-3-1-2l-5 1z"/><path class="k" d="M1283 226l5-1c2-1 1 0 1 2v1l-3 1c-1 1-2-2-2-2l-1-1z"/><path class="e" d="M1261 225c1 3-2 5 1 3 1 0 3 2 3 0l-2-2c-1-2-2-1-2-1zm0 0c-1 0 1-1 2 1l2 2c1 3-2 0-3 1-3 1 0-1-1-4z"/><path class="k" d="M1261 225c1 2-2 5 1 4 1-1 3 2 3-1l-2-2c-1-2-2-1-2-1z"/><path class="e" d="M1276 236l2 3c4 3 3 5 1 3l-2-3c-2-1-3-1-1-3zm0 0l-1 1 4 3 1 2a18 18 0 00-2-3l-2-3z"/><path class="k" d="M1276 236l2 3s4 4 2 3a8 8 0 00-2-1l-3-3 1-2z"/><path class="h" d="M1307 260l2 2 1 2a10 10 0 001 1c2 1-2 4-2 3-1-1 1-2-1-5l-1-3zm0 0c-1 1 1 3 2 5v3l2-2a9 9 0 01-1-2l-1-2-2-2zm2 8"/><path class="i" d="M1307 260l2 2 1 2 1 1-2 3v-3a10 10 0 00-2-4v-1z"/><path class="h" d="M1336 263c-1 1-1-1-2 1l-3-1s-6-5-4-5l7 3a7 7 0 012 2zm0 0l-1-1c-1-2-4-2-6-3-4-1 0 2 2 3l3 2 2-1z"/><path class="i" d="M1336 263l-2 1c-3 0-2-1-5-3 0 0-4-3 0-2 1 1 6 1 6 3l1 1z"/><path class="h" d="M1318 271c1-1 5 3 6 3 4 2-1 2-3 0l-3-3zm0 0c3 3 3 4 7 4a5 5 0 00-1-1l-6-3z"/><path class="k" d="M1318 271c1-1 5 2 6 3l1 1c-4 0-4-1-7-4z"/><path class="h" d="M1339 249l6 4c3 3-2 2-4 0 0 0-3-3-2-4zm0 0v1c3 3 2 4 6 4l-6-5z"/><path class="k" d="M1339 249l6 4 1 2c-5-1-4-2-7-5v-1z"/><path class="h" d="M1348 277l-6-5c-3-2 2-1 4 0l3 4a1 1 0 01-1 1zm0 0l1-1c-3-3-3-4-7-5a4 4 0 001 1l5 5z"/><path class="k" d="M1348 277l-5-5-1-1c4 0 4 2 7 5l-1 1z"/><path class="e" d="M1222 196l12 9c2 0 0-4-2-6l-3-2c-5-4-3-2-6-2l-1 1zm0 0v-1c4 0 2-2 7 2l3 2c3 2 4 7 1 6s-8-6-11-9z"/><path class="l" d="M1222 196c5 5 14 12 13 7-2-4-3-4-6-6-5-4-3-2-6-2l-1 1z"/><path class="m" d="M1235 205v-2c-2-4-3-4-6-6-5-4-3-2-6-2 1 2 6 4 6 4 3 7 2 0 4 4a4 4 0 002 2z"/><path class="n" d="M1311 245l3 1 2 4v1a37 37 0 01-4-3s-2-2-1-3zm0 0c-1 1 1 2 1 3l4 3a6 6 0 000-1l-2-3-3-2z"/><path class="l" d="M1311 245l3 2c1-1 1 2 2 3 0 0 1 2-1 0a11 11 0 01-1-1l-2-1-1-1v-2z"/><path class="n" d="M1316 243l-3 2h1l1 2v-2l1-1a2 2 0 000-2v1zm0 0v1l-1 2c0 2-1 0-1 0s-2-1-1-2l3-1z"/><path class="l" d="M1316 243l-3 2 1 1 1 1 1-2v-1-1z"/><path class="n" d="M1319 235l2 3 4 2c1 1 3 0 1-1a40 40 0 00-4-3s-2-2-3-1zm0 0c1-1 3 1 3 1l4 3a5 5 0 01-1 0l-3-1-3-3z"/><path class="l" d="M1319 235l2 3 4 1s3 1 0-1a12 12 0 00-1-1l-2-1a3 3 0 00-1-1h-2z"/><path class="h" d="M1310 246a22 22 0 00-2-2l-4-2a6 6 0 002 3c1 0 5 3 4 1zm0 0c1 2-2 0-4-1a6 6 0 01-2-3l3 1 3 3z"/><path class="i" d="M1310 246l-2-2h-1a15 15 0 00-3-2l1 2a4 4 0 001 1c3 2 4 2 4 1z"/><path class="h" d="M1311 259a23 23 0 00-3 0c1 2 2 1 3 5v-5zm0 0c2 0 1 9-1 4-1-2-5-5 1-4z"/><path class="k" d="M1311 259h-3l1 2c2 2 2 5 3 3l-1-5z"/><path class="n" d="M1265 192c-5-3-7-6-12-1-2 2-6 6-1 8l7 5 3 3c5 4 9 4 13-2 2-3-1-5-4-7a31 31 0 00-6-6zm0 0l7 6c2 2 5 4 3 7-4 6-8 7-13 2l-3-2-7-6c-5-1-1-6 1-8 5-5 7-3 12 1z"/><path class="l" d="M1265 192l-6-4c-4-1-13 9-7 11 3 1 4 5 8 6 2 1 8 10 14 1 2-2 3-4 0-6l-9-8z"/><path class="m" d="M1265 192a11 11 0 01-1 0c-5 2-3-1-2-2a13 13 0 00-3-2 3 3 0 00-2 0c-3 4-7 10-4 10 3-1 6 6 8 4 3-6 6-7 8-7a18 18 0 00-4-3zm7 16c-1 0-1-2-5 0-4 1-5-3-3-3 1-1 8-4 2-2s-4-2-2-3c0 0 1-3 5-5l5 5c3 3 2 4 1 6a14 14 0 01-3 2z"/><path class="o" d="M1259 189l3 1-1 1c-1 2-1 2 1 2a4 4 0 002 1h-4c-1-2 0-3 1-4a6 6 0 01-2-1zm2 1z"/><path class="n" d="M1241 154c-5-4-7-7-12-2-2 2-5 7-1 9l7 5 3 2c6 5 9 4 13-2 2-3-1-4-3-7a30 30 0 00-7-5zm0 0l7 5c2 3 5 4 3 8-4 6-7 6-13 2l-3-3-7-5c-5-2-1-7 1-9 5-5 7-2 12 2z"/><path class="l" d="M1241 154s-4-4-6-4c-4-2-13 9-7 11 3 1 4 5 8 6 2 0 8 10 15 0 1-2 2-3-1-6l-9-7z"/><path class="m" d="M1241 154l-1-1c-5 3-3 0-2-2a12 12 0 00-3-1 3 3 0 00-2 0c-3 3-7 9-3 9 3 0 5 6 7 4 4-5 7-6 8-6a18 18 0 00-4-3zm7 16c-1 0-1-2-5-1-4 2-5-2-3-3l2-1c-6 2-4-3-2-3 0 0 2-3 6-5l4 4c3 3 2 4 1 6a14 14 0 01-3 3z"/><path class="o" d="M1235 150l3 2-1 1c-1 1-1 1 1 2a4 4 0 002 0h-4c-1-1 0-3 1-3a6 6 0 01-2-2zm2 2h1z"/><path class="n" d="M1277 219c-6-4-7-5-3-11 2-3 3-3 7-2 2 0 7 4 8 5l1 10c0 2-3 4-6 3l-7-5zm0 0a41 41 0 005 4c4 3 8 0 8-2l-1-10-8-6c-4-1-5 0-7 3-4 6-3 7 3 11z"/><path class="l" d="M1277 219c-3-2-5-3-5-6 0-1 3-8 6-8 6 1 4 1 10 5 3 2 1 8 2 11l-2 3c-4 2-7-2-11-5z"/><path class="m" d="M1272 211c1-3 4-6 6-6 6 1 4 1 10 5a3 3 0 011 2c0 1-2 3 0 4a17 17 0 001 5c-7 3-6-2-9-3-4-1-3-4-6-4l-3-3zm9-3c-3-3-5 2-2 1l2 1v-2z"/><path class="o" d="M1283 208c1 0 4 1 5 3s-1 2-1 3l1 2c-1-1-3-2-1-4 1-2-3-4-4-4z"/><path class="n" d="M1322 291c-6-5-7-6-3-11 2-3 3-4 7-3l8 6 1 10c0 1-3 3-6 2l-7-4zm0 0a41 41 0 005 4c4 2 8 0 8-2l-1-11c-1-1-6-5-8-5-4-1-5-1-7 3-4 5-3 7 3 11z"/><path class="l" d="M1322 291c-3-3-5-3-5-7-1-1 3-8 6-8 6 1 4 2 10 6 3 2 1 7 2 11l-2 2c-4 2-7-2-11-4z"/><path class="m" d="M1317 282c1-2 4-6 6-6 6 1 4 2 10 6a3 3 0 011 1c-1 2-2 3 0 4v1a17 17 0 001 5c-7 3-6-3-9-4-4-1-3-3-6-4-2-1-3-1-3-3zm9-3c-4-2-5 3-2 1l2 1v-2z"/><path class="o" d="M1328 279c1 0 4 1 5 3s-2 2-1 3l1 2c-1-1-3-2-1-4 1-1-3-3-4-4z"/><path class="n" d="M1309 227c-5-3-10-11-16-5-3 3-4 6 0 8 4 3 15 14 18 14 2 1 13-6 6-11l-8-6zm0 0a80 80 0 018 6c6 5-3 11-5 12-4 0-15-12-20-14-5-4 0-10 4-11 5-1 10 4 13 7z"/><path class="l" d="M1309 227s-7-7-10-7c-7-1-12 8-7 10 4 2 17 16 20 14 4-1 11-7 5-11l-8-6z"/><path class="m" d="M1297 224c5 2 9 7 3 2 0 0-6-2-4-3l1 1zm12 3s-7-7-10-7a8 8 0 00-7 3 3 3 0 001 4l5 3c4 4 7 4 12 5 3 0 7 6 5 4-4-3-8-6-11-2 0 1 6 6 9 7 4-2 9-7 4-11l-8-6z"/><path class="o" d="M1300 231l7 2c3 0 7 1 8 4a5 5 0 000 1l-1-1c-1-2-4-3-5-3-5 0-5 0-9-3z"/><path class="e" d="M1305 207l9 5c2 2 13 8 12 11l-4 6c-2 4-4 1-7-1l-11-7c-4-3-9-6-4-11 2-3 2-4 5-3zm0 0c-4-1-3 0-6 4-3 5 2 7 5 10l11 7c3 2 5 4 7 1l4-6c0-3-9-8-10-9l-11-7z"/><path class="k" d="M1305 207l8 5c2 1 13 8 13 10l-4 7c-1 2-2 2-4 1l-14-9c-2-2-9-5-5-10l2-2c1-2 1-3 4-2z"/><path class="g" d="M1305 207l8 5c2 1 13 8 13 10l-4 7a2 2 0 01-1 2 39 39 0 01-6-3l-1-2-1-1c-1-1-1-3 1-3h2c1 0 0 0 0 0l3 2 2 1h1l-1-1a7 7 0 01-3-2l-4-2-3-1c-2 0-6-2-7-4s-4-3-5-5l2-1c1-2 1-3 4-2z"/><path class="p" d="M1302 208c2-1 4 1 7 2l8 4a17 17 0 015 6v1l-1-2c-3-4-7-6-11-7-4-2-5-4-8-4z"/><path class="e" d="M1246 219c-1 1-4 8-7 6-5-2-22-15-18-20 0-1 2-5 4-4 3 0 19 13 21 16a8 8 0 010 2zm0 0a5 5 0 000-2c-2-3-18-16-21-17-2 0-4 4-5 5-4 5 14 18 19 20 3 3 6-4 7-6z"/><path class="l" d="M1246 219c-1 2-4 8-7 6-4-2-23-15-19-20 5-6 4-7 15 2l11 10a6 6 0 010 2z"/><path class="m" d="M1246 219l-1 2a1 1 0 01-1-1c-2-3-3 4-5-3-6-2-5-3-8-8-1-2-7 2-1 3 3 1 1 1 3 3 2 1-2 1-5-1-1 0-2 1-1 2-5-4-9-9-7-11 4-5 4-6 9-3 0 1-1 2 2 2l4 3 11 10a7 7 0 010 1zm-3 4c1-1 0-3-2-2-3 0-3-3-4-2-2 5-1 4-4 2l6 4c2 1 3 0 5-2z"/><path class="o" d="M1224 202c6-1 3 1 5 2 1 1 2 0 3 2a57 57 0 018 7l-9-7-3-1c-2-2 1-2-4-3z"/><path class="h" d="M1253 236c3-2 8-7 6-11-1-2-3-1-5-4s-2-3-5-1c-7 4-6 12 1 15zm0 0l-3-1c-7-3-9-11-1-15 3-2 3-1 6 1s5 2 5 5-4 8-7 10z"/><path class="i" d="M1253 236c3-1 11-11 3-13-3-1-3-8-9-2s-1 14 6 15z"/><path class="j" d="M1259 230c1-3 1-6-3-7-3-1-3-7-8-3 2 1 4 0 0 6-2 2-2-2-3-3a7 7 0 00-1 5 4 4 0 005 1c3-2 6 3 10 1z"/><path class="q" d="M1248 228a10 10 0 016 1h4l-1 1c-2 1-3 0-5-1l-4-1z"/><path class="h" d="M1277 254c2-1 9-6 5-9l-10-9-6-4c-3-2-3-3-7 1-1 1-4 4-3 5l5 4c3 3 5 5 9 6l7 6zm0 0c-1 1-6-5-7-6-4-1-6-3-9-6l-5-4 4-7c3-3 4-1 6 0 4 2 3 2 6 5l10 9c4 3-3 8-5 9z"/><path class="i" d="M1277 254c2-2 9-6 5-9l-10-9c-3-2-2-3-6-5-2-1-3-3-7 2-3 4-5 4 0 8 2 1 7 7 11 7l7 6z"/><path class="j" d="M1281 251c2-2 3-4 1-6-3-2-6-7-10-9-3-2-2-3-6-5-2 0-3-3-7 2l-2 2 2 2c4 0 9 8 11 8 2-1 2 0 2-3-2-4-2-2-2-5 1-4 4 9 6 9 4 0 4 4 5 5z"/><path class="q" d="M1274 241l1 4c1 0 6 2 5 3l-1 1c0-3-3-2-4-3l-1-5z"/><path class="h" d="M1309 269l-3 7c0 1 6 8 8 6 1-1 6-5 6-8-1-1-8-10-11-5zm0 0c1-5 9 2 11 5 1 3-4 8-6 9s-6-4-8-6c-1-2 3-6 3-8z"/><path class="i" d="M1309 269l-2 5c0 1-2 2-1 3 2 2 3 4 7 6 1 1 4-3 5-4s3-4 1-5c-4-7-8-8-10-5z"/><path class="j" d="M1315 281l2-2c1-1 3-4 2-5-4-6-8-7-9-6l-2 5c-2 2 3 6 5 6 0-1 2-1 0 1l2 1z"/><path class="q" d="M1313 270l3 2a8 8 0 012 4l-2-2-3-4z"/><path class="e" d="M1334 266c-1 2-5 9-8 7-2-1-3 0-6-3l-6-4c-2-2-2-3-2-6-1-8 4-9 9-4 4 4 4 5 10 8a12 12 0 003 2zm0 0a14 14 0 01-3-2c-5-3-6-4-9-8-6-5-12-4-11 4 1 3 1 5 3 6l6 4c3 3 4 2 6 3 3 2 7-5 8-7z"/><path class="k" d="M1334 266c-1 2-5 9-8 7-2-1-3 0-8-4s-5-2-6-9c-1-5 2-9 7-6 4 2 5 6 11 10l4 2z"/><path class="g" d="M1334 266l-5 7-1-2-5-3c-3-1-4-5-8-4-6 1-1-10 1-10 5 0 4 2 6 3l8 7 4 2z"/><path class="p" d="M1316 255c5-1 2 1 4 2l3 1a48 48 0 017 7l-9-7-2-1c-1-1 1-1-3-2z"/><path class="h" d="M1284 189l-5-3c-2-2-5-5-7-5l-3 2-4 7c3 4 6 5 10 8a69 69 0 019 7c1 1 5 4 6 3l6-9c0-2-4-4-5-5a53 53 0 00-7-5zm0 0a41 41 0 017 4c2 2 6 4 5 6l-6 9c-1 2-6-2-7-3a75 75 0 00-8-7c-4-3-8-3-10-8-1-2 2-7 4-7l3-2c2-1 5 3 7 5l5 3z"/><path class="i" d="M1284 189l-4-2-3-3c-2-2-4-4-7-2l-4 4v5c2 4 6 4 9 7l8 7a22 22 0 005 3c3 1 3-2 4-3l2-2c3-4 3-5-1-8-1-1-7-6-9-6z"/><path class="j" d="M1279 186a14 14 0 00-2-2c-2-2-4-4-7-2a1 1 0 010 1v5c3 2 4 5 7 5h4c1 1 4 1 4 3 2 3 7 3 10 5 2-2 1-3-2-6l-5-4c-4 0-5 0-9-5zm8 21a6 6 0 01-1-1c-3-7-7-7-13-10-1-1-6-7-4-8 3 2 1 4 7 7 4 2 2-3 10 4 1 1 6 2 7 4l-1 2c-1 1-2 4-4 3z"/><path class="q" d="M1294 200c1-2 1-2-1-4l-7-3a17 17 0 01-4-4l4 3 6 3c2 1 6 3 2 5z"/><path class="h" d="M1224 175l5 3c2 2 5 6 7 5 1-1 1-2 3-2s4-5 3-6c-2-5-5-6-9-8a68 68 0 01-9-7c-1-1-5-5-6-4l-6 9c-1 2 4 4 5 6a54 54 0 007 4zm0 0a41 41 0 01-7-4c-2-1-6-4-5-6l6-9c1-2 6 2 7 3a75 75 0 008 7c4 3 8 3 10 9 1 1-2 6-4 6-1 1-1 2-3 2-2 1-5-3-7-4-3-3-2-3-5-4z"/><path class="i" d="M1224 175l4 2 2 3c3 2 5 5 8 2l3-4c2-3 2-2 1-5-3-4-6-4-9-7l-8-6a23 23 0 00-5-4c-3-1-3 2-4 3l-2 2c-3 4-3 5 1 8 1 1 7 6 9 6z"/><path class="j" d="M1229 179a15 15 0 001 1c3 2 5 5 8 2v-5c-3-3-4-5-7-6h-4c-2 0-4-1-5-3-1-3-6-3-9-5-2 3-2 3 2 6l5 4c4 0 5 0 9 5v1zm-8-22a6 6 0 011 2c3 6 7 6 12 10 2 0 7 6 5 7-3-1-2-3-7-6-4-3-2 2-10-4l-8-5 2-2c1-1 1-4 4-3l1 1z"/><path class="q" d="M1214 164c-1 2-1 3 1 4 3 1 4 1 7 4a17 17 0 014 3l-4-3-6-3c-2-2-6-3-2-5z"/><path class="e" d="M1259 206l-8-6c-3-3-6-2-9 2-3 2-5 5-2 8 2 1 1-1 3 2 3 3 3 5 8 5 4 1 9 7 10 6 11-7 3-11-1-17a2 2 0 00-1 0zm0 0a1 1 0 011 0c5 6 12 11 2 17-2 1-7-5-11-5-5-1-5-2-9-6l-2-2c-3-2-1-6 1-8 4-4 6-5 10-2l8 6z"/><path class="k" d="M1259 206c-8-3-9-10-15-7-3 3-9 8-3 11 1 1 4 8 10 8 3 0 9 6 11 5 10-7 2-12-2-17a5 5 0 00-1 0z"/><path class="g" d="M1259 205h-1a28 28 0 01-8 4 20 20 0 01-4 1l3-2a19 19 0 007-4c-5-3-7-8-12-5-9 7-5 14 6 11 3 0 6-3 6 1l-2 8 3 2v-1c-2-2 5-5 6-9 0-2-5-3-4-6zm-12 11c2-2 7-4 4 2a9 9 0 01-4-2zm20-2c0 6-6 9-6 6-1-5 2-8 4-8a10 10 0 012 2z"/><path class="p" d="M1246 199c0-2 4 2 5 2a24 24 0 003 2c1 0 3 0 4 2h-1l-4-2c-2 0-3-2-5-4h-2z"/><path class="k" d="M1239 207c4-2 6-2 11-2 3 0 3-1 5-2a6 6 0 01-4 2l-3 1c-3 2-1 4-4 6 3-3 1-4 3-5-4 0-2 3-5 4 3-2 2-4 5-4l3-2-11 2zm16-4z"/><path class="e" d="M1307 270l-4 5c-3 0-11-8-14-10-3-1-10-4-7-9 2-3 1-2 6-2l10 2c3 2 10 7 10 11a5 5 0 01-1 3zm0 0c1-2 2-2 1-4-1-4-8-10-12-11l-12-2-3 4c-2 5 5 7 8 9s11 9 14 9c2 0 4-4 4-5z"/><path class="k" d="M1307 270c-1 1-2 5-4 5s-7-4-9-6l-8-5c-3-1-7-5-4-8 1-2 0-3 5-2l12 2c3 3 13 9 8 14z"/><path class="g" d="M1284 254a14 14 0 013 0l12 2c2 2 10 7 9 12-2 2-2 4-8 0-5-2-3-3-8-6l-8-7v-1z"/><path class="p" d="M1290 255c5 0 15 4 16 9v1-1c-2-4-11-7-16-9z"/><path class="e" d="M1293 255v7c1 3-2 9 0 3 1-2-1-4-1-6 1-4 1-3-3 0l4-3v-1zM1321 233l5-7c3-3 6 0 9 3 2 1 15 9 14 11l-3 6c-1 2-3 5-5 3l-11-8c-1 0-10-7-9-8zm0 0c-1 1 8 7 9 8l11 8c2 2 4-1 5-3l3-6-13-10c-5-4-7-8-12-2l-3 5z"/><path class="k" d="M1321 233l5-7c3-3 4-1 8 2l9 7c2 1 7 4 6 5l-3 6c-1 2-3 5-5 3a177 177 0 00-14-10c-1-1-7-5-6-6z"/><path class="g" d="M1333 227l1 1 9 7c2 1 7 4 6 5a8 8 0 01-1 1l-2 1c0 4 0 4-3 5-3 2-4-1-3-2 2-4-3-3-6-3l-10-8c-2-2-1-3 0-5 3-4 5-2 5-3l4 1zm-2 4a8 8 0 012 0h1a1 1 0 01-1-2s-7-1-2 2zm8 12s-2-2-3 0c0 0 1 2 3 1v-1z"/><path class="p" d="M1338 232l9 7h-2l-7-7z"/><path class="k" d="M1323 230a6 6 0 002 0c2-1 5 1 5 2l-4-2-3 1v-1z"/><path class="e" d="M1194 192l5-7c4-4 6 0 9 2l15 11-4 7c-1 2-3 5-5 3l-11-8c0-1-10-7-9-8zm0 0c-1 1 8 7 10 8l10 8c2 1 4-2 5-3l3-7c1-1-11-9-13-10-5-3-7-7-11-1l-4 5z"/><path class="k" d="M1194 192c2-2 2-5 5-7s5-1 8 1l9 7c2 1 7 4 6 5l-3 7c0 1-3 5-5 3a179 179 0 00-14-11c-1 0-7-4-6-5z"/><path class="g" d="M1206 186h1l9 7c2 1 7 4 6 5a9 9 0 010 2l-3 1c0 3 1 3-2 5-4 2-5-1-4-2 2-4-3-3-6-3l-10-8c-2-3-1-4 1-5 2-4 4-3 4-3l4 1zm-2 3a8 8 0 012 1l1-1a2 2 0 01-1-1s-7-1-2 1zm8 13s-2-2-3 0c0 0 1 2 3 1v-1z"/><path class="p" d="M1211 190l9 8-1-1c-4-2-5-4-8-7z"/><path class="k" d="M1196 189a6 6 0 003 0c2-1 4 1 5 1h-1c-1 0-2-2-4-1h-3zM1293 255v7c1 3-2 9 0 3 1-2-1-4-1-6 1-4 1-3-3 0l4-3v-1z"/></g></svg>